<?xml version="1.0" standalone="no"?><!DOCTYPE svg PUBLIC "-//W3C//DTD SVG 1.1//EN" "http://www.w3.org/Graphics/SVG/1.1/DTD/svg11.dtd"><svg t="1626073302029" class="icon" viewBox="0 0 1024 1024" version="1.1" xmlns="http://www.w3.org/2000/svg" p-id="10217" xmlns:xlink="http://www.w3.org/1999/xlink" width="200" height="200"><defs><style type="text/css"></style></defs><path d="M925.605121 322.967463L891.117544 233.686537a25.462791 25.462791 0 0 0-21.917339-15.229327H157.531312a26.993782 26.993782 0 0 0-22.561967 14.987592l-38.838814 89.442082" fill="#F6E89A" p-id="10218"></path><path d="M925.605121 347.140998a24.173536 24.173536 0 0 1-22.561966-15.471062l-34.165264-88.636298s0-0.564049-0.483471-0.564049H158.175939c-0.402892 0-0.966941 0.725206-1.289255 1.047519l-38.597079 88.636298A24.173536 24.173536 0 1 1 73.729721 313.378627l39.080549-89.844975a50.764425 50.764425 0 0 1 44.721042-29.491713h711.668893a49.314013 49.314013 0 0 1 44.479305 30.70039L948.167088 314.26499a24.173536 24.173536 0 0 1-13.859494 31.264439 23.528908 23.528908 0 0 1-8.702473 1.611569z" fill="#8D4520" p-id="10219"></path><path d="M974.435664 909.41744c0 63.254085-207.006045 114.58256-462.43974 114.58256S49.556185 972.671526 49.556185 909.41744s207.006045-114.58256 462.439739-114.582559 462.439739 51.247896 462.43974 114.582559z" fill="#B8CBCD" opacity=".5" p-id="10220"></path><path d="M136.419757 395.48807m32.231381 0l692.974692 0q32.231381 0 32.231381 32.231381l0 443.181489q0 32.231381-32.231381 32.231381l-692.974692 0q-32.231381 0-32.231381-32.231381l0-443.181489q0-32.231381 32.231381-32.231381Z" fill="#F6E89A" p-id="10221"></path><path d="M918.030747 870.90094a56.404917 56.404917 0 0 1-56.404917 56.404917h-692.974692a56.404917 56.404917 0 0 1-56.404917-56.404917v-443.181489a56.404917 56.404917 0 0 1 56.404917-56.404917h692.974692a56.404917 56.404917 0 0 1 56.404917 56.404917z m-48.347072-443.181489a8.057845 8.057845 0 0 0-8.057845-8.057845h-692.974692a8.057845 8.057845 0 0 0-8.057845 8.057845v443.181489a8.057845 8.057845 0 0 0 8.057845 8.057845h692.974692a8.057845 8.057845 0 0 0 8.057845-8.057845z" fill="#8D4520" p-id="10222"></path><path d="M160.593293 621.107737h709.090382v64.462762h-709.090382z" fill="#E8C980" p-id="10223"></path><path d="M96.130531 322.967463v241.735357a32.231381 32.231381 0 0 0 31.74791 32.231381h765.495299a32.714852 32.714852 0 0 0 32.714852-32.231381v-241.735357" fill="#F6E89A" p-id="10224"></path><path d="M893.37374 621.107737h-765.495299a56.404917 56.404917 0 0 1-55.921446-56.404917v-241.735357a24.173536 24.173536 0 0 1 48.347071 0v241.735357a8.057845 8.057845 0 0 0 7.574375 8.057846h765.495299a8.541316 8.541316 0 0 0 8.541316-8.057846v-241.735357a24.173536 24.173536 0 0 1 48.347072 0v241.735357a56.888388 56.888388 0 0 1-56.888388 56.404917z" fill="#8D4520" p-id="10225"></path><path d="M96.130531 339.083153h829.958061" fill="#F6E89A" p-id="10226"></path><path d="M925.605121 355.198844h-829.958061a16.115691 16.115691 0 1 1 0-32.231381h829.958061a16.115691 16.115691 0 0 1 0 32.231381z" fill="#8D4520" p-id="10227"></path><path d="M458.733567 258.504701h104.751989v636.569775h-104.751989z" fill="#FFFFFF" p-id="10228"></path><path d="M563.485556 911.190166h-104.751989a16.115691 16.115691 0 0 1-16.11569-16.11569v-636.569775a16.115691 16.115691 0 0 1 16.11569-16.115691h104.751989a16.115691 16.115691 0 0 1 16.11569 16.115691v636.569775a16.115691 16.115691 0 0 1-16.11569 16.11569z m-88.636298-32.231381h72.520607v-604.338394h-72.520607z" fill="#8D4520" p-id="10229"></path><path d="M709.816025 162.374607C678.068115 194.041939 507.241796 250.446855 507.241796 250.446855s56.404917-170.906898 88.072248-202.574229a80.578453 80.578453 0 1 1 114.501981 114.501981z" fill="#FFFFFF" p-id="10230"></path><path d="M507.241796 274.620391a24.173536 24.173536 0 0 1-22.561967-31.74791C494.026929 213.380767 544.307884 64.471787 578.231412 30.789994a104.751988 104.751988 0 0 1 148.667245 148.667245c-33.923529 34.004107-182.590774 84.204483-212.001908 93.954475a24.898742 24.898742 0 0 1-7.654953 1.208677zM652.605324 48.356096a56.404917 56.404917 0 0 0-40.289226 16.599162C597.489663 80.023428 568.884312 149.079162 546.402924 211.285727 608.609489 188.804339 678.068115 160.360145 692.733393 145.050239a56.404917 56.404917 0 0 0-40.289226-96.694143z" fill="#8D4520" p-id="10231"></path><path d="M427.710863 47.872626c31.667332 31.667332 88.072249 202.57423 88.072249 202.574229s-170.906898-56.404917-202.57423-88.072248A80.578453 80.578453 0 0 1 427.710863 47.872626z" fill="#FFFFFF" p-id="10232"></path><path d="M515.783112 274.620391a24.818163 24.818163 0 0 1-7.574375-1.208677c-29.411135-9.749993-178.07838-59.950369-212.082487-93.954475A104.751988 104.751988 0 0 1 444.793495 30.789994C478.797602 64.471787 528.997978 213.380767 538.747971 242.872481a24.173536 24.173536 0 0 1-22.964859 31.74791zM370.500162 48.356096a56.404917 56.404917 0 0 0-40.289227 96.694143c14.987592 15.068171 84.043326 43.512364 146.249892 65.993753-22.320231-61.96483-50.764425-131.020564-65.832596-146.088734A56.404917 56.404917 0 0 0 370.500162 48.356096z" fill="#8D4520" p-id="10233"></path></svg>