<?xml version="1.0" standalone="no"?><!DOCTYPE svg PUBLIC "-//W3C//DTD SVG 1.1//EN" "http://www.w3.org/Graphics/SVG/1.1/DTD/svg11.dtd"><svg t="1625812252929" class="icon" viewBox="0 0 1024 1024" version="1.1" xmlns="http://www.w3.org/2000/svg" p-id="57035" xmlns:xlink="http://www.w3.org/1999/xlink" width="200" height="200"><defs><style type="text/css"></style></defs><path d="M827.36 196.64C743.14 112.4 631.14 66 512.02 66H512c-119.14 0-231.14 46.4-315.36 130.64C112.4 280.86 66 392.86 66 512s46.4 231.14 130.64 315.36C280.86 911.6 392.86 958 511.98 958h0.02c119.14 0 231.14-46.4 315.36-130.64C911.6 743.14 958 631.14 958 512s-46.4-231.14-130.64-315.36z m-315.34 66.58h0.02c11.6 0.02 21.04 9.46 21.04 21.08s-9.46 21.08-21.08 21.08c-11.62 0-21.08-9.46-21.08-21.08s9.44-21.08 21.06-21.08h0.04z m-0.04 497.56h-0.02c-11.6-0.02-21.04-9.46-21.04-21.08s9.46-21.08 21.08-21.08c11.62 0 21.08 9.46 21.08 21.08s-9.44 21.08-21.06 21.08h-0.04z m205.26 124.42v-76.18l91.84-91.82c0.86-0.88 1.52-1.88 2-2.94 0.04-0.1 0.1-0.18 0.14-0.28 0.22-0.54 0.4-1.1 0.52-1.66 0.02-0.08 0.04-0.14 0.06-0.2 0.14-0.68 0.2-1.36 0.2-2.06v-83.44c17.84-4.48 31.08-20.6 31.08-39.8 0-22.66-18.42-41.08-41.08-41.08-22.64 0-41.08 18.42-41.08 41.08 0 19.2 13.26 35.32 31.08 39.8V706l-91.84 91.84c-0.4 0.38-0.72 0.82-1.04 1.26-0.04 0.08-0.12 0.14-0.18 0.22-0.32 0.48-0.58 0.98-0.8 1.48-0.04 0.08-0.08 0.14-0.12 0.22-0.54 1.28-0.8 2.64-0.78 4v90.56a421.732 421.732 0 0 1-71.9 27.08v-166.48l41.26-41.26c0.48-0.48 0.9-1 1.28-1.56 0.1-0.16 0.16-0.32 0.26-0.48 0.24-0.4 0.46-0.8 0.64-1.24 0.1-0.22 0.14-0.44 0.2-0.64 0.14-0.4 0.28-0.8 0.38-1.24 0.04-0.26 0.04-0.54 0.08-0.82 0.04-0.36 0.1-0.72 0.1-1.1v-23.62c17.84-4.48 31.08-20.6 31.08-39.8 0-22.66-18.42-41.08-41.08-41.08-22.66 0-41.08 18.42-41.08 41.08 0 19.2 13.26 35.32 31.08 39.8v19.46l-41.28 41.3c-0.04 0.04-0.08 0.1-0.12 0.14-0.4 0.42-0.78 0.88-1.12 1.36-0.22 0.34-0.38 0.68-0.56 1.04-0.1 0.22-0.24 0.44-0.34 0.68-0.2 0.46-0.34 0.96-0.46 1.44-0.04 0.14-0.1 0.28-0.12 0.42-0.14 0.68-0.2 1.38-0.2 2.06v175.56a425.42 425.42 0 0 1-83.36 10.2v-158.38c17.84-4.48 31.1-20.6 31.1-39.8 0-22.66-18.42-41.08-41.08-41.08-22.66 0-41.08 18.42-41.08 41.08 0 19.2 13.24 35.3 31.06 39.8v158.38c-28.56-0.66-56.4-4.16-83.32-10.2v-175.56c0-0.68-0.06-1.38-0.2-2.08-0.02-0.12-0.08-0.24-0.12-0.38-0.12-0.5-0.26-0.98-0.46-1.46-0.08-0.24-0.22-0.44-0.32-0.64-0.2-0.36-0.36-0.74-0.58-1.08-0.3-0.42-0.64-0.82-0.98-1.2-0.1-0.1-0.16-0.2-0.26-0.3l-41.28-41.28v-19.48c17.82-4.48 31.08-20.6 31.08-39.8 0-22.66-18.42-41.08-41.08-41.08-22.66 0-41.08 18.42-41.08 41.08 0 19.2 13.26 35.32 31.08 39.8v23.62c0 0.08 0.02 0.18 0.02 0.26 0.02 0.56 0.06 1.14 0.18 1.68 0.06 0.32 0.18 0.6 0.26 0.92 0.1 0.32 0.18 0.64 0.3 0.96 0.14 0.32 0.32 0.62 0.5 0.94 0.14 0.26 0.26 0.54 0.42 0.78 0.34 0.52 0.74 0.98 1.16 1.42 0.04 0.04 0.06 0.08 0.08 0.1l41.28 41.28v166.48c-24.96-6.88-49-15.98-71.9-27.08v-90.52c0.04-2.62-0.92-5.24-2.92-7.22L232 705.98v-79.36c17.82-4.48 31.08-20.6 31.08-39.8 0-22.66-18.44-41.08-41.08-41.08-22.66 0-41.08 18.42-41.08 41.08 0 19.2 13.26 35.32 31.08 39.8v83.46c0 0.68 0.06 1.36 0.2 2.02 0.02 0.12 0.08 0.22 0.1 0.34 0.12 0.52 0.26 1.04 0.48 1.54l0.18 0.36c0.22 0.46 0.46 0.92 0.74 1.36 0.02 0.04 0.06 0.06 0.08 0.08 0.34 0.5 0.7 0.98 1.14 1.42l91.84 91.82v76.18C175.26 812.58 86 672.54 86 512S175.26 211.42 306.76 138.8v76.16l-91.84 91.84c-0.86 0.88-1.52 1.88-2 2.94-0.04 0.1-0.1 0.18-0.14 0.28-0.22 0.54-0.38 1.08-0.52 1.66l-0.06 0.2c-0.14 0.68-0.2 1.36-0.2 2.06v83.44c-17.84 4.48-31.08 20.6-31.08 39.8 0 22.66 18.42 41.08 41.08 41.08 22.64 0 41.08-18.42 41.08-41.08 0-19.2-13.26-35.32-31.08-39.8v-79.36l91.84-91.84c0.9-0.92 1.58-1.94 2.06-3.04 0.02-0.06 0.06-0.1 0.08-0.16 0.54-1.28 0.8-2.64 0.78-4V128.42c22.9-11.1 46.94-20.2 71.9-27.08v166.48l-41.28 41.28c-0.46 0.46-0.88 0.98-1.24 1.52-0.16 0.22-0.24 0.46-0.38 0.7-0.18 0.34-0.4 0.66-0.54 1.04-0.12 0.26-0.18 0.54-0.26 0.82-0.12 0.36-0.24 0.68-0.3 1.04-0.1 0.42-0.12 0.86-0.14 1.28-0.02 0.22-0.06 0.44-0.06 0.66v23.62c-17.84 4.48-31.08 20.6-31.08 39.8 0 22.66 18.42 41.08 41.08 41.08s41.08-18.42 41.08-41.08c0-19.2-13.26-35.32-31.08-39.8v-19.46l41.28-41.3c0.2-0.18 0.34-0.42 0.52-0.62 0.24-0.3 0.5-0.56 0.7-0.88 0.26-0.36 0.44-0.76 0.64-1.16 0.1-0.2 0.2-0.36 0.28-0.54 0.22-0.5 0.36-1.02 0.48-1.54 0.04-0.12 0.08-0.22 0.1-0.32 0.14-0.7 0.2-1.38 0.2-2.08V96.32a425.42 425.42 0 0 1 83.36-10.2v158.38c-17.84 4.48-31.1 20.6-31.1 39.8 0 22.66 18.42 41.08 41.08 41.08 22.66 0 41.08-18.42 41.08-41.08 0-19.2-13.24-35.3-31.06-39.8V86.12c28.56 0.66 56.4 4.16 83.32 10.2v175.56c0 0.7 0.06 1.38 0.2 2.08 0.02 0.1 0.06 0.2 0.1 0.3 0.12 0.54 0.26 1.06 0.48 1.56 0.08 0.18 0.18 0.34 0.28 0.52 0.2 0.4 0.38 0.8 0.64 1.18 0.2 0.3 0.44 0.56 0.66 0.82 0.2 0.22 0.34 0.48 0.56 0.68l41.28 41.3v19.46c-17.82 4.48-31.08 20.6-31.08 39.8 0 22.66 18.42 41.08 41.08 41.08 22.66 0 41.08-18.42 41.08-41.08 0-19.2-13.26-35.32-31.08-39.8v-23.62c0-0.08-0.02-0.16-0.02-0.26-0.02-0.56-0.06-1.12-0.18-1.68-0.06-0.3-0.16-0.6-0.26-0.88-0.1-0.34-0.18-0.68-0.3-1-0.14-0.32-0.32-0.6-0.48-0.9-0.14-0.28-0.26-0.56-0.44-0.82a9.84 9.84 0 0 0-1-1.22c-0.1-0.1-0.16-0.22-0.24-0.3l-41.28-41.28V101.34c24.96 6.88 49 15.98 71.9 27.08v90.54c-0.02 1.38 0.24 2.74 0.78 4.02 0.02 0.02 0.02 0.04 0.04 0.08 0.48 1.12 1.18 2.18 2.1 3.12L792 318.02v79.36c-17.82 4.48-31.08 20.6-31.08 39.8 0 22.66 18.42 41.08 41.08 41.08s41.08-18.42 41.08-41.08c0-19.2-13.26-35.32-31.08-39.8v-83.46c0-0.68-0.06-1.36-0.2-2.02-0.02-0.14-0.08-0.26-0.12-0.38-0.12-0.52-0.26-1.02-0.46-1.5-0.06-0.16-0.16-0.28-0.22-0.44-0.22-0.44-0.42-0.86-0.7-1.28-0.08-0.1-0.16-0.18-0.24-0.28-0.3-0.42-0.6-0.84-0.98-1.22l-91.84-91.82V138.8C848.74 211.42 938 351.46 938 512s-89.26 300.58-220.76 373.2zM802 607.9c-11.62 0-21.08-9.46-21.08-21.08s9.46-21.08 21.08-21.08c11.64 0 21.08 9.46 21.08 21.08s-9.44 21.08-21.08 21.08z m-142.46 57.6c-11.62 0-21.08-9.46-21.08-21.08s9.46-21.08 21.08-21.08 21.08 9.46 21.08 21.08-9.46 21.08-21.08 21.08z m-295.08 0c-11.62 0-21.08-9.46-21.08-21.08s9.46-21.08 21.08-21.08 21.08 9.46 21.08 21.08-9.46 21.08-21.08 21.08zM222 607.9c-11.62 0-21.08-9.46-21.08-21.08s9.46-21.08 21.08-21.08 21.08 9.46 21.08 21.08-9.46 21.08-21.08 21.08z m0-191.8c11.62 0 21.08 9.46 21.08 21.08s-9.46 21.08-21.08 21.08c-11.64 0-21.08-9.46-21.08-21.08s9.44-21.08 21.08-21.08z m142.46-57.6c11.62 0 21.08 9.46 21.08 21.08s-9.46 21.08-21.08 21.08-21.08-9.46-21.08-21.08 9.46-21.08 21.08-21.08z m295.08 0c11.62 0 21.08 9.46 21.08 21.08s-9.46 21.08-21.08 21.08-21.08-9.46-21.08-21.08 9.46-21.08 21.08-21.08z m142.46 57.6c11.62 0 21.08 9.46 21.08 21.08s-9.46 21.08-21.08 21.08-21.08-9.46-21.08-21.08 9.46-21.08 21.08-21.08z" fill="#23130D" p-id="57036"></path><path d="M533.08 284.3c0 11.62-9.46 21.08-21.08 21.08-11.62 0-21.08-9.46-21.08-21.08s9.44-21.08 21.06-21.08h0.06c11.6 0.02 21.04 9.46 21.04 21.08zM823.08 437.18c0 11.62-9.46 21.08-21.08 21.08s-21.08-9.46-21.08-21.08 9.46-21.08 21.08-21.08 21.08 9.46 21.08 21.08zM680.62 379.58c0 11.62-9.46 21.08-21.08 21.08s-21.08-9.46-21.08-21.08 9.46-21.08 21.08-21.08 21.08 9.46 21.08 21.08zM823.08 586.82c0 11.62-9.44 21.08-21.08 21.08-11.62 0-21.08-9.46-21.08-21.08s9.46-21.08 21.08-21.08c11.64 0 21.08 9.46 21.08 21.08zM680.62 644.42c0 11.62-9.46 21.08-21.08 21.08s-21.08-9.46-21.08-21.08 9.46-21.08 21.08-21.08 21.08 9.46 21.08 21.08zM533.08 739.7c0 11.62-9.44 21.08-21.06 21.08h-0.06c-11.6-0.02-21.04-9.46-21.04-21.08s9.46-21.08 21.08-21.08c11.62 0 21.08 9.46 21.08 21.08zM385.54 644.42c0 11.62-9.46 21.08-21.08 21.08s-21.08-9.46-21.08-21.08 9.46-21.08 21.08-21.08 21.08 9.46 21.08 21.08zM243.08 586.82c0 11.62-9.46 21.08-21.08 21.08s-21.08-9.46-21.08-21.08 9.46-21.08 21.08-21.08 21.08 9.46 21.08 21.08zM243.08 437.18c0 1.6-0.18 3.16-0.52 4.64-0.52 2.34-1.44 4.52-2.68 6.48a18.7 18.7 0 0 1-2.48 3.26c-0.9 0.96-1.86 1.82-2.92 2.58-0.54 0.42-1.1 0.8-1.68 1.12-1.54 0.94-3.22 1.68-4.98 2.18-1.86 0.54-3.8 0.82-5.82 0.82-11.64 0-21.08-9.46-21.08-21.08 0-2.02 0.28-3.98 0.82-5.82 0.5-1.78 1.24-3.44 2.18-4.98 0.32-0.58 0.7-1.14 1.1-1.68 0.78-1.06 1.64-2.02 2.6-2.92 1-0.94 2.08-1.78 3.26-2.5a20.8 20.8 0 0 1 6.48-2.66c1.48-0.34 3.04-0.52 4.64-0.52 11.62 0 21.08 9.46 21.08 21.08zM385.54 379.58c0 11.62-9.46 21.08-21.08 21.08s-21.08-9.46-21.08-21.08 9.46-21.08 21.08-21.08 21.08 9.46 21.08 21.08z" fill="#F9C139" p-id="57037"></path><path d="M717.24 138.8v76.18l91.84 91.82c0.38 0.38 0.68 0.8 0.98 1.22 0.08 0.1 0.16 0.18 0.24 0.28 0.28 0.42 0.48 0.84 0.7 1.28 0.06 0.16 0.16 0.28 0.22 0.44 0.2 0.48 0.34 0.98 0.46 1.5 0.04 0.12 0.1 0.24 0.12 0.38 0.14 0.66 0.2 1.34 0.2 2.02v83.46c17.82 4.48 31.08 20.6 31.08 39.8 0 22.66-18.42 41.08-41.08 41.08s-41.08-18.42-41.08-41.08c0-19.2 13.26-35.32 31.08-39.8v-79.36l-91.84-91.84c-0.92-0.94-1.62-2-2.1-3.12-0.02-0.04-0.02-0.06-0.04-0.08-0.54-1.28-0.8-2.64-0.78-4.02V128.42a421.732 421.732 0 0 0-71.9-27.08v166.48l41.28 41.28c0.08 0.08 0.14 0.2 0.24 0.3 0.36 0.38 0.7 0.78 1 1.22 0.18 0.26 0.3 0.54 0.44 0.82 0.16 0.3 0.34 0.58 0.48 0.9 0.12 0.32 0.2 0.66 0.3 1 0.1 0.28 0.2 0.58 0.26 0.88 0.12 0.56 0.16 1.12 0.18 1.68 0 0.1 0.02 0.18 0.02 0.26v23.62c17.82 4.48 31.08 20.6 31.08 39.8 0 22.66-18.42 41.08-41.08 41.08-22.66 0-41.08-18.42-41.08-41.08 0-19.2 13.26-35.32 31.08-39.8v-19.46l-41.28-41.3c-0.22-0.2-0.36-0.46-0.56-0.68-0.22-0.26-0.46-0.52-0.66-0.82-0.26-0.38-0.44-0.78-0.64-1.18-0.1-0.18-0.2-0.34-0.28-0.52-0.22-0.5-0.36-1.02-0.48-1.56-0.04-0.1-0.08-0.2-0.1-0.3-0.14-0.7-0.2-1.38-0.2-2.08V96.32a425.014 425.014 0 0 0-83.32-10.2v158.38c17.82 4.5 31.06 20.6 31.06 39.8 0 20.82-15.54 38.04-35.64 40.7-1.78 0.26-3.6 0.38-5.44 0.38-22.66 0-41.08-18.42-41.08-41.08 0-1.84 0.12-3.66 0.36-5.46 2.24-16.74 14.62-30.3 30.74-34.34V86.12a425.42 425.42 0 0 0-83.36 10.2v175.56c0 0.7-0.06 1.38-0.2 2.08-0.02 0.1-0.06 0.2-0.1 0.32-0.12 0.52-0.26 1.04-0.48 1.54-0.08 0.18-0.18 0.34-0.28 0.54-0.2 0.4-0.38 0.8-0.64 1.16-0.2 0.32-0.46 0.58-0.7 0.88-0.18 0.2-0.32 0.44-0.52 0.62l-30.18 30.2-11.1 11.1v19.46c17.82 4.48 31.08 20.6 31.08 39.8 0 6.52-1.52 12.68-4.24 18.14-6.7 13.58-20.68 22.94-36.84 22.94-4.1 0-8.04-0.6-11.78-1.72a41.258 41.258 0 0 1-27.58-27.58c-1.12-3.74-1.72-7.68-1.72-11.78 0-16.16 9.36-30.12 22.96-36.82 2.58-1.26 5.28-2.26 8.12-2.98v-23.62c0-0.22 0.04-0.44 0.06-0.66 0.02-0.42 0.04-0.86 0.14-1.28 0.06-0.36 0.18-0.68 0.3-1.04 0.08-0.28 0.14-0.56 0.26-0.82 0.14-0.38 0.36-0.7 0.54-1.04 0.14-0.24 0.22-0.48 0.38-0.7 0.36-0.54 0.78-1.06 1.24-1.52l14.04-14.02 27.24-27.26V101.34c-24.96 6.88-49 15.98-71.9 27.08v90.56c0.02 1.36-0.24 2.72-0.78 4-0.02 0.06-0.06 0.1-0.08 0.16a10.1 10.1 0 0 1-2.06 3.04L232 318.02v79.36c17.82 4.48 31.08 20.6 31.08 39.8 0 5.44-1.06 10.62-2.98 15.36-6.1 15.06-20.88 25.72-38.1 25.72-22.66 0-41.08-18.42-41.08-41.08 0-17.24 10.66-31.98 25.76-38.06 1.72-0.7 3.5-1.28 5.32-1.74v-83.44c0-0.12 0-0.22 0.02-0.34 0-0.58 0.06-1.16 0.18-1.72l0.06-0.2c0.14-0.58 0.3-1.12 0.52-1.66 0.04-0.1 0.1-0.18 0.14-0.28 0.48-1.06 1.14-2.06 2-2.94l12.82-12.8 71.3-71.3 7.72-7.74V138.8a424.764 424.764 0 0 0-55.24 36.38 425.904 425.904 0 0 0-38.8 33.96c-11.72 11.6-22.78 23.86-33.1 36.74-5.28 6.54-10.34 13.26-15.2 20.12a425.648 425.648 0 0 0-34.06 56.8C101.98 379.82 86 444.08 86 512c0 160.54 89.26 300.58 220.76 373.2v-76.18l-91.84-91.82c-0.44-0.44-0.8-0.92-1.14-1.42-0.02-0.02-0.06-0.04-0.08-0.08-0.28-0.44-0.52-0.9-0.74-1.36l-0.18-0.36c-0.22-0.5-0.36-1.02-0.48-1.54-0.02-0.12-0.08-0.22-0.1-0.34-0.14-0.66-0.2-1.34-0.2-2.02v-83.46c-17.82-4.48-31.08-20.6-31.08-39.8 0-22.66 18.42-41.08 41.08-41.08 22.64 0 41.08 18.42 41.08 41.08 0 19.2-13.26 35.32-31.08 39.8v79.36l91.84 91.86c2 1.98 2.96 4.6 2.92 7.22v90.52c22.9 11.1 46.94 20.2 71.9 27.08v-166.48l-41.28-41.28c-0.02-0.02-0.04-0.06-0.08-0.1-0.42-0.44-0.82-0.9-1.16-1.42-0.16-0.24-0.28-0.52-0.42-0.78-0.18-0.32-0.36-0.62-0.5-0.94-0.12-0.32-0.2-0.64-0.3-0.96-0.08-0.32-0.2-0.6-0.26-0.92-0.12-0.54-0.16-1.12-0.18-1.68 0-0.08-0.02-0.18-0.02-0.26v-23.62c-17.82-4.48-31.08-20.6-31.08-39.8 0-22.66 18.42-41.08 41.08-41.08s41.08 18.42 41.08 41.08c0 19.2-13.26 35.32-31.08 39.8v19.48l41.28 41.28c0.1 0.1 0.16 0.2 0.26 0.3 0.34 0.38 0.68 0.78 0.98 1.2 0.22 0.34 0.38 0.72 0.58 1.08 0.1 0.2 0.24 0.4 0.32 0.64 0.2 0.48 0.34 0.96 0.46 1.46 0.04 0.14 0.1 0.26 0.12 0.38 0.14 0.7 0.2 1.4 0.2 2.08v175.56c26.92 6.04 54.76 9.54 83.32 10.2v-158.38c-17.82-4.5-31.06-20.6-31.06-39.8 0-20.82 15.54-38.04 35.64-40.7 1.78-0.26 3.6-0.38 5.44-0.38 22.66 0 41.08 18.42 41.08 41.08 0 1.84-0.12 3.66-0.36 5.46-2.24 16.74-14.62 30.3-30.74 34.34v158.38a425.42 425.42 0 0 0 83.36-10.2v-175.56c0-0.68 0.06-1.38 0.2-2.06 0.02-0.14 0.08-0.28 0.12-0.42 0.12-0.48 0.26-0.98 0.46-1.44 0.1-0.24 0.24-0.46 0.34-0.68 0.18-0.36 0.34-0.7 0.56-1.04 0.34-0.48 0.72-0.94 1.12-1.36 0.04-0.04 0.08-0.1 0.12-0.14l17.56-17.58 17.66-17.66 6.06-6.06v-19.46c-17.82-4.48-31.08-20.6-31.08-39.8 0-8.4 2.52-16.2 6.84-22.7 7.38-11.08 19.96-18.38 34.24-18.38 22.66 0 41.08 18.42 41.08 41.08 0 14.28-7.32 26.86-18.42 34.2a40.528 40.528 0 0 1-12.66 5.6v23.62c0 0.38-0.06 0.74-0.1 1.1-0.04 0.28-0.04 0.56-0.08 0.82-0.1 0.44-0.24 0.84-0.38 1.24-0.06 0.2-0.1 0.42-0.2 0.64-0.18 0.44-0.4 0.84-0.64 1.24-0.1 0.16-0.16 0.32-0.26 0.48-0.38 0.56-0.8 1.08-1.28 1.56l-8.96 8.98-17.66 17.66-14.64 14.62v166.48c24.96-6.88 49-15.98 71.9-27.08v-90.56c-0.02-1.36 0.24-2.72 0.78-4 0.04-0.08 0.08-0.14 0.12-0.22 0.1-0.24 0.22-0.48 0.36-0.72 0.12-0.26 0.28-0.52 0.44-0.76 0.06-0.08 0.14-0.14 0.18-0.22 0.32-0.44 0.64-0.88 1.04-1.26l15.72-15.7 71.3-71.3L792 706v-79.38c-17.82-4.48-31.08-20.6-31.08-39.8 0-5.44 1.06-10.62 2.98-15.36 6.1-15.06 20.88-25.72 38.1-25.72 22.66 0 41.08 18.42 41.08 41.08 0 17.24-10.66 31.98-25.76 38.06-1.72 0.7-3.5 1.28-5.32 1.74v83.44c0 0.7-0.06 1.38-0.2 2.06-0.02 0.06-0.04 0.12-0.06 0.2-0.12 0.56-0.3 1.12-0.52 1.66-0.04 0.1-0.1 0.18-0.14 0.28a10.22 10.22 0 0 1-2 2.94l-7.78 7.76-84.06 84.06v76.18c14.1-7.78 27.7-16.34 40.76-25.62 6.86-4.86 13.58-9.94 20.12-15.2 12.88-10.32 25.16-21.38 36.72-33.12a425.84 425.84 0 0 0 34-38.76c17.16-22.12 32.2-46 44.8-71.3C922.02 644.18 938 579.92 938 512c0-160.54-89.26-300.58-220.76-373.2zM303.96 522c-5.52 0-10-4.48-10-10s4.48-10 10-10h37.04c5.52 0 10 4.48 10 10s-4.48 10-10 10h-37.04z m112.84 0h-37.04c-5.52 0-10-4.48-10-10s4.48-10 10-10h37.04c5.52 0 10 4.48 10 10 0 4.44-2.88 8.2-6.88 9.5-0.98 0.32-2.04 0.5-3.12 0.5z m38.78 0c-5.52 0-10-4.48-10-10v-0.16a10.01 10.01 0 0 1 10-9.84h37.04c5.52 0 10 4.48 10 10s-4.48 10-10 10h-37.04z m122.84-10c0 5.52-4.48 10-10 10h-37.04c-5.52 0-10-4.48-10-10s4.48-10 10-10h37.04c5.52 0 10 4.48 10 10z m75.8 0c0 5.52-4.46 10-10 10H607.2c-5.52 0-10-4.48-10-10s4.48-10 10-10h37.02c5.54 0 10 4.48 10 10z m28.78 10c-5.52 0-10-4.48-10-10s4.48-10 10-10h37.04c5.52 0 10 4.48 10 10s-4.48 10-10 10H683z" fill="#3594BF" p-id="57038"></path><path d="M494.02 94.388v144.304c-16.302 6.47-28.316 21.5-30.67 39.092a49.392 49.392 0 0 0-0.43 6.518c0 27.062 22.018 49.08 49.08 49.08 2.25 0 4.45-0.154 6.542-0.456 24.254-3.236 42.538-24.13 42.538-48.624 0-20.348-12.496-38.298-31.06-45.614v-144.3a418.794 418.794 0 0 1 67.32 8.386v169.106c0 1.26 0.116 2.454 0.356 3.648 0.074 0.37 0.164 0.696 0.256 0.982 0.176 0.72 0.434 1.594 0.858 2.558 0.15 0.338 0.316 0.658 0.518 1.014 0.228 0.466 0.574 1.168 1.058 1.874 0.432 0.648 0.86 1.146 1.116 1.442l0.052 0.06c0.21 0.282 0.58 0.766 1.124 1.29l38.866 38.884v10.328a48.988 48.988 0 0 0-31.08 45.62c0 27.062 22.018 49.08 49.08 49.08s49.08-22.018 49.08-49.08a48.99 48.99 0 0 0-31.08-45.62v-17.8c0-0.246-0.01-0.492-0.032-0.748a17.018 17.018 0 0 0-0.334-2.816 13.222 13.222 0 0 0-0.462-1.666l-0.008-0.03a16.28 16.28 0 0 0-0.432-1.368l-0.076-0.2-0.086-0.196a13.426 13.426 0 0 0-0.69-1.35l-0.022-0.038a12.18 12.18 0 0 0-0.928-1.632 17.426 17.426 0 0 0-1.518-1.91 8.272 8.272 0 0 0-0.676-0.76l-38.936-38.936V111.984a415.286 415.286 0 0 1 55.9 21.482v85.448a17.868 17.868 0 0 0 1.41 7.176l0.042 0.1 0.036 0.096 0.022 0.044 0.508 1.204 0.172 0.172c0.806 1.484 1.826 2.86 3.074 4.134L784 321.334v70.228a48.988 48.988 0 0 0-31.08 45.62c0 27.062 22.018 49.08 49.08 49.08s49.08-22.018 49.08-49.08a48.99 48.99 0 0 0-31.08-45.62v-77.64c0-1.216-0.116-2.402-0.342-3.526a8.812 8.812 0 0 0-0.302-1.164 16.548 16.548 0 0 0-0.714-2.196 8.89 8.89 0 0 0-0.452-0.96l-0.036-0.07-0.066-0.132a17.19 17.19 0 0 0-1.134-2.008l-0.192-0.288-0.216-0.27a12.46 12.46 0 0 0-0.196-0.238 15.782 15.782 0 0 0-1.614-1.922l-89.496-89.476V152.61C851.886 228.01 930 364.47 930 512c0 65.156-14.642 127.612-43.522 185.634a419.506 419.506 0 0 1-77.338 108.014 414.302 414.302 0 0 1-36.034 32.5 407.306 407.306 0 0 1-19.74 14.912 419.28 419.28 0 0 1-28.126 18.33v-59.054l81.71-81.71 7.78-7.76 0.036-0.036 0.036-0.036a18.134 18.134 0 0 0 3.474-5.032c0.11-0.21 0.236-0.47 0.354-0.762 0.348-0.854 0.628-1.718 0.836-2.574l0.076-0.226 0.096-0.466a17.94 17.94 0 0 0 0.364-3.674v-77.634l0.308-0.124c18.694-7.526 30.772-25.38 30.772-45.482 0-27.062-22.018-49.08-49.08-49.08-20.092 0-37.956 12.058-45.514 30.716a48.674 48.674 0 0 0-3.566 18.364 48.99 48.99 0 0 0 31.08 45.62v70.256l-2.476 2.488-71.296 71.296-15.668 15.648c-0.788 0.764-1.362 1.52-1.77 2.078a9.5 9.5 0 0 0-0.248 0.314l-0.134 0.178-0.124 0.184a14.302 14.302 0 0 0-0.864 1.466 14.864 14.864 0 0 0-0.46 0.908 7.96 7.96 0 0 0-0.096 0.186l-0.116 0.23-0.1 0.238a17.822 17.822 0 0 0-1.41 7.158v85.464a415.286 415.286 0 0 1-55.9 21.482v-152.52l12.296-12.28 17.666-17.666 8.954-8.974a18.688 18.688 0 0 0 2.242-2.724l0.084-0.124 0.08-0.128c0.158-0.252 0.296-0.5 0.43-0.764a16.86 16.86 0 0 0 1.046-2.064c0.248-0.576 0.394-1.07 0.484-1.404a16.8 16.8 0 0 0 0.534-1.834l0.062-0.276 0.044-0.28c0.05-0.32 0.082-0.652 0.114-1.054l0.01-0.098 0.02-0.156c0.048-0.39 0.13-1.042 0.13-1.826v-17.8a48.7 48.7 0 0 0 9.072-4.746c13.78-9.112 22.008-24.392 22.008-40.872 0-27.062-22.018-49.08-49.08-49.08-16.456 0-31.746 8.204-40.902 21.952a48.854 48.854 0 0 0-8.178 27.128 48.99 48.99 0 0 0 31.08 45.62v10.328l-3.716 3.716-17.664 17.664-17.556 17.576c-0.14 0.14-0.284 0.296-0.428 0.464-0.606 0.652-1.17 1.348-1.682 2.07l-0.096 0.138-0.092 0.14a16.156 16.156 0 0 0-0.934 1.678l-0.066 0.13-0.062 0.126a12.86 12.86 0 0 0-0.484 1.002 16.604 16.604 0 0 0-0.79 2.358c-0.1 0.314-0.21 0.702-0.294 1.168a18.314 18.314 0 0 0-0.334 3.524v169.106a418.976 418.976 0 0 1-67.36 8.388v-144.304c16.302-6.47 28.316-21.5 30.67-39.092 0.286-2.14 0.43-4.334 0.43-6.518 0-27.062-22.018-49.08-49.08-49.08-2.25 0-4.45 0.154-6.542 0.456-24.254 3.236-42.538 24.132-42.538 48.624 0 20.348 12.496 38.298 31.06 45.614v144.3a418.794 418.794 0 0 1-67.32-8.386V752.12a18.66 18.66 0 0 0-0.344-3.59 8.956 8.956 0 0 0-0.298-1.14 16.766 16.766 0 0 0-0.672-2.064 10.474 10.474 0 0 0-0.68-1.442l-0.016-0.032-0.084-0.152-0.076-0.15c-0.168-0.334-0.422-0.84-0.794-1.416l-0.1-0.154-0.106-0.15a21.868 21.868 0 0 0-1.492-1.844 8.936 8.936 0 0 0-0.6-0.662l-38.936-38.936v-10.348a48.988 48.988 0 0 0 31.08-45.62c0-27.062-22.018-49.08-49.08-49.08s-49.08 22.018-49.08 49.08a48.99 48.99 0 0 0 31.08 45.62v17.8c0 0.23 0.01 0.484 0.032 0.744 0.032 0.772 0.106 1.752 0.334 2.82 0.114 0.566 0.256 1.022 0.362 1.35l0.028 0.11 0.07 0.222 0.052 0.174c0.118 0.404 0.242 0.806 0.394 1.208l0.076 0.2 0.086 0.196c0.282 0.646 0.582 1.17 0.778 1.518l0.032 0.058c0.15 0.3 0.4 0.802 0.744 1.316 0.574 0.876 1.178 1.598 1.67 2.138l0.128 0.178 0.482 0.482 38.936 38.936v152.522a415.286 415.286 0 0 1-55.9-21.482v-85.416c0.058-4.924-1.82-9.524-5.262-12.934L240 702.666V632.44a48.988 48.988 0 0 0 31.08-45.62c0-27.062-22.018-49.08-49.08-49.08s-49.08 22.018-49.08 49.08A48.99 48.99 0 0 0 204 632.44v77.64c0 1.238 0.12 2.444 0.354 3.588 0.068 0.342 0.148 0.638 0.224 0.886 0.18 0.736 0.442 1.656 0.878 2.648l0.08 0.18 0.088 0.176 0.15 0.298c0.364 0.756 0.714 1.398 1.094 2.008 0.194 0.32 0.408 0.624 0.644 0.912 0.428 0.596 1.01 1.34 1.752 2.082l89.496 89.476v59.056C172.114 795.99 94 659.53 94 512c0-65.156 14.642-127.612 43.52-185.63a418.78 418.78 0 0 1 33.428-55.744 395.684 395.684 0 0 1 14.916-19.742 423.67 423.67 0 0 1 32.476-36.048 419.574 419.574 0 0 1 38.088-33.336 417.64 417.64 0 0 1 42.332-28.884v59.038l-5.376 5.39-71.296 71.296-12.89 12.87a18.134 18.134 0 0 0-3.474 5.032 8.586 8.586 0 0 0-0.354 0.762c-0.322 0.792-0.586 1.6-0.82 2.524l-0.082 0.244-0.092 0.434a16.242 16.242 0 0 0-0.352 2.942c-0.024 0.358-0.024 0.636-0.024 0.792v77.636l-0.308 0.124c-18.694 7.526-30.772 25.38-30.772 45.482 0 27.062 22.018 49.08 49.08 49.08 20.092 0 37.956-12.058 45.514-30.716a48.674 48.674 0 0 0 3.566-18.364 48.99 48.99 0 0 0-31.08-45.62v-70.228l89.558-89.56a18.144 18.144 0 0 0 3.472-4.988l0.262-0.442 0.194-0.582a17.784 17.784 0 0 0 1.274-6.83V133.466a415.286 415.286 0 0 1 55.9-21.482v152.524l-24.892 24.912-14.044 14.024a17.954 17.954 0 0 0-2.178 2.648 10.422 10.422 0 0 0-0.818 1.414l-0.018 0.034-0.056 0.098c-0.19 0.33-0.526 0.912-0.832 1.674a11.94 11.94 0 0 0-0.516 1.53 14.102 14.102 0 0 0-0.764 4.01 10.888 10.888 0 0 0-0.082 1.308v17.812c-1.236 0.488-2.454 1.024-3.656 1.61-16.916 8.334-27.424 25.192-27.424 43.996 0 4.784 0.692 9.518 2.058 14.078a49.008 49.008 0 0 0 32.948 32.946 49.042 49.042 0 0 0 14.074 2.056c18.81 0 35.676-10.5 44-27.372a48.254 48.254 0 0 0 5.08-21.708 48.99 48.99 0 0 0-31.08-45.62v-10.328l8.758-8.758 30.098-30.118c0.47-0.452 0.806-0.87 1.026-1.154l0.146-0.182 0.078-0.092c0.24-0.28 0.626-0.728 1.03-1.34 0.526-0.766 0.87-1.466 1.084-1.898l0.066-0.132c0.162-0.298 0.31-0.586 0.456-0.916 0.418-0.952 0.678-1.838 0.856-2.558 0.076-0.242 0.17-0.572 0.246-0.954 0.24-1.196 0.356-2.39 0.356-3.648V102.774a418.748 418.748 0 0 1 67.36-8.386M683 530h37.04c9.926 0 18-8.074 18-18s-8.074-18-18-18H683c-9.926 0-18 8.074-18 18s8.074 18 18 18m-75.8 0h37.02c9.926 0 18-8.074 18-18s-8.074-18-18-18H607.2c-9.926 0-18 8.074-18 18s8.074 18 18 18m-75.82 0h37.04c9.926 0 18-8.074 18-18s-8.074-18-18-18h-37.04c-9.926 0-18 8.074-18 18s8.074 18 18 18m-75.8 0h37.04c9.926 0 18-8.074 18-18s-8.074-18-18-18h-37.04c-9.782 0-17.856 7.95-18 17.722V512c0 9.926 8.074 18 18 18m-75.82 0h37.04a18.02 18.02 0 0 0 5.592-0.892A17.934 17.934 0 0 0 434.8 512c0-9.926-8.074-18-18-18h-37.04c-9.926 0-18 8.074-18 18s8.074 18 18 18m-75.8 0h37.04c9.926 0 18-8.074 18-18s-8.074-18-18-18h-37.04c-9.926 0-18 8.074-18 18s8.074 18 18 18M522.02 86.12v158.38c17.82 4.5 31.06 20.6 31.06 39.8 0 20.82-15.54 38.04-35.64 40.7-1.78 0.26-3.6 0.38-5.44 0.38-22.66 0-41.08-18.42-41.08-41.08 0-1.84 0.12-3.66 0.36-5.46 2.24-16.74 14.62-30.3 30.74-34.34V86.12a425.42 425.42 0 0 0-83.36 10.2v175.56c0 0.7-0.06 1.38-0.2 2.08-0.02 0.1-0.06 0.2-0.1 0.32-0.12 0.52-0.26 1.04-0.48 1.54-0.08 0.18-0.18 0.34-0.28 0.54-0.2 0.4-0.38 0.8-0.64 1.16-0.2 0.32-0.46 0.58-0.7 0.88-0.18 0.2-0.32 0.44-0.52 0.62l-30.18 30.2-11.1 11.1v19.46c17.82 4.48 31.08 20.6 31.08 39.8 0 6.52-1.52 12.68-4.24 18.14-6.7 13.58-20.68 22.94-36.84 22.94-4.1 0-8.04-0.6-11.78-1.72a41.258 41.258 0 0 1-27.58-27.58c-1.12-3.74-1.72-7.68-1.72-11.78 0-16.16 9.36-30.12 22.96-36.82 2.58-1.26 5.28-2.26 8.12-2.98v-23.62c0-0.22 0.04-0.44 0.06-0.66 0.02-0.42 0.04-0.86 0.14-1.28 0.06-0.36 0.18-0.68 0.3-1.04 0.08-0.28 0.14-0.56 0.26-0.82 0.14-0.38 0.36-0.7 0.54-1.04 0.14-0.24 0.22-0.48 0.38-0.7 0.36-0.54 0.78-1.06 1.24-1.52l14.04-14.02 27.24-27.26V101.34c-24.96 6.88-49 15.98-71.9 27.08v90.56c0.02 1.36-0.24 2.72-0.78 4-0.02 0.06-0.06 0.1-0.08 0.16a10.1 10.1 0 0 1-2.06 3.04L232 318.02v79.36c17.82 4.48 31.08 20.6 31.08 39.8 0 5.44-1.06 10.62-2.98 15.36-6.1 15.06-20.88 25.72-38.1 25.72-22.66 0-41.08-18.42-41.08-41.08 0-17.24 10.66-31.98 25.76-38.06 1.72-0.7 3.5-1.28 5.32-1.74v-83.44c0-0.12 0-0.22 0.02-0.34 0-0.58 0.06-1.16 0.18-1.72l0.06-0.2c0.14-0.58 0.3-1.12 0.52-1.66 0.04-0.1 0.1-0.18 0.14-0.28 0.48-1.06 1.14-2.06 2-2.94l12.82-12.8 71.3-71.3 7.72-7.74V138.8a424.764 424.764 0 0 0-55.24 36.38 425.904 425.904 0 0 0-38.8 33.96c-11.72 11.6-22.78 23.86-33.1 36.74-5.28 6.54-10.34 13.26-15.2 20.12a425.648 425.648 0 0 0-34.06 56.8C101.98 379.82 86 444.08 86 512c0 160.54 89.26 300.58 220.76 373.2v-76.18l-91.84-91.82c-0.44-0.44-0.8-0.92-1.14-1.42-0.02-0.02-0.06-0.04-0.08-0.08-0.28-0.44-0.52-0.9-0.74-1.36l-0.18-0.36c-0.22-0.5-0.36-1.02-0.48-1.54-0.02-0.12-0.08-0.22-0.1-0.34-0.14-0.66-0.2-1.34-0.2-2.02v-83.46c-17.82-4.48-31.08-20.6-31.08-39.8 0-22.66 18.42-41.08 41.08-41.08 22.64 0 41.08 18.42 41.08 41.08 0 19.2-13.26 35.32-31.08 39.8v79.36l91.84 91.86c2 1.98 2.96 4.6 2.92 7.22v90.52c22.9 11.1 46.94 20.2 71.9 27.08v-166.48l-41.28-41.28c-0.02-0.02-0.04-0.06-0.08-0.1-0.42-0.44-0.82-0.9-1.16-1.42-0.16-0.24-0.28-0.52-0.42-0.78-0.18-0.32-0.36-0.62-0.5-0.94-0.12-0.32-0.2-0.64-0.3-0.96-0.08-0.32-0.2-0.6-0.26-0.92-0.12-0.54-0.16-1.12-0.18-1.68 0-0.08-0.02-0.18-0.02-0.26v-23.62c-17.82-4.48-31.08-20.6-31.08-39.8 0-22.66 18.42-41.08 41.08-41.08s41.08 18.42 41.08 41.08c0 19.2-13.26 35.32-31.08 39.8v19.48l41.28 41.28c0.1 0.1 0.16 0.2 0.26 0.3 0.34 0.38 0.68 0.78 0.98 1.2 0.22 0.34 0.38 0.72 0.58 1.08 0.1 0.2 0.24 0.4 0.32 0.64 0.2 0.48 0.34 0.96 0.46 1.46 0.04 0.14 0.1 0.26 0.12 0.38 0.14 0.7 0.2 1.4 0.2 2.08v175.56c26.92 6.04 54.76 9.54 83.32 10.2v-158.38c-17.82-4.5-31.06-20.6-31.06-39.8 0-20.82 15.54-38.04 35.64-40.7 1.78-0.26 3.6-0.38 5.44-0.38 22.66 0 41.08 18.42 41.08 41.08 0 1.84-0.12 3.66-0.36 5.46-2.24 16.74-14.62 30.3-30.74 34.34v158.38a425.42 425.42 0 0 0 83.36-10.2v-175.56c0-0.68 0.06-1.38 0.2-2.06 0.02-0.14 0.08-0.28 0.12-0.42 0.12-0.48 0.26-0.98 0.46-1.44 0.1-0.24 0.24-0.46 0.34-0.68 0.18-0.36 0.34-0.7 0.56-1.04 0.34-0.48 0.72-0.94 1.12-1.36 0.04-0.04 0.08-0.1 0.12-0.14l17.56-17.58 17.66-17.66 6.06-6.06v-19.46c-17.82-4.48-31.08-20.6-31.08-39.8 0-8.4 2.52-16.2 6.84-22.7 7.38-11.08 19.96-18.38 34.24-18.38 22.66 0 41.08 18.42 41.08 41.08 0 14.28-7.32 26.86-18.42 34.2a40.528 40.528 0 0 1-12.66 5.6v23.62c0 0.38-0.06 0.74-0.1 1.1-0.04 0.28-0.04 0.56-0.08 0.82-0.1 0.44-0.24 0.84-0.38 1.24-0.06 0.2-0.1 0.42-0.2 0.64-0.18 0.44-0.4 0.84-0.64 1.24-0.1 0.16-0.16 0.32-0.26 0.48-0.38 0.56-0.8 1.08-1.28 1.56l-8.96 8.98-17.66 17.66-14.64 14.62v166.48c24.96-6.88 49-15.98 71.9-27.08v-90.56c-0.02-1.36 0.24-2.72 0.78-4 0.04-0.08 0.08-0.14 0.12-0.22 0.1-0.24 0.22-0.48 0.36-0.72 0.12-0.26 0.28-0.52 0.44-0.76 0.06-0.08 0.14-0.14 0.18-0.22 0.32-0.44 0.64-0.88 1.04-1.26l15.72-15.7 71.3-71.3L792 706v-79.38c-17.82-4.48-31.08-20.6-31.08-39.8 0-5.44 1.06-10.62 2.98-15.36 6.1-15.06 20.88-25.72 38.1-25.72 22.66 0 41.08 18.42 41.08 41.08 0 17.24-10.66 31.98-25.76 38.06-1.72 0.7-3.5 1.28-5.32 1.74v83.44c0 0.7-0.06 1.38-0.2 2.06-0.02 0.06-0.04 0.12-0.06 0.2-0.12 0.56-0.3 1.12-0.52 1.66-0.04 0.1-0.1 0.18-0.14 0.28a10.22 10.22 0 0 1-2 2.94l-7.78 7.76-84.06 84.06v76.18c14.1-7.78 27.7-16.34 40.76-25.62 6.86-4.86 13.58-9.94 20.12-15.2 12.88-10.32 25.16-21.38 36.72-33.12a425.84 425.84 0 0 0 34-38.76c17.16-22.12 32.2-46 44.8-71.3C922.02 644.18 938 579.92 938 512c0-160.54-89.26-300.58-220.76-373.2v76.18l91.84 91.82c0.38 0.38 0.68 0.8 0.98 1.22 0.08 0.1 0.16 0.18 0.24 0.28 0.28 0.42 0.48 0.84 0.7 1.28 0.06 0.16 0.16 0.28 0.22 0.44 0.2 0.48 0.34 0.98 0.46 1.5 0.04 0.12 0.1 0.24 0.12 0.38 0.14 0.66 0.2 1.34 0.2 2.02v83.46c17.82 4.48 31.08 20.6 31.08 39.8 0 22.66-18.42 41.08-41.08 41.08s-41.08-18.42-41.08-41.08c0-19.2 13.26-35.32 31.08-39.8v-79.36l-91.84-91.84c-0.92-0.94-1.62-2-2.1-3.12-0.02-0.04-0.02-0.06-0.04-0.08-0.54-1.28-0.8-2.64-0.78-4.02V128.42a421.732 421.732 0 0 0-71.9-27.08v166.48l41.28 41.28c0.08 0.08 0.14 0.2 0.24 0.3 0.36 0.38 0.7 0.78 1 1.22 0.18 0.26 0.3 0.54 0.44 0.82 0.16 0.3 0.34 0.58 0.48 0.9 0.12 0.32 0.2 0.66 0.3 1 0.1 0.28 0.2 0.58 0.26 0.88 0.12 0.56 0.16 1.12 0.18 1.68 0 0.1 0.02 0.18 0.02 0.26v23.62c17.82 4.48 31.08 20.6 31.08 39.8 0 22.66-18.42 41.08-41.08 41.08-22.66 0-41.08-18.42-41.08-41.08 0-19.2 13.26-35.32 31.08-39.8v-19.46l-41.28-41.3c-0.22-0.2-0.36-0.46-0.56-0.68-0.22-0.26-0.46-0.52-0.66-0.82-0.26-0.38-0.44-0.78-0.64-1.18-0.1-0.18-0.2-0.34-0.28-0.52-0.22-0.5-0.36-1.02-0.48-1.56-0.04-0.1-0.08-0.2-0.1-0.3-0.14-0.7-0.2-1.38-0.2-2.08V96.32a425.014 425.014 0 0 0-83.32-10.2zM683 522c-5.52 0-10-4.48-10-10s4.48-10 10-10h37.04c5.52 0 10 4.48 10 10s-4.48 10-10 10H683z m-75.8 0c-5.52 0-10-4.48-10-10s4.48-10 10-10h37.02c5.54 0 10 4.48 10 10s-4.46 10-10 10H607.2z m-75.82 0c-5.52 0-10-4.48-10-10s4.48-10 10-10h37.04c5.52 0 10 4.48 10 10s-4.48 10-10 10h-37.04z m-75.8 0c-5.52 0-10-4.48-10-10v-0.16a10.01 10.01 0 0 1 10-9.84h37.04c5.52 0 10 4.48 10 10s-4.48 10-10 10h-37.04z m-75.82 0c-5.52 0-10-4.48-10-10s4.48-10 10-10h37.04c5.52 0 10 4.48 10 10 0 4.44-2.88 8.2-6.88 9.5-0.98 0.32-2.04 0.5-3.12 0.5h-37.04z m-75.8 0c-5.52 0-10-4.48-10-10s4.48-10 10-10h37.04c5.52 0 10 4.48 10 10s-4.48 10-10 10h-37.04z" opacity=".2" p-id="57039"></path><path d="M578.42 512c0 5.52-4.48 10-10 10h-37.04c-5.52 0-10-4.48-10-10s4.48-10 10-10h37.04c5.52 0 10 4.48 10 10zM502.62 512c0 5.52-4.48 10-10 10h-37.04c-5.52 0-10-4.48-10-10s4.48-10 10-10h37.04c5.52 0 10 4.48 10 10zM654.22 512c0 5.52-4.46 10-10 10H607.2c-5.52 0-10-4.48-10-10s4.48-10 10-10h37.02c5.54 0 10 4.48 10 10zM730.04 512c0 5.52-4.48 10-10 10H683c-5.52 0-10-4.48-10-10s4.48-10 10-10h37.04c5.52 0 10 4.48 10 10zM426.8 512c0 5.52-4.48 10-10 10h-37.04c-5.52 0-10-4.48-10-10s4.48-10 10-10h37.04c5.52 0 10 4.48 10 10zM351 512c0 5.52-4.48 10-10 10h-37.04c-5.52 0-10-4.48-10-10s4.48-10 10-10h37.04c5.52 0 10 4.48 10 10z" fill="#23130D" p-id="57040"></path><path d="M164.42 266l47.6 47.6c-0.02 0.12-0.02 0.22-0.02 0.34v83.44c-1.82 0.46-3.6 1.04-5.32 1.74L130.36 322.8c9.9-19.86 21.3-38.86 34.06-56.8zM625.82 727.4l-17.56 17.58c-0.04 0.04-0.08 0.1-0.12 0.14-0.4 0.42-0.78 0.88-1.12 1.36-0.22 0.34-0.38 0.68-0.56 1.04-0.1 0.22-0.24 0.44-0.34 0.68-0.2 0.46-0.34 0.96-0.46 1.44-0.04 0.14-0.1 0.28-0.12 0.42-0.14 0.68-0.2 1.38-0.2 2.06v45.66l-52.62-52.62c0.24-1.8 0.36-3.62 0.36-5.46 0-22.66-18.42-41.08-41.08-41.08-1.84 0-3.66 0.12-5.44 0.38l-177-177h11.44c5.52 0 10-4.48 10-10s-4.48-10-10-10h-31.44l-49.46-49.46c1.92-4.74 2.98-9.92 2.98-15.36 0-19.2-13.26-35.32-31.08-39.8v-63.8L400.42 502h-20.66c-5.52 0-10 4.48-10 10s4.48 10 10 10h37.04c1.08 0 2.14-0.18 3.12-0.5L625.82 727.4zM698.5 800.08c-0.14 0.24-0.26 0.48-0.36 0.72-0.04 0.08-0.08 0.14-0.12 0.22-0.54 1.28-0.8 2.64-0.78 4v84.66l-71.9-71.9v-61.6l14.64-14.62 58.52 58.52zM758 859.58c-13.06 9.28-26.66 17.84-40.76 25.62v-66.38L758 859.58zM262.66 259.08L227.74 294l-48.12-48.12c10.32-12.88 21.38-25.14 33.1-36.74l49.94 49.94zM276.8 273.22l69.54 69.54c-13.6 6.7-22.96 20.66-22.96 36.82 0 4.1 0.6 8.04 1.72 11.78l-83.22-83.22 34.92-34.92zM649.54 684.22v19.46l-6.06 6.06L455.74 522h36.88c5.52 0 10-4.48 10-10s-4.48-10-10-10h-37.04c-5.46 0-9.92 4.4-10 9.84l-92.9-92.9c3.74 1.12 7.68 1.72 11.78 1.72 16.16 0 30.14-9.36 36.84-22.94l224 224a40.86 40.86 0 0 0-6.84 22.7c0 19.2 13.26 35.32 31.08 39.8zM750.8 747.22l-34.92 34.92-58.24-58.24 8.96-8.98c0.48-0.48 0.9-1 1.28-1.56 0.1-0.16 0.16-0.32 0.26-0.48 0.24-0.4 0.46-0.8 0.64-1.24 0.1-0.22 0.14-0.44 0.2-0.64 0.14-0.4 0.28-0.8 0.38-1.24 0.04-0.26 0.04-0.54 0.08-0.82 0.04-0.36 0.1-0.72 0.1-1.1v-23.62c4.58-1.14 8.84-3.06 12.66-5.6l68.6 68.6zM814.84 811.26c-11.56 11.74-23.84 22.8-36.72 33.12L730 796.26l34.92-34.92 49.92 49.92zM251.52 175.18c17.38-13.5 35.86-25.68 55.24-36.38v76.16l-7.72 7.74-47.52-47.52zM398.66 267.82l-27.24 27.26-58.24-58.24 10.66-10.66c0.9-0.92 1.58-1.94 2.06-3.04 0.02-0.06 0.06-0.1 0.08-0.16 0.54-1.28 0.8-2.64 0.78-4V134.32l71.9 71.9v61.6zM760.92 586.82c0-5.44 1.06-10.62 2.98-15.36L714.44 522H683c-5.52 0-10-4.48-10-10s4.48-10 10-10h11.44l-177-177c-1.78 0.26-3.6 0.38-5.44 0.38-22.66 0-41.08-18.42-41.08-41.08 0-1.84 0.12-3.66 0.36-5.46l-52.62-52.62v45.66c0 0.7-0.06 1.38-0.2 2.08-0.02 0.1-0.06 0.2-0.1 0.32-0.12 0.52-0.26 1.04-0.48 1.54-0.08 0.18-0.18 0.34-0.28 0.54-0.2 0.4-0.38 0.8-0.64 1.16-0.2 0.32-0.46 0.58-0.7 0.88-0.18 0.2-0.32 0.44-0.52 0.62l-30.18 30.2 401.62 401.62L792 706v-79.38c-17.82-4.48-31.08-20.6-31.08-39.8zM644.22 522H607.2c-5.52 0-10-4.48-10-10s4.48-10 10-10h37.02c5.54 0 10 4.48 10 10s-4.46 10-10 10zM893.64 701.2a426.684 426.684 0 0 1-44.8 71.3l-47.54-47.54 7.78-7.76c0.86-0.88 1.52-1.88 2-2.94 0.04-0.1 0.1-0.18 0.14-0.28 0.22-0.54 0.4-1.1 0.52-1.66 0.02-0.08 0.04-0.14 0.06-0.2 0.14-0.68 0.2-1.36 0.2-2.06v-83.44c1.82-0.46 3.6-1.04 5.32-1.74l76.32 76.32z" fill="#FFFFFF" opacity=".4" p-id="57041"></path><path d="M232.8 455.26c-1.54 0.94-3.22 1.68-4.98 2.18l-26.08-26.08c0.5-1.78 1.24-3.44 2.18-4.98l28.88 28.88zM237.4 451.56c-0.9 0.96-1.86 1.82-2.92 2.58l-29.46-29.44c0.78-1.06 1.64-2.02 2.6-2.92l29.78 29.78zM242.56 441.82c-0.52 2.34-1.44 4.52-2.68 6.48l-29-29.02a20.8 20.8 0 0 1 6.48-2.66l25.2 25.2z" fill="#FFFFFF" opacity=".4" p-id="57042"></path><path d="M375.11 397.81c-1.54 0.94-3.22 1.68-4.98 2.18l-26.08-26.08c0.5-1.78 1.24-3.44 2.18-4.98l28.88 28.88zM379.71 394.11c-0.9 0.96-1.86 1.82-2.92 2.58l-29.46-29.44c0.78-1.06 1.64-2.02 2.6-2.92l29.78 29.78zM384.87 384.37c-0.52 2.34-1.44 4.52-2.68 6.48l-29-29.02a20.8 20.8 0 0 1 6.48-2.66l25.2 25.2z" fill="#FFFFFF" opacity=".4" p-id="57043"></path><path d="M522.65 302.53c-1.54 0.94-3.22 1.68-4.98 2.18l-26.08-26.08c0.5-1.78 1.24-3.44 2.18-4.98l28.88 28.88zM527.25 298.83c-0.9 0.96-1.86 1.82-2.92 2.58l-29.46-29.44c0.78-1.06 1.64-2.02 2.6-2.92l29.78 29.78zM532.41 289.09c-0.52 2.34-1.44 4.52-2.68 6.48l-29-29.02a20.8 20.8 0 0 1 6.48-2.66l25.2 25.2z" fill="#FFFFFF" opacity=".4" p-id="57044"></path><path d="M522.65 757.93c-1.54 0.94-3.22 1.68-4.98 2.18l-26.08-26.08c0.5-1.78 1.24-3.44 2.18-4.98l28.88 28.88zM527.25 754.23c-0.9 0.96-1.86 1.82-2.92 2.58l-29.46-29.44c0.78-1.06 1.64-2.02 2.6-2.92l29.78 29.78zM532.41 744.49c-0.52 2.34-1.44 4.52-2.68 6.48l-29-29.02a20.8 20.8 0 0 1 6.48-2.66l25.2 25.2z" fill="#FFFFFF" opacity=".4" p-id="57045"></path><path d="M375.11 662.65c-1.54 0.94-3.22 1.68-4.98 2.18l-26.08-26.08c0.5-1.78 1.24-3.44 2.18-4.98l28.88 28.88zM379.71 658.95c-0.9 0.96-1.86 1.82-2.92 2.58l-29.46-29.44c0.78-1.06 1.64-2.02 2.6-2.92l29.78 29.78zM384.87 649.21c-0.52 2.34-1.44 4.52-2.68 6.48l-29-29.02a20.8 20.8 0 0 1 6.48-2.66l25.2 25.2z" fill="#FFFFFF" opacity=".4" p-id="57046"></path><path d="M670.19 397.81c-1.54 0.94-3.22 1.68-4.98 2.18l-26.08-26.08c0.5-1.78 1.24-3.44 2.18-4.98l28.88 28.88zM674.79 394.11c-0.9 0.96-1.86 1.82-2.92 2.58l-29.46-29.44c0.78-1.06 1.64-2.02 2.6-2.92l29.78 29.78zM679.95 384.37c-0.52 2.34-1.44 4.52-2.68 6.48l-29-29.02a20.8 20.8 0 0 1 6.48-2.66l25.2 25.2z" fill="#FFFFFF" opacity=".4" p-id="57047"></path><path d="M670.19 662.65c-1.54 0.94-3.22 1.68-4.98 2.18l-26.08-26.08c0.5-1.78 1.24-3.44 2.18-4.98l28.88 28.88zM674.79 658.95c-0.9 0.96-1.86 1.82-2.92 2.58l-29.46-29.44c0.78-1.06 1.64-2.02 2.6-2.92l29.78 29.78zM679.95 649.21c-0.52 2.34-1.44 4.52-2.68 6.48l-29-29.02a20.8 20.8 0 0 1 6.48-2.66l25.2 25.2z" fill="#FFFFFF" opacity=".4" p-id="57048"></path><path d="M232.8 605.05c-1.54 0.94-3.22 1.68-4.98 2.18l-26.08-26.08c0.5-1.78 1.24-3.44 2.18-4.98l28.88 28.88zM237.4 601.35c-0.9 0.96-1.86 1.82-2.92 2.58l-29.46-29.44c0.78-1.06 1.64-2.02 2.6-2.92l29.78 29.78zM242.56 591.61c-0.52 2.34-1.44 4.52-2.68 6.48l-29-29.02a20.8 20.8 0 0 1 6.48-2.66l25.2 25.2z" fill="#FFFFFF" opacity=".4" p-id="57049"></path><path d="M812.65 455.26c-1.54 0.94-3.22 1.68-4.98 2.18l-26.08-26.08c0.5-1.78 1.24-3.44 2.18-4.98l28.88 28.88zM817.25 451.56c-0.9 0.96-1.86 1.82-2.92 2.58l-29.46-29.44c0.78-1.06 1.64-2.02 2.6-2.92l29.78 29.78zM822.41 441.82c-0.52 2.34-1.44 4.52-2.68 6.48l-29-29.02a20.8 20.8 0 0 1 6.48-2.66l25.2 25.2z" fill="#FFFFFF" opacity=".4" p-id="57050"></path><path d="M812.65 605.05c-1.54 0.94-3.22 1.68-4.98 2.18l-26.08-26.08c0.5-1.78 1.24-3.44 2.18-4.98l28.88 28.88zM817.25 601.35c-0.9 0.96-1.86 1.82-2.92 2.58l-29.46-29.44c0.78-1.06 1.64-2.02 2.6-2.92l29.78 29.78zM822.41 591.61c-0.52 2.34-1.44 4.52-2.68 6.48l-29-29.02a20.8 20.8 0 0 1 6.48-2.66l25.2 25.2z" fill="#FFFFFF" opacity=".4" p-id="57051"></path></svg>