<?xml version="1.0" standalone="no"?><!DOCTYPE svg PUBLIC "-//W3C//DTD SVG 1.1//EN" "http://www.w3.org/Graphics/SVG/1.1/DTD/svg11.dtd"><svg t="1625811470128" class="icon" viewBox="0 0 1024 1024" version="1.1" xmlns="http://www.w3.org/2000/svg" p-id="30865" xmlns:xlink="http://www.w3.org/1999/xlink" width="200" height="200"><defs><style type="text/css"></style></defs><path d="M503.24 146.94c-108 0-195.88 87.86-195.88 195.86 0 54.1 22.04 103.12 57.6 138.6 0.22 0.28 0.42 0.56 0.68 0.82 0.28 0.28 0.6 0.48 0.9 0.72 35.32 34.46 83.56 55.74 136.7 55.74 61.32 0 116.14-28.34 152.08-72.6 0.34-0.32 0.66-0.64 0.94-1.02 0.2-0.24 0.34-0.52 0.52-0.78 26.48-33.4 42.32-75.62 42.32-121.48 0-108-87.86-195.86-195.86-195.86z m0 371.74c-44.5 0-85.16-16.62-116.18-43.96l73.32-74.28a71.34 71.34 0 0 0 42.86 14.22c19.08 0 36.42-7.48 49.3-19.66l81.56 65.16c-32.22 35.9-78.94 58.52-130.86 58.52z m-51.86-175.86c0-28.6 23.26-51.86 51.86-51.86 28.58 0 51.84 23.26 51.84 51.86 0 28.58-23.26 51.84-51.84 51.84-28.6 0-51.86-23.26-51.86-51.84z m195.24 101.74l-81.58-65.16a71.38 71.38 0 0 0 10.04-36.58c0-39.64-32.22-71.86-71.84-71.86s-71.86 32.22-71.86 71.86c0 16.36 5.52 31.48 14.78 43.56l-73.32 74.3c-28.24-31.2-45.48-72.56-45.48-117.88 0-96.96 78.9-175.86 175.88-175.86 96.96 0 175.86 78.9 175.86 175.86 0 37.9-12.04 73.02-32.48 101.76z" fill="#23130D" p-id="30866"></path><path d="M937.26 134.5c-28.26 0-51.24 23-51.24 51.24 0 17.56 8.9 33.1 22.4 42.32l-120.5 283.66c-3.38-0.7-6.88-1.06-10.46-1.06a50.9 50.9 0 0 0-32.98 12.08l-36.46-29.12c31.18-42.24 49.64-94.4 49.64-150.8 0-140.3-114.14-254.44-254.42-254.44s-254.42 114.14-254.42 254.44c0 67.14 26.16 128.26 68.8 173.78l-43.2 43.76a50.914 50.914 0 0 0-28.16-8.46c-4.56 0-8.96 0.6-13.18 1.72L117.84 318.84c12.22-9.36 20.14-24.12 20.14-40.68 0-28.24-22.98-51.24-51.24-51.24s-51.24 23-51.24 51.24c0 28.26 22.98 51.24 51.24 51.24 4.54 0 8.96-0.6 13.16-1.72l115.24 234.78c-12.22 9.36-20.12 24.1-20.12 40.68 0 28.24 22.98 51.22 51.24 51.22 28.24 0 51.24-22.98 51.24-51.22 0-10.64-3.26-20.54-8.84-28.74l43.18-43.74a254.794 254.794 0 0 0 81.66 50.22v63.5c0 5.52 4.48 10 10 10h35.12v236.56c0 0.02-0.02 0.02-0.02 0.04 0 24.6 20.04 44.64 44.64 44.64 24.62 0 44.64-20.04 44.64-44.64v-236.6h35.1c5.52 0 10-4.48 10-10v-63.5c39.92-15.1 75.08-39.94 102.56-71.64l36.44 29.12a50.948 50.948 0 0 0-5.76 23.54c0 28.24 23 51.24 51.24 51.24 28.26 0 51.24-23 51.24-51.24 0-17.56-8.88-33.1-22.38-42.32l120.5-283.68c3.38 0.72 6.86 1.08 10.44 1.08 28.26 0 51.24-22.98 51.24-51.24 0-28.24-22.98-51.24-51.24-51.24zM86.74 309.4c-17.22 0-31.24-14.02-31.24-31.24s14.02-31.24 31.24-31.24 31.24 14.02 31.24 31.24-14.02 31.24-31.24 31.24z m159.52 324.96c-17.24 0-31.24-14-31.24-31.22 0-17.24 14-31.24 31.24-31.24 17.22 0 31.24 14 31.24 31.24 0 17.22-14.02 31.22-31.24 31.22z m281.62 256.62c0 13.58-11.04 24.64-24.64 24.64-13.56 0-24.62-11.04-24.64-24.62l0.02-0.02v-236.6h49.26v236.6z m45.1-256.6h-104.26c-0.02 0-0.06-0.02-0.1-0.02-0.02 0-0.06 0.02-0.1 0.02h-35.02v-46.86c22.18 6.32 45.58 9.72 69.74 9.72 24.18 0 47.58-3.4 69.74-9.72v46.86z m-69.74-57.14c-129.26 0-234.42-105.16-234.42-234.42S373.98 108.38 503.24 108.38s234.42 105.18 234.42 234.44-105.16 234.42-234.42 234.42z m305.46-15.34c0 17.22-14 31.24-31.24 31.24-17.22 0-31.24-14.02-31.24-31.24 0-17.24 14.02-31.24 31.24-31.24 17.24 0 31.24 14 31.24 31.24z m128.56-344.92c-17.22 0-31.24-14.02-31.24-31.24s14.02-31.24 31.24-31.24 31.24 14.02 31.24 31.24-14.02 31.24-31.24 31.24z" fill="#23130D" p-id="30867"></path><path d="M117.98 278.16c0 17.22-14.02 31.24-31.24 31.24s-31.24-14.02-31.24-31.24 14.02-31.24 31.24-31.24 31.24 14.02 31.24 31.24z" fill="#72AF5F" p-id="30868"></path><path d="M113.56 294.18c-5.48 9.12-15.46 15.22-26.82 15.22-17.22 0-31.24-14.02-31.24-31.24 0-11.36 6.1-21.34 15.22-26.82-2.8 4.68-4.42 10.18-4.42 16.02 0 17.22 14.02 31.24 31.24 31.24 5.86 0 11.34-1.62 16.02-4.42z" opacity=".2" p-id="30869"></path><path d="M277.5 603.14c0 17.22-14.02 31.22-31.24 31.22-17.24 0-31.24-14-31.24-31.22 0-17.24 14-31.24 31.24-31.24 17.22 0 31.24 14 31.24 31.24z" fill="#EC7063" p-id="30870"></path><path d="M968.5 185.74c0 17.22-14.02 31.24-31.24 31.24s-31.24-14.02-31.24-31.24 14.02-31.24 31.24-31.24 31.24 14.02 31.24 31.24z" fill="#72AF5F" p-id="30871"></path><path d="M808.7 561.9c0 17.22-14 31.24-31.24 31.24-17.22 0-31.24-14.02-31.24-31.24 0-17.24 14.02-31.24 31.24-31.24 17.24 0 31.24 14 31.24 31.24z" fill="#EC7063" p-id="30872"></path><path d="M572.98 587.52v46.86h-104.26c-0.02 0-0.06-0.02-0.1-0.02-0.02 0-0.06 0.02-0.1 0.02h-35.02v-46.86c22.18 6.32 45.58 9.72 69.74 9.72 24.18 0 47.58-3.4 69.74-9.72z" fill="#CC7B5A" p-id="30873"></path><path d="M572.98 587.52v17a253.962 253.962 0 0 1-69.74 9.72c-24.16 0-47.56-3.4-69.74-9.72v-17c22.18 6.32 45.58 9.72 69.74 9.72 24.18 0 47.58-3.4 69.74-9.72z" fill="#23130D" opacity=".2" p-id="30874"></path><path d="M527.88 654.38v236.6c0 13.58-11.04 24.64-24.64 24.64-13.56 0-24.62-11.04-24.64-24.62l0.02-0.02v-236.6h49.26z" fill="#E59D89" p-id="30875"></path><path d="M513.58 913.34c-3.14 1.46-6.64 2.28-10.34 2.28-13.56 0-24.62-11.04-24.64-24.62l0.02-0.02v-236.6h20.66v236.6l-0.02 0.02c0.02 9.9 5.88 18.44 14.32 22.34z" fill="#23130D" opacity=".2" p-id="30876"></path><path d="M503.24 108.38c-129.26 0-234.42 105.18-234.42 234.44s105.16 234.42 234.42 234.42 234.42-105.16 234.42-234.42S632.5 108.38 503.24 108.38z m153.54 355.9c-0.18 0.26-0.32 0.54-0.52 0.78-0.28 0.38-0.6 0.7-0.94 1.02-35.94 44.26-90.76 72.6-152.08 72.6-53.14 0-101.38-21.28-136.7-55.74-0.3-0.24-0.62-0.44-0.9-0.72-0.26-0.26-0.46-0.54-0.68-0.82-35.56-35.48-57.6-84.5-57.6-138.6 0-108 87.88-195.86 195.88-195.86s195.86 87.86 195.86 195.86c0 45.86-15.84 88.08-42.32 121.48z" fill="#F9C139" p-id="30877"></path><path d="M503.24 116.38c124.848 0 226.42 101.58 226.42 226.44 0 124.848-101.572 226.42-226.42 226.42s-226.42-101.572-226.42-226.42c0-124.86 101.572-226.44 226.42-226.44m-144.292 370.322a11.95 11.95 0 0 0 2.374 2.322c38.3 37.186 88.678 57.656 141.918 57.656 61.442 0 118.996-27.394 157.982-75.178a14.472 14.472 0 0 0 2.086-2.58c28.652-36.284 43.792-79.886 43.792-126.122 0-112.408-91.452-203.86-203.86-203.86-112.42 0-203.88 91.452-203.88 203.86 0 54.288 21.158 105.372 59.588 143.902M503.24 108.38c-129.26 0-234.42 105.18-234.42 234.44s105.16 234.42 234.42 234.42 234.42-105.16 234.42-234.42S632.5 108.38 503.24 108.38z m0 430.3c-53.14 0-101.38-21.28-136.7-55.74-0.3-0.24-0.62-0.44-0.9-0.72-0.26-0.26-0.46-0.54-0.68-0.82-35.56-35.48-57.6-84.5-57.6-138.6 0-108 87.88-195.86 195.88-195.86s195.86 87.86 195.86 195.86c0 45.86-15.84 88.08-42.32 121.48-0.18 0.26-0.32 0.54-0.52 0.78-0.28 0.38-0.6 0.7-0.94 1.02-35.94 44.26-90.76 72.6-152.08 72.6z" opacity=".2" p-id="30878"></path><path d="M555.08 342.82c0 28.58-23.26 51.84-51.84 51.84-28.6 0-51.86-23.26-51.86-51.84 0-28.6 23.26-51.86 51.86-51.86 28.58 0 51.84 23.26 51.84 51.86z" fill="#E1E1E5" p-id="30879"></path><path d="M553.42 355.86c-5.8 22.3-26.1 38.8-50.18 38.8-28.6 0-51.86-23.26-51.86-51.84 0-13.5 5.2-25.82 13.68-35.06a51.04 51.04 0 0 0-1.68 13.06c0 28.58 23.26 51.84 51.86 51.84 15.08 0 28.68-6.48 38.18-16.8z" opacity=".2" p-id="30880"></path><path d="M634.1 460.16c-1.26 1.4-2.54 2.8-3.88 4.16a173.904 173.904 0 0 1-25.84 22.28c-4.8 3.38-9.76 6.54-14.9 9.44a174.164 174.164 0 0 1-44.9 17.72 174.972 174.972 0 0 1-41.34 4.92c-44.5 0-85.16-16.62-116.18-43.96l58.86-59.64 14.46-14.64a71.34 71.34 0 0 0 47.56 14.06c7.02-0.44 13.76-1.9 20.08-4.26 9.2-3.38 17.52-8.62 24.52-15.24l41.58 33.22 39.98 31.94z" fill="#3594BF" p-id="30881"></path><path d="M679.1 342.8c0 12.5-1.32 24.7-3.8 36.46a174.916 174.916 0 0 1-23.08 56.92c-1.78 2.84-3.66 5.64-5.6 8.38l-81.58-65.16c3.98-6.68 6.88-14.04 8.52-21.88 1-4.74 1.52-9.66 1.52-14.7 0-39.64-32.22-71.86-71.84-71.86-5.04 0-9.96 0.52-14.72 1.52a71.736 71.736 0 0 0-33.26 16.88 72.124 72.124 0 0 0-19.48 28.66 71.826 71.826 0 0 0-4.24 20.08 71.41 71.41 0 0 0 14.62 48.28l-14.38 14.58-58.94 59.72c-28.24-31.2-45.48-72.56-45.48-117.88 0-14.24 1.7-28.08 4.92-41.34a173.362 173.362 0 0 1 17.74-44.88 164.04 164.04 0 0 1 9.42-14.9c6.56-9.34 14.02-18 22.26-25.88 8.6-8.22 18.04-15.6 28.18-21.96 17.2-10.84 36.4-18.76 56.92-23.08a173.824 173.824 0 0 1 36.44-3.82c96.96 0 175.86 78.9 175.86 175.86z" fill="#3594BF" p-id="30882"></path><path d="M273.08 619.14c-5.48 9.12-15.46 15.22-26.82 15.22-17.22 0-31.24-14.02-31.24-31.24 0-11.36 6.1-21.34 15.22-26.82-2.8 4.68-4.42 10.18-4.42 16.02 0 17.22 14.02 31.24 31.24 31.24 5.86 0 11.34-1.62 16.02-4.42zM804.28 577.92c-5.48 9.12-15.46 15.22-26.82 15.22-17.22 0-31.24-14.02-31.24-31.24 0-11.36 6.1-21.34 15.22-26.82-2.8 4.68-4.42 10.18-4.42 16.02 0 17.22 14.02 31.24 31.24 31.24 5.86 0 11.34-1.62 16.02-4.42zM964.08 201.76c-5.48 9.12-15.46 15.22-26.82 15.22-17.22 0-31.24-14.02-31.24-31.24 0-11.36 6.1-21.34 15.22-26.82-2.8 4.68-4.42 10.18-4.42 16.02 0 17.22 14.02 31.24 31.24 31.24 5.86 0 11.34-1.62 16.02-4.42z" opacity=".2" p-id="30883"></path><path d="M446.16 386.38l-14.38 14.58-99.5-99.5a173.362 173.362 0 0 1 17.74-44.88l81.52 81.52a71.41 71.41 0 0 0 14.62 48.28zM589.48 496.04a174.164 174.164 0 0 1-44.9 17.72l-98.66-98.68 14.46-14.64a71.34 71.34 0 0 0 47.56 14.06l81.54 81.54zM381.7 215.8l73.56 73.56a72.124 72.124 0 0 0-19.48 28.66l-76.34-76.34c6.56-9.34 14.02-18 22.26-25.88zM630.22 464.32a173.904 173.904 0 0 1-25.84 22.28l-76.36-76.36c9.2-3.38 17.52-8.62 24.52-15.24l41.58 33.22 36.1 36.1zM675.3 379.26a174.916 174.916 0 0 1-23.08 56.92l-78.66-78.66c1-4.74 1.52-9.66 1.52-14.7 0-39.64-32.22-71.86-71.84-71.86-5.04 0-9.96 0.52-14.72 1.52l-78.64-78.64c17.2-10.84 36.4-18.76 56.92-23.08l208.5 208.5z" fill="#FFFFFF" opacity=".4" p-id="30884"></path></svg>