<?xml version="1.0" standalone="no"?><!DOCTYPE svg PUBLIC "-//W3C//DTD SVG 1.1//EN" "http://www.w3.org/Graphics/SVG/1.1/DTD/svg11.dtd"><svg t="1625811767981" class="icon" viewBox="0 0 1024 1024" version="1.1" xmlns="http://www.w3.org/2000/svg" p-id="37152" xmlns:xlink="http://www.w3.org/1999/xlink" width="200" height="200"><defs><style type="text/css"></style></defs><path d="M938.48 723.88l-95.54-95.54 20.08-20.08c1.88-1.88 2.92-4.42 2.92-7.08 0-2.64-1.04-5.18-2.92-7.06L576.38 307.48l-37.22-75.18a10.014 10.014 0 0 0-7.34-5.42c-3.18-0.52-6.42 0.52-8.7 2.78l-37.18 37.2-144.9-144.9a51.742 51.742 0 0 0-30.72-14.78l-143.78-16.06c-28.26-3.16-53.82 17.26-56.98 45.5-3.16 28.26 17.26 53.8 45.52 56.96l125.82 14.06 132.12 132.12-37.18 37.2a9.96 9.96 0 0 0-2.8 8.68 9.954 9.954 0 0 0 5.44 7.34l64.18 31.78-18.5 18.5-0.02 0.02c-11.74 11.74-18.2 27.34-18.2 43.94 0 16.62 6.46 32.22 18.2 43.96l0.02 0.02 149.28 149.28a9.98 9.98 0 0 0 7.08 2.94c2.56 0 5.12-0.98 7.06-2.94l112.48-112.46 94.52 94.52a9.9 9.9 0 0 0 7.06 2.94c2.56 0 5.12-0.98 7.08-2.94l20.08-20.06L924.32 738c0.02 0 0.02 0.02 0.02 0.02 19.38 19.38 30.06 45.16 30.06 72.56 0 27.42-10.68 53.18-30.06 72.58-19.38 19.38-45.14 30.04-72.56 30.04-27.4 0-53.18-10.66-72.56-30.04l-113.18-113.18v-0.02c-38.48-38.46-101.08-38.48-139.56 0l-75.38 75.38c-14.86 14.86-34.62 23.04-55.62 23.04-21.02 0-40.78-8.18-55.64-23.02v-0.02L66.66 572.18a9.97 9.97 0 0 0-14.14 0 10.006 10.006 0 0 0 0 14.14l273.16 273.16h0.02c18.64 18.64 43.42 28.92 69.78 28.9 26.36 0 51.12-10.26 69.76-28.9l75.38-75.38c30.68-30.66 80.6-30.68 111.26 0h0.02l113.18 113.2c23.16 23.16 53.94 35.9 86.7 35.9s63.54-12.74 86.7-35.9c23.16-23.16 35.92-53.96 35.92-86.72 0-32.74-12.76-63.54-35.92-86.7zM292.56 191.02a9.92 9.92 0 0 0-5.96-2.86l-129.3-14.44c-17.3-1.94-29.8-17.58-27.86-34.88 1.92-17.28 17.56-29.78 34.86-27.84l143.8 16.06c7.08 0.8 13.76 4 18.8 9.04l144.9 144.9-44.64 44.62-134.6-134.6z m107.28 190.22l93.16-93.16 0.02-0.02v-0.02l34.4-34.38 28.6 57.74-98.44 98.44-57.74-28.6z m180.68 278.04l-135.16-135.16 22.74-22.74 90.1 90.1c1.96 1.94 4.52 2.92 7.08 2.92 2.56 0 5.12-0.98 7.06-2.92a10.006 10.006 0 0 0 0-14.14l-90.1-90.12 30.78-30.78 117.58 152.74-50.08 50.1z m112.52-112.52c-0.02 0.02-0.04 0.02-0.06 0.04-0.02 0.02-0.04 0.04-0.04 0.06l-48.08 48.06-122.94-159.7c-0.12-0.18-0.3-0.3-0.44-0.46-0.14-0.18-0.24-0.36-0.4-0.52-0.1-0.08-0.2-0.14-0.28-0.22a8.46 8.46 0 0 0-0.82-0.66c-0.26-0.2-0.5-0.38-0.78-0.54a7.1 7.1 0 0 0-0.86-0.46c-0.3-0.14-0.58-0.28-0.9-0.4-0.28-0.1-0.6-0.18-0.9-0.26-0.32-0.1-0.62-0.18-0.94-0.22-0.32-0.06-0.64-0.08-0.94-0.1-0.32-0.02-0.64-0.04-0.96-0.02-0.32 0-0.64 0.04-0.98 0.08-0.3 0.04-0.62 0.08-0.92 0.16-0.32 0.06-0.62 0.16-0.94 0.26-0.3 0.12-0.62 0.22-0.92 0.36-0.28 0.12-0.56 0.28-0.84 0.42-0.3 0.18-0.6 0.36-0.9 0.56-0.1 0.08-0.2 0.12-0.3 0.2-0.16 0.14-0.3 0.3-0.46 0.44-0.16 0.14-0.34 0.26-0.5 0.4l-74.86 74.86a41.88 41.88 0 0 1-6.14-21.88c0-11.26 4.38-21.84 12.34-29.8l28.36-28.36h0.02l101.5-101.52 172.04 172.04-47.16 47.18z m108.6 94.58l-87.44-87.46 40.14-40.16 87.46 87.46-40.16 40.16z" fill="#23130D" p-id="37153"></path><path d="M841.8 601.18l-40.16 40.16-87.44-87.46 40.14-40.16z" fill="#636368" p-id="37154"></path><path d="M740.33 527.722l14-14 87.46 87.46-14 14z" fill="#23130D" opacity=".2" p-id="37155"></path><path d="M471.8 281l-44.64 44.62-134.6-134.6a9.92 9.92 0 0 0-5.96-2.86l-129.3-14.44c-17.3-1.94-29.8-17.58-27.86-34.88 1.92-17.28 17.56-29.78 34.86-27.84l143.8 16.06c7.08 0.8 13.76 4 18.8 9.04l144.9 144.9z" fill="#E1E1E5" p-id="37156"></path><path d="M471.8 281l-20.36 20.36-144.9-144.9a31.71 31.71 0 0 0-18.8-9.04l-143.8-16.06c-4.58-0.52-9.06-0.02-13.18 1.34 4.48-14 18.36-23.4 33.54-21.7l143.8 16.06c7.08 0.8 13.76 4 18.8 9.04l144.9 144.9z" fill="#23130D" opacity=".2" p-id="37157"></path><path d="M556.02 311.4l-98.44 98.44-57.74-28.6 93.16-93.16 0.02-0.02v-0.02l34.4-34.38 28.6 57.74z" fill="#5D5D5D" p-id="37158"></path><path d="M556.02 311.4l-98.44 98.44-57.74-28.6 5.24-5.24 37 18.34 98.44-98.44-18.34-37.02 5.24-5.22z" fill="#23130D" opacity=".2" p-id="37159"></path><path d="M740.2 499.58l-47.16 47.18c-0.02 0.02-0.04 0.02-0.06 0.04-0.02 0.02-0.04 0.04-0.04 0.06l-48.08 48.06-122.94-159.7c-0.12-0.18-0.3-0.3-0.44-0.46-0.14-0.18-0.24-0.36-0.4-0.52-0.1-0.08-0.2-0.14-0.28-0.22a8.46 8.46 0 0 0-0.82-0.66c-0.26-0.2-0.5-0.38-0.78-0.54a7.1 7.1 0 0 0-0.86-0.46c-0.3-0.14-0.58-0.28-0.9-0.4-0.28-0.1-0.6-0.18-0.9-0.26-0.32-0.1-0.62-0.18-0.94-0.22-0.32-0.06-0.64-0.08-0.94-0.1-0.32-0.02-0.64-0.04-0.96-0.02-0.32 0-0.64 0.04-0.98 0.08-0.3 0.04-0.62 0.08-0.92 0.16-0.32 0.06-0.62 0.16-0.94 0.26-0.3 0.12-0.62 0.22-0.92 0.36-0.28 0.12-0.56 0.28-0.84 0.42-0.3 0.18-0.6 0.36-0.9 0.56-0.1 0.08-0.2 0.12-0.3 0.2-0.16 0.14-0.3 0.3-0.46 0.44-0.16 0.14-0.34 0.26-0.5 0.4l-74.86 74.86a41.88 41.88 0 0 1-6.14-21.88c0-11.26 4.38-21.84 12.34-29.8l28.36-28.36h0.02l101.5-101.52 172.04 172.04z" fill="#3594BF" p-id="37160"></path><path d="M740.2 499.58l-13.32 13.34-158.72-158.72-101.5 101.52h-0.02l-28.36 28.36a41.91 41.91 0 0 0-10.18 16.42c-1.42-4.22-2.16-8.68-2.16-13.28 0-11.26 4.38-21.84 12.34-29.8l28.36-28.36h0.02l101.5-101.52 172.04 172.04z" fill="#23130D" opacity=".2" p-id="37161"></path><path d="M199.26 356.24l-53.66-119a9.986 9.986 0 0 0-9.12-5.9c-3.94 0-7.5 2.3-9.12 5.9l-53.68 119a71.396 71.396 0 0 0-8.18 33.14c0 39.14 31.84 70.96 70.98 70.96 39.12 0 70.96-31.82 70.96-70.96 0-11.56-2.82-23-8.18-33.14z m-62.78 84.1c-28.1 0-50.98-22.86-50.98-50.96 0-8.38 2.08-16.7 6-24.02 0.1-0.2 0.2-0.4 0.28-0.6l44.7-99.1 44.68 99.1 0.3 0.6c3.92 7.32 5.98 15.62 5.98 24.02 0 28.1-22.86 50.96-50.96 50.96z" fill="#23130D" p-id="37162"></path><path d="M187.44 389.38c0 28.1-22.86 50.96-50.96 50.96s-50.98-22.86-50.98-50.96c0-8.38 2.08-16.7 6-24.02 0.1-0.2 0.2-0.4 0.28-0.6l44.7-99.1 44.68 99.1 0.3 0.6c3.92 7.32 5.98 15.62 5.98 24.02z" fill="#F9C139" p-id="37163"></path><path d="M151.98 437.92c-4.9 1.58-10.1 2.42-15.5 2.42-28.1 0-50.98-22.86-50.98-50.96 0-8.38 2.08-16.7 6-24.02 0.1-0.2 0.2-0.4 0.28-0.6l44.7-99.1 15.5 34.38-29.2 64.72c-0.08 0.2-0.18 0.4-0.28 0.6-3.92 7.32-6 15.64-6 24.02 0 22.7 14.92 41.98 35.48 48.54z" fill="#23130D" opacity=".2" p-id="37164"></path></svg>