<?xml version="1.0" standalone="no"?><!DOCTYPE svg PUBLIC "-//W3C//DTD SVG 1.1//EN" "http://www.w3.org/Graphics/SVG/1.1/DTD/svg11.dtd"><svg t="1625812009418" class="icon" viewBox="0 0 1024 1024" version="1.1" xmlns="http://www.w3.org/2000/svg" p-id="48231" xmlns:xlink="http://www.w3.org/1999/xlink" width="200" height="200"><defs><style type="text/css"></style></defs><path d="M760.24 464.56c0.1 0 0.2-0.02 0.3-0.02 75.58-0.18 137.04-61.72 137.04-137.36 0-75.74-61.62-137.36-137.36-137.36-9.52 0-18.96 0.98-28.2 2.92-24.26-95.98-111.58-164.62-211.56-164.62-75.46 0-145.82 39.38-185.48 103.26a169.38 169.38 0 0 0-39.64-4.7c-93.14 0-168.92 75.78-168.92 168.94 0 93.02 75.6 168.72 168.58 168.9 0.12 0.02 0.22 0.04 0.32 0.04h19.52v102.36c-12.62 2.2-22.26 13.22-22.26 26.48v54.92c0 13.26 9.64 24.26 22.26 26.48v8.5c0 22.84-18.6 41.42-41.44 41.42-22.86 0-41.44-18.58-41.44-41.42v-13.68l9.36 9.36a9.97 9.97 0 0 0 14.14 0 10.006 10.006 0 0 0 0-14.14l-26.44-26.42a9.96 9.96 0 0 0-10.88-2.18 10 10 0 0 0-6.18 9.24v37.82c0 33.86 27.56 61.42 61.44 61.42s61.44-27.56 61.44-61.42v-8.5c12.62-2.22 22.26-13.24 22.26-26.48V593.4c0-13.26-9.64-24.26-22.26-26.48v-102.36h180.8v149.8c-17.3 1.32-30.98 15.76-30.98 33.4v76.44c0 17.62 13.68 32.08 30.98 33.38v15.28c0 33.56-27 60.92-60.42 61.54-10.48-31.44-33.3-57.3-62.74-71.7v-18.32l19.7 19.72a10.032 10.032 0 0 0 14.16 0 10.006 10.006 0 0 0 0-14.14l-36.8-36.8a9.978 9.978 0 0 0-10.9-2.16 9.992 9.992 0 0 0-6.16 9.24v34.8a122.42 122.42 0 0 0-33.78-4.76c-67.72 0-122.8 55.08-122.8 122.78s55.08 122.8 122.8 122.8c67.7 0 122.78-55.1 122.78-122.8 0-6.42-0.5-12.72-1.46-18.86 42.22-3.08 75.62-38.38 75.62-81.34v-15.28c17.3-1.32 30.96-15.76 30.96-33.38v-76.44c0-17.62-13.66-32.08-30.96-33.4v-149.8h189.62v102.36c-12.62 2.2-22.26 13.22-22.26 26.48v54.92c0 13.26 9.64 24.26 22.26 26.48v8.5c0 1.6-0.12 3.2-0.3 4.78-6.28-1-12.72-1.52-19.28-1.52-21.34 0-41.44 5.48-58.96 15.12a41.002 41.002 0 0 1-4.32-18.38v-13.68l9.36 9.36a10.006 10.006 0 0 0 14.14 0 9.988 9.988 0 0 0 0-14.14l-26.44-26.42a10.02 10.02 0 0 0-10.9-2.18c-3.72 1.56-6.16 5.2-6.16 9.24v37.82c0 10.34 2.64 20.52 7.56 29.5-28.62 22.5-47.06 57.4-47.06 96.54 0 67.72 55.08 122.8 122.78 122.8 67.72 0 122.8-55.08 122.8-122.8 0-54.14-35.24-100.18-83.98-116.46 0.5-3.16 0.76-6.36 0.76-9.58v-8.5c12.64-2.22 22.26-13.24 22.26-26.48V593.4c0-13.26-9.62-24.26-22.26-26.48v-102.36h14.98zM338.7 975.86c-56.68 0-102.8-46.12-102.8-102.8s46.12-102.78 102.8-102.78c11.86 0 23.24 2.04 33.86 5.74 0.78 20.6 9.14 39.84 23.78 54.48 1.94 1.94 4.5 2.92 7.06 2.92 2.56 0 5.12-0.98 7.08-2.92a10.006 10.006 0 0 0 0-14.14c-8.34-8.34-13.96-18.64-16.48-29.88 21.46 13.76 37.5 35.26 44.14 60.54 0.02 0.08 0.02 0.14 0.06 0.22a102.64 102.64 0 0 1 3.28 25.82c0 56.68-46.1 102.8-102.78 102.8z m-1.6-382.46v54.92c0 3.8-3.1 6.9-6.9 6.9h-10.72c-3.8 0-6.9-3.1-6.9-6.9V593.4a6.9 6.9 0 0 1 6.9-6.9h10.72c3.8 0 6.9 3.08 6.9 6.9z m209.5 54.36v76.44c0 7.44-6.06 13.5-13.52 13.5h-14.9c-7.46 0-13.52-6.06-13.52-13.5v-76.44c0-7.46 6.06-13.52 13.52-13.52h14.9c7.46 0 13.52 6.06 13.52 13.52z m261.88 161.58c0 56.68-46.12 102.8-102.8 102.8s-102.78-46.12-102.78-102.8c0-32.76 15.44-61.98 39.38-80.82 11.24 10.38 25.94 16.2 41.54 16.2 4.18 0 8.34-0.42 12.36-1.24 5.42-1.12 8.9-6.4 7.78-11.82-1.1-5.4-6.4-8.9-11.8-7.78-2.7 0.56-5.5 0.84-8.34 0.84-8.64 0-16.86-2.64-23.72-7.46a102.012 102.012 0 0 1 45.58-10.7c56.68 0 102.8 46.1 102.8 102.78zM747.52 593.4v54.92c0 3.8-3.1 6.9-6.9 6.9h-5.32-5.4c-3.8 0-6.9-3.1-6.9-6.9V593.4a6.9 6.9 0 0 1 6.9-6.9H740.62c3.8 0 6.9 3.08 6.9 6.9z m-451.94-148.84c-0.08 0-0.16-0.02-0.24-0.02-82.1 0-148.92-66.8-148.92-148.92s66.82-148.94 148.92-148.94c10 0 19.86 1 29.5 2.94-14.8 29.9-22.6 63.06-22.6 96.72 0 21.76 3.22 43.26 9.52 63.9a10.02 10.02 0 0 0 9.56 7.08c0.98 0 1.96-0.14 2.92-0.44a10 10 0 0 0 6.64-12.5 198.712 198.712 0 0 1-8.64-58.04c0-34.6 9.04-68.62 26.14-98.42 35.26-61.56 101.2-99.8 172.08-99.8 91.04 0 170.54 62.64 192.34 150.16-53.38 19.66-89.92 71.36-89.92 128.9 0 2.58 0.06 5.1 0.2 7.5 0.3 5.52 5.08 9.74 10.54 9.42a9.972 9.972 0 0 0 9.42-10.54c-0.1-2.02-0.16-4.16-0.16-6.38 0-51.88 34.72-98.2 84.46-112.68a117.488 117.488 0 0 1 32.88-4.68c64.7 0 117.36 52.64 117.36 117.36 0 64.7-52.66 117.36-117.36 117.36-0.08 0-0.14 0.02-0.22 0.02H295.58z" fill="#23130D" p-id="48232"></path><path d="M440.18 856.74c-0.5-3.22-1.18-6.4-1.98-9.5-0.04-0.08-0.04-0.14-0.06-0.22-1.96-7.44-4.72-14.56-8.2-21.24-1.8-3.46-3.8-6.8-5.98-10.02-4.2-6.26-9.08-12.02-14.54-17.16a102.61 102.61 0 0 0-15.42-12.12c1.56 6.92 4.28 13.5 8.1 19.46 2.38 3.72 5.18 7.22 8.38 10.42a9.976 9.976 0 0 1 2.28 10.58c-0.48 1.3-1.24 2.52-2.28 3.56-1.04 1.02-2.24 1.78-3.52 2.26a9.964 9.964 0 0 1-10.62-2.26 79.962 79.962 0 0 1-8.64-10.18 79.706 79.706 0 0 1-11.12-21.86 82 82 0 0 1-4.02-22.44 102.956 102.956 0 0 0-33.86-5.74c-56.68 0-102.8 46.1-102.8 102.78 0 4.28 0.26 8.5 0.78 12.64 1.74 14.18 6.4 27.5 13.34 39.3 4 6.82 8.78 13.14 14.18 18.84 5.18 5.42 10.92 10.3 17.16 14.5 3.22 2.18 6.58 4.16 10.04 5.98a102.02 102.02 0 0 0 30.96 10.24c5.32 0.86 10.78 1.3 16.34 1.3 56.68 0 102.78-46.12 102.78-102.8 0-5.56-0.44-11-1.3-16.32z m-18.76 58.7a10.048 10.048 0 0 1-8.92 5.44c-1.52 0-3.08-0.36-4.54-1.1l-17.66-9.04-11.04 21.56a9.98 9.98 0 0 1-8.9 5.44 10.028 10.028 0 0 1-7.64-3.54 10.004 10.004 0 0 1-1.26-11.02l15.56-30.38c0.02-0.02 0.02-0.06 0.04-0.08 0-0.04 0.02-0.06 0.04-0.08l3.46-6.74c1.96-3.84 2.28-8.08 1.22-11.94v-0.02a16.612 16.612 0 0 0-6.7-9.3c-0.54-0.38-1.12-0.72-1.72-1.02-8.12-4.14-18.12-0.92-22.28 7.2l-6.98 13.62c-4.46 8.7-12.02 15.14-21.32 18.14-6.04 1.94-12.34 2.3-18.38 1.04-3.26-0.62-6.46-1.74-9.5-3.3a36.532 36.532 0 0 1-11.26-8.94c-8.72-10.34-11.24-25.12-5.58-38.12l-5.92-3.04-11.84-6.06a9.994 9.994 0 0 1-4.34-13.46 9.994 9.994 0 0 1 13.46-4.34l17.58 9 0.06 0.04 0.1-0.18 10.94-21.36a10 10 0 0 1 13.46-4.36c0.28 0.14 0.56 0.3 0.82 0.48 4.3 2.74 5.9 8.36 3.52 12.98l-15.58 30.46h-0.02l-3.48 6.82a16.508 16.508 0 0 0 1.08 16.88 16.37 16.37 0 0 0 6.12 5.4 16.384 16.384 0 0 0 12.62 1.02c4.2-1.36 7.64-4.28 9.66-8.2l6.98-13.64c6.52-12.72 19.52-20 32.92-19.88 5.5 0.04 11.06 1.34 16.28 4 2.5 1.28 4.8 2.82 6.86 4.54 2.96 2.5 5.44 5.4 7.44 8.58 6.18 9.94 7.46 22.6 2.54 33.94l3.12 1.6 14.64 7.5a9.994 9.994 0 0 1 4.34 13.46zM808.46 808.46c-0.46-55.98-45.9-101.42-101.88-101.88-0.3-0.02-0.6-0.02-0.9-0.02-15.16 0-29.56 3.32-42.52 9.26-1.04 0.46-2.06 0.94-3.06 1.44a40.08 40.08 0 0 0 9.44 4.94c4.5 1.64 9.32 2.52 14.28 2.52 2.84 0 5.64-0.28 8.34-0.84 5.4-1.12 10.7 2.38 11.8 7.78a9.996 9.996 0 0 1-7.78 11.82c-1.52 0.32-3.06 0.56-4.62 0.74-2.54 0.34-5.14 0.5-7.74 0.5-13.9 0-27.08-4.62-37.74-12.98-1.3-1-2.58-2.08-3.8-3.22a103.916 103.916 0 0 0-15.74 15.36 98.608 98.608 0 0 0-6.8 9.22c-5.68 8.6-10.08 18.12-12.94 28.26a101.78 101.78 0 0 0-3.9 27.98c0 56.68 46.1 102.8 102.78 102.8 9.7 0 19.1-1.36 28-3.88 10.16-2.88 19.68-7.28 28.28-12.94 3.2-2.1 6.28-4.36 9.22-6.8 5.76-4.78 10.98-10.16 15.62-16.06 4.9-6.3 9.1-13.2 12.44-20.56a101.964 101.964 0 0 0 9.24-42.56c0-0.3 0-0.6-0.02-0.88z m-103.08-35.06a16.52 16.52 0 0 0-4.2 11.96c0.02 0.56 0.08 1.1 0.16 1.64 0.58 3.76 2.44 7.2 5.32 9.78l11.4 10.24c11.14 9.98 14.7 25.3 10.3 38.68-1.22 3.7-3.06 7.24-5.52 10.5-0.6 0.82-1.28 1.64-1.98 2.42-6.6 7.38-15.58 11.44-24.76 12.06a36.46 36.46 0 0 1-25.04-7.76l-13.32 14.84a9.974 9.974 0 0 1-7.44 3.32 10.04 10.04 0 0 1-6.68-2.54c-4.1-3.7-4.46-10.02-0.76-14.12l13.24-14.78-18.02-16.16a10 10 0 0 1-0.78-14.12 9.96 9.96 0 0 1 4.58-2.9c3.22-0.98 6.86-0.28 9.54 2.12l25.44 22.82c0.02 0.02 0.04 0.02 0.04 0.04 0.02 0 0.04 0.02 0.04 0.04l5.66 5.06c6.8 6.1 17.28 5.54 23.38-1.26 0.98-1.1 1.78-2.28 2.4-3.54a16.594 16.594 0 0 0-1.68-17.7 15.32 15.32 0 0 0-1.98-2.14l-1.54-1.38-9.88-8.86a36.156 36.156 0 0 1-6.16-7.18 35.96 35.96 0 0 1-5.92-18.04c-0.32-5.8 0.72-11.44 2.96-16.6 1.54-3.54 3.66-6.84 6.32-9.8 2.76-3.08 5.94-5.58 9.38-7.5 12.6-7 28.64-6.06 40.42 3.22l7.32-8.14 6-6.7a10 10 0 1 1 14.9 13.34l-6.74 7.52-6.5 7.26 18.02 16.16c4.1 3.68 4.46 10 0.76 14.12a9.98 9.98 0 0 1-14.12 0.76l-25.46-22.84-5.72-5.1a16.552 16.552 0 0 0-13.36-4.08 16.444 16.444 0 0 0-10.02 5.34z" fill="#F9C139" p-id="48233"></path><path d="M338.7 774.28c10.2 0 20.282 1.572 30.014 4.674a85.14 85.14 0 0 0 24.798 54.376 13.892 13.892 0 0 0 9.888 4.092 14.004 14.004 0 0 0 9.916-4.098c5.44-5.468 5.436-14.346-0.008-19.79a57.408 57.408 0 0 1-11.472-16.372c15.81 13.138 27.146 30.8 32.406 50.766 0.03 0.142 0.07 0.316 0.136 0.51a98.8 98.8 0 0 1 3.102 24.624c0 54.478-44.312 98.8-98.78 98.8-54.478 0-98.8-44.322-98.8-98.8 0-54.47 44.322-98.782 98.8-98.782m-53.376 55.736l-14.082-7.216a14.06 14.06 0 0 0-6.38-1.544 13.948 13.948 0 0 0-12.464 7.62 14.016 14.016 0 0 0 6.076 18.844l14.574 7.468c-6.154 18.724 2.168 39.556 20.022 48.69a40.544 40.544 0 0 0 18.444 4.488c4.22 0 8.424-0.666 12.492-1.978 10.304-3.324 18.704-10.47 23.652-20.122l6.98-13.62a12.54 12.54 0 0 1 11.218-6.83c1.99 0 3.904 0.46 5.678 1.366 6.168 3.16 8.618 10.74 5.466 16.894l-3.23 6.292-0.228 0.234-0.204 0.61-15.44 30.148a13.904 13.904 0 0 0-0.866 10.68 13.924 13.924 0 0 0 6.958 8.17c1.978 1.002 4.18 1.532 6.368 1.532a13.91 13.91 0 0 0 12.46-7.616l9.218-18 14.114 7.224a14.004 14.004 0 0 0 18.828-6.084 14.016 14.016 0 0 0-6.076-18.844l-14.576-7.47c6.132-18.716-2.19-39.546-20.024-48.692a40.064 40.064 0 0 0-18.42-4.448c-15.342 0-29.198 8.456-36.164 22.068l-6.974 13.63a12.554 12.554 0 0 1-7.332 6.226 12.648 12.648 0 0 1-3.886 0.618 12.29 12.29 0 0 1-5.688-1.392 12.456 12.456 0 0 1-6.226-7.322 12.462 12.462 0 0 1 0.768-9.578l2.366-4.638h0.018l1.114-2.178 15.576-30.452a13.884 13.884 0 0 0 0.872-10.674 13.912 13.912 0 0 0-6.946-8.176 14.018 14.018 0 0 0-6.364-1.54 13.964 13.964 0 0 0-12.478 7.636l-9.214 17.976m53.376-59.736c-56.68 0-102.8 46.1-102.8 102.78s46.12 102.8 102.8 102.8 102.78-46.12 102.78-102.8c0-8.92-1.14-17.58-3.28-25.82-0.04-0.08-0.04-0.14-0.06-0.22-6.64-25.28-22.68-46.78-44.14-60.54 2.52 11.24 8.14 21.54 16.48 29.88a10.006 10.006 0 0 1 0 14.14c-1.96 1.94-4.52 2.92-7.08 2.92-2.56 0-5.12-0.98-7.06-2.92-14.64-14.64-23-33.88-23.78-54.48-10.62-3.7-22-5.74-33.86-5.74z m-51.64 65.12l11.04-21.54a10.018 10.018 0 0 1 8.92-5.46 10 10 0 0 1 8.88 14.56l-15.58 30.46h-0.02l-3.48 6.82c-4.16 8.12-0.94 18.12 7.2 22.28a16.35 16.35 0 0 0 7.508 1.83c1.71 0 3.432-0.268 5.112-0.81 4.2-1.36 7.64-4.28 9.66-8.2l6.98-13.64c6.46-12.622 19.306-19.888 32.602-19.89 5.6 0 11.28 1.288 16.598 4.01 17.24 8.84 24.44 29.54 16.84 47.06l17.76 9.1a9.994 9.994 0 0 1 4.34 13.46 10.048 10.048 0 0 1-8.92 5.44c-1.52 0-3.08-0.36-4.54-1.1l-17.66-9.04-11.04 21.56a9.98 9.98 0 0 1-8.9 5.44 9.994 9.994 0 0 1-8.9-14.56l15.56-30.38c0.02-0.02 0.02-0.06 0.04-0.08 0-0.04 0.02-0.06 0.04-0.08l3.46-6.74c4.16-8.12 0.92-18.12-7.2-22.28a16.488 16.488 0 0 0-7.502-1.806c-6.026 0-11.85 3.288-14.778 9.006l-6.98 13.62c-4.46 8.7-12.02 15.14-21.32 18.14a36.688 36.688 0 0 1-11.264 1.786c-5.716 0-11.386-1.358-16.616-4.046-17.24-8.82-24.46-29.54-16.84-47.06l-17.76-9.1a9.994 9.994 0 0 1-4.34-13.46 9.994 9.994 0 0 1 13.46-4.34l17.64 9.04zM705.68 710.56c54.478 0 98.8 44.312 98.8 98.78 0 54.478-44.322 98.8-98.8 98.8-54.468 0-98.78-44.322-98.78-98.8 0-29.334 12.818-56.696 35.286-75.588 11.668 9.676 26.32 14.968 41.634 14.968 4.436 0 8.864-0.444 13.17-1.322a13.932 13.932 0 0 0 8.874-6.014 13.9 13.9 0 0 0 2.016-10.52 14.024 14.024 0 0 0-13.694-11.19c-0.948 0-1.904 0.098-2.838 0.292a37.166 37.166 0 0 1-7.528 0.756c-5.19 0-10.228-1.046-14.874-3.06 11.66-4.718 23.982-7.102 36.734-7.102m34.03 39.87a40.74 40.74 0 0 0-22.016-6.49 40.608 40.608 0 0 0-30.174 13.432c-7.236 8.08-10.892 18.482-10.294 29.282 0.576 10.802 5.336 20.74 13.404 27.984l11.414 10.236c5.138 4.624 5.566 12.582 0.958 17.736a12.566 12.566 0 0 1-17.736 0.948l-4.38-3.916-0.004-0.458-1.608-0.99-25.182-22.59a13.956 13.956 0 0 0-9.332-3.574 14.046 14.046 0 0 0-10.436 4.658c-5.15 5.738-4.664 14.606 1.086 19.77l15.044 13.49-10.562 11.792c-5.162 5.72-4.692 14.588 1.078 19.794a14.07 14.07 0 0 0 9.332 3.546 14.032 14.032 0 0 0 10.416-4.648l10.934-12.182a40.692 40.692 0 0 0 21.988 6.51 40.576 40.576 0 0 0 30.198-13.468c7.224-8.05 10.878-18.446 10.29-29.274-0.588-10.828-5.346-20.764-13.394-27.974l-11.402-10.242a12.468 12.468 0 0 1-4.156-8.66 12.538 12.538 0 0 1 3.184-9.072 12.574 12.574 0 0 1 17.742-0.944l5.71 5.092 25.458 22.838a13.984 13.984 0 0 0 19.768-1.064 13.898 13.898 0 0 0 3.562-10.116 13.912 13.912 0 0 0-4.628-9.654l-15.044-13.49 10.57-11.8c5.15-5.738 4.664-14.606-1.084-19.768a13.956 13.956 0 0 0-9.332-3.574 14.046 14.046 0 0 0-10.436 4.658l-10.936 12.182M705.68 706.56c-16.36 0-31.84 3.86-45.58 10.7a41.12 41.12 0 0 0 23.72 7.46c2.84 0 5.64-0.28 8.34-0.84a9.998 9.998 0 0 1 11.8 7.78 9.996 9.996 0 0 1-7.78 11.82c-4.02 0.82-8.18 1.24-12.36 1.24-15.6 0-30.3-5.82-41.54-16.2-23.94 18.84-39.38 48.06-39.38 80.82 0 56.68 46.1 102.8 102.78 102.8s102.8-46.12 102.8-102.8-46.12-102.78-102.8-102.78z m34.62 49.2l13.32-14.84a9.998 9.998 0 0 1 14.12-0.78 10 10 0 0 1 0.78 14.12l-13.24 14.78 18.02 16.16c4.1 3.68 4.46 10 0.76 14.12a9.94 9.94 0 0 1-7.434 3.328 9.968 9.968 0 0 1-6.686-2.568l-25.46-22.84-5.72-5.1a16.47 16.47 0 0 0-11.048-4.232 16.52 16.52 0 0 0-12.332 5.492 16.52 16.52 0 0 0-4.2 11.96c0.24 4.4 2.18 8.46 5.48 11.42l11.4 10.24c15 13.44 16.26 36.6 2.8 51.6-7.2 8.04-17.2 12.14-27.22 12.14-7.98 0-15.94-2.62-22.58-7.84l-13.32 14.84a9.974 9.974 0 0 1-7.44 3.32 10.04 10.04 0 0 1-6.68-2.54c-4.1-3.7-4.46-10.02-0.76-14.12l13.24-14.78-18.02-16.16a10 10 0 1 1 13.34-14.9l25.44 22.82c0.02 0.02 0.04 0.02 0.04 0.04 0.02 0 0.04 0.02 0.04 0.04l5.66 5.06a16.512 16.512 0 0 0 11.056 4.232 16.508 16.508 0 0 0 12.324-5.492c6.08-6.8 5.52-17.28-1.26-23.38l-11.42-10.24a36.296 36.296 0 0 1-12.08-25.22c-0.54-9.76 2.76-19.12 9.28-26.4 7.206-8.02 17.18-12.1 27.194-12.1 7.968 0 15.96 2.582 22.606 7.82z" opacity=".2" p-id="48234"></path><path d="M747.52 593.4v54.92c0 3.8-3.1 6.9-6.9 6.9h-5.32-5.4c-3.8 0-6.9-3.1-6.9-6.9V593.4a6.9 6.9 0 0 1 6.9-6.9H740.62c3.8 0 6.9 3.08 6.9 6.9z" fill="#F9C139" p-id="48235"></path><path d="M337.1 593.4v54.92c0 3.8-3.1 6.9-6.9 6.9h-10.72c-3.8 0-6.9-3.1-6.9-6.9V593.4a6.9 6.9 0 0 1 6.9-6.9h10.72c3.8 0 6.9 3.08 6.9 6.9z" fill="#E1E1E5" p-id="48236"></path><path d="M327.48 655.22h-8c-3.8 0-6.9-3.1-6.9-6.9V593.4a6.9 6.9 0 0 1 6.9-6.9h8a6.9 6.9 0 0 0-6.9 6.9v54.92c0 3.8 3.1 6.9 6.9 6.9z" opacity=".2" p-id="48237"></path><path d="M546.6 647.76v76.44c0 7.44-6.06 13.5-13.52 13.5h-14.9c-7.46 0-13.52-6.06-13.52-13.5v-76.44c0-7.46 6.06-13.52 13.52-13.52h14.9c7.46 0 13.52 6.06 13.52 13.52z" fill="#F9C139" p-id="48238"></path><path d="M531.18 737.7h-13c-7.46 0-13.52-6.06-13.52-13.5v-76.44c0-7.46 6.06-13.52 13.52-13.52h13c-7.46 0-13.52 6.06-13.52 13.52v76.44c0 7.44 6.06 13.5 13.52 13.5z" opacity=".2" p-id="48239"></path><path d="M877.58 327.18c0 64.7-52.66 117.36-117.36 117.36-0.08 0-0.14 0.02-0.22 0.02H295.58c-0.08 0-0.16-0.02-0.24-0.02-82.1 0-148.92-66.8-148.92-148.92s66.82-148.94 148.92-148.94c10 0 19.86 1 29.5 2.94-14.8 29.9-22.6 63.06-22.6 96.72 0 21.76 3.22 43.26 9.52 63.9a10.02 10.02 0 0 0 9.56 7.08c0.98 0 1.96-0.14 2.92-0.44a10 10 0 0 0 6.64-12.5 198.712 198.712 0 0 1-8.64-58.04c0-34.6 9.04-68.62 26.14-98.42 35.26-61.56 101.2-99.8 172.08-99.8 91.04 0 170.54 62.64 192.34 150.16-53.38 19.66-89.92 71.36-89.92 128.9 0 2.58 0.06 5.1 0.2 7.5 0.3 5.52 5.08 9.74 10.54 9.42a9.972 9.972 0 0 0 9.42-10.54c-0.1-2.02-0.16-4.16-0.16-6.38 0-51.88 34.72-98.2 84.46-112.68a117.488 117.488 0 0 1 32.88-4.68c64.7 0 117.36 52.64 117.36 117.36z" fill="#8FDCFF" p-id="48240"></path><path d="M520.46 58.12c41.724 0 82.91 14.254 115.97 40.134 30.668 24.008 53.298 57.17 64.374 94.096-52.952 23.388-87.926 76.452-87.926 134.83 0 2.894 0.072 5.614 0.214 8.042a19.98 19.98 0 0 0 21.068 18.862 19.836 19.836 0 0 0 13.814-6.636 19.786 19.786 0 0 0 5.05-14.384 119.62 119.62 0 0 1-0.148-5.886c0-47.45 31.768-89.836 77.258-103.08a107.528 107.528 0 0 1 30.082-4.28c59.198 0 107.36 48.162 107.36 107.36s-48.162 107.36-107.36 107.36c-0.216 0-0.43 0.006-0.646 0.02h-463.58a10.538 10.538 0 0 0-0.65-0.02c-76.6 0-138.92-62.32-138.92-138.92 0-76.612 62.32-138.94 138.92-138.94 4.97 0 9.952 0.268 14.908 0.8-11.81 27.99-18.008 58.44-18.008 88.86 0 22.696 3.35 45.176 9.96 66.834a19.906 19.906 0 0 0 19.12 14.146 19.722 19.722 0 0 0 5.844-0.876 19.864 19.864 0 0 0 11.82-9.746 19.866 19.866 0 0 0 1.46-15.238 188.652 188.652 0 0 1-8.204-55.12c0-32.842 8.58-65.154 24.818-93.45C390.54 94.434 453.152 58.12 520.46 58.12m0-10c-70.88 0-136.82 38.24-172.08 99.8-17.1 29.8-26.14 63.82-26.14 98.42 0 19.76 2.92 39.3 8.64 58.04a10 10 0 0 1-6.64 12.5c-0.96 0.3-1.94 0.44-2.92 0.44a10.02 10.02 0 0 1-9.56-7.08 218.712 218.712 0 0 1-9.52-63.9c0-33.66 7.8-66.82 22.6-96.72-9.64-1.94-19.5-2.94-29.5-2.94-82.1 0-148.92 66.82-148.92 148.94s66.82 148.92 148.92 148.92c0.08 0 0.16 0.02 0.24 0.02H760c0.08 0 0.14-0.02 0.22-0.02 64.7 0 117.36-52.66 117.36-117.36 0-64.72-52.66-117.36-117.36-117.36-11.18 0-22.24 1.58-32.88 4.68-49.74 14.48-84.46 60.8-84.46 112.68 0 2.22 0.06 4.36 0.16 6.38a9.972 9.972 0 0 1-10.002 10.558c-5.214 0-9.668-4.114-9.958-9.438-0.14-2.4-0.2-4.92-0.2-7.5 0-57.54 36.54-109.24 89.92-128.9-21.8-87.52-101.3-150.16-192.34-150.16z" opacity=".2" p-id="48241"></path><path d="M147.54 277.34c23.84-50.58 75.3-85.66 134.8-85.66 8.88 0 17.66 0.78 26.28 2.34 3.78-15.32 9.2-30.24 16.22-44.4-9.64-1.94-19.5-2.94-29.5-2.94-75.92 0-138.76 57.12-147.8 130.66zM688.34 210.22c7.66-4.74 15.84-8.76 24.46-11.94-21.8-87.52-101.3-150.16-192.34-150.16-70.88 0-136.82 38.24-172.08 99.8-11.76 20.48-19.7 42.96-23.52 66.24a194.02 194.02 0 0 1 10.52-21.24c35.26-61.56 101.2-99.8 172.08-99.8 79.1 0 149.48 47.28 180.88 117.1zM877.58 327.18c0-64.72-52.66-117.36-117.36-117.36-11.18 0-22.24 1.58-32.88 4.68a115.356 115.356 0 0 0-31.62 14.7c-14.46 9.56-26.58 22.22-35.56 36.9-9.48 15.48-15.44 33.22-16.92 51.9 14.52-27.72 39.84-49.4 71.1-58.5a117.488 117.488 0 0 1 32.88-4.68c64.7 0 117.36 52.64 117.36 117.36 0 3.14-0.12 6.26-0.36 9.36a116.82 116.82 0 0 0 13.36-54.36z" fill="#FFFFFF" opacity=".2" p-id="48242"></path><path d="M421.42 915.44a10.048 10.048 0 0 1-8.92 5.44c-1.52 0-3.08-0.36-4.54-1.1l-17.66-9.04-11.04 21.56a9.98 9.98 0 0 1-8.9 5.44 9.994 9.994 0 0 1-8.9-14.56l15.56-30.38c0.02-0.02 0.02-0.06 0.04-0.08 0-0.04 0.02-0.06 0.04-0.08l3.46-6.74c4.16-8.12 0.92-18.12-7.2-22.28-8.12-4.14-18.12-0.92-22.28 7.2l-6.98 13.62c-4.46 8.7-12.02 15.14-21.32 18.14s-19.2 2.2-27.88-2.26c-17.24-8.82-24.46-29.54-16.84-47.06l-17.76-9.1a9.994 9.994 0 0 1-4.34-13.46 9.994 9.994 0 0 1 13.46-4.34l17.64 9.04 11.04-21.54a10 10 0 0 1 13.46-4.36 10 10 0 0 1 4.34 13.46l-15.58 30.46h-0.02l-3.48 6.82c-4.16 8.12-0.94 18.12 7.2 22.28a16.384 16.384 0 0 0 12.62 1.02c4.2-1.36 7.64-4.28 9.66-8.2l6.98-13.64c9.18-17.94 31.26-25.06 49.2-15.88 17.24 8.84 24.44 29.54 16.84 47.06l17.76 9.1a9.994 9.994 0 0 1 4.34 13.46zM774.06 799.32a9.98 9.98 0 0 1-14.12 0.76l-25.46-22.84-5.72-5.1c-6.78-6.1-17.28-5.54-23.38 1.26a16.52 16.52 0 0 0-4.2 11.96c0.24 4.4 2.18 8.46 5.48 11.42l11.4 10.24c15 13.44 16.26 36.6 2.8 51.6-7.2 8.04-17.2 12.14-27.22 12.14-7.98 0-15.94-2.62-22.58-7.84l-13.32 14.84a9.974 9.974 0 0 1-7.44 3.32 10.04 10.04 0 0 1-6.68-2.54c-4.1-3.7-4.46-10.02-0.76-14.12l13.24-14.78-18.02-16.16a10 10 0 1 1 13.34-14.9l25.44 22.82c0.02 0.02 0.04 0.02 0.04 0.04 0.02 0 0.04 0.02 0.04 0.04l5.66 5.06c6.8 6.1 17.28 5.54 23.38-1.26 6.08-6.8 5.52-17.28-1.26-23.38l-11.42-10.24a36.296 36.296 0 0 1-12.08-25.22c-0.54-9.76 2.76-19.12 9.28-26.4 12.94-14.4 34.8-16.1 49.8-4.28l13.32-14.84a10 10 0 1 1 14.9 13.34l-13.24 14.78 18.02 16.16c4.1 3.68 4.46 10 0.76 14.12z" fill="#23130D" p-id="48243"></path><path d="M737.98 655.22h-8c-3.8 0-6.9-3.1-6.9-6.9V593.4a6.9 6.9 0 0 1 6.9-6.9h8a6.9 6.9 0 0 0-6.9 6.9v54.92c0 3.8 3.1 6.9 6.9 6.9z" opacity=".2" p-id="48244"></path><path d="M682.6 846.54l-5.66-5.06c0-0.02-0.02-0.04-0.04-0.04 0-0.02-0.02-0.02-0.04-0.04l-25.44-22.82a9.956 9.956 0 0 0-9.54-2.12l-35.08-35.1c2.86-10.14 7.26-19.66 12.94-28.26l88.64 88.64c-0.62 1.26-1.42 2.44-2.4 3.54-6.1 6.8-16.58 7.36-23.38 1.26zM761.96 895.32c-8.6 5.66-18.12 10.06-28.28 12.94l-37.58-37.58c9.18-0.62 18.16-4.68 24.76-12.06 0.7-0.78 1.38-1.6 1.98-2.42l39.12 39.12zM681.22 786.44c0.34 6.54 2.4 12.72 5.92 18.04l-60.6-60.6c4.68-5.66 9.98-10.82 15.74-15.36 1.22 1.14 2.5 2.22 3.8 3.22l38.1 38.1c-2.24 5.16-3.28 10.8-2.96 16.6zM706.7 824.04l-3.52-3.52 1.54 1.38c0.74 0.66 1.4 1.38 1.98 2.14zM786.8 872.46a105.932 105.932 0 0 1-15.62 16.06l-42.82-42.82c4.4-13.38 0.84-28.7-10.3-38.68l-11.4-10.24a16.472 16.472 0 0 1-5.32-9.78l85.46 85.46zM747.62 747.62l-7.32 8.14c-11.78-9.28-27.82-10.22-40.42-3.22l-8.32-8.32c1.56-0.18 3.1-0.42 4.62-0.74 5.42-1.12 8.9-6.4 7.78-11.82-1.1-5.4-6.4-8.9-11.8-7.78-2.7 0.56-5.5 0.84-8.34 0.84-4.96 0-9.78-0.88-14.28-2.52l-6.38-6.38a101.794 101.794 0 0 1 42.52-9.26c0.3 0 0.6 0 0.9 0.02l41.04 41.04zM808.48 809.34c0 15.18-3.3 29.58-9.24 42.56l-83.84-83.84c4.66-0.64 9.58 0.68 13.36 4.08l5.72 5.1 25.46 22.84a9.98 9.98 0 0 0 14.12-0.76 9.996 9.996 0 0 0-0.76-14.12l-18.02-16.16 6.5-7.26 46.68 46.68c0.02 0.28 0.02 0.58 0.02 0.88z" fill="#FFFFFF" opacity=".4" p-id="48245"></path><path d="M381.78 873.96c1.06 3.86 0.74 8.1-1.22 11.94l-3.46 6.74c-0.02 0.02-0.04 0.04-0.04 0.08-0.02 0.02-0.02 0.06-0.04 0.08l-15.56 30.38c-1.9 3.7-1.26 8.04 1.26 11.02l-40.36 40.36a102.02 102.02 0 0 1-30.96-10.24l90.38-90.36zM440.18 856.74l-37.74 37.74-3.12-1.6c4.92-11.34 3.64-24-2.54-33.94l33.16-33.16c3.48 6.68 6.24 13.8 8.2 21.24 0.02 0.08 0.02 0.14 0.06 0.22 0.8 3.1 1.48 6.28 1.98 9.5zM373.36 863.62c0.6 0.3 1.18 0.64 1.72 1.02l-93.72 93.7c-6.24-4.2-11.98-9.08-17.16-14.5l40.2-40.22c6.04 1.26 12.34 0.9 18.38-1.04 9.3-3 16.86-9.44 21.32-18.14l6.98-13.62c4.16-8.12 14.16-11.34 22.28-7.2zM403.4 833.42c1.22 0 2.42-0.22 3.56-0.66l-17.62 17.6c-2.06-1.72-4.36-3.26-6.86-4.54a36.358 36.358 0 0 0-16.28-4l21.5-21.5c2.56 3.6 5.46 7 8.64 10.18 1.94 1.94 4.5 2.92 7.06 2.92zM412.76 826.94c1.34-3.56 0.58-7.72-2.28-10.58-3.2-3.2-6-6.7-8.38-10.42l7.32-7.34c5.46 5.14 10.34 10.9 14.54 17.16l-11.2 11.18zM283.64 891.38l-33.62 33.62c-6.94-11.8-11.6-25.12-13.34-39.3l35.46-35.48 5.92 3.04c-5.66 13-3.14 27.78 5.58 38.12zM287 835.36l0.16-0.14-0.1 0.18zM376.58 798.46l-78.68 78.66a16.508 16.508 0 0 1-1.08-16.88l3.48-6.82h0.02l15.58-30.46c2.38-4.62 0.78-10.24-3.52-12.98l38.94-38.92c7.34 0.9 14.44 2.6 21.24 4.96a82 82 0 0 0 4.02 22.44z" fill="#FFFFFF" opacity=".4" p-id="48246"></path></svg>