<?xml version="1.0" standalone="no"?><!DOCTYPE svg PUBLIC "-//W3C//DTD SVG 1.1//EN" "http://www.w3.org/Graphics/SVG/1.1/DTD/svg11.dtd"><svg t="1625812514069" class="icon" viewBox="0 0 1024 1024" version="1.1" xmlns="http://www.w3.org/2000/svg" p-id="107445" xmlns:xlink="http://www.w3.org/1999/xlink" width="200" height="200"><defs><style type="text/css"></style></defs><path d="M829.56 212.46H194.44c-18.4 0-33.36 14.98-33.36 33.38v17.06c0 18.4 14.96 33.36 33.36 33.36h3.96l240.86 405.72v108.06c0 5.52 4.48 10 10 10h125.48c5.52 0 10-4.48 10-10V702L825.6 296.26h3.96c8.92 0 17.28-3.46 23.6-9.78 6.3-6.3 9.76-14.68 9.76-23.58v-17.06c0-18.4-14.96-33.38-33.36-33.38zM566.14 694.14c-0.12 0.18-0.18 0.38-0.26 0.56-0.18 0.32-0.34 0.64-0.46 0.98-0.12 0.3-0.2 0.62-0.3 0.94-0.08 0.3-0.16 0.6-0.22 0.92-0.06 0.38-0.08 0.74-0.1 1.1-0.02 0.2-0.06 0.4-0.06 0.6v100.8h-105.48v-100.8c0-0.2-0.04-0.4-0.06-0.6-0.02-0.36-0.04-0.72-0.1-1.08-0.06-0.34-0.14-0.64-0.22-0.96-0.1-0.3-0.18-0.62-0.3-0.92-0.12-0.34-0.28-0.66-0.46-1-0.08-0.18-0.14-0.36-0.26-0.54l-236.2-397.88h580.68l-236.2 397.88z m276.78-431.24c0 7.36-6 13.36-13.36 13.36H194.44c-7.36 0-13.36-6-13.36-13.36v-17.06c0-7.38 6-13.38 13.36-13.38h635.12c7.36 0 13.36 6 13.36 13.38v17.06z" fill="#23130D" p-id="107446"></path><path d="M842.92 245.84v17.06c0 7.36-6 13.36-13.36 13.36H194.44c-7.36 0-13.36-6-13.36-13.36v-17.06c0-7.38 6-13.38 13.36-13.38h635.12c7.36 0 13.36 6 13.36 13.38z" fill="#E1E1E5" p-id="107447"></path><path d="M842.92 245.84v17.06c0 0.82-0.08 1.64-0.24 2.42-1.12-6.22-6.58-10.96-13.12-10.96H194.44c-6.54 0-12 4.74-13.12 10.96-0.16-0.78-0.24-1.6-0.24-2.42v-17.06c0-7.38 6-13.38 13.36-13.38h635.12c7.36 0 13.36 6 13.36 13.38z" fill="#23130D" opacity=".2" p-id="107448"></path><path d="M802.34 296.26l-236.2 397.88c-0.12 0.18-0.18 0.38-0.26 0.56-0.18 0.32-0.34 0.64-0.46 0.98-0.12 0.3-0.2 0.62-0.3 0.94-0.08 0.3-0.16 0.6-0.22 0.92-0.06 0.38-0.08 0.74-0.1 1.1-0.02 0.2-0.06 0.4-0.06 0.6v100.8h-105.48v-100.8c0-0.2-0.04-0.4-0.06-0.6-0.02-0.36-0.04-0.72-0.1-1.08-0.06-0.34-0.14-0.64-0.22-0.96-0.1-0.3-0.18-0.62-0.3-0.92-0.12-0.34-0.28-0.66-0.46-1-0.08-0.18-0.14-0.36-0.26-0.54l-236.2-397.88h580.68z" fill="#3594BF" p-id="107449"></path><path d="M487.62 699.24v100.8h-28.36v-100.8c0-0.2-0.04-0.4-0.06-0.6-0.02-0.36-0.04-0.72-0.1-1.08-0.06-0.34-0.14-0.64-0.22-0.96-0.1-0.3-0.18-0.62-0.3-0.92-0.12-0.34-0.28-0.66-0.46-1-0.08-0.18-0.14-0.36-0.26-0.54l-236.2-397.88h28.36l236.2 397.88c0.12 0.18 0.18 0.36 0.26 0.54 0.18 0.34 0.34 0.66 0.46 1 0.12 0.3 0.2 0.62 0.3 0.92 0.08 0.32 0.16 0.62 0.22 0.96 0.06 0.36 0.08 0.72 0.1 1.08 0.02 0.2 0.06 0.4 0.06 0.6z" fill="#FFFFFF" opacity=".4" p-id="107450"></path><path d="M802.34 296.26l-236.2 397.88c-0.12 0.18-0.18 0.38-0.26 0.56-0.18 0.32-0.34 0.64-0.46 0.98-0.12 0.3-0.2 0.62-0.3 0.94-0.08 0.3-0.16 0.6-0.22 0.92-0.06 0.38-0.08 0.74-0.1 1.1-0.02 0.2-0.06 0.4-0.06 0.6v100.8h-28.36v-100.8c0-0.2 0.04-0.4 0.06-0.6 0.02-0.36 0.04-0.72 0.1-1.1 0.06-0.32 0.14-0.62 0.22-0.92 0.1-0.32 0.18-0.64 0.3-0.94 0.12-0.34 0.28-0.66 0.46-0.98 0.08-0.18 0.14-0.38 0.26-0.56l236.2-397.88h28.36z" fill="#23130D" opacity=".2" p-id="107451"></path><path d="M540.36 932.04c0 11.34-7.84 20.88-18.36 23.52v6.78c0 5.52-4.48 10-10 10s-10-4.48-10-10v-6.04h-8.38c-5.52 0-10-4.46-10-10 0-5.52 4.48-10 10-10h22.48c2.36 0 4.26-1.9 4.26-4.26 0-2.34-1.9-4.26-4.26-4.26h-8.22c-13.38 0-24.26-10.88-24.26-24.26 0-11.34 7.84-20.88 18.38-23.52v-6.76c0-5.52 4.48-10 10-10s10 4.48 10 10v6.02h8.36c5.54 0 10 4.48 10 10s-4.46 10-10 10h-22.48c-2.34 0-4.26 1.9-4.26 4.26 0 2.34 1.92 4.26 4.26 4.26h8.22c13.38 0 24.26 10.88 24.26 24.26z" fill="#23130D" p-id="107452"></path><path d="M512 837.42c-44.3 0-80.36 36.06-80.36 80.36 0 44.32 36.06 80.36 80.36 80.36s80.36-36.04 80.36-80.36c0-44.3-36.06-80.36-80.36-80.36z m0 140.72c-33.28 0-60.36-27.08-60.36-60.36s27.08-60.36 60.36-60.36 60.36 27.08 60.36 60.36-27.08 60.36-60.36 60.36z" fill="#23130D" p-id="107453"></path><path d="M512 857.42c-7.18 0-14.08 1.26-20.48 3.6-5.7 2.04-11 4.94-15.76 8.54a57.226 57.226 0 0 0-8 7.22 57.726 57.726 0 0 0-6.4 8.22c-1 1.5-1.92 3.04-2.74 4.64a59.05 59.05 0 0 0-5.24 13.78c-1.14 4.6-1.74 9.42-1.74 14.36 0 33.28 27.08 60.36 60.36 60.36 4.96 0 9.76-0.6 14.36-1.74a59.262 59.262 0 0 0 18.42-7.98c2.92-1.88 5.68-4.04 8.22-6.4 2.64-2.44 5.06-5.12 7.24-7.98a60.36 60.36 0 0 0 8.54-15.76 60.02 60.02 0 0 0 3.58-20.5c0-33.28-27.08-60.36-60.36-60.36z m-6.06 42.32a4.22 4.22 0 0 0-2.32 3.78c0 2.34 1.92 4.26 4.26 4.26h8.22c13.38 0 24.26 10.88 24.26 24.26 0 0.68-0.02 1.36-0.1 2.02-0.32 4.16-1.72 8-3.92 11.3-1.9 2.92-4.44 5.38-7.4 7.22-1.54 1-3.22 1.8-4.98 2.4h-0.02c-0.64 0.22-1.28 0.42-1.94 0.58v6.78c0 2.7-1.06 5.14-2.78 6.92-1.84 1.9-4.4 3.08-7.22 3.08-5.52 0-10-4.48-10-10v-6.04h-8.38a9.99 9.99 0 0 1-5.62-18.26c1.6-1.1 3.54-1.74 5.62-1.74h22.48c2.36 0 4.26-1.9 4.26-4.26 0-2.34-1.9-4.26-4.26-4.26h-8.22c-1.4 0-2.78-0.12-4.1-0.36-10.1-1.72-18.08-9.7-19.8-19.8-0.24-1.32-0.36-2.7-0.36-4.1 0-3.22 0.64-6.3 1.78-9.1 1.4-3.44 3.56-6.5 6.3-8.92 2.88-2.62 6.4-4.52 10.3-5.5v-6.76c0-0.54 0.04-1.08 0.14-1.6 0.76-4.76 4.88-8.4 9.86-8.4 5.52 0 10 4.48 10 10v6.02h8.36c5.54 0 10 4.48 10 10s-4.46 10-10 10h-22.48c-0.7 0-1.36 0.18-1.94 0.48z" fill="#F9C139" p-id="107454"></path><path d="M262.74 101.22c-27.48 0-49.86 22.36-49.86 49.84 0 27.5 22.38 49.86 49.86 49.86s49.84-22.36 49.84-49.86c0-27.48-22.36-49.84-49.84-49.84z m0 79.7c-16.46 0-29.86-13.4-29.86-29.86s13.4-29.84 29.86-29.84 29.84 13.38 29.84 29.84-13.38 29.86-29.84 29.86z" fill="#23130D" p-id="107455"></path><path d="M292.58 151.06c0 1.88-0.18 3.74-0.52 5.52a29.06 29.06 0 0 1-4.18 10.54c-1.18 1.84-2.56 3.56-4.1 5.1-1.48 1.48-3.12 2.8-4.9 3.94-0.92 0.6-1.88 1.14-2.86 1.62a29.36 29.36 0 0 1-8.7 2.8c-1.5 0.22-3.02 0.34-4.58 0.34-16.46 0-29.86-13.4-29.86-29.86 0-1.56 0.12-3.08 0.34-4.58 0.48-3.08 1.44-6 2.8-8.7 0.48-0.98 1.02-1.94 1.62-2.86 1.14-1.78 2.46-3.42 3.94-4.9 1.54-1.54 3.26-2.92 5.1-4.1a29.06 29.06 0 0 1 10.54-4.18c1.78-0.34 3.64-0.52 5.52-0.52 16.46 0 29.84 13.38 29.84 29.84z" fill="#F9C139" p-id="107456"></path><path d="M448.38 101.22c-27.48 0-49.84 22.36-49.84 49.84 0 27.5 22.36 49.86 49.84 49.86 27.5 0 49.86-22.36 49.86-49.86 0-27.48-22.36-49.84-49.86-49.84z m0 79.7c-16.46 0-29.84-13.4-29.84-29.86s13.38-29.84 29.84-29.84 29.86 13.38 29.86 29.84-13.4 29.86-29.86 29.86z" fill="#23130D" p-id="107457"></path><path d="M478.24 151.06c0 16.46-13.4 29.86-29.86 29.86s-29.84-13.4-29.84-29.86 13.38-29.84 29.84-29.84 29.86 13.38 29.86 29.84z" fill="#F9C139" p-id="107458"></path><path d="M601.18 43.94c-27.48 0-49.84 22.36-49.84 49.84 0 27.5 22.36 49.86 49.84 49.86 27.48 0 49.84-22.36 49.84-49.86 0-27.48-22.36-49.84-49.84-49.84z m0 79.7c-16.46 0-29.84-13.4-29.84-29.86s13.38-29.84 29.84-29.84 29.84 13.38 29.84 29.84-13.38 29.86-29.84 29.86z" fill="#23130D" p-id="107459"></path><path d="M631.02 93.78c0 16.46-13.38 29.86-29.84 29.86s-29.84-13.4-29.84-29.86 13.38-29.84 29.84-29.84 29.84 13.38 29.84 29.84z" fill="#F9C139" p-id="107460"></path><path d="M544.22 137.02c-15.48 0-28.08 12.6-28.08 28.08s12.6 28.08 28.08 28.08 28.08-12.6 28.08-28.08-12.6-28.08-28.08-28.08z m0 36.16c-4.46 0-8.08-3.62-8.08-8.08s3.62-8.08 8.08-8.08 8.08 3.62 8.08 8.08-3.62 8.08-8.08 8.08z" fill="#23130D" p-id="107461"></path><path d="M544.22 165.1m-8.08 0a8.08 8.08 0 1 0 16.16 0 8.08 8.08 0 1 0-16.16 0Z" fill="#F9C139" p-id="107462"></path><path d="M659.1 144.76c-15.48 0-28.08 12.6-28.08 28.08s12.6 28.08 28.08 28.08c15.5 0 28.08-12.6 28.08-28.08s-12.58-28.08-28.08-28.08z m0 36.16c-4.44 0-8.08-3.64-8.08-8.08 0-4.46 3.64-8.08 8.08-8.08 4.46 0 8.08 3.62 8.08 8.08 0 4.44-3.62 8.08-8.08 8.08z" fill="#23130D" p-id="107463"></path><path d="M667.18 172.84c0 4.44-3.62 8.08-8.08 8.08-4.44 0-8.08-3.64-8.08-8.08 0-4.46 3.64-8.08 8.08-8.08 4.46 0 8.08 3.62 8.08 8.08z" fill="#F9C139" p-id="107464"></path><path d="M488.24 32.76c-15.48 0-28.08 12.6-28.08 28.08s12.6 28.08 28.08 28.08 28.08-12.6 28.08-28.08-12.6-28.08-28.08-28.08z m0 36.16c-4.46 0-8.08-3.62-8.08-8.08s3.62-8.08 8.08-8.08c4.44 0 8.08 3.62 8.08 8.08s-3.64 8.08-8.08 8.08z" fill="#23130D" p-id="107465"></path><path d="M496.32 60.84c0 4.46-3.64 8.08-8.08 8.08-4.46 0-8.08-3.62-8.08-8.08s3.62-8.08 8.08-8.08c4.44 0 8.08 3.62 8.08 8.08z" fill="#F9C139" p-id="107466"></path><path d="M706.66 25.86c-15.5 0-28.08 12.6-28.08 28.08 0 15.48 12.58 28.08 28.08 28.08 15.48 0 28.08-12.6 28.08-28.08 0-15.48-12.6-28.08-28.08-28.08z m0 36.16c-4.46 0-8.08-3.62-8.08-8.08s3.62-8.08 8.08-8.08c4.44 0 8.08 3.62 8.08 8.08s-3.64 8.08-8.08 8.08z" fill="#23130D" p-id="107467"></path><path d="M714.74 53.94c0 4.46-3.64 8.08-8.08 8.08-4.46 0-8.08-3.62-8.08-8.08s3.62-8.08 8.08-8.08c4.44 0 8.08 3.62 8.08 8.08z" fill="#F9C139" p-id="107468"></path><path d="M362.4 76.9c-15.48 0-28.08 12.6-28.08 28.08s12.6 28.08 28.08 28.08 28.08-12.6 28.08-28.08-12.6-28.08-28.08-28.08z m0 36.16c-4.46 0-8.08-3.62-8.08-8.08s3.62-8.08 8.08-8.08 8.08 3.62 8.08 8.08-3.62 8.08-8.08 8.08z" fill="#23130D" p-id="107469"></path><path d="M362.4 104.98m-8.08 0a8.08 8.08 0 1 0 16.16 0 8.08 8.08 0 1 0-16.16 0Z" fill="#F9C139" p-id="107470"></path><path d="M302.58 25.86c-15.48 0-28.08 12.6-28.08 28.08 0 15.48 12.6 28.08 28.08 28.08 15.48 0 28.08-12.6 28.08-28.08 0-15.48-12.6-28.08-28.08-28.08z m0 36.16c-4.46 0-8.08-3.62-8.08-8.08s3.62-8.08 8.08-8.08 8.08 3.62 8.08 8.08-3.62 8.08-8.08 8.08z" fill="#23130D" p-id="107471"></path><path d="M302.58 53.94m-8.08 0a8.08 8.08 0 1 0 16.16 0 8.08 8.08 0 1 0-16.16 0Z" fill="#F9C139" p-id="107472"></path><path d="M761.26 101.22c-27.48 0-49.84 22.36-49.84 49.84 0 27.5 22.36 49.86 49.84 49.86s49.84-22.36 49.84-49.86c0-27.48-22.36-49.84-49.84-49.84z m0 79.7c-16.46 0-29.84-13.4-29.84-29.86s13.38-29.84 29.84-29.84 29.84 13.38 29.84 29.84-13.38 29.86-29.84 29.86z" fill="#23130D" p-id="107473"></path><path d="M791.1 151.06c0 16.46-13.38 29.86-29.84 29.86s-29.84-13.4-29.84-29.86 13.38-29.84 29.84-29.84 29.84 13.38 29.84 29.84z" fill="#F9C139" p-id="107474"></path><path d="M458.62 889.64l46.66 46.66h-11.66c-2.08 0-4.02 0.64-5.62 1.74l-34.62-34.62c1.18-4.84 2.94-9.46 5.24-13.78zM540.14 971.16a59.262 59.262 0 0 1-13.78 5.24l-7.14-7.14a9.92 9.92 0 0 0 2.78-6.92v-6.78c0.66-0.16 1.3-0.36 1.94-0.58h0.02l16.18 16.18zM485.4 894.42c-1.14 2.8-1.78 5.88-1.78 9.1 0 1.4 0.12 2.78 0.36 4.1l-22.62-22.62c1.88-2.92 4.02-5.68 6.4-8.22l17.64 17.64zM520.36 932.04c0 2.36-1.9 4.26-4.26 4.26h-3.44l-8.88-8.88c1.32 0.24 2.7 0.36 4.1 0.36h8.22c2.36 0 4.26 1.92 4.26 4.26zM553 962.02a59.208 59.208 0 0 1-8.22 6.4l-15.84-15.84c2.96-1.84 5.5-4.3 7.4-7.22l16.66 16.66zM491.52 861.02l10.62 10.62c-0.1 0.52-0.14 1.06-0.14 1.6V880c-3.9 0.98-7.42 2.88-10.3 5.5l-15.94-15.94c4.76-3.6 10.06-6.5 15.76-8.54zM568.78 938.28a60.36 60.36 0 0 1-8.54 15.76l-19.98-19.98c0.08-0.66 0.1-1.34 0.1-2.02 0-13.38-10.88-24.26-24.26-24.26h-2.12l-8.04-8.04c0.58-0.3 1.24-0.48 1.94-0.48h21.88l39.02 39.02z" fill="#FFFFFF" opacity=".4" p-id="107475"></path><path d="M276.02 177.78a29.36 29.36 0 0 1-8.7 2.8l-34.1-34.1c0.48-3.08 1.44-6 2.8-8.7l40 40zM283.78 172.22c-1.48 1.48-3.12 2.8-4.9 3.94l-41.24-41.24c1.14-1.78 2.46-3.42 3.94-4.9l42.2 42.2zM292.06 156.58a29.06 29.06 0 0 1-4.18 10.54l-41.2-41.2a29.06 29.06 0 0 1 10.54-4.18l34.84 34.84z" fill="#FFFFFF" opacity=".4" p-id="107476"></path><path d="M461.34 177.78a29.36 29.36 0 0 1-8.7 2.8l-34.1-34.1c0.48-3.08 1.44-6 2.8-8.7l40 40zM469.1 172.22c-1.48 1.48-3.12 2.8-4.9 3.94l-41.24-41.24c1.14-1.78 2.46-3.42 3.94-4.9l42.2 42.2zM477.38 156.58a29.06 29.06 0 0 1-4.18 10.54L432 125.92a29.06 29.06 0 0 1 10.54-4.18l34.84 34.84z" fill="#FFFFFF" opacity=".4" p-id="107477"></path><path d="M614.56 120.41a29.36 29.36 0 0 1-8.7 2.8l-34.1-34.1c0.48-3.08 1.44-6 2.8-8.7l40 40zM622.32 114.85c-1.48 1.48-3.12 2.8-4.9 3.94l-41.24-41.24c1.14-1.78 2.46-3.42 3.94-4.9l42.2 42.2zM630.6 99.21a29.06 29.06 0 0 1-4.18 10.54l-41.2-41.2a29.06 29.06 0 0 1 10.54-4.18l34.84 34.84z" fill="#FFFFFF" opacity=".4" p-id="107478"></path><path d="M774.64 177.69a29.36 29.36 0 0 1-8.7 2.8l-34.1-34.1c0.48-3.08 1.44-6 2.8-8.7l40 40zM782.4 172.13c-1.48 1.48-3.12 2.8-4.9 3.94l-41.24-41.24c1.14-1.78 2.46-3.42 3.94-4.9l42.2 42.2zM790.68 156.49a29.06 29.06 0 0 1-4.18 10.54l-41.2-41.2a29.06 29.06 0 0 1 10.54-4.18l34.84 34.84z" fill="#FFFFFF" opacity=".4" p-id="107479"></path></svg>