<?xml version="1.0" standalone="no"?><!DOCTYPE svg PUBLIC "-//W3C//DTD SVG 1.1//EN" "http://www.w3.org/Graphics/SVG/1.1/DTD/svg11.dtd"><svg t="1625811774018" class="icon" viewBox="0 0 1024 1024" version="1.1" xmlns="http://www.w3.org/2000/svg" p-id="37459" xmlns:xlink="http://www.w3.org/1999/xlink" width="200" height="200"><defs><style type="text/css"></style></defs><path d="M703.14 80.02H223.76c-5.52 0-10 4.48-10 10v264.02c0 5.52 4.48 10 10 10h479.38c5.54 0 10-4.48 10-10V90.02c0-5.52-4.46-10-10-10z m-415.4 264.02c5.22-92.42 82.02-166 175.72-166 93.68 0 170.5 73.58 175.7 166H287.74z m405.4 0H659.2c-5.22-103.44-91.02-186-195.74-186-104.72 0-190.52 82.56-195.74 186h-33.96V100.02h459.38v244.02z" fill="#23130D" p-id="37460"></path><path d="M473.46 202.66v25.38c0 5.52-4.48 10-10 10s-10-4.48-10-10v-25.38c0-5.52 4.48-10 10-10s10 4.48 10 10zM423.78 245.02c-1.12 0.42-2.28 0.62-3.42 0.62-4.08 0-7.92-2.54-9.4-6.6l-8.68-23.82c-1.88-5.2 0.8-10.94 5.98-12.82 5.2-1.9 10.94 0.78 12.82 5.98l8.68 23.82c1.88 5.2-0.78 10.94-5.98 12.82zM388.9 265.16c-1.88 1.58-4.16 2.34-6.44 2.34-2.84 0-5.68-1.2-7.66-3.56l-16.3-19.44a9.994 9.994 0 1 1 15.32-12.84l16.3 19.42a9.99 9.99 0 0 1-1.22 14.08zM363 296.04c-1.86 3.2-5.22 5-8.68 5-1.7 0-3.42-0.44-4.98-1.34l-21.98-12.7a10 10 0 1 1 10-17.32l21.98 12.7a10 10 0 0 1 3.66 13.66zM599.54 287.02l-21.96 12.68c-1.58 0.9-3.3 1.34-5 1.34-3.44 0-6.8-1.8-8.66-5a10.004 10.004 0 0 1 3.66-13.66l21.96-12.68c4.78-2.78 10.9-1.12 13.66 3.66s1.14 10.9-3.66 13.66zM568.42 244.5l-16.3 19.44a10 10 0 1 1-15.32-12.86l16.3-19.42a9.972 9.972 0 0 1 14.08-1.24 9.992 9.992 0 0 1 1.24 14.08zM524.62 215.22l-8.66 23.84a10.012 10.012 0 0 1-9.4 6.58c-1.14 0-2.3-0.2-3.42-0.62a9.982 9.982 0 0 1-5.98-12.8l8.66-23.84c1.9-5.2 7.64-7.86 12.82-5.98a9.98 9.98 0 0 1 5.98 12.82zM327.9 135.34c0 5.52-4.48 10-10 10h-46.22c-5.52 0-10-4.48-10-10s4.48-10 10-10h46.22c5.52 0 10 4.48 10 10zM665.24 135.34c0 5.52-4.48 10-10 10h-46.22c-5.54 0-10-4.48-10-10s4.46-10 10-10h46.22c5.52 0 10 4.48 10 10z" fill="#23130D" p-id="37461"></path><path d="M779.58 168.3h-27.3V52c0-5.52-4.48-10-10-10H184.64c-5.52 0-10 4.48-10 10v340.06c0 5.52 4.48 10 10 10h71.26v467.8H184.64c-5.52 0-10 4.48-10 10V972c0 5.52 4.48 10 10 10h557.64c5.52 0 10-4.48 10-10v-92.14c0-5.52-4.48-10-10-10h-71.26v-467.8h22.12v303.86c0 43.08 35.04 78.12 78.1 78.12 43.08 0 78.12-35.04 78.12-78.12V238.08c0-38.48-31.3-69.78-69.78-69.78z m-47.3 721.56V962H194.64v-72.14h537.64zM560.76 522c-5.52 0-10 4.48-10 10v337.86h-77.3V458c0-5.52-4.48-10-10-10s-10 4.48-10 10v411.86h-77.3V532c0-5.52-4.48-10-10-10s-10 4.48-10 10v337.86h-80.26v-467.8h375.12v467.8h-80.26V532c0-5.52-4.48-10-10-10z m100.3-139.94H265.9 194.64V62h537.64v320.06h-71.22z m168.3 323.86c0 32.04-26.08 58.12-58.12 58.12-32.02 0-58.1-26.08-58.1-58.12V402.06h29.14c5.52 0 10-4.48 10-10V188.3h27.3c27.44 0 49.78 22.32 49.78 49.78v467.84z" fill="#23130D" p-id="37462"></path><path d="M194.64 62v320.06h537.64V62H194.64z m518.5 292.04c0 5.52-4.46 10-10 10H223.76c-5.52 0-10-4.48-10-10V90.02c0-5.52 4.48-10 10-10h479.38c5.54 0 10 4.48 10 10v264.02z" fill="#636368" p-id="37463"></path><path d="M233.76 100.02v244.02h33.96c5.22-103.44 91.02-186 195.74-186 104.72 0 190.52 82.56 195.74 186h33.94V100.02H233.76z m84.14 45.32h-46.22c-5.52 0-10-4.48-10-10s4.48-10 10-10h46.22c5.52 0 10 4.48 10 10s-4.48 10-10 10z m337.34 0h-46.22c-5.54 0-10-4.48-10-10s4.46-10 10-10h46.22c5.52 0 10 4.48 10 10s-4.48 10-10 10z" fill="#E1E1E5" p-id="37464"></path><path d="M667.72 336.68c-5.44-107.94-94.98-194.1-204.26-194.1-109.28 0-198.82 86.16-204.26 194.1h-25.44v7.36h33.96c5.22-103.44 91.02-186 195.74-186 104.72 0 190.52 82.56 195.74 186h33.94v-7.36h-25.42z" fill="#23130D" opacity=".2" p-id="37465"></path><path d="M194.64 889.86h537.64V962H194.64z" fill="#636368" p-id="37466"></path><path d="M194.64 889.86h537.64v14.474H194.64z" fill="#FFFFFF" opacity=".4" p-id="37467"></path><path d="M194.64 947.526h537.64V962H194.64z" fill="#23130D" opacity=".2" p-id="37468"></path><path d="M463.46 178.04c-8.42 0-16.72 0.6-24.82 1.76a173.758 173.758 0 0 0-50.08 14.98 174.004 174.004 0 0 0-25.78 15c-7.62 5.3-14.8 11.22-21.46 17.66-3.36 3.24-6.6 6.62-9.68 10.12a176.482 176.482 0 0 0-21.24 29.68 174.952 174.952 0 0 0-22.66 76.8h351.42c-5.2-92.42-82.02-166-175.7-166z m-136.1 108.96a9.984 9.984 0 0 1-4.96-7.76 10.004 10.004 0 0 1 14.96-9.56l21.98 12.7a10 10 0 1 1-10 17.32l-15.34-8.86-6.64-3.84z m47.44-23.06l-15.64-18.66-0.66-0.78a9.994 9.994 0 1 1 15.32-12.84l16.3 19.42a9.99 9.99 0 0 1-7.66 16.42c-0.38 0-0.78-0.02-1.16-0.08-2.44-0.28-4.8-1.44-6.5-3.48z m162-12.86l16.3-19.42a9.972 9.972 0 0 1 14.08-1.24 9.992 9.992 0 0 1 1.24 14.08l-16.3 19.44a10 10 0 1 1-15.32-12.86z m-73.34-58.42c5.52 0 10 4.48 10 10v25.38c0 5.52-4.48 10-10 10s-10-4.48-10-10v-25.38c0-2.26 0.74-4.34 2.04-6 1.8-2.44 4.7-4 7.96-4z m-39.68 52.36c-1.12 0.42-2.28 0.62-3.42 0.62-4.08 0-7.92-2.54-9.4-6.6l-8.68-23.82a9.88 9.88 0 0 1-0.02-6.74 9.974 9.974 0 0 1 6-6.08c5.2-1.9 10.94 0.78 12.82 5.98l8.68 23.82c0.52 1.44 0.7 2.92 0.56 4.34-0.36 3.74-2.78 7.12-6.54 8.48z m79.36 0a9.928 9.928 0 0 1-6.28-7c-0.48-1.86-0.4-3.88 0.3-5.8l8.66-23.84c1.9-5.2 7.64-7.86 12.82-5.98a9.98 9.98 0 0 1 5.98 12.82l-8.66 23.84a10.012 10.012 0 0 1-9.4 6.58c-0.78 0-1.58-0.1-2.38-0.3-0.34-0.08-0.7-0.2-1.04-0.32z m96.4 42l-21.96 12.68c-1.58 0.9-3.3 1.34-5 1.34-3.44 0-6.8-1.8-8.66-5a10.004 10.004 0 0 1 3.66-13.66l21.96-12.68c4.78-2.78 10.9-1.12 13.66 3.66s1.14 10.9-3.66 13.66z" fill="#F9C139" p-id="37469"></path><path d="M651.02 402.06v467.8h-80.26V532c0-5.52-4.48-10-10-10s-10 4.48-10 10v337.86h-77.3V458c0-5.52-4.48-10-10-10s-10 4.48-10 10v411.86h-77.3V532c0-5.52-4.48-10-10-10s-10 4.48-10 10v337.86h-80.26v-467.8h375.12z" fill="#3594BF" p-id="37470"></path><path d="M275.9 402.06h23.766v467.8H275.9z" fill="#FFFFFF" opacity=".4" p-id="37471"></path><path d="M627.276 402.06h23.766v467.8h-23.766z" fill="#23130D" opacity=".2" p-id="37472"></path><path d="M438.12 344.04H387.2l-53.2-53.2 15.34 8.86c1.56 0.9 3.28 1.34 4.98 1.34a10 10 0 0 0 5.02-18.66l-21.98-12.7a10.004 10.004 0 0 0-14.96 9.56l-12-12a176.482 176.482 0 0 1 21.24-29.68l106.48 106.48zM497.04 344.04h-39.12l-76.62-76.62c0.38 0.06 0.78 0.08 1.16 0.08a9.99 9.99 0 0 0 7.66-16.42l-16.3-19.42a9.994 9.994 0 1 0-15.32 12.84l0.66 0.78-17.84-17.84c6.66-6.44 13.84-12.36 21.46-17.66l134.26 134.26zM602.86 344.04h-65.04l-107.5-107.5c0.14-1.42-0.04-2.9-0.56-4.34l-8.68-23.82a9.98 9.98 0 0 0-12.82-5.98 9.974 9.974 0 0 0-6 6.08l-13.7-13.7a173.758 173.758 0 0 1 50.08-14.98l16.86 16.86c-1.3 1.66-2.04 3.74-2.04 6v25.38c0 5.52 4.48 10 10 10s10-4.48 10-10v-13.42l23.4 23.4a9.928 9.928 0 0 0 6.28 7c0.34 0.12 0.7 0.24 1.04 0.32l98.68 98.7z" fill="#FFFFFF" opacity=".4" p-id="37473"></path></svg>