<?xml version="1.0" standalone="no"?><!DOCTYPE svg PUBLIC "-//W3C//DTD SVG 1.1//EN" "http://www.w3.org/Graphics/SVG/1.1/DTD/svg11.dtd"><svg t="1625811870683" class="icon" viewBox="0 0 1024 1024" version="1.1" xmlns="http://www.w3.org/2000/svg" p-id="41780" xmlns:xlink="http://www.w3.org/1999/xlink" width="200" height="200"><defs><style type="text/css"></style></defs><path d="M703.84 320.16c-51.24-51.26-119.38-79.48-191.84-79.48-72.48 0-140.6 28.22-191.84 79.48-51.26 51.22-79.48 119.34-79.48 191.84s28.22 140.62 79.48 191.84c51.24 51.26 119.38 79.48 191.84 79.48 72.44 0 140.56-28.22 191.84-79.48 51.24-51.22 79.48-119.34 79.48-191.84s-28.24-140.62-79.48-191.84z m-369.54 14.14c28.84-28.86 63.48-49.8 101.28-61.82-14.38 12.92-27.64 29.58-39.32 49.74-28.08 48.46-44.12 111.98-45.56 179.78h-89.8c2.46-63.4 28.3-122.62 73.4-167.7z m0 355.4c-45.1-45.08-70.94-104.3-73.4-167.7h89.8c1.44 67.78 17.48 131.3 45.56 179.78 11.68 20.16 24.94 36.84 39.32 49.74-37.8-12.02-72.44-32.96-101.28-61.82zM502 762.66c-33.04-4.16-64.14-28.98-88.44-70.9-26.36-45.5-41.44-105.46-42.86-169.76H502v240.66zM502 502h-131.3c1.42-64.3 16.5-124.26 42.86-169.76 24.3-41.94 55.4-66.74 88.44-70.92V502z m187.7-167.7c45.1 45.08 70.94 104.3 73.4 167.7h-89.82c-1.44-67.8-17.46-131.32-45.56-179.78-11.68-20.16-24.92-36.82-39.3-49.74 37.8 12.02 72.42 32.96 101.28 61.82zM522 261.32c33.04 4.18 64.12 29 88.42 70.92 26.38 45.5 41.44 105.46 42.86 169.76H522V261.32z m0 501.34V522h131.28c-1.42 64.3-16.48 124.26-42.86 169.76-24.3 41.92-55.38 66.72-88.42 70.9z m167.7-72.96c-28.86 28.84-63.5 49.8-101.28 61.82 14.38-12.92 27.62-29.58 39.3-49.74 28.1-48.48 44.12-112 45.56-179.78h89.82c-2.46 63.4-28.3 122.62-73.4 167.7z" fill="#23130D" p-id="41781"></path><path d="M763.1 502h-89.82c-1.44-67.8-17.46-131.32-45.56-179.78-11.68-20.16-24.92-36.82-39.3-49.74 37.8 12.02 72.42 32.96 101.28 61.82 45.1 45.08 70.94 104.3 73.4 167.7zM763.1 522c-2.46 63.4-28.3 122.62-73.4 167.7-28.86 28.84-63.5 49.8-101.28 61.82 14.38-12.92 27.62-29.58 39.3-49.74 28.1-48.48 44.12-112 45.56-179.78h89.82z" fill="#3594BF" p-id="41782"></path><path d="M653.28 522c-1.42 64.3-16.48 124.26-42.86 169.76-24.3 41.92-55.38 66.72-88.42 70.9V522h131.28zM653.28 502H522V261.32c33.04 4.18 64.12 29 88.42 70.92 26.38 45.5 41.44 105.46 42.86 169.76zM502 261.32V502h-131.3c1.42-64.3 16.5-124.26 42.86-169.76 24.3-41.94 55.4-66.74 88.44-70.92zM502 522v240.66c-33.04-4.16-64.14-28.98-88.44-70.9-26.36-45.5-41.44-105.46-42.86-169.76H502z" fill="#3594BF" p-id="41783"></path><path d="M435.58 751.52c-37.8-12.02-72.44-32.96-101.28-61.82-45.1-45.08-70.94-104.3-73.4-167.7h89.8c1.44 67.78 17.48 131.3 45.56 179.78 11.68 20.16 24.94 36.84 39.32 49.74zM435.58 272.48c-14.38 12.92-27.64 29.58-39.32 49.74-28.08 48.46-44.12 111.98-45.56 179.78h-89.8c2.46-63.4 28.3-122.62 73.4-167.7 28.84-28.86 63.48-49.8 101.28-61.82z" fill="#3594BF" p-id="41784"></path><path d="M502 261.32v5.94c-24.72 10.3-47.62 32.5-66.44 64.98-26.36 45.5-41.44 105.46-42.86 169.76h-22c1.42-64.3 16.5-124.26 42.86-169.76 24.3-41.94 55.4-66.74 88.44-70.92zM502 756.72v5.94c-33.04-4.16-64.14-28.98-88.44-70.9-26.36-45.5-41.44-105.46-42.86-169.76h22c1.42 64.3 16.5 124.26 42.86 169.76 18.82 32.46 41.72 54.68 66.44 64.96zM435.58 751.52c-37.8-12.02-72.44-32.96-101.28-61.82-45.1-45.08-70.94-104.3-73.4-167.7h22.66c2.46 63.4 28.3 122.62 73.4 167.7 18.88 18.88 40.24 34.38 63.34 46.2 4.94 5.7 10.04 10.92 15.28 15.62zM435.58 272.48c-5.24 4.7-10.32 9.92-15.24 15.6-23.12 11.82-44.5 27.32-63.38 46.22-45.1 45.08-70.94 104.3-73.4 167.7h-22.66c2.46-63.4 28.3-122.62 73.4-167.7 28.84-28.86 63.48-49.8 101.28-61.82z" fill="#FFFFFF" opacity=".4" p-id="41785"></path><path d="M522 261.32v5.94c24.72 10.3 47.62 32.5 66.44 64.98 26.36 45.5 41.44 105.46 42.86 169.76h22c-1.42-64.3-16.5-124.26-42.86-169.76-24.3-41.94-55.4-66.74-88.44-70.92zM522 756.72v5.94c33.04-4.16 64.14-28.98 88.44-70.9 26.36-45.5 41.44-105.46 42.86-169.76h-22c-1.42 64.3-16.5 124.26-42.86 169.76-18.82 32.46-41.72 54.68-66.44 64.96zM588.42 751.52c37.8-12.02 72.44-32.96 101.28-61.82 45.1-45.08 70.94-104.3 73.4-167.7h-22.66c-2.46 63.4-28.3 122.62-73.4 167.7-18.88 18.88-40.24 34.38-63.34 46.2-4.94 5.7-10.04 10.92-15.28 15.62zM588.42 272.48c5.24 4.7 10.32 9.92 15.24 15.6 23.12 11.82 44.5 27.32 63.38 46.22 45.1 45.08 70.94 104.3 73.4 167.7h22.66c-2.46-63.4-28.3-122.62-73.4-167.7-28.84-28.86-63.48-49.8-101.28-61.82z" opacity=".4" p-id="41786"></path><path d="M462.16 102.87l37.718-37.718v139.496a10 10 0 0 0 20 0V65.152l37.718 37.718c1.952 1.952 4.512 2.928 7.07 2.928s5.12-0.976 7.07-2.928a10 10 0 0 0 0-14.142L516.946 33.94l-0.032-0.026a10.096 10.096 0 0 0-1.494-1.22c-0.246-0.164-0.512-0.276-0.768-0.416-0.316-0.174-0.62-0.364-0.956-0.502-0.322-0.134-0.658-0.21-0.99-0.308-0.294-0.088-0.574-0.2-0.878-0.26a10.024 10.024 0 0 0-1.858-0.188c-0.034 0-0.064-0.01-0.098-0.01s-0.064 0.01-0.098 0.01a10.024 10.024 0 0 0-1.858 0.188c-0.304 0.06-0.586 0.174-0.878 0.26-0.332 0.098-0.668 0.174-0.99 0.308-0.334 0.138-0.636 0.328-0.95 0.5-0.258 0.14-0.526 0.254-0.772 0.42-0.52 0.348-1.002 0.746-1.446 1.182-0.024 0.024-0.054 0.04-0.078 0.064l-54.79 54.788a10 10 0 0 0 0 14.142 10.01 10.01 0 0 0 14.148-0.002zM168.706 175.714c-0.166 0.304-0.35 0.596-0.482 0.918-0.14 0.338-0.22 0.69-0.322 1.038-0.082 0.278-0.188 0.542-0.246 0.83a10.122 10.122 0 0 0-0.198 1.962v77.484a10 10 0 0 0 20 0V204.6l98.638 98.638c1.954 1.952 4.512 2.928 7.072 2.928s5.118-0.976 7.072-2.928a10 10 0 0 0 0-14.142L201.6 190.458h53.342a10 10 0 0 0 0-20H177.458c-0.034 0-0.064 0.01-0.098 0.01a10.024 10.024 0 0 0-1.858 0.188c-0.304 0.06-0.586 0.174-0.878 0.26-0.332 0.098-0.668 0.174-0.99 0.308-0.334 0.138-0.636 0.328-0.95 0.5-0.258 0.14-0.526 0.254-0.772 0.42-0.52 0.348-1.002 0.746-1.446 1.182-0.024 0.024-0.054 0.04-0.078 0.064-0.026 0.026-0.042 0.056-0.066 0.08a10.074 10.074 0 0 0-1.178 1.442c-0.174 0.254-0.292 0.534-0.438 0.802zM65.15 524.122h139.498a10 10 0 1 0 0-20H65.15l37.718-37.718a10 10 0 1 0-14.142-14.142l-54.79 54.79c-0.026 0.026-0.042 0.056-0.066 0.08a10.074 10.074 0 0 0-1.178 1.442c-0.172 0.258-0.29 0.536-0.436 0.804-0.166 0.304-0.35 0.596-0.482 0.918-0.14 0.338-0.22 0.69-0.322 1.038-0.082 0.278-0.188 0.542-0.246 0.83a10.014 10.014 0 0 0 0 3.918c0.058 0.292 0.168 0.562 0.25 0.844 0.1 0.342 0.18 0.69 0.318 1.022 0.138 0.334 0.328 0.636 0.5 0.952 0.14 0.256 0.254 0.524 0.418 0.77 0.368 0.55 0.784 1.064 1.25 1.528l54.784 54.786a9.968 9.968 0 0 0 7.072 2.93 9.996 9.996 0 0 0 7.072-17.07l-37.72-37.722zM257.944 836.542l-53.344-0.004 98.64-98.642a10 10 0 1 0-14.142-14.14l-98.638 98.64 0.002-53.342a10 10 0 1 0-20 0l-0.002 77.482c0 0.658 0.068 1.314 0.198 1.962 0.058 0.294 0.168 0.564 0.252 0.848 0.1 0.342 0.178 0.686 0.316 1.018 0.14 0.338 0.332 0.644 0.506 0.964 0.138 0.252 0.25 0.514 0.412 0.758 0.734 1.098 1.676 2.04 2.774 2.774 0.234 0.156 0.486 0.262 0.728 0.396 0.326 0.182 0.644 0.378 0.992 0.522 0.322 0.134 0.658 0.208 0.99 0.308 0.292 0.086 0.572 0.2 0.876 0.26 0.64 0.128 1.288 0.194 1.938 0.196l0.018 0.002 77.484 0.004a10.004 10.004 0 0 0 0-20.006zM561.842 921.13l-37.72 37.718v-139.496a10 10 0 1 0-20 0v139.496l-37.716-37.716a10 10 0 0 0-14.142 14.14l54.784 54.786c0.46 0.46 0.966 0.874 1.51 1.24 0.166 0.112 0.354 0.184 0.526 0.286 0.388 0.228 0.772 0.46 1.19 0.636 0.228 0.094 0.472 0.142 0.708 0.22 0.384 0.128 0.76 0.272 1.162 0.352a9.876 9.876 0 0 0 3.956 0c0.414-0.084 0.8-0.23 1.194-0.362 0.224-0.074 0.456-0.118 0.674-0.21 0.442-0.184 0.848-0.428 1.256-0.67 0.15-0.09 0.314-0.152 0.46-0.25a10 10 0 0 0 1.518-1.248l54.78-54.778a9.996 9.996 0 0 0 0-14.14 9.992 9.992 0 0 0-14.14-0.004zM846.542 756.054a10 10 0 0 0-10 10V819.4l-98.644-98.642a9.996 9.996 0 0 0-14.14 0 9.996 9.996 0 0 0 0 14.14l98.644 98.64h-53.346c-5.524 0-10 4.476-10 10s4.476 10 10 10h77.486c0.656 0 1.312-0.068 1.958-0.198 0.3-0.06 0.578-0.172 0.868-0.258 0.334-0.098 0.672-0.176 0.998-0.31 0.346-0.144 0.66-0.338 0.986-0.518 0.244-0.136 0.5-0.242 0.734-0.398a10.076 10.076 0 0 0 2.776-2.776c0.154-0.232 0.26-0.482 0.392-0.724 0.182-0.328 0.38-0.646 0.524-0.996 0.134-0.324 0.21-0.66 0.308-0.994 0.086-0.292 0.198-0.57 0.258-0.872a10.08 10.08 0 0 0 0.198-1.958v-77.484a10 10 0 0 0-10-9.998zM992.226 513.7c0.134-0.326 0.212-0.666 0.312-1.002 0.086-0.288 0.196-0.564 0.256-0.864a10 10 0 0 0 0.196-1.95v-0.008c0-0.656-0.068-1.312-0.198-1.958-0.058-0.294-0.168-0.568-0.252-0.852-0.1-0.34-0.178-0.684-0.314-1.014-0.14-0.336-0.332-0.642-0.506-0.96-0.138-0.254-0.25-0.518-0.412-0.76a9.994 9.994 0 0 0-1.25-1.528l-54.784-54.788a10 10 0 0 0-14.14 14.142l37.716 37.718h-139.496a10 10 0 1 0 0 20h139.498l-37.718 37.722a9.996 9.996 0 0 0 7.07 17.07 9.96 9.96 0 0 0 7.07-2.93l54.79-54.792c0.464-0.464 0.88-0.978 1.246-1.526 0.162-0.242 0.272-0.504 0.41-0.756 0.172-0.318 0.366-0.626 0.506-0.964zM766.056 187.456l53.344 0.002-98.644 98.64a10 10 0 1 0 14.14 14.142l98.644-98.64-0.004 53.342a10 10 0 1 0 20 0l0.004-77.484c0-0.65-0.066-1.3-0.192-1.94-0.038-0.194-0.118-0.374-0.166-0.564-0.114-0.438-0.222-0.878-0.396-1.302-0.098-0.24-0.244-0.456-0.362-0.688-0.176-0.35-0.334-0.706-0.554-1.036a10.046 10.046 0 0 0-1.258-1.542 10.03 10.03 0 0 0-1.54-1.258c-0.354-0.236-0.732-0.406-1.106-0.592-0.21-0.104-0.404-0.236-0.62-0.326-0.418-0.172-0.85-0.278-1.284-0.39-0.198-0.052-0.384-0.134-0.584-0.174a9.896 9.896 0 0 0-1.784-0.176c-0.052 0-0.102-0.016-0.154-0.016l-77.486-0.002a10 10 0 0 0 0.002 20.004zM858.542 545a9.988 9.988 0 0 0-11.198 8.638c-7.552 58.574-30.57 114.414-66.566 161.486a10 10 0 1 0 15.888 12.148c38.13-49.862 62.514-109.02 70.516-171.076a10.004 10.004 0 0 0-8.64-11.196zM718 778.056c-47.04 36.204-102.904 59.402-161.558 67.088a10.004 10.004 0 0 0 1.286 19.918c0.432 0 0.872-0.03 1.31-0.086 62.146-8.144 121.332-32.72 171.16-71.072a10 10 0 1 0-12.198-15.848z" fill="#23130D" p-id="41787"></path><path d="M165.6 473.354a10.002 10.002 0 0 0 11.234-8.592c7.784-58.422 30.95-114.054 66.994-160.88a10 10 0 0 0-15.85-12.198c-38.18 49.604-62.72 108.542-70.968 170.44a9.994 9.994 0 0 0 8.59 11.23zM300.688 243.162a9.96 9.96 0 0 0 6.068-2.058c46.852-35.844 102.458-58.834 160.804-66.486a10 10 0 0 0-2.598-19.83c-61.816 8.104-120.724 32.46-170.356 70.43a10 10 0 0 0 6.082 17.944zM235.288 731.202a10 10 0 0 0 7.936-16.074c-35.996-47.072-59.012-102.912-66.566-161.486a9.99 9.99 0 0 0-11.198-8.638 10 10 0 0 0-8.638 11.198c8.002 62.056 32.386 121.214 70.514 171.076a9.992 9.992 0 0 0 7.952 3.924zM466.272 865.062a10.004 10.004 0 0 0 1.286-19.918c-58.658-7.688-114.524-30.886-161.56-67.088a10 10 0 1 0-12.198 15.848c49.826 38.35 109.01 62.926 171.16 71.072 0.442 0.058 0.878 0.086 1.312 0.086zM782 289.858a10 10 0 0 0-1.824 14.024c36.042 46.824 59.208 102.456 66.99 160.88a10 10 0 1 0 19.824-2.64c-8.246-61.902-32.786-120.838-70.966-170.44a10 10 0 0 0-14.024-1.824zM547.824 163.402a10.002 10.002 0 0 0 8.616 11.216c58.352 7.652 113.956 30.642 160.802 66.486a9.948 9.948 0 0 0 6.068 2.058 9.996 9.996 0 0 0 6.084-17.942c-49.626-37.968-108.534-62.324-170.354-70.43a9.994 9.994 0 0 0-11.216 8.612z" fill="#23130D" p-id="41788"></path></svg>