<?xml version="1.0" standalone="no"?><!DOCTYPE svg PUBLIC "-//W3C//DTD SVG 1.1//EN" "http://www.w3.org/Graphics/SVG/1.1/DTD/svg11.dtd"><svg t="1625811855682" class="icon" viewBox="0 0 1024 1024" version="1.1" xmlns="http://www.w3.org/2000/svg" p-id="41310" xmlns:xlink="http://www.w3.org/1999/xlink" width="200" height="200"><defs><style type="text/css"></style></defs><path d="M968.62 605.54l-157.42-0.02c9.44-30.2 14.22-61.6 14.22-93.52 0-83.72-32.6-162.44-91.8-221.62-58.6-58.58-136.46-91.18-219.08-91.78-1.7-0.04-3.58-0.04-4.88 0h-0.18-0.02c-13.84 0.1-27.78 1.16-41.6 3.1V118.78c0-17.32-14.1-31.42-31.42-31.42H55.38c-17.32 0-31.42 14.1-31.42 31.42v268.26c0 17.32 14.1 31.42 31.42 31.42l157.42 0.02c-9.44 30.22-14.22 61.6-14.22 93.52 0 83.72 32.6 162.42 91.8 221.62 59.24 59.2 137.94 91.8 221.62 91.8 14.7 0 29.5-1.06 44.14-3.12v82.92c0 17.34 14.1 31.44 31.42 31.44h381.06c17.32 0 31.42-14.1 31.42-31.44V636.96c0-17.32-14.1-31.42-31.42-31.42zM55.38 398.46c-6.3 0-11.42-5.12-11.42-11.42V118.78c0-6.3 5.12-11.42 11.42-11.42h381.06c6.3 0 11.42 5.12 11.42 11.42v268.26c0 6.3-5.12 11.42-11.42 11.42h-31.46c-5.52 0-10 4.48-10 10v48.3l-78.82-56.42c-1.68-1.22-3.72-1.88-5.82-1.88H55.38z m276.28 37.56a518.366 518.366 0 0 0-5.38 65.98h-107.52c0.96-28.54 6-56.56 15.06-83.52h73.32l24.52 17.54z m-27.14 283.44c-53.06-53.04-83.26-122.82-85.76-197.46h107.56c1.46 79.04 20 153.12 52.7 209.54 15.04 25.94 32.3 46.88 51.12 62.34-46.98-13.58-90.06-38.86-125.62-74.42zM502 804.84c-39.54-4.22-76.76-33.42-105.66-83.32-30.98-53.44-48.58-123.98-50.02-199.52H502v282.84zM502 502h-155.72c0.34-17.84 1.62-35.52 3.78-52.8l49.1 35.14c1.74 1.24 3.78 1.88 5.82 1.88 1.58 0 3.14-0.36 4.58-1.12a9.952 9.952 0 0 0 5.42-8.88v-57.76h21.46c17.32 0 31.42-14.08 31.42-31.42v-165.12c11.3-1.7 22.7-2.76 34.14-3.14V502z m217.46-197.46c53.08 53.04 83.3 122.82 85.78 197.46h-107.56c-1.44-78.36-19.72-151.98-51.94-208.24-15.16-26.5-32.68-47.88-51.8-63.6 46.98 13.58 90.04 38.88 125.52 74.38zM805.24 522c-0.96 28.54-6 56.56-15.06 83.52h-73.32l-24.52-17.56c3.14-21.48 4.98-43.58 5.38-65.96h107.52zM522 219.12c84.76 9.06 152.82 132.3 155.72 282.88H522V219.12z m34.14 417.84v165.12c-11.3 1.72-22.74 2.76-34.14 3.16V522h155.72c-0.34 17.84-1.62 35.52-3.78 52.8l-49.1-35.14a10.004 10.004 0 0 0-10.4-0.76 9.952 9.952 0 0 0-5.42 8.88v57.74h-21.46c-17.32 0-31.42 14.1-31.42 31.44z m423.9 268.26c0 6.3-5.12 11.44-11.42 11.44H587.56c-6.3 0-11.42-5.14-11.42-11.44V636.96c0-6.3 5.12-11.44 11.42-11.44h31.46c5.52 0 10-4.46 10-10v-48.28l78.82 56.42c1.7 1.22 3.72 1.88 5.82 1.88h254.96c6.3 0 11.42 5.12 11.42 11.42v268.26z" fill="#23130D" p-id="41311"></path><path d="M430.14 793.88c-46.98-13.58-90.06-38.86-125.62-74.42-53.06-53.04-83.26-122.82-85.76-197.46h107.56c1.46 79.04 20 153.12 52.7 209.54 15.04 25.94 32.3 46.88 51.12 62.34zM331.66 436.02a518.366 518.366 0 0 0-5.38 65.98h-107.52c0.96-28.54 6-56.56 15.06-83.52h73.32l24.52 17.54zM502 218.78V502h-155.72c0.34-17.84 1.62-35.52 3.78-52.8l49.1 35.14c1.74 1.24 3.78 1.88 5.82 1.88 1.58 0 3.14-0.36 4.58-1.12a9.952 9.952 0 0 0 5.42-8.88v-57.76h21.46c17.32 0 31.42-14.08 31.42-31.42v-165.12c11.3-1.7 22.7-2.76 34.14-3.14z" fill="#3594BF" p-id="41312"></path><path d="M502 522v282.84c-39.54-4.22-76.76-33.42-105.66-83.32-30.98-53.44-48.58-123.98-50.02-199.52H502z" fill="#3594BF" p-id="41313"></path><path d="M430.14 793.88c-46.98-13.58-90.06-38.86-125.62-74.42-53.06-53.04-83.26-122.82-85.76-197.46h25.5c2.5 74.64 32.7 144.42 85.76 197.46 24.48 24.48 52.54 44.1 82.98 58.36 5.54 5.88 11.26 11.24 17.14 16.06zM259.32 418.48c-9.06 26.96-14.1 54.98-15.06 83.52h-25.5c0.96-28.54 6-56.56 15.06-83.52h25.5zM350.08 449.2l21.02 15.04c-1.18 12.44-1.9 25.06-2.14 37.76h-22.66c0.34-17.84 1.62-35.52 3.78-52.8zM502.02 218.78v1.64c-3.84 0.42-7.66 0.92-11.48 1.5v165.12c0 17.34-14.1 31.42-31.42 31.42h-21.46v57.76c0 3.74-2.08 7.18-5.42 8.88-1.44 0.76-3 1.12-4.58 1.12a10.04 10.04 0 0 1-5.82-1.88l-7.28-5.2c0.28-0.94 0.44-1.92 0.44-2.92v-57.76h21.46c17.32 0 31.42-14.08 31.42-31.42v-165.12c11.3-1.7 22.7-2.76 34.14-3.14zM502.02 799.6v5.24c-39.54-4.22-76.76-33.42-105.66-83.32-30.98-53.44-48.58-123.98-50.02-199.52h22.66c1.44 75.54 19.04 146.08 50.02 199.52 23.3 40.24 52.02 67.02 83 78.08z" fill="#FFFFFF" opacity=".4" p-id="41314"></path><path d="M677.72 522c-0.34 17.84-1.62 35.52-3.78 52.8l-49.1-35.14a10.004 10.004 0 0 0-10.4-0.76 9.952 9.952 0 0 0-5.42 8.88v57.74h-21.46c-17.32 0-31.42 14.1-31.42 31.44v165.12c-11.3 1.72-22.74 2.76-34.14 3.16V522h155.72zM677.72 502H522V219.12c84.76 9.06 152.82 132.3 155.72 282.88z" fill="#3594BF" p-id="41315"></path><path d="M805.24 502h-107.56c-1.44-78.36-19.72-151.98-51.94-208.24-15.16-26.5-32.68-47.88-51.8-63.6 46.98 13.58 90.04 38.88 125.52 74.38 53.08 53.04 83.3 122.82 85.78 197.46zM805.24 522c-0.96 28.54-6 56.56-15.06 83.52h-73.32l-24.52-17.56c3.14-21.48 4.98-43.58 5.38-65.96h107.52z" fill="#3594BF" p-id="41316"></path><path d="M980.04 636.96v268.26c0 6.3-5.12 11.44-11.42 11.44H587.56c-6.3 0-11.42-5.14-11.42-11.44V636.96c0-6.3 5.12-11.44 11.42-11.44h31.46c5.52 0 10-4.46 10-10v-48.28l78.82 56.42c1.7 1.22 3.72 1.88 5.82 1.88h254.96c6.3 0 11.42 5.12 11.42 11.42z" fill="#F9C139" p-id="41317"></path><path d="M447.86 118.78v268.26c0 6.3-5.12 11.42-11.42 11.42h-31.46c-5.52 0-10 4.48-10 10v48.3l-78.82-56.42c-1.68-1.22-3.72-1.88-5.82-1.88H55.38c-6.3 0-11.42-5.12-11.42-11.42V118.78c0-6.3 5.12-11.42 11.42-11.42h381.06c6.3 0 11.42 5.12 11.42 11.42z" fill="#EC7063" p-id="41318"></path><path d="M447.86 118.78v268.26c0 6.3-5.12 11.42-11.42 11.42h-31.46c-5.52 0-10 4.48-10 10v48.3l-78.82-56.42c-1.68-1.22-3.72-1.88-5.82-1.88H55.38c-6.3 0-11.42-5.12-11.42-11.42v-5.6h249.36c2.1 0 4.14 0.66 5.82 1.88l78.82 56.42v-48.3c0-5.52 4.48-10 10-10h31.46c6.3 0 11.42-5.12 11.42-11.42V107.36h5.6c6.3 0 11.42 5.12 11.42 11.42zM576.14 905.22V636.96c0-6.3 5.12-11.42 11.42-11.42h31.46c5.52 0 10-4.48 10-10v-48.3l78.82 56.42c1.68 1.22 3.72 1.88 5.82 1.88h254.96c6.3 0 11.42 5.12 11.42 11.42v5.6H730.68c-2.1 0-4.14-0.66-5.82-1.88l-78.82-56.42v48.3c0 5.52-4.48 10-10 10h-31.46c-6.3 0-11.42 5.12-11.42 11.42v262.66h-5.6c-6.3 0-11.42-5.12-11.42-11.42z" fill="#070707" opacity=".2" p-id="41319"></path><path d="M593.88 229.74c46.98 13.58 90.06 38.86 125.62 74.42 53.06 53.04 83.26 122.82 85.76 197.46h-25.5c-2.5-74.64-32.7-144.42-85.76-197.46-24.48-24.48-52.54-44.1-82.98-58.36a182.954 182.954 0 0 0-17.14-16.06zM764.7 605.14c9.06-26.96 14.1-54.98 15.06-83.52h25.5c-0.96 28.54-6 56.56-15.06 83.52h-25.5zM673.94 574.42l-21.02-15.04c1.18-12.44 1.9-25.06 2.14-37.76h22.66c-0.34 17.84-1.62 35.52-3.78 52.8zM522 804.84v-1.64c3.84-0.42 7.66-0.92 11.48-1.5v-165.12c0-17.34 14.1-31.42 31.42-31.42h21.46V547.4c0-3.74 2.08-7.18 5.42-8.88 1.44-0.76 3-1.12 4.58-1.12 2.04 0 4.08 0.64 5.82 1.88l7.28 5.2c-0.28 0.94-0.44 1.92-0.44 2.92v57.76h-21.46c-17.32 0-31.42 14.08-31.42 31.42v165.12c-11.3 1.7-22.7 2.76-34.14 3.14zM522 224.02v-5.24c39.54 4.22 76.76 33.42 105.66 83.32 30.98 53.44 48.58 123.98 50.02 199.52h-22.66c-1.44-75.54-19.04-146.08-50.02-199.52-23.3-40.24-52.02-67.02-83-78.08z" opacity=".4" p-id="41320"></path></svg>