<?xml version="1.0" standalone="no"?><!DOCTYPE svg PUBLIC "-//W3C//DTD SVG 1.1//EN" "http://www.w3.org/Graphics/SVG/1.1/DTD/svg11.dtd"><svg t="1625811853110" class="icon" viewBox="0 0 1024 1024" version="1.1" xmlns="http://www.w3.org/2000/svg" p-id="41148" xmlns:xlink="http://www.w3.org/1999/xlink" width="200" height="200"><defs><style type="text/css"></style></defs><path d="M705.84 538.64c-48.92-48.92-113.24-76.84-182.02-79.26v-118.54c0-5.52-4.48-10-10-10s-10 4.48-10 10v118.54c-68.64 2.52-132.82 30.42-181.66 79.26-51.26 51.22-79.48 119.36-79.48 191.86 0 72.48 28.22 140.62 79.48 191.84 51.24 51.24 119.38 79.48 191.84 79.48 72.44 0 140.56-28.24 191.84-79.48 51.24-51.22 79.48-119.36 79.48-191.84 0-72.5-28.24-140.64-79.48-191.86z m-369.54 14.16c28.84-28.86 63.48-49.82 101.28-61.82-14.38 12.9-27.64 29.58-39.32 49.72-28.08 48.48-44.12 112-45.56 179.8h-89.8c2.46-63.4 28.3-122.64 73.4-167.7z m0 355.4c-45.1-45.08-70.94-104.32-73.4-167.7h89.8c1.44 67.78 17.48 131.3 45.56 179.78 11.68 20.16 24.94 36.82 39.32 49.74-37.8-12.02-72.44-32.98-101.28-61.82zM504 981.16c-33.04-4.18-64.12-28.98-88.44-70.92-26.36-45.5-41.44-105.46-42.86-169.74H504v240.66z m0-260.66h-131.3c1.42-64.3 16.5-124.26 42.86-169.76 24.32-41.94 55.4-66.74 88.44-70.92v240.68z m187.7-167.7c45.1 45.08 70.94 104.3 73.4 167.7h-89.8c-1.44-67.8-17.48-131.32-45.56-179.8-11.7-20.14-24.94-36.82-39.32-49.72 37.8 12 72.42 32.96 101.28 61.82zM524 479.82c33.04 4.18 64.12 28.98 88.42 70.92 26.38 45.5 41.46 105.46 42.88 169.76H524V479.82z m0 501.34V740.5h131.3c-1.42 64.28-16.5 124.24-42.88 169.74-24.3 41.94-55.38 66.74-88.42 70.92z m167.7-72.96c-28.86 28.84-63.5 49.8-101.28 61.82 14.38-12.92 27.62-29.58 39.32-49.74 28.08-48.48 44.12-112 45.56-179.78h89.8c-2.46 63.38-28.3 122.62-73.4 167.7z" fill="#23130D" p-id="41149"></path><path d="M765.1 740.5c-2.46 63.38-28.3 122.62-73.4 167.7-28.86 28.84-63.5 49.8-101.28 61.82 14.38-12.92 27.62-29.58 39.32-49.74 28.08-48.48 44.12-112 45.56-179.78h89.8zM765.1 720.5h-89.8c-1.44-67.8-17.48-131.32-45.56-179.8-11.7-20.14-24.94-36.82-39.32-49.72 37.8 12 72.42 32.96 101.28 61.82 45.1 45.08 70.94 104.3 73.4 167.7z" fill="#3594BF" p-id="41150"></path><path d="M655.3 720.5H524V479.82c33.04 4.18 64.12 28.98 88.42 70.92 26.38 45.5 41.46 105.46 42.88 169.76zM655.3 740.5c-1.42 64.28-16.5 124.24-42.88 169.74-24.3 41.94-55.38 66.74-88.42 70.92V740.5h131.3zM504 740.5v240.66c-33.04-4.18-64.12-28.98-88.44-70.92-26.36-45.5-41.44-105.46-42.86-169.74H504z" fill="#3594BF" p-id="41151"></path><path d="M437.58 970.02c-37.8-12.02-72.44-32.98-101.28-61.82-45.1-45.08-70.94-104.32-73.4-167.7h89.8c1.44 67.78 17.48 131.3 45.56 179.78 11.68 20.16 24.94 36.82 39.32 49.74zM437.58 490.98c-14.38 12.9-27.64 29.58-39.32 49.72-28.08 48.48-44.12 112-45.56 179.8h-89.8c2.46-63.4 28.3-122.64 73.4-167.7 28.84-28.86 63.48-49.82 101.28-61.82z" fill="#3594BF" p-id="41152"></path><path d="M504 479.82v240.68h-131.3c1.42-64.3 16.5-124.26 42.86-169.76 24.32-41.94 55.4-66.74 88.44-70.92z" fill="#3594BF" p-id="41153"></path><path d="M437.58 970.02c-37.8-12.02-72.44-32.98-101.28-61.82-45.1-45.08-70.94-104.32-73.4-167.7h23c2.46 63.38 28.3 122.62 73.4 167.7 18.72 18.72 39.88 34.12 62.76 45.9a175.2 175.2 0 0 0 15.52 15.92zM437.58 490.98c-5.32 4.8-10.52 10.1-15.52 15.9-22.88 11.78-44.04 27.18-62.76 45.92-45.1 45.06-70.94 104.3-73.4 167.7h-23c2.46-63.4 28.3-122.64 73.4-167.7 28.84-28.86 63.48-49.82 101.28-61.82zM504 973.9v7.26c-33.04-4.18-64.12-28.98-88.44-70.92-26.36-45.5-41.44-105.46-42.86-169.74h25c1.42 64.28 16.5 124.24 42.86 169.74 18.08 31.16 39.88 52.86 63.44 63.66zM504 479.82v7.26c-23.56 10.8-45.36 32.5-63.44 63.66-26.36 45.5-41.44 105.46-42.86 169.76h-25c1.42-64.3 16.5-124.26 42.86-169.76 24.32-41.94 55.4-66.74 88.44-70.92z" fill="#FFFFFF" opacity=".4" p-id="41154"></path><path d="M590.42 970.02c37.8-12.02 72.44-32.98 101.28-61.82 45.1-45.08 70.94-104.32 73.4-167.7h-23c-2.46 63.38-28.3 122.62-73.4 167.7-18.72 18.72-39.88 34.12-62.76 45.9a175.2 175.2 0 0 1-15.52 15.92zM590.42 490.98c5.32 4.8 10.52 10.1 15.52 15.9 22.88 11.78 44.04 27.18 62.76 45.92 45.1 45.06 70.94 104.3 73.4 167.7h23c-2.46-63.4-28.3-122.64-73.4-167.7-28.84-28.86-63.48-49.82-101.28-61.82zM524 973.9v7.26c33.04-4.18 64.12-28.98 88.44-70.92 26.36-45.5 41.44-105.46 42.86-169.74h-25c-1.42 64.28-16.5 124.24-42.86 169.74-18.08 31.16-39.88 52.86-63.44 63.66zM524 479.82v7.26c23.56 10.8 45.36 32.5 63.44 63.66 26.36 45.5 41.44 105.46 42.86 169.76h25c-1.42-64.3-16.5-124.26-42.86-169.76-24.32-41.94-55.4-66.74-88.44-70.92z" opacity=".4" p-id="41155"></path><path d="M476.96 426.7c-0.02-0.24-0.06-0.46-0.1-0.68-0.02-0.12 0-0.22-0.02-0.34-13.36-71.04-43.76-120.02-90.34-145.56-74.26-40.74-161.48-6.58-165.14-5.12-0.24 0.1-0.42 0.24-0.64 0.34-0.3 0.14-0.58 0.28-0.86 0.44-0.3 0.2-0.58 0.4-0.86 0.62-0.22 0.18-0.46 0.34-0.68 0.54-0.26 0.24-0.5 0.52-0.74 0.78-0.18 0.22-0.38 0.44-0.54 0.66-0.2 0.28-0.38 0.56-0.54 0.86-0.16 0.26-0.32 0.54-0.46 0.82-0.12 0.28-0.24 0.58-0.34 0.88-0.12 0.3-0.22 0.62-0.3 0.94-0.08 0.3-0.12 0.6-0.18 0.92-0.04 0.32-0.1 0.66-0.1 1-0.02 0.32 0 0.64 0.02 0.98 0 0.24-0.02 0.48 0 0.72 0.48 3.92 12.48 96.82 83.9 142.34 25.1 15.98 54.2 24 87.04 24 25.76 0 53.82-4.94 84.04-14.8 0.06-0.02 0.1-0.06 0.16-0.08 0.16-0.06 0.32-0.1 0.48-0.16 0.06-0.04 0.12-0.06 0.16-0.08 0.36-0.16 0.7-0.32 1.02-0.5a0.42 0.42 0 0 0 0.12-0.08c0.08-0.04 0.18-0.1 0.26-0.16l0.36-0.24c0.24-0.16 0.48-0.34 0.7-0.54 0.1-0.08 0.22-0.16 0.32-0.26s0.2-0.18 0.3-0.28c0.06-0.04 0.1-0.1 0.14-0.14 0.26-0.26 0.5-0.54 0.74-0.82 0.04-0.06 0.06-0.1 0.1-0.16l0.12-0.18c0.1-0.14 0.2-0.26 0.28-0.4 0.08-0.12 0.16-0.22 0.24-0.34 0.04-0.08 0.08-0.18 0.12-0.28 0.1-0.18 0.2-0.38 0.3-0.56 0.1-0.22 0.18-0.46 0.28-0.68 0.08-0.2 0.14-0.38 0.2-0.58 0.06-0.18 0.12-0.36 0.16-0.56 0.06-0.24 0.1-0.48 0.16-0.72 0.02-0.2 0.06-0.4 0.08-0.62 0.04-0.2 0.04-0.4 0.06-0.6v-0.7c0-0.22 0-0.42-0.02-0.62z m-151.26-71.22L442 424.34c-52.92 13.26-97.3 8.82-132.1-13.3-52.14-33.16-69.1-97.66-73.54-120.06 21.78-6.88 86.5-23.04 140.64 6.74 36.14 19.86 61.36 56.62 75.2 109.42l-116.32-68.88a10.012 10.012 0 0 0-13.7 3.52 10.008 10.008 0 0 0 3.52 13.7z" fill="#23130D" p-id="41156"></path><path d="M325.7 355.48L442 424.34c-52.92 13.26-97.3 8.82-132.1-13.3-52.14-33.16-69.1-97.66-73.54-120.06 21.78-6.88 86.5-23.04 140.64 6.74 36.14 19.86 61.36 56.62 75.2 109.42l-116.32-68.88a10.012 10.012 0 0 0-13.7 3.52 10.008 10.008 0 0 0 3.52 13.7z" fill="#72AF5F" p-id="41157"></path><path d="M452.2 407.14l-10.44-6.18c-14.7-36.08-36.36-62.12-64.76-77.74-49.78-27.38-108.52-15.92-134.58-8.56-3.04-9.78-4.94-18.06-6.06-23.68 21.78-6.88 86.5-23.04 140.64 6.74 36.14 19.86 61.36 56.62 75.2 109.42z" fill="#FFFFFF" opacity=".4" p-id="41158"></path><path d="M442 424.374c-52.92 13.26-97.3 8.82-132.1-13.3-52.14-33.16-69.1-97.66-73.54-120.06 1.76-0.56 3.78-1.16 6.06-1.82 9.12 29.14 28.44 71.54 67.48 96.38 27.34 17.38 60.62 23.84 99.3 19.38l32.8 19.42z" opacity=".2" p-id="41159"></path><path d="M808.78 282.84a8.42 8.42 0 0 0-0.18-0.98c-0.08-0.3-0.18-0.6-0.28-0.9-0.12-0.3-0.22-0.62-0.36-0.92-0.14-0.26-0.28-0.52-0.44-0.78-0.18-0.3-0.36-0.6-0.56-0.88-0.16-0.22-0.36-0.44-0.54-0.66-0.24-0.26-0.48-0.52-0.74-0.78-0.22-0.2-0.46-0.36-0.68-0.54-0.28-0.22-0.56-0.42-0.86-0.62-0.28-0.16-0.56-0.3-0.86-0.44-0.22-0.1-0.4-0.24-0.64-0.34-3.66-1.46-90.88-35.62-165.14 5.12-46.58 25.54-76.98 74.52-90.34 145.56-0.02 0.12-0.02 0.24-0.04 0.36-0.02 0.22-0.06 0.46-0.08 0.7-0.02 0.16-0.02 0.34-0.02 0.52 0 0.26-0.02 0.52 0 0.76 0.02 0.22 0.02 0.44 0.06 0.64 0.02 0.18 0.04 0.36 0.08 0.52 0.04 0.26 0.08 0.52 0.16 0.78a6.654 6.654 0 0 0 0.34 1.1c0.1 0.24 0.18 0.48 0.3 0.72 0.1 0.2 0.2 0.4 0.32 0.6 0.04 0.08 0.06 0.16 0.1 0.24 0.06 0.1 0.14 0.2 0.2 0.3 0.12 0.16 0.22 0.32 0.34 0.48 0 0.02 0.02 0.02 0.02 0.02 0.06 0.1 0.12 0.2 0.2 0.3 0.2 0.26 0.42 0.48 0.64 0.72 0.08 0.08 0.16 0.16 0.22 0.24 0.1 0.08 0.18 0.16 0.28 0.24 0.12 0.1 0.24 0.2 0.36 0.32 0.22 0.16 0.42 0.34 0.64 0.48 0.14 0.1 0.28 0.18 0.42 0.28 0.06 0.02 0.12 0.06 0.18 0.1 0.06 0.04 0.12 0.1 0.2 0.14 0.3 0.16 0.62 0.3 0.94 0.44 0.08 0.04 0.14 0.08 0.22 0.12 0.14 0.06 0.3 0.1 0.44 0.14 0.08 0.02 0.14 0.06 0.2 0.1 30.22 9.86 58.28 14.8 84.04 14.8 32.82 0 61.94-8.02 87.04-24.02 71.42-45.5 83.42-138.4 83.9-142.32 0.02-0.22 0-0.44 0-0.64 0.02-0.36 0.04-0.72 0.02-1.08 0-0.32-0.06-0.62-0.1-0.94z m-94.56 128.12c-34.82 22.2-79.24 26.66-132.22 13.38l116.3-68.86a9.984 9.984 0 0 0 3.5-13.7c-2.8-4.76-8.94-6.32-13.7-3.52l-116.3 68.88c13.84-52.8 39.06-89.56 75.2-109.42 54.16-29.8 118.88-13.62 140.66-6.74-4.4 22.36-21.22 86.7-73.44 119.98z" fill="#23130D" p-id="41160"></path><path d="M787.66 290.98c-4.4 22.36-21.22 86.7-73.44 119.98-34.82 22.2-79.24 26.66-132.22 13.38l116.3-68.86a9.984 9.984 0 0 0 3.5-13.7c-2.8-4.76-8.94-6.32-13.7-3.52l-116.3 68.88c13.84-52.8 39.06-89.56 75.2-109.42 54.16-29.8 118.88-13.62 140.66-6.74z" fill="#72AF5F" p-id="41161"></path><path d="M597.82 168.02c-3.72-84.6-78.16-141.44-81.32-143.82-0.18-0.12-0.36-0.2-0.54-0.32-0.3-0.2-0.62-0.4-0.96-0.58-0.26-0.14-0.54-0.24-0.82-0.36-0.32-0.12-0.64-0.24-0.96-0.34-0.3-0.08-0.62-0.14-0.92-0.2-0.32-0.06-0.66-0.12-0.98-0.14-0.3-0.04-0.6-0.02-0.9-0.02-0.34 0-0.68 0-1.04 0.04-0.28 0.04-0.56 0.08-0.84 0.14-0.36 0.08-0.7 0.14-1.04 0.26-0.28 0.08-0.56 0.2-0.82 0.32-0.32 0.12-0.64 0.26-0.94 0.42-0.3 0.16-0.56 0.34-0.84 0.52-0.2 0.14-0.4 0.24-0.6 0.38-3.1 2.46-76.3 60.9-78.14 145.58-1.16 53.1 26.04 103.92 80.88 151.02 0.14 0.12 0.28 0.2 0.42 0.3s0.28 0.22 0.42 0.34c0.12 0.08 0.24 0.14 0.36 0.22 0.3 0.18 0.62 0.34 0.94 0.5 0.16 0.08 0.3 0.18 0.46 0.24 0.08 0.04 0.16 0.06 0.24 0.1 0.4 0.16 0.82 0.28 1.24 0.38 0.16 0.04 0.28 0.1 0.44 0.12 0.02 0.02 0.06 0.02 0.1 0.02 0.62 0.12 1.26 0.2 1.9 0.2h0.1c0.08 0 0.14-0.02 0.2-0.04 0.56 0 1.1-0.06 1.64-0.16 0.16-0.04 0.3-0.08 0.44-0.12l0.22-0.06c0.4-0.12 0.8-0.24 1.18-0.4 0.08-0.02 0.16-0.04 0.24-0.08 0.18-0.08 0.34-0.18 0.52-0.28 0.3-0.16 0.6-0.32 0.9-0.5l0.36-0.24c0.16-0.12 0.3-0.26 0.46-0.38 0.14-0.1 0.28-0.18 0.42-0.3 53.8-48.3 79.9-99.68 77.58-152.76z m-74.52 122.08l-1.48-135.16a9.996 9.996 0 0 0-10-9.9h-0.1a10.004 10.004 0 0 0-9.9 10.1l1.48 135.18c-38.8-38.38-58.02-78.62-57.16-119.86 1.3-61.8 47.68-109.76 64.5-125.16 17.14 14.96 64.48 61.7 67.18 123.6 1.82 41.24-16.52 81.94-54.52 121.2z" fill="#23130D" p-id="41162"></path><path d="M523.3 290.1l-1.48-135.16a9.996 9.996 0 0 0-10-9.9h-0.1a10.004 10.004 0 0 0-9.9 10.1l1.48 135.18c-38.8-38.38-58.02-78.62-57.16-119.86 1.3-61.8 47.68-109.76 64.5-125.16 17.14 14.96 64.48 61.7 67.18 123.6 1.82 41.24-16.52 81.94-54.52 121.2z" fill="#72AF5F" p-id="41163"></path><path d="M502.96 259.22l0.34 31.1c-38.8-38.38-58.02-78.62-57.16-119.86 1.3-61.8 47.68-109.76 64.5-125.16 3.48 3.04 8.2 7.38 13.54 12.9-20.52 22.1-50.5 62.74-51.54 112.26-0.64 30.24 9.54 59.94 30.32 88.76zM526.36 286.86c-0.98 1.08-2.02 2.16-3.06 3.24l-0.08-6.5 3.14 3.26zM529.72 283.26l0.08 7.06c-1.16-1.16-2.32-2.3-3.44-3.46 1.16-1.2 2.26-2.4 3.36-3.6z" fill="#FFFFFF" opacity=".4" p-id="41164"></path><path d="M523.3 290.1l-0.34-31.66c20.18-29.32 29.7-59.28 28.36-89.54-2.16-49.32-32.64-89.02-53.64-110.7 5.1-5.5 9.62-9.84 12.96-12.9 17.14 14.96 64.48 61.7 67.18 123.6 1.82 41.24-16.52 81.94-54.52 121.2z" opacity=".2" p-id="41165"></path><path d="M571.81 407.14l10.44-6.18c14.7-36.08 36.36-62.12 64.76-77.74 49.78-27.38 108.52-15.92 134.58-8.56 3.04-9.78 4.94-18.06 6.06-23.68-21.78-6.88-86.5-23.04-140.64 6.74-36.14 19.86-61.36 56.62-75.2 109.42z" fill="#FFFFFF" opacity=".4" p-id="41166"></path><path d="M582.01 424.374c52.92 13.26 97.3 8.82 132.1-13.3 52.14-33.16 69.1-97.66 73.54-120.06-1.76-0.56-3.78-1.16-6.06-1.82-9.12 29.14-28.44 71.54-67.48 96.38-27.34 17.38-60.62 23.84-99.3 19.38l-32.8 19.42z" opacity=".2" p-id="41167"></path></svg>