<?xml version="1.0" standalone="no"?><!DOCTYPE svg PUBLIC "-//W3C//DTD SVG 1.1//EN" "http://www.w3.org/Graphics/SVG/1.1/DTD/svg11.dtd"><svg t="1625811858451" class="icon" viewBox="0 0 1024 1024" version="1.1" xmlns="http://www.w3.org/2000/svg" p-id="41463" xmlns:xlink="http://www.w3.org/1999/xlink" width="200" height="200"><defs><style type="text/css"></style></defs><path d="M567.2 42.14c-162.34 0-294.42 132.08-294.42 294.42v0.3c0.06 1.92 4.28 191.68-105.96 268.72-0.04 0.02-0.08 0.04-0.1 0.06s-0.04 0.04-0.06 0.04c-0.06 0.06-0.12 0.12-0.18 0.16-0.46 0.34-0.9 0.7-1.3 1.1-0.14 0.16-0.24 0.32-0.38 0.48-0.28 0.34-0.58 0.68-0.82 1.06-0.12 0.18-0.2 0.38-0.3 0.56-0.22 0.38-0.42 0.76-0.58 1.16-0.08 0.2-0.14 0.4-0.2 0.6-0.14 0.42-0.26 0.82-0.34 1.26-0.06 0.26-0.06 0.5-0.08 0.76-0.04 0.36-0.12 0.7-0.12 1.06 0 0.04 0.02 0.08 0.02 0.12 0 0.26 0.06 0.52 0.08 0.8 0.04 0.38 0.06 0.78 0.14 1.16 0 0.02 0 0.04 0.02 0.06 0.12 0.64 0.32 1.24 0.56 1.82l0.04 0.04c0.26 0.6 0.56 1.16 0.92 1.68 0.02 0.02 0.02 0.04 0.04 0.04 0.3 0.44 0.64 0.84 1 1.22 0.1 0.1 0.2 0.18 0.28 0.28 0.42 0.4 0.84 0.76 1.32 1.08 0.48 0.32 1 0.58 1.52 0.82 0.1 0.06 0.22 0.1 0.32 0.14 0.54 0.22 1.08 0.4 1.62 0.52 0.1 0.02 0.2 0.02 0.3 0.04 0.6 0.12 1.22 0.2 1.84 0.2 0.02 0 0.04-0.02 0.06-0.02h126.4v138.06c0 5.52 4.48 10 10 10h123.22v199.92c0 5.52 4.48 10 10 10h409.58c5.52 0 10-4.48 10-10V336.56c0-162.34-132.08-294.42-294.44-294.42z m274.44 919.72H452.06v-199.92c0-5.52-4.48-10-10-10h-123.22v-138.06c0-5.52-4.48-10-10-10h-108.4c38.02-35.9 65.64-89.5 80.5-156.88 12.94-58.62 11.94-106.86 11.84-110.56 0.06-151.26 123.14-274.3 274.42-274.3 151.32 0 274.44 123.12 274.44 274.42v625.3z" fill="#23130D" p-id="41464"></path><path d="M567.2 62.14c-151.28 0-274.36 123.04-274.42 274.3 0.1 3.7 1.1 51.94-11.84 110.56-14.86 67.38-42.48 120.98-80.5 156.88h108.4c5.52 0 10 4.48 10 10v138.06h123.22c5.52 0 10 4.48 10 10v199.92h389.58V336.56c0-151.3-123.12-274.42-274.44-274.42z m155.9 427.66c-41.52 41.5-96.7 64.36-155.38 64.36-58.68 0-113.88-22.86-155.4-64.36-41.52-41.5-64.38-96.68-64.38-155.4s22.86-113.92 64.38-155.4c41.52-41.52 96.7-64.38 155.4-64.38s113.88 22.86 155.4 64.38c41.5 41.48 64.36 96.68 64.36 155.4s-22.86 113.9-64.38 155.4z" fill="#F8D3C9" p-id="41465"></path><path d="M567.2 62.14c-151.28 0-274.36 123.04-274.42 274.3 0.1 3.7 1.1 51.94-11.84 110.56-14.86 67.38-42.48 120.98-80.5 156.88h36.68c38.02-35.9 65.64-89.5 80.5-156.88 12.94-58.62 11.94-106.86 11.84-110.56 0.06-145.1 113.32-264.24 256.08-273.68-6.06-0.42-12.18-0.62-18.34-0.62z m-88.46 689.8h-36.68c5.52 0 10 4.48 10 10v199.92h36.68v-199.92c0-5.52-4.48-10-10-10z m-133.22-148.06h-36.68c5.52 0 10 4.48 10 10v138.06h36.68v-138.06c0-5.52-4.48-10-10-10z" fill="#FFFFFF" opacity=".4" p-id="41466"></path><path d="M567.2 62.14c-6.16 0-12.28 0.2-18.34 0.62 142.8 9.46 256.1 128.66 256.1 273.8v625.3h36.68V336.56c0-151.3-123.12-274.42-274.44-274.42z" opacity=".2" p-id="41467"></path><path d="M723.12 179c-41.52-41.52-96.7-64.38-155.4-64.38s-113.88 22.86-155.4 64.38c-41.52 41.48-64.38 96.68-64.38 155.4s22.86 113.9 64.38 155.4c41.52 41.5 96.72 64.36 155.4 64.36 58.68 0 113.86-22.86 155.38-64.36s64.38-96.68 64.38-155.4-22.86-113.92-64.36-155.4z m-296.66 14.14c20.78-20.78 45.32-36.4 72.1-46.26-9.2 9.46-17.74 20.88-25.44 34.18-22.46 38.74-35.4 89.3-36.82 143.34H368.2c2.42-49.62 22.9-95.92 58.26-131.26z m0 282.5c-35.36-35.34-55.84-81.64-58.26-131.24h68.1c1.42 54.02 14.36 104.6 36.82 143.32 7.7 13.3 16.24 24.74 25.44 34.18-26.76-9.86-51.32-25.48-72.1-46.26z m131.26 57.68c-25.08-4.08-48.66-23.46-67.3-55.62-20.74-35.76-32.72-82.78-34.12-133.3h101.42v188.92z m0-208.92h-101.42c1.4-50.52 13.38-97.54 34.12-133.32 18.64-32.16 42.22-51.54 67.3-55.62v188.94z m151.26-131.26c35.36 35.34 55.84 81.64 58.26 131.26h-68.1c-1.42-54.04-14.36-104.6-36.82-143.34-7.7-13.3-16.24-24.72-25.44-34.18 26.76 9.86 51.32 25.48 72.1 46.26z m-131.26-57.68c25.06 4.08 48.66 23.46 67.3 55.62 20.74 35.78 32.72 82.8 34.12 133.32h-101.42V135.46z m0 397.86V344.4h101.42c-1.4 50.52-13.4 97.54-34.12 133.3-18.64 32.16-42.24 51.54-67.3 55.62z m131.24-57.68c-20.78 20.78-45.32 36.4-72.08 46.26 9.2-9.46 17.74-20.88 25.44-34.18 22.46-38.72 35.38-89.3 36.82-143.32h68.1c-2.42 49.6-22.9 95.9-58.28 131.24z" fill="#23130D" p-id="41468"></path><path d="M767.24 324.4h-68.1c-1.42-54.04-14.36-104.6-36.82-143.34-7.7-13.3-16.24-24.72-25.44-34.18 26.76 9.86 51.32 25.48 72.1 46.26 35.36 35.34 55.84 81.64 58.26 131.26zM767.24 344.4c-2.42 49.6-22.9 95.9-58.28 131.24-20.78 20.78-45.32 36.4-72.08 46.26 9.2-9.46 17.74-20.88 25.44-34.18 22.46-38.72 35.38-89.3 36.82-143.32h68.1zM679.14 324.4h-101.42V135.46c25.06 4.08 48.66 23.46 67.3 55.62 20.74 35.78 32.72 82.8 34.12 133.32zM557.72 135.46v188.94h-101.42c1.4-50.52 13.38-97.54 34.12-133.32 18.64-32.16 42.22-51.54 67.3-55.62zM498.56 146.88c-9.2 9.46-17.74 20.88-25.44 34.18-22.46 38.74-35.4 89.3-36.82 143.34H368.2c2.42-49.62 22.9-95.92 58.26-131.26 20.78-20.78 45.32-36.4 72.1-46.26zM498.56 521.9c-26.76-9.86-51.32-25.48-72.1-46.26-35.36-35.34-55.84-81.64-58.26-131.24h68.1c1.42 54.02 14.36 104.6 36.82 143.32 7.7 13.3 16.24 24.74 25.44 34.18zM557.72 344.4v188.92c-25.08-4.08-48.66-23.46-67.3-55.62-20.74-35.76-32.72-82.78-34.12-133.3h101.42z" fill="#3594BF" p-id="41469"></path><path d="M498.56 146.88c-4.14 4.24-8.14 8.92-12 13.94a200.88 200.88 0 0 0-42.22 32.32c-35.36 35.34-55.84 81.64-58.26 131.26h-17.88c2.42-49.62 22.9-95.92 58.26-131.26 20.78-20.78 45.32-36.4 72.1-46.26zM498.56 521.9c-26.76-9.86-51.32-25.48-72.1-46.26-35.36-35.34-55.84-81.64-58.26-131.24h17.88c2.42 49.6 22.9 95.9 58.26 131.24 12.76 12.76 26.96 23.58 42.2 32.3a156.96 156.96 0 0 0 12.02 13.96zM557.72 135.46v5.66c-18.26 8.62-35.2 25.62-49.3 49.96-20.74 35.78-32.72 82.8-34.12 133.32h-18c1.4-50.52 13.38-97.54 34.12-133.32 18.64-32.16 42.22-51.54 67.3-55.62zM557.72 527.66v5.66c-25.08-4.08-48.66-23.46-67.3-55.62-20.74-35.76-32.72-82.78-34.12-133.3h18c1.4 50.52 13.38 97.54 34.12 133.3 14.1 24.34 31.04 41.34 49.3 49.96z" fill="#FFFFFF" opacity=".4" p-id="41470"></path><path d="M636.88 146.88c4.14 4.24 8.14 8.92 12 13.94a200.88 200.88 0 0 1 42.22 32.32c35.36 35.34 55.84 81.64 58.26 131.26h17.88c-2.42-49.62-22.9-95.92-58.26-131.26-20.78-20.78-45.32-36.4-72.1-46.26zM636.88 521.9c26.76-9.86 51.32-25.48 72.1-46.26 35.36-35.34 55.84-81.64 58.26-131.24h-17.88c-2.42 49.6-22.9 95.9-58.26 131.24a200.51 200.51 0 0 1-42.2 32.3 156.96 156.96 0 0 1-12.02 13.96zM577.72 135.46v5.66c18.26 8.62 35.2 25.62 49.3 49.96 20.74 35.78 32.72 82.8 34.12 133.32h18c-1.4-50.52-13.38-97.54-34.12-133.32-18.64-32.16-42.22-51.54-67.3-55.62zM577.72 527.66v5.66c25.08-4.08 48.66-23.46 67.3-55.62 20.74-35.76 32.72-82.78 34.12-133.3h-18c-1.4 50.52-13.38 97.54-34.12 133.3-14.1 24.34-31.04 41.34-49.3 49.96z" opacity=".4" p-id="41471"></path><path d="M679.14 344.4c-1.4 50.52-13.4 97.54-34.12 133.3-18.64 32.16-42.24 51.54-67.3 55.62V344.4h101.42z" fill="#3594BF" p-id="41472"></path></svg>