<?xml version="1.0" standalone="no"?><!DOCTYPE svg PUBLIC "-//W3C//DTD SVG 1.1//EN" "http://www.w3.org/Graphics/SVG/1.1/DTD/svg11.dtd"><svg t="1625811877372" class="icon" viewBox="0 0 1024 1024" version="1.1" xmlns="http://www.w3.org/2000/svg" p-id="42090" xmlns:xlink="http://www.w3.org/1999/xlink" width="200" height="200"><defs><style type="text/css"></style></defs><path d="M703.84 188.72C652.6 137.48 584.46 109.26 512 109.26s-140.6 28.22-191.84 79.46c-51.26 51.22-79.48 119.34-79.48 191.84s28.22 140.62 79.46 191.86c51.26 51.24 119.4 79.46 191.86 79.46 72.42 0 140.56-28.22 191.84-79.46 51.24-51.24 79.48-119.36 79.48-191.86 0-72.48-28.24-140.62-79.48-191.84z m-369.54 14.14c28.84-28.84 63.48-49.8 101.28-61.82-14.38 12.92-27.64 29.58-39.32 49.74-28.08 48.48-44.12 112-45.56 179.78h-89.8c2.46-63.4 28.28-122.62 73.4-167.7z m-0.02 355.4c-45.1-45.08-70.92-104.3-73.38-167.7h89.8c1.44 67.8 17.48 131.32 45.56 179.78 11.68 20.16 24.94 36.84 39.32 49.76-37.8-12.02-72.44-32.98-101.3-61.84zM502 631.22c-33.04-4.16-64.14-28.98-88.44-70.9-26.36-45.5-41.44-105.46-42.86-169.76H502v240.66z m0-260.66h-131.3c1.42-64.28 16.5-124.26 42.86-169.76 24.3-41.92 55.4-66.74 88.44-70.9v240.66z m187.7-167.7c45.1 45.08 70.94 104.3 73.4 167.7h-89.82c-1.44-67.78-17.46-131.3-45.56-179.78-11.68-20.16-24.92-36.82-39.3-49.74 37.8 12.02 72.42 32.98 101.28 61.82zM522 129.9c33.04 4.18 64.12 28.98 88.42 70.9 26.38 45.5 41.44 105.48 42.86 169.76H522V129.9z m0 501.32V390.56h131.28c-1.42 64.3-16.48 124.26-42.86 169.76-24.3 41.92-55.38 66.74-88.42 70.9z m167.7-72.96c-28.86 28.86-63.5 49.8-101.28 61.82 14.38-12.9 27.62-29.58 39.3-49.74 28.1-48.46 44.12-111.98 45.56-179.78h89.82c-2.46 63.4-28.3 122.62-73.4 167.7z" fill="#23130D" p-id="42091"></path><path d="M763.1 370.56h-89.82c-1.44-67.78-17.46-131.3-45.56-179.78-11.68-20.16-24.92-36.82-39.3-49.74 37.8 12.02 72.42 32.98 101.28 61.82 45.1 45.08 70.94 104.3 73.4 167.7z" fill="#3594BF" p-id="42092"></path><path d="M853.38 812.3c-47.34 0-85.84 38.5-85.84 85.82 0 5.52 4.48 10 10 10s10-4.48 10-10c0-36.3 29.54-65.82 65.84-65.82s65.82 29.52 65.82 65.82-29.52 65.84-65.82 65.84H530.74L790.88 576c0.04-0.02 0.06-0.06 0.08-0.1 40.28-57.42 61.56-124.96 61.56-195.34 0-187.76-152.74-340.52-340.52-340.52-187.76 0-340.54 152.76-340.54 340.52 0 70.38 21.3 137.94 61.56 195.28l0.1 0.16 260.14 387.96H170.62c-36.3 0-65.82-29.54-65.82-65.84s29.52-65.82 65.82-65.82 65.84 29.52 65.84 65.82c0 5.52 4.48 10 10 10s10-4.48 10-10c0-47.32-38.5-85.82-85.84-85.82-47.32 0-85.82 38.5-85.82 85.82 0 47.34 38.5 85.84 85.82 85.84h682.76c47.32 0 85.82-38.5 85.82-85.84 0-47.32-38.5-85.82-85.82-85.82zM512 956L249.9 565.1s-0.02-0.02-0.02-0.04l-0.18-0.26-0.14-0.2c-0.02-0.02-0.02-0.02-0.02-0.04l-0.1-0.14c-37.92-54.02-57.98-117.6-57.98-183.86 0-176.74 143.8-320.52 320.54-320.52s320.52 143.78 320.52 320.52c0 66.14-19.96 129.62-57.74 183.6-0.12 0.14-0.22 0.28-0.32 0.44L512 956z" fill="#23130D" p-id="42093"></path><path d="M512 60.04c-176.74 0-320.54 143.78-320.54 320.52 0 66.26 20.06 129.84 57.98 183.86l0.1 0.14c0 0.02 0 0.02 0.02 0.04l0.14 0.2 0.18 0.26c0 0.02 0.02 0.04 0.02 0.04L512 956l262.46-391.4c0.1-0.16 0.2-0.3 0.32-0.44 37.78-53.98 57.74-117.46 57.74-183.6 0-176.74-143.78-320.52-320.52-320.52z m191.84 512.38c-51.28 51.24-119.42 79.46-191.84 79.46-72.46 0-140.6-28.22-191.86-79.46-51.24-51.24-79.46-119.36-79.46-191.86s28.22-140.62 79.48-191.84C371.4 137.48 439.54 109.26 512 109.26s140.6 28.22 191.84 79.46c51.24 51.22 79.48 119.36 79.48 191.84 0 72.5-28.24 140.62-79.48 191.86z" fill="#EC7063" p-id="42094"></path><path d="M276.394 565.1s-0.02-0.02-0.02-0.04l-0.18-0.26-0.14-0.2c-0.02-0.02-0.02-0.02-0.02-0.04l-0.1-0.14c-37.92-54.02-57.98-117.6-57.98-183.86 0-172.28 136.62-313.24 307.2-320.24-4.42-0.18-8.86-0.28-13.32-0.28-176.74 0-320.54 143.78-320.54 320.52 0 66.26 20.06 129.84 57.98 183.86l0.1 0.14c0 0.02 0 0.02 0.02 0.04l0.14 0.2 0.18 0.26c0 0.02 0.02 0.04 0.02 0.04L511.834 956l13.34-19.88-248.78-371.02z" fill="#FFFFFF" opacity=".4" p-id="42095"></path><path d="M511.994 60.04c-4.46 0-8.92 0.1-13.34 0.28 170.58 7 307.2 147.96 307.2 320.24 0 66.14-19.96 129.62-57.74 183.6-0.12 0.14-0.22 0.28-0.32 0.44l-249.12 371.52 13.32 19.88 262.46-391.4c0.1-0.16 0.2-0.3 0.32-0.44 37.78-53.98 57.74-117.46 57.74-183.6 0-176.74-143.78-320.52-320.52-320.52z" fill="#23130D" opacity=".2" p-id="42096"></path><path d="M763.1 390.56c-2.46 63.4-28.3 122.62-73.4 167.7-28.86 28.86-63.5 49.8-101.28 61.82 14.38-12.9 27.62-29.58 39.3-49.74 28.1-48.46 44.12-111.98 45.56-179.78h89.82zM653.28 370.56H522V129.9c33.04 4.18 64.12 28.98 88.42 70.9 26.38 45.5 41.44 105.48 42.86 169.76z" fill="#3594BF" p-id="42097"></path><path d="M653.28 390.56c-1.42 64.3-16.48 124.26-42.86 169.76-24.3 41.92-55.38 66.74-88.42 70.9V390.56h131.28zM502 390.56v240.66c-33.04-4.16-64.14-28.98-88.44-70.9-26.36-45.5-41.44-105.46-42.86-169.76H502zM502 129.9v240.66h-131.3c1.42-64.28 16.5-124.26 42.86-169.76 24.3-41.92 55.4-66.74 88.44-70.9z" fill="#3594BF" p-id="42098"></path><path d="M435.58 141.04c-14.38 12.92-27.64 29.58-39.32 49.74-28.08 48.48-44.12 112-45.56 179.78h-89.8c2.46-63.4 28.28-122.62 73.4-167.7 28.84-28.84 63.48-49.8 101.28-61.82zM435.58 620.1c-37.8-12.02-72.44-32.98-101.3-61.84-45.1-45.08-70.92-104.3-73.38-167.7h89.8c1.44 67.8 17.48 131.32 45.56 179.78 11.68 20.16 24.94 36.84 39.32 49.76z" fill="#3594BF" p-id="42099"></path><path d="M502 623.74v7.48c-33.04-4.16-64.14-28.98-88.44-70.9-26.36-45.5-41.44-105.46-42.86-169.76h25.5c1.42 64.3 16.5 124.26 42.86 169.76 17.92 30.94 39.56 52.56 62.94 63.42zM502 129.9v7.48c-23.38 10.86-45.02 32.48-62.94 63.42-26.36 45.5-41.44 105.48-42.86 169.76h-25.5c1.42-64.28 16.5-124.26 42.86-169.76 24.3-41.92 55.4-66.74 88.44-70.9zM435.58 141.04c-5.82 5.22-11.44 11.06-16.84 17.48-21.74 11.56-41.88 26.44-59.78 44.34-45.12 45.08-70.94 104.3-73.4 167.7h-24.66c2.46-63.4 28.28-122.62 73.4-167.7 28.84-28.84 63.48-49.8 101.28-61.82zM435.58 620.1c-37.8-12.02-72.44-32.98-101.3-61.84-45.1-45.08-70.92-104.3-73.38-167.7h24.66c2.46 63.4 28.28 122.62 73.38 167.7 17.92 17.92 38.06 32.78 59.8 44.36 5.4 6.42 11.02 12.26 16.84 17.48z" fill="#FFFFFF" opacity=".4" p-id="42100"></path><path d="M522 623.74v7.48c33.04-4.16 64.14-28.98 88.44-70.9 26.36-45.5 41.44-105.46 42.86-169.76H627.8c-1.42 64.3-16.5 124.26-42.86 169.76-17.92 30.94-39.56 52.56-62.94 63.42zM522 129.9v7.48c23.38 10.86 45.02 32.48 62.94 63.42 26.36 45.5 41.44 105.48 42.86 169.76h25.5c-1.42-64.28-16.5-124.26-42.86-169.76-24.3-41.92-55.4-66.74-88.44-70.9zM588.42 141.04c5.82 5.22 11.44 11.06 16.84 17.48 21.74 11.56 41.88 26.44 59.78 44.34 45.12 45.08 70.94 104.3 73.4 167.7h24.66c-2.46-63.4-28.28-122.62-73.4-167.7-28.84-28.84-63.48-49.8-101.28-61.82zM588.42 620.1c37.8-12.02 72.44-32.98 101.3-61.84 45.1-45.08 70.92-104.3 73.38-167.7h-24.66c-2.46 63.4-28.28 122.62-73.38 167.7-17.92 17.92-38.06 32.78-59.8 44.36-5.4 6.42-11.02 12.26-16.84 17.48z" fill="#23130D" opacity=".4" p-id="42101"></path></svg>