<?xml version="1.0" standalone="no"?><!DOCTYPE svg PUBLIC "-//W3C//DTD SVG 1.1//EN" "http://www.w3.org/Graphics/SVG/1.1/DTD/svg11.dtd"><svg t="1625811883577" class="icon" viewBox="0 0 1024 1024" version="1.1" xmlns="http://www.w3.org/2000/svg" p-id="42420" xmlns:xlink="http://www.w3.org/1999/xlink" width="200" height="200"><defs><style type="text/css"></style></defs><path d="M938.14 108.04H89.86c-31.1 0-56.4 25.32-56.4 56.42v621.56c0 31.1 25.3 56.4 56.4 56.4h328.08L391.4 971.2c0 0.04 0 0.08-0.02 0.14-0.12 0.58-0.16 1.16-0.18 1.74 0 0.06-0.02 0.12-0.02 0.18 0 0.02 0.02 0.04 0.02 0.08 0 0.58 0.06 1.16 0.18 1.72l0.06 0.36c0.12 0.52 0.28 1.04 0.48 1.54 0.04 0.14 0.1 0.26 0.16 0.38 0.22 0.48 0.48 0.96 0.78 1.42 0.04 0.08 0.1 0.16 0.16 0.24 0.14 0.2 0.28 0.38 0.42 0.58 0.18 0.22 0.38 0.42 0.58 0.64 0.06 0.04 0.1 0.1 0.14 0.14 0.4 0.4 0.84 0.74 1.28 1.06 0.1 0.06 0.18 0.14 0.28 0.2 0.46 0.3 0.94 0.56 1.44 0.78 0.1 0.04 0.22 0.08 0.34 0.12 0.52 0.22 1.04 0.38 1.6 0.5 0.08 0.02 0.16 0.04 0.24 0.04 0.6 0.12 1.22 0.2 1.84 0.2H626.84c5.52 0 10-4.48 10-10 0-1.02-0.14-2-0.42-2.92l-26.36-127.92h328.08c31.1 0 56.4-25.3 56.4-56.4V164.46c0-31.1-25.3-56.42-56.4-56.42z m-323.6 855.22H413.46l24.9-120.84h151.28l24.9 120.84z m360-177.24c0 20.08-16.34 36.4-36.4 36.4H89.86c-20.06 0-36.4-16.32-36.4-36.4V164.46c0-20.08 16.34-36.42 36.4-36.42h848.28c20.06 0 36.4 16.34 36.4 36.42v621.56z" fill="#23130D" p-id="42421"></path><path d="M614.54 963.26H413.46l24.9-120.84h151.28z" fill="#E1E1E5" p-id="42422"></path><path d="M614.54 963.26h-11.12l-13.78-66.84h-151.28l-13.78 66.84h-11.12l24.9-120.84h151.28z" fill="#23130D" opacity=".2" p-id="42423"></path><path d="M938.14 128.04H89.86c-20.06 0-36.4 16.34-36.4 36.42v621.56c0 20.08 16.34 36.4 36.4 36.4h848.28c20.06 0 36.4-16.32 36.4-36.4V164.46c0-20.08-16.34-36.42-36.4-36.42zM572.52 794h-117.04c-5.52 0-10-4.48-10-10s4.48-10 10-10h117.04c5.52 0 10 4.48 10 10s-4.48 10-10 10z m374.54-56.22c0 5.52-4.48 10-10 10H90.94c-5.52 0-10-4.48-10-10V169.38c0-5.52 4.48-10 10-10h846.12c5.52 0 10 4.48 10 10v568.4z" fill="#E1E1E5" p-id="42424"></path><path d="M938.14 801.76H89.86c-20.06 0-36.4-16.32-36.4-36.4v20.66c0 20.08 16.34 36.4 36.4 36.4h848.28c20.06 0 36.4-16.32 36.4-36.4v-20.66c0 20.08-16.34 36.4-36.4 36.4z" fill="#23130D" opacity=".2" p-id="42425"></path><path d="M938.14 128.04H89.86c-20.06 0-36.4 16.34-36.4 36.42v20.66c0-20.08 16.34-36.42 36.4-36.42h848.28c20.06 0 36.4 16.34 36.4 36.42V164.46c0-20.08-16.34-36.42-36.4-36.42z" fill="#FFFFFF" opacity=".7" p-id="42426"></path><path d="M937.06 159.38H90.94c-5.52 0-10 4.48-10 10v568.4c0 5.52 4.48 10 10 10h846.12c5.52 0 10-4.48 10-10V169.38c0-5.52-4.48-10-10-10z m-10 568.4H100.94V179.38h826.12v548.4z" fill="#23130D" p-id="42427"></path><path d="M353.52 448.04c-9.24 8.2-19.42 15.04-30.26 20.42-16.24 8.12-33.98 12.98-52.44 14.28v60.24h54.02v-48.88c0-5.54 4.48-10 10-10h54.74l-36.06-36.06z m0 0c-9.24 8.2-19.42 15.04-30.26 20.42-16.24 8.12-33.98 12.98-52.44 14.28v60.24h54.02v-48.88c0-5.54 4.48-10 10-10h54.74l-36.06-36.06z m27.34-177.22c13.04 21.58 20 46.38 20 72.26 0 15.5-2.5 30.58-7.3 44.84-6.78 20.18-18.2 38.68-33.72 54.18a135.52 135.52 0 0 1-6.32 5.94c-9.24 8.2-19.42 15.04-30.26 20.42-16.24 8.12-33.98 12.98-52.44 14.28v60.24h54.02v-48.88c0-5.54 4.48-10 10-10h63.66v-51.12c0-5.52 4.48-10 10-10h74.02c5.52 0 10 4.48 10 10v145.74h54.04v-142.2l-165.7-165.7zM100.94 179.38v548.4h826.12V179.38H100.94z m792.1 500.96c5.52 0 10 4.46 10 10 0 5.52-4.48 10-10 10H148.2c-5.52 0-10-4.48-10-10 0-5.54 4.48-10 10-10h102.62v-197.6c-23.28-1.64-45.46-8.94-64.88-21.28a139.8 139.8 0 0 1-24.16-19.36 141.01 141.01 0 0 1-19.44-24.24 137.83 137.83 0 0 1-10.98-21.16c-6.96-16.76-10.6-34.9-10.6-53.62 0-22.04 5.06-43.32 14.64-62.48 5.4-10.84 12.24-21 20.44-30.24a135.52 135.52 0 0 1 5.94-6.32c15.5-15.5 34-26.92 54.2-33.7 14.26-4.82 29.36-7.32 44.84-7.32 25.88 0 50.7 6.98 72.28 20.04 9.62 5.82 18.58 12.84 26.74 20.98 8.18 8.16 15.2 17.16 21.02 26.78 13.04 21.58 20 46.38 20 72.26 0 15.5-2.5 30.58-7.3 44.84-6.78 20.18-18.2 38.68-33.72 54.18a135.52 135.52 0 0 1-6.32 5.94c-9.24 8.2-19.42 15.04-30.26 20.42-16.24 8.12-33.98 12.98-52.44 14.28v60.24h54.02v-48.88c0-5.54 4.48-10 10-10h63.66v-51.12c0-5.52 4.48-10 10-10h74.02c5.52 0 10 4.48 10 10v145.74h54.04v-149.04c0-5.52 4.46-10 10-10h64v-28.66c0-5.52 4.48-10 10-10h74.02c5.52 0 10 4.48 10 10v103.02h54.02v-176.26c0-5.52 4.48-10 10-10h74.02c5.52 0 10 4.48 10 10v362.56h30.42zM380.86 270.82c13.04 21.58 20 46.38 20 72.26 0 15.5-2.5 30.58-7.3 44.84-6.78 20.18-18.2 38.68-33.72 54.18a135.52 135.52 0 0 1-6.32 5.94c-9.24 8.2-19.42 15.04-30.26 20.42-16.24 8.12-33.98 12.98-52.44 14.28v60.24h54.02v-48.88c0-5.54 4.48-10 10-10h63.66v-51.12c0-5.52 4.48-10 10-10h74.02c5.52 0 10 4.48 10 10v145.74h54.04v-142.2l-165.7-165.7z m-27.34 177.22c-9.24 8.2-19.42 15.04-30.26 20.42-16.24 8.12-33.98 12.98-52.44 14.28v60.24h54.02v-48.88c0-5.54 4.48-10 10-10h54.74l-36.06-36.06z" fill="#3594BF" p-id="42428"></path><path d="M582.52 784c0 5.52-4.48 10-10 10h-117.04c-5.52 0-10-4.48-10-10s4.48-10 10-10h117.04c5.52 0 10 4.48 10 10zM893.04 680.34h-30.42V317.78c0-5.52-4.48-10-10-10H778.6c-5.52 0-10 4.48-10 10v176.26h-54.02v-103.02c0-5.52-4.48-10-10-10h-74.02c-5.52 0-10 4.48-10 10v28.66h-64c-5.54 0-10 4.48-10 10v149.04h-54.04v-145.74c0-5.52-4.48-10-10-10h-74.02c-5.52 0-10 4.48-10 10v51.12h-63.66c-5.52 0-10 4.46-10 10v48.88h-54.02v-60.24c33.62-2.36 64.92-16.56 89.02-40.64 26.46-26.44 41.02-61.6 41.02-99.02 0-37.42-14.56-72.6-41.02-99.04-26.46-26.44-61.62-41.02-99.02-41.02s-72.58 14.58-99.04 41.02c-26.44 26.44-41.02 61.62-41.02 99.04 0 18.72 3.64 36.86 10.6 53.62 6.94 16.78 17.2 32.18 30.42 45.4 24.08 24.08 55.4 38.28 89.04 40.64v197.6H148.2c-5.52 0-10 4.46-10 10 0 5.52 4.48 10 10 10h744.84c5.52 0 10-4.48 10-10 0-5.54-4.48-10-10-10zM345.7 427.96a120.36 120.36 0 0 1-28.64 21.22c16.52-23.48 27.3-57.4 28.88-96.1h34.48c-2.32 28.3-14.42 54.6-34.72 74.88z m0-169.76c20.3 20.28 32.4 46.58 34.72 74.88h-34.48c-1.58-38.72-12.36-72.64-28.88-96.12a120.446 120.446 0 0 1 28.64 21.24z m-74.88-33.68c29.12 8.62 52.52 54.08 55.1 108.56h-55.1v-108.56z m0 128.56h55.1c-2.58 54.48-25.98 99.94-55.1 108.56v-108.56zM175.92 258.2c8.58-8.58 18.22-15.7 28.64-21.24-16.52 23.5-27.3 57.4-28.88 96.12H141.2c2.32-28.3 14.42-54.6 34.72-74.88z m0 169.76c-20.3-20.28-32.4-46.58-34.72-74.88h34.48c1.58 38.72 12.36 72.62 28.88 96.1a120.36 120.36 0 0 1-28.64-21.22z m74.9 33.68c-29.12-8.62-52.54-54.08-55.12-108.56h55.12v108.56z m0-128.56H195.7c2.58-54.5 26-99.96 55.12-108.58v108.58z m74.02 347.24h-54.02v-117.34h54.02v117.34z m73.66 0h-53.66v-176.22h53.66v176.22z m74.02 0h-53.66v-186.22c0-0.86-0.14-1.68-0.36-2.48v-48.64h54.02v237.34z m74.02 0h-54.02v-81.6h54.02v81.6z m74.02 0h-54V439.68h54v240.64z m74.02 0h-54.02V401.02h54.02v279.3z m74.02 0h-54.02v-166.28h54.02v166.28z m74.02 0H788.6v-176.28V327.78h54.02v352.54z" fill="#23130D" p-id="42429"></path><path d="M270.82 562.98h54.02v117.34h-54.02z" fill="#EC7063" p-id="42430"></path><path d="M270.82 562.98h8.68v117.34h-8.68z" fill="#FFFFFF" opacity=".4" p-id="42431"></path><path d="M344.84 504.1h53.66v176.22h-53.66zM492.52 598.72h54.02v81.6h-54.02zM714.58 514.04h54.02v166.28h-54.02z" fill="#EC7063" p-id="42432"></path><path d="M472.52 442.98v237.34h-53.66v-186.22c0-0.86-0.14-1.68-0.36-2.48v-48.64h54.02zM566.56 439.68h54v240.64h-54zM640.56 401.02h54.02v279.3h-54.02zM842.62 327.78v352.54H788.6v-176.28V327.78h54.02z" fill="#72AF5F" p-id="42433"></path><path d="M380.42 333.08h-34.48c-1.58-38.72-12.36-72.64-28.88-96.12a120.446 120.446 0 0 1 28.64 21.24c20.3 20.28 32.4 46.58 34.72 74.88zM380.42 353.08c-2.32 28.3-14.42 54.6-34.72 74.88a120.36 120.36 0 0 1-28.64 21.22c16.52-23.48 27.3-57.4 28.88-96.1h34.48zM204.56 236.96c-16.52 23.5-27.3 57.4-28.88 96.12H141.2c2.32-28.3 14.42-54.6 34.72-74.88 8.58-8.58 18.22-15.7 28.64-21.24zM204.56 449.18a120.36 120.36 0 0 1-28.64-21.22c-20.3-20.28-32.4-46.58-34.72-74.88h34.48c1.58 38.72 12.36 72.62 28.88 96.1zM250.82 353.08v108.56c-29.12-8.62-52.54-54.08-55.12-108.56h55.12zM250.82 224.5v108.58H195.7c2.58-54.5 26-99.96 55.12-108.58z" fill="#F9C139" p-id="42434"></path><path d="M204.56 236.96c-2.24 3.2-4.38 6.6-6.4 10.16a120.926 120.926 0 0 0-12.74 11.08c-20.3 20.28-32.4 46.58-34.72 74.88H141.2c2.32-28.3 14.42-54.6 34.72-74.88 8.58-8.58 18.22-15.7 28.64-21.24zM204.56 449.18a120.36 120.36 0 0 1-28.64-21.22c-20.3-20.28-32.4-46.58-34.72-74.88h9.5c2.32 28.3 14.42 54.6 34.72 74.88 4.02 4.02 8.28 7.72 12.74 11.08a126.78 126.78 0 0 0 6.4 10.14zM250.82 457.1v4.54c-29.12-8.62-52.54-54.08-55.12-108.56h10c2.28 48.08 20.78 89.14 45.12 104.02zM250.82 224.5v4.52c-24.34 14.9-42.84 55.96-45.12 104.06h-10c2.58-54.5 26-99.96 55.12-108.58z" fill="#FFFFFF" opacity=".4" p-id="42435"></path><path d="M325.92 333.08h-55.1v-108.56c29.12 8.62 52.52 54.08 55.1 108.56zM325.92 353.08c-2.58 54.48-25.98 99.94-55.1 108.56v-108.56h55.1z" fill="#F9C139" p-id="42436"></path><path d="M344.84 504.1h8.68v176.22h-8.68zM418.5 442.98h8.68v237.34h-8.68zM492.466 598h8.68v82.014h-8.68zM566.56 439.68h8.68v240.334h-8.68zM640.656 401.02h8.68v278.994h-8.68zM714.75 514.04h8.68v165.974h-8.68zM788.846 327.78h8.68v352.234h-8.68z" fill="#FFFFFF" opacity=".4" p-id="42437"></path><path d="M317.37 236.96c2.24 3.2 4.38 6.6 6.4 10.16 4.46 3.36 8.72 7.06 12.74 11.08 20.3 20.28 32.4 46.58 34.72 74.88h9.5c-2.32-28.3-14.42-54.6-34.72-74.88a120.446 120.446 0 0 0-28.64-21.24zM317.37 449.18a120.36 120.36 0 0 0 28.64-21.22c20.3-20.28 32.4-46.58 34.72-74.88h-9.5c-2.32 28.3-14.42 54.6-34.72 74.88a120.926 120.926 0 0 1-12.74 11.08 126.78 126.78 0 0 1-6.4 10.14zM271.11 457.1v4.54c29.12-8.62 52.54-54.08 55.12-108.56h-10c-2.28 48.08-20.78 89.14-45.12 104.02zM271.11 224.5v4.52c24.34 14.9 42.84 55.96 45.12 104.06h10c-2.58-54.5-26-99.96-55.12-108.58z" fill="#23130D" opacity=".4" p-id="42438"></path><path d="M131.36 396.7c3.04 7.34 6.7 14.42 10.98 21.16l-41.4-41.4v-130.32L135.4 280.6c-9.58 19.16-14.64 40.44-14.64 62.48 0 18.72 3.64 36.86 10.6 53.62zM185.94 461.46c19.42 12.34 41.6 19.64 64.88 21.28v43.6l-64.88-64.88zM323.26 468.46l15.64 15.64h-4.06c-5.52 0-10 4.46-10 10v48.88h-54.02v-60.24c18.46-1.3 36.2-6.16 52.44-14.28zM582.58 727.78h-130.32l-27.44-27.44h130.32zM185.02 179.38l30.96 30.96c-20.2 6.78-38.7 18.2-54.2 33.7a135.52 135.52 0 0 0-5.94 6.32L100.94 195.46v-16.08h84.08zM428.62 422.98h-20.12c-5.52 0-10 4.48-10 10v51.12h-8.92l-36.06-36.06a135.52 135.52 0 0 0 6.32-5.94c15.52-15.5 26.94-34 33.72-54.18l35.06 35.06zM492.52 486.88l54.04 54.04v37.8h-54.04zM733.42 727.78h-100.16l-27.44-27.44h100.16zM657.58 381.02h-27.02c-5.52 0-10 4.48-10 10v28.66h-64c-5.54 0-10 4.48-10 10v6.84l-165.7-165.7a140.594 140.594 0 0 0-21.02-26.78 141.736 141.736 0 0 0-26.74-20.98l-43.68-43.68h166.52l201.64 201.64zM714.58 438.02l54.02 54.02v2h-54.02zM927.06 650.5v77.28h-89.24l-27.44-27.44h82.66c5.52 0 10-4.48 10-10 0-5.54-4.48-10-10-10h-30.42v-94.28l64.44 64.44z" fill="#FFFFFF" opacity=".4" p-id="42439"></path></svg>