<?xml version="1.0" standalone="no"?><!DOCTYPE svg PUBLIC "-//W3C//DTD SVG 1.1//EN" "http://www.w3.org/Graphics/SVG/1.1/DTD/svg11.dtd"><svg t="1625811911892" class="icon" viewBox="0 0 1024 1024" version="1.1" xmlns="http://www.w3.org/2000/svg" p-id="43701" xmlns:xlink="http://www.w3.org/1999/xlink" width="200" height="200"><defs><style type="text/css"></style></defs><path d="M916.78 541.66h-64.64v-35.04l36.78-6.48c26.64-4.72 44.5-30.22 39.82-56.86l-14.94-84.66c-4.7-26.64-30.2-44.5-56.86-39.82l-37.42 6.58c-7.46-15.48-16.12-30.48-25.84-44.7l24.44-29.12c17.38-20.74 14.64-51.78-6.08-69.18L746.2 127.16c-10-8.4-22.7-12.42-35.8-11.28s-24.96 7.28-33.36 17.3l-24.4 29.1a334.62 334.62 0 0 0-48.58-17.66v-38c0-27.06-22.02-49.06-49.08-49.06H469c-27.06 0-49.08 22-49.08 49.06v38c-16.62 4.64-32.9 10.56-48.58 17.68l-24.4-29.1c-8.4-10.02-20.22-16.16-33.32-17.32-13.08-1.14-25.8 2.86-35.82 11.26L211.94 182.4c-20.72 17.4-23.44 48.4-6.06 69.14l24.44 29.16c-9.76 14.26-18.42 29.24-25.86 44.68l-37.4-6.58c-26.68-4.66-52.18 13.2-56.86 39.82l-14.92 84.68c-2.28 12.86 0.62 25.88 8.16 36.64 7.54 10.76 18.78 17.92 31.64 20.18l36.76 6.5v35.04h-64.6c-2.76 0-5.28 1.12-7.08 2.94-1.8 1.8-2.92 4.3-2.92 7.06v0.04c0 110.8 43.16 214.96 121.48 293.26 78.38 78.34 182.54 121.48 293.3 121.48 110.72 0 214.86-43.14 293.26-121.48 78.34-78.32 121.5-182.48 121.5-293.3 0-5.52-4.48-10-10-10zM138.54 480.44c-7.6-1.34-14.26-5.6-18.72-11.98-4.48-6.38-6.2-14.08-4.86-21.7l14.94-84.66c2.76-15.78 17.9-26.38 33.7-23.6l44.94 7.92h0.08c0.54 0.08 1.1 0.14 1.64 0.14h0.2c0.1 0 0.2-0.02 0.3-0.02 0.52-0.04 1-0.1 1.5-0.2 0.14-0.02 0.28-0.06 0.42-0.1 1.14-0.28 2.22-0.76 3.2-1.42 0.1-0.06 0.2-0.14 0.28-0.22 0.4-0.28 0.78-0.6 1.12-0.94l0.26-0.26c0.74-0.78 1.36-1.68 1.84-2.7 8.64-19.1 19.3-37.5 31.66-54.74 0.12-0.18 0.2-0.38 0.32-0.58 0.2-0.3 0.4-0.62 0.56-0.94 0.14-0.3 0.24-0.58 0.34-0.88 0.12-0.32 0.22-0.62 0.3-0.94 0.1-0.32 0.14-0.64 0.18-0.96a7.552 7.552 0 0 0 0.12-1.9c-0.02-0.32-0.02-0.64-0.06-0.96-0.04-0.32-0.12-0.6-0.2-0.92-0.06-0.32-0.14-0.64-0.24-0.96-0.12-0.3-0.24-0.6-0.38-0.9-0.14-0.28-0.26-0.56-0.42-0.84-0.18-0.32-0.4-0.62-0.62-0.92-0.12-0.18-0.22-0.38-0.36-0.54l-29.36-35.02c-10.3-12.3-8.7-30.68 3.58-40.98l65.86-55.26c5.92-4.96 13.46-7.32 21.22-6.66 7.76 0.68 14.78 4.32 19.74 10.24l29.34 35c0.04 0.06 0.1 0.1 0.16 0.16 0.36 0.4 0.74 0.8 1.16 1.14 0.18 0.14 0.36 0.26 0.54 0.38 0.28 0.2 0.58 0.4 0.88 0.56a8.684 8.684 0 0 0 1.68 0.76c0.3 0.1 0.58 0.18 0.9 0.26 0.38 0.1 0.78 0.18 1.18 0.22 0.24 0.02 0.46 0.04 0.7 0.04 0.16 0.02 0.3 0.04 0.46 0.04 0.26 0 0.52-0.02 0.76-0.04 0.14-0.02 0.28-0.02 0.42-0.04 0.48-0.06 0.96-0.16 1.44-0.28 0.18-0.06 0.34-0.1 0.5-0.16 0.42-0.12 0.82-0.28 1.22-0.48 18.96-9.14 38.96-16.42 59.42-21.62 0.24-0.06 0.42-0.16 0.64-0.22 0.36-0.12 0.7-0.24 1.04-0.38 0.3-0.14 0.56-0.3 0.82-0.46 0.3-0.16 0.58-0.32 0.84-0.5 0.28-0.2 0.52-0.42 0.76-0.64 0.24-0.2 0.48-0.4 0.7-0.62 0.22-0.24 0.42-0.5 0.62-0.76 0.18-0.24 0.38-0.5 0.56-0.78 0.16-0.26 0.3-0.54 0.44-0.82a7.096 7.096 0 0 0 0.72-1.82c0.08-0.3 0.18-0.6 0.24-0.92 0.06-0.36 0.08-0.72 0.1-1.1 0.02-0.22 0.06-0.44 0.06-0.66V106.62c0-16.04 13.04-29.06 29.08-29.06h85.98c16.04 0 29.08 13.02 29.08 29.06v45.68c0 0.34 0.06 0.68 0.1 1.02l0.06 0.62c0.08 0.46 0.2 0.9 0.34 1.34 0.06 0.18 0.1 0.36 0.16 0.52 0.18 0.44 0.38 0.86 0.6 1.26 0.08 0.16 0.16 0.32 0.26 0.48 0.24 0.38 0.5 0.72 0.78 1.06 0.14 0.16 0.26 0.32 0.4 0.48 0.28 0.3 0.58 0.58 0.9 0.84 0.18 0.16 0.36 0.32 0.56 0.46 0.32 0.24 0.68 0.44 1.04 0.64 0.2 0.1 0.42 0.24 0.64 0.34 0.38 0.18 0.78 0.3 1.18 0.44 0.18 0.04 0.36 0.14 0.54 0.18 20.48 5.2 40.48 12.48 59.4 21.62 0.42 0.2 0.86 0.36 1.3 0.5 0.1 0.04 0.22 0.06 0.32 0.1 0.56 0.16 1.12 0.28 1.68 0.34h0.1c0.32 0.04 0.64 0.06 0.94 0.06 0.2 0 0.4-0.04 0.6-0.04 0.16-0.02 0.32-0.02 0.5-0.04 0.56-0.06 1.1-0.16 1.64-0.3 0.08-0.02 0.14-0.06 0.22-0.08 0.46-0.14 0.94-0.34 1.38-0.56 0.16-0.08 0.32-0.16 0.5-0.24 0.4-0.24 0.8-0.48 1.16-0.76 0.1-0.08 0.2-0.14 0.3-0.2 0.46-0.38 0.88-0.8 1.28-1.26l0.1-0.1 29.32-35c4.98-5.9 11.98-9.54 19.76-10.22 7.78-0.66 15.3 1.7 21.22 6.68l65.84 55.22c12.28 10.32 13.9 28.72 3.62 41l-29.38 35c-0.16 0.2-0.26 0.4-0.4 0.6-0.2 0.28-0.42 0.56-0.58 0.86-0.18 0.3-0.3 0.6-0.44 0.9-0.12 0.28-0.26 0.56-0.36 0.86-0.12 0.32-0.18 0.66-0.26 1-0.08 0.28-0.14 0.56-0.18 0.86-0.04 0.34-0.06 0.68-0.06 1.02-0.02 0.3-0.04 0.6-0.02 0.92 0.02 0.32 0.08 0.64 0.12 0.96 0.06 0.32 0.1 0.62 0.18 0.94 0.08 0.32 0.2 0.64 0.32 0.96a7.388 7.388 0 0 0 0.9 1.82c0.1 0.18 0.18 0.38 0.32 0.56a322.82 322.82 0 0 1 31.64 54.74c0.2 0.42 0.44 0.84 0.68 1.22 0.02 0.02 0.02 0.06 0.04 0.08 0.32 0.5 0.7 0.96 1.08 1.38 0.12 0.1 0.24 0.22 0.34 0.32 0.32 0.32 0.66 0.6 1.02 0.86 0.12 0.1 0.24 0.2 0.38 0.28 0.46 0.32 0.96 0.62 1.48 0.84 0.06 0.04 0.12 0.04 0.18 0.08 0.46 0.2 0.96 0.34 1.44 0.48 0.18 0.04 0.36 0.08 0.56 0.12 0.42 0.08 0.86 0.14 1.32 0.16 0.14 0.02 0.28 0.04 0.42 0.04h0.18c0.54 0 1.06-0.06 1.6-0.14h0.12l44.96-7.92c15.78-2.78 30.92 7.8 33.72 23.6l14.92 84.66c2.78 15.78-7.82 30.9-23.6 33.7l-45.04 7.92a9.98 9.98 0 0 0-8.26 9.84v43.44h-108.2c8.02-23.32 12.08-47.7 12.08-72.66 0-123.52-100.48-224-224-224s-224 100.48-224 224c0 24.96 4.06 49.34 12.08 72.66H191.84v-43.42a10 10 0 0 0-8.26-9.86l-45.04-7.94z m94.32 350.38c-72.2-72.18-112.98-167.44-115.5-269.16h150.14c1.46 106.12 26.18 205.64 70 281.22 23.36 40.34 50.8 71.48 80.8 92.4-69.6-16.86-133.48-52.54-185.44-104.46z m269.16 115.2c-55.24-4.3-107.2-44.08-147.22-113.16-42.08-72.6-65.84-168.56-67.3-271.2H502.02v384.36z m-180.66-404.36c-8.84-23.18-13.34-47.58-13.34-72.66 0-112.48 91.52-204 204-204s204 91.52 204 204c0 25.06-4.5 49.48-13.34 72.66H321.36z m200.66 20h214.48c-1.46 102.64-25.22 198.6-67.28 271.2-40.04 69.08-91.98 108.86-147.2 113.16V561.66z m269.12 269.16c-51.96 51.92-115.84 87.58-185.4 104.46 29.98-20.94 57.4-52.06 80.78-92.4 43.8-75.58 68.52-175.1 69.98-281.22h150.16c-2.52 101.74-43.32 196.98-115.52 269.16z" fill="#23130D" p-id="43702"></path><path d="M906.66 561.66c-2.52 101.74-43.32 196.98-115.52 269.16-51.96 51.92-115.84 87.58-185.4 104.46 29.98-20.94 57.4-52.06 80.78-92.4 43.8-75.58 68.52-175.1 69.98-281.22h150.16z" fill="#3594BF" p-id="43703"></path><path d="M736.5 561.66c-1.46 102.64-25.22 198.6-67.28 271.2-40.04 69.08-91.98 108.86-147.2 113.16V561.66h214.48zM418.3 935.28c-69.6-16.86-133.48-52.54-185.44-104.46-72.2-72.18-112.98-167.44-115.5-269.16h150.14c1.46 106.12 26.18 205.64 70 281.22 23.36 40.34 50.8 71.48 80.8 92.4z" fill="#3594BF" p-id="43704"></path><path d="M502.02 561.66v384.36c-55.24-4.3-107.2-44.08-147.22-113.16-42.08-72.6-65.84-168.56-67.3-271.2H502.02z" fill="#3594BF" p-id="43705"></path><path d="M418.3 935.28c-69.6-16.86-133.48-52.54-185.44-104.46-72.2-72.18-112.98-167.44-115.5-269.16h28c2.52 101.72 43.3 196.98 115.5 269.16 40.2 40.16 87.52 70.62 139.12 90.12 5.98 5.22 12.1 10 18.32 14.34zM502.02 940.26v5.76c-55.24-4.3-107.2-44.08-147.22-113.16-42.08-72.6-65.84-168.56-67.3-271.2H317c1.46 102.64 25.22 198.6 67.3 271.2 32.8 56.62 73.64 93.56 117.72 107.4z" fill="#FFFFFF" opacity=".4" p-id="43706"></path><path d="M605.72 935.28c69.6-16.86 133.48-52.54 185.44-104.46 72.2-72.18 112.98-167.44 115.5-269.16h-28c-2.52 101.72-43.3 196.98-115.5 269.16-40.2 40.16-87.52 70.62-139.12 90.12-5.98 5.22-12.1 10-18.32 14.34zM522 940.26v5.76c55.24-4.3 107.2-44.08 147.22-113.16 42.08-72.6 65.84-168.56 67.3-271.2H707.02c-1.46 102.64-25.22 198.6-67.3 271.2-32.8 56.62-73.64 93.56-117.72 107.4z" fill="#23130D" opacity=".4" p-id="43707"></path><path d="M892.58 478.22c-2.22 1.02-4.62 1.8-7.14 2.24l-45.04 7.92a9.98 9.98 0 0 0-8.26 9.84v43.44h-108.2a191.06 191.06 0 0 0 3.1-9.78c2.06-6.98 3.76-14.06 5.1-21.22 2.58-13.64 3.88-27.56 3.88-41.66 0-2.22-0.04-4.44-0.12-6.64-0.66-23.16-4.86-45.48-12.1-66.38-22.42-64.88-73.88-116.34-138.76-138.76a221.882 221.882 0 0 0-66.38-12.1c-2.2-0.08-4.42-0.12-6.64-0.12-14.22 0-28.16 1.34-41.64 3.9-7.22 1.34-14.3 3.04-21.24 5.1-16.74 4.88-32.68 11.7-47.56 20.18-67.76 38.54-113.56 111.44-113.56 194.82 0 24.96 4.06 49.34 12.08 72.66H191.84v-43.42a10 10 0 0 0-8.26-9.86l-45.04-7.94c-7.6-1.34-14.26-5.6-18.72-11.98-4.48-6.38-6.2-14.08-4.86-21.7l14.94-84.66c2.76-15.78 17.9-26.38 33.7-23.6l44.94 7.92h0.08c0.54 0.08 1.1 0.14 1.64 0.14h0.2c0.1 0 0.2-0.02 0.3-0.02 0.52-0.04 1-0.1 1.5-0.2 0.14-0.02 0.28-0.06 0.42-0.1 1.14-0.28 2.22-0.76 3.2-1.42 0.1-0.06 0.2-0.14 0.28-0.22 0.4-0.28 0.78-0.6 1.12-0.94l0.26-0.26c0.74-0.78 1.36-1.68 1.84-2.7 8.64-19.1 19.3-37.5 31.66-54.74 0.12-0.18 0.2-0.38 0.32-0.58 0.2-0.3 0.4-0.62 0.56-0.94 0.14-0.3 0.24-0.58 0.34-0.88 0.12-0.32 0.22-0.62 0.3-0.94 0.1-0.32 0.14-0.64 0.18-0.96a7.552 7.552 0 0 0 0.12-1.9c-0.02-0.32-0.02-0.64-0.06-0.96-0.04-0.32-0.12-0.6-0.2-0.92-0.06-0.32-0.14-0.64-0.24-0.96-0.12-0.3-0.24-0.6-0.38-0.9-0.14-0.28-0.26-0.56-0.42-0.84-0.18-0.32-0.4-0.62-0.62-0.92-0.12-0.18-0.22-0.38-0.36-0.54l-29.36-35.02c-10.3-12.3-8.7-30.68 3.58-40.98l54.56-45.78 11.3-9.48c5.92-4.96 13.46-7.32 21.22-6.66 7.76 0.68 14.78 4.32 19.74 10.24l29.34 35c0.04 0.06 0.1 0.1 0.16 0.16 0.36 0.4 0.74 0.8 1.16 1.14 0.18 0.14 0.36 0.26 0.54 0.38 0.28 0.2 0.58 0.4 0.88 0.56a8.684 8.684 0 0 0 1.68 0.76c0.3 0.1 0.58 0.18 0.9 0.26 0.38 0.1 0.78 0.18 1.18 0.22 0.24 0.02 0.46 0.04 0.7 0.04 0.16 0.02 0.3 0.04 0.46 0.04 0.26 0 0.52-0.02 0.76-0.04 0.14-0.02 0.28-0.02 0.42-0.04 0.48-0.06 0.96-0.16 1.44-0.28 0.18-0.06 0.34-0.1 0.5-0.16 0.42-0.12 0.82-0.28 1.22-0.48 1.32-0.64 2.62-1.26 3.94-1.86 6.06-2.82 12.22-5.46 18.46-7.88 12.08-4.72 24.46-8.68 37.02-11.88 0.24-0.06 0.42-0.16 0.64-0.22 0.36-0.12 0.7-0.24 1.04-0.38 0.2-0.1 0.38-0.2 0.56-0.3 0.1-0.06 0.18-0.1 0.26-0.16 0.3-0.16 0.58-0.32 0.84-0.5 0.28-0.2 0.52-0.42 0.76-0.64 0.24-0.2 0.48-0.4 0.7-0.62 0.22-0.24 0.42-0.5 0.62-0.76 0.18-0.24 0.38-0.5 0.56-0.78 0.16-0.26 0.3-0.54 0.44-0.82a7.096 7.096 0 0 0 0.72-1.82c0.08-0.3 0.18-0.6 0.24-0.92 0.06-0.36 0.08-0.72 0.1-1.1 0.02-0.22 0.06-0.44 0.06-0.66V106.62c0-16.04 13.04-29.06 29.08-29.06h85.98c16.04 0 29.08 13.02 29.08 29.06v45.68c0 0.34 0.06 0.68 0.1 1.02l0.06 0.62c0.08 0.46 0.2 0.9 0.34 1.34 0.06 0.18 0.1 0.36 0.16 0.52 0.18 0.44 0.38 0.86 0.6 1.26 0.08 0.16 0.16 0.32 0.26 0.48 0.24 0.38 0.5 0.72 0.78 1.06 0.14 0.16 0.26 0.32 0.4 0.48 0.28 0.3 0.58 0.58 0.9 0.84 0.18 0.16 0.36 0.32 0.56 0.46 0.32 0.24 0.68 0.44 1.04 0.64 0.2 0.1 0.42 0.24 0.64 0.34 0.38 0.18 0.78 0.3 1.18 0.44 0.18 0.04 0.36 0.14 0.54 0.18 20.48 5.2 40.48 12.48 59.4 21.62 0.42 0.2 0.86 0.36 1.3 0.5 0.1 0.04 0.22 0.06 0.32 0.1 0.56 0.16 1.12 0.28 1.68 0.34h0.1c0.32 0.04 0.64 0.06 0.94 0.06 0.2 0 0.4-0.04 0.6-0.04 0.16-0.02 0.32-0.02 0.5-0.04 0.56-0.06 1.1-0.16 1.64-0.3 0.08-0.02 0.14-0.06 0.22-0.08 0.46-0.14 0.94-0.34 1.38-0.56 0.16-0.08 0.32-0.16 0.5-0.24 0.4-0.24 0.8-0.48 1.16-0.76 0.1-0.08 0.2-0.14 0.3-0.2 0.46-0.38 0.88-0.8 1.28-1.26l0.1-0.1 29.32-35c4.98-5.9 11.98-9.54 19.76-10.22 7.78-0.66 15.3 1.7 21.22 6.68l65.84 55.22c12.28 10.32 13.9 28.72 3.62 41l-29.38 35c-0.16 0.2-0.26 0.4-0.4 0.6-0.2 0.28-0.42 0.56-0.58 0.86-0.18 0.3-0.3 0.6-0.44 0.9-0.12 0.28-0.26 0.56-0.36 0.86-0.12 0.32-0.18 0.66-0.26 1-0.08 0.28-0.14 0.56-0.18 0.86-0.04 0.34-0.06 0.68-0.06 1.02-0.02 0.3-0.04 0.6-0.02 0.92 0.02 0.32 0.08 0.64 0.12 0.96 0.06 0.32 0.1 0.62 0.18 0.94 0.08 0.32 0.2 0.64 0.32 0.96a7.388 7.388 0 0 0 0.9 1.82c0.1 0.18 0.18 0.38 0.32 0.56a322.82 322.82 0 0 1 31.64 54.74c0.2 0.42 0.44 0.84 0.68 1.22 0.02 0.02 0.02 0.06 0.04 0.08 0.32 0.5 0.7 0.96 1.08 1.38 0.12 0.1 0.24 0.22 0.34 0.32 0.32 0.32 0.66 0.6 1.02 0.86 0.12 0.1 0.24 0.2 0.38 0.28 0.46 0.32 0.96 0.62 1.48 0.84 0.06 0.04 0.12 0.04 0.18 0.08 0.46 0.2 0.96 0.34 1.44 0.48 0.18 0.04 0.36 0.08 0.56 0.12 0.42 0.08 0.86 0.14 1.32 0.16 0.14 0.02 0.28 0.04 0.42 0.04h0.18c0.54 0 1.06-0.06 1.6-0.14h0.12l44.96-7.92c15.78-2.78 30.92 7.8 33.72 23.6l14.92 84.66c2.34 13.26-4.76 26.04-16.46 31.46z" fill="#F9C139" p-id="43708"></path><path d="M554.98 89.56c9.418 0 17.08 7.654 17.08 17.06v45.68c0 1 0.102 1.816 0.172 2.352l0.046 0.482 0.044 0.434 0.074 0.43c0.16 0.924 0.392 1.858 0.706 2.856 0.116 0.404 0.242 0.792 0.38 1.16l0.062 0.166 0.068 0.164c0.32 0.78 0.678 1.544 1.07 2.274 0.156 0.308 0.4 0.768 0.75 1.33 0.484 0.766 1.012 1.492 1.664 2.282l0.112 0.136 0.044 0.05c0.156 0.19 0.312 0.38 0.48 0.57l0.126 0.144 0.13 0.14c0.584 0.626 1.212 1.22 1.868 1.77 0.298 0.262 0.744 0.644 1.312 1.052 0.916 0.67 1.75 1.134 2.26 1.418l0.23 0.128 0.068 0.034c0.354 0.196 0.722 0.388 1.086 0.558 0.9 0.422 1.676 0.686 2.142 0.844l0.16 0.054 0.674 0.236 0.046 0.01c0.266 0.086 0.568 0.174 0.9 0.256a303.208 303.208 0 0 1 57.124 20.804c0.808 0.384 1.666 0.724 2.616 1.036l0.16 0.054 0.12 0.048 0.584 0.168c1.272 0.364 2.482 0.604 3.7 0.734l0.638 0.068h0.166c0.508 0.04 1.014 0.06 1.516 0.06 0.408 0 0.768-0.018 1.046-0.04h0.3l0.462-0.058a23.198 23.198 0 0 0 3.944-0.666h0.002c0.386-0.1 0.766-0.218 1.146-0.356 0.938-0.31 1.88-0.702 2.806-1.166l0.084-0.042 0.6-0.268 0.626-0.376c0.45-0.27 1.084-0.65 1.794-1.16l0.436-0.262 0.698-0.576c0.834-0.688 1.612-1.434 2.366-2.27l0.224-0.224 0.346-0.414 29.292-34.966a17.044 17.044 0 0 1 11.604-6.004 18.14 18.14 0 0 1 1.542-0.066c4.066 0 7.848 1.374 10.95 3.984l65.83 55.212c7.226 6.072 8.186 16.888 2.15 24.098l-29.38 35-0.09 0.108-0.088 0.11a14.894 14.894 0 0 0-0.946 1.33 16.906 16.906 0 0 0-1.102 1.706c-0.416 0.722-0.692 1.338-0.876 1.748l-0.104 0.226-0.074 0.174a17.234 17.234 0 0 0-1.216 3.646 17.652 17.652 0 0 0-0.426 2.162l-0.012 0.092-0.01 0.092c-0.076 0.65-0.122 1.308-0.136 1.962a17.622 17.622 0 0 0-0.002 2.128c0.044 0.708 0.128 1.28 0.178 1.624l0.012 0.076 0.052 0.392 0.06 0.328 0.02 0.114c0.088 0.51 0.184 1.008 0.312 1.524 0.232 0.928 0.512 1.694 0.694 2.182a18.552 18.552 0 0 0 1.726 3.622c0.216 0.406 0.568 1.022 1.066 1.7a310.836 310.836 0 0 1 30.408 52.626l0.046 0.102 0.048 0.102c0.166 0.35 0.348 0.704 0.54 1.058l0.518 1.542 1.286 1.296c0.42 0.554 0.88 1.11 1.39 1.674l0.568 0.628 0.366 0.304c0.612 0.598 1.262 1.152 1.974 1.686 0.32 0.256 0.706 0.544 1.168 0.84 0.778 0.524 1.55 0.978 2.334 1.368l0.124 0.082 0.672 0.292a22.126 22.126 0 0 0 3.074 1.1l0.1 0.03 0.378 0.11 0.384 0.086c0.258 0.058 0.516 0.114 0.802 0.172l0.058 0.012 0.058 0.012c0.836 0.16 1.64 0.266 2.442 0.326 0.398 0.044 0.93 0.086 1.54 0.086h0.18c0.894 0 1.696-0.062 2.38-0.14h0.388l1.034-0.182 44.96-7.92a17.092 17.092 0 0 1 19.822 13.864l14.92 84.66c1.634 9.272-4.592 18.154-13.86 19.8l-45.038 7.92a21.956 21.956 0 0 0-18.184 21.658v31.44h-80.008a235.57 235.57 0 0 0 7.888-60.66c0-130.13-105.87-236-236-236s-236 105.87-236 236c0 20.63 2.65 40.968 7.888 60.66H203.84v-31.42c0-10.71-7.648-19.828-18.176-21.678l-45.04-7.94c-4.45-0.784-8.344-3.284-10.984-7.058a16.912 16.912 0 0 1-2.864-12.718l14.944-84.678a17.038 17.038 0 0 1 16.824-14.11c0.988 0 1.99 0.088 2.972 0.26l44.94 7.92 1.114 0.182h0.286c0.842 0.094 1.636 0.14 2.404 0.14h0.2c0.264 0 0.504-0.008 0.716-0.02h0.044l0.46-0.036c0.956-0.074 1.848-0.19 2.722-0.356a14.94 14.94 0 0 0 1.378-0.314c2.362-0.608 4.592-1.6 6.636-2.95 0.42-0.27 0.824-0.564 1.21-0.88a20.32 20.32 0 0 0 2.138-1.86l0.254-0.252 0.116-0.116 0.112-0.118a22.27 22.27 0 0 0 3.992-5.848l0.038-0.082 0.038-0.082c8.28-18.306 18.536-36.034 30.48-52.694l0.12-0.166 0.114-0.17c0.292-0.44 0.52-0.838 0.682-1.14 0.362-0.574 0.668-1.114 0.944-1.666l0.072-0.146 0.068-0.146c0.356-0.76 0.602-1.428 0.78-1.954 0.222-0.608 0.402-1.174 0.554-1.748 0.276-0.97 0.404-1.794 0.478-2.354a19.544 19.544 0 0 0 0.232-4.418l-0.004-0.104a17.148 17.148 0 0 0-0.532-3.732 19.9 19.9 0 0 0-0.49-1.868l-0.14-0.448-0.174-0.432a29.044 29.044 0 0 0-0.648-1.518l-0.058-0.124-0.072-0.144-0.044-0.094a20.2 20.2 0 0 0-0.662-1.288 18.984 18.984 0 0 0-1.118-1.742 13.996 13.996 0 0 0-1.158-1.584l-29.32-34.972c-6.056-7.232-5.118-18.034 2.094-24.082l65.854-55.254a16.852 16.852 0 0 1 10.96-3.966c0.508 0 1.026 0.022 1.506 0.062 4.572 0.4 8.688 2.528 11.592 5.994L351.638 188.6c0.278 0.346 0.576 0.676 0.896 0.994 0.568 0.612 1.296 1.346 2.198 2.076l0.088 0.072 0.09 0.07c0.368 0.286 0.732 0.542 1.1 0.792 0.57 0.4 1.116 0.748 1.658 1.056 0.494 0.294 1.014 0.568 1.574 0.828 0.892 0.428 1.666 0.702 2.144 0.872l0.1 0.036 0.102 0.034c0.558 0.186 1.102 0.344 1.704 0.498 1.002 0.26 2.002 0.442 2.974 0.538l0.148 0.014 0.096 0.008c0.196 0.016 0.464 0.038 0.792 0.056 0.35 0.032 0.804 0.062 1.32 0.062 0.682 0 1.268-0.04 1.75-0.08l0.354-0.03 0.044-0.006a24.01 24.01 0 0 0 3.38-0.602l0.446-0.112 0.348-0.116c0.16-0.048 0.316-0.098 0.47-0.148a19.26 19.26 0 0 0 2.806-1.12 304.68 304.68 0 0 1 57.07-20.764c0.64-0.16 1.16-0.338 1.578-0.496 0.608-0.204 1.184-0.412 1.76-0.65l0.258-0.106 0.252-0.118c0.732-0.342 1.318-0.68 1.738-0.934a19.58 19.58 0 0 0 1.672-1.032l0.076-0.052 0.076-0.054c0.73-0.522 1.292-1.014 1.68-1.366 0.342-0.288 0.792-0.678 1.284-1.17l0.188-0.186 0.178-0.194c0.566-0.618 0.994-1.174 1.28-1.546l0.104-0.138 0.046-0.062c0.33-0.438 0.674-0.914 0.996-1.414l0.062-0.098 0.06-0.098c0.362-0.588 0.636-1.114 0.838-1.514 0.346-0.64 0.662-1.316 0.942-2.016l0.05-0.122 0.046-0.124c0.28-0.746 0.496-1.422 0.674-2.116h0.002c0.096-0.338 0.278-0.966 0.424-1.744l0.022-0.12 0.02-0.12c0.136-0.814 0.194-1.532 0.226-2.056a14.78 14.78 0 0 0 0.098-1.676V106.62c0-9.406 7.662-17.06 17.08-17.06h85.98m0-12H469c-16.04 0-29.08 13.02-29.08 29.06v45.68c0 0.22-0.04 0.44-0.06 0.66-0.02 0.38-0.04 0.74-0.1 1.1-0.06 0.32-0.16 0.62-0.24 0.92a7.096 7.096 0 0 1-0.72 1.82c-0.14 0.28-0.28 0.56-0.44 0.82-0.18 0.28-0.38 0.54-0.56 0.78-0.2 0.26-0.4 0.52-0.62 0.76-0.22 0.22-0.46 0.42-0.7 0.62-0.24 0.22-0.48 0.44-0.76 0.64-0.26 0.18-0.54 0.34-0.84 0.5-0.26 0.16-0.52 0.32-0.82 0.46-0.34 0.14-0.68 0.26-1.04 0.38-0.22 0.06-0.4 0.16-0.64 0.22-20.46 5.2-40.46 12.48-59.42 21.62-0.4 0.2-0.8 0.36-1.22 0.48-0.16 0.06-0.32 0.1-0.5 0.16-0.48 0.12-0.96 0.22-1.44 0.28-0.14 0.02-0.28 0.02-0.42 0.04-0.24 0.02-0.5 0.04-0.76 0.04-0.16 0-0.3-0.02-0.46-0.04-0.24 0-0.46-0.02-0.7-0.04-0.4-0.04-0.8-0.12-1.18-0.22-0.32-0.08-0.6-0.16-0.9-0.26-0.34-0.12-0.68-0.24-1-0.4-0.22-0.1-0.46-0.22-0.68-0.36-0.3-0.16-0.6-0.36-0.88-0.56-0.18-0.12-0.36-0.24-0.54-0.38-0.42-0.34-0.8-0.74-1.16-1.14-0.06-0.06-0.12-0.1-0.16-0.16l-29.34-35c-4.96-5.92-11.98-9.56-19.74-10.24a30.4 30.4 0 0 0-2.554-0.108 28.924 28.924 0 0 0-18.666 6.768L224.8 197.72c-12.28 10.3-13.88 28.68-3.58 40.98l29.36 35.02c0.14 0.16 0.24 0.36 0.36 0.54 0.22 0.3 0.44 0.6 0.62 0.92 0.16 0.28 0.28 0.56 0.42 0.84 0.14 0.3 0.26 0.6 0.38 0.9 0.1 0.32 0.18 0.64 0.24 0.96 0.08 0.32 0.16 0.6 0.2 0.92 0.04 0.32 0.04 0.64 0.06 0.96a7.688 7.688 0 0 1-0.12 1.9c-0.04 0.32-0.08 0.64-0.18 0.96-0.08 0.32-0.18 0.62-0.3 0.94-0.1 0.3-0.2 0.58-0.34 0.88-0.16 0.32-0.36 0.64-0.56 0.94-0.12 0.2-0.2 0.4-0.32 0.58-12.36 17.24-23.02 35.64-31.66 54.74-0.48 1.02-1.1 1.92-1.84 2.7l-0.26 0.26c-0.34 0.34-0.72 0.66-1.12 0.94-0.08 0.08-0.18 0.16-0.28 0.22-0.98 0.66-2.06 1.14-3.2 1.42-0.14 0.04-0.28 0.08-0.42 0.1-0.5 0.1-0.98 0.16-1.5 0.2-0.1 0-0.2 0.02-0.3 0.02h-0.2c-0.54 0-1.1-0.06-1.64-0.14h-0.08l-44.94-7.92a29.21 29.21 0 0 0-5.054-0.442c-13.854 0-26.182 9.958-28.646 24.042l-14.94 84.66c-1.34 7.62 0.38 15.32 4.86 21.7 4.46 6.38 11.12 10.64 18.72 11.98l45.04 7.94a10 10 0 0 1 8.26 9.86v43.42h108.26c-8.02-23.32-12.08-47.7-12.08-72.66 0-123.52 100.48-224 224-224s224 100.48 224 224c0 24.96-4.06 49.34-12.08 72.66h108.2v-43.44c0-4.86 3.48-9 8.26-9.84l45.04-7.92c15.78-2.8 26.38-17.92 23.6-33.7l-14.92-84.66c-2.498-14.1-14.826-24.044-28.664-24.044-1.668 0-3.358 0.144-5.056 0.444l-44.96 7.92h-0.12c-0.54 0.08-1.06 0.14-1.6 0.14h-0.18c-0.14 0-0.28-0.02-0.42-0.04-0.46-0.02-0.9-0.08-1.32-0.16-0.2-0.04-0.38-0.08-0.56-0.12-0.48-0.14-0.98-0.28-1.44-0.48-0.06-0.04-0.12-0.04-0.18-0.08-0.52-0.22-1.02-0.52-1.48-0.84a2.66 2.66 0 0 1-0.38-0.28c-0.36-0.26-0.7-0.54-1.02-0.86-0.1-0.1-0.22-0.22-0.34-0.32-0.38-0.42-0.76-0.88-1.08-1.38-0.02-0.02-0.02-0.06-0.04-0.08-0.24-0.38-0.48-0.8-0.68-1.22a322.82 322.82 0 0 0-31.64-54.74c-0.14-0.18-0.22-0.38-0.32-0.56-0.2-0.32-0.4-0.64-0.56-0.98-0.14-0.28-0.24-0.56-0.34-0.84a9 9 0 0 1-0.32-0.96c-0.08-0.32-0.12-0.62-0.18-0.94-0.04-0.32-0.1-0.64-0.12-0.96-0.02-0.32 0-0.62 0.02-0.92 0-0.34 0.02-0.68 0.06-1.02 0.04-0.3 0.1-0.58 0.18-0.86 0.08-0.34 0.14-0.68 0.26-1 0.1-0.3 0.24-0.58 0.36-0.86 0.14-0.3 0.26-0.6 0.44-0.9 0.16-0.3 0.38-0.58 0.58-0.86 0.14-0.2 0.24-0.4 0.4-0.6l29.38-35c10.28-12.28 8.66-30.68-3.62-41l-65.84-55.22a28.8 28.8 0 0 0-18.662-6.788c-0.848 0-1.702 0.036-2.558 0.108-7.78 0.68-14.78 4.32-19.76 10.22l-29.32 35-0.1 0.1c-0.4 0.46-0.82 0.88-1.28 1.26-0.1 0.06-0.2 0.12-0.3 0.2-0.36 0.28-0.76 0.52-1.16 0.76-0.18 0.08-0.34 0.16-0.5 0.24-0.44 0.22-0.92 0.42-1.38 0.56-0.08 0.02-0.14 0.06-0.22 0.08-0.54 0.14-1.08 0.24-1.64 0.3-0.18 0.02-0.34 0.02-0.5 0.04-0.2 0-0.4 0.04-0.6 0.04-0.3 0-0.62-0.02-0.94-0.06h-0.1c-0.56-0.06-1.12-0.18-1.68-0.34-0.1-0.04-0.22-0.06-0.32-0.1-0.44-0.14-0.88-0.3-1.3-0.5-18.92-9.14-38.92-16.42-59.4-21.62-0.18-0.04-0.36-0.14-0.54-0.18-0.4-0.14-0.8-0.26-1.18-0.44-0.22-0.1-0.44-0.24-0.64-0.34-0.36-0.2-0.72-0.4-1.04-0.64-0.2-0.14-0.38-0.3-0.56-0.46-0.32-0.26-0.62-0.54-0.9-0.84-0.14-0.16-0.26-0.32-0.4-0.48-0.28-0.34-0.54-0.68-0.78-1.06-0.1-0.16-0.18-0.32-0.26-0.48-0.22-0.4-0.42-0.82-0.6-1.26-0.06-0.16-0.1-0.34-0.16-0.52-0.14-0.44-0.26-0.88-0.34-1.34l-0.06-0.62c-0.04-0.34-0.1-0.68-0.1-1.02V106.62c0-16.04-13.04-29.06-29.08-29.06z" opacity=".2" p-id="43709"></path><path d="M449.14 254c-16.74 4.88-32.68 11.7-47.56 20.18l-122.22-122.24 11.3-9.48c5.92-4.96 13.46-7.32 21.22-6.66 7.76 0.68 14.78 4.32 19.74 10.24l29.34 35c0.04 0.06 0.1 0.1 0.16 0.16 0.36 0.4 0.74 0.8 1.16 1.14 0.18 0.14 0.36 0.26 0.54 0.38 0.28 0.2 0.58 0.4 0.88 0.56a8.684 8.684 0 0 0 1.68 0.76c0.3 0.1 0.58 0.18 0.9 0.26 0.38 0.1 0.78 0.18 1.18 0.22 0.24 0.02 0.46 0.04 0.7 0.04 0.16 0.02 0.3 0.04 0.46 0.04 0.26 0 0.52-0.02 0.76-0.04 0.14-0.02 0.28-0.02 0.42-0.04 0.48-0.06 0.96-0.16 1.44-0.28 0.18-0.06 0.34-0.1 0.5-0.16 0.42-0.12 0.82-0.28 1.22-0.48 1.32-0.64 2.62-1.26 3.94-1.86L449.14 254zM736.82 541.66h-12.88a191.06 191.06 0 0 0 3.1-9.78l9.78 9.78zM518.66 245.12c-2.2-0.08-4.42-0.12-6.64-0.12-14.22 0-28.16 1.34-41.64 3.9l-75.02-75.04c12.08-4.72 24.46-8.68 37.02-11.88 0.24-0.06 0.42-0.16 0.64-0.22 0.36-0.12 0.7-0.24 1.04-0.38 0.2-0.1 0.38-0.2 0.56-0.3l84.04 84.04zM815.22 541.66h-52.08l-31-31c2.58-13.64 3.88-27.56 3.88-41.66 0-2.22-0.04-4.44-0.12-6.64l79.32 79.3zM892.58 478.22c-2.22 1.02-4.62 1.8-7.14 2.24l-45.04 7.92a9.98 9.98 0 0 0-8.26 9.84v6.12l-108.34-108.36c-22.42-64.88-73.88-116.34-138.76-138.76l-145.12-145.12v-5.48c0-16.04 13.04-29.06 29.08-29.06h22.94l400.64 400.66z" fill="#FFFFFF" opacity=".4" p-id="43710"></path></svg>