<?xml version="1.0" standalone="no"?><!DOCTYPE svg PUBLIC "-//W3C//DTD SVG 1.1//EN" "http://www.w3.org/Graphics/SVG/1.1/DTD/svg11.dtd"><svg t="1625811895417" class="icon" viewBox="0 0 1024 1024" version="1.1" xmlns="http://www.w3.org/2000/svg" p-id="43067" xmlns:xlink="http://www.w3.org/1999/xlink" width="200" height="200"><defs><style type="text/css"></style></defs><path d="M964 581.26l-67.6-185.74c34.62-17.84 51.48-59.18 37.82-96.72-13.68-37.54-53.16-58.36-91.16-49.78l-67.58-185.72c-4.24-11.62-15.36-19.4-27.7-19.4-3.44 0-6.82 0.6-10.08 1.78l-11.14 4.04c-15.16 5.54-23.04 22.28-17.7 37.46-40.18 71.6-93.06 125.52-138.7 162.96-43.02-16.4-88.26-24.74-134.58-24.74-100.8 0-195.56 39.26-266.82 110.54-71.28 71.22-110.54 166-110.54 266.82 0 50.4 9.82 99.28 28.54 144.48s46.36 86.72 82 122.34c71.26 71.26 166.02 110.52 266.82 110.52 100.76 0 195.52-39.24 266.82-110.52 71.28-71.26 110.54-166 110.54-266.82 0-7.04-0.22-14.18-0.62-21.3 27.84 5.52 56.48 13.4 85.28 24.3 4.3 11.42 15.34 19.1 27.58 19.1 3.42 0 6.82-0.6 10.06-1.78l11.14-4.06c7.4-2.68 13.3-8.1 16.62-15.22 3.34-7.14 3.68-15.14 1-22.54z m-48.58-275.62c9.88 27.16-1.66 56.98-25.94 70.9l-39.5-108.52c27.54-4.96 55.54 10.46 65.44 37.62z m-469.84-60.08c36.36 1 71.94 7.42 106.14 19.16a632.02 632.02 0 0 1-15.88 11.7c-39.54 28.22-73.4 45.68-90.26 53.68v-84.54z m66.24 331.28l-57.04 20.76c-0.02 0-0.04 0-0.08 0.02l-22.96 8.36c-0.02 0-0.04 0-0.06 0.02l-113.4 41.26c-0.04 0.02-0.06 0.04-0.08 0.04-29.3 10.64-60.98 9.24-89.22-3.92-28.28-13.2-49.72-36.6-60.38-65.92-22.04-60.52 9.28-127.66 69.8-149.7l193.52-70.42 79.9 219.5z m6.84 18.78l17.88 49.12-47.72 17.36-17.88-49.1 47.72-17.38z m-93.08-257.26l-154.64 56.28c17.4-42.4 39.96-77.96 65.94-103.68 27.2-26.92 57.68-42.32 88.7-45.06v92.46z m-242.68 11.72c45.94-45.94 102.18-77.82 163.52-93.5a210.04 210.04 0 0 0-23.6 20.16c-31.26 30.92-57.74 74.78-76.82 126.98l-14.44 5.26C160.68 434.78 124 513.42 149.8 584.3c1.04 2.88 2.22 5.7 3.44 8.46H78.38c2.5-91.74 39.38-177.58 104.52-242.68z m0 505.36c-65.14-65.12-102.02-150.96-104.52-242.68h85.7c12.7 19.38 30.14 35.2 51.08 46.08C222.74 745.58 248 825.36 286.6 884c17.88 27.18 38.1 49 59.84 64.94-61.34-15.68-117.6-47.56-163.54-93.5z m242.68 104.2c-93.44-8.16-172.52-129.94-189.5-292.02 13.72 4.48 27.94 6.78 42.18 6.78 12.52 0 25.06-1.78 37.34-5.28l63.24 173.8c0.02 0 0.02 0.02 0.02 0.02 4.84 13.3 13.92 23.82 25.16 30.66 0.26 0.16 0.5 0.34 0.76 0.48 0.78 0.48 1.6 0.88 2.4 1.32 0.56 0.3 1.12 0.62 1.7 0.9 0.52 0.26 1.04 0.46 1.56 0.7 0.88 0.4 1.76 0.82 2.68 1.18 0.22 0.1 0.46 0.16 0.68 0.26 3.78 1.46 7.72 2.56 11.78 3.22v77.98z m18.6-98.2c-0.86 0.2-1.72 0.38-2.58 0.52-0.42 0.06-0.84 0.1-1.26 0.16-0.86 0.12-1.7 0.2-2.56 0.26-0.4 0.02-0.8 0.04-1.22 0.04-0.94 0.04-1.86 0.04-2.8 0-0.24-0.02-0.5-0.02-0.74-0.04-2.5-0.14-4.96-0.5-7.36-1.1-0.04-0.02-0.08-0.02-0.1-0.04-1.12-0.28-2.22-0.62-3.3-1-0.24-0.08-0.48-0.16-0.72-0.26-0.88-0.32-1.76-0.68-2.64-1.08-0.26-0.12-0.54-0.22-0.8-0.36-0.92-0.44-1.82-0.92-2.72-1.42-0.16-0.1-0.32-0.16-0.48-0.26-0.94-0.56-1.88-1.18-2.78-1.82-0.42-0.3-0.84-0.64-1.26-0.96-0.48-0.36-0.96-0.74-1.42-1.14-0.46-0.38-0.9-0.78-1.34-1.18-0.4-0.38-0.8-0.76-1.18-1.14-0.44-0.44-0.88-0.88-1.3-1.34a42.944 42.944 0 0 1-2.92-3.68c-0.4-0.54-0.78-1.08-1.14-1.64-0.28-0.44-0.54-0.9-0.82-1.34-0.36-0.64-0.72-1.3-1.06-1.96-0.22-0.4-0.42-0.8-0.62-1.2-0.48-1.06-0.94-2.12-1.34-3.22-0.02-0.04-0.04-0.1-0.06-0.14l-63.14-173.46 117.64-42.8 21.24 58.38c0.02 0.04 0.02 0.08 0.04 0.12 0.02 0.06 0.04 0.1 0.06 0.16l55.5 152.44-79.98 29.12c-0.08 0.02-0.16 0.04-0.22 0.06-1.14 0.4-2.3 0.76-3.44 1.06-0.4 0.1-0.78 0.16-1.18 0.26z m1.4 20.14h0.08c0.52-0.1 1.04-0.2 1.56-0.32 0.34-0.06 0.7-0.12 1.04-0.2 0.28-0.06 0.56-0.14 0.84-0.2 2.26-0.54 4.52-1.2 6.76-2.02 0.02 0 0.02 0 0.04-0.02l89.32-32.5c5.2-1.9 7.88-7.64 5.98-12.82l-55.54-152.6 57.12-20.78a10.028 10.028 0 0 0 5.98-12.82l-12.58-34.54h92.2c-1.44 92.64-22.94 179.2-60.92 244.74-35.94 61.98-82.44 97.88-131.88 102.16v-78.08z m92.14-292.1c31.48-8.36 133.8-31.1 254.34-11.66 0.34 4.98 0.58 9.98 0.72 14.94H538.9l-1.18-3.28z m150.54 265.96c-45.86 45.84-101.98 77.68-163.16 93.4 25.8-19.02 49.4-46.38 69.66-81.32 39.7-68.5 62.16-158.64 63.62-254.76h134.42c-2.52 91.72-39.4 177.56-104.54 242.68z m116.14-295.8c-0.76-0.24-1.56-0.36-2.38-0.42-62.1-10.76-118.5-10.46-160.78-7.1-53.68 4.28-93.3 13.78-110.42 18.46l-80.32-220.68c16.12-7.4 52.6-25.6 96.46-56.84 50.1-35.68 118.88-95.36 170.8-181.38l170.92 469.6c-28.7-9.82-57.02-16.8-84.28-21.64z m140.48 35.7a9.36 9.36 0 0 1-5.34 4.88l-11.12 4.06c-1.06 0.38-2.14 0.58-3.24 0.58-3.96 0-7.54-2.52-8.9-6.24L727.76 80.66c-1.78-4.9 0.74-10.36 5.66-12.14l11.12-4.04c1.06-0.4 2.14-0.58 3.24-0.58 3.96 0 7.54 2.5 8.9 6.22l70.76 194.46c0.02 0.02 0.02 0.04 0.02 0.06 0.02 0.02 0.02 0.04 0.04 0.06l46.9 128.86v0.04l0.02 0.02 70.78 194.48a9.38 9.38 0 0 1-0.32 7.24z" fill="#23130D" p-id="43068"></path><path d="M944.88 595.34a9.36 9.36 0 0 1-5.34 4.88l-11.12 4.06c-1.06 0.38-2.14 0.58-3.24 0.58-3.96 0-7.54-2.52-8.9-6.24L727.76 80.66c-1.78-4.9 0.74-10.36 5.66-12.14l11.12-4.04c1.06-0.4 2.14-0.58 3.24-0.58 3.96 0 7.54 2.5 8.9 6.22l70.76 194.46c0.02 0.02 0.02 0.04 0.02 0.06 0.02 0.02 0.02 0.04 0.04 0.06l46.9 128.86v0.04l0.02 0.02 70.78 194.48a9.38 9.38 0 0 1-0.32 7.24z" fill="#636368" p-id="43069"></path><path d="M944.88 595.34a9.36 9.36 0 0 1-5.34 4.88l-11.12 4.06c-1.06 0.38-2.14 0.58-3.24 0.58-2.82 0-5.44-1.26-7.2-3.34l3.56-1.3a9.36 9.36 0 0 0 5.34-4.88c1.08-2.3 1.18-4.86 0.32-7.24l-70.78-194.48-0.02-0.02v-0.04l-46.9-128.86c-0.02-0.02-0.02-0.04-0.04-0.06 0-0.02 0-0.04-0.02-0.06l-70.76-194.46c-0.4-1.08-0.98-2.06-1.7-2.9l7.56-2.74c1.06-0.4 2.14-0.58 3.24-0.58 3.96 0 7.54 2.5 8.9 6.22l70.76 194.46c0.02 0.02 0.02 0.04 0.02 0.06 0.02 0.02 0.02 0.04 0.04 0.06l46.9 128.86v0.04l0.02 0.02 70.78 194.48a9.38 9.38 0 0 1-0.32 7.24z" fill="#FFFFFF" opacity=".4" p-id="43070"></path><path d="M889.48 376.54l-39.5-108.52c27.54-4.96 55.54 10.46 65.44 37.62 9.88 27.16-1.66 56.98-25.94 70.9z" fill="#E1E1E5" p-id="43071"></path><path d="M915.42 345.6c-0.4-5.12-1.5-10.26-3.34-15.3-8.46-23.2-30.14-37.84-53.44-38.52l-8.66-23.76c27.54-4.96 55.54 10.46 65.44 37.62a58.254 58.254 0 0 1 0 39.96z" fill="#636368" opacity=".3" p-id="43072"></path><path d="M551.72 264.72a632.02 632.02 0 0 1-15.88 11.7c-39.54 28.22-73.4 45.68-90.26 53.68v-84.54c36.36 1 71.94 7.42 106.14 19.16zM425.58 245.9v92.46l-154.64 56.28c17.4-42.4 39.96-77.96 65.94-103.68 27.2-26.92 57.68-42.32 88.7-45.06z" fill="#3594BF" p-id="43073"></path><path d="M346.42 256.58a210.04 210.04 0 0 0-23.6 20.16c-31.26 30.92-57.74 74.78-76.82 126.98l-14.44 5.26C160.68 434.78 124 513.42 149.8 584.3c1.04 2.88 2.22 5.7 3.44 8.46H78.38c2.5-91.74 39.38-177.58 104.52-242.68 45.94-45.94 102.18-77.82 163.52-93.5zM346.44 948.94c-61.34-15.68-117.6-47.56-163.54-93.5-65.14-65.12-102.02-150.96-104.52-242.68h85.7c12.7 19.38 30.14 35.2 51.08 46.08C222.74 745.58 248 825.36 286.6 884c17.88 27.18 38.1 49 59.84 64.94z" fill="#3594BF" p-id="43074"></path><path d="M346.49 256.58a207.08 207.08 0 0 0-18.72 15.5c-43.18 17.72-82.8 44-116.8 78-65.14 65.1-102.02 150.94-104.52 242.68h-28c2.5-91.74 39.38-177.58 104.52-242.68 45.94-45.94 102.18-77.82 163.52-93.5zM346.51 948.94c-61.34-15.68-117.6-47.56-163.54-93.5-65.14-65.12-102.02-150.96-104.52-242.68h28c2.5 91.72 39.38 177.56 104.52 242.68 34.04 34.04 73.74 60.36 116.96 78.08 6.04 5.64 12.24 10.78 18.58 15.42z" fill="#FFFFFF" opacity=".4" p-id="43075"></path><path d="M425.58 881.66v77.98c-93.44-8.16-172.52-129.94-189.5-292.02 13.72 4.48 27.94 6.78 42.18 6.78 12.52 0 25.06-1.78 37.34-5.28l63.24 173.8c0.02 0 0.02 0.02 0.02 0.02 4.84 13.3 13.92 23.82 25.16 30.66 0.26 0.16 0.5 0.34 0.76 0.48 0.78 0.48 1.6 0.88 2.4 1.32 0.56 0.3 1.12 0.62 1.7 0.9 0.52 0.26 1.04 0.46 1.56 0.7 0.88 0.4 1.76 0.82 2.68 1.18 0.22 0.1 0.46 0.16 0.68 0.26 3.78 1.46 7.72 2.56 11.78 3.22zM792.78 592.76H538.9l-1.18-3.28c31.48-8.36 133.8-31.1 254.34-11.66 0.34 4.98 0.58 9.98 0.72 14.94zM792.8 612.76c-2.52 91.72-39.4 177.56-104.54 242.68-45.86 45.84-101.98 77.68-163.16 93.4 25.8-19.02 49.4-46.38 69.66-81.32 39.7-68.5 62.16-158.64 63.62-254.76h134.42z" fill="#3594BF" p-id="43076"></path><path d="M638.38 612.76c-1.44 92.64-22.94 179.2-60.92 244.74-35.94 61.98-82.44 97.88-131.88 102.16v-78.08h0.08c0.52-0.1 1.04-0.2 1.56-0.32 0.34-0.06 0.7-0.12 1.04-0.2 0.28-0.06 0.56-0.14 0.84-0.2 2.26-0.54 4.52-1.2 6.76-2.02 0.02 0 0.02 0 0.04-0.02l89.32-32.5c5.2-1.9 7.88-7.64 5.98-12.82l-55.54-152.6 57.12-20.78a10.028 10.028 0 0 0 5.98-12.82l-12.58-34.54h92.2z" fill="#3594BF" p-id="43077"></path><path d="M536.54 644.74l-47.72 17.36-17.88-49.1 47.72-17.38z" fill="#3594BF" p-id="43078"></path><path d="M529 830.94l-79.98 29.12c-0.08 0.02-0.16 0.04-0.22 0.06-1.14 0.4-2.3 0.76-3.44 1.06-0.4 0.1-0.78 0.16-1.18 0.26-0.86 0.2-1.72 0.38-2.58 0.52-0.42 0.06-0.84 0.1-1.26 0.16-0.86 0.12-1.7 0.2-2.56 0.26-0.4 0.02-0.8 0.04-1.22 0.04-0.94 0.04-1.86 0.04-2.8 0-0.24-0.02-0.5-0.02-0.74-0.04-2.5-0.14-4.96-0.5-7.36-1.1-0.04-0.02-0.08-0.02-0.1-0.04-1.12-0.28-2.22-0.62-3.3-1-0.24-0.08-0.48-0.16-0.72-0.26-0.88-0.32-1.76-0.68-2.64-1.08-0.26-0.12-0.54-0.22-0.8-0.36-0.92-0.44-1.82-0.92-2.72-1.42-0.16-0.1-0.32-0.16-0.48-0.26-0.94-0.56-1.88-1.18-2.78-1.82-0.42-0.3-0.84-0.64-1.26-0.96-0.48-0.36-0.96-0.74-1.42-1.14-0.46-0.38-0.9-0.78-1.34-1.18-0.4-0.38-0.8-0.76-1.18-1.14-0.44-0.44-0.88-0.88-1.3-1.34a42.944 42.944 0 0 1-2.92-3.68c-0.4-0.54-0.78-1.08-1.14-1.64-0.28-0.44-0.54-0.9-0.82-1.34-0.36-0.64-0.72-1.3-1.06-1.96-0.22-0.4-0.42-0.8-0.62-1.2-0.48-1.06-0.94-2.12-1.34-3.22-0.02-0.04-0.04-0.1-0.06-0.14l-63.14-173.46 117.64-42.8 21.24 58.38c0.02 0.04 0.02 0.08 0.04 0.12 0.02 0.06 0.04 0.1 0.06 0.16l55.5 152.44z" fill="#E1E1E5" p-id="43079"></path><path d="M434.28 861.28c0.36 0.4 0.74 0.78 1.12 1.16-0.54 0.02-1.08 0-1.64-0.02-0.24-0.02-0.5-0.02-0.74-0.04-2.5-0.14-4.96-0.5-7.36-1.1-0.04-0.02-0.08-0.02-0.1-0.04-1.12-0.28-2.22-0.62-3.3-1-0.24-0.08-0.48-0.16-0.72-0.26-0.88-0.32-1.76-0.68-2.64-1.08-0.26-0.12-0.54-0.22-0.8-0.36-0.92-0.44-1.82-0.92-2.72-1.42-0.16-0.1-0.32-0.16-0.48-0.26-0.94-0.56-1.88-1.18-2.78-1.82-0.42-0.3-0.84-0.64-1.26-0.96-0.48-0.36-0.96-0.74-1.42-1.14-0.46-0.38-0.9-0.78-1.34-1.18-0.4-0.38-0.8-0.76-1.18-1.14-0.44-0.44-0.88-0.88-1.3-1.34a42.944 42.944 0 0 1-2.92-3.68c-0.4-0.54-0.78-1.08-1.14-1.64-0.28-0.44-0.54-0.9-0.82-1.34-0.36-0.64-0.72-1.3-1.06-1.96-0.22-0.4-0.42-0.8-0.62-1.2-0.48-1.06-0.94-2.12-1.34-3.22-0.02-0.04-0.04-0.1-0.06-0.14l-63.14-173.46 117.64-42.8 7.2 19.8-96.18 35 63.14 173.46c0.02 0.04 0.04 0.1 0.06 0.14 0.4 1.1 0.86 2.16 1.34 3.22 0.2 0.4 0.4 0.8 0.62 1.2 0.34 0.66 0.7 1.32 1.06 1.96 0.28 0.44 0.54 0.9 0.82 1.34 0.36 0.56 0.74 1.1 1.14 1.64a42.944 42.944 0 0 0 2.92 3.68z" fill="#23130D" opacity=".2" p-id="43080"></path><path d="M511.82 576.84l-57.04 20.76c-0.02 0-0.04 0-0.08 0.02l-22.96 8.36c-0.02 0-0.04 0-0.06 0.02l-113.4 41.26c-0.04 0.02-0.06 0.04-0.08 0.04-29.3 10.64-60.98 9.24-89.22-3.92-28.28-13.2-49.72-36.6-60.38-65.92-22.04-60.52 9.28-127.66 69.8-149.7l193.52-70.42 79.9 219.5z" fill="#EC7063" p-id="43081"></path><path d="M444.44 391.76l-175.88 64c-60.52 22.04-91.84 89.18-69.8 149.7 4 11 9.52 21.16 16.34 30.26-21.42-13.72-37.66-33.96-46.5-58.26-22.04-60.52 9.28-127.66 69.8-149.7l193.52-70.42 12.52 34.42z" fill="#FFFFFF" opacity=".4" p-id="43082"></path><path d="M888.68 581.28c-28.7-9.82-57.02-16.8-84.28-21.64-0.76-0.24-1.56-0.36-2.38-0.42-62.1-10.76-118.5-10.46-160.78-7.1-53.68 4.28-93.3 13.78-110.42 18.46l-80.32-220.68c16.12-7.4 52.6-25.6 96.46-56.84 50.1-35.68 118.88-95.36 170.8-181.38l170.92 469.6z" fill="#E1E1E5" p-id="43083"></path><path d="M888.68 581.28c-0.8-0.28-1.58-0.54-2.38-0.8L726.62 141.74c-51.92 86.02-120.7 145.7-170.8 181.38-42.32 30.14-77.76 48.14-94.68 56.02l-10.64-29.24c16.12-7.4 52.6-25.6 96.46-56.84 50.1-35.68 118.88-95.36 170.8-181.38l170.92 469.6z" fill="#FFFFFF" opacity=".7" p-id="43084"></path><path d="M888.706 581.298c-28.7-9.82-57.02-16.8-84.28-21.64-0.76-0.24-1.56-0.36-2.38-0.42-62.1-10.76-118.5-10.46-160.78-7.1-53.68 4.28-93.3 13.78-110.42 18.46l-80.32-220.68c0.56-0.26 1.16-0.54 1.78-0.82l69.68 191.44c17.12-4.68 56.74-14.18 110.42-18.46 42.28-3.36 98.68-3.66 160.78 7.1 0.82 0.06 1.62 0.18 2.38 0.42 26.5 4.7 54.02 11.44 81.9 20.84l11.24 30.86zM524.92 948.94c61.34-15.68 117.6-47.56 163.54-93.5 65.14-65.12 102.02-150.96 104.52-242.68h-28c-2.5 91.72-39.38 177.56-104.52 242.68-34.04 34.04-73.74 60.36-116.96 78.08-6.04 5.64-12.24 10.78-18.58 15.42z" fill="#23130D" opacity=".2" p-id="43085"></path></svg>