<?xml version="1.0" standalone="no"?><!DOCTYPE svg PUBLIC "-//W3C//DTD SVG 1.1//EN" "http://www.w3.org/Graphics/SVG/1.1/DTD/svg11.dtd"><svg t="1625812322471" class="icon" viewBox="0 0 1024 1024" version="1.1" xmlns="http://www.w3.org/2000/svg" p-id="60854" xmlns:xlink="http://www.w3.org/1999/xlink" width="200" height="200"><defs><style type="text/css"></style></defs><path d="M980.28 866.76h-31.82V355.78c0-42.68-34.74-77.4-77.44-77.4h-64.58V176.48c0-0.08 0-0.14-0.02-0.2 0-0.6-0.04-1.18-0.16-1.76 0-0.02 0-0.02-0.02-0.04-0.1-0.56-0.28-1.1-0.5-1.64-0.06-0.16-0.14-0.32-0.2-0.48-0.18-0.4-0.38-0.78-0.62-1.14-0.08-0.16-0.18-0.3-0.28-0.44a9.14 9.14 0 0 0-1.12-1.38l-104.5-104.5c-0.44-0.44-0.9-0.8-1.38-1.14-0.14-0.1-0.3-0.18-0.44-0.26-0.38-0.24-0.76-0.44-1.14-0.62-0.16-0.08-0.32-0.14-0.48-0.22-0.54-0.2-1.06-0.36-1.62-0.48-0.02 0-0.04-0.02-0.06-0.02-0.58-0.12-1.16-0.16-1.76-0.18-0.06 0-0.12-0.02-0.2-0.02H231.58c-5.54 0-10 4.48-10 10v206.42h-64.6c-42.7 0-77.44 34.72-77.44 77.42v510.96H47.72c-5.52 0-10 4.48-10 10v41.82c0 3.82 2.2 7.32 5.64 9l69 33.44c1.36 0.66 2.86 1.02 4.36 1.02h794.56c1.5 0 3-0.36 4.36-1.02l69-33.44a10.04 10.04 0 0 0 5.64-9v-41.82c0-5.52-4.48-10-10-10zM701.94 96.12l70.36 70.36h-70.36V96.12z m-460.36-14.16h440.36v94.52c0 5.52 4.48 10 10 10h94.5v541.9l-29.98-30a10.006 10.006 0 0 0-14.14 0l-40.02 40-40-40a10.006 10.006 0 0 0-14.14 0l-40 40-40.02-40a10.006 10.006 0 0 0-14.14 0l-40 40-40-40a9.96 9.96 0 0 0-7.08-2.92c-2.56 0-5.12 0.96-7.06 2.92l-40 40-40-40a10.006 10.006 0 0 0-14.14 0l-40.02 40-40-40a10.006 10.006 0 0 0-14.14 0l-29.98 29.98V81.96z m-19.94 671.36c0.02 0.28 0.04 0.56 0.08 0.82 0.06 0.34 0.14 0.66 0.22 0.98 0.06 0.22 0.14 0.44 0.2 0.68 0.12 0.32 0.24 0.64 0.38 0.96 0.06 0.14 0.14 0.24 0.22 0.38 0.32 0.6 0.7 1.18 1.14 1.72 0.14 0.16 0.26 0.32 0.42 0.48 0.12 0.14 0.22 0.3 0.36 0.42l0.02 0.02c0.14 0.14 0.3 0.22 0.44 0.34l0.3 0.24c1.08 0.84 2.28 1.44 3.56 1.78 0.08 0.02 0.16 0.06 0.24 0.08 0.38 0.08 0.78 0.14 1.16 0.2 0.16 0.02 0.32 0.02 0.5 0.04 0.22 0.02 0.44 0.06 0.66 0.06 0.14 0 0.28-0.04 0.4-0.04 0.28 0 0.56-0.04 0.84-0.08 0.46-0.06 0.92-0.14 1.38-0.28 0.34-0.08 0.66-0.18 0.98-0.3 0.12-0.04 0.26-0.06 0.38-0.12 0.2-0.08 0.38-0.2 0.58-0.3 0.08-0.04 0.18-0.1 0.28-0.14 0.34-0.18 0.66-0.4 0.96-0.62 0.1-0.06 0.18-0.12 0.28-0.18 0.3-0.24 0.58-0.48 0.84-0.74a1.1 1.1 0 0 1 0.18-0.14l40-39.98 39.84 39.84c0.98 1.02 2.14 1.8 3.42 2.32 0.04 0.02 0.06 0.02 0.08 0.04 1.16 0.46 2.4 0.74 3.7 0.74h0.08c2.98 0 5.62-1.34 7.46-3.4l39.56-39.54 39.86 39.84c0.98 1.02 2.14 1.8 3.42 2.34 0.02 0 0.04 0 0.06 0.02 1.16 0.46 2.42 0.74 3.72 0.74h0.08c2.96 0 5.62-1.32 7.44-3.38l39.56-39.56 39.9 39.86a9.79 9.79 0 0 0 3.46 2.34c1.16 0.46 2.4 0.74 3.72 0.74h0.08c2.98 0 5.62-1.34 7.44-3.4l39.56-39.54 39.84 39.82c0.98 1.02 2.16 1.82 3.46 2.36 0.02 0 0.04 0 0.04 0.02 1.16 0.46 2.42 0.74 3.72 0.74h0.08c2.98 0 5.64-1.34 7.46-3.4l39.56-39.54 39.82 39.84a10.484 10.484 0 0 0 3.5 2.36c1.16 0.46 2.42 0.74 3.72 0.74h0.08c2.96 0 5.6-1.32 7.44-3.38l39.58-39.56 40 39.98a9.978 9.978 0 0 0 10.9 2.18 10 10 0 0 0 6.16-9.24V351.48h76.02v473.46H145.54V351.48h76.04v400.84c-0.02 0.06-0.04 0.12-0.04 0.2 0 0.28 0.06 0.54 0.1 0.8zM99.54 355.8c0-4.96 0.64-9.76 1.82-14.34 6.38-24.74 28.9-43.08 55.62-43.08h64.6v33.1H135.54c-5.52 0-10 4.48-10 10v493.46c0 5.52 4.48 10 10 10h756.92c5.52 0 10-4.48 10-10V341.48c0-5.52-4.48-10-10-10h-86.02v-33.1h64.58c31.66 0 57.44 25.76 57.44 57.4v510.98H99.54V355.8z m870.74 556.52l-61.3 29.72H119.02l-61.3-29.72v-25.56h912.56v25.56z" fill="#23130D" p-id="60855"></path><path d="M57.72 886.76v25.56l61.3 29.72h789.96l61.3-29.72v-25.56H57.72z m569.18 37.64H401.08c-5.52 0-10-4.48-10-10s4.48-10 10-10h225.82c5.54 0 10 4.48 10 10s-4.46 10-10 10z" fill="#636368" p-id="60856"></path><path d="M908.98 922.04H633.36a10 10 0 0 1-6.46 2.36H401.08a9.88 9.88 0 0 1-6.44-2.36H119.02l-61.3-29.72v20l61.3 29.72h789.96l61.3-29.72v-20l-61.3 29.72z" opacity=".2" p-id="60857"></path><path d="M772.3 166.48h-70.36V96.12z" fill="#E1E1E5" p-id="60858"></path><path d="M772.3 166.48h-26l-44.36-44.36v-26z" opacity=".2" p-id="60859"></path><path d="M928.46 355.78v510.98H99.54V355.8c0-4.96 0.64-9.76 1.82-14.34 6.38-24.74 28.9-43.08 55.62-43.08h64.6v33.1H135.54c-5.52 0-10 4.48-10 10v493.46c0 5.52 4.48 10 10 10h756.92c5.52 0 10-4.48 10-10V341.48c0-5.52-4.48-10-10-10h-86.02v-33.1h64.58c31.66 0 57.44 25.76 57.44 57.4z" fill="#E1E1E5" p-id="60860"></path><path d="M882.46 351.48v473.46H145.54V351.48h76.04v400.84c-0.02 0.06-0.04 0.12-0.04 0.2 0 0.28 0.06 0.54 0.1 0.8 0.02 0.28 0.04 0.56 0.08 0.82 0.06 0.34 0.14 0.66 0.22 0.98 0.06 0.22 0.14 0.44 0.2 0.68 0.12 0.32 0.24 0.64 0.38 0.96 0.06 0.14 0.14 0.24 0.22 0.38 0.32 0.6 0.7 1.18 1.14 1.72 0.14 0.16 0.26 0.32 0.42 0.48 0.12 0.14 0.22 0.3 0.36 0.42l0.02 0.02c0.14 0.14 0.3 0.22 0.44 0.34l0.3 0.24c1.08 0.84 2.28 1.44 3.56 1.78 0.08 0.02 0.16 0.06 0.24 0.08 0.38 0.08 0.78 0.14 1.16 0.2 0.16 0.02 0.32 0.02 0.5 0.04 0.22 0.02 0.44 0.06 0.66 0.06 0.14 0 0.28-0.04 0.4-0.04 0.28 0 0.56-0.04 0.84-0.08 0.46-0.06 0.92-0.14 1.38-0.28 0.34-0.08 0.66-0.18 0.98-0.3 0.12-0.04 0.26-0.06 0.38-0.12 0.2-0.08 0.38-0.2 0.58-0.3 0.08-0.04 0.18-0.1 0.28-0.14 0.34-0.18 0.66-0.4 0.96-0.62 0.1-0.06 0.18-0.12 0.28-0.18 0.3-0.24 0.58-0.48 0.84-0.74a1.1 1.1 0 0 1 0.18-0.14l40-39.98 39.84 39.84c0.98 1.02 2.14 1.8 3.42 2.32 0.04 0.02 0.06 0.02 0.08 0.04 1.16 0.46 2.4 0.74 3.7 0.74h0.08c2.98 0 5.62-1.34 7.46-3.4l13.34-13.34 26.22-26.2 39.86 39.84c0.98 1.02 2.14 1.8 3.42 2.34 0.02 0 0.04 0 0.06 0.02 1.16 0.46 2.42 0.74 3.72 0.74h0.08c2.96 0 5.62-1.32 7.44-3.38l39.56-39.56 39.9 39.86a9.79 9.79 0 0 0 3.46 2.34c1.16 0.46 2.4 0.74 3.72 0.74h0.08c1.84 0 3.54-0.5 5.02-1.4 0.9-0.52 1.72-1.22 2.42-2l39.56-39.54 39.84 39.82c0.98 1.02 2.16 1.82 3.46 2.36 0.02 0 0.04 0 0.04 0.02 0.96 0.38 2 0.64 3.08 0.7 0.2 0.04 0.42 0.04 0.64 0.04h0.08c2.98 0 5.64-1.34 7.46-3.4l39.56-39.54 40.08 40.08a10.326 10.326 0 0 0 3.24 2.12c1.16 0.46 2.42 0.74 3.72 0.74h0.08c2.96 0 5.6-1.32 7.44-3.38l39.58-39.56 40 39.98a9.978 9.978 0 0 0 10.9 2.18 10 10 0 0 0 6.16-9.24V351.48h76.02z" fill="#3594BF" p-id="60861"></path><path d="M872.46 361.48v453.46H155.54V361.48h56.04v390.118c-0.026 0.304-0.04 0.612-0.04 0.922 0 0.85 0.092 1.556 0.166 2.018 0.034 0.384 0.076 0.764 0.13 1.124l0.016 0.108 0.02 0.108c0.102 0.578 0.23 1.124 0.366 1.668l0.026 0.102 0.028 0.102c0.052 0.188 0.108 0.378 0.182 0.616l0.104 0.412 0.2 0.534c0.182 0.484 0.368 0.968 0.55 1.382a11.2 11.2 0 0 0 0.764 1.47c0.594 1.068 1.278 2.078 2.038 3.012l0.09 0.112 0.116 0.132c0.118 0.14 0.236 0.28 0.36 0.42a11.826 11.826 0 0 0 2.33 2.208l0.156 0.126 0.05 0.04 0.052 0.04a19.888 19.888 0 0 0 6.738 3.442c0.218 0.072 0.478 0.15 0.776 0.226l0.18 0.046 0.182 0.038c0.5 0.106 1.022 0.192 1.526 0.272l0.134 0.022 0.164 0.026 0.166 0.02c0.254 0.032 0.508 0.054 0.788 0.072 0.302 0.036 0.886 0.104 1.606 0.104 0.44 0 0.828-0.028 1.15-0.062 0.612-0.034 1.11-0.104 1.456-0.152a18.398 18.398 0 0 0 2.606-0.526c0.478-0.122 0.948-0.262 1.422-0.426 0.38-0.11 0.846-0.268 1.368-0.498a12.92 12.92 0 0 0 1.016-0.498l0.034-0.014 0.466-0.246c0.766-0.406 1.41-0.832 1.886-1.17l0.398-0.238 0.526-0.42c0.32-0.256 0.614-0.504 0.89-0.748l0.254-0.168 0.7-0.7 32.928-32.912 32.712 32.712a19.77 19.77 0 0 0 4.748 3.608l0.274 0.274 1.922 0.762a20.08 20.08 0 0 0 7.466 1.444c5.548 0 10.886-2.364 14.698-6.496l13.17-13.17 19.15-19.136 32.732 32.716a20.074 20.074 0 0 0 4.72 3.6l0.282 0.282 1.616 0.64 0.044 0.018 1.864 0.786h0.412a19.952 19.952 0 0 0 20.166-5.732l32.31-32.31 32.768 32.734a19.768 19.768 0 0 0 4.712 3.592l0.268 0.268 1.922 0.762 0.314 0.122 1.406 0.562h0.294c1.782 0.504 3.604 0.76 5.472 0.76a19.646 19.646 0 0 0 10.116-2.796 19.94 19.94 0 0 0 4.556-3.694l32.328-32.31 32.708 32.692c0.206 0.212 0.418 0.42 0.632 0.622v1.544l6.32 2.502 0.084 0.032 1.562 0.65h0.37c1.224 0.344 2.46 0.57 3.698 0.67 0.756 0.09 1.372 0.09 1.766 0.09a19.976 19.976 0 0 0 14.712-6.51l32.306-32.29 33.01 33.01 0.04 0.04 0.04 0.038a19.95 19.95 0 0 0 4.322 3.204l0.302 0.302 1.922 0.762h0.002l1.612 0.682h0.4c1.782 0.504 3.604 0.76 5.472 0.76 5.546 0 10.874-2.354 14.676-6.474l32.344-32.328 32.928 32.912a19.886 19.886 0 0 0 14.152 5.868c2.572 0 5.114-0.5 7.56-1.486l0.056-0.022 0.054-0.022a19.96 19.96 0 0 0 12.31-18.47V361.48h56.014m10-10h-76.02v401.04a10 10 0 0 1-6.16 9.24 9.978 9.978 0 0 1-10.9-2.18l-40-39.98-39.58 39.56c-1.84 2.06-4.48 3.38-7.44 3.38h-0.08c-1.3 0-2.56-0.28-3.72-0.74-0.02-0.02-0.04-0.02-0.04-0.02-1.18-0.5-2.28-1.2-3.2-2.1l-40.08-40.08-39.56 39.54a9.95 9.95 0 0 1-7.46 3.4h-0.08c-0.22 0-0.44 0-0.64-0.04-1.08-0.06-2.12-0.32-3.08-0.7 0-0.02-0.02-0.02-0.04-0.02-1.3-0.54-2.48-1.34-3.46-2.36l-39.84-39.82-39.56 39.54c-0.7 0.78-1.52 1.48-2.42 2-1.48 0.9-3.18 1.4-5.02 1.4H514c-1.32 0-2.56-0.28-3.72-0.74-0.02-0.02-0.04-0.02-0.04-0.02-1.3-0.52-2.46-1.32-3.42-2.32l-39.9-39.86-39.56 39.56a9.92 9.92 0 0 1-7.44 3.38h-0.08c-1.3 0-2.56-0.28-3.72-0.74-0.02-0.02-0.04-0.02-0.06-0.02-1.28-0.54-2.44-1.32-3.42-2.34l-39.86-39.84-26.22 26.2-13.34 13.34c-1.84 2.06-4.48 3.4-7.46 3.4h-0.08c-1.3 0-2.54-0.28-3.7-0.74-0.02-0.02-0.04-0.02-0.08-0.04-1.28-0.52-2.44-1.3-3.42-2.32l-39.84-39.84-40 39.98a1.1 1.1 0 0 0-0.18 0.14c-0.26 0.26-0.54 0.5-0.84 0.74-0.1 0.06-0.18 0.12-0.28 0.18-0.3 0.22-0.62 0.44-0.96 0.62-0.1 0.04-0.2 0.1-0.28 0.14-0.2 0.1-0.38 0.22-0.58 0.3-0.12 0.06-0.26 0.08-0.38 0.12-0.32 0.12-0.64 0.22-0.98 0.3-0.46 0.14-0.92 0.22-1.38 0.28-0.28 0.04-0.56 0.08-0.84 0.08-0.12 0-0.26 0.04-0.4 0.04-0.22 0-0.44-0.04-0.66-0.06-0.18-0.02-0.34-0.02-0.5-0.04-0.38-0.06-0.78-0.12-1.16-0.2-0.08-0.02-0.16-0.06-0.24-0.08a9.94 9.94 0 0 1-3.56-1.78l-0.3-0.24c-0.14-0.12-0.3-0.2-0.44-0.34l-0.02-0.02c-0.14-0.12-0.24-0.28-0.36-0.42-0.16-0.16-0.28-0.32-0.42-0.48-0.44-0.54-0.82-1.12-1.14-1.72-0.08-0.14-0.16-0.24-0.22-0.38-0.14-0.32-0.26-0.64-0.38-0.96-0.06-0.24-0.14-0.46-0.2-0.68-0.08-0.32-0.16-0.64-0.22-0.98-0.04-0.26-0.06-0.54-0.08-0.82-0.04-0.26-0.1-0.52-0.1-0.8 0-0.08 0.02-0.14 0.04-0.2V351.48H145.54v473.46h736.92V351.48z" opacity=".2" p-id="60862"></path><path d="M691.94 186.48c-5.52 0-10-4.48-10-10V81.96H241.58v646.4l29.98-29.98a10.006 10.006 0 0 1 14.14 0l40 40 40.02-40a10.006 10.006 0 0 1 14.14 0l40 40 40-40a9.88 9.88 0 0 1 7.06-2.92c2.56 0 5.12 0.96 7.08 2.92l40 40 40-40a10.006 10.006 0 0 1 14.14 0l40.02 40 40-40a10.006 10.006 0 0 1 14.14 0l40 40 40.02-40a10.006 10.006 0 0 1 14.14 0l29.98 30V186.48h-94.5z m34.5 267.88c-4.64 6.62-11.54 11.02-19.44 12.4l-15.74 2.78c-0.78 6.62-1.94 13.2-3.44 19.68l13.82 7.98c6.96 4.02 11.94 10.52 14.02 18.3 2.08 7.78 1.02 15.92-3 22.86l-22.14 38.36c-4 6.94-10.5 11.92-18.28 14.02-2.62 0.7-5.26 1.04-7.9 1.04-5.22 0-10.36-1.36-14.98-4.04l-13.86-7.98a179.344 179.344 0 0 1-15.28 12.82l5.48 15.02a29.92 29.92 0 0 1-1.04 23.04c-3.4 7.32-9.44 12.86-16.98 15.6l-41.6 15.14c-3.4 1.22-6.86 1.82-10.28 1.82-12.32 0-23.9-7.62-28.34-19.84l-5.48-15.02c-3.32 0.18-6.64 0.28-9.98 0.28-3.32 0-6.64-0.1-9.98-0.3l-5.48 15.04c-4.44 12.22-16.02 19.84-28.34 19.84-3.42 0-6.88-0.58-10.26-1.82l-41.64-15.16c-7.52-2.72-13.54-8.26-16.96-15.56a29.968 29.968 0 0 1-1.04-23.06l5.48-15.02a179.344 179.344 0 0 1-15.28-12.82l-13.86 8a29.94 29.94 0 0 1-14.98 4.02c-2.64 0-5.28-0.34-7.9-1.04-7.78-2.1-14.28-7.08-18.3-14.04l-22.14-38.34c-4-6.96-5.06-15.08-2.98-22.86 2.08-7.78 7.06-14.3 14.02-18.3l13.8-7.98a185.3 185.3 0 0 1-3.44-19.66l-15.74-2.8c-16.36-2.88-27.32-18.54-24.42-34.9l7.68-43.62c0.46-2.62 1.28-5.18 2.42-7.58a72.58 72.58 0 0 1-7.18-31.56c0-34.2 23.62-62.96 55.4-70.9 0.2-9.44 2.26-18.82 6.06-27.56 13.72-31.46 47.02-48.74 79.96-42.74 8.16-15.54 21.42-27.48 37.9-33.96 18.16-7.14 38.02-6.78 55.9 1.02 10.64 4.64 19.86 11.64 27.12 20.44 1.46-0.76 2.92-1.52 4.42-2.2 36.68-16.6 80.06-0.28 96.7 36.42a72.988 72.988 0 0 1 4.56 46.86c36.5 4.02 65.02 35.04 65.02 72.62 0 11.3-2.58 22-7.18 31.56 1.14 2.4 1.96 4.96 2.42 7.58l7.68 43.62c1.4 7.9-0.38 15.9-5 22.5z" fill="#EC7063" p-id="60863"></path><path d="M691.94 186.48c-5.52 0-10-4.48-10-10V81.96H241.58v10.7h429.66v94.52c0 5.52 4.48 10 10 10h94.5v520.5l10.7 10.7V186.48h-94.5z" opacity=".2" p-id="60864"></path><path d="M636.9 914.4c0 5.52-4.46 10-10 10H401.08c-5.52 0-10-4.48-10-10s4.48-10 10-10h225.82c5.54 0 10 4.48 10 10zM731.44 431.86l-7.68-43.62c-0.46-2.62-1.28-5.18-2.42-7.58a72.58 72.58 0 0 0 7.18-31.56c0-37.58-28.52-68.6-65.02-72.62a72.988 72.988 0 0 0-4.56-46.86c-16.64-36.7-60.02-53.02-96.7-36.42-1.5 0.68-2.96 1.44-4.42 2.2-7.26-8.8-16.48-15.8-27.12-20.44-17.88-7.8-37.74-8.16-55.9-1.02-16.48 6.48-29.74 18.42-37.9 33.96-32.94-6-66.24 11.28-79.96 42.74-3.8 8.74-5.86 18.12-6.06 27.56-31.78 7.94-55.4 36.7-55.4 70.9 0 11.3 2.58 22 7.18 31.56-1.14 2.4-1.96 4.96-2.42 7.58l-7.68 43.62c-2.9 16.36 8.06 32.02 24.42 34.9l15.74 2.8c0.8 6.62 1.94 13.2 3.44 19.66l-13.8 7.98c-6.96 4-11.94 10.52-14.02 18.3-2.08 7.78-1.02 15.9 2.98 22.86l22.14 38.34c4.02 6.96 10.52 11.94 18.3 14.04 2.62 0.7 5.26 1.04 7.9 1.04 5.22 0 10.36-1.36 14.98-4.02l13.86-8c4.86 4.56 9.96 8.84 15.28 12.82l-5.48 15.02c-2.74 7.56-2.38 15.74 1.04 23.06 3.42 7.3 9.44 12.84 16.96 15.56l41.64 15.16c3.38 1.24 6.84 1.82 10.26 1.82 12.32 0 23.9-7.62 28.34-19.84l5.48-15.04c3.34 0.2 6.66 0.3 9.98 0.3 3.34 0 6.66-0.1 9.98-0.28l5.48 15.02c4.44 12.22 16.02 19.84 28.34 19.84 3.42 0 6.88-0.6 10.28-1.82l41.6-15.14c7.54-2.74 13.58-8.28 16.98-15.6a29.92 29.92 0 0 0 1.04-23.04l-5.48-15.02c5.32-3.98 10.42-8.26 15.28-12.82l13.86 7.98c4.62 2.68 9.76 4.04 14.98 4.04 2.64 0 5.28-0.34 7.9-1.04 7.78-2.1 14.28-7.08 18.28-14.02l22.14-38.36c4.02-6.94 5.08-15.08 3-22.86a29.91 29.91 0 0 0-14.02-18.3l-13.82-7.98a181.56 181.56 0 0 0 3.44-19.68l15.74-2.78c7.9-1.38 14.8-5.78 19.44-12.4 4.62-6.6 6.4-14.6 5-22.5z m-362.88-135.84c29.26 0 53.06 23.82 53.06 53.08 0 5.52 4.48 10 10 10 5.54 0 10-4.48 10-10 0-39.48-31.46-71.72-70.62-73.02 0.44-5.98 1.86-11.9 4.28-17.46 10.82-24.86 38.48-37.54 64.32-29.52 1.9 0.6 3.76 1.3 5.54 2.06 13 5.66 23 16.04 28.2 29.24 5.18 13.2 4.92 27.62-0.74 40.62a9.98 9.98 0 0 0 5.16 13.16c1.3 0.56 2.66 0.84 4 0.84a10 10 0 0 0 9.16-6.02c7.8-17.9 8.16-37.76 1.02-55.92-6.7-17.08-19.3-30.74-35.66-38.78 6-9.84 14.92-17.46 25.82-21.74 13.2-5.18 27.62-4.92 40.62 0.74a52.68 52.68 0 0 1 18.9 13.9c-21.86 21.12-28.64 54.4-15.82 82.72a10.01 10.01 0 0 0 13.24 4.98 10.01 10.01 0 0 0 4.98-13.24c-10.32-22.8-3.16-50.04 17.08-64.76 2.9-2.12 6.04-3.96 9.38-5.46 26.64-12.08 58.16-0.22 70.24 26.44 5.64 12.46 6.22 26.52 1.78 39.3-14.6 2.6-28.02 9.56-38.72 20.24-13.8 13.82-21.4 32.16-21.4 51.68 0 5.52 4.46 10 10 10 5.52 0 10-4.48 10-10 0-14.18 5.52-27.5 15.54-37.52 10.02-10.04 23.34-15.56 37.52-15.56 14.64 0 27.9 5.96 37.52 15.56 9.6 9.62 15.56 22.9 15.56 37.52 0 29.26-23.82 53.08-53.08 53.08H370.32c-0.3 0-0.58 0.06-0.88 0.08-0.3-0.02-0.58-0.08-0.88-0.08-29.26 0-53.08-23.82-53.08-53.08s23.82-53.08 53.08-53.08z m341.5 146.88a10.14 10.14 0 0 1-6.54 4.18l-23.18 4.08c-0.28 0.04-0.54 0.16-0.82 0.22-0.28 0.08-0.56 0.14-0.84 0.24-0.36 0.12-0.7 0.3-1.02 0.46-0.26 0.12-0.5 0.24-0.72 0.38-0.32 0.18-0.62 0.4-0.9 0.64a4.2 4.2 0 0 0-0.66 0.52c-0.26 0.22-0.48 0.46-0.7 0.72-0.22 0.24-0.42 0.46-0.62 0.72-0.18 0.24-0.32 0.5-0.48 0.74-0.18 0.3-0.36 0.6-0.52 0.92a15.824 15.824 0 0 0-0.66 1.84c-0.08 0.28-0.1 0.56-0.16 0.86-0.04 0.28-0.12 0.54-0.14 0.84-0.8 10.56-2.62 21.04-5.46 31.14-0.06 0.24-0.06 0.46-0.12 0.7-0.06 0.34-0.14 0.68-0.18 1.02-0.02 0.34-0.02 0.66-0.02 1 0 0.32 0 0.62 0.02 0.94 0.04 0.34 0.1 0.66 0.18 1 0.06 0.3 0.12 0.6 0.2 0.88 0.1 0.32 0.22 0.62 0.34 0.94 0.12 0.28 0.24 0.56 0.38 0.84 0.16 0.3 0.34 0.56 0.52 0.84 0.16 0.26 0.34 0.52 0.54 0.78s0.44 0.5 0.68 0.74c0.22 0.22 0.42 0.44 0.66 0.64 0.28 0.24 0.6 0.44 0.92 0.66 0.18 0.12 0.32 0.26 0.52 0.38l20.36 11.76c2.32 1.34 4 3.52 4.7 6.16 0.7 2.62 0.36 5.36-1 7.68l-22.14 38.36a10.04 10.04 0 0 1-6.14 4.7c-2.64 0.7-5.36 0.34-7.7-1l-20.4-11.76c-0.2-0.12-0.4-0.18-0.62-0.28a11.58 11.58 0 0 0-1-0.46c-0.3-0.1-0.6-0.18-0.9-0.24a5.54 5.54 0 0 0-0.96-0.22c-0.32-0.06-0.64-0.08-0.96-0.1-0.32 0-0.64-0.02-0.96-0.02-0.32 0.02-0.62 0.06-0.94 0.1-0.32 0.04-0.66 0.1-0.98 0.16-0.28 0.08-0.56 0.18-0.86 0.28-0.32 0.1-0.64 0.2-0.96 0.36-0.28 0.12-0.54 0.28-0.82 0.44-0.28 0.16-0.58 0.32-0.84 0.52-0.28 0.2-0.54 0.42-0.8 0.66-0.18 0.16-0.38 0.28-0.54 0.46a162.64 162.64 0 0 1-24.22 20.32c-0.18 0.12-0.34 0.28-0.5 0.42-0.3 0.24-0.58 0.46-0.84 0.72-0.24 0.22-0.44 0.46-0.64 0.7-0.2 0.26-0.42 0.5-0.6 0.76-0.2 0.28-0.34 0.58-0.5 0.86s-0.3 0.54-0.44 0.82c-0.12 0.3-0.22 0.62-0.32 0.94-0.1 0.3-0.2 0.58-0.26 0.9-0.06 0.32-0.1 0.62-0.14 0.94-0.04 0.32-0.08 0.64-0.08 0.96-0.02 0.34 0.02 0.68 0.04 1.02 0.02 0.3 0.04 0.6 0.1 0.9 0.06 0.38 0.16 0.74 0.26 1.1 0.08 0.2 0.1 0.42 0.16 0.64l8.06 22.12c0.92 2.52 0.78 5.28-0.36 7.76a9.992 9.992 0 0 1-5.7 5.24l-41.6 15.14c-5.24 1.9-11.08-0.8-13-6.06l-8.04-22.12c-0.1-0.26-0.26-0.5-0.36-0.74-0.14-0.28-0.24-0.56-0.4-0.8-0.18-0.34-0.4-0.64-0.64-0.96-0.14-0.2-0.3-0.42-0.46-0.62-0.26-0.3-0.54-0.56-0.84-0.82-0.18-0.18-0.36-0.34-0.56-0.5-0.3-0.24-0.62-0.44-0.94-0.64-0.24-0.14-0.46-0.28-0.68-0.4-0.34-0.16-0.68-0.3-1.02-0.42a9.4 9.4 0 0 0-0.8-0.28c-0.34-0.1-0.68-0.16-1.04-0.22-0.3-0.06-0.58-0.1-0.88-0.14-0.34-0.02-0.7 0-1.08 0-0.22 0-0.46-0.02-0.68 0-10.34 1-21.1 1.02-31.64 0-0.22-0.02-0.44 0-0.66 0-0.38 0-0.76-0.02-1.12 0-0.3 0.04-0.58 0.08-0.86 0.14-0.36 0.06-0.7 0.12-1.06 0.22-0.28 0.08-0.54 0.18-0.82 0.3-0.32 0.12-0.66 0.24-0.96 0.4-0.26 0.12-0.52 0.28-0.76 0.44-0.3 0.18-0.58 0.36-0.86 0.58-0.24 0.18-0.44 0.4-0.66 0.6-0.26 0.22-0.5 0.46-0.72 0.72-0.22 0.24-0.4 0.5-0.6 0.76-0.18 0.26-0.36 0.52-0.52 0.78-0.18 0.32-0.34 0.66-0.48 1.02-0.1 0.2-0.22 0.36-0.28 0.58l-8.06 22.12a10.144 10.144 0 0 1-13 6.06l-41.62-15.16c-2.52-0.9-4.52-2.76-5.68-5.22a10.062 10.062 0 0 1-0.36-7.76l8.06-22.12c0.08-0.22 0.1-0.44 0.16-0.66 0.1-0.36 0.2-0.7 0.26-1.06 0.06-0.32 0.08-0.64 0.1-0.96 0.02-0.32 0.06-0.64 0.06-0.96-0.02-0.34-0.06-0.66-0.1-1-0.04-0.3-0.06-0.6-0.14-0.92-0.06-0.32-0.16-0.62-0.26-0.92-0.1-0.3-0.2-0.62-0.32-0.9-0.14-0.3-0.28-0.56-0.44-0.84-0.16-0.3-0.3-0.58-0.5-0.86-0.18-0.26-0.4-0.5-0.6-0.76-0.2-0.24-0.4-0.48-0.64-0.7-0.24-0.26-0.54-0.48-0.82-0.7-0.18-0.16-0.34-0.32-0.52-0.44-8.66-5.92-16.8-12.74-24.2-20.32-0.16-0.16-0.36-0.28-0.52-0.42-0.28-0.26-0.54-0.5-0.84-0.72-0.26-0.18-0.54-0.32-0.8-0.48-0.3-0.16-0.58-0.34-0.88-0.48-0.3-0.12-0.6-0.22-0.92-0.34-0.3-0.1-0.58-0.2-0.9-0.28-0.3-0.06-0.62-0.1-0.92-0.14a8.52 8.52 0 0 0-1-0.12c-0.3 0-0.58 0.02-0.88 0.02-0.36 0.02-0.7 0.04-1.04 0.1-0.3 0.04-0.6 0.12-0.88 0.2-0.34 0.08-0.66 0.16-1 0.28-0.3 0.1-0.6 0.26-0.88 0.4-0.24 0.12-0.48 0.18-0.7 0.32l-20.4 11.78a10.08 10.08 0 0 1-7.68 0.98 10.026 10.026 0 0 1-6.16-4.7l-22.16-38.36a10.08 10.08 0 0 1-0.98-7.68 10.026 10.026 0 0 1 4.7-6.16l20.36-11.76c0.2-0.12 0.36-0.28 0.54-0.4 0.3-0.2 0.6-0.4 0.88-0.64 0.26-0.2 0.46-0.44 0.7-0.66 0.22-0.24 0.44-0.46 0.64-0.72 0.22-0.26 0.4-0.54 0.58-0.82 0.16-0.26 0.34-0.5 0.48-0.78 0.16-0.3 0.28-0.6 0.4-0.9 0.12-0.3 0.24-0.58 0.34-0.88 0.08-0.32 0.14-0.62 0.2-0.94 0.06-0.32 0.14-0.62 0.16-0.96 0.04-0.32 0.04-0.66 0.04-0.98-0.02-0.32 0-0.62-0.04-0.94-0.02-0.36-0.1-0.72-0.18-1.1-0.06-0.2-0.06-0.42-0.12-0.64a159.34 159.34 0 0 1-5.44-31.14c-0.02-0.24-0.1-0.44-0.12-0.68-0.06-0.34-0.1-0.7-0.2-1.06-0.08-0.32-0.2-0.62-0.3-0.92-0.12-0.3-0.22-0.6-0.36-0.88-0.14-0.32-0.32-0.62-0.52-0.92-0.14-0.24-0.28-0.48-0.46-0.72a13.04 13.04 0 0 0-0.68-0.8c-0.2-0.22-0.38-0.42-0.6-0.62-0.26-0.24-0.56-0.46-0.86-0.68-0.22-0.16-0.42-0.32-0.66-0.46-0.34-0.22-0.72-0.4-1.08-0.58-0.22-0.08-0.42-0.18-0.62-0.26-0.44-0.18-0.9-0.3-1.38-0.4-0.14-0.02-0.26-0.08-0.4-0.1l-0.42-0.08c-0.02 0-0.04-0.02-0.08-0.02l-22.7-4a10.162 10.162 0 0 1-8.22-11.74l5.9-33.44c13.12 12.54 30.88 20.28 50.42 20.28 0.3 0 0.58-0.08 0.88-0.1 0.3 0.02 0.58 0.1 0.88 0.1h285.12c19.54 0 37.3-7.74 50.42-20.26l5.9 33.42c0.46 2.64-0.14 5.32-1.7 7.56z" fill="#23130D" p-id="60865"></path><path d="M711.76 435.34l-5.9-33.42c-13.12 12.52-30.88 20.26-50.42 20.26H370.32c-0.3 0-0.58-0.08-0.88-0.1-0.3 0.02-0.58 0.1-0.88 0.1-19.54 0-37.3-7.74-50.42-20.28l-5.9 33.44a10.162 10.162 0 0 0 8.22 11.74l22.7 4c0.04 0 0.06 0.02 0.08 0.02l0.42 0.08c0.14 0.02 0.26 0.08 0.4 0.1 0.48 0.1 0.94 0.22 1.38 0.4 0.2 0.08 0.4 0.18 0.62 0.26 0.36 0.18 0.74 0.36 1.08 0.58 0.24 0.14 0.44 0.3 0.66 0.46 0.3 0.22 0.6 0.44 0.86 0.68 0.22 0.2 0.4 0.4 0.6 0.62 0.24 0.26 0.46 0.52 0.68 0.8 0.18 0.24 0.32 0.48 0.46 0.72 0.2 0.3 0.38 0.6 0.52 0.92 0.14 0.28 0.24 0.58 0.36 0.88 0.1 0.3 0.22 0.6 0.3 0.92 0.1 0.36 0.14 0.72 0.2 1.06 0.02 0.24 0.1 0.44 0.12 0.68a159.34 159.34 0 0 0 5.44 31.14c0.06 0.22 0.06 0.44 0.12 0.64 0.08 0.38 0.16 0.74 0.18 1.1 0.04 0.32 0.02 0.62 0.04 0.94 0 0.32 0 0.66-0.04 0.98-0.02 0.34-0.1 0.64-0.16 0.96-0.06 0.32-0.12 0.62-0.2 0.94-0.1 0.3-0.22 0.58-0.34 0.88-0.12 0.3-0.24 0.6-0.4 0.9-0.14 0.28-0.32 0.52-0.48 0.78-0.18 0.28-0.36 0.56-0.58 0.82-0.2 0.26-0.42 0.48-0.64 0.72-0.24 0.22-0.44 0.46-0.7 0.66-0.28 0.24-0.58 0.44-0.88 0.64-0.18 0.12-0.34 0.28-0.54 0.4l-20.36 11.76c-2.32 1.34-4 3.52-4.7 6.16a10.08 10.08 0 0 0 0.98 7.68l22.16 38.36c1.34 2.32 3.52 4 6.16 4.7 2.62 0.7 5.36 0.36 7.68-0.98l20.4-11.78c0.22-0.14 0.46-0.2 0.7-0.32 0.28-0.14 0.58-0.3 0.88-0.4 0.34-0.12 0.66-0.2 1-0.28 0.28-0.08 0.58-0.16 0.88-0.2 0.34-0.06 0.68-0.08 1.04-0.1 0.3 0 0.58-0.02 0.88-0.02 0.34 0.02 0.66 0.06 1 0.12 0.3 0.04 0.62 0.08 0.92 0.14 0.32 0.08 0.6 0.18 0.9 0.28 0.32 0.12 0.62 0.22 0.92 0.34 0.3 0.14 0.58 0.32 0.88 0.48 0.26 0.16 0.54 0.3 0.8 0.48 0.3 0.22 0.56 0.46 0.84 0.72 0.16 0.14 0.36 0.26 0.52 0.42 7.4 7.58 15.54 14.4 24.2 20.32 0.18 0.12 0.34 0.28 0.52 0.44 0.28 0.22 0.58 0.44 0.82 0.7 0.24 0.22 0.44 0.46 0.64 0.7 0.2 0.26 0.42 0.5 0.6 0.76 0.2 0.28 0.34 0.56 0.5 0.86 0.16 0.28 0.3 0.54 0.44 0.84 0.12 0.28 0.22 0.6 0.32 0.9 0.1 0.3 0.2 0.6 0.26 0.92 0.08 0.32 0.1 0.62 0.14 0.92 0.04 0.34 0.08 0.66 0.1 1 0 0.32-0.04 0.64-0.06 0.96-0.02 0.32-0.04 0.64-0.1 0.96-0.06 0.36-0.16 0.7-0.26 1.06-0.06 0.22-0.08 0.44-0.16 0.66l-8.06 22.12c-0.92 2.52-0.8 5.28 0.36 7.76 1.16 2.46 3.16 4.32 5.68 5.22l41.62 15.16c5.26 1.92 11.08-0.8 13-6.06l8.06-22.12c0.06-0.22 0.18-0.38 0.28-0.58 0.14-0.36 0.3-0.7 0.48-1.02 0.16-0.26 0.34-0.52 0.52-0.78 0.2-0.26 0.38-0.52 0.6-0.76 0.22-0.26 0.46-0.5 0.72-0.72 0.22-0.2 0.42-0.42 0.66-0.6 0.28-0.22 0.56-0.4 0.86-0.58 0.24-0.16 0.5-0.32 0.76-0.44 0.3-0.16 0.64-0.28 0.96-0.4 0.28-0.12 0.54-0.22 0.82-0.3 0.36-0.1 0.7-0.16 1.06-0.22 0.28-0.06 0.56-0.1 0.86-0.14 0.36-0.02 0.74 0 1.12 0 0.22 0 0.44-0.02 0.66 0 10.54 1.02 21.3 1 31.64 0 0.22-0.02 0.46 0 0.68 0 0.38 0 0.74-0.02 1.08 0 0.3 0.04 0.58 0.08 0.88 0.14 0.36 0.06 0.7 0.12 1.04 0.22 0.28 0.08 0.54 0.18 0.8 0.28 0.34 0.12 0.68 0.26 1.02 0.42 0.22 0.12 0.44 0.26 0.68 0.4 0.32 0.2 0.64 0.4 0.94 0.64 0.2 0.16 0.38 0.32 0.56 0.5 0.3 0.26 0.58 0.52 0.84 0.82 0.16 0.2 0.32 0.42 0.46 0.62 0.24 0.32 0.46 0.62 0.64 0.96 0.16 0.24 0.26 0.52 0.4 0.8 0.1 0.24 0.26 0.48 0.36 0.74l8.04 22.12a10.168 10.168 0 0 0 13 6.06l41.6-15.14a9.992 9.992 0 0 0 5.7-5.24c1.14-2.48 1.28-5.24 0.36-7.76l-8.06-22.12c-0.06-0.22-0.08-0.44-0.16-0.64-0.1-0.36-0.2-0.72-0.26-1.1-0.06-0.3-0.08-0.6-0.1-0.9-0.02-0.34-0.06-0.68-0.04-1.02 0-0.32 0.04-0.64 0.08-0.96 0.04-0.32 0.08-0.62 0.14-0.94 0.06-0.32 0.16-0.6 0.26-0.9 0.1-0.32 0.2-0.64 0.32-0.94 0.14-0.28 0.28-0.54 0.44-0.82s0.3-0.58 0.5-0.86c0.18-0.26 0.4-0.5 0.6-0.76 0.2-0.24 0.4-0.48 0.64-0.7 0.26-0.26 0.54-0.48 0.84-0.72 0.16-0.14 0.32-0.3 0.5-0.42a162.64 162.64 0 0 0 24.22-20.32c0.16-0.18 0.36-0.3 0.54-0.46 0.26-0.24 0.52-0.46 0.8-0.66 0.26-0.2 0.56-0.36 0.84-0.52 0.28-0.16 0.54-0.32 0.82-0.44 0.32-0.16 0.64-0.26 0.96-0.36 0.3-0.1 0.58-0.2 0.86-0.28 0.32-0.06 0.66-0.12 0.98-0.16 0.32-0.04 0.62-0.08 0.94-0.1 0.32 0 0.64 0.02 0.96 0.02 0.32 0.02 0.64 0.04 0.96 0.1 0.32 0.04 0.64 0.12 0.96 0.22 0.3 0.06 0.6 0.14 0.9 0.24 0.36 0.14 0.68 0.3 1 0.46 0.22 0.1 0.42 0.16 0.62 0.28l20.4 11.76c2.34 1.34 5.06 1.7 7.7 1a10.04 10.04 0 0 0 6.14-4.7l22.14-38.36c1.36-2.32 1.7-5.06 1-7.68a10.026 10.026 0 0 0-4.7-6.16l-20.36-11.76c-0.2-0.12-0.34-0.26-0.52-0.38-0.32-0.22-0.64-0.42-0.92-0.66-0.24-0.2-0.44-0.42-0.66-0.64-0.24-0.24-0.48-0.48-0.68-0.74s-0.38-0.52-0.54-0.78c-0.18-0.28-0.36-0.54-0.52-0.84-0.14-0.28-0.26-0.56-0.38-0.84-0.12-0.32-0.24-0.62-0.34-0.94-0.08-0.28-0.14-0.58-0.2-0.88-0.08-0.34-0.14-0.66-0.18-1-0.02-0.32-0.02-0.62-0.02-0.94 0-0.34 0-0.66 0.02-1 0.04-0.34 0.12-0.68 0.18-1.02 0.06-0.24 0.06-0.46 0.12-0.7a159.894 159.894 0 0 0 5.46-31.14c0.02-0.3 0.1-0.56 0.14-0.84 0.06-0.3 0.08-0.58 0.16-0.86 0.1-0.36 0.22-0.7 0.34-1.04 0.1-0.28 0.2-0.54 0.32-0.8 0.16-0.32 0.34-0.62 0.52-0.92 0.16-0.24 0.3-0.5 0.48-0.74 0.2-0.26 0.4-0.48 0.62-0.72 0.22-0.26 0.44-0.5 0.7-0.72 0.2-0.2 0.42-0.36 0.66-0.52 0.28-0.24 0.58-0.46 0.9-0.64 0.22-0.14 0.46-0.26 0.72-0.38 0.32-0.16 0.66-0.34 1.02-0.46 0.28-0.1 0.56-0.16 0.84-0.24 0.28-0.06 0.54-0.18 0.82-0.22l23.18-4.08a10.14 10.14 0 0 0 6.54-4.18c1.56-2.24 2.16-4.92 1.7-7.56zM512 552.4c-58.58 0-106.24-47.66-106.24-106.24 0-5.52 4.48-10 10-10s10 4.48 10 10c0 47.56 38.68 86.24 86.24 86.24s86.24-38.68 86.24-86.24c0-5.52 4.48-10 10-10s10 4.48 10 10c0 58.58-47.66 106.24-106.24 106.24z" fill="#E1E1E5" p-id="60866"></path><path d="M711.76 435.34l-5.9-33.42c-13.12 12.52-30.88 20.26-50.42 20.26H370.32c-0.3 0-0.58-0.08-0.88-0.1-0.3 0.02-0.58 0.1-0.88 0.1-19.54 0-37.3-7.74-50.42-20.28l-5.9 33.44c-0.44 2.48 0.08 4.92 1.28 6.92l4.62-26.24c13.12 12.54 30.88 20.28 50.42 20.28 0.3 0 0.58-0.08 0.88-0.1 0.3 0.02 0.58 0.1 0.88 0.1h43.84c0.52-0.1 1.06-0.14 1.6-0.14s1.08 0.04 1.6 0.14h189.28c0.52-0.1 1.06-0.14 1.6-0.14s1.08 0.04 1.6 0.14h45.6c19.54 0 37.3-7.74 50.42-20.26l4.62 26.22c1.24-2.1 1.7-4.52 1.28-6.92z" opacity=".2" p-id="60867"></path><path d="M708.52 349.1c0 29.26-23.82 53.08-53.08 53.08H370.32c-0.3 0-0.58 0.06-0.88 0.08-0.3-0.02-0.58-0.08-0.88-0.08-29.26 0-53.08-23.82-53.08-53.08s23.82-53.08 53.08-53.08c29.26 0 53.06 23.82 53.06 53.08 0 5.52 4.48 10 10 10 5.54 0 10-4.48 10-10 0-39.48-31.46-71.72-70.62-73.02 0.44-5.98 1.86-11.9 4.28-17.46 10.82-24.86 38.48-37.54 64.32-29.52 1.9 0.6 3.76 1.3 5.54 2.06 13 5.66 23 16.04 28.2 29.24 5.18 13.2 4.92 27.62-0.74 40.62a9.98 9.98 0 0 0 5.16 13.16c1.3 0.56 2.66 0.84 4 0.84a10 10 0 0 0 9.16-6.02c7.8-17.9 8.16-37.76 1.02-55.92-6.7-17.08-19.3-30.74-35.66-38.78 6-9.84 14.92-17.46 25.82-21.74 13.2-5.18 27.62-4.92 40.62 0.74a52.68 52.68 0 0 1 18.9 13.9c-21.86 21.12-28.64 54.4-15.82 82.72a10.01 10.01 0 0 0 13.24 4.98 10.01 10.01 0 0 0 4.98-13.24c-10.32-22.8-3.16-50.04 17.08-64.76 2.9-2.12 6.04-3.96 9.38-5.46 26.64-12.08 58.16-0.22 70.24 26.44 5.64 12.46 6.22 26.52 1.78 39.3-14.6 2.6-28.02 9.56-38.72 20.24-13.8 13.82-21.4 32.16-21.4 51.68 0 5.52 4.46 10 10 10 5.52 0 10-4.48 10-10 0-14.18 5.52-27.5 15.54-37.52 10.02-10.04 23.34-15.56 37.52-15.56 14.64 0 27.9 5.96 37.52 15.56 9.6 9.62 15.56 22.9 15.56 37.52z" fill="#F8D3C9" p-id="60868"></path><path d="M708.52 349.1c0 29.26-23.82 53.08-53.08 53.08H370.32c-0.3 0-0.58 0.06-0.88 0.08-0.3-0.02-0.58-0.08-0.88-0.08-29.26 0-53.08-23.82-53.08-53.08 0-3.84 0.4-7.58 1.2-11.18 5.14 23.9 26.46 41.88 51.88 41.88 0.3 0 0.58 0.06 0.88 0.08 0.3-0.02 0.58-0.08 0.88-0.08h285.12c25.42 0 46.74-17.98 51.88-41.88 0.8 3.62 1.2 7.36 1.2 11.18z" opacity=".2" p-id="60869"></path><path d="M618.24 446.16c0 58.58-47.66 106.24-106.24 106.24s-106.24-47.66-106.24-106.24c0-5.52 4.48-10 10-10s10 4.48 10 10c0 47.56 38.68 86.24 86.24 86.24s86.24-38.68 86.24-86.24c0-5.52 4.48-10 10-10s10 4.48 10 10z" fill="#23130D" p-id="60870"></path><path d="M145.54 431.58l76.04 76.04v113.2l-76.04-76.04zM538.9 824.94h-113.2l-79.14-79.14 26.22-26.2 39.86 39.84c0.98 1.02 2.14 1.8 3.42 2.34 0.02 0 0.04 0 0.06 0.02 1.16 0.46 2.42 0.74 3.72 0.74h0.08c2.96 0 5.62-1.32 7.44-3.38l22.88-22.88 88.66 88.66zM196.48 351.48l25.1 25.1v87.04l-76.04-76.04v-36.1zM669.94 824.94h-87.04l-63.8-63.8c0.9-0.52 1.72-1.22 2.42-2l39.56-39.54 39.84 39.82c0.98 1.02 2.16 1.82 3.46 2.36 0.02 0 0.04 0 0.04 0.02 0.96 0.38 2 0.64 3.08 0.7l62.44 62.44zM882.46 802.18v22.76h-121.88l-65.26-65.26a10.326 10.326 0 0 0 3.24 2.12c1.16 0.46 2.42 0.74 3.72 0.74h0.08c2.96 0 5.6-1.32 7.44-3.38l39.58-39.56 40 39.98a9.978 9.978 0 0 0 10.9 2.18 10 10 0 0 0 6.16-9.24v-26.36l76.02 76.02z" fill="#FFFFFF" opacity=".4" p-id="60871"></path><path d="M99.54 854.334h828.92v12.426H99.54z" opacity=".2" p-id="60872"></path></svg>