<?xml version="1.0" standalone="no"?><!DOCTYPE svg PUBLIC "-//W3C//DTD SVG 1.1//EN" "http://www.w3.org/Graphics/SVG/1.1/DTD/svg11.dtd"><svg t="1625811904805" class="icon" viewBox="0 0 1024 1024" version="1.1" xmlns="http://www.w3.org/2000/svg" p-id="43393" xmlns:xlink="http://www.w3.org/1999/xlink" width="200" height="200"><defs><style type="text/css"></style></defs><path d="M943.34 792.16h-60.76V704.8c15.3-9.6 49.42-32.46 51-69.12 1.32-30.56-20.36-62.82-64.44-95.88-73.86-55.4-101.8-112.86-112.34-146.56 15.02 7.3 36.2 12.68 63.5 18.14 47.86 9.58 74.52 43.16 74.76 43.48a9.996 9.996 0 0 0 12.64 2.7l58.7-31.44a10.014 10.014 0 0 0 5.24-9.68l-5.24-60.78a9.94 9.94 0 0 0-4.42-7.46c-48.06-32.06-103.62-113.86-104.16-114.68a10.194 10.194 0 0 0-4.74-3.76l-65.4-24.86 15.76-46.42a10.06 10.06 0 0 0-1.1-8.7 10.04 10.04 0 0 0-7.54-4.48c-48.5-4.04-77.98 40.5-86.14 54.78-12.3 3.12-24.12 6.8-35.44 11-68.92-56.3-155.72-87.24-245.12-87.24-103.68 0-201.14 40.38-274.46 113.7-73.3 73.28-113.66 170.74-113.68 274.44v0.06c0.02 103.68 40.38 201.14 113.68 274.42 73.32 73.3 170.78 113.68 274.42 113.68 0.02 0 0.04 0.02 0.04 0.02h54.26c0.02 0 0.06-0.02 0.1-0.02h491.58c5.52 0 10-4.48 10-10v-57.28c0-22.44-18.26-40.7-40.7-40.7zM167.78 251.68c47.62-47.62 105.98-80.58 169.62-96.62-27.02 19.56-51.74 48.04-72.9 84.54-40.9 70.56-64 163.4-65.46 262.42H60.1c2.52-94.64 40.52-183.2 107.68-250.34z m0 520.64c-67.16-67.14-105.16-155.7-107.68-250.3h138.94c1.46 99 24.56 191.84 65.46 262.38 21.14 36.5 45.86 64.96 72.88 84.54-63.62-16.06-121.98-49.02-169.6-96.62z m250.32 107.38c-51.12-4.28-99.2-41.3-136.3-105.32-39.16-67.56-61.3-156.84-62.76-252.36h199.06v357.68z m0-377.68h-199.06c1.44-95.52 23.6-184.82 62.76-252.38 37.1-64.04 85.18-101.06 136.3-105.34v357.72z m299.62-283.58a10.004 10.004 0 0 0 6.6-5.3c0.24-0.46 20.72-41 55.48-47.28l-14.16 41.74c-1.74 5.1 0.88 10.64 5.9 12.56l71.5 27.18c10 14.48 58.12 82.22 103.84 114.72l4.26 49.54-45.9 24.6c-11.2-11.72-38.68-35.96-81-44.42-49.76-9.96-70.56-18.58-74.14-30.76a9.994 9.994 0 0 0-11.18-7.04 10 10 0 0 0-8.4 10.2c0.14 4.04 4.7 100.18 126.62 191.62 38.48 28.86 57.48 55.44 56.46 79.02-1.22 27.86-30.94 46.38-43.64 54.28-1.04 0.64-1.96 1.22-2.76 1.74-0.02 0.02-0.04 0.04-0.06 0.04-0.44 0.28-0.84 0.62-1.22 0.96-0.1 0.1-0.24 0.18-0.34 0.28-0.38 0.38-0.7 0.78-1.02 1.22-0.06 0.08-0.16 0.18-0.22 0.28-0.34 0.48-0.62 0.98-0.86 1.52-0.02 0.06-0.06 0.1-0.08 0.16-0.18 0.42-0.3 0.88-0.44 1.36-0.04 0.16-0.12 0.32-0.14 0.48-0.08 0.32-0.1 0.66-0.12 1-0.04 0.34-0.1 0.66-0.1 0.98 0 0.04-0.02 0.1-0.02 0.14v92.9h-23.64v-91.24c0-5.52-4.46-10-10-10-5.52 0-10 4.48-10 10v91.24h-26.5v-91.24c0-5.52-4.46-10-10-10-5.52 0-10 4.48-10 10v91.24h-26.5v-91.24c0-5.52-4.48-10-10-10s-10 4.48-10 10v91.24h-26.5v-91.24c0-5.52-4.48-10-10-10s-10 4.48-10 10v91.24h-26.5v-91.24c0-5.52-4.48-10-10-10s-10 4.48-10 10v91.24h-27.08v-92.9c0-0.08-0.02-0.14-0.02-0.22 0-0.38-0.06-0.74-0.12-1.1-0.02-0.3-0.06-0.6-0.12-0.88-0.06-0.32-0.18-0.62-0.28-0.92-0.1-0.32-0.2-0.62-0.32-0.92-0.14-0.28-0.3-0.56-0.46-0.82-0.16-0.3-0.3-0.58-0.48-0.86-0.18-0.24-0.4-0.48-0.6-0.72-0.22-0.26-0.42-0.52-0.66-0.74-0.2-0.2-0.44-0.38-0.66-0.56-0.3-0.24-0.6-0.48-0.92-0.68-0.06-0.04-0.1-0.08-0.16-0.12l-84.44-51.26c-5.9-27.1-36.72-188.04 34.04-304.9 35.64-58.84 91.84-97.92 167.06-116.12z m-65.66 1.36c-19.54 8.9-37.42 19.56-53.66 31.94-22.34-42.02-49.54-74.72-79.62-96.54 48.16 12.24 93.6 34.14 133.28 64.6zM438.1 144.32c55.06 4.68 107.04 47.88 144.56 120.44-19.08 17.12-35.5 36.98-49.16 59.54-34.62 57.2-45.96 123.54-48.3 177.72h-47.1V144.32z m34.26 688.54v47.3h-34.26V522.02h46.64c-0.04 5.34 0.02 10.56 0.14 15.56 1.46 62.9 12.76 108.74 13.24 110.66a10.104 10.104 0 0 0 4.5 6.12l83.24 50.52v87.28h-72.82c-22.44 0-40.68 18.26-40.68 40.7z m491.68 47.28H492.36v-47.28c0-11.42 9.28-20.7 20.68-20.7H943.34c2.6 0 5.06 0.5 7.34 1.38 5.2 1.98 9.4 5.98 11.62 11.04 0.02 0.08 0.08 0.14 0.1 0.22l0.12 0.3c0.96 2.4 1.52 5.02 1.52 7.76v47.28z" fill="#23130D" p-id="43394"></path><path d="M652.06 219.8c-6.2 2.82-12.2 5.8-18.06 8.98-12.64 6.84-24.5 14.5-35.6 22.96-22.34-42.02-49.54-74.72-79.62-96.54 0.1 0.02 0.22 0.06 0.32 0.08 48.04 12.26 93.36 34.12 132.96 64.52zM582.66 264.76c-7.76 6.96-15.1 14.38-21.96 22.26-10.02 11.48-19.1 23.9-27.2 37.28-34.62 57.2-45.96 123.54-48.3 177.72h-47.1V144.32c46.46 3.94 90.72 35.32 125.96 88.62 0.64 0.98 1.3 1.98 1.94 2.98 1.96 3 3.86 6.08 5.74 9.24 1.16 1.92 2.3 3.86 3.42 5.84 0.32 0.52 0.62 1.06 0.9 1.58 1.02 1.78 2.04 3.6 3.04 5.44 0.62 1.12 1.22 2.24 1.8 3.36 0.58 1.12 1.18 2.24 1.76 3.38zM418.1 144.3v357.72h-199.06c1.44-95.52 23.6-184.82 62.76-252.38 37.1-64.04 85.18-101.06 136.3-105.34z" fill="#3594BF" p-id="43395"></path><path d="M337.4 155.06c-27.02 19.56-51.74 48.04-72.9 84.54-40.9 70.56-64 163.4-65.46 262.42H60.1c2.52-94.64 40.52-183.2 107.68-250.34 47.62-47.62 105.98-80.58 169.62-96.62zM337.38 868.94c-63.62-16.06-121.98-49.02-169.6-96.62-67.16-67.14-105.16-155.7-107.68-250.3h138.94c1.46 99 24.56 191.84 65.46 262.38 21.14 36.5 45.86 64.96 72.88 84.54z" fill="#3594BF" p-id="43396"></path><path d="M418.1 522.02v357.68c-51.12-4.28-99.2-41.3-136.3-105.32-39.16-67.56-61.3-156.84-62.76-252.36h199.06z" fill="#3594BF" p-id="43397"></path><path d="M337.4 155.06c-6.66 4.82-13.2 10.18-19.56 16.08-44.62 18.26-85.6 45.42-120.72 80.54-67.16 67.14-105.16 155.7-107.68 250.34H60.1c2.52-94.64 40.52-183.2 107.68-250.34 47.62-47.62 105.98-80.58 169.62-96.62zM337.38 868.94c-63.62-16.06-121.98-49.02-169.6-96.62-67.16-67.14-105.16-155.7-107.68-250.3h29.34c2.52 94.6 40.52 183.16 107.68 250.3 35.12 35.12 76.1 62.26 120.72 80.52 6.36 5.9 12.88 11.28 19.54 16.1zM418.1 144.3v7.32c-38.74 14.24-74.56 47.84-103.64 98.02-39.16 67.56-61.32 156.86-62.76 252.38h-32.66c1.44-95.52 23.6-184.82 62.76-252.38 37.1-64.04 85.18-101.06 136.3-105.34zM418.1 872.38v7.32c-51.12-4.28-99.2-41.3-136.3-105.32-39.16-67.56-61.3-156.84-62.76-252.36h32.66c1.46 95.52 23.6 184.8 62.76 252.36 29.08 50.18 64.9 83.76 103.64 98z" fill="#FFFFFF" opacity=".4" p-id="43398"></path><path d="M585.86 704.88v87.28h-72.82c-22.44 0-40.68 18.26-40.68 40.7v47.3h-34.26V522.02h46.64c-0.04 5.34 0.02 10.56 0.14 15.56 1.46 62.9 12.76 108.74 13.24 110.66a10.104 10.104 0 0 0 4.5 6.12l72.98 44.28 10.26 6.24z" fill="#3594BF" p-id="43399"></path><path d="M964.04 832.86v47.28H492.36v-47.28c0-11.42 9.28-20.7 20.68-20.7H943.34c2.6 0 5.06 0.5 7.34 1.38 5.2 1.98 9.4 5.98 11.62 11.04 0.02 0.08 0.08 0.14 0.1 0.22l0.12 0.3c0.96 2.4 1.52 5.02 1.52 7.76z" fill="#E1E1E5" p-id="43400"></path><path d="M943.34 822.16a10.4 10.4 0 0 1 3.782 0.726 10.818 10.818 0 0 1 5.946 5.546c0.052 0.128 0.108 0.256 0.166 0.382 0.534 1.336 0.804 2.696 0.804 4.046v37.28H502.36v-37.28c0-5.9 4.79-10.7 10.68-10.7H943.34m0-10H513.04c-11.4 0-20.68 9.28-20.68 20.7v47.28h471.68v-47.28c0-2.74-0.56-5.36-1.52-7.76l-0.12-0.3c-0.02-0.08-0.08-0.14-0.1-0.22a20.786 20.786 0 0 0-11.62-11.04c-2.28-0.88-4.74-1.38-7.34-1.38z" opacity=".2" p-id="43401"></path><path d="M913.6 634.82c-1.22 27.86-30.94 46.38-43.64 54.28-1.04 0.64-1.96 1.22-2.76 1.74-0.02 0.02-0.04 0.04-0.06 0.04-0.44 0.28-0.84 0.62-1.22 0.96-0.1 0.1-0.24 0.18-0.34 0.28-0.38 0.38-0.7 0.78-1.02 1.22-0.06 0.08-0.16 0.18-0.22 0.28-0.34 0.48-0.62 0.98-0.86 1.52-0.02 0.06-0.06 0.1-0.08 0.16-0.18 0.42-0.3 0.88-0.44 1.36-0.04 0.16-0.12 0.32-0.14 0.48-0.08 0.32-0.1 0.66-0.12 1-0.04 0.34-0.1 0.66-0.1 0.98 0 0.04-0.02 0.1-0.02 0.14v92.9h-23.64v-91.24c0-5.52-4.46-10-10-10-5.52 0-10 4.48-10 10v91.24h-26.5v-91.24c0-5.52-4.46-10-10-10-5.52 0-10 4.48-10 10v91.24h-26.5v-91.24c0-5.52-4.48-10-10-10s-10 4.48-10 10v91.24h-26.5v-91.24c0-5.52-4.48-10-10-10s-10 4.48-10 10v91.24h-26.5v-91.24c0-5.52-4.48-10-10-10s-10 4.48-10 10v91.24h-27.08v-92.9c0-0.08-0.02-0.14-0.02-0.22 0-0.38-0.06-0.74-0.12-1.1-0.02-0.3-0.06-0.6-0.12-0.88-0.06-0.32-0.18-0.62-0.28-0.92-0.1-0.32-0.2-0.62-0.32-0.92-0.14-0.28-0.3-0.56-0.46-0.82-0.16-0.3-0.3-0.58-0.48-0.86-0.18-0.24-0.4-0.48-0.6-0.72-0.22-0.26-0.42-0.52-0.66-0.74-0.2-0.2-0.44-0.38-0.66-0.56-0.3-0.24-0.6-0.48-0.92-0.68-0.06-0.04-0.1-0.08-0.16-0.12l-84.44-51.26c-5.9-27.1-36.72-188.04 34.04-304.9 35.64-58.84 91.84-97.92 167.06-116.12a10.004 10.004 0 0 0 6.6-5.3c0.24-0.46 20.72-41 55.48-47.28l-14.16 41.74c-1.74 5.1 0.88 10.64 5.9 12.56l71.5 27.18c10 14.48 58.12 82.22 103.84 114.72l4.26 49.54-45.9 24.6c-11.2-11.72-38.68-35.96-81-44.42-49.76-9.96-70.56-18.58-74.14-30.76a9.994 9.994 0 0 0-11.18-7.04 10 10 0 0 0-8.4 10.2c0.14 4.04 4.7 100.18 126.62 191.62 38.48 28.86 57.48 55.44 56.46 79.02z" fill="#F9C139" p-id="43402"></path><path d="M779.8 165.86l-14.16 41.74c-0.46 1.34-0.62 2.72-0.52 4.04v0.02c-0.5 0.9-0.78 1.44-0.8 1.48a10.004 10.004 0 0 1-6.6 5.3c-75.22 18.2-131.42 57.28-167.06 116.12-70.76 116.86-39.94 277.8-34.04 304.9l84.44 51.26c0.06 0.04 0.1 0.08 0.16 0.12 0.1 0.06 0.2 0.12 0.28 0.2a9.966 9.966 0 0 0-8.56 9.88v91.24h-27.08v-92.9c0-0.08-0.02-0.14-0.02-0.22 0-0.38-0.06-0.74-0.12-1.1-0.02-0.3-0.06-0.6-0.12-0.88-0.06-0.32-0.18-0.62-0.28-0.92-0.1-0.32-0.2-0.62-0.32-0.92-0.14-0.28-0.3-0.56-0.46-0.82-0.16-0.3-0.3-0.58-0.48-0.86-0.18-0.24-0.4-0.48-0.6-0.72-0.22-0.26-0.42-0.52-0.66-0.74-0.2-0.2-0.44-0.38-0.66-0.56-0.3-0.24-0.6-0.48-0.92-0.68-0.06-0.04-0.1-0.08-0.16-0.12l-84.44-51.26c-5.9-27.1-36.72-188.04 34.04-304.9 35.64-58.84 91.84-97.92 167.06-116.12a10.004 10.004 0 0 0 6.6-5.3c0.24-0.46 20.72-41 55.48-47.28z" fill="#23130D" opacity=".2" p-id="43403"></path><path d="M652.06 219.8c-6.2 2.82-12.2 5.8-18.06 8.98-29.04-24.22-61.26-43.58-95.64-57.64-6.26-5.82-12.7-11.1-19.26-15.86 48.04 12.26 93.36 34.12 132.96 64.52zM582.66 264.76c-7.76 6.96-15.1 14.38-21.96 22.26-5.78-13.08-12.1-25.56-18.96-37.38-29.08-50.18-64.9-83.78-103.64-98.02v-7.32c46.5 3.9 90.48 34.88 125.96 88.64 0.64 0.98 1.3 1.98 1.94 2.98 1.96 3 3.86 6.08 5.74 9.24 0.9 1.48 1.78 2.96 2.66 4.48 0.26 0.46 0.52 0.9 0.76 1.36 0.32 0.52 0.62 1.06 0.9 1.58 1.04 1.8 2.06 3.62 3.04 5.44 0.62 1.12 1.22 2.24 1.8 3.36 0.58 1.12 1.18 2.24 1.76 3.38zM438.1 872.38c11.72-4.3 23.18-10.38 34.26-18.18v17.58c-11.2 4.28-22.66 6.94-34.26 7.92v-7.32zM585.86 704.88v48.1a368.44 368.44 0 0 1-11.46 21.4c-3.58 6.18-7.26 12.1-11.04 17.78h-32.66c3.78-5.68 7.46-11.6 11.04-17.78 13.3-22.94 24.64-48.38 33.86-75.74l10.26 6.24z" fill="#23130D" opacity=".4" p-id="43404"></path></svg>