<?xml version="1.0" standalone="no"?><!DOCTYPE svg PUBLIC "-//W3C//DTD SVG 1.1//EN" "http://www.w3.org/Graphics/SVG/1.1/DTD/svg11.dtd"><svg t="1625811917881" class="icon" viewBox="0 0 1024 1024" version="1.1" xmlns="http://www.w3.org/2000/svg" p-id="44001" xmlns:xlink="http://www.w3.org/1999/xlink" width="200" height="200"><defs><style type="text/css"></style></defs><path d="M839.02 201.48c-82.94-82.94-193.22-128.62-310.52-128.62s-227.58 45.68-310.52 128.62a439.948 439.948 0 0 0-67.96 87.7H124.78c-37.72 0-68.42 30.7-68.42 68.44v308.74c0 18.88 7.68 35.98 20.06 48.38 12.4 12.38 29.5 20.06 48.36 20.06h25.24a441.216 441.216 0 0 0 67.96 87.72c82.96 82.94 193.24 128.62 310.52 128.62 117.24 0 227.5-45.68 310.5-128.62 82.96-82.92 128.64-193.2 128.64-310.52 0-117.34-45.68-227.62-128.62-310.52z m-606.9 14.14c56.02-56 125.08-94.18 200.34-111.74-13.04 8.78-25.66 19.34-37.72 31.68-36.8 37.64-67.6 90.66-89.36 153.62H173.42a420.262 420.262 0 0 1 58.7-73.56z m-155.76 186.2H516.4v76.9H76.36v-76.9z m155.76 406.56a421.884 421.884 0 0 1-58.7-73.58h131.96c21.76 62.96 52.56 115.98 89.36 153.62 12.08 12.34 24.7 22.94 37.76 31.7-75.26-17.54-144.34-55.72-200.38-111.74z m286.38 122.36c-77.86-5.84-150.02-79.44-191.96-195.94h114.26v19.3c0 24.56 19.98 44.54 44.54 44.54h8.62c9.06 0 17.5-2.72 24.54-7.4v139.5z m0-176.6c-0.02 13.52-11.02 24.5-24.54 24.5h-8.62c-13.54 0-24.54-11-24.54-24.54v-19.3h57.7v19.34z m0-39.34h-67.64c-0.02 0-0.04-0.02-0.06-0.02-0.02 0-0.04 0.02-0.06 0.02H124.78c-26.7 0-48.42-21.74-48.42-48.44v-167.64h442.14V714.8z m0-332.98H76.36v-24.2c0-26.72 21.72-48.44 48.42-48.44h393.72v72.64z m0-92.64H460.8v-19.32c0-13.54 11-24.54 24.54-24.54h8.62c13.52 0 24.52 10.98 24.54 24.5v19.36z m0-56.46c-7.04-4.68-15.48-7.4-24.54-7.4h-8.62c-24.56 0-44.54 19.98-44.54 44.54v19.32h-114.26c41.94-116.5 114.1-190.1 191.96-195.94v139.48z m306.38-17.1c76.8 76.78 120.12 178.14 122.64 286.38h-160.42c-1.46-112.62-27.64-218.28-74.12-298.46-25.4-43.86-55.34-77.44-88.1-99.58 75.12 17.6 144.06 55.74 200 111.66zM538.5 93.24c59 4.32 114.48 46.64 157.18 120.32 44.74 77.2 69.96 179.3 71.42 288.44h-228.6V93.24z m0 428.76h228.6c-1.46 109.14-26.68 211.22-71.42 288.42-42.7 73.68-98.18 116-157.18 120.32V522z m286.36 286.38c-55.96 55.92-124.9 94.06-200.02 111.66 32.78-22.14 62.72-55.72 88.14-99.6 46.48-80.18 72.66-185.82 74.12-298.44h160.42c-2.52 108.24-45.84 209.6-122.66 286.38z" fill="#23130D" p-id="44002"></path><path d="M432.5 920.12c-0.12-0.02-0.22-0.06-0.34-0.08-0.2-0.04-0.4-0.1-0.6-0.14-4.5-1.06-8.96-2.18-13.42-3.4-3.14-0.86-6.3-1.74-9.42-2.68-1.48-0.44-2.96-0.88-4.42-1.34-4.6-1.42-9.16-2.92-13.7-4.48-4.46-1.54-8.88-3.16-13.28-4.86-2.32-0.92-4.62-1.82-6.92-2.76-6.66-2.7-13.26-5.58-19.78-8.66-13-6.08-25.7-12.86-38.04-20.3-0.04-0.04-0.08-0.06-0.12-0.08-4.08-2.46-8.14-5-12.16-7.62-0.02-0.04-0.06-0.06-0.1-0.08a418.64 418.64 0 0 1-62.78-50.06c-1.76-1.72-3.54-3.46-5.28-5.2h-0.02c-1.2-1.2-2.38-2.4-3.56-3.62-0.9-0.92-1.8-1.84-2.68-2.78-2.04-2.12-4.06-4.26-6.04-6.42-1.34-1.46-2.66-2.92-3.98-4.38a422.502 422.502 0 0 1-42.44-56.38h131.96c21.76 62.96 52.56 115.98 89.36 153.62 12.08 12.34 24.7 22.94 37.76 31.7zM518.5 791.24v139.5c-1.44-0.1-2.88-0.24-4.3-0.4-1-0.1-2-0.22-2.98-0.34-55.66-7.22-107.98-49-147.88-116.14-0.04-0.04-0.06-0.08-0.06-0.12-0.86-1.46-1.72-2.94-2.58-4.42a226.8 226.8 0 0 1-3-5.3c-0.5-0.9-1-1.82-1.5-2.72-1.34-2.44-2.66-4.9-3.92-7.38-0.82-1.52-1.6-3.06-2.38-4.6-2.24-4.42-4.42-8.9-6.52-13.44-0.68-1.46-1.34-2.94-2.02-4.42-5.28-11.7-10.24-23.92-14.82-36.66h114.26v19.3c0 24.56 19.98 44.54 44.54 44.54h8.62c9.06 0 17.5-2.72 24.54-7.4z" fill="#3594BF" p-id="44003"></path><path d="M518.5 734.8v19.34c-0.02 13.52-11.02 24.5-24.54 24.5h-8.62c-13.54 0-24.54-11-24.54-24.54v-19.3h57.7z" fill="#E1E1E5" p-id="44004"></path><path d="M76.36 498.72v167.64c0 26.7 21.72 48.44 48.42 48.44h325.96c0.02 0 0.04-0.02 0.06-0.02 0.02 0 0.04 0.02 0.06 0.02h67.64V498.72H76.36z m79.36 94.48h107.3c5.52 0 10 4.48 10 10s-4.48 10-10 10H155.72c-5.52 0-10-4.48-10-10s4.48-10 10-10z m174.52 76.9H155.72c-5.52 0-10-4.48-10-10s4.48-10 10-10h174.52c5.54 0 10 4.48 10 10s-4.46 10-10 10z" fill="#F9C139" p-id="44005"></path><path d="M432.46 103.88c-13.04 8.78-25.66 19.34-37.72 31.68-36.8 37.64-67.6 90.66-89.36 153.62H173.42a418.49 418.49 0 0 1 46.42-60.74c1.32-1.46 2.66-2.9 4.02-4.32a414.092 414.092 0 0 1 8.26-8.5c33.62-33.6 71.94-60.8 113.46-80.94 1.72-0.84 3.46-1.68 5.2-2.48 4.36-2.06 8.74-4.02 13.16-5.9 6.32-2.7 12.7-5.24 19.16-7.6 0.84-0.34 1.68-0.64 2.54-0.94a425.95 425.95 0 0 1 18.62-6.24c1.46-0.46 2.94-0.9 4.42-1.34 3.6-1.08 7.22-2.1 10.86-3.06 3.98-1.06 7.96-2.08 11.98-3.02 0.2-0.04 0.4-0.1 0.6-0.14 0.12-0.02 0.22-0.06 0.34-0.08zM518.5 93.24v139.48c-7.04-4.68-15.48-7.4-24.54-7.4h-8.62c-24.56 0-44.54 19.98-44.54 44.54v19.32h-114.26c3.28-9.1 6.74-17.94 10.38-26.52 1.44-3.42 2.94-6.8 4.44-10.14 0.54-1.22 1.1-2.42 1.66-3.62 0.94-2.1 1.94-4.2 2.94-6.26 1-2.08 2-4.14 3.04-6.18 0.22-0.48 0.46-0.96 0.72-1.42 0.82-1.66 1.68-3.32 2.56-4.98 1.26-2.48 2.58-4.94 3.92-7.38 0.5-0.92 1-1.82 1.5-2.72 0.98-1.78 1.98-3.56 3-5.3 0.86-1.5 1.72-2.96 2.58-4.42 0-0.04 0.02-0.08 0.06-0.12 0.86-1.42 1.7-2.84 2.56-4.24 39.56-64.64 90.84-104.82 145.32-111.9 0.98-0.12 1.98-0.24 2.98-0.34 1.42-0.16 2.86-0.3 4.3-0.4z" fill="#3594BF" p-id="44006"></path><path d="M518.5 269.82v19.36H460.8v-19.32c0-13.54 11-24.54 24.54-24.54h8.62c13.52 0 24.52 10.98 24.54 24.5z" fill="#E1E1E5" p-id="44007"></path><path d="M518.5 309.18v72.64H76.36v-24.2c0-26.72 21.72-48.44 48.42-48.44h393.72z" fill="#F9C139" p-id="44008"></path><path d="M518.5 309.18v20H124.78c-26.7 0-48.42 21.72-48.42 48.44v-20c0-26.72 21.72-48.44 48.42-48.44h393.72z" fill="#FFFFFF" opacity=".2" p-id="44009"></path><path d="M76.36 401.82H516.4v76.9H76.36z" fill="#EC7063" p-id="44010"></path><path d="M508.4 409.82v60.9H84.36v-60.9H508.4m8-8H76.36v76.9H516.4v-76.9z" opacity=".2" p-id="44011"></path><path d="M947.52 502h-160.42c-1.46-112.62-27.64-218.28-74.12-298.46-25.4-43.86-55.34-77.44-88.1-99.58 75.12 17.6 144.06 55.74 200 111.66 76.8 76.78 120.12 178.14 122.64 286.38zM947.52 522c-2.52 108.24-45.84 209.6-122.66 286.38-55.96 55.92-124.9 94.06-200.02 111.66 32.78-22.14 62.72-55.72 88.14-99.6 46.48-80.18 72.66-185.82 74.12-298.44h160.42z" fill="#3594BF" p-id="44012"></path><path d="M767.1 522c-1.46 109.14-26.68 211.22-71.42 288.42-42.7 73.68-98.18 116-157.18 120.32V522h228.6zM767.1 502h-228.6V93.24c59 4.32 114.48 46.64 157.18 120.32 44.74 77.2 69.96 179.3 71.42 288.44z" fill="#3594BF" p-id="44013"></path><path d="M947.52 502h-46c-2.52-108.24-45.84-209.6-122.64-286.38C743.26 180 702.34 151.6 657.94 131.14c-10.64-10.4-21.68-19.48-33.06-27.18 75.12 17.6 144.06 55.74 200 111.66 76.8 76.78 120.12 178.14 122.64 286.38zM947.52 522c-2.52 108.24-45.84 209.6-122.66 286.38-55.96 55.92-124.9 94.06-200.02 111.66 11.4-7.7 22.46-16.78 33.1-27.2 44.4-20.46 85.28-48.86 120.92-84.46 76.82-76.78 120.14-178.14 122.66-286.38h46zM767.1 522c-1.46 109.14-26.68 211.22-71.42 288.42-42.7 73.68-98.18 116-157.18 120.32v-9.9c42.86-16.98 82.42-54.76 114.68-110.42 44.74-77.2 69.96-179.28 71.42-288.42h42.5zM767.1 502H724.6c-1.46-109.14-26.68-211.24-71.42-288.44-32.26-55.66-71.82-93.44-114.68-110.42v-9.9c59 4.32 114.48 46.64 157.18 120.32 44.74 77.2 69.96 179.3 71.42 288.44z" fill="#23130D" opacity=".2" p-id="44014"></path><path d="M432.12 103.96c-11.38 7.7-22.42 16.78-33.06 27.18-44.4 20.46-85.32 48.86-120.94 84.48a422.042 422.042 0 0 0-58.82 73.56H173.42a418.49 418.49 0 0 1 46.42-60.74c1.32-1.46 2.66-2.9 4.02-4.32a414.092 414.092 0 0 1 8.26-8.5c33.62-33.6 71.94-60.8 113.46-80.94 1.72-0.84 3.46-1.68 5.2-2.48 4.36-2.06 8.74-4.02 13.16-5.9 6.32-2.7 12.7-5.24 19.16-7.6 0.84-0.34 1.68-0.64 2.54-0.94a425.95 425.95 0 0 1 18.62-6.24c1.46-0.46 2.94-0.9 4.42-1.34 3.6-1.08 7.22-2.1 10.86-3.06 3.98-1.06 7.96-2.08 11.98-3.02 0.2-0.04 0.4-0.1 0.6-0.14zM432.16 920.04c-0.2-0.04-0.4-0.1-0.6-0.14-4.5-1.06-8.96-2.2-13.42-3.4-3.14-0.86-6.3-1.74-9.42-2.68-1.48-0.44-2.96-0.88-4.42-1.34-4.6-1.42-9.16-2.92-13.7-4.48-4.46-1.56-8.88-3.18-13.28-4.86-2.32-0.92-4.62-1.82-6.92-2.76-6.68-2.72-13.26-5.6-19.78-8.66-13-6.1-25.68-12.88-38.04-20.3-0.04-0.04-0.08-0.06-0.12-0.08-4.08-2.48-8.14-5.02-12.16-7.62-0.02-0.04-0.06-0.06-0.1-0.08a423.24 423.24 0 0 1-62.78-50.06c-1.76-1.72-3.54-3.46-5.28-5.2-1.2-1.2-2.4-2.4-3.58-3.62-0.9-0.92-1.8-1.84-2.68-2.78-2.04-2.12-4.06-4.26-6.04-6.42-1.34-1.46-2.66-2.92-3.98-4.38a422.502 422.502 0 0 1-42.44-56.38h45.88c16.6 26.36 36.26 51.04 58.84 73.58 35.64 35.6 76.52 64 120.92 84.46 10.64 10.42 21.7 19.5 33.1 27.2zM518.5 920.84v9.9c-1.44-0.1-2.88-0.24-4.3-0.4-1-0.1-2-0.22-2.98-0.34-55.36-7-107.24-47.58-147.88-116.14-0.04-0.04-0.06-0.08-0.06-0.12-0.66-1.1-1.32-2.2-1.96-3.32-0.22-0.36-0.42-0.72-0.62-1.1a226.8 226.8 0 0 1-3-5.3c-0.5-0.9-1-1.82-1.5-2.72-1.34-2.44-2.66-4.9-3.92-7.38-0.82-1.52-1.6-3.06-2.38-4.6-2.24-4.42-4.42-8.9-6.52-13.44-0.68-1.46-1.34-2.94-2.02-4.42-5.28-11.7-10.24-23.92-14.82-36.66h42.46c9.76 27.12 21.4 52.48 34.82 75.62 32.26 55.66 71.82 93.44 114.68 110.42zM518.5 93.24v9.9c-42.86 16.98-82.42 54.76-114.68 110.42-13.42 23.14-25.06 48.5-34.82 75.62h-42.46c3.28-9.1 6.74-17.94 10.38-26.52 1.44-3.42 2.94-6.8 4.44-10.14 0.54-1.22 1.1-2.42 1.66-3.62 0.94-2.1 1.94-4.2 2.94-6.26 1-2.08 2-4.14 3.04-6.18 0.22-0.48 0.46-0.96 0.72-1.42 0.82-1.66 1.68-3.32 2.56-4.98 1.26-2.48 2.58-4.94 3.92-7.38 0.5-0.92 1-1.82 1.5-2.72 0.98-1.78 1.98-3.56 3-5.3 0.2-0.38 0.4-0.74 0.62-1.1 0.64-1.12 1.3-2.22 1.96-3.32 0-0.04 0.02-0.08 0.06-0.12 0.86-1.42 1.7-2.84 2.56-4.24 40.24-66 91.12-105.04 145.32-111.9 0.98-0.12 1.98-0.24 2.98-0.34 1.42-0.16 2.86-0.3 4.3-0.4z" fill="#FFFFFF" opacity=".2" p-id="44015"></path><path d="M273.02 603.2c0 5.52-4.48 10-10 10H155.72c-5.52 0-10-4.48-10-10s4.48-10 10-10h107.3c5.52 0 10 4.48 10 10zM340.24 660.1c0 5.52-4.46 10-10 10H155.72c-5.52 0-10-4.48-10-10s4.48-10 10-10h174.52c5.54 0 10 4.48 10 10z" fill="#23130D" p-id="44016"></path><path d="M311.82 478.72h-50.92l-76.88-76.9h50.9zM370.74 478.72h-39.12l-76.9-76.9h39.14zM476.58 478.72h-65.04l-76.9-76.9h65.04z" fill="#FFFFFF" opacity=".4" p-id="44017"></path></svg>