<?xml version="1.0" standalone="no"?><!DOCTYPE svg PUBLIC "-//W3C//DTD SVG 1.1//EN" "http://www.w3.org/Graphics/SVG/1.1/DTD/svg11.dtd"><svg t="1625811867755" class="icon" viewBox="0 0 1024 1024" version="1.1" xmlns="http://www.w3.org/2000/svg" p-id="41615" xmlns:xlink="http://www.w3.org/1999/xlink" width="200" height="200"><defs><style type="text/css"></style></defs><path d="M489.56 390.94c-0.02-0.22-0.06-0.44-0.1-0.66-0.02-0.12 0-0.24-0.02-0.34-9.78-52.02-32.14-87.92-66.44-106.74-54.62-29.96-118.6-4.9-121.3-3.82-0.22 0.08-0.4 0.22-0.6 0.32-0.32 0.14-0.62 0.28-0.9 0.46-0.3 0.18-0.56 0.38-0.82 0.58-0.24 0.2-0.48 0.38-0.72 0.58-0.24 0.24-0.48 0.5-0.7 0.74-0.2 0.24-0.4 0.46-0.58 0.7-0.2 0.26-0.36 0.54-0.52 0.82-0.18 0.28-0.34 0.56-0.46 0.86-0.14 0.26-0.24 0.54-0.34 0.84-0.12 0.32-0.24 0.64-0.32 0.98-0.06 0.28-0.12 0.58-0.16 0.88-0.04 0.34-0.1 0.68-0.12 1.04-0.02 0.3 0 0.62 0.02 0.94 0.02 0.24-0.02 0.48 0.02 0.74 0.34 2.88 9.14 71.04 61.68 104.5 18.52 11.82 39.98 17.72 64.14 17.72 18.84 0 39.34-3.6 61.4-10.8 0.06-0.02 0.12-0.06 0.2-0.08 0.14-0.06 0.3-0.1 0.44-0.14 0.06-0.04 0.14-0.08 0.22-0.12 0.32-0.14 0.64-0.28 0.94-0.46 0.06-0.04 0.14-0.08 0.2-0.12l0.18-0.12c0.14-0.08 0.28-0.16 0.4-0.26 0.22-0.16 0.44-0.32 0.64-0.5 0.14-0.1 0.26-0.2 0.38-0.3 0.08-0.08 0.18-0.16 0.28-0.24 0.06-0.08 0.12-0.14 0.18-0.2 0.24-0.26 0.46-0.5 0.68-0.78 0.06-0.08 0.1-0.16 0.16-0.24 0.02-0.02 0.04-0.06 0.06-0.08 0.12-0.16 0.22-0.3 0.32-0.46 0.06-0.1 0.14-0.2 0.2-0.3 0.06-0.1 0.08-0.18 0.12-0.26 0.12-0.2 0.22-0.4 0.32-0.6 0.1-0.22 0.2-0.44 0.28-0.68 0.06-0.18 0.14-0.36 0.2-0.54 0.06-0.2 0.12-0.4 0.16-0.58 0.06-0.24 0.1-0.5 0.16-0.74 0.02-0.2 0.06-0.38 0.08-0.58l0.06-0.62v-0.72c0-0.2-0.02-0.4-0.02-0.62z m-113.12-48.62l77.72 46c-34.34 7.36-63.24 3.78-86.12-10.76-34.92-22.18-47.42-64.58-51.24-82.16 17.26-5.12 60.46-14.56 96.68 5.4 23.76 13.06 40.78 36.68 50.86 70.32l-77.72-46.02a10.012 10.012 0 0 0-13.7 3.52 10.012 10.012 0 0 0 3.52 13.7z" fill="#23130D" p-id="41616"></path><path d="M376.44 342.32l77.72 46c-34.34 7.36-63.24 3.78-86.12-10.76-34.92-22.18-47.42-64.58-51.24-82.16 17.26-5.12 60.46-14.56 96.68 5.4 23.76 13.06 40.78 36.68 50.86 70.32l-77.72-46.02a10.012 10.012 0 0 0-13.7 3.52 10.012 10.012 0 0 0 3.52 13.7z" fill="#72AF5F" p-id="41617"></path><path d="M464.34 371.12l-6.96-4.12c-10.26-23.62-24.94-40.78-43.9-51.2-33.86-18.66-73.8-11.62-92.98-6.44-1.7-5.46-2.9-10.26-3.7-13.96 17.26-5.12 60.46-14.56 96.68 5.4 23.76 13.06 40.78 36.68 50.86 70.32z" fill="#FFFFFF" opacity=".4" p-id="41618"></path><path d="M454.16 388.32c-34.34 7.36-63.24 3.78-86.12-10.76-34.92-22.18-47.42-64.58-51.24-82.16 1.12-0.34 2.36-0.68 3.7-1.04 6.36 20.56 19.96 50.68 47.54 68.2 18.28 11.62 40.38 16.24 66.04 13.88l20.08 11.88z" opacity=".2" p-id="41619"></path><path d="M728.44 287.22c-0.06-0.34-0.1-0.66-0.18-1-0.08-0.3-0.18-0.58-0.3-0.88-0.1-0.32-0.22-0.62-0.36-0.92-0.12-0.28-0.28-0.52-0.42-0.78-0.18-0.32-0.36-0.6-0.58-0.9-0.16-0.22-0.34-0.42-0.52-0.62-0.24-0.28-0.48-0.56-0.76-0.82-0.2-0.18-0.42-0.34-0.64-0.5-0.28-0.24-0.58-0.46-0.9-0.66-0.26-0.14-0.52-0.26-0.78-0.4-0.24-0.12-0.44-0.26-0.7-0.36-2.7-1.08-66.68-26.14-121.28 3.82-34.32 18.8-56.68 54.72-66.46 106.74-0.02 0.12-0.02 0.24-0.04 0.36-0.02 0.22-0.06 0.44-0.08 0.66-0.02 0.2-0.02 0.38-0.02 0.58v0.74c0.02 0.22 0.02 0.42 0.06 0.62 0.02 0.2 0.04 0.38 0.08 0.58 0.04 0.24 0.08 0.48 0.16 0.74 0.04 0.2 0.1 0.38 0.16 0.58 0.06 0.18 0.12 0.36 0.2 0.54 0.08 0.22 0.18 0.46 0.28 0.68l0.3 0.6c0.06 0.08 0.08 0.18 0.12 0.26 0.08 0.1 0.16 0.2 0.22 0.3 0.1 0.16 0.2 0.3 0.3 0.46l0.06 0.06c0.06 0.1 0.12 0.18 0.18 0.28 0.22 0.26 0.44 0.5 0.68 0.74 0.06 0.08 0.12 0.14 0.18 0.22 0.08 0.08 0.18 0.14 0.28 0.22 0.12 0.12 0.24 0.22 0.38 0.34 0.2 0.16 0.42 0.32 0.64 0.48 0.12 0.1 0.26 0.18 0.4 0.26 0.06 0.04 0.1 0.08 0.16 0.1l0.22 0.16c0.3 0.16 0.62 0.3 0.94 0.44 0.08 0.04 0.14 0.08 0.22 0.12 0.14 0.04 0.28 0.08 0.42 0.14 0.08 0.02 0.14 0.06 0.22 0.08 22.06 7.2 42.54 10.8 61.4 10.8 24.16 0 45.62-5.9 64.14-17.72 52.54-33.46 61.34-101.62 61.68-104.5 0.02-0.22 0-0.42 0.02-0.64 0.02-0.36 0.04-0.72 0.02-1.08-0.02-0.32-0.06-0.62-0.1-0.92z m-72.48 90.34c-22.88 14.54-51.78 18.12-86.12 10.76l77.72-46a9.99 9.99 0 0 0 3.5-13.7c-2.8-4.76-8.94-6.32-13.7-3.52l-77.7 46.02c10.08-33.64 27.12-57.26 50.86-70.32 36.24-19.96 79.42-10.52 96.68-5.4-3.82 17.58-16.32 59.98-51.24 82.16z" fill="#23130D" p-id="41620"></path><path d="M707.2 295.4c-3.82 17.58-16.32 59.98-51.24 82.16-22.88 14.54-51.78 18.12-86.12 10.76l77.72-46a9.99 9.99 0 0 0 3.5-13.7c-2.8-4.76-8.94-6.32-13.7-3.52l-77.7 46.02c10.08-33.64 27.12-57.26 50.86-70.32 36.24-19.96 79.42-10.52 96.68-5.4z" fill="#72AF5F" p-id="41621"></path><path d="M586.5 594.92v-61.5c8.22-5.1 13.72-14.18 13.72-24.54v-0.84c0-15.74-12.66-28.56-28.32-28.88V451.2c0-5.54-4.48-10-10-10h-37.62v-157.24c49.86-5.02 88.94-47.24 88.96-98.42V114.1c0-5.52-4.48-10-10-10h-35.52V32.26c0-5.52-4.48-10-10-10s-10 4.48-10 10v71.84h-66.9V32.26c0-5.52-4.48-10-10-10s-10 4.48-10 10v71.84h-35.52c-5.54 0-10 4.48-10 10v71.4c0 51.2 39.08 93.44 88.98 98.46v157.24h-42.16c-5.52 0-10 4.46-10 10v27.96c-15.66 0.32-28.3 13.14-28.3 28.88v0.84c0 10.36 5.5 19.44 13.72 24.54v61.5c-81.48 30.82-135.72 108.94-135.72 196.62 0 115.9 94.3 210.2 210.2 210.2s210.2-94.3 210.2-210.2c0-87.68-54.24-165.8-135.72-196.62z m-151.2-409.42v-61.4h157.94v61.4c0 42.62-33.96 77.44-76.24 78.9-0.86-0.26-1.78-0.42-2.72-0.42-0.96 0-1.86 0.16-2.74 0.42-42.28-1.44-76.24-36.28-76.24-78.9z m36.82 275.7h79.78v17.92h-79.78v-17.92z m-28.3 46.84c0-4.92 4-8.92 8.92-8.92h118.56c4.92 0 8.92 4 8.92 8.92v0.84c0 4.9-4 8.9-8.92 8.9h-118.56c-4.92 0-8.92-4-8.92-8.9v-0.84z m68.2 473.7c-104.88 0-190.2-85.32-190.2-190.2 0-81.52 51.82-153.9 128.94-180.14a10.012 10.012 0 0 0 6.78-9.46v-64.16h108.96v64.16c0 4.28 2.74 8.1 6.8 9.48 77.1 26.22 128.92 98.6 128.92 180.12 0 104.88-85.32 190.2-190.2 190.2z" fill="#23130D" p-id="41622"></path><path d="M472.12 461.2h79.78v17.92h-79.78z" fill="#E1E1E5" p-id="41623"></path><path d="M472.12 461.2h79.78v8.96h-79.78z" opacity=".2" p-id="41624"></path><path d="M580.22 508.04v0.84c0 4.9-4 8.9-8.92 8.9h-118.56c-4.92 0-8.92-4-8.92-8.9v-0.84c0-4.92 4-8.92 8.92-8.92h118.56c4.92 0 8.92 4 8.92 8.92z" fill="#636368" p-id="41625"></path><path d="M580.22 508.04v0.84c0 1.52-0.4 2.98-1.08 4.24a8.94 8.94 0 0 0-7.84-4.66h-118.56c-3.38 0-6.34 1.9-7.84 4.66a8.96 8.96 0 0 1-1.08-4.24v-0.84c0-4.92 4-8.92 8.92-8.92h118.56c4.92 0 8.92 4 8.92 8.92z" opacity=".2" p-id="41626"></path><path d="M573.3 611.42c-4.06-1.38-6.8-5.2-6.8-9.48v-64.16h-108.96v64.16c0 4.28-2.74 8.08-6.78 9.46-3.18 1.08-6.32 2.24-9.42 3.5a189.294 189.294 0 0 0-48.58 28.38 192.014 192.014 0 0 0-24.54 23.66 191.682 191.682 0 0 0-19.42 26.88 189.472 189.472 0 0 0-23.28 60.34 189.55 189.55 0 0 0-3.7 37.38c0 104.88 85.32 190.2 190.2 190.2 12.8 0 25.3-1.28 37.38-3.7a188.8 188.8 0 0 0 45.1-15.12c5.2-2.52 10.26-5.26 15.16-8.24a189.502 189.502 0 0 0 50.5-44.02 188.56 188.56 0 0 0 28.44-48.5c8.8-21.84 13.62-45.68 13.62-70.62 0-81.52-51.82-153.9-128.92-180.12z m34.16 185.46c0 17.52-4.74 33.94-13.02 48.06-5.8 9.94-13.38 18.74-22.26 25.98a95.486 95.486 0 0 1-29.82 16.46 94.76 94.76 0 0 1-19.12 4.28c-3.68 0.44-7.44 0.66-11.24 0.66-52.64 0-95.46-42.82-95.46-95.44 0-3.78 0.22-7.52 0.68-11.24 0.76-6.52 2.22-12.92 4.3-19.1 3.64-10.82 9.2-20.96 16.42-29.86 2.8-3.46 5.88-6.76 9.18-9.82 1.64-1.5 3.3-2.94 5.02-4.32 2.46-2.22 6.02-5.54 10.1-9.78 10.22-10.54 23.8-26.62 32.14-44.82 4.6-10.04 7.62-20.72 7.62-31.46 0-5.54 4.48-10 10-10s10 4.46 10 10c0 38.12 37.9 75.28 49.86 86.06 18 14.5 29.9 34.62 34 56.88 1.06 5.7 1.6 11.54 1.6 17.46z" fill="#8FDCFF" p-id="41627"></path><path d="M573.3 611.42c-4.06-1.38-6.8-5.2-6.8-9.48v-64.16h-32v64.16c0 4.28 2.74 8.1 6.8 9.48 77.1 26.22 128.92 98.6 128.92 180.12 0 99.5-76.78 181.38-174.2 189.52 5.28 0.46 10.62 0.68 16 0.68 104.88 0 190.2-85.32 190.2-190.2 0-81.52-51.82-153.9-128.92-180.12z" opacity=".2" p-id="41628"></path><path d="M593.24 124.1v61.4c0 42.62-33.96 77.44-76.24 78.9-0.86-0.26-1.78-0.42-2.72-0.42-0.96 0-1.86 0.16-2.74 0.42-42.28-1.44-76.24-36.28-76.24-78.9v-61.4h157.94z" fill="#F9C139" p-id="41629"></path><path d="M593.24 163.5v22c0 42.62-33.96 77.44-76.24 78.9-0.86-0.26-1.78-0.42-2.72-0.42-0.96 0-1.86 0.16-2.74 0.42-42.28-1.44-76.24-36.28-76.24-78.9v-22c0 42.62 33.96 77.46 76.24 78.9 0.88-0.26 1.78-0.42 2.74-0.42 0.94 0 1.86 0.16 2.72 0.42 42.28-1.46 76.24-36.28 76.24-78.9z" fill="#FFFFFF" opacity=".4" p-id="41630"></path><path d="M435.3 124.1h157.94v22h-157.94z" opacity=".2" p-id="41631"></path><path d="M571.86 722.54c-11.96-10.78-49.86-47.94-49.86-86.06 0-5.54-4.48-10-10-10s-10 4.46-10 10c0 38.1-37.9 75.28-49.86 86.06-1.72 1.38-3.38 2.82-5.02 4.32-19.42 18.02-30.58 43.54-30.58 70.02 0 52.62 42.82 95.44 95.46 95.44s95.46-42.82 95.46-95.44c0-29.04-12.98-56.12-35.6-74.34zM512 872.32c-41.6 0-75.46-33.84-75.46-75.44 0-20.94 8.82-41.1 24.18-55.34 1.34-1.24 2.72-2.44 4.14-3.56l0.44-0.38c11.62-10.44 33.8-32.62 46.7-60.06 12.9 27.44 35.06 49.62 46.7 60.06 0.14 0.12 0.28 0.24 0.44 0.36 17.98 14.42 28.32 35.9 28.32 58.92 0 41.6-33.86 75.44-75.46 75.44z" fill="#23130D" p-id="41632"></path><path d="M587.46 796.88c0 41.6-33.86 75.44-75.46 75.44s-75.46-33.84-75.46-75.44c0-20.94 8.82-41.1 24.18-55.34 1.34-1.24 2.72-2.44 4.14-3.56l0.44-0.38c11.62-10.44 33.8-32.62 46.7-60.06 12.9 27.44 35.06 49.62 46.7 60.06 0.14 0.12 0.28 0.24 0.44 0.36 17.98 14.42 28.32 35.9 28.32 58.92z" fill="#E1E1E5" p-id="41633"></path><path d="M587.46 796.88c0 41.6-33.86 75.44-75.46 75.44-6.9 0-13.58-0.94-19.94-2.68 31.96-8.76 55.52-38.06 55.52-72.76 0-23.02-10.34-44.5-28.32-58.92-0.16-0.12-0.3-0.24-0.44-0.36-6.7-6-16.88-15.9-26.76-28.46 7.32-9.24 14.48-19.94 19.94-31.6 12.9 27.44 35.06 49.62 46.7 60.06 0.14 0.12 0.28 0.24 0.44 0.36 17.98 14.42 28.32 35.9 28.32 58.92z" opacity=".2" p-id="41634"></path><path d="M559.672 371.12l6.96-4.12c10.26-23.62 24.94-40.78 43.9-51.2 33.86-18.66 73.8-11.62 92.98-6.44 1.7-5.46 2.9-10.26 3.7-13.96-17.26-5.12-60.46-14.56-96.68 5.4-23.76 13.06-40.78 36.68-50.86 70.32z" fill="#FFFFFF" opacity=".4" p-id="41635"></path><path d="M569.852 388.32c34.34 7.36 63.24 3.78 86.12-10.76 34.92-22.18 47.42-64.58 51.24-82.16-1.12-0.34-2.36-0.68-3.7-1.04-6.36 20.56-19.96 50.68-47.54 68.2-18.28 11.62-40.38 16.24-66.04 13.88l-20.08 11.88z" opacity=".2" p-id="41636"></path><path d="M594.5 962.92a188.8 188.8 0 0 1-45.1 15.12L325.52 754.16a189.472 189.472 0 0 1 15.08-45.12l76.62 76.6c-0.46 3.72-0.68 7.46-0.68 11.24 0 52.62 42.82 95.44 95.46 95.44 3.8 0 7.56-0.22 11.24-0.66l71.26 71.26zM368.22 666.94l69.72 69.74a96.05 96.05 0 0 0-16.42 29.86l-72.72-72.72c5.68-9.52 12.2-18.5 19.42-26.88zM636.5 935.24a190.72 190.72 0 0 1-26.84 19.44l-67.3-67.3a95.486 95.486 0 0 0 29.82-16.46l64.32 64.32zM441.34 614.9l53.04 53.04c-8.34 18.2-21.92 34.28-32.14 44.82l-69.48-69.48a189.294 189.294 0 0 1 48.58-28.38zM688.6 862.16a188.56 188.56 0 0 1-28.44 48.5l-65.72-65.72a94.696 94.696 0 0 0 13.02-48.06c0-5.92-0.54-11.76-1.6-17.46l82.74 82.74z" fill="#FFFFFF" opacity=".4" p-id="41637"></path></svg>