<?xml version="1.0" standalone="no"?><!DOCTYPE svg PUBLIC "-//W3C//DTD SVG 1.1//EN" "http://www.w3.org/Graphics/SVG/1.1/DTD/svg11.dtd"><svg t="1625811920817" class="icon" viewBox="0 0 1024 1024" version="1.1" xmlns="http://www.w3.org/2000/svg" p-id="44160" xmlns:xlink="http://www.w3.org/1999/xlink" width="200" height="200"><defs><style type="text/css"></style></defs><path d="M650.1 589.32h-132.62c-5.52 0-10 4.48-10 10v92.42c0 5.52 4.48 10 10 10h132.62c5.52 0 10-4.48 10-10v-92.42c0-5.52-4.48-10-10-10z m-10 92.42h-112.62v-72.42h112.62v72.42zM446.78 589.32h-132.62c-5.52 0-10 4.48-10 10v92.42c0 5.52 4.48 10 10 10h132.62c5.52 0 10-4.48 10-10v-92.42c0-5.52-4.48-10-10-10z m-10 92.42h-112.62v-72.42h112.62v72.42zM243.46 589.32h-132.6c-5.54 0-10 4.48-10 10v92.42c0 5.52 4.46 10 10 10h132.6c5.52 0 10-4.48 10-10v-92.42c0-5.52-4.48-10-10-10z m-10 92.42h-112.6v-72.42h112.6v72.42z" fill="#23130D" p-id="44161"></path><path d="M970.52 701.74c5.54 0 10-4.48 10-10V247.76c0-5.54-4.46-10-10-10h-50.28V145.5c0-5.52-4.48-10-10-10h-28.48v-34.8c0-5.54-4.48-10-10-10h-125.8c-5.52 0-10 4.46-10 10v34.8h-28.48c-5.54 0-10 4.48-10 10v387.74h-20.58v-68.56c0-0.28-0.06-0.56-0.08-0.84-0.02-0.3-0.02-0.6-0.06-0.9-0.02-0.04-0.04-0.08-0.04-0.12-0.08-0.38-0.2-0.74-0.32-1.1-0.08-0.28-0.14-0.56-0.24-0.82-0.14-0.32-0.3-0.6-0.46-0.88-0.16-0.3-0.28-0.58-0.46-0.86-0.16-0.24-0.36-0.44-0.54-0.66-0.22-0.28-0.42-0.58-0.68-0.84-0.18-0.18-0.4-0.34-0.62-0.52-0.28-0.24-0.54-0.5-0.84-0.7-0.22-0.16-0.48-0.26-0.72-0.4-0.32-0.18-0.62-0.38-0.96-0.54-0.24-0.1-0.5-0.16-0.74-0.24-0.38-0.12-0.74-0.26-1.14-0.34-0.22-0.06-0.48-0.06-0.72-0.1-0.42-0.06-0.82-0.12-1.26-0.12-0.04 0-0.08-0.02-0.12-0.02-0.28 0-0.56 0.06-0.84 0.08-0.3 0.04-0.6 0.02-0.9 0.08l-166.22 29.22c-0.04 0.02-0.08 0.04-0.14 0.04-0.38 0.08-0.74 0.2-1.12 0.32-0.26 0.08-0.54 0.14-0.8 0.24-0.32 0.14-0.6 0.3-0.9 0.48-0.28 0.14-0.56 0.26-0.82 0.44-0.26 0.16-0.48 0.38-0.72 0.56-0.26 0.22-0.54 0.42-0.78 0.64-0.22 0.22-0.4 0.48-0.62 0.72-0.2 0.26-0.42 0.48-0.6 0.74-0.2 0.28-0.34 0.58-0.5 0.86-0.14 0.28-0.32 0.54-0.44 0.82-0.12 0.28-0.2 0.6-0.3 0.88-0.1 0.34-0.22 0.66-0.3 1-0.06 0.26-0.06 0.54-0.1 0.82-0.06 0.38-0.12 0.76-0.12 1.16 0 0.04-0.02 0.08-0.02 0.14v39.32h-17.08v-68.56c0-0.3-0.06-0.58-0.08-0.88-0.02-0.28-0.02-0.56-0.06-0.86 0-0.04-0.02-0.08-0.04-0.12-0.08-0.4-0.2-0.76-0.32-1.14-0.08-0.26-0.14-0.52-0.24-0.78-0.14-0.32-0.32-0.62-0.48-0.94-0.14-0.26-0.26-0.54-0.44-0.78-0.18-0.28-0.4-0.52-0.6-0.78-0.2-0.24-0.38-0.5-0.6-0.72-0.24-0.26-0.52-0.46-0.8-0.68-0.22-0.18-0.42-0.38-0.66-0.54-0.3-0.22-0.64-0.38-0.96-0.56-0.24-0.12-0.46-0.26-0.72-0.38-0.3-0.14-0.64-0.22-0.98-0.32-0.28-0.1-0.58-0.22-0.88-0.28-0.3-0.06-0.6-0.08-0.9-0.12-0.36-0.04-0.72-0.1-1.08-0.1-0.06 0-0.1-0.02-0.16-0.02-0.3 0-0.58 0.06-0.88 0.08-0.28 0.04-0.56 0.02-0.84 0.08l-166.24 29.22c-0.04 0.02-0.08 0.04-0.12 0.04-0.4 0.08-0.76 0.2-1.14 0.32-0.26 0.08-0.54 0.14-0.78 0.24-0.32 0.14-0.62 0.32-0.92 0.48-0.28 0.14-0.56 0.26-0.82 0.44-0.26 0.16-0.48 0.38-0.72 0.58-0.26 0.2-0.54 0.4-0.78 0.62-0.22 0.22-0.4 0.48-0.62 0.74-0.2 0.24-0.42 0.46-0.6 0.72-0.18 0.28-0.32 0.58-0.48 0.88-0.16 0.26-0.32 0.52-0.46 0.8-0.12 0.28-0.18 0.6-0.28 0.88-0.12 0.34-0.24 0.66-0.32 1-0.04 0.26-0.06 0.54-0.1 0.82-0.04 0.38-0.1 0.76-0.12 1.16v39.46h-17.08v-68.56c0-0.3-0.06-0.58-0.1-0.88-0.02-0.28 0-0.56-0.06-0.86 0-0.04-0.02-0.08-0.04-0.12-0.06-0.4-0.2-0.76-0.3-1.14-0.1-0.26-0.16-0.52-0.26-0.78-0.12-0.32-0.3-0.62-0.48-0.94-0.14-0.26-0.26-0.54-0.42-0.8-0.18-0.26-0.4-0.5-0.6-0.74-0.2-0.26-0.4-0.52-0.62-0.74-0.24-0.24-0.5-0.44-0.78-0.66-0.22-0.2-0.44-0.4-0.68-0.56-0.28-0.22-0.62-0.36-0.94-0.54-0.24-0.14-0.48-0.28-0.72-0.4-0.32-0.14-0.64-0.22-0.98-0.32-0.3-0.1-0.58-0.22-0.9-0.28-0.28-0.06-0.58-0.08-0.88-0.12-0.38-0.04-0.74-0.1-1.1-0.1-0.06 0-0.1-0.02-0.14-0.02-0.3 0-0.6 0.06-0.9 0.08-0.28 0.04-0.56 0.02-0.84 0.08l-166.24 29.22c-0.04 0.02-0.08 0.04-0.12 0.04-0.4 0.08-0.76 0.2-1.14 0.32-0.26 0.08-0.54 0.14-0.78 0.24-0.32 0.14-0.62 0.32-0.92 0.48-0.28 0.14-0.56 0.26-0.82 0.44-0.26 0.16-0.48 0.38-0.72 0.58-0.26 0.2-0.54 0.4-0.76 0.62-0.24 0.22-0.42 0.48-0.62 0.72s-0.44 0.48-0.62 0.74c-0.18 0.28-0.32 0.58-0.48 0.86-0.16 0.28-0.32 0.54-0.44 0.82-0.12 0.28-0.2 0.58-0.3 0.88-0.1 0.32-0.24 0.66-0.3 1-0.06 0.26-0.08 0.54-0.12 0.82-0.04 0.38-0.1 0.76-0.12 1.16v39.46H53.48c-5.54 0-10 4.48-10 10v390.92c0 5.54 4.46 10 10 10h917.04c5.54 0 10-4.46 10-10v-157.1c0-5.52-4.46-10-10-10h-50.28v-65.32h50.28z m-50.28-443.98h40.28v423.98h-40.28V257.76zM510.66 502.3l146.24-25.7v56.64h-146.24v-30.94z m-203.3 0l146.22-25.7v56.64h-146.22v-30.94z m-203.32 0l146.24-25.7v56.64H104.04v-30.94z m593.44 421.86h-634V553.24h634v370.92z m58.48-813.46h105.8v24.8h-105.8v-24.8z m204.56 676.36v137.1H717.48v-55.8h45.98c5.52 0 10-4.48 10-10s-4.48-10-10-10h-45.98v-32.52h45.98c5.52 0 10-4.48 10-10s-4.48-10-10-10h-45.98v-32.52h45.98c5.52 0 10-4.48 10-10s-4.48-10-10-10h-45.98V710.8h45.98c5.52 0 10-4.48 10-10s-4.48-10-10-10h-45.98v-32.52h45.98c5.52 0 10-4.48 10-10s-4.48-10-10-10h-45.98v-32.52h45.98c5.52 0 10-4.48 10-10s-4.48-10-10-10h-45.98v-32.52h45.98c5.52 0 10-4.48 10-10s-4.48-10-10-10h-45.98v-32.52h45.98c5.52 0 10-4.48 10-10s-4.48-10-10-10h-45.98V448.2h45.98c5.52 0 10-4.48 10-10 0-5.54-4.48-10-10-10h-45.98v-32.52h45.98c5.52 0 10-4.48 10-10s-4.48-10-10-10h-45.98v-32.52h45.98c5.52 0 10-4.48 10-10s-4.48-10-10-10h-45.98v-32.52h45.98c5.52 0 10-4.48 10-10s-4.48-10-10-10h-45.98v-32.52h45.98c5.52 0 10-4.48 10-10 0-5.54-4.48-10-10-10h-45.98V155.5h182.76v621.56c0 5.52 4.48 10 10 10h50.28z" fill="#23130D" p-id="44162"></path><path d="M755.96 110.7h105.8v24.8h-105.8z" fill="#E1E1E5" p-id="44163"></path><path d="M755.96 110.7h105.8v11.05h-105.8z" opacity=".2" p-id="44164"></path><path d="M920.24 257.76h40.28v423.98h-40.28z" fill="#F8D3C9" p-id="44165"></path><path d="M920.24 257.76h20.14v423.98h-20.14z" opacity=".2" p-id="44166"></path><path d="M960.52 787.06v137.1H717.48v-55.8h45.98c5.52 0 10-4.48 10-10s-4.48-10-10-10h-45.98v-32.52h45.98c5.52 0 10-4.48 10-10s-4.48-10-10-10h-45.98v-32.52h45.98c5.52 0 10-4.48 10-10s-4.48-10-10-10h-45.98V710.8h45.98c5.52 0 10-4.48 10-10s-4.48-10-10-10h-45.98v-32.52h45.98c5.52 0 10-4.48 10-10s-4.48-10-10-10h-45.98v-32.52h45.98c5.52 0 10-4.48 10-10s-4.48-10-10-10h-45.98v-32.52h45.98c5.52 0 10-4.48 10-10s-4.48-10-10-10h-45.98v-32.52h45.98c5.52 0 10-4.48 10-10s-4.48-10-10-10h-45.98V448.2h45.98c5.52 0 10-4.48 10-10 0-5.54-4.48-10-10-10h-45.98v-32.52h45.98c5.52 0 10-4.48 10-10s-4.48-10-10-10h-45.98v-32.52h45.98c5.52 0 10-4.48 10-10s-4.48-10-10-10h-45.98v-32.52h45.98c5.52 0 10-4.48 10-10s-4.48-10-10-10h-45.98v-32.52h45.98c5.52 0 10-4.48 10-10 0-5.54-4.48-10-10-10h-45.98V155.5h182.76v621.56c0 5.52 4.48 10 10 10h50.28z" fill="#E59D89" p-id="44167"></path><path d="M717.48 155.5h27.72v62.62h-27.72zM717.48 238.12h27.72v32.52h-27.72zM717.48 290.64h27.72v32.52h-27.72zM717.48 343.16h27.72v32.52h-27.72zM717.48 395.68h27.72v32.52h-27.72zM717.48 448.2h27.72v32.52h-27.72zM717.48 500.72h27.72v32.52h-27.72zM717.48 553.24h27.72v32.52h-27.72zM717.48 605.76h27.72v32.52h-27.72zM717.48 658.28h27.72v32.52h-27.72zM717.48 710.8h27.72v32.52h-27.72zM717.48 763.32h27.72v32.52h-27.72zM717.48 815.84h27.72v32.52h-27.72zM717.48 868.36h27.72v55.8h-27.72z" opacity=".2" p-id="44168"></path><path d="M910.626 787.06h-27.72c-5.52 0-10-4.48-10-10V155.5h27.72v621.56c0 5.52 4.48 10 10 10zM932.8 787.06h27.72v137.1H932.8z" fill="#FFFFFF" opacity=".4" p-id="44169"></path><path d="M656.9 476.6v56.64h-146.24v-30.94zM453.58 476.6v56.64h-146.22v-30.94zM250.28 476.6v56.64H104.04v-30.94z" fill="#E1E1E5" p-id="44170"></path><path d="M250.28 476.6v20l-146.24 25.7v-20zM453.59 476.6v20l-146.24 25.7v-20zM656.9 476.6v20l-146.24 25.7v-20z" opacity=".2" p-id="44171"></path><path d="M63.48 553.24v370.92h634V553.24h-634z m189.98 138.5c0 5.52-4.48 10-10 10h-132.6c-5.54 0-10-4.48-10-10v-92.42c0-5.52 4.46-10 10-10h132.6c5.52 0 10 4.48 10 10v92.42z m203.32 0c0 5.52-4.48 10-10 10h-132.62c-5.52 0-10-4.48-10-10v-92.42c0-5.52 4.48-10 10-10h132.62c5.52 0 10 4.48 10 10v92.42z m203.32 0c0 5.52-4.48 10-10 10h-132.62c-5.52 0-10-4.48-10-10v-92.42c0-5.52 4.48-10 10-10h132.62c5.52 0 10 4.48 10 10v92.42z" fill="#CC7B5A" p-id="44172"></path><path d="M687.48 563.24v350.92h-614V563.24h614m-170 148.5h132.62c11.028 0 20-8.972 20-20v-92.42c0-11.028-8.972-20-20-20h-132.62c-11.028 0-20 8.972-20 20v92.42c0 11.028 8.972 20 20 20m-203.32 0h132.62c11.028 0 20-8.972 20-20v-92.42c0-11.028-8.972-20-20-20h-132.62c-11.028 0-20 8.972-20 20v92.42c0 11.028 8.972 20 20 20m-203.3 0h132.6c11.028 0 20-8.972 20-20v-92.42c0-11.028-8.972-20-20-20h-132.6c-11.028 0-20 8.972-20 20v92.42c0 11.028 8.972 20 20 20m586.62-158.5h-634v370.92h634V553.24z m-180 148.5c-5.52 0-10-4.48-10-10v-92.42c0-5.52 4.48-10 10-10h132.62c5.52 0 10 4.48 10 10v92.42c0 5.52-4.48 10-10 10h-132.62z m-203.32 0c-5.52 0-10-4.48-10-10v-92.42c0-5.52 4.48-10 10-10h132.62c5.52 0 10 4.48 10 10v92.42c0 5.52-4.48 10-10 10h-132.62z m-203.3 0c-5.54 0-10-4.48-10-10v-92.42c0-5.52 4.46-10 10-10h132.6c5.52 0 10 4.48 10 10v92.42c0 5.52-4.48 10-10 10h-132.6z" opacity=".2" p-id="44173"></path><path d="M527.48 609.32h112.62v72.42h-112.62zM120.86 609.32h112.6v72.42h-112.6z" fill="#F9C139" p-id="44174"></path><path d="M233.46 609.32v14h-98.6v58.42h-14v-72.42z" fill="#FFFFFF" opacity=".4" p-id="44175"></path><path d="M324.16 609.32h112.62v72.42h-112.62z" fill="#F9C139" p-id="44176"></path><path d="M602.14 101.86c-39.26-23.56-86.16-28.28-135.66-13.66-29.32 8.68-51.22 21.58-59.52 26.9-81.96-15.08-147.58-2.84-195.02 36.44-76.94 63.7-77.42 174.28-77.4 178.96 0 0.26 0.06 0.48 0.08 0.74 0.02 0.3 0.04 0.62 0.1 0.94 0.06 0.36 0.14 0.68 0.24 1.02 0.08 0.28 0.16 0.56 0.26 0.84 0.14 0.34 0.3 0.66 0.46 0.96 0.12 0.26 0.26 0.52 0.4 0.76 0.18 0.3 0.4 0.56 0.6 0.84 0.2 0.24 0.38 0.46 0.58 0.68 0.22 0.24 0.46 0.46 0.72 0.68 0.24 0.22 0.48 0.42 0.72 0.6 0.28 0.2 0.56 0.36 0.86 0.54 0.26 0.14 0.52 0.3 0.82 0.44 0.32 0.14 0.66 0.26 1 0.38 0.22 0.06 0.4 0.16 0.62 0.22 2.2 0.58 28.86 7.38 65 7.38 37.9 0 86.22-7.48 127.66-37.44 49.74-35.96 78.02-96.1 84.08-178.76 18.38-11.48 99.32-56.6 173.12-12.32 4.74 2.84 10.88 1.3 13.72-3.42a10 10 0 0 0-3.44-13.72zM323.06 293.8c-61.44 44.48-142.98 33.5-168.2 28.66 1.6-25.6 11.32-107.08 69.82-155.52 39.16-32.42 92.98-44.2 160.18-35.14l-130.84 101.28a9.996 9.996 0 0 0-1.78 14.02 9.948 9.948 0 0 0 7.92 3.88c2.14 0 4.3-0.68 6.12-2.08l130.82-101.28c-8.06 67.26-32.92 116.38-74.04 146.18z" fill="#23130D" p-id="44177"></path><path d="M397.1 147.62c-8.06 67.26-32.92 116.38-74.04 146.18-61.44 44.48-142.98 33.5-168.2 28.66 1.6-25.6 11.32-107.08 69.82-155.52 39.16-32.42 92.98-44.2 160.18-35.14l-130.84 101.28a9.996 9.996 0 0 0-1.78 14.02 9.948 9.948 0 0 0 7.92 3.88c2.14 0 4.3-0.68 6.12-2.08l130.82-101.28z" fill="#72AF5F" p-id="44178"></path><path d="M384.86 131.8l-25.34 19.62c-45.32 0.98-82.96 13.7-112.34 38.02-47.84 39.62-63.06 101.32-67.88 136.5-10.38-1.02-18.82-2.4-24.44-3.48 1.6-25.6 11.32-107.08 69.82-155.52 39.16-32.42 92.98-44.2 160.18-35.14z" fill="#FFFFFF" opacity=".4" p-id="44179"></path><path d="M397.1 147.62c-8.06 67.26-32.92 116.38-74.04 146.18-61.44 44.48-142.98 33.5-168.2 28.66 0.3-4.66 0.86-11.18 1.94-19.02 36.16 3.5 96.02 2.42 143.76-32.14 30.84-22.36 52.54-55.56 64.86-99.16l31.68-24.52z" opacity=".2" p-id="44180"></path><path d="M436.77 609.32v14h-98.6v58.42h-14v-72.42zM640.08 609.32v14h-98.6v58.42h-14v-72.42z" fill="#FFFFFF" opacity=".4" p-id="44181"></path><path d="M65.294 917.272H697.48v6.514H65.294zM65.294 904.388H697.48v6.514H65.294zM65.294 891.506H697.48v6.514H65.294zM65.294 878.622H697.48v6.514H65.294zM65.294 865.738H697.48v6.514H65.294zM65.294 852.854H697.48v6.514H65.294zM65.294 839.97H697.48v6.514H65.294zM65.294 827.086H697.48v6.514H65.294z" fill="#E59D89" p-id="44182"></path></svg>