<?xml version="1.0" standalone="no"?><!DOCTYPE svg PUBLIC "-//W3C//DTD SVG 1.1//EN" "http://www.w3.org/Graphics/SVG/1.1/DTD/svg11.dtd"><svg t="1625811873605" class="icon" viewBox="0 0 1024 1024" version="1.1" xmlns="http://www.w3.org/2000/svg" p-id="41931" xmlns:xlink="http://www.w3.org/1999/xlink" width="200" height="200"><defs><style type="text/css"></style></defs><path d="M567.28 41.42c-162.58 0-294.86 132.28-294.86 294.88v0.28c0.06 1.92 4.3 192-106.14 269.16-0.04 0.02-0.06 0.04-0.1 0.06-0.02 0.02-0.04 0.04-0.06 0.04-0.08 0.06-0.12 0.12-0.2 0.18-0.44 0.34-0.88 0.68-1.26 1.08-0.16 0.16-0.28 0.34-0.42 0.5-0.28 0.34-0.56 0.66-0.8 1.02-0.12 0.2-0.22 0.42-0.32 0.62-0.2 0.36-0.4 0.72-0.56 1.12-0.08 0.22-0.14 0.44-0.2 0.66-0.14 0.4-0.26 0.78-0.34 1.18-0.06 0.3-0.06 0.58-0.08 0.88-0.04 0.32-0.1 0.64-0.1 0.96v0.12c0 0.32 0.06 0.64 0.1 0.96 0.04 0.34 0.04 0.68 0.12 1 0.02 0.1 0.06 0.22 0.1 0.34 0.12 0.52 0.28 1.04 0.48 1.52 0.04 0.08 0.08 0.14 0.12 0.2 0.24 0.54 0.52 1.06 0.84 1.54 0.02 0.02 0.02 0.04 0.04 0.04 0.3 0.46 0.66 0.86 1.02 1.22 0.08 0.1 0.18 0.18 0.26 0.26 0.84 0.82 1.8 1.46 2.84 1.92a9.752 9.752 0 0 0 1.96 0.66c0.08 0.02 0.18 0.02 0.28 0.04 0.6 0.12 1.22 0.2 1.84 0.2 0.02 0 0.04-0.02 0.06-0.02h126.62v138.3c0 5.52 4.48 10 10 10h123.42v200.24c0 5.52 4.48 10 10 10h273.3c81.02 0 146.92-65.92 146.92-146.94V336.3c0-162.6-132.28-294.88-294.88-294.88z m274.88 794.22c0 70-56.94 126.94-126.92 126.94-70 0-126.94-56.94-126.94-126.94V410.82c0-5.52-4.48-10-10-10-5.54 0-10 4.48-10 10v424.86c0 54.08 29.42 101.4 73.06 126.9h-189.42V762.34c0-5.54-4.48-10-10-10h-123.42v-138.3c0-5.52-4.48-10-10-10H199.9c38.1-35.94 65.76-89.64 80.66-157.16 12.96-58.7 11.96-107.02 11.86-110.72 0.06-151.5 123.34-274.74 274.86-274.74 151.58 0 274.88 123.3 274.88 274.88v499.34z" fill="#23130D" p-id="41932"></path><path d="M567.28 61.42c-151.52 0-274.8 123.24-274.86 274.74 0.1 3.7 1.1 52.02-11.86 110.72-14.9 67.52-42.56 121.22-80.66 157.16h108.62c5.52 0 10 4.48 10 10v138.3h123.42c5.52 0 10 4.46 10 10v200.24h189.42c-43.64-25.5-73.06-72.82-73.06-126.9V410.82c0-5.52 4.46-10 10-10 5.52 0 10 4.48 10 10v424.82c0 70 56.94 126.94 126.94 126.94 69.98 0 126.92-56.94 126.92-126.94V336.3c0-151.58-123.3-274.88-274.88-274.88z m-13.68 401.82c-0.02 0.2-0.02 0.38-0.04 0.58-0.04 0.22-0.08 0.42-0.1 0.64-0.06 0.24-0.1 0.48-0.16 0.7-0.04 0.2-0.1 0.38-0.14 0.56-0.08 0.2-0.14 0.4-0.22 0.6-0.1 0.22-0.18 0.44-0.28 0.66-0.08 0.18-0.18 0.38-0.28 0.56-0.06 0.1-0.08 0.2-0.14 0.28-0.08 0.14-0.16 0.24-0.24 0.36s-0.18 0.24-0.26 0.36c-0.06 0.08-0.1 0.18-0.16 0.24a0.42 0.42 0 0 1-0.08 0.12c-0.24 0.32-0.5 0.6-0.78 0.88l-0.08 0.08c-0.1 0.1-0.22 0.2-0.32 0.3-0.1 0.08-0.2 0.16-0.3 0.26-0.24 0.18-0.48 0.38-0.72 0.54-0.12 0.08-0.22 0.14-0.32 0.2-0.12 0.08-0.2 0.14-0.32 0.2-0.02 0.02-0.06 0.04-0.1 0.08-0.34 0.18-0.7 0.36-1.06 0.5-0.04 0.02-0.06 0.04-0.1 0.06-0.16 0.06-0.32 0.1-0.5 0.16-0.06 0.02-0.1 0.06-0.16 0.08-22.06 7.2-42.56 10.8-61.42 10.8-24.16 0-45.62-5.92-64.16-17.72-52.54-33.48-61.34-101.64-61.7-104.54-0.02-0.22 0-0.42 0-0.64-0.02-0.36-0.04-0.72-0.04-1.08 0.02-0.32 0.08-0.62 0.12-0.92 0.04-0.34 0.1-0.66 0.18-1 0.08-0.3 0.18-0.58 0.28-0.88 0.12-0.32 0.22-0.62 0.36-0.94 0.14-0.26 0.28-0.52 0.44-0.76 0.18-0.32 0.36-0.62 0.56-0.9 0.16-0.22 0.34-0.42 0.54-0.64 0.24-0.28 0.48-0.54 0.74-0.8 0.22-0.18 0.44-0.34 0.66-0.52 0.28-0.22 0.58-0.44 0.88-0.64 0.26-0.16 0.54-0.28 0.82-0.42 0.24-0.1 0.44-0.26 0.68-0.34 2.68-1.08 66.68-26.16 121.32 3.82 34.3 18.82 56.66 54.74 66.46 106.76 0.02 0.12 0.02 0.24 0.02 0.36 0.04 0.22 0.08 0.42 0.1 0.64 0.02 0.22 0.02 0.44 0.02 0.66v0.7z m30.24-75.3c-0.14 0.12-0.28 0.2-0.42 0.32-0.16 0.12-0.3 0.24-0.46 0.36l-0.36 0.24c-0.3 0.2-0.62 0.36-0.92 0.52-0.18 0.08-0.32 0.18-0.5 0.26-0.08 0.04-0.16 0.06-0.24 0.1-0.38 0.16-0.78 0.26-1.2 0.38-0.16 0.04-0.3 0.12-0.46 0.14-0.06 0.02-0.12 0.02-0.18 0.04-0.54 0.1-1.08 0.16-1.64 0.18-0.06 0-0.12 0.02-0.2 0.02h-0.06-0.04c-0.64 0-1.28-0.08-1.9-0.2h-0.12c-0.16-0.04-0.3-0.1-0.46-0.14-0.4-0.12-0.8-0.22-1.2-0.38-0.08-0.04-0.16-0.06-0.24-0.08-0.18-0.08-0.32-0.18-0.5-0.26-0.3-0.16-0.6-0.32-0.9-0.5-0.12-0.08-0.24-0.14-0.36-0.22-0.16-0.12-0.3-0.24-0.44-0.36-0.14-0.1-0.28-0.16-0.4-0.28-40.16-34.48-60.08-71.82-59.24-110.94 1.38-62.3 55.08-105.18 57.36-106.98 0.22-0.18 0.46-0.28 0.7-0.44 0.22-0.16 0.46-0.32 0.7-0.44 0.34-0.2 0.7-0.34 1.06-0.48 0.24-0.1 0.46-0.2 0.7-0.28 0.38-0.12 0.76-0.2 1.14-0.28 0.26-0.04 0.5-0.1 0.76-0.12 0.36-0.04 0.74-0.06 1.1-0.06 0.28 0 0.56 0 0.84 0.02 0.34 0.04 0.68 0.1 1.04 0.16 0.28 0.06 0.56 0.1 0.84 0.18 0.36 0.1 0.7 0.24 1.02 0.38 0.26 0.1 0.54 0.2 0.78 0.32 0.36 0.18 0.68 0.4 1.02 0.62 0.16 0.1 0.32 0.18 0.48 0.3 2.32 1.74 56.96 43.44 59.68 105.68 1.72 39.1-17.38 76.86-56.78 112.22z m208.76-27.8c0 0.22 0.02 0.42 0 0.64-0.36 2.88-9.16 71.06-61.7 104.54-18.54 11.8-40 17.72-64.16 17.72-18.86 0-39.36-3.6-61.42-10.8-0.06-0.02-0.12-0.06-0.2-0.08-0.14-0.06-0.3-0.1-0.44-0.16-0.08-0.02-0.12-0.06-0.18-0.08-0.34-0.14-0.68-0.3-0.98-0.48-0.08-0.04-0.14-0.08-0.2-0.12-0.08-0.04-0.14-0.1-0.2-0.14-0.12-0.08-0.26-0.16-0.38-0.24-0.22-0.16-0.44-0.32-0.66-0.5-0.12-0.1-0.24-0.2-0.36-0.32-0.1-0.08-0.2-0.16-0.28-0.24-0.06-0.06-0.12-0.14-0.18-0.2-0.24-0.24-0.48-0.48-0.68-0.76-0.08-0.08-0.14-0.18-0.2-0.28-0.02-0.02-0.02-0.04-0.02-0.04-0.12-0.16-0.22-0.32-0.32-0.48-0.08-0.1-0.16-0.18-0.22-0.3-0.04-0.08-0.06-0.16-0.1-0.24-0.12-0.2-0.22-0.4-0.32-0.6-0.12-0.24-0.2-0.48-0.3-0.7-0.06-0.18-0.12-0.34-0.18-0.5-0.06-0.2-0.12-0.4-0.18-0.62-0.06-0.24-0.1-0.5-0.14-0.76-0.04-0.18-0.06-0.34-0.08-0.52-0.04-0.22-0.04-0.42-0.06-0.64-0.02-0.26 0-0.52 0-0.78a8.33 8.33 0 0 1 0.1-1.22c0.02-0.12 0.02-0.24 0.04-0.36 9.78-52.02 32.16-87.94 66.46-106.76 54.62-29.96 118.62-4.9 121.32-3.82 0.28 0.1 0.52 0.26 0.76 0.4 0.24 0.12 0.48 0.22 0.7 0.36 0.34 0.2 0.66 0.44 0.98 0.68 0.18 0.16 0.38 0.3 0.56 0.48 0.3 0.26 0.56 0.54 0.82 0.84 0.16 0.2 0.34 0.38 0.48 0.6 0.22 0.28 0.42 0.6 0.6 0.92 0.14 0.24 0.28 0.48 0.4 0.74 0.14 0.32 0.26 0.64 0.38 0.96 0.1 0.28 0.2 0.56 0.28 0.86 0.08 0.34 0.14 0.68 0.18 1.02 0.04 0.3 0.1 0.58 0.1 0.9 0.02 0.36 0 0.72-0.02 1.08z" fill="#F8D3C9" p-id="41933"></path><path d="M567.28 61.42c-5.14 0-10.24 0.14-15.32 0.42 144.48 8 259.54 128.02 259.54 274.46v499.34c0 64.8-48.8 118.42-111.58 126.02 5.02 0.6 10.14 0.92 15.32 0.92 69.98 0 126.92-56.94 126.92-126.94V336.3c0-151.58-123.3-274.88-274.88-274.88z" fill="#0C0B0B" opacity=".2" p-id="41934"></path><path d="M339.18 604.04h-30.66c5.52 0 10 4.48 10 10v138.3h30.66v-138.3c0-5.52-4.48-10-10-10z m133.42 148.3h-30.66c5.52 0 10 4.46 10 10v200.24h30.66V762.34c0-5.54-4.48-10-10-10z m110.02-690.5c-5.08-0.28-10.2-0.42-15.34-0.42-151.52 0-274.8 123.24-274.86 274.74 0.1 3.7 1.1 52.02-11.86 110.72-14.9 67.52-42.56 121.22-80.66 157.16h30.66c38.1-35.94 65.76-89.64 80.66-157.16 12.96-58.7 11.96-107.02 11.86-110.72 0.06-146.36 115.12-266.34 259.54-274.32z" fill="#FFFFFF" opacity=".4" p-id="41935"></path><path d="M553.58 461.88c-0.02-0.22-0.06-0.42-0.1-0.64 0-0.12 0-0.24-0.02-0.36-9.8-52.02-32.16-87.94-66.46-106.76-54.64-29.98-118.64-4.9-121.32-3.82-0.24 0.08-0.44 0.24-0.68 0.34-0.28 0.14-0.56 0.26-0.82 0.42-0.3 0.2-0.6 0.42-0.88 0.64-0.22 0.18-0.44 0.34-0.66 0.52-0.26 0.26-0.5 0.52-0.74 0.8-0.2 0.22-0.38 0.42-0.54 0.64-0.2 0.28-0.38 0.58-0.56 0.9-0.16 0.24-0.3 0.5-0.44 0.76-0.14 0.32-0.24 0.62-0.36 0.94-0.1 0.3-0.2 0.58-0.28 0.88-0.08 0.34-0.14 0.66-0.18 1-0.04 0.3-0.1 0.6-0.12 0.92 0 0.36 0.02 0.72 0.04 1.08 0 0.22-0.02 0.42 0 0.64 0.36 2.9 9.16 71.06 61.7 104.54 18.54 11.8 40 17.72 64.16 17.72 18.86 0 39.36-3.6 61.42-10.8 0.06-0.02 0.1-0.06 0.16-0.08 0.18-0.06 0.34-0.1 0.5-0.16 0.04-0.02 0.06-0.04 0.1-0.06 0.36-0.14 0.72-0.32 1.06-0.5 0.04-0.04 0.08-0.06 0.1-0.08 0.12-0.06 0.2-0.12 0.32-0.2 0.1-0.06 0.2-0.12 0.32-0.2 0.24-0.16 0.48-0.36 0.72-0.54 0.1-0.1 0.2-0.18 0.3-0.26 0.1-0.1 0.22-0.2 0.32-0.3l0.08-0.08c0.28-0.28 0.54-0.56 0.78-0.88 0.04-0.04 0.06-0.08 0.08-0.12 0.06-0.06 0.1-0.16 0.16-0.24 0.08-0.12 0.18-0.24 0.26-0.36s0.16-0.22 0.24-0.36c0.06-0.08 0.08-0.18 0.14-0.28 0.1-0.18 0.2-0.38 0.28-0.56 0.1-0.22 0.18-0.44 0.28-0.66 0.08-0.2 0.14-0.4 0.22-0.6 0.04-0.18 0.1-0.36 0.14-0.56 0.06-0.22 0.1-0.46 0.16-0.7 0.02-0.22 0.06-0.42 0.1-0.64 0.02-0.2 0.02-0.38 0.04-0.58v-0.7c0-0.22 0-0.44-0.02-0.66z m-113.14-48.62l77.74 46.02c-34.36 7.36-63.28 3.78-86.16-10.76-34.96-22.2-47.44-64.64-51.24-82.22 17.18-5.14 60.22-14.6 96.6 5.36 23.82 13.06 40.9 36.72 50.98 70.42l-77.74-46.04c-4.74-2.8-10.88-1.22-13.7 3.52a10.008 10.008 0 0 0 3.52 13.7z" fill="#23130D" p-id="41936"></path><path d="M440.44 413.26l77.74 46.02c-34.36 7.36-63.28 3.78-86.16-10.76-34.96-22.2-47.44-64.64-51.24-82.22 17.18-5.14 60.22-14.6 96.6 5.36 23.82 13.06 40.9 36.72 50.98 70.42l-77.74-46.04c-4.74-2.8-10.88-1.22-13.7 3.52a10.008 10.008 0 0 0 3.52 13.7z" fill="#72AF5F" p-id="41937"></path><path d="M528.36 442.08l-8.38-4.96c-10.2-22.04-24.44-38.16-42.6-48.12-33.62-18.44-72.9-11.76-92.24-6.58a170.12 170.12 0 0 1-4.36-16.12c17.18-5.14 60.22-14.6 96.6 5.36 23.82 13.06 40.9 36.72 50.98 70.42z" fill="#0C0B0B" opacity=".2" p-id="41938"></path><path d="M518.18 459.28c-34.36 7.36-63.28 3.78-86.16-10.76-34.96-22.2-47.44-64.64-51.24-82.22 1.3-0.38 2.76-0.8 4.36-1.22 6.64 20.48 20.22 49.18 46.88 66.1 17.44 11.08 38.38 15.8 62.58 14.14l23.58 13.96z" fill="#FFFFFF" opacity=".4" p-id="41939"></path><path d="M792.52 358.16c-0.04-0.34-0.1-0.68-0.18-1.02-0.08-0.3-0.18-0.58-0.28-0.86-0.12-0.32-0.24-0.64-0.38-0.96-0.12-0.26-0.26-0.5-0.4-0.74-0.18-0.32-0.38-0.64-0.6-0.92-0.14-0.22-0.32-0.4-0.48-0.6-0.26-0.3-0.52-0.58-0.82-0.84-0.18-0.18-0.38-0.32-0.56-0.48-0.32-0.24-0.64-0.48-0.98-0.68-0.22-0.14-0.46-0.24-0.7-0.36-0.24-0.14-0.48-0.3-0.76-0.4-2.7-1.08-66.7-26.14-121.32 3.82-34.3 18.82-56.68 54.74-66.46 106.76-0.02 0.12-0.02 0.24-0.04 0.36-0.04 0.24-0.06 0.46-0.08 0.7-0.02 0.18-0.02 0.36-0.02 0.52 0 0.26-0.02 0.52 0 0.78 0.02 0.22 0.02 0.42 0.06 0.64 0.02 0.18 0.04 0.34 0.08 0.52 0.04 0.26 0.08 0.52 0.14 0.76 0.06 0.22 0.12 0.42 0.18 0.62 0.06 0.16 0.12 0.32 0.18 0.5 0.1 0.22 0.18 0.46 0.3 0.7 0.1 0.2 0.2 0.4 0.32 0.6 0.04 0.08 0.06 0.16 0.1 0.24 0.06 0.12 0.14 0.2 0.22 0.3 0.1 0.16 0.2 0.32 0.32 0.48a1.42 1.42 0 0 0 0.22 0.32c0.2 0.28 0.44 0.52 0.68 0.76 0.06 0.06 0.12 0.14 0.18 0.2 0.08 0.08 0.18 0.16 0.28 0.24 0.12 0.12 0.24 0.22 0.36 0.32 0.22 0.18 0.44 0.34 0.66 0.5 0.12 0.08 0.26 0.16 0.38 0.24 0.06 0.04 0.12 0.1 0.2 0.14 0.06 0.04 0.12 0.08 0.2 0.12 0.3 0.18 0.64 0.34 0.98 0.48 0.06 0.02 0.1 0.06 0.18 0.08 0.14 0.06 0.3 0.1 0.44 0.16 0.08 0.02 0.14 0.06 0.2 0.08 22.06 7.2 42.56 10.8 61.42 10.8 24.16 0 45.62-5.92 64.16-17.72 52.54-33.48 61.34-101.66 61.7-104.54 0.02-0.22 0-0.42 0-0.64 0.02-0.36 0.04-0.72 0.02-1.08 0-0.32-0.06-0.6-0.1-0.9z m-72.48 90.36c-22.88 14.54-51.8 18.12-86.16 10.76l77.74-46.02a10.008 10.008 0 0 0 3.52-13.7 10.012 10.012 0 0 0-13.7-3.52l-77.74 46.04c10.06-33.64 27.12-57.28 50.88-70.36 36.24-19.96 79.44-10.52 96.7-5.4-3.8 17.58-16.3 60.02-51.24 82.2z" fill="#23130D" p-id="41940"></path><path d="M771.28 366.32c-3.8 17.58-16.3 60.02-51.24 82.2-22.88 14.54-51.8 18.12-86.16 10.76l77.74-46.02a10.008 10.008 0 0 0 3.52-13.7 10.012 10.012 0 0 0-13.7-3.52l-77.74 46.04c10.06-33.64 27.12-57.28 50.88-70.36 36.24-19.96 79.44-10.52 96.7-5.4z" fill="#72AF5F" p-id="41941"></path><path d="M640.62 275.72c-2.72-62.24-57.36-103.94-59.68-105.68-0.16-0.12-0.32-0.2-0.48-0.3-0.34-0.22-0.66-0.44-1.02-0.62-0.24-0.12-0.52-0.22-0.78-0.32-0.32-0.14-0.66-0.28-1.02-0.38-0.28-0.08-0.56-0.12-0.84-0.18-0.36-0.06-0.7-0.12-1.04-0.16-0.28-0.02-0.56-0.02-0.84-0.02-0.36 0-0.74 0.02-1.1 0.06-0.26 0.02-0.5 0.08-0.76 0.12-0.38 0.08-0.76 0.16-1.14 0.28-0.24 0.08-0.46 0.18-0.7 0.28-0.36 0.14-0.72 0.28-1.06 0.48-0.24 0.12-0.48 0.28-0.7 0.44-0.24 0.16-0.48 0.26-0.7 0.44-2.28 1.8-55.98 44.68-57.36 106.98-0.84 39.12 19.08 76.46 59.24 110.94 0.12 0.12 0.26 0.18 0.4 0.28 0.14 0.12 0.28 0.24 0.44 0.36 0.12 0.08 0.24 0.14 0.36 0.22 0.3 0.18 0.6 0.34 0.9 0.5 0.18 0.08 0.32 0.18 0.5 0.26 0.08 0.02 0.16 0.04 0.24 0.08 0.4 0.16 0.8 0.26 1.2 0.38 0.16 0.04 0.3 0.1 0.46 0.14h0.12c0.62 0.12 1.26 0.2 1.9 0.2h0.1c0.08 0 0.14-0.02 0.2-0.02 0.56-0.02 1.1-0.08 1.64-0.18 0.06-0.02 0.12-0.02 0.18-0.04 0.16-0.02 0.3-0.1 0.46-0.14 0.42-0.12 0.82-0.22 1.2-0.38 0.08-0.04 0.16-0.06 0.24-0.1 0.18-0.08 0.32-0.18 0.5-0.26 0.3-0.16 0.62-0.32 0.92-0.52l0.36-0.24c0.16-0.12 0.3-0.24 0.46-0.36 0.14-0.12 0.28-0.2 0.42-0.32 39.4-35.36 58.5-73.12 56.78-112.22z m-53.72 81l-1-90.32c-0.06-5.54-4.6-10.02-10.1-9.9a10.004 10.004 0 0 0-9.9 10.1l1 90.34c-24.1-25.54-36.06-52.12-35.5-79.24 0.84-41.36 30.62-74.06 43.68-86.44 13.34 12.1 43.82 44.12 45.58 85.46 1.14 27.1-10.22 53.94-33.76 80z" fill="#23130D" p-id="41942"></path><path d="M586.9 356.72l-1-90.32c-0.06-5.54-4.6-10.02-10.1-9.9a10.004 10.004 0 0 0-9.9 10.1l1 90.34c-24.1-25.54-36.06-52.12-35.5-79.24 0.84-41.36 30.62-74.06 43.68-86.44 13.34 12.1 43.82 44.12 45.58 85.46 1.14 27.1-10.22 53.94-33.76 80z" fill="#72AF5F" p-id="41943"></path><path d="M566.72 340.18l0.18 16.76c-24.1-25.54-36.06-52.12-35.5-79.24 0.84-41.36 30.62-74.06 43.68-86.44 2 1.82 4.4 4.1 7.02 6.78-14.5 15.44-36.24 44.4-36.94 79.66-0.46 21.24 6.8 42.16 21.56 62.48z" fill="#FFFFFF" opacity=".4" p-id="41944"></path><path d="M586.9 356.72l-0.18-17.04c14.3-20.66 21.08-41.72 20.18-62.96-1.5-35.12-23.72-63.52-38.56-78.68a156.04 156.04 0 0 1 6.72-6.78c13.36 12.1 43.84 44.12 45.6 85.46 1.14 27.1-10.24 53.94-33.76 80z" fill="#0C0B0B" opacity=".2" p-id="41945"></path><path d="M623.27 442.08l8.38-4.96c10.2-22.04 24.44-38.16 42.6-48.12 33.62-18.44 72.9-11.76 92.24-6.58a170.12 170.12 0 0 0 4.36-16.12c-17.18-5.14-60.22-14.6-96.6 5.36-23.82 13.06-40.9 36.72-50.98 70.42z" fill="#0C0B0B" opacity=".2" p-id="41946"></path><path d="M633.45 459.28c34.36 7.36 63.28 3.78 86.16-10.76 34.96-22.2 47.44-64.64 51.24-82.22-1.3-0.38-2.76-0.8-4.36-1.22-6.64 20.48-20.22 49.18-46.88 66.1-17.44 11.08-38.38 15.8-62.58 14.14l-23.58 13.96z" fill="#FFFFFF" opacity=".4" p-id="41947"></path></svg>