<?xml version="1.0" standalone="no"?><!DOCTYPE svg PUBLIC "-//W3C//DTD SVG 1.1//EN" "http://www.w3.org/Graphics/SVG/1.1/DTD/svg11.dtd"><svg t="1625811897955" class="icon" viewBox="0 0 1024 1024" version="1.1" xmlns="http://www.w3.org/2000/svg" p-id="43228" xmlns:xlink="http://www.w3.org/1999/xlink" width="200" height="200"><defs><style type="text/css"></style></defs><path d="M512 150.08c-163.84 0-297.16 133.3-297.16 297.16 0 57.34 16.36 113 47.32 160.96 29 44.9 69.36 81.04 116.98 104.86v20.1h-18.18c-5.52 0-10 4.46-10 10 0 5.52 4.48 10 10 10h18.18v177.56c0 5.52 4.48 10 10 10h53.04v37.46c0 5.52 4.48 10 10 10h119.68c5.52 0 10-4.48 10-10v-37.46h53.02c5.52 0 10-4.48 10-10v-52.2h18.18c5.54 0 10-4.48 10-10s-4.46-10-10-10h-18.18v-40.88h18.18c5.54 0 10-4.48 10-10s-4.46-10-10-10h-18.18v-44.48h18.18c5.54 0 10-4.48 10-10 0-5.54-4.46-10-10-10h-18.18v-20.1a297.926 297.926 0 0 0 116.98-104.86c30.96-47.96 47.32-103.62 47.32-160.96 0-163.86-133.32-297.16-297.18-297.16z m49.86 818.1h-99.68v-27.46h99.68v27.46z m63.02-170.54h-140c-5.52 0-10 4.48-10 10s4.48 10 10 10h140v40.88h-140c-5.52 0-10 4.48-10 10s4.48 10 10 10h140v42.2H399.14v-167.56h225.74v44.48z m5.72-99.82c-0.2 0.1-0.36 0.24-0.54 0.34-0.34 0.18-0.68 0.36-0.98 0.58-0.26 0.18-0.48 0.4-0.72 0.6-0.26 0.22-0.5 0.42-0.74 0.66-0.22 0.24-0.4 0.5-0.6 0.76-0.2 0.24-0.4 0.5-0.58 0.78-0.16 0.26-0.3 0.54-0.44 0.82a7 7 0 0 0-0.7 1.82c-0.1 0.3-0.18 0.6-0.24 0.92-0.06 0.36-0.08 0.74-0.12 1.1 0 0.22-0.06 0.44-0.06 0.66v26.3h-100.56v-197.78c0-5.54-4.46-10-10-10-5.52 0-10 4.46-10 10v197.78h-105.18v-26.3c0-0.24-0.04-0.46-0.06-0.68-0.04-0.36-0.04-0.72-0.12-1.06-0.06-0.34-0.14-0.66-0.24-0.98-0.08-0.3-0.16-0.58-0.28-0.88-0.12-0.32-0.28-0.62-0.42-0.92-0.14-0.28-0.28-0.54-0.44-0.8-0.18-0.28-0.38-0.54-0.58-0.8-0.2-0.24-0.38-0.5-0.6-0.72-0.24-0.26-0.5-0.48-0.74-0.7-0.24-0.2-0.46-0.4-0.72-0.58-0.3-0.22-0.64-0.4-0.98-0.6-0.18-0.1-0.34-0.22-0.54-0.32-96.34-45.66-158.58-144.02-158.58-250.58 0-152.82 124.34-277.16 277.16-277.16 152.84 0 277.18 124.34 277.18 277.16 0 106.56-62.26 204.92-158.58 250.58z" fill="#23130D" p-id="43229"></path><path d="M462.18 940.72h99.68v27.46h-99.68z" fill="#636368" p-id="43230"></path><path d="M462.18 940.72h99.68v13.73h-99.68z" fill="#FFFFFF" opacity=".7" p-id="43231"></path><path d="M474.88 807.64c0 5.52 4.48 10 10 10h140v40.88h-140c-5.52 0-10 4.48-10 10s4.48 10 10 10h140v42.2H399.14v-167.56h225.74v44.48h-140c-5.52 0-10 4.48-10 10z" fill="#E1E1E5" p-id="43232"></path><path d="M576.3 753.16h48.58v44.48h-48.58zM576.3 817.64h48.58v40.88h-48.58zM576.3 878.52h48.58v42.2h-48.58z" fill="#FFFFFF" opacity=".7" p-id="43233"></path><path d="M399.14 753.16h35.86v167.56h-35.86z" opacity=".2" p-id="43234"></path><path d="M566.7 451.58c-5.58 11.94-13.18 23.7-22.8 35.24l22.88 22.88c8.5-11.38 18.48-20.8 29.88-28.16l-29.96-29.96zM512 170.08c-39.44 0-76.98 8.28-111 23.22a276.034 276.034 0 0 0-58.08 34.5 272.7 272.7 0 0 0-30.6 27.44c-9.14 9.5-17.62 19.64-25.34 30.36-3.94 5.48-7.7 11.12-11.26 16.9-9.42 15.32-17.4 31.62-23.74 48.72-11.08 29.94-17.14 62.28-17.14 96.02 0 106.56 62.24 204.92 158.58 250.58 0.2 0.1 0.36 0.22 0.54 0.32 0.34 0.2 0.68 0.38 0.98 0.6 0.26 0.18 0.48 0.38 0.72 0.58 0.24 0.22 0.5 0.44 0.74 0.7 0.22 0.22 0.4 0.48 0.6 0.72 0.2 0.26 0.4 0.52 0.58 0.8 0.16 0.26 0.3 0.52 0.44 0.8 0.14 0.3 0.3 0.6 0.42 0.92 0.12 0.3 0.2 0.58 0.28 0.88 0.1 0.32 0.18 0.64 0.24 0.98 0.08 0.34 0.08 0.7 0.12 1.06 0.02 0.22 0.06 0.44 0.06 0.68v26.3h105.18v-197.78c0-1.28 0.24-2.5 0.66-3.6a10 10 0 0 1 9.34-6.4c5.54 0 10 4.46 10 10v197.78h100.56v-26.3c0-0.22 0.06-0.44 0.06-0.66 0.04-0.36 0.06-0.74 0.12-1.1 0.06-0.32 0.14-0.62 0.24-0.92a7 7 0 0 1 0.7-1.82c0.14-0.28 0.28-0.56 0.44-0.82 0.18-0.28 0.38-0.54 0.58-0.78 0.2-0.26 0.38-0.52 0.6-0.76 0.24-0.24 0.48-0.44 0.74-0.66 0.24-0.2 0.46-0.42 0.72-0.6 0.3-0.22 0.64-0.4 0.98-0.58 0.18-0.1 0.34-0.24 0.54-0.34 9.04-4.28 17.78-9.04 26.2-14.22 5.8-3.56 11.44-7.32 16.9-11.3 10.76-7.74 20.88-16.22 30.32-25.36 9.9-9.56 19.04-19.82 27.36-30.68 13.8-17.9 25.36-37.44 34.44-58.16 15.12-34.44 23.36-72.1 23.36-110.86 0-152.82-124.34-277.16-277.18-277.16z m-23.4 417.86c0.02 0.22 0.02 0.44 0.04 0.66 0 0.22 0 0.46-0.02 0.68 0 0.2-0.02 0.4-0.04 0.6-0.02 0.22-0.06 0.44-0.1 0.64-0.04 0.24-0.08 0.48-0.14 0.7-0.04 0.18-0.1 0.36-0.16 0.56-0.06 0.2-0.14 0.4-0.22 0.62-0.08 0.2-0.16 0.42-0.26 0.62s-0.2 0.38-0.3 0.56c-0.04 0.1-0.08 0.22-0.14 0.3-0.06 0.14-0.16 0.24-0.24 0.38-0.08 0.1-0.16 0.22-0.24 0.34-0.06 0.08-0.12 0.18-0.18 0.28l-0.06 0.06c-0.26 0.34-0.52 0.62-0.8 0.92l-0.06 0.06c-0.12 0.1-0.24 0.2-0.34 0.3-0.1 0.08-0.18 0.16-0.28 0.24-0.24 0.2-0.48 0.38-0.74 0.56-0.1 0.08-0.2 0.14-0.3 0.2-0.12 0.08-0.24 0.16-0.36 0.22-0.02 0.02-0.04 0.04-0.06 0.04-0.34 0.2-0.72 0.38-1.1 0.54-0.02 0-0.04 0.02-0.06 0.02-0.18 0.08-0.34 0.12-0.52 0.18-0.06 0.02-0.1 0.06-0.16 0.08-22.66 7.4-43.72 11.1-63.1 11.1-24.8 0-46.82-6.08-65.86-18.2-53.94-34.38-62.98-104.38-63.34-107.34-0.04-0.22 0-0.42-0.02-0.64-0.02-0.36-0.04-0.72-0.02-1.08 0.02-0.32 0.06-0.62 0.1-0.92 0.06-0.34 0.1-0.68 0.2-1 0.06-0.3 0.16-0.58 0.28-0.88 0.1-0.32 0.22-0.64 0.36-0.94 0.12-0.26 0.28-0.52 0.42-0.76 0.18-0.32 0.36-0.62 0.58-0.9 0.16-0.22 0.34-0.42 0.52-0.64 0.24-0.28 0.48-0.54 0.76-0.8 0.2-0.18 0.42-0.36 0.64-0.52 0.3-0.22 0.58-0.44 0.9-0.64 0.26-0.16 0.54-0.28 0.82-0.42 0.22-0.12 0.42-0.26 0.66-0.36 1.84-0.72 31.38-12.3 67.44-11.02 18.3 0.64 38.26 4.58 57.14 14.94 35.24 19.34 58.2 56.22 68.24 109.66 0.04 0.12 0.02 0.24 0.04 0.36 0.04 0.16 0.06 0.34 0.06 0.52 0.02 0.04 0.02 0.08 0.02 0.12z m26.68-74c-0.06 0.02-0.12 0.02-0.16 0.04-0.54 0.1-1.08 0.14-1.62 0.16-0.08 0-0.16 0.04-0.24 0.04h-0.1c-0.64 0-1.28-0.08-1.9-0.2h-0.12c-0.16-0.04-0.3-0.1-0.46-0.14-0.4-0.12-0.8-0.22-1.2-0.38-0.08-0.04-0.16-0.06-0.24-0.08-0.16-0.08-0.32-0.18-0.48-0.26a13.48 13.48 0 0 1-0.92-0.5c-0.12-0.08-0.24-0.14-0.36-0.22-0.14-0.12-0.3-0.24-0.44-0.36-0.12-0.1-0.28-0.16-0.4-0.28-18.58-15.96-32.94-32.5-43.04-49.54-12.32-20.8-18.28-42.32-17.8-64.4 0.06-2.9 0.24-5.76 0.52-8.58 1.6-16.56 6.7-31.62 13.26-44.78 12.9-25.96 31.5-44.48 40.26-52.32 2.7-2.46 4.48-3.86 4.86-4.16 0.2-0.16 0.42-0.26 0.62-0.4 0.26-0.16 0.52-0.34 0.8-0.5 0.32-0.18 0.64-0.32 0.98-0.44 0.26-0.12 0.52-0.22 0.78-0.3 0.36-0.12 0.72-0.2 1.08-0.28 0.28-0.04 0.54-0.1 0.8-0.12 0.36-0.04 0.72-0.06 1.1-0.06 0.28 0 0.54 0 0.82 0.02 0.36 0.04 0.7 0.1 1.06 0.16 0.28 0.06 0.56 0.1 0.84 0.18 0.36 0.1 0.7 0.24 1.04 0.38 0.26 0.1 0.5 0.2 0.76 0.32 0.36 0.18 0.68 0.4 1.02 0.62 0.16 0.1 0.32 0.18 0.48 0.3 1.98 1.46 40.34 30.76 55.4 76.72 3.24 9.86 5.4 20.5 5.9 31.8 0.82 18.74-3.02 37.18-11.48 55.2-5.58 11.94-13.18 23.7-22.8 35.24-6.96 8.38-14.98 16.66-24.06 24.8-0.14 0.12-0.28 0.2-0.42 0.32-0.16 0.12-0.3 0.24-0.46 0.36l-0.36 0.24c-0.3 0.2-0.62 0.36-0.92 0.52-0.16 0.08-0.32 0.18-0.48 0.26-0.08 0.04-0.18 0.06-0.26 0.1-0.38 0.16-0.78 0.26-1.16 0.36-0.16 0.06-0.32 0.12-0.46 0.14-0.02 0.02-0.02 0.02-0.04 0.02z m175.4 61.62c-5.72 5.7-12.2 11-19.48 15.64a115.02 115.02 0 0 1-14.92 8c-13.88 6.14-29.1 9.5-45.6 10.08-1.78 0.08-3.56 0.12-5.36 0.12-7.92 0-16.1-0.62-24.58-1.86-12.26-1.78-25.1-4.86-38.52-9.24-0.06-0.02-0.1-0.06-0.16-0.08-0.16-0.06-0.32-0.1-0.48-0.16-0.06-0.02-0.12-0.06-0.18-0.08-0.32-0.14-0.66-0.3-0.98-0.48l-0.18-0.12c-0.08-0.04-0.14-0.1-0.22-0.14-0.12-0.08-0.24-0.16-0.38-0.24-0.22-0.16-0.44-0.32-0.66-0.5-0.12-0.1-0.24-0.2-0.36-0.32-0.08-0.08-0.18-0.16-0.28-0.24-0.06-0.06-0.12-0.14-0.18-0.2-0.24-0.24-0.46-0.5-0.68-0.76-0.06-0.08-0.12-0.18-0.18-0.26-0.02-0.02-0.02-0.04-0.04-0.08-0.12-0.14-0.22-0.3-0.32-0.44-0.06-0.12-0.14-0.2-0.2-0.32-0.06-0.08-0.08-0.16-0.12-0.24-0.12-0.2-0.22-0.4-0.32-0.6-0.1-0.24-0.2-0.46-0.28-0.7a5.546 5.546 0 0 1-0.36-1.12c-0.06-0.24-0.12-0.5-0.16-0.76-0.02-0.18-0.06-0.36-0.08-0.52l-0.06-0.64v-0.78c0.02-0.18 0.02-0.34 0.02-0.52 0.02-0.24 0.06-0.46 0.1-0.7 0.02-0.12 0-0.24 0.02-0.36 1.3-6.96 2.84-13.64 4.6-20.04 2.02-7.46 4.36-14.54 6.96-21.22 5.36-13.62 11.94-25.62 19.72-35.98 8.5-11.38 18.48-20.8 29.88-28.16 2.3-1.52 4.68-2.92 7.1-4.26 22.06-12.1 45.6-15.46 66.22-15 31.82 0.68 56.68 10.4 58.36 11.08 0.26 0.12 0.5 0.28 0.76 0.4 0.22 0.12 0.46 0.24 0.68 0.36 0.36 0.22 0.66 0.46 0.98 0.7 0.2 0.16 0.4 0.3 0.58 0.46 0.28 0.28 0.56 0.56 0.8 0.86 0.18 0.2 0.34 0.38 0.5 0.58 0.22 0.3 0.4 0.62 0.58 0.94 0.14 0.24 0.3 0.48 0.42 0.74 0.14 0.3 0.26 0.62 0.36 0.96 0.12 0.28 0.22 0.56 0.28 0.86 0.08 0.32 0.14 0.66 0.18 1 0.06 0.3 0.1 0.6 0.12 0.92 0.02 0.36 0 0.72-0.02 1.08-0.02 0.22 0 0.42-0.02 0.64-0.16 1.3-2.02 15.68-8.68 34.28-6.38 17.84-17.18 39.58-35.18 57.42z m-123.98-123.98c-5.58 11.94-13.18 23.7-22.8 35.24l22.88 22.88c8.5-11.38 18.48-20.8 29.88-28.16l-29.96-29.96z" fill="#F9C139" p-id="43235"></path><path d="M434.96 705.12c-0.06-0.34-0.14-0.66-0.24-0.98-0.08-0.3-0.16-0.58-0.28-0.88-0.12-0.32-0.28-0.62-0.42-0.92-0.14-0.28-0.28-0.54-0.44-0.8-0.18-0.28-0.38-0.54-0.58-0.8-0.2-0.24-0.38-0.5-0.6-0.72-0.24-0.26-0.5-0.48-0.74-0.7-0.24-0.2-0.46-0.4-0.72-0.58-0.3-0.22-0.64-0.4-0.98-0.6-0.18-0.1-0.34-0.22-0.54-0.32-96.34-45.66-158.58-144.02-158.58-250.58 0-146.78 114.7-267.28 259.16-276.58-5.96-0.38-11.96-0.58-18-0.58-152.82 0-277.16 124.34-277.16 277.16 0 106.56 62.24 204.92 158.58 250.58 0.2 0.1 0.36 0.22 0.54 0.32 0.34 0.2 0.68 0.38 0.98 0.6 0.26 0.18 0.48 0.38 0.72 0.58 0.24 0.22 0.5 0.44 0.74 0.7 0.22 0.22 0.4 0.48 0.6 0.72 0.2 0.26 0.4 0.52 0.58 0.8 0.16 0.26 0.3 0.52 0.44 0.8 0.14 0.3 0.3 0.6 0.42 0.92 0.12 0.3 0.2 0.58 0.28 0.88 0.1 0.32 0.18 0.64 0.24 0.98 0.08 0.34 0.08 0.7 0.12 1.06 0.02 0.22 0.06 0.44 0.06 0.68v26.3h36v-26.3c0-0.24-0.04-0.46-0.06-0.68-0.04-0.36-0.04-0.72-0.12-1.06z" opacity=".2" p-id="43236"></path><path d="M512.01 101.112a10 10 0 0 0 10-10V45.828a10 10 0 1 0-20 0v45.284a10 10 0 0 0 10 10zM328.112 143.062a9.996 9.996 0 0 0 13.662 3.658 10.004 10.004 0 0 0 3.66-13.662l-22.642-39.21a10.002 10.002 0 0 0-17.322 10.002l22.642 39.212zM164.264 252.368l39.214 22.65a9.992 9.992 0 0 0 13.66-3.658 10 10 0 0 0-3.658-13.662l-39.214-22.65a10.004 10.004 0 0 0-13.662 3.658 10.004 10.004 0 0 0 3.66 13.662zM171.52 441.6a10 10 0 0 0-10-10H116.236a10 10 0 0 0 0 20H161.52a10 10 0 0 0 10-10zM203.484 608.184l-39.224 22.62a10 10 0 1 0 9.99 17.324l39.224-22.62a10 10 0 1 0-9.99-17.324zM859.744 630.814l-39.212-22.62a9.996 9.996 0 0 0-13.658 3.666 9.998 9.998 0 0 0 3.666 13.658l39.212 22.62a9.994 9.994 0 0 0 13.658-3.666 9.998 9.998 0 0 0-3.666-13.658zM907.764 431.61h-45.266a10 10 0 1 0 0 20h45.266a10 10 0 1 0 0-20zM815.55 276.36c1.698 0 3.416-0.432 4.992-1.342l39.208-22.646a10 10 0 0 0-10.004-17.32L810.54 257.7a10 10 0 0 0 5.01 18.66zM682.26 146.726a10 10 0 0 0 13.66-3.658l22.642-39.208a10.002 10.002 0 0 0-17.32-10.002L678.6 133.066a10 10 0 0 0 3.66 13.66zM488.6 587.94c-0.02-0.22-0.04-0.44-0.08-0.64-0.02-0.12 0-0.24-0.04-0.36-10.04-53.44-33-90.32-68.24-109.66-56.08-30.76-121.8-5.02-124.58-3.92-0.24 0.1-0.44 0.24-0.66 0.36-0.28 0.14-0.56 0.26-0.82 0.42-0.32 0.2-0.6 0.42-0.9 0.64-0.22 0.16-0.44 0.34-0.64 0.52-0.28 0.26-0.52 0.52-0.76 0.8-0.18 0.22-0.36 0.42-0.52 0.64-0.22 0.28-0.4 0.58-0.58 0.9-0.14 0.24-0.3 0.5-0.42 0.76-0.14 0.3-0.26 0.62-0.36 0.94-0.12 0.3-0.22 0.58-0.28 0.88-0.1 0.32-0.14 0.66-0.2 1-0.04 0.3-0.08 0.6-0.1 0.92-0.02 0.36 0 0.72 0.02 1.08 0.02 0.22-0.02 0.42 0.02 0.64 0.36 2.96 9.4 72.96 63.34 107.34 19.04 12.12 41.06 18.2 65.86 18.2 19.38 0 40.44-3.7 63.1-11.1 0.06-0.02 0.1-0.06 0.16-0.08 0.18-0.06 0.34-0.1 0.52-0.18 0.02 0 0.04-0.02 0.06-0.02 0.38-0.16 0.76-0.34 1.1-0.54 0.02 0 0.04-0.02 0.06-0.04 0.12-0.06 0.24-0.14 0.36-0.22 0.1-0.06 0.2-0.12 0.3-0.2 0.26-0.18 0.5-0.36 0.74-0.56 0.1-0.08 0.18-0.16 0.28-0.24 0.1-0.1 0.22-0.2 0.34-0.3l0.06-0.06c0.28-0.3 0.54-0.58 0.8-0.92l0.06-0.06c0.06-0.1 0.12-0.2 0.18-0.28 0.08-0.12 0.16-0.24 0.24-0.34 0.08-0.14 0.18-0.24 0.24-0.38 0.06-0.08 0.1-0.2 0.14-0.3 0.1-0.18 0.2-0.36 0.3-0.56 0.1-0.2 0.18-0.42 0.26-0.62 0.08-0.22 0.16-0.42 0.22-0.62s0.12-0.38 0.16-0.56c0.06-0.22 0.1-0.46 0.14-0.7 0.04-0.2 0.08-0.42 0.1-0.64 0.02-0.2 0.04-0.4 0.04-0.6 0.02-0.22 0.02-0.46 0.02-0.68-0.02-0.22-0.02-0.44-0.04-0.66z m-115.98-50.3l80.62 47.72c-35.72 7.78-65.8 4.14-89.58-10.96-36.22-23-49.06-67.08-52.9-85.04 17.56-5.28 62.16-15.22 99.86 5.46 24.74 13.58 42.44 38.22 52.8 73.34l-80.6-47.74a10.008 10.008 0 0 0-13.7 3.52c-2.82 4.74-1.24 10.88 3.5 13.7z" fill="#23130D" p-id="43237"></path><path d="M372.62 537.64l80.62 47.72c-35.72 7.78-65.8 4.14-89.58-10.96-36.22-23-49.06-67.08-52.9-85.04 17.56-5.28 62.16-15.22 99.86 5.46 24.74 13.58 42.44 38.22 52.8 73.34l-80.6-47.74a10.008 10.008 0 0 0-13.7 3.52c-2.82 4.74-1.24 10.88 3.5 13.7z" fill="#72AF5F" p-id="43238"></path><path d="M463.42 568.16l-6.02-3.56c-10.66-26.06-26.3-44.88-46.78-56.12-35.56-19.5-77.24-11.78-96.6-6.4a163.24 163.24 0 0 1-3.26-12.72c17.56-5.28 62.16-15.22 99.86 5.46 24.74 13.58 42.44 38.22 52.8 73.34z" fill="#FFFFFF" opacity=".2" p-id="43239"></path><path d="M453.24 585.364c-35.72 7.78-65.8 4.14-89.58-10.96-36.22-23-49.06-67.08-52.9-85.04 1-0.3 2.08-0.62 3.26-0.94 6.3 21.2 20.3 53.68 49.64 72.32 19.68 12.5 43.66 17.14 71.58 13.96l18 10.66z" opacity=".2" p-id="43240"></path><path d="M734.46 481.22c-0.04-0.34-0.1-0.68-0.18-1-0.06-0.3-0.16-0.58-0.28-0.86-0.1-0.34-0.22-0.66-0.36-0.96-0.12-0.26-0.28-0.5-0.42-0.74-0.18-0.32-0.36-0.64-0.58-0.94-0.16-0.2-0.32-0.38-0.5-0.58-0.24-0.3-0.52-0.58-0.8-0.86-0.18-0.16-0.38-0.3-0.58-0.46-0.32-0.24-0.62-0.48-0.98-0.7-0.22-0.12-0.46-0.24-0.68-0.36-0.26-0.12-0.5-0.28-0.76-0.4-2.78-1.1-68.5-26.84-124.58 3.92-35.24 19.32-58.2 56.22-68.26 109.66-0.02 0.12 0 0.24-0.02 0.36-0.04 0.24-0.08 0.46-0.1 0.7 0 0.18 0 0.34-0.02 0.52v0.78l0.06 0.64c0.02 0.16 0.06 0.34 0.08 0.52 0.04 0.26 0.1 0.52 0.16 0.76a5.546 5.546 0 0 0 0.36 1.12c0.08 0.24 0.18 0.46 0.28 0.7 0.1 0.2 0.2 0.4 0.32 0.6 0.04 0.08 0.06 0.16 0.12 0.24 0.06 0.12 0.14 0.2 0.2 0.32 0.1 0.14 0.2 0.3 0.32 0.44 0.02 0.04 0.02 0.06 0.04 0.08 0.06 0.08 0.12 0.18 0.18 0.26 0.22 0.26 0.44 0.52 0.68 0.76 0.06 0.06 0.12 0.14 0.18 0.2 0.1 0.08 0.2 0.16 0.28 0.24 0.12 0.12 0.24 0.22 0.36 0.32 0.22 0.18 0.44 0.34 0.66 0.5 0.14 0.08 0.26 0.16 0.38 0.24 0.08 0.04 0.14 0.1 0.22 0.14l0.18 0.12c0.32 0.18 0.66 0.34 0.98 0.48 0.06 0.02 0.12 0.06 0.18 0.08 0.16 0.06 0.32 0.1 0.48 0.16 0.06 0.02 0.1 0.06 0.16 0.08 22.68 7.4 43.74 11.1 63.1 11.1 24.82 0 46.84-6.08 65.88-18.2 53.94-34.38 62.98-104.38 63.34-107.34 0.02-0.22 0-0.42 0.02-0.64 0.02-0.36 0.04-0.72 0.02-1.08a6.8 6.8 0 0 0-0.12-0.92z m-74.12 93.18c-23.78 15.12-53.86 18.74-89.58 10.96l80.62-47.72c4.74-2.82 6.32-8.96 3.5-13.7a10.008 10.008 0 0 0-13.7-3.52l-80.62 47.74c10.36-35.08 28.02-59.7 52.7-73.28 37.58-20.68 82.36-10.76 99.98-5.5-3.86 17.98-16.7 62.02-52.9 85.02z" fill="#23130D" p-id="43241"></path><path d="M713.24 489.38c-3.86 17.98-16.7 62.02-52.9 85.02-23.78 15.12-53.86 18.74-89.58 10.96l80.62-47.72c4.74-2.82 6.32-8.96 3.5-13.7a10.008 10.008 0 0 0-13.7-3.52l-80.62 47.74c10.36-35.08 28.02-59.7 52.7-73.28 37.58-20.68 82.36-10.76 99.98-5.5z" fill="#72AF5F" p-id="43242"></path><path d="M578.18 396.38c-2.8-63.9-58.9-106.74-61.3-108.52-0.16-0.12-0.32-0.2-0.48-0.3-0.34-0.22-0.66-0.44-1.02-0.62a12.3 12.3 0 0 0-0.76-0.32c-0.34-0.14-0.68-0.28-1.04-0.38-0.28-0.08-0.56-0.12-0.84-0.18-0.36-0.06-0.7-0.12-1.06-0.16-0.28-0.02-0.54-0.02-0.82-0.02-0.38 0-0.74 0.02-1.1 0.06-0.26 0.02-0.52 0.08-0.8 0.12-0.36 0.08-0.72 0.16-1.08 0.28-0.26 0.08-0.52 0.18-0.78 0.3-0.34 0.12-0.66 0.26-0.98 0.44-0.28 0.16-0.54 0.34-0.8 0.5-0.2 0.14-0.42 0.24-0.62 0.4-2.34 1.84-57.5 45.9-58.9 109.84-0.88 40.18 19.58 78.52 60.84 113.94 0.12 0.12 0.28 0.18 0.4 0.28 0.14 0.12 0.3 0.24 0.44 0.36 0.12 0.08 0.24 0.14 0.36 0.22 0.3 0.18 0.6 0.34 0.92 0.5 0.16 0.08 0.32 0.18 0.48 0.26 0.08 0.02 0.16 0.04 0.24 0.08 0.4 0.16 0.8 0.26 1.2 0.38 0.16 0.04 0.3 0.1 0.46 0.14h0.12c0.62 0.12 1.26 0.2 1.9 0.2h0.1c0.08 0 0.16-0.04 0.24-0.04 0.54-0.02 1.08-0.06 1.62-0.16 0.04-0.02 0.1-0.02 0.16-0.04 0.16-0.02 0.32-0.1 0.5-0.16 0.38-0.1 0.78-0.2 1.16-0.36 0.08-0.04 0.18-0.06 0.26-0.1 0.16-0.08 0.32-0.18 0.48-0.26 0.3-0.16 0.62-0.32 0.92-0.52l0.36-0.24c0.16-0.12 0.3-0.24 0.46-0.36 0.14-0.12 0.28-0.2 0.42-0.32 40.46-36.32 60.1-75.1 58.34-115.24z m-55.28 84.06l-1.02-93.68a10.004 10.004 0 0 0-10-9.88h-0.12a9.988 9.988 0 0 0-9.88 10.1l1.02 93.68c-25.18-26.5-37.68-54.1-37.1-82.26 0.86-42.9 31.88-76.74 45.24-89.34 13.62 12.26 45.28 45.22 47.16 88.2 1.22 28.18-10.66 56.1-35.3 83.18z" fill="#23130D" p-id="43243"></path><path d="M522.9 480.44l-1.02-93.68a10.004 10.004 0 0 0-10-9.88h-0.12a9.988 9.988 0 0 0-9.88 10.1l1.02 93.68c-25.18-26.5-37.68-54.1-37.1-82.26 0.86-42.9 31.88-76.74 45.24-89.34 13.62 12.26 45.28 45.22 47.16 88.2 1.22 28.18-10.66 56.1-35.3 83.18z" fill="#72AF5F" p-id="43244"></path><path d="M502.68 460.02l0.22 20.64c-25.18-26.5-37.68-54.1-37.1-82.26 0.86-42.9 31.88-76.74 45.24-89.34 2.38 2.14 5.3 4.92 8.5 8.26-14.92 16.18-36.36 45.52-37.08 81.08-0.44 20.92 6.36 41.54 20.22 61.62z" fill="#FFFFFF" opacity=".2" p-id="43245"></path><path d="M522.9 480.44l-0.22-21c13.44-20.42 19.76-41.22 18.86-62.18-1.56-35.48-23.4-64.12-38.66-79.94a171.36 171.36 0 0 1 8.16-8.26c13.62 12.26 45.28 45.22 47.16 88.2 1.22 28.18-10.66 56.1-35.3 83.18z" opacity=".2" p-id="43246"></path><path d="M560.572 568.16l6.02-3.56c10.66-26.06 26.3-44.88 46.78-56.12 35.56-19.5 77.24-11.78 96.6-6.4a163.24 163.24 0 0 0 3.26-12.72c-17.56-5.28-62.16-15.22-99.86 5.46-24.74 13.58-42.44 38.22-52.8 73.34z" fill="#FFFFFF" opacity=".2" p-id="43247"></path><path d="M570.752 585.364c35.72 7.78 65.8 4.14 89.58-10.96 36.22-23 49.06-67.08 52.9-85.04-1-0.3-2.08-0.62-3.26-0.94-6.3 21.2-20.3 53.68-49.64 72.32-19.68 12.5-43.66 17.14-71.58 13.96l-18 10.66z" opacity=".2" p-id="43248"></path><path d="M275.72 302.5l229.26 229.28a10.1 10.1 0 0 0-0.66 3.6v68.18l-15.74-15.74c0-0.18-0.02-0.36-0.06-0.52-0.02-0.12 0-0.24-0.04-0.36-10.04-53.44-33-90.32-68.24-109.66-18.88-10.36-38.84-14.3-57.14-14.94l-111.12-111.12c6.34-17.1 14.32-33.4 23.74-48.72zM656.8 683.6c-8.42 5.18-17.16 9.94-26.2 14.22-0.2 0.1-0.36 0.24-0.54 0.34-0.34 0.18-0.68 0.36-0.98 0.58-0.26 0.18-0.48 0.4-0.72 0.6-0.26 0.22-0.5 0.42-0.74 0.66-0.22 0.24-0.4 0.5-0.6 0.76-0.2 0.24-0.4 0.5-0.58 0.78-0.16 0.26-0.3 0.54-0.44 0.82a7 7 0 0 0-0.7 1.82c-0.1 0.3-0.18 0.6-0.24 0.92-0.06 0.36-0.08 0.74-0.12 1.1 0 0.22-0.06 0.44-0.06 0.66v17.26l-100.56-100.56v-72.44l15.78 15.78c-1.76 6.4-3.3 13.08-4.6 20.04-0.02 0.12 0 0.24-0.02 0.36-0.04 0.24-0.08 0.46-0.1 0.7 0 0.18 0 0.34-0.02 0.52v0.78l0.06 0.64c0.02 0.16 0.06 0.34 0.08 0.52 0.04 0.26 0.1 0.52 0.16 0.76a5.546 5.546 0 0 0 0.36 1.12c0.08 0.24 0.18 0.46 0.28 0.7 0.1 0.2 0.2 0.4 0.32 0.6 0.04 0.08 0.06 0.16 0.12 0.24 0.06 0.12 0.14 0.2 0.2 0.32 0.1 0.14 0.2 0.3 0.32 0.44 0.02 0.04 0.02 0.06 0.04 0.08 0.06 0.08 0.12 0.18 0.18 0.26 0.22 0.26 0.44 0.52 0.68 0.76 0.06 0.06 0.12 0.14 0.18 0.2 0.1 0.08 0.2 0.16 0.28 0.24 0.12 0.12 0.24 0.22 0.36 0.32 0.22 0.18 0.44 0.34 0.66 0.5 0.14 0.08 0.26 0.16 0.38 0.24 0.08 0.04 0.14 0.1 0.22 0.14l0.18 0.12c0.32 0.18 0.66 0.34 0.98 0.48 0.06 0.02 0.12 0.06 0.18 0.08 0.16 0.06 0.32 0.1 0.48 0.16 0.06 0.02 0.1 0.06 0.16 0.08 13.42 4.38 26.26 7.46 38.52 9.24l76.06 76.06zM463.6 462.22l-176.62-176.62c7.72-10.72 16.2-20.86 25.34-30.36l134 134c-0.28 2.82-0.46 5.68-0.52 8.58-0.48 22.08 5.48 43.6 17.8 64.4zM566.78 509.7c-7.78 10.36-14.36 22.36-19.72 35.98l-31.74-31.76c0.14-0.02 0.3-0.08 0.46-0.14 0.38-0.1 0.78-0.2 1.16-0.36 0.08-0.04 0.18-0.06 0.26-0.1 0.16-0.08 0.32-0.18 0.48-0.26 0.3-0.16 0.62-0.32 0.92-0.52l0.36-0.24c0.16-0.12 0.3-0.24 0.46-0.36 0.14-0.12 0.28-0.2 0.42-0.32 9.08-8.14 17.1-16.42 24.06-24.8l22.88 22.88zM704.02 646.94c-9.44 9.14-19.56 17.62-30.32 25.36l-63.02-63.02c16.5-0.58 31.72-3.94 45.6-10.08l47.74 47.74zM401 193.3l98.84 98.84c-8.76 7.84-27.36 26.36-40.26 52.32l-116.66-116.66c17.78-13.76 37.28-25.38 58.08-34.5zM669.98 462.28c-20.62-0.46-44.16 2.9-66.22 15-2.42 1.34-4.8 2.74-7.1 4.26l-29.96-29.96c8.46-18.02 12.3-36.46 11.48-55.2-0.5-11.3-2.66-21.94-5.9-31.8l97.7 97.7zM765.82 558.1a278.012 278.012 0 0 1-34.44 58.16l-40.7-40.7c18-17.84 28.8-39.58 35.18-57.42l39.96 39.96z" fill="#FFFFFF" opacity=".4" p-id="43249"></path><path d="M761.152 460.424a10 10 0 0 1-10-10c0-131.852-107.268-239.12-239.12-239.12a10 10 0 0 1 0-20c142.878 0 259.12 116.242 259.12 259.12a10 10 0 0 1-10 10z" fill="#FFFFFF" p-id="43250"></path></svg>