<?xml version="1.0" standalone="no"?><!DOCTYPE svg PUBLIC "-//W3C//DTD SVG 1.1//EN" "http://www.w3.org/Graphics/SVG/1.1/DTD/svg11.dtd"><svg t="1625812284413" class="icon" viewBox="0 0 1024 1024" version="1.1" xmlns="http://www.w3.org/2000/svg" p-id="58796" xmlns:xlink="http://www.w3.org/1999/xlink" width="200" height="200"><defs><style type="text/css"></style></defs><path d="M836.72 44.14H379.58c-65.42 0-118.66 53.24-118.66 118.66v244.04c0 7.64 0.74 15.28 2.22 22.76 0.04 0.24 0.1 0.48 0.16 0.72 0.18 0.66 3.78 13.24 13.7 23.72l-124.5 124.5c-8.62-5.92-19.06-9.4-30.28-9.4-29.56 0-53.6 24.04-53.6 53.6v303.5c0 29.56 24.04 53.62 53.6 53.62 21.32 0 39.78-12.54 48.4-30.62 13.26 17.44 34.22 28.72 57.76 28.72h275.8c0.18 0 0.36-0.04 0.52-0.06 31.16-1.1 56.16-26.78 56.16-58.2 0-16.62-7.02-31.62-18.22-42.24 21.68-8.5 37.08-29.6 37.08-54.26 0-16.38-6.8-31.18-17.72-41.78 22.9-8.24 39.74-29.98 39.74-54.72 0-17.5-8.44-33.48-21.46-44.26 19.22-9.52 32.48-29.36 32.48-52.22 0-32.12-26.12-58.26-58.24-58.26h-166.58-0.02c-14.36 0-26.04-11.82-26.04-26.32 0-7.2 2.84-13.9 8.04-18.84 0.04-0.04 0.06-0.08 0.1-0.12 0.04-0.04 0.08-0.06 0.12-0.1l1.06-1.08h277.5L812 625.58c1.6 0.98 3.42 1.48 5.22 1.48 1.7 0 3.38-0.42 4.9-1.28a9.964 9.964 0 0 0 5.1-8.72v-91.56h9.5c65.44 0 118.66-53.22 118.66-118.66V162.8c0-65.42-53.22-118.66-118.66-118.66zM155.82 926.24c0 18.54-15.08 33.62-33.6 33.62-18.54 0-33.6-15.08-33.6-33.62V622.74c0-18.54 15.06-33.6 33.6-33.6 18.52 0 33.6 15.06 33.6 33.6v303.5z m200.06-413.68s0 0.02-0.02 0.02a46.274 46.274 0 0 0-13.98 33.06c0 25.52 20.64 46.3 46.02 46.32h166.62c21.1 0 38.24 17.16 38.24 38.26 0 21.08-17.14 38.24-38.24 38.24h-86.42c-5.52 0-10 4.48-10 10s4.48 10 10 10h73.82c21.58 0 39.82 17.52 39.82 38.24 0 20.74-18.24 38.24-39.82 38.24h-54.7c-5.52 0-10 4.48-10 10 0 5.54 4.48 10 10 10h34.16c0.04 0 0.06 0.02 0.1 0.02 21.08 0 38.24 17.16 38.24 38.24 0 21.08-17.16 38.24-38.24 38.24H466.8c-5.52 0-10 4.48-10 10s4.48 10 10 10h35.66c0.06 0 0.1 0.02 0.16 0.02 21.08 0 38.24 17.16 38.24 38.24 0 21.1-17.16 38.26-38.24 38.26H228.38c-28.98 0-52.56-23.58-52.56-52.56V622.74c0-11.12-3.4-21.44-9.22-30l188.58-188.58c14.9-14.92 39.18-14.92 54.1 0 7.22 7.22 11.2 16.82 11.2 27.04 0 10.22-3.98 19.82-11.26 27.1l-53.34 54.26z m579.5-105.72c0 54.4-44.26 98.66-98.66 98.66h-19.5c-5.52 0-10 4.48-10 10v83.7l-150.48-92.22a10 10 0 0 0-5.22-1.48H390.86l32.56-33.12c11-11 17.06-25.62 17.06-41.18 0-15.56-6.06-30.18-17.06-41.18-22.72-22.72-59.68-22.72-82.38 0l-49.9 49.9c-5.48-5.96-8-13.2-8.48-14.64a99.98 99.98 0 0 1-1.74-18.44V162.8c0-54.4 44.26-98.66 98.66-98.66h457.14c54.4 0 98.66 44.26 98.66 98.66v244.04z" fill="#23130D" p-id="58797"></path><path d="M155.82 622.74v303.5c0 18.54-15.08 33.62-33.6 33.62-18.54 0-33.6-15.08-33.6-33.62V622.74c0-18.54 15.06-33.6 33.6-33.6 18.52 0 33.6 15.06 33.6 33.6z" fill="#EC7063" p-id="58798"></path><path d="M155.82 622.74v303.5c0 18.54-15.08 33.62-33.6 33.62-3.48 0-6.82-0.54-9.98-1.52 13.64-4.28 23.58-17.06 23.58-32.1V622.74c0-15.06-9.94-27.82-23.6-32.08 3.16-0.98 6.52-1.52 10-1.52 18.52 0 33.6 15.06 33.6 33.6z" fill="#23130D" opacity=".2" p-id="58799"></path><path d="M581.74 726.7c0 20.74-18.24 38.24-39.82 38.24h-54.7c-5.52 0-10 4.48-10 10 0 5.54 4.48 10 10 10h34.16c0.04 0 0.06 0.02 0.1 0.02 21.08 0 38.24 17.16 38.24 38.24 0 21.08-17.16 38.24-38.24 38.24H466.8c-5.52 0-10 4.48-10 10s4.48 10 10 10h35.66c0.06 0 0.1 0.02 0.16 0.02 21.08 0 38.24 17.16 38.24 38.24 0 21.1-17.16 38.26-38.24 38.26H228.38c-28.98 0-52.56-23.58-52.56-52.56V622.74c0-11.12-3.4-21.44-9.22-30l188.58-188.58c14.9-14.92 39.18-14.92 54.1 0 7.22 7.22 11.2 16.82 11.2 27.04 0 10.22-3.98 19.82-11.26 27.1l-53.34 54.26s0 0.02-0.02 0.02a46.274 46.274 0 0 0-13.98 33.06c0 25.52 20.64 46.3 46.02 46.32h166.62c21.1 0 38.24 17.16 38.24 38.26 0 21.08-17.14 38.24-38.24 38.24h-86.42c-5.52 0-10 4.48-10 10s4.48 10 10 10h73.82c21.58 0 39.82 17.52 39.82 38.24z" fill="#F8D3C9" p-id="58800"></path><path d="M383.18 404.16L194.6 592.74a53.16 53.16 0 0 1 9.22 30V905.4c0 28.98 23.58 52.56 52.56 52.56h-28c-28.98 0-52.56-23.58-52.56-52.56V622.74c0-11.12-3.4-21.44-9.22-30l188.58-188.58c11.06-11.08 27.32-13.94 41.04-8.56-4.76 1.86-9.2 4.72-13.04 8.56z" fill="#23130D" opacity=".2" p-id="58801"></path><path d="M540.86 919.7c0 21.1-17.16 38.26-38.24 38.26h-28c21.08 0 38.24-17.16 38.24-38.26 0-21.08-17.16-38.24-38.24-38.24-0.06 0-0.1-0.02-0.16-0.02h28c0.06 0 0.1 0.02 0.16 0.02 21.08 0 38.24 17.16 38.24 38.24zM559.72 823.2c0 21.08-17.16 38.24-38.24 38.24h-28c21.08 0 38.24-17.16 38.24-38.24 0-21.08-17.16-38.24-38.24-38.24-0.04 0-0.06-0.02-0.1-0.02h28c0.04 0 0.06 0.02 0.1 0.02 21.08 0 38.24 17.16 38.24 38.24zM581.74 726.7c0 20.74-18.24 38.24-39.82 38.24h-28c21.58 0 39.82-17.5 39.82-38.24 0-20.72-18.24-38.24-39.82-38.24h28c21.58 0 39.82 17.52 39.82 38.24zM564.76 630.22c0-21.1-17.14-38.26-38.24-38.26h28c21.1 0 38.24 17.16 38.24 38.26 0 21.08-17.14 38.24-38.24 38.24h-28c21.1 0 38.24-17.16 38.24-38.24z" fill="#FFFFFF" opacity=".6" p-id="58802"></path><path d="M836.72 64.14H379.58c-54.4 0-98.66 44.26-98.66 98.66v244.04c0 6.18 0.6 12.38 1.74 18.44 0.48 1.44 3 8.68 8.48 14.64l49.9-49.9c22.7-22.72 59.66-22.72 82.38 0 11 11 17.06 25.62 17.06 41.18 0 15.56-6.06 30.18-17.06 41.18l-32.56 33.12h260.66a10 10 0 0 1 5.22 1.48l150.48 92.22v-83.7c0-5.52 4.48-10 10-10h19.5c54.4 0 98.66-44.26 98.66-98.66V162.8c0-54.4-44.26-98.66-98.66-98.66z m-367.76 159.76l-21.38 20.84c-0.78 0.78-1.62 3.36-1.44 4.46l5.04 29.42c0.8 4.68-0.22 9-2.88 12.14-2.4 2.84-5.98 4.48-9.8 4.48-2.48 0-5-0.66-7.5-1.96l-26.42-13.9c-0.18-0.1-1.02-0.36-2.34-0.36-1.3 0-2.14 0.26-2.34 0.36l-26.42 13.9c-2.48 1.3-5 1.96-7.5 1.96-3.82 0-7.4-1.64-9.8-4.48-2.64-3.16-3.68-7.46-2.86-12.14l5.04-29.42c0.16-1.1-0.68-3.68-1.46-4.46l-21.36-20.84c-4.26-4.14-5.84-9.56-4.24-14.48 1.6-4.92 6.06-8.38 11.94-9.22l29.54-4.3c1.08-0.18 3.28-1.78 3.8-2.76l13.2-26.76c2.64-5.32 7.3-8.5 12.46-8.5 5.18 0 9.84 3.18 12.48 8.5l13.2 26.76c0.5 0.98 2.7 2.58 3.8 2.76l29.54 4.3c5.86 0.84 10.32 4.3 11.92 9.22 1.6 4.92 0.02 10.34-4.22 14.48z m264.58 49.92l-42.38 41.3c-3.84 3.74-6.6 12.26-5.7 17.54l10 58.32c1.4 8.16-1.14 13.24-3.52 16.06-2.94 3.48-7.16 5.4-11.92 5.4-3.32 0-6.78-0.94-10.28-2.78l-52.38-27.54c-2.2-1.16-5.66-1.86-9.2-1.86-3.56 0-7 0.7-9.22 1.86l-52.38 27.54c-8.5 4.48-17.22 3.3-22.2-2.62-2.38-2.82-4.92-7.9-3.52-16.06l10-58.32c0.9-5.28-1.86-13.8-5.7-17.54l-42.36-41.3c-5.78-5.62-7.92-12.42-5.9-18.64 2.02-6.22 7.74-10.44 15.72-11.6l58.56-8.52c5.3-0.76 12.54-6.02 14.9-10.82l26.2-53.06c3.56-7.22 9.36-11.38 15.9-11.38 6.54 0 12.32 4.16 15.9 11.38l26.18 53.06c2.36 4.8 9.62 10.06 14.92 10.82l58.54 8.52c7.98 1.16 13.72 5.38 15.74 11.6 2.02 6.22-0.14 13.02-5.9 18.64z m147.24-49.92l-21.38 20.84c-0.78 0.78-1.62 3.36-1.44 4.46l5.04 29.42c0.8 4.68-0.22 9-2.88 12.14-2.4 2.84-5.98 4.48-9.8 4.48-2.48 0-5-0.66-7.5-1.96l-26.42-13.9c-0.18-0.1-1.02-0.36-2.34-0.36-1.3 0-2.14 0.26-2.34 0.36l-26.42 13.9c-2.48 1.3-5 1.96-7.48 1.96-3.84 0-7.4-1.62-9.82-4.48-2.64-3.14-3.66-7.46-2.86-12.14l5.04-29.42c0.16-1.1-0.68-3.68-1.46-4.46l-21.36-20.84c-4.26-4.14-5.84-9.56-4.24-14.48 1.6-4.92 6.06-8.38 11.94-9.22l29.54-4.3c1.08-0.18 3.28-1.78 3.8-2.76l13.2-26.76c2.62-5.32 7.28-8.5 12.46-8.5 5.18 0 9.84 3.18 12.48 8.5l13.2 26.76c0.5 0.98 2.7 2.58 3.8 2.76l29.54 4.3c5.86 0.84 10.32 4.3 11.92 9.22 1.6 4.92 0.02 10.34-4.22 14.48z" fill="#3594BF" p-id="58803"></path><path d="M836.72 72.14c49.99 0 90.66 40.67 90.66 90.66v244.04c0 49.99-40.67 90.66-90.66 90.66h-19.5c-9.926 0-18 8.074-18 18v69.414l-138.288-84.748a17.96 17.96 0 0 0-9.412-2.666H409.944l19.134-19.464c12.512-12.512 19.404-29.146 19.404-46.836 0-17.69-6.89-34.324-19.404-46.836-12.5-12.5-29.14-19.382-46.854-19.382-17.716 0-34.352 6.884-46.84 19.384l-43.118 43.118a37.838 37.838 0 0 1-1.848-4.248 91.862 91.862 0 0 1-1.498-16.394V162.8c0-49.99 40.67-90.66 90.66-90.66h457.14m-54.806 116.066l-27.984 4.074c-8.962 1.28-15.846 6.762-18.416 14.666-2.568 7.896-0.224 16.378 6.262 22.68l20.258 19.764-4.776 27.882c-1.204 7.04 0.438 13.66 4.638 18.656 3.932 4.648 9.738 7.312 15.928 7.312 3.79 0 7.556-0.968 11.204-2.88l25.036-13.172 25.07 13.19c3.652 1.9 7.418 2.862 11.19 2.862 6.182 0 11.98-2.666 15.904-7.31 4.212-4.972 5.868-11.6 4.662-18.662l-4.778-27.894 20.262-19.75c6.47-6.318 8.802-14.796 6.238-22.678-2.53-7.782-9.578-13.402-18.376-14.662l-28.006-4.076-12.52-25.384c-4.022-8.104-11.366-12.944-19.646-12.944-8.298 0-15.638 4.846-19.634 12.96l-12.516 25.366m-411.82 0l-27.984 4.074c-8.962 1.28-15.846 6.762-18.416 14.666-2.568 7.896-0.224 16.378 6.262 22.68l20.258 19.764-4.772 27.85c-1.228 7.006 0.406 13.63 4.63 18.684 3.93 4.65 9.728 7.316 15.91 7.316 3.802 0 7.576-0.968 11.224-2.88l25.036-13.172 25.07 13.19c3.652 1.9 7.418 2.862 11.19 2.862 6.182 0 11.982-2.666 15.904-7.31 4.212-4.974 5.868-11.6 4.66-18.662l-4.778-27.894 20.262-19.75c6.47-6.318 8.802-14.796 6.238-22.678-2.53-7.782-9.578-13.402-18.376-14.662l-28.006-4.076-12.52-25.384c-4.022-8.104-11.366-12.944-19.646-12.944-8.268 0-15.604 4.838-19.634 12.96l-12.512 25.366m166.188 232.174c4.644 0 9.488-1.26 14.002-3.638l52.362-27.53c0.732-0.382 2.804-0.95 5.516-0.95 2.71 0 4.754 0.56 5.478 0.94l52.38 27.54c4.668 2.454 9.38 3.698 14.002 3.698 7.14 0 13.544-2.926 18.034-8.24 3.474-4.116 7.212-11.374 5.292-22.572l-9.998-58.312c-0.46-2.696 1.444-8.564 3.398-10.466l42.384-41.304c7.912-7.718 10.872-17.752 7.922-26.836-2.95-9.082-11.248-15.454-22.196-17.046l-58.556-8.522c-2.7-0.388-7.678-3.994-8.882-6.44l-26.186-53.074c-4.914-9.91-13.536-15.826-23.068-15.826-9.558 0-18.184 5.922-23.074 15.838l-26.206 53.072c-1.2 2.438-6.166 6.044-8.872 6.434l-58.558 8.52c-10.938 1.59-19.228 7.962-22.178 17.046-2.958 9.106 0.008 19.142 7.924 26.84l42.364 41.302c1.952 1.9 3.854 7.768 3.396 10.458l-10 58.32c-1.922 11.198 1.816 18.456 5.282 22.562 4.436 5.278 10.844 8.186 18.038 8.186M836.72 64.14H379.58c-54.4 0-98.66 44.26-98.66 98.66v244.04c0 6.18 0.6 12.38 1.74 18.44 0.48 1.44 3 8.68 8.48 14.64l49.9-49.9c11.35-11.36 26.264-17.04 41.182-17.04 14.918 0 29.838 5.68 41.198 17.04 11 11 17.06 25.62 17.06 41.18 0 15.56-6.06 30.18-17.06 41.18l-32.56 33.12h260.66a10 10 0 0 1 5.22 1.48l150.48 92.22v-83.7c0-5.52 4.48-10 10-10h19.5c54.4 0 98.66-44.26 98.66-98.66V162.8c0-54.4-44.26-98.66-98.66-98.66z m-58.9 231.1c-3.84 0-7.4-1.62-9.82-4.48-2.64-3.14-3.66-7.46-2.86-12.14l5.04-29.42c0.16-1.1-0.68-3.68-1.46-4.46l-21.36-20.84c-4.26-4.14-5.84-9.56-4.24-14.48 1.6-4.92 6.06-8.38 11.94-9.22l29.54-4.3c1.08-0.18 3.28-1.78 3.8-2.76l13.2-26.76c2.62-5.32 7.28-8.5 12.46-8.5 5.18 0 9.84 3.18 12.48 8.5l13.2 26.76c0.5 0.98 2.7 2.58 3.8 2.76l29.54 4.3c5.86 0.84 10.32 4.3 11.92 9.22 1.6 4.92 0.02 10.34-4.22 14.48l-21.38 20.84c-0.78 0.78-1.62 3.36-1.44 4.46l5.04 29.42c0.8 4.68-0.22 9-2.88 12.14-2.4 2.84-5.98 4.48-9.8 4.48-2.48 0-5-0.66-7.5-1.96l-26.42-13.9c-0.18-0.1-1.02-0.36-2.34-0.36-1.3 0-2.14 0.26-2.34 0.36l-26.42 13.9c-2.48 1.3-5 1.96-7.48 1.96z m-411.84 0c-3.82 0-7.4-1.64-9.8-4.48-2.64-3.16-3.68-7.46-2.86-12.14l5.04-29.42c0.16-1.1-0.68-3.68-1.46-4.46l-21.36-20.84c-4.26-4.14-5.84-9.56-4.24-14.48 1.6-4.92 6.06-8.38 11.94-9.22l29.54-4.3c1.08-0.18 3.28-1.78 3.8-2.76l13.2-26.76c2.64-5.32 7.3-8.5 12.46-8.5 5.18 0 9.84 3.18 12.48 8.5l13.2 26.76c0.5 0.98 2.7 2.58 3.8 2.76l29.54 4.3c5.86 0.84 10.32 4.3 11.92 9.22 1.6 4.92 0.02 10.34-4.22 14.48l-21.38 20.84c-0.78 0.78-1.62 3.36-1.44 4.46l5.04 29.42c0.8 4.68-0.22 9-2.88 12.14-2.4 2.84-5.98 4.48-9.8 4.48-2.48 0-5-0.66-7.5-1.96l-26.42-13.9c-0.18-0.1-1.02-0.36-2.34-0.36-1.3 0-2.14 0.26-2.34 0.36l-26.42 13.9c-2.48 1.3-5 1.96-7.5 1.96z m170.302 117.14c-4.734 0-8.98-1.842-11.922-5.34-2.38-2.82-4.92-7.9-3.52-16.06l10-58.32c0.9-5.28-1.86-13.8-5.7-17.54l-42.36-41.3c-5.78-5.62-7.92-12.42-5.9-18.64 2.02-6.22 7.74-10.44 15.72-11.6l58.56-8.52c5.3-0.76 12.54-6.02 14.9-10.82l26.2-53.06c3.56-7.22 9.36-11.38 15.9-11.38 6.54 0 12.32 4.16 15.9 11.38l26.18 53.06c2.36 4.8 9.62 10.06 14.92 10.82l58.54 8.52c7.98 1.16 13.72 5.38 15.74 11.6 2.02 6.22-0.14 13.02-5.9 18.64l-42.38 41.3c-3.84 3.74-6.6 12.26-5.7 17.54l10 58.32c1.4 8.16-1.14 13.24-3.52 16.06-2.94 3.48-7.16 5.4-11.92 5.4-3.32 0-6.78-0.94-10.28-2.78l-52.38-27.54c-2.2-1.16-5.66-1.86-9.2-1.86-3.56 0-7 0.7-9.22 1.86l-52.38 27.54c-3.48 1.834-6.996 2.72-10.278 2.72z" opacity=".2" p-id="58804"></path><path d="M733.54 273.82c5.76-5.62 7.92-12.42 5.9-18.64-2.02-6.22-7.76-10.44-15.74-11.6l-58.54-8.52c-5.3-0.76-12.56-6.02-14.92-10.82l-26.18-53.06c-3.58-7.22-9.36-11.38-15.9-11.38-6.54 0-12.34 4.16-15.9 11.38l-26.2 53.06c-2.36 4.8-9.6 10.06-14.9 10.82l-58.56 8.52c-7.98 1.16-13.7 5.38-15.72 11.6-2.02 6.22 0.12 13.02 5.9 18.64l42.36 41.3c3.84 3.74 6.6 12.26 5.7 17.54l-10 58.32c-1.4 8.16 1.14 13.24 3.52 16.06 4.98 5.92 13.7 7.1 22.2 2.62l52.38-27.54c2.22-1.16 5.66-1.86 9.22-1.86 3.54 0 7 0.7 9.2 1.86l52.38 27.54c3.5 1.84 6.96 2.78 10.28 2.78 4.76 0 8.98-1.92 11.92-5.4 2.38-2.82 4.92-7.9 3.52-16.06l-10-58.32c-0.9-5.28 1.86-13.8 5.7-17.54l42.38-41.3zM677.2 300.8c-8.54 8.34-13.46 23.48-11.44 35.24l9.22 53.78-48.3-25.4c-5.1-2.68-11.68-4.16-18.52-4.16-6.86 0-13.44 1.48-18.52 4.16l-48.32 25.4 9.24-53.78c2-11.76-2.92-26.92-11.46-35.24l-39.08-38.1 54.02-7.84c11.8-1.72 24.68-11.08 29.96-21.78l24.16-48.94 24.14 48.96c5.28 10.68 18.18 20.04 29.98 21.76l54 7.84-39.08 38.1z" fill="#23130D" p-id="58805"></path><path d="M677.2 300.8c-8.54 8.34-13.46 23.48-11.44 35.24l9.22 53.78-48.3-25.4c-5.1-2.68-11.68-4.16-18.52-4.16-6.86 0-13.44 1.48-18.52 4.16l-48.32 25.4 9.24-53.78c2-11.76-2.92-26.92-11.46-35.24l-39.08-38.1 54.02-7.84c11.8-1.72 24.68-11.08 29.96-21.78l24.16-48.94 24.14 48.96c5.28 10.68 18.18 20.04 29.98 21.76l54 7.84-39.08 38.1z" fill="#F9C139" p-id="58806"></path><path d="M608.156 197.702l18.764 38.058c6.178 12.496 20.684 23.026 34.496 25.038l41.968 6.094-30.378 29.616c-9.986 9.752-15.522 26.806-13.162 40.546l7.166 41.796-37.54-19.742c-5.95-3.126-13.518-4.848-21.312-4.848-7.816 0-15.388 1.724-21.312 4.85l-37.556 19.742 7.182-41.804c2.342-13.766-3.206-30.818-13.186-40.542l-30.374-29.612 41.99-6.094c13.804-2.012 28.302-12.552 34.474-25.062l18.78-38.036m0.004-13.562L584 233.08c-5.28 10.7-18.16 20.06-29.96 21.78l-54.02 7.84 39.08 38.1c8.54 8.32 13.46 23.48 11.46 35.24l-9.24 53.78 48.32-25.4c5.08-2.68 11.66-4.16 18.52-4.16 6.84 0 13.42 1.48 18.52 4.16l48.3 25.4-9.22-53.78c-2.02-11.76 2.9-26.9 11.44-35.24l39.08-38.1-54-7.84c-11.8-1.72-24.7-11.08-29.98-21.76l-24.14-48.96z" opacity=".2" p-id="58807"></path><path d="M468.96 223.9c4.24-4.14 5.82-9.56 4.22-14.48-1.6-4.92-6.06-8.38-11.92-9.22l-29.54-4.3c-1.1-0.18-3.3-1.78-3.8-2.76l-13.2-26.76c-2.64-5.32-7.3-8.5-12.48-8.5-5.16 0-9.82 3.18-12.46 8.5l-13.2 26.76c-0.52 0.98-2.72 2.58-3.8 2.76l-29.54 4.3c-5.88 0.84-10.34 4.3-11.94 9.22-1.6 4.92-0.02 10.34 4.24 14.48l21.36 20.84c0.78 0.78 1.62 3.36 1.46 4.46l-5.04 29.42c-0.82 4.68 0.22 8.98 2.86 12.14 2.4 2.84 5.98 4.48 9.8 4.48 2.5 0 5.02-0.66 7.5-1.96l26.42-13.9c0.2-0.1 1.04-0.36 2.34-0.36 1.32 0 2.16 0.26 2.34 0.36l26.42 13.9c2.5 1.3 5.02 1.96 7.5 1.96 3.82 0 7.4-1.64 9.8-4.48 2.66-3.14 3.68-7.46 2.88-12.14l-5.04-29.42c-0.18-1.1 0.66-3.68 1.44-4.46l21.38-20.84z m-35.34 6.52c-5.46 5.32-8.48 14.64-7.2 22.16l2.96 17.24-15.48-8.14c-4.2-2.2-8.66-2.66-11.66-2.66s-7.46 0.46-11.64 2.66l-15.48 8.14 2.96-17.24c1.28-7.52-1.74-16.84-7.2-22.16l-12.54-12.22 17.32-2.5c7.54-1.1 15.48-6.86 18.84-13.7l7.74-15.68 7.74 15.68c3.38 6.84 11.3 12.6 18.86 13.7l17.3 2.5-12.52 12.22z" fill="#23130D" p-id="58808"></path><path d="M433.62 230.42c-5.46 5.32-8.48 14.64-7.2 22.16l2.96 17.24-15.48-8.14c-4.2-2.2-8.66-2.66-11.66-2.66s-7.46 0.46-11.64 2.66l-15.48 8.14 2.96-17.24c1.28-7.52-1.74-16.84-7.2-22.16l-12.54-12.22 17.32-2.5c7.54-1.1 15.48-6.86 18.84-13.7l7.74-15.68 7.74 15.68c3.38 6.84 11.3 12.6 18.86 13.7l17.3 2.5-12.52 12.22z" fill="#F9C139" p-id="58809"></path><path d="M880.78 223.9c4.24-4.14 5.82-9.56 4.22-14.48-1.6-4.92-6.06-8.38-11.92-9.22l-29.54-4.3c-1.1-0.18-3.3-1.78-3.8-2.76l-13.2-26.76c-2.64-5.32-7.3-8.5-12.48-8.5-5.18 0-9.84 3.18-12.46 8.5l-13.2 26.76c-0.52 0.98-2.72 2.58-3.8 2.76l-29.54 4.3c-5.88 0.84-10.34 4.3-11.94 9.22-1.6 4.92-0.02 10.34 4.24 14.48l21.36 20.84c0.78 0.78 1.62 3.36 1.46 4.46l-5.04 29.42c-0.8 4.68 0.22 9 2.86 12.14 2.42 2.86 5.98 4.48 9.82 4.48 2.48 0 5-0.66 7.48-1.96l26.42-13.9c0.2-0.1 1.04-0.36 2.34-0.36 1.32 0 2.16 0.26 2.34 0.36l26.42 13.9c2.5 1.3 5.02 1.96 7.5 1.96 3.82 0 7.4-1.64 9.8-4.48 2.66-3.14 3.68-7.46 2.88-12.14l-5.04-29.42c-0.18-1.1 0.66-3.68 1.44-4.46l21.38-20.84z m-35.34 6.52c-5.46 5.32-8.48 14.64-7.2 22.16l2.96 17.24-15.48-8.14c-4.2-2.2-8.66-2.66-11.66-2.66s-7.46 0.46-11.64 2.66l-15.48 8.14 2.94-17.24c1.3-7.52-1.72-16.84-7.18-22.16l-12.54-12.22 17.32-2.5c7.54-1.1 15.46-6.86 18.84-13.7l7.74-15.68 7.74 15.68c3.38 6.84 11.3 12.6 18.86 13.7l17.3 2.5-12.52 12.22z" fill="#23130D" p-id="58810"></path><path d="M845.44 230.42c-5.46 5.32-8.48 14.64-7.2 22.16l2.96 17.24-15.48-8.14c-4.2-2.2-8.66-2.66-11.66-2.66s-7.46 0.46-11.64 2.66l-15.48 8.14 2.94-17.24c1.3-7.52-1.72-16.84-7.18-22.16l-12.54-12.22 17.32-2.5c7.54-1.1 15.46-6.86 18.84-13.7l7.74-15.68 7.74 15.68c3.38 6.84 11.3 12.6 18.86 13.7l17.3 2.5-12.52 12.22z" fill="#F9C139" p-id="58811"></path></svg>