<?xml version="1.0" standalone="no"?><!DOCTYPE svg PUBLIC "-//W3C//DTD SVG 1.1//EN" "http://www.w3.org/Graphics/SVG/1.1/DTD/svg11.dtd"><svg t="1625812140255" class="icon" viewBox="0 0 1024 1024" version="1.1" xmlns="http://www.w3.org/2000/svg" p-id="51723" xmlns:xlink="http://www.w3.org/1999/xlink" width="200" height="200"><defs><style type="text/css"></style></defs><path d="M801.22 645.16H524.6V413.48c100-6.5 179.36-89.92 179.36-191.52C703.96 116.1 617.84 30 512 30s-191.96 86.1-191.96 191.96c0 103.36 82.12 187.88 184.56 191.8v231.4H222.78c-22.62 0-41.04 18.4-41.04 41.04v5.4c0 19.3 13.44 35.5 31.44 39.84l73.8 255.34a9.984 9.984 0 0 0 9.6 7.22h430.84c4.46 0 8.38-2.94 9.62-7.22l73.78-255.34c18-4.32 31.44-20.52 31.44-39.84v-5.4c0-22.64-18.42-41.04-41.04-41.04z m-461.18-423.2C340.04 127.14 417.18 50 512 50s171.96 77.14 171.96 171.96c0 94.8-77.14 171.96-171.96 171.96s-171.96-77.16-171.96-171.96zM719.9 974h-415.8l-69.76-241.38h555.32L719.9 974z m102.36-282.4c0 11.58-9.44 21.02-21.04 21.02H222.78c-11.6 0-21.04-9.44-21.04-21.02v-5.4c0-11.6 9.44-21.04 21.04-21.04h578.44c11.6 0 21.04 9.44 21.04 21.04v5.4z" fill="#23130D" p-id="51724"></path><path d="M524.34 231.94h-13.1l43.98 44c1.28-3.48 1.96-7.24 1.96-11.16 0-18.1-14.74-32.84-32.84-32.84zM512 50a171.348 171.348 0 0 0-98.78 31.26c-10.22 7.2-19.6 15.48-28 24.66a171.18 171.18 0 0 0-21.5 29.06 165.726 165.726 0 0 0-8.72 16.86 169.87 169.87 0 0 0-13.98 51.78c-0.66 6.02-0.98 12.14-0.98 18.34 0 94.8 77.14 171.96 171.96 171.96 6.2 0 12.32-0.32 18.34-0.98 18.26-1.94 35.68-6.74 51.78-13.98 5.8-2.6 11.44-5.5 16.86-8.72a170.236 170.236 0 0 0 29.04-21.5c9.2-8.4 17.48-17.8 24.66-28.02a170.902 170.902 0 0 0 26.32-57.72 171.452 171.452 0 0 0 4.96-41.04C683.96 127.14 606.82 50 512 50z m-29.16 100.88c-9.6 5.74-16.04 16.24-16.04 28.22 0 3.48 0.54 6.82 1.54 9.96 3.22 10.14 11.24 18.14 21.36 21.34 3.14 1 6.46 1.54 9.92 1.54h24.72c9.86 0 19.1 2.72 27 7.44 7.56 4.5 13.9 10.84 18.4 18.4 4.72 7.9 7.44 17.14 7.44 27 0 9.52-2.52 18.44-6.96 26.16a52.972 52.972 0 0 1-27.26 23.28c-5.8 2.2-12.06 3.4-18.62 3.4h-2.36v38.14c0 5.52-4.48 10-10 10s-10-4.48-10-10v-38.14H456.8c-0.68 0-1.34-0.06-1.98-0.2a9.96 9.96 0 0 1-7.82-7.82 10.004 10.004 0 0 1 9.8-11.98h67.54c0.66 0 1.32-0.02 1.96-0.06 13.34-0.78 24.56-9.56 28.92-21.62 1.28-3.48 1.96-7.24 1.96-11.16 0-18.1-14.74-32.84-32.84-32.84h-24.72c-29.12 0-52.82-23.7-52.82-52.84 0-3.6 0.36-7.14 1.06-10.54 2.66-13.1 10.18-24.44 20.58-32.08 8.74-6.42 19.52-10.22 31.18-10.22h2.36V88.14c0-0.66 0.06-1.32 0.2-1.96a9.984 9.984 0 0 1 9.8-8.04c5.52 0 10 4.48 10 10v38.12h45.2c5.52 0 10 4.48 10 10s-4.48 10-10 10h-67.56c-6.14 0-11.86 1.68-16.78 4.62z" fill="#F9C139" p-id="51725"></path><path d="M512 60c89.304 0 161.96 72.654 161.96 161.96s-72.654 161.96-161.96 161.96-161.96-72.656-161.96-161.96S422.696 60 512 60m-20.02 56.722c-31.05 3.782-55.18 30.314-55.18 62.378 0 34.65 28.18 62.84 62.82 62.84h24.72c12.594 0 22.84 10.246 22.84 22.84s-10.246 22.84-22.84 22.84H456.8c-11.028 0-20 8.972-20 20s8.972 20 20 20h35.18v28.14c0 11.028 8.972 20 20 20s20-8.972 20-20v-28.602c31.06-3.782 55.2-30.314 55.2-62.378 0-34.65-28.19-62.84-62.84-62.84h-24.72c-12.582 0-22.82-10.246-22.82-22.84s10.236-22.84 22.82-22.84h67.56c11.028 0 20-8.972 20-20s-8.972-20-20-20h-35.2V88.14c0-11.028-8.972-20-20-20s-20 8.972-20 20v28.582M512 50c-94.82 0-171.96 77.14-171.96 171.96 0 94.8 77.14 171.96 171.96 171.96s171.96-77.16 171.96-171.96C683.96 127.14 606.82 50 512 50z m-12.38 181.94c-29.12 0-52.82-23.7-52.82-52.84 0-29.14 23.7-52.84 52.82-52.84h2.36V88.14c0-5.52 4.48-10 10-10s10 4.48 10 10v38.12h45.2c5.52 0 10 4.48 10 10s-4.48 10-10 10h-67.56c-18.1 0-32.82 14.74-32.82 32.84 0 18.12 14.72 32.84 32.82 32.84h24.72c29.14 0 52.84 23.7 52.84 52.84s-23.7 52.84-52.84 52.84h-2.36v38.14c0 5.52-4.48 10-10 10s-10-4.48-10-10v-38.14H456.8c-5.52 0-10-4.48-10-10s4.48-10 10-10h67.54c18.1 0 32.84-14.72 32.84-32.84 0-18.1-14.74-32.84-32.84-32.84h-24.72z" opacity=".2" p-id="51726"></path><path d="M822.26 686.2v5.4c0 6.86-3.32 12.96-8.42 16.82a21.078 21.078 0 0 1-12.62 4.2H222.78c-2.22 0-4.34-0.34-6.34-0.98a20.98 20.98 0 0 1-8.34-5c-3.92-3.84-6.36-9.16-6.36-15.04v-5.4a20.592 20.592 0 0 1 4.46-12.9v-0.02c3.84-4.94 9.84-8.12 16.58-8.12h578.44c2.6 0 5.08 0.48 7.38 1.34 3.74 1.4 6.98 3.86 9.34 6.98 2.72 3.54 4.32 7.94 4.32 12.72z" fill="#E59D89" p-id="51727"></path><path d="M801.22 675.16c1.32 0 2.624 0.238 3.874 0.706a11.12 11.12 0 0 1 4.916 3.708 10.784 10.784 0 0 1 2.25 6.628v5.4c0 3.48-1.624 6.704-4.402 8.808a11.014 11.014 0 0 1-6.638 2.214H222.78a11.002 11.002 0 0 1-7.682-3.124c-2.166-2.122-3.358-4.926-3.358-7.896v-5.4c0-0.68 0.062-1.376 0.176-2.016a10.66 10.66 0 0 1 2.122-4.674l0.438-0.558a10.92 10.92 0 0 1 8.304-3.792h578.44m0-10.004H222.78c-6.74 0-12.74 3.18-16.58 8.12v0.02a20.592 20.592 0 0 0-4.46 12.9v5.4c0 5.88 2.44 11.2 6.36 15.04 2.32 2.26 5.16 4 8.34 5 2 0.64 4.12 0.98 6.34 0.98h578.44a21.078 21.078 0 0 0 12.62-4.2c5.1-3.86 8.42-9.96 8.42-16.82v-5.4c0-4.78-1.6-9.18-4.32-12.72-2.36-3.12-5.6-5.58-9.34-6.98-2.3-0.86-4.78-1.34-7.38-1.34z" opacity=".2" p-id="51728"></path><path d="M789.66 732.62l-18.52 64.08-13.2 45.7-6.48 22.4-7.9 27.34-4.96 17.14-6.34 21.98-4.4 15.18-5.5 19.04-2.46 8.52h-415.8l-5.08-17.6-24.64-85.26-2.28-7.86-6.1-21.12-0.02-0.08-3.36-11.6-1.42-4.94-4.84-16.7-1.58-5.46-4.7-16.28-0.28-0.96-3.86-13.36-0.06-0.24-8.14-28.16-0.86-2.96-2.54-8.8z" fill="#CC7B5A" p-id="51729"></path><path d="M763.062 752.62l-11.136 38.53-13.198 45.692-6.482 22.406-7.898 27.332-4.964 17.156-6.332 21.956-4.406 15.198-3.788 13.11H319.144l-0.91-3.152-24.646-85.28-2.274-7.838-6-20.772-0.022-0.088-0.102-0.356-3.348-11.56-1.432-4.982-4.838-16.692-1.576-5.448-4.716-16.332-0.266-0.912-3.76-13.012-0.06-0.24-0.102-0.35-4.152-14.366h502.122m26.598-20H234.34l2.54 8.8 0.86 2.96 8.14 28.16 0.06 0.24 3.86 13.36 0.28 0.96 4.7 16.28 1.58 5.46 4.84 16.7 1.42 4.94 3.36 11.6 0.02 0.08 6.1 21.12 2.28 7.86 24.64 85.26 5.08 17.6h415.8l2.46-8.52 5.5-19.04 4.4-15.18 6.34-21.98 4.96-17.14 7.9-27.34 6.48-22.4 13.2-45.7 18.52-64.08z" opacity=".2" p-id="51730"></path><path d="M484.72 585.72c-0.02-0.22-0.06-0.44-0.1-0.66-0.02-0.1 0-0.22-0.02-0.34-11.16-59.32-36.62-100.26-75.64-121.68-62.16-34.1-135.08-5.54-138.16-4.3-0.2 0.08-0.38 0.2-0.58 0.3-0.32 0.16-0.64 0.3-0.92 0.48s-0.54 0.38-0.8 0.56c-0.26 0.2-0.5 0.4-0.74 0.6-0.24 0.24-0.48 0.48-0.7 0.74-0.2 0.22-0.4 0.46-0.58 0.7-0.2 0.26-0.36 0.54-0.54 0.84-0.16 0.26-0.3 0.54-0.44 0.82-0.14 0.3-0.24 0.58-0.36 0.9-0.1 0.3-0.2 0.6-0.28 0.92-0.08 0.32-0.14 0.64-0.18 0.96-0.06 0.32-0.1 0.62-0.12 0.94-0.02 0.36 0 0.72 0.02 1.08 0.02 0.22 0 0.42 0.02 0.64 0.4 3.28 10.42 80.94 70.22 119.06 21.06 13.42 45.46 20.14 72.96 20.14 21.5 0 44.9-4.12 70.1-12.34 0.06-0.04 0.12-0.08 0.2-0.1 0.14-0.04 0.28-0.08 0.42-0.14l0.24-0.12c0.32-0.14 0.64-0.28 0.94-0.44 0.06-0.04 0.12-0.1 0.2-0.14l0.18-0.12c0.14-0.08 0.26-0.16 0.4-0.26 0.22-0.14 0.44-0.32 0.66-0.48 0.12-0.12 0.24-0.22 0.36-0.32 0.08-0.08 0.18-0.16 0.28-0.24 0.06-0.06 0.1-0.14 0.16-0.2 0.24-0.24 0.48-0.5 0.7-0.78 0.06-0.06 0.1-0.14 0.14-0.2 0.04-0.04 0.06-0.08 0.1-0.12 0.1-0.14 0.2-0.28 0.28-0.44 0.08-0.1 0.16-0.2 0.24-0.32 0.04-0.08 0.06-0.18 0.12-0.26l0.3-0.6c0.1-0.22 0.18-0.44 0.28-0.66 0.06-0.2 0.14-0.38 0.2-0.58 0.06-0.18 0.12-0.36 0.16-0.56 0.06-0.24 0.1-0.48 0.14-0.72 0.04-0.2 0.08-0.4 0.1-0.62 0.02-0.2 0.04-0.4 0.04-0.6 0.02-0.24 0.02-0.46 0.02-0.7 0-0.22-0.02-0.42-0.02-0.64z m-127.8-57.3l92.58 54.8c-41.48 9.6-76.36 5.72-103.82-11.74-41.54-26.4-55.76-77.24-59.82-96.76 19.02-5.86 70.24-17.86 113.48 5.86 28.58 15.68 48.8 44.4 60.34 85.44l-92.56-54.8a9.998 9.998 0 1 0-10.2 17.2z" fill="#23130D" p-id="51731"></path><path d="M356.92 528.42l92.58 54.8c-41.48 9.6-76.36 5.72-103.82-11.74-41.54-26.4-55.76-77.24-59.82-96.76 19.02-5.86 70.24-17.86 113.48 5.86 28.58 15.68 48.8 44.4 60.34 85.44l-92.56-54.8a9.998 9.998 0 1 0-10.2 17.2z" fill="#72AF5F" p-id="51732"></path><path d="M449.5 583.22c-41.48 9.6-76.36 5.72-103.82-11.74-41.54-26.4-55.76-77.24-59.82-96.76 1.44-0.44 3.08-0.92 4.9-1.42 7.54 23.82 23.32 58.02 54.92 78.1 21.4 13.6 47.3 18.96 77.3 16.12l26.52 15.7z" opacity=".2" p-id="51733"></path><path d="M459.68 566.02l-8.9-5.28c-11.96-27.72-29.16-47.86-51.44-60.08-39.94-21.92-86.7-13.34-108.58-7.28a187.602 187.602 0 0 1-4.9-18.66c19.02-5.86 70.24-17.86 113.48 5.86 28.58 15.68 48.8 44.4 60.34 85.44z" fill="#FFFFFF" opacity=".4" p-id="51734"></path><path d="M759.34 466.56c-0.06-0.32-0.1-0.64-0.18-0.96-0.08-0.32-0.2-0.62-0.3-0.94-0.1-0.3-0.22-0.58-0.36-0.88-0.12-0.28-0.28-0.56-0.44-0.82-0.18-0.3-0.34-0.58-0.54-0.84-0.18-0.24-0.38-0.48-0.58-0.7-0.22-0.26-0.44-0.5-0.7-0.74-0.22-0.2-0.48-0.4-0.74-0.6-0.26-0.18-0.5-0.38-0.78-0.56-0.3-0.18-0.62-0.32-0.94-0.48-0.2-0.1-0.38-0.22-0.58-0.3-3.08-1.24-75.98-29.8-138.16 4.3-39.02 21.42-64.46 62.36-75.64 121.68-0.02 0.12 0 0.24-0.02 0.36-0.04 0.22-0.06 0.44-0.08 0.64-0.02 0.22-0.02 0.42-0.04 0.62 0 0.26 0 0.48 0.02 0.72 0 0.22 0.02 0.42 0.04 0.62s0.06 0.38 0.1 0.58c0.04 0.26 0.08 0.5 0.14 0.74 0.04 0.2 0.1 0.38 0.16 0.58 0.06 0.18 0.14 0.36 0.2 0.56 0.1 0.22 0.18 0.44 0.28 0.66l0.3 0.6c0.06 0.08 0.08 0.18 0.14 0.26 0.06 0.12 0.14 0.2 0.22 0.32 0.08 0.14 0.18 0.3 0.3 0.44 0.02 0.04 0.04 0.06 0.06 0.1 0.06 0.08 0.1 0.16 0.16 0.24 0.22 0.26 0.46 0.52 0.7 0.76 0.06 0.06 0.1 0.14 0.16 0.2 0.1 0.08 0.2 0.16 0.28 0.24 0.12 0.1 0.24 0.22 0.38 0.32 0.2 0.16 0.42 0.34 0.64 0.48l0.4 0.28c0.06 0.02 0.12 0.06 0.18 0.1l0.2 0.14c0.3 0.16 0.62 0.3 0.94 0.44l0.24 0.12c0.14 0.06 0.28 0.08 0.42 0.14 0.08 0.02 0.14 0.06 0.2 0.1 25.2 8.22 48.6 12.34 70.12 12.34 27.48 0 51.88-6.72 72.94-20.14 59.8-38.12 69.82-115.78 70.22-119.06 0.04-0.22 0-0.42 0.02-0.64 0.02-0.36 0.04-0.72 0.02-1.08-0.02-0.32-0.06-0.62-0.1-0.94z m-80.9 104.84c-27.48 17.52-62.4 21.44-103.94 11.82l92.58-54.8a10.002 10.002 0 0 0 3.5-13.7 9.984 9.984 0 0 0-13.7-3.5l-92.56 54.8c11.54-41 31.72-69.68 60.22-85.38 43.12-23.72 94.54-11.74 113.62-5.9-4.02 19.48-18.14 70.16-59.72 96.66z" fill="#23130D" p-id="51735"></path><path d="M738.16 474.74c-4.02 19.48-18.14 70.16-59.72 96.66-27.48 17.52-62.4 21.44-103.94 11.82l92.58-54.8a10.002 10.002 0 0 0 3.5-13.7 9.984 9.984 0 0 0-13.7-3.5l-92.56 54.8c11.54-41 31.72-69.68 60.22-85.38 43.12-23.72 94.54-11.74 113.62-5.9z" fill="#72AF5F" p-id="51736"></path><path d="M577.18 264.78c0 29.14-23.7 52.84-52.84 52.84h-2.36v38.14c0 5.52-4.48 10-10 10s-10-4.48-10-10v-38.14H456.8c-5.52 0-10-4.48-10-10s4.48-10 10-10h67.54c18.1 0 32.84-14.72 32.84-32.84 0-18.1-14.74-32.84-32.84-32.84h-24.72c-29.12 0-52.82-23.7-52.82-52.84s23.7-52.84 52.82-52.84h2.36V88.14c0-5.52 4.48-10 10-10s10 4.48 10 10v38.12h45.2c5.52 0 10 4.48 10 10s-4.48 10-10 10h-67.56c-18.1 0-32.82 14.74-32.82 32.84 0 18.12 14.72 32.84 32.82 32.84h24.72c29.14 0 52.84 23.7 52.84 52.84z" fill="#23130D" p-id="51737"></path><path d="M574.52 583.22c41.48 9.6 76.36 5.72 103.82-11.74 41.54-26.4 55.76-77.24 59.82-96.76-1.44-0.44-3.08-0.92-4.9-1.42-7.54 23.82-23.32 58.02-54.92 78.1-21.4 13.6-47.3 18.96-77.3 16.12l-26.52 15.7z" opacity=".2" p-id="51738"></path><path d="M564.34 566.02l8.9-5.28c11.96-27.72 29.16-47.86 51.44-60.08 39.94-21.92 86.7-13.34 108.58-7.28 2.38-7.52 3.94-13.98 4.9-18.66-19.02-5.86-70.24-17.86-113.48 5.86-28.58 15.68-48.8 44.4-60.34 85.44z" fill="#FFFFFF" opacity=".4" p-id="51739"></path><path d="M808.6 666.5c0.18 16.08-1.42 31.6-5.34 46.02 3.94-0.38 7.58-1.86 10.58-4.1 2.46-10.86 3.82-22.5 4.1-34.94-2.36-3.12-5.6-5.58-9.34-6.98z m-29.1 46.12h9.76c4.52-14.28 6.94-30.12 7.28-47.46h-9.4c-0.32 16.72-2.66 32.74-7.64 47.46z m-24.3 0h9.94c5.48-14.18 8.7-30 9.68-47.46h-9.36c-1 16.86-4.18 32.9-10.26 47.46z m-24.94 0h10.22c6.52-14.04 10.64-29.88 12.34-47.46h-9.4c-1.7 17.04-5.84 33.08-13.16 47.46z m-9.2-47.46c-2.42 16.48-7.32 31.92-15.38 45.62-0.36 0.62-0.74 1.24-1.12 1.84h10.66c7.68-13.9 12.78-29.74 15.28-47.46h-9.44z m-22.74 0c-2.7 13.62-7.26 26.4-14.06 37.96a101.88 101.88 0 0 1-6.34 9.5h11.26c1.06-1.58 2.06-3.18 3.02-4.82 7.4-12.56 12.6-26.8 15.62-42.64h-9.5z m-36.42 0c-6.18 3.86-12.28 8.02-18.24 12.46-15.2 11.28-28.08 23.1-38.34 35h12.5c8.82-9.4 19.34-18.7 31.32-27.6 8.18-6.08 16.64-11.62 25.14-16.62-2.72 9.58-6.48 18.66-11.44 27.08a100.78 100.78 0 0 1-12.68 17.14h12.12c3.1-3.94 5.94-8.1 8.52-12.46 6.18-10.52 10.84-22.2 13.96-35h-22.86z m-16.3 0h-16.7c-2.24 1.58-4.46 3.16-6.66 4.8-18.44 13.7-33.48 28.18-44.58 42.66h11.94c10.06-12 22.92-23.96 38.14-35.26 5.84-4.34 11.82-8.42 17.86-12.2z m-39.28 4.54c2.08-1.54 4.2-3.06 6.32-4.54h-15.62c-19.88 15.3-35.54 31.46-46.26 47.46h11.4c10.7-14.52 25.72-29.2 44.16-42.92z m-25.5-4.54h-14.68c-18.38 15.46-32.48 31.62-41.52 47.46h10.84c10.1-15.86 25.6-32.2 45.36-47.46z m-30.86 0h-13.94c-16.92 15.64-29.44 31.8-36.82 47.46h10.38c8.3-15.6 22.12-31.94 40.38-47.46z m-29.44 0h-14.18c-17.06 14.78-32.6 30.32-45.74 46.56 4.7-14.84 15.12-30.86 30.24-46.56h-14.54c-13.68 12.46-26.22 25.44-37.12 38.9 3.94-12.42 11.9-25.7 23.28-38.9h-15.76c-10.52 10.12-20.24 20.54-28.92 31.26 3.16-10.04 8.96-20.6 17.04-31.26h-17.28c-7.58 7.7-14.68 15.56-21.18 23.6 2.42-7.62 6.34-15.56 11.64-23.6h-19.2c-4.86 5.24-9.5 10.54-13.86 15.94 1.64-5.2 4-10.52 7.02-15.94h-21.44c-2.4 2.74-4.72 5.52-6.98 8.3 0.86-2.74 1.92-5.5 3.18-8.3h-10.06c-3.18 8.16-4.94 16.12-5.14 23.78-0.02 0.2 0 0.4-0.02 0.6-2.76 4-5.36 8.06-7.78 12.14-2.64-5.32-4.1-11-4.34-17.02 4.66-6.6 9.74-13.1 15.24-19.5h-11.98l-0.52 0.64c0.06-0.22 0.14-0.42 0.22-0.64h-9.66c-1.58 5.5-2.44 10.9-2.58 16.14v0.58c-6.88 10.02-12.8 20.26-17.54 30.74h10.22c2.66-5.52 5.66-11 8.98-16.4 1.28 5.02 3.42 10.08 6.6 15.06-0.24 0.44-0.46 0.9-0.68 1.34h13.56c-0.68-0.74-1.32-1.48-1.92-2.24a197.36 197.36 0 0 1 3.84-6.5c0.76 2.92 1.78 5.84 3.14 8.74h17.62c0.2-0.38 0.44-0.74 0.66-1.1l0.3 1.1h9.8a41.38 41.38 0 0 1-2.48-12.66c5.76-8.16 12.2-16.18 19.2-24.02-4.4 9.72-6.82 19.24-7.06 28.3v0.6c-1.78 2.58-3.48 5.16-5.12 7.78h14.9c-0.28-1.64-0.44-3.3-0.52-5 5.76-8.16 12.2-16.18 19.2-24.02-4.4 9.72-6.8 19.24-7.04 28.3-0.02 0.2-0.02 0.4-0.02 0.6-0.02 0.04-0.06 0.08-0.08 0.12h11.26c5.26-7.24 11.06-14.36 17.3-21.36-3.3 7.26-5.48 14.42-6.48 21.36h16.38c3.64-4.64 7.46-9.2 11.5-13.72-2.08 4.62-3.74 9.2-4.9 13.72h21.06c1.72-2.04 3.46-4.06 5.26-6.06-0.92 2.02-1.76 4.06-2.48 6.06h9.96c6-14.24 16.92-29.32 31.88-44.02 1.36-1.16 2.74-2.32 4.12-3.44z m-157.6 31.44v0.58a222.64 222.64 0 0 0-7.8 12.16c-2.62-5.32-4.08-11-4.34-17.02 5.76-8.18 12.2-16.18 19.2-24.02-4.4 9.72-6.82 19.24-7.06 28.3z m-57.7-31.44c-11.54 15.24-20.9 31.08-27.34 47.46h10.02c6.86-16.36 16.8-32.2 28.98-47.46h-11.66z m-26.96 0c-10.68 15.28-19.1 31.1-24.56 47.46h9.82c5.82-16.34 14.76-32.18 26.04-47.46h-11.3z m-26.54 0c-9.8 15.28-17.28 31.12-21.74 47.46h9.62c4.8-16.32 12.76-32.16 23.12-47.46h-11z m-26.1 0c-7.82 13.42-13.82 27.26-17.52 41.48 2.32 2.26 5.16 4 8.34 5 3.78-15.96 10.66-31.46 19.92-46.48h-10.74z m-19.42 8.14c-2.06 2.6-3.5 5.7-4.12 9.08a158.9 158.9 0 0 1 4.12-9.08z" opacity=".2" p-id="51740"></path><path d="M446.8 307.62c0 0.68 0.06 1.34 0.2 1.98l-105.98-105.98c1.94-18.26 6.74-35.68 13.98-51.78l145.8 145.78h-44c-5.52 0-10 4.48-10 10zM582.12 378.96a169.87 169.87 0 0 1-51.78 13.98l-75.52-75.52c0.64 0.14 1.3 0.2 1.98 0.2h45.18v38.14c0 5.52 4.48 10 10 10s10-4.48 10-10v-36.94l60.14 60.14zM468.34 189.06l21.36 21.34c-10.12-3.2-18.14-11.2-21.36-21.34z" fill="#FFFFFF" opacity=".4" p-id="51741"></path><path d="M555.22 275.94c-4.36 12.06-15.58 20.84-28.92 21.62l-162.58-162.58a171.18 171.18 0 0 1 21.5-29.06l62.64 62.64c-0.7 3.4-1.06 6.94-1.06 10.54 0 29.14 23.7 52.84 52.82 52.84h11.62l43.98 44zM628.02 348.74c-8.86 8.16-18.6 15.36-29.04 21.5l-56.02-56.02c11.56-4.36 21.2-12.66 27.26-23.28l57.8 57.8zM499.62 126.26c-11.66 0-22.44 3.8-31.18 10.22l-55.22-55.22a171.348 171.348 0 0 1 57.74-26.3l31.22 31.22c-0.14 0.64-0.2 1.3-0.2 1.96v38.12h-2.36zM542.26 126.26h-20.28V105.98zM679 263a170.902 170.902 0 0 1-26.32 57.72l-82.94-82.94-86.9-86.9c4.92-2.94 10.64-4.62 16.78-4.62h62.64l116.74 116.74z" fill="#FFFFFF" opacity=".4" p-id="51742"></path><path d="M655.81 231.95a10 10 0 0 1-10-10c0-73.784-60.028-133.81-133.81-133.81a10 10 0 0 1 0-20c84.81 0 153.81 69 153.81 153.81a10 10 0 0 1-10 10z" fill="#FFFFFF" opacity=".8" p-id="51743"></path></svg>