<?xml version="1.0" standalone="no"?><!DOCTYPE svg PUBLIC "-//W3C//DTD SVG 1.1//EN" "http://www.w3.org/Graphics/SVG/1.1/DTD/svg11.dtd"><svg t="1625811532875" class="icon" viewBox="0 0 1024 1024" version="1.1" xmlns="http://www.w3.org/2000/svg" p-id="33670" xmlns:xlink="http://www.w3.org/1999/xlink" width="200" height="200"><defs><style type="text/css"></style></defs><path d="M730.72 756.44H523.98l0.94-615.14 98.46 98.46a10.014 10.014 0 0 0 10.9 2.16c3.72-1.54 6.16-5.2 6.16-9.24v-85.8c0-2.64-1.04-5.18-2.92-7.06l-115.5-115.5a10.006 10.006 0 0 0-14.14 0L392.4 139.82c-1.88 1.88-2.94 4.42-2.94 7.06v85.8a10 10 0 0 0 10 10c2.6 0 5.16-1.02 7.08-2.92l98.38-98.38-0.94 615.06H293.28c-18.44 0-33.46 15-33.46 33.46v4.08c0 15.34 10.38 28.26 24.48 32.2l55.3 169.52a9.99 9.99 0 0 0 9.5 6.9h325.82c4.32 0 8.16-2.78 9.5-6.9l55.26-169.5c14.1-3.94 24.5-16.88 24.5-32.22v-4.08c0-18.46-15.02-33.46-33.46-33.46zM409.46 208.54V151.04l105.5-105.5 105.48 105.5v57.5l-98.42-98.42c-0.06-0.06-0.12-0.1-0.18-0.16a11.72 11.72 0 0 0-1.34-1.08c-0.24-0.16-0.52-0.28-0.8-0.44-0.3-0.16-0.58-0.34-0.92-0.48-0.32-0.14-0.66-0.22-1-0.32-0.28-0.08-0.56-0.18-0.86-0.24-0.56-0.12-1.14-0.16-1.72-0.18-0.08 0-0.16-0.02-0.22-0.02h-0.02c-0.68 0-1.34 0.06-2 0.2-0.18 0.04-0.34 0.12-0.54 0.16-0.44 0.12-0.88 0.22-1.3 0.4-0.42 0.18-0.8 0.4-1.2 0.64-0.16 0.08-0.34 0.16-0.5 0.26-0.58 0.4-1.14 0.86-1.64 1.36l-98.32 98.32z m258.2 774.06H356.36l-50.6-155.16h412.48l-50.58 155.16z m76.52-188.62c0 7.42-6.04 13.46-13.46 13.46H293.28c-7.42 0-13.46-6.04-13.46-13.46v-4.08c0-7.42 6.04-13.46 13.46-13.46h437.44c7.42 0 13.46 6.04 13.46 13.46v4.08z" fill="#23130D" p-id="33671"></path><path d="M744.18 789.9v4.08c0 7.42-6.04 13.46-13.46 13.46H293.28c-7.42 0-13.46-6.04-13.46-13.46v-4.08c0-7.42 6.04-13.46 13.46-13.46h437.44c7.42 0 13.46 6.04 13.46 13.46z" fill="#E59D89" p-id="33672"></path><path d="M744.18 789.9v4.08c0 7.42-6.04 13.46-13.46 13.46H293.28c-7.42 0-13.46-6.04-13.46-13.46v-4.08c0-2.04 0.46-3.96 1.28-5.7 2.16 4.56 6.8 7.74 12.18 7.74h437.44c5.38 0 10.02-3.18 12.18-7.74 0.82 1.74 1.28 3.66 1.28 5.7z" fill="#23130D" opacity=".2" p-id="33673"></path><path d="M718.24 827.44l-50.58 155.16H356.36l-50.6-155.16z" fill="#CC7B5A" p-id="33674"></path><path d="M395.02 982.6h-38.66l-50.6-155.16h38.66z" fill="#FFFFFF" opacity=".4" p-id="33675"></path><path d="M718.24 827.44l-50.58 155.16H629l50.58-155.16z" fill="#23130D" opacity=".2" p-id="33676"></path><path d="M620.44 151.04v57.5l-98.42-98.42c-0.06-0.06-0.12-0.1-0.18-0.16a11.72 11.72 0 0 0-1.34-1.08c-0.24-0.16-0.52-0.28-0.8-0.44-0.3-0.16-0.58-0.34-0.92-0.48-0.32-0.14-0.66-0.22-1-0.32-0.28-0.08-0.56-0.18-0.86-0.24-0.56-0.12-1.14-0.16-1.72-0.18-0.08 0-0.16-0.02-0.22-0.02h-0.02c-0.68 0-1.34 0.06-2 0.2-0.18 0.04-0.34 0.12-0.54 0.16-0.44 0.12-0.88 0.22-1.3 0.4-0.42 0.18-0.8 0.4-1.2 0.64-0.16 0.08-0.34 0.16-0.5 0.26-0.58 0.4-1.14 0.86-1.64 1.36l-98.32 98.32V151.04l105.5-105.5 105.48 105.5z" fill="#72AF5F" p-id="33677"></path><path d="M620.44 151.04v20.5l-105.48-105.5-105.5 105.5V151.04l105.5-105.5z" fill="#FFFFFF" opacity=".4" p-id="33678"></path><path d="M490.6 716.9c-0.02-0.22-0.06-0.42-0.1-0.64-0.02-0.12 0-0.22-0.02-0.34-10.34-54.9-33.9-92.8-70.08-112.64-57.58-31.6-125.1-5.16-127.94-4.02-0.2 0.08-0.36 0.2-0.56 0.3-0.34 0.16-0.66 0.3-0.98 0.5-0.26 0.16-0.5 0.36-0.76 0.54-0.26 0.2-0.52 0.4-0.76 0.62s-0.46 0.46-0.68 0.72c-0.2 0.22-0.42 0.46-0.6 0.72s-0.36 0.54-0.52 0.8c-0.16 0.28-0.32 0.56-0.46 0.86-0.14 0.28-0.24 0.58-0.34 0.86a7.712 7.712 0 0 0-0.48 1.92c-0.04 0.3-0.1 0.6-0.1 0.92-0.02 0.36 0 0.72 0.02 1.1 0 0.2-0.02 0.42 0 0.62 0.38 3.04 9.66 74.96 65.06 110.26 19.54 12.44 42.14 18.68 67.62 18.68 19.9 0 41.56-3.8 64.84-11.42 0.06 0 0.1-0.04 0.16-0.06 0.16-0.06 0.34-0.1 0.5-0.18 0.04 0 0.06-0.02 0.1-0.04 0.36-0.16 0.72-0.32 1.08-0.52 0.02-0.02 0.04-0.04 0.06-0.04 0.12-0.08 0.22-0.16 0.34-0.22 0.1-0.06 0.2-0.14 0.3-0.2a10.252 10.252 0 0 0 1.02-0.8c0.12-0.1 0.24-0.2 0.34-0.3 0.02-0.04 0.04-0.06 0.06-0.08 0.28-0.28 0.56-0.58 0.8-0.9 0.02-0.02 0.04-0.06 0.06-0.08 0.06-0.08 0.12-0.18 0.18-0.26 0.1-0.12 0.16-0.24 0.24-0.36s0.18-0.24 0.26-0.36c0.06-0.1 0.08-0.2 0.14-0.3 0.1-0.18 0.2-0.36 0.28-0.56 0.1-0.2 0.18-0.42 0.26-0.62 0.08-0.22 0.16-0.42 0.24-0.64 0.06-0.18 0.1-0.36 0.14-0.54 0.06-0.24 0.1-0.46 0.14-0.68 0.04-0.24 0.08-0.46 0.12-0.68 0.02-0.2 0.02-0.38 0.04-0.58v-0.68c0-0.22 0-0.46-0.02-0.68z m-118.92-52.02l83.58 49.48c-37.14 8.22-68.4 4.52-93.1-11.16-37.54-23.84-50.72-69.58-54.62-87.94 17.92-5.42 64.16-15.88 103.24 5.56 25.7 14.08 44 39.74 54.68 76.32l-83.58-49.48a10.008 10.008 0 0 0-13.7 3.52c-2.82 4.74-1.24 10.88 3.5 13.7z" fill="#23130D" p-id="33679"></path><path d="M371.68 664.88l83.58 49.48c-37.14 8.22-68.4 4.52-93.1-11.16-37.54-23.84-50.72-69.58-54.62-87.94 17.92-5.42 64.16-15.88 103.24 5.56 25.7 14.08 44 39.74 54.68 76.32l-83.58-49.48a10.008 10.008 0 0 0-13.7 3.52c-2.82 4.74-1.24 10.88 3.5 13.7z" fill="#72AF5F" p-id="33680"></path><path d="M743.6 607.1c-0.06-0.34-0.1-0.66-0.18-0.98-0.08-0.32-0.2-0.62-0.3-0.92-0.1-0.3-0.22-0.6-0.34-0.88a8.32 8.32 0 0 0-0.46-0.84c-0.18-0.28-0.34-0.56-0.54-0.82-0.18-0.26-0.38-0.48-0.58-0.72-0.22-0.24-0.44-0.5-0.68-0.72s-0.5-0.42-0.76-0.62c-0.26-0.18-0.5-0.38-0.78-0.54-0.3-0.2-0.64-0.34-0.96-0.5-0.2-0.1-0.36-0.22-0.56-0.3-2.84-1.14-70.36-27.58-127.96 4.02-36.16 19.84-59.74 57.74-70.06 112.64-0.02 0.12-0.02 0.24-0.04 0.36-0.02 0.2-0.06 0.42-0.08 0.62-0.02 0.22-0.02 0.46-0.02 0.68-0.02 0.24-0.02 0.46 0 0.68 0 0.2 0.02 0.38 0.04 0.58 0.02 0.22 0.06 0.44 0.1 0.66 0.04 0.24 0.08 0.48 0.14 0.7 0.06 0.18 0.1 0.36 0.16 0.54 0.06 0.22 0.14 0.42 0.22 0.64 0.08 0.2 0.18 0.42 0.28 0.62 0.08 0.2 0.18 0.38 0.28 0.56 0.04 0.1 0.08 0.2 0.14 0.3 0.08 0.14 0.16 0.24 0.24 0.38 0.08 0.1 0.16 0.22 0.24 0.32 0.06 0.1 0.12 0.2 0.2 0.3 0.02 0.02 0.02 0.04 0.04 0.06 0.26 0.32 0.52 0.62 0.8 0.9 0.02 0.02 0.04 0.04 0.06 0.08 0.12 0.1 0.24 0.2 0.34 0.3l0.3 0.24c0.22 0.2 0.48 0.38 0.72 0.56 0.1 0.06 0.22 0.14 0.32 0.2s0.22 0.14 0.32 0.2c0.02 0.02 0.06 0.04 0.08 0.06 0.34 0.2 0.7 0.36 1.06 0.52 0.04 0.02 0.08 0.04 0.12 0.04 0.16 0.08 0.32 0.12 0.5 0.18 0.04 0.02 0.1 0.06 0.16 0.06 23.28 7.62 44.92 11.42 64.82 11.42 25.48 0 48.1-6.24 67.64-18.68 55.38-35.3 64.68-107.2 65.04-110.26 0.04-0.2 0-0.42 0.02-0.62 0.02-0.38 0.04-0.74 0.02-1.1-0.02-0.32-0.06-0.62-0.1-0.92z m-75.74 96.04c-24.7 15.74-56 19.46-93.22 11.22l83.58-49.48a10.012 10.012 0 0 0 3.52-13.7 10.014 10.014 0 0 0-13.72-3.52l-83.56 49.48c10.66-36.52 28.92-62.16 54.56-76.26 38.96-21.44 85.4-11 103.36-5.6-3.86 18.32-16.92 63.9-54.52 87.86z" fill="#23130D" p-id="33681"></path><path d="M722.38 615.28c-3.86 18.32-16.92 63.9-54.52 87.86-24.7 15.74-56 19.46-93.22 11.22l83.58-49.48a10.012 10.012 0 0 0 3.52-13.7 10.014 10.014 0 0 0-13.72-3.52l-83.56 49.48c10.66-36.52 28.92-62.16 54.56-76.26 38.96-21.44 85.4-11 103.36-5.6z" fill="#72AF5F" p-id="33682"></path><path d="M490.6 553.38c-0.02-0.2-0.06-0.42-0.1-0.62-0.02-0.12 0-0.24-0.02-0.36-10.34-54.9-33.9-92.8-70.08-112.64-57.58-31.58-125.1-5.16-127.94-4.02-0.2 0.08-0.38 0.2-0.56 0.3a15 15 0 0 0-0.98 0.5c-0.26 0.18-0.5 0.36-0.76 0.54-0.26 0.2-0.52 0.4-0.76 0.62-0.24 0.24-0.46 0.48-0.68 0.72-0.2 0.24-0.42 0.46-0.6 0.72s-0.36 0.54-0.52 0.82c-0.16 0.28-0.32 0.54-0.46 0.84-0.14 0.28-0.24 0.58-0.34 0.88-0.12 0.3-0.22 0.6-0.3 0.92-0.08 0.32-0.14 0.64-0.18 0.98-0.04 0.3-0.1 0.62-0.1 0.92-0.02 0.38 0 0.74 0.02 1.1 0 0.2-0.02 0.42 0 0.62 0.38 3.06 9.66 74.96 65.06 110.26 19.54 12.44 42.14 18.68 67.62 18.68 19.9 0 41.56-3.8 64.84-11.4 0.06-0.02 0.1-0.06 0.16-0.08 0.16-0.06 0.34-0.1 0.5-0.18 0.04 0 0.06-0.02 0.1-0.04 0.36-0.14 0.72-0.32 1.08-0.52 0.02-0.02 0.04-0.02 0.06-0.04 0.12-0.06 0.22-0.14 0.34-0.22 0.1-0.06 0.2-0.12 0.3-0.2a10.252 10.252 0 0 0 1.02-0.8c0.12-0.1 0.24-0.2 0.34-0.3l0.06-0.06c0.28-0.28 0.56-0.6 0.82-0.92 0-0.02 0.02-0.04 0.04-0.06 0.06-0.08 0.12-0.2 0.2-0.3 0.08-0.1 0.14-0.22 0.22-0.32 0.08-0.12 0.18-0.24 0.26-0.38 0.06-0.1 0.08-0.2 0.14-0.3 0.1-0.18 0.2-0.36 0.28-0.56 0.1-0.2 0.18-0.4 0.26-0.62 0.08-0.22 0.16-0.42 0.24-0.64 0.06-0.18 0.1-0.36 0.14-0.54 0.06-0.22 0.1-0.46 0.14-0.68 0.04-0.22 0.08-0.44 0.12-0.68 0.02-0.18 0.02-0.38 0.04-0.58v-0.66c0-0.24 0-0.46-0.02-0.7z m-118.92-52.02l83.58 49.48c-37.14 8.22-68.4 4.54-93.1-11.16-37.54-23.84-50.72-69.58-54.62-87.94 17.92-5.42 64.16-15.88 103.24 5.56 25.7 14.1 44 39.74 54.68 76.34l-83.58-49.5a9.99 9.99 0 0 0-13.7 3.52c-2.82 4.74-1.24 10.88 3.5 13.7z" fill="#23130D" p-id="33683"></path><path d="M371.68 501.36l83.58 49.48c-37.14 8.22-68.4 4.54-93.1-11.16-37.54-23.84-50.72-69.58-54.62-87.94 17.92-5.42 64.16-15.88 103.24 5.56 25.7 14.1 44 39.74 54.68 76.34l-83.58-49.5a9.99 9.99 0 0 0-13.7 3.52c-2.82 4.74-1.24 10.88 3.5 13.7z" fill="#72AF5F" p-id="33684"></path><path d="M743.6 443.58c-0.06-0.34-0.1-0.66-0.18-0.98-0.08-0.32-0.2-0.62-0.3-0.92-0.1-0.3-0.22-0.6-0.34-0.88-0.14-0.3-0.3-0.56-0.46-0.84-0.18-0.28-0.34-0.56-0.54-0.82-0.18-0.26-0.38-0.48-0.58-0.72-0.22-0.24-0.44-0.48-0.68-0.72-0.24-0.22-0.5-0.42-0.76-0.6-0.26-0.2-0.5-0.38-0.78-0.56-0.3-0.18-0.62-0.34-0.96-0.5-0.2-0.1-0.36-0.22-0.56-0.3-2.84-1.14-70.36-27.58-127.96 4.02-36.16 19.84-59.74 57.74-70.06 112.64-0.02 0.12-0.02 0.24-0.04 0.36-0.02 0.2-0.06 0.42-0.08 0.62-0.02 0.24-0.02 0.46-0.02 0.68-0.02 0.24-0.02 0.46 0 0.7 0 0.18 0.02 0.38 0.04 0.56 0.02 0.22 0.06 0.44 0.1 0.68 0.04 0.22 0.08 0.46 0.14 0.68 0.06 0.18 0.1 0.36 0.16 0.54 0.06 0.22 0.14 0.42 0.22 0.64 0.08 0.22 0.18 0.42 0.28 0.62 0.08 0.2 0.18 0.38 0.28 0.56 0.04 0.1 0.08 0.2 0.14 0.3 0.08 0.14 0.16 0.26 0.24 0.38 0.08 0.1 0.16 0.22 0.24 0.32 0.06 0.1 0.12 0.22 0.2 0.3 0.02 0.02 0.02 0.04 0.04 0.06 0.26 0.32 0.52 0.64 0.82 0.92 0.02 0.02 0.02 0.04 0.04 0.06 0.12 0.1 0.24 0.2 0.34 0.3 0.1 0.08 0.2 0.16 0.28 0.24 0.24 0.2 0.5 0.38 0.74 0.56 0.1 0.08 0.22 0.14 0.32 0.2 0.1 0.08 0.22 0.14 0.32 0.22 0.04 0.02 0.06 0.02 0.08 0.04 0.34 0.2 0.7 0.38 1.08 0.52 0.02 0.02 0.06 0.04 0.1 0.06 0.16 0.06 0.32 0.1 0.5 0.16 0.04 0.02 0.1 0.06 0.16 0.08 23.28 7.6 44.92 11.4 64.82 11.4 25.48 0 48.1-6.24 67.64-18.68 55.38-35.3 64.68-107.2 65.04-110.26 0.04-0.2 0-0.42 0.02-0.62 0.02-0.36 0.04-0.72 0.02-1.1a14.36 14.36 0 0 0-0.1-0.92z m-75.74 96.04c-24.7 15.74-56 19.46-93.22 11.22l83.58-49.48a10.012 10.012 0 0 0 3.52-13.7 10.032 10.032 0 0 0-13.72-3.52l-83.56 49.48c10.66-36.52 28.92-62.16 54.56-76.26 38.94-21.44 85.4-11 103.36-5.6-3.86 18.32-16.92 63.9-54.52 87.86z" fill="#23130D" p-id="33685"></path><path d="M722.38 451.76c-3.86 18.32-16.92 63.9-54.52 87.86-24.7 15.74-56 19.46-93.22 11.22l83.58-49.48a10.012 10.012 0 0 0 3.52-13.7 10.032 10.032 0 0 0-13.72-3.52l-83.56 49.48c10.66-36.52 28.92-62.16 54.56-76.26 38.94-21.44 85.4-11 103.36-5.6z" fill="#72AF5F" p-id="33686"></path><path d="M490.6 389.86c-0.02-0.2-0.06-0.42-0.1-0.62-0.02-0.12 0-0.24-0.02-0.36-10.34-54.9-33.9-92.8-70.08-112.64-57.58-31.58-125.1-5.16-127.94-4.02-0.2 0.08-0.38 0.2-0.56 0.3a15 15 0 0 0-0.98 0.5c-0.26 0.18-0.52 0.36-0.76 0.56-0.26 0.2-0.52 0.38-0.76 0.6-0.24 0.24-0.46 0.48-0.68 0.72-0.2 0.24-0.42 0.46-0.6 0.72s-0.36 0.54-0.52 0.82c-0.16 0.28-0.32 0.54-0.46 0.84-0.14 0.28-0.24 0.58-0.34 0.88-0.12 0.3-0.22 0.6-0.3 0.94-0.08 0.3-0.14 0.62-0.18 0.96-0.04 0.3-0.1 0.62-0.1 0.94-0.02 0.36 0 0.72 0.02 1.08 0 0.22-0.02 0.42 0 0.64 0.38 3.04 9.66 74.94 65.06 110.24 19.54 12.46 42.14 18.68 67.62 18.68 19.9 0 41.56-3.8 64.84-11.4 0.06-0.02 0.1-0.06 0.16-0.08 0.16-0.06 0.34-0.1 0.5-0.18 0.04 0 0.06-0.02 0.08-0.02 0.36-0.16 0.74-0.34 1.1-0.54 0.02 0 0.04-0.02 0.06-0.04 0.12-0.06 0.22-0.14 0.34-0.22 0.1-0.06 0.2-0.12 0.3-0.2 0.26-0.16 0.5-0.36 0.74-0.56 0.1-0.08 0.2-0.16 0.28-0.24 0.12-0.1 0.24-0.2 0.34-0.3l0.06-0.06c0.28-0.28 0.56-0.58 0.8-0.92l0.06-0.06c0.06-0.1 0.12-0.2 0.2-0.28l0.22-0.34c0.08-0.12 0.18-0.24 0.26-0.38 0.06-0.08 0.08-0.2 0.14-0.3 0.1-0.18 0.2-0.36 0.28-0.56 0.1-0.2 0.18-0.4 0.26-0.62 0.08-0.22 0.16-0.42 0.24-0.64 0.06-0.18 0.1-0.36 0.14-0.54 0.06-0.22 0.1-0.44 0.14-0.68 0.04-0.22 0.08-0.44 0.12-0.68 0.02-0.18 0.02-0.38 0.04-0.58v-0.66c0-0.24 0-0.46-0.02-0.7z m-118.92-52.02l83.58 49.48c-37.14 8.24-68.4 4.54-93.1-11.16-37.54-23.84-50.72-69.58-54.62-87.94 17.92-5.42 64.16-15.88 103.24 5.56 25.7 14.1 44 39.74 54.68 76.34l-83.58-49.5a10.008 10.008 0 0 0-13.7 3.52c-2.82 4.74-1.24 10.88 3.5 13.7z" fill="#23130D" p-id="33687"></path><path d="M371.68 337.84l83.58 49.48c-37.14 8.24-68.4 4.54-93.1-11.16-37.54-23.84-50.72-69.58-54.62-87.94 17.92-5.42 64.16-15.88 103.24 5.56 25.7 14.1 44 39.74 54.68 76.34l-83.58-49.5a10.008 10.008 0 0 0-13.7 3.52c-2.82 4.74-1.24 10.88 3.5 13.7z" fill="#72AF5F" p-id="33688"></path><path d="M465.46 370.12l-9.62-5.7c-10.84-23.12-25.9-40.06-45.06-50.58-35.82-19.66-77.66-12.5-98.18-7a178.732 178.732 0 0 1-5.06-18.62c17.92-5.42 64.16-15.88 103.24 5.56 25.7 14.1 44 39.74 54.68 76.34z" fill="#FFFFFF" opacity=".4" p-id="33689"></path><path d="M455.26 387.13c-37.14 8.24-68.4 4.54-93.1-11.16-37.54-23.84-50.72-69.58-54.62-87.94 1.5-0.46 3.18-0.94 5.06-1.44 7.16 21.68 21.62 51.58 49.56 69.32 18.42 11.7 40.48 16.74 65.92 15.12l27.18 16.1z" fill="#23130D" opacity=".2" p-id="33690"></path><path d="M465.46 533.73l-9.62-5.7c-10.84-23.12-25.9-40.06-45.06-50.58-35.82-19.66-77.66-12.5-98.18-7a178.732 178.732 0 0 1-5.06-18.62c17.92-5.42 64.16-15.88 103.24 5.56 25.7 14.1 44 39.74 54.68 76.34z" fill="#FFFFFF" opacity=".4" p-id="33691"></path><path d="M455.26 550.74c-37.14 8.24-68.4 4.54-93.1-11.16-37.54-23.84-50.72-69.58-54.62-87.94 1.5-0.46 3.18-0.94 5.06-1.44 7.16 21.68 21.62 51.58 49.56 69.32 18.42 11.7 40.48 16.74 65.92 15.12l27.18 16.1z" fill="#23130D" opacity=".2" p-id="33692"></path><path d="M465.46 697.34l-9.62-5.7c-10.84-23.12-25.9-40.06-45.06-50.58-35.82-19.66-77.66-12.5-98.18-7a178.732 178.732 0 0 1-5.06-18.62c17.92-5.42 64.16-15.88 103.24 5.56 25.7 14.1 44 39.74 54.68 76.34z" fill="#FFFFFF" opacity=".4" p-id="33693"></path><path d="M455.26 714.35c-37.14 8.24-68.4 4.54-93.1-11.16-37.54-23.84-50.72-69.58-54.62-87.94 1.5-0.46 3.18-0.94 5.06-1.44 7.16 21.68 21.62 51.58 49.56 69.32 18.42 11.7 40.48 16.74 65.92 15.12l27.18 16.1z" fill="#23130D" opacity=".2" p-id="33694"></path><path d="M743.6 280.06c-0.06-0.32-0.1-0.66-0.18-0.98-0.08-0.3-0.18-0.6-0.3-0.92-0.1-0.3-0.22-0.6-0.36-0.88-0.12-0.28-0.28-0.56-0.44-0.82-0.16-0.28-0.34-0.58-0.54-0.84-0.18-0.24-0.36-0.46-0.56-0.68-0.24-0.26-0.46-0.52-0.72-0.76-0.22-0.2-0.46-0.38-0.7-0.56-0.26-0.22-0.54-0.42-0.84-0.6-0.28-0.18-0.56-0.32-0.84-0.46-0.24-0.1-0.42-0.24-0.66-0.34-2.84-1.14-70.36-27.56-127.96 4.02-36.16 19.84-59.74 57.74-70.06 112.64-0.02 0.12-0.02 0.24-0.04 0.36-0.02 0.22-0.06 0.42-0.08 0.62-0.02 0.24-0.02 0.46-0.02 0.68-0.02 0.24-0.02 0.46 0 0.7 0 0.18 0.02 0.38 0.04 0.56 0.02 0.24 0.06 0.46 0.1 0.68 0.04 0.22 0.08 0.46 0.14 0.68 0.06 0.18 0.1 0.36 0.16 0.54 0.06 0.22 0.14 0.42 0.22 0.64 0.08 0.22 0.18 0.42 0.28 0.64 0.08 0.18 0.18 0.36 0.28 0.54 0.04 0.1 0.08 0.2 0.14 0.3 0.08 0.14 0.16 0.26 0.24 0.38 0.08 0.12 0.16 0.22 0.24 0.34 0.06 0.08 0.12 0.18 0.2 0.28 0.02 0.02 0.02 0.04 0.04 0.06 0.26 0.34 0.54 0.64 0.82 0.92 0.02 0.02 0.02 0.04 0.04 0.06 0.12 0.1 0.24 0.2 0.34 0.3 0.1 0.08 0.2 0.16 0.28 0.24 0.24 0.2 0.5 0.4 0.76 0.56 0.08 0.08 0.18 0.14 0.28 0.2 0.12 0.08 0.24 0.16 0.34 0.22 0.04 0.02 0.06 0.04 0.08 0.04 0.36 0.2 0.72 0.38 1.1 0.54 0.02 0 0.04 0.02 0.06 0.02 0.18 0.08 0.34 0.12 0.52 0.18 0.06 0.02 0.1 0.06 0.16 0.08 23.28 7.6 44.92 11.4 64.82 11.4 25.48 0 48.1-6.22 67.64-18.68 55.38-35.3 64.68-107.2 65.04-110.24 0.04-0.22 0-0.42 0.02-0.64 0.02-0.36 0.04-0.72 0.02-1.1-0.02-0.3-0.06-0.6-0.1-0.92z m-75.84 96.1c-24.7 15.7-55.96 19.38-93.12 11.16l83.58-49.48a10.012 10.012 0 0 0 3.52-13.7 10.032 10.032 0 0 0-13.72-3.52l-83.56 49.5c10.66-36.54 28.92-62.18 54.56-76.28 38.94-21.42 85.36-11 103.34-5.6-3.9 18.38-17.08 64.1-54.6 87.92z" fill="#23130D" p-id="33695"></path><path d="M722.36 288.24c-3.9 18.38-17.08 64.1-54.6 87.92-24.7 15.7-55.96 19.38-93.12 11.16l83.58-49.48a10.012 10.012 0 0 0 3.52-13.7 10.032 10.032 0 0 0-13.72-3.52l-83.56 49.5c10.66-36.54 28.92-62.18 54.56-76.28 38.94-21.42 85.36-11 103.34-5.6z" fill="#72AF5F" p-id="33696"></path><path d="M564.45 370.12l9.62-5.7c10.84-23.12 25.9-40.06 45.06-50.58 35.82-19.66 77.66-12.5 98.18-7 2.46-7.46 4.06-13.92 5.06-18.62-17.92-5.42-64.16-15.88-103.24 5.56-25.7 14.1-44 39.74-54.68 76.34z" fill="#FFFFFF" opacity=".4" p-id="33697"></path><path d="M574.65 387.13c37.14 8.24 68.4 4.54 93.1-11.16 37.54-23.84 50.72-69.58 54.62-87.94-1.5-0.46-3.18-0.94-5.06-1.44-7.16 21.68-21.62 51.58-49.56 69.32-18.42 11.7-40.48 16.74-65.92 15.12l-27.18 16.1z" fill="#23130D" opacity=".2" p-id="33698"></path><path d="M564.45 533.73l9.62-5.7c10.84-23.12 25.9-40.06 45.06-50.58 35.82-19.66 77.66-12.5 98.18-7 2.46-7.46 4.06-13.92 5.06-18.62-17.92-5.42-64.16-15.88-103.24 5.56-25.7 14.1-44 39.74-54.68 76.34z" fill="#FFFFFF" opacity=".4" p-id="33699"></path><path d="M574.65 550.74c37.14 8.24 68.4 4.54 93.1-11.16 37.54-23.84 50.72-69.58 54.62-87.94-1.5-0.46-3.18-0.94-5.06-1.44-7.16 21.68-21.62 51.58-49.56 69.32-18.42 11.7-40.48 16.74-65.92 15.12l-27.18 16.1z" fill="#23130D" opacity=".2" p-id="33700"></path><path d="M564.45 697.34l9.62-5.7c10.84-23.12 25.9-40.06 45.06-50.58 35.82-19.66 77.66-12.5 98.18-7 2.46-7.46 4.06-13.92 5.06-18.62-17.92-5.42-64.16-15.88-103.24 5.56-25.7 14.1-44 39.74-54.68 76.34z" fill="#FFFFFF" opacity=".4" p-id="33701"></path><path d="M574.65 714.35c37.14 8.24 68.4 4.54 93.1-11.16 37.54-23.84 50.72-69.58 54.62-87.94-1.5-0.46-3.18-0.94-5.06-1.44-7.16 21.68-21.62 51.58-49.56 69.32-18.42 11.7-40.48 16.74-65.92 15.12l-27.18 16.1z" fill="#23130D" opacity=".2" p-id="33702"></path></svg>