<?xml version="1.0" standalone="no"?><!DOCTYPE svg PUBLIC "-//W3C//DTD SVG 1.1//EN" "http://www.w3.org/Graphics/SVG/1.1/DTD/svg11.dtd"><svg t="1625811617700" class="icon" viewBox="0 0 1024 1024" version="1.1" xmlns="http://www.w3.org/2000/svg" p-id="36994" xmlns:xlink="http://www.w3.org/1999/xlink" width="200" height="200"><defs><style type="text/css"></style></defs><path d="M948.16 303.96H589.4v-43.64h67.42c23.26 0 42.18-18.92 42.18-42.18v-6.94c0-23.26-18.92-42.18-42.18-42.18H371.18c-23.26 0-42.18 18.92-42.18 42.18v6.94c0 23.26 18.92 42.18 42.18 42.18h67.42v43.64H79.84c-23.26 0-42.18 18.92-42.18 42.18V812.8c0 23.26 18.92 42.18 42.18 42.18h868.32c23.26 0 42.18-18.92 42.18-42.18V346.14c0-23.26-18.92-42.18-42.18-42.18z m-576.98-63.64c-12.22 0-22.18-9.96-22.18-22.18v-6.94c0-12.24 9.96-22.18 22.18-22.18h285.64c12.22 0 22.18 9.94 22.18 22.18v6.94c0 12.22-9.96 22.18-22.18 22.18H371.18z m198.22 20v111.36c0 30.56-24.86 55.4-55.4 55.4s-55.4-24.84-55.4-55.4v-111.36h110.8zM970.34 812.8c0 12.24-9.94 22.18-22.18 22.18H79.84c-12.24 0-22.18-9.94-22.18-22.18V346.14c0-12.24 9.94-22.18 22.18-22.18H438.6v47.72c0 41.58 33.82 75.4 75.4 75.4s75.4-33.82 75.4-75.4v-47.72h358.76c12.24 0 22.18 9.94 22.18 22.18V812.8z" fill="#23130D" p-id="36995"></path><path d="M679 211.2v6.94c0 12.22-9.96 22.18-22.18 22.18H371.18c-12.22 0-22.18-9.96-22.18-22.18v-6.94c0-12.24 9.96-22.18 22.18-22.18h285.64c12.22 0 22.18 9.94 22.18 22.18z" fill="#E1E1E5" p-id="36996"></path><path d="M679 211.2v6.94c0 2.76-0.5 5.4-1.44 7.86-3.18-8.36-11.28-14.32-20.74-14.32H371.18c-9.46 0-17.56 5.96-20.74 14.32-0.94-2.46-1.44-5.1-1.44-7.86v-6.94c0-12.24 9.96-22.18 22.18-22.18h285.64c12.22 0 22.18 9.94 22.18 22.18z" fill="#23130D" opacity=".2" p-id="36997"></path><path d="M458.6 260.32v111.36c0 30.56 24.86 55.4 55.4 55.4s55.4-24.84 55.4-55.4v-111.36h-110.8z m55.4 149.22c-23.84 0-43.22-19.38-43.22-43.22s19.38-43.22 43.22-43.22 43.22 19.38 43.22 43.22-19.38 43.22-43.22 43.22z" fill="#636368" p-id="36998"></path><path d="M948.16 323.96H589.4v47.72c0 41.58-33.82 75.4-75.4 75.4s-75.4-33.82-75.4-75.4v-47.72H79.84c-12.24 0-22.18 9.94-22.18 22.18V812.8c0 12.24 9.94 22.18 22.18 22.18h868.32c12.24 0 22.18-9.94 22.18-22.18V346.14c0-12.24-9.94-22.18-22.18-22.18zM144.7 427.08h170.44c5.54 0 10 4.48 10 10s-4.46 10-10 10H144.7c-5.52 0-10-4.48-10-10s4.48-10 10-10z m0 64.48h404.08c5.52 0 10 4.48 10 10s-4.48 10-10 10H144.7c-5.52 0-10-4.48-10-10s4.48-10 10-10z m0 64.46h377.96c5.52 0 10 4.48 10 10s-4.48 10-10 10H144.7c-5.52 0-10-4.48-10-10s4.48-10 10-10z m0 64.46h371.92c5.54 0 10 4.48 10 10s-4.46 10-10 10H144.7c-5.52 0-10-4.48-10-10s4.48-10 10-10z m0 64.48h384.12c5.52 0 10 4.48 10 10s-4.48 10-10 10H144.7c-5.52 0-10-4.48-10-10s4.48-10 10-10z m418.34 84.46H144.7c-5.52 0-10-4.48-10-10s4.48-10 10-10h418.34c5.54 0 10 4.48 10 10s-4.46 10-10 10z m310.56-36.86c-0.46 0.66-1.02 1.24-1.64 1.8-30.82 33.24-74.82 54.08-123.62 54.08-48.76 0-92.74-20.84-123.56-54.06-0.64-0.54-1.22-1.16-1.7-1.82-26.9-29.9-43.32-69.42-43.32-112.7 0-92.96 75.62-168.6 168.58-168.6 92.98 0 168.6 75.64 168.6 168.6 0 43.28-16.42 82.82-43.34 112.7z" fill="#F9C139" p-id="36999"></path><path d="M948.16 811.3H79.84c-12.24 0-22.18-9.94-22.18-22.18v23.68c0 12.24 9.94 22.18 22.18 22.18h868.32c12.24 0 22.18-9.94 22.18-22.18v-23.68c0 12.24-9.94 22.18-22.18 22.18z" fill="#23130D" opacity=".2" p-id="37000"></path><path d="M79.84 323.21c-12.24 0-22.18 9.94-22.18 22.18v23.68c0-12.24 9.94-22.18 22.18-22.18H438.6v-23.68H79.84z m868.32 0H589.4v23.68h358.76c12.24 0 22.18 9.94 22.18 22.18v-23.68c0-12.24-9.94-22.18-22.18-22.18z" fill="#FFFFFF" opacity=".4" p-id="37001"></path><path d="M514 323.1c-23.84 0-43.22 19.38-43.22 43.22s19.38 43.22 43.22 43.22 43.22-19.38 43.22-43.22-19.38-43.22-43.22-43.22z m0 66.44c-12.8 0-23.22-10.42-23.22-23.22 0-12.8 10.42-23.22 23.22-23.22s23.22 10.42 23.22 23.22c0 12.8-10.42 23.22-23.22 23.22z" fill="#23130D" p-id="37002"></path><path d="M537.22 366.32c0 12.8-10.42 23.22-23.22 23.22s-23.22-10.42-23.22-23.22c0-12.8 10.42-23.22 23.22-23.22s23.22 10.42 23.22 23.22z" fill="#E1E1E5" p-id="37003"></path><path d="M325.14 437.08c0 5.52-4.46 10-10 10H144.7c-5.52 0-10-4.48-10-10s4.48-10 10-10h170.44c5.54 0 10 4.48 10 10zM558.78 501.56c0 5.52-4.48 10-10 10H144.7c-5.52 0-10-4.48-10-10s4.48-10 10-10h404.08c5.52 0 10 4.48 10 10zM532.66 566.02c0 5.52-4.48 10-10 10H144.7c-5.52 0-10-4.48-10-10s4.48-10 10-10h377.96c5.52 0 10 4.48 10 10zM526.62 630.48c0 5.52-4.46 10-10 10H144.7c-5.52 0-10-4.48-10-10s4.48-10 10-10h371.92c5.54 0 10 4.48 10 10zM538.82 694.96c0 5.52-4.48 10-10 10H144.7c-5.52 0-10-4.48-10-10s4.48-10 10-10h384.12c5.52 0 10 4.48 10 10zM573.04 759.42c0 5.52-4.46 10-10 10H144.7c-5.52 0-10-4.48-10-10s4.48-10 10-10h418.34c5.54 0 10 4.48 10 10zM748.34 451.26c-92.96 0-168.58 75.64-168.58 168.6 0 43.28 16.42 82.8 43.32 112.7 0.48 0.66 1.06 1.28 1.7 1.82 30.82 33.22 74.8 54.06 123.56 54.06 48.8 0 92.8-20.84 123.62-54.08 0.62-0.56 1.18-1.14 1.64-1.8 26.92-29.88 43.34-69.42 43.34-112.7 0-92.96-75.62-168.6-168.6-168.6z m0 317.18c-40.62 0-77.46-16.4-104.32-42.9 23.76-34.28 62.22-54.54 104.32-54.54s80.56 20.26 104.34 54.54c-26.86 26.5-63.7 42.9-104.34 42.9z m117.92-58.3c-27.7-37.26-70.84-59.14-117.92-59.14s-90.22 21.88-117.88 59.16c-19.24-25.06-30.7-56.36-30.7-90.3 0-81.94 66.66-148.6 148.58-148.6 81.94 0 148.6 66.66 148.6 148.6 0 33.94-11.46 65.24-30.68 90.28z" fill="#23130D" p-id="37004"></path><path d="M852.68 725.54c-26.86 26.5-63.7 42.9-104.34 42.9-40.62 0-77.46-16.4-104.32-42.9 23.76-34.28 62.22-54.54 104.32-54.54s80.56 20.26 104.34 54.54z" fill="#3594BF" p-id="37005"></path><path d="M748.34 471.26c-81.92 0-148.58 66.66-148.58 148.6 0 33.94 11.46 65.24 30.7 90.3 27.66-37.28 70.8-59.16 117.88-59.16s90.22 21.88 117.92 59.14c19.22-25.04 30.68-56.34 30.68-90.28 0-81.94-66.66-148.6-148.6-148.6z m0 175.34c-34.64 0-62.8-27.54-62.8-61.4s28.16-61.42 62.8-61.42 62.8 27.56 62.8 61.42-28.16 61.4-62.8 61.4z" fill="#E1E1E5" p-id="37006"></path><path d="M748.34 523.78c-34.64 0-62.8 27.56-62.8 61.42s28.16 61.4 62.8 61.4 62.8-27.54 62.8-61.4-28.16-61.42-62.8-61.42z m0 102.82c-23.6 0-42.8-18.58-42.8-41.4 0-22.84 19.2-41.42 42.8-41.42s42.8 18.58 42.8 41.42c0 22.82-19.2 41.4-42.8 41.4z" fill="#23130D" p-id="37007"></path><path d="M791.14 585.2c0 22.82-19.2 41.4-42.8 41.4s-42.8-18.58-42.8-41.4c0-22.84 19.2-41.42 42.8-41.42s42.8 18.58 42.8 41.42z" fill="#3594BF" p-id="37008"></path><path d="M669.52 725.54c24.02 23.7 56.02 39.32 91.58 42.34-4.2 0.38-8.46 0.56-12.76 0.56-40.62 0-77.46-16.4-104.32-42.9 23.76-34.28 62.22-54.54 104.32-54.54 4.3 0 8.56 0.22 12.76 0.62-37.04 3.66-70.24 23.14-91.58 53.92zM761.1 624.74c-4.04 1.2-8.32 1.86-12.76 1.86-23.6 0-42.8-18.58-42.8-41.4 0-22.84 19.2-41.42 42.8-41.42 4.44 0 8.72 0.66 12.76 1.88-17.4 5.24-30.06 20.98-30.06 39.54 0 18.54 12.66 34.28 30.06 39.54z" fill="#23130D" opacity=".2" p-id="37009"></path></svg>