<?xml version="1.0" standalone="no"?><!DOCTYPE svg PUBLIC "-//W3C//DTD SVG 1.1//EN" "http://www.w3.org/Graphics/SVG/1.1/DTD/svg11.dtd"><svg t="1625812037340" class="icon" viewBox="0 0 1024 1024" version="1.1" xmlns="http://www.w3.org/2000/svg" p-id="49686" xmlns:xlink="http://www.w3.org/1999/xlink" width="200" height="200"><defs><style type="text/css"></style></defs><path d="M816 209.56c-78.84-78.84-182.92-123.28-294-125.8v-34.6c0-5.52-4.48-10-10-10s-10 4.48-10 10v34.6c-111.1 2.52-215.16 46.96-294 125.8-81.2 81.2-125.92 189.16-125.92 304 0 5.52 4.48 10 10 10s10-4.48 10-10c0-51.84 42.62-94 94.98-94 52.38 0 94.98 42.16 94.98 94 0 5.52 4.48 10 10 10s10-4.48 10-10c0-51.84 42.62-94 94.98-94 52.38 0 94.98 42.16 94.98 94v15.52c-86.42 5.18-155.14 77.1-155.14 164.8s68.72 159.6 155.14 164.8v33.48c0 40.08-32.6 72.68-72.66 72.68-40.08 0-72.68-32.6-72.68-72.68 0-5.52-4.48-10-10-10s-10 4.48-10 10c0 51.1 41.58 92.68 92.68 92.68 51.08 0 92.66-41.58 92.66-92.68v-33.48c86.42-5.2 155.14-77.1 155.14-164.8s-68.72-159.62-155.14-164.8v-15.52c0-51.84 42.6-94 94.98-94 52.36 0 94.98 42.16 94.98 94 0 5.52 4.48 10 10 10 2.76 0 5.26-1.12 7.08-2.92 1.8-1.82 2.92-4.32 2.92-7.08 0-51.84 42.6-94 94.98-94s94.98 42.16 94.98 94c0 5.52 4.48 10 10 10s10-4.48 10-10c0-114.84-44.72-222.8-125.92-304z m-158.86 484.32c0 80.02-65.12 145.14-145.14 145.14s-145.14-65.12-145.14-145.14c0-80.04 65.12-145.14 145.14-145.14s145.14 65.1 145.14 145.14z m169.8-294.32c-46.74 0-87.02 27.8-104.98 67.58-17.96-39.78-58.24-67.58-104.98-67.58s-87.02 27.8-104.98 67.58c-17.96-39.78-58.24-67.58-104.98-67.58s-87.02 27.8-104.98 67.58c-17.96-39.78-58.24-67.58-104.98-67.58-35.56 0-67.42 16.1-88.52 41.34C142.92 249.4 310.76 103.64 512 103.64s369.08 145.76 403.46 337.26c-21.1-25.24-52.94-41.34-88.52-41.34z" fill="#23130D" p-id="49687"></path><path d="M523.84 703.92l25.16 25.16c-0.66-13.58-11.58-24.5-25.16-25.16zM512 548.74c-5.02 0-9.98 0.26-14.88 0.76a143.83 143.83 0 0 0-59 19.5c-10.12 6-19.44 13.2-27.78 21.4-8 7.84-15.08 16.6-21.1 26.12a142.1 142.1 0 0 0-8.46 15.42 143.176 143.176 0 0 0-13.26 48.16c-0.44 4.54-0.66 9.14-0.66 13.78 0 80.02 65.12 145.14 145.14 145.14 4.64 0 9.24-0.22 13.78-0.66 17.08-1.6 33.32-6.2 48.16-13.26 5.32-2.5 10.46-5.32 15.4-8.48 9.52-5.98 18.28-13.08 26.14-21.08 8.2-8.34 15.4-17.66 21.4-27.78a143.83 143.83 0 0 0 19.5-59c0.5-4.9 0.76-9.86 0.76-14.88 0-80.04-65.12-145.14-145.14-145.14z m47.04 82.08h-57.58c-0.5 0-1 0.02-1.48 0.04-13.2 0.74-23.86 11.14-24.96 24.24-0.06 0.74-0.1 1.5-0.1 2.26 0 14.62 11.9 26.52 26.54 26.52h21.08c25.64 0 46.5 20.88 46.5 46.52 0 5.6-1 10.96-2.8 15.92a46.806 46.806 0 0 1-21.98 25.22 45.788 45.788 0 0 1-18.6 5.28c-1.04 0.08-2.08 0.12-3.12 0.12h-0.56v31.02c0 5.52-4.46 10-10 10-5.52 0-10-4.48-10-10v-31.02h-37.06c-0.2 0-0.4 0-0.6-0.04a9.94 9.94 0 0 1-9.36-9.36c-0.04-0.2-0.04-0.4-0.04-0.6 0-5.54 4.48-10 10-10h46.98c0.02 0 0.06-0.02 0.08-0.02 0.04 0 0.08 0.02 0.1 0.02h10.46c2.18 0 4.3-0.26 6.34-0.78 11.56-2.84 20.16-13.3 20.16-25.76 0-0.44-0.02-0.88-0.04-1.32-0.66-13.58-11.58-24.5-25.16-25.16-0.44-0.02-0.86-0.04-1.3-0.04h-21.08c-25.66 0-46.54-20.88-46.54-46.52 0-6.58 1.38-12.84 3.86-18.52 4.78-11 13.68-19.8 24.76-24.42a46.16 46.16 0 0 1 17.92-3.6h0.52v-31.04c0-5.52 4.48-10 10-10 5.54 0 10 4.48 10 10v31.04h37.06c5.52 0 10 4.48 10 10 0 0.2 0 0.4-0.04 0.58a9.966 9.966 0 0 1-9.96 9.42z" fill="#F9C139" p-id="49688"></path><path d="M915.46 440.9c-21.1-25.24-52.94-41.34-88.52-41.34-46.74 0-87.02 27.8-104.98 67.58-17.96-39.78-58.24-67.58-104.98-67.58s-87.02 27.8-104.98 67.58c-17.96-39.78-58.24-67.58-104.98-67.58s-87.02 27.8-104.98 67.58c-17.96-39.78-58.24-67.58-104.98-67.58-35.56 0-67.42 16.1-88.52 41.34C142.92 249.4 310.76 103.64 512 103.64s369.08 145.76 403.46 337.26z" fill="#3594BF" p-id="49689"></path><path d="M512 558.74c74.516 0 135.14 60.624 135.14 135.14s-60.624 135.14-135.14 135.14-135.14-60.624-135.14-135.14 60.624-135.14 135.14-135.14m-20.02 42.874c-26.68 4.522-47.06 27.798-47.06 55.746 0 31.166 25.364 56.52 56.54 56.52h21.08c9.098 0 16.5 7.41 16.5 16.52 0 9.12-7.402 16.54-16.5 16.54h-9.928a9.528 9.528 0 0 0-0.632-0.02l-1.656 0.01-0.03 0.01H464.92c-11.028 0-20 8.972-20 20s8.972 20 20 20h27.06v21.02c0 11.028 8.972 20 20 20s20-8.972 20-20v-21.81c26.676-4.508 47.06-27.792 47.06-55.75 0-31.166-25.346-56.52-56.5-56.52h-21.08c-9.12 0-16.54-7.41-16.54-16.52 0-9.12 7.42-16.54 16.54-16.54h57.58c11.028 0 20-8.972 20-20s-8.972-20-20-20h-27.06v-21.04c0-11.028-8.972-20-20-20s-20 8.972-20 20v21.834M512 548.74c-80.02 0-145.14 65.1-145.14 145.14 0 80.02 65.12 145.14 145.14 145.14s145.14-65.12 145.14-145.14c0-80.04-65.12-145.14-145.14-145.14z m-10.54 155.14c-25.66 0-46.54-20.88-46.54-46.52 0-25.66 20.88-46.54 46.54-46.54h0.52v-31.04c0-5.52 4.48-10 10-10 5.54 0 10 4.48 10 10v31.04h37.06c5.52 0 10 4.48 10 10s-4.48 10-10 10h-57.58c-14.64 0-26.54 11.9-26.54 26.54 0 14.62 11.9 26.52 26.54 26.52h21.08c25.64 0 46.5 20.88 46.5 46.52 0 25.66-20.86 46.54-46.5 46.54h-0.56v31.02c0 5.52-4.46 10-10 10-5.52 0-10-4.48-10-10v-31.02h-37.06c-5.52 0-10-4.48-10-10 0-5.54 4.48-10 10-10h46.98c0.02 0 0.06-0.02 0.08-0.02 0.04 0 0.08 0.02 0.1 0.02h10.46c14.62 0 26.5-11.9 26.5-26.54 0-14.62-11.88-26.52-26.5-26.52h-21.08zM512 113.64c48.006 0 94.976 8.456 139.604 25.134 43.114 16.112 82.896 39.434 118.242 69.32 63.182 53.418 108.266 125.03 129.044 204.11-20.846-14.616-45.858-22.644-71.95-22.644-42.736 0-82.168 21.796-104.98 56.81-22.812-35.014-62.244-56.81-104.98-56.81-42.736 0-82.168 21.796-104.98 56.81-22.812-35.014-62.244-56.81-104.98-56.81s-82.168 21.796-104.98 56.81c-22.812-35.014-62.244-56.81-104.98-56.81-26.092 0-51.104 8.03-71.95 22.644 20.78-79.08 65.862-150.692 129.044-204.11 35.346-29.884 75.13-53.208 118.242-69.32C417.024 122.096 463.994 113.64 512 113.64m0-10c-201.24 0-369.08 145.76-403.46 337.26 21.1-25.24 52.96-41.34 88.52-41.34 46.74 0 87.02 27.8 104.98 67.58 17.96-39.78 58.24-67.58 104.98-67.58s87.02 27.8 104.98 67.58c17.96-39.78 58.24-67.58 104.98-67.58s87.02 27.8 104.98 67.58c17.96-39.78 58.24-67.58 104.98-67.58 35.58 0 67.42 16.1 88.52 41.34C881.08 249.4 713.24 103.64 512 103.64z" opacity=".2" p-id="49690"></path><path d="M569.04 730.4c0 25.66-20.86 46.54-46.5 46.54h-0.56v31.02c0 5.52-4.46 10-10 10-5.52 0-10-4.48-10-10v-31.02h-37.06c-5.52 0-10-4.48-10-10 0-5.54 4.48-10 10-10h46.98c0.02 0 0.06-0.02 0.08-0.02 0.04 0 0.08 0.02 0.1 0.02h10.46c14.62 0 26.5-11.9 26.5-26.54 0-14.62-11.88-26.52-26.5-26.52h-21.08c-25.66 0-46.54-20.88-46.54-46.52 0-25.66 20.88-46.54 46.54-46.54h0.52v-31.04c0-5.52 4.48-10 10-10 5.54 0 10 4.48 10 10v31.04h37.06c5.52 0 10 4.48 10 10s-4.48 10-10 10h-57.58c-14.64 0-26.54 11.9-26.54 26.54 0 14.62 11.9 26.52 26.54 26.52h21.08c25.64 0 46.5 20.88 46.5 46.52zM325.438 597.708a9.998 9.998 0 0 0 13.66-3.66 9.998 9.998 0 0 0-3.66-13.66l-34.782-20.08a9.996 9.996 0 0 0-13.66 3.66 9.998 9.998 0 0 0 3.66 13.66l34.782 20.08zM312.35 693.876a10 10 0 0 0-10-10h-40.164a10 10 0 1 0 0 20h40.164a10 10 0 0 0 10-10zM339.098 793.702a9.998 9.998 0 0 0-13.66-3.66l-34.782 20.08a9.998 9.998 0 0 0 5.01 18.662c1.696 0 3.416-0.432 4.99-1.342l34.782-20.08a10 10 0 0 0 3.66-13.66zM733.348 810.126l-34.784-20.086a9.996 9.996 0 0 0-13.66 3.66 10 10 0 0 0 3.66 13.66l34.784 20.086a9.992 9.992 0 0 0 13.66-3.66 10 10 0 0 0-3.66-13.66zM761.818 683.878l-40.168-0.004a10 10 0 1 0 0 20l40.164 0.004h0.002a10 10 0 0 0 0.002-20zM693.574 599.05c1.696 0 3.416-0.432 4.99-1.342l34.786-20.08a9.998 9.998 0 0 0 3.66-13.66 9.992 9.992 0 0 0-13.66-3.66l-34.786 20.08a9.998 9.998 0 0 0-3.66 13.66 9.992 9.992 0 0 0 8.67 5.002z" fill="#23130D" p-id="49691"></path><path d="M403.658 128.86a12 12 0 0 0 12-12c0-0.588-0.056-1.162-0.138-1.728a405.872 405.872 0 0 0-22.966 6.27 11.996 11.996 0 0 0 11.104 7.458zM458.07 128.86a12 12 0 0 0 12-12 11.986 11.986 0 0 0-6.054-10.414c-4.846 0.568-9.666 1.224-14.46 1.96a12 12 0 0 0 8.514 20.454z" opacity=".1" p-id="49692"></path><path d="M512.484 116.86m-12 0a12 12 0 1 0 24 0 12 12 0 1 0-24 0Z" opacity=".1" p-id="49693"></path><path d="M554.898 116.86a12 12 0 1 0 24 0 11.946 11.946 0 0 0-3.336-8.288 407.976 407.976 0 0 0-14.774-2.026 11.976 11.976 0 0 0-5.89 10.314zM621.31 128.86a11.996 11.996 0 0 0 10.99-7.192 407.332 407.332 0 0 0-22.886-6.312 12.046 12.046 0 0 0-0.104 1.504 12 12 0 0 0 12 12zM332.084 145.296a408.644 408.644 0 0 0-16.056 8.32c1.366 0.54 2.848 0.846 4.406 0.846a11.992 11.992 0 0 0 11.65-9.166z" opacity=".1" p-id="49694"></path><path d="M374.848 142.464m-12 0a12 12 0 1 0 24 0 12 12 0 1 0-24 0Z" opacity=".1" p-id="49695"></path><path d="M429.26 142.464m-12 0a12 12 0 1 0 24 0 12 12 0 1 0-24 0Z" opacity=".1" p-id="49696"></path><path d="M483.674 142.464m-12 0a12 12 0 1 0 24 0 12 12 0 1 0-24 0Z" opacity=".1" p-id="49697"></path><path d="M538.088 142.464m-12 0a12 12 0 1 0 24 0 12 12 0 1 0-24 0Z" opacity=".1" p-id="49698"></path><path d="M592.5 142.464m-12 0a12 12 0 1 0 24 0 12 12 0 1 0-24 0Z" opacity=".1" p-id="49699"></path><path d="M646.914 142.464m-12 0a12 12 0 1 0 24 0 12 12 0 1 0-24 0Z" opacity=".1" p-id="49700"></path><path d="M701.328 154.464a11.942 11.942 0 0 0 5.624-1.402 410.504 410.504 0 0 0-17.502-8.974 11.994 11.994 0 0 0 11.878 10.376zM291.624 180.066a12 12 0 0 0 12-12 11.932 11.932 0 0 0-1.806-6.31 411.3 411.3 0 0 0-20.204 12.92 11.98 11.98 0 0 0 10.01 5.39z" opacity=".1" p-id="49701"></path><path d="M346.038 168.066m-12 0a12 12 0 1 0 24 0 12 12 0 1 0-24 0Z" opacity=".1" p-id="49702"></path><path d="M400.45 168.066m-12 0a12 12 0 1 0 24 0 12 12 0 1 0-24 0Z" opacity=".1" p-id="49703"></path><path d="M454.864 168.066m-12 0a12 12 0 1 0 24 0 12 12 0 1 0-24 0Z" opacity=".1" p-id="49704"></path><path d="M509.278 168.066m-12 0a12 12 0 1 0 24 0 12 12 0 1 0-24 0Z" opacity=".1" p-id="49705"></path><path d="M563.69 168.066m-12 0a12 12 0 1 0 24 0 12 12 0 1 0-24 0Z" opacity=".1" p-id="49706"></path><path d="M618.104 168.066m-12 0a12 12 0 1 0 24 0 12 12 0 1 0-24 0Z" opacity=".1" p-id="49707"></path><path d="M672.518 168.066m-12 0a12 12 0 1 0 24 0 12 12 0 1 0-24 0Z" opacity=".1" p-id="49708"></path><path d="M714.93 168.066a12 12 0 0 0 12 12 12 12 0 0 0 11.354-8.14 411.14 411.14 0 0 0-19.8-12.382 11.966 11.966 0 0 0-3.554 8.522zM262.814 205.67a12 12 0 0 0 12-12 11.98 11.98 0 0 0-5.646-10.166 410.992 410.992 0 0 0-17.76 13.884 12 12 0 0 0 11.406 8.282z" opacity=".1" p-id="49709"></path><path d="M317.228 193.67m-12 0a12 12 0 1 0 24 0 12 12 0 1 0-24 0Z" opacity=".1" p-id="49710"></path><path d="M371.64 193.67m-12 0a12 12 0 1 0 24 0 12 12 0 1 0-24 0Z" opacity=".1" p-id="49711"></path><path d="M426.054 193.67m-12 0a12 12 0 1 0 24 0 12 12 0 1 0-24 0Z" opacity=".1" p-id="49712"></path><path d="M480.468 193.67m-12 0a12 12 0 1 0 24 0 12 12 0 1 0-24 0Z" opacity=".1" p-id="49713"></path><path d="M534.88 193.67m-12 0a12 12 0 1 0 24 0 12 12 0 1 0-24 0Z" opacity=".1" p-id="49714"></path><path d="M589.294 193.67m-12 0a12 12 0 1 0 24 0 12 12 0 1 0-24 0Z" opacity=".1" p-id="49715"></path><path d="M643.708 193.67m-12 0a12 12 0 1 0 24 0 12 12 0 1 0-24 0Z" opacity=".1" p-id="49716"></path><path d="M698.12 193.67m-12 0a12 12 0 1 0 24 0 12 12 0 1 0-24 0Z" opacity=".1" p-id="49717"></path><path d="M740.534 193.67a12 12 0 1 0 24 0 11.98 11.98 0 0 0-0.422-3.108 408.168 408.168 0 0 0-11.794-8.88 11.994 11.994 0 0 0-11.784 11.988zM234.004 231.274a12 12 0 0 0 4.762-23.014 413.112 413.112 0 0 0-16.022 15.128 11.99 11.99 0 0 0 11.26 7.886z" opacity=".1" p-id="49718"></path><path d="M288.418 219.274m-12 0a12 12 0 1 0 24 0 12 12 0 1 0-24 0Z" opacity=".1" p-id="49719"></path><path d="M342.83 219.274m-12 0a12 12 0 1 0 24 0 12 12 0 1 0-24 0Z" opacity=".1" p-id="49720"></path><path d="M397.244 219.274m-12 0a12 12 0 1 0 24 0 12 12 0 1 0-24 0Z" opacity=".1" p-id="49721"></path><path d="M451.658 219.274m-12 0a12 12 0 1 0 24 0 12 12 0 1 0-24 0Z" opacity=".1" p-id="49722"></path><path d="M506.07 219.274m-12 0a12 12 0 1 0 24 0 12 12 0 1 0-24 0Z" opacity=".1" p-id="49723"></path><path d="M560.484 219.274m-12 0a12 12 0 1 0 24 0 12 12 0 1 0-24 0Z" opacity=".1" p-id="49724"></path><path d="M614.898 219.274m-12 0a12 12 0 1 0 24 0 12 12 0 1 0-24 0Z" opacity=".1" p-id="49725"></path><path d="M669.31 219.274m-12 0a12 12 0 1 0 24 0 12 12 0 1 0-24 0Z" opacity=".1" p-id="49726"></path><path d="M723.724 219.274m-12 0a12 12 0 1 0 24 0 12 12 0 1 0-24 0Z" opacity=".1" p-id="49727"></path><path d="M778.136 219.274m-12 0a12 12 0 1 0 24 0 12 12 0 1 0-24 0Z" opacity=".1" p-id="49728"></path><path d="M205.194 256.876a12 12 0 0 0 12-12 11.98 11.98 0 0 0-5.47-10.06 413.29 413.29 0 0 0-15.648 17.85 11.966 11.966 0 0 0 9.118 4.21z" opacity=".1" p-id="49729"></path><path d="M259.608 244.876m-12 0a12 12 0 1 0 24 0 12 12 0 1 0-24 0Z" opacity=".1" p-id="49730"></path><path d="M314.02 244.876m-12 0a12 12 0 1 0 24 0 12 12 0 1 0-24 0Z" opacity=".1" p-id="49731"></path><path d="M368.434 244.876m-12 0a12 12 0 1 0 24 0 12 12 0 1 0-24 0Z" opacity=".1" p-id="49732"></path><path d="M422.848 244.876m-12 0a12 12 0 1 0 24 0 12 12 0 1 0-24 0Z" opacity=".1" p-id="49733"></path><path d="M477.26 244.876m-12 0a12 12 0 1 0 24 0 12 12 0 1 0-24 0Z" opacity=".1" p-id="49734"></path><path d="M531.674 244.876m-12 0a12 12 0 1 0 24 0 12 12 0 1 0-24 0Z" opacity=".1" p-id="49735"></path><path d="M586.088 244.876m-12 0a12 12 0 1 0 24 0 12 12 0 1 0-24 0Z" opacity=".1" p-id="49736"></path><path d="M640.5 244.876m-12 0a12 12 0 1 0 24 0 12 12 0 1 0-24 0Z" opacity=".1" p-id="49737"></path><path d="M694.914 244.876m-12 0a12 12 0 1 0 24 0 12 12 0 1 0-24 0Z" opacity=".1" p-id="49738"></path><path d="M749.328 244.876m-12 0a12 12 0 1 0 24 0 12 12 0 1 0-24 0Z" opacity=".1" p-id="49739"></path><path d="M803.74 244.876m-12 0a12 12 0 1 0 24 0 12 12 0 1 0-24 0Z" opacity=".1" p-id="49740"></path><path d="M188.384 270.48a11.922 11.922 0 0 0-1.672-6.088 411.434 411.434 0 0 0-12.91 17.802 12 12 0 0 0 14.582-11.714z" opacity=".1" p-id="49741"></path><path d="M230.798 270.48m-12 0a12 12 0 1 0 24 0 12 12 0 1 0-24 0Z" opacity=".1" p-id="49742"></path><path d="M285.21 270.48m-12 0a12 12 0 1 0 24 0 12 12 0 1 0-24 0Z" opacity=".1" p-id="49743"></path><path d="M339.624 270.48m-12 0a12 12 0 1 0 24 0 12 12 0 1 0-24 0Z" opacity=".1" p-id="49744"></path><path d="M394.038 270.48m-12 0a12 12 0 1 0 24 0 12 12 0 1 0-24 0Z" opacity=".1" p-id="49745"></path><path d="M448.45 270.48m-12 0a12 12 0 1 0 24 0 12 12 0 1 0-24 0Z" opacity=".1" p-id="49746"></path><path d="M502.864 270.48m-12 0a12 12 0 1 0 24 0 12 12 0 1 0-24 0Z" opacity=".1" p-id="49747"></path><path d="M557.278 270.48m-12 0a12 12 0 1 0 24 0 12 12 0 1 0-24 0Z" opacity=".1" p-id="49748"></path><path d="M611.69 270.48m-12 0a12 12 0 1 0 24 0 12 12 0 1 0-24 0Z" opacity=".1" p-id="49749"></path><path d="M666.104 270.48m-12 0a12 12 0 1 0 24 0 12 12 0 1 0-24 0Z" opacity=".1" p-id="49750"></path><path d="M720.518 270.48m-12 0a12 12 0 1 0 24 0 12 12 0 1 0-24 0Z" opacity=".1" p-id="49751"></path><path d="M774.93 270.48m-12 0a12 12 0 1 0 24 0 12 12 0 1 0-24 0Z" opacity=".1" p-id="49752"></path><path d="M817.344 270.48a12 12 0 1 0 24 0c0-0.256-0.022-0.508-0.038-0.762a412.534 412.534 0 0 0-8.162-10.614 11.944 11.944 0 0 0-3.798-0.624 12 12 0 0 0-12.002 12z" opacity=".1" p-id="49753"></path><path d="M201.988 296.084m-12 0a12 12 0 1 0 24 0 12 12 0 1 0-24 0Z" opacity=".1" p-id="49754"></path><path d="M256.4 296.084m-12 0a12 12 0 1 0 24 0 12 12 0 1 0-24 0Z" opacity=".1" p-id="49755"></path><path d="M310.814 296.084m-12 0a12 12 0 1 0 24 0 12 12 0 1 0-24 0Z" opacity=".1" p-id="49756"></path><path d="M365.228 296.084m-12 0a12 12 0 1 0 24 0 12 12 0 1 0-24 0Z" opacity=".1" p-id="49757"></path><path d="M419.64 296.084m-12 0a12 12 0 1 0 24 0 12 12 0 1 0-24 0Z" opacity=".1" p-id="49758"></path><path d="M474.054 296.084m-12 0a12 12 0 1 0 24 0 12 12 0 1 0-24 0Z" opacity=".1" p-id="49759"></path><path d="M528.468 296.084m-12 0a12 12 0 1 0 24 0 12 12 0 1 0-24 0Z" opacity=".1" p-id="49760"></path><path d="M582.88 296.084m-12 0a12 12 0 1 0 24 0 12 12 0 1 0-24 0Z" opacity=".1" p-id="49761"></path><path d="M637.294 296.084m-12 0a12 12 0 1 0 24 0 12 12 0 1 0-24 0Z" opacity=".1" p-id="49762"></path><path d="M691.708 296.084m-12 0a12 12 0 1 0 24 0 12 12 0 1 0-24 0Z" opacity=".1" p-id="49763"></path><path d="M746.12 296.084m-12 0a12 12 0 1 0 24 0 12 12 0 1 0-24 0Z" opacity=".1" p-id="49764"></path><path d="M800.534 296.084m-12 0a12 12 0 1 0 24 0 12 12 0 1 0-24 0Z" opacity=".1" p-id="49765"></path><path d="M842.948 296.084a12 12 0 0 0 12 12 11.972 11.972 0 0 0 9.136-4.23 412.14 412.14 0 0 0-12.284-19.338 11.99 11.99 0 0 0-8.852 11.568z" opacity=".1" p-id="49766"></path><path d="M173.178 321.686m-12 0a12 12 0 1 0 24 0 12 12 0 1 0-24 0Z" opacity=".1" p-id="49767"></path><path d="M227.59 321.686m-12 0a12 12 0 1 0 24 0 12 12 0 1 0-24 0Z" opacity=".1" p-id="49768"></path><path d="M282.004 321.686m-12 0a12 12 0 1 0 24 0 12 12 0 1 0-24 0Z" opacity=".1" p-id="49769"></path><path d="M336.418 321.686m-12 0a12 12 0 1 0 24 0 12 12 0 1 0-24 0Z" opacity=".1" p-id="49770"></path><path d="M390.83 321.686m-12 0a12 12 0 1 0 24 0 12 12 0 1 0-24 0Z" opacity=".1" p-id="49771"></path><path d="M445.244 321.686m-12 0a12 12 0 1 0 24 0 12 12 0 1 0-24 0Z" opacity=".1" p-id="49772"></path><path d="M499.658 321.686m-12 0a12 12 0 1 0 24 0 12 12 0 1 0-24 0Z" opacity=".1" p-id="49773"></path><path d="M554.07 321.686m-12 0a12 12 0 1 0 24 0 12 12 0 1 0-24 0Z" opacity=".1" p-id="49774"></path><path d="M608.484 321.686m-12 0a12 12 0 1 0 24 0 12 12 0 1 0-24 0Z" opacity=".1" p-id="49775"></path><path d="M662.898 321.686m-12 0a12 12 0 1 0 24 0 12 12 0 1 0-24 0Z" opacity=".1" p-id="49776"></path><path d="M717.31 321.686m-12 0a12 12 0 1 0 24 0 12 12 0 1 0-24 0Z" opacity=".1" p-id="49777"></path><path d="M771.724 321.686m-12 0a12 12 0 1 0 24 0 12 12 0 1 0-24 0Z" opacity=".1" p-id="49778"></path><path d="M826.136 321.686m-12 0a12 12 0 1 0 24 0 12 12 0 1 0-24 0Z" opacity=".1" p-id="49779"></path><path d="M880.274 333.672a408.936 408.936 0 0 0-9.714-18.632 11.992 11.992 0 0 0 9.714 18.632zM144.368 359.29a12 12 0 1 0 0-24c-0.502 0-0.992 0.04-1.478 0.1a407.956 407.956 0 0 0-8.468 18.616 11.988 11.988 0 0 0 9.946 5.284z" opacity=".1" p-id="49780"></path><path d="M198.78 347.29m-12 0a12 12 0 1 0 24 0 12 12 0 1 0-24 0Z" opacity=".1" p-id="49781"></path><path d="M253.194 347.29m-12 0a12 12 0 1 0 24 0 12 12 0 1 0-24 0Z" opacity=".1" p-id="49782"></path><path d="M307.608 347.29m-12 0a12 12 0 1 0 24 0 12 12 0 1 0-24 0Z" opacity=".1" p-id="49783"></path><path d="M362.02 347.29m-12 0a12 12 0 1 0 24 0 12 12 0 1 0-24 0Z" opacity=".1" p-id="49784"></path><path d="M416.434 347.29m-12 0a12 12 0 1 0 24 0 12 12 0 1 0-24 0Z" opacity=".1" p-id="49785"></path><path d="M470.848 347.29m-12 0a12 12 0 1 0 24 0 12 12 0 1 0-24 0Z" opacity=".1" p-id="49786"></path><path d="M525.26 347.29m-12 0a12 12 0 1 0 24 0 12 12 0 1 0-24 0Z" opacity=".1" p-id="49787"></path><path d="M579.674 347.29m-12 0a12 12 0 1 0 24 0 12 12 0 1 0-24 0Z" opacity=".1" p-id="49788"></path><path d="M634.088 347.29m-12 0a12 12 0 1 0 24 0 12 12 0 1 0-24 0Z" opacity=".1" p-id="49789"></path><path d="M688.5 347.29m-12 0a12 12 0 1 0 24 0 12 12 0 1 0-24 0Z" opacity=".1" p-id="49790"></path><path d="M742.914 347.29m-12 0a12 12 0 1 0 24 0 12 12 0 1 0-24 0Z" opacity=".1" p-id="49791"></path><path d="M797.328 347.29m-12 0a12 12 0 1 0 24 0 12 12 0 1 0-24 0Z" opacity=".1" p-id="49792"></path><path d="M851.74 347.29m-12 0a12 12 0 1 0 24 0 12 12 0 1 0-24 0Z" opacity=".1" p-id="49793"></path><path d="M127.558 372.894c0-0.474-0.034-0.94-0.088-1.4a407.26 407.26 0 0 0-3.538 9.986 11.96 11.96 0 0 0 3.626-8.586z" opacity=".1" p-id="49794"></path><path d="M169.97 372.894m-12 0a12 12 0 1 0 24 0 12 12 0 1 0-24 0Z" opacity=".1" p-id="49795"></path><path d="M224.384 372.894m-12 0a12 12 0 1 0 24 0 12 12 0 1 0-24 0Z" opacity=".1" p-id="49796"></path><path d="M278.798 372.894m-12 0a12 12 0 1 0 24 0 12 12 0 1 0-24 0Z" opacity=".1" p-id="49797"></path><path d="M333.21 372.894m-12 0a12 12 0 1 0 24 0 12 12 0 1 0-24 0Z" opacity=".1" p-id="49798"></path><path d="M387.624 372.894m-12 0a12 12 0 1 0 24 0 12 12 0 1 0-24 0Z" opacity=".1" p-id="49799"></path><path d="M442.038 372.894m-12 0a12 12 0 1 0 24 0 12 12 0 1 0-24 0Z" opacity=".1" p-id="49800"></path><path d="M496.45 372.894m-12 0a12 12 0 1 0 24 0 12 12 0 1 0-24 0Z" opacity=".1" p-id="49801"></path><path d="M550.864 372.894m-12 0a12 12 0 1 0 24 0 12 12 0 1 0-24 0Z" opacity=".1" p-id="49802"></path><path d="M605.278 372.894m-12 0a12 12 0 1 0 24 0 12 12 0 1 0-24 0Z" opacity=".1" p-id="49803"></path><path d="M659.69 372.894m-12 0a12 12 0 1 0 24 0 12 12 0 1 0-24 0Z" opacity=".1" p-id="49804"></path><path d="M714.104 372.894m-12 0a12 12 0 1 0 24 0 12 12 0 1 0-24 0Z" opacity=".1" p-id="49805"></path><path d="M768.518 372.894m-12 0a12 12 0 1 0 24 0 12 12 0 1 0-24 0Z" opacity=".1" p-id="49806"></path><path d="M822.93 372.894m-12 0a12 12 0 1 0 24 0 12 12 0 1 0-24 0Z" opacity=".1" p-id="49807"></path><path d="M877.344 372.894m-12 0a12 12 0 1 0 24 0 12 12 0 1 0-24 0Z" opacity=".1" p-id="49808"></path><path d="M141.16 398.496m-12 0a12 12 0 1 0 24 0 12 12 0 1 0-24 0Z" opacity=".1" p-id="49809"></path><path d="M195.574 386.496a12 12 0 0 0-12 12c0 0.624 0.062 1.232 0.154 1.83a116.476 116.476 0 0 1 13.332-0.768c3.508 0 6.974 0.176 10.404 0.482 0.066-0.508 0.11-1.02 0.11-1.546a12 12 0 0 0-12-11.998z" opacity=".1" p-id="49810"></path><path d="M249.988 398.496m-12 0a12 12 0 1 0 24 0 12 12 0 1 0-24 0Z" opacity=".1" p-id="49811"></path><path d="M304.4 398.496m-12 0a12 12 0 1 0 24 0 12 12 0 1 0-24 0Z" opacity=".1" p-id="49812"></path><path d="M358.814 386.496a12 12 0 0 0-12 12 11.99 11.99 0 0 0 11.182 11.958 114.72 114.72 0 0 1 9.83-4.052 11.934 11.934 0 0 0 2.988-7.906 12 12 0 0 0-12-12zM413.228 386.496a12 12 0 0 0-11.938 13.22c1.9-0.094 3.808-0.158 5.73-0.158 6.108 0 12.1 0.486 17.952 1.4a12 12 0 0 0-11.744-14.462z" opacity=".1" p-id="49813"></path><path d="M467.64 398.496m-12 0a12 12 0 1 0 24 0 12 12 0 1 0-24 0Z" opacity=".1" p-id="49814"></path><path d="M522.054 398.496m-12 0a12 12 0 1 0 24 0 12 12 0 1 0-24 0Z" opacity=".1" p-id="49815"></path><path d="M576.468 386.496a12 12 0 0 0-12 12 11.992 11.992 0 0 0 6.448 10.632 114.6 114.6 0 0 1 16.506-5.75 11.948 11.948 0 0 0 1.046-4.884 12 12 0 0 0-12-11.998zM630.88 386.496a12 12 0 0 0-12 12c0 0.372 0.022 0.736 0.056 1.1 7.99 0.134 15.788 1.062 23.306 2.742 0.408-1.208 0.64-2.496 0.64-3.84a12.004 12.004 0 0 0-12.002-12.002z" opacity=".1" p-id="49816"></path><path d="M685.294 398.496m-12 0a12 12 0 1 0 24 0 12 12 0 1 0-24 0Z" opacity=".1" p-id="49817"></path><path d="M739.708 398.496m-12 0a12 12 0 1 0 24 0 12 12 0 1 0-24 0Z" opacity=".1" p-id="49818"></path><path d="M794.12 386.496a12 12 0 0 0-12 12c0 3.386 1.408 6.438 3.664 8.62a114.53 114.53 0 0 1 19.94-5.608c0.25-0.964 0.396-1.97 0.396-3.012a12 12 0 0 0-12-12zM848.534 386.496a12 12 0 0 0-12 12c0 0.514 0.042 1.016 0.106 1.512a115.076 115.076 0 0 1 22.496 4.104 12 12 0 0 0-10.602-17.616zM890.948 398.496a12 12 0 0 0 12 12c1.974 0 3.83-0.486 5.472-1.328a405.332 405.332 0 0 0-6.656-22.612 12 12 0 0 0-10.816 11.94zM114.752 412.342a406.88 406.88 0 0 0-5.228 23.41c0.908 0.22 1.852 0.348 2.828 0.348 0.158 0 0.31-0.018 0.466-0.024a115.38 115.38 0 0 1 11.456-10.642 12.006 12.006 0 0 0-9.522-13.092zM287.59 424.1a11.996 11.996 0 1 0-23.57-3.142 115.566 115.566 0 0 1 16.338 14.152 11.994 11.994 0 0 0 7.232-11.01zM330.004 412.1a12 12 0 0 0-5.8 22.502 115.528 115.528 0 0 1 17.1-14.51 11.996 11.996 0 0 0-11.3-7.992zM505.244 424.1a12 12 0 1 0-24 0c0 0.962 0.126 1.894 0.34 2.79a115.224 115.224 0 0 1 9.482 9.004c0.708 0.13 1.434 0.208 2.178 0.208a12.002 12.002 0 0 0 12-12.002zM547.658 412.1a12 12 0 0 0-12 12c0 2.558 0.806 4.924 2.17 6.872a115.618 115.618 0 0 1 19.05-14.548 11.972 11.972 0 0 0-9.22-4.324z" opacity=".1" p-id="49819"></path><path d="M710.898 424.1m-12 0a12 12 0 1 0 24 0 12 12 0 1 0-24 0Z" opacity=".1" p-id="49820"></path><path d="M753.31 424.1c0 0.636 0.064 1.254 0.158 1.862a115.566 115.566 0 0 1 17.942-12.182 11.928 11.928 0 0 0-6.1-1.68 12 12 0 0 0-12 12zM301.194 437.704a12.004 12.004 0 0 0-11.472 8.476 114.496 114.496 0 0 1 9.582 15.36c0.618 0.098 1.246 0.164 1.89 0.164a11.98 11.98 0 0 0 3.826-0.634 114.074 114.074 0 0 1 8.038-13.074 11.99 11.99 0 0 0-11.864-10.292zM518.848 437.704a11.996 11.996 0 1 0-3.86 23.354 114.398 114.398 0 0 1 12.816-19.32 11.956 11.956 0 0 0-8.956-4.034zM724.5 449.704c0 2.814 0.976 5.396 2.598 7.442a114.69 114.69 0 0 1 13.484-18.716 11.956 11.956 0 0 0-4.082-0.728 12.004 12.004 0 0 0-12 12.002z" opacity=".1" p-id="49821"></path><path d="M454.92 766.94c0 0.2 0 0.4 0.04 0.6l-87.44-87.44c1.6-17.08 6.2-33.3 13.26-48.16l125 125h-40.86c-5.52 0-10 4.46-10 10zM573.94 825.1a143.048 143.048 0 0 1-48.16 13.26l-61.46-61.46c0.2 0.04 0.4 0.04 0.6 0.04h37.06v31.02c0 5.52 4.48 10 10 10 5.54 0 10-4.48 10-10v-31.02h0.56c1.04 0 2.08-0.04 3.12-0.12l48.28 48.28zM474.92 657.36c0-0.76 0.04-1.52 0.1-2.26l28.8 28.78h-2.36c-14.64 0-26.54-11.9-26.54-26.52z" fill="#FFFFFF" opacity=".4" p-id="49822"></path><path d="M549.04 730.4c0 12.46-8.6 22.92-20.16 25.76l-139.64-139.64a145.26 145.26 0 0 1 21.1-26.12l48.44 48.44a46.16 46.16 0 0 0-3.86 18.52c0 25.64 20.88 46.52 46.54 46.52h21.08c0.44 0 0.86 0.02 1.3 0.04l25.16 25.16c0.02 0.44 0.04 0.88 0.04 1.32zM615.48 795.54c-7.86 8-16.62 15.1-26.14 21.08l-45.08-45.08c10.1-5.36 18.02-14.36 21.98-25.22l49.24 49.22zM501.46 610.82c-6.34 0-12.4 1.28-17.92 3.6l-45.42-45.42a143.83 143.83 0 0 1 59-19.5l61.32 61.32h-36.46v-31.04c0-5.52-4.46-10-10-10-5.52 0-10 4.48-10 10v31.04h-0.52zM656.38 708.76a143.83 143.83 0 0 1-19.5 59l-136.9-136.9c0.48-0.02 0.98-0.04 1.48-0.04h57.58c5.32 0 9.68-4.16 9.96-9.42l87.38 87.36z" fill="#FFFFFF" opacity=".4" p-id="49823"></path><path d="M630.88 703.87a10 10 0 0 1-10-10c0-59.342-48.28-107.62-107.622-107.62a10 10 0 1 1 0-20c70.372 0 127.622 57.25 127.622 127.62a10 10 0 0 1-10 10z" fill="#FFFFFF" opacity=".8" p-id="49824"></path></svg>