<?xml version="1.0" standalone="no"?><!DOCTYPE svg PUBLIC "-//W3C//DTD SVG 1.1//EN" "http://www.w3.org/Graphics/SVG/1.1/DTD/svg11.dtd"><svg t="1625811923660" class="icon" viewBox="0 0 1024 1024" version="1.1" xmlns="http://www.w3.org/2000/svg" p-id="44325" xmlns:xlink="http://www.w3.org/1999/xlink" width="200" height="200"><defs><style type="text/css"></style></defs><path d="M820.74 619.52l-162.72-162.7c-8.12-8.14-18.94-12.62-30.44-12.62s-22.32 4.48-30.46 12.62c-12.34 12.34-15.58 30.38-9.74 45.76l-112.24 18.18c-2.92 0.48-5.74 1.26-8.44 2.3l-29.78-8.94c4.08-6.94 6.2-14.88 6-23.14a43.374 43.374 0 0 0-13.54-30.5c-8.14-7.72-18.8-12-30.02-12-12.06 0-23.28 4.82-31.6 13.56l-161.1 169.4c-8.04 8.42-12.3 19.48-12 31.12 0.28 11.64 5.1 22.48 13.54 30.5 8.12 7.74 18.78 12 30.02 12 4.18 0 8.3-0.62 12.26-1.78-0.82 16.34 5.18 32.92 17.92 45.02l17.96 17.34-7.16 7.16a44.842 44.842 0 0 0-13.18 31.88c0 12.08 4.7 23.42 13.24 31.94 8.8 8.82 20.38 13.22 31.94 13.22 1.62 0 3.24-0.12 4.84-0.28-0.16 1.6-0.28 3.22-0.28 4.86 0 12.06 4.7 23.42 13.24 31.94 8.8 8.8 20.36 13.22 31.94 13.22 1.62 0 3.24-0.12 4.84-0.28-0.16 1.6-0.28 3.22-0.28 4.86 0 12.06 4.7 23.42 13.24 31.94 8.8 8.82 20.36 13.22 31.94 13.22 1.62 0 3.22-0.12 4.84-0.28-0.18 1.6-0.28 3.22-0.28 4.86 0 12.08 4.7 23.42 13.22 31.94 8.54 8.54 19.88 13.24 31.96 13.24 12.04 0 23.36-4.7 31.88-13.2 0.02-0.02 0.04-0.02 0.06-0.04l9.98-9.98 6.98 6.64c0.32 0.28 0.64 0.5 0.98 0.76 8.82 7.56 19.72 11.38 30.64 11.38 12.48 0 24.94-4.9 34.2-14.64 8.44-8.88 12.68-20.2 12.9-31.58 4.76 1.56 9.72 2.38 14.66 2.38 12.48 0 24.94-4.92 34.2-14.64 8.28-8.72 12.52-19.8 12.88-30.98a49.6 49.6 0 0 0 16.74 2.94c12.52 0 24.92-4.72 33.88-14.14 7.76-8.14 12.12-18.72 12.54-30.14 5.66 2.28 11.66 3.44 17.66 3.44 12.48 0 24.94-4.9 34.18-14.64 8.7-9.12 13.3-21.08 12.98-33.68a46.76 46.76 0 0 0-14.58-32.94l-25.44-24.62 2.74-2.74c0-0.02 0-0.02 0.02-0.02l22.3-22.32c12.24-12.24 17.78-28.66 16.64-44.72 3.5 0.92 7.14 1.44 10.86 1.44 11.5 0 22.3-4.48 30.44-12.62 8.14-8.12 12.62-18.94 12.62-30.44s-4.48-22.32-12.62-30.46z m-565.42 58.2a23.368 23.368 0 0 1-17.1 7.34c-6.08 0-11.84-2.3-16.24-6.5-4.58-4.34-7.18-10.2-7.32-16.5a23.4 23.4 0 0 1 6.48-16.84l161.12-169.4c4.5-4.72 10.56-7.34 17.1-7.34 6.06 0 11.84 2.32 16.24 6.5 4.56 4.34 7.16 10.2 7.32 16.5a23.4 23.4 0 0 1-6.48 16.84l-161.12 169.4z m73.68 144.76l-0.04 0.04c-9.82 9.78-25.76 9.76-35.56-0.04a24.94 24.94 0 0 1-7.38-17.8c0-6.72 2.62-13.04 7.38-17.8l7.36-7.36 28.68 27.68 7.46 7.38-7.88 7.88-0.02 0.02z m49.72 49.74c-9.8 9.82-25.78 9.82-35.58 0a25.008 25.008 0 0 1-7.38-17.8c0-6.7 2.62-13.02 7.34-17.76 0.02 0 0.02-0.02 0.04-0.02 0-0.02 0.02-0.02 0.02-0.04l7.96-7.96 35.78 35.4-8.16 8.18h-0.02z m49.74 49.74c-9.8 9.82-25.78 9.82-35.58 0a25.008 25.008 0 0 1-7.38-17.8c0-6.72 2.62-13.04 7.38-17.8l8.24-8.24 35.78 35.4-8.42 8.44h-0.02z m49.76 49.72c0 0.02 0 0.02-0.02 0.02a24.928 24.928 0 0 1-17.78 7.38c-6.74 0-13.06-2.62-17.8-7.38-4.76-4.76-7.38-11.08-7.38-17.8s2.62-13.04 7.38-17.8l8.74-8.74 36.48 34.7-9.62 9.62z m271.12-171.22c5.26 5 8.26 11.74 8.44 19 0.18 7.26-2.48 14.14-7.48 19.4-10.32 10.84-27.54 11.28-38.4 0.96l-13.86-13.18-0.18-0.18-22.6-21.48c-4-3.8-10.32-3.64-14.14 0.36-3.8 4-3.64 10.34 0.36 14.14l22.5 21.38c0.02 0.04 0.06 0.08 0.1 0.12 5.3 5.02 8.52 12.18 8.88 19.62 0.36 7.5-2.16 14.44-7.04 19.6-10.16 10.66-28.14 10.72-39.28 0.12l-11.4-10.82c0-0.02 0-0.02-0.02-0.02v-0.02l-19.1-18.16c-4-3.82-10.34-3.66-14.14 0.34-3.8 4-3.66 10.34 0.36 14.14l19.1 18.18c5.6 5.34 8.42 12.52 8.42 19.7 0 6.74-2.48 13.46-7.46 18.72-10.32 10.84-27.56 11.28-38.4 0.96l-10.5-9.98c0-0.02-0.02-0.04-0.02-0.04-0.02 0-0.02-0.02-0.02-0.02l-19.98-19c-4-3.8-10.34-3.66-14.14 0.36-3.8 4-3.66 10.32 0.36 14.12l20.02 19.06c10.82 10.32 11.24 27.54 0.92 38.38-10.32 10.86-27.54 11.28-38.4 0.96l-13-12.36c0-0.02-0.02-0.02-0.02-0.02l-55.92-53.18-95.08-94.1-0.06-0.06c-0.02-0.02-0.06-0.04-0.08-0.06l-14.66-14.52-35.68-34.4c-0.02-0.02-0.02-0.04-0.04-0.06-0.02-0.02-0.04-0.02-0.06-0.04l-25.42-24.52c-15.24-14.5-15.86-38.72-1.34-53.98l0.06-0.06 141.78-149.08 24.44 7.34a42.52 42.52 0 0 0-6.46 13.08l-39.64 135.16c-3.22 11.04-1.98 22.68 3.54 32.78 5.52 10.08 14.64 17.42 25.68 20.66 4 1.18 8.1 1.76 12.18 1.76 7.12 0 14.16-1.78 20.58-5.3 10.1-5.52 17.44-14.62 20.64-25.6l29.36-97.46 36.58-5.92 199.72 193.22z m-0.68-78.28l-22.3 22.32h-0.02l-2.98 3-149.1-144.26 18.42-3a9.996 9.996 0 1 0-3.18-19.74l-85.84 13.92c-3.76 0.6-6.86 3.32-7.96 6.98l-31.18 103.52c-1.74 5.92-5.66 10.8-11.06 13.76a22.88 22.88 0 0 1-17.56 1.88c-5.92-1.72-10.8-5.66-13.74-11.06-2.96-5.4-3.64-11.64-1.9-17.56l39.64-135.16c2.48-8.46 9.72-14.86 18.44-16.28l121.84-19.74 148.46 148.44c0 0.02 0.02 0.04 0.04 0.06 14.58 14.58 14.58 38.32-0.02 52.92z m57.94-55.9a22.89 22.89 0 0 1-16.3 6.76c-6.16 0-11.96-2.4-16.3-6.76l-162.72-162.72c-9-8.98-9-23.62 0-32.6 4.34-4.36 10.14-6.76 16.3-6.76s11.94 2.4 16.3 6.76l162.72 162.7c4.36 4.36 6.76 10.16 6.76 16.32s-2.4 11.94-6.76 16.3z" fill="#23130D" p-id="44326"></path><path d="M487.84 962.06l-9.62 9.62c0 0.02 0 0.02-0.02 0.02a24.928 24.928 0 0 1-17.78 7.38c-6.74 0-13.06-2.62-17.8-7.38-4.76-4.76-7.38-11.08-7.38-17.8s2.62-13.04 7.38-17.8l8.74-8.74 36.48 34.7zM436.9 913.52l-8.42 8.44h-0.02c-9.8 9.82-25.78 9.82-35.58 0a25.008 25.008 0 0 1-7.38-17.8c0-6.72 2.62-13.04 7.38-17.8l8.24-8.24 35.78 35.4zM386.9 864.04l-8.16 8.18h-0.02c-9.8 9.82-25.78 9.82-35.58 0a25.008 25.008 0 0 1-7.38-17.8c0-6.7 2.62-13.02 7.34-17.76 0.02 0 0.02-0.02 0.04-0.02 0-0.02 0.02-0.02 0.02-0.04l7.96-7.96 35.78 35.4zM336.9 814.58l-7.88 7.88-0.02 0.02-0.04 0.04c-9.82 9.78-25.76 9.76-35.56-0.04a24.94 24.94 0 0 1-7.38-17.8c0-6.72 2.62-13.04 7.38-17.8l7.36-7.36 28.68 27.68 7.46 7.38z" fill="#F8D3C9" p-id="44327"></path><path d="M813.36 649.98c0 6.16-2.4 11.94-6.76 16.3s-10.14 6.76-16.3 6.76-11.96-2.4-16.3-6.76l-162.72-162.72c-9-8.98-9-23.62 0-32.6 4.34-4.36 10.14-6.76 16.3-6.76s11.94 2.4 16.3 6.76l162.72 162.7c4.36 4.36 6.76 10.16 6.76 16.32z" fill="#F9C139" p-id="44328"></path><path d="M422.92 491.48a23.4 23.4 0 0 1-6.48 16.84l-161.12 169.4a23.368 23.368 0 0 1-17.1 7.34c-6.08 0-11.84-2.3-16.24-6.5-4.58-4.34-7.18-10.2-7.32-16.5a23.4 23.4 0 0 1 6.48-16.84l161.12-169.4c4.5-4.72 10.56-7.34 17.1-7.34 6.06 0 11.84 2.32 16.24 6.5 4.56 4.34 7.16 10.2 7.32 16.5z" fill="#3594BF" p-id="44329"></path><path d="M748.66 722.18l-22.3 22.32h-0.02l-2.98 3-149.1-144.26 18.42-3a9.996 9.996 0 1 0-3.18-19.74l-85.84 13.92c-3.76 0.6-6.86 3.32-7.96 6.98l-31.18 103.52c-1.74 5.92-5.66 10.8-11.06 13.76a22.88 22.88 0 0 1-17.56 1.88c-5.92-1.72-10.8-5.66-13.74-11.06-2.96-5.4-3.64-11.64-1.9-17.56l39.64-135.16c2.48-8.46 9.72-14.86 18.44-16.28l121.84-19.74 148.46 148.44c0 0.02 0.02 0.04 0.04 0.06 14.58 14.58 14.58 38.32-0.02 52.92z" fill="#F8D3C9" p-id="44330"></path><path d="M757.78 819.46c0.18 7.26-2.48 14.14-7.48 19.4-10.32 10.84-27.54 11.28-38.4 0.96l-13.86-13.18-0.18-0.18-22.6-21.48c-4-3.8-10.32-3.64-14.14 0.36-3.8 4-3.64 10.34 0.36 14.14l22.5 21.38c0.02 0.04 0.06 0.08 0.1 0.12 5.3 5.02 8.52 12.18 8.88 19.62 0.36 7.5-2.16 14.44-7.04 19.6-10.16 10.66-28.14 10.72-39.28 0.12l-11.4-10.82c0-0.02 0-0.02-0.02-0.02v-0.02l-19.1-18.16c-4-3.82-10.34-3.66-14.14 0.34-3.8 4-3.66 10.34 0.36 14.14l19.1 18.18c5.6 5.34 8.42 12.52 8.42 19.7 0 6.74-2.48 13.46-7.46 18.72-10.32 10.84-27.56 11.28-38.4 0.96l-10.5-9.98c0-0.02-0.02-0.04-0.02-0.04-0.02 0-0.02-0.02-0.02-0.02l-19.98-19c-4-3.8-10.34-3.66-14.14 0.36-3.8 4-3.66 10.32 0.36 14.12l20.02 19.06c10.82 10.32 11.24 27.54 0.92 38.38-10.32 10.86-27.54 11.28-38.4 0.96l-13-12.36c0-0.02-0.02-0.02-0.02-0.02l-55.92-53.18-95.08-94.1-0.06-0.06c-0.02-0.02-0.06-0.04-0.08-0.06l-14.66-14.52-35.68-34.4c-0.02-0.02-0.02-0.04-0.04-0.06-0.02-0.02-0.04-0.02-0.06-0.04l-25.42-24.52c-15.24-14.5-15.86-38.72-1.34-53.98l0.06-0.06 141.78-149.08 24.44 7.34a42.52 42.52 0 0 0-6.46 13.08l-39.64 135.16c-3.22 11.04-1.98 22.68 3.54 32.78 5.52 10.08 14.64 17.42 25.68 20.66 4 1.18 8.1 1.76 12.18 1.76 7.12 0 14.16-1.78 20.58-5.3 10.1-5.52 17.44-14.62 20.64-25.6l29.36-97.46 36.58-5.92 199.72 193.22c5.26 5 8.26 11.74 8.44 19z" fill="#CC7B5A" p-id="44331"></path><path d="M442.46 741.52c5.98 0 11.9-1.26 17.46-3.74a42.538 42.538 0 0 1-8.88 6.44 42.68 42.68 0 0 1-20.58 5.3c-4.08 0-8.18-0.58-12.18-1.76a42.844 42.844 0 0 1-25.68-20.66c-5.52-10.1-6.76-21.74-3.54-32.78l39.64-135.16c1.4-4.78 3.62-9.18 6.46-13.08l-21.02-6.32 8.58-9.02 24.44 7.34a42.52 42.52 0 0 0-6.46 13.08l-39.64 135.16c-3.22 11.04-1.98 22.68 3.54 32.78 5.52 10.08 14.64 17.42 25.68 20.66 4 1.18 8.1 1.76 12.18 1.76zM757.78 819.46c0.18 7.26-2.48 14.14-7.48 19.4-3.2 3.34-7.04 5.7-11.14 7.04 4.44-5.12 6.78-11.62 6.62-18.44-0.18-7.26-3.18-14-8.44-19l-199.72-193.22-26.5 4.28 1.92-6.36 36.58-5.92 199.72 193.22c5.26 5 8.26 11.74 8.44 19z" fill="#23130D" opacity=".2" p-id="44332"></path><path d="M513.74 24.94c-110.1 0-199.66 89.56-199.66 199.66 0 41.04 12.36 80.48 35.74 114.04 22.44 32.2 53.42 56.84 89.68 71.34l68.96 68.98c1.88 1.86 4.42 2.92 7.08 2.92 2.64 0 5.18-1.06 7.06-2.92l71.56-71.56a199.546 199.546 0 0 0 119.26-182.8c0-110.1-89.58-199.66-199.68-199.66z m70.76 364.86c-1.18 0.5-2.24 1.22-3.14 2.12l-65.82 65.82-63.38-63.36c-0.98-0.98-2.14-1.76-3.44-2.26-68.58-26.62-114.64-93.94-114.64-167.52 0-99.06 80.6-179.66 179.66-179.66 99.08 0 179.68 80.6 179.68 179.66 0 71.98-42.76 136.82-108.92 165.2z" fill="#23130D" p-id="44333"></path><path d="M513.74 44.94c-99.06 0-179.66 80.6-179.66 179.66 0 73.58 46.06 140.9 114.64 167.52 1.3 0.5 2.46 1.28 3.44 2.26l63.38 63.36 65.82-65.82c0.9-0.9 1.96-1.62 3.14-2.12a179.576 179.576 0 0 0 108.92-165.2c0-99.06-80.6-179.66-179.68-179.66z m112.5 290.1c-30 29.98-69.86 46.5-112.24 46.5-42.4 0-82.26-16.52-112.26-46.5-29.98-29.98-46.48-69.84-46.48-112.26 0-42.4 16.5-82.28 46.5-112.24C431.74 80.56 471.6 64.04 514 64.04s82.26 16.52 112.24 46.5c29.98 29.96 46.5 69.84 46.5 112.24 0 42.42-16.52 82.28-46.5 112.26z" fill="#E1E1E5" p-id="44334"></path><path d="M693.18 215.38a179.578 179.578 0 0 1-108.68 155.86c-1.18 0.5-2.24 1.22-3.14 2.12l-65.82 65.82-63.38-63.36c-0.98-0.98-2.14-1.76-3.44-2.26-65.7-25.5-110.74-88.38-114.4-158.32-0.16 3.1-0.24 6.22-0.24 9.36 0 73.58 46.06 140.9 114.64 167.52 1.3 0.5 2.46 1.28 3.44 2.26l63.38 63.36 65.82-65.82c0.9-0.9 1.96-1.62 3.14-2.12a179.576 179.576 0 0 0 108.68-174.42z" fill="#23130D" opacity=".2" p-id="44335"></path><path d="M626.24 110.54C596.26 80.56 556.4 64.04 514 64.04s-82.26 16.52-112.24 46.5c-30 29.96-46.5 69.84-46.5 112.24 0 42.42 16.5 82.28 46.48 112.26 30 29.98 69.86 46.5 112.26 46.5 42.38 0 82.24-16.52 112.24-46.5 29.98-29.98 46.5-69.84 46.5-112.26 0-42.4-16.52-82.28-46.5-112.24z m-210.36 14.14c11.46-11.44 24.56-20.66 38.78-27.38-3.6 4.64-7.04 9.74-10.26 15.3-15.78 27.2-25 62.46-26.4 100.18h-42.36c2.36-33.3 16.42-64.28 40.24-88.1z m0 196.2c-23.82-23.82-37.88-54.8-40.24-88.1H418c1.4 37.72 10.64 73 26.4 100.2 3.22 5.56 6.66 10.64 10.26 15.3-14.22-6.74-27.32-15.94-38.78-27.4zM504 360.24c-35-8.8-63.3-62.78-65.98-127.46H504v127.46z m0-147.46h-65.98c2.68-64.68 30.98-118.66 65.98-127.44v127.44z m108.1-88.1c23.84 23.82 37.88 54.8 40.24 88.1h-42.36c-1.38-37.72-10.62-72.98-26.38-100.18a136.704 136.704 0 0 0-10.26-15.3c14.2 6.72 27.3 15.92 38.76 27.38zM524 85.34c34.98 8.78 63.28 62.76 65.96 127.44H524V85.34z m0 274.9v-127.46h65.96c-2.68 64.68-30.98 118.66-65.96 127.46z m88.1-39.36c-11.46 11.46-24.56 20.66-38.76 27.4 3.6-4.66 7.04-9.76 10.26-15.3 15.76-27.2 25-62.48 26.38-100.2h42.36c-2.36 33.3-16.4 64.28-40.24 88.1z" fill="#23130D" p-id="44336"></path><path d="M652.34 212.78h-42.36c-1.38-37.72-10.62-72.98-26.38-100.18a136.704 136.704 0 0 0-10.26-15.3c14.2 6.72 27.3 15.92 38.76 27.38 23.84 23.82 37.88 54.8 40.24 88.1zM652.34 232.78c-2.36 33.3-16.4 64.28-40.24 88.1-11.46 11.46-24.56 20.66-38.76 27.4 3.6-4.66 7.04-9.76 10.26-15.3 15.76-27.2 25-62.48 26.38-100.2h42.36zM454.66 97.3c-3.6 4.64-7.04 9.74-10.26 15.3-15.78 27.2-25 62.46-26.4 100.18h-42.36c2.36-33.3 16.42-64.28 40.24-88.1 11.46-11.44 24.56-20.66 38.78-27.38zM454.66 348.28c-14.22-6.74-27.32-15.94-38.78-27.4-23.82-23.82-37.88-54.8-40.24-88.1H418c1.4 37.72 10.64 73 26.4 100.2 3.22 5.56 6.66 10.64 10.26 15.3zM504 232.78v127.46c-35-8.8-63.3-62.78-65.98-127.46H504zM504 85.34v127.44h-65.98c2.68-64.68 30.98-118.66 65.98-127.44z" fill="#72AF5F" p-id="44337"></path><path d="M454.66 97.3c-2.94 3.8-5.78 7.9-8.48 12.32a140.764 140.764 0 0 0-17.8 15.06c-23.82 23.82-37.88 54.8-40.24 88.1h-12.5c2.36-33.3 16.42-64.28 40.24-88.1 11.46-11.44 24.56-20.66 38.78-27.38zM454.66 348.28c-14.22-6.74-27.32-15.94-38.78-27.4-23.82-23.82-37.88-54.8-40.24-88.1h12.5c2.36 33.3 16.42 64.28 40.24 88.1 5.56 5.56 11.52 10.6 17.8 15.08a138.68 138.68 0 0 0 8.48 12.32zM504 352.48v7.76c-35-8.8-63.3-62.78-65.98-127.46h16.5c2.24 54.14 22.44 100.78 49.48 119.7zM504 85.34v7.76c-27.04 18.9-47.24 65.54-49.48 119.68h-16.5c2.68-64.68 30.98-118.66 65.98-127.44z" fill="#FFFFFF" opacity=".4" p-id="44338"></path><path d="M589.96 212.78H524V85.34c34.98 8.78 63.28 62.76 65.96 127.44zM589.96 232.78c-2.68 64.68-30.98 118.66-65.96 127.46v-127.46h65.96z" fill="#72AF5F" p-id="44339"></path><path d="M573.34 97.3c2.94 3.8 5.78 7.9 8.48 12.32 6.28 4.48 12.24 9.5 17.8 15.06 23.82 23.82 37.88 54.8 40.24 88.1h12.5c-2.36-33.3-16.42-64.28-40.24-88.1-11.46-11.44-24.56-20.66-38.78-27.38zM573.34 348.28c14.22-6.74 27.32-15.94 38.78-27.4 23.82-23.82 37.88-54.8 40.24-88.1h-12.5c-2.36 33.3-16.42 64.28-40.24 88.1-5.56 5.56-11.52 10.6-17.8 15.08a138.68 138.68 0 0 1-8.48 12.32zM524 352.48v7.76c35-8.8 63.3-62.78 65.98-127.46h-16.5c-2.24 54.14-22.44 100.78-49.48 119.7zM524 85.34v7.76c27.04 18.9 47.24 65.54 49.48 119.68h16.5C587.3 148.1 559 94.12 524 85.34z" opacity=".4" p-id="44340"></path></svg>