<?xml version="1.0" standalone="no"?><!DOCTYPE svg PUBLIC "-//W3C//DTD SVG 1.1//EN" "http://www.w3.org/Graphics/SVG/1.1/DTD/svg11.dtd"><svg t="1625811929102" class="icon" viewBox="0 0 1024 1024" version="1.1" xmlns="http://www.w3.org/2000/svg" p-id="44655" xmlns:xlink="http://www.w3.org/1999/xlink" width="200" height="200"><defs><style type="text/css"></style></defs><path d="M907.34 411.92c-14.46 0-28.2 3.1-40.64 8.66l-97.68-171.38c25.46-18.16 42.12-47.92 42.12-81.52 0-55.2-44.88-100.08-100.08-100.08-51.8 0-94.54 39.56-99.58 90.08h-198.96c-5.04-50.52-47.78-90.08-99.58-90.08-55.18 0-100.08 44.88-100.08 100.08 0 33.58 16.64 63.34 42.1 81.5l-97.68 171.38a99.458 99.458 0 0 0-40.62-8.64c-55.2 0-100.08 44.9-100.08 100.08s44.88 100.08 100.08 100.08c15.02 0 29.28-3.34 42.08-9.3l102.7 173.66c-24.22 18.28-39.88 47.28-39.88 79.88 0 55.18 44.88 100.08 100.08 100.08 51.82 0 94.56-39.58 99.58-90.1h181.56c5.02 50.52 47.76 90.1 99.58 90.1 55.2 0 100.08-44.9 100.08-100.08 0-32.92-15.96-62.16-40.56-80.42l103.14-173.24a99.28 99.28 0 0 0 42.32 9.42c55.2 0 100.08-44.9 100.08-100.08s-44.88-100.08-100.08-100.08z m-58 18.58c-22.88 16.36-38.64 42.06-41.58 71.52h-51.58c-2.46-61.56-27.56-119.06-71.36-162.84-12.36-12.34-25.8-23.2-40.1-32.48l26.44-47.26a99.574 99.574 0 0 0 39.9 8.32c14.46 0 28.18-3.1 40.6-8.64l97.68 171.38zM637.7 522c-1.42 57.1-14.88 110.3-38.3 150.72-21.34 36.84-48.52 58.8-77.4 62.94V522h115.7zM522 502V288.34c28.88 4.14 56.06 26.1 77.4 62.94 23.42 40.42 36.88 93.62 38.3 150.72H522z m94.7 180.76c25.14-43.4 39.56-100.16 41-160.76h78.46c-2.44 56.2-25.48 108.66-65.48 148.66-14.42 14.4-30.42 26.6-47.64 36.42-0.12 0.06-0.26 0.1-0.38 0.16-0.22 0.12-0.38 0.28-0.6 0.4-11.92 6.74-24.4 12.32-37.34 16.74 11.64-11.16 22.4-25.1 31.98-41.62z m41-180.76c-1.44-60.6-15.86-117.36-41-160.76-9.58-16.54-20.34-30.48-31.98-41.64a221.9 221.9 0 0 1 41.36 19.08c0.12 0.06 0.22 0.16 0.34 0.22 0.12 0.08 0.24 0.12 0.36 0.18 15.8 9.44 30.54 20.9 43.9 34.24 40 40 63.04 92.48 65.48 148.68h-78.46z m53.36-414.4c44.16 0 80.08 35.92 80.08 80.08s-35.92 80.08-80.08 80.08c-44.14 0-80.08-35.92-80.08-80.08s35.94-80.08 80.08-80.08z m-99.58 90.08c2.98 29.72 19 55.64 42.26 71.96l-26.24 46.86c-35.1-18.88-74.52-28.9-115.5-28.9-39.54 0-77.64 9.34-111.8 26.94l-27.7-46.5c22.04-16.38 37.14-41.6 40.02-70.36h198.96zM366.3 522c1.44 60.6 15.84 117.36 41 160.76 9.58 16.52 20.34 30.48 31.98 41.62-11.54-3.92-22.72-8.8-33.44-14.58-0.14-0.08-0.24-0.18-0.38-0.26-0.18-0.1-0.38-0.16-0.58-0.26-18.7-10.18-36.06-23.12-51.56-38.62-40.02-39.98-63.04-92.46-65.48-148.66h78.46z m-78.46-20c2.44-56.2 25.46-108.68 65.48-148.68 14.34-14.32 30.26-26.46 47.36-36.26 0.34-0.16 0.68-0.32 1-0.5 0.14-0.1 0.24-0.2 0.38-0.28 11.88-6.7 24.34-12.28 37.22-16.68-11.64 11.16-22.4 25.1-31.98 41.64-25.16 43.4-39.56 100.16-41 160.76h-78.46z m136.76 170.72c-23.42-40.42-36.88-93.62-38.3-150.72H502v213.66c-28.88-4.14-56.06-26.1-77.4-62.94zM386.3 502c1.42-57.1 14.88-110.3 38.3-150.72 21.34-36.84 48.52-58.82 77.4-62.94V502h-115.7zM232.86 167.68c0-44.16 35.92-80.08 80.08-80.08 44.14 0 80.06 35.9 80.08 80.06v0.02c-0.02 22.08-9 42.1-23.5 56.6s-34.52 23.48-56.58 23.48c-44.16 0-80.08-35.92-80.08-80.08z m39.46 91.42a99.47 99.47 0 0 0 40.62 8.66c15.14 0 29.5-3.4 42.38-9.46l27.5 46.14a246.49 246.49 0 0 0-43.64 34.74c-43.8 43.78-68.9 101.28-71.36 162.84h-51.58c-2.94-29.46-18.7-55.18-41.6-71.52l97.68-171.4zM116.66 592.08c-44.16 0-80.08-35.92-80.08-80.08s35.92-80.08 80.08-80.08S196.74 467.84 196.74 512s-35.92 80.08-80.08 80.08z m59.28 0.5c22.18-16.38 37.42-41.68 40.3-70.56h51.58c2.46 61.54 27.58 119.02 71.36 162.8 14.5 14.48 30.5 26.94 47.64 37.2l-24.5 42.9a99.44 99.44 0 0 0-40.68-8.68c-15.44 0-30.06 3.52-43.14 9.78l-102.56-173.44z m145.7 343.82c-44.16 0-80.08-35.92-80.08-80.08s35.92-80.08 80.08-80.08 80.08 35.92 80.08 80.08-35.92 80.08-80.08 80.08z m99.58-90.1c-2.94-29.42-18.68-55.1-41.54-71.44l24.72-43.3c33.08 16.24 69.68 24.84 107.6 24.84 39.34 0 77.28-9.26 111.32-26.72l23.3 43.56c-24.12 16.24-40.8 42.66-43.84 73.06h-181.56z m361.22 10.02c0 44.16-35.92 80.08-80.08 80.08-44.1 0-80-35.84-80.08-79.94 0-0.04 0.02-0.1 0.02-0.16 0-0.04-0.02-0.1-0.02-0.14 0.1-44.08 35.98-79.92 80.08-79.92 44.16 0 80.08 35.92 80.08 80.08z m-37.74-90.66a99.302 99.302 0 0 0-42.34-9.42 99.54 99.54 0 0 0-38.12 7.56l-23.52-43.98c15.8-9.82 30.6-21.52 44.1-35 43.78-43.78 68.9-101.26 71.36-162.8h51.58c2.88 28.8 18 54.02 40.08 70.4l-103.14 173.24z m162.64-173.58c-44.16 0-80.08-35.92-80.08-80.08s35.92-80.08 80.08-80.08 80.08 35.92 80.08 80.08-35.92 80.08-80.08 80.08z" fill="#23130D" p-id="44656"></path><path d="M439.28 299.6c-11.64 11.16-22.4 25.1-31.98 41.64-25.16 43.4-39.56 100.16-41 160.76h-78.46c2.44-56.2 25.46-108.68 65.48-148.68 14.34-14.32 30.26-26.46 47.36-36.26 0.34-0.16 0.68-0.32 1-0.5 0.14-0.1 0.24-0.2 0.38-0.28 11.88-6.7 24.34-12.28 37.22-16.68zM439.28 724.38c-11.54-3.92-22.72-8.8-33.44-14.58-0.14-0.08-0.24-0.18-0.38-0.26-0.18-0.1-0.38-0.16-0.58-0.26-18.7-10.18-36.06-23.12-51.56-38.62-40.02-39.98-63.04-92.46-65.48-148.66h78.46c1.44 60.6 15.84 117.36 41 160.76 9.58 16.52 20.34 30.48 31.98 41.62z" fill="#3594BF" p-id="44657"></path><path d="M502 522v213.66c-28.88-4.14-56.06-26.1-77.4-62.94-23.42-40.42-36.88-93.62-38.3-150.72H502zM502 288.34V502h-115.7c1.42-57.1 14.88-110.3 38.3-150.72 21.34-36.84 48.52-58.82 77.4-62.94z" fill="#3594BF" p-id="44658"></path><path d="M439.28 299.6c-5.36 5.14-10.52 10.86-15.46 17.14-0.2 0.12-0.42 0.22-0.64 0.32-17.1 9.8-33.02 21.94-47.36 36.26-40.02 40-63.04 92.48-65.48 148.68h-22.5c2.44-56.2 25.46-108.68 65.48-148.68 14.34-14.32 30.26-26.46 47.36-36.26 0.34-0.16 0.68-0.32 1-0.5 0.14-0.1 0.24-0.2 0.38-0.28 11.88-6.7 24.34-12.28 37.22-16.68zM439.28 724.38c-11.54-3.92-22.72-8.8-33.44-14.58-0.14-0.08-0.24-0.18-0.38-0.26-0.18-0.1-0.38-0.16-0.58-0.26-18.7-10.18-36.06-23.12-51.56-38.62-40.02-39.98-63.04-92.46-65.48-148.66h22.5c2.44 56.2 25.46 108.68 65.48 148.66 14.54 14.54 30.7 26.82 48.08 36.68 4.92 6.26 10.06 11.94 15.38 17.04zM502 728.42v7.24c-28.88-4.14-56.06-26.1-77.4-62.94-23.42-40.42-36.88-93.62-38.3-150.72h23c1.42 57.1 14.88 110.3 38.3 150.72 15.56 26.86 34.24 45.82 54.4 55.7zM502 288.34v7.22c-20.16 9.88-38.84 28.86-54.4 55.72-23.42 40.42-36.88 93.62-38.3 150.72h-23c1.42-57.1 14.88-110.3 38.3-150.72 21.34-36.84 48.52-58.82 77.4-62.94z" fill="#FFFFFF" opacity=".4" p-id="44659"></path><path d="M637.7 502H522V288.34c28.88 4.14 56.06 26.1 77.4 62.94 23.42 40.42 36.88 93.62 38.3 150.72zM637.7 522c-1.42 57.1-14.88 110.3-38.3 150.72-21.34 36.84-48.52 58.8-77.4 62.94V522h115.7z" fill="#3594BF" p-id="44660"></path><path d="M736.16 522c-2.44 56.2-25.48 108.66-65.48 148.66-14.42 14.4-30.42 26.6-47.64 36.42-0.12 0.06-0.26 0.1-0.38 0.16-0.22 0.12-0.38 0.28-0.6 0.4-11.92 6.74-24.4 12.32-37.34 16.74 11.64-11.16 22.4-25.1 31.98-41.62 25.14-43.4 39.56-100.16 41-160.76h78.46zM736.16 502h-78.46c-1.44-60.6-15.86-117.36-41-160.76-9.58-16.54-20.34-30.48-31.98-41.64a221.9 221.9 0 0 1 41.36 19.08c0.12 0.06 0.22 0.16 0.34 0.22 0.12 0.08 0.24 0.12 0.36 0.18 15.8 9.44 30.54 20.9 43.9 34.24 40 40 63.04 92.48 65.48 148.68z" fill="#3594BF" p-id="44661"></path><path d="M791.14 167.68c0 44.16-35.92 80.08-80.08 80.08-44.14 0-80.08-35.92-80.08-80.08s35.94-80.08 80.08-80.08c44.16 0 80.08 35.92 80.08 80.08zM987.42 512c0 44.16-35.92 80.08-80.08 80.08s-80.08-35.92-80.08-80.08 35.92-80.08 80.08-80.08 80.08 35.92 80.08 80.08zM782.44 856.32c0 44.16-35.92 80.08-80.08 80.08-44.1 0-80-35.84-80.08-79.94 0-0.04 0.02-0.1 0.02-0.16 0-0.04-0.02-0.1-0.02-0.14 0.1-44.08 35.98-79.92 80.08-79.92 44.16 0 80.08 35.92 80.08 80.08zM401.72 856.32c0 44.16-35.92 80.08-80.08 80.08s-80.08-35.92-80.08-80.08 35.92-80.08 80.08-80.08 80.08 35.92 80.08 80.08zM196.74 512c0 44.16-35.92 80.08-80.08 80.08S36.58 556.16 36.58 512s35.92-80.08 80.08-80.08S196.74 467.84 196.74 512zM393.02 167.66v0.02c-0.02 22.08-9 42.1-23.5 56.6s-34.52 23.48-56.58 23.48c-44.16 0-80.08-35.92-80.08-80.08s35.92-80.08 80.08-80.08c44.14 0 80.06 35.9 80.08 80.06z" fill="#EC7063" p-id="44662"></path><path d="M325.44 246.78c-4.08 0.64-8.24 0.98-12.5 0.98-44.16 0-80.08-35.92-80.08-80.08s35.92-80.08 80.08-80.08c4.24 0 8.42 0.34 12.5 0.98-38.24 6.02-67.58 39.2-67.58 79.1s29.34 73.08 67.58 79.1zM334.13 935.42c-4.08 0.64-8.24 0.98-12.5 0.98-44.16 0-80.08-35.92-80.08-80.08s35.92-80.08 80.08-80.08c4.24 0 8.42 0.34 12.5 0.98-38.24 6.02-67.58 39.2-67.58 79.1 0 39.9 29.34 73.08 67.58 79.1zM714.86 935.42c-4.08 0.64-8.24 0.98-12.5 0.98-44.16 0-80.08-35.92-80.08-80.08s35.92-80.08 80.08-80.08c4.24 0 8.42 0.34 12.5 0.98-38.24 6.02-67.58 39.2-67.58 79.1 0 39.9 29.34 73.08 67.58 79.1zM919.84 591.1c-4.08 0.64-8.24 0.98-12.5 0.98-44.16 0-80.08-35.92-80.08-80.08s35.92-80.08 80.08-80.08c4.24 0 8.42 0.34 12.5 0.98-38.24 6.02-67.58 39.2-67.58 79.1 0 39.9 29.34 73.08 67.58 79.1zM129.16 591.1c-4.08 0.64-8.24 0.98-12.5 0.98-44.16 0-80.08-35.92-80.08-80.08s35.92-80.08 80.08-80.08c4.24 0 8.42 0.34 12.5 0.98-38.24 6.02-67.58 39.2-67.58 79.1 0 39.9 29.34 73.08 67.58 79.1zM723.56 246.78c-4.08 0.64-8.24 0.98-12.5 0.98-44.16 0-80.08-35.92-80.08-80.08s35.92-80.08 80.08-80.08c4.24 0 8.42 0.34 12.5 0.98-38.24 6.02-67.58 39.2-67.58 79.1s29.34 73.08 67.58 79.1z" fill="#23130D" opacity=".2" p-id="44663"></path><path d="M584.72 299.6c5.36 5.14 10.52 10.86 15.46 17.14 0.2 0.12 0.42 0.22 0.64 0.32 17.1 9.8 33.02 21.94 47.36 36.26 40.02 40 63.04 92.48 65.48 148.68h22.5c-2.44-56.2-25.46-108.68-65.48-148.68-14.34-14.32-30.26-26.46-47.36-36.26-0.34-0.16-0.68-0.32-1-0.5-0.14-0.1-0.24-0.2-0.38-0.28-11.88-6.7-24.34-12.28-37.22-16.68zM584.72 724.38c11.54-3.92 22.72-8.8 33.44-14.58 0.14-0.08 0.24-0.18 0.38-0.26 0.18-0.1 0.38-0.16 0.58-0.26 18.7-10.18 36.06-23.12 51.56-38.62 40.02-39.98 63.04-92.46 65.48-148.66h-22.5c-2.44 56.2-25.46 108.68-65.48 148.66-14.54 14.54-30.7 26.82-48.08 36.68a163.65 163.65 0 0 1-15.38 17.04zM522 728.42v7.24c28.88-4.14 56.06-26.1 77.4-62.94 23.42-40.42 36.88-93.62 38.3-150.72h-23c-1.42 57.1-14.88 110.3-38.3 150.72-15.56 26.86-34.24 45.82-54.4 55.7zM522 288.34v7.22c20.16 9.88 38.84 28.86 54.4 55.72 23.42 40.42 36.88 93.62 38.3 150.72h23c-1.42-57.1-14.88-110.3-38.3-150.72-21.34-36.84-48.52-58.82-77.4-62.94z" fill="#23130D" opacity=".4" p-id="44664"></path></svg>