<?xml version="1.0" standalone="no"?><!DOCTYPE svg PUBLIC "-//W3C//DTD SVG 1.1//EN" "http://www.w3.org/Graphics/SVG/1.1/DTD/svg11.dtd"><svg t="1625811934384" class="icon" viewBox="0 0 1024 1024" version="1.1" xmlns="http://www.w3.org/2000/svg" p-id="44978" xmlns:xlink="http://www.w3.org/1999/xlink" width="200" height="200"><defs><style type="text/css"></style></defs><path d="M512 145.14c-166.08 0-301.2 135.12-301.2 301.2 0 58.12 16.6 114.52 47.98 163.14a301.816 301.816 0 0 0 118.64 106.32v20.6h-18.58c-5.52 0-10 4.48-10 10s4.48 10 10 10h18.58v180.2c0 5.52 4.48 10 10 10h53.9v38.12c0 5.52 4.48 10 10 10h121.38c5.52 0 10-4.48 10-10V946.6h53.9c5.52 0 10-4.48 10-10v-53.06h18.58c5.52 0 10-4.48 10-10 0-5.54-4.48-10-10-10h-18.58v-41.76h18.58c5.52 0 10-4.48 10-10s-4.48-10-10-10h-18.58V756.4h18.58c5.52 0 10-4.48 10-10s-4.48-10-10-10h-18.58v-20.6a301.816 301.816 0 0 0 118.64-106.32c31.38-48.62 47.96-105.02 47.96-163.14 0-166.08-135.12-301.2-301.2-301.2z m50.7 829.58h-101.38V946.6h101.38v28.12z m63.9-172.94h-142.1c-5.52 0-10 4.48-10 10s4.48 10 10 10h142.1v41.76h-142.1c-5.52 0-10 4.46-10 10 0 5.52 4.48 10 10 10h142.1v43.06h-53.8c-0.04 0-0.06-0.02-0.1-0.02-0.04 0-0.06 0.02-0.1 0.02h-121.18c-0.02 0-0.06-0.02-0.1-0.02-0.02 0-0.06 0.02-0.08 0.02h-53.82v-170.2H626.6v45.38z m5.72-101.22c-0.2 0.1-0.36 0.24-0.56 0.34-0.32 0.18-0.66 0.36-0.96 0.58-0.26 0.18-0.5 0.4-0.74 0.6-0.24 0.22-0.48 0.42-0.72 0.66-0.22 0.24-0.42 0.5-0.62 0.76s-0.38 0.5-0.56 0.76c-0.16 0.28-0.3 0.56-0.46 0.84-0.14 0.3-0.28 0.58-0.4 0.9-0.12 0.3-0.2 0.6-0.3 0.92-0.08 0.3-0.18 0.6-0.22 0.92-0.08 0.36-0.1 0.74-0.12 1.12-0.02 0.22-0.06 0.42-0.06 0.64v26.8H397.42v-26.8c0-0.24-0.06-0.46-0.08-0.7-0.02-0.36-0.04-0.7-0.1-1.04-0.06-0.34-0.16-0.66-0.24-1-0.08-0.28-0.16-0.56-0.28-0.84-0.12-0.34-0.28-0.64-0.44-0.96-0.14-0.26-0.26-0.52-0.42-0.78-0.18-0.28-0.38-0.54-0.6-0.8-0.18-0.26-0.36-0.5-0.58-0.72-0.24-0.26-0.5-0.48-0.76-0.7-0.22-0.2-0.44-0.4-0.7-0.58-0.3-0.22-0.64-0.4-1-0.6-0.18-0.1-0.32-0.22-0.52-0.32-97.74-46.34-160.9-146.12-160.9-254.22 0-155.06 126.16-281.2 281.2-281.2 155.06 0 281.2 126.14 281.2 281.2 0 108.1-63.14 207.88-160.88 254.22z" fill="#23130D" p-id="44979"></path><path d="M461.32 946.6h101.38v28.12h-101.38z" fill="#636368" p-id="44980"></path><path d="M461.32 946.6h33.68v28.12h-33.68z" fill="#23130D" opacity=".2" p-id="44981"></path><path d="M474.5 811.78c0 5.52 4.48 10 10 10h142.1v41.76h-142.1c-5.52 0-10 4.46-10 10 0 5.52 4.48 10 10 10h142.1v43.06h-53.8c-0.04 0-0.06-0.02-0.1-0.02-0.04 0-0.06 0.02-0.1 0.02h-121.18c-0.02 0-0.06-0.02-0.1-0.02-0.02 0-0.06 0.02-0.08 0.02h-53.82v-170.2H626.6v45.38h-142.1c-5.52 0-10 4.48-10 10z" fill="#E1E1E5" p-id="44982"></path><path d="M512 165.14c-46.46 0-90.32 11.32-128.98 31.38-18.7 9.68-36.16 21.4-52.12 34.86-9.82 8.3-19.08 17.26-27.7 26.82-8.32 9.22-16.04 18.98-23.08 29.26-3.62 5.24-7.06 10.62-10.32 16.14-8.64 14.58-16 30.02-21.9 46.16-11.06 30.12-17.1 62.66-17.1 96.58 0 108.1 63.16 207.88 160.9 254.22 0.2 0.1 0.34 0.22 0.52 0.32 0.36 0.2 0.7 0.38 1 0.6 0.26 0.18 0.48 0.38 0.7 0.58 0.26 0.22 0.52 0.44 0.76 0.7 0.22 0.22 0.4 0.46 0.58 0.72 0.22 0.26 0.42 0.52 0.6 0.8 0.16 0.26 0.28 0.52 0.42 0.78 0.16 0.32 0.32 0.62 0.44 0.96 0.12 0.28 0.2 0.56 0.28 0.84 0.08 0.34 0.18 0.66 0.24 1 0.06 0.34 0.08 0.68 0.1 1.04 0.02 0.24 0.08 0.46 0.08 0.7v26.8H626.6v-26.8c0-0.22 0.04-0.42 0.06-0.64 0.02-0.38 0.04-0.76 0.12-1.12 0.04-0.32 0.14-0.62 0.22-0.92 0.1-0.32 0.18-0.62 0.3-0.92 0.12-0.32 0.26-0.6 0.4-0.9 0.16-0.28 0.3-0.56 0.46-0.84 0.18-0.26 0.36-0.5 0.56-0.76 0.2-0.26 0.4-0.52 0.62-0.76 0.24-0.24 0.48-0.44 0.72-0.66 0.24-0.2 0.48-0.42 0.74-0.6 0.3-0.22 0.64-0.4 0.96-0.58 0.2-0.1 0.36-0.24 0.56-0.34 7.72-3.66 15.22-7.64 22.48-11.96 5.52-3.24 10.9-6.68 16.14-10.32 10.3-7.06 20.04-14.8 29.22-23.12 9.56-8.66 18.5-17.94 26.74-27.78 13.5-16.06 25.16-33.56 34.8-52.18 20.28-39.22 31.5-83.3 31.5-128.86 0-155.06-126.14-281.2-281.2-281.2z m182.64 429.98a232.22 232.22 0 0 1-14.42 15.78c-4.08 4.08-8.28 7.98-12.6 11.72-9.5 8.24-19.58 15.68-30.1 22.24-5.5 3.44-11.14 6.64-16.88 9.58a234.56 234.56 0 0 1-49.34 18.72c-19.14 4.9-39.02 7.42-59.3 7.42-63.54 0-123.28-24.74-168.22-69.68-44.94-44.9-69.68-104.64-69.68-168.22 0-20.28 2.52-40.18 7.4-59.32 4.38-17.12 10.66-33.66 18.72-49.34 2.96-5.74 6.14-11.36 9.6-16.86 6.54-10.54 13.98-20.6 22.24-30.1 3.72-4.32 7.64-8.52 11.72-12.6 5.08-5.08 10.34-9.9 15.78-14.42 16.34-13.7 34.24-25 53.26-33.72 2.68-1.24 5.38-2.42 8.1-3.54 28.48-11.82 59.32-18 91.08-18 63.54 0 123.28 24.76 168.22 69.68s69.68 104.66 69.68 168.22c0 34.82-7.42 68.48-21.52 99.2a235.372 235.372 0 0 1-33.74 53.24z" fill="#F9C139" p-id="44983"></path><path d="M431.9 707.86c-0.06-0.34-0.16-0.66-0.24-1-0.08-0.28-0.16-0.56-0.28-0.84-0.12-0.34-0.28-0.64-0.44-0.96-0.14-0.26-0.26-0.52-0.42-0.78-0.18-0.28-0.38-0.54-0.6-0.8-0.18-0.26-0.36-0.5-0.58-0.72-0.24-0.26-0.5-0.48-0.76-0.7-0.22-0.2-0.44-0.4-0.7-0.58-0.3-0.22-0.64-0.4-1-0.6-0.18-0.1-0.32-0.22-0.52-0.32-97.74-46.34-160.9-146.12-160.9-254.22 0-149.24 116.88-271.7 263.88-280.66-5.74-0.36-11.52-0.54-17.34-0.54-155.04 0-281.2 126.14-281.2 281.2 0 108.1 63.16 207.88 160.9 254.22 0.2 0.1 0.34 0.22 0.52 0.32 0.36 0.2 0.7 0.38 1 0.6 0.26 0.18 0.48 0.38 0.7 0.58 0.26 0.22 0.52 0.44 0.76 0.7 0.22 0.22 0.4 0.46 0.58 0.72 0.22 0.26 0.42 0.52 0.6 0.8 0.16 0.26 0.28 0.52 0.42 0.78 0.16 0.32 0.32 0.62 0.44 0.96 0.12 0.28 0.2 0.56 0.28 0.84 0.08 0.34 0.18 0.66 0.24 1 0.06 0.34 0.08 0.68 0.1 1.04 0.02 0.24 0.08 0.46 0.08 0.7v26.8h34.66v-26.8c0-0.24-0.06-0.46-0.08-0.7-0.02-0.36-0.04-0.7-0.1-1.04z" fill="#23130D" opacity=".2" p-id="44984"></path><path d="M512.006 95.198a10 10 0 0 0 10-10V39.28a10 10 0 1 0-20 0v45.918a10 10 0 0 0 10 10zM325.642 137.812a9.994 9.994 0 0 0 13.66 3.66 10 10 0 0 0 3.66-13.66l-22.954-39.762a10 10 0 0 0-17.32 10l22.954 39.762zM159.456 248.6l39.764 22.962a10 10 0 0 0 10.002-17.32L169.458 231.28a10 10 0 0 0-10.002 17.32zM166.6 440.61a10 10 0 0 0-10-10H110.678a10 10 0 0 0 0 20H156.6a10 10 0 0 0 10-10zM199.224 609.652l-39.778 22.944a10 10 0 1 0 9.992 17.324l39.778-22.944a10 10 0 1 0-9.992-17.324zM864.552 632.614l-39.762-22.952a9.992 9.992 0 0 0-13.66 3.66 9.998 9.998 0 0 0 3.66 13.66l39.762 22.952a9.994 9.994 0 0 0 13.66-3.66 9.998 9.998 0 0 0-3.66-13.66zM913.322 430.624h-45.904a10 10 0 1 0 0 20h45.904a10 10 0 1 0 0-20zM819.806 272.904c1.696 0 3.416-0.432 4.99-1.342l39.756-22.954a9.998 9.998 0 0 0 3.66-13.66 9.998 9.998 0 0 0-13.66-3.66l-39.756 22.954a9.998 9.998 0 0 0 5.01 18.662zM684.712 141.472a9.998 9.998 0 0 0 13.662-3.658l22.958-39.754a10 10 0 1 0-17.32-10.002l-22.958 39.754a10 10 0 0 0 3.658 13.66zM680.22 274.46c-44.94-44.92-104.68-69.68-168.22-69.68-31.76 0-62.6 6.18-91.08 18-28.5 11.8-54.68 29.22-77.14 51.68-44.94 44.92-69.68 104.66-69.68 168.22 0 63.58 24.74 123.32 69.68 168.22 44.94 44.94 104.68 69.68 168.22 69.68 63.5 0 123.24-24.74 168.22-69.68 44.94-44.92 69.68-104.66 69.68-168.22s-24.74-123.3-69.68-168.22z m-322.3 14.14c23.6-23.58 51.66-41.1 82.28-51.74-10.98 10.72-21.16 23.98-30.24 39.66-24.44 42.16-38.46 97.3-39.88 156.16h-75.76c2.46-54.46 24.8-105.3 63.6-144.08z m0 308.16c-38.8-38.78-61.14-89.62-63.6-144.08h75.76c1.42 58.88 15.44 114 39.88 156.16 9.08 15.68 19.26 28.96 30.26 39.68-30.62-10.66-58.7-28.16-82.3-51.76zM502 659.82c-27.88-4.12-54.1-25.4-74.74-61-22.7-39.2-35.78-90.76-37.18-146.14H502v207.14z m0-227.14h-111.92c1.4-55.36 14.48-106.94 37.18-146.14 20.64-35.58 46.86-56.88 74.74-61v207.14z m164.08-144.06c38.78 38.76 61.14 89.6 63.58 144.06h-75.74c-1.42-58.86-15.44-114-39.88-156.16-9.08-15.68-19.26-28.94-30.24-39.66 30.62 10.64 58.68 28.16 82.28 51.76zM522 225.54c27.88 4.12 54.1 25.42 74.74 61 22.7 39.2 35.78 90.78 37.18 146.14H522V225.54z m0 434.28V452.68h111.92c-1.4 55.38-14.48 106.94-37.18 146.14-20.64 35.6-46.86 56.88-74.74 61z m144.08-63.06c-23.62 23.58-51.68 41.1-82.28 51.76 10.98-10.72 21.16-24 30.24-39.68 24.42-42.16 38.46-97.28 39.88-156.16h75.74c-2.44 54.46-24.8 105.3-63.58 144.08z" fill="#23130D" p-id="44985"></path><path d="M729.66 432.68h-75.74c-1.42-58.86-15.44-114-39.88-156.16-9.08-15.68-19.26-28.94-30.24-39.66 30.62 10.64 58.68 28.16 82.28 51.76 38.78 38.76 61.14 89.6 63.58 144.06z" fill="#72AF5F" p-id="44986"></path><path d="M633.92 432.68H522V225.54c27.88 4.12 54.1 25.42 74.74 61 22.7 39.2 35.78 90.78 37.18 146.14zM502 225.54v207.14h-111.92c1.4-55.36 14.48-106.94 37.18-146.14 20.64-35.58 46.86-56.88 74.74-61z" fill="#72AF5F" p-id="44987"></path><path d="M440.19 236.85c-10.98 10.72-21.16 23.98-30.24 39.66-24.44 42.16-38.46 97.3-39.88 156.16h-75.76c2.46-54.46 24.8-105.3 63.6-144.08 23.6-23.58 51.66-41.1 82.28-51.74zM440.21 648.51c-30.62-10.66-58.7-28.16-82.3-51.76-38.8-38.78-61.14-89.62-63.6-144.08h75.76c1.42 58.88 15.44 114 39.88 156.16 9.08 15.68 19.26 28.96 30.26 39.68z" fill="#72AF5F" p-id="44988"></path><path d="M440.19 236.84a160.576 160.576 0 0 0-13.86 15.44c-17.36 9.7-33.48 21.88-47.94 36.3-38.8 38.78-61.14 89.62-63.6 144.1h-20.48c2.48-54.48 24.8-105.32 63.62-144.1 23.6-23.56 51.64-41.1 82.26-51.74zM440.21 648.52c-30.62-10.68-58.68-28.18-82.28-51.76-38.82-38.8-61.14-89.62-63.62-144.08h20.48c2.46 54.46 24.8 105.28 63.6 144.08 14.44 14.44 30.56 26.58 47.92 36.3 4.46 5.62 9.1 10.78 13.9 15.46z" fill="#FFFFFF" opacity=".4" p-id="44989"></path><path d="M502 452.68v207.14c-27.88-4.12-54.1-25.4-74.74-61-22.7-39.2-35.78-90.76-37.18-146.14H502z" fill="#72AF5F" p-id="44990"></path><path d="M502 225.54v6.48c-19.92 9.46-38.38 28.04-53.74 54.52-22.7 39.2-35.78 90.78-37.18 146.14h-21c1.4-55.36 14.48-106.94 37.18-146.14 20.64-35.58 46.86-56.88 74.74-61zM502 653.34v6.48c-27.88-4.12-54.1-25.4-74.74-61-22.7-39.2-35.78-90.76-37.18-146.14h21c1.4 55.38 14.48 106.94 37.18 146.14 15.36 26.5 33.82 45.06 53.74 54.52z" fill="#FFFFFF" opacity=".4" p-id="44991"></path><path d="M633.92 452.68c-1.4 55.38-14.48 106.94-37.18 146.14-20.64 35.6-46.86 56.88-74.74 61V452.68h111.92z" fill="#72AF5F" p-id="44992"></path><path d="M729.66 452.68c-2.44 54.46-24.8 105.3-63.58 144.08-23.62 23.58-51.68 41.1-82.28 51.76 10.98-10.72 21.16-24 30.24-39.68 24.42-42.16 38.46-97.28 39.88-156.16h75.74z" fill="#72AF5F" p-id="44993"></path><path d="M583.81 236.84c4.78 4.66 9.42 9.82 13.86 15.44 17.36 9.7 33.48 21.88 47.94 36.3 38.8 38.78 61.14 89.62 63.6 144.1h20.48c-2.48-54.48-24.8-105.32-63.62-144.1-23.6-23.56-51.64-41.1-82.26-51.74zM583.79 648.52c30.62-10.68 58.68-28.18 82.28-51.76 38.82-38.8 61.14-89.62 63.62-144.08h-20.48c-2.46 54.46-24.8 105.28-63.6 144.08a219.044 219.044 0 0 1-47.92 36.3 163.594 163.594 0 0 1-13.9 15.46zM522 225.54v6.48c19.92 9.46 38.38 28.04 53.74 54.52 22.7 39.2 35.78 90.78 37.18 146.14h21c-1.4-55.36-14.48-106.94-37.18-146.14-20.64-35.58-46.86-56.88-74.74-61zM522 653.34v6.48c27.88-4.12 54.1-25.4 74.74-61 22.7-39.2 35.78-90.76 37.18-146.14h-21c-1.4 55.38-14.48 106.94-37.18 146.14-15.36 26.5-33.82 45.06-53.74 54.52zM397.42 756.4h33.58v170.2h-33.58z" fill="#23130D" opacity=".2" p-id="44994"></path><path d="M300.22 334.02c-8.06 15.68-14.34 32.22-18.72 49.34l-33.6-33.6c5.9-16.14 13.26-31.58 21.9-46.16l30.42 30.42zM654.8 688.6a270.74 270.74 0 0 1-22.48 11.96c-0.2 0.1-0.36 0.24-0.56 0.34-0.32 0.18-0.66 0.36-0.96 0.58-0.26 0.18-0.5 0.4-0.74 0.6-0.24 0.22-0.48 0.42-0.72 0.66-0.22 0.24-0.42 0.5-0.62 0.76s-0.38 0.5-0.56 0.76c-0.16 0.28-0.3 0.56-0.46 0.84-0.14 0.3-0.28 0.58-0.4 0.9-0.12 0.3-0.2 0.6-0.3 0.92-0.08 0.3-0.18 0.6-0.22 0.92-0.08 0.36-0.1 0.74-0.12 1.12-0.02 0.22-0.06 0.42-0.06 0.64v18.86l-55.3-55.3a234.56 234.56 0 0 0 49.34-18.72l34.16 34.16zM332.06 287.06c-8.26 9.5-15.7 19.56-22.24 30.1l-29.7-29.7c7.04-10.28 14.76-20.04 23.08-29.26l28.86 28.86zM700.16 655.16a275.28 275.28 0 0 1-29.22 23.12l-33.42-33.42c10.52-6.56 20.6-14 30.1-22.24l32.54 32.54zM412.82 226.32a235.852 235.852 0 0 0-53.26 33.72l-28.66-28.66c15.96-13.46 33.42-25.18 52.12-34.86l29.8 29.8zM761.7 575.2a283.972 283.972 0 0 1-34.8 52.18l-32.26-32.26c13.7-16.32 25.02-34.22 33.74-53.24l33.32 33.32z" fill="#FFFFFF" opacity=".4" p-id="44995"></path></svg>