<?xml version="1.0" standalone="no"?><!DOCTYPE svg PUBLIC "-//W3C//DTD SVG 1.1//EN" "http://www.w3.org/Graphics/SVG/1.1/DTD/svg11.dtd"><svg t="1625811611774" class="icon" viewBox="0 0 1024 1024" version="1.1" xmlns="http://www.w3.org/2000/svg" p-id="36678" xmlns:xlink="http://www.w3.org/1999/xlink" width="200" height="200"><defs><style type="text/css"></style></defs><path d="M801.68 164.26h-135.82v-12.94c0-19.86-16.16-36.02-36.02-36.02h-42.78v-79.2c0-5.52-4.48-10-10-10h-130.12c-5.52 0-10 4.48-10 10v79.2h-42.78c-19.86 0-36.02 16.16-36.02 36.02v12.94h-135.82c-19.88 0-36.04 16.16-36.04 36.04v761.56c0 19.88 16.16 36.04 36.04 36.04h579.36c19.88 0 36.04-16.16 36.04-36.04V200.3c0-19.88-16.16-36.04-36.04-36.04zM456.94 46.1h110.12v118.16h-110.12V46.1z m-78.8 105.22c0-8.84 7.2-16.02 16.02-16.02h42.78v28.96h-27.24c-5.52 0-10 4.48-10 10s4.48 10 10 10h204.6c5.52 0 10-4.48 10-10s-4.48-10-10-10h-27.24V135.3h42.78c8.82 0 16.02 7.18 16.02 16.02V197.2c0 8.84-7.2 16.04-16.02 16.04H394.16c-8.82 0-16.02-7.18-16.02-16.04V151.32z m439.58 810.54c0 8.84-7.2 16.04-16.04 16.04H222.32c-8.84 0-16.04-7.2-16.04-16.04V200.3c0-8.84 7.2-16.04 16.04-16.04h135.82v12.94c0 19.88 16.16 36.04 36.02 36.04h235.68c19.86 0 36.02-16.16 36.02-36.04v-12.94h135.82c8.84 0 16.04 7.2 16.04 16.04v761.56z" fill="#23130D" p-id="36679"></path><path d="M645.86 151.32V197.2c0 8.84-7.2 16.04-16.02 16.04H394.16c-8.82 0-16.02-7.18-16.02-16.04V151.32c0-8.84 7.2-16.02 16.02-16.02h42.78v28.96h-27.24c-5.52 0-10 4.48-10 10s4.48 10 10 10h204.6c5.52 0 10-4.48 10-10s-4.48-10-10-10h-27.24V135.3h42.78c8.82 0 16.02 7.18 16.02 16.02z" fill="#F9C139" p-id="36680"></path><path d="M645.86 182.7v14.5c0 8.84-7.2 16.04-16.02 16.04H394.16c-8.82 0-16.02-7.18-16.02-16.04v-14.5c0 8.86 7.2 16.04 16.02 16.04h235.68c8.82 0 16.02-7.2 16.02-16.04z" fill="#23130D" opacity=".2" p-id="36681"></path><path d="M456.94 46.1h110.12v118.16h-110.12z" fill="#F9C139" p-id="36682"></path><path d="M456.94 46.1h12.06v118.16h-12.06z" fill="#23130D" opacity=".2" p-id="36683"></path><path d="M555 46.1h12.06v118.16h-12.06z" fill="#FFFFFF" opacity=".4" p-id="36684"></path><path d="M801.68 184.26h-135.82v12.94c0 19.88-16.16 36.04-36.02 36.04h-117.8H394.16c-19.86 0-36.02-16.16-36.02-36.04v-12.94h-135.82c-8.84 0-16.04 7.2-16.04 16.04v761.56c0 8.84 7.2 16.04 16.04 16.04h579.36c8.84 0 16.04-7.2 16.04-16.04V200.3c0-8.84-7.2-16.04-16.04-16.04z m-22.34 613.4c0 0.08-0.02 0.14-0.02 0.2-0.02 0.6-0.06 1.2-0.18 1.78-0.02 0.08-0.04 0.16-0.06 0.22-0.12 0.5-0.26 0.98-0.46 1.46-0.06 0.18-0.14 0.36-0.22 0.54-0.18 0.36-0.38 0.72-0.6 1.08-0.1 0.16-0.18 0.3-0.28 0.46-0.32 0.44-0.68 0.88-1.06 1.28l-0.06 0.06-136.56 136.56c-0.48 0.48-0.98 0.9-1.54 1.26-0.18 0.12-0.38 0.2-0.56 0.3-0.38 0.22-0.76 0.46-1.16 0.62-0.26 0.1-0.52 0.16-0.78 0.24-0.36 0.12-0.72 0.26-1.08 0.34-0.64 0.12-1.26 0.18-1.9 0.18H254.66c-5.52 0-10-4.46-10-10v-652.4c0-5.52 4.48-10 10-10h514.68c5.52 0 10 4.48 10 10v515.82z" fill="#3594BF" p-id="36685"></path><path d="M226.28 961.86V200.3c0-8.84 7.2-16.04 16.04-16.04h-20c-8.84 0-16.04 7.2-16.04 16.04v761.56c0 8.84 7.2 16.04 16.04 16.04h20c-8.84 0-16.04-7.2-16.04-16.04z" fill="#FFFFFF" opacity=".4" p-id="36686"></path><path d="M801.84 184.26h-20c8.84 0 16.04 7.2 16.04 16.04v761.56c0 8.84-7.2 16.04-16.04 16.04h20c8.84 0 16.04-7.2 16.04-16.04V200.3c0-8.84-7.2-16.04-16.04-16.04z" fill="#23130D" opacity=".2" p-id="36687"></path><path d="M769.34 271.84H254.66c-5.52 0-10 4.48-10 10v652.4c0 5.54 4.48 10 10 10h378.16c0.64 0 1.26-0.06 1.9-0.18 0.36-0.08 0.72-0.22 1.08-0.34 0.26-0.08 0.52-0.14 0.78-0.24 0.4-0.16 0.78-0.4 1.16-0.62 0.18-0.1 0.38-0.18 0.56-0.3 0.56-0.36 1.06-0.78 1.54-1.26l136.56-136.56 0.06-0.06c0.38-0.4 0.74-0.84 1.06-1.28 0.1-0.16 0.18-0.3 0.28-0.46 0.22-0.36 0.42-0.72 0.6-1.08 0.08-0.18 0.16-0.36 0.22-0.54 0.2-0.48 0.34-0.96 0.46-1.46 0.02-0.06 0.04-0.14 0.06-0.22 0.12-0.58 0.16-1.18 0.18-1.78 0-0.06 0.02-0.12 0.02-0.2V281.84c0-5.52-4.48-10-10-10z m-126.58 638.26v-102.44h102.44l-102.44 102.44z m116.58-122.44h-126.58c-5.54 0-10 4.48-10 10v126.58H264.66v-632.4h494.68v495.82z" fill="#23130D" p-id="36688"></path><path d="M745.2 807.66l-102.44 102.44v-102.44z" fill="#636368" p-id="36689"></path><path d="M745.2 807.66l-102.44 102.44v-41.72l60.72-60.72z" fill="#23130D" opacity=".2" p-id="36690"></path><path d="M264.66 291.84v632.4h358.1v-126.58c0-5.52 4.46-10 10-10h126.58V291.84H264.66z m161 43.56h172.68c5.52 0 10 4.48 10 10 0 5.54-4.48 10-10 10h-172.68c-5.52 0-10-4.46-10-10 0-5.52 4.48-10 10-10z m146.44 516.32H322.96c-5.54 0-10-4.48-10-10s4.46-10 10-10h249.14c5.52 0 10 4.48 10 10s-4.48 10-10 10z m0-45.12H322.96c-5.54 0-10-4.48-10-10s4.46-10 10-10h249.14c5.52 0 10 4.48 10 10s-4.48 10-10 10z m0-45.12H322.96c-5.54 0-10-4.48-10-10s4.46-10 10-10h249.14c5.52 0 10 4.48 10 10s-4.48 10-10 10z m128.94-45.12H322.96c-5.54 0-10-4.48-10-10s4.46-10 10-10h378.08c5.54 0 10 4.48 10 10s-4.46 10-10 10z m0-45.12H322.96c-5.54 0-10-4.48-10-10s4.46-10 10-10h378.08c5.54 0 10 4.48 10 10s-4.46 10-10 10z m0-45.12H322.96c-5.54 0-10-4.48-10-10s4.46-10 10-10h378.08c5.54 0 10 4.48 10 10s-4.46 10-10 10z m0-45.12H322.96c-5.54 0-10-4.48-10-10s4.46-10 10-10h378.08c5.54 0 10 4.48 10 10s-4.46 10-10 10z m0-45.12H322.96c-5.54 0-10-4.48-10-10s4.46-10 10-10h378.08c5.54 0 10 4.48 10 10s-4.46 10-10 10z m0-45.12H322.96c-5.54 0-10-4.48-10-10s4.46-10 10-10h378.08c5.54 0 10 4.48 10 10s-4.46 10-10 10z m0-45.12H322.96c-5.54 0-10-4.48-10-10s4.46-10 10-10h378.08c5.54 0 10 4.48 10 10s-4.46 10-10 10z m0-45.12H322.96c-5.54 0-10-4.46-10-10 0-5.52 4.46-10 10-10h378.08c5.54 0 10 4.48 10 10 0 5.54-4.46 10-10 10z" fill="#E1E1E5" p-id="36691"></path><path d="M608.34 345.4c0 5.54-4.48 10-10 10h-172.68c-5.52 0-10-4.46-10-10 0-5.52 4.48-10 10-10h172.68c5.52 0 10 4.48 10 10zM711.04 390.52c0 5.54-4.46 10-10 10H322.96c-5.54 0-10-4.46-10-10 0-5.52 4.46-10 10-10h378.08c5.54 0 10 4.48 10 10zM711.04 435.64c0 5.52-4.46 10-10 10H322.96c-5.54 0-10-4.48-10-10s4.46-10 10-10h378.08c5.54 0 10 4.48 10 10zM711.04 480.76c0 5.52-4.46 10-10 10H322.96c-5.54 0-10-4.48-10-10s4.46-10 10-10h378.08c5.54 0 10 4.48 10 10zM711.04 525.88c0 5.52-4.46 10-10 10H322.96c-5.54 0-10-4.48-10-10s4.46-10 10-10h378.08c5.54 0 10 4.48 10 10zM711.04 571c0 5.52-4.46 10-10 10H322.96c-5.54 0-10-4.48-10-10s4.46-10 10-10h378.08c5.54 0 10 4.48 10 10zM711.04 616.12c0 5.52-4.46 10-10 10H322.96c-5.54 0-10-4.48-10-10s4.46-10 10-10h378.08c5.54 0 10 4.48 10 10zM711.04 661.24c0 5.52-4.46 10-10 10H322.96c-5.54 0-10-4.48-10-10s4.46-10 10-10h378.08c5.54 0 10 4.48 10 10zM711.04 706.36c0 5.52-4.46 10-10 10H322.96c-5.54 0-10-4.48-10-10s4.46-10 10-10h378.08c5.54 0 10 4.48 10 10zM582.1 796.6c0 5.52-4.48 10-10 10H322.96c-5.54 0-10-4.48-10-10s4.46-10 10-10h249.14c5.52 0 10 4.48 10 10zM582.1 841.72c0 5.52-4.48 10-10 10H322.96c-5.54 0-10-4.48-10-10s4.46-10 10-10h249.14c5.52 0 10 4.48 10 10zM582.1 751.48c0 5.52-4.48 10-10 10H322.96c-5.54 0-10-4.48-10-10s4.46-10 10-10h249.14c5.52 0 10 4.48 10 10z" fill="#23130D" p-id="36692"></path></svg>