<?xml version="1.0" standalone="no"?><!DOCTYPE svg PUBLIC "-//W3C//DTD SVG 1.1//EN" "http://www.w3.org/Graphics/SVG/1.1/DTD/svg11.dtd"><svg t="1625812497797" class="icon" viewBox="0 0 1024 1024" version="1.1" xmlns="http://www.w3.org/2000/svg" p-id="106971" xmlns:xlink="http://www.w3.org/1999/xlink" width="200" height="200"><defs><style type="text/css"></style></defs><path d="M512 150.08c-163.84 0-297.16 133.3-297.16 297.16 0 57.34 16.36 113 47.32 160.96 29 44.9 69.36 81.04 116.98 104.86v20.1h-18.18c-5.52 0-10 4.46-10 10 0 5.52 4.48 10 10 10h18.18v177.56c0 5.52 4.48 10 10 10h53.04v37.46c0 5.52 4.48 10 10 10h119.68c5.52 0 10-4.48 10-10v-37.46h53.02c5.52 0 10-4.48 10-10v-52.2h18.18c5.54 0 10-4.48 10-10s-4.46-10-10-10h-18.18v-40.88h18.18c5.54 0 10-4.48 10-10s-4.46-10-10-10h-18.18v-44.48h18.18c5.54 0 10-4.48 10-10 0-5.54-4.46-10-10-10h-18.18v-20.1a297.926 297.926 0 0 0 116.98-104.86c30.96-47.96 47.32-103.62 47.32-160.96 0-163.86-133.32-297.16-297.18-297.16z m49.86 818.1h-99.68v-27.46h99.68v27.46z m63.02-170.54h-140c-5.52 0-10 4.48-10 10s4.48 10 10 10h140v40.88h-140c-5.52 0-10 4.48-10 10s4.48 10 10 10h140v42.2H399.14v-167.56h225.74v44.48zM469.44 511h-51.88V494c0-14.3 11.64-25.94 25.94-25.94s25.94 11.64 25.94 25.94v17z m20 222.16V531h45.12v202.16h-45.12z m141.16-35.34c-0.2 0.1-0.36 0.24-0.54 0.34-0.34 0.18-0.68 0.36-0.98 0.58-0.26 0.18-0.48 0.4-0.72 0.6-0.26 0.22-0.5 0.42-0.74 0.66-0.22 0.24-0.4 0.5-0.6 0.76-0.2 0.24-0.4 0.5-0.58 0.78-0.16 0.26-0.3 0.54-0.44 0.82a7 7 0 0 0-0.7 1.82c-0.1 0.3-0.18 0.6-0.24 0.92-0.06 0.36-0.08 0.74-0.12 1.1 0 0.22-0.06 0.44-0.06 0.66v26.3h-70.32V531h61.88c5.52 0 10-4.48 10-10V494c0-25.34-20.6-45.94-45.94-45.94s-45.94 20.6-45.94 45.94v17h-45.12V494c0-25.34-20.6-45.94-45.94-45.94s-45.94 20.6-45.94 45.94v27c0 5.52 4.48 10 10 10h61.88v202.16h-70.3v-26.3c0-0.24-0.04-0.46-0.06-0.68-0.04-0.36-0.04-0.72-0.12-1.06-0.06-0.34-0.14-0.66-0.24-0.98-0.08-0.3-0.16-0.58-0.28-0.88-0.12-0.32-0.28-0.62-0.42-0.92-0.14-0.28-0.28-0.54-0.44-0.8-0.18-0.28-0.38-0.54-0.58-0.8-0.2-0.24-0.38-0.5-0.6-0.72-0.24-0.26-0.5-0.48-0.74-0.7-0.24-0.2-0.46-0.4-0.72-0.58-0.3-0.22-0.64-0.4-0.98-0.6-0.18-0.1-0.34-0.22-0.54-0.32-96.34-45.66-158.58-144.02-158.58-250.58 0-152.82 124.34-277.16 277.16-277.16 152.84 0 277.18 124.34 277.18 277.16 0 106.56-62.26 204.92-158.58 250.58z m-76.04-186.82V494c0-14.3 11.64-25.94 25.94-25.94s25.94 11.64 25.94 25.94v17h-51.88z" fill="#23130D" p-id="106972"></path><path d="M462.18 940.72h99.68v27.46h-99.68z" fill="#636368" p-id="106973"></path><path d="M462.18 940.72H500v27.46h-37.82z" fill="#23130D" opacity=".2" p-id="106974"></path><path d="M474.88 807.64c0 5.52 4.48 10 10 10h140v40.88h-140c-5.52 0-10 4.48-10 10s4.48 10 10 10h140v42.2H399.14v-167.56h225.74v44.48h-140c-5.52 0-10 4.48-10 10z" fill="#E1E1E5" p-id="106975"></path><path d="M606.44 494v17h-51.88V494c0-14.3 11.64-25.94 25.94-25.94s25.94 11.64 25.94 25.94zM469.44 494v17h-51.88V494c0-14.3 11.64-25.94 25.94-25.94s25.94 11.64 25.94 25.94zM489.44 531h45.12v202.16h-45.12z" fill="#F9C139" p-id="106976"></path><path d="M512 170.08c-152.82 0-277.16 124.34-277.16 277.16 0 106.56 62.24 204.92 158.58 250.58 0.2 0.1 0.36 0.22 0.54 0.32 0.34 0.2 0.68 0.38 0.98 0.6 0.26 0.18 0.48 0.38 0.72 0.58 0.24 0.22 0.5 0.44 0.74 0.7 0.22 0.22 0.4 0.48 0.6 0.72 0.2 0.26 0.4 0.52 0.58 0.8 0.16 0.26 0.3 0.52 0.44 0.8 0.14 0.3 0.3 0.6 0.42 0.92 0.12 0.3 0.2 0.58 0.28 0.88 0.1 0.32 0.18 0.64 0.24 0.98 0.08 0.34 0.08 0.7 0.12 1.06 0.02 0.22 0.06 0.44 0.06 0.68v26.3h70.3V531h-61.88c-5.52 0-10-4.48-10-10V494c0-25.34 20.6-45.94 45.94-45.94s45.94 20.6 45.94 45.94v17h45.12V494c0-25.34 20.6-45.94 45.94-45.94s45.94 20.6 45.94 45.94v27c0 5.52-4.48 10-10 10h-61.88v202.16h70.32v-26.3c0-0.22 0.06-0.44 0.06-0.66 0.04-0.36 0.06-0.74 0.12-1.1 0.06-0.32 0.14-0.62 0.24-0.92a7 7 0 0 1 0.7-1.82c0.14-0.28 0.28-0.56 0.44-0.82 0.18-0.28 0.38-0.54 0.58-0.78 0.2-0.26 0.38-0.52 0.6-0.76 0.24-0.24 0.48-0.44 0.74-0.66 0.24-0.2 0.46-0.42 0.72-0.6 0.3-0.22 0.64-0.4 0.98-0.58 0.18-0.1 0.34-0.24 0.54-0.34 96.32-45.66 158.58-144.02 158.58-250.58 0-152.82-124.34-277.16-277.18-277.16z m-8.64 168.56h19.38c24.02 0 43.58 19.56 43.58 43.6 0 23.94-19.38 43.42-43.28 43.58v27.76c0 5.52-4.48 10-10 10s-10-4.48-10-10v-27.74h-33.28c-5.52 0-10-4.48-10-10 0-5.54 4.48-10 10-10h52.98c13 0 23.58-10.6 23.58-23.6 0-13.02-10.58-23.6-23.58-23.6h-19.38c-24.04 0-43.6-19.56-43.6-43.6 0-23.94 19.38-43.42 43.28-43.58v-27.76c0-5.52 4.48-10 10-10s10 4.48 10 10v27.74h33.28c5.52 0 10 4.48 10 10s-4.48 10-10 10h-52.96c-13.02 0-23.6 10.6-23.6 23.6 0 13.02 10.58 23.6 23.6 23.6z" fill="#F9C139" p-id="106977"></path><path d="M441.52 705.12c-0.06-0.34-0.16-0.66-0.24-0.98-0.08-0.3-0.16-0.58-0.3-0.88-0.12-0.32-0.26-0.62-0.4-0.92-0.14-0.28-0.28-0.54-0.44-0.8-0.18-0.28-0.38-0.54-0.58-0.8-0.2-0.24-0.38-0.5-0.6-0.72-0.24-0.26-0.5-0.48-0.74-0.7-0.24-0.2-0.46-0.4-0.74-0.58-0.28-0.22-0.62-0.4-0.96-0.6-0.18-0.1-0.34-0.22-0.54-0.32-96.34-45.66-158.58-144.02-158.58-250.58 0-145.66 112.96-265.44 255.86-276.36-7.02-0.52-14.1-0.8-21.26-0.8-152.82 0-277.16 124.34-277.16 277.16 0 106.56 62.24 204.92 158.58 250.58 0.2 0.1 0.36 0.22 0.54 0.32 0.34 0.2 0.68 0.38 0.98 0.6 0.26 0.18 0.48 0.38 0.72 0.58 0.24 0.22 0.5 0.44 0.74 0.7 0.22 0.22 0.4 0.48 0.6 0.72 0.2 0.26 0.4 0.52 0.58 0.8 0.16 0.26 0.3 0.52 0.44 0.8 0.14 0.3 0.3 0.6 0.42 0.92 0.12 0.3 0.2 0.58 0.28 0.88 0.1 0.32 0.18 0.64 0.24 0.98 0.08 0.34 0.08 0.7 0.12 1.06 0.02 0.22 0.06 0.44 0.06 0.68v26.3h42.56v-26.3c0-0.24-0.04-0.46-0.06-0.68-0.04-0.36-0.04-0.72-0.12-1.06z" fill="#23130D" opacity=".2" p-id="106978"></path><path d="M512.01 101.112a10 10 0 0 0 10-10V45.828a10 10 0 1 0-20 0v45.284a10 10 0 0 0 10 10zM328.112 143.062a9.996 9.996 0 0 0 13.662 3.658 10.004 10.004 0 0 0 3.66-13.662l-22.642-39.21a10.002 10.002 0 0 0-17.322 10.002l22.642 39.212zM164.264 252.368l39.214 22.65a9.992 9.992 0 0 0 13.66-3.658 10 10 0 0 0-3.658-13.662l-39.214-22.65a10.004 10.004 0 0 0-13.662 3.658 10.004 10.004 0 0 0 3.66 13.662zM171.52 441.6a10 10 0 0 0-10-10H116.236a10 10 0 0 0 0 20H161.52a10 10 0 0 0 10-10zM203.486 608.184l-39.224 22.62a10 10 0 1 0 9.99 17.324l39.224-22.62a10 10 0 1 0-9.99-17.324zM859.744 630.814l-39.212-22.62a9.996 9.996 0 0 0-13.658 3.666 9.998 9.998 0 0 0 3.666 13.658l39.212 22.62a9.994 9.994 0 0 0 13.658-3.666 9.998 9.998 0 0 0-3.666-13.658zM907.764 431.61h-45.266a10 10 0 1 0 0 20h45.266a10 10 0 1 0 0-20zM815.552 276.36c1.698 0 3.418-0.432 4.992-1.342l39.206-22.646a10 10 0 1 0-10.004-17.32l-39.206 22.646a9.998 9.998 0 0 0-3.656 13.662 9.994 9.994 0 0 0 8.668 5zM682.26 146.726a10 10 0 0 0 13.66-3.658l22.642-39.208a10.002 10.002 0 0 0-17.32-10.002L678.6 133.066a10 10 0 0 0 3.66 13.66zM566.32 382.24c0 23.94-19.38 43.42-43.28 43.58v27.76c0 5.52-4.48 10-10 10s-10-4.48-10-10v-27.74h-33.28c-5.52 0-10-4.48-10-10 0-5.54 4.48-10 10-10h52.98c13 0 23.58-10.6 23.58-23.6 0-13.02-10.58-23.6-23.58-23.6h-19.38c-24.04 0-43.6-19.56-43.6-43.6 0-23.94 19.38-43.42 43.28-43.58v-27.76c0-5.52 4.48-10 10-10s10 4.48 10 10v27.74h33.28c5.52 0 10 4.48 10 10s-4.48 10-10 10h-52.96c-13.02 0-23.6 10.6-23.6 23.6 0 13.02 10.58 23.6 23.6 23.6h19.38c24.02 0 43.58 19.56 43.58 43.6z" fill="#23130D" p-id="106979"></path><path d="M399.14 753.16h44.36v167.56h-44.36z" fill="#23130D" opacity=".2" p-id="106980"></path><path d="M765 455a10 10 0 0 1-10-10c0-133.416-108.542-241.96-241.96-241.96a10 10 0 0 1 0-20c144.446 0 261.96 117.514 261.96 261.96a10 10 0 0 1-10 10z" fill="#FFFFFF" p-id="106981"></path></svg>