<?xml version="1.0" standalone="no"?><!DOCTYPE svg PUBLIC "-//W3C//DTD SVG 1.1//EN" "http://www.w3.org/Graphics/SVG/1.1/DTD/svg11.dtd"><svg t="1625812372437" class="icon" viewBox="0 0 1024 1024" version="1.1" xmlns="http://www.w3.org/2000/svg" p-id="62938" xmlns:xlink="http://www.w3.org/1999/xlink" width="200" height="200"><defs><style type="text/css"></style></defs><path d="M933.88 692.4c-14.06-20.1-43.98-27.56-68.16-17l-65.42 26.98c-50.22-37.74-115.74-59.22-186.08-61.08v-59.66l62.2-34.78c17.96 23.62 46.36 38.92 78.28 38.92 54.22 0 98.34-44.12 98.34-98.34 0-54.22-44.12-98.34-98.34-98.34-54.22 0-98.34 44.12-98.34 98.34 0 15.16 3.46 29.52 9.6 42.34l-51.74 28.94V306.24c0-5.52-4.48-10-10-10s-10 4.48-10 10v253.64l-54.3-30.36a97.668 97.668 0 0 0 9.48-42.08c0-54.22-44.1-98.34-98.34-98.34-54.22 0-98.32 44.12-98.32 98.34 0 54.22 44.1 98.34 98.32 98.34 32.02 0 60.52-15.4 78.48-39.16l64.68 36.18v58.52c-61.6 1.68-120.78 18.86-168.22 48.82-25.04-7.42-59.54-11.76-94.8-11.76h-62.2v-16.68c0-18.02-14.68-32.7-32.72-32.7h-33.5v-14.58c0-5.52-4.48-10-10-10H92.52c-5.52 0-10 4.48-10 10v368.88c0 5.54 4.48 10 10 10h100.26c5.52 0 10-4.46 10-10v-19.24h33.5c18.04 0 32.72-14.66 32.72-32.7v-21.26l265.56 61.62c5.62 1.22 11.84 1.8 18.34 1.8 20.82 0 44.46-5.96 59.98-15.96l305.92-200.8c11.38-7.34 19.34-18.82 21.84-31.5 2.3-11.68-0.1-23.34-6.76-32.86z m-179.18-283.3c43.2 0 78.34 35.14 78.34 78.34s-35.14 78.34-78.34 78.34c-27.16 0-51.14-13.92-65.2-34.96-0.2-0.78-0.48-1.52-0.88-2.24-0.54-0.96-1.24-1.76-2-2.46a77.776 77.776 0 0 1-10.26-38.68c0-43.2 35.14-78.34 78.34-78.34z m-303.64 156.68c-43.18 0-78.32-35.14-78.32-78.34s35.14-78.34 78.32-78.34c43.2 0 78.34 35.14 78.34 78.34s-35.14 78.34-78.34 78.34zM182.78 973.3H102.52V624.42h80.26v348.88z m66.22-285.02c-0.02 0.04-0.02 0.06-0.02 0.1s0 0.08 0.02 0.1V897.2c-0.02 0.06 0 0.1 0 0.14v34.02c0 7-5.7 12.7-12.72 12.7h-33.5V649h33.5c7.02 0 12.72 5.7 12.72 12.7v26.58z m355.22-27.12c65.28 0 126.44 17.72 174.28 50.22l-73.86 30.48c-6.76-20.16-26.06-34.54-48.74-34.54H513.2c-16.76 0-41.86-3.82-61.66-9.04 44.2-24.04 97.58-37.12 152.68-37.12z m316.8 60.24c-1.46 7.38-6.2 14.14-13.12 18.6L601.98 940.8c-15.82 10.18-44.74 15.4-63.02 11.42L269 889.56v-191.18h62.2c37.66 0 74.02 5.1 97.3 13.62l0.8 0.32c0.08 0.04 0.18 0.08 0.28 0.1 22.34 8.22 59.84 14.9 83.62 14.9h142.7c16.76 0 30.52 12.7 31.3 29.02 0.04 0.44 0.04 0.88 0.04 1.32 0 1.96-0.18 3.84-0.58 5.78-2.86 14.22-15.8 24.54-30.76 24.54h-142.48c-4.18-0.18-42.48-0.92-74.32 26.58a9.984 9.984 0 0 0-1.02 14.1 9.924 9.924 0 0 0 7.56 3.46c2.32 0 4.66-0.8 6.54-2.44 26.72-23.08 60.16-21.74 60.46-21.72 0.18 0.02 0.38 0.02 0.56 0.02h142.7c24.44 0 45.62-17.06 50.38-40.58 0.32-1.62 0.56-3.26 0.72-4.88l166.46-68.68c0.06-0.02 0.14-0.06 0.2-0.08 15.24-6.7 35.32-2.08 43.82 10.1 3.52 5.02 4.78 11.26 3.54 17.54z" fill="#23130D" p-id="62939"></path><path d="M754.7 409.1c-43.2 0-78.34 35.14-78.34 78.34 0 14.06 3.74 27.26 10.26 38.68 0.76 0.7 1.46 1.5 2 2.46 0.4 0.72 0.68 1.46 0.88 2.24 14.06 21.04 38.04 34.96 65.2 34.96 43.2 0 78.34-35.14 78.34-78.34s-35.14-78.34-78.34-78.34z m-5.2 68.34h10.38c15.4 0 27.96 12.54 27.96 27.96 0 13.78-10.02 25.22-23.16 27.52v10.62c0 5.52-4.46 10-10 10-5.52 0-10-4.48-10-10v-10.18h-13.14c-5.52 0-10-4.48-10-10s4.48-10 10-10h28.34c4.38 0 7.96-3.56 7.96-7.96s-3.58-7.96-7.96-7.96h-10.38c-15.42 0-27.96-12.56-27.96-27.96 0-13.78 10.02-25.24 23.14-27.52v-10.64c0-5.52 4.48-10 10-10 5.54 0 10 4.48 10 10v10.18h13.16c5.52 0 10 4.48 10 10s-4.48 10-10 10h-28.34c-4.38 0-7.96 3.58-7.96 7.98a7.98 7.98 0 0 0 7.96 7.96zM451.06 409.1c-43.18 0-78.32 35.14-78.32 78.34s35.14 78.34 78.32 78.34c43.2 0 78.34-35.14 78.34-78.34s-35.14-78.34-78.34-78.34z m-5.18 68.34h10.36c15.42 0 27.96 12.54 27.96 27.96 0 13.78-10.02 25.22-23.14 27.52v10.62c0 5.52-4.48 10-10 10s-10-4.48-10-10v-10.18h-13.14c-5.52 0-10-4.48-10-10s4.48-10 10-10h28.32c4.4 0 7.96-3.56 7.96-7.96s-3.56-7.96-7.96-7.96h-10.36c-15.42 0-27.96-12.56-27.96-27.96 0-13.78 10.02-25.24 23.14-27.52v-10.64c0-5.52 4.48-10 10-10s10 4.48 10 10v10.18h13.14c5.52 0 10 4.48 10 10s-4.48 10-10 10h-28.32a7.972 7.972 0 0 0 0 15.94z" fill="#F9C139" p-id="62940"></path><path d="M463.6 553.24c-2.92 0-5.8-0.16-8.64-0.48-1.2 0.5-2.52 0.78-3.9 0.78-2.64 0-5.02-1.02-6.8-2.7-33.86-8.64-58.98-39.42-58.98-75.94 0-18.4 6.36-35.32 17.02-48.7-18 14.34-29.56 36.46-29.56 61.24 0 43.2 35.14 78.34 78.32 78.34 24.8 0 46.92-11.58 61.28-29.6a77.9 77.9 0 0 1-48.74 17.06zM767.22 553.24c-2.92 0-5.8-0.16-8.64-0.48-1.2 0.5-2.52 0.78-3.9 0.78-2.64 0-5.02-1.02-6.8-2.7-33.86-8.64-58.98-39.42-58.98-75.94 0-18.4 6.36-35.32 17.02-48.7-18 14.34-29.56 36.46-29.56 61.24 0 43.2 35.14 78.34 78.32 78.34 24.8 0 46.92-11.58 61.28-29.6a77.9 77.9 0 0 1-48.74 17.06z" fill="#23130D" opacity=".2" p-id="62941"></path><path d="M778.5 711.38l-73.86 30.48c-6.76-20.16-26.06-34.54-48.74-34.54H513.2c-16.76 0-41.86-3.82-61.66-9.04 44.2-24.04 97.58-37.12 152.68-37.12 65.28 0 126.44 17.72 174.28 50.22z" fill="#CC7B5A" p-id="62942"></path><path d="M778.5 711.38l-20.46 8.44c-44.28-24.48-97.52-37.66-153.82-37.66-42.62 0-84.22 7.82-121.32 22.5-10.66-1.58-21.64-3.82-31.36-6.38 44.2-24.04 97.58-37.12 152.68-37.12 65.28 0 126.44 17.72 174.28 50.22z" fill="#23130D" opacity=".2" p-id="62943"></path><path d="M102.52 624.42h80.26v348.88H102.52z" fill="#3594BF" p-id="62944"></path><path d="M162.334 624.42H182.78v348.88H162.334z" fill="#FFFFFF" opacity=".4" p-id="62945"></path><path d="M249 688.28c-0.02 0.04-0.02 0.06-0.02 0.1s0 0.08 0.02 0.1V897.2c-0.02 0.06 0 0.1 0 0.14v34.02c0 7-5.7 12.7-12.72 12.7h-33.5V649h33.5c7.02 0 12.72 5.7 12.72 12.7v26.58z" fill="#E1E1E5" p-id="62946"></path><path d="M202.78 649h20v295.06h-20z" fill="#23130D" opacity=".2" p-id="62947"></path><path d="M921.02 721.4c-1.46 7.38-6.2 14.14-13.12 18.6L601.98 940.8c-15.82 10.18-44.74 15.4-63.02 11.42L269 889.56v-191.18h62.2c37.66 0 74.02 5.1 97.3 13.62l0.8 0.32c0.08 0.04 0.18 0.08 0.28 0.1 22.34 8.22 59.84 14.9 83.62 14.9h142.7c16.76 0 30.52 12.7 31.3 29.02 0.04 0.44 0.04 0.88 0.04 1.32 0 1.96-0.18 3.84-0.58 5.78-2.86 14.22-15.8 24.54-30.76 24.54h-142.48c-4.18-0.18-42.48-0.92-74.32 26.58a9.984 9.984 0 0 0-1.02 14.1 9.924 9.924 0 0 0 7.56 3.46c2.32 0 4.66-0.8 6.54-2.44 26.72-23.08 60.16-21.74 60.46-21.72 0.18 0.02 0.38 0.02 0.56 0.02h142.7c24.44 0 45.62-17.06 50.38-40.58 0.32-1.62 0.56-3.26 0.72-4.88l166.46-68.68c0.06-0.02 0.14-0.06 0.2-0.08 15.24-6.7 35.32-2.08 43.82 10.1 3.52 5.02 4.78 11.26 3.54 17.54z" fill="#F8D3C9" p-id="62948"></path><path d="M921.02 721.4c-1.46 7.38-6.2 14.14-13.12 18.6L601.98 940.8c-15.82 10.18-44.74 15.4-63.02 11.42L269 889.56v-29.52l269.96 62.66c18.28 3.98 47.2-1.24 63.02-11.42l305.92-200.8c3.4-2.2 6.28-4.94 8.48-8.04 0.4 0.46 0.76 0.94 1.1 1.42 3.52 5.02 4.78 11.26 3.54 17.54z" fill="#23130D" opacity=".2" p-id="62949"></path><path d="M484.2 505.4c0 13.78-10.02 25.22-23.14 27.52v10.62c0 5.52-4.48 10-10 10s-10-4.48-10-10v-10.18h-13.14c-5.52 0-10-4.48-10-10s4.48-10 10-10h28.32c4.4 0 7.96-3.56 7.96-7.96s-3.56-7.96-7.96-7.96h-10.36c-15.42 0-27.96-12.56-27.96-27.96 0-13.78 10.02-25.24 23.14-27.52v-10.64c0-5.52 4.48-10 10-10s10 4.48 10 10v10.18h13.14c5.52 0 10 4.48 10 10s-4.48 10-10 10h-28.32a7.972 7.972 0 0 0 0 15.94h10.36c15.42 0 27.96 12.54 27.96 27.96zM787.84 505.4c0 13.78-10.02 25.22-23.16 27.52v10.62c0 5.52-4.46 10-10 10-5.52 0-10-4.48-10-10v-10.18h-13.14c-5.52 0-10-4.48-10-10s4.48-10 10-10h28.34c4.38 0 7.96-3.56 7.96-7.96s-3.58-7.96-7.96-7.96h-10.38c-15.42 0-27.96-12.56-27.96-27.96 0-13.78 10.02-25.24 23.14-27.52v-10.64c0-5.52 4.48-10 10-10 5.54 0 10 4.48 10 10v10.18h13.16c5.52 0 10 4.48 10 10s-4.48 10-10 10h-28.34c-4.38 0-7.96 3.58-7.96 7.98a7.98 7.98 0 0 0 7.96 7.96h10.38c15.4 0 27.96 12.54 27.96 27.96zM576.76 337.72c0-0.22-0.04-0.44-0.08-0.66-0.02-0.12 0-0.22-0.02-0.36-10.84-57.54-35.52-97.26-73.4-118.04-60.32-33.08-131.08-5.38-134.06-4.18-0.22 0.08-0.4 0.2-0.6 0.3-0.32 0.16-0.62 0.3-0.92 0.48-0.28 0.18-0.54 0.38-0.8 0.58a7.012 7.012 0 0 0-1.42 1.32c-0.2 0.22-0.4 0.46-0.58 0.7-0.2 0.26-0.36 0.54-0.54 0.82-0.16 0.28-0.32 0.56-0.46 0.84-0.12 0.28-0.22 0.56-0.34 0.86-0.1 0.32-0.22 0.64-0.3 0.98-0.08 0.28-0.12 0.58-0.16 0.88-0.06 0.34-0.1 0.68-0.12 1.02-0.02 0.32 0 0.64 0.02 0.96 0 0.24-0.02 0.48 0 0.74 0.4 3.18 10.12 78.54 68.16 115.52 20.44 13.02 44.12 19.54 70.8 19.54 20.86 0 43.56-3.98 68-11.96 0.06-0.02 0.12-0.06 0.2-0.08 0.14-0.06 0.28-0.1 0.42-0.16 0.08-0.02 0.16-0.06 0.24-0.1 0.32-0.14 0.62-0.28 0.94-0.46 0.06-0.04 0.14-0.08 0.2-0.12l0.18-0.12a7.838 7.838 0 0 0 1.04-0.76c0.14-0.1 0.26-0.2 0.38-0.3 0.08-0.1 0.18-0.16 0.28-0.26 0.06-0.06 0.1-0.12 0.16-0.18 0.24-0.24 0.48-0.5 0.7-0.78 0.06-0.06 0.1-0.14 0.16-0.22a0.42 0.42 0 0 1 0.08-0.12c0.1-0.14 0.2-0.28 0.28-0.42 0.08-0.12 0.16-0.22 0.22-0.32s0.08-0.18 0.14-0.28c0.1-0.18 0.2-0.38 0.3-0.58 0.1-0.22 0.18-0.44 0.28-0.68 0.06-0.18 0.14-0.36 0.2-0.56 0.06-0.18 0.12-0.38 0.16-0.56 0.06-0.24 0.1-0.5 0.16-0.74 0.02-0.2 0.06-0.4 0.08-0.6 0.02-0.2 0.04-0.4 0.04-0.6 0.02-0.24 0.02-0.48 0.02-0.72-0.02-0.2-0.02-0.42-0.04-0.62z m-124.2-55.2l88.96 52.68c-39.76 9.04-73.18 5.22-99.52-11.52-39.92-25.36-53.72-74.14-57.72-93.2 18.64-5.66 68.04-17.02 109.48 5.78 27.34 15.06 46.76 42.52 57.94 81.72l-88.96-52.66a9.99 9.99 0 1 0-10.18 17.2z" fill="#23130D" p-id="62950"></path><path d="M452.56 282.52l88.96 52.68c-39.76 9.04-73.18 5.22-99.52-11.52-39.92-25.36-53.72-74.14-57.72-93.2 18.64-5.66 68.04-17.02 109.48 5.78 27.34 15.06 46.76 42.52 57.94 81.72l-88.96-52.66a9.99 9.99 0 1 0-10.18 17.2z" fill="#72AF5F" p-id="62951"></path><path d="M551.7 317.98l-6.32-3.74c-11.58-29.36-28.86-50.48-51.62-63.02-39.08-21.5-85.22-12.62-105.98-6.8a196.24 196.24 0 0 1-3.5-13.94c18.64-5.66 68.04-17.02 109.48 5.78 27.34 15.06 46.76 42.52 57.94 81.72z" fill="#FFFFFF" opacity=".4" p-id="62952"></path><path d="M541.52 335.326c-39.76 9.04-73.18 5.22-99.52-11.52-39.92-25.36-53.72-74.14-57.72-93.2 1.06-0.32 2.24-0.66 3.5-1.02 6.78 23.04 21.98 58.78 54.22 79.26 21.92 13.94 48.76 18.92 80.08 14.98l19.44 11.5z" fill="#23130D" opacity=".2" p-id="62953"></path><path d="M842.7 222.3c-0.04-0.32-0.1-0.64-0.18-0.96-0.08-0.32-0.18-0.62-0.28-0.92-0.12-0.32-0.22-0.62-0.36-0.9s-0.3-0.56-0.44-0.82c-0.18-0.28-0.34-0.58-0.54-0.84-0.18-0.24-0.38-0.46-0.58-0.7-0.22-0.26-0.46-0.5-0.7-0.74-0.24-0.2-0.48-0.4-0.74-0.58-0.26-0.2-0.52-0.4-0.8-0.58-0.3-0.18-0.6-0.32-0.92-0.48-0.2-0.1-0.38-0.22-0.58-0.3-3-1.2-73.74-28.9-134.06 4.18-37.88 20.78-62.58 60.5-73.4 118.04-0.04 0.14-0.02 0.24-0.04 0.36-0.04 0.22-0.06 0.44-0.08 0.66-0.02 0.2-0.02 0.42-0.02 0.62-0.02 0.24-0.02 0.48 0 0.72a6.044 6.044 0 0 0 0.14 1.2c0.04 0.24 0.08 0.5 0.14 0.74 0.06 0.18 0.1 0.38 0.16 0.56 0.06 0.2 0.14 0.38 0.2 0.56 0.1 0.24 0.18 0.46 0.28 0.68 0.1 0.2 0.2 0.4 0.32 0.58 0.04 0.1 0.06 0.18 0.12 0.28 0.06 0.1 0.14 0.2 0.22 0.32l0.3 0.42c0.02 0.04 0.04 0.08 0.08 0.12 0.04 0.08 0.08 0.16 0.14 0.22 0.22 0.28 0.46 0.54 0.72 0.78 0.04 0.06 0.1 0.12 0.14 0.18 0.1 0.1 0.2 0.18 0.3 0.26l0.36 0.3c0.2 0.18 0.42 0.34 0.66 0.5 0.12 0.1 0.24 0.18 0.38 0.26l0.18 0.12c0.08 0.04 0.14 0.08 0.2 0.12 0.32 0.18 0.64 0.32 0.96 0.46 0.08 0.04 0.14 0.08 0.22 0.1 0.14 0.06 0.28 0.1 0.42 0.16 0.08 0.02 0.14 0.06 0.22 0.08 24.42 7.98 47.12 11.96 67.98 11.96 26.68 0 50.36-6.52 70.82-19.54 58.02-36.98 67.76-112.34 68.14-115.52 0.02-0.22 0-0.42 0.02-0.64 0.02-0.36 0.04-0.72 0.02-1.08-0.02-0.32-0.08-0.62-0.12-0.94z m-78.82 101.3c-26.36 16.82-59.82 20.66-99.62 11.6l88.96-52.68a10.002 10.002 0 0 0 3.5-13.7c-2.8-4.76-8.94-6.32-13.7-3.5l-88.96 52.66c11.2-39.2 30.6-66.66 57.96-81.72 41.44-22.8 90.86-11.44 109.5-5.78-3.96 19.02-17.66 67.66-57.64 93.12z" fill="#23130D" p-id="62954"></path><path d="M821.52 230.48c-3.96 19.02-17.66 67.66-57.64 93.12-26.36 16.82-59.82 20.66-99.62 11.6l88.96-52.68a10.002 10.002 0 0 0 3.5-13.7c-2.8-4.76-8.94-6.32-13.7-3.5l-88.96 52.66c11.2-39.2 30.6-66.66 57.96-81.72 41.44-22.8 90.86-11.44 109.5-5.78z" fill="#72AF5F" p-id="62955"></path><path d="M673.68 150.72c-1.8-68.8-61.38-115.94-63.92-117.92-0.16-0.12-0.34-0.2-0.52-0.32-0.3-0.22-0.62-0.42-0.94-0.6-0.28-0.14-0.56-0.26-0.84-0.38-0.32-0.12-0.62-0.26-0.94-0.34-0.3-0.1-0.62-0.16-0.92-0.22-0.32-0.08-0.64-0.14-0.96-0.16-0.32-0.04-0.62-0.04-0.92-0.04-0.34 0-0.68 0-1.02 0.02-0.3 0.04-0.58 0.08-0.86 0.14-0.36 0.06-0.7 0.12-1.02 0.22-0.3 0.08-0.58 0.2-0.86 0.32-0.32 0.12-0.62 0.24-0.94 0.4-0.3 0.16-0.58 0.34-0.86 0.54-0.2 0.12-0.4 0.2-0.58 0.34-2.56 1.94-62.74 48.32-65.44 117.08-1.7 43.16 19.62 84.78 63.36 123.7 0.14 0.12 0.28 0.2 0.42 0.3 0.14 0.14 0.3 0.26 0.46 0.38 0.12 0.1 0.24 0.16 0.38 0.24 0.28 0.2 0.58 0.34 0.88 0.5 0.18 0.08 0.34 0.2 0.5 0.28 0.1 0.04 0.18 0.06 0.26 0.08 0.38 0.16 0.78 0.28 1.18 0.38 0.04 0.02 0.1 0.04 0.16 0.06l0.48 0.12c0.56 0.1 1.12 0.16 1.68 0.18 0.06 0 0.12 0.02 0.18 0.02h0.08c0.64 0 1.26-0.08 1.9-0.2 0.04 0 0.08 0 0.12-0.02 0.14-0.02 0.28-0.08 0.42-0.12 0.42-0.1 0.84-0.22 1.24-0.38 0.08-0.04 0.18-0.06 0.26-0.1 0.16-0.06 0.3-0.16 0.46-0.24 0.32-0.16 0.62-0.32 0.92-0.52 0.12-0.06 0.26-0.14 0.38-0.22 0.14-0.12 0.28-0.24 0.42-0.34 0.14-0.12 0.28-0.2 0.42-0.3 44.26-38.36 66.12-79.7 64.98-122.88z m-61.38 91.94l0.68-103.44c0.04-5.52-4.42-10.02-9.94-10.06h-0.06c-5.5 0-9.96 4.44-10 9.94l-0.68 103.44c-27.86-29.8-41.38-60.62-40.18-91.84 1.78-47.26 36.98-83.78 51.42-96.82 14.28 13.18 48.9 49.96 50.16 97.36 0.82 31.28-13.1 61.96-41.4 91.42z" fill="#23130D" p-id="62956"></path><path d="M612.3 242.66l0.68-103.44c0.04-5.52-4.42-10.02-9.94-10.06h-0.06c-5.5 0-9.96 4.44-10 9.94l-0.68 103.44c-27.86-29.8-41.38-60.62-40.18-91.84 1.78-47.26 36.98-83.78 51.42-96.82 14.28 13.18 48.9 49.96 50.16 97.36 0.82 31.28-13.1 61.96-41.4 91.42z" fill="#72AF5F" p-id="62957"></path><path d="M592.44 221.92l-0.14 20.62c-27.86-29.8-41.38-60.62-40.18-91.84 1.78-47.26 36.98-83.78 51.42-96.82 2.34 2.16 5.22 4.94 8.4 8.32-16.54 17.06-41.34 49.04-42.82 88.5-0.92 24.08 6.9 47.9 23.32 71.22z" fill="#FFFFFF" opacity=".4" p-id="62958"></path><path d="M612.44 222.28c16.76-23.14 24.9-46.9 24.26-71.04-1.06-39.64-25.44-71.86-41.76-89.04 3.26-3.38 6.22-6.16 8.6-8.32 14.28 13.18 48.9 49.96 50.16 97.36 0.82 31.28-13.1 61.96-41.4 91.42l0.14-20.38z" fill="#23130D" opacity=".2" p-id="62959"></path><path d="M654.06 317.98l6.32-3.74c11.58-29.36 28.86-50.48 51.62-63.02 39.08-21.5 85.22-12.62 105.98-6.8 1.6-5.5 2.72-10.28 3.5-13.94-18.64-5.66-68.04-17.02-109.48 5.78-27.34 15.06-46.76 42.52-57.94 81.72z" fill="#FFFFFF" opacity=".4" p-id="62960"></path><path d="M664.24 335.326c39.76 9.04 73.18 5.22 99.52-11.52 39.92-25.36 53.72-74.14 57.72-93.2-1.06-0.32-2.24-0.66-3.5-1.02-6.78 23.04-21.98 58.78-54.22 79.26-21.92 13.94-48.76 18.92-80.08 14.98l-19.44 11.5z" fill="#23130D" opacity=".2" p-id="62961"></path></svg>