<?xml version="1.0" standalone="no"?><!DOCTYPE svg PUBLIC "-//W3C//DTD SVG 1.1//EN" "http://www.w3.org/Graphics/SVG/1.1/DTD/svg11.dtd"><svg t="1625812055042" class="icon" viewBox="0 0 1024 1024" version="1.1" xmlns="http://www.w3.org/2000/svg" p-id="50765" xmlns:xlink="http://www.w3.org/1999/xlink" width="200" height="200"><defs><style type="text/css"></style></defs><path d="M957.54 584.24c-14.46-20.66-46.44-28.64-71.34-17.76l-170.88 70.5c-6.9-21.4-27.24-36.7-51.2-36.7h-150.86c-22.68 0-59.8-6.6-81.18-14.44l-0.86-0.34a1.388 1.388 0 0 0-0.26-0.1c-26.76-9.84-67.92-15.72-110.1-15.72h-66.34v-18.2c0-18.74-15.26-34-34-34h-36v-16c0-5.52-4.48-10-10-10h-106c-5.52 0-10 4.48-10 10v390c0 5.52 4.48 10 10 10h106c5.52 0 10-4.48 10-10v-20.92h36c18.74 0 34-15.26 34-34v-23.2l281.46 65.3c5.9 1.3 12.44 1.9 19.28 1.9 21.88 0 46.76-6.28 63.08-16.78l323.42-212.3c11.9-7.66 20.24-19.66 22.84-32.92 2.4-12.18-0.1-24.38-7.06-34.32zM164.52 881.48h-86v-370h86v370z m70-301.9c0 0.04-0.02 0.06-0.02 0.1 0 0.04 0.02 0.06 0.02 0.1v256.78c0 7.72-6.28 14-14 14h-36V537.48h36c7.72 0 14 6.28 14 14v28.1z m710.46 35.1c-1.56 7.96-6.68 15.26-14.12 20.04L607.42 847.02c-16.82 10.84-47.58 16.38-67.06 12.14l-285.84-66.34V589.68h66.34c39.88 0 78.4 5.4 103.06 14.44l0.86 0.34c0.1 0.04 0.18 0.08 0.28 0.1 23.56 8.66 63.12 15.72 88.2 15.72h150.86c18.04 0 32.84 13.66 33.68 31.24 0.04 0.46 0.04 0.94 0.04 1.4 0 2.1-0.2 4.14-0.62 6.22-3.08 15.3-17 26.4-33.1 26.4h-150.62c-4.32-0.16-44.66-1.02-78.2 27.96a10.01 10.01 0 0 0 6.54 17.58c2.32 0 4.66-0.8 6.54-2.44 28.44-24.58 64-23.12 64.32-23.1h151.42c25.58 0 47.74-17.84 52.7-42.46 0.36-1.78 0.62-3.6 0.8-5.42l176.3-72.74c0.06-0.02 0.14-0.06 0.2-0.08 16.34-7.18 37.88-2.2 47.02 10.86 3.82 5.46 5.18 12.2 3.84 18.98z" fill="#23130D" p-id="50766"></path><path d="M78.52 511.48h86v370h-86z" fill="#3594BF" p-id="50767"></path><path d="M234.52 579.58c0 0.04-0.02 0.06-0.02 0.1 0 0.04 0.02 0.06 0.02 0.1v256.78c0 7.72-6.28 14-14 14h-36V537.48h36c7.72 0 14 6.28 14 14v28.1z" fill="#E1E1E5" p-id="50768"></path><path d="M184.52 537.48h17v313.08h-17z" opacity=".2" p-id="50769"></path><path d="M944.98 614.68c-1.56 7.96-6.68 15.26-14.12 20.04L607.42 847.02c-16.82 10.84-47.58 16.38-67.06 12.14l-285.84-66.34V589.68h66.34c39.88 0 78.4 5.4 103.06 14.44l0.86 0.34c0.1 0.04 0.18 0.08 0.28 0.1 23.56 8.66 63.12 15.72 88.2 15.72h150.86c18.04 0 32.84 13.66 33.68 31.24 0.04 0.46 0.04 0.94 0.04 1.4 0 2.1-0.2 4.14-0.62 6.22-3.08 15.3-17 26.4-33.1 26.4h-150.62c-4.32-0.16-44.66-1.02-78.2 27.96a10.01 10.01 0 0 0 6.54 17.58c2.32 0 4.66-0.8 6.54-2.44 28.44-24.58 64-23.12 64.32-23.1h151.42c25.58 0 47.74-17.84 52.7-42.46 0.36-1.78 0.62-3.6 0.8-5.42l176.3-72.74c0.06-0.02 0.14-0.06 0.2-0.08 16.34-7.18 37.88-2.2 47.02 10.86 3.82 5.46 5.18 12.2 3.84 18.98z" fill="#F8D3C9" p-id="50770"></path><path d="M944.98 614.68c-1.56 7.96-6.68 15.26-14.12 20.04L607.42 847.02c-16.82 10.84-47.58 16.38-67.06 12.14l-285.84-66.34v-24.58l285.84 66.34c19.48 4.24 50.24-1.3 67.06-12.14l323.44-212.3c5.02-3.22 8.98-7.58 11.48-12.52 2.9 5.08 3.82 11.06 2.64 17.06z" opacity=".2" p-id="50771"></path><path d="M697.84 653.34c0 2.1-0.2 4.14-0.62 6.22-0.42 2.1-1.06 4.14-1.86 6.06-5.04-12.02-17.16-20.34-31.24-20.34h-150.86c-25.08 0-64.64-7.06-88.2-15.72-0.1-0.02-0.18-0.06-0.28-0.1l-0.86-0.34c-24.66-9.04-63.18-14.44-103.06-14.44h-66.34v-24.58h66.34c39.88 0 78.4 5.4 103.06 14.44l0.86 0.34c0.1 0.04 0.18 0.08 0.28 0.1 23.56 8.66 63.12 15.72 88.2 15.72h150.86c18.04 0 32.84 13.66 33.68 31.24 0.04 0.46 0.04 0.94 0.04 1.4z" fill="#FFFFFF" opacity=".7" p-id="50772"></path><path d="M659.06 366.22c0 30.08-24.46 54.54-54.52 54.54h-2.86v40.04c0 5.52-4.46 10-10 10-5.52 0-10-4.48-10-10v-40.04h-47.38c-5.52 0-10-4.48-10-10s4.48-10 10-10h70.24c19.04 0 34.52-15.5 34.52-34.54s-15.48-34.54-34.52-34.54h-25.7c-30.06 0-54.54-24.46-54.54-54.52 0-30.08 24.48-54.54 54.54-54.54h2.84V182.58c0-5.52 4.48-10 10-10 5.54 0 10 4.48 10 10v40.04h47.38c5.52 0 10 4.46 10 10 0 5.52-4.48 10-10 10h-70.22c-19.04 0-34.54 15.48-34.54 34.54 0 19.04 15.5 34.52 34.54 34.52h25.7c30.06 0 54.52 24.46 54.52 54.54z" fill="#23130D" p-id="50773"></path><path d="M591.7 122.52c-109.82 0-199.16 89.36-199.16 199.18 0 109.82 89.34 199.16 199.16 199.16s199.18-89.34 199.18-199.16-89.36-199.18-199.18-199.18z m0 378.34c-98.78 0-179.16-80.38-179.16-179.16 0-98.8 80.38-179.18 179.16-179.18 98.8 0 179.18 80.38 179.18 179.18 0 98.78-80.38 179.16-179.18 179.16z" fill="#23130D" p-id="50774"></path><path d="M634.06 348.32l-0.02-0.02a34.78 34.78 0 0 0-11.6-11.6l-0.02-0.02c-5.22-3.16-11.34-5-17.88-5h-25.7c-4.4 0-8.7-0.52-12.8-1.54l61.66 61.68c6.98-6.34 11.36-15.46 11.36-25.6 0-6.54-1.82-12.68-5-17.9z m0 0l-0.02-0.02a34.78 34.78 0 0 0-11.6-11.6l-0.02-0.02c-5.22-3.16-11.34-5-17.88-5h-25.7c-4.4 0-8.7-0.52-12.8-1.54l61.66 61.68c6.98-6.34 11.36-15.46 11.36-25.6 0-6.54-1.82-12.68-5-17.9z m0 0l-0.02-0.02a34.78 34.78 0 0 0-11.6-11.6l-0.02-0.02c-5.22-3.16-11.34-5-17.88-5h-25.7c-4.4 0-8.7-0.52-12.8-1.54l61.66 61.68c6.98-6.34 11.36-15.46 11.36-25.6 0-6.54-1.82-12.68-5-17.9z m-42.36-205.8c-24.72 0-48.3 5.04-69.74 14.14a179.48 179.48 0 0 0-48.78 30.78c-8.82 7.8-16.88 16.46-24.02 25.84a177.56 177.56 0 0 0-18.3 29.54 171.892 171.892 0 0 0-7.26 16.94 176.278 176.278 0 0 0-10.74 51.52c-0.22 3.44-0.32 6.92-0.32 10.42 0 98.78 80.38 179.16 179.16 179.16 3.5 0 6.98-0.1 10.42-0.32 18.02-1.02 35.32-4.72 51.52-10.74 5.8-2.12 11.46-4.56 16.94-7.26a177.56 177.56 0 0 0 29.54-18.3 179.34 179.34 0 0 0 25.84-24.04 179.07 179.07 0 0 0 30.78-48.76c9.1-21.44 14.14-45.02 14.14-69.74 0-98.8-80.38-179.18-179.18-179.18z m-43.9 119.54a34.14 34.14 0 0 0-3.5 15.1c0 19.04 15.5 34.52 34.54 34.52h25.7c30.06 0 54.52 24.46 54.52 54.54 0 2.26-0.14 4.5-0.42 6.68a54.22 54.22 0 0 1-16.8 33.04c-8.84 8.32-20.42 13.72-33.22 14.64-1.34 0.12-2.7 0.18-4.08 0.18h-2.86v40.04c0 5.52-4.46 10-10 10-5.52 0-10-4.48-10-10v-40.04h-47.38c-5.52 0-10-4.48-10-10s4.48-10 10-10h70.24c8.9 0 17.02-3.4 23.16-8.94 6.98-6.34 11.36-15.46 11.36-25.6 0-6.54-1.82-12.68-5-17.9l-0.02-0.02a34.78 34.78 0 0 0-11.6-11.6l-0.02-0.02c-5.22-3.16-11.34-5-17.88-5h-25.7c-4.4 0-8.7-0.52-12.8-1.54-19.8-4.76-35.44-20.4-40.22-40.2-1-4.1-1.52-8.38-1.52-12.78 0-10.96 3.26-21.18 8.86-29.74 9.72-14.92 26.58-24.8 45.68-24.8h2.84V182.58c0-5.52 4.48-10 10-10 5.54 0 10 4.48 10 10v40.04h47.38c5.52 0 10 4.46 10 10 0 5.52-4.48 10-10 10h-70.22c-13.62 0-25.44 7.94-31.04 19.44z m86.26 86.26l-0.02-0.02a34.78 34.78 0 0 0-11.6-11.6l-0.02-0.02c-5.22-3.16-11.34-5-17.88-5h-25.7c-4.4 0-8.7-0.52-12.8-1.54l61.66 61.68c6.98-6.34 11.36-15.46 11.36-25.6 0-6.54-1.82-12.68-5-17.9z m0 0l-0.02-0.02a34.78 34.78 0 0 0-11.6-11.6l-0.02-0.02c-5.22-3.16-11.34-5-17.88-5h-25.7c-4.4 0-8.7-0.52-12.8-1.54l61.66 61.68c6.98-6.34 11.36-15.46 11.36-25.6 0-6.54-1.82-12.68-5-17.9z m0 0l-0.02-0.02a34.78 34.78 0 0 0-11.6-11.6l-0.02-0.02c-5.22-3.16-11.34-5-17.88-5h-25.7c-4.4 0-8.7-0.52-12.8-1.54l61.66 61.68c6.98-6.34 11.36-15.46 11.36-25.6 0-6.54-1.82-12.68-5-17.9z" fill="#F9C139" p-id="50775"></path><path d="M591.7 152.52c93.286 0 169.18 75.894 169.18 169.18 0 93.276-75.894 169.16-169.18 169.16-93.276 0-169.16-75.884-169.16-169.16 0-93.286 75.884-169.18 169.16-169.18m-20.02 60.494c-32.23 3.574-57.38 30.978-57.38 64.146 0 35.576 28.952 64.52 64.54 64.52h25.7c13.52 0 24.52 11.008 24.52 24.54s-11 24.54-24.52 24.54h-70.24c-11.028 0-20 8.972-20 20s8.972 20 20 20h37.38v30.04c0 11.028 8.972 20 20 20s20-8.972 20-20v-30.432c32.23-3.564 57.38-30.974 57.38-64.148 0-35.588-28.944-64.54-64.52-64.54h-25.7c-13.532 0-24.54-11-24.54-24.52 0-13.532 11.008-24.54 24.54-24.54h70.22c11.028 0 20-8.972 20-20s-8.972-20-20-20h-37.38V182.58c0-11.028-8.972-20-20-20s-20 8.972-20 20v30.434m20.02-70.494c-98.78 0-179.16 80.38-179.16 179.18 0 98.78 80.38 179.16 179.16 179.16 98.8 0 179.18-80.38 179.18-179.16 0-98.8-80.38-179.18-179.18-179.18z m-12.86 189.16c-30.06 0-54.54-24.46-54.54-54.52 0-30.08 24.48-54.54 54.54-54.54h2.84V182.58c0-5.52 4.48-10 10-10 5.54 0 10 4.48 10 10v40.04h47.38c5.52 0 10 4.46 10 10 0 5.52-4.48 10-10 10h-70.22c-19.04 0-34.54 15.48-34.54 34.54 0 19.04 15.5 34.52 34.54 34.52h25.7c30.06 0 54.52 24.46 54.52 54.54s-24.46 54.54-54.52 54.54h-2.86v40.04c0 5.52-4.46 10-10 10-5.52 0-10-4.48-10-10v-40.04h-47.38c-5.52 0-10-4.48-10-10s4.48-10 10-10h70.24c19.04 0 34.52-15.5 34.52-34.54s-15.48-34.54-34.52-34.54h-25.7z" opacity=".2" p-id="50776"></path><path d="M653.64 489.8a176.278 176.278 0 0 1-51.52 10.74l-189.26-189.26c1.02-18.02 4.72-35.32 10.74-51.52l141 141h-30.3c-5.52 0-10 4.48-10 10s4.48 10 10 10h47.38v40.04c0 5.52 4.48 10 10 10 5.54 0 10-4.48 10-10v-22.96l51.96 51.96zM627.7 391.82c-6.14 5.54-14.26 8.94-23.16 8.94h-15.74l-157.94-157.94a177.56 177.56 0 0 1 18.3-29.54l76.66 76.66c4.78 19.8 20.42 35.44 40.22 40.2l61.66 61.68zM700.12 464.24a177.56 177.56 0 0 1-29.54 18.3l-61.96-61.96c12.8-0.92 24.38-6.32 33.22-14.64l58.28 58.3zM634.04 348.3l-11.6-11.6a34.78 34.78 0 0 1 11.6 11.6zM578.84 222.62c-19.1 0-35.96 9.88-45.68 24.8l-59.98-59.98a179.48 179.48 0 0 1 48.78-30.78l59.72 59.72v6.24h-2.84z" fill="#FFFFFF" opacity=".4" p-id="50777"></path><path d="M756.74 391.44a179.07 179.07 0 0 1-30.78 48.76l-67.32-67.3c0.28-2.18 0.42-4.42 0.42-6.68 0-30.08-24.46-54.54-54.52-54.54h-7.12l-49.62-49.62c5.6-11.5 17.42-19.44 31.04-19.44h29.08l148.82 148.82z" fill="#FFFFFF" opacity=".4" p-id="50778"></path><path d="M747.666 331.69a10 10 0 0 1-10-10c0-80.482-65.474-145.958-145.956-145.958a10 10 0 1 1 0-20c91.508 0 165.956 74.448 165.956 165.958a10 10 0 0 1-10 10z" fill="#FFFFFF" opacity=".8" p-id="50779"></path><path d="M145.666 511.48h18.854v370h-18.854z" fill="#FFFFFF" opacity=".4" p-id="50780"></path><path d="M78.52 511.48h18.854v370H78.52z" opacity=".2" p-id="50781"></path></svg>