<?xml version="1.0" standalone="no"?><!DOCTYPE svg PUBLIC "-//W3C//DTD SVG 1.1//EN" "http://www.w3.org/Graphics/SVG/1.1/DTD/svg11.dtd"><svg t="1625812494619" class="icon" viewBox="0 0 1024 1024" version="1.1" xmlns="http://www.w3.org/2000/svg" p-id="106816" xmlns:xlink="http://www.w3.org/1999/xlink" width="200" height="200"><defs><style type="text/css"></style></defs><path d="M567.62 38.68c-163.54 0-296.56 133.04-296.56 296.58v0.3c0.06 1.92 4.46 193.08-106.82 270.8-0.02 0-0.02 0.02-0.04 0.02-0.02 0.02-0.06 0.06-0.1 0.08-0.1 0.06-0.18 0.16-0.28 0.24-0.42 0.32-0.82 0.64-1.18 1-0.16 0.18-0.28 0.36-0.44 0.54-0.26 0.32-0.54 0.64-0.76 0.98-0.14 0.22-0.22 0.42-0.34 0.64-0.2 0.36-0.4 0.72-0.56 1.1-0.08 0.22-0.12 0.44-0.2 0.66-0.12 0.38-0.26 0.78-0.34 1.2-0.04 0.26-0.04 0.52-0.08 0.8-0.04 0.34-0.1 0.68-0.1 1.04v0.1c0.02 0.26 0.06 0.52 0.08 0.76 0.16 1.78 0.74 3.44 1.7 4.82 0.02 0.02 0.02 0.02 0.02 0.04 0.3 0.42 0.64 0.82 1 1.18 0.1 0.12 0.22 0.22 0.32 0.32 0.38 0.38 0.8 0.72 1.22 1.02 0.04 0.02 0.06 0.04 0.1 0.06a10.354 10.354 0 0 0 1.84 0.96c0.52 0.2 1.04 0.38 1.58 0.5 0.1 0.02 0.22 0.04 0.34 0.06 0.6 0.1 1.18 0.18 1.78 0.18h127.52v139.16c0 5.52 4.48 10 10 10h124.22v201.5c0 5.52 4.48 10 10 10h412.64c5.52 0 10-4.48 10-10V335.26c0-163.54-133.04-296.58-296.56-296.58z m276.56 926.64H803.4V605.56c0-5.52-4.48-10-10-10s-10 4.48-10 10v359.76h-38.64V659.34c0-5.52-4.48-10-10-10s-10 4.48-10 10v305.98h-38.66V719.56c0-5.52-4.48-10-10-10s-10 4.48-10 10v245.76h-38.66v-194.14c0-5.52-4.46-10-10-10-5.52 0-10 4.48-10 10v194.14H568.8v-144.68c0-5.52-4.48-10-10-10s-10 4.48-10 10v144.68h-38.66v-108.1c0-5.54-4.48-10-10-10s-10 4.46-10 10v108.1h-38.6V763.82c0-5.52-4.48-10-10-10h-124.22v-139.16c0-5.52-4.48-10-10-10H197.9c38.38-36.16 66.24-90.2 81.24-158.18 13.02-59.04 12.02-107.64 11.92-111.36 0.06-152.44 124.1-276.44 276.56-276.44 152.5 0 276.56 124.08 276.56 276.58v630.06z" fill="#23130D" p-id="106817"></path><path d="M567.62 58.68c-152.46 0-276.5 124-276.56 276.44 0.1 3.72 1.1 52.32-11.92 111.36-15 67.98-42.86 122.02-81.24 158.18h109.42c5.52 0 10 4.48 10 10v139.16h124.22c5.52 0 10 4.48 10 10v201.5h38.6v-108.1c0-5.54 4.48-10 10-10s10 4.46 10 10v108.1h38.66v-144.68c0-5.52 4.48-10 10-10s10 4.48 10 10v144.68h38.64v-194.14c0-5.52 4.48-10 10-10 5.54 0 10 4.48 10 10v194.14h38.66V719.56c0-5.52 4.48-10 10-10s10 4.48 10 10v245.76h38.66V659.34c0-5.52 4.48-10 10-10s10 4.48 10 10v305.98h38.64V605.56c0-5.52 4.48-10 10-10s10 4.48 10 10v359.76h40.78V335.26c0-152.5-124.06-276.58-276.56-276.58z m1.06 490.06c-113.76 0-206.3-92.54-206.3-206.32 0-113.76 92.54-206.32 206.3-206.32 113.78 0 206.32 92.56 206.32 206.32 0 113.78-92.54 206.32-206.32 206.32z" fill="#F8D3C9" p-id="106818"></path><path d="M332.32 604.66h-25c5.52 0 10 4.48 10 10v139.16h25v-139.16c0-5.52-4.48-10-10-10z m134.22 149.16h-25c5.52 0 10 4.48 10 10v201.5h25V763.82c0-5.52-4.48-10-10-10z m113.58-694.86c-4.14-0.18-8.32-0.28-12.5-0.28-152.46 0-276.5 124-276.56 276.44 0.1 3.72 1.1 52.32-11.92 111.36-15 67.98-42.86 122.02-81.24 158.18h25c38.38-36.16 66.24-90.2 81.24-158.18 13.02-59.04 12.02-107.64 11.92-111.36 0.06-148.26 117.38-269.6 264.06-276.16z" fill="#FFFFFF" opacity=".5" p-id="106819"></path><path d="M567.62 58.68c-4.18 0-8.36 0.1-12.5 0.28 146.72 6.56 264.06 127.98 264.06 276.3v630.06h25V335.26c0-152.5-124.06-276.58-276.56-276.58z" fill="#23130D" opacity=".2" p-id="106820"></path><path d="M638.22 388.64c0 31-25.22 56.22-56.2 56.22h-3.34v41.94c0 5.52-4.48 10-10 10s-10-4.48-10-10v-41.94h-49.56c-5.52 0-10-4.48-10-10s4.48-10 10-10h72.9c19.96 0 36.2-16.24 36.2-36.22s-16.24-36.22-36.2-36.22h-26.68c-31 0-56.22-25.22-56.22-56.22s25.22-56.22 56.22-56.22h3.34V198.06c0-5.52 4.48-10 10-10s10 4.48 10 10v41.92h49.54c5.52 0 10 4.48 10 10s-4.48 10-10 10h-72.88c-19.96 0-36.22 16.26-36.22 36.22 0 19.98 16.26 36.22 36.22 36.22h26.68c30.98 0 56.2 25.22 56.2 56.22z" fill="#23130D" p-id="106821"></path><path d="M568.68 136.1c-113.76 0-206.3 92.56-206.3 206.32 0 113.78 92.54 206.32 206.3 206.32 113.78 0 206.32-92.54 206.32-206.32 0-113.76-92.54-206.32-206.32-206.32z m0 392.64c-102.72 0-186.3-83.58-186.3-186.32 0-102.72 83.58-186.32 186.3-186.32 102.74 0 186.32 83.6 186.32 186.32 0 102.74-83.58 186.32-186.32 186.32z" fill="#23130D" p-id="106822"></path><path d="M582.02 352.42h-13.46l47.76 47.76c1.24-3.62 1.9-7.5 1.9-11.54 0-19.98-16.24-36.22-36.2-36.22z m-13.34-196.32c-26.62 0-51.96 5.62-74.88 15.72a186.34 186.34 0 0 0-40.58 24.48 188.868 188.868 0 0 0-21.18 19.6 184.24 184.24 0 0 0-17.36 21.78c-2.7 3.94-5.24 8-7.62 12.16a183.5 183.5 0 0 0-15.64 35.28c-5.88 18.06-9.04 37.32-9.04 57.3 0 102.74 83.58 186.32 186.3 186.32 19.98 0 39.26-3.16 57.32-9.04a184.738 184.738 0 0 0 47.44-23.28c7.68-5.24 14.96-11.04 21.76-17.36 7.06-6.52 13.62-13.62 19.6-21.18a186.34 186.34 0 0 0 24.48-40.58c10.1-22.92 15.72-48.26 15.72-74.88 0-102.72-83.58-186.32-186.32-186.32z m-13.34 103.88c-10.54 0-20.06 4.54-26.68 11.76a36.05 36.05 0 0 0-9.54 24.46c0 2.6 0.28 5.14 0.8 7.58 2.96 13.9 13.92 24.86 27.82 27.82 2.44 0.54 5 0.82 7.6 0.82h26.68c2.66 0 5.3 0.18 7.86 0.56 24.7 3.46 44.3 23.06 47.78 47.76 0.38 2.58 0.56 5.22 0.56 7.9 0 9.64-2.44 18.74-6.76 26.68a56.144 56.144 0 0 1-18.76 20.38c-4.12 2.72-8.6 4.88-13.38 6.42a55.56 55.56 0 0 1-17.3 2.74h-3.34v41.94c0 5.52-4.48 10-10 10s-10-4.48-10-10v-41.94h-49.56c-5.52 0-10-4.48-10-10s4.48-10 10-10H582.06c5.76 0 11.18-1.36 16.02-3.78 8.54-4.24 15.18-11.76 18.24-20.9 1.24-3.62 1.9-7.5 1.9-11.54 0-19.98-16.24-36.22-36.2-36.22h-26.68c-31 0-56.22-25.22-56.22-56.22 0-4.1 0.44-8.1 1.28-11.94a55.92 55.92 0 0 1 14.12-26.66c10.24-10.84 24.74-17.62 40.82-17.62h3.34V198.06c0-5.52 4.48-10 10-10s10 4.48 10 10v41.92h49.54c5.52 0 10 4.48 10 10s-4.48 10-10 10h-72.88z" fill="#F9C139" p-id="106823"></path><path d="M583.02 510.08c-102.72 0-186.3-83.58-186.3-186.32 0-38.38 11.66-74.08 31.64-103.76-28.62 32.76-45.98 75.6-45.98 122.42 0 102.74 83.58 186.32 186.3 186.32 64.4 0 121.26-32.84 154.74-82.64-34.18 39.18-84.44 63.98-140.4 63.98z" fill="#23130D" opacity=".2" p-id="106824"></path><path d="M551.16 444.86h7.52v7.52zM582.02 424.86h-50.86l-139.74-139.74a183.5 183.5 0 0 1 15.64-35.28l175 175.02h-0.04zM661.28 504.06a184.738 184.738 0 0 1-35.28 15.64l-47.32-47.32v-27.52h3.34c6.04 0 11.86-0.96 17.3-2.74l61.96 61.94zM519.92 303.78l27.82 27.82c-13.9-2.96-24.86-13.92-27.82-27.82z" fill="#FFFFFF" opacity=".4" p-id="106825"></path><path d="M616.32 400.18a36.274 36.274 0 0 1-18.24 20.9l-183.4-183.4a184.24 184.24 0 0 1 17.36-21.78l68.36 68.36a55.86 55.86 0 0 0-1.28 11.94c0 31 25.22 56.22 56.22 56.22h13.22l47.76 47.76zM695.2 479.06c-6.8 6.32-14.08 12.12-21.76 17.36l-60.74-60.72c7.84-5.1 14.3-12.12 18.76-20.38l63.74 63.74zM555.34 239.98c-16.08 0-30.58 6.78-40.82 17.62l-61.3-61.3a186.34 186.34 0 0 1 40.58-24.48l64.88 64.88v3.28h-3.34zM739.28 417.3a186.34 186.34 0 0 1-24.48 40.58l-77.14-77.14c-3.48-24.7-23.08-44.3-47.78-47.76l-61.22-61.24c6.62-7.22 16.14-11.76 26.68-11.76h26.62l157.32 157.32z" fill="#FFFFFF" opacity=".4" p-id="106826"></path></svg>