<?xml version="1.0" standalone="no"?><!DOCTYPE svg PUBLIC "-//W3C//DTD SVG 1.1//EN" "http://www.w3.org/Graphics/SVG/1.1/DTD/svg11.dtd"><svg t="1625811788906" class="icon" viewBox="0 0 1024 1024" version="1.1" xmlns="http://www.w3.org/2000/svg" p-id="38093" xmlns:xlink="http://www.w3.org/1999/xlink" width="200" height="200"><defs><style type="text/css"></style></defs><path d="M773.1 63.08H397.18c-0.08 0-0.16 0.02-0.24 0.02-0.2 0-0.4 0.04-0.62 0.06-0.4 0.02-0.78 0.08-1.16 0.16-0.2 0.04-0.4 0.08-0.6 0.14-0.42 0.1-0.82 0.26-1.22 0.42-0.14 0.06-0.28 0.1-0.42 0.18-0.54 0.24-1.04 0.52-1.5 0.86l-0.3 0.24c-0.36 0.28-0.7 0.56-1.02 0.9-0.16 0.14-0.28 0.3-0.42 0.46-0.26 0.3-0.52 0.62-0.74 0.96-0.12 0.16-0.24 0.32-0.34 0.48-0.3 0.52-0.56 1.04-0.78 1.6 0 0.02-0.02 0.02-0.02 0.04-8.82 23.76-24.2 54.78-50.66 86.26l-20.72-26.44 5.3-4.16c14.5-11.36 17.06-32.4 5.7-46.9a33.26 33.26 0 0 0-26.32-12.82c-7.42 0-14.74 2.54-20.6 7.12L151.48 173.72c-14.5 11.36-17.06 32.4-5.7 46.92 6.38 8.14 15.96 12.8 26.32 12.8 3.76 0 7.42-0.62 10.9-1.8a33.8 33.8 0 0 0 9.7-5.3l5.3-4.16 18.92 24.16a448.18 448.18 0 0 1-37.9 15.8c-19.48 7.12-40.68 13.4-63.74 18.66-0.62 0.16-1.22 0.36-1.78 0.62-0.2 0.08-0.36 0.18-0.56 0.28-0.36 0.18-0.7 0.38-1.04 0.6-0.2 0.14-0.38 0.3-0.58 0.44-0.28 0.24-0.56 0.48-0.82 0.74-0.18 0.16-0.34 0.34-0.5 0.52a14.7 14.7 0 0 0-1.06 1.44c-0.2 0.36-0.38 0.72-0.54 1.1-0.08 0.18-0.18 0.34-0.24 0.54-0.2 0.48-0.32 0.98-0.44 1.5 0 0.08-0.04 0.16-0.06 0.26-0.1 0.56-0.14 1.14-0.14 1.72v526.96c0 79.08 64.32 143.4 143.38 143.4h522.2c79.06 0 143.38-64.32 143.38-143.4V206.46c0-79.06-64.32-143.38-143.38-143.38z m-410.6 93.1c0.1-0.12 0.18-0.24 0.28-0.36 0.88-1.18 1.78-2.36 2.64-3.54 0.16-0.24 0.34-0.46 0.5-0.7 0.78-1.06 1.54-2.12 2.3-3.18 0.22-0.3 0.44-0.6 0.64-0.9 0.7-1 1.4-1.98 2.08-2.96 0.24-0.34 0.48-0.7 0.72-1.06 0.64-0.92 1.26-1.84 1.88-2.78 0.26-0.38 0.52-0.76 0.76-1.14 0.6-0.9 1.18-1.78 1.76-2.68l0.78-1.2c0.56-0.86 1.12-1.72 1.66-2.6 0.26-0.4 0.52-0.82 0.76-1.22 0.54-0.86 1.06-1.7 1.56-2.54l0.78-1.26c0.5-0.84 1-1.66 1.48-2.48 0.26-0.42 0.5-0.86 0.76-1.28 0.48-0.82 0.94-1.62 1.4-2.44 0.24-0.42 0.5-0.84 0.74-1.28 0.44-0.78 0.9-1.58 1.34-2.38 0.24-0.42 0.48-0.86 0.7-1.28 0.44-0.8 0.86-1.58 1.3-2.38l0.66-1.26c0.42-0.78 0.84-1.56 1.24-2.34 0.22-0.42 0.44-0.82 0.66-1.24 0.4-0.78 0.78-1.56 1.18-2.34l0.6-1.2c0.4-0.78 0.78-1.56 1.16-2.34 0.2-0.38 0.38-0.76 0.56-1.14 0.4-0.8 0.78-1.6 1.16-2.4l0.48-1.02c0.4-0.86 0.78-1.7 1.16-2.52 0.14-0.3 0.28-0.58 0.4-0.88 0.44-0.94 0.86-1.88 1.26-2.82 0.08-0.16 0.16-0.34 0.24-0.5 0.96-2.2 1.88-4.38 2.76-6.5 0.12-0.28 0.22-0.56 0.34-0.84 0.28-0.7 0.58-1.42 0.86-2.12h224.24v88.76l-278.42-0.02c4.5-5.24 8.7-10.46 12.64-15.64zM180.36 210.6a13.298 13.298 0 0 1-8.26 2.84c-2.08 0-4.08-0.46-5.9-1.34-1.8-0.88-3.4-2.16-4.68-3.8a13.402 13.402 0 0 1 2.3-18.82l129.02-101.08a13.316 13.316 0 0 1 8.26-2.86c4.16 0 8.02 1.88 10.58 5.14a13.442 13.442 0 0 1-2.3 18.84l-13.06 10.24-0.12 0.06-87.4 68.48-28.44 22.3z m33.38-0.74l10.22-8.02 76.72-60.1 22.88 29.22c-22.34 23.34-51.2 46.34-88.4 66.22l-21.42-27.32z m682.74 607.66c0 68.04-55.34 123.4-123.38 123.4h-522.2c-68.04 0-123.38-55.36-123.38-123.4V298.48c0.2-0.06 0.4-0.1 0.62-0.16l3.64-0.9c1.66-0.42 3.34-0.84 4.98-1.26 1.22-0.32 2.44-0.66 3.64-0.98 1.62-0.42 3.24-0.86 4.84-1.3 1.2-0.32 2.38-0.66 3.58-1 1.58-0.44 3.16-0.9 4.72-1.36 1.18-0.34 2.34-0.68 3.5-1.04 1.56-0.46 3.1-0.92 4.64-1.4l3.42-1.08c1.54-0.48 3.06-0.98 4.56-1.46 1.12-0.36 2.22-0.74 3.32-1.1 1.5-0.5 3.02-1.02 4.5-1.54 1.08-0.36 2.14-0.74 3.22-1.1 1.48-0.54 2.98-1.06 4.44-1.6l3.12-1.14c1.46-0.54 2.94-1.1 4.4-1.66 1-0.38 2-0.76 2.98-1.14 1.48-0.58 2.94-1.14 4.38-1.72 0.96-0.4 1.9-0.78 2.86-1.16 1.46-0.6 2.92-1.2 4.36-1.8 0.9-0.38 1.82-0.76 2.72-1.16 1.46-0.62 2.9-1.24 4.36-1.88 0.84-0.38 1.7-0.76 2.56-1.12 1.48-0.68 2.94-1.34 4.4-2.02 0.78-0.36 1.58-0.7 2.36-1.08 1.52-0.7 3.02-1.42 4.52-2.14 0.7-0.34 1.4-0.66 2.08-1 1.58-0.76 3.14-1.54 4.7-2.32l0.96-0.48c0.66-0.24 1.32-0.58 1.94-0.98 1.32-0.68 2.62-1.36 3.92-2.04l1.26-0.66c1.94-1.02 3.84-2.06 5.74-3.08 0.14-0.1 0.3-0.18 0.44-0.26 8.28-4.54 16.16-9.24 23.64-14.08 0.2-0.12 0.4-0.26 0.6-0.38 1.64-1.06 3.28-2.14 4.88-3.2 0.34-0.22 0.66-0.46 1-0.68 1.46-0.98 2.92-1.96 4.34-2.96l1.2-0.84c1.34-0.94 2.68-1.88 4.02-2.84 0.44-0.3 0.86-0.62 1.3-0.94 1.26-0.92 2.52-1.84 3.76-2.76 0.46-0.34 0.92-0.68 1.36-1.02 1.22-0.92 2.42-1.82 3.6-2.74 0.46-0.36 0.92-0.7 1.38-1.06 1.14-0.9 2.3-1.8 3.44-2.72 0.46-0.36 0.92-0.74 1.38-1.1 1.1-0.9 2.22-1.8 3.32-2.72 0.44-0.36 0.9-0.74 1.34-1.12 1.1-0.9 2.16-1.8 3.24-2.72 0.42-0.38 0.86-0.74 1.3-1.12 1.06-0.92 2.12-1.84 3.16-2.76 0.4-0.36 0.82-0.74 1.24-1.1 1.04-0.94 2.08-1.86 3.1-2.8 0.38-0.36 0.78-0.72 1.18-1.08 1.02-0.96 2.04-1.9 3.04-2.86 0.38-0.34 0.74-0.7 1.1-1.04 1.02-0.98 2.04-1.96 3.02-2.92 0.34-0.34 0.68-0.66 1.02-1l307.1 0.04c3.46 0 6.5-1.76 8.3-4.42 1.08-1.6 1.72-3.52 1.72-5.6V83.08h124.82c68.04 0 123.38 55.36 123.38 123.38v611.06z" fill="#23130D" p-id="38094"></path><path d="M773.1 83.08h-124.82v98.74c0 2.08-0.64 4-1.72 5.6a10.006 10.006 0 0 1-8.3 4.42l-307.1-0.04c-0.34 0.34-0.68 0.66-1.02 1-0.98 0.96-2 1.94-3.02 2.92-0.36 0.34-0.72 0.7-1.1 1.04-1 0.96-2.02 1.9-3.04 2.86-0.4 0.36-0.8 0.72-1.18 1.08-1.02 0.94-2.06 1.86-3.1 2.8-0.42 0.36-0.84 0.74-1.24 1.1-1.04 0.92-2.1 1.84-3.16 2.76-0.44 0.38-0.88 0.74-1.3 1.12-1.08 0.92-2.14 1.82-3.24 2.72-0.44 0.38-0.9 0.76-1.34 1.12-1.1 0.92-2.22 1.82-3.32 2.72-0.46 0.36-0.92 0.74-1.38 1.1-1.14 0.92-2.3 1.82-3.44 2.72-0.46 0.36-0.92 0.7-1.38 1.06-1.18 0.92-2.38 1.82-3.6 2.74-0.44 0.34-0.9 0.68-1.36 1.02-1.24 0.92-2.5 1.84-3.76 2.76-0.44 0.32-0.86 0.64-1.3 0.94-1.34 0.96-2.68 1.9-4.02 2.84l-1.2 0.84c-1.42 1-2.88 1.98-4.34 2.96-0.34 0.22-0.66 0.46-1 0.68-1.6 1.06-3.24 2.14-4.88 3.2-0.2 0.12-0.4 0.26-0.6 0.38-7.48 4.84-15.36 9.54-23.64 14.08-0.14 0.08-0.3 0.16-0.44 0.26-1.9 1.02-3.8 2.06-5.74 3.08l-1.26 0.66c-1.3 0.68-2.6 1.36-3.92 2.04-0.62 0.4-1.28 0.74-1.94 0.98l-0.96 0.48c-1.56 0.78-3.12 1.56-4.7 2.32-0.68 0.34-1.38 0.66-2.08 1-1.5 0.72-3 1.44-4.52 2.14-0.78 0.38-1.58 0.72-2.36 1.08-1.46 0.68-2.92 1.34-4.4 2.02-0.86 0.36-1.72 0.74-2.56 1.12-1.46 0.64-2.9 1.26-4.36 1.88-0.9 0.4-1.82 0.78-2.72 1.16-1.44 0.6-2.9 1.2-4.36 1.8-0.96 0.38-1.9 0.76-2.86 1.16-1.44 0.58-2.9 1.14-4.38 1.72-0.98 0.38-1.98 0.76-2.98 1.14-1.46 0.56-2.94 1.12-4.4 1.66l-3.12 1.14c-1.46 0.54-2.96 1.06-4.44 1.6-1.08 0.36-2.14 0.74-3.22 1.1-1.48 0.52-3 1.04-4.5 1.54-1.1 0.36-2.2 0.74-3.32 1.1-1.5 0.48-3.02 0.98-4.56 1.46l-3.42 1.08c-1.54 0.48-3.08 0.94-4.64 1.4-1.16 0.36-2.32 0.7-3.5 1.04-1.56 0.46-3.14 0.92-4.72 1.36-1.2 0.34-2.38 0.68-3.58 1-1.6 0.44-3.22 0.88-4.84 1.3-1.2 0.32-2.42 0.66-3.64 0.98-1.64 0.42-3.32 0.84-4.98 1.26l-3.64 0.9c-0.22 0.06-0.42 0.1-0.62 0.16v519.04c0 68.04 55.34 123.4 123.38 123.4h522.2c68.04 0 123.38-55.36 123.38-123.4V206.46c0-68.02-55.34-123.38-123.38-123.38z m-92.84 344.18v270.92c0 7.56-2.14 14.62-5.8 20.66l58.38 58.4a10.006 10.006 0 0 1-7.08 17.08 9.9 9.9 0 0 1-7.06-2.94l-58.5-58.52a39.854 39.854 0 0 1-20.04 5.42H383.84c-7.3 0-14.14-1.98-20.04-5.42l-58.5 58.52a9.9 9.9 0 0 1-7.06 2.94 10.006 10.006 0 0 1-7.08-17.08l58.38-58.4a39.74 39.74 0 0 1-5.8-20.66V427.26c0-6.98 1.8-13.54 4.94-19.26l-57.52-57.52a10.006 10.006 0 0 1 0-14.14 10.006 10.006 0 0 1 14.14 0l57.1 57.1a39.68 39.68 0 0 1 21.44-6.28h256.32c7.9 0 15.24 2.32 21.44 6.28l57.1-57.1a10.006 10.006 0 0 1 14.14 0 10.006 10.006 0 0 1 0 14.14L675.32 408c3.14 5.72 4.94 12.28 4.94 19.26z" fill="#EC7063" p-id="38095"></path><path d="M773.1 83.08h-124.82v98.74c0 2.08-0.64 4-1.72 5.6a10.006 10.006 0 0 1-8.3 4.42l-307.1-0.04c-0.34 0.34-0.68 0.66-1.02 1-0.98 0.96-2 1.94-3.02 2.92-0.36 0.34-0.72 0.7-1.1 1.04-1 0.96-2.02 1.9-3.04 2.86-0.4 0.36-0.8 0.72-1.18 1.08-1.02 0.94-2.06 1.86-3.1 2.8-0.42 0.36-0.84 0.74-1.24 1.1-1.04 0.92-2.1 1.84-3.16 2.76-0.44 0.38-0.88 0.74-1.3 1.12-1.08 0.92-2.14 1.82-3.24 2.72-0.44 0.38-0.9 0.76-1.34 1.12-1.1 0.92-2.22 1.82-3.32 2.72-0.46 0.36-0.92 0.74-1.38 1.1-1.14 0.92-2.3 1.82-3.44 2.72-0.46 0.36-0.92 0.7-1.38 1.06-1.18 0.92-2.38 1.82-3.6 2.74-0.44 0.34-0.9 0.68-1.36 1.02-1.24 0.92-2.5 1.84-3.76 2.76-0.44 0.32-0.86 0.64-1.3 0.94-1.34 0.96-2.68 1.9-4.02 2.84l-1.2 0.84c-1.42 1-2.88 1.98-4.34 2.96-0.34 0.22-0.66 0.46-1 0.68-1.6 1.06-3.24 2.14-4.88 3.2-0.2 0.12-0.4 0.26-0.6 0.38-7.48 4.84-15.36 9.54-23.64 14.08-0.14 0.08-0.3 0.16-0.44 0.26-1.9 1.02-3.8 2.06-5.74 3.08l-1.26 0.66c-1.3 0.68-2.6 1.36-3.92 2.04-0.62 0.4-1.28 0.74-1.94 0.98l-0.96 0.48c-1.56 0.78-3.12 1.56-4.7 2.32-0.68 0.34-1.38 0.66-2.08 1-1.5 0.72-3 1.44-4.52 2.14-0.78 0.38-1.58 0.72-2.36 1.08-1.46 0.68-2.92 1.34-4.4 2.02-0.86 0.36-1.72 0.74-2.56 1.12-1.46 0.64-2.9 1.26-4.36 1.88-0.9 0.4-1.82 0.78-2.72 1.16-1.44 0.6-2.9 1.2-4.36 1.8-0.96 0.38-1.9 0.76-2.86 1.16-1.44 0.58-2.9 1.14-4.38 1.72-0.98 0.38-1.98 0.76-2.98 1.14-1.46 0.56-2.94 1.12-4.4 1.66l-3.12 1.14c-1.46 0.54-2.96 1.06-4.44 1.6-1.08 0.36-2.14 0.74-3.22 1.1-1.48 0.52-3 1.04-4.5 1.54-1.1 0.36-2.2 0.74-3.32 1.1-1.5 0.48-3.02 0.98-4.56 1.46l-3.42 1.08c-1.54 0.48-3.08 0.94-4.64 1.4-1.16 0.36-2.32 0.7-3.5 1.04-1.56 0.46-3.14 0.92-4.72 1.36-1.2 0.34-2.38 0.68-3.58 1-1.6 0.44-3.22 0.88-4.84 1.3-1.2 0.32-2.42 0.66-3.64 0.98-1.64 0.42-3.32 0.84-4.98 1.26l-3.64 0.9c-0.22 0.06-0.42 0.1-0.62 0.16v519.04c0 39.02 18.2 73.88 46.58 96.5-16.84-21.1-26.92-47.82-26.92-76.84V318.14c0.2-0.06 0.4-0.1 0.62-0.16l3.64-0.9c1.66-0.42 3.34-0.84 4.98-1.26 1.22-0.32 2.44-0.66 3.64-0.98 1.62-0.42 3.24-0.86 4.84-1.3 1.2-0.32 2.38-0.66 3.58-1 1.58-0.44 3.16-0.9 4.72-1.36 1.18-0.34 2.34-0.68 3.5-1.04 1.56-0.46 3.1-0.92 4.64-1.4l3.42-1.08c1.54-0.48 3.06-0.98 4.56-1.46 1.12-0.36 2.22-0.74 3.32-1.1 1.5-0.5 3.02-1.02 4.5-1.54 1.08-0.36 2.14-0.74 3.22-1.1 1.48-0.54 2.98-1.06 4.44-1.6l3.12-1.14c1.46-0.54 2.94-1.1 4.4-1.66 1-0.38 2-0.76 2.98-1.14 1.48-0.58 2.94-1.14 4.38-1.72 0.96-0.4 1.9-0.78 2.86-1.16 1.46-0.6 2.92-1.2 4.36-1.8 0.9-0.38 1.82-0.76 2.72-1.16 1.46-0.62 2.9-1.24 4.36-1.88 0.84-0.38 1.7-0.76 2.56-1.12 1.48-0.68 2.94-1.34 4.4-2.02 0.78-0.36 1.58-0.7 2.36-1.08 1.52-0.7 3.02-1.42 4.52-2.14 0.7-0.34 1.4-0.66 2.08-1 1.58-0.76 3.14-1.54 4.7-2.32l0.96-0.48c0.66-0.24 1.32-0.58 1.94-0.98 1.32-0.68 2.62-1.36 3.92-2.04l1.26-0.66c1.94-1.02 3.84-2.06 5.74-3.08 0.14-0.1 0.3-0.18 0.44-0.26 8.28-4.54 16.16-9.24 23.64-14.08 0.2-0.12 0.4-0.26 0.6-0.38 1.64-1.06 3.28-2.14 4.88-3.2 0.34-0.22 0.66-0.46 1-0.68 1.46-0.98 2.92-1.96 4.34-2.96l1.2-0.84c1.34-0.94 2.68-1.88 4.02-2.84 0.44-0.3 0.86-0.62 1.3-0.94 1.26-0.92 2.52-1.84 3.76-2.76 0.46-0.34 0.92-0.68 1.36-1.02 1.22-0.92 2.42-1.82 3.6-2.74 0.46-0.36 0.92-0.7 1.38-1.06 1.14-0.9 2.3-1.8 3.44-2.72 0.46-0.36 0.92-0.74 1.38-1.1 1.1-0.9 2.22-1.8 3.32-2.72 0.44-0.36 0.9-0.74 1.34-1.12 1.1-0.9 2.16-1.8 3.24-2.72 0.42-0.38 0.86-0.74 1.3-1.12 1.06-0.92 2.12-1.84 3.16-2.76 0.4-0.36 0.82-0.74 1.24-1.1 1.04-0.94 2.08-1.86 3.1-2.8 0.38-0.36 0.78-0.72 1.18-1.08 1.02-0.96 2.04-1.9 3.04-2.86 0.38-0.34 0.74-0.7 1.1-1.04 1.02-0.98 2.04-1.96 3.02-2.92 0.34-0.34 0.68-0.66 1.02-1l307.1 0.04c3.46 0 6.5-1.76 8.3-4.42 1.08-1.6 1.72-3.52 1.72-5.6V102.74h124.82c29.02 0 55.72 10.06 76.8 26.92-22.58-28.36-57.44-46.58-96.46-46.58z" fill="#FFFFFF" opacity=".4" p-id="38096"></path><path d="M849.9 110c16.86 21.08 26.92 47.78 26.92 76.8v611.06c0 68.04-55.34 123.4-123.38 123.4h-522.2c-29.02 0-55.72-10.06-76.8-26.9 22.62 28.36 57.44 46.56 96.46 46.56h522.2c68.04 0 123.38-55.36 123.38-123.4V206.46c0-39.02-18.2-73.86-46.58-96.46z" fill="#23130D" opacity=".2" p-id="38097"></path><path d="M309.38 109.52l-13.06 10.24-0.12 0.06-87.4 68.48-28.44 22.3a13.298 13.298 0 0 1-8.26 2.84c-2.08 0-4.08-0.46-5.9-1.34-1.8-0.88-3.4-2.16-4.68-3.8a13.402 13.402 0 0 1 2.3-18.82l129.02-101.08a13.316 13.316 0 0 1 8.26-2.86c4.16 0 8.02 1.88 10.58 5.14a13.442 13.442 0 0 1-2.3 18.84z" fill="#E1E1E5" p-id="38098"></path><path d="M309.38 109.52l-13.06 10.24-0.12 0.06-87.4 68.48-28.44 22.3a13.298 13.298 0 0 1-8.26 2.84c-2.08 0-4.08-0.46-5.9-1.34-1.8-0.88-3.4-2.16-4.68-3.8-0.8-1.02-1.44-2.14-1.88-3.3 1.56 0.62 3.22 0.94 4.96 0.94 3.02 0 5.88-0.98 8.26-2.84l28.44-22.3 87.4-68.48 0.12-0.06 13.06-10.24a13.416 13.416 0 0 0 4.18-15.54c2.18 0.86 4.12 2.3 5.62 4.2a13.442 13.442 0 0 1-2.3 18.84z" fill="#23130D" opacity=".2" p-id="38099"></path><path d="M323.56 170.96c-22.34 23.34-51.2 46.34-88.4 66.22l-21.42-27.32 10.22-8.02 76.72-60.1 22.88 29.22z" fill="#636368" p-id="38100"></path><path d="M323.56 170.96c-22.34 23.34-51.2 46.34-88.4 66.22l-21.42-27.32 0.1-0.08 12.28 15.66c37.14-19.86 65.98-42.82 88.3-66.14l9.14 11.66z" fill="#23130D" opacity=".2" p-id="38101"></path><path d="M674.46 718.84a39.74 39.74 0 0 0 5.8-20.66V427.26c0-6.98-1.8-13.54-4.94-19.26l57.52-57.52a10.006 10.006 0 0 0 0-14.14 10.006 10.006 0 0 0-14.14 0l-57.1 57.1a39.68 39.68 0 0 0-21.44-6.28H383.84c-7.9 0-15.24 2.32-21.44 6.28l-57.1-57.1a10.006 10.006 0 0 0-14.14 0 10.006 10.006 0 0 0 0 14.14L348.68 408a39.904 39.904 0 0 0-4.94 19.26v270.92c0 7.56 2.14 14.62 5.8 20.66l-58.38 58.4a10.006 10.006 0 0 0 7.08 17.08c2.56 0 5.12-0.98 7.06-2.94l58.5-58.52c5.9 3.44 12.74 5.42 20.04 5.42h256.32c7.3 0 14.14-2 20.04-5.42l58.5 58.52a9.9 9.9 0 0 0 7.06 2.94 10.006 10.006 0 0 0 7.08-17.08l-58.38-58.4z m-14.2-20.66c0 11.08-9.02 20.1-20.1 20.1H383.84c-11.08 0-20.1-9.02-20.1-20.1V427.26c0-11.08 9.02-20.1 20.1-20.1h256.32c11.08 0 20.1 9.02 20.1 20.1v270.92z" fill="#23130D" p-id="38102"></path><path d="M660.26 427.26v270.92c0 11.08-9.02 20.1-20.1 20.1H383.84c-11.08 0-20.1-9.02-20.1-20.1V427.26c0-11.08 9.02-20.1 20.1-20.1h256.32c11.08 0 20.1 9.02 20.1 20.1z" fill="#E1E1E5" p-id="38103"></path><path d="M660.26 427.26v270.92c0 11.08-9.02 20.1-20.1 20.1H383.84c-9.42 0-17.36-6.52-19.5-15.3 1.52 0.38 3.12 0.58 4.76 0.58h256.34c11.08 0 20.1-9.02 20.1-20.1V412.54c0-1.66-0.2-3.26-0.58-4.8 8.78 2.16 15.3 10.1 15.3 19.52z" fill="#23130D" opacity=".2" p-id="38104"></path><path d="M659.97 422.75c-1.54-0.38-3.14-0.58-4.8-0.58h-256.32c-11.08 0-20.1 9.02-20.1 20.1v270.92c0 1.66 0.2 3.26 0.6 4.8-8.78-2.14-15.32-10.08-15.32-19.52v-270.92c0-11.08 9.02-20.1 20.08-20.1h256.34c9.42 0 17.36 6.52 19.52 15.3z" fill="#FFFFFF" opacity=".6" p-id="38105"></path></svg>