<?xml version="1.0" standalone="no"?><!DOCTYPE svg PUBLIC "-//W3C//DTD SVG 1.1//EN" "http://www.w3.org/Graphics/SVG/1.1/DTD/svg11.dtd"><svg t="1625811599754" class="icon" viewBox="0 0 1024 1024" version="1.1" xmlns="http://www.w3.org/2000/svg" p-id="36027" xmlns:xlink="http://www.w3.org/1999/xlink" width="200" height="200"><defs><style type="text/css"></style></defs><path d="M832.84 662.5c-0.08-1.02-0.14-2.06-0.24-3.08-0.08-0.82-0.2-1.62-0.3-2.44-0.2-1.72-0.4-3.44-0.66-5.14l-0.12-0.7c-4.82-30.9-19.2-59.38-41.74-81.92-23.44-23.44-53.32-38.04-85.66-42.26a9.93 9.93 0 0 0-2.34-10.4l-57.68-57.72c-1.88-1.88-4.42-2.94-7.08-2.94s-5.2 1.06-7.08 2.94l-36.32 36.32-5.28-39.18c47.86-26.82 80.3-78.02 80.34-136.66V187.26c7.56-6.82 14.48-15.22 19.7-25.6 16.62-33.16 10.98-76.26-16.74-128.14a10.012 10.012 0 0 0-8.82-5.28c-2.26 0-4.46 0.78-6.24 2.2-2.9 2.3-72.18 56.56-184.84 56.56-21.6 0-43.64-2.06-65.52-6.12-3.06-0.56-6.18-0.84-9.24-0.84-31.84 0-59.78 31.72-59.78 67.88 0 17.7 6.9 33.82 18.12 45.82v125.52c0.02 58.68 32.46 109.88 80.34 136.72l-5.28 39.18-36.32-36.32c-1.88-1.88-4.42-2.94-7.08-2.94s-5.2 1.06-7.06 2.94l-57.7 57.72a9.93 9.93 0 0 0-2.34 10.4c-32.34 4.22-62.22 18.82-85.66 42.26-22.46 22.46-36.82 50.84-41.68 81.6-0.06 0.36-0.14 0.72-0.2 1.06-0.22 1.56-0.4 3.12-0.58 4.68-0.12 0.98-0.26 1.92-0.36 2.9-0.08 0.78-0.12 1.58-0.18 2.38-0.36 4.14-0.58 8.32-0.58 12.54 0 0.04 0.02 0.08 0.02 0.12v176.82c0 5.52 4.48 10 10 10H464.84l5.64 71.68c0.4 5.2 4.74 9.22 9.96 9.22h20.38c-4.52 19.2-21.8 33.54-42.36 33.54H281c-5.52 0-10 4.48-10 10s4.48 10 10 10h177.46c31.64 0 57.94-23.24 62.74-53.54h22.36c5.22 0 9.56-4.02 9.96-9.22l5.64-71.68h264.18c5.52 0 10-4.48 10-10v-176.84c0-0.04 0.02-0.08 0.02-0.1 0-4-0.22-7.96-0.52-11.88z m-195.82-182.44l42.42 42.44-91.76 68.12c-7-13.02-17.2-23.92-29.5-31.72l78.84-78.84zM512 697.44c-16.2 0-31.76-5.92-43.84-16.68-0.08-0.08-0.16-0.16-0.24-0.22a66.26 66.26 0 0 1-17.82-26.28h123.8a66.26 66.26 0 0 1-18.06 26.5 65.812 65.812 0 0 1-43.84 16.68z m39.16 10.56l-1.82 23.02h-74.68l-1.82-23.02a86.074 86.074 0 0 0 39.16 9.44c13.76 0 27.14-3.3 39.16-9.44z m-116.16-73.74v-5.54h154v5.54h-154z m51.08-63.48c0.16-0.06 0.3-0.12 0.46-0.18 7.86-3.28 16.46-5.06 25.46-5.06s17.6 1.78 25.46 5.04c0.16 0.08 0.32 0.16 0.48 0.22a65.486 65.486 0 0 1 36 37.92h-123.88a65.67 65.67 0 0 1 36.02-37.94z m-1.04-20.96l-36.88-36.88 6.46-47.96c17.8 7.02 37.14 10.92 57.38 10.92s39.58-3.9 57.36-10.92l6.48 47.96-36.88 36.88a86.572 86.572 0 0 0-26.96-4.28c-9.38 0-18.46 1.5-26.96 4.28zM357.2 147.92c0-25.06 18.96-47.88 39.78-47.88 1.84 0 3.72 0.16 5.6 0.52 23.06 4.28 46.34 6.44 69.16 6.44 96.16 0 163.24-37.8 187.46-53.9 19.98 41.08 23.8 74.5 11.36 99.46-16.38 32.84-56.98 41.5-62.62 42.56H404.4c-26.02 0-47.2-21.18-47.2-47.2z m18.12 171.32V208.48c8.8 4.26 18.66 6.64 29.08 6.64h204.4c0.5 0 1-0.04 1.5-0.12 1.28-0.2 19.12-3.06 38.38-13.64v117.88c0 75.36-61.32 136.66-136.68 136.66s-136.68-61.3-136.68-136.66z m11.66 160.82l78.84 78.84a85.508 85.508 0 0 0-29.5 31.72l-91.76-68.12 42.42-42.44z m39.06 260.96v100.3h-86.74v-111.08c0-5.54-4.48-10-10-10s-10 4.46-10 10v111.08h-108.64v-166.94c0-3.82 0.2-7.6 0.52-11.34 0.04-0.52 0.06-1.04 0.12-1.54 0.08-0.96 0.22-1.9 0.34-2.86 0.16-1.24 0.28-2.48 0.48-3.7 0.06-0.4 0.14-0.8 0.2-1.2 9.92-61.18 63.08-108.06 127.04-108.06 0.02 0 0.02 0 0.04-0.02h2.82l86.34 64.1c-7.86 2.64-13.56 10.08-13.56 18.82v5.82c0 8.86 5.84 16.38 13.86 18.92a86.112 86.112 0 0 0 22.72 39.28l3.02 38.42h-18.56c-5.52 0-10 4.48-10 10z m108.26 181.2h-44.6l-5.48-69.62h55.56l-5.48 69.62z m43.66-89.62h-131.92v-81.58h131.92v81.58z m235.38 8.72h-108.64v-111.08c0-5.54-4.48-10-10-10s-10 4.46-10 10v111.08h-86.74v-100.3c0-5.52-4.48-10-10-10h-18.56l3.02-38.42a86.112 86.112 0 0 0 22.72-39.28c8.02-2.54 13.86-10.06 13.86-18.92v-5.82c0-8.74-5.68-16.18-13.56-18.82l86.34-64.1h2.82c0.02 0 0.04 0.02 0.04 0.02 64.08 0 117.34 47.04 127.1 108.4 0.04 0.28 0.1 0.54 0.14 0.82 0.2 1.38 0.36 2.78 0.54 4.18 0.08 0.78 0.2 1.58 0.28 2.38 0.08 0.74 0.12 1.48 0.18 2.24 0.28 3.52 0.46 7.08 0.46 10.68v166.94z" fill="#23130D" p-id="36028"></path><path d="M589 628.72v5.54h-154v-5.54h154z" fill="#F9C139" p-id="36029"></path><path d="M539.78 852.6l-5.48 69.62h-44.6l-5.48-69.62z" fill="#3594BF" p-id="36030"></path><path d="M573.94 608.72h-123.88a65.67 65.67 0 0 1 36.02-37.94c0.16-0.06 0.3-0.12 0.46-0.18 7.86-3.28 16.46-5.06 25.46-5.06s17.6 1.78 25.46 5.04c0.16 0.08 0.32 0.16 0.48 0.22a65.486 65.486 0 0 1 36 37.92z" fill="#E1E1E5" p-id="36031"></path><path d="M551.16 708l-1.82 23.02h-74.68l-1.82-23.02a86.074 86.074 0 0 0 39.16 9.44c13.76 0 27.14-3.3 39.16-9.44z" fill="#3594BF" p-id="36032"></path><path d="M507.94 922.22h-18.24l-5.48-69.62h18.24zM491.64 714.98l1.26 16.04h-18.24l-1.82-23.02c5.96 3.06 12.26 5.4 18.8 6.98z" fill="#23130D" opacity=".2" p-id="36033"></path><path d="M446.04 751.02h131.92v81.58h-131.92z" fill="#F9C139" p-id="36034"></path><path d="M577.96 751.02v8.64h-123.28v72.94h-8.64v-81.58z" fill="#FFFFFF" opacity=".5" p-id="36035"></path><path d="M577.96 751.02v81.58h-131.92v-8.64h123.28v-72.94z" fill="#23130D" opacity=".2" p-id="36036"></path><path d="M573.9 654.26a66.26 66.26 0 0 1-18.06 26.5c-12.08 10.76-27.64 16.68-43.84 16.68s-31.76-5.92-43.84-16.68c-0.08-0.08-0.16-0.16-0.24-0.22a66.26 66.26 0 0 1-17.82-26.28h123.8z" fill="#E1E1E5" p-id="36037"></path><path d="M523.4 566.52c-4.88 0.84-9.6 2.22-14.08 4.08-0.16 0.06-0.3 0.12-0.46 0.18a65.67 65.67 0 0 0-36.02 37.94h-22.78a65.67 65.67 0 0 1 36.02-37.94c0.16-0.06 0.3-0.12 0.46-0.18 7.86-3.28 16.46-5.06 25.46-5.06 3.88 0 7.68 0.32 11.4 0.98zM523.4 696.44a65.812 65.812 0 0 1-55.24-15.68c-0.08-0.08-0.16-0.16-0.24-0.22a66.26 66.26 0 0 1-17.82-26.28h22.78a66.26 66.26 0 0 0 18.06 26.5 65.72 65.72 0 0 0 32.46 15.68z" fill="#23130D" opacity=".2" p-id="36038"></path><path d="M670.56 152.56c-16.38 32.84-56.98 41.5-62.62 42.56H404.4c-26.02 0-47.2-21.18-47.2-47.2 0-25.06 18.96-47.88 39.78-47.88 1.84 0 3.72 0.16 5.6 0.52 23.06 4.28 46.34 6.44 69.16 6.44 96.16 0 163.24-37.8 187.46-53.9 19.98 41.08 23.8 74.5 11.36 99.46z" fill="#F9C139" p-id="36039"></path><path d="M676.68 133.26c-2.18-15.94-8.02-33.7-17.48-53.16C634.98 96.2 567.9 134 471.74 134c-22.82 0-46.1-2.16-69.16-6.44-1.88-0.36-3.76-0.52-5.6-0.52-16.9 0-32.58 15.04-37.88 34.12-1.24-4.2-1.9-8.64-1.9-13.24 0-25.06 18.96-47.88 39.78-47.88 1.84 0 3.72 0.16 5.6 0.52 23.06 4.28 46.34 6.44 69.16 6.44 96.16 0 163.24-37.8 187.46-53.9 15.22 31.28 21.06 58.12 17.48 80.16z" fill="#23130D" opacity=".2" p-id="36040"></path><path d="M648.68 201.36v117.88c0 75.36-61.32 136.66-136.68 136.66s-136.68-61.3-136.68-136.66V208.48c8.8 4.26 18.66 6.64 29.08 6.64h204.4c0.5 0 1-0.04 1.5-0.12 1.28-0.2 19.12-3.06 38.38-13.64z" fill="#F8D3C9" p-id="36041"></path><path d="M531 454.58c-6.2 0.88-12.56 1.32-19 1.32-75.36 0-136.68-61.3-136.68-136.66V208.48c8.8 4.26 18.66 6.64 29.08 6.64h8.92V319.24c0 68.92 51.28 126.06 117.68 135.34z" fill="#23130D" opacity=".2" p-id="36042"></path><path d="M465.82 558.9a85.508 85.508 0 0 0-29.5 31.72l-91.76-68.12 42.42-42.44 78.84 78.84z" fill="#F8D3C9" p-id="36043"></path><path d="M575.84 512.94l-36.88 36.88a86.572 86.572 0 0 0-26.96-4.28c-9.38 0-18.46 1.5-26.96 4.28l-36.88-36.88 6.46-47.96c17.8 7.02 37.14 10.92 57.38 10.92s39.58-3.9 57.36-10.92l6.48 47.96z" fill="#E59D89" p-id="36044"></path><path d="M679.44 522.5l-91.76 68.12c-7-13.02-17.2-23.92-29.5-31.72l78.84-78.84 42.42 42.44z" fill="#F8D3C9" p-id="36045"></path><path d="M465.82 558.9a85.372 85.372 0 0 0-15.12 12.22l-63.72-63.72-26.74 26.74-15.68-11.64 42.42-42.44 78.84 78.84zM679.44 522.5l-15.68 11.64-26.74-26.74-63.72 63.72a85.372 85.372 0 0 0-15.12-12.22l78.84-78.84 42.42 42.44z" fill="#FFFFFF" opacity=".7" p-id="36046"></path><path d="M813.34 674.38v166.94h-108.64v-111.08c0-5.54-4.48-10-10-10s-10 4.46-10 10v111.08h-86.74v-100.3c0-5.52-4.48-10-10-10h-18.56l3.02-38.42a86.112 86.112 0 0 0 22.72-39.28c8.02-2.54 13.86-10.06 13.86-18.92v-5.82c0-8.74-5.68-16.18-13.56-18.82l86.34-64.1h2.82c0.02 0 0.04 0.02 0.04 0.02 64.08 0 117.34 47.04 127.1 108.4 0.04 0.28 0.1 0.54 0.14 0.82 0.2 1.38 0.36 2.78 0.54 4.18 0.08 0.78 0.2 1.58 0.28 2.38 0.08 0.74 0.12 1.48 0.18 2.24 0.28 3.52 0.46 7.08 0.46 10.68zM454.6 731.02h-18.56c-5.52 0-10 4.48-10 10v100.3h-86.74v-111.08c0-5.54-4.48-10-10-10s-10 4.46-10 10v111.08h-108.64v-166.94c0-3.82 0.2-7.6 0.52-11.34 0.04-0.52 0.06-1.04 0.12-1.54 0.08-0.96 0.22-1.9 0.34-2.86 0.16-1.24 0.28-2.48 0.48-3.7 0.06-0.4 0.14-0.8 0.2-1.2 9.92-61.18 63.08-108.06 127.04-108.06 0.02 0 0.02 0 0.04-0.02h2.82l86.34 64.1c-7.86 2.64-13.56 10.08-13.56 18.82v5.82c0 8.86 5.84 16.38 13.86 18.92a86.112 86.112 0 0 0 22.72 39.28l3.02 38.42z" fill="#EC7063" p-id="36047"></path><path d="M813.34 674.38v26.02c0-3.6-0.18-7.16-0.46-10.68-0.06-0.76-0.1-1.5-0.18-2.24-0.08-0.8-0.2-1.6-0.28-2.38-0.18-1.4-0.34-2.8-0.54-4.18-0.04-0.28-0.1-0.54-0.14-0.82-9.76-61.36-63.02-108.4-127.1-108.4 0 0-0.02-0.02-0.04-0.02h-2.82l-72.98 54.18c-1.02-7.54-6.32-13.74-13.36-16.1l86.34-64.1h2.82c0.02 0 0.04 0.02 0.04 0.02 64.08 0 117.34 47.04 127.1 108.4 0.04 0.28 0.1 0.54 0.14 0.82 0.2 1.38 0.36 2.78 0.54 4.18 0.08 0.78 0.2 1.58 0.28 2.38 0.08 0.74 0.12 1.48 0.18 2.24 0.28 3.52 0.46 7.08 0.46 10.68zM415.2 625.86l-72.98-54.18h-2.82c-0.02 0.02-0.02 0.02-0.04 0.02-63.96 0-117.12 46.88-127.04 108.06-0.06 0.4-0.14 0.8-0.2 1.2-0.2 1.22-0.32 2.46-0.48 3.7-0.12 0.96-0.26 1.9-0.34 2.86-0.06 0.5-0.08 1.02-0.12 1.54-0.32 3.74-0.52 7.52-0.52 11.34v-26.02c0-3.82 0.2-7.6 0.52-11.34 0.04-0.52 0.06-1.04 0.12-1.54 0.08-0.96 0.22-1.9 0.34-2.86 0.16-1.24 0.28-2.48 0.48-3.7 0.06-0.4 0.14-0.8 0.2-1.2 9.92-61.18 63.08-108.06 127.04-108.06 0.02 0 0.02 0 0.04-0.02h2.82l86.34 64.1c-7.04 2.36-12.34 8.56-13.36 16.1z" fill="#23130D" opacity=".2" p-id="36048"></path></svg>