<?xml version="1.0" standalone="no"?><!DOCTYPE svg PUBLIC "-//W3C//DTD SVG 1.1//EN" "http://www.w3.org/Graphics/SVG/1.1/DTD/svg11.dtd"><svg t="1625811486409" class="icon" viewBox="0 0 1024 1024" version="1.1" xmlns="http://www.w3.org/2000/svg" p-id="31484" xmlns:xlink="http://www.w3.org/1999/xlink" width="200" height="200"><defs><style type="text/css"></style></defs><path d="M892.76 202.3c-0.02-0.6-0.06-1.18-0.18-1.76v-0.04c-0.12-0.56-0.3-1.1-0.5-1.64-0.08-0.16-0.14-0.32-0.22-0.48-0.18-0.4-0.38-0.78-0.62-1.14-0.08-0.16-0.16-0.3-0.26-0.44-0.34-0.5-0.7-0.96-1.14-1.38l-137.18-137.18c-0.44-0.44-0.9-0.8-1.38-1.14-0.14-0.1-0.28-0.18-0.42-0.26a9.5 9.5 0 0 0-1.18-0.62c-0.14-0.08-0.3-0.14-0.46-0.2-0.54-0.22-1.1-0.4-1.66-0.52h-0.02c-0.58-0.12-1.16-0.16-1.76-0.18-0.06 0-0.12-0.02-0.2-0.02H141.26c-5.52 0-10 4.48-10 10V958.4c0 0.1-0.04 0.18-0.04 0.26 0 0.34 0.08 0.66 0.1 0.98 0.02 0.2 0.04 0.42 0.08 0.62 0.06 0.38 0.14 0.76 0.24 1.12 0.06 0.18 0.12 0.34 0.18 0.5 0.4 1.2 1.02 2.3 1.86 3.26 0.1 0.14 0.22 0.26 0.32 0.38 0.2 0.18 0.34 0.42 0.54 0.6l0.04 0.02c1.6 1.44 3.58 2.24 5.64 2.44 0.06 0.02 0.12 0.02 0.18 0.02 0.28 0.02 0.54 0.08 0.82 0.08 0.16 0 0.3-0.04 0.46-0.06 0.22 0 0.44-0.04 0.66-0.06 0.56-0.06 1.1-0.16 1.66-0.32 0.28-0.08 0.58-0.18 0.86-0.3 0.16-0.04 0.32-0.08 0.48-0.14 0.18-0.08 0.36-0.2 0.54-0.3l0.12-0.06c0.4-0.22 0.76-0.44 1.1-0.7 0.06-0.04 0.12-0.08 0.16-0.12 0.34-0.24 0.66-0.52 0.94-0.8 0.04-0.04 0.08-0.06 0.12-0.1l54.72-54.7 54.34 54.36a9.986 9.986 0 0 0 7.42 3.32h0.08c3.02 0 5.7-1.36 7.52-3.48l54.22-54.2 54.4 54.38c1.86 2.04 4.5 3.3 7.36 3.3h0.1c3.02 0 5.68-1.36 7.52-3.46l54.2-54.22 54.4 54.38a10.02 10.02 0 0 0 7.38 3.3h0.1c3.02 0 5.68-1.36 7.52-3.48l54.2-54.2 54.38 54.36a9.944 9.944 0 0 0 7.4 3.32h0.1c3 0 5.68-1.36 7.5-3.48l54.22-54.2 54.12 54.14c1.88 2.2 4.64 3.54 7.64 3.54h0.08c3 0 5.68-1.36 7.5-3.46l54.24-54.22 54.72 54.72c1.92 1.92 4.48 2.92 7.08 2.92 1.28 0 2.58-0.24 3.82-0.76a9.98 9.98 0 0 0 6.18-9.24V202.48c0-0.06-0.02-0.12-0.02-0.18z m-137.18-112.86l103.06 103.04h-103.06V89.44z m117.2 845.08l-44.72-44.7c-3.9-3.92-10.24-3.9-14.14 0l-54.74 54.7-54.72-54.7a9.994 9.994 0 0 0-7.06-2.94c-2.66 0-5.2 1.06-7.08 2.94l-54.72 54.7-54.74-54.7a9.9 9.9 0 0 0-7.06-2.94c-2.56 0-5.12 0.98-7.08 2.94l-54.7 54.7-54.74-54.7c-3.92-3.9-10.24-3.92-14.14 0l-54.72 54.7-54.72-54.7a10.006 10.006 0 0 0-14.14 0l-54.74 54.7-54.72-54.7a10.006 10.006 0 0 0-14.14 0l-44.7 44.68V75.3h584.32v127.18c0 5.54 4.48 10 10 10h127.2v722.04z" fill="#23130D" p-id="31485"></path><path d="M858.64 192.48h-103.06V89.44z" fill="#E59D89" p-id="31486"></path><path d="M858.64 192.48h-46.32l-56.74-56.72V89.44z" fill="#23130D" opacity=".2" p-id="31487"></path><path d="M745.58 212.48c-5.52 0-10-4.46-10-10V75.3H151.26v859.2l44.7-44.68a10.006 10.006 0 0 1 14.14 0l54.72 54.7 54.74-54.7a10.006 10.006 0 0 1 14.14 0l54.72 54.7 54.72-54.7c3.9-3.92 10.22-3.9 14.14 0l54.74 54.7 54.7-54.7a9.98 9.98 0 0 1 7.08-2.94c2.56 0 5.12 0.98 7.06 2.94l54.74 54.7 54.72-54.7c1.88-1.88 4.42-2.94 7.08-2.94 2.64 0 5.18 1.06 7.06 2.94l54.72 54.7 54.74-54.7c3.9-3.9 10.24-3.92 14.14 0l44.72 44.7V212.48h-127.2zM209.9 473.92c0-5.52 4.48-10 10-10h373.68c5.52 0 10 4.48 10 10v67.98c0 5.52-4.48 10-10 10H219.9c-5.52 0-10-4.48-10-10v-67.98z m183.16 315.98c0 5.52-4.48 10-10 10h-163.16c-5.52 0-10-4.48-10-10v-67.98c0-5.54 4.48-10 10-10h163.16c5.52 0 10 4.46 10 10v67.98z m0-124c0 5.52-4.48 10-10 10h-163.16c-5.52 0-10-4.48-10-10v-67.98c0-5.54 4.48-10 10-10h163.16c5.52 0 10 4.46 10 10v67.98z m210.52 124c0 5.52-4.48 10-10 10h-163.16c-5.52 0-10-4.48-10-10v-67.98c0-5.54 4.48-10 10-10h163.16c5.52 0 10 4.46 10 10v67.98z m210.52 0c0 5.52-4.48 10-10 10h-163.16c-5.52 0-10-4.48-10-10v-67.98c0-5.54 4.48-10 10-10h163.16c5.52 0 10 4.46 10 10v67.98z m0-124c0 5.52-4.48 10-10 10H430.42c-5.52 0-10-4.48-10-10v-67.98c0-5.54 4.48-10 10-10h373.68c5.52 0 10 4.46 10 10v67.98z m0-124c0 5.52-4.48 10-10 10h-163.16c-5.52 0-10-4.48-10-10v-67.98c0-5.52 4.48-10 10-10h163.16c5.52 0 10 4.48 10 10v67.98z m0-160.2c0 4.74-3.3 8.7-7.74 9.72-0.08 0.02-0.16 0.06-0.24 0.08-0.34 0.06-0.72 0.08-1.08 0.1-0.32 0.04-0.62 0.1-0.94 0.1h-39.24-0.04c-0.06 0-0.12-0.02-0.2-0.02l-456.36 0.02h-0.16c-1.3 0-2.6-0.24-3.86-0.78l-88.2-36.88c-0.06-0.02-0.08-0.06-0.14-0.08-0.54-0.24-1.08-0.52-1.58-0.86-0.1-0.06-0.18-0.14-0.28-0.2-0.38-0.28-0.74-0.58-1.08-0.92-0.14-0.12-0.26-0.26-0.38-0.4-0.3-0.32-0.58-0.66-0.84-1.02-0.08-0.12-0.18-0.24-0.26-0.38-0.3-0.48-0.58-0.98-0.82-1.52v-0.02c-0.26-0.62-0.44-1.24-0.58-1.88-0.04-0.26-0.04-0.52-0.08-0.8-0.04-0.38-0.1-0.76-0.1-1.16 0-0.38 0.06-0.76 0.1-1.14 0.04-0.28 0.04-0.54 0.08-0.8 0.14-0.64 0.32-1.28 0.58-1.88v-0.02c0.08-0.18 0.18-0.32 0.26-0.48 0.2-0.42 0.4-0.84 0.66-1.22 0.18-0.28 0.4-0.5 0.6-0.74 0.2-0.26 0.4-0.54 0.64-0.78 0.26-0.24 0.54-0.46 0.82-0.68 0.22-0.18 0.44-0.38 0.7-0.56 0.38-0.26 0.82-0.46 1.24-0.66 0.16-0.08 0.3-0.18 0.46-0.26l88.2-36.88c1.32-0.56 2.7-0.8 4.04-0.78l456.54-0.02c0.04 0 0.06 0.02 0.08 0.02h39.2c5.52 0 10 4.48 10 10v73.78z" fill="#F8D3C9" p-id="31488"></path><path d="M804.1 297.92h-39.2c-0.02 0-0.04-0.02-0.08-0.02l-456.54 0.02c-1.34-0.02-2.72 0.22-4.04 0.78l-88.2 36.88c-0.16 0.08-0.3 0.18-0.46 0.26-0.42 0.2-0.86 0.4-1.24 0.66-0.26 0.18-0.48 0.38-0.7 0.56-0.28 0.22-0.56 0.44-0.82 0.68-0.24 0.24-0.44 0.52-0.64 0.78-0.2 0.24-0.42 0.46-0.6 0.74-0.26 0.38-0.46 0.8-0.66 1.22-0.08 0.16-0.18 0.3-0.26 0.48v0.02c-0.26 0.6-0.44 1.24-0.58 1.88-0.04 0.26-0.04 0.52-0.08 0.8-0.04 0.38-0.1 0.76-0.1 1.14 0 0.4 0.06 0.78 0.1 1.16 0.04 0.28 0.04 0.54 0.08 0.8 0.14 0.64 0.32 1.26 0.58 1.88v0.02c0.24 0.54 0.52 1.04 0.82 1.52 0.08 0.14 0.18 0.26 0.26 0.38 0.26 0.36 0.54 0.7 0.84 1.02 0.12 0.14 0.24 0.28 0.38 0.4 0.34 0.34 0.7 0.64 1.08 0.92 0.1 0.06 0.18 0.14 0.28 0.2 0.5 0.34 1.04 0.62 1.58 0.86 0.06 0.02 0.08 0.06 0.14 0.08l88.2 36.88c1.26 0.54 2.56 0.78 3.86 0.78h0.16l456.36-0.02c0.08 0 0.14 0.02 0.2 0.02h39.28c0.32 0 0.62-0.06 0.94-0.1 0.36-0.02 0.74-0.04 1.08-0.1 0.08-0.02 0.16-0.06 0.24-0.08a9.972 9.972 0 0 0 7.74-9.72v-73.78c0-5.52-4.48-10-10-10z m-506 68.76l-52.3-21.86 52.3-21.88v43.74z m456.72 5l-436.72 0.02v-16.88l436.72-0.02v16.88z m0-36.88l-436.72 0.02v-16.9l436.72-0.02v16.9z m39.28 36.9h-19.28l-0.02-26.88 0.02-26.9h19.28v53.78z" fill="#23130D" p-id="31489"></path><path d="M794.1 317.92v53.78h-19.28l-0.02-26.88 0.02-26.9z" fill="#EC7063" p-id="31490"></path><path d="M794.1 353.25v18.45h-19.28l-0.02-9.222 0.02-9.228z" fill="#23130D" opacity=".2" p-id="31491"></path><path d="M318.1 317.91h436.72v16.9H318.1zM318.1 354.81h436.72v16.88H318.1z" fill="#F9C139" p-id="31492"></path><path d="M318.1 354.81h436.72v16.88H318.1z" fill="#23130D" opacity=".2" p-id="31493"></path><path d="M298.1 322.94v43.74l-52.3-21.86z" fill="#E1E1E5" p-id="31494"></path><path d="M298.1 352.18v14.5l-52.3-21.86 17.34-7.26z" fill="#23130D" opacity=".2" p-id="31495"></path><path d="M804.1 463.92h-163.16c-5.52 0-10 4.48-10 10v67.98c0 5.52 4.48 10 10 10h163.16c5.52 0 10-4.48 10-10v-67.98c0-5.52-4.48-10-10-10z m-10 67.98h-143.16v-47.98h143.16v47.98z" fill="#23130D" p-id="31496"></path><path d="M650.94 483.92h143.16v47.98h-143.16z" fill="#72AF5F" p-id="31497"></path><path d="M593.58 463.92H219.9c-5.52 0-10 4.48-10 10v67.98c0 5.52 4.48 10 10 10h373.68c5.52 0 10-4.48 10-10v-67.98c0-5.52-4.48-10-10-10z m-10 67.98H229.9v-47.98h353.68v47.98z" fill="#23130D" p-id="31498"></path><path d="M229.9 483.92h353.68v47.98H229.9z" fill="#72AF5F" p-id="31499"></path><path d="M804.1 587.92H430.42c-5.52 0-10 4.46-10 10v67.98c0 5.52 4.48 10 10 10h373.68c5.52 0 10-4.48 10-10v-67.98c0-5.54-4.48-10-10-10z m-10 67.98H440.42v-47.98h353.68v47.98z" fill="#23130D" p-id="31500"></path><path d="M440.42 607.92h353.68v47.98H440.42z" fill="#72AF5F" p-id="31501"></path><path d="M383.06 587.92h-163.16c-5.52 0-10 4.46-10 10v67.98c0 5.52 4.48 10 10 10h163.16c5.52 0 10-4.48 10-10v-67.98c0-5.54-4.48-10-10-10z m-10 67.98h-143.16v-47.98h143.16v47.98z" fill="#23130D" p-id="31502"></path><path d="M229.9 607.92h143.16v47.98h-143.16z" fill="#72AF5F" p-id="31503"></path><path d="M804.1 711.92h-163.16c-5.52 0-10 4.46-10 10v67.98c0 5.52 4.48 10 10 10h163.16c5.52 0 10-4.48 10-10v-67.98c0-5.54-4.48-10-10-10z m-10 67.98h-143.16v-47.98h143.16v47.98z" fill="#23130D" p-id="31504"></path><path d="M650.94 731.92h143.16v47.98h-143.16z" fill="#72AF5F" p-id="31505"></path><path d="M593.58 711.92h-163.16c-5.52 0-10 4.46-10 10v67.98c0 5.52 4.48 10 10 10h163.16c5.52 0 10-4.48 10-10v-67.98c0-5.54-4.48-10-10-10z m-10 67.98h-143.16v-47.98h143.16v47.98z" fill="#23130D" p-id="31506"></path><path d="M440.42 731.92h143.16v47.98h-143.16z" fill="#72AF5F" p-id="31507"></path><path d="M383.06 711.92h-163.16c-5.52 0-10 4.46-10 10v67.98c0 5.52 4.48 10 10 10h163.16c5.52 0 10-4.48 10-10v-67.98c0-5.54-4.48-10-10-10z m-10 67.98h-143.16v-47.98h143.16v47.98z" fill="#23130D" p-id="31508"></path><path d="M229.9 731.92h143.16v47.98h-143.16z" fill="#72AF5F" p-id="31509"></path><path d="M229.9 483.92h353.68v14.414H229.9zM651 483.92h143.1v14.414H651zM229.93 607.92h143.1v14.414h-143.1zM229.93 731.92h143.1v14.414h-143.1zM440.45 731.92h143.1v14.414h-143.1zM650.97 731.92h143.1v14.414h-143.1zM440.42 607.92h353.68v14.414H440.42z" fill="#23130D" opacity=".2" p-id="31510"></path></svg>