<?xml version="1.0" standalone="no"?><!DOCTYPE svg PUBLIC "-//W3C//DTD SVG 1.1//EN" "http://www.w3.org/Graphics/SVG/1.1/DTD/svg11.dtd"><svg t="1625811334195" class="icon" viewBox="0 0 1024 1024" version="1.1" xmlns="http://www.w3.org/2000/svg" p-id="28201" xmlns:xlink="http://www.w3.org/1999/xlink" width="200" height="200"><defs><style type="text/css"></style></defs><path d="M769.84 697.08v-481.6l-0.02-11.56c0.04-2.14 0.36-52.72-57.04-96.3-0.16-0.1-0.34-0.18-0.5-0.28-0.3-0.22-0.6-0.42-0.94-0.58-0.28-0.14-0.56-0.26-0.84-0.38-0.3-0.12-0.62-0.24-0.92-0.34-0.32-0.1-0.64-0.16-0.96-0.22-0.3-0.06-0.62-0.12-0.94-0.14-0.32-0.04-0.62-0.04-0.94-0.04-0.34 0-0.66 0-0.98 0.04-0.3 0.02-0.62 0.08-0.92 0.14-0.32 0.06-0.64 0.12-0.96 0.22-0.32 0.1-0.62 0.22-0.92 0.34-0.28 0.12-0.58 0.24-0.86 0.38-0.32 0.16-0.62 0.36-0.92 0.56-0.16 0.12-0.34 0.2-0.5 0.3-57.42 43.58-57.1 94.16-57.06 96.1v376.98c-8.56-15.58-15.92-32.28-22.12-48.4V193.64c0.08-3.8 0.62-94.06-103.46-172.86-0.16-0.12-0.32-0.18-0.48-0.3-0.32-0.2-0.62-0.4-0.94-0.56-0.28-0.14-0.56-0.26-0.84-0.38-0.32-0.14-0.62-0.26-0.94-0.34-0.32-0.1-0.62-0.16-0.94-0.22a12 12 0 0 0-0.96-0.16c-0.3-0.02-0.6-0.02-0.92-0.02-0.34-0.02-0.66 0-1 0.04-0.3 0.02-0.6 0.08-0.9 0.12-0.32 0.08-0.66 0.14-0.98 0.24-0.3 0.1-0.6 0.2-0.9 0.32s-0.58 0.26-0.86 0.4c-0.32 0.16-0.62 0.36-0.92 0.56-0.16 0.1-0.34 0.18-0.5 0.3-104.08 78.8-103.54 169.06-103.46 172.68v338.84c-6.2 16.1-13.56 32.82-22.12 48.4V203.92c0.04-2.14 0.34-52.72-57.06-96.3-0.16-0.1-0.32-0.18-0.48-0.28-0.32-0.22-0.62-0.42-0.94-0.58-0.28-0.14-0.56-0.26-0.86-0.38-0.3-0.12-0.6-0.24-0.92-0.34-0.32-0.1-0.64-0.16-0.94-0.22-0.32-0.06-0.62-0.12-0.94-0.14-0.32-0.04-0.64-0.04-0.96-0.04-0.32 0-0.64 0-0.96 0.04-0.32 0.02-0.64 0.08-0.94 0.14-0.32 0.06-0.64 0.12-0.94 0.22a13.008 13.008 0 0 0-1.78 0.72c-0.32 0.16-0.64 0.36-0.94 0.58-0.16 0.1-0.34 0.18-0.5 0.28-57.4 43.58-57.1 94.16-57.06 96.1v493.34c-31.92 25.64-57.54 55.78-57.54 101.02 0 5.52 4.48 10 10 10h202.22v29.46c0 5.52 4.48 10 10 10h186.32c5.52 0 10-4.48 10-10v-29.46h202.22c5.52 0 10-4.48 10-10 0-45.24-25.62-75.38-57.54-101z m-106.22-493.5c0-1.66 0.28-39.42 43.1-75.18 42.84 35.76 43.12 73.54 43.12 75.32v1.82h-86.22v-1.96z m0 21.96h86.22v456.42c-5.64-4.06-11.34-8.04-17.02-12.02-20.12-14.08-40.92-28.64-57.64-45.36-4-4-7.86-8.42-11.56-13.12V225.54zM512 41.42c89.46 71.18 89.52 151.06 89.5 152.04v12.08h-179v-12.24c-0.02-0.82 0.04-80.7 89.5-151.88z m-237.84 162.1c0-0.4-0.18-38.94 43.12-75.12 42.82 35.76 43.1 73.54 43.1 75.32v1.82h-86.22v-2.02z m0 22.02h86.22v385.92c-3.7 4.7-7.56 9.12-11.56 13.12-16.72 16.72-37.52 31.28-57.64 45.36-5.68 3.98-11.38 7.96-17.02 12.02V225.54z m153.06 491.36c-11.72 10.7-18.38 25.64-18.38 41.72v29.46h-191.68c5.04-45.46 44.18-72.86 85.48-101.76 20.84-14.58 42.36-29.64 60.32-47.58 29.44-29.46 50.54-76.24 64.26-115.46v193.62z m0-296.96v30.52c-0.54 2.46-2.1 9.44-4.72 19.42V225.54h179v244.34c-2.62-9.96-4.18-16.94-4.72-19.4v-30.54-0.02c0-31.52-8.38-61.3-23.62-83.82-16.04-23.74-37.76-36.82-61.16-36.82s-45.12 13.08-61.16 36.82c-15.22 22.52-23.6 52.28-23.62 83.8v0.04z m149.24-10h-128.92c3.24-50.82 30.92-90.66 64.46-90.66s61.22 39.84 64.46 90.66zM502 758.64v68.9h-73.16v-68.92c0-11.52 5.26-22.14 14.44-29.12a36.22 36.22 0 0 1 22.14-7.46c20.18 0 36.58 16.4 36.58 36.58v0.02z m12.98-36.06h-5.96c-10.4-12.54-26.08-20.54-43.6-20.54-6.28 0-12.42 1.02-18.2 2.98V451.54 429.94h129.56v275.12c-5.72-1.96-11.84-3.02-18.2-3.02-17.52 0-33.2 8-43.6 20.54z m80.18 36.04v68.92H522v-68.92c0-20.18 16.42-36.58 36.58-36.58 20.16 0 36.56 16.4 36.58 36.54v0.04z m20 29.46v-29.42-0.04c0-16.5-7.08-31.34-18.38-41.7v-193.62c13.72 39.2 34.82 86 64.26 115.44 17.96 17.94 39.48 33.02 60.32 47.58 41.3 28.9 80.44 56.3 85.48 101.76h-191.68z" fill="#23130D" p-id="28202"></path><path d="M502 758.62v68.92h-73.16v-68.92c0-11.52 5.26-22.14 14.44-29.12a36.22 36.22 0 0 1 22.14-7.46c20.18 0 36.58 16.4 36.58 36.58zM595.16 758.58V827.54H522v-68.92c0-20.18 16.42-36.58 36.58-36.58 20.16 0 36.56 16.4 36.58 36.54z" fill="#EC7063" p-id="28203"></path><path d="M502 758.62v15.5c0-20.18-16.4-36.58-36.58-36.58-8.08 0-15.74 2.58-22.14 7.46-9.18 6.98-14.44 17.6-14.44 29.12v-15.5c0-11.52 5.26-22.14 14.44-29.12a36.22 36.22 0 0 1 22.14-7.46c20.18 0 36.58 16.4 36.58 36.58zM595.16 758.58v15.5c-0.02-20.14-16.42-36.54-36.58-36.54-20.16 0-36.58 16.4-36.58 36.58v-15.5c0-20.18 16.42-36.58 36.58-36.58 20.16 0 36.56 16.4 36.58 36.54z" fill="#E1E1E5" p-id="28204"></path><path d="M749.84 203.72v1.82h-86.22v-1.96c0-1.66 0.28-39.42 43.1-75.18 42.84 35.76 43.12 73.54 43.12 75.32zM360.38 203.72v1.82h-86.22v-2.02c0-0.4-0.18-38.94 43.12-75.12 42.82 35.76 43.1 73.54 43.1 75.32z" fill="#EC7063" p-id="28205"></path><path d="M749.84 225.54v456.42c-5.64-4.06-11.34-8.04-17.02-12.02-20.12-14.08-40.92-28.64-57.64-45.36-4-4-7.86-8.42-11.56-13.12V225.54h86.22z" fill="#E1E1E5" p-id="28206"></path><path d="M601.5 193.46v12.08h-179v-12.24c-0.02-0.82 0.04-80.7 89.5-151.88 89.46 71.18 89.52 151.06 89.5 152.04z" fill="#EC7063" p-id="28207"></path><path d="M576.46 409.94h-128.92c3.24-50.82 30.92-90.66 64.46-90.66s61.22 39.84 64.46 90.66z" fill="#636368" p-id="28208"></path><path d="M576.46 409.94h-2.64c-8.22-40.9-32.82-70.66-61.82-70.66s-53.6 29.76-61.82 70.66h-2.64c3.24-50.82 30.92-90.66 64.46-90.66s61.22 39.84 64.46 90.66z" fill="#E1E1E5" p-id="28209"></path><path d="M601.5 225.54v244.34c-2.62-9.96-4.18-16.94-4.72-19.4v-30.54-0.02c0-31.52-8.38-61.3-23.62-83.82-16.04-23.74-37.76-36.82-61.16-36.82s-45.12 13.08-61.16 36.82c-15.22 22.52-23.6 52.28-23.62 83.8v30.56c-0.54 2.46-2.1 9.44-4.72 19.42V225.54h179z" fill="#E1E1E5" p-id="28210"></path><path d="M441.16 193.3v12.24h-18.66v-12.24c-0.02-0.82 0.04-80.7 89.5-151.88 3.22 2.56 6.34 5.14 9.34 7.74-80.14 69.08-80.2 143.34-80.18 144.14zM422.5 225.54h18.66v127.78c-9.06 19.56-13.92 42.56-13.94 66.58v30.56c-0.54 2.46-2.1 9.44-4.72 19.42V225.54z" fill="#FFFFFF" opacity=".5" p-id="28211"></path><path d="M601.5 193.46v12.08h-18.66v-12.08c0.02-0.94-0.04-75.2-80.16-144.3 3-2.6 6.1-5.18 9.32-7.74 89.46 71.18 89.52 151.06 89.5 152.04zM601.5 225.54v244.34c-2.62-9.96-4.18-16.94-4.72-19.4v-30.54-0.02c0-24.02-4.86-47.04-13.94-66.6v-127.78h18.66z" fill="#23130D" opacity=".2" p-id="28212"></path><path d="M360.38 225.54v385.92c-3.7 4.7-7.56 9.12-11.56 13.12-16.72 16.72-37.52 31.28-57.64 45.36-5.68 3.98-11.38 7.96-17.02 12.02V225.54h86.22z" fill="#E1E1E5" p-id="28213"></path><path d="M324.54 134.86c-36.04 34.16-35.88 68.28-35.88 68.66v2.02h-14.5v-2.02c0-0.4-0.18-38.94 43.12-75.12 2.58 2.14 4.98 4.3 7.26 6.46zM288.66 225.54v446.16c-4.84 3.4-9.7 6.8-14.5 10.26V225.54h14.5z" fill="#FFFFFF" opacity=".5" p-id="28214"></path><path d="M360.13 203.72v1.82h-14.5v-1.82c0-1.68-0.24-35.16-35.84-68.86 2.26-2.16 4.68-4.32 7.24-6.46 42.82 35.76 43.1 73.54 43.1 75.32zM360.13 225.54v385.92c-3.7 4.7-7.56 9.12-11.56 13.12-16.72 16.72-37.52 31.28-57.64 45.36-5.68 3.98-11.38 7.96-17.02 12.02v-10.26c0.84-0.58 1.68-1.18 2.52-1.76 20.12-14.08 40.92-28.64 57.64-45.36 4-4 7.86-8.42 11.56-13.12V225.54h14.5z" fill="#23130D" opacity=".2" p-id="28215"></path><path d="M699.084 134.86c36.04 34.16 35.88 68.28 35.88 68.66v2.02h14.5v-2.02c0-0.4 0.18-38.94-43.12-75.12a146.852 146.852 0 0 0-7.26 6.46zM734.964 225.54v446.16c4.84 3.4 9.7 6.8 14.5 10.26V225.54h-14.5z" fill="#FFFFFF" opacity=".5" p-id="28216"></path><path d="M663.494 203.72v1.82h14.5v-1.82c0-1.68 0.24-35.16 35.84-68.86a146.204 146.204 0 0 0-7.24-6.46c-42.82 35.76-43.1 73.54-43.1 75.32zM663.494 225.54v385.92c3.7 4.7 7.56 9.12 11.56 13.12 16.72 16.72 37.52 31.28 57.64 45.36 5.68 3.98 11.38 7.96 17.02 12.02v-10.26c-0.84-0.58-1.68-1.18-2.52-1.76-20.12-14.08-40.92-28.64-57.64-45.36-4-4-7.86-8.42-11.56-13.12V225.54h-14.5z" fill="#23130D" opacity=".2" p-id="28217"></path><path d="M427.22 523.28v193.62c-11.72 10.7-18.38 25.64-18.38 41.72v29.46h-191.68c5.04-45.46 44.18-72.86 85.48-101.76 20.84-14.58 42.36-29.64 60.32-47.58 29.44-29.46 50.54-76.24 64.26-115.46z" fill="#636368" p-id="28218"></path><path d="M427.22 523.28v193.62c-11.72 10.7-18.38 25.64-18.38 41.72v29.46h-20.54v-29.46c0-16.08 6.66-31.02 18.38-41.72v-143.54c8.12-16.82 14.94-34.1 20.54-50.08z" fill="#23130D" opacity=".2" p-id="28219"></path><path d="M576.78 429.94v275.12c-5.72-1.96-11.84-3.02-18.2-3.02-17.52 0-33.2 8-43.6 20.54h-5.96c-10.4-12.54-26.08-20.54-43.6-20.54-6.28 0-12.42 1.02-18.2 2.98V451.54 429.94h129.56z" fill="#E1E1E5" p-id="28220"></path><path d="M447.22 429.94h20v272.12c-0.6-0.02-1.2-0.02-1.8-0.02-6.28 0-12.42 1.02-18.2 2.98V451.54 429.94z" fill="#E1E1E5" p-id="28221"></path><path d="M576.78 702.06v3c-2.66-0.92-5.42-1.64-8.24-2.12 2.68-0.5 5.44-0.78 8.24-0.88zM467.22 702.06c2.78 0.1 5.52 0.38 8.2 0.88-2.8 0.48-5.54 1.18-8.2 2.08v-2.96z" fill="#23130D" opacity=".2" p-id="28222"></path><path d="M576.46 429.94v275.12c-5.72-1.96-11.84-3.02-18.2-3.02-0.6 0-1.2 0-1.8 0.02V429.94h20z" fill="#23130D" opacity=".2" p-id="28223"></path><path d="M615.16 758.66v-0.04c0-16.5-7.08-31.34-18.38-41.7v-193.62c13.72 39.2 34.82 86 64.26 115.44 17.96 17.94 39.48 33.02 60.32 47.58 41.3 28.9 80.44 56.3 85.48 101.76h-191.68v-29.42z" fill="#636368" p-id="28224"></path><path d="M512 887.77a10 10 0 0 0-10 10v97.476a10 10 0 1 0 20 0v-97.476a10 10 0 0 0-10-10zM549.398 877.466a10 10 0 0 0-10 10v73.956c0 5.524 4.476 10 10 10s10-4.476 10-10v-73.956a10 10 0 0 0-10-10zM586.804 856.534a10 10 0 0 0-10 10v66.706c0 5.524 4.476 10 10 10s10-4.476 10-10v-66.706a10 10 0 0 0-10-10zM437.196 856.534a10 10 0 0 0-10 10v66.706a10 10 0 1 0 20 0v-66.706a10 10 0 0 0-10-10zM474.596 877.466a10 10 0 0 0-10 10v73.956a10 10 0 1 0 20 0v-73.956a10 10 0 0 0-10-10zM281.426 852.346a10 10 0 0 0-10 10v97.476a10 10 0 1 0 20 0v-97.476a10 10 0 0 0-10-10zM318.826 842.044a10 10 0 0 0-10 10v73.954a10 10 0 1 0 20 0v-73.954a10 10 0 0 0-10-10zM356.23 821.11a10 10 0 0 0-10 10v66.708a10 10 0 1 0 20 0v-66.708a10 10 0 0 0-10-10zM206.624 821.11a10 10 0 0 0-10 10v66.708a10 10 0 1 0 20 0v-66.708a10 10 0 0 0-10-10zM244.022 842.044a10 10 0 0 0-10 10v73.954a10 10 0 1 0 20 0v-73.954a10 10 0 0 0-10-10zM742.572 852.346a10 10 0 0 0-10 10v97.476c0 5.524 4.476 10 10 10s10-4.476 10-10v-97.476a10 10 0 0 0-10-10zM779.972 842.044a10 10 0 0 0-10 10v73.954c0 5.524 4.476 10 10 10s10-4.476 10-10v-73.954a10 10 0 0 0-10-10zM817.376 821.11a10 10 0 0 0-10 10v66.708c0 5.524 4.476 10 10 10s10-4.476 10-10v-66.708a10 10 0 0 0-10-10zM667.77 821.11a10 10 0 0 0-10 10v66.708c0 5.524 4.476 10 10 10s10-4.476 10-10v-66.708a10 10 0 0 0-10-10zM705.17 842.044a10 10 0 0 0-10 10v73.954c0 5.524 4.476 10 10 10s10-4.476 10-10v-73.954a10 10 0 0 0-10-10z" fill="#23130D" p-id="28225"></path><path d="M596.78 523.28v193.62c11.72 10.7 18.38 25.64 18.38 41.72v29.46h20.54v-29.46c0-16.08-6.66-31.02-18.38-41.72v-143.54c-8.12-16.82-14.94-34.1-20.54-50.08z" fill="#23130D" opacity=".2" p-id="28226"></path></svg>