<?xml version="1.0" standalone="no"?><!DOCTYPE svg PUBLIC "-//W3C//DTD SVG 1.1//EN" "http://www.w3.org/Graphics/SVG/1.1/DTD/svg11.dtd"><svg t="1625811451458" class="icon" viewBox="0 0 1024 1024" version="1.1" xmlns="http://www.w3.org/2000/svg" p-id="29919" xmlns:xlink="http://www.w3.org/1999/xlink" width="200" height="200"><defs><style type="text/css"></style></defs><path d="M950.12 912.44h-29.28V432.92c0-40.44-32.92-73.34-73.36-73.34H642.32c9.04-12.76 16.26-26.1 17.18-37.04 0.02-0.28 0.02-0.56 0.02-0.84v-5.26h167.38c0.06 0 0.12 0.02 0.2 0.02h33.84c5.52 0 10-4.48 10-10v-63.54c0-5.54-4.48-10-10-10h-33.2c-0.22-0.02-0.42-0.02-0.64-0.02H601.76l0.02-18.26v-0.02l-0.02-18.74c0.22-10.16-3.52-19.82-10.52-27.22-7.06-7.4-16.58-11.64-26.8-11.9-10.24-0.24-19.94 3.5-27.36 10.54-0.74 0.72-1.44 1.48-2.14 2.24-6.8-7.58-16.56-12.5-27.52-12.78-10.24-0.24-19.94 3.5-27.36 10.54-0.74 0.72-1.44 1.48-2.12 2.24-0.26-0.28-0.5-0.6-0.76-0.88a38.1 38.1 0 0 0-26.8-11.9c-10.2-0.24-19.94 3.5-27.34 10.54-0.94 0.9-1.82 1.82-2.66 2.78-6.54-6.96-15.68-11.4-25.86-11.66-9.8-0.24-19.14 3.36-26.3 10.16-7.34 6.98-11.52 16.44-11.76 26.64l-0.36 14.4v0.24l-0.06 4.74v0.66l-0.1 17.66h-116.98c-0.58 0-1.18 0.06-1.74 0.18-0.14 0.02-0.28 0.06-0.4 0.08-0.56 0.12-1.1 0.28-1.64 0.5v0.02h-0.06L159.2 265.46a10.008 10.008 0 0 0 0 18.46l75.92 31.74c0.02 0.02 0.04 0.02 0.06 0.02v0.02c0.08 0.02 0.16 0.04 0.22 0.06 0.54 0.2 1.08 0.4 1.66 0.5 0.66 0.14 1.32 0.2 1.98 0.2h116.42l-0.02 4.62-0.7 38.5H176.56h-0.04c-21.48 0-40.84 9.28-54.28 24.06-11.84 13.02-19.08 30.34-19.08 49.3v479.5H73.88c-5.54 0-10 4.48-10 10v39.3a10 10 0 0 0 5.62 9l64.84 31.44c1.36 0.66 2.86 1 4.36 1h746.6c1.5 0 3-0.34 4.36-1l64.84-31.44a10 10 0 0 0 5.62-9v-39.3c0-5.52-4.46-10-10-10z m-113.04-637.74l0.02-21.78h13.84v43.54h-13.84l-0.02-7.9v-13.86z m-608.04 16.74l-40.06-16.76 15.54-6.5 24.52-10.24v33.5z m372.7-38.54h215.36l-0.02 11.78H601.72l0.02-11.78z m-0.04 31.78h215.38v11.76H601.7v-11.76z m-227 77.58l0.74-40.94 0.08-14.76v-0.18l0.52-91.02v-0.18l0.42-19.46c0.12-4.86 2.08-9.36 5.54-12.64 3.3-3.14 7.52-4.8 12-4.68 9.44 0.26 16.94 8.42 16.7 18.22 0 0.08-0.02 0.16-0.02 0.26l0.02 17.52v0.96c0 5.52 4.48 10 10 10 2.78 0 5.26-1.12 7.08-2.92 1.8-1.82 2.92-4.32 2.92-7.08v-0.7l0.42-20.06a18.27 18.27 0 0 1 5.7-12.8 18.164 18.164 0 0 1 13.06-5.04c4.9 0.12 9.44 2.14 12.8 5.68a18.212 18.212 0 0 1 5.04 13.08v19.12c0 0.36 0.08 0.7 0.12 1.04 0.02 0.3 0.02 0.62 0.08 0.9 0.08 0.4 0.22 0.78 0.36 1.18 0.08 0.22 0.12 0.48 0.22 0.7 0.16 0.42 0.4 0.8 0.62 1.2 0.1 0.16 0.18 0.34 0.28 0.5 0.28 0.4 0.6 0.78 0.92 1.14 0.1 0.12 0.18 0.24 0.28 0.34 0.38 0.38 0.8 0.7 1.22 1.02 0.08 0.06 0.16 0.14 0.24 0.2 0.48 0.32 0.98 0.58 1.48 0.82 0.08 0.04 0.14 0.08 0.22 0.12 0.54 0.24 1.12 0.42 1.7 0.54 0.06 0.02 0.1 0.04 0.16 0.06 0.6 0.12 1.24 0.2 1.88 0.2 0.04 0 0.08 0.02 0.12 0.02H477.74c3.34 0 6.28-1.66 8.1-4.18 0.04-0.06 0.1-0.12 0.14-0.18 0.28-0.38 0.48-0.82 0.68-1.24 0.08-0.16 0.18-0.3 0.26-0.46 0.16-0.36 0.26-0.78 0.38-1.16 0.06-0.24 0.16-0.46 0.2-0.7 0.08-0.36 0.1-0.72 0.12-1.1 0.04-0.28 0.1-0.58 0.1-0.88l0.44-20.12a18.168 18.168 0 0 1 5.68-12.8 18.1 18.1 0 0 1 13.06-5.04c10.1 0.26 18.1 8.68 17.86 18.76-0.02 0.08-0.02 0.16-0.02 0.26l0.02 18.38v0.36c-0.02 0.02 0 0.02 0 0.04v0.08c0 0.2 0.04 0.38 0.06 0.58 0.02 0.48 0.04 0.94 0.14 1.38 0.04 0.26 0.14 0.48 0.2 0.72 0.12 0.4 0.22 0.78 0.36 1.16 0.12 0.28 0.28 0.52 0.42 0.78 0.16 0.32 0.3 0.62 0.5 0.9 0.18 0.3 0.42 0.56 0.64 0.82 0.2 0.22 0.36 0.46 0.56 0.66 0.28 0.28 0.6 0.52 0.9 0.76 0.2 0.16 0.36 0.34 0.56 0.48 0.38 0.24 0.78 0.44 1.16 0.64 0.18 0.08 0.34 0.2 0.54 0.28 0.44 0.2 0.92 0.32 1.4 0.46 0.16 0.04 0.3 0.1 0.46 0.14 0.52 0.1 1.06 0.16 1.6 0.18 0.12 0 0.26 0.04 0.38 0.04h0.12c1.72 0 3.32-0.42 4.72-1.18 1.42-0.76 2.62-1.84 3.52-3.16v-0.02c0.32-0.44 0.58-0.94 0.8-1.44 0.04-0.08 0.1-0.16 0.14-0.24 0.2-0.46 0.32-0.94 0.46-1.42 0.04-0.16 0.1-0.3 0.14-0.46 0.08-0.44 0.1-0.88 0.14-1.34 0.02-0.22 0.06-0.42 0.08-0.64v-0.08-0.1l0.42-19.94a18.168 18.168 0 0 1 5.68-12.8 18.244 18.244 0 0 1 13.08-5.04 18.278 18.278 0 0 1 17.82 18.76v0.26l0.02 18.86v0.02l-0.06 60v0.06l-0.08 75.32c0 0.66 0.06 1.3 0.18 1.92 0 0.02 0.02 0.06 0.02 0.1 0.12 0.58 0.3 1.16 0.52 1.7 0.08 0.18 0.14 0.34 0.22 0.5 0.12 0.26 0.24 0.5 0.38 0.74 0.2 0.36 0.44 0.72 0.7 1.06 0.24 0.34 0.52 0.66 0.82 0.96 0.16 0.18 0.34 0.34 0.52 0.5 0.04 0.04 0.08 0.08 0.12 0.1 0.08 0.08 0.18 0.16 0.28 0.24 0.12 0.1 0.24 0.2 0.38 0.28 0.22 0.16 0.44 0.3 0.66 0.44 0.2 0.12 0.4 0.24 0.6 0.34 0.3 0.16 0.6 0.3 0.92 0.42 0.28 0.1 0.54 0.2 0.82 0.28s0.56 0.16 0.84 0.22h0.02c0.06 0.02 0.1 0.02 0.16 0.02 0.26 0.06 0.54 0.1 0.82 0.12v0.02c0.34 0.02 0.68 0.04 1.02 0.04 2.76 0 5.26-1.12 7.08-2.92 1.8-1.8 2.92-4.3 2.92-7.06v-2.42l0.04-31.2h37.84v4.8c-1.04 9.96-12.04 26.04-24.76 41.26-0.2 0.2-0.38 0.44-0.56 0.66-8.74 10.4-18.26 20.34-25.88 27.58l-0.42 0.42-18.62 19.86c-1.34-0.16-2.7-0.26-4.08-0.26h-0.2l-178.06 1.02c-0.82 0-1.62 0.06-2.42 0.12-6.38-6.82-10.48-16.86-10.26-25.76l0.44-23.88z m1.36 74.14a15.434 15.434 0 0 1 11-4.62l178.14-1.02c8.54 0 15.52 6.96 15.58 15.5 0.04 8.58-6.9 15.6-15.5 15.66l-178.06 1.02h-0.08c-4.26 0-8.14-1.74-10.98-4.54a15.72 15.72 0 0 1-4.6-10.96c-0.02-4.16 1.58-8.08 4.5-11.04z m1.22 45.12v131.38l-21.68 10.6-53.6 26.2c-0.18 0.08-0.34 0.22-0.52 0.32-0.32 0.18-0.64 0.36-0.94 0.58-0.26 0.18-0.48 0.38-0.72 0.6-0.26 0.22-0.5 0.42-0.72 0.66s-0.42 0.5-0.62 0.76c-0.18 0.26-0.38 0.5-0.54 0.78-0.18 0.26-0.32 0.54-0.46 0.82-0.14 0.3-0.3 0.6-0.4 0.9-0.12 0.3-0.2 0.62-0.3 0.92-0.08 0.32-0.16 0.62-0.22 0.94-0.06 0.36-0.08 0.72-0.1 1.08-0.02 0.2-0.06 0.4-0.06 0.62v43.5c-13.2 4.24-22.76 16.6-22.76 31.18 0 18.06 14.68 32.76 32.76 32.76 18.06 0 32.74-14.7 32.74-32.76 0-14.58-9.56-26.94-22.74-31.18v-37.26l54.16-26.46 21.12-10.32c0.18-0.1 0.34-0.22 0.52-0.32 0.32-0.2 0.64-0.38 0.94-0.58 0.26-0.2 0.48-0.4 0.72-0.62 0.26-0.2 0.5-0.42 0.72-0.66 0.12-0.14 0.24-0.28 0.34-0.42 0.1-0.1 0.2-0.22 0.28-0.34 0.2-0.24 0.38-0.5 0.54-0.76 0.18-0.28 0.32-0.56 0.46-0.84 0.14-0.3 0.3-0.58 0.4-0.9 0.12-0.3 0.2-0.6 0.3-0.92 0.08-0.3 0.16-0.6 0.22-0.92 0.06-0.36 0.08-0.72 0.1-1.1 0.02-0.2 0.06-0.4 0.06-0.6v-136.28l5.4-0.04 121.8-0.7 28.78-0.16v137.18c0 0.16 0.06 0.32 0.06 0.48 0.02 0.42 0.06 0.84 0.12 1.26l0.18 0.78c0.1 0.36 0.2 0.72 0.34 1.08 0.1 0.26 0.22 0.5 0.34 0.76 0.18 0.32 0.34 0.64 0.54 0.96 0.14 0.22 0.3 0.44 0.46 0.66 0.22 0.3 0.46 0.58 0.72 0.86 0.18 0.2 0.4 0.38 0.6 0.58 0.28 0.24 0.54 0.46 0.82 0.68 0.28 0.18 0.56 0.34 0.86 0.52 0.2 0.12 0.36 0.26 0.58 0.36l75.28 36.78v37.26c-0.72 0.24-1.44 0.5-2.16 0.78-0.62 0.24-1.22 0.52-1.82 0.8-0.54 0.24-1.06 0.52-1.58 0.82-0.32 0.16-0.62 0.32-0.92 0.5a30.056 30.056 0 0 0-3.2 2.14c-0.58 0.42-1.12 0.86-1.64 1.32a29.98 29.98 0 0 0-2.56 2.44c-0.3 0.3-0.58 0.62-0.84 0.94-0.56 0.64-1.1 1.3-1.6 1.98a33.45 33.45 0 0 0-2.52 3.96c-0.28 0.48-0.52 0.98-0.76 1.5-0.04 0.08-0.08 0.16-0.12 0.26a18.2 18.2 0 0 0-0.74 1.7c-0.22 0.52-0.42 1.08-0.6 1.62-0.14 0.42-0.28 0.82-0.38 1.24-0.12 0.42-0.24 0.84-0.34 1.26-0.04 0.14-0.08 0.28-0.1 0.42-0.12 0.4-0.2 0.8-0.26 1.22-0.02 0.06-0.04 0.14-0.04 0.2a25.404 25.404 0 0 0-0.46 3.38c-0.04 0.32-0.06 0.62-0.08 0.94-0.02 0.58-0.04 1.18-0.04 1.76 0 18.06 14.7 32.76 32.76 32.76 0.62 0 1.24-0.02 1.86-0.06 0.24 0 0.5-0.02 0.74-0.04l1.24-0.12 0.9-0.12c0.2-0.02 0.4-0.06 0.58-0.1 0.4-0.06 0.78-0.12 1.16-0.2 1.1-0.22 2.2-0.5 3.26-0.84 0.52-0.16 1.02-0.32 1.52-0.52 0.48-0.16 0.92-0.34 1.38-0.54 0.12-0.04 0.24-0.1 0.36-0.16 0.4-0.16 0.78-0.34 1.16-0.52 0.98-0.46 1.92-0.98 2.82-1.54 0.46-0.26 0.9-0.54 1.32-0.84 0.44-0.3 0.88-0.6 1.3-0.92 2-1.5 3.82-3.22 5.44-5.12l0.78-0.96c0.5-0.64 0.96-1.3 1.42-1.96 0.56-0.84 1.08-1.7 1.56-2.6 0.28-0.48 0.52-0.98 0.76-1.48 0.22-0.46 0.42-0.9 0.62-1.38 0.22-0.48 0.4-0.98 0.58-1.48 0.2-0.52 0.38-1.06 0.54-1.58 0.16-0.5 0.3-1 0.42-1.5 0.08-0.28 0.14-0.56 0.2-0.84 0.08-0.32 0.14-0.64 0.22-0.96 0-0.06 0.02-0.12 0.02-0.18 0.04-0.16 0.08-0.34 0.1-0.5 0.34-1.86 0.5-3.76 0.5-5.7 0-14.58-9.58-26.94-22.76-31.18v-43.5c0-0.22-0.04-0.42-0.06-0.62-0.02-0.36-0.04-0.72-0.12-1.08-0.04-0.32-0.14-0.62-0.22-0.94-0.08-0.3-0.16-0.62-0.28-0.92s-0.26-0.6-0.4-0.9c-0.14-0.28-0.3-0.56-0.46-0.82-0.16-0.28-0.36-0.52-0.56-0.78-0.2-0.26-0.4-0.52-0.62-0.76-0.22-0.24-0.46-0.44-0.7-0.66a8.868 8.868 0 0 0-1.66-1.18c-0.18-0.1-0.34-0.24-0.52-0.32l-75.3-36.78v-131.96c15.82-3.68 27.6-17.92 27.52-34.82-0.04-6.02-1.6-11.68-4.28-16.66H857.6v443.68H166.4V429.48h190c-0.88 1.54-1.66 3.12-2.32 4.76-0.42 1.04-0.78 2.08-1.08 3.16-0.16 0.54-0.3 1.08-0.44 1.62 0 0.04-0.02 0.08-0.04 0.14-0.1 0.5-0.22 1-0.32 1.5-0.22 1.12-0.38 2.28-0.48 3.44-0.06 0.46-0.08 0.94-0.1 1.42-0.04 0.68-0.06 1.36-0.06 2.04 0.1 16.08 10.98 29.68 25.72 33.96z m-58.14 251.84c0 7.04-5.72 12.76-12.74 12.76-7.04 0-12.76-5.72-12.76-12.76s5.72-12.76 12.76-12.76c7.02 0 12.74 5.72 12.74 12.76z m325.02-12.76c7.04 0 12.76 5.72 12.76 12.76s-5.72 12.76-12.76 12.76-12.76-5.72-12.76-12.76 5.72-12.76 12.76-12.76zM249.04 252.92h106.78l-0.06 11.76h-106.72v-11.76z m0 43.54v-11.78h106.6l-0.06 11.78h-106.54z m-125.88 136.46c0-13.78 5.26-26.36 13.88-35.84 9.78-10.74 23.86-17.5 39.48-17.5h177.86l-0.12 6.14c-0.2 7.98 1.62 16.2 5.02 23.76H156.4c-5.52 0-10 4.48-10 10v463.68c0 5.52 4.48 10 10 10h711.2c5.52 0 10-4.48 10-10V419.48c0-5.52-4.48-10-10-10H598.14l4.16-4.44c2.78-2.64 13.08-12.62 24.18-25.46h221.04c29.4 0.02 53.32 23.94 53.32 53.34v479.52H123.16V432.92z m816.96 522.56l-57.12 27.7h-742l-57.12-27.7v-23.04h856.24v23.04z" fill="#23130D" p-id="29920"></path><path d="M319.14 733.36c0 7.04-5.72 12.76-12.74 12.76-7.04 0-12.76-5.72-12.76-12.76s5.72-12.76 12.76-12.76c7.02 0 12.74 5.72 12.74 12.76zM656.92 733.36c0 7.04-5.72 12.76-12.76 12.76s-12.76-5.72-12.76-12.76 5.72-12.76 12.76-12.76 12.76 5.72 12.76 12.76z" fill="#FFFFFF" p-id="29921"></path><path d="M850.94 252.92v43.54h-13.84l-0.02-21.76 0.02-21.78z" fill="#EC7063" p-id="29922"></path><path d="M850.94 280.666v15.794h-13.84l-0.02-7.894 0.02-7.9z" fill="#23130D" opacity=".2" p-id="29923"></path><path d="M817.1 252.9l-0.02 11.78H601.72l0.02-11.78zM601.7 284.68h215.38v11.76H601.7zM355.64 284.68l-0.06 11.78h-106.54v-11.78z" fill="#F9C139" p-id="29924"></path><path d="M601.7 284.68h215.38v11.76H601.7zM355.64 284.68l-0.06 11.78h-106.54v-11.78z" fill="#23130D" opacity=".2" p-id="29925"></path><path d="M355.82 252.92l-0.06 11.76h-106.72v-11.76z" fill="#F9C139" p-id="29926"></path><path d="M229.04 257.94v33.5l-40.06-16.76z" fill="#E1E1E5" p-id="29927"></path><path d="M229.04 278.44v13l-40.06-16.76 15.54-6.5z" fill="#23130D" opacity=".2" p-id="29928"></path><path d="M83.88 932.44v23.04l57.12 27.7h742l57.12-27.7v-23.04H83.88z m534.22 35.38h-212.2c-5.52 0-10-4.48-10-10 0-5.54 4.48-10 10-10h212.2c5.52 0 10 4.46 10 10 0 5.52-4.48 10-10 10z" fill="#636368" p-id="29929"></path><path d="M883 963.18H626.52a9.922 9.922 0 0 1-8.42 4.64h-212.2c-3.54 0-6.66-1.84-8.42-4.64H141l-57.12-27.7v20l57.12 27.7h742l57.12-27.7v-20l-57.12 27.7z" fill="#23130D" opacity=".2" p-id="29930"></path><path d="M900.84 432.92v479.52H123.16V432.92c0-13.78 5.26-26.36 13.88-35.84 9.78-10.74 23.86-17.5 39.48-17.5h177.86l-0.12 6.14c-0.2 7.98 1.62 16.2 5.02 23.76H156.4c-5.52 0-10 4.48-10 10v463.68c0 5.52 4.48 10 10 10h711.2c5.52 0 10-4.48 10-10V419.48c0-5.52-4.48-10-10-10H598.14l4.16-4.44c2.78-2.64 13.08-12.62 24.18-25.46h221.04c29.4 0.02 53.32 23.94 53.32 53.34z" fill="#E1E1E5" p-id="29931"></path><path d="M639.52 316.44v4.8c-1.04 9.96-12.04 26.04-24.76 41.26-0.2 0.2-0.38 0.44-0.56 0.66-8.74 10.4-18.26 20.34-25.88 27.58l-0.42 0.42-18.62 19.86c-1.34-0.16-2.7-0.26-4.08-0.26h-0.2l-178.06 1.02c-0.82 0-1.62 0.06-2.42 0.12-6.38-6.82-10.48-16.86-10.26-25.76l1.18-64.82 0.08-14.76v-0.18l0.52-91.02v-0.18l0.42-19.46c0.12-4.86 2.08-9.36 5.54-12.64 3.3-3.14 7.52-4.8 12-4.68 9.44 0.26 16.94 8.42 16.7 18.22 0 0.08-0.02 0.16-0.02 0.26l0.02 17.52v0.96c0 5.52 4.48 10 10 10 2.78 0 5.26-1.12 7.08-2.92 1.8-1.82 2.92-4.32 2.92-7.08v-0.7l0.42-20.06a18.27 18.27 0 0 1 5.7-12.8 18.164 18.164 0 0 1 13.06-5.04c4.9 0.12 9.44 2.14 12.8 5.68a18.212 18.212 0 0 1 5.04 13.08v19.12c0 0.36 0.08 0.7 0.12 1.04 0.02 0.3 0.02 0.62 0.08 0.9 0.08 0.4 0.22 0.78 0.36 1.18 0.08 0.22 0.12 0.48 0.22 0.7 0.16 0.42 0.4 0.8 0.62 1.2 0.1 0.16 0.18 0.34 0.28 0.5 0.28 0.4 0.6 0.78 0.92 1.14 0.1 0.12 0.18 0.24 0.28 0.34 0.38 0.38 0.8 0.7 1.22 1.02 0.08 0.06 0.16 0.14 0.24 0.2 0.48 0.32 0.98 0.58 1.48 0.82 0.08 0.04 0.14 0.08 0.22 0.12 0.54 0.24 1.12 0.42 1.7 0.54 0.06 0.02 0.1 0.04 0.16 0.06 0.6 0.12 1.24 0.2 1.88 0.2 0.04 0 0.08 0.02 0.12 0.02H477.74c3.34 0 6.28-1.66 8.1-4.18 0.04-0.06 0.1-0.12 0.14-0.18 0.28-0.38 0.48-0.82 0.68-1.24 0.08-0.16 0.18-0.3 0.26-0.46 0.16-0.36 0.26-0.78 0.38-1.16 0.06-0.24 0.16-0.46 0.2-0.7 0.08-0.36 0.1-0.72 0.12-1.1 0.04-0.28 0.1-0.58 0.1-0.88l0.44-20.12a18.168 18.168 0 0 1 5.68-12.8 18.1 18.1 0 0 1 13.06-5.04c10.1 0.26 18.1 8.68 17.86 18.76-0.02 0.08-0.02 0.16-0.02 0.26l0.02 18.38v0.36c-0.02 0.02 0 0.02 0 0.04v0.08c0 0.2 0.04 0.38 0.06 0.58 0.02 0.48 0.04 0.94 0.14 1.38 0.04 0.26 0.14 0.48 0.2 0.72 0.12 0.4 0.22 0.78 0.36 1.16 0.12 0.28 0.28 0.52 0.42 0.78 0.16 0.32 0.3 0.62 0.5 0.9 0.18 0.3 0.42 0.56 0.64 0.82 0.2 0.22 0.36 0.46 0.56 0.66 0.28 0.28 0.6 0.52 0.9 0.76 0.2 0.16 0.36 0.34 0.56 0.48 0.38 0.24 0.78 0.44 1.16 0.64 0.18 0.08 0.34 0.2 0.54 0.28 0.44 0.2 0.92 0.32 1.4 0.46 0.16 0.04 0.3 0.1 0.46 0.14 0.52 0.1 1.06 0.16 1.6 0.18 0.12 0 0.26 0.04 0.38 0.04h0.12c1.72 0 3.32-0.42 4.72-1.18 1.42-0.76 2.62-1.84 3.52-3.16v-0.02c0.32-0.44 0.58-0.94 0.8-1.44 0.04-0.08 0.1-0.16 0.14-0.24 0.2-0.46 0.32-0.94 0.46-1.42 0.04-0.16 0.1-0.3 0.14-0.46 0.08-0.44 0.1-0.88 0.14-1.34 0.02-0.22 0.06-0.42 0.08-0.64v-0.08-0.1l0.42-19.94a18.168 18.168 0 0 1 5.68-12.8 18.244 18.244 0 0 1 13.08-5.04 18.278 18.278 0 0 1 17.82 18.76v0.26l0.02 18.86v0.02l-0.06 60v0.06l-0.08 75.32c0 5.52 4.46 10 10 10 2.76 0 5.26-1.12 7.08-2.92 1.8-1.8 2.92-4.3 2.92-7.06l0.04-33.62h37.84z" fill="#F8D3C9" p-id="29932"></path><path d="M639.52 316.44v4.8c-1.04 9.96-12.04 26.04-24.76 41.26-0.2 0.2-0.38 0.44-0.56 0.66-8.74 10.4-18.26 20.34-25.88 27.58l-0.42 0.42-18.62 19.86c-1.34-0.16-2.7-0.26-4.08-0.26h-0.2l-178.06 1.02c-0.82 0-1.62 0.06-2.42 0.12-6.38-6.82-10.48-16.86-10.26-25.76l0.44-23.88c1.18 7.24 4.78 14.62 9.82 20 0.8-0.06 1.6-0.12 2.42-0.12l178.06-1.02h0.2c1.38 0 2.74 0.1 4.08 0.26l18.62-19.86 0.42-0.42c0.42-0.4 0.86-0.82 1.3-1.26h0.02a10.044 10.044 0 0 0 9.08-2.72c1.8-1.8 2.92-4.3 2.92-7.06v-2.42c4.18-4.46 8.46-9.24 12.56-14.12 0.18-0.22 0.36-0.46 0.56-0.66 4.58-5.48 8.92-11.06 12.64-16.42h12.12z" fill="#23130D" opacity=".2" p-id="29933"></path><path d="M580.78 446.26c0.04 8.58-6.9 15.6-15.5 15.66l-178.06 1.02h-0.08c-4.26 0-8.14-1.74-10.98-4.54a15.72 15.72 0 0 1-4.6-10.96c-0.02-4.16 1.58-8.08 4.5-11.04a15.434 15.434 0 0 1 11-4.62l178.14-1.02c8.54 0 15.52 6.96 15.58 15.5z" fill="#F9C139" p-id="29934"></path><path d="M486.16 716.78v37.28L520.12 788c0.52-0.72 1.1-1.4 1.7-2.04 0.42-0.48 0.86-0.96 1.32-1.42 0.18-0.18 0.38-0.34 0.56-0.52 0.42-0.4 0.86-0.8 1.32-1.18 0.32-0.28 0.66-0.54 1-0.8 0.4-0.32 0.8-0.62 1.22-0.92 0.48-0.34 0.96-0.68 1.48-0.98 0.5-0.32 1-0.62 1.54-0.92 0.74-0.42 1.5-0.8 2.28-1.16 0.78-0.36 1.56-0.68 2.38-0.98 0.4-0.14 0.8-0.28 1.22-0.42v-9.9l-49.98-49.98z m0 0v37.28L520.12 788c0.52-0.72 1.1-1.4 1.7-2.04 0.42-0.48 0.86-0.96 1.32-1.42 0.18-0.18 0.38-0.34 0.56-0.52 0.42-0.4 0.86-0.8 1.32-1.18 0.32-0.28 0.66-0.54 1-0.8 0.4-0.32 0.8-0.62 1.22-0.92 0.48-0.34 0.96-0.68 1.48-0.98 0.5-0.32 1-0.62 1.54-0.92 0.74-0.42 1.5-0.8 2.28-1.16 0.78-0.36 1.56-0.68 2.38-0.98 0.4-0.14 0.8-0.28 1.22-0.42v-9.9l-49.98-49.98z m0 0v37.28L520.12 788c0.52-0.72 1.1-1.4 1.7-2.04 0.42-0.48 0.86-0.96 1.32-1.42 0.18-0.18 0.38-0.34 0.56-0.52 0.42-0.4 0.86-0.8 1.32-1.18 0.32-0.28 0.66-0.54 1-0.8 0.4-0.32 0.8-0.62 1.22-0.92 0.48-0.34 0.96-0.68 1.48-0.98 0.5-0.32 1-0.62 1.54-0.92 0.74-0.42 1.5-0.8 2.28-1.16 0.78-0.36 1.56-0.68 2.38-0.98 0.4-0.14 0.8-0.28 1.22-0.42v-9.9l-49.98-49.98z m0 0v37.28L520.12 788c0.52-0.72 1.1-1.4 1.7-2.04 0.42-0.48 0.86-0.96 1.32-1.42 0.18-0.18 0.38-0.34 0.56-0.52 0.42-0.4 0.86-0.8 1.32-1.18 0.32-0.28 0.66-0.54 1-0.8 0.4-0.32 0.8-0.62 1.22-0.92 0.48-0.34 0.96-0.68 1.48-0.98 0.5-0.32 1-0.62 1.54-0.92 0.74-0.42 1.5-0.8 2.28-1.16 0.78-0.36 1.56-0.68 2.38-0.98 0.4-0.14 0.8-0.28 1.22-0.42v-9.9l-49.98-49.98z m29.8 78.36c0.18-0.44 0.38-0.88 0.58-1.3-0.18 0.38-0.36 0.78-0.54 1.16-0.02 0.04-0.04 0.1-0.04 0.14z m-0.56 1.4c0.18-0.48 0.36-0.94 0.56-1.4-0.06 0.14-0.12 0.26-0.18 0.4-0.12 0.34-0.26 0.66-0.38 1z m81.1-367.06c2.68 4.98 4.24 10.64 4.28 16.66 0.08 16.9-11.7 31.14-27.52 34.82v131.96l75.3 36.78c0.18 0.08 0.34 0.22 0.52 0.32a8.868 8.868 0 0 1 1.66 1.18c0.24 0.22 0.48 0.42 0.7 0.66 0.22 0.24 0.42 0.5 0.62 0.76s0.4 0.5 0.56 0.78c0.16 0.26 0.32 0.54 0.46 0.82 0.14 0.3 0.28 0.6 0.4 0.9s0.2 0.62 0.28 0.92c0.08 0.32 0.18 0.62 0.22 0.94 0.08 0.36 0.1 0.72 0.12 1.08 0.02 0.2 0.06 0.4 0.06 0.62v43.5c13.18 4.24 22.76 16.6 22.76 31.18 0 0.56-0.02 1.14-0.04 1.7l-0.06 0.8a13 13 0 0 1-0.12 1.24c-0.02 0.26-0.06 0.54-0.1 0.82l-0.06 0.4c-0.06 0.42-0.12 0.82-0.22 1.24v0.04c-0.12 0.66-0.26 1.3-0.44 1.94-0.12 0.5-0.26 1-0.42 1.5-0.16 0.52-0.34 1.06-0.54 1.58-0.18 0.5-0.36 1-0.58 1.48-0.24 0.58-0.5 1.14-0.78 1.7-0.1 0.22-0.22 0.44-0.34 0.66-0.08 0.18-0.16 0.34-0.26 0.5-0.48 0.9-1 1.76-1.56 2.6-0.46 0.66-0.92 1.32-1.42 1.96l-0.78 0.96c-1.62 1.9-3.44 3.62-5.44 5.12-0.42 0.32-0.86 0.64-1.3 0.92-0.42 0.3-0.86 0.58-1.32 0.84-0.9 0.56-1.84 1.08-2.82 1.54-0.38 0.2-0.76 0.36-1.16 0.52-0.12 0.06-0.24 0.12-0.36 0.16-0.46 0.2-0.9 0.38-1.38 0.54-0.5 0.2-1 0.36-1.52 0.52-1.06 0.34-2.16 0.62-3.26 0.84-0.38 0.08-0.76 0.14-1.16 0.2a5 5 0 0 1-0.58 0.1l-0.9 0.12-1.24 0.12c-0.24 0.02-0.5 0.04-0.74 0.04-0.62 0.04-1.24 0.06-1.86 0.06-18.06 0-32.76-14.7-32.76-32.76 0-0.58 0.02-1.18 0.04-1.76 0.02-0.32 0.04-0.62 0.08-0.94a25.404 25.404 0 0 1 0.46-3.38c0-0.06 0.02-0.14 0.04-0.2 0.06-0.42 0.14-0.82 0.26-1.22 0.02-0.14 0.06-0.28 0.1-0.42 0.1-0.42 0.2-0.84 0.34-1.26 0.1-0.42 0.24-0.82 0.38-1.24 0.18-0.54 0.38-1.1 0.6-1.62 0.22-0.58 0.46-1.14 0.74-1.7 0.04-0.1 0.08-0.18 0.12-0.26 0.24-0.52 0.48-1.02 0.76-1.5a33.45 33.45 0 0 1 2.52-3.96c0.5-0.68 1.04-1.34 1.6-1.98 0.26-0.32 0.54-0.64 0.84-0.94 0.36-0.38 0.72-0.76 1.1-1.12 0.48-0.46 0.96-0.9 1.46-1.32 0.52-0.46 1.06-0.9 1.64-1.32a30.056 30.056 0 0 1 3.2-2.14c0.3-0.18 0.6-0.34 0.92-0.5 0.22-0.14 0.44-0.26 0.66-0.36 0.18-0.1 0.38-0.2 0.58-0.3 0.1-0.06 0.22-0.12 0.34-0.16 0.58-0.28 1.2-0.56 1.82-0.8 0.72-0.28 1.44-0.54 2.16-0.78v-37.26l-75.28-36.78c-0.22-0.1-0.38-0.24-0.58-0.36-0.3-0.18-0.58-0.34-0.86-0.52-0.28-0.22-0.54-0.44-0.82-0.68-0.2-0.2-0.42-0.38-0.6-0.58-0.26-0.28-0.5-0.56-0.72-0.86-0.16-0.22-0.32-0.44-0.46-0.66-0.2-0.32-0.36-0.64-0.54-0.96-0.12-0.26-0.24-0.5-0.34-0.76-0.14-0.36-0.24-0.72-0.34-1.08l-0.18-0.78c-0.06-0.42-0.1-0.84-0.12-1.26 0-0.16-0.06-0.32-0.06-0.48v-137.18l-28.78 0.16-121.8 0.7-5.4 0.04v136.28c0 0.2-0.04 0.4-0.06 0.6-0.02 0.38-0.04 0.74-0.1 1.1-0.06 0.32-0.14 0.62-0.22 0.92-0.1 0.32-0.18 0.62-0.3 0.92-0.1 0.32-0.26 0.6-0.4 0.9-0.14 0.28-0.28 0.56-0.46 0.84-0.16 0.26-0.34 0.52-0.54 0.76-0.08 0.12-0.18 0.24-0.28 0.34-0.1 0.14-0.22 0.28-0.34 0.42-0.22 0.24-0.46 0.46-0.72 0.66-0.24 0.22-0.46 0.42-0.72 0.62-0.3 0.2-0.62 0.38-0.94 0.58-0.18 0.1-0.34 0.22-0.52 0.32l-21.12 10.32-54.16 26.46v37.26c13.18 4.24 22.74 16.6 22.74 31.18 0 18.06-14.68 32.76-32.74 32.76-18.08 0-32.76-14.7-32.76-32.76 0-14.58 9.56-26.94 22.76-31.18v-43.5c0-0.22 0.04-0.42 0.06-0.62 0.02-0.36 0.04-0.72 0.1-1.08 0.06-0.32 0.14-0.62 0.22-0.94 0.1-0.3 0.18-0.62 0.3-0.92 0.1-0.3 0.26-0.6 0.4-0.9 0.14-0.28 0.28-0.56 0.46-0.82 0.16-0.28 0.36-0.52 0.54-0.78 0.2-0.26 0.4-0.52 0.62-0.76s0.46-0.44 0.72-0.66c0.24-0.22 0.46-0.42 0.72-0.6 0.3-0.22 0.62-0.4 0.94-0.58 0.18-0.1 0.34-0.24 0.52-0.32l53.6-26.2 21.68-10.6v-131.38c-14.74-4.28-25.62-17.88-25.72-33.96 0-0.68 0.02-1.36 0.06-2.04 0.02-0.48 0.04-0.96 0.1-1.42 0.1-1.16 0.26-2.32 0.48-3.44 0.1-0.5 0.22-1 0.32-1.5 0.02-0.06 0.04-0.1 0.04-0.14 0.14-0.54 0.28-1.08 0.44-1.62 0.3-1.08 0.66-2.12 1.08-3.16 0.66-1.64 1.44-3.22 2.32-4.76h-190v443.68h691.2V429.48H596.5z m-130.34 87.7c0-5.54 4.48-10 10-10 5.54 0 10 4.46 10 10v257.56c0 5.52-4.46 10-10 10-5.52 0-10-4.48-10-10V517.18z m-27.82 286.14c0.08 0.5 0.14 1 0.18 1.5s0.08 1 0.1 1.5 0.04 1 0.04 1.52c0 18.06-14.7 32.76-32.76 32.76s-32.76-14.7-32.76-32.76c0-14.68 9.72-27.14 23.06-31.3v-106.28c0-0.34 0.02-0.68 0.06-1.02 0.02-0.16 0.02-0.34 0.06-0.5 0.08-0.56 0.22-1.12 0.4-1.66 0.1-0.32 0.22-0.62 0.36-0.92 0.12-0.28 0.26-0.54 0.4-0.8 0.02-0.04 0.06-0.08 0.08-0.12 0.16-0.3 0.34-0.58 0.54-0.84a0.8 0.8 0 0 1 0.2-0.24c0.18-0.26 0.4-0.52 0.64-0.76 0.28-0.32 0.6-0.6 0.92-0.86 0.12-0.1 0.24-0.2 0.36-0.28 0.26-0.2 0.54-0.38 0.82-0.56 0.02-0.02 0.04-0.04 0.08-0.04l0.54-0.3c0.18-0.1 0.38-0.2 0.58-0.28 0.16-0.06 0.32-0.14 0.48-0.18 0.46-0.18 0.94-0.32 1.42-0.42 0.14-0.04 0.26-0.06 0.4-0.06 0.2-0.06 0.42-0.08 0.64-0.1 0.34-0.04 0.68-0.06 1.02-0.06 5.52 0 10 4.48 10 10v106.5c0.68 0.22 1.36 0.48 2.02 0.74 0.74 0.3 1.46 0.64 2.16 0.98a33.652 33.652 0 0 1 3.66 2.12c1.2 0.8 2.34 1.68 3.42 2.64 0.54 0.46 1.08 0.96 1.58 1.46 0.52 0.52 1 1.04 1.48 1.58 1.9 2.18 3.52 4.6 4.8 7.2 0.28 0.54 0.52 1.08 0.72 1.62 0.108 0.234 0.212 0.47 0.306 0.718 0.12 0.292 0.222 0.594 0.33 0.894 0.08 0.224 0.172 0.442 0.244 0.668 0.04 0.1 0.08 0.18 0.1 0.26 0.24 0.66 0.42 1.34 0.6 2.04 0.18 0.72 0.34 1.44 0.48 2.18 0.1 0.48 0.18 0.98 0.24 1.46z m140.56 4.52c0 0.56-0.02 1.1-0.04 1.64-0.04 0.62-0.08 1.24-0.14 1.84-0.08 0.62-0.16 1.22-0.26 1.82-0.1 0.6-0.22 1.2-0.34 1.8-0.28 1.26-0.62 2.48-1.06 3.68-0.14 0.44-0.3 0.86-0.48 1.28-0.18 0.52-0.4 1.02-0.64 1.52-0.24 0.56-0.52 1.1-0.8 1.62-0.22 0.46-0.48 0.9-0.74 1.32-0.36 0.64-0.74 1.26-1.16 1.86-0.34 0.5-0.7 1.02-1.08 1.5-0.36 0.46-0.72 0.92-1.1 1.36-0.38 0.44-0.76 0.88-1.18 1.3-0.4 0.42-0.82 0.84-1.24 1.24-0.42 0.42-0.86 0.8-1.3 1.16-0.42 0.36-0.86 0.72-1.32 1.06-0.02 0.04-0.04 0.04-0.04 0.04-0.38 0.3-0.76 0.58-1.16 0.84-0.32 0.24-0.64 0.46-0.98 0.66-0.24 0.16-0.5 0.32-0.76 0.48-0.44 0.28-0.88 0.54-1.34 0.78-0.04 0.02-0.1 0.06-0.14 0.08-0.42 0.22-0.84 0.44-1.28 0.64-0.48 0.24-0.96 0.44-1.44 0.66-0.02 0-0.04 0.02-0.04 0.02-0.26 0.1-0.54 0.22-0.8 0.3l-0.02 0.02-0.48 0.18c-0.16 0.08-0.34 0.14-0.5 0.18-0.12 0.06-0.24 0.1-0.36 0.12-0.16 0.08-0.34 0.12-0.5 0.16-0.38 0.14-0.76 0.26-1.14 0.36-0.38 0.12-0.74 0.22-1.12 0.3-0.3 0.08-0.6 0.14-0.9 0.22-0.28 0.06-0.56 0.1-0.84 0.16-0.2 0.04-0.4 0.08-0.58 0.1-0.16 0.02-0.3 0.06-0.44 0.08h-0.04c-0.38 0.06-0.78 0.12-1.18 0.16-0.34 0.04-0.68 0.08-1.04 0.1-0.36 0.04-0.74 0.06-1.12 0.08-0.54 0.02-1.08 0.04-1.64 0.04-18.06 0-32.76-14.7-32.76-32.76 0-0.52 0.02-1.06 0.04-1.58 0.02-0.56 0.06-1.12 0.12-1.66 0.02-0.3 0.06-0.6 0.1-0.88 0.1-0.86 0.24-1.7 0.42-2.52 0.08-0.44 0.18-0.86 0.3-1.28 0-0.06 0.02-0.12 0.04-0.18 0.14-0.48 0.26-0.98 0.42-1.46 0.04-0.18 0.08-0.34 0.16-0.52 0.04-0.14 0.1-0.28 0.14-0.42 0.08-0.22 0.14-0.44 0.22-0.64 0.02-0.06 0.04-0.1 0.06-0.16 0.18-0.48 0.36-0.94 0.56-1.4 0.18-0.44 0.38-0.88 0.58-1.3 0.04-0.08 0.08-0.16 0.1-0.22 0.02-0.04 0.04-0.06 0.04-0.08 0.04-0.1 0.1-0.2 0.14-0.28 0.1-0.2 0.2-0.38 0.28-0.56 0.4-0.74 0.82-1.46 1.26-2.16 0.08-0.14 0.16-0.28 0.26-0.42 0.18-0.28 0.38-0.56 0.56-0.84 0.12-0.18 0.24-0.34 0.36-0.5 0.18-0.26 0.38-0.52 0.58-0.78 0.52-0.72 1.1-1.4 1.7-2.04 0.42-0.48 0.86-0.96 1.32-1.42 0.18-0.18 0.38-0.34 0.56-0.52 0.42-0.4 0.86-0.8 1.32-1.18 0.32-0.28 0.66-0.54 1-0.8 0.4-0.32 0.8-0.62 1.22-0.92 0.48-0.34 0.96-0.68 1.48-0.98 0.5-0.32 1-0.62 1.54-0.92 0.74-0.42 1.5-0.8 2.28-1.16 0.78-0.36 1.56-0.68 2.38-0.98 0.4-0.14 0.8-0.28 1.22-0.42v-106.4c0-5.52 4.48-10 10-10s10 4.48 10 10v106.4c13.18 4.24 22.76 16.6 22.76 31.18z m-92.74-91.06v37.28L520.12 788c0.52-0.72 1.1-1.4 1.7-2.04 0.42-0.48 0.86-0.96 1.32-1.42 0.18-0.18 0.38-0.34 0.56-0.52 0.42-0.4 0.86-0.8 1.32-1.18 0.32-0.28 0.66-0.54 1-0.8 0.4-0.32 0.8-0.62 1.22-0.92 0.48-0.34 0.96-0.68 1.48-0.98 0.5-0.32 1-0.62 1.54-0.92 0.74-0.42 1.5-0.8 2.28-1.16 0.78-0.36 1.56-0.68 2.38-0.98 0.4-0.14 0.8-0.28 1.22-0.42v-9.9l-49.98-49.98z m0 0v37.28L520.12 788c0.52-0.72 1.1-1.4 1.7-2.04 0.42-0.48 0.86-0.96 1.32-1.42 0.18-0.18 0.38-0.34 0.56-0.52 0.42-0.4 0.86-0.8 1.32-1.18 0.32-0.28 0.66-0.54 1-0.8 0.4-0.32 0.8-0.62 1.22-0.92 0.48-0.34 0.96-0.68 1.48-0.98 0.5-0.32 1-0.62 1.54-0.92 0.74-0.42 1.5-0.8 2.28-1.16 0.78-0.36 1.56-0.68 2.38-0.98 0.4-0.14 0.8-0.28 1.22-0.42v-9.9l-49.98-49.98z m0 0v37.28L520.12 788c0.52-0.72 1.1-1.4 1.7-2.04 0.42-0.48 0.86-0.96 1.32-1.42 0.18-0.18 0.38-0.34 0.56-0.52 0.42-0.4 0.86-0.8 1.32-1.18 0.32-0.28 0.66-0.54 1-0.8 0.4-0.32 0.8-0.62 1.22-0.92 0.48-0.34 0.96-0.68 1.48-0.98 0.5-0.32 1-0.62 1.54-0.92 0.74-0.42 1.5-0.8 2.28-1.16 0.78-0.36 1.56-0.68 2.38-0.98 0.4-0.14 0.8-0.28 1.22-0.42v-9.9l-49.98-49.98z" fill="#3594BF" p-id="29935"></path><path d="M628.1 957.82c0 5.52-4.48 10-10 10h-212.2c-5.52 0-10-4.48-10-10 0-5.54 4.48-10 10-10h212.2c5.52 0 10 4.46 10 10zM477.726 75.69a10 10 0 0 0 10-10V30.822a10 10 0 0 0-20 0v34.868a10 10 0 0 0 10 10zM378.058 95.078a9.996 9.996 0 0 0 13.662 3.658 10.004 10.004 0 0 0 3.66-13.662l-17.434-30.192a10 10 0 0 0-17.322 10.002l17.434 30.194zM284.896 147.926l30.196 17.432a9.994 9.994 0 0 0 13.66-3.66 10 10 0 0 0-3.66-13.66l-30.196-17.432a10 10 0 0 0-10 17.32zM635.366 166.7c1.696 0 3.414-0.432 4.988-1.34l30.202-17.432a10 10 0 0 0 3.662-13.66 9.996 9.996 0 0 0-13.658-3.662l-30.202 17.432a10 10 0 0 0 5.008 18.662zM563.73 98.736a9.998 9.998 0 0 0 13.662-3.658l17.44-30.194a10 10 0 1 0-17.32-10.002l-17.44 30.194a10 10 0 0 0 3.658 13.66zM438.62 806.32c-0.02-0.5-0.06-1-0.1-1.5s-0.1-1-0.18-1.5c-0.06-0.48-0.14-0.98-0.24-1.46-0.14-0.74-0.3-1.46-0.48-2.18-0.54-2.16-1.32-4.24-2.3-6.2-0.32-0.64-0.66-1.3-1.02-1.92-0.36-0.62-0.74-1.22-1.12-1.82-0.06-0.06-0.1-0.14-0.14-0.2-0.36-0.54-0.74-1.06-1.14-1.58-0.44-0.58-0.9-1.14-1.38-1.68-0.48-0.54-0.96-1.06-1.48-1.58-0.5-0.5-1.04-1-1.58-1.46-0.4-0.36-0.82-0.72-1.26-1.06a5.12 5.12 0 0 0-0.52-0.4 31.66 31.66 0 0 0-5.3-3.3c-0.08-0.04-0.16-0.08-0.26-0.12-0.5-0.24-1-0.48-1.52-0.7-0.12-0.04-0.26-0.1-0.38-0.16-0.66-0.26-1.34-0.52-2.02-0.74v-106.5c0-5.52-4.48-10-10-10-0.34 0-0.68 0.02-1.02 0.06-0.22 0.02-0.44 0.04-0.64 0.1-0.14 0-0.26 0.02-0.4 0.06-0.48 0.1-0.96 0.24-1.42 0.42-0.16 0.04-0.32 0.12-0.48 0.18-0.2 0.08-0.4 0.18-0.58 0.28l-0.54 0.3c-0.04 0-0.06 0.02-0.08 0.04-0.28 0.18-0.56 0.36-0.82 0.56-0.12 0.08-0.24 0.18-0.36 0.28-0.32 0.26-0.64 0.54-0.92 0.86-0.24 0.24-0.46 0.5-0.64 0.76a0.8 0.8 0 0 0-0.2 0.24c-0.2 0.26-0.38 0.54-0.54 0.84-0.02 0.04-0.06 0.08-0.08 0.12-0.04 0.08-0.08 0.16-0.14 0.24-0.08 0.18-0.18 0.38-0.26 0.56-0.14 0.3-0.26 0.6-0.36 0.92-0.08 0.2-0.14 0.4-0.18 0.6-0.06 0.18-0.1 0.38-0.14 0.56-0.06 0.34-0.12 0.66-0.14 1-0.04 0.34-0.06 0.68-0.06 1.02v106.28c-13.34 4.16-23.06 16.62-23.06 31.3 0 18.06 14.7 32.76 32.76 32.76s32.76-14.7 32.76-32.76c0-0.52-0.02-1.02-0.04-1.52z m-32.72 14.28c-7.02 0-12.76-5.72-12.76-12.76s5.74-12.76 12.76-12.76c7.04 0 12.76 5.72 12.76 12.76s-5.72 12.76-12.76 12.76z" fill="#23130D" p-id="29936"></path><path d="M418.66 807.84c0 7.04-5.72 12.76-12.76 12.76-7.02 0-12.76-5.72-12.76-12.76s5.74-12.76 12.76-12.76c7.04 0 12.76 5.72 12.76 12.76z" fill="#FFFFFF" p-id="29937"></path><path d="M556.14 776.66v-106.4c0-5.52-4.48-10-10-10s-10 4.48-10 10v106.4c-0.42 0.14-0.82 0.28-1.22 0.42-0.82 0.3-1.6 0.62-2.38 0.98-0.78 0.36-1.54 0.74-2.28 1.16-0.54 0.3-1.04 0.6-1.54 0.92-0.52 0.3-1 0.64-1.48 0.98-0.42 0.3-0.82 0.6-1.22 0.92-0.34 0.26-0.68 0.52-1 0.8-0.46 0.38-0.9 0.78-1.32 1.18-0.18 0.18-0.38 0.34-0.56 0.52-0.46 0.46-0.9 0.94-1.32 1.42-0.6 0.64-1.18 1.32-1.7 2.04-0.2 0.26-0.4 0.52-0.58 0.78-0.12 0.16-0.24 0.32-0.36 0.5-0.18 0.28-0.38 0.56-0.56 0.84-0.1 0.14-0.18 0.28-0.26 0.42-0.44 0.7-0.86 1.42-1.26 2.16-0.08 0.18-0.18 0.36-0.28 0.56-0.04 0.08-0.1 0.18-0.14 0.28-0.02 0.02-0.02 0.04-0.04 0.08-0.02 0.06-0.06 0.14-0.1 0.22-0.18 0.38-0.36 0.78-0.54 1.16-0.06 0.18-0.14 0.36-0.22 0.54-0.12 0.34-0.26 0.66-0.38 1-0.02 0.06-0.04 0.1-0.06 0.16-0.08 0.2-0.14 0.42-0.22 0.64-0.04 0.14-0.1 0.28-0.14 0.42-0.08 0.18-0.12 0.34-0.16 0.52-0.16 0.48-0.28 0.98-0.42 1.46-0.02 0.06-0.04 0.12-0.04 0.18-0.12 0.42-0.22 0.84-0.3 1.28-0.18 0.82-0.32 1.66-0.42 2.52-0.04 0.28-0.08 0.58-0.1 0.88-0.06 0.54-0.1 1.1-0.12 1.66-0.02 0.52-0.04 1.06-0.04 1.58 0 18.06 14.7 32.76 32.76 32.76 0.56 0 1.1-0.02 1.64-0.04 0.38-0.02 0.76-0.04 1.12-0.08 0.36-0.02 0.7-0.06 1.04-0.1 0.4-0.04 0.8-0.1 1.18-0.16h0.04l0.28-0.06c0.06 0 0.1 0 0.16-0.02 0.2-0.02 0.4-0.06 0.58-0.1 0.28-0.06 0.56-0.1 0.84-0.16 0.3-0.08 0.6-0.14 0.9-0.22 0.38-0.08 0.74-0.18 1.12-0.3 0.38-0.1 0.76-0.22 1.14-0.36 0.16-0.04 0.34-0.08 0.5-0.16 0.12-0.02 0.24-0.06 0.36-0.12 0.16-0.04 0.34-0.1 0.5-0.18l0.48-0.18 0.02-0.02c0.1-0.02 0.2-0.06 0.3-0.12 0.16-0.04 0.34-0.12 0.5-0.18 0 0 0.02-0.02 0.04-0.02 0.48-0.22 0.96-0.42 1.44-0.66 0.44-0.2 0.86-0.42 1.28-0.64 0.04-0.02 0.1-0.06 0.14-0.08 0.46-0.24 0.9-0.5 1.34-0.78 0.26-0.16 0.52-0.32 0.76-0.48 0.34-0.2 0.66-0.42 0.98-0.66 0.4-0.26 0.78-0.54 1.16-0.84 0 0 0.02 0 0.04-0.04 0.46-0.34 0.9-0.7 1.32-1.06 0.44-0.36 0.88-0.74 1.3-1.16 0.42-0.4 0.84-0.82 1.24-1.24 0.42-0.42 0.8-0.86 1.18-1.3 0.38-0.44 0.74-0.9 1.1-1.36 0.38-0.48 0.74-1 1.08-1.5 0.42-0.6 0.8-1.22 1.16-1.86 0.26-0.42 0.52-0.86 0.74-1.32 0.28-0.52 0.56-1.06 0.8-1.62 0.24-0.5 0.46-1 0.64-1.52 0.18-0.42 0.34-0.84 0.48-1.28 0.44-1.2 0.78-2.42 1.06-3.68 0.12-0.6 0.24-1.2 0.34-1.8 0.1-0.6 0.18-1.2 0.26-1.82 0.06-0.6 0.1-1.22 0.14-1.84 0.02-0.54 0.04-1.08 0.04-1.64 0-14.58-9.58-26.94-22.76-31.18z m-10 43.94c-7.04 0-12.76-5.72-12.76-12.76s5.72-12.76 12.76-12.76c7.02 0 12.76 5.72 12.76 12.76s-5.74 12.76-12.76 12.76z" fill="#23130D" p-id="29938"></path><path d="M558.9 807.84c0 7.04-5.74 12.76-12.76 12.76-7.04 0-12.76-5.72-12.76-12.76s5.72-12.76 12.76-12.76c7.02 0 12.76 5.72 12.76 12.76z" fill="#FFFFFF" p-id="29939"></path><path d="M486.16 517.18v257.56c0 5.52-4.46 10-10 10-5.52 0-10-4.48-10-10V517.18c0-5.54 4.48-10 10-10 5.54 0 10 4.46 10 10z" fill="#23130D" p-id="29940"></path><path d="M355.6 623.5l-53.6 26.2c-0.18 0.08-0.34 0.22-0.52 0.32-0.32 0.18-0.64 0.36-0.94 0.58-0.26 0.18-0.48 0.38-0.72 0.6-0.26 0.22-0.5 0.42-0.72 0.66s-0.42 0.5-0.62 0.76c-0.18 0.26-0.38 0.5-0.54 0.78-0.18 0.26-0.32 0.54-0.46 0.82-0.14 0.3-0.3 0.6-0.4 0.9-0.12 0.3-0.2 0.62-0.3 0.92-0.08 0.32-0.16 0.62-0.22 0.94-0.06 0.36-0.08 0.72-0.1 1.08-0.02 0.2-0.06 0.4-0.06 0.62v1.48l-130-130v-95.88l189.2 189.22zM370.56 638.46l26.92 26.9c-0.82 1.44-1.28 3.12-1.28 4.9v89.7l-79.8-79.8v-15.24l54.16-26.46zM605.26 873.16H509.4l-71.3-71.3c-2.18-11.78-10.72-21.38-21.9-25.1v-92.68l49.96 49.98v40.68c0 5.52 4.48 10 10 10 5.54 0 10-4.48 10-10v-20.68L520.12 788a32.494 32.494 0 0 0-6.74 19.84c0 18.06 14.7 32.76 32.76 32.76 7.44 0 14.32-2.5 19.84-6.72l39.28 39.28zM272.54 429.48l104.74 104.74v73.7l-178.44-178.44zM397.28 554.22l68.88 68.88v73.68l-71.24-71.24c0.1-0.1 0.2-0.22 0.28-0.34 0.2-0.24 0.38-0.5 0.54-0.76 0.18-0.28 0.32-0.56 0.46-0.84 0.14-0.3 0.3-0.58 0.4-0.9 0.12-0.3 0.2-0.6 0.3-0.92 0.08-0.3 0.16-0.6 0.22-0.92 0.06-0.36 0.08-0.72 0.1-1.1 0.02-0.2 0.06-0.4 0.06-0.6v-64.94zM486.16 643.1l49.98 49.98v73.68l-49.98-49.98zM716.22 873.16h-73.68l-63.68-63.68c0.02-0.54 0.04-1.08 0.04-1.64 0-14.58-9.58-26.94-22.76-31.18v-63.58l160.08 160.08zM349.32 429.48h7.08c-0.88 1.54-1.66 3.12-2.32 4.76l-4.76-4.76zM558.88 628.14l75.28 36.78v37.26c-2.92 0.94-5.68 2.28-8.18 3.96l-139.82-139.82v-49.14c0-5.54-4.46-10-10-10-5.52 0-10 4.46-10 10v29.14l-63.48-63.48 121.8-0.7 28.78 28.8v108.22c0 0.16 0.06 0.32 0.06 0.48 0.02 0.42 0.06 0.84 0.12 1.26l0.18 0.78c0.1 0.36 0.2 0.72 0.34 1.08 0.1 0.26 0.22 0.5 0.34 0.76 0.18 0.32 0.34 0.64 0.54 0.96 0.14 0.22 0.3 0.44 0.46 0.66 0.22 0.3 0.46 0.58 0.72 0.86 0.18 0.2 0.4 0.38 0.6 0.58 0.28 0.24 0.54 0.46 0.82 0.68 0.28 0.18 0.56 0.34 0.86 0.52 0.2 0.12 0.36 0.26 0.58 0.36z" fill="#FFFFFF" opacity=".4" p-id="29941"></path><path d="M857.6 815.26v57.9h-64.6l-121.6-121.6a32.62 32.62 0 0 0 5.52-18.2c0-14.58-9.58-26.94-22.76-31.18v-43.5c0-0.22-0.04-0.42-0.06-0.62-0.02-0.36-0.04-0.72-0.12-1.08-0.04-0.32-0.14-0.62-0.22-0.94-0.08-0.3-0.16-0.62-0.28-0.92s-0.26-0.6-0.4-0.9c-0.14-0.28-0.3-0.56-0.46-0.82-0.16-0.28-0.36-0.52-0.56-0.78-0.2-0.26-0.4-0.52-0.62-0.76-0.22-0.24-0.46-0.44-0.7-0.66a8.868 8.868 0 0 0-1.66-1.18c-0.18-0.1-0.34-0.24-0.52-0.32l-75.3-36.78v-81.98L857.6 815.26z" fill="#FFFFFF" opacity=".4" p-id="29942"></path></svg>