<?xml version="1.0" standalone="no"?><!DOCTYPE svg PUBLIC "-//W3C//DTD SVG 1.1//EN" "http://www.w3.org/Graphics/SVG/1.1/DTD/svg11.dtd"><svg t="1625812068149" class="icon" viewBox="0 0 1024 1024" version="1.1" xmlns="http://www.w3.org/2000/svg" p-id="51405" xmlns:xlink="http://www.w3.org/1999/xlink" width="200" height="200"><defs><style type="text/css"></style></defs><path d="M898.44 122.18H201.52V101.4v-0.02c-0.02-41.84-34.06-75.88-75.92-75.88S49.68 59.56 49.68 101.4v615.78c0 41.86 34.04 75.92 75.9 75.92l0.02 0.02h248.86c2.66 5.32 6.56 10 10.2 14.34 3.38 4.04 6.9 8.22 7.96 11.48 1.16 3.58 0.78 9.24 0.44 14.7-0.1 1.4-0.18 2.82-0.26 4.28l-72.26 61.04c-0.08 0.06-0.16 0.16-0.24 0.24-0.28 0.26-0.52 0.52-0.78 0.8-0.18 0.22-0.38 0.44-0.56 0.66-0.2 0.28-0.38 0.6-0.56 0.9-0.16 0.26-0.3 0.52-0.44 0.8-0.14 0.3-0.24 0.6-0.36 0.92-0.1 0.32-0.22 0.62-0.3 0.94-0.02 0.14-0.08 0.26-0.1 0.38-0.04 0.2-0.04 0.4-0.06 0.6-0.06 0.32-0.08 0.64-0.1 0.96-0.02 0.34-0.02 0.68 0 1.04 0.02 0.28 0.06 0.58 0.1 0.88 0.06 0.34 0.12 0.68 0.22 1.02 0.06 0.3 0.14 0.58 0.24 0.86 0.12 0.32 0.26 0.64 0.42 0.96 0.12 0.26 0.26 0.52 0.42 0.78 0.18 0.32 0.4 0.62 0.64 0.94 0.1 0.12 0.16 0.28 0.28 0.4 0.06 0.08 0.14 0.14 0.22 0.22 0.32 0.36 0.68 0.68 1.04 0.98 0.18 0.14 0.34 0.3 0.52 0.44 0.4 0.28 0.82 0.52 1.26 0.74 0.18 0.1 0.36 0.22 0.56 0.3 0.44 0.2 0.92 0.34 1.4 0.48 0.2 0.04 0.38 0.14 0.58 0.18 0.02 0 0.04 0 0.06 0.02l59.22 12.02 1.96 60.4c0 0.12 0.04 0.22 0.04 0.34 0.02 0.36 0.08 0.72 0.14 1.08 0.06 0.28 0.1 0.58 0.18 0.86 0.1 0.32 0.2 0.64 0.32 0.96 0.12 0.28 0.24 0.58 0.38 0.86s0.3 0.56 0.46 0.82c0.18 0.3 0.38 0.58 0.58 0.86 0.1 0.1 0.16 0.24 0.26 0.34 0.1 0.12 0.22 0.2 0.32 0.32 0.28 0.3 0.58 0.6 0.92 0.86 0.22 0.18 0.42 0.38 0.66 0.54 0.34 0.24 0.7 0.42 1.06 0.62 0.24 0.14 0.46 0.28 0.7 0.38 0.44 0.18 0.88 0.32 1.34 0.44 0.2 0.06 0.4 0.14 0.6 0.18 0.6 0.12 1.24 0.2 1.9 0.2 0.04 0 0.08 0.02 0.14 0.02h0.02c0.1 0 0.2 0 0.3-0.02 0.14 0 0.26-0.04 0.4-0.04 0.46-0.04 0.9-0.1 1.34-0.18 0.24-0.06 0.46-0.12 0.68-0.18 0.36-0.1 0.72-0.22 1.08-0.38 0.24-0.1 0.48-0.2 0.7-0.32 0.32-0.16 0.62-0.34 0.9-0.54 0.24-0.14 0.48-0.3 0.7-0.48 0.1-0.08 0.22-0.14 0.32-0.22l106.82-90.22c0.9-0.16 1.76-0.26 2.56-0.26s1.66 0.1 2.56 0.26l106.8 90.22c0.1 0.08 0.2 0.12 0.3 0.2 0.24 0.2 0.5 0.36 0.74 0.52 0.28 0.18 0.58 0.36 0.86 0.5 0.24 0.14 0.5 0.24 0.74 0.34 0.36 0.16 0.7 0.26 1.06 0.38 0.22 0.06 0.46 0.12 0.7 0.18 0.44 0.08 0.88 0.14 1.32 0.18 0.14 0 0.26 0.04 0.42 0.04 0.08 0.02 0.18 0.02 0.28 0.02h0.04c0.06 0 0.12-0.02 0.18-0.02 0.64-0.02 1.26-0.08 1.86-0.2 0.22-0.04 0.42-0.14 0.64-0.2 0.44-0.12 0.86-0.24 1.28-0.42 0.26-0.1 0.5-0.26 0.74-0.4 0.36-0.18 0.7-0.38 1.02-0.6 0.24-0.16 0.46-0.36 0.7-0.56 0.3-0.26 0.6-0.52 0.88-0.82 0.1-0.12 0.24-0.2 0.34-0.34 0.1-0.1 0.16-0.24 0.26-0.36 0.2-0.26 0.38-0.54 0.54-0.8 0.18-0.3 0.36-0.58 0.5-0.88 0.14-0.26 0.24-0.54 0.34-0.8 0.14-0.34 0.26-0.68 0.36-1.02 0.06-0.26 0.1-0.52 0.16-0.8 0.06-0.38 0.12-0.76 0.14-1.16 0.02-0.1 0.04-0.2 0.04-0.3l1.96-60.4 59.24-12.02c0.02-0.02 0.04-0.02 0.06-0.02 0.22-0.06 0.44-0.16 0.68-0.22 0.44-0.12 0.88-0.24 1.3-0.42 0.22-0.1 0.42-0.24 0.64-0.36 0.4-0.22 0.78-0.42 1.14-0.68 0.22-0.16 0.4-0.34 0.6-0.5 0.34-0.3 0.68-0.6 0.98-0.92 0.08-0.08 0.16-0.14 0.24-0.24 0.12-0.14 0.2-0.3 0.32-0.46 0.2-0.28 0.4-0.54 0.58-0.84 0.16-0.28 0.32-0.58 0.46-0.88 0.14-0.28 0.26-0.56 0.36-0.86a8.84 8.84 0 0 0 0.48-1.86c0.06-0.34 0.1-0.68 0.12-1.02 0-0.3 0.02-0.6 0-0.92-0.02-0.36-0.06-0.7-0.1-1.06-0.04-0.18-0.02-0.36-0.06-0.54-0.02-0.12-0.08-0.22-0.1-0.34-0.08-0.34-0.2-0.7-0.32-1.04-0.1-0.28-0.2-0.56-0.34-0.84-0.14-0.3-0.3-0.58-0.48-0.86-0.16-0.3-0.32-0.58-0.52-0.84-0.18-0.24-0.38-0.46-0.58-0.7-0.24-0.26-0.48-0.52-0.76-0.76-0.08-0.08-0.16-0.18-0.24-0.26l-72.28-61.06c-0.06-1.44-0.16-2.86-0.24-4.26-0.36-5.46-0.72-11.12 0.44-14.68 1.06-3.28 4.56-7.46 7.94-11.5 3.64-4.34 7.54-9.02 10.22-14.34h172.94v20.8c0.02 41.84 34.06 75.88 75.92 75.88s75.92-34.06 75.92-75.9V198.1c0-41.84-34.02-75.88-75.88-75.92zM69.68 101.4c0-30.82 25.08-55.9 55.92-55.9S181.52 70.58 181.52 101.4v20.78H69.68V101.4z m335.82 866.12l-1.54-47.64c0-0.26-0.06-0.48-0.1-0.72-0.04-0.38-0.06-0.76-0.14-1.12-0.08-0.34-0.2-0.64-0.3-0.96-0.1-0.3-0.18-0.58-0.3-0.86-0.16-0.38-0.36-0.72-0.56-1.06-0.12-0.2-0.22-0.4-0.34-0.6-0.26-0.38-0.56-0.72-0.86-1.06-0.12-0.14-0.22-0.26-0.34-0.38-0.38-0.38-0.78-0.7-1.2-1.02-0.1-0.06-0.18-0.14-0.26-0.2-0.48-0.32-1-0.6-1.54-0.84-0.06-0.02-0.1-0.06-0.16-0.08-0.56-0.24-1.14-0.4-1.74-0.54-0.06 0-0.1-0.04-0.16-0.04l-0.1-0.02-0.28-0.06-46.36-9.42 47.5-40.12c0.42 0.72 0.88 1.44 1.38 2.14 6.44 8.84 17.08 11.54 26.46 13.92 5.26 1.32 10.72 2.7 13.66 4.84 2.88 2.1 5.84 6.82 8.68 11.36 5.18 8.26 11.04 17.62 21.58 21.04 0.08 0.02 0.16 0.04 0.22 0.06l-63.2 53.38z m269.28-66.62l-46.44 9.42c-0.04 0.02-0.06 0.02-0.1 0.04l-0.2 0.04c-0.14 0.02-0.26 0.08-0.38 0.1-0.52 0.14-1.02 0.28-1.5 0.48-0.1 0.04-0.2 0.1-0.3 0.14-0.5 0.24-0.98 0.48-1.42 0.78-0.1 0.06-0.18 0.14-0.26 0.2a8.8 8.8 0 0 0-1.22 1.04c-0.1 0.08-0.18 0.18-0.26 0.28-0.34 0.36-0.66 0.76-0.96 1.18-0.08 0.14-0.16 0.3-0.26 0.44-0.22 0.4-0.46 0.78-0.64 1.2-0.1 0.24-0.16 0.5-0.24 0.76-0.12 0.34-0.26 0.68-0.32 1.04-0.1 0.36-0.12 0.74-0.16 1.12-0.02 0.24-0.08 0.46-0.1 0.7l-1.54 47.66-63.2-53.38c0.08-0.02 0.16-0.04 0.22-0.06 10.54-3.42 16.42-12.78 21.58-21.04 2.86-4.54 5.8-9.26 8.68-11.34 2.96-2.16 8.4-3.54 13.66-4.86 9.4-2.38 20.02-5.08 26.46-13.92 0.52-0.7 0.96-1.42 1.38-2.14l47.52 40.12zM624 794.62c-4.62 5.5-9.38 11.2-11.64 18.14-2.36 7.24-1.86 14.84-1.38 22.18 0.42 6.54 0.86 13.28-1.26 16.22-2.18 3-8.8 4.66-15.2 6.28-7.1 1.8-14.44 3.66-20.52 8.08-6.02 4.38-10 10.74-13.86 16.9-3.54 5.64-7.18 11.46-10.8 12.64-0.52 0.16-1.12 0.24-1.82 0.24-3.54 0-8.7-2.04-13.68-4.04-3.66-1.44-7.56-2.98-11.64-4.08-0.16-0.06-0.3-0.08-0.46-0.12-3.16-0.84-6.42-1.4-9.74-1.4s-6.58 0.56-9.76 1.4c-0.16 0.04-0.3 0.06-0.44 0.1-4.08 1.12-8 2.66-11.64 4.1-4.98 2-10.14 4.04-13.7 4.04-0.7 0-1.28-0.08-1.8-0.24-3.62-1.18-7.28-7-10.8-12.64-3.86-6.16-7.86-12.52-13.86-16.9-6.08-4.42-13.42-6.28-20.54-8.08-6.38-1.62-13-3.28-15.18-6.28-2.14-2.94-1.7-9.68-1.28-16.22 0.48-7.34 0.98-14.94-1.36-22.16-2.26-6.96-7.04-12.66-11.66-18.18-4.3-5.14-8.76-10.46-8.76-14.44s4.46-9.3 8.78-14.46c4.6-5.5 9.38-11.2 11.64-18.14 2.34-7.24 1.84-14.84 1.38-22.18-0.44-6.54-0.88-13.3 1.26-16.22 2.18-3 8.78-4.66 15.18-6.28 7.1-1.8 14.46-3.66 20.54-8.08 6-4.38 10-10.74 13.86-16.9 3.52-5.64 7.18-11.46 10.8-12.64 0.52-0.16 1.1-0.24 1.82-0.24 3.54 0 8.7 2.06 13.68 4.04 6.6 2.62 14.1 5.6 21.84 5.6s15.22-2.98 21.82-5.6c5-1.98 10.14-4.04 13.7-4.04 0.7 0 1.3 0.08 1.8 0.24 3.64 1.18 7.28 7 10.82 12.64 3.86 6.16 7.84 12.52 13.86 16.9 6.08 4.42 13.42 6.28 20.54 8.08 6.38 1.62 13 3.28 15.18 6.28 2.12 2.94 1.68 9.68 1.26 16.22-0.48 7.36-0.96 14.96 1.38 22.18 2.26 6.94 7.02 12.64 11.64 18.14 4.32 5.16 8.78 10.48 8.78 14.46s-4.46 9.3-8.78 14.46z m330.32 19.28c0 30.82-25.08 55.9-55.92 55.9s-55.92-25.08-55.92-55.9v-20.78h111.84v20.78z m0-40.78H651.8c-2.14-7.92-7.56-14.4-12.48-20.26-3.38-4.04-6.88-8.22-7.94-11.48-1.16-3.58-0.8-9.24-0.44-14.7 0.62-9.62 1.34-20.5-5.06-29.28-6.44-8.84-17.06-11.54-26.44-13.9-5.28-1.34-10.72-2.72-13.68-4.88-2.88-2.08-5.82-6.8-8.68-11.34-5.16-8.26-11.04-17.62-21.58-21.04-2.5-0.82-5.18-1.22-7.98-1.22-7.38 0-14.36 2.78-21.1 5.46-5.16 2.06-10.52 4.18-14.42 4.18-3.92 0-9.26-2.12-14.44-4.18-6.74-2.68-13.7-5.46-21.08-5.46-2.8 0-5.5 0.4-8 1.22-10.54 3.42-16.4 12.78-21.58 21.04-2.84 4.54-5.78 9.26-8.68 11.34-2.96 2.16-8.4 3.54-13.66 4.88-9.38 2.36-20.02 5.06-26.46 13.9-6.38 8.78-5.68 19.66-5.04 29.28 0.34 5.46 0.72 11.12-0.44 14.7-1.06 3.26-4.56 7.44-7.96 11.48-4.92 5.86-10.32 12.34-12.48 20.26H125.62l-0.02-0.02c-30.8 0-55.86-25.02-55.92-55.8V142.18H898.4c30.8 0 55.86 25.04 55.92 55.82v575.12z" fill="#23130D" p-id="51406"></path><path d="M468.7 914.14l-63.2 53.38-1.54-47.64c0-0.26-0.06-0.48-0.1-0.72-0.04-0.38-0.06-0.76-0.14-1.12-0.08-0.34-0.2-0.64-0.3-0.96-0.1-0.3-0.18-0.58-0.3-0.86-0.16-0.38-0.36-0.72-0.56-1.06-0.12-0.2-0.22-0.4-0.34-0.6-0.26-0.38-0.56-0.72-0.86-1.06-0.12-0.14-0.22-0.26-0.34-0.38-0.38-0.38-0.78-0.7-1.2-1.02-0.1-0.06-0.18-0.14-0.26-0.2-0.48-0.32-1-0.6-1.54-0.84-0.06-0.02-0.1-0.06-0.16-0.08-0.56-0.24-1.14-0.4-1.74-0.54-0.06 0-0.1-0.04-0.16-0.04l-0.1-0.02-0.28-0.06-46.36-9.42 47.5-40.12c0.42 0.72 0.88 1.44 1.38 2.14 6.44 8.84 17.08 11.54 26.46 13.92 5.26 1.32 10.72 2.7 13.66 4.84 2.88 2.1 5.84 6.82 8.68 11.36 5.18 8.26 11.04 17.62 21.58 21.04 0.08 0.02 0.16 0.04 0.22 0.06z" fill="#EC7063" p-id="51407"></path><path d="M468.7 914.14l-13.98 11.8c-4.66-4.28-8.12-9.8-11.32-14.9-2.84-4.54-5.8-9.26-8.68-11.36-2.94-2.14-8.4-3.52-13.66-4.84-9.38-2.38-20.02-5.08-26.46-13.92-0.5-0.7-0.96-1.42-1.38-2.14l-29.64 25.04-14.36-2.92 47.5-40.12c0.42 0.72 0.88 1.44 1.38 2.14 6.44 8.84 17.08 11.54 26.46 13.92 5.26 1.32 10.72 2.7 13.66 4.84 2.88 2.1 5.84 6.82 8.68 11.36 5.18 8.26 11.04 17.62 21.58 21.04 0.08 0.02 0.16 0.04 0.22 0.06z" fill="#070707" opacity=".2" p-id="51408"></path><path d="M674.78 900.9l-46.44 9.42c-0.04 0.02-0.06 0.02-0.1 0.04l-0.2 0.04c-0.14 0.02-0.26 0.08-0.38 0.1-0.52 0.14-1.02 0.28-1.5 0.48-0.1 0.04-0.2 0.1-0.3 0.14-0.5 0.24-0.98 0.48-1.42 0.78-0.1 0.06-0.18 0.14-0.26 0.2a8.8 8.8 0 0 0-1.22 1.04c-0.1 0.08-0.18 0.18-0.26 0.28-0.34 0.36-0.66 0.76-0.96 1.18-0.08 0.14-0.16 0.3-0.26 0.44-0.22 0.4-0.46 0.78-0.64 1.2-0.1 0.24-0.16 0.5-0.24 0.76-0.12 0.34-0.26 0.68-0.32 1.04-0.1 0.36-0.12 0.74-0.16 1.12-0.02 0.24-0.08 0.46-0.1 0.7l-1.54 47.66-63.2-53.38c0.08-0.02 0.16-0.04 0.22-0.06 10.54-3.42 16.42-12.78 21.58-21.04 2.86-4.54 5.8-9.26 8.68-11.34 2.96-2.16 8.4-3.54 13.66-4.86 9.4-2.38 20.02-5.08 26.46-13.92 0.52-0.7 0.96-1.42 1.38-2.14l47.52 40.12z" fill="#EC7063" p-id="51409"></path><path d="M624 765.7c-4.62-5.5-9.38-11.2-11.64-18.14-2.34-7.22-1.86-14.82-1.38-22.18 0.42-6.54 0.86-13.28-1.26-16.22-2.18-3-8.8-4.66-15.18-6.28-7.12-1.8-14.46-3.66-20.54-8.08-6.02-4.38-10-10.74-13.86-16.9-3.54-5.64-7.18-11.46-10.82-12.64-0.5-0.16-1.1-0.24-1.8-0.24-3.56 0-8.7 2.06-13.7 4.04-6.6 2.62-14.08 5.6-21.82 5.6s-15.24-2.98-21.84-5.6c-4.98-1.98-10.14-4.04-13.68-4.04-0.72 0-1.3 0.08-1.82 0.24-3.62 1.18-7.28 7-10.8 12.64-3.86 6.16-7.86 12.52-13.86 16.9-6.08 4.42-13.44 6.28-20.54 8.08-6.4 1.62-13 3.28-15.18 6.28-2.14 2.92-1.7 9.68-1.26 16.22 0.46 7.34 0.96 14.94-1.38 22.18-2.26 6.94-7.04 12.64-11.64 18.14-4.32 5.16-8.78 10.48-8.78 14.46s4.46 9.3 8.76 14.44c4.62 5.52 9.4 11.22 11.66 18.18 2.34 7.22 1.84 14.82 1.36 22.16-0.42 6.54-0.86 13.28 1.28 16.22 2.18 3 8.8 4.66 15.18 6.28 7.12 1.8 14.46 3.66 20.54 8.08 6 4.38 10 10.74 13.86 16.9 3.52 5.64 7.18 11.46 10.8 12.64 0.52 0.16 1.1 0.24 1.8 0.24 3.56 0 8.72-2.04 13.7-4.04 3.64-1.44 7.56-2.98 11.64-4.1 0.14-0.04 0.28-0.06 0.44-0.1 3.18-0.84 6.44-1.4 9.76-1.4s6.58 0.56 9.74 1.4c0.16 0.04 0.3 0.06 0.46 0.12 4.08 1.1 7.98 2.64 11.64 4.08 4.98 2 10.14 4.04 13.68 4.04 0.7 0 1.3-0.08 1.82-0.24 3.62-1.18 7.26-7 10.8-12.64 3.86-6.16 7.84-12.52 13.86-16.9 6.08-4.42 13.42-6.28 20.52-8.08 6.4-1.62 13.02-3.28 15.2-6.28 2.12-2.94 1.68-9.68 1.26-16.22-0.48-7.34-0.98-14.94 1.38-22.18 2.26-6.94 7.02-12.64 11.64-18.14 4.32-5.16 8.78-10.48 8.78-14.46s-4.46-9.3-8.78-14.46z m-112 107.56c-51.34 0-93.1-41.76-93.1-93.1 0-51.34 41.76-93.1 93.1-93.1s93.1 41.76 93.1 93.1c0 51.34-41.76 93.1-93.1 93.1zM954.32 793.12v20.78c0 30.82-25.08 55.9-55.92 55.9s-55.92-25.08-55.92-55.9v-20.78h111.84z" fill="#636368" p-id="51410"></path><path d="M954.32 793.12v20.78c0 1.6-0.06 3.16-0.22 4.72h-111.4c-0.16-1.56-0.22-3.12-0.22-4.72v-20.78h111.84z" fill="#070707" opacity=".2" p-id="51411"></path><path d="M181.52 101.4v20.78H69.68V101.4c0-30.82 25.08-55.9 55.92-55.9S181.52 70.58 181.52 101.4z" fill="#636368" p-id="51412"></path><path d="M898.4 142.18H69.68v575.12c0.06 30.78 25.12 55.8 55.92 55.8l0.02 0.02h246.56c2.16-7.92 7.56-14.4 12.48-20.26 3.4-4.04 6.9-8.22 7.96-11.48 1.16-3.58 0.78-9.24 0.44-14.7-0.64-9.62-1.34-20.5 5.04-29.28 6.44-8.84 17.08-11.54 26.46-13.9 5.26-1.34 10.7-2.72 13.66-4.88 2.9-2.08 5.84-6.8 8.68-11.34 5.18-8.26 11.04-17.62 21.58-21.04 2.5-0.82 5.2-1.22 8-1.22 7.38 0 14.34 2.78 21.08 5.46 5.18 2.06 10.52 4.18 14.44 4.18 3.9 0 9.26-2.12 14.42-4.18 6.74-2.68 13.72-5.46 21.1-5.46 2.8 0 5.48 0.4 7.98 1.22 10.54 3.42 16.42 12.78 21.58 21.04 2.86 4.54 5.8 9.26 8.68 11.34 2.96 2.16 8.4 3.54 13.68 4.88 9.38 2.36 20 5.06 26.44 13.9 6.4 8.78 5.68 19.66 5.06 29.28-0.36 5.46-0.72 11.12 0.44 14.7 1.06 3.26 4.56 7.44 7.94 11.48 4.92 5.86 10.34 12.34 12.48 20.26h302.52V198c-0.06-30.78-25.12-55.82-55.92-55.82z m-589.6 70.86c0-5.52 4.48-10 10-10h386.4c5.52 0 10 4.48 10 10v63.16c0 5.54-4.48 10-10 10H318.8c-5.52 0-10-4.46-10-10v-63.16z m557.14 389H158.04c-5.52 0-10-4.48-10-10s4.48-10 10-10h707.9c5.54 0 10 4.48 10 10s-4.46 10-10 10z m0-63.16H158.04c-5.52 0-10-4.48-10-10s4.48-10 10-10h707.9c5.54 0 10 4.48 10 10s-4.46 10-10 10z m0-63.18H158.04c-5.52 0-10-4.46-10-10 0-5.52 4.48-10 10-10h707.9c5.54 0 10 4.48 10 10 0 5.54-4.46 10-10 10z m0-63.16H158.04c-5.52 0-10-4.48-10-10s4.48-10 10-10h707.9c5.54 0 10 4.48 10 10s-4.46 10-10 10z m0-63.16H158.04c-5.52 0-10-4.48-10-10s4.48-10 10-10h707.9c5.54 0 10 4.48 10 10s-4.46 10-10 10z" fill="#E1E1E5" p-id="51413"></path><path d="M898.4 142.18H69.68v575.12c0.04 24.4 15.82 45.18 37.7 52.72-1.96-5.66-3.04-11.74-3.04-18.06V176.84H933.06c6.36 0 12.48 1.06 18.18 3.06-7.54-21.92-28.38-37.72-52.84-37.72z" fill="#FFFFFF" opacity=".7" p-id="51414"></path><path d="M916.814 145.476c2 5.68 3.06 11.76 3.08 18.1v575.12h-288.88c0.12 1.08 0.32 2.06 0.6 2.92 1.06 3.26 4.56 7.44 7.94 11.48 4.92 5.86 10.34 12.34 12.48 20.26h302.52V198.236c-0.04-24.422-15.84-45.222-37.74-52.76z" fill="#070707" opacity=".2" p-id="51415"></path><path d="M705.2 203.04H318.8c-5.52 0-10 4.48-10 10v63.16c0 5.54 4.48 10 10 10h386.4c5.52 0 10-4.46 10-10v-63.16c0-5.52-4.48-10-10-10z m-10 63.16H328.8v-43.16h366.4v43.16z" fill="#23130D" p-id="51416"></path><path d="M328.8 223.04h366.4v43.16H328.8z" fill="#F9C139" p-id="51417"></path><path d="M328.8 223.04h366.4v21.58H328.8z" fill="#070707" opacity=".2" p-id="51418"></path><path d="M875.94 339.38c0 5.52-4.46 10-10 10H158.04c-5.52 0-10-4.48-10-10s4.48-10 10-10h707.9c5.54 0 10 4.48 10 10zM875.94 402.54c0 5.52-4.46 10-10 10H158.04c-5.52 0-10-4.48-10-10s4.48-10 10-10h707.9c5.54 0 10 4.48 10 10zM875.94 465.7c0 5.54-4.46 10-10 10H158.04c-5.52 0-10-4.46-10-10 0-5.52 4.48-10 10-10h707.9c5.54 0 10 4.48 10 10zM875.94 528.88c0 5.52-4.46 10-10 10H158.04c-5.52 0-10-4.48-10-10s4.48-10 10-10h707.9c5.54 0 10 4.48 10 10zM875.94 592.04c0 5.52-4.46 10-10 10H158.04c-5.52 0-10-4.48-10-10s4.48-10 10-10h707.9c5.54 0 10 4.48 10 10zM512 687.06c-51.34 0-93.1 41.76-93.1 93.1 0 51.34 41.76 93.1 93.1 93.1s93.1-41.76 93.1-93.1c0-51.34-41.76-93.1-93.1-93.1z m0 166.2c-40.3 0-73.1-32.8-73.1-73.1 0-40.32 32.8-73.1 73.1-73.1s73.1 32.78 73.1 73.1c0 40.3-32.8 73.1-73.1 73.1z" fill="#23130D" p-id="51419"></path><path d="M585.1 780.16a72.63 72.63 0 0 1-10.62 37.92c-3.54 5.8-7.86 11.06-12.82 15.66a73.326 73.326 0 0 1-16.02 11.3c-3.08 1.62-6.3 3-9.64 4.18-7.52 2.62-15.6 4.04-24 4.04-2.7 0-5.34-0.14-7.96-0.44-33.96-3.68-61.02-30.74-64.7-64.7-0.3-2.62-0.44-5.26-0.44-7.96 0-8.4 1.42-16.48 4.04-24 1.16-3.34 2.56-6.56 4.18-9.64 3.04-5.84 6.84-11.24 11.3-16.02a73.3 73.3 0 0 1 15.66-12.82 72.63 72.63 0 0 1 37.92-10.62c40.3 0 73.1 32.78 73.1 73.1z" fill="#F9C139" p-id="51420"></path><path d="M512 719.06c33.69 0 61.1 27.41 61.1 61.1s-27.41 61.1-61.1 61.1-61.1-27.41-61.1-61.1 27.41-61.1 61.1-61.1m0-12c-40.3 0-73.1 32.78-73.1 73.1 0 40.3 32.8 73.1 73.1 73.1s73.1-32.8 73.1-73.1c0-40.32-32.8-73.1-73.1-73.1z" opacity=".2" p-id="51421"></path><path d="M69.68 122.09v-20.78c0-1.6 0.06-3.16 0.22-4.72h111.4c0.16 1.56 0.22 3.12 0.22 4.72v20.78H69.68zM555.29 914.14l13.98 11.8c4.66-4.28 8.12-9.8 11.32-14.9 2.84-4.54 5.8-9.26 8.68-11.36 2.94-2.14 8.4-3.52 13.66-4.84 9.38-2.38 20.02-5.08 26.46-13.92 0.5-0.7 0.96-1.42 1.38-2.14l29.64 25.04 14.36-2.92-47.5-40.12c-0.42 0.72-0.88 1.44-1.38 2.14-6.44 8.84-17.08 11.54-26.46 13.92-5.26 1.32-10.72 2.7-13.66 4.84-2.88 2.1-5.84 6.82-8.68 11.36-5.18 8.26-11.04 17.62-21.58 21.04-0.08 0.02-0.16 0.04-0.22 0.06z" fill="#070707" opacity=".2" p-id="51422"></path><path d="M536 849.22c-7.52 2.62-15.6 4.04-24 4.04-2.7 0-5.34-0.14-7.96-0.44l-64.7-64.7c-0.3-2.62-0.44-5.26-0.44-7.96 0-8.4 1.42-16.48 4.04-24L536 849.22zM561.66 833.74a73.326 73.326 0 0 1-16.02 11.3l-98.52-98.52c3.04-5.84 6.84-11.24 11.3-16.02l103.24 103.24zM585.04 783.2a72.63 72.63 0 0 1-10.56 34.88l-100.4-100.4a72.63 72.63 0 0 1 34.88-10.56l76.08 76.08z" fill="#FFFFFF" opacity=".3" p-id="51423"></path></svg>