<?xml version="1.0" standalone="no"?><!DOCTYPE svg PUBLIC "-//W3C//DTD SVG 1.1//EN" "http://www.w3.org/Graphics/SVG/1.1/DTD/svg11.dtd"><svg t="1625812018965" class="icon" viewBox="0 0 1024 1024" version="1.1" xmlns="http://www.w3.org/2000/svg" p-id="48711" xmlns:xlink="http://www.w3.org/1999/xlink" width="200" height="200"><defs><style type="text/css"></style></defs><path d="M555.7 423.6c0 19.62-15.38 35.66-34.7 36.82v20.38c0 5.54-4.48 10-10 10s-10-4.46-10-10v-20.26h-24.72c-5.52 0-10-4.48-10-10s4.48-10 10-10h34.64c0.02 0 0.06-0.02 0.08-0.02s0.06 0.02 0.08 0.02h7.7c9.34 0 16.92-7.6 16.92-16.94 0-9.36-7.58-16.96-16.92-16.96h-15.56c-20.36 0-36.94-16.56-36.94-36.94 0-19.62 15.38-35.68 34.72-36.84v-20.38c0-5.52 4.48-10 10-10s10 4.48 10 10v20.26h24.7c5.54 0 10 4.48 10 10 0 5.54-4.46 10-10 10h-42.48c-9.34 0-16.94 7.62-16.94 16.96s7.6 16.94 16.94 16.94h15.56c20.36 0 36.92 16.58 36.92 36.96z" fill="#23130D" p-id="48712"></path><path d="M511 272.2c-68.62 0-124.44 55.82-124.44 124.44s55.82 124.46 124.44 124.46 124.46-55.84 124.46-124.46-55.84-124.44-124.46-124.44z m0 228.9c-57.58 0-104.44-46.86-104.44-104.46 0-57.58 46.86-104.44 104.44-104.44 57.6 0 104.46 46.86 104.46 104.44 0 57.6-46.86 104.46-104.46 104.46z" fill="#23130D" p-id="48713"></path><path d="M520.66 406.74l14.94 14.94a16.964 16.964 0 0 0-14.94-14.94z m-9.66-114.54c-4.62 0-9.18 0.3-13.64 0.88-14.86 1.96-28.76 7.04-40.98 14.58a105.32 105.32 0 0 0-19.42 15.38 104.94 104.94 0 0 0-14.74 18.66c-2.2 3.52-4.18 7.18-5.94 10.98a102.946 102.946 0 0 0-9.26 34.2c-0.3 3.2-0.46 6.46-0.46 9.76 0 57.6 46.86 104.46 104.44 104.46 3.3 0 6.58-0.16 9.8-0.46 12.1-1.12 23.62-4.34 34.18-9.26 3.78-1.76 7.46-3.74 10.98-5.94a104.94 104.94 0 0 0 18.66-14.74c5.86-5.84 11.02-12.36 15.38-19.42a103.568 103.568 0 0 0 14.56-41c0.6-4.46 0.9-9.02 0.9-13.64 0-57.58-46.86-104.44-104.46-104.44z m34.7 60.54h-42.48c-0.56 0-1.14 0.02-1.68 0.08-8.56 0.86-15.26 8.12-15.26 16.88 0 1 0.08 1.96 0.26 2.92 1.22 7 6.76 12.54 13.76 13.76 0.96 0.18 1.92 0.26 2.92 0.26h15.56c20.36 0 36.92 16.58 36.92 36.96 0 5.32-1.14 10.4-3.2 14.98-3.28 7.4-8.96 13.52-16.02 17.38a36.386 36.386 0 0 1-12.72 4.18c-0.92 0.14-1.84 0.22-2.76 0.28v20.38c0 5.54-4.48 10-10 10h-0.06a9.992 9.992 0 0 1-9.94-9.94v-20.32h-24.72c-5.52 0-10-4.48-10-10 0-1.3 0.26-2.56 0.7-3.7a10.034 10.034 0 0 1 9.3-6.3h34.64c0.02 0 0.06-0.02 0.08-0.02s0.06 0.02 0.08 0.02h7.7a16.94 16.94 0 0 0 16.92-16.94c0-0.64-0.04-1.28-0.1-1.92a16.964 16.964 0 0 0-14.94-14.94c-0.62-0.06-1.24-0.1-1.88-0.1h-15.56c-20.36 0-36.94-16.56-36.94-36.94 0-5.12 1.04-9.98 2.94-14.4 3.3-7.8 9.22-14.22 16.64-18.18a36.6 36.6 0 0 1 15.14-4.26v-20.38a9.998 9.998 0 0 1 10-10c5.52 0 10 4.48 10 10v20.26h24.7c5.54 0 10 4.48 10 10 0 2.44-0.86 4.66-2.3 6.38a9.926 9.926 0 0 1-7.7 3.62z" fill="#F9C139" p-id="48714"></path><path d="M511 296.2c55.394 0 100.46 45.058 100.46 100.44 0 55.394-45.066 100.46-100.46 100.46-55.382 0-100.44-45.066-100.44-100.46 0-55.382 45.058-100.44 100.44-100.44m-14 33.066c-19.748 3.02-34.72 20.104-34.72 40.434 0 22.574 18.366 40.94 40.94 40.94h15.56c7.124 0 12.92 5.814 12.92 12.96 0 7.136-5.796 12.94-12.92 12.94h-7.376a3.876 3.876 0 0 0-0.404-0.02l-0.69 0.01-0.028 0.01H476.28c-7.72 0-14 6.28-14 14s6.28 14 14 14h20.72v16.26c0 7.72 6.28 14 14 14s14-6.28 14-14v-16.786c19.738-3.02 34.7-20.094 34.7-40.414 0-22.586-18.356-40.96-40.92-40.96h-15.56a12.954 12.954 0 0 1-12.94-12.94c0-7.146 5.804-12.96 12.94-12.96h42.48c7.72 0 14-6.28 14-14s-6.28-14-14-14H525v-16.26c0-7.72-6.28-14-14-14s-14 6.28-14 14v16.786m14-37.066c-57.58 0-104.44 46.86-104.44 104.44 0 57.6 46.86 104.46 104.44 104.46 57.6 0 104.46-46.86 104.46-104.46 0-57.58-46.86-104.44-104.46-104.44z m-7.78 114.44c-20.36 0-36.94-16.56-36.94-36.94 0-19.62 15.38-35.68 34.72-36.84v-20.38c0-5.52 4.48-10 10-10s10 4.48 10 10v20.26h24.7c5.54 0 10 4.48 10 10 0 5.54-4.46 10-10 10h-42.48c-9.34 0-16.94 7.62-16.94 16.96s7.6 16.94 16.94 16.94h15.56c20.36 0 36.92 16.58 36.92 36.96 0 19.62-15.38 35.66-34.7 36.82v20.38c0 5.54-4.48 10-10 10s-10-4.46-10-10v-20.26h-24.72c-5.52 0-10-4.48-10-10s4.48-10 10-10h34.64c0.02 0 0.06-0.02 0.08-0.02s0.06 0.02 0.08 0.02h7.7c9.34 0 16.92-7.6 16.92-16.94 0-9.36-7.58-16.96-16.92-16.96h-15.56z" opacity=".2" p-id="48715"></path><path d="M511.01 251.974a10 10 0 0 0 10-10v-29.626a10 10 0 1 0-20 0v29.626a10 10 0 0 0 10 10zM425.016 267.698a9.996 9.996 0 0 0 13.662 3.658 10.004 10.004 0 0 0 3.66-13.662l-14.814-25.654a10 10 0 0 0-17.32 10.002l14.812 25.656zM346.406 313.158l25.66 14.812a9.994 9.994 0 0 0 13.66-3.662 10 10 0 0 0-3.662-13.66l-25.66-14.812a9.996 9.996 0 0 0-13.66 3.662 10.002 10.002 0 0 0 3.662 13.66zM326.714 406.644h29.63a10 10 0 0 0 0-20h-29.63a10 10 0 0 0 0 20zM372.064 465.312l-25.66 14.816a10 10 0 0 0 5.01 18.662c1.696 0 3.416-0.432 4.99-1.342l25.66-14.816a10 10 0 1 0-10-17.32zM438.676 521.926a9.994 9.994 0 0 0-13.66 3.66l-14.816 25.658a9.998 9.998 0 0 0 8.65 15.002 9.992 9.992 0 0 0 8.67-5.002l14.816-25.658a10 10 0 0 0-3.66-13.66zM511.01 541.308a10 10 0 0 0-10 10l-0.002 29.626a10 10 0 1 0 20 0l0.002-29.626a10 10 0 0 0-10-10zM597.004 525.588a9.99 9.99 0 0 0-13.658-3.662 9.996 9.996 0 0 0-3.662 13.658l14.81 25.662a9.996 9.996 0 0 0 13.658 3.662 9.996 9.996 0 0 0 3.662-13.658l-14.81-25.662zM670.604 498.794a10 10 0 0 0 5.01-18.662l-25.662-14.82a10 10 0 0 0-10 17.322l25.662 14.82c1.574 0.908 3.292 1.34 4.99 1.34zM655.67 396.642a10 10 0 0 0 10 10l29.634 0.002a10 10 0 1 0 0-20l-29.634-0.002a10.002 10.002 0 0 0-10 10zM644.96 329.31c1.696 0 3.414-0.432 4.988-1.34l25.664-14.812a10 10 0 1 0-9.996-17.322l-25.664 14.812a10 10 0 0 0 5.008 18.662zM583.342 271.356a10 10 0 0 0 13.66-3.658l14.816-25.656a10 10 0 0 0-17.32-10.002l-14.816 25.656a10 10 0 0 0 3.66 13.66z" fill="#23130D" p-id="48716"></path><path d="M968.7 757.06h-13.36v-24.76c0-15.52-12.62-28.14-28.14-28.14h-14.46L961.4 494.4c4.22-19.3-0.86-47.44-11.58-64.1L789.38 185.86c-6.16-9.54-15.82-16.24-26.48-18.34-9.88-1.94-19.74 0.1-27.8 5.74-16.8 11.76-23.06 36.72-14.28 56.88l52.32 126.78c-15.84 6.26-26.96 21.86-26.96 40.12v114c0 8.38-1.26 20.04-3.42 31.98-2.02 10.98-4.62 21.1-7.34 28.54l-0.26 0.64c-0.04 0.08-0.06 0.16-0.08 0.22-7.54 20.52-12.04 51.94-12.04 84.04v47.7h-11.3c-15.52 0-28.14 12.62-28.14 28.14v24.76h-9.66c-5.52 0-10 4.48-10 10v80.12c0 5.52 4.48 10 10 10h294.76c5.52 0 10-4.48 10-10v-80.12c0-5.52-4.48-10-10-10z m-225.66-100.6c0-29.82 4.02-58.6 10.76-77.04l0.26-0.64c0.02-0.06 0.06-0.14 0.08-0.22 3.12-8.48 6.06-19.82 8.28-31.94 2.42-13.28 3.76-25.9 3.76-35.58v-114c0-12.14 9.5-22.46 21.18-23.02h0.24c1.6-0.12 3.34 0.04 5.04 0.4 10.42 2.08 17.98 11.6 17.98 22.62v113.78c-0.14 3.78-0.62 34.9 21.72 60.74a10.004 10.004 0 0 0 14.1 1.04 10.004 10.004 0 0 0 1.04-14.1c-17.9-20.72-16.88-46.68-16.88-46.9 0.02-0.18 0.02-0.38 0.02-0.56v-114c0-20.52-14.32-38.28-34-42.22-0.96-0.2-1.94-0.36-2.92-0.48l-54.42-131.92c-0.04-0.06-0.06-0.14-0.1-0.2-4.98-11.36-1.6-26.28 7.38-32.56 3.56-2.5 8-3.38 12.48-2.5 5.36 1.04 10.3 4.52 13.56 9.62l160.44 244.42c7.76 12.04 11.88 34.92 8.86 48.8L892.2 704.16h-149.16v-47.7z m-39.44 75.84a8.16 8.16 0 0 1 8.14-8.14h188.24c0.06 0 0.12 0.02 0.18 0.02 0.04 0 0.08-0.02 0.12-0.02h26.92a8.16 8.16 0 0 1 8.14 8.14v24.76H703.6v-24.76z m255.1 104.88H683.94v-60.12h274.76v60.12z" fill="#23130D" p-id="48717"></path><path d="M935.34 732.3v24.76H703.6v-24.76a8.16 8.16 0 0 1 8.14-8.14h188.24c0.06 0 0.12 0.02 0.18 0.02 0.04 0 0.08-0.02 0.12-0.02h26.92a8.16 8.16 0 0 1 8.14 8.14z" fill="#E1E1E5" p-id="48718"></path><path d="M683.94 777.06h274.76v60.12H683.94z" fill="#3594BF" p-id="48719"></path><path d="M941.9 490L892.2 704.16h-149.16v-47.7c0-29.82 4.02-58.6 10.76-77.04l0.26-0.64c0.02-0.06 0.06-0.14 0.08-0.22 3.12-8.48 6.06-19.82 8.28-31.94 2.42-13.28 3.76-25.9 3.76-35.58v-114c0-12.14 9.5-22.46 21.18-23.02h0.24c1.6-0.12 3.34 0.04 5.04 0.4 10.42 2.08 17.98 11.6 17.98 22.62v113.78c-0.14 3.78-0.62 34.9 21.72 60.74a10.004 10.004 0 0 0 14.1 1.04 10.004 10.004 0 0 0 1.04-14.1c-17.9-20.72-16.88-46.68-16.88-46.9 0.02-0.18 0.02-0.38 0.02-0.56v-114c0-20.52-14.32-38.28-34-42.22-0.96-0.2-1.94-0.36-2.92-0.48l-54.42-131.92c-0.04-0.06-0.06-0.14-0.1-0.2-4.98-11.36-1.6-26.28 7.38-32.56 3.56-2.5 8-3.38 12.48-2.5 5.36 1.04 10.3 4.52 13.56 9.62l160.44 244.42c7.76 12.04 11.88 34.92 8.86 48.8z" fill="#F8D3C9" p-id="48720"></path><path d="M350.06 757.06h-9.66v-24.76c0-15.52-12.62-28.14-28.14-28.14h-11.32v-47.7c0-32.16-4.48-63.58-12.02-84.06-0.02-0.06-0.06-0.12-0.08-0.18l-0.26-0.66c-5.84-15.94-10.76-43.62-10.76-60.52v-114.02c0-18.26-11.12-33.86-26.94-40.1l52.3-126.78c8.78-20.14 2.52-45.1-14.28-56.88-8.06-5.64-17.94-7.66-27.8-5.72-10.68 2.1-20.32 8.78-26.42 18.26L74.14 430.38c-10.68 16.58-15.76 44.72-11.52 64.16l48.64 209.62H96.8c-15.52 0-28.14 12.62-28.14 28.14v24.76h-13.36c-5.52 0-10 4.48-10 10v80.12c0 5.52 4.48 10 10 10h294.76c5.52 0 10-4.48 10-10v-80.12c0-5.52-4.48-10-10-10zM82.14 490.14c-3.06-14.02 1.06-36.9 8.76-48.86l160.54-244.58c3.22-5 8.16-8.48 13.52-9.54 4.48-0.88 8.92 0 12.48 2.5 8.98 6.28 12.36 21.2 7.38 32.56-0.02 0.06-0.06 0.14-0.08 0.2l-54.44 131.92c-0.96 0.12-1.92 0.26-2.88 0.46-19.72 3.98-34.04 21.74-34.04 42.22v114.54c0.02 0.26 1.02 26.22-16.86 46.92a9.984 9.984 0 0 0 1.02 14.1 10.01 10.01 0 0 0 14.12-1.02c22.32-25.86 21.86-56.96 21.72-60.74v-113.8c0-11 7.56-20.52 17.96-22.6 1.82-0.36 3.36-0.5 5.3-0.42 11.68 0.58 21.18 10.9 21.18 23.02v114.02c0 19.2 5.4 49.48 12.04 67.52l0.06 0.18 0.26 0.66c6.74 18.38 10.76 47.18 10.76 77.06v47.7H131.8L82.14 490.14z m6.52 242.16a8.16 8.16 0 0 1 8.14-8.14h26.94c0.04 0 0.06 0.02 0.1 0.02 0.04 0 0.1-0.02 0.14-0.02h188.28c4.5 0 8.14 3.66 8.14 8.14v24.76H88.66v-24.76z m251.4 104.88H65.3v-60.12h274.76v60.12z" fill="#23130D" p-id="48721"></path><path d="M65.3 777.06h274.76v60.12H65.3z" fill="#3594BF" p-id="48722"></path><path d="M65.3 777.06h274.76v15.94H65.3z" fill="#FFFFFF" opacity=".4" p-id="48723"></path><path d="M65.3 821.24h274.76v15.94H65.3z" opacity=".2" p-id="48724"></path><path d="M320.4 732.3v24.76H88.66v-24.76a8.16 8.16 0 0 1 8.14-8.14h26.94c0.04 0 0.06 0.02 0.1 0.02 0.04 0 0.1-0.02 0.14-0.02h188.28c4.5 0 8.14 3.66 8.14 8.14z" fill="#E1E1E5" p-id="48725"></path><path d="M88.66 744.72H320.4v12.34H88.66z" opacity=".2" p-id="48726"></path><path d="M284.82 222.22c-0.02 0.06-0.06 0.14-0.08 0.2l-54.44 131.92c-0.96 0.12-1.92 0.26-2.88 0.46-19.72 3.98-34.04 21.74-34.04 42.22v114.54c0.02 0.26 1.02 26.22-16.86 46.92a9.984 9.984 0 0 0 1.02 14.1 10.01 10.01 0 0 0 14.12-1.02c22.32-25.86 21.86-56.96 21.72-60.74v-113.8c0-11 7.56-20.52 17.96-22.6 1.82-0.36 3.36-0.5 5.3-0.42 11.68 0.58 21.18 10.9 21.18 23.02v114.02c0 19.2 5.4 49.48 12.04 67.52l0.06 0.18 0.26 0.66c6.74 18.38 10.76 47.18 10.76 77.06v47.7H131.8L82.14 490.14c-3.06-14.02 1.06-36.9 8.76-48.86l160.54-244.58c3.22-5 8.16-8.48 13.52-9.54 4.48-0.88 8.92 0 12.48 2.5 8.98 6.28 12.36 21.2 7.38 32.56z" fill="#F8D3C9" p-id="48727"></path><path d="M282.42 194.76v0.02c-0.5 0.6-0.96 1.26-1.4 1.92L120.5 441.28c-7.72 11.96-11.84 34.84-8.76 48.86L161.4 704.16H131.8L82.14 490.14c-3.06-14.02 1.06-36.9 8.76-48.86l160.54-244.58c3.22-5 8.16-8.48 13.52-9.54 4.48-0.88 8.92 0 12.48 2.5 1.92 1.34 3.6 3.08 4.98 5.1z" opacity=".2" p-id="48728"></path><path d="M683.94 777.06h274.76v15.94H683.94z" fill="#FFFFFF" opacity=".4" p-id="48729"></path><path d="M683.94 821.24h274.76v15.94H683.94zM703.6 744.72h231.74v12.34H703.6zM741.58 194.76v0.02c0.5 0.6 0.96 1.26 1.4 1.92l160.52 244.58c7.72 11.96 11.84 34.84 8.76 48.86L862.6 704.16h29.6l49.66-214.02c3.06-14.02-1.06-36.9-8.76-48.86L772.56 196.7c-3.22-5-8.16-8.48-13.52-9.54-4.48-0.88-8.92 0-12.48 2.5a19.82 19.82 0 0 0-4.98 5.1z" opacity=".2" p-id="48730"></path><path d="M480.68 460.54h20.32v20.32zM416.28 352.68l87.88 87.86h-27.88c-4.22 0-7.82 2.62-9.3 6.3l-59.96-59.96c1.12-12.12 4.32-23.64 9.26-34.2zM554.98 491.38a103.444 103.444 0 0 1-34.18 9.26l-9.86-9.84h0.06c5.52 0 10-4.46 10-10v-20.38c0.92-0.06 1.84-0.14 2.76-0.28l31.22 31.24zM486.54 372.62l13.76 13.76a16.974 16.974 0 0 1-13.76-13.76z" fill="#FFFFFF" opacity=".4" p-id="48731"></path><path d="M535.7 423.6a16.94 16.94 0 0 1-14.78 16.8l-98.7-98.7a104.94 104.94 0 0 1 14.74-18.66l32.26 32.26a36.34 36.34 0 0 0-2.94 14.4c0 20.38 16.58 36.94 36.94 36.94h15.56c0.64 0 1.26 0.04 1.88 0.1l14.94 14.94c0.06 0.64 0.1 1.28 0.1 1.92zM584.62 470.7a104.94 104.94 0 0 1-18.66 14.74l-29.48-29.48c7.06-3.86 12.74-9.98 16.02-17.38l32.12 32.12zM501 312.48v20.38a36.6 36.6 0 0 0-15.14 4.26l-29.48-29.46a103.816 103.816 0 0 1 40.98-14.58l10.06 10.06a9.998 9.998 0 0 0-6.42 9.34zM537.02 332.74h-16.02v-16.02zM614.56 410.28a103.568 103.568 0 0 1-14.56 41l-98.46-98.46c0.54-0.06 1.12-0.08 1.68-0.08h42.48c3.1 0 5.88-1.4 7.7-3.62l61.16 61.16z" fill="#FFFFFF" opacity=".4" p-id="48732"></path><path d="M594.758 406.64a10 10 0 0 1-10-10c0-40.666-33.084-73.75-73.75-73.75a10 10 0 0 1 0-20c51.694 0 93.75 42.056 93.75 93.75a10 10 0 0 1-10 10z" fill="#FFFFFF" opacity=".8" p-id="48733"></path></svg>