<?xml version="1.0" standalone="no"?><!DOCTYPE svg PUBLIC "-//W3C//DTD SVG 1.1//EN" "http://www.w3.org/Graphics/SVG/1.1/DTD/svg11.dtd"><svg t="1625811443203" class="icon" viewBox="0 0 1024 1024" version="1.1" xmlns="http://www.w3.org/2000/svg" p-id="29452" xmlns:xlink="http://www.w3.org/1999/xlink" width="200" height="200"><defs><style type="text/css"></style></defs><path d="M640.58 245.06a9.976 9.976 0 0 0-7.04-5.22l-107.36-19.92 80.18-167.46c1.5-3.1 1.28-6.76-0.58-9.68a10.01 10.01 0 0 0-8.44-4.62h-0.08l-103.64 0.82a10.008 10.008 0 0 0-9.3 6.56l-101.42 276.36c-1.12 3.08-0.68 6.52 1.22 9.2a9.978 9.978 0 0 0 8.18 4.24h0.08l109.84-0.88-83.38 357.06a9.992 9.992 0 0 0 9.74 12.28c3.82 0 7.42-2.2 9.08-5.84L640.8 253.82c1.28-2.8 1.2-6.04-0.22-8.76z m-179.54 353.72l63.56-272.14a9.96 9.96 0 0 0-1.94-8.52 9.966 9.966 0 0 0-7.8-3.76h-0.08l-108.12 0.88 94.04-256.3 80.7-0.66-78.9 164.78a10.02 10.02 0 0 0 0.1 8.84 9.998 9.998 0 0 0 7.1 5.3l107.58 19.96-156.24 341.62z" fill="#23130D" p-id="29453"></path><path d="M524.6 326.64a9.96 9.96 0 0 0-1.94-8.52 9.966 9.966 0 0 0-7.8-3.76h-0.08l-108.12 0.88 94.04-256.3 80.7-0.66-78.9 164.78a10.02 10.02 0 0 0 0.1 8.84 9.998 9.998 0 0 0 7.1 5.3l107.58 19.96-156.24 341.62 63.56-272.14z" fill="#F9C139" p-id="29454"></path><path d="M542.7 318.12c1.9 2.38 2.64 5.52 1.92 8.52l-42.64 182.62-40.94 89.52 63.56-272.14a9.96 9.96 0 0 0-1.94-8.52 9.846 9.846 0 0 0-6.18-3.62l18.32-0.14h0.08c3.04 0 5.9 1.38 7.82 3.76zM581.4 58.28l-0.08 0.16-60.6 0.5-93.96 256.14-20.1 0.16 94.04-256.3zM516.48 314.5l-89.78 0.74 0.06-0.16 88.02-0.72h0.08c0.54 0 1.08 0.04 1.62 0.14z" fill="#FFFFFF" opacity=".4" p-id="29455"></path><path d="M890.58 230h-161.4c-5.52 0-10 4.48-10 10v357.26c0 114.24-92.94 207.18-207.18 207.18s-207.18-92.94-207.18-207.18V240c0-5.52-4.48-10-10-10h-161.4c-5.52 0-10 4.48-10 10v357.26c0 214.26 174.32 388.58 388.58 388.58s388.58-174.32 388.58-388.58V240c0-5.52-4.46-10-10-10zM143.42 250h141.4v99.72h-141.4V250z m737.16 347.26c0 203.24-165.34 368.58-368.58 368.58S143.42 800.5 143.42 597.26V369.72h141.4v227.54c0 125.26 101.92 227.18 227.18 227.18s227.18-101.92 227.18-227.18V369.72h141.4v227.54z m0-247.54h-141.4V250h141.4v99.72z" fill="#23130D" p-id="29456"></path><path d="M739.18 250h141.4v99.72h-141.4z" fill="#EC7063" p-id="29457"></path><path d="M880.58 369.72v227.54c0 203.24-165.34 368.58-368.58 368.58S143.42 800.5 143.42 597.26V369.72h141.4v227.54c0 125.26 101.92 227.18 227.18 227.18s227.18-101.92 227.18-227.18V369.72h141.4z" fill="#E1E1E5" p-id="29458"></path><path d="M143.42 250h141.4v99.72h-141.4z" fill="#3594BF" p-id="29459"></path><path d="M532 965.3c-6.62 0.36-13.3 0.54-20 0.54-203.24 0-368.58-165.34-368.58-368.58V369.72h40v227.54c0 196.54 154.6 357.62 348.58 368.04zM143.42 250h40v99.72h-40z" fill="#FFFFFF" opacity=".4" p-id="29460"></path><path d="M840.58 250h40v99.72h-40zM880.58 369.72v227.54c0 203.24-165.34 368.58-368.58 368.58-6.7 0-13.38-0.18-20-0.54 193.98-10.42 348.58-171.5 348.58-368.04V369.72h40z" fill="#23130D" opacity=".2" p-id="29461"></path></svg>