<?xml version="1.0" standalone="no"?><!DOCTYPE svg PUBLIC "-//W3C//DTD SVG 1.1//EN" "http://www.w3.org/Graphics/SVG/1.1/DTD/svg11.dtd"><svg t="1625812369005" class="icon" viewBox="0 0 1024 1024" version="1.1" xmlns="http://www.w3.org/2000/svg" p-id="62657" xmlns:xlink="http://www.w3.org/1999/xlink" width="200" height="200"><defs><style type="text/css"></style></defs><path d="M624.1 501.32l-38.36-37.76a9.992 9.992 0 0 0-11.22-1.94l-138.74 64.24a10.02 10.02 0 0 0-5.66 7.38c-0.56 3.22 0.5 6.52 2.84 8.82l36.32 35.74-156.58 97.3a10.002 10.002 0 0 0-3.7 12.9c1.72 3.52 5.26 5.6 8.98 5.6 1.16 0 2.34-0.2 3.48-0.64l237.74-88.52a9.966 9.966 0 0 0 6.04-6.34c0.92-2.94 0.44-6.14-1.3-8.68l-28.56-41.58 85.04-29.96a10.026 10.026 0 0 0 6.42-7.26c0.76-3.36-0.28-6.88-2.74-9.3z m-107.68 32c-2.94 1.02-5.22 3.36-6.18 6.32s-0.5 6.2 1.26 8.76l28.7 41.78-132.08 49.18 82.5-51.28c2.62-1.6 4.34-4.34 4.68-7.38a10.06 10.06 0 0 0-2.94-8.24l-35.08-34.52 119.36-55.26 22.02 21.66-82.24 28.98z" fill="#23130D" p-id="62658"></path><path d="M511.5 548.4l28.7 41.78-132.08 49.18 82.5-51.28c2.62-1.6 4.34-4.34 4.68-7.38a10.06 10.06 0 0 0-2.94-8.24l-35.08-34.52 119.36-55.26 22.02 21.66-82.24 28.98c-2.94 1.02-5.22 3.36-6.18 6.32s-0.5 6.2 1.26 8.76z" fill="#F9C139" p-id="62659"></path><path d="M507.88 572.46a10.06 10.06 0 0 1 2.94 8.24 9.946 9.946 0 0 1-4.68 7.38l-59.32 36.86-38.7 14.42 82.5-51.28c2.62-1.6 4.34-4.34 4.68-7.38a10.06 10.06 0 0 0-2.94-8.24l-35.08-34.52 119.36-55.26 4.96 4.88-108.8 50.38 35.08 34.52z" fill="#FFFFFF" opacity=".5" p-id="62660"></path><path d="M804.82 682.04l-90.38-90.38a9.97 9.97 0 0 0-14.14 0L500.24 791.72c-30.56 30.54-71.24 47.36-114.56 47.36-43.32 0-84-16.82-114.56-47.36-63.16-63.16-63.16-165.94 0.02-229.1l133-133.02h0.02l67.04-67.06a10.006 10.006 0 0 0 0-14.14l-90.38-90.38c-1.88-1.88-4.42-2.92-7.08-2.92s-5.2 1.04-7.08 2.92l-67.02 67.04h-0.02c0 0.02-0.02 0.02-0.02 0.02l-133 133C108.18 516.52 76 594.32 76 677.16c0 82.86 32.18 160.66 90.6 219.08 58.42 58.44 136.24 90.62 219.08 90.62s160.66-32.18 219.08-90.62l200.06-200.06c1.88-1.88 2.94-4.42 2.94-7.08 0-2.64-1.06-5.18-2.94-7.06z m-431.08-402.8l76.24 76.24-52.9 52.9-76.24-76.24 52.9-52.9z m216.88 602.86c-54.66 54.66-127.44 84.76-204.94 84.76s-150.28-30.1-204.94-84.76C126.1 827.46 96 754.68 96 677.16c0-77.5 30.1-150.28 84.74-204.92l125.96-125.96 76.24 76.24-125.96 125.96c-70.96 70.96-70.96 186.42 0 257.38 34.32 34.32 80.04 53.22 128.7 53.22 48.66 0 94.36-18.9 128.7-53.22l125.94-125.94 76.24 76.24-125.94 125.94z m140.08-140.08l-76.24-76.24 52.9-52.92 76.26 76.24-52.92 52.92z" fill="#23130D" p-id="62661"></path><path d="M783.62 689.1l-52.92 52.92-76.24-76.24 52.9-52.92z" fill="#EC7063" p-id="62662"></path><path d="M320.836 332.14l52.9-52.9 76.24 76.24-52.9 52.9z" fill="#3594BF" p-id="62663"></path><path d="M355.516 297.46l18.22-18.218 76.238 76.24-18.22 18.22zM689.206 631.158l18.22-18.22 76.24 76.24-18.22 18.22z" fill="#FFFFFF" opacity=".4" p-id="62664"></path><path d="M716.56 756.16l-125.94 125.94c-54.66 54.66-127.44 84.76-204.94 84.76s-150.28-30.1-204.94-84.76C126.1 827.46 96 754.68 96 677.16c0-77.5 30.1-150.28 84.74-204.92l125.96-125.96 76.24 76.24-125.96 125.96c-70.96 70.96-70.96 186.42 0 257.38 34.32 34.32 80.04 53.22 128.7 53.22 48.66 0 94.36-18.9 128.7-53.22l125.94-125.94 76.24 76.24z" fill="#E1E1E5" p-id="62665"></path><path d="M614.18 858.54l-23.56 23.56c-54.66 54.66-127.44 84.76-204.94 84.76s-150.28-30.1-204.94-84.76C126.1 827.46 96 754.68 96 677.16c0-77.5 30.1-150.28 84.74-204.92l23.56-23.56c-54.64 54.64-84.74 127.42-84.74 204.92 0 77.52 30.1 150.3 84.74 204.94 54.66 54.66 127.44 84.76 204.94 84.76s150.28-30.1 204.94-84.76z" fill="#23130D" opacity=".2" p-id="62666"></path><path d="M744.01 135.58c1.952 1.952 4.512 2.928 7.07 2.928s5.12-0.976 7.07-2.928l51.784-51.784a10 10 0 1 0-14.14-14.142l-51.784 51.784a10 10 0 0 0 0 14.142zM710.894 102.462c1.952 1.952 4.512 2.928 7.07 2.928s5.12-0.976 7.07-2.928l34.656-34.656a10 10 0 1 0-14.14-14.142L710.894 88.32a10 10 0 0 0 0 14.142zM657.188 99.932c2.558 0 5.12-0.976 7.072-2.928l43.772-43.774a10 10 0 0 0-14.144-14.142l-43.772 43.774a10 10 0 0 0 7.072 17.07zM782.584 215.328a10 10 0 1 0 14.14 14.142l43.772-43.772a10 10 0 1 0-14.14-14.142l-43.772 43.772zM777.126 154.556a10 10 0 1 0 14.14 14.142l34.654-34.656a10 10 0 1 0-14.14-14.142l-34.654 34.656zM708.64 217.82a10.006 10.006 0 0 1-14.14 0l-16.36-16.36s0-0.02-0.02-0.02l-3.66-3.66a7.966 7.966 0 0 0-11.28 0 7.966 7.966 0 0 0 0 11.28l7.34 7.34c10.9 10.9 10.9 28.66-0.02 39.56-5.44 5.46-12.62 8.18-19.78 8.2-5.64 0-11.26-1.72-16.06-5.1l-7.52 7.52a9.98 9.98 0 0 1-7.08 2.94 9.9 9.9 0 0 1-7.06-2.94 9.97 9.97 0 0 1 0-14.14l7.2-7.2-9.3-9.32a9.97 9.97 0 0 1 0-14.14 10.006 10.006 0 0 1 14.14 0l20.04 20.06a7.986 7.986 0 0 0 11.28-0.02 7.986 7.986 0 0 0 0.02-11.28l-7.34-7.34c-10.92-10.9-10.92-28.66 0-39.56 9.74-9.74 24.94-10.76 35.84-3.1l7.54-7.52a10.006 10.006 0 0 1 14.14 0 10.006 10.006 0 0 1 0 14.14l-7.22 7.22 9.3 9.3a9.97 9.97 0 0 1 0 14.14z" fill="#23130D" p-id="62667"></path><path d="M659.78 121.6c-54.16 0-98.2 44.06-98.2 98.2 0 54.16 44.04 98.22 98.2 98.22 54.16 0 98.2-44.06 98.2-98.22 0-54.14-44.04-98.2-98.2-98.2z m0 176.42c-43.12 0-78.2-35.08-78.2-78.22 0-43.12 35.08-78.2 78.2-78.2s78.2 35.08 78.2 78.2c0 43.14-35.08 78.22-78.2 78.22z" fill="#23130D" p-id="62668"></path><path d="M659.78 141.6c-7.92 0-15.58 1.18-22.78 3.38a77.194 77.194 0 0 0-21.2 10.2c-3.86 2.62-7.48 5.6-10.8 8.88-3.2 3.14-6.14 6.54-8.72 10.18-1.36 1.86-2.62 3.78-3.8 5.76a78.028 78.028 0 0 0-10.9 39.8c0 43.14 35.08 78.22 78.2 78.22 7.92 0 15.56-1.18 22.76-3.38 6.02-1.84 11.74-4.38 17.04-7.54a77.02 77.02 0 0 0 15.94-12.52c3.28-3.32 6.26-6.94 8.88-10.8 4.4-6.44 7.86-13.58 10.2-21.2 2.2-7.22 3.38-14.86 3.38-22.78 0-43.12-35.08-78.2-78.2-78.2z m48.86 76.22a10.006 10.006 0 0 1-14.14 0l-16.36-16.36s0-0.02-0.02-0.02l-3.66-3.66a7.966 7.966 0 0 0-11.28 0 7.98 7.98 0 0 0 0 11.28l7.34 7.34c5.84 5.84 8.54 13.64 8.12 21.3a27.84 27.84 0 0 1-4.74 14.16 28.454 28.454 0 0 1-4.46 5.1 27.928 27.928 0 0 1-17.42 7.16c-0.44 0.02-0.86 0.04-1.3 0.04-5.64 0-11.26-1.72-16.06-5.1l-7.52 7.52a9.98 9.98 0 0 1-7.08 2.94 9.9 9.9 0 0 1-7.06-2.94 9.97 9.97 0 0 1 0-14.14l7.2-7.2-9.3-9.32a9.962 9.962 0 0 1-0.58-13.5c0.18-0.22 0.38-0.44 0.58-0.64a10.006 10.006 0 0 1 14.14 0l20.04 20.06c2.76 2.74 7.06 3.06 10.14 0.9 0.4-0.26 0.78-0.56 1.14-0.92 1.44-1.44 2.22-3.3 2.32-5.18a7.96 7.96 0 0 0-2.3-6.1l-7.34-7.34a27.934 27.934 0 0 1-8-23.1c0.58-4.96 2.5-9.8 5.76-13.92 0.68-0.88 1.42-1.74 2.24-2.54 5.12-5.12 11.76-7.84 18.5-8.12 6.04-0.28 12.18 1.4 17.34 5.02l7.54-7.52a10.006 10.006 0 0 1 14.14 0 10.006 10.006 0 0 1 0 14.14l-7.22 7.22 9.3 9.3a9.94 9.94 0 0 1 0.56 13.5c-0.16 0.22-0.36 0.44-0.56 0.64z" fill="#F9C139" p-id="62669"></path><path d="M913.21 326.604a10 10 0 0 0-14.14 0l-51.784 51.782a10 10 0 1 0 14.14 14.142l51.784-51.782a9.994 9.994 0 0 0 0-14.142zM814.172 359.412c1.952 1.952 4.512 2.928 7.07 2.928s5.12-0.976 7.07-2.928l34.656-34.656a10 10 0 1 0-14.14-14.142l-34.656 34.656a10 10 0 0 0 0 14.142zM811.308 296.036a10 10 0 0 0-14.14 0l-43.774 43.772a10 10 0 1 0 14.14 14.142l43.774-43.772a10 10 0 0 0 0-14.142zM943.774 428.504a10 10 0 0 0-14.14 0l-43.772 43.772a10 10 0 1 0 14.14 14.142l43.772-43.772a10 10 0 0 0 0-14.142zM894.544 425.648l34.654-34.656a10 10 0 1 0-14.14-14.142l-34.654 34.656a10 10 0 1 0 14.14 14.142zM811.92 474.78a10.006 10.006 0 0 1-14.14 0l-20.04-20.04a7.966 7.966 0 0 0-11.28 0c-1.52 1.5-2.34 3.5-2.34 5.64 0 2.12 0.82 4.12 2.34 5.64l7.34 7.34c10.9 10.9 10.9 28.64-0.02 39.56a28.216 28.216 0 0 1-9.06 6.08c-3.36 1.4-6.98 2.12-10.72 2.12-5.84 0-11.4-1.8-16.06-5.1l-7.54 7.52c-1.94 1.94-4.5 2.92-7.06 2.92-2.56 0-5.12-0.98-7.08-2.92a10.006 10.006 0 0 1 0-14.14l7.22-7.22-9.3-9.3a9.97 9.97 0 0 1 0-14.14 9.97 9.97 0 0 1 14.14 0l20.04 20.04c1.5 1.5 3.5 2.34 5.64 2.34s4.14-0.84 5.64-2.34a7.966 7.966 0 0 0 0-11.28l-7.32-7.34c-5.3-5.28-8.2-12.32-8.2-19.8 0-7.46 2.9-14.48 8.2-19.78 9.74-9.74 24.94-10.74 35.84-3.08l7.52-7.52a10.006 10.006 0 0 1 14.16 14.14l-7.22 7.2 9.3 9.3a9.994 9.994 0 0 1 0 14.16z" fill="#23130D" p-id="62670"></path><path d="M763.06 378.56c-54.16 0-98.2 44.04-98.2 98.2 0 54.14 44.04 98.2 98.2 98.2 54.16 0 98.2-44.06 98.2-98.2 0-54.16-44.04-98.2-98.2-98.2z m0 176.4c-43.12 0-78.2-35.08-78.2-78.2s35.08-78.2 78.2-78.2c43.12 0 78.2 35.08 78.2 78.2s-35.08 78.2-78.2 78.2z" fill="#23130D" p-id="62671"></path><path d="M763.06 398.56c-43.12 0-78.2 35.08-78.2 78.2s35.08 78.2 78.2 78.2c43.12 0 78.2-35.08 78.2-78.2s-35.08-78.2-78.2-78.2z m48.86 76.22a10.006 10.006 0 0 1-14.14 0l-20.04-20.04a7.966 7.966 0 0 0-11.28 0c-1.52 1.5-2.34 3.5-2.34 5.64 0 2.12 0.82 4.12 2.34 5.64l7.34 7.34c10.9 10.9 10.9 28.64-0.02 39.56a28.216 28.216 0 0 1-9.06 6.08c-3.36 1.4-6.98 2.12-10.72 2.12-5.84 0-11.4-1.8-16.06-5.1l-7.54 7.52c-1.94 1.94-4.5 2.92-7.06 2.92-2.56 0-5.12-0.98-7.08-2.92a10.006 10.006 0 0 1 0-14.14l7.22-7.22-9.3-9.3a9.97 9.97 0 0 1 0-14.14 9.97 9.97 0 0 1 14.14 0l20.04 20.04c1.5 1.5 3.5 2.34 5.64 2.34s4.14-0.84 5.64-2.34a7.966 7.966 0 0 0 0-11.28l-7.32-7.34c-5.3-5.28-8.2-12.32-8.2-19.8 0-7.46 2.9-14.48 8.2-19.78 9.74-9.74 24.94-10.74 35.84-3.08l7.52-7.52a10.006 10.006 0 0 1 14.16 14.14l-7.22 7.2 9.3 9.3a9.994 9.994 0 0 1 0 14.16z" fill="#F9C139" p-id="62672"></path><path d="M659.78 145.6c40.914 0 74.2 33.286 74.2 74.2 0 40.926-33.286 74.22-74.2 74.22s-74.2-33.294-74.2-74.22c0-40.914 33.286-74.2 74.2-74.2m24.524 29.866a31.836 31.836 0 0 0-15.508-3.992 31.72 31.72 0 0 0-22.582 9.336 31.734 31.734 0 0 0-9.364 22.612c0 8.554 3.326 16.584 9.362 22.608l7.33 7.33c1.55 1.56 1.548 4.082-0.02 5.642a3.92 3.92 0 0 1-2.804 1.162 3.964 3.964 0 0 1-2.808-1.15l-20.042-20.062c-2.642-2.642-6.158-4.096-9.898-4.096s-7.256 1.454-9.892 4.09a13.876 13.876 0 0 0-4.118 9.906c0 3.746 1.462 7.264 4.108 9.896l6.478 6.492-4.374 4.374a13.924 13.924 0 0 0-4.112 9.924 13.846 13.846 0 0 0 4.098 9.858 13.836 13.836 0 0 0 9.904 4.126 13.92 13.92 0 0 0 9.908-4.112l5.268-5.268a31.704 31.704 0 0 0 15.494 4.02c8.574-0.024 16.602-3.354 22.594-9.368a31.736 31.736 0 0 0 9.366-22.61 31.746 31.746 0 0 0-9.344-22.61L666 206.222a3.968 3.968 0 0 1 0.018-5.622c0.742-0.748 1.738-1.16 2.802-1.16s2.06 0.412 2.812 1.168l2.746 2.744 0.934 0.934 16.36 16.36a13.906 13.906 0 0 0 9.898 4.096 13.896 13.896 0 0 0 9.892-4.09 13.876 13.876 0 0 0 4.118-9.906 13.864 13.864 0 0 0-4.112-9.898l-6.472-6.472 4.392-4.392c5.458-5.458 5.458-14.338-0.008-19.804a13.944 13.944 0 0 0-9.898-4.09 13.894 13.894 0 0 0-9.888 4.092l-5.29 5.284M659.78 141.6c-43.12 0-78.2 35.08-78.2 78.2 0 43.14 35.08 78.22 78.2 78.22s78.2-35.08 78.2-78.22c0-43.12-35.08-78.2-78.2-78.2z m25.1 38.94l7.54-7.52a9.952 9.952 0 0 1 7.062-2.924c2.558 0 5.118 0.974 7.078 2.924a10.006 10.006 0 0 1 0 14.14l-7.22 7.22 9.3 9.3a9.97 9.97 0 0 1 0 14.14c-1.95 1.95-4.51 2.924-7.07 2.924s-5.12-0.974-7.07-2.924l-16.36-16.36s0-0.02-0.02-0.02l-3.66-3.66c-1.55-1.56-3.594-2.34-5.64-2.34s-4.09 0.78-5.64 2.34a7.966 7.966 0 0 0 0 11.28l7.34 7.34c10.9 10.9 10.9 28.66-0.02 39.56-5.44 5.46-12.62 8.18-19.78 8.2-5.64 0-11.26-1.72-16.06-5.1l-7.52 7.52a9.98 9.98 0 0 1-7.08 2.94 9.9 9.9 0 0 1-7.06-2.94 9.97 9.97 0 0 1 0-14.14l7.2-7.2-9.3-9.32a9.97 9.97 0 0 1 0-14.14c1.95-1.95 4.51-2.926 7.07-2.926s5.12 0.976 7.07 2.926l20.04 20.06a7.974 7.974 0 0 0 5.638 2.322c2.046 0 4.09-0.78 5.642-2.342a7.986 7.986 0 0 0 0.02-11.28l-7.34-7.34c-10.92-10.9-10.92-28.66 0-39.56a27.85 27.85 0 0 1 19.756-8.166c5.64 0 11.278 1.69 16.084 5.066zM763.06 402.56c40.914 0 74.2 33.286 74.2 74.2s-33.286 74.2-74.2 74.2-74.2-33.286-74.2-74.2 33.286-74.2 74.2-74.2m24.52 29.862a31.872 31.872 0 0 0-15.526-3.998c-8.536 0-16.548 3.312-22.562 9.326a31.764 31.764 0 0 0-9.372 22.608c0 8.572 3.33 16.61 9.368 22.624l7.334 7.352a3.968 3.968 0 0 1-0.008 5.614c-0.754 0.754-1.752 1.168-2.812 1.168s-2.058-0.414-2.812-1.168l-20.032-20.032a13.876 13.876 0 0 0-9.906-4.118 13.864 13.864 0 0 0-9.892 4.104 13.864 13.864 0 0 0-4.118 9.88 13.924 13.924 0 0 0 4.112 9.924l6.472 6.472-4.392 4.392c-5.444 5.444-5.448 14.322 0.014 19.812a13.98 13.98 0 0 0 9.894 4.078 13.888 13.888 0 0 0 9.884-4.088l5.284-5.27a31.61 31.61 0 0 0 15.492 4.018c4.268 0 8.392-0.816 12.266-2.43a32.098 32.098 0 0 0 10.342-6.94c12.472-12.472 12.48-32.756 0.02-45.216l-7.34-7.34a3.9 3.9 0 0 1-1.168-2.812c0-1.084 0.398-2.05 1.178-2.82 0.742-0.748 1.736-1.16 2.796-1.16 1.064 0 2.066 0.414 2.82 1.168l20.048 20.048a13.944 13.944 0 0 0 9.898 4.09 13.9 13.9 0 0 0 9.892-4.096c5.464-5.464 5.464-14.354 0-19.816l-6.468-6.468 4.394-4.382c5.44-5.468 5.436-14.346-0.008-19.79a13.922 13.922 0 0 0-9.908-4.112 13.92 13.92 0 0 0-9.908 4.112l-5.276 5.266m-24.52-33.862c-43.12 0-78.2 35.08-78.2 78.2s35.08 78.2 78.2 78.2c43.12 0 78.2-35.08 78.2-78.2s-35.08-78.2-78.2-78.2z m25.1 38.94l7.52-7.52c1.96-1.96 4.52-2.94 7.08-2.94s5.12 0.98 7.08 2.94a10.006 10.006 0 0 1 0 14.14l-7.22 7.2 9.3 9.3a9.994 9.994 0 0 1 0 14.16 10.008 10.008 0 0 1-14.14 0l-20.04-20.04c-1.56-1.56-3.604-2.34-5.648-2.34s-4.082 0.78-5.632 2.34c-1.52 1.5-2.34 3.5-2.34 5.64 0 2.12 0.82 4.12 2.34 5.64l7.34 7.34c10.9 10.9 10.9 28.64-0.02 39.56a28.216 28.216 0 0 1-9.06 6.08c-3.36 1.4-6.98 2.12-10.72 2.12-5.84 0-11.4-1.8-16.06-5.1l-7.54 7.52c-1.94 1.94-4.5 2.92-7.06 2.92-2.56 0-5.12-0.98-7.08-2.92a10.006 10.006 0 0 1 0-14.14l7.22-7.22-9.3-9.3a9.97 9.97 0 0 1 0-14.14c1.95-1.96 4.51-2.94 7.07-2.94s5.12 0.98 7.07 2.94l20.04 20.04c1.5 1.5 3.5 2.34 5.64 2.34s4.14-0.84 5.64-2.34a7.966 7.966 0 0 0 0-11.28l-7.32-7.34c-5.3-5.28-8.2-12.32-8.2-19.8 0-7.46 2.9-14.48 8.2-19.78a27.814 27.814 0 0 1 19.734-8.154c5.648 0 11.294 1.692 16.106 5.074z" opacity=".2" p-id="62673"></path><path d="M655.22 242.74c-3.08 2.16-7.38 1.84-10.14-0.9l-20.04-20.06a10.006 10.006 0 0 0-14.14 0c-0.2 0.2-0.4 0.42-0.58 0.64l-25.36-25.36c1.82-6.02 4.38-11.74 7.52-17.06l62.74 62.74zM699.58 287.1a77.518 77.518 0 0 1-17.04 7.54l-30.52-30.52c6.26-0.3 12.46-2.68 17.42-7.16l30.14 30.14zM656.38 230.54a7.96 7.96 0 0 1 2.3 6.1l-62.4-62.4c2.58-3.64 5.52-7.04 8.72-10.18l36.04 36.04c-0.98 8.22 1.7 16.8 8 23.1l7.34 7.34zM715.52 274.58a77.02 77.02 0 0 1-10.16 8.74l-31.46-31.46a27.84 27.84 0 0 0 4.74-14.16l36.88 36.88zM667.54 175.52c-6.74 0.28-13.38 3-18.5 8.12-0.82 0.8-1.56 1.66-2.24 2.54l-31-31c6.44-4.42 13.58-7.88 21.2-10.2l30.54 30.54zM734.6 242.58c-2.34 7.62-5.8 14.76-10.2 21.2l-63.08-63.08c0.38-1.06 1-2.06 1.86-2.92a7.966 7.966 0 0 1 11.28 0l3.66 3.66c0.02 0 0.02 0.02 0.02 0.02l16.36 16.36a10.006 10.006 0 0 0 14.14 0c0.2-0.2 0.4-0.42 0.56-0.64l25.4 25.4z" fill="#FFFFFF" opacity=".4" p-id="62674"></path><path d="M758.5 499.69c-3.08 2.16-7.38 1.84-10.14-0.9l-20.04-20.06a10.006 10.006 0 0 0-14.14 0c-0.2 0.2-0.4 0.42-0.58 0.64l-25.36-25.36c1.82-6.02 4.38-11.74 7.52-17.06l62.74 62.74zM802.86 544.05a77.518 77.518 0 0 1-17.04 7.54l-30.52-30.52c6.26-0.3 12.46-2.68 17.42-7.16l30.14 30.14zM759.66 487.49a7.96 7.96 0 0 1 2.3 6.1l-62.4-62.4c2.58-3.64 5.52-7.04 8.72-10.18l36.04 36.04c-0.98 8.22 1.7 16.8 8 23.1l7.34 7.34zM818.8 531.53a77.02 77.02 0 0 1-10.16 8.74l-31.46-31.46a27.84 27.84 0 0 0 4.74-14.16l36.88 36.88zM770.82 432.47c-6.74 0.28-13.38 3-18.5 8.12-0.82 0.8-1.56 1.66-2.24 2.54l-31-31c6.44-4.42 13.58-7.88 21.2-10.2l30.54 30.54zM837.88 499.53c-2.34 7.62-5.8 14.76-10.2 21.2l-63.08-63.08c0.38-1.06 1-2.06 1.86-2.92a7.966 7.966 0 0 1 11.28 0l3.66 3.66c0.02 0 0.02 0.02 0.02 0.02l16.36 16.36a10.006 10.006 0 0 0 14.14 0c0.2-0.2 0.4-0.42 0.56-0.64l25.4 25.4z" fill="#FFFFFF" opacity=".4" p-id="62675"></path></svg>