<?xml version="1.0" standalone="no"?><!DOCTYPE svg PUBLIC "-//W3C//DTD SVG 1.1//EN" "http://www.w3.org/Graphics/SVG/1.1/DTD/svg11.dtd"><svg t="1625811483181" class="icon" viewBox="0 0 1024 1024" version="1.1" xmlns="http://www.w3.org/2000/svg" p-id="31335" xmlns:xlink="http://www.w3.org/1999/xlink" width="200" height="200"><defs><style type="text/css"></style></defs><path d="M789.6 862.72h-81.3v-117.24c20.08-12.52 63.76-40.68 65.8-87.68 1.66-38.44-25.92-79.24-81.98-121.28-77.4-58.06-115.22-117.44-133.3-157.04-7.02-15.34-11.68-28.98-14.8-40.2 19.18 10.94 48.34 18.58 87.4 26.38 62.88 12.58 97.84 56.74 98.18 57.16a10.002 10.002 0 0 0 12.64 2.72l75.74-40.58a9.986 9.986 0 0 0 5.24-9.66l-6.76-78.46a10.008 10.008 0 0 0-4.42-7.46c-62.5-41.66-134.48-147.68-135.2-148.74a10.032 10.032 0 0 0-4.74-3.74l-87-33.1 21.24-62.54a10 10 0 0 0-1.12-8.7 9.968 9.968 0 0 0-7.52-4.48c-62.22-5.18-99.68 53.62-109 70.3-101.04 25.44-176.86 79.02-225.42 159.26-54.7 90.4-64.08 198.7-62.34 273.62 1.9 80.84 16.4 139.68 17.02 142.14a9.992 9.992 0 0 0 4.5 6.12l108.8 66.06v117.14H234.4c-27.34 0-49.6 22.26-49.6 49.6v73.92c0 5.52 4.48 10 10 10h634.4c5.52 0 10-4.48 10-10v-73.92c0-27.34-22.26-49.6-49.6-49.6z m-553.16-198.1c-3.22-14.46-13.98-67.2-15.5-134.34-1.64-72.16 7.34-176.24 59.5-262.36 46.4-76.64 119.52-127.5 217.34-151.18a10.05 10.05 0 0 0 6.62-5.3c0.32-0.64 29.22-57.92 78.46-63.28l-19.8 58.34c-1.74 5.1 0.88 10.66 5.9 12.56l93.1 35.42c11.68 16.94 75.14 106.9 134.88 148.8l5.78 67.16-62.88 33.7c-13.06-14.1-48.56-46.9-104.5-58.08-66.28-13.26-92.82-24.56-97.84-41.7a10.022 10.022 0 0 0-11.2-7.06c-4.96 0.8-8.56 5.18-8.4 10.2 0.04 1.34 1.32 32.94 22.18 79.1 19 42.02 58.7 104.92 140.04 165.92 50.46 37.84 75.36 72.98 74 104.42-1.62 37.46-40.9 61.92-57.68 72.36-1.32 0.82-2.5 1.56-3.52 2.22-0.02 0.02-0.04 0.04-0.08 0.06-0.4 0.26-0.76 0.58-1.12 0.9-0.14 0.12-0.3 0.22-0.42 0.34-0.34 0.34-0.64 0.7-0.92 1.08-0.1 0.14-0.24 0.26-0.34 0.4-0.28 0.44-0.52 0.9-0.76 1.38-0.04 0.1-0.12 0.2-0.16 0.3-0.18 0.42-0.3 0.86-0.42 1.3-0.04 0.18-0.12 0.36-0.16 0.56-0.08 0.32-0.1 0.64-0.12 0.98-0.04 0.32-0.1 0.66-0.1 0.98 0 0.06-0.02 0.1-0.02 0.14v122.78H652v-120.64c0-5.52-4.48-10-10-10s-10 4.48-10 10v120.64h-40v-120.64c0-5.52-4.48-10-10-10s-10 4.48-10 10v120.64h-40v-120.64c0-5.52-4.48-10-10-10s-10 4.48-10 10v120.64h-40v-120.64c0-5.52-4.48-10-10-10s-10 4.48-10 10v120.64h-40v-120.64c0-5.52-4.48-10-10-10s-10 4.48-10 10v120.64h-40.74v-122.78c0-0.06-0.02-0.14-0.02-0.22a10.86 10.86 0 0 0-0.12-1.1c-0.04-0.28-0.06-0.58-0.12-0.88-0.08-0.3-0.18-0.6-0.28-0.92-0.1-0.3-0.2-0.62-0.32-0.92-0.14-0.28-0.3-0.56-0.46-0.84-0.16-0.28-0.3-0.56-0.48-0.82-0.18-0.26-0.42-0.5-0.62-0.74-0.22-0.26-0.42-0.5-0.64-0.74-0.22-0.2-0.46-0.38-0.7-0.56-0.28-0.24-0.56-0.46-0.86-0.66-0.08-0.04-0.12-0.1-0.2-0.14l-110-66.78zM819.2 976.24H204.8v-63.92c0-16.32 13.28-29.6 29.6-29.6h555.2c16.32 0 29.6 13.28 29.6 29.6v63.92z" fill="#23130D" p-id="31336"></path><path d="M819.2 912.32v63.92H204.8v-63.92c0-16.32 13.28-29.6 29.6-29.6h555.2c16.32 0 29.6 13.28 29.6 29.6z" fill="#F9C139" p-id="31337"></path><path d="M789.6 894.72c9.704 0 17.6 7.896 17.6 17.6v51.92H216.8v-51.92c0-9.704 7.896-17.6 17.6-17.6h555.2m0-12H234.4c-16.32 0-29.6 13.28-29.6 29.6v63.92h614.4v-63.92c0-16.32-13.28-29.6-29.6-29.6z" opacity=".2" p-id="31338"></path><path d="M754.12 656.94c-1.62 37.46-40.9 61.92-57.68 72.36-1.32 0.82-2.5 1.56-3.52 2.22-0.02 0.02-0.04 0.04-0.08 0.06-0.4 0.26-0.76 0.58-1.12 0.9-0.14 0.12-0.3 0.22-0.42 0.34-0.34 0.34-0.64 0.7-0.92 1.08-0.1 0.14-0.24 0.26-0.34 0.4-0.28 0.44-0.52 0.9-0.76 1.38-0.04 0.1-0.12 0.2-0.16 0.3-0.18 0.42-0.3 0.86-0.42 1.3-0.04 0.18-0.12 0.36-0.16 0.56-0.08 0.32-0.1 0.64-0.12 0.98-0.04 0.32-0.1 0.66-0.1 0.98 0 0.06-0.02 0.1-0.02 0.14v122.78H652v-120.64c0-5.52-4.48-10-10-10s-10 4.48-10 10v120.64h-40v-120.64c0-5.52-4.48-10-10-10s-10 4.48-10 10v120.64h-40v-120.64c0-5.52-4.48-10-10-10s-10 4.48-10 10v120.64h-40v-120.64c0-5.52-4.48-10-10-10s-10 4.48-10 10v120.64h-40v-120.64c0-5.52-4.48-10-10-10s-10 4.48-10 10v120.64h-40.74v-122.78c0-0.06-0.02-0.14-0.02-0.22a10.86 10.86 0 0 0-0.12-1.1c-0.04-0.28-0.06-0.58-0.12-0.88-0.08-0.3-0.18-0.6-0.28-0.92-0.1-0.3-0.2-0.62-0.32-0.92-0.14-0.28-0.3-0.56-0.46-0.84-0.16-0.28-0.3-0.56-0.48-0.82-0.18-0.26-0.42-0.5-0.62-0.74-0.22-0.26-0.42-0.5-0.64-0.74-0.22-0.2-0.46-0.38-0.7-0.56-0.28-0.24-0.56-0.46-0.86-0.66-0.08-0.04-0.12-0.1-0.2-0.14l-110-66.78c-3.22-14.46-13.98-67.2-15.5-134.34-1.64-72.16 7.34-176.24 59.5-262.36 46.4-76.64 119.52-127.5 217.34-151.18a10.05 10.05 0 0 0 6.62-5.3c0.32-0.64 29.22-57.92 78.46-63.28l-19.8 58.34c-1.74 5.1 0.88 10.66 5.9 12.56l93.1 35.42c11.68 16.94 75.14 106.9 134.88 148.8l5.78 67.16-62.88 33.7c-13.06-14.1-48.56-46.9-104.5-58.08-66.28-13.26-92.82-24.56-97.84-41.7a10.022 10.022 0 0 0-11.2-7.06c-4.96 0.8-8.56 5.18-8.4 10.2 0.04 1.34 1.32 32.94 22.18 79.1 19 42.02 58.7 104.92 140.04 165.92 50.46 37.84 75.36 72.98 74 104.42z" fill="#E8790A" p-id="31339"></path><path d="M582.86 48.16l-12.48 36.76c-11.56 13.8-17.84 26.22-17.98 26.52a10.05 10.05 0 0 1-6.62 5.3c-97.82 23.68-170.94 74.54-217.34 151.18-52.16 86.12-61.14 190.2-59.5 262.36 1.52 67.14 12.28 119.88 15.5 134.34l110 66.78c0.08 0.04 0.12 0.1 0.2 0.14 0.3 0.2 0.58 0.42 0.86 0.66 0.24 0.18 0.48 0.36 0.7 0.56 0.22 0.24 0.42 0.48 0.64 0.74l0.02 0.02a9.938 9.938 0 0 0-4.86 8.56v120.64h-40.74v-122.78c0-0.06-0.02-0.14-0.02-0.22a10.86 10.86 0 0 0-0.12-1.1c-0.04-0.28-0.06-0.58-0.12-0.88-0.08-0.3-0.18-0.6-0.28-0.92-0.1-0.3-0.2-0.62-0.32-0.92-0.14-0.28-0.3-0.56-0.46-0.84-0.16-0.28-0.3-0.56-0.48-0.82-0.18-0.26-0.42-0.5-0.62-0.74-0.22-0.26-0.42-0.5-0.64-0.74-0.22-0.2-0.46-0.38-0.7-0.56-0.28-0.24-0.56-0.46-0.86-0.66-0.08-0.04-0.12-0.1-0.2-0.14l-110-66.78c-3.22-14.46-13.98-67.2-15.5-134.34-1.64-72.16 7.34-176.24 59.5-262.36 46.4-76.64 119.52-127.5 217.34-151.18a10.05 10.05 0 0 0 6.62-5.3c0.32-0.64 29.22-57.92 78.46-63.28z" fill="#23130D" opacity=".2" p-id="31340"></path><path d="M460.96 976.24h-75.18l-93.52-93.52h75.2zM547.96 976.24H490.2l-93.54-93.52h57.8zM704.24 976.24H608.2l-93.52-93.52h96.04z" fill="#FFFFFF" opacity=".4" p-id="31341"></path></svg>