<?xml version="1.0" standalone="no"?><!DOCTYPE svg PUBLIC "-//W3C//DTD SVG 1.1//EN" "http://www.w3.org/Graphics/SVG/1.1/DTD/svg11.dtd"><svg t="1625811538523" class="icon" viewBox="0 0 1024 1024" version="1.1" xmlns="http://www.w3.org/2000/svg" p-id="33992" xmlns:xlink="http://www.w3.org/1999/xlink" width="200" height="200"><defs><style type="text/css"></style></defs><path d="M895.08 413.88c11.5-26.4 12.04-55.7 1.5-82.52-10.06-25.58-29.06-45.94-53.76-57.76 11.08-49.9-14.54-101.2-62.26-121.98a107.932 107.932 0 0 0-44.92-8.96c-10.16-48.98-53.64-85.9-105.58-85.9-59.46 0-107.82 48.36-107.82 107.82 0 0.46 0.06 0.92 0.12 1.36-0.06 0.46-0.12 0.9-0.12 1.36v442.24c0 59.44 48.36 107.82 107.82 107.82 57.62 0 104.82-45.44 107.68-102.36 10.06 3 20.46 4.54 30.86 4.54 15.16 0 30.32-3.2 44.48-9.6 54.16-24.54 78.26-88.56 53.72-142.7-1.62-3.6-3.46-7.1-5.46-10.5 14.7-11.1 26.28-25.74 33.74-42.86z m-45.5 26.64c-30.92-35.18-82.12-46.66-125.46-27.04a10 10 0 0 0 8.24 18.22c37.76-17.1 82.82-5.22 107.18 28.26 3.52 4.8 6.56 10.02 9.04 15.52 19.98 44.1 0.36 96.26-43.76 116.24a87.872 87.872 0 0 1-68.14 1.8c-7.76-51.88-52.62-91.82-106.62-91.82-5.52 0-10 4.48-10 10 0 5.54 4.48 10 10 10 48.42 0 87.82 39.4 87.82 87.84 0 48.42-39.4 87.82-87.82 87.82-48.44 0-87.82-39.4-87.82-87.82V167.3c0-0.46-0.08-0.9-0.14-1.36 0.06-0.44 0.14-0.9 0.14-1.36 0-48.42 39.38-87.82 87.82-87.82 48.42 0 87.82 39.4 87.82 87.82s-39.4 87.82-87.82 87.82c-5.52 0-10 4.48-10 10s4.48 10 10 10c59.44 0 107.82-48.36 107.82-107.82 0-0.64-0.04-1.26-0.06-1.9 11.88 0.04 23.74 2.48 34.76 7.28 41.14 17.92 62.12 63.68 48.84 106.44-0.96 3.1-2.12 6.18-3.4 9.16-9.38 21.5-26.56 38.06-48.38 46.64-21.84 8.6-45.7 8.16-67.22-1.22-5.06-2.2-10.94 0.12-13.16 5.18-2.2 5.06 0.12 10.96 5.18 13.16 13.82 6.02 28.42 9.04 43.04 9.04 13.34 0 26.68-2.52 39.48-7.54 26.8-10.54 47.88-30.88 59.38-57.28 0.1-0.22 0.2-0.46 0.3-0.7 18.9 9.78 33.46 25.86 41.32 45.84 8.58 21.84 8.14 45.7-1.22 67.2a87.228 87.228 0 0 1-27.16 34.64z" fill="#23130D" p-id="33993"></path><path d="M876.74 405.88a87.228 87.228 0 0 1-27.16 34.64c-30.92-35.18-82.12-46.66-125.46-27.04a10 10 0 0 0 8.24 18.22c37.76-17.1 82.82-5.22 107.18 28.26 3.52 4.8 6.56 10.02 9.04 15.52 19.98 44.1 0.36 96.26-43.76 116.24a87.872 87.872 0 0 1-68.14 1.8c-7.76-51.88-52.62-91.82-106.62-91.82-5.52 0-10 4.48-10 10 0 5.54 4.48 10 10 10 48.42 0 87.82 39.4 87.82 87.84 0 48.42-39.4 87.82-87.82 87.82-48.44 0-87.82-39.4-87.82-87.82V167.3c0-0.46-0.08-0.9-0.14-1.36 0.06-0.44 0.14-0.9 0.14-1.36 0-48.42 39.38-87.82 87.82-87.82 48.42 0 87.82 39.4 87.82 87.82s-39.4 87.82-87.82 87.82c-5.52 0-10 4.48-10 10s4.48 10 10 10c59.44 0 107.82-48.36 107.82-107.82 0-0.64-0.04-1.26-0.06-1.9 11.88 0.04 23.74 2.48 34.76 7.28 41.14 17.92 62.12 63.68 48.84 106.44-0.96 3.1-2.12 6.18-3.4 9.16-9.38 21.5-26.56 38.06-48.38 46.64-21.84 8.6-45.7 8.16-67.22-1.22-5.06-2.2-10.94 0.12-13.16 5.18-2.2 5.06 0.12 10.96 5.18 13.16 13.82 6.02 28.42 9.04 43.04 9.04 13.34 0 26.68-2.52 39.48-7.54 26.8-10.54 47.88-30.88 59.38-57.28 0.1-0.22 0.2-0.46 0.3-0.7 18.9 9.78 33.46 25.86 41.32 45.84 8.58 21.84 8.14 45.7-1.22 67.2z" fill="#F8D3C9" p-id="33994"></path><path d="M501.76 164.58c0-59.46-48.36-107.82-107.82-107.82-51.94 0-95.42 36.92-105.58 85.9a108.086 108.086 0 0 0-44.94 8.96C195.72 172.4 170.1 223.7 181.18 273.6c-24.68 11.8-43.7 32.18-53.76 57.76-10.54 26.8-10 56.12 1.5 82.52 7.46 17.12 19.02 31.76 33.74 42.86-2 3.38-3.84 6.88-5.46 10.48-24.54 54.16-0.44 118.18 53.72 142.72 14.16 6.4 29.32 9.6 44.48 9.6 10.4 0 20.8-1.54 30.86-4.56 2.86 56.94 50.06 102.38 107.68 102.38 59.46 0 107.82-48.38 107.82-107.82V167.3c0-0.46-0.06-0.9-0.12-1.36 0.06-0.44 0.12-0.9 0.12-1.36z m-20 2.72v442.24c0 48.42-39.38 87.82-87.82 87.82-48.42 0-87.82-39.4-87.82-87.82 0-48.44 39.4-87.84 87.82-87.84 5.52 0 10-4.46 10-10 0-5.52-4.48-10-10-10-54 0-98.86 39.94-106.62 91.82a87.872 87.872 0 0 1-68.14-1.8c-44.12-19.98-63.74-72.14-43.76-116.26a85.96 85.96 0 0 1 9.06-15.54c24.34-33.44 69.4-45.32 107.16-28.22 5.02 2.28 10.94 0.04 13.22-4.98 2.28-5.04 0.06-10.96-4.98-13.24-43.34-19.64-94.56-8.14-125.46 27.04a87.228 87.228 0 0 1-27.16-34.64c-9.38-21.5-9.8-45.36-1.22-67.2 7.86-20 22.44-36.08 41.32-45.84 0.1 0.24 0.18 0.48 0.28 0.7 17.66 40.52 57.38 64.76 99 64.76 14.36 0 28.94-2.88 42.92-8.98a10.008 10.008 0 0 0 5.18-13.16 10.036 10.036 0 0 0-13.18-5.18c-44.38 19.34-96.24-1.04-115.58-45.42-1.28-2.96-2.42-6.04-3.4-9.16-13.28-42.76 7.7-88.52 48.84-106.44 11.02-4.8 22.88-7.24 34.76-7.28-0.02 0.64-0.06 1.26-0.06 1.9 0 59.46 48.38 107.82 107.82 107.82 5.52 0 10-4.48 10-10s-4.48-10-10-10c-48.42 0-87.82-39.4-87.82-87.82s39.4-87.82 87.82-87.82c48.44 0 87.82 39.4 87.82 87.82 0 0.46 0.08 0.92 0.14 1.36-0.06 0.46-0.14 0.9-0.14 1.36z" fill="#23130D" p-id="33995"></path><path d="M481.9 165.94c-0.06 0.46-0.14 0.9-0.14 1.36v442.24c0 48.42-39.38 87.82-87.82 87.82-48.42 0-87.82-39.4-87.82-87.82 0-48.44 39.4-87.84 87.82-87.84 5.52 0 10-4.46 10-10 0-5.52-4.48-10-10-10-54 0-98.86 39.94-106.62 91.82a87.872 87.872 0 0 1-68.14-1.8c-44.12-19.98-63.74-72.14-43.76-116.26a85.96 85.96 0 0 1 9.06-15.54c24.34-33.44 69.4-45.32 107.16-28.22 5.02 2.28 10.94 0.04 13.22-4.98 2.28-5.04 0.06-10.96-4.98-13.24-43.34-19.64-94.56-8.14-125.46 27.04a87.228 87.228 0 0 1-27.16-34.64c-9.38-21.5-9.8-45.36-1.22-67.2 7.86-20 22.44-36.08 41.32-45.84 0.1 0.24 0.18 0.48 0.28 0.7 17.66 40.52 57.38 64.76 99 64.76 14.36 0 28.94-2.88 42.92-8.98a10.008 10.008 0 0 0 5.18-13.16 10.036 10.036 0 0 0-13.18-5.18c-44.38 19.34-96.24-1.04-115.58-45.42-1.28-2.96-2.42-6.04-3.4-9.16-13.28-42.76 7.7-88.52 48.84-106.44 11.02-4.8 22.88-7.24 34.76-7.28-0.02 0.64-0.06 1.26-0.06 1.9 0 59.46 48.38 107.82 107.82 107.82 5.52 0 10-4.48 10-10s-4.48-10-10-10c-48.42 0-87.82-39.4-87.82-87.82s39.4-87.82 87.82-87.82c48.44 0 87.82 39.4 87.82 87.82 0 0.46 0.08 0.92 0.14 1.36z" fill="#F8D3C9" p-id="33996"></path><path d="M481.9 165.94c-0.06 0.46-0.14 0.9-0.14 1.36v442.24c0 48.42-39.38 87.82-87.82 87.82-6.88 0-13.56-0.8-20-2.3 38.82-9.06 67.82-43.98 67.82-85.52V167.3c0-0.46 0.08-0.9 0.14-1.36-0.06-0.44-0.14-0.9-0.14-1.36 0-41.54-29-76.46-67.82-85.52a87.98 87.98 0 0 1 20-2.3c48.44 0 87.82 39.4 87.82 87.82 0 0.46 0.08 0.92 0.14 1.36zM542.1 165.94c0.06 0.46 0.14 0.9 0.14 1.36v442.24c0 48.42 39.38 87.82 87.82 87.82 6.88 0 13.56-0.8 20-2.3-38.82-9.06-67.82-43.98-67.82-85.52V167.3c0-0.46-0.08-0.9-0.14-1.36 0.06-0.44 0.14-0.9 0.14-1.36 0-41.54 29-76.46 67.82-85.52a87.98 87.98 0 0 0-20-2.3c-48.44 0-87.82 39.4-87.82 87.82 0 0.46-0.08 0.92-0.14 1.36z" fill="#23130D" opacity=".2" p-id="33997"></path><path d="M554.452 710.66a10 10 0 0 0-10 10v188.924c0 5.524 4.476 10 10 10s10-4.476 10-10V720.66a10 10 0 0 0-10-10zM639.356 734.488a10 10 0 0 0-10 10V957.24c0 5.524 4.476 10 10 10s10-4.476 10-10V744.488a10 10 0 0 0-10-10zM724.26 710.66a10 10 0 0 0-10 10v190.626c0 5.524 4.476 10 10 10s10-4.476 10-10V720.66a10 10 0 0 0-10-10zM809.164 630.666a10 10 0 0 0-10 10v221.262c0 5.524 4.476 10 10 10s10-4.476 10-10V640.666a10 10 0 0 0-10-10zM469.548 710.66a10 10 0 0 0-10 10v188.924a10 10 0 1 0 20 0V720.66a10 10 0 0 0-10-10zM384.644 734.488a10 10 0 0 0-10 10V957.24a10 10 0 1 0 20 0V744.488a10 10 0 0 0-10-10zM299.74 710.66a10 10 0 0 0-10 10v190.626a10 10 0 1 0 20 0V720.66a10 10 0 0 0-10-10zM214.836 630.666a10 10 0 0 0-10 10v221.262a10 10 0 1 0 20 0V640.666a10 10 0 0 0-10-10zM214.836 901.286a10 10 0 0 0-10 10v45.956a10 10 0 1 0 20 0v-45.956a10 10 0 0 0-10-10zM809.164 901.286a10 10 0 0 0-10 10v45.956c0 5.524 4.476 10 10 10s10-4.476 10-10v-45.956a10 10 0 0 0-10-10z" fill="#F9C139" p-id="33998"></path></svg>