<?xml version="1.0" standalone="no"?><!DOCTYPE svg PUBLIC "-//W3C//DTD SVG 1.1//EN" "http://www.w3.org/Graphics/SVG/1.1/DTD/svg11.dtd"><svg t="1625811541496" class="icon" viewBox="0 0 1024 1024" version="1.1" xmlns="http://www.w3.org/2000/svg" p-id="34141" xmlns:xlink="http://www.w3.org/1999/xlink" width="200" height="200"><defs><style type="text/css"></style></defs><path d="M326 429.16c-148.06 0-268.52 120.46-268.52 268.52 0 148.08 120.46 268.54 268.52 268.54 148.08 0 268.54-120.46 268.54-268.54 0-148.06-120.46-268.52-268.54-268.52z m0 517.06c-137.04 0-248.52-111.5-248.52-248.54S188.96 449.16 326 449.16s248.54 111.48 248.54 248.52S463.04 946.22 326 946.22z" fill="#23130D" p-id="34142"></path><path d="M326 449.16c-137.04 0-248.52 111.48-248.52 248.52S188.96 946.22 326 946.22s248.54-111.5 248.54-248.54S463.04 449.16 326 449.16z m44.16 449.34c-14.76 3.28-29.94 4.92-45.1 4.92C210.88 903.42 118 810.54 118 696.38c0-81.66 48.2-155.92 122.8-189.18 5.04-2.24 10.94 0.02 13.2 5.06 2.24 5.04-0.02 10.96-5.06 13.2C181.54 555.52 138 622.6 138 696.38c0 103.14 83.92 187.04 187.06 187.04 13.7 0 27.42-1.48 40.78-4.44 5.38-1.18 10.72 2.2 11.92 7.6 1.2 5.38-2.22 10.72-7.6 11.92z" fill="#EC7063" p-id="34143"></path><path d="M303.3 878.98c-3.12 0.7-6.28 1.3-9.44 1.82 6.5 1.12 13.12 1.88 19.82 2.26a10.008 10.008 0 0 0-10.38-4.08zM326 449.16c-10.58 0-21.02 0.66-31.26 1.96C417.06 466.54 512 571.22 512 697.68s-94.94 231.16-217.26 246.58c10.24 1.3 20.68 1.96 31.26 1.96 137.04 0 248.54-111.5 248.54-248.54S463.04 449.16 326 449.16z" fill="#23130D" opacity=".2" p-id="34144"></path><path d="M377.76 886.58c-1.2-5.4-6.54-8.78-11.92-7.6a188.82 188.82 0 0 1-40.78 4.44c-3.82 0-7.62-0.12-11.38-0.36 0.72 1.04 1.26 2.22 1.54 3.52 1.2 5.38-2.22 10.72-7.6 11.92-4.58 1.02-9.2 1.88-13.86 2.56 10.22 1.56 20.66 2.36 31.3 2.36 15.16 0 30.34-1.64 45.1-4.92 5.38-1.2 8.8-6.54 7.6-11.92z" fill="#23130D" opacity=".2" p-id="34145"></path><path d="M697.064 274.926a10 10 0 0 0-14.14 0l-180.614 180.614a10 10 0 1 0 14.142 14.142l180.614-180.614a10 10 0 0 0-0.002-14.142zM437.972 429.376a9.974 9.974 0 0 0 7.072 2.928c2.558 0 5.12-0.976 7.072-2.928l354.522-354.52a10 10 0 1 0-14.14-14.142l-354.524 354.52a10 10 0 0 0-0.002 14.142zM355.614 407.1c1.954 1.952 4.512 2.928 7.072 2.928s5.118-0.976 7.072-2.928l223.72-223.724a10 10 0 1 0-14.14-14.142L355.614 392.958a10 10 0 0 0 0 14.142zM249.97 417.48a9.974 9.974 0 0 0 7.062-2.92L510.682 161.534a10.002 10.002 0 0 0-14.124-14.16L242.908 400.4a10 10 0 0 0 7.062 17.08zM561.702 524.93a9.96 9.96 0 0 0 7.07-2.93l180.614-180.614a10 10 0 1 0-14.14-14.142l-180.614 180.614a10 10 0 0 0 7.07 17.072zM963.596 217.672a10 10 0 0 0-14.14 0L594.934 572.196a9.996 9.996 0 0 0 7.07 17.07 9.96 9.96 0 0 0 7.07-2.93l354.522-354.52a10 10 0 0 0 0-14.144zM631.352 668.698l223.722-223.722a10 10 0 1 0-14.14-14.142L617.21 654.556a9.996 9.996 0 0 0 7.07 17.07c2.558 0 5.12-0.976 7.072-2.928zM862.794 513.614L609.146 766.64a10 10 0 0 0 14.124 14.16L876.92 527.774a10 10 0 1 0-14.126-14.16zM921.62 454.788l-28.366 28.366a10 10 0 1 0 14.14 14.142l28.366-28.366a10 10 0 1 0-14.14-14.142zM534.086 133.986c2.558 0 5.12-0.976 7.07-2.928l28.368-28.366a10 10 0 1 0-14.14-14.142l-28.368 28.366a10 10 0 0 0 7.07 17.07zM794.704 267.786l-28.366 28.366a10 10 0 1 0 14.14 14.142l28.366-28.366a10 10 0 1 0-14.14-14.142zM714.018 257.976c1.952 1.952 4.512 2.928 7.07 2.928s5.12-0.976 7.07-2.928l100.478-100.478a10 10 0 1 0-14.14-14.142l-100.478 100.478a10 10 0 0 0 0 14.142zM616.45 156.264c2.558 0 5.12-0.976 7.07-2.928l61.668-61.668a10 10 0 1 0-14.14-14.142L609.38 139.194a10 10 0 0 0 7.07 17.07zM932.646 339.122l-61.672 61.67a10 10 0 1 0 14.14 14.142l61.672-61.67a10 10 0 1 0-14.14-14.142z" fill="#F9C139" p-id="34146"></path><path d="M370.16 898.5c-14.76 3.28-29.94 4.92-45.1 4.92C210.88 903.42 118 810.54 118 696.38c0-81.66 48.2-155.92 122.8-189.18 5.04-2.24 10.94 0.02 13.2 5.06 2.24 5.04-0.02 10.96-5.06 13.2C181.54 555.52 138 622.6 138 696.38c0 103.14 83.92 187.04 187.06 187.04 13.7 0 27.42-1.48 40.78-4.44 5.38-1.18 10.72 2.2 11.92 7.6 1.2 5.38-2.22 10.72-7.6 11.92z" fill="#FFFFFF" p-id="34147"></path></svg>