<?xml version="1.0" standalone="no"?><!DOCTYPE svg PUBLIC "-//W3C//DTD SVG 1.1//EN" "http://www.w3.org/Graphics/SVG/1.1/DTD/svg11.dtd"><svg t="1625811565567" class="icon" viewBox="0 0 1024 1024" version="1.1" xmlns="http://www.w3.org/2000/svg" p-id="35390" xmlns:xlink="http://www.w3.org/1999/xlink" width="200" height="200"><defs><style type="text/css"></style></defs><path d="M929 761.04H686.7l6-76.28h70.66c5.52 0 10-4.48 10-10V457.46c0-5.52-4.48-10-10-10h-52l7.76-98.8c25.22-23.76 42.8-54.74 50.2-88.38 7-0.76 13.5-3.84 18.56-8.9 5.86-5.86 9.1-13.66 9.1-21.96v-12.48c0-15.98-12.12-29.16-27.64-30.88-17.2-78.9-86.76-135.36-168.46-135.36-81.68 0-151.24 56.46-168.44 135.36-15.52 1.72-27.64 14.9-27.64 30.88v12.48c0 15.98 12.12 29.16 27.64 30.86 7.4 33.64 25 64.62 50.2 88.38l7.78 98.8h-52c-5.54 0-10 4.48-10 10v217.3c0 5.52 4.46 10 10 10h70.64l6.02 76.28H297.58v-177.8c0-58.6-47.68-106.28-106.3-106.28-58.6 0-106.28 47.68-106.28 106.28v91.52c0 58.58 47.64 106.24 106.2 106.28h86.38V866.48c0 58.9 47.92 106.8 106.84 106.8h116.84c55.52 0 101.28-42.6 106.34-96.84h60.78c5.22 0 9.56-4 9.96-9.2l6.78-86.2H929c5.52 0 10-4.46 10-10 0-5.52-4.48-10-10-10zM600.88 70.7c70.66 0 131.04 47.78 147.86 115.16H453.04c16.82-67.38 77.18-115.16 147.84-115.16z m-176.08 158.72v-12.48c0-6.1 4.96-11.08 11.06-11.08h325.12c0.02 0 0.06 0.02 0.08 0.02 0.02 0 0.04-0.02 0.06-0.02h4.78c6.1 0 11.08 4.98 11.08 11.08v12.48c0 6.1-4.96 11.06-11.06 11.06H435.86c-6.1 0-11.06-4.96-11.06-11.06z m28.24 31.06h295.7c-7.36 29.14-23.4 55.84-45.96 76.08l-0.36 0.36a152.174 152.174 0 0 1-101.54 38.74 152.16 152.16 0 0 1-101.52-38.74 6.64 6.64 0 0 0-0.38-0.36c-22.56-20.24-38.58-46.94-45.94-76.08z m244.66 105.42l-6.42 81.56h-180.8l-6.42-81.56c28.42 19.3 62.04 29.76 96.82 29.76s68.42-10.46 96.82-29.76zM277.58 761.04H191.28c-47.58 0-86.28-38.7-86.28-86.28v-91.52c0-47.58 38.7-86.28 86.28-86.28s86.28 38.68 86.3 86.26v177.82z m223.66 192.24h-116.82c-47.9 0-86.84-38.94-86.84-86.84V781.04h219.06l6.78 86.2c0.42 5.2 4.76 9.2 9.98 9.2h54.08c-4.98 43.2-41.74 76.84-86.24 76.84z m157.9-96.84h-116.5l-13.5-171.68h143.5l-13.5 171.68z m-210.72-191.68v-197.3h304.94v197.3H448.42z" fill="#23130D" p-id="35391"></path><path d="M672.64 684.76l-13.5 171.68h-116.5l-13.5-171.68z" fill="#3594BF" p-id="35392"></path><path d="M448.42 467.46v197.3h304.94v-197.3H448.42zM587.48 522h-36.66v106.36c0 5.52-4.48 10-10 10s-10-4.48-10-10V522h-36.66c-5.54 0-10-4.48-10-10s4.46-10 10-10h93.32c5.52 0 10 4.48 10 10s-4.48 10-10 10z m132.36-6.38l-46.68 120c-0.02 0.08-0.06 0.16-0.1 0.24-0.08 0.16-0.16 0.34-0.24 0.5-0.2 0.38-0.38 0.74-0.6 1.08-0.12 0.16-0.22 0.32-0.34 0.48-0.26 0.34-0.54 0.68-0.84 0.98-0.1 0.12-0.2 0.24-0.32 0.36-0.44 0.4-0.88 0.76-1.38 1.08a1.9 1.9 0 0 1-0.34 0.2c-0.4 0.24-0.84 0.46-1.28 0.66l-0.24 0.12c-0.1 0.04-0.2 0.04-0.3 0.08-0.38 0.14-0.76 0.24-1.16 0.34-0.16 0.04-0.34 0.08-0.5 0.1-0.54 0.1-1.1 0.16-1.66 0.16h-0.02-0.02c-0.54 0-1.1-0.06-1.64-0.16-0.18-0.02-0.34-0.06-0.52-0.1-0.38-0.1-0.78-0.2-1.16-0.34-0.08-0.04-0.18-0.04-0.28-0.08l-0.24-0.12c-0.46-0.2-0.88-0.42-1.3-0.66-0.12-0.08-0.22-0.12-0.34-0.2-0.48-0.32-0.94-0.68-1.36-1.08-0.12-0.12-0.22-0.24-0.32-0.34a10.1 10.1 0 0 1-0.84-1c-0.12-0.16-0.22-0.32-0.34-0.48-0.22-0.34-0.42-0.7-0.6-1.08-0.08-0.16-0.18-0.34-0.24-0.5l-0.12-0.24-46.66-120c-2-5.14 0.56-10.94 5.7-12.94 5.14-2 10.94 0.54 12.94 5.7l37.34 96.02 37.36-96.02c2-5.16 7.8-7.7 12.94-5.7s7.7 7.8 5.7 12.94z" fill="#F9C139" p-id="35393"></path><path d="M448.42 467.46v197.3h15.34V482.8h289.6v-15.34H448.42z" fill="#FFFFFF" opacity=".5" p-id="35394"></path><path d="M738.02 467.46v181.96h-289.6v15.34h304.94v-197.3h-15.34z" fill="#23130D" opacity=".2" p-id="35395"></path><path d="M697.7 365.9l-6.42 81.56h-180.8l-6.42-81.56c28.42 19.3 62.04 29.76 96.82 29.76s68.42-10.46 96.82-29.76z" fill="#3594BF" p-id="35396"></path><path d="M593.68 856.44h-51.04l-13.5-171.68h51.04zM557 389.98l4.52 57.48h-51.04l-6.42-81.56c16.2 11 34.1 19.14 52.94 24.08z" fill="#23130D" opacity=".2" p-id="35397"></path><path d="M748.74 260.48c-7.36 29.14-23.4 55.84-45.96 76.08l-0.36 0.36a152.174 152.174 0 0 1-101.54 38.74 152.16 152.16 0 0 1-101.52-38.74 6.64 6.64 0 0 0-0.38-0.36c-22.56-20.24-38.58-46.94-45.94-76.08h295.7z" fill="#E1E1E5" p-id="35398"></path><path d="M776.98 216.94v12.48c0 6.1-4.96 11.06-11.06 11.06H435.86c-6.1 0-11.06-4.96-11.06-11.06v-12.48c0-6.1 4.96-11.08 11.06-11.08h325.12c0.02 0 0.06 0.02 0.08 0.02 0.02 0 0.04-0.02 0.06-0.02h4.78c6.1 0 11.08 4.98 11.08 11.08z" fill="#F9C139" p-id="35399"></path><path d="M776.98 216.94v12.48c0 6.1-4.96 11.06-11.06 11.06H435.86c-6.1 0-11.06-4.96-11.06-11.06v-12.48c0-0.26 0-0.5 0.04-0.76a11.06 11.06 0 0 0 11.02 10.3h330.06a11.06 11.06 0 0 0 11.02-10.3c0.04 0.26 0.04 0.5 0.04 0.76z" fill="#23130D" opacity=".2" p-id="35400"></path><path d="M748.74 185.86H453.04c16.82-67.38 77.18-115.16 147.84-115.16s131.04 47.78 147.86 115.16z" fill="#E1E1E5" p-id="35401"></path><path d="M632.36 372.38a152.894 152.894 0 0 1-31.48 3.28 152.16 152.16 0 0 1-101.52-38.74 6.64 6.64 0 0 0-0.38-0.36c-22.56-20.24-38.58-46.94-45.94-76.08H516c7.36 29.14 23.38 55.84 45.94 76.08 0.14 0.12 0.26 0.24 0.38 0.36a152.03 152.03 0 0 0 70.04 35.46zM632.36 73.94A151.76 151.76 0 0 0 516 185.86h-62.96c16.82-67.38 77.18-115.16 147.84-115.16 10.78 0 21.3 1.12 31.48 3.24z" fill="#23130D" opacity=".2" p-id="35402"></path><path d="M597.48 512c0 5.52-4.48 10-10 10h-36.66v106.36c0 5.52-4.48 10-10 10s-10-4.48-10-10V522h-36.66c-5.54 0-10-4.48-10-10s4.46-10 10-10h93.32c5.52 0 10 4.48 10 10zM719.84 515.62l-46.68 120c-0.02 0.08-0.06 0.16-0.1 0.24-0.08 0.16-0.16 0.34-0.24 0.5-0.2 0.38-0.38 0.74-0.6 1.08-0.12 0.16-0.22 0.32-0.34 0.48-0.26 0.34-0.54 0.68-0.84 0.98-0.1 0.12-0.2 0.24-0.32 0.36-0.44 0.4-0.88 0.76-1.38 1.08a1.9 1.9 0 0 1-0.34 0.2c-0.4 0.24-0.84 0.46-1.28 0.66l-0.24 0.12c-0.1 0.04-0.2 0.04-0.3 0.08-0.38 0.14-0.76 0.24-1.16 0.34-0.16 0.04-0.34 0.08-0.5 0.1-0.54 0.1-1.1 0.16-1.66 0.16h-0.02-0.02c-0.54 0-1.1-0.06-1.64-0.16-0.18-0.02-0.34-0.06-0.52-0.1-0.38-0.1-0.78-0.2-1.16-0.34-0.08-0.04-0.18-0.04-0.28-0.08l-0.24-0.12c-0.46-0.2-0.88-0.42-1.3-0.66-0.12-0.08-0.22-0.12-0.34-0.2-0.48-0.32-0.94-0.68-1.36-1.08-0.12-0.12-0.22-0.24-0.32-0.34a10.1 10.1 0 0 1-0.84-1c-0.12-0.16-0.22-0.32-0.34-0.48-0.22-0.34-0.42-0.7-0.6-1.08-0.08-0.16-0.18-0.34-0.24-0.5l-0.12-0.24-46.66-120c-2-5.14 0.56-10.94 5.7-12.94 5.14-2 10.94 0.54 12.94 5.7l37.34 96.02 37.36-96.02c2-5.16 7.8-7.7 12.94-5.7s7.7 7.8 5.7 12.94z" fill="#FFFFFF" p-id="35403"></path></svg>