<?xml version="1.0" standalone="no"?><!DOCTYPE svg PUBLIC "-//W3C//DTD SVG 1.1//EN" "http://www.w3.org/Graphics/SVG/1.1/DTD/svg11.dtd"><svg t="1625812214485" class="icon" viewBox="0 0 1024 1024" version="1.1" xmlns="http://www.w3.org/2000/svg" p-id="55455" xmlns:xlink="http://www.w3.org/1999/xlink" width="200" height="200"><defs><style type="text/css"></style></defs><path d="M722 292H486.94c-2.66 0-5.2 1.06-7.08 2.92l-184.94 184.94c-1.86 1.88-2.92 4.42-2.92 7.08V722c0 5.52 4.48 10 10 10h420c5.52 0 10-4.48 10-10V302c0-5.52-4.48-10-10-10z m-410 199.08L425.08 378h190.26c20.94 0 38 17.04 38 38s-17.06 38-38 38H437c-31.98 0-58 26.02-58 58s26.02 58 58 58H544c20.96 0 38 17.04 38 38s-17.04 38-38 38H312v-154.92zM712 712H312v-46h232c31.98 0 58-26.02 58-58s-26.02-58-58-58h-107c-20.96 0-38-17.04-38-38s17.04-38 38-38h178.34c31.98 0 58-26.02 58-58s-26.02-58-58-58h-170.26l46-46H712v400z" fill="#23130D" p-id="55456"></path><path d="M954 444.22c5.52 0 10-4.48 10-10v-55.56c0-5.52-4.48-10-10-10h-162v-41.1h96c5.52 0 10-4.48 10-10V262c0-5.52-4.48-10-10-10s-10 4.48-10 10v45.56h-86V242c0-5.52-4.48-10-10-10h-65.56V146H762c5.52 0 10-4.48 10-10s-4.48-10-10-10h-55.56c-5.52 0-10 4.48-10 10v96h-41.1V70c0-5.52-4.48-10-10-10h-55.56c-5.52 0-10 4.48-10 10s4.48 10 10 10h45.56v152H522V164.58c15.36-4.36 26.66-18.5 26.66-35.24 0-20.22-16.44-36.68-36.66-36.68s-36.66 16.46-36.66 36.68c0 16.74 11.3 30.88 26.66 35.24V232h-113.34V80h45.56c5.52 0 10-4.48 10-10s-4.48-10-10-10h-55.56c-5.52 0-10 4.48-10 10v162h-41.1V136c0-5.52-4.48-10-10-10H262c-5.52 0-10 4.48-10 10s4.48 10 10 10h45.56v86H242c-5.52 0-10 4.48-10 10v65.56H146V262c0-5.52-4.48-10-10-10s-10 4.48-10 10v55.56c0 5.52 4.48 10 10 10h96v41.1H70c-5.52 0-10 4.48-10 10v55.56c0 5.52 4.48 10 10 10s10-4.48 10-10v-45.56h152V502H164.58c-4.36-15.36-18.5-26.66-35.24-26.66-20.22 0-36.68 16.44-36.68 36.66s16.46 36.66 36.68 36.66c16.74 0 30.88-11.3 35.24-26.66H232v113.34H80v-45.56c0-5.52-4.48-10-10-10s-10 4.48-10 10v55.56c0 5.52 4.48 10 10 10h162v41.1H136c-5.52 0-10 4.48-10 10V762c0 5.52 4.48 10 10 10s10-4.48 10-10v-45.56h86V782c0 5.52 4.48 10 10 10h65.56v86H262c-5.52 0-10 4.48-10 10s4.48 10 10 10h55.56c5.52 0 10-4.48 10-10v-96h41.1v162c0 5.52 4.48 10 10 10h55.56c5.52 0 10-4.48 10-10s-4.48-10-10-10h-45.56v-152H502v67.42c-15.36 4.36-26.66 18.5-26.66 35.24 0 20.22 16.44 36.68 36.66 36.68s36.66-16.46 36.66-36.68c0-16.74-11.3-30.88-26.66-35.24V792h113.34v152h-45.56c-5.52 0-10 4.48-10 10s4.48 10 10 10h55.56c5.52 0 10-4.48 10-10v-162h41.1v96c0 5.52 4.48 10 10 10H762c5.52 0 10-4.48 10-10s-4.48-10-10-10h-45.56v-86H782c5.52 0 10-4.48 10-10v-65.56h86V762c0 5.52 4.48 10 10 10s10-4.48 10-10v-55.56c0-5.52-4.48-10-10-10h-96v-41.1h162c5.52 0 10-4.48 10-10v-55.56c0-5.52-4.48-10-10-10s-10 4.48-10 10v45.56h-152V522h67.42c4.36 15.36 18.5 26.66 35.24 26.66 20.22 0 36.68-16.44 36.68-36.66s-16.46-36.66-36.68-36.66c-16.74 0-30.88 11.3-35.24 26.66H792v-113.34h152v45.56c0 5.52 4.48 10 10 10zM129.34 528.66c-9.2 0-16.68-7.48-16.68-16.66s7.48-16.66 16.68-16.66c9.18 0 16.66 7.48 16.66 16.66s-7.48 16.66-16.66 16.66z m366-399.32c0-9.2 7.48-16.68 16.66-16.68s16.66 7.48 16.66 16.68c0 9.18-7.48 16.66-16.66 16.66s-16.66-7.48-16.66-16.66z m33.32 765.32c0 9.2-7.48 16.68-16.66 16.68s-16.66-7.48-16.66-16.68c0-9.18 7.48-16.66 16.66-16.66s16.66 7.48 16.66 16.66zM772 772H252V252h520v520z m122.66-276.66c9.2 0 16.68 7.48 16.68 16.66s-7.48 16.66-16.68 16.66c-9.18 0-16.66-7.48-16.66-16.66s7.48-16.66 16.66-16.66z" fill="#23130D" p-id="55457"></path><path d="M528.66 129.34c0 9.18-7.48 16.66-16.66 16.66s-16.66-7.48-16.66-16.66c0-9.2 7.48-16.68 16.66-16.68s16.66 7.48 16.66 16.68z" fill="#F9C139" p-id="55458"></path><path d="M517.18 145.16c-1.64 0.54-3.38 0.84-5.18 0.84-9.18 0-16.66-7.48-16.66-16.66 0-9.2 7.48-16.68 16.66-16.68 1.8 0 3.54 0.28 5.18 0.82-6.66 2.18-11.5 8.46-11.5 15.86 0 7.38 4.84 13.66 11.5 15.82z" fill="#020202" opacity=".2" p-id="55459"></path><path d="M146 512c0 9.18-7.48 16.66-16.66 16.66-9.2 0-16.68-7.48-16.68-16.66s7.48-16.66 16.68-16.66c9.18 0 16.66 7.48 16.66 16.66zM911.34 512c0 9.18-7.48 16.66-16.68 16.66-9.18 0-16.66-7.48-16.66-16.66s7.48-16.66 16.66-16.66c9.2 0 16.68 7.48 16.68 16.66zM528.66 894.66c0 9.2-7.48 16.68-16.66 16.68s-16.66-7.48-16.66-16.68c0-9.18 7.48-16.66 16.66-16.66s16.66 7.48 16.66 16.66z" fill="#F9C139" p-id="55460"></path><path d="M252 252v520h520V252H252z m480 470c0 5.52-4.48 10-10 10H302c-5.52 0-10-4.48-10-10V486.94c0-2.66 1.06-5.2 2.92-7.08l184.94-184.94c1.88-1.86 4.42-2.92 7.08-2.92H722c5.52 0 10 4.48 10 10v420z" fill="#E1E1E5" p-id="55461"></path><path d="M764 260v504H260V260h504M302 740h420c9.926 0 18-8.074 18-18V302c0-9.926-8.074-18-18-18H486.94a17.978 17.978 0 0 0-12.736 5.264l-184.97 184.97A17.966 17.966 0 0 0 284 486.94V722c0 9.926 8.074 18 18 18m470-488H252v520h520V252zM302 732c-5.52 0-10-4.48-10-10V486.94c0-2.66 1.06-5.2 2.92-7.08l184.94-184.94c1.88-1.86 4.42-2.92 7.08-2.92H722c5.52 0 10 4.48 10 10v420c0 5.52-4.48 10-10 10H302z" fill="#020202" opacity=".2" p-id="55462"></path><path d="M653.34 416c0 20.96-17.06 38-38 38H437c-15.26 0-29.14 5.92-39.52 15.6a57.732 57.732 0 0 0-13.28 18.42c-3.34 7.3-5.2 15.42-5.2 23.98 0 31.98 26.02 58 58 58H544c20.96 0 38 17.04 38 38 0 12.56-6.12 23.7-15.52 30.6-6.3 4.66-14.08 7.4-22.48 7.4H312v-154.92l37.64-37.62 15.84-15.86 31.34-31.32L425.08 378h190.26c20.94 0 38 17.04 38 38z" fill="#3594BF" p-id="55463"></path><path d="M712 312v400H312v-46h232c5.52 0 10.88-0.78 15.94-2.24 7.7-2.18 14.76-5.94 20.8-10.9 12.16-9.98 20.2-24.8 21.16-41.5 0.06-1.1 0.1-2.24 0.1-3.36 0-31.98-26.02-58-58-58h-107c-20.96 0-38-17.04-38-38 0-2.84 0.32-5.6 0.92-8.26 1.72-7.86 5.92-14.8 11.7-20 6.72-6.06 15.64-9.74 25.38-9.74h178.34c5.66 0 11.14-0.82 16.3-2.36 24.08-7.04 41.7-29.32 41.7-55.64 0-31.98-26.02-58-58-58h-170.26l36.46-36.46 9.54-9.54H712z" fill="#F9C139" p-id="55464"></path><path d="M899.84 527.83c-1.64 0.54-3.38 0.84-5.18 0.84-9.18 0-16.66-7.48-16.66-16.66 0-9.2 7.48-16.68 16.66-16.68 1.8 0 3.54 0.28 5.18 0.82-6.66 2.18-11.5 8.46-11.5 15.86 0 7.38 4.84 13.66 11.5 15.82zM134.5 527.83c-1.64 0.54-3.38 0.84-5.18 0.84-9.18 0-16.66-7.48-16.66-16.66 0-9.2 7.48-16.68 16.66-16.68 1.8 0 3.54 0.28 5.18 0.82-6.66 2.18-11.5 8.46-11.5 15.86 0 7.38 4.84 13.66 11.5 15.82z" fill="#020202" opacity=".2" p-id="55465"></path><path d="M399 512c0-2.84 0.32-5.6 0.92-8.26L446.18 550h-9.18c-20.96 0-38-17.04-38-38z" fill="#FFFFFF" opacity=".4" p-id="55466"></path><path d="M542.18 646h-81.52L312 497.34v-6.26l37.64-37.62 34.56 34.56c-3.34 7.3-5.2 15.42-5.2 23.98 0 31.98 26.02 58 58 58h29.18l76 76zM608.18 712h-81.52l-46-46H544c5.52 0 10.88-0.78 15.94-2.24L608.18 712zM437 454c-15.26 0-29.14 5.92-39.52 15.6l-32-32 31.34-31.32L444.54 454h-7.54zM540.54 550h-62.66l-66.26-66.26c6.72-6.06 15.64-9.74 25.38-9.74h27.54l76 76zM582 608c0 12.56-6.12 23.7-15.52 30.6l-68.6-68.6H544c20.96 0 38 17.04 38 38zM702.54 712h-62.66l-59.14-59.14c12.16-9.98 20.2-24.8 21.16-41.5L702.54 712zM518 358h-72.92l36.46-36.46zM614 454h-104.16l-76-76H538zM712 552v104.18L529.82 474h85.52c5.66 0 11.14-0.82 16.3-2.36L712 552z" fill="#FFFFFF" opacity=".4" p-id="55467"></path><path d="M517.18 910.5c-1.64 0.54-3.38 0.84-5.18 0.84-9.18 0-16.66-7.48-16.66-16.66 0-9.2 7.48-16.68 16.66-16.68 1.8 0 3.54 0.28 5.18 0.82-6.66 2.18-11.5 8.46-11.5 15.86 0 7.38 4.84 13.66 11.5 15.82z" fill="#020202" opacity=".2" p-id="55468"></path></svg>