<?xml version="1.0" standalone="no"?><!DOCTYPE svg PUBLIC "-//W3C//DTD SVG 1.1//EN" "http://www.w3.org/Graphics/SVG/1.1/DTD/svg11.dtd"><svg t="1625812031457" class="icon" viewBox="0 0 1024 1024" version="1.1" xmlns="http://www.w3.org/2000/svg" p-id="49343" xmlns:xlink="http://www.w3.org/1999/xlink" width="200" height="200"><defs><style type="text/css"></style></defs><path d="M892.16 493.86v-8.4h14.62c19.86 0 36.02-16.14 36.02-36v-26.02c0-5.52-4.48-10-10-10h-14.18L671.32 200.42V131.32c0-44.52-36.22-80.74-80.74-80.74H161.96c-44.54 0-80.76 36.22-80.76 80.74v350.24c0 0.04 0.02 0.1 0.02 0.16V892.68c0 44.52 36.2 80.74 80.72 80.74h428.64c44.52 0 80.74-36.22 80.74-80.74v-49.64-0.02-23.22H906.8c19.66 0 35.48-15.42 36-35.08v-26.96c0-5.52-4.48-10-10-10h-16.12v-12.6c0-18-14.64-32.62-32.64-32.62h-4.86v-186.86c7.72-4.22 12.98-12.42 12.98-21.82z m-4.2-80.42H434.64l226.66-195.24 226.66 195.24zM101.2 131.32c0-33.5 27.26-60.74 60.76-60.74h428.62c33.5 0 60.74 27.24 60.74 60.74V171H101.2V131.32z m550.12 761.36c0 33.5-27.26 60.74-60.74 60.74H161.94c-33.48 0-60.72-27.24-60.72-60.74v-39.66h550.1v39.66z m0-59.66H101.22V481.54c0-0.06-0.02-0.1-0.02-0.16V191h550.12v9.4L404 413.44h-14.18c-5.52 0-10 4.48-10 10v26.02c0 19.86 16.16 36 36.02 36h14.62v8.4c0 9.4 5.26 17.6 12.98 21.82v186.86h-4.86c-18 0-32.64 14.62-32.64 32.62v12.6h-16.12c-5.52 0-10 4.48-10 10v26.02c0 19.86 16.16 36.02 36.02 36.02h235.48v13.22z m-196.02-334.32c-2.66 0-4.84-2.18-4.84-4.84v-8.4h73.58v8.4c0 2.66-2.16 4.84-4.84 4.84h-63.9z m55.76 20v183.84h-47.62v-183.84h47.62z m24.88 203.84c6.96 0 12.62 5.66 12.62 12.62v12.6h-122.62v-12.6c0-6.96 5.66-12.62 12.64-12.62h97.36z m81.56-206.86v186.86h-4.88c-17.98 0-32.62 14.62-32.62 32.62v12.6h-11.44v-12.6c0-18-14.64-32.62-32.62-32.62h-4.88v-186.86c7.74-4.22 12.98-12.42 12.98-21.82v-8.4h60.48v8.4c0 9.4 5.24 17.6 12.98 21.82z m11.86-16.98c-2.68 0-4.84-2.18-4.84-4.84v-8.4h73.58v8.4a4.86 4.86 0 0 1-4.86 4.84h-63.88z m55.76 20v183.84h-47.62v-183.84h47.62zM710 722.54c6.96 0 12.62 5.66 12.62 12.62v12.6H600v-12.6c0-6.96 5.66-12.62 12.62-12.62H710z m81.54-206.86v186.86h-4.86c-18 0-32.64 14.62-32.64 32.62v12.6h-11.42v-12.6c0-18-14.64-32.62-32.62-32.62h-4.88v-186.86c7.74-4.22 12.98-12.42 12.98-21.82v-8.4h60.46v8.4c0 9.4 5.26 17.6 12.98 21.82z m131.26 252.08v16.54a15.932 15.932 0 0 1-16 15.5H415.84h-0.02c-8.82 0-16-7.2-16-16.02v-16.02H922.8z m-38.76-45.22c6.96 0 12.64 5.66 12.64 12.62v12.6h-122.64v-12.6c0-6.96 5.68-12.62 12.64-12.62h97.36z m-80.62-223.84a4.86 4.86 0 0 1-4.86-4.84v-8.4h73.6v8.4a4.86 4.86 0 0 1-4.86 4.84h-63.88z m55.76 20v183.84h-47.64v-183.84h47.64z m-443.36-53.24c-8.82 0-16-7.18-16-16v-16.02H922.8v16.02c0 8.82-7.18 16-16.12 16H415.82z" fill="#23130D" p-id="49344"></path><path d="M872.16 485.46v8.4a4.86 4.86 0 0 1-4.86 4.84h-63.88a4.86 4.86 0 0 1-4.86-4.84v-8.4h73.6zM698.1 485.46v8.4a4.86 4.86 0 0 1-4.86 4.84h-63.88c-2.68 0-4.84-2.18-4.84-4.84v-8.4h73.58zM524.04 485.46v8.4c0 2.66-2.16 4.84-4.84 4.84h-63.9c-2.66 0-4.84-2.18-4.84-4.84v-8.4h73.58z" fill="#636368" p-id="49345"></path><path d="M101.22 853.02v39.66c0 33.5 27.24 60.74 60.72 60.74h428.64c33.48 0 60.74-27.24 60.74-60.74v-39.66H101.22z m339.02 57.68h-127.96c-5.52 0-10-4.48-10-10s4.48-10 10-10h127.96c5.52 0 10 4.48 10 10s-4.48 10-10 10z" fill="#E1E1E5" p-id="49346"></path><path d="M722.62 735.16v12.6H600v-12.6c0-6.96 5.66-12.62 12.62-12.62H710c6.96 0 12.62 5.66 12.62 12.62z" fill="#636368" p-id="49347"></path><path d="M811.54 518.7h47.64v183.84h-47.64z" fill="#E1E1E5" p-id="49348"></path><path d="M896.68 735.16v12.6h-122.64v-12.6c0-6.96 5.68-12.62 12.64-12.62h97.36c6.96 0 12.64 5.66 12.64 12.62z" fill="#636368" p-id="49349"></path><path d="M637.5 518.7h47.62v183.84h-47.62zM922.8 767.76v16.54a15.932 15.932 0 0 1-16 15.5H415.84h-0.02c-8.82 0-16-7.2-16-16.02v-16.02H922.8z" fill="#E1E1E5" p-id="49350"></path><path d="M548.56 735.16v12.6h-122.62v-12.6c0-6.96 5.66-12.62 12.64-12.62h97.36c6.96 0 12.62 5.66 12.62 12.62z" fill="#636368" p-id="49351"></path><path d="M590.58 70.58H161.96c-33.5 0-60.76 27.24-60.76 60.74V171h550.12V131.32c0-33.5-27.24-60.74-60.74-60.74zM229.34 133.32H194.84c-5.52 0-10-4.48-10-10 0-5.54 4.48-10 10-10h34.5c5.52 0 10 4.46 10 10 0 5.52-4.48 10-10 10z m210.9 0h-127.96c-5.52 0-10-4.48-10-10 0-5.54 4.48-10 10-10h127.96c5.52 0 10 4.46 10 10 0 5.52-4.48 10-10 10z" fill="#E1E1E5" p-id="49352"></path><path d="M641.32 863.02v29.66c0 27.978-22.762 50.74-50.74 50.74H161.94c-27.968 0-50.72-22.762-50.72-50.74v-29.66h530.1m-329.04 57.68h127.96c11.028 0 20-8.972 20-20s-8.972-20-20-20h-127.96c-11.028 0-20 8.972-20 20s8.972 20 20 20m339.04-67.68H101.22v39.66c0 33.5 27.24 60.74 60.72 60.74h428.64c33.48 0 60.74-27.24 60.74-60.74v-39.66z m-339.04 57.68c-5.52 0-10-4.48-10-10s4.48-10 10-10h127.96c5.52 0 10 4.48 10 10s-4.48 10-10 10h-127.96zM590.58 80.58c27.978 0 50.74 22.762 50.74 50.74V161H111.2V131.32c0-27.978 22.77-50.74 50.76-50.74h428.62M312.28 143.32h127.96c11.028 0 20-8.972 20-20s-8.972-20-20-20h-127.96c-11.028 0-20 8.972-20 20s8.972 20 20 20m-117.44 0h34.5c11.028 0 20-8.972 20-20s-8.972-20-20-20H194.84c-11.028 0-20 8.972-20 20s8.972 20 20 20m395.74-72.74H161.96c-33.5 0-60.76 27.24-60.76 60.74V171h550.12V131.32c0-33.5-27.24-60.74-60.74-60.74zM312.28 133.32c-5.52 0-10-4.48-10-10 0-5.54 4.48-10 10-10h127.96c5.52 0 10 4.46 10 10 0 5.52-4.48 10-10 10h-127.96z m-117.44 0c-5.52 0-10-4.48-10-10 0-5.54 4.48-10 10-10h34.5c5.52 0 10 4.46 10 10 0 5.52-4.48 10-10 10H194.84z" opacity=".2" p-id="49353"></path><path d="M463.44 518.7h47.62v183.84h-47.62z" fill="#E1E1E5" p-id="49354"></path><path d="M849.18 528.7v163.84h-27.64v-163.84h27.64m10-10h-47.64v183.84h47.64v-183.84zM675.12 528.7v163.84h-27.62v-163.84h27.62m10-10h-47.62v183.84h47.62v-183.84zM501.06 528.7v163.84h-27.62v-163.84h27.62m10-10h-47.62v183.84h47.62v-183.84z" opacity=".2" p-id="49355"></path><path d="M922.8 433.44v16.02c0 8.82-7.18 16-16.12 16H415.82c-8.82 0-16-7.18-16-16v-16.02H922.8z" fill="#E1E1E5" p-id="49356"></path><path d="M399.82 433.44H922.8v14.34H399.82zM399.82 767.76H922.8v14.34H399.82z" opacity=".2" p-id="49357"></path><path d="M661.3 218.2l-226.66 195.24h453.32L661.3 218.2z m0 182c-35.46 0-64.32-28.86-64.32-64.34 0-35.46 28.86-64.32 64.32-64.32 35.48 0 64.34 28.86 64.34 64.32 0 35.48-28.86 64.34-64.34 64.34z" fill="#636368" p-id="49358"></path><path d="M661.3 218.2l-226.66 195.24h36.8l208.26-179.4-18.4-15.84z" fill="#FFFFFF" opacity=".4" p-id="49359"></path><path d="M661.1 218.2l-18.4 15.84 208.26 179.4h36.8L661.1 218.2z" opacity=".2" p-id="49360"></path><path d="M389.82 413.44H404l77.4-66.68 169.92-146.36v-9.4H101.2v290.38c0 0.06 0.02 0.1 0.02 0.16v351.48h550.1v-13.22H415.84c-19.86 0-36.02-16.16-36.02-36.02v-26.02a9.96 9.96 0 0 1 9.46-9.96c0.18-0.04 0.36-0.04 0.54-0.04h16.12v-12.6c0-18 14.64-32.62 32.64-32.62h4.86v-186.86c-7.72-4.22-12.98-12.42-12.98-21.82v-8.4h-14.62c-19.86 0-36.02-16.14-36.02-36v-26.02c0-5.52 4.48-10 10-10z m-180.1 38.14a10.004 10.004 0 0 1 13.66 3.66l13.96 24.16c0.02 0.04 0.04 0.06 0.06 0.1 2.68 4.76 1.02 10.82-3.72 13.56-1.58 0.92-3.3 1.34-4.98 1.34-3.46 0-6.82-1.78-8.68-5l-13.96-24.16a10.002 10.002 0 0 1 3.5-13.56c0.06-0.04 0.1-0.06 0.16-0.1z m-29.36 77.48a9.988 9.988 0 0 1 3.72 13.54l-0.06 0.12c-1.84 3.2-5.2 5-8.66 5-1.7 0-3.42-0.42-5-1.34l-24.16-13.94c-4.78-2.78-6.42-8.88-3.66-13.66s8.88-6.44 13.66-3.66l0.94 0.54 23.22 13.4z m-62.42 81.5c0-5.52 4.48-10 10-10h27.9c5.54 0 10 4.48 10 10s-4.46 10-10 10H127.94c-5.52 0-10-4.48-10-10z m62.42 81.48L156.2 706c-1.58 0.92-3.3 1.34-5 1.34-3.44 0-6.8-1.78-8.66-5a10.004 10.004 0 0 1 3.66-13.66l24.16-13.96c4.78-2.76 10.9-1.12 13.66 3.66s1.12 10.9-3.66 13.66z m56.98 49.66l-13.96 24.18c-1.84 3.2-5.2 5-8.66 5-1.7 0-3.42-0.44-5-1.34a10.028 10.028 0 0 1-3.66-13.68l13.96-24.16a10.004 10.004 0 0 1 13.66-3.66 10.008 10.008 0 0 1 3.66 13.66z m173.9-88.34c-10.36 26.48-30.02 48.3-54.96 61.44a116.94 116.94 0 0 1-54.76 13.54c-64.96 0-117.8-52.84-117.8-117.78 0-19.76 4.88-38.42 13.54-54.78 13.14-24.94 34.98-44.6 61.44-54.96a116.094 116.094 0 0 1 37.36-7.92c1.82-0.1 3.64-0.14 5.46-0.14 64.94 0 117.78 52.84 117.78 117.8 0 1.82-0.04 3.64-0.14 5.44a116.094 116.094 0 0 1-7.92 37.36z" fill="#3594BF" p-id="49361"></path><path d="M635.3 201l-160.428 138.184-74.586 64.256h-10.466c-11.028 0-20 8.972-20 20v26.02c0 25.364 20.644 46 46.04 46h4.636a34.844 34.844 0 0 0 12.944 25.514v171.874c-21.098 2.544-37.5 20.55-37.5 42.312v2.6h-6.12c-0.296 0-0.862 0-1.586 0.088a19.946 19.946 0 0 0-18.414 19.912v26.02c0 16.578 8.812 31.138 21.998 39.24H111.22V621.524a20 20 0 0 0 16.72 9.036h27.9c8.032 0 14.974-4.76 18.152-11.606a126.808 126.808 0 0 0 12.912 48.106 20.05 20.05 0 0 0-11.556-3.68c-3.498 0-6.952 0.928-9.99 2.682L141.2 680.02a19.868 19.868 0 0 0-9.316 12.144 19.872 19.872 0 0 0 1.998 15.178 20.054 20.054 0 0 0 17.32 9.998c3.532 0 7-0.932 10.004-2.682l24.158-13.958a19.868 19.868 0 0 0 9.316-12.144c0.624-2.33 0.822-4.706 0.606-7.038a128.792 128.792 0 0 0 35.28 35.27 20.064 20.064 0 0 0-19.2 9.91l-13.97 24.178c-5.48 9.53-2.204 21.78 7.38 27.354a20.14 20.14 0 0 0 9.948 2.65c7.136 0 13.776-3.838 17.32-10l13.96-24.18c4.016-6.954 3.352-15.366-1.018-21.558a127.026 127.026 0 0 0 56.538 13.196c20.672 0 41.224-5.082 59.422-14.692a128.134 128.134 0 0 0 59.606-66.632 125.96 125.96 0 0 0 8.6-40.512c0.102-1.866 0.152-3.812 0.152-5.944 0-70.47-57.322-127.8-127.78-127.8-2.126 0-4.076 0.05-5.96 0.152a125.906 125.906 0 0 0-40.506 8.596 127.634 127.634 0 0 0-10.07 4.452c4.294-6.098 5.014-14.376 1.182-21.27a12.038 12.038 0 0 0-0.236-0.41l-13.89-24.04a20.068 20.068 0 0 0-17.332-10 19.994 19.994 0 0 0-9.988 2.68l-0.288 0.166-0.12 0.08-0.106 0.064-0.036 0.024c-9.09 5.638-12.134 17.676-6.768 26.988l13.96 24.158a20.072 20.072 0 0 0 19.186 9.912 128.248 128.248 0 0 0-35.288 35.308c0.7-7.546-2.942-15.202-9.898-19.224l-23.238-13.41-0.894-0.514a19.94 19.94 0 0 0-10.016-2.704 20.076 20.076 0 0 0-17.332 10.008c-5.498 9.52-2.226 21.77 7.322 27.322l24.126 13.92a19.946 19.946 0 0 0 10.032 2.698c4.2 0 8.23-1.33 11.558-3.684-7.41 14.946-11.814 31.39-12.922 48.14-3.176-6.852-10.12-11.616-18.156-11.616H127.94a20 20 0 0 0-16.72 9.036V481.54c0-0.216-0.006-0.43-0.02-0.644V201h524.1m16.02-10H101.2v290.38c0 0.06 0.02 0.1 0.02 0.16v351.48h550.1v-13.22H415.84c-19.86 0-36.02-16.16-36.02-36.02v-26.02a9.96 9.96 0 0 1 9.46-9.96c0.18-0.04 0.36-0.04 0.54-0.04h16.12v-12.6c0-18 14.64-32.62 32.64-32.62h4.86v-186.86c-7.72-4.22-12.98-12.42-12.98-21.82v-8.4h-14.62c-19.86 0-36.02-16.14-36.02-36v-26.02c0-5.52 4.48-10 10-10H404l77.4-66.68 169.92-146.36v-9.4zM228.7 494.4c-3.46 0-6.82-1.78-8.68-5l-13.96-24.16a10.002 10.002 0 0 1 3.5-13.56c0.06-0.04 0.1-0.06 0.16-0.1a10 10 0 0 1 13.66 3.66l13.96 24.16c0.02 0.04 0.04 0.06 0.06 0.1 2.68 4.76 1.02 10.82-3.72 13.56-1.58 0.92-3.3 1.34-4.98 1.34z m72.82 233.94c-64.96 0-117.8-52.84-117.8-117.78 0-19.76 4.88-38.42 13.54-54.78 13.14-24.94 34.98-44.6 61.44-54.96a116.094 116.094 0 0 1 37.36-7.92c1.82-0.1 3.64-0.14 5.46-0.14 64.94 0 117.78 52.84 117.78 117.8 0 1.82-0.04 3.64-0.14 5.44a116.094 116.094 0 0 1-7.92 37.36c-10.36 26.48-30.02 48.3-54.96 61.44a116.94 116.94 0 0 1-54.76 13.54z m-126.16-180.62c-1.7 0-3.42-0.42-5-1.34l-24.16-13.94a10.008 10.008 0 0 1 5.012-18.67c1.696 0 3.414 0.434 4.988 1.35l0.94 0.54 23.22 13.4a9.988 9.988 0 0 1 3.72 13.54l-0.06 0.12c-1.84 3.2-5.2 5-8.66 5z m-47.42 72.84c-5.52 0-10-4.48-10-10s4.48-10 10-10h27.9c5.54 0 10 4.48 10 10s-4.46 10-10 10H127.94z m23.26 86.78c-3.44 0-6.8-1.78-8.66-5a10.004 10.004 0 0 1 3.66-13.66l24.16-13.96a10 10 0 0 1 10 17.32L156.2 706c-1.58 0.92-3.3 1.34-5 1.34z m63.52 63.54c-1.7 0-3.42-0.44-5-1.34a10.028 10.028 0 0 1-3.66-13.68l13.96-24.16a10.002 10.002 0 0 1 13.66-3.66 10.008 10.008 0 0 1 3.66 13.66l-13.96 24.18c-1.84 3.2-5.2 5-8.66 5z" opacity=".2" p-id="49362"></path><path d="M617.5 515.68v186.86h-4.88c-5.08 0-9.88 1.16-14.18 3.26-10.9 5.28-18.44 16.44-18.44 29.36v12.6h-11.44v-12.6c0-18-14.64-32.62-32.62-32.62h-4.88v-186.86c7.74-4.22 12.98-12.42 12.98-21.82v-8.4h60.48v8.4c0 9.4 5.24 17.6 12.98 21.82z" fill="#3594BF" p-id="49363"></path><path d="M594.556 495.46a34.832 34.832 0 0 0 12.944 25.52v171.862a41.752 41.752 0 0 0-13.42 3.958c-8.748 4.238-15.644 11.324-19.774 19.806-6.2-12.768-18.592-21.998-33.246-23.76V520.98a34.83 34.83 0 0 0 12.944-25.52h40.552m9.964-10h-60.48v8.4c0 9.4-5.24 17.6-12.98 21.82v186.86h4.88c17.98 0 32.62 14.62 32.62 32.62v12.6H580v-12.6c0-12.92 7.54-24.08 18.44-29.36 4.3-2.1 9.1-3.26 14.18-3.26h4.88v-186.86c-7.74-4.22-12.98-12.42-12.98-21.82v-8.4z" opacity=".2" p-id="49364"></path><path d="M661.3 271.54c-35.46 0-64.32 28.86-64.32 64.32 0 35.48 28.86 64.34 64.32 64.34 35.48 0 64.34-28.86 64.34-64.34 0-35.46-28.86-64.32-64.34-64.32z m0 108.66c-24.44 0-44.32-19.9-44.32-44.34 0-24.44 19.88-44.32 44.32-44.32 24.46 0 44.34 19.88 44.34 44.32s-19.88 44.34-44.34 44.34z" fill="#23130D" p-id="49365"></path><path d="M705.64 335.86c0 24.44-19.88 44.34-44.34 44.34-24.44 0-44.32-19.9-44.32-44.34 0-24.44 19.88-44.32 44.32-44.32 24.46 0 44.34 19.88 44.34 44.32z" fill="#E1E1E5" p-id="49366"></path><path d="M705.64 335.86c0 24.44-19.88 44.34-44.34 44.34-15.54 0-29.24-8.04-37.12-20.18a43.9 43.9 0 0 0 24.12 7.18c24.46 0 44.34-19.9 44.34-44.34 0-8.9-2.62-17.18-7.18-24.12 12.14 7.88 20.18 21.58 20.18 37.12z" opacity=".2" p-id="49367"></path><path d="M450.24 123.32c0 5.52-4.48 10-10 10h-127.96c-5.52 0-10-4.48-10-10 0-5.54 4.48-10 10-10h127.96c5.52 0 10 4.46 10 10zM239.34 123.32c0 5.52-4.48 10-10 10H194.84c-5.52 0-10-4.48-10-10 0-5.54 4.48-10 10-10h34.5c5.52 0 10 4.46 10 10zM450.24 900.7c0 5.52-4.48 10-10 10h-127.96c-5.52 0-10-4.48-10-10s4.48-10 10-10h127.96c5.52 0 10 4.48 10 10zM301.52 492.76c-64.96 0-117.8 52.84-117.8 117.8 0 64.94 52.84 117.78 117.8 117.78 64.94 0 117.78-52.84 117.78-117.78 0-64.96-52.84-117.8-117.78-117.8z m0 215.58c-53.92 0-97.8-43.86-97.8-97.78s43.88-97.8 97.8-97.8c53.92 0 97.78 43.88 97.78 97.8 0 53.92-43.86 97.78-97.78 97.78z" fill="#23130D" p-id="49368"></path><path d="M301.52 512.76c-53.92 0-97.8 43.88-97.8 97.8 0 53.92 43.88 97.78 97.8 97.78 53.92 0 97.78-43.86 97.78-97.78s-43.86-97.8-97.78-97.8z m-7.34 87.8h14.66c19.5 0 35.36 15.86 35.36 35.38 0 18.6-14.44 33.86-32.7 35.24v18.64c0 5.52-4.48 10-10 10s-10-4.48-10-10v-18.5H268.8c-5.52 0-10-4.48-10-10 0-5.54 4.48-10 10-10h32.68c0.02 0 0.02-0.02 0.02-0.02 0.02 0 0.02 0.02 0.02 0.02h7.32c8.46 0 15.36-6.9 15.36-15.38s-6.9-15.38-15.36-15.38h-14.66c-19.5 0-35.38-15.88-35.38-35.38 0-18.6 14.44-33.86 32.7-35.24v-18.66c0-5.52 4.48-10 10-10s10 4.48 10 10v18.52h22.7c5.52 0 10 4.48 10 10s-4.48 10-10 10h-40.02c-8.48 0-15.38 6.9-15.38 15.38s6.9 15.38 15.38 15.38z" fill="#F9C139" p-id="49369"></path><path d="M344.2 635.94c0 18.6-14.44 33.86-32.7 35.24v18.64c0 5.52-4.48 10-10 10s-10-4.48-10-10v-18.5H268.8c-5.52 0-10-4.48-10-10 0-5.54 4.48-10 10-10h32.68c0.02 0 0.02-0.02 0.02-0.02 0.02 0 0.02 0.02 0.02 0.02h7.32c8.46 0 15.36-6.9 15.36-15.38s-6.9-15.38-15.36-15.38h-14.66c-19.5 0-35.38-15.88-35.38-35.38 0-18.6 14.44-33.86 32.7-35.24v-18.66c0-5.52 4.48-10 10-10s10 4.48 10 10v18.52h22.7c5.52 0 10 4.48 10 10s-4.48 10-10 10h-40.02c-8.48 0-15.38 6.9-15.38 15.38s6.9 15.38 15.38 15.38h14.66c19.5 0 35.36 15.86 35.36 35.38zM233.68 493.06c-1.58 0.92-3.3 1.34-4.98 1.34-3.46 0-6.82-1.78-8.68-5l-13.96-24.16c-2.76-4.78-1.12-10.9 3.66-13.66s10.9-1.12 13.66 3.66l13.96 24.16c2.76 4.78 1.12 10.9-3.66 13.66zM184.02 542.72c-1.84 3.2-5.2 5-8.66 5-1.7 0-3.42-0.42-5-1.34l-24.16-13.94c-4.78-2.78-6.42-8.88-3.66-13.66s8.88-6.44 13.66-3.66l24.16 13.94a10.004 10.004 0 0 1 3.66 13.66zM165.84 610.56c0 5.52-4.46 10-10 10H127.94c-5.52 0-10-4.48-10-10s4.48-10 10-10h27.9c5.54 0 10 4.48 10 10zM180.36 692.04L156.2 706c-1.58 0.92-3.3 1.34-5 1.34-3.44 0-6.8-1.78-8.66-5a10.004 10.004 0 0 1 3.66-13.66l24.16-13.96c4.78-2.76 10.9-1.12 13.66 3.66s1.12 10.9-3.66 13.66zM237.34 741.7l-13.96 24.18c-1.84 3.2-5.2 5-8.66 5-1.7 0-3.42-0.44-5-1.34a10.028 10.028 0 0 1-3.66-13.68l13.96-24.16a10.004 10.004 0 0 1 13.66-3.66 10.008 10.008 0 0 1 3.66 13.66z" fill="#23130D" p-id="49370"></path><path d="M258.7 500.82c-26.46 10.36-48.3 30.02-61.44 54.96l-13.18-13.18c2.68-4.76 1.02-10.8-3.72-13.54l-23.22-13.4-55.94-55.94v-116.42l108.36 108.38a10.002 10.002 0 0 0-3.5 13.56l13.96 24.16c1.86 3.22 5.22 5 8.68 5 1.68 0 3.4-0.42 4.98-1.34 4.74-2.74 6.4-8.8 3.72-13.56l21.3 21.32zM443.44 685.56v16.98h-4.86c-18 0-32.64 14.62-32.64 32.62v12.6h-16.12c-0.18 0-0.36 0-0.54 0.04l-33-33c24.94-13.14 44.6-34.96 54.96-61.44l32.2 32.2zM590.9 833.02h-116.4l-13.22-13.22h116.4zM443.44 550.8v89.48L419.16 616c0.1-1.8 0.14-3.62 0.14-5.44 0-64.96-52.84-117.8-117.78-117.8-1.82 0-3.64 0.04-5.46 0.14L101.2 298.04v-89.48L443.44 550.8zM531.06 638.42l67.38 67.38c-10.9 5.28-18.44 16.44-18.44 29.36v12.6h-11.44v-12.6c0-18-14.64-32.62-32.62-32.62h-4.88v-64.12zM651.32 819.8v13.22h-15.14l-13.22-13.22zM325.64 191l155.76 155.76-77.4 66.68h-4.68L176.88 191zM617.5 515.68v115.94l-86.44-86.44v-29.5c7.74-4.22 12.98-12.42 12.98-21.82v-8.4h60.48v8.4c0 9.4 5.24 17.6 12.98 21.82z" fill="#FFFFFF" opacity=".4" p-id="49371"></path></svg>