<?xml version="1.0" standalone="no"?><!DOCTYPE svg PUBLIC "-//W3C//DTD SVG 1.1//EN" "http://www.w3.org/Graphics/SVG/1.1/DTD/svg11.dtd"><svg t="1625812238510" class="icon" viewBox="0 0 1024 1024" version="1.1" xmlns="http://www.w3.org/2000/svg" p-id="56241" xmlns:xlink="http://www.w3.org/1999/xlink" width="200" height="200"><defs><style type="text/css"></style></defs><path d="M581.92 147.98c0 5.52-4.48 10-10 10h-119.82c-5.54 0-10-4.48-10-10s4.46-10 10-10h119.82c5.52 0 10 4.48 10 10zM384.4 147.98c0 5.52-4.46 10-10 10h-32.3c-5.52 0-10-4.48-10-10s4.48-10 10-10h32.3c5.54 0 10 4.48 10 10zM581.92 876.02c0 5.52-4.48 10-10 10h-119.82c-5.54 0-10-4.48-10-10s4.46-10 10-10h119.82c5.52 0 10 4.48 10 10z" fill="#23130D" p-id="56242"></path><path d="M954.48 709.3c-15.68 0-28.94 10.44-33.26 24.74h-60.74l-71.52-71.52v-57.04h29.88l32.22 32.22c0.48 0.48 1 0.92 1.58 1.3 0.14 0.1 0.32 0.16 0.48 0.26 0.4 0.24 0.8 0.48 1.24 0.66 0.22 0.08 0.46 0.14 0.7 0.2 0.38 0.14 0.76 0.28 1.16 0.36 0.38 0.06 0.76 0.08 1.14 0.1 0.28 0.04 0.54 0.08 0.8 0.08h17.22c4.3 14.3 17.58 24.74 33.26 24.74 19.14 0 34.74-15.58 34.74-34.74 0-19.14-15.6-34.74-34.74-34.74-15.68 0-28.96 10.46-33.26 24.74h-13.08l-32.24-32.24a10.56 10.56 0 0 0-1.54-1.26c-0.24-0.16-0.5-0.26-0.74-0.4-0.32-0.18-0.64-0.38-0.98-0.52-0.32-0.12-0.66-0.2-1-0.3-0.28-0.1-0.56-0.2-0.86-0.26-0.64-0.12-1.3-0.2-1.96-0.2h-34.02v-62.24h10.58c4.3 14.3 17.58 24.74 33.26 24.74 19.16 0 34.74-15.58 34.74-34.74 0-19.14-15.58-34.74-34.74-34.74-15.66 0-28.94 10.44-33.24 24.74h-10.6V441H822.98c0.66 0 1.32-0.06 1.98-0.2 0.2-0.04 0.38-0.12 0.56-0.16 0.44-0.12 0.88-0.22 1.3-0.4 0.24-0.1 0.46-0.26 0.7-0.38 0.34-0.16 0.7-0.32 1.02-0.54 0.4-0.26 0.74-0.58 1.08-0.9 0.14-0.12 0.3-0.2 0.44-0.34l32.24-32.26h13.08c4.3 14.3 17.58 24.74 33.26 24.74 19.14 0 34.74-15.58 34.74-34.74 0-19.14-15.6-34.74-34.74-34.74-15.68 0-28.96 10.46-33.26 24.74h-17.22c-0.16 0-0.32 0.04-0.48 0.06-0.5 0.02-0.98 0.04-1.46 0.14-0.36 0.08-0.68 0.2-1.02 0.3-0.28 0.1-0.58 0.16-0.86 0.26-0.38 0.16-0.72 0.38-1.08 0.58-0.2 0.12-0.42 0.2-0.64 0.34-0.56 0.38-1.06 0.8-1.54 1.26l-32.24 32.24h-29.88v-57.02l71.52-71.54h60.74c4.3 14.3 17.58 24.74 33.26 24.74 19.16 0 34.74-15.58 34.74-34.74 0-19.14-15.58-34.74-34.74-34.74-15.68 0-28.96 10.46-33.26 24.74h-64.84c-0.68 0-1.36 0.08-2.02 0.2-0.16 0.04-0.32 0.12-0.48 0.16-0.48 0.12-0.94 0.24-1.38 0.42-0.2 0.08-0.38 0.2-0.58 0.3-0.38 0.2-0.78 0.38-1.14 0.62-0.24 0.16-0.46 0.38-0.68 0.56-0.28 0.22-0.56 0.42-0.82 0.68l-60.32 60.32v-133.64-0.04-46.54c0-42.04-34.2-76.24-76.24-76.24H311.3c-42.04 0-76.26 34.2-76.26 76.24v180.2l-60.3-60.3c-0.28-0.28-0.6-0.5-0.9-0.74-0.2-0.16-0.38-0.34-0.6-0.5-0.36-0.24-0.76-0.42-1.14-0.62-0.2-0.08-0.38-0.22-0.58-0.3-0.44-0.18-0.9-0.3-1.34-0.42-0.18-0.04-0.36-0.12-0.54-0.16-0.66-0.12-1.32-0.2-2-0.2H102.8c-4.32-14.28-17.58-24.74-33.26-24.74-19.16 0-34.74 15.6-34.74 34.74 0 19.16 15.58 34.74 34.74 34.74 15.68 0 28.94-10.44 33.24-24.74h60.74l71.52 71.52v57.04h-29.88l-32.24-32.24a10.56 10.56 0 0 0-1.54-1.26c-0.22-0.14-0.46-0.24-0.68-0.36-0.34-0.2-0.68-0.4-1.04-0.56-0.3-0.12-0.6-0.18-0.9-0.28-0.32-0.1-0.64-0.22-0.96-0.28-0.56-0.1-1.1-0.14-1.66-0.16-0.1 0-0.2-0.04-0.3-0.04h-17.2c-4.32-14.28-17.58-24.74-33.26-24.74-19.16 0-34.74 15.6-34.74 34.74 0 19.16 15.58 34.74 34.74 34.74 15.68 0 28.96-10.44 33.26-24.74h13.06l32.26 32.26c0.14 0.14 0.32 0.26 0.48 0.38 0.32 0.3 0.66 0.6 1.02 0.86 0.34 0.22 0.7 0.38 1.06 0.56 0.22 0.12 0.44 0.26 0.66 0.36 0.44 0.18 0.88 0.3 1.34 0.4 0.18 0.06 0.34 0.12 0.54 0.16 0.64 0.14 1.3 0.2 1.98 0.2h34v62.24h-10.58c-4.3-14.3-17.58-24.74-33.26-24.74-19.14 0-34.74 15.6-34.74 34.74 0 19.16 15.6 34.74 34.74 34.74 15.68 0 28.96-10.44 33.26-24.74h10.58v62.24h-34c-0.1 0-0.18 0.02-0.28 0.02-0.56 0.02-1.12 0.06-1.68 0.18-0.32 0.06-0.62 0.18-0.92 0.28-0.32 0.08-0.64 0.16-0.96 0.28-0.34 0.14-0.66 0.34-0.98 0.52-0.24 0.14-0.5 0.24-0.74 0.4-0.52 0.36-1.02 0.76-1.46 1.2l-0.06 0.06-32.26 32.24h-13.06c-4.3-14.28-17.58-24.74-33.26-24.74-19.16 0-34.74 15.6-34.74 34.74 0 19.16 15.58 34.74 34.74 34.74 15.68 0 28.94-10.44 33.26-24.74h17.2c0.28 0 0.54-0.04 0.8-0.08 0.38-0.02 0.76-0.04 1.14-0.1 0.4-0.08 0.78-0.22 1.16-0.34 0.24-0.08 0.48-0.14 0.7-0.22 0.44-0.18 0.82-0.42 1.2-0.64 0.18-0.1 0.36-0.18 0.54-0.28 0.56-0.38 1.08-0.8 1.56-1.28l32.24-32.24h29.86v57.04l-71.5 71.52H102.78c-4.3-14.3-17.56-24.74-33.24-24.74-19.16 0-34.74 15.6-34.74 34.74 0 19.16 15.58 34.74 34.74 34.74 15.68 0 28.94-10.44 33.26-24.74h64.86c0.68 0 1.34-0.06 2-0.2 0.1-0.02 0.22-0.08 0.32-0.1 0.52-0.12 1.04-0.26 1.54-0.48 0.16-0.06 0.3-0.16 0.46-0.24 0.42-0.2 0.86-0.42 1.26-0.68 0.16-0.12 0.32-0.26 0.48-0.38 0.34-0.28 0.7-0.52 1.02-0.84l60.3-60.3v177.7c0 42.04 34.2 76.24 76.24 76.24h401.44c42.04 0 76.24-34.2 76.24-76.24V690.8l60.32 60.32c0.28 0.3 0.62 0.52 0.94 0.78 0.18 0.14 0.36 0.3 0.56 0.44 0.4 0.26 0.82 0.48 1.24 0.68 0.16 0.08 0.3 0.18 0.46 0.24 0.5 0.22 1.02 0.36 1.54 0.48 0.12 0.02 0.22 0.08 0.34 0.1 0.66 0.14 1.32 0.2 1.98 0.2h64.88c4.3 14.3 17.58 24.74 33.26 24.74 19.16 0 34.74-15.58 34.74-34.74 0-19.14-15.58-34.74-34.74-34.74z m-45.84-93.38c8.12 0 14.74 6.62 14.74 14.74 0 8.14-6.62 14.74-14.74 14.74a14.74 14.74 0 0 1-14.74-14.74c0-8.12 6.6-14.74 14.74-14.74z m-75.84-117.42c8.14 0 14.74 6.62 14.74 14.74 0 8.14-6.6 14.74-14.74 14.74-8.12 0-14.74-6.6-14.74-14.74 0-8.12 6.62-14.74 14.74-14.74z m75.84-117.42c8.12 0 14.74 6.62 14.74 14.74 0 8.14-6.62 14.74-14.74 14.74a14.74 14.74 0 0 1-14.74-14.74c0-8.12 6.6-14.74 14.74-14.74z m45.84-113.38c8.12 0 14.74 6.62 14.74 14.74 0 8.14-6.62 14.74-14.74 14.74a14.74 14.74 0 0 1-14.74-14.74c0-8.12 6.6-14.74 14.74-14.74zM69.54 297.18a14.74 14.74 0 0 1-14.74-14.74c0-8.12 6.6-14.74 14.74-14.74 8.12 0 14.74 6.62 14.74 14.74 0 8.14-6.62 14.74-14.74 14.74z m45.84 113.38c-8.12 0-14.74-6.6-14.74-14.74 0-8.12 6.62-14.74 14.74-14.74s14.74 6.62 14.74 14.74c0 8.14-6.62 14.74-14.74 14.74z m75.82 117.42c-8.12 0-14.74-6.6-14.74-14.74 0-8.12 6.62-14.74 14.74-14.74 8.14 0 14.74 6.62 14.74 14.74 0 8.14-6.6 14.74-14.74 14.74zM115.38 645.4c-8.12 0-14.74-6.6-14.74-14.74 0-8.12 6.62-14.74 14.74-14.74s14.74 6.62 14.74 14.74c0 8.14-6.62 14.74-14.74 14.74z m-45.84 113.38a14.74 14.74 0 0 1-14.74-14.74c0-8.12 6.6-14.74 14.74-14.74 8.12 0 14.74 6.62 14.74 14.74 0 8.14-6.62 14.74-14.74 14.74z m699.42 109.74c0 31.02-25.24 56.24-56.24 56.24H311.28c-31 0-56.24-25.22-56.24-56.24V832h513.92v36.52z m0-520.66h-84.58c-5.52 0-10 4.48-10 10s4.48 10 10 10h84.58v53.14h-110.04c-5.54 0-10 4.48-10 10s4.46 10 10 10h110.04v62.24h-141.88c-5.52 0-10 4.48-10 10s4.48 10 10 10h141.88v62.24h-110.04c-5.54 0-10 4.48-10 10s4.46 10 10 10h110.04v53.14h-84.58c-5.52 0-10 4.48-10 10s4.48 10 10 10h84.58V812H255.04v-133.38h84.6c5.52 0 10-4.48 10-10s-4.48-10-10-10h-84.6v-53.14h110.06c5.52 0 10-4.48 10-10s-4.48-10-10-10h-110.06v-62.24h141.9c5.52 0 10-4.48 10-10s-4.48-10-10-10h-141.9V441h110.06c5.52 0 10-4.48 10-10s-4.48-10-10-10h-110.06v-53.14h84.6c5.52 0 10-4.48 10-10s-4.48-10-10-10h-84.6v-135.84h513.92v135.84z m0-155.84H255.04V155.48c0-31.02 25.24-56.24 56.26-56.24h401.42c31 0 56.24 25.22 56.24 56.24v36.54z m185.52 566.76a14.74 14.74 0 0 1-14.74-14.74c0-8.12 6.6-14.74 14.74-14.74 8.12 0 14.74 6.62 14.74 14.74 0 8.14-6.62 14.74-14.74 14.74z" fill="#23130D" p-id="56243"></path><path d="M84.28 282.44c0 8.14-6.62 14.74-14.74 14.74a14.74 14.74 0 0 1-14.74-14.74c0-8.12 6.6-14.74 14.74-14.74 8.12 0 14.74 6.62 14.74 14.74zM130.12 395.82c0 8.14-6.62 14.74-14.74 14.74s-14.74-6.6-14.74-14.74c0-8.12 6.62-14.74 14.74-14.74s14.74 6.62 14.74 14.74zM205.94 513.24c0 8.14-6.6 14.74-14.74 14.74-8.12 0-14.74-6.6-14.74-14.74 0-8.12 6.62-14.74 14.74-14.74 8.14 0 14.74 6.62 14.74 14.74zM130.12 630.66c0 8.14-6.62 14.74-14.74 14.74s-14.74-6.6-14.74-14.74c0-8.12 6.62-14.74 14.74-14.74s14.74 6.62 14.74 14.74zM84.28 744.04c0 8.14-6.62 14.74-14.74 14.74a14.74 14.74 0 0 1-14.74-14.74c0-8.12 6.6-14.74 14.74-14.74 8.12 0 14.74 6.62 14.74 14.74zM969.22 282.44c0 8.14-6.62 14.74-14.74 14.74a14.74 14.74 0 0 1-14.74-14.74c0-8.12 6.6-14.74 14.74-14.74 8.12 0 14.74 6.62 14.74 14.74zM923.38 395.82c0 8.14-6.62 14.74-14.74 14.74a14.74 14.74 0 0 1-14.74-14.74c0-8.12 6.6-14.74 14.74-14.74 8.12 0 14.74 6.62 14.74 14.74zM847.54 513.24c0 8.14-6.6 14.74-14.74 14.74-8.12 0-14.74-6.6-14.74-14.74 0-8.12 6.62-14.74 14.74-14.74 8.14 0 14.74 6.62 14.74 14.74zM923.38 630.66c0 8.14-6.62 14.74-14.74 14.74a14.74 14.74 0 0 1-14.74-14.74c0-8.12 6.6-14.74 14.74-14.74 8.12 0 14.74 6.62 14.74 14.74zM969.22 744.04c0 8.14-6.62 14.74-14.74 14.74a14.74 14.74 0 0 1-14.74-14.74c0-8.12 6.6-14.74 14.74-14.74 8.12 0 14.74 6.62 14.74 14.74z" fill="#F9C139" p-id="56244"></path><path d="M255.04 832v36.52c0 31.02 25.24 56.24 56.24 56.24h401.44c31 0 56.24-25.22 56.24-56.24V832H255.04z m316.88 54.02h-119.82c-5.54 0-10-4.48-10-10s4.46-10 10-10h119.82c5.52 0 10 4.48 10 10s-4.48 10-10 10zM712.72 99.24H311.3c-31.02 0-56.26 25.22-56.26 56.24v36.54h513.92V155.48c0-31.02-25.24-56.24-56.24-56.24zM374.4 157.98h-32.3c-5.52 0-10-4.48-10-10s4.48-10 10-10h32.3c5.54 0 10 4.48 10 10s-4.46 10-10 10z m197.52 0h-119.82c-5.54 0-10-4.48-10-10s4.46-10 10-10h119.82c5.52 0 10 4.48 10 10s-4.48 10-10 10z" fill="#E1E1E5" p-id="56245"></path><path d="M712.72 99.24H311.3c-31.02 0-56.26 25.22-56.26 56.24v26.66c0-31.02 25.24-56.24 56.26-56.24h401.42c31 0 56.24 25.22 56.24 56.24V155.48c0-31.02-25.24-56.24-56.24-56.24zM311.28 924.804h401.42c31.02 0 56.26-25.22 56.26-56.24v-26.66c0 31.02-25.24 56.24-56.26 56.24H311.28c-31 0-56.24-25.22-56.24-56.24v26.66c0 31.02 25.24 56.24 56.24 56.24z" opacity=".2" p-id="56246"></path><path d="M684.38 347.86h84.58v-135.84H255.04v135.84h84.6c5.52 0 10 4.48 10 10s-4.48 10-10 10h-84.6v53.14h110.06c5.52 0 10 4.48 10 10 0 2.66-1.04 5.06-2.74 6.86-1.8 1.94-4.4 3.14-7.26 3.14h-110.06v62.24h141.9c5.52 0 10 4.48 10 10s-4.48 10-10 10h-141.9v62.24h110.06c5.52 0 10 4.48 10 10s-4.48 10-10 10h-110.06v53.14h84.6c5.52 0 10 4.48 10 10s-4.48 10-10 10h-84.6V812h513.92v-133.38h-84.58c-1.98 0-3.82-0.58-5.36-1.58-1.24-0.76-2.3-1.82-3.06-3.06-1-1.54-1.58-3.38-1.58-5.36 0-5.52 4.48-10 10-10h84.58v-53.14h-110.04c-5.54 0-10-4.48-10-10a9.98 9.98 0 0 1 10-10h110.04v-62.24h-141.88c-5.52 0-10-4.48-10-10s4.48-10 10-10h141.88V441h-110.04c-5.54 0-10-4.48-10-10s4.46-10 10-10h110.04v-53.14h-84.58c-5.52 0-10-4.48-10-10s4.48-10 10-10zM522 721.94c0 5.52-4.48 10-10 10s-10-4.48-10-10v-37.38c0-5.52 4.48-10 10-10s10 4.48 10 10v37.38z m0-76.5c0 5.52-4.48 10-10 10s-10-4.48-10-10v-37.38c0-1.86 0.5-3.58 1.38-5.06a10 10 0 0 1 18.62 5.06v37.38z m-10-66.5c-5.52 0-10-4.48-10-10v-37.38c0-5.52 4.48-10 10-10s10 4.48 10 10v37.38c0 5.06-3.78 9.26-8.66 9.9-0.44 0.06-0.88 0.1-1.34 0.1z m10-123.88v37.38c0 5.52-4.48 10-10 10s-10-4.48-10-10v-37.38c0-5.52 4.48-10 10-10s10 4.48 10 10z m-20-76.5c0-5.52 4.48-10 10-10s10 4.48 10 10v37.38c0 5.52-4.48 10-10 10s-10-4.48-10-10v-37.38z m20-39.14c0 5.54-4.48 10-10 10s-10-4.46-10-10v-37.36c0-5.52 4.48-10 10-10s10 4.48 10 10v37.36z" fill="#3594BF" p-id="56247"></path><path d="M758.96 222.02v115.84h-74.58c-11.028 0-20 8.972-20 20s8.972 20 20 20h74.58v33.14h-100.04c-11.028 0-20 8.972-20 20s8.972 20 20 20h100.04v42.24h-131.88c-11.028 0-20 8.972-20 20s8.972 20 20 20h131.88v42.24h-100.04c-11.028 0-20 8.972-20 20s8.972 20 20 20h100.04v33.14h-74.58c-11.028 0-20 8.972-20 20s8.972 20 20 20h74.58V802H265.04v-113.38h74.6c11.028 0 20-8.972 20-20s-8.972-20-20-20h-74.6v-33.14h100.06c11.028 0 20-8.972 20-20s-8.972-20-20-20h-100.06v-42.24h131.9c11.028 0 20-8.972 20-20s-8.972-20-20-20h-131.9V451h100.06c11.028 0 20-8.972 20-20s-8.972-20-20-20h-100.06v-33.14h74.6c11.028 0 20-8.972 20-20s-8.972-20-20-20h-74.6v-115.84h493.92m-251.096 136.97c-9.05 1.91-15.864 9.96-15.864 19.57v37.38c0 9.594 6.79 17.632 15.818 19.56-9.026 1.928-15.818 9.966-15.818 19.56v37.38c0 9.594 6.79 17.632 15.818 19.56-9.026 1.928-15.818 9.966-15.818 19.56v37.38c0 9.594 6.79 17.632 15.818 19.56-9.026 1.928-15.818 9.966-15.818 19.56v37.38c0 9.594 6.79 17.632 15.818 19.56-9.026 1.928-15.818 9.966-15.818 19.56v37.38c0 11.028 8.972 20 20 20s20-8.972 20-20v-37.38c0-9.594-6.79-17.632-15.818-19.56 9.026-1.928 15.818-9.966 15.818-19.56v-37.38c0-9.594-6.79-17.632-15.818-19.56 9.026-1.928 15.818-9.966 15.818-19.56v-37.38c0-9.594-6.79-17.632-15.818-19.56 9.026-1.928 15.818-9.966 15.818-19.56v-37.38c0-9.594-6.79-17.632-15.818-19.56 9.026-1.928 15.818-9.966 15.818-19.56v-37.38c0-9.61-6.814-17.66-15.864-19.57 9.05-1.91 15.864-9.96 15.864-19.57v-37.36c0-11.028-8.972-20-20-20s-20 8.972-20 20v37.36c0 9.61 6.814 17.66 15.864 19.57M768.96 212.02H255.04v135.84h84.6c5.52 0 10 4.48 10 10s-4.48 10-10 10h-84.6v53.14h110.06c5.52 0 10 4.48 10 10s-4.48 10-10 10h-110.06v62.24h141.9c5.52 0 10 4.48 10 10s-4.48 10-10 10h-141.9v62.24h110.06c5.52 0 10 4.48 10 10s-4.48 10-10 10h-110.06v53.14h84.6c5.52 0 10 4.48 10 10s-4.48 10-10 10h-84.6V812h513.92v-133.38h-84.58c-5.52 0-10-4.48-10-10s4.48-10 10-10h84.58v-53.14h-110.04c-5.54 0-10-4.48-10-10s4.46-10 10-10h110.04v-62.24h-141.88c-5.52 0-10-4.48-10-10s4.48-10 10-10h141.88V441h-110.04c-5.54 0-10-4.48-10-10s4.46-10 10-10h110.04v-53.14h-84.58c-5.52 0-10-4.48-10-10s4.48-10 10-10h84.58v-135.84zM512 349.42c-5.52 0-10-4.46-10-10v-37.36c0-5.52 4.48-10 10-10s10 4.48 10 10v37.36c0 5.54-4.48 10-10 10z m0 76.52c-5.52 0-10-4.48-10-10v-37.38c0-5.52 4.48-10 10-10s10 4.48 10 10v37.38c0 5.52-4.48 10-10 10z m0 76.5c-5.52 0-10-4.48-10-10v-37.38c0-5.52 4.48-10 10-10s10 4.48 10 10v37.38c0 5.52-4.48 10-10 10z m0 76.5c-5.52 0-10-4.48-10-10v-37.38c0-5.52 4.48-10 10-10s10 4.48 10 10v37.38c0 5.52-4.48 10-10 10z m0 76.5c-5.52 0-10-4.48-10-10v-37.38c0-5.52 4.48-10 10-10s10 4.48 10 10v37.38c0 5.52-4.48 10-10 10z m0 76.5c-5.52 0-10-4.48-10-10v-37.38c0-5.52 4.48-10 10-10s10 4.48 10 10v37.38c0 5.52-4.48 10-10 10z" opacity=".2" p-id="56248"></path><path d="M522 531.56v37.38c0 5.52-4.48 10-10 10s-10-4.48-10-10v-37.38c0-5.52 4.48-10 10-10s10 4.48 10 10zM522 455.06v37.38c0 5.52-4.48 10-10 10s-10-4.48-10-10v-37.38c0-5.52 4.48-10 10-10s10 4.48 10 10zM522 608.06v37.38c0 5.52-4.48 10-10 10s-10-4.48-10-10v-37.38c0-5.52 4.48-10 10-10s10 4.48 10 10zM522 684.56v37.38c0 5.52-4.48 10-10 10s-10-4.48-10-10v-37.38c0-5.52 4.48-10 10-10s10 4.48 10 10zM522 378.56v37.38c0 5.52-4.48 10-10 10s-10-4.48-10-10v-37.38c0-5.52 4.48-10 10-10s10 4.48 10 10zM522 302.06v37.36c0 5.54-4.48 10-10 10s-10-4.46-10-10v-37.36c0-5.52 4.48-10 10-10s10 4.48 10 10z" fill="#23130D" p-id="56249"></path><path d="M321.38 421h-66.34v-53.14h13.2zM712.38 812h-87.76L522 709.38v-24.82c0-5.52-4.48-10-10-10s-10 4.48-10 10v4.82l-166.14-166.14h61.08c5.52 0 10-4.48 10-10s-4.48-10-10-10h-81.08l-60.82-60.82v-1.42h86.34l162 162c-0.88 1.48-1.38 3.2-1.38 5.06v37.38c0 5.52 4.48 10 10 10s10-4.48 10-10v-23.82L712.38 812zM768.96 766.98V812h-22.46L513.34 578.84a9.994 9.994 0 0 0 8.66-9.9v-37.38c0-5.52-4.48-10-10-10s-10 4.48-10 10v35.94l-129.64-129.64c1.7-1.8 2.74-4.2 2.74-6.86 0-5.52-4.48-10-10-10h-9.6l-53.14-53.14h37.28c5.52 0 10-4.48 10-10s-4.48-10-10-10h-57.28l-27.32-27.32v-67.48l513.92 513.92zM707.66 523.24h-80.58c-5.52 0-10-4.48-10-10s4.48-10 10-10h60.58L522 337.56v1.86c0 5.54-4.48 10-10 10s-10-4.46-10-10v-21.86l-105.54-105.54h-112.14l373.52 373.52c0.36-0.04 0.72-0.06 1.08-0.06h110.04v-0.94l-61.3-61.3zM522 415.94c0 5.52-4.48 10-10 10s-10-4.48-10-10v-37.38c0-5.52 4.48-10 10-10s10 4.48 10 10v37.38zM677.78 605.48h91.18v53.14h-38.04zM750.92 678.62h18.04v18.04z" fill="#FFFFFF" opacity=".4" p-id="56250"></path></svg>