<?xml version="1.0" standalone="no"?><!DOCTYPE svg PUBLIC "-//W3C//DTD SVG 1.1//EN" "http://www.w3.org/Graphics/SVG/1.1/DTD/svg11.dtd"><svg t="1625812012296" class="icon" viewBox="0 0 1024 1024" version="1.1" xmlns="http://www.w3.org/2000/svg" p-id="48389" xmlns:xlink="http://www.w3.org/1999/xlink" width="200" height="200"><defs><style type="text/css"></style></defs><path d="M374.04 807.6h-41.56v-30.08c0-27.62-22.46-50.1-50.08-50.1H140.66c-27.62 0-50.08 22.48-50.08 50.1v30.08H49.04c-5.52 0-10 4.48-10 10v80.18c0 5.52 4.48 10 10 10h325c5.52 0 10-4.48 10-10V817.6c0-5.52-4.48-10-10-10zM110.58 777.52c0-16.6 13.5-30.1 30.08-30.1h141.74c16.58 0 30.08 13.5 30.08 30.1v30.08H110.58v-30.08z m253.46 110.26H59.04V827.6h305v60.18z" fill="#23130D" p-id="48390"></path><path d="M312.48 777.52v30.08H110.58v-30.08c0-3.1 0.48-6.1 1.36-8.92a30.16 30.16 0 0 1 18.62-19.42c3.16-1.14 6.56-1.76 10.1-1.76h141.74c16.58 0 30.08 13.5 30.08 30.1z" fill="#E1E1E5" p-id="48391"></path><path d="M282.4 757.42c11.072 0 20.08 9.016 20.08 20.1v20.08H120.58v-20.08c0-11.084 9.008-20.1 20.08-20.1h141.74m0-10H140.66c-16.58 0-30.08 13.5-30.08 30.1v30.08h201.9v-30.08c0-16.6-13.5-30.1-30.08-30.1z" fill="#231F20" opacity=".2" p-id="48392"></path><path d="M59.04 827.6h305v60.18H59.04z" fill="#CC7B5A" p-id="48393"></path><path d="M59.04 827.6h305v15.4H59.04z" fill="#231F20" opacity=".2" p-id="48394"></path><path d="M983.58 669.08c-2.8-10.42-9.48-19.12-18.82-24.5l-23.38-13.5a40.386 40.386 0 0 0-20.14-5.42c-14.4 0-27.82 7.74-35 20.2l-0.7 1.2-367.64-232.18c-0.06-0.04-0.12-0.04-0.18-0.08s-0.1-0.08-0.16-0.12l-56.22-32.44c8.16-27.52 11.64-56.2 10.24-85.24 6.02 3.38 12.8 5.16 19.66 5.16 14.4 0 27.82-7.74 35-20.18l12.52-21.72c5.4-9.34 6.82-20.22 4.04-30.62-2.8-10.42-9.48-19.12-18.82-24.52l-144.64-83.48a40.386 40.386 0 0 0-20.14-5.42c-14.4 0-27.82 7.74-35 20.2l-12.54 21.7c-11.02 19.12-4.58 43.58 14.34 54.84-28.14 14.48-53.04 33.76-74.18 57.52a258.842 258.842 0 0 0-31 42.92c-8.9 15.42-16.18 31.68-21.64 48.3-10 30.2-14.26 61.4-12.72 93-6.02-3.36-12.8-5.14-19.66-5.14-14.4 0-27.8 7.74-35 20.18l-12.52 21.72a40.096 40.096 0 0 0-4.04 30.62c2.8 10.42 9.48 19.12 18.82 24.52l144.64 83.48c6.14 3.54 13.1 5.42 20.16 5.42 14.4 0 27.8-7.74 34.98-20.2l12.54-21.7c11.04-19.12 4.58-43.6-14.34-54.86 25.84-13.32 48.94-30.66 68.68-51.5l56.22 32.46c0.08 0.04 0.16 0.06 0.22 0.1 0.06 0.02 0.08 0.06 0.14 0.08l384.94 202.22-0.7 1.2c-11.12 19.28-4.48 44.02 14.8 55.14l23.38 13.5c6.12 3.54 13.1 5.4 20.14 5.4 14.4 0 27.8-7.74 35-20.2l44.68-77.42c5.4-9.34 6.82-20.22 4.04-30.64zM329 168.12l12.52-21.7c3.62-6.3 10.4-10.2 17.68-10.2 3.54 0 7.04 0.94 10.14 2.74l144.64 83.48c4.72 2.72 8.08 7.12 9.5 12.38 1.4 5.24 0.68 10.74-2.04 15.44l-12.52 21.72c-3.64 6.28-10.4 10.18-17.68 10.18-3.54 0-7.04-0.94-10.14-2.72l-13.96-8.06a9.944 9.944 0 0 0-4.84-2.8l-107.04-61.78c-1.34-1.4-3.04-2.38-4.9-2.82l-13.9-8.04c-9.74-5.6-13.08-18.1-7.46-27.82z m0.06 415.48l-12.54 21.7a20.46 20.46 0 0 1-17.66 10.2c-3.56 0-7.06-0.96-10.16-2.74l-144.64-83.48a20.288 20.288 0 0 1-9.5-12.36c-1.4-5.26-0.68-10.76 2.04-15.46l12.54-21.72c3.62-6.28 10.38-10.18 17.66-10.18 3.54 0 7.06 0.94 10.16 2.72l13.98 8.08c1.28 1.32 2.92 2.28 4.74 2.74l107.12 61.82c1.34 1.4 3.02 2.36 4.88 2.82l13.92 8.04c9.72 5.6 13.06 18.08 7.46 27.82z m62.64-116.08a7.6 7.6 0 0 0-0.66 0.74c-22.08 24.74-49.14 44.52-79.96 58.36l-103.66-59.84c-3.46-33.58 0.14-66.8 10.74-98.82 5.04-15.32 11.76-30.32 19.98-44.56s17.84-27.54 28.6-39.6c22.42-25.18 49.38-44.9 80.18-58.72l103.68 59.84c3.42 33.6-0.18 66.92-10.56 98.42-0.12 0.3-0.2 0.62-0.3 0.94-5.06 15.16-11.68 29.88-19.84 44.02a239.66 239.66 0 0 1-28.2 39.22z m75.08 34.76l-52.62-30.38c8.48-10.48 16.2-21.7 23.06-33.6 6.86-11.88 12.7-24.18 17.56-36.76l52.62 30.36L875.54 664.4l-23.3 40.36-385.46-202.48z m495.44 187.44l-44.68 77.44c-3.64 6.28-10.4 10.18-17.68 10.18-3.54 0-7.06-0.94-10.16-2.74l-23.38-13.48c-9.72-5.62-13.06-18.1-7.46-27.82l44.7-77.44c3.64-6.28 10.4-10.2 17.68-10.2 3.54 0 7.04 0.96 10.14 2.74l23.38 13.5c4.72 2.72 8.1 7.1 9.5 12.36s0.68 10.74-2.04 15.46z" fill="#23130D" p-id="48395"></path><path d="M962.22 689.72l-44.68 77.44c-3.64 6.28-10.4 10.18-17.68 10.18-3.54 0-7.06-0.94-10.16-2.74l-23.38-13.48c-9.72-5.62-13.06-18.1-7.46-27.82l44.7-77.44c3.64-6.28 10.4-10.2 17.68-10.2 3.54 0 7.04 0.96 10.14 2.74l23.38 13.5c4.72 2.72 8.1 7.1 9.5 12.36s0.68 10.74-2.04 15.46z" fill="#F8D3C9" p-id="48396"></path><path d="M963.74 686.42c-1.42-1.56-3.08-2.92-4.98-4.02l-23.38-13.5c-3.1-1.78-6.6-2.74-10.14-2.74-7.28 0-14.04 3.92-17.68 10.2l-44.7 77.44c-0.62 1.06-1.12 2.16-1.5 3.28-5.72-6.38-7-15.96-2.5-23.78l44.7-77.44c3.64-6.28 10.4-10.2 17.68-10.2 3.54 0 7.04 0.96 10.14 2.74l23.38 13.5c4.72 2.72 8.1 7.1 9.5 12.36 1.08 4.08 0.9 8.28-0.52 12.16z" fill="#FFFFFF" opacity=".7" p-id="48397"></path><path d="M962.218 689.72l-44.68 77.44c-3.64 6.28-10.4 10.18-17.68 10.18-3.54 0-7.06-0.94-10.16-2.74l-23.38-13.48c-8.66-5-12.26-15.44-8.96-24.54 1.4 1.56 3.06 2.94 4.96 4.04l23.38 13.48c3.1 1.8 6.62 2.74 10.16 2.74 7.28 0 14.04-3.9 17.68-10.18l44.68-77.44c0.62-1.06 1.12-2.16 1.52-3.3a19.966 19.966 0 0 1 4.52 8.34c1.4 5.26 0.68 10.74-2.04 15.46z" fill="#231F20" opacity=".2" p-id="48398"></path><path d="M521.44 250.26l-12.52 21.72c-3.64 6.28-10.4 10.18-17.68 10.18-3.54 0-7.04-0.94-10.14-2.72l-13.96-8.06a9.944 9.944 0 0 0-4.84-2.8l-107.04-61.78c-1.34-1.4-3.04-2.38-4.9-2.82l-13.9-8.04c-9.74-5.6-13.08-18.1-7.46-27.82l12.52-21.7c3.62-6.3 10.4-10.2 17.68-10.2 3.54 0 7.04 0.94 10.14 2.74l144.64 83.48c4.72 2.72 8.08 7.12 9.5 12.38 1.4 5.24 0.68 10.74-2.04 15.44z" fill="#636368" p-id="48399"></path><path d="M875.54 664.4l-3.06 5.28-12.14 21.06-7.6 13.16-0.5 0.86-0.66-0.34-9.88-5.2-12.96-6.8-10.08-5.3-13.02-6.84-15.52-8.16-7.78-4.08-14.24-7.48-9.28-4.88-13.14-6.9-10.62-5.58-12.2-6.4-11.76-6.18-11.46-6.02-12.7-6.68-11.38-5.98-12.5-6.56-12.1-6.36-11.94-6.26-12.88-6.76-11.6-6.1-12-6.32-12.94-6.78-12.52-6.58-12.84-6.74-13.14-6.92-12.78-6.7-13.86-7.28-12.72-6.68-14.76-7.76-10.06-5.28-8.02-4.22-11.14-5.84-0.98-0.52-6.82-3.94-10.68-6.16-7.8-4.5-10.52-6.08-7.82-4.52-8.98-5.18c8.48-10.48 16.2-21.7 23.06-33.6 0.26-0.44 0.5-0.88 0.74-1.32 3.66-6.4 7.02-12.92 10.08-19.56 2.42-5.22 4.68-10.52 6.74-15.88l10.76 6.22 9.56 5.5h0.02l12.2 7.06 10.12 5.84 9.96 5.74 2.1 1.32 10.04 6.34 11.32 7.16 10.6 6.68 11.18 7.06 11.26 7.12 10.9 6.9h0.02l12.08 7.62 15.24 9.64 8.34 5.26 11.5 7.26 8.18 5.16 11.42 7.22 8.04 5.08 11.42 7.2 7.88 4.98 11.32 7.16 7.78 4.92 11.22 7.08 7.66 4.82 3.08 1.96 15.56 9.84 4.8 3.02 13.64 8.6 6.62 4.2 11.52 7.26 8.64 5.46 9.24 5.84 9.9 6.26 9.26 5.84 7.76 4.9 12.1 7.64 4.44 2.8 15.32 9.68 11.54 7.28 8.08 5.12 11.52 7.28 5.62 3.54z" fill="#CC7B5A" p-id="48400"></path><path d="M459.68 415.922l0.874 0.506 9.56 5.5 1.39 0.794 10.818 6.26 10.126 5.844 9.794 5.644 1.92 1.206 10.034 6.336 11.334 7.168 10.592 6.676 11.174 7.056 11.256 7.118 10.9 6.9 2.47 1.55h0.008l9.624 6.072 15.252 9.648 8.336 5.258 11.502 7.262 8.172 5.154 11.422 7.222 8.048 5.086 11.41 7.194 7.876 4.978 11.32 7.16 7.788 4.926 11.23 7.086 7.618 4.792 3.104 1.976 15.58 9.852 4.792 3.014 13.616 8.586 6.646 4.216 11.51 7.254 8.64 5.46 9.238 5.84 9.91 6.266 9.256 5.838 7.76 4.9 12.104 7.642 4.432 2.796 15.326 9.684 11.522 7.27 8.09 5.126 9.006 5.692-10.384 18.014-3.292 5.7-2.042-1.074-12.952-6.796-10.084-5.302-13.018-6.838-15.53-8.164-7.774-4.076-14.236-7.478-9.286-4.882-13.138-6.898-10.626-5.584-12.194-6.396-11.762-6.18-11.456-6.018-12.704-6.682-11.384-5.982-12.494-6.556-12.11-6.364-11.936-6.258-12.872-6.756-11.594-6.098-12.018-6.33-12.928-6.774-12.524-6.582-12.828-6.734-13.156-6.928-12.774-6.696-13.86-7.28-12.716-6.678-14.766-7.764-10.05-5.276-8.034-4.228-11.096-5.816-0.82-0.436-6.672-3.854-10.68-6.16-7.794-4.496-10.52-6.08-6.89-3.982a270.826 270.826 0 0 0 16.784-25.62c0.29-0.494 0.562-0.988 0.832-1.482a262.056 262.056 0 0 0 10.422-20.232c0.89-1.91 1.746-3.812 2.576-5.712m-4.9-14.382c-2.06 5.36-4.32 10.66-6.74 15.88a251.02 251.02 0 0 1-10.08 19.56c-0.24 0.44-0.48 0.88-0.74 1.32-6.86 11.9-14.58 23.12-23.06 33.6l8.98 5.18 7.82 4.52 10.52 6.08 7.8 4.5 10.68 6.16 6.82 3.94 0.98 0.52 11.14 5.84 8.02 4.22 10.06 5.28 14.76 7.76 12.72 6.68 13.86 7.28 12.78 6.7 13.14 6.92 12.84 6.74 12.52 6.58 12.94 6.78 12 6.32 11.6 6.1 12.88 6.76 11.94 6.26 12.1 6.36 12.5 6.56 11.38 5.98 12.7 6.68 11.46 6.02 11.76 6.18 12.2 6.4 10.62 5.58 13.14 6.9 9.28 4.88 14.24 7.48 7.78 4.08 15.52 8.16 13.02 6.84 10.08 5.3 12.96 6.8 9.88 5.2 0.66 0.34 0.5-0.86 7.6-13.16 12.14-21.06 3.06-5.28-5.62-3.54-11.52-7.28-8.08-5.12-11.54-7.28-15.32-9.68-4.44-2.8-12.1-7.64-7.76-4.9-9.26-5.84-9.9-6.26-9.24-5.84-8.64-5.46-11.52-7.26-6.62-4.2-13.64-8.6-4.8-3.02-15.56-9.84-3.08-1.96-7.66-4.82-11.22-7.08-7.78-4.92-11.32-7.16-7.88-4.98-11.42-7.2-8.04-5.08-11.42-7.22-8.18-5.16-11.5-7.26-8.34-5.26-15.24-9.64-12.08-7.62h-0.02l-10.9-6.9-11.26-7.12-11.18-7.06-10.6-6.68-11.32-7.16-10.04-6.34-2.1-1.32-9.96-5.74-10.12-5.84-12.2-7.06h-0.02l-9.56-5.5-10.76-6.22z" fill="#231F20" opacity=".2" p-id="48401"></path><path d="M329.06 583.6l-12.54 21.7a20.46 20.46 0 0 1-17.66 10.2c-3.56 0-7.06-0.96-10.16-2.74l-144.64-83.48a20.288 20.288 0 0 1-9.5-12.36c-1.4-5.26-0.68-10.76 2.04-15.46l12.54-21.72c3.62-6.28 10.38-10.18 17.66-10.18 3.54 0 7.06 0.94 10.16 2.72l13.98 8.08c1.28 1.32 2.92 2.28 4.74 2.74l107.12 61.82c1.34 1.4 3.02 2.36 4.88 2.82l13.92 8.04c9.72 5.6 13.06 18.08 7.46 27.82z" fill="#636368" p-id="48402"></path><path d="M440.04 383.34c-0.12 0.3-0.2 0.62-0.3 0.94-5.06 15.16-11.68 29.88-19.84 44.02-3.7 6.4-7.64 12.6-11.88 18.56a230.74 230.74 0 0 1-16.32 20.66 7.6 7.6 0 0 0-0.66 0.74c-8.9 9.98-18.6 19.12-29.02 27.38-9.08 7.24-18.7 13.8-28.82 19.64a239.74 239.74 0 0 1-22.12 11.34l-5.56-3.2-14-8.1-36-20.78-48.1-27.76c-3.46-33.58 0.14-66.8 10.74-98.82 5.04-15.32 11.76-30.32 19.98-44.56 5.24-9.08 11.06-17.8 17.38-26.04 3.58-4.68 7.32-9.2 11.22-13.56 7.74-8.68 16-16.72 24.78-24.06 4.54-3.82 9.2-7.44 14-10.86 8.8-6.34 18.02-12.04 27.68-17.1 4.48-2.38 9.06-4.6 13.72-6.7l15.1 8.72 46 26.54 42.58 24.58c3.42 33.6-0.18 66.92-10.56 98.42z" fill="#E1E1E5" p-id="48403"></path><path d="M346.41 236.334l10.612 6.128L403.02 269l38.092 21.988c2.442 30.432-1.086 60.354-10.504 89.022a16.998 16.998 0 0 0-0.376 1.162l-0.022 0.072a230.794 230.794 0 0 1-18.968 42.05 225.916 225.916 0 0 1-11.412 17.826 221.572 221.572 0 0 1-15.448 19.58 17.508 17.508 0 0 0-0.986 1.106 222.73 222.73 0 0 1-27.61 26.014 224.068 224.068 0 0 1-27.612 18.814 226.962 226.962 0 0 1-16.592 8.734l-1.052-0.606-14.008-8.106-36-20.78-43.616-25.172c-2.47-30.456 1.142-60.576 10.756-89.622a228.184 228.184 0 0 1 19.142-42.686 230.072 230.072 0 0 1 16.662-24.962 219.034 219.034 0 0 1 10.742-12.98 227.38 227.38 0 0 1 23.754-23.064 211.17 211.17 0 0 1 13.408-10.398 220.574 220.574 0 0 1 26.526-16.382 209.62 209.62 0 0 1 8.514-4.276m0.51-11.254c-4.66 2.1-9.24 4.32-13.72 6.7a229.28 229.28 0 0 0-27.68 17.1c-4.8 3.42-9.46 7.04-14 10.86-8.78 7.34-17.04 15.38-24.78 24.06a229.26 229.26 0 0 0-11.22 13.56c-6.32 8.24-12.14 16.96-17.38 26.04-8.22 14.24-14.94 29.24-19.98 44.56-10.6 32.02-14.2 65.24-10.74 98.82l48.1 27.76 36 20.78 14 8.1 5.56 3.2c7.6-3.42 15-7.2 22.12-11.34 10.12-5.84 19.74-12.4 28.82-19.64 10.42-8.26 20.12-17.4 29.02-27.38 0.2-0.26 0.42-0.5 0.66-0.74 5.8-6.54 11.26-13.44 16.32-20.66 4.24-5.96 8.18-12.16 11.88-18.56 8.16-14.14 14.78-28.86 19.84-44.02 0.1-0.32 0.18-0.64 0.3-0.94 10.38-31.5 13.98-64.82 10.56-98.42l-42.58-24.58-46-26.54-15.1-8.72z" fill="#231F20" opacity=".2" p-id="48404"></path><path d="M522.3 248.58c-1.74-3.82-4.6-7-8.32-9.14l-144.64-83.48a20.2 20.2 0 0 0-10.14-2.74c-7.28 0-14.06 3.9-17.68 10.2l-12.52 21.7c-0.32 0.56-0.62 1.12-0.86 1.7-2.66-5.8-2.56-12.78 0.86-18.7l12.52-21.7c3.62-6.3 10.4-10.2 17.68-10.2 3.54 0 7.04 0.94 10.14 2.74l144.64 83.48c4.72 2.72 8.08 7.12 9.5 12.38 1.24 4.64 0.82 9.46-1.18 13.76zM329.9 581.92a19.99 19.99 0 0 0-8.3-9.14l-13.92-8.04a10.06 10.06 0 0 1-4.88-2.82l-107.12-61.82c-1.82-0.46-3.46-1.42-4.74-2.74l-13.98-8.08a20.46 20.46 0 0 0-10.16-2.72c-7.28 0-14.04 3.9-17.66 10.18l-12.54 21.72c-0.32 0.56-0.62 1.12-0.86 1.7a20.274 20.274 0 0 1 0.86-18.7l12.54-21.72c3.62-6.28 10.38-10.18 17.66-10.18 3.54 0 7.06 0.94 10.16 2.72l13.98 8.08c1.28 1.32 2.92 2.28 4.74 2.74l107.12 61.82c1.34 1.4 3.02 2.36 4.88 2.82l13.92 8.04c9.16 5.28 12.66 16.68 8.3 26.14zM451.7 318.3c-0.16-5.46-0.54-10.92-1.1-16.38l-103.68-59.84c-30.8 13.82-57.76 33.54-80.18 58.72-10.76 12.06-20.38 25.36-28.6 39.6s-14.94 29.24-19.98 44.56c-7.1 21.42-11.06 43.38-11.86 65.62-1-28.06 2.96-55.76 11.86-82.62 5.04-15.32 11.76-30.32 19.98-44.56s17.84-27.54 28.6-39.6c22.42-25.18 49.38-44.9 80.18-58.72l103.68 59.84c1.14 11.18 1.5 22.32 1.1 33.38z" fill="#FFFFFF" opacity=".4" p-id="48405"></path><path d="M869.92 660.86c-14.98 10.34-32.34 19-51.26 26.26l10.08 5.3c15.88-6.5 30.6-14 43.74-22.74l3.06-5.28-5.62-3.54z m-18.34 43.56c0.38-0.18 0.78-0.34 1.16-0.52l7.6-13.16c-5.98 3-12.2 5.84-18.64 8.48l9.88 5.2z m-1.26-55.96c-12.32 8.06-26.12 15.04-40.98 21.1 7.9-6.48 13.96-13.58 17.94-21.14 0.08-0.18 0.16-0.34 0.26-0.5 3.86-2.16 7.6-4.4 11.24-6.74l-15.32-9.68c-0.46 3.52-1.44 6.96-2.92 10.34-8.44 4.6-17.4 8.82-26.8 12.64 7.88-6.46 13.96-13.56 17.94-21.14 0.08-0.16 0.16-0.32 0.24-0.5 2.42-1.34 4.78-2.72 7.1-4.14l-12.1-7.64c-0.5 1.94-1.16 3.84-1.98 5.72-8.44 4.6-17.42 8.8-26.82 12.64 7.9-6.48 13.98-13.56 17.94-21.14 0.1-0.16 0.18-0.34 0.26-0.5 0.96-0.54 1.9-1.08 2.84-1.62l-9.26-5.84c-0.16 0.46-0.36 0.92-0.56 1.38-8.46 4.62-17.42 8.82-26.82 12.66 7.6-6.24 13.5-13.06 17.48-20.3l-9.24-5.84c-7.58 4-15.54 7.68-23.84 11.06 6.26-5.12 11.38-10.66 15.2-16.52l-11.52-7.26c-6.2 3.1-12.64 6-19.3 8.72 4.98-4.08 9.22-8.4 12.68-12.92l-13.64-8.6a278.76 278.76 0 0 1-14.64 6.46c3.68-3.04 6.96-6.2 9.84-9.48l-15.56-9.84c-3.24 1.46-6.54 2.88-9.9 4.24 2.46-2.02 4.74-4.08 6.82-6.2l-7.66-4.82c-11.26 10.86-28.3 20.3-49.44 27.4-7.76 2-15.66 3.84-23.66 5.54l12.88 6.76c5.08-1.36 9.96-2.84 14.64-4.42 22.4-5.86 43.72-13.08 63-22.02-11.2 11.62-28.96 21.72-51.26 29.2-4.76 1.24-9.58 2.4-14.44 3.5l12.1 6.36c2.12-0.62 4.18-1.3 6.22-1.98 22.38-5.86 43.7-13.08 62.98-22.02-11.2 11.64-28.96 21.74-51.26 29.2-1.8 0.46-3.62 0.92-5.44 1.36l11.38 5.98c21.62-5.74 42.24-12.8 60.94-21.48-10.7 11.1-27.36 20.82-48.24 28.16l11.46 6.02c18.52-5.28 36.18-11.58 52.38-19.1-9.36 9.72-23.28 18.36-40.62 25.28l12.2 6.4c15.48-4.74 30.26-10.22 44.02-16.62-8.02 8.34-19.4 15.88-33.4 22.2l13.14 6.9c12.54-4.12 24.56-8.78 35.88-14.04-6.68 6.94-15.7 13.32-26.6 18.92l14.24 7.48c9.7-3.42 19.04-7.18 27.96-11.32-5.32 5.52-12.12 10.7-20.18 15.4l15.52 8.16c19.38-7.38 37.22-16.16 52.76-26.7l-8.08-5.12z m-170.08-107.4c-16.86 14.48-44.2 26.08-77.66 32.52h-0.04l12 6.32c31.82-7.34 57.24-19.14 73.48-33.92l-7.78-4.92z m-19.2-12.14c-17.02 13.1-42.88 23.6-74.08 29.6-3.3 0.64-6.6 1.2-9.88 1.7l12.52 6.58c33.92-6.62 61.36-18.14 79.32-32.9l-7.88-4.98z m-19.46-12.28c-16.96 11.82-41.3 21.24-70.22 26.82-6.76 1.3-13.54 2.34-20.26 3.1l13.14 6.92c2.96-0.48 5.9-1 8.86-1.56 32.08-6.18 58.44-16.7 76.52-30.2l-8.04-5.08z m-11.42-7.22l-8.18-5.16c-16.7 10.54-39.5 18.98-66.22 24.12a277.3 277.3 0 0 1-31.3 4.2l13.86 7.28c6.38-0.78 12.78-1.78 19.18-3 29.86-5.76 54.76-15.28 72.66-27.44z m-19.68-12.42l-8.34-5.26c-16.22 9.36-37.46 16.86-62 21.58-9.7 1.86-19.42 3.16-28.96 3.98 6.38-7 13.44-13.2 21.3-18.34 15.78-10.34 33.94-15.96 54.42-16.86l-12.08-7.62h-0.02c-17.42 2.3-33.24 8.08-47.36 17.34-10.54 6.9-20.08 15.68-28.62 26.26-0.62 0.02-1.24 0.06-1.84 0.06l14.76 7.76c9.94-0.82 20.08-2.18 30.16-4.12 27.66-5.32 51.06-13.88 68.58-24.78z m-93.62-13.1c13.86-9.08 29.56-14.52 47.04-16.32l-11.26-7.12c-14.86 2.78-28.48 8.2-40.8 16.28-12.38 8.12-23.36 18.76-32.94 31.9l8.02 4.22c8.44-11.48 18.34-21.36 29.94-28.96z m-15.6-15.08c12.02-7.88 25.44-13.02 40.2-15.42l-10.6-6.68a109.952 109.952 0 0 0-34.62 14.96c-13.84 9.06-25.94 21.3-36.28 36.66l6.82 3.94 0.98 0.52c9.2-13.64 20.24-25.28 33.5-33.98z m-15.62-15.06c10.28-6.74 21.6-11.48 33.9-14.2l-10.04-6.34a109.436 109.436 0 0 0-28.88 13.4c-15.12 9.9-28.18 23.62-39.14 41.06l7.8 4.5c9.72-15.56 21.68-28.8 36.36-38.42z m-15.6-15.06c8.44-5.54 17.58-9.72 27.4-12.54l-10.12-5.84a109.398 109.398 0 0 0-22.3 11.22c-16.4 10.76-30.38 25.96-41.88 45.54l7.82 4.52c10.18-17.5 23-32.36 39.08-42.9z m5.06-25.44l-9.56-5.5c-5.6 2.44-10.98 5.34-16.12 8.72-0.46 0.3-0.92 0.62-1.38 0.94a251.02 251.02 0 0 1-10.08 19.56c5.06-4.98 10.56-9.46 16.48-13.36 6.48-4.24 13.36-7.7 20.66-10.36z" opacity=".2" p-id="48406"></path><path d="M291.52 259.74v255.58l-36-20.78v-197.18c3.58-4.68 7.32-9.2 11.22-13.56 7.74-8.68 16-16.72 24.78-24.06zM333.2 231.78v283.5a239.74 239.74 0 0 1-22.12 11.34l-5.56-3.2V248.88c8.8-6.34 18.02-12.04 27.68-17.1zM408.02 260.34v186.52a230.74 230.74 0 0 1-16.32 20.66 7.6 7.6 0 0 0-0.66 0.74c-8.9 9.98-18.6 19.12-29.02 27.38V233.8l46 26.54z" fill="#FFFFFF" opacity=".4" p-id="48407"></path><path d="M338.32 887.78h13.72c4.3-4.22 8.32-8.64 12-13.28v-15.92c-6.96 10.8-15.64 20.5-25.72 29.2z m17.8-60.18c-11.34 24.82-30.88 44.5-55.68 60.18h16.46c20.5-14.98 36.84-33.12 47.14-55.18v-5h-7.92z m-14.02 0h-10.98c-17.16 25.94-44.26 45.42-76.86 60.18h20.78c28.58-15.32 52.04-34.94 67.06-60.18z m-27.36 0h-12.3c-25.5 27.82-63.9 46.9-107.52 60.18h28.4c37.44-14.22 69.68-33.58 91.42-60.18z m-45.68 0c-39.6 31.64-98.36 49.56-159.42 60.18h45.12c50.44-12.36 96.58-31.12 128.56-60.18h-14.26z m-117.76 40.84c35.62-9.68 68.62-22.8 95.32-40.84h-17.32c-9.44 5.5-19.54 10.46-30.18 14.96 5.54-4.7 10.2-9.7 13.9-14.96H165.88c-9.72 6.22-21.4 11.76-34.64 16.34-19.6 5.24-40.02 9.44-60.62 12.84-3.9 0.38-7.76 0.66-11.58 0.84v10.28c4.24-0.62 8.48-1.28 12.72-1.98 9.5-0.9 19.12-2.28 28.72-4.18 12.46-2.5 24.08-5.64 34.74-9.38 23.06-6.26 45.04-13.96 64.9-23.5-11.54 12.42-29.84 23.18-52.82 31.16-19.58 5.24-40 9.44-60.62 12.84-9.44 0.9-18.74 1.28-27.64 1.16v12.22c9.6-1.26 19.22-2.66 28.8-4.24 9.5-0.9 19.12-2.28 28.7-4.2 12.48-2.48 24.12-5.62 34.76-9.36z m-32.16-32.16c9.68-2.62 19.16-5.5 28.38-8.68H115.88c-0.24 0.1-0.48 0.18-0.72 0.26-18.16 4.88-37.04 8.82-56.12 12.06v9.58c8.4-0.9 16.88-2.16 25.36-3.84 12.46-2.5 24.1-5.64 34.74-9.38z m-41.72-8.68h-18.38v3.64c3.1-0.48 6.18-1.04 9.28-1.66 3.08-0.62 6.12-1.28 9.1-1.98z" opacity=".2" p-id="48408"></path><path d="M188.98 807.6H150.94l-39-39a30.16 30.16 0 0 1 18.62-19.42l58.42 58.42zM233.02 807.6h-29.24L143.6 747.42h29.24zM312.1 807.6h-48.62l-60.18-60.18h48.62z" fill="#FFFFFF" opacity=".4" p-id="48409"></path></svg>