<?xml version="1.0" standalone="no"?><!DOCTYPE svg PUBLIC "-//W3C//DTD SVG 1.1//EN" "http://www.w3.org/Graphics/SVG/1.1/DTD/svg11.dtd"><svg t="1625812189863" class="icon" viewBox="0 0 1024 1024" version="1.1" xmlns="http://www.w3.org/2000/svg" p-id="54179" xmlns:xlink="http://www.w3.org/1999/xlink" width="200" height="200"><defs><style type="text/css"></style></defs><path d="M589.14 104c0 5.52-4.46 10-10 10h-134.3c-5.52 0-10-4.48-10-10 0-5.54 4.48-10 10-10h134.3c5.54 0 10 4.46 10 10zM367.76 104c0 5.52-4.46 10-10 10h-36.22c-5.52 0-10-4.48-10-10 0-5.54 4.48-10 10-10h36.22c5.54 0 10 4.46 10 10zM589.14 920.02c0 5.52-4.46 10-10 10h-134.3c-5.52 0-10-4.48-10-10s4.48-10 10-10h134.3c5.54 0 10 4.48 10 10z" fill="#23130D" p-id="54180"></path><path d="M927.66 357.54c0-0.54-0.06-1.06-0.16-1.6-0.02-0.12-0.04-0.26-0.08-0.4-0.12-0.54-0.28-1.08-0.5-1.6-0.04-0.14-0.1-0.26-0.16-0.38-0.12-0.22-0.2-0.46-0.32-0.68l-105.22-190.92V112.4c0-46.46-37.8-84.26-84.24-84.26H287.02c-46.44 0-84.24 37.8-84.24 84.26v49.56l-105.22 190.92c-0.12 0.22-0.2 0.46-0.32 0.68-0.04 0.12-0.12 0.24-0.16 0.38-0.22 0.52-0.38 1.06-0.5 1.6-0.04 0.14-0.06 0.28-0.08 0.4-0.1 0.54-0.14 1.06-0.16 1.6 0 0.06-0.02 0.12-0.02 0.16v84.16c0 33.34 27.24 60.48 60.72 60.48 3.8 0 7.58-0.36 11.22-1.06 13.82-2.56 25.8-9.72 34.52-19.68v430.02c0 46.44 37.78 84.24 84.24 84.24h449.96c46.44 0 84.24-37.8 84.24-84.24V481.54c11.14 12.74 27.52 20.8 45.76 20.8 33.46 0 60.7-27.14 60.7-60.48v-84.16c0-0.06-0.02-0.1-0.02-0.16zM222.78 112.4c0-35.42 28.82-64.26 64.24-64.26h449.96c35.42 0 64.24 28.84 64.24 64.26v42.14H222.78V112.4zM197.74 441.84v0.02c0 19.46-13.94 36.18-33.2 39.78-2.44 0.46-4.96 0.7-7.5 0.7-22.46 0-40.72-18.16-40.72-40.48v-74.16h81.42v74.14z m603.48 469.78c0 35.42-28.82 64.24-64.24 64.24H287.02c-35.42 0-64.24-28.82-64.24-64.24v-42.16h578.44v42.16zM217.74 441.86v-74.16h81.42v74.16c0 22.32-18.26 40.48-40.7 40.48-22.46 0-40.72-18.16-40.72-40.48z m583.48 407.6H222.78V490.74c10.02 7.28 22.34 11.6 35.68 11.6 21.16 0 39.84-10.86 50.7-27.28 10.86 16.42 29.54 27.28 50.72 27.28 21.16 0 39.84-10.86 50.7-27.28 10.86 16.42 29.54 27.28 50.72 27.28 21.16 0 39.84-10.86 50.7-27.28 10.86 16.42 29.54 27.28 50.72 27.28 21.16 0 39.84-10.86 50.7-27.28 10.88 16.42 29.54 27.28 50.72 27.28 21.16 0 39.84-10.86 50.7-27.28 10.86 16.42 29.54 27.28 50.72 27.28 13.32 0 25.64-4.3 35.66-11.58v358.7z m-482.06-407.6v-74.16h81.42v74.16c0 22.32-18.26 40.48-40.7 40.48-22.46 0-40.72-18.16-40.72-40.48z m101.42 0v-74.16H502v74.16c0 22.32-18.26 40.48-40.7 40.48-22.46 0-40.72-18.16-40.72-40.48z m101.42 0V367.7h81.42v74.16c0 22.32-18.26 40.48-40.7 40.48-22.46 0-40.72-18.16-40.72-40.48z m101.42 0v-74.16h81.42v74.16c0 22.32-18.26 40.48-40.7 40.48-22.46 0-40.72-18.16-40.72-40.48z m182.84 0c0 22.32-18.26 40.48-40.7 40.48-22.46 0-40.72-18.16-40.72-40.48v-74.16h81.42v74.16z m-683-94.16l95.42-173.16h586.64l95.42 173.16H123.26z m784.42 94.16c0 22.32-18.26 40.48-40.7 40.48-22.46 0-40.72-18.16-40.72-40.48v-74.16h81.42v74.16z" fill="#23130D" p-id="54181"></path><path d="M222.78 869.46v42.16c0 35.42 28.82 64.24 64.24 64.24h449.96c35.42 0 64.24-28.82 64.24-64.24v-42.16H222.78z m356.36 60.56h-134.3c-5.52 0-10-4.48-10-10s4.48-10 10-10h134.3c5.54 0 10 4.48 10 10s-4.46 10-10 10zM736.98 48.14H287.02c-35.42 0-64.24 28.84-64.24 64.26v42.14h578.44V112.4c0-35.42-28.82-64.26-64.24-64.26zM357.76 114h-36.22c-5.52 0-10-4.48-10-10 0-5.54 4.48-10 10-10h36.22c5.54 0 10 4.46 10 10 0 5.52-4.46 10-10 10z m221.38 0h-134.3c-5.52 0-10-4.48-10-10 0-5.54 4.48-10 10-10h134.3c5.54 0 10 4.46 10 10 0 5.52-4.46 10-10 10z" fill="#E1E1E5" p-id="54182"></path><path d="M791.22 879.46v32.16c0 29.908-24.332 54.24-54.24 54.24H287.02c-29.908 0-54.24-24.332-54.24-54.24v-32.16h558.44m-346.38 60.56h134.3c11.028 0 20-8.972 20-20s-8.972-20-20-20h-134.3c-11.028 0-20 8.972-20 20s8.972 20 20 20m356.38-70.56H222.78v42.16c0 35.42 28.82 64.24 64.24 64.24h449.96c35.42 0 64.24-28.82 64.24-64.24v-42.16z m-356.38 60.56c-5.52 0-10-4.48-10-10s4.48-10 10-10h134.3c5.54 0 10 4.48 10 10s-4.46 10-10 10h-134.3zM736.98 58.14c29.908 0 54.24 24.34 54.24 54.26v32.14H232.78V112.4c0-29.92 24.332-54.26 54.24-54.26h449.96M444.84 124h134.3c11.028 0 20-8.972 20-20s-8.972-20-20-20h-134.3c-11.028 0-20 8.972-20 20s8.972 20 20 20m-123.3 0h36.22c11.028 0 20-8.972 20-20s-8.972-20-20-20h-36.22c-11.028 0-20 8.972-20 20s8.972 20 20 20m415.44-75.86H287.02c-35.42 0-64.24 28.84-64.24 64.26v42.14h578.44V112.4c0-35.42-28.82-64.26-64.24-64.26zM444.84 114c-5.52 0-10-4.48-10-10 0-5.54 4.48-10 10-10h134.3c5.54 0 10 4.46 10 10 0 5.52-4.46 10-10 10h-134.3z m-123.3 0c-5.52 0-10-4.48-10-10 0-5.54 4.48-10 10-10h36.22c5.54 0 10 4.46 10 10 0 5.52-4.46 10-10 10h-36.22z" opacity=".2" p-id="54183"></path><path d="M801.22 490.76v358.7H222.78V490.74a60.494 60.494 0 0 0 39.08 11.5c19.76-1.08 37.02-11.64 47.3-27.18 6.9 10.44 16.96 18.62 28.8 23.2 6.8 2.64 14.18 4.08 21.92 4.08 21.16 0 39.84-10.86 50.7-27.28 10.86 16.42 29.54 27.28 50.72 27.28 2.7 0 5.36-0.18 7.96-0.52 17.84-2.34 33.26-12.44 42.74-26.76 10.86 16.42 29.54 27.28 50.72 27.28 21.16 0 39.84-10.86 50.7-27.28 10.88 16.42 29.54 27.28 50.72 27.28 21.16 0 39.84-10.86 50.7-27.28 10.86 16.42 29.54 27.28 50.72 27.28 13.32 0 25.64-4.3 35.66-11.58z" fill="#3594BF" p-id="54184"></path><path d="M801.22 490.76v42.66a60.46 60.46 0 0 1-35.66 11.58c-21.18 0-39.86-10.86-50.72-27.28-10.86 16.42-29.54 27.28-50.7 27.28-21.18 0-39.84-10.86-50.72-27.28-10.86 16.42-29.54 27.28-50.7 27.28-21.18 0-39.86-10.86-50.72-27.28-10.86 16.42-29.54 27.28-50.7 27.28-21.18 0-39.86-10.86-50.72-27.28-10.86 16.42-29.54 27.28-50.7 27.28-21.18 0-39.86-10.86-50.72-27.28-10.86 16.42-29.54 27.28-50.7 27.28-13.34 0-25.66-4.32-35.68-11.6v-42.66c10.02 7.28 22.34 11.6 35.68 11.6 21.16 0 39.84-10.86 50.7-27.28 10.86 16.42 29.54 27.28 50.72 27.28 21.16 0 39.84-10.86 50.7-27.28 10.86 16.42 29.54 27.28 50.72 27.28 21.16 0 39.84-10.86 50.7-27.28 10.86 16.42 29.54 27.28 50.72 27.28 21.16 0 39.84-10.86 50.7-27.28 10.88 16.42 29.54 27.28 50.72 27.28 21.16 0 39.84-10.86 50.7-27.28 10.86 16.42 29.54 27.28 50.72 27.28 13.32 0 25.64-4.3 35.66-11.58z" opacity=".2" p-id="54185"></path><path d="M197.74 367.7v74.16c0 7.34-1.98 14.3-5.48 20.3-1.52 2.58-3.3 4.98-5.36 7.18-1.66 1.8-3.5 3.46-5.5 4.94-1.68 1.26-3.48 2.38-5.36 3.36-1.74 0.92-3.58 1.72-5.48 2.4-1.72 0.6-3.52 1.1-5.36 1.46-0.22 0.06-0.44 0.1-0.66 0.14-1.58 0.3-3.18 0.5-4.82 0.6-0.88 0.06-1.78 0.1-2.68 0.1-0.9 0-1.8-0.02-2.7-0.1-1.86-0.1-3.7-0.36-5.48-0.72-1.84-0.38-3.62-0.86-5.36-1.5-1.9-0.64-3.72-1.44-5.48-2.38-1.88-0.98-3.68-2.12-5.36-3.38-1.98-1.48-3.82-3.12-5.5-4.92-2.04-2.2-3.84-4.62-5.36-7.22a40.054 40.054 0 0 1-5.48-20.26v-74.16h81.42zM299.16 367.7v74.16c0 22.32-18.26 40.48-40.7 40.48-22.46 0-40.72-18.16-40.72-40.48v-74.16h81.42zM400.58 367.7v74.16c0 22.32-18.26 40.48-40.7 40.48-22.46 0-40.72-18.16-40.72-40.48v-74.16h81.42zM502 367.7v74.16c0 22.32-18.26 40.48-40.7 40.48-22.46 0-40.72-18.16-40.72-40.48v-74.16H502zM603.42 367.7v74.16c0 22.32-18.26 40.48-40.7 40.48-22.46 0-40.72-18.16-40.72-40.48V367.7h81.42zM704.84 367.7v74.16c0 22.32-18.26 40.48-40.7 40.48-22.46 0-40.72-18.16-40.72-40.48v-74.16h81.42zM806.26 367.7v74.16c0 22.32-18.26 40.48-40.7 40.48-22.46 0-40.72-18.16-40.72-40.48v-74.16h81.42zM907.68 367.7v74.16c0 22.32-18.26 40.48-40.7 40.48-22.46 0-40.72-18.16-40.72-40.48v-74.16h81.42zM900.74 347.7H123.26l95.42-173.16h586.64z" fill="#EC7063" p-id="54186"></path><path d="M123.26 347.7h3.242a10.284 10.284 0 0 1-2.384-1.556l-0.858 1.556zM229.82 174.54c-2.36 1.92-6.6 3.2-11.44 3.2-0.48 0-0.96-0.02-1.44-0.04l1.74-3.16h11.14zM290.78 174.54c-2.38 1.92-6.6 3.2-11.44 3.2-4.86 0-9.08-1.28-11.44-3.2h22.88zM351.72 174.54c-2.36 1.92-6.6 3.2-11.44 3.2s-9.08-1.28-11.44-3.2h22.88zM412.68 174.54c-2.36 1.92-6.6 3.2-11.44 3.2s-9.08-1.28-11.44-3.2h22.88zM473.62 174.54c-2.36 1.92-6.58 3.2-11.44 3.2-4.84 0-9.06-1.28-11.44-3.2h22.88zM534.58 174.54c-2.36 1.92-6.6 3.2-11.44 3.2s-9.08-1.28-11.44-3.2h22.88zM595.54 174.54c-2.38 1.92-6.6 3.2-11.44 3.2-4.86 0-9.08-1.28-11.44-3.2h22.88zM656.48 174.54c-2.36 1.92-6.6 3.2-11.44 3.2s-9.08-1.28-11.44-3.2h22.88zM717.44 174.54c-2.36 1.92-6.6 3.2-11.44 3.2s-9.08-1.28-11.44-3.2h22.88zM778.38 174.54c-2.36 1.92-6.58 3.2-11.44 3.2-4.84 0-9.06-1.28-11.44-3.2h22.88zM260.5 185.36c0 3.7-6.02 6.7-13.44 6.7s-13.44-3-13.44-6.7c0-3.72 6.02-6.72 13.44-6.72s13.44 3 13.44 6.72zM321.46 185.36c0 3.7-6.02 6.7-13.44 6.7-7.44 0-13.46-3-13.46-6.7 0-3.72 6.02-6.72 13.46-6.72 7.42 0 13.44 3 13.44 6.72zM382.4 185.36c0 3.7-6.02 6.7-13.44 6.7s-13.44-3-13.44-6.7c0-3.72 6.02-6.72 13.44-6.72s13.44 3 13.44 6.72zM443.36 185.36c0 3.7-6.02 6.7-13.44 6.7s-13.44-3-13.44-6.7c0-3.72 6.02-6.72 13.44-6.72s13.44 3 13.44 6.72zM504.32 185.36c0 3.7-6.02 6.7-13.46 6.7-7.42 0-13.44-3-13.44-6.7 0-3.72 6.02-6.72 13.44-6.72 7.44 0 13.46 3 13.46 6.72zM565.26 185.36c0 3.7-6.02 6.7-13.44 6.7s-13.44-3-13.44-6.7c0-3.72 6.02-6.72 13.44-6.72s13.44 3 13.44 6.72zM626.22 185.36c0 3.7-6.02 6.7-13.44 6.7-7.44 0-13.44-3-13.44-6.7 0-3.72 6-6.72 13.44-6.72 7.42 0 13.44 3 13.44 6.72zM687.16 185.36c0 3.7-6.02 6.7-13.44 6.7s-13.44-3-13.44-6.7c0-3.72 6.02-6.72 13.44-6.72s13.44 3 13.44 6.72zM748.12 185.36c0 3.7-6.02 6.7-13.44 6.7s-13.44-3-13.44-6.7c0-3.72 6.02-6.72 13.44-6.72s13.44 3 13.44 6.72zM809.08 185.36c0 3.7-6.02 6.7-13.46 6.7-7.42 0-13.44-3-13.44-6.7 0-3.72 6.02-6.72 13.44-6.72 7.44 0 13.46 3 13.46 6.72zM228.22 199.68c0 3.7-6 6.7-13.44 6.7-5.04 0-9.44-1.4-11.74-3.46l4.98-9.04c2-0.58 4.3-0.92 6.76-0.92 7.44 0 13.44 3 13.44 6.72zM289.18 199.68c0 3.7-6.02 6.7-13.44 6.7s-13.44-3-13.44-6.7c0-3.72 6.02-6.72 13.44-6.72s13.44 3 13.44 6.72zM350.14 199.68c0 3.7-6.02 6.7-13.44 6.7-7.44 0-13.46-3-13.46-6.7 0-3.72 6.02-6.72 13.46-6.72 7.42 0 13.44 3 13.44 6.72zM411.08 199.68c0 3.7-6.02 6.7-13.44 6.7s-13.44-3-13.44-6.7c0-3.72 6.02-6.72 13.44-6.72s13.44 3 13.44 6.72zM472.04 199.68c0 3.7-6.02 6.7-13.44 6.7s-13.44-3-13.44-6.7c0-3.72 6.02-6.72 13.44-6.72s13.44 3 13.44 6.72zM533 199.68c0 3.7-6.02 6.7-13.46 6.7-7.42 0-13.44-3-13.44-6.7 0-3.72 6.02-6.72 13.44-6.72 7.44 0 13.46 3 13.46 6.72zM593.94 199.68c0 3.7-6.02 6.7-13.44 6.7s-13.44-3-13.44-6.7c0-3.72 6.02-6.72 13.44-6.72s13.44 3 13.44 6.72zM654.9 199.68c0 3.7-6.02 6.7-13.44 6.7-7.44 0-13.44-3-13.44-6.7 0-3.72 6-6.72 13.44-6.72 7.42 0 13.44 3 13.44 6.72zM715.84 199.68c0 3.7-6.02 6.7-13.44 6.7s-13.44-3-13.44-6.7c0-3.72 6.02-6.72 13.44-6.72s13.44 3 13.44 6.72zM776.8 199.68c0 3.7-6.02 6.7-13.44 6.7s-13.44-3-13.44-6.7c0-3.72 6.02-6.72 13.44-6.72s13.44 3 13.44 6.72zM822.84 206.34c-6.72-0.36-11.98-3.2-11.98-6.66 0-2.2 2.12-4.14 5.36-5.36l6.62 12.02zM256.9 214c0 3.7-6 6.7-13.44 6.7-7.42 0-13.44-3-13.44-6.7 0-3.72 6.02-6.72 13.44-6.72 7.44 0 13.44 3 13.44 6.72zM317.86 214c0 3.7-6.02 6.7-13.44 6.7s-13.44-3-13.44-6.7c0-3.72 6.02-6.72 13.44-6.72s13.44 3 13.44 6.72zM378.82 214c0 3.7-6.02 6.7-13.44 6.7-7.44 0-13.46-3-13.46-6.7 0-3.72 6.02-6.72 13.46-6.72 7.42 0 13.44 3 13.44 6.72zM439.76 214c0 3.7-6.02 6.7-13.44 6.7s-13.44-3-13.44-6.7c0-3.72 6.02-6.72 13.44-6.72s13.44 3 13.44 6.72zM500.72 214c0 3.7-6.02 6.7-13.44 6.7s-13.44-3-13.44-6.7c0-3.72 6.02-6.72 13.44-6.72s13.44 3 13.44 6.72zM561.68 214c0 3.7-6.02 6.7-13.46 6.7-7.42 0-13.44-3-13.44-6.7 0-3.72 6.02-6.72 13.44-6.72 7.44 0 13.46 3 13.46 6.72zM622.62 214c0 3.7-6.02 6.7-13.44 6.7s-13.44-3-13.44-6.7c0-3.72 6.02-6.72 13.44-6.72s13.44 3 13.44 6.72zM683.58 214c0 3.7-6.02 6.7-13.44 6.7-7.44 0-13.44-3-13.44-6.7 0-3.72 6-6.72 13.44-6.72 7.42 0 13.44 3 13.44 6.72zM744.52 214c0 3.7-6.02 6.7-13.44 6.7s-13.44-3-13.44-6.7c0-3.72 6.02-6.72 13.44-6.72s13.44 3 13.44 6.72zM805.48 214c0 3.7-6.02 6.7-13.44 6.7s-13.44-3-13.44-6.7c0-3.72 6.02-6.72 13.44-6.72s13.44 3 13.44 6.72z" fill="#FFFFFF" opacity=".2" p-id="54187"></path><path d="M197.76 228.32a13.44 6.7 0 1 0 26.88 0 13.44 6.7 0 1 0-26.88 0Z" fill="#FFFFFF" opacity=".2" p-id="54188"></path><path d="M285.58 228.32c0 3.7-6 6.7-13.44 6.7-7.42 0-13.44-3-13.44-6.7s6.02-6.72 13.44-6.72c7.44 0 13.44 3.02 13.44 6.72z" fill="#FFFFFF" opacity=".2" p-id="54189"></path><path d="M319.66 228.32a13.44 6.7 0 1 0 26.88 0 13.44 6.7 0 1 0-26.88 0Z" fill="#FFFFFF" opacity=".2" p-id="54190"></path><path d="M407.5 228.32c0 3.7-6.02 6.7-13.44 6.7-7.44 0-13.46-3-13.46-6.7s6.02-6.72 13.46-6.72c7.42 0 13.44 3.02 13.44 6.72z" fill="#FFFFFF" opacity=".2" p-id="54191"></path><path d="M441.56 228.32a13.44 6.7 0 1 0 26.88 0 13.44 6.7 0 1 0-26.88 0Z" fill="#FFFFFF" opacity=".2" p-id="54192"></path><path d="M502.52 228.32a13.44 6.7 0 1 0 26.88 0 13.44 6.7 0 1 0-26.88 0Z" fill="#FFFFFF" opacity=".2" p-id="54193"></path><path d="M590.36 228.32c0 3.7-6.02 6.7-13.46 6.7-7.42 0-13.44-3-13.44-6.7s6.02-6.72 13.44-6.72c7.44 0 13.46 3.02 13.46 6.72z" fill="#FFFFFF" opacity=".2" p-id="54194"></path><path d="M624.42 228.32a13.44 6.7 0 1 0 26.88 0 13.44 6.7 0 1 0-26.88 0Z" fill="#FFFFFF" opacity=".2" p-id="54195"></path><path d="M712.26 228.32c0 3.7-6.02 6.7-13.44 6.7-7.44 0-13.44-3-13.44-6.7s6-6.72 13.44-6.72c7.42 0 13.44 3.02 13.44 6.72z" fill="#FFFFFF" opacity=".2" p-id="54196"></path><path d="M746.32 228.32a13.44 6.7 0 1 0 26.88 0 13.44 6.7 0 1 0-26.88 0Z" fill="#FFFFFF" opacity=".2" p-id="54197"></path><path d="M807.28 228.32a13.44 6.7 0 1 0 26.88 0 13.44 6.7 0 1 0-26.88 0Z" fill="#FFFFFF" opacity=".2" p-id="54198"></path><path d="M192.36 242.64c0 3.7-6.02 6.72-13.44 6.72-0.48 0-0.96-0.02-1.44-0.04l7.04-12.78c4.62 1.06 7.84 3.38 7.84 6.1zM253.32 242.64c0 3.7-6.02 6.72-13.44 6.72s-13.44-3.02-13.44-6.72c0-3.7 6.02-6.72 13.44-6.72s13.44 3.02 13.44 6.72zM314.26 242.64c0 3.7-6 6.72-13.44 6.72-7.42 0-13.44-3.02-13.44-6.72 0-3.7 6.02-6.72 13.44-6.72 7.44 0 13.44 3.02 13.44 6.72zM375.22 242.64c0 3.7-6.02 6.72-13.44 6.72s-13.44-3.02-13.44-6.72c0-3.7 6.02-6.72 13.44-6.72s13.44 3.02 13.44 6.72zM436.18 242.64c0 3.7-6.02 6.72-13.44 6.72-7.44 0-13.46-3.02-13.46-6.72 0-3.7 6.02-6.72 13.46-6.72 7.42 0 13.44 3.02 13.44 6.72zM497.12 242.64c0 3.7-6.02 6.72-13.44 6.72s-13.44-3.02-13.44-6.72c0-3.7 6.02-6.72 13.44-6.72s13.44 3.02 13.44 6.72zM558.08 242.64c0 3.7-6.02 6.72-13.44 6.72s-13.44-3.02-13.44-6.72c0-3.7 6.02-6.72 13.44-6.72s13.44 3.02 13.44 6.72zM619.04 242.64c0 3.7-6.02 6.72-13.46 6.72-7.42 0-13.44-3.02-13.44-6.72 0-3.7 6.02-6.72 13.44-6.72 7.44 0 13.46 3.02 13.46 6.72zM679.98 242.64c0 3.7-6.02 6.72-13.44 6.72s-13.44-3.02-13.44-6.72c0-3.7 6.02-6.72 13.44-6.72s13.44 3.02 13.44 6.72zM740.94 242.64c0 3.7-6.02 6.72-13.44 6.72-7.44 0-13.44-3.02-13.44-6.72 0-3.7 6-6.72 13.44-6.72 7.42 0 13.44 3.02 13.44 6.72zM801.88 242.64c0 3.7-6.02 6.72-13.44 6.72s-13.44-3.02-13.44-6.72c0-3.7 6.02-6.72 13.44-6.72s13.44 3.02 13.44 6.72zM846.46 249.18c-6.02-0.66-10.5-3.34-10.5-6.54 0-1.92 1.62-3.64 4.2-4.88l6.3 11.42zM221.04 256.96c0 3.7-6.02 6.72-13.44 6.72s-13.44-3.02-13.44-6.72c0-3.7 6.02-6.72 13.44-6.72s13.44 3.02 13.44 6.72zM282 256.96c0 3.7-6.02 6.72-13.44 6.72s-13.44-3.02-13.44-6.72c0-3.7 6.02-6.72 13.44-6.72s13.44 3.02 13.44 6.72zM342.94 256.96c0 3.7-6 6.72-13.44 6.72-7.42 0-13.44-3.02-13.44-6.72 0-3.7 6.02-6.72 13.44-6.72 7.44 0 13.44 3.02 13.44 6.72zM403.9 256.96c0 3.7-6.02 6.72-13.44 6.72s-13.44-3.02-13.44-6.72c0-3.7 6.02-6.72 13.44-6.72s13.44 3.02 13.44 6.72zM464.86 256.96c0 3.7-6.02 6.72-13.44 6.72-7.44 0-13.46-3.02-13.46-6.72 0-3.7 6.02-6.72 13.46-6.72 7.42 0 13.44 3.02 13.44 6.72zM525.8 256.96c0 3.7-6.02 6.72-13.44 6.72s-13.44-3.02-13.44-6.72c0-3.7 6.02-6.72 13.44-6.72s13.44 3.02 13.44 6.72zM586.76 256.96c0 3.7-6.02 6.72-13.44 6.72s-13.44-3.02-13.44-6.72c0-3.7 6.02-6.72 13.44-6.72s13.44 3.02 13.44 6.72zM647.72 256.96c0 3.7-6.02 6.72-13.46 6.72-7.42 0-13.44-3.02-13.44-6.72 0-3.7 6.02-6.72 13.44-6.72 7.44 0 13.46 3.02 13.46 6.72zM708.66 256.96c0 3.7-6.02 6.72-13.44 6.72s-13.44-3.02-13.44-6.72c0-3.7 6.02-6.72 13.44-6.72s13.44 3.02 13.44 6.72zM769.62 256.96c0 3.7-6.02 6.72-13.44 6.72-7.44 0-13.44-3.02-13.44-6.72 0-3.7 6-6.72 13.44-6.72 7.42 0 13.44 3.02 13.44 6.72zM830.56 256.96c0 3.7-6.02 6.72-13.44 6.72s-13.44-3.02-13.44-6.72c0-3.7 6.02-6.72 13.44-6.72s13.44 3.02 13.44 6.72zM188.78 271.28c0 3.72-6.02 6.72-13.44 6.72-5.06 0-9.46-1.4-11.76-3.46l4.98-9.04c2-0.6 4.3-0.92 6.78-0.92 7.42 0 13.44 3 13.44 6.7zM249.72 271.28c0 3.72-6.02 6.72-13.44 6.72s-13.44-3-13.44-6.72c0-3.7 6.02-6.7 13.44-6.7s13.44 3 13.44 6.7zM310.68 271.28c0 3.72-6.02 6.72-13.44 6.72s-13.44-3-13.44-6.72c0-3.7 6.02-6.7 13.44-6.7s13.44 3 13.44 6.7zM371.62 271.28c0 3.72-6 6.72-13.44 6.72-7.42 0-13.44-3-13.44-6.72 0-3.7 6.02-6.7 13.44-6.7 7.44 0 13.44 3 13.44 6.7zM432.58 271.28c0 3.72-6.02 6.72-13.44 6.72s-13.44-3-13.44-6.72c0-3.7 6.02-6.7 13.44-6.7s13.44 3 13.44 6.7zM493.54 271.28c0 3.72-6.02 6.72-13.44 6.72-7.44 0-13.44-3-13.44-6.72 0-3.7 6-6.7 13.44-6.7 7.42 0 13.44 3 13.44 6.7zM554.48 271.28c0 3.72-6.02 6.72-13.44 6.72s-13.44-3-13.44-6.72c0-3.7 6.02-6.7 13.44-6.7s13.44 3 13.44 6.7zM615.44 271.28c0 3.72-6.02 6.72-13.44 6.72s-13.44-3-13.44-6.72c0-3.7 6.02-6.7 13.44-6.7s13.44 3 13.44 6.7zM676.4 271.28c0 3.72-6.02 6.72-13.46 6.72-7.42 0-13.44-3-13.44-6.72 0-3.7 6.02-6.7 13.44-6.7 7.44 0 13.46 3 13.46 6.7zM737.34 271.28c0 3.72-6.02 6.72-13.44 6.72s-13.44-3-13.44-6.72c0-3.7 6.02-6.7 13.44-6.7s13.44 3 13.44 6.7zM798.3 271.28c0 3.72-6.02 6.72-13.44 6.72-7.44 0-13.44-3-13.44-6.72 0-3.7 6-6.7 13.44-6.7 7.42 0 13.44 3 13.44 6.7zM859.12 272.16c-0.88 3.3-6.5 5.84-13.32 5.84-7.42 0-13.44-3-13.44-6.72 0-3.7 6.02-6.7 13.44-6.7 4.28 0 8.08 0.98 10.54 2.54l2.78 5.04zM217.46 285.6c0 3.72-6.02 6.72-13.44 6.72-7.44 0-13.46-3-13.46-6.72 0-3.7 6.02-6.7 13.46-6.7 7.42 0 13.44 3 13.44 6.7zM278.4 285.6c0 3.72-6.02 6.72-13.44 6.72s-13.44-3-13.44-6.72c0-3.7 6.02-6.7 13.44-6.7s13.44 3 13.44 6.7zM339.36 285.6c0 3.72-6.02 6.72-13.44 6.72s-13.44-3-13.44-6.72c0-3.7 6.02-6.7 13.44-6.7s13.44 3 13.44 6.7zM400.3 285.6c0 3.72-6 6.72-13.44 6.72-7.42 0-13.44-3-13.44-6.72 0-3.7 6.02-6.7 13.44-6.7 7.44 0 13.44 3 13.44 6.7zM461.26 285.6c0 3.72-6.02 6.72-13.44 6.72s-13.44-3-13.44-6.72c0-3.7 6.02-6.7 13.44-6.7s13.44 3 13.44 6.7zM522.22 285.6c0 3.72-6.02 6.72-13.44 6.72-7.44 0-13.44-3-13.44-6.72 0-3.7 6-6.7 13.44-6.7 7.42 0 13.44 3 13.44 6.7zM583.16 285.6c0 3.72-6.02 6.72-13.44 6.72s-13.44-3-13.44-6.72c0-3.7 6.02-6.7 13.44-6.7s13.44 3 13.44 6.7zM644.12 285.6c0 3.72-6.02 6.72-13.44 6.72s-13.44-3-13.44-6.72c0-3.7 6.02-6.7 13.44-6.7s13.44 3 13.44 6.7zM705.08 285.6c0 3.72-6.02 6.72-13.46 6.72-7.42 0-13.44-3-13.44-6.72 0-3.7 6.02-6.7 13.44-6.7 7.44 0 13.46 3 13.46 6.7zM766.02 285.6c0 3.72-6.02 6.72-13.44 6.72s-13.44-3-13.44-6.72c0-3.7 6.02-6.7 13.44-6.7s13.44 3 13.44 6.7zM826.98 285.6c0 3.72-6.02 6.72-13.44 6.72-7.44 0-13.44-3-13.44-6.72 0-3.7 6-6.7 13.44-6.7 7.42 0 13.44 3 13.44 6.7zM870 291.92c-5.22-0.92-8.96-3.4-8.96-6.32 0-1.62 1.18-3.12 3.12-4.28l5.84 10.6zM185.18 299.92c0 3.72-6.02 6.72-13.44 6.72s-13.44-3-13.44-6.72c0-3.7 6.02-6.7 13.44-6.7s13.44 3 13.44 6.7zM246.14 299.92c0 3.72-6.02 6.72-13.44 6.72-7.44 0-13.46-3-13.46-6.72 0-3.7 6.02-6.7 13.46-6.7 7.42 0 13.44 3 13.44 6.7zM307.08 299.92c0 3.72-6.02 6.72-13.44 6.72s-13.44-3-13.44-6.72c0-3.7 6.02-6.7 13.44-6.7s13.44 3 13.44 6.7zM368.04 299.92c0 3.72-6.02 6.72-13.44 6.72s-13.44-3-13.44-6.72c0-3.7 6.02-6.7 13.44-6.7s13.44 3 13.44 6.7zM429 299.92c0 3.72-6.02 6.72-13.46 6.72-7.42 0-13.44-3-13.44-6.72 0-3.7 6.02-6.7 13.44-6.7 7.44 0 13.46 3 13.46 6.7zM489.94 299.92c0 3.72-6.02 6.72-13.44 6.72s-13.44-3-13.44-6.72c0-3.7 6.02-6.7 13.44-6.7s13.44 3 13.44 6.7zM550.9 299.92c0 3.72-6.02 6.72-13.44 6.72-7.44 0-13.44-3-13.44-6.72 0-3.7 6-6.7 13.44-6.7 7.42 0 13.44 3 13.44 6.7zM611.84 299.92c0 3.72-6.02 6.72-13.44 6.72s-13.44-3-13.44-6.72c0-3.7 6.02-6.7 13.44-6.7s13.44 3 13.44 6.7zM672.8 299.92c0 3.72-6.02 6.72-13.44 6.72s-13.44-3-13.44-6.72c0-3.7 6.02-6.7 13.44-6.7s13.44 3 13.44 6.7zM733.76 299.92c0 3.72-6.02 6.72-13.46 6.72-7.42 0-13.44-3-13.44-6.72 0-3.7 6.02-6.7 13.44-6.7 7.44 0 13.46 3 13.46 6.7zM794.7 299.92c0 3.72-6.02 6.72-13.44 6.72s-13.44-3-13.44-6.72c0-3.7 6.02-6.7 13.44-6.7s13.44 3 13.44 6.7zM855.66 299.92c0 3.72-6.02 6.72-13.44 6.72-7.44 0-13.44-3-13.44-6.72 0-3.7 6-6.7 13.44-6.7 7.42 0 13.44 3 13.44 6.7zM152.9 314.24c0 3.72-6 6.72-13.44 6.72-0.48 0-0.96-0.02-1.44-0.04l7.04-12.78c4.62 1.06 7.84 3.4 7.84 6.1zM213.86 314.24c0 3.72-6.02 6.72-13.44 6.72s-13.44-3-13.44-6.72c0-3.7 6.02-6.7 13.44-6.7s13.44 3 13.44 6.7zM274.82 314.24c0 3.72-6.02 6.72-13.44 6.72-7.44 0-13.46-3-13.46-6.72 0-3.7 6.02-6.7 13.46-6.7 7.42 0 13.44 3 13.44 6.7zM335.76 314.24c0 3.72-6.02 6.72-13.44 6.72s-13.44-3-13.44-6.72c0-3.7 6.02-6.7 13.44-6.7s13.44 3 13.44 6.7zM396.72 314.24c0 3.72-6.02 6.72-13.44 6.72s-13.44-3-13.44-6.72c0-3.7 6.02-6.7 13.44-6.7s13.44 3 13.44 6.7zM457.68 314.24c0 3.72-6.02 6.72-13.46 6.72-7.42 0-13.44-3-13.44-6.72 0-3.7 6.02-6.7 13.44-6.7 7.44 0 13.46 3 13.46 6.7zM518.62 314.24c0 3.72-6.02 6.72-13.44 6.72s-13.44-3-13.44-6.72c0-3.7 6.02-6.7 13.44-6.7s13.44 3 13.44 6.7zM579.58 314.24c0 3.72-6.02 6.72-13.44 6.72-7.44 0-13.44-3-13.44-6.72 0-3.7 6-6.7 13.44-6.7 7.42 0 13.44 3 13.44 6.7zM640.52 314.24c0 3.72-6.02 6.72-13.44 6.72s-13.44-3-13.44-6.72c0-3.7 6.02-6.7 13.44-6.7s13.44 3 13.44 6.7zM701.48 314.24c0 3.72-6.02 6.72-13.44 6.72s-13.44-3-13.44-6.72c0-3.7 6.02-6.7 13.44-6.7s13.44 3 13.44 6.7zM762.44 314.24c0 3.72-6.02 6.72-13.46 6.72-7.42 0-13.44-3-13.44-6.72 0-3.7 6.02-6.7 13.44-6.7 7.44 0 13.46 3 13.46 6.7zM823.38 314.24c0 3.72-6.02 6.72-13.44 6.72s-13.44-3-13.44-6.72c0-3.7 6.02-6.7 13.44-6.7s13.44 3 13.44 6.7zM883.54 316.5c-1.84 2.6-6.8 4.46-12.64 4.46-7.44 0-13.44-3-13.44-6.72 0-3.7 6-6.7 13.44-6.7 3.24 0 6.24 0.58 8.56 1.54l4.08 7.42zM181.58 328.58c0 3.7-6 6.7-13.44 6.7-7.42 0-13.44-3-13.44-6.7 0-3.72 6.02-6.72 13.44-6.72 7.44 0 13.44 3 13.44 6.72zM242.54 328.58c0 3.7-6.02 6.7-13.44 6.7s-13.44-3-13.44-6.7c0-3.72 6.02-6.72 13.44-6.72s13.44 3 13.44 6.72zM303.5 328.58c0 3.7-6.02 6.7-13.44 6.7-7.44 0-13.46-3-13.46-6.7 0-3.72 6.02-6.72 13.46-6.72 7.42 0 13.44 3 13.44 6.72zM364.44 328.58c0 3.7-6.02 6.7-13.44 6.7s-13.44-3-13.44-6.7c0-3.72 6.02-6.72 13.44-6.72s13.44 3 13.44 6.72zM425.4 328.58c0 3.7-6.02 6.7-13.44 6.7s-13.44-3-13.44-6.7c0-3.72 6.02-6.72 13.44-6.72s13.44 3 13.44 6.72zM486.36 328.58c0 3.7-6.02 6.7-13.46 6.7-7.42 0-13.44-3-13.44-6.7 0-3.72 6.02-6.72 13.44-6.72 7.44 0 13.46 3 13.46 6.72zM547.3 328.58c0 3.7-6.02 6.7-13.44 6.7s-13.44-3-13.44-6.7c0-3.72 6.02-6.72 13.44-6.72s13.44 3 13.44 6.72zM608.26 328.58c0 3.7-6.02 6.7-13.44 6.7-7.44 0-13.44-3-13.44-6.7 0-3.72 6-6.72 13.44-6.72 7.42 0 13.44 3 13.44 6.72zM669.2 328.58c0 3.7-6.02 6.7-13.44 6.7s-13.44-3-13.44-6.7c0-3.72 6.02-6.72 13.44-6.72s13.44 3 13.44 6.72zM730.16 328.58c0 3.7-6.02 6.7-13.44 6.7s-13.44-3-13.44-6.7c0-3.72 6.02-6.72 13.44-6.72s13.44 3 13.44 6.72zM791.12 328.58c0 3.7-6.02 6.7-13.46 6.7-7.42 0-13.44-3-13.44-6.7 0-3.72 6.02-6.72 13.44-6.72 7.44 0 13.46 3 13.46 6.72zM852.06 328.58c0 3.7-6.02 6.7-13.44 6.7s-13.44-3-13.44-6.7c0-3.72 6.02-6.72 13.44-6.72s13.44 3 13.44 6.72zM893.5 334.56c-4.38-1.12-7.36-3.38-7.36-5.98 0-1.32 0.76-2.56 2.08-3.6l5.28 9.58zM149.32 342.9c0 1.88-1.56 3.58-4.08 4.8h-18.74a10.22 10.22 0 0 1-2.38-1.56l4.98-9.04c2-0.58 4.3-0.92 6.78-0.92 7.42 0 13.44 3 13.44 6.72zM210.26 342.9c0 1.88-1.56 3.58-4.06 4.8h-18.74c-2.52-1.22-4.08-2.92-4.08-4.8 0-3.72 6.02-6.72 13.44-6.72 7.44 0 13.44 3 13.44 6.72zM271.22 342.9c0 1.88-1.56 3.58-4.06 4.8h-18.76c-2.5-1.22-4.06-2.92-4.06-4.8 0-3.72 6.02-6.72 13.44-6.72s13.44 3 13.44 6.72zM332.18 342.9c0 1.88-1.56 3.58-4.08 4.8h-18.74c-2.5-1.22-4.08-2.92-4.08-4.8 0-3.72 6.02-6.72 13.46-6.72 7.42 0 13.44 3 13.44 6.72zM393.12 342.9c0 1.88-1.56 3.58-4.06 4.8h-18.74c-2.52-1.22-4.08-2.92-4.08-4.8 0-3.72 6.02-6.72 13.44-6.72s13.44 3 13.44 6.72zM454.08 342.9c0 1.88-1.56 3.58-4.06 4.8h-18.76c-2.5-1.22-4.06-2.92-4.06-4.8 0-3.72 6.02-6.72 13.44-6.72s13.44 3 13.44 6.72zM515.04 342.9c0 1.88-1.58 3.58-4.08 4.8h-18.74c-2.52-1.22-4.08-2.92-4.08-4.8 0-3.72 6.02-6.72 13.44-6.72 7.44 0 13.46 3 13.46 6.72zM575.98 342.9c0 1.88-1.56 3.58-4.06 4.8h-18.76c-2.5-1.22-4.06-2.92-4.06-4.8 0-3.72 6.02-6.72 13.44-6.72s13.44 3 13.44 6.72zM636.94 342.9c0 1.88-1.56 3.58-4.08 4.8h-18.74c-2.5-1.22-4.06-2.92-4.06-4.8 0-3.72 6-6.72 13.44-6.72 7.42 0 13.44 3 13.44 6.72zM697.88 342.9c0 1.88-1.56 3.58-4.06 4.8h-18.74c-2.52-1.22-4.08-2.92-4.08-4.8 0-3.72 6.02-6.72 13.44-6.72s13.44 3 13.44 6.72zM758.84 342.9c0 1.88-1.56 3.58-4.06 4.8h-18.76c-2.5-1.22-4.06-2.92-4.06-4.8 0-3.72 6.02-6.72 13.44-6.72s13.44 3 13.44 6.72zM819.8 342.9c0 1.88-1.58 3.58-4.08 4.8h-18.74c-2.52-1.22-4.08-2.92-4.08-4.8 0-3.72 6.02-6.72 13.44-6.72 7.44 0 13.46 3 13.46 6.72zM880.74 342.9c0 1.88-1.56 3.58-4.06 4.8h-18.76c-2.5-1.22-4.06-2.92-4.06-4.8 0-3.72 6.02-6.72 13.44-6.72s13.44 3 13.44 6.72z" fill="#FFFFFF" opacity=".2" p-id="54199"></path><path d="M121.8 367.7v94.42a40.054 40.054 0 0 1-5.48-20.26v-74.16h5.48zM132.66 367.7v106.56c-1.98-1.48-3.82-3.12-5.5-4.92v-101.64h5.5zM143.5 367.7v112.32c-1.9-0.64-3.72-1.44-5.48-2.38v-109.94h5.48zM154.34 367.7v114.54c-1.86-0.1-3.7-0.36-5.48-0.72v-113.82h5.48zM165.2 367.7v113.8c-0.22 0.06-0.44 0.1-0.66 0.14-1.58 0.3-3.18 0.5-4.82 0.6v-114.54h5.48zM176.04 367.7v109.94c-1.74 0.92-3.58 1.72-5.48 2.4v-112.34h5.48zM186.9 367.7v101.64c-1.66 1.8-3.5 3.46-5.5 4.94v-106.58h5.5zM197.74 367.7v74.16c0 7.34-1.98 14.3-5.48 20.3v-94.46h5.48z" fill="#FFFFFF" opacity=".2" p-id="54200"></path><path d="M223.22 367.7v94.42a40.054 40.054 0 0 1-5.48-20.26v-74.16h5.48zM234.08 367.7v106.56c-1.98-1.48-3.82-3.12-5.5-4.92v-101.64h5.5zM244.92 367.7v112.32c-1.9-0.64-3.72-1.44-5.48-2.38v-109.94h5.48zM255.76 367.7v114.54c-1.86-0.1-3.7-0.36-5.48-0.72v-113.82h5.48zM266.62 367.7v113.8c-0.22 0.06-0.44 0.1-0.66 0.14-1.58 0.3-3.18 0.5-4.82 0.6v-114.54h5.48zM277.46 367.7v109.94c-1.74 0.92-3.58 1.72-5.48 2.4v-112.34h5.48zM288.32 367.7v101.64c-1.66 1.8-3.5 3.46-5.5 4.94v-106.58h5.5zM299.16 367.7v74.16c0 7.34-1.98 14.3-5.48 20.3v-94.46h5.48z" fill="#FFFFFF" opacity=".2" p-id="54201"></path><path d="M324.64 367.7v94.42a40.054 40.054 0 0 1-5.48-20.26v-74.16h5.48zM335.5 367.7v106.56c-1.98-1.48-3.82-3.12-5.5-4.92v-101.64h5.5zM346.34 367.7v112.32c-1.9-0.64-3.72-1.44-5.48-2.38v-109.94h5.48zM357.18 367.7v114.54c-1.86-0.1-3.7-0.36-5.48-0.72v-113.82h5.48zM368.04 367.7v113.8c-0.22 0.06-0.44 0.1-0.66 0.14-1.58 0.3-3.18 0.5-4.82 0.6v-114.54h5.48zM378.88 367.7v109.94c-1.74 0.92-3.58 1.72-5.48 2.4v-112.34h5.48zM389.74 367.7v101.64c-1.66 1.8-3.5 3.46-5.5 4.94v-106.58h5.5zM400.58 367.7v74.16c0 7.34-1.98 14.3-5.48 20.3v-94.46h5.48z" fill="#FFFFFF" opacity=".2" p-id="54202"></path><path d="M426.06 367.7v94.42a40.054 40.054 0 0 1-5.48-20.26v-74.16h5.48zM436.92 367.7v106.56c-1.98-1.48-3.82-3.12-5.5-4.92v-101.64h5.5zM447.76 367.7v112.32c-1.9-0.64-3.72-1.44-5.48-2.38v-109.94h5.48zM458.6 367.7v114.54c-1.86-0.1-3.7-0.36-5.48-0.72v-113.82h5.48zM469.46 367.7v113.8c-0.22 0.06-0.44 0.1-0.66 0.14-1.58 0.3-3.18 0.5-4.82 0.6v-114.54h5.48zM480.3 367.7v109.94c-1.74 0.92-3.58 1.72-5.48 2.4v-112.34h5.48zM491.16 367.7v101.64c-1.66 1.8-3.5 3.46-5.5 4.94v-106.58h5.5zM502 367.7v74.16c0 7.34-1.98 14.3-5.48 20.3v-94.46H502z" fill="#FFFFFF" opacity=".2" p-id="54203"></path><path d="M527.48 367.7v94.42a40.054 40.054 0 0 1-5.48-20.26v-74.16h5.48zM538.34 367.7v106.56c-1.98-1.48-3.82-3.12-5.5-4.92v-101.64h5.5zM549.18 367.7v112.32c-1.9-0.64-3.72-1.44-5.48-2.38v-109.94h5.48zM560.02 367.7v114.54c-1.86-0.1-3.7-0.36-5.48-0.72v-113.82h5.48zM570.88 367.7v113.8c-0.22 0.06-0.44 0.1-0.66 0.14-1.58 0.3-3.18 0.5-4.82 0.6v-114.54h5.48zM581.72 367.7v109.94c-1.74 0.92-3.58 1.72-5.48 2.4v-112.34h5.48zM592.58 367.7v101.64c-1.66 1.8-3.5 3.46-5.5 4.94v-106.58h5.5zM603.42 367.7v74.16c0 7.34-1.98 14.3-5.48 20.3v-94.46h5.48z" fill="#FFFFFF" opacity=".2" p-id="54204"></path><path d="M628.9 367.7v94.42a40.054 40.054 0 0 1-5.48-20.26v-74.16h5.48zM639.76 367.7v106.56c-1.98-1.48-3.82-3.12-5.5-4.92v-101.64h5.5zM650.6 367.7v112.32c-1.9-0.64-3.72-1.44-5.48-2.38v-109.94h5.48zM661.44 367.7v114.54c-1.86-0.1-3.7-0.36-5.48-0.72v-113.82h5.48zM672.3 367.7v113.8c-0.22 0.06-0.44 0.1-0.66 0.14-1.58 0.3-3.18 0.5-4.82 0.6v-114.54h5.48zM683.14 367.7v109.94c-1.74 0.92-3.58 1.72-5.48 2.4v-112.34h5.48zM694 367.7v101.64c-1.66 1.8-3.5 3.46-5.5 4.94v-106.58H694zM704.84 367.7v74.16c0 7.34-1.98 14.3-5.48 20.3v-94.46h5.48z" fill="#FFFFFF" opacity=".2" p-id="54205"></path><path d="M730.32 367.7v94.42a40.054 40.054 0 0 1-5.48-20.26v-74.16h5.48zM741.18 367.7v106.56c-1.98-1.48-3.82-3.12-5.5-4.92v-101.64h5.5zM752.02 367.7v112.32c-1.9-0.64-3.72-1.44-5.48-2.38v-109.94h5.48zM762.86 367.7v114.54c-1.86-0.1-3.7-0.36-5.48-0.72v-113.82h5.48zM773.72 367.7v113.8c-0.22 0.06-0.44 0.1-0.66 0.14-1.58 0.3-3.18 0.5-4.82 0.6v-114.54h5.48zM784.56 367.7v109.94c-1.74 0.92-3.58 1.72-5.48 2.4v-112.34h5.48zM795.42 367.7v101.64c-1.66 1.8-3.5 3.46-5.5 4.94v-106.58h5.5zM806.26 367.7v74.16c0 7.34-1.98 14.3-5.48 20.3v-94.46h5.48z" fill="#FFFFFF" opacity=".2" p-id="54206"></path><path d="M831.74 367.7v94.42a40.054 40.054 0 0 1-5.48-20.26v-74.16h5.48zM842.6 367.7v106.56c-1.98-1.48-3.82-3.12-5.5-4.92v-101.64h5.5zM853.44 367.7v112.32c-1.9-0.64-3.72-1.44-5.48-2.38v-109.94h5.48zM864.28 367.7v114.54c-1.86-0.1-3.7-0.36-5.48-0.72v-113.82h5.48zM875.14 367.7v113.8c-0.22 0.06-0.44 0.1-0.66 0.14-1.58 0.3-3.18 0.5-4.82 0.6v-114.54h5.48zM885.98 367.7v109.94c-1.74 0.92-3.58 1.72-5.48 2.4v-112.34h5.48zM896.84 367.7v101.64c-1.66 1.8-3.5 3.46-5.5 4.94v-106.58h5.5zM907.68 367.7v74.16c0 7.34-1.98 14.3-5.48 20.3v-94.46h5.48z" fill="#FFFFFF" opacity=".2" p-id="54207"></path><path d="M493.38 849.46H393.4l-170.62-170.62v-99.98zM609.08 849.46h-76.84L222.78 540v-49.26a60.494 60.494 0 0 0 39.08 11.5l347.22 347.22zM801.22 833.78v15.68h-112.08l-351.18-351.2c6.8 2.64 14.18 4.08 21.92 4.08 21.16 0 39.84-10.86 50.7-27.28 10.86 16.42 29.54 27.28 50.72 27.28 2.7 0 5.36-0.18 7.96-0.52l331.96 331.96z" fill="#FFFFFF" opacity=".2" p-id="54208"></path></svg>