<?xml version="1.0" standalone="no"?><!DOCTYPE svg PUBLIC "-//W3C//DTD SVG 1.1//EN" "http://www.w3.org/Graphics/SVG/1.1/DTD/svg11.dtd"><svg t="1625812250127" class="icon" viewBox="0 0 1024 1024" version="1.1" xmlns="http://www.w3.org/2000/svg" p-id="56870" xmlns:xlink="http://www.w3.org/1999/xlink" width="200" height="200"><defs><style type="text/css"></style></defs><path d="M615.64 588.34H306.62c-5.52 0-10 4.48-10 10v331.74c0 5.52 4.48 10 10 10h309.02c5.52 0 10-4.48 10-10V598.34c0-5.52-4.48-10-10-10z m-10 331.74H316.62V608.34h289.02v311.74z" fill="#23130D" p-id="56871"></path><path d="M835.7 335.82c-0.02-0.44-0.06-0.9-0.14-1.34-0.06-0.32-0.18-0.62-0.26-0.92-0.1-0.32-0.16-0.62-0.3-0.94-0.12-0.3-0.28-0.58-0.44-0.86a7.1 7.1 0 0 0-0.46-0.86c-0.18-0.28-0.4-0.52-0.62-0.78-0.2-0.24-0.38-0.5-0.6-0.72-0.32-0.34-0.7-0.62-1.06-0.9-0.14-0.12-0.26-0.24-0.4-0.34l-0.06-0.04c-0.02 0-0.02-0.02-0.02-0.02L734 261.3V123.46c0-5.52-4.48-10-10-10h-80.08V46.2c0-5.52-4.48-10-10-10s-10 4.48-10 10v67.26h-95.2V46.2c0-5.52-4.48-10-10-10s-10 4.48-10 10v67.26h-95.2V46.2c0-5.52-4.48-10-10-10s-10 4.48-10 10v67.26h-95.2V46.2c0-5.52-4.46-10-10-10-5.52 0-10 4.48-10 10v67.26H198.24c-5.52 0-10 4.48-10 10V977.8c0 5.52 4.48 10 10 10h627.52c5.52 0 10-4.48 10-10V336.4c0-0.2-0.06-0.38-0.06-0.58z m-201.78-114.08c5.52 0 10-4.48 10-10V187.88h13.84v47.68h-47.68V187.88h13.84v23.86c0 5.52 4.48 10 10 10z m0.02 215.5c13.14 0 23.82 10.7 23.82 23.84s-10.7 23.84-23.84 23.84c-13.12 0-23.82-10.68-23.84-23.8v-0.06-0.04c0.04-13.12 10.7-23.76 23.82-23.78h0.04zM528.72 133.46h95.2v34.42h-23.84c-5.52 0-10 4.48-10 10v67.68c0 5.54 4.48 10 10 10h23.84v162.84c-16.16 3.78-28.88 16.52-32.68 32.66h-120.12v-71.08h47.6c5.52 0 10-4.46 10-10v-114.42h23.84c5.52 0 10-4.46 10-10V177.88c0-5.52-4.48-10-10-10h-23.84V133.46z m-10 88.28c5.52 0 10-4.48 10-10V187.88h13.84v47.68h-47.68V187.88h13.84v23.86c0 5.52 4.48 10 10 10z m-105.2-88.28h95.2v34.42h-23.84c-5.52 0-10 4.48-10 10v67.68c0 5.54 4.48 10 10 10h23.84v104.42h-95.2v-104.42h23.84c5.52 0 10-4.46 10-10V177.88c0-5.52-4.48-10-10-10h-23.84V133.46z m-10 88.28c5.52 0 10-4.48 10-10V187.88h13.84v47.68h-47.68V187.88h13.84v23.86c0 5.52 4.48 10 10 10z m-105.2-88.28h95.2v34.42h-23.84c-5.52 0-10 4.48-10 10v67.68c0 5.54 4.48 10 10 10h23.84v114.42c0 5.54 4.48 10 10 10h47.6v71.08H331c-3.78-16.14-16.52-28.88-32.66-32.66v-162.84h23.82c5.52 0 10-4.46 10-10V177.88c0-5.52-4.48-10-10-10h-23.84V133.46z m13.84 327.56v0.1c-0.02 13.12-10.7 23.8-23.84 23.8s-23.84-10.7-23.84-23.84 10.7-23.84 23.82-23.84h0.06c13.12 0.02 23.78 10.68 23.8 23.78z m-23.84-239.28c5.54 0 10-4.48 10-10V187.88h13.84v47.68h-47.68V187.88h13.84v23.86c0 5.52 4.48 10 10 10z m-43.84 328.88V967.8h-36.24V133.46h70.08v34.42h-23.84c-5.52 0-10 4.48-10 10v67.68c0 5.54 4.48 10 10 10h23.86v162.84c-19.38 4.54-33.86 21.94-33.86 42.68 0 24.16 19.68 43.84 43.84 43.84 20.74 0 38.14-14.48 42.68-33.86h120.12v69.56h-196.64c-5.52 0-10 4.48-10 10zM657.76 967.8H264.48V560.62h393.28V967.8z m56.24 0h-36.24V550.62c0-5.52-4.48-10-10-10h-196.64v-69.56h120.12c4.54 19.38 21.94 33.86 42.68 33.86 24.18 0 43.84-19.68 43.84-43.84 0-20.74-14.48-38.14-33.84-42.68v-162.84h23.84c5.52 0 10-4.46 10-10V177.88c0-5.52-4.48-10-10-10h-23.84V133.46H714V967.8z m101.76 0H734V285.56l81.76 56.1V967.8z" fill="#23130D" p-id="56872"></path><path d="M542.56 187.88v47.68h-47.68V187.88h13.84v23.86c0 5.52 4.48 10 10 10s10-4.48 10-10V187.88h13.84zM657.76 187.88v47.68h-47.68V187.88h13.84v23.86c0 5.52 4.48 10 10 10s10-4.48 10-10V187.88h13.84zM427.36 187.88v47.68h-47.68V187.88h13.84v23.86c0 5.52 4.48 10 10 10s10-4.48 10-10V187.88h13.84zM312.16 187.88v47.68h-47.68V187.88h13.84v23.86c0 5.52 4.48 10 10 10 5.54 0 10-4.48 10-10V187.88h13.84zM312.16 461.02v0.1a23.638 23.638 0 0 1-8.16 17.88c-0.98 0.88-2.02 1.66-3.14 2.34-0.58 0.36-1.16 0.7-1.78 1-1.64 0.84-3.38 1.48-5.22 1.92-1.78 0.44-3.64 0.66-5.54 0.66-13.14 0-23.84-10.7-23.84-23.84 0-1.9 0.22-3.76 0.66-5.54 0.44-1.84 1.08-3.58 1.92-5.22 0.32-0.62 0.64-1.2 1-1.78 0.7-1.12 1.48-2.16 2.34-3.14 0.88-1.02 1.86-1.96 2.9-2.82 1.72-1.4 3.62-2.56 5.68-3.44 2.86-1.22 6.02-1.9 9.32-1.9h0.06c13.12 0.02 23.78 10.68 23.8 23.78zM657.76 461.08c0 13.14-10.7 23.84-23.84 23.84-13.12 0-23.82-10.68-23.84-23.8v-0.06-0.04c0.04-13.12 10.7-23.76 23.82-23.78h0.04c13.14 0 23.82 10.7 23.82 23.84z" fill="#F9C139" p-id="56873"></path><path d="M288.35 443.24c9.806 0.016 17.794 7.996 17.81 17.87-0.014 9.82-8.018 17.81-17.84 17.81-9.836 0-17.84-8.004-17.84-17.84s7.994-17.84 17.86-17.84h0.01m0.01-6h-0.06c-13.12 0-23.82 10.7-23.82 23.84s10.7 23.84 23.84 23.84 23.82-10.68 23.84-23.8v-0.06-0.04c-0.02-13.1-10.68-23.76-23.8-23.78zM633.94 443.24c9.826 0 17.82 8.002 17.82 17.84s-8.002 17.84-17.84 17.84c-9.822 0-17.826-7.99-17.84-17.882 0.03-9.8 8.028-17.784 17.84-17.798h0.02m0-6h-0.04c-13.12 0.02-23.78 10.66-23.82 23.78v0.1c0.02 13.12 10.72 23.8 23.84 23.8 13.14 0 23.84-10.7 23.84-23.84s-10.68-23.84-23.82-23.84z" opacity=".2" p-id="56874"></path><path d="M734 285.56V967.8h81.76V341.66L734 285.56z m50.88 648.68c0 5.52-4.48 10-10 10s-10-4.48-10-10V896.4c0-5.52 4.48-10 10-10s10 4.48 10 10v37.84z m0-77.46c0 5.52-4.48 10-10 10s-10-4.48-10-10v-37.86c0-5.52 4.48-10 10-10s10 4.48 10 10v37.86z m0-77.48c0 5.52-4.48 10-10 10s-10-4.48-10-10v-37.84c0-5.52 4.48-10 10-10s10 4.48 10 10v37.84z m0-77.48c0 5.54-4.48 10-10 10s-10-4.46-10-10v-37.84c0-5.52 4.48-10 10-10s10 4.48 10 10v37.84z m0-77.46c0 5.52-4.48 10-10 10s-10-4.48-10-10v-37.84c0-5.54 4.48-10 10-10s10 4.46 10 10v37.84z m0-77.48c0 5.52-4.48 10-10 10s-10-4.48-10-10v-37.84c0-5.52 4.48-10 10-10s10 4.48 10 10v37.84z m0-77.46c0 5.52-4.48 10-10 10s-10-4.48-10-10v-37.86c0-5.52 4.48-10 10-10s10 4.48 10 10v37.86z m0-77.48c0 5.52-4.48 10-10 10s-10-4.48-10-10v-37.84c0-5.52 4.48-10 10-10s10 4.48 10 10v37.84z" fill="#E1E1E5" p-id="56875"></path><path d="M734 285.56V967.8h20V299.28l-20-13.72z" opacity=".2" p-id="56876"></path><path d="M264.48 560.62V967.8h393.28V560.62H264.48z m361.16 369.46c0 5.52-4.48 10-10 10H306.62c-5.52 0-10-4.48-10-10V598.34c0-5.52 4.48-10 10-10h309.02c5.52 0 10 4.48 10 10v331.74z" fill="#E1E1E5" p-id="56877"></path><path d="M316.62 608.34h289.02v311.74H316.62z" fill="#F9C139" p-id="56878"></path><path d="M595.64 618.34v291.74H326.62V618.34h269.02m10-10H316.62v311.74h289.02V608.34z" opacity=".2" p-id="56879"></path><path d="M451.12 471.06v69.56h-196.64c-5.52 0-10 4.48-10 10V967.8h-36.24V133.46h70.08v34.42h-23.84c-5.52 0-10 4.48-10 10v67.68c0 5.54 4.48 10 10 10h23.86v162.84c-19.38 4.54-33.86 21.94-33.86 42.68 0 24.16 19.68 43.84 43.84 43.84 20.74 0 38.14-14.48 42.68-33.86h120.12zM714 133.46V967.8h-36.24V550.62c0-5.52-4.48-10-10-10h-196.64v-69.56h120.12c4.54 19.38 21.94 33.86 42.68 33.86 24.18 0 43.84-19.68 43.84-43.84 0-20.74-14.48-38.14-33.84-42.68v-162.84h23.84c5.52 0 10-4.46 10-10V177.88c0-5.52-4.48-10-10-10h-23.84V133.46H714z" fill="#3594BF" p-id="56880"></path><path d="M451.12 379.98v71.08H331c-3.78-16.14-16.52-28.88-32.66-32.66v-162.84h23.82c5.52 0 10-4.46 10-10V177.88c0-5.52-4.48-10-10-10h-23.84V133.46h95.2v34.42h-23.84c-5.52 0-10 4.48-10 10v67.68c0 5.54 4.48 10 10 10h23.84v114.42c0 5.54 4.48 10 10 10h47.6z" fill="#3594BF" p-id="56881"></path><path d="M474.88 177.88v67.68c0 5.54 4.48 10 10 10h23.84v104.42h-95.2v-104.42h23.84c5.52 0 10-4.46 10-10V177.88c0-5.52-4.48-10-10-10h-23.84V133.46h95.2v34.42h-23.84c-5.52 0-10 4.48-10 10z" fill="#3594BF" p-id="56882"></path><path d="M590.08 177.88v67.68c0 5.54 4.48 10 10 10h23.84v162.84c-16.16 3.78-28.88 16.52-32.68 32.66h-120.12v-71.08h47.6c5.52 0 10-4.46 10-10v-114.42h23.84c5.52 0 10-4.46 10-10V177.88c0-5.52-4.48-10-10-10h-23.84V133.46h95.2v34.42h-23.84c-5.52 0-10 4.48-10 10z" fill="#3594BF" p-id="56883"></path><path d="M272.32 139.46v22.42h-17.84c-8.822 0-16 7.178-16 16v67.68c0 8.822 7.178 16 16 16h17.86v152.316c-20.158 6.786-33.86 25.564-33.86 47.204 0 27.482 22.358 49.84 49.84 49.84 21.64 0 40.418-13.702 47.204-33.86h109.596v57.56h-190.64c-8.822 0-16 7.178-16 16V961.8h-24.24V139.46h58.08m6-6h-70.08V967.8h36.24V550.62c0-5.52 4.48-10 10-10h196.64v-69.56H331c-4.54 19.38-21.94 33.86-42.68 33.86-24.16 0-43.84-19.68-43.84-43.84 0-20.74 14.48-38.14 33.86-42.68v-162.84h-23.86c-5.52 0-10-4.46-10-10V177.88c0-5.52 4.48-10 10-10h23.84V133.46zM708 139.46V961.8h-24.24V550.62c0-8.822-7.178-16-16-16h-190.64v-57.56h109.596c6.786 20.158 25.564 33.86 47.204 33.86 27.482 0 49.84-22.358 49.84-49.84 0-21.638-13.692-40.414-33.84-47.202V261.56h17.84c8.822 0 16-7.178 16-16V177.88c0-8.822-7.178-16-16-16h-17.84V139.46H708m6-6h-70.08v34.42h23.84c5.52 0 10 4.48 10 10v67.68c0 5.54-4.48 10-10 10h-23.84v162.84c19.36 4.54 33.84 21.94 33.84 42.68 0 24.16-19.66 43.84-43.84 43.84-20.74 0-38.14-14.48-42.68-33.86h-120.12v69.56h196.64c5.52 0 10 4.48 10 10V967.8H714V133.46z" opacity=".2" p-id="56884"></path><path d="M387.52 139.46v22.42h-17.84c-8.822 0-16 7.178-16 16v67.68c0 8.822 7.178 16 16 16h17.84v108.42c0 8.822 7.178 16 16 16h41.6v59.08h-109.608c-4.97-14.564-16.608-26.202-31.172-31.172V261.56h17.82c8.822 0 16-7.178 16-16V177.88c0-8.822-7.178-16-16-16h-17.84V139.46h83.2m6-6h-95.2v34.42h23.84c5.52 0 10 4.48 10 10v67.68c0 5.54-4.48 10-10 10h-23.82v162.84c16.14 3.78 28.88 16.52 32.66 32.66h120.12v-71.08h-47.6c-5.52 0-10-4.46-10-10v-114.42h-23.84c-5.52 0-10-4.46-10-10V177.88c0-5.52 4.48-10 10-10h23.84V133.46z" opacity=".2" p-id="56885"></path><path d="M502.72 139.46v22.42h-17.84c-8.822 0-16 7.178-16 16v67.68c0 8.822 7.178 16 16 16h17.84v92.42h-83.2v-92.42h17.84c8.822 0 16-7.178 16-16V177.88c0-8.822-7.178-16-16-16h-17.84V139.46h83.2m6-6h-95.2v34.42h23.84c5.52 0 10 4.48 10 10v67.68c0 5.54-4.48 10-10 10h-23.84v104.42h95.2v-104.42h-23.84c-5.52 0-10-4.46-10-10V177.88c0-5.52 4.48-10 10-10h23.84V133.46z" opacity=".2" p-id="56886"></path><path d="M617.92 139.46v22.42h-17.84c-8.822 0-16 7.178-16 16v67.68c0 8.822 7.178 16 16 16h17.84v152.326c-14.558 4.966-26.202 16.604-31.188 31.174H477.12v-59.08h41.6c8.822 0 16-7.178 16-16v-108.42h17.84c8.822 0 16-7.178 16-16V177.88c0-8.822-7.178-16-16-16h-17.84V139.46h83.2m6-6h-95.2v34.42h23.84c5.52 0 10 4.48 10 10v67.68c0 5.54-4.48 10-10 10h-23.84v114.42c0 5.54-4.48 10-10 10h-47.6v71.08h120.12c3.8-16.14 16.52-28.88 32.68-32.66v-162.84h-23.84c-5.52 0-10-4.46-10-10V177.88c0-5.52 4.48-10 10-10h23.84V133.46z" opacity=".2" p-id="56887"></path><path d="M784.88 586.52v37.84c0 5.52-4.48 10-10 10s-10-4.48-10-10v-37.84c0-5.54 4.48-10 10-10s10 4.46 10 10zM784.88 663.98v37.84c0 5.54-4.48 10-10 10s-10-4.46-10-10v-37.84c0-5.52 4.48-10 10-10s10 4.48 10 10zM784.88 509.04v37.84c0 5.52-4.48 10-10 10s-10-4.48-10-10v-37.84c0-5.52 4.48-10 10-10s10 4.48 10 10zM784.88 431.56v37.86c0 5.52-4.48 10-10 10s-10-4.48-10-10v-37.86c0-5.52 4.48-10 10-10s10 4.48 10 10zM784.88 354.1v37.84c0 5.52-4.48 10-10 10s-10-4.48-10-10v-37.84c0-5.52 4.48-10 10-10s10 4.48 10 10zM784.88 741.46v37.84c0 5.52-4.48 10-10 10s-10-4.48-10-10v-37.84c0-5.52 4.48-10 10-10s10 4.48 10 10zM784.88 818.92v37.86c0 5.52-4.48 10-10 10s-10-4.48-10-10v-37.86c0-5.52 4.48-10 10-10s10 4.48 10 10zM784.88 896.4v37.84c0 5.52-4.48 10-10 10s-10-4.48-10-10V896.4c0-5.52 4.48-10 10-10s10 4.48 10 10z" fill="#23130D" p-id="56888"></path><path d="M569.92 920.08h-50.9l-202.4-202.4v-50.92zM605.64 896.88v23.2h-15.92L316.62 646.98v-38.64h0.5zM605.64 791.04v65.04L357.88 608.34h65.08z" fill="#FFFFFF" opacity=".4" p-id="56889"></path><path d="M299.08 482.34c-1.64 0.84-3.38 1.48-5.22 1.92l-28.72-28.72c0.44-1.84 1.08-3.58 1.92-5.22l32.02 32.02zM304 479c-0.98 0.88-2.02 1.66-3.14 2.34l-32.8-32.8c0.7-1.12 1.48-2.16 2.34-3.14l33.6 33.6zM310.26 470.42c-0.88 2.06-2.04 3.96-3.44 5.68l-33.52-33.52c1.72-1.4 3.62-2.56 5.68-3.44l31.28 31.28z" fill="#FFFFFF" opacity=".4" p-id="56890"></path><path d="M645.3 482.34c-1.64 0.84-3.38 1.48-5.22 1.92l-28.72-28.72c0.44-1.84 1.08-3.58 1.92-5.22l32.02 32.02zM650.22 479c-0.98 0.88-2.02 1.66-3.14 2.34l-32.8-32.8c0.7-1.12 1.48-2.16 2.34-3.14l33.6 33.6zM656.48 470.42c-0.88 2.06-2.04 3.96-3.44 5.68l-33.52-33.52c1.72-1.4 3.62-2.56 5.68-3.44l31.28 31.28z" fill="#FFFFFF" opacity=".4" p-id="56891"></path><path d="M264.48 227.666h47.68v7.894h-47.68zM379.68 227.666h47.68v7.894h-47.68zM494.88 227.666h47.68v7.894h-47.68zM610.08 227.666h47.68v7.894h-47.68z" opacity=".2" p-id="56892"></path></svg>