<?xml version="1.0" standalone="no"?><!DOCTYPE svg PUBLIC "-//W3C//DTD SVG 1.1//EN" "http://www.w3.org/Graphics/SVG/1.1/DTD/svg11.dtd"><svg t="1625812044121" class="icon" viewBox="0 0 1024 1024" version="1.1" xmlns="http://www.w3.org/2000/svg" p-id="50128" xmlns:xlink="http://www.w3.org/1999/xlink" width="200" height="200"><defs><style type="text/css"></style></defs><path d="M492.18 441.02c-0.02-0.22-0.04-0.44-0.08-0.66-0.02-0.12 0-0.24-0.02-0.36-9.04-48.02-29.72-81.2-61.46-98.6-50.5-27.7-109.62-4.56-112.1-3.56-0.22 0.1-0.42 0.22-0.64 0.32-0.28 0.16-0.58 0.3-0.86 0.46-0.3 0.18-0.58 0.4-0.84 0.6-0.24 0.18-0.48 0.36-0.7 0.56-0.26 0.24-0.5 0.5-0.74 0.78-0.18 0.22-0.38 0.42-0.54 0.66a12.692 12.692 0 0 0-1 1.66c-0.14 0.3-0.24 0.6-0.36 0.92-0.1 0.3-0.2 0.58-0.28 0.9-0.08 0.32-0.14 0.66-0.18 0.98-0.04 0.32-0.1 0.62-0.1 0.92-0.02 0.36 0 0.72 0.02 1.1 0 0.2-0.02 0.42 0 0.64 0.32 2.66 8.46 65.62 57.04 96.58 17.16 10.94 37 16.4 59.36 16.4 17.4 0 36.32-3.32 56.66-9.96 0.06-0.02 0.12-0.06 0.18-0.08 0.16-0.06 0.3-0.1 0.46-0.16 0.06-0.02 0.12-0.06 0.16-0.08 0.34-0.14 0.68-0.3 1-0.48 0.06-0.04 0.1-0.06 0.16-0.1 0.08-0.04 0.16-0.1 0.24-0.14 0.12-0.08 0.24-0.16 0.36-0.26 0.24-0.16 0.46-0.32 0.68-0.5 0.12-0.1 0.24-0.2 0.34-0.3 0.1-0.08 0.2-0.16 0.3-0.26 0.04-0.04 0.1-0.1 0.14-0.16 0.26-0.26 0.5-0.52 0.72-0.8 0.06-0.06 0.08-0.12 0.14-0.18 0.02-0.06 0.06-0.12 0.1-0.16 0.1-0.14 0.18-0.28 0.28-0.42 0.08-0.1 0.16-0.22 0.22-0.32s0.08-0.2 0.14-0.28c0.1-0.2 0.2-0.38 0.3-0.58 0.1-0.22 0.18-0.44 0.28-0.66 0.06-0.2 0.14-0.38 0.2-0.58 0.06-0.18 0.12-0.38 0.16-0.56 0.06-0.24 0.1-0.48 0.14-0.72 0.04-0.22 0.08-0.42 0.1-0.62 0.02-0.2 0.04-0.4 0.04-0.6 0.02-0.24 0.02-0.48 0.02-0.7-0.02-0.22-0.02-0.42-0.04-0.64z m-105.12-43.9l69.6 41.22c-30.44 6.12-56.08 2.72-76.46-10.22-31.38-19.92-42.9-57.82-46.56-74.26 16.12-4.72 54.7-12.86 87.36 5.06 21.22 11.64 36.58 32.52 45.84 62.2l-69.6-41.2a9.99 9.99 0 0 0-13.7 3.5 10.008 10.008 0 0 0 3.52 13.7z" fill="#23130D" p-id="50129"></path><path d="M387.06 397.12l69.6 41.22c-30.44 6.12-56.08 2.72-76.46-10.22-31.38-19.92-42.9-57.82-46.56-74.26 16.12-4.72 54.7-12.86 87.36 5.06 21.22 11.64 36.58 32.52 45.84 62.2l-69.6-41.2a9.99 9.99 0 0 0-13.7 3.5 10.008 10.008 0 0 0 3.52 13.7z" fill="#72AF5F" p-id="50130"></path><path d="M456.66 438.34c-30.44 6.12-56.08 2.72-76.46-10.22-31.38-19.92-42.9-57.82-46.56-74.26 1.14-0.34 2.38-0.68 3.72-1.04 6 18.68 18.4 45.12 42.84 60.64 15.7 9.98 34.54 14.28 56.28 12.94l20.18 11.94z" opacity=".2" p-id="50131"></path><path d="M466.84 421.12l-7.34-4.34c-9.26-19.76-22.14-34.22-38.5-43.2-30.36-16.66-65.84-10.8-83.64-6.1-1.72-5.3-2.9-9.98-3.72-13.62 16.12-4.72 54.7-12.86 87.36 5.06 21.22 11.64 36.58 32.52 45.84 62.2z" fill="#FFFFFF" opacity=".4" p-id="50132"></path><path d="M711.62 345.7c-0.04-0.34-0.1-0.68-0.18-1-0.08-0.3-0.18-0.6-0.28-0.88-0.12-0.32-0.22-0.64-0.38-0.94-0.12-0.26-0.26-0.52-0.4-0.76-0.18-0.32-0.38-0.62-0.58-0.92-0.16-0.2-0.34-0.4-0.52-0.6-0.24-0.28-0.5-0.56-0.78-0.84l-0.6-0.48c-0.3-0.24-0.62-0.46-0.94-0.68-0.24-0.14-0.5-0.26-0.74-0.38s-0.48-0.28-0.74-0.38c-2.48-1-61.6-24.14-112.1 3.56-31.74 17.4-52.42 50.58-61.46 98.6-0.02 0.12 0 0.24-0.02 0.36-0.04 0.24-0.08 0.46-0.1 0.68 0 0.2 0 0.38-0.02 0.58v0.74l0.06 0.62c0.02 0.18 0.06 0.38 0.08 0.58 0.06 0.24 0.1 0.48 0.16 0.74 0.04 0.18 0.1 0.38 0.16 0.58 0.06 0.18 0.12 0.36 0.2 0.54 0.08 0.24 0.18 0.46 0.28 0.68 0.1 0.2 0.2 0.4 0.3 0.58 0.06 0.1 0.08 0.18 0.14 0.28 0.06 0.1 0.14 0.2 0.2 0.32l0.3 0.42c0.04 0.04 0.06 0.08 0.08 0.12 0.06 0.06 0.1 0.14 0.16 0.22 0.22 0.28 0.46 0.54 0.7 0.78 0.06 0.06 0.1 0.12 0.16 0.18 0.1 0.1 0.2 0.18 0.28 0.26l0.36 0.3c0.22 0.18 0.44 0.34 0.66 0.5 0.14 0.1 0.26 0.18 0.4 0.26 0.06 0.04 0.12 0.08 0.2 0.12l0.18 0.12c0.32 0.18 0.64 0.34 0.98 0.48 0.06 0.02 0.12 0.06 0.18 0.08 0.16 0.06 0.3 0.1 0.46 0.16 0.06 0.02 0.12 0.06 0.18 0.08 20.34 6.64 39.26 9.96 56.66 9.96 22.36 0 42.2-5.46 59.36-16.4 48.58-30.96 56.72-93.92 57.04-96.58 0.02-0.22 0-0.44 0-0.64 0.02-0.38 0.04-0.74 0.02-1.1 0-0.3-0.06-0.6-0.1-0.9z m-67.8 82.42c-20.38 12.94-46.04 16.34-76.48 10.2l69.6-41.2a10.008 10.008 0 0 0 3.52-13.7 9.99 9.99 0 0 0-13.7-3.5l-69.6 41.2c9.26-29.62 24.58-50.48 45.72-62.12 32.54-17.92 71.28-9.82 87.46-5.12-3.64 16.46-15.16 54.32-46.52 74.24z" fill="#23130D" p-id="50133"></path><path d="M690.34 353.88c-3.64 16.46-15.16 54.32-46.52 74.24-20.38 12.94-46.04 16.34-76.48 10.2l69.6-41.2a10.008 10.008 0 0 0 3.52-13.7 9.99 9.99 0 0 0-13.7-3.5l-69.6 41.2c9.26-29.62 24.58-50.48 45.72-62.12 32.54-17.92 71.28-9.82 87.46-5.12z" fill="#72AF5F" p-id="50134"></path><path d="M566.1 844.24c0 24.36-19.76 44.16-44.1 44.24v28.46c0 5.52-4.48 10-10 10s-10-4.48-10-10v-28.46h-34.1c-5.52 0-10-4.48-10-10s4.48-10 10-10h53.98c13.36 0 24.22-10.88 24.22-24.24S535.24 820 521.88 820h-19.76c-24.38 0-44.22-19.84-44.22-44.22 0-24.36 19.78-44.16 44.1-44.24v-28.46c0-5.52 4.48-10 10-10s10 4.48 10 10v28.46h34.1c5.52 0 10 4.48 10 10s-4.48 10-10 10h-53.98c-13.36 0-24.22 10.88-24.22 24.24S488.76 800 502.12 800h19.76c24.38 0 44.22 19.86 44.22 44.24zM553.5 191.32c0 18-13.88 32.8-31.5 34.3v17.64c0 5.52-4.48 10-10 10s-10-4.48-10-10v-17.48h-21.52c-5.52 0-10-4.48-10-10s4.48-10 10-10h38.58c7.96 0 14.44-6.5 14.44-14.46 0-7.98-6.48-14.46-14.44-14.46h-14.12c-19 0-34.46-15.46-34.46-34.46 0-18.02 13.9-32.82 31.52-34.32v-17.64c0-5.52 4.48-10 10-10s10 4.48 10 10v17.48h21.5c5.54 0 10 4.48 10 10 0 5.54-4.46 10-10 10h-38.56c-7.98 0-14.46 6.5-14.46 14.48 0 7.96 6.48 14.46 14.46 14.46h14.12c19 0 34.44 15.46 34.44 34.46zM342.26 127.56c-21.66 0-39.3 17.62-39.3 39.3 0 21.66 17.64 39.28 39.3 39.28s39.3-17.62 39.3-39.28c0-21.68-17.64-39.3-39.3-39.3z m0 58.58c-10.64 0-19.3-8.64-19.3-19.28s8.66-19.3 19.3-19.3 19.3 8.66 19.3 19.3-8.66 19.28-19.3 19.28z" fill="#23130D" p-id="50135"></path><path d="M512 52.94l-0.02 0.02c-62.8 0-113.88 51.1-113.88 113.9 0 62.8 51.1 113.88 113.9 113.88h0.02c62.8 0 113.88-51.1 113.88-113.88 0-62.82-51.1-113.92-113.9-113.92z m0 207.8h-0.02c-51.76 0-93.88-42.12-93.88-93.88 0-51.78 42.12-93.9 93.9-93.9l0.02-0.02c51.76 0.02 93.88 42.14 93.88 93.92 0 51.76-42.12 93.88-93.9 93.88z" fill="#23130D" p-id="50136"></path><path d="M767.42 101.3V31c0-5.52-4.48-10-10-10H266.58c-5.52 0-10 4.48-10 10v70.3c0 0.02 0.02 0.04 0.02 0.08v130.98c0 0.02-0.02 0.04-0.02 0.06v70.28c0 5.54 4.48 10 10 10h237.5v173.74h-37.9c-5.52 0-10 4.48-10 10v24.92c-14.46 0.72-26 12.66-26 27.3v0.76c0 9.66 5.04 18.14 12.6 23.02v55.46c-74.86 28.58-124.66 100.5-124.66 181.18 0 106.94 86.98 193.92 193.9 193.92s193.92-86.98 193.92-193.92c0-80.66-49.82-152.58-124.68-181.18v-55.48c7.56-4.88 12.6-13.36 12.6-23v-0.76c0-14.64-11.56-26.58-26.02-27.3v-24.92c0-5.52-4.48-10-10-10h-33.76v-173.74h162.9c0.04 0 0.1 0.02 0.14 0.02h70.3c5.52 0 10-4.48 10-10v-70.3c0-0.02-0.02-0.04-0.02-0.06V101.38c0-0.04 0.02-0.06 0.02-0.08zM276.6 41h49.46c-2.04 12.3-7.86 23.62-16.84 32.62-9 9-20.34 14.8-32.62 16.86V41z m0 251.7v-49.46c25.24 4.24 45.2 24.22 49.44 49.46H276.6z m409.34 516.38c0 95.9-78.02 173.92-173.92 173.92s-173.9-78.02-173.9-173.92c0-74.52 47.36-140.72 117.88-164.7a9.986 9.986 0 0 0 6.78-9.46V576.8h41.3v78c-82.02 4.16-147.46 72.18-147.46 155.2 0 85.7 69.7 155.42 155.4 155.42 85.68 0 155.4-69.72 155.4-155.42 0-81.62-63.28-148.7-143.34-154.88V576.8h37.18v58.12c0 4.28 2.74 8.08 6.78 9.46 70.52 24 117.9 90.18 117.9 164.7z m-173.92-134.48c74.66 0 135.4 60.74 135.4 135.4 0 74.68-60.74 135.42-135.4 135.42s-135.4-60.74-135.4-135.42c0-74.66 60.74-135.4 135.4-135.4z m54.46-133.32a7.4 7.4 0 0 1 7.38 7.38v0.76a7.4 7.4 0 0 1-7.38 7.38h-108.92c-4.08 0-7.38-3.32-7.38-7.38v-0.76c0-4.06 3.3-7.38 7.38-7.38h108.92z m-18.64-34.84v14.84h-71.66v-14.84h71.66z m199.56-213.74h-49.44c4.24-25.24 24.2-45.22 49.44-49.46v49.46z m0-69.64c-36.28 4.54-65.1 33.36-69.64 69.64h-163.66-0.02-167.84c-4.54-36.28-33.36-65.1-69.64-69.64v-112.4c17.64-2.18 33.98-10.1 46.76-22.9 12.78-12.78 20.7-29.12 22.88-46.76h331.52c4.54 36.28 33.36 65.12 69.64 69.64v112.42z m0-132.6c-25.24-4.22-45.22-24.2-49.44-49.46h49.44v49.46z" fill="#23130D" p-id="50137"></path><path d="M326.04 292.7H276.6v-49.46c25.24 4.24 45.2 24.22 49.44 49.46zM326.06 41c-2.04 12.3-7.86 23.62-16.84 32.62-9 9-20.34 14.8-32.62 16.86V41h49.46zM747.4 41v49.46c-25.24-4.22-45.22-24.2-49.44-49.46h49.44zM747.4 243.24v49.46h-49.44c4.24-25.24 24.2-45.22 49.44-49.46z" fill="#E1E1E5" p-id="50138"></path><path d="M677.76 41H346.24c-2.18 17.64-10.1 33.98-22.88 46.76-12.78 12.8-29.12 20.72-46.76 22.9v112.4c36.28 4.54 65.1 33.36 69.64 69.64h331.52c4.54-36.28 33.36-65.1 69.64-69.64V110.64c-36.28-4.52-65.1-33.36-69.64-69.64z m-335.5 165.14c-21.66 0-39.3-17.62-39.3-39.28 0-21.68 17.64-39.3 39.3-39.3s39.3 17.62 39.3 39.3c0 21.66-17.64 39.28-39.3 39.28z m169.76 74.6H512c-62.8 0-113.9-51.08-113.9-113.88s51.08-113.9 113.88-113.9l0.02-0.02c62.8 0 113.9 51.1 113.9 113.92 0 62.78-51.08 113.88-113.88 113.88z m169.72-74.6c-21.66 0-39.3-17.62-39.3-39.28 0-21.68 17.64-39.3 39.3-39.3s39.3 17.62 39.3 39.3c0 21.66-17.64 39.28-39.3 39.28z" fill="#72AF5F" p-id="50139"></path><path d="M672.628 47c6.554 34.924 33.868 62.238 68.772 68.776v102.152a86.146 86.146 0 0 0-68.772 68.772H515.14c64.67-1.656 116.76-54.778 116.76-119.84 0-64.844-51.73-117.834-116.08-119.86h156.808m9.112 165.14c24.978 0 45.3-20.312 45.3-45.28 0-24.978-20.322-45.3-45.3-45.3s-45.3 20.322-45.3 45.3c0 24.968 20.322 45.28 45.3 45.28M508.86 47c-64.67 1.658-116.76 54.788-116.76 119.86 0 65.062 52.1 118.184 116.78 119.84h-157.508a86.146 86.146 0 0 0-68.772-68.772V115.802c17.088-3.174 32.56-11.336 45.002-23.8 12.452-12.452 20.608-27.922 23.78-45.002h157.478m-166.6 165.14c24.978 0 45.3-20.312 45.3-45.28 0-24.978-20.322-45.3-45.3-45.3s-45.3 20.322-45.3 45.3c0 24.968 20.322 45.28 45.3 45.28M677.76 41H346.24c-2.18 17.64-10.1 33.98-22.88 46.76-12.78 12.8-29.12 20.72-46.76 22.9v112.4c36.28 4.54 65.1 33.36 69.64 69.64h331.52c4.54-36.28 33.36-65.1 69.64-69.64V110.64c-36.28-4.52-65.1-33.36-69.64-69.64zM512 280.74c-62.8 0-113.9-51.08-113.9-113.88s51.08-113.9 113.88-113.9l0.02-0.02c62.8 0 113.9 51.1 113.9 113.92 0 62.78-51.08 113.88-113.88 113.88H512z m169.74-74.6c-21.66 0-39.3-17.62-39.3-39.28 0-21.68 17.64-39.3 39.3-39.3s39.3 17.62 39.3 39.3c0 21.66-17.64 39.28-39.3 39.28z m-339.48 0c-21.66 0-39.3-17.62-39.3-39.28 0-21.68 17.64-39.3 39.3-39.3 21.66 0 39.3 17.62 39.3 39.3 0 21.66-17.64 39.28-39.3 39.28z" opacity=".2" p-id="50140"></path><path d="M361.56 166.86c0 10.64-8.66 19.28-19.3 19.28s-19.3-8.64-19.3-19.28 8.66-19.3 19.3-19.3 19.3 8.66 19.3 19.3zM520.96 177l12.4 12.4a14.408 14.408 0 0 0-12.4-12.4z m-8.94-104.06l-0.02 0.02c-2.78 0-5.54 0.12-8.26 0.36-14.56 1.28-28.16 5.88-40.06 13.08a92.09 92.09 0 0 0-18.62 14.7 94.094 94.094 0 0 0-13.92 18.06 90.09 90.09 0 0 0-5.44 10.74 92.62 92.62 0 0 0-7.54 34.06c-0.04 0.96-0.06 1.92-0.06 2.9 0 51.76 42.12 93.88 93.88 93.88h0.02c0.96 0 1.92-0.02 2.88-0.06 12.06-0.34 23.54-3 34.06-7.54 3.7-1.58 7.3-3.4 10.74-5.44 6.6-3.9 12.66-8.58 18.08-13.9 5.66-5.54 10.62-11.8 14.7-18.62a93.194 93.194 0 0 0 13.44-48.32c0-51.78-42.12-93.9-93.88-93.92z m31.48 54.98h-38.56c-7.98 0-14.46 6.5-14.46 14.48 0 1.78 0.32 3.48 0.94 5.06a14.314 14.314 0 0 0 8.46 8.46c1.58 0.62 3.28 0.94 5.06 0.94h14.12c19 0 34.44 15.46 34.44 34.46 0 5.32-1.2 10.34-3.38 14.84a34.618 34.618 0 0 1-15.9 16.08c-3.76 1.84-7.88 3.02-12.22 3.38v17.64c0 5.52-4.48 10-10 10s-10-4.48-10-10v-17.48h-21.52c-0.18 0-0.36 0-0.54-0.04a9.896 9.896 0 0 1-9.42-9.42c-0.04-0.18-0.04-0.36-0.04-0.54 0-5.52 4.48-10 10-10h38.58c7.96 0 14.44-6.5 14.44-14.46 0-0.66-0.04-1.3-0.14-1.92a14.408 14.408 0 0 0-12.4-12.4c-0.62-0.1-1.26-0.14-1.9-0.14h-14.12c-19 0-34.46-15.46-34.46-34.46 0-4.68 0.94-9.16 2.64-13.24 3.14-7.48 8.82-13.62 15.98-17.34a34.3 34.3 0 0 1 12.9-3.74v-17.64a9.994 9.994 0 0 1 10-10c5.52 0 10 4.48 10 10v17.48h21.5a9.99 9.99 0 0 1 9.06 14.22 9.96 9.96 0 0 1-9.06 5.78z" fill="#E1E1E5" p-id="50141"></path><path d="M523.888 79.744c42.864 5.83 76.012 42.682 76.012 87.116 0 44.414-33.128 81.238-75.992 87.074A15.94 15.94 0 0 0 528 243.26v-12.518c18.048-4.124 31.5-20.478 31.5-39.422 0-22.31-18.142-40.46-40.44-40.46h-14.12a8.47 8.47 0 0 1 0-16.94h38.56c8.822 0 16-7.178 16-16s-7.178-16-16-16H528v-11.48c0-4.108-1.556-7.86-4.112-10.696m-23.796 0.02A15.944 15.944 0 0 0 496 90.44v12.518c-18.06 4.126-31.52 20.488-31.52 39.442 0 22.31 18.15 40.46 40.46 40.46h14.12a8.46 8.46 0 0 1 0 16.92h-38.58c-8.822 0-16 7.178-16 16s7.178 16 16 16H496v11.48c0 4.1 1.55 7.846 4.096 10.68-42.856-5.82-75.996-42.654-75.996-87.08 0-44.43 33.136-81.268 75.992-87.096m11.928-6.824l-0.02 0.02c-51.78 0-93.9 42.12-93.9 93.9 0 51.76 42.12 93.88 93.88 93.88h0.02c51.78 0 93.9-42.12 93.9-93.88 0-51.78-42.12-93.9-93.88-93.92z m-7.08 103.92c-19 0-34.46-15.46-34.46-34.46 0-18.02 13.9-32.82 31.52-34.32v-17.64c0-5.52 4.48-10 10-10s10 4.48 10 10v17.48h21.5c5.54 0 10 4.48 10 10 0 5.54-4.46 10-10 10h-38.56c-7.98 0-14.46 6.5-14.46 14.48 0 7.96 6.48 14.46 14.46 14.46h14.12c19 0 34.44 15.46 34.44 34.46 0 18-13.88 32.8-31.5 34.3v17.64c0 5.52-4.48 10-10 10s-10-4.48-10-10v-17.48h-21.52c-5.52 0-10-4.48-10-10s4.48-10 10-10h38.58c7.96 0 14.44-6.5 14.44-14.46 0-7.98-6.48-14.46-14.44-14.46h-14.12z" opacity=".2" p-id="50142"></path><path d="M476.18 506.44h71.66v14.84h-71.66z" fill="#636368" p-id="50143"></path><path d="M476.18 506.44h71.66v7.42h-71.66z" opacity=".2" p-id="50144"></path><path d="M573.86 548.66v0.76a7.4 7.4 0 0 1-7.38 7.38h-108.92c-4.08 0-7.38-3.32-7.38-7.38v-0.76c0-4.06 3.3-7.38 7.38-7.38h108.92a7.4 7.4 0 0 1 7.38 7.38z" fill="#E1E1E5" p-id="50145"></path><path d="M573.86 548.66v0.76c0 1.26-0.32 2.44-0.88 3.5a7.428 7.428 0 0 0-6.5-3.88h-108.92c-2.82 0-5.26 1.58-6.5 3.88-0.56-1.06-0.88-2.24-0.88-3.5v-0.76c0-4.06 3.3-7.38 7.38-7.38h108.92a7.4 7.4 0 0 1 7.38 7.38z" opacity=".2" p-id="50146"></path><path d="M685.94 809.08c0 14-1.66 27.6-4.8 40.64-5.66 23.64-16.18 45.4-30.44 64.2a174.162 174.162 0 0 1-29.16 30.16 174.096 174.096 0 0 1-34.86 22.06 170.08 170.08 0 0 1-20.56 8.22c-17.04 5.62-35.22 8.64-54.1 8.64-3.94 0-7.86-0.14-11.74-0.4-86.56-5.8-155.96-75.2-161.76-161.76a174.292 174.292 0 0 1 8.2-65.88c2.32-7.04 5.06-13.92 8.22-20.56a173.044 173.044 0 0 1 22.02-34.92 172.726 172.726 0 0 1 30.14-29.16A173.056 173.056 0 0 1 456 644.38a9.986 9.986 0 0 0 6.78-9.46V576.8h41.3v78c-5.48 0.28-10.88 0.84-16.18 1.68a154.466 154.466 0 0 0-66.96 27.68 156.11 156.11 0 0 0-30.34 28.98 154.258 154.258 0 0 0-21.36 35.56 152.5 152.5 0 0 0-7.42 21.38c-3.4 12.74-5.2 26.12-5.2 39.92 0 11.08 1.16 21.9 3.38 32.32 12.7 59.82 59.9 107.02 119.72 119.72a154.838 154.838 0 0 0 32.3 3.38c13.8 0 27.18-1.8 39.94-5.2a152.5 152.5 0 0 0 21.38-7.42 153.78 153.78 0 0 0 35.54-21.38 154.358 154.358 0 0 0 28.96-30.36 154.034 154.034 0 0 0 27.7-66.94c1.24-7.86 1.88-15.92 1.88-24.12 0-81.62-63.28-148.7-143.34-154.88V576.8h37.18v58.12c0 4.28 2.74 8.08 6.78 9.46 70.52 24 117.9 90.18 117.9 164.7z" fill="#8FDCFF" p-id="50147"></path><path d="M557.26 580.8v54.12a14.002 14.002 0 0 0 9.492 13.246c68.898 23.448 115.188 88.114 115.188 160.914 0 93.694-76.226 169.92-169.92 169.92-93.684 0-169.9-76.226-169.9-169.92 0-72.822 46.282-137.488 115.168-160.912a13.988 13.988 0 0 0 9.492-13.248V580.8h33.3v70.242c-82.996 6.16-147.46 75.262-147.46 158.958 0 87.904 71.506 159.42 159.4 159.42s159.4-71.516 159.4-159.42c0-81.484-62.662-150.414-143.34-158.54V580.8h29.18m4-4h-37.18v78.32c80.06 6.18 143.34 73.26 143.34 154.88 0 85.7-69.72 155.42-155.4 155.42-85.7 0-155.4-69.72-155.4-155.42 0-83.02 65.44-151.04 147.46-155.2v-78h-41.3v58.12c0 4.28-2.72 8.08-6.78 9.46-70.52 23.98-117.88 90.18-117.88 164.7 0 95.9 78 173.92 173.9 173.92s173.92-78.02 173.92-173.92c0-74.52-47.38-140.7-117.9-164.7a10.012 10.012 0 0 1-6.78-9.46V576.8z" opacity=".2" p-id="50148"></path><path d="M521.88 820h-4.96l28.74 28.74c0.3-1.46 0.44-2.96 0.44-4.5 0-13.36-10.86-24.24-24.22-24.24z m-9.86-145.4c-7.54 0-14.92 0.62-22.12 1.82a133.648 133.648 0 0 0-51.58 20.06 135.814 135.814 0 0 0-43.04 44.98c-2.74 4.64-5.2 9.46-7.36 14.42a134.006 134.006 0 0 0-10.98 45.1c-0.22 2.98-0.32 5.98-0.32 9.02 0 74.68 60.74 135.42 135.4 135.42 3.04 0 6.06-0.1 9.04-0.32 15.94-1.04 31.12-4.86 45.08-10.98 4.98-2.16 9.8-4.64 14.44-7.38a136.64 136.64 0 0 0 24.58-18.5c7.72-7.36 14.56-15.58 20.38-24.52 10-15.34 16.98-32.8 20.06-51.58 1.2-7.2 1.82-14.6 1.82-22.14 0-74.66-60.74-135.4-135.4-135.4z m44.08 76.94h-53.98c-2.64 0-5.16 0.42-7.54 1.22-9.68 3.16-16.68 12.3-16.68 23.02 0 2.06 0.26 4.04 0.74 5.94 2.18 8.6 8.94 15.36 17.54 17.54 1.9 0.48 3.88 0.74 5.94 0.74h19.76c24.38 0 44.22 19.86 44.22 44.24 0 7.24-1.74 14.06-4.84 20.1a44.366 44.366 0 0 1-22.36 20.72c-5.2 2.2-10.92 3.4-16.9 3.42v28.46c0 5.52-4.48 10-10 10s-10-4.48-10-10v-28.46h-34.1c-1.64 0-3.2-0.4-4.56-1.1a10.104 10.104 0 0 1-4.34-4.34 10.004 10.004 0 0 1 8.9-14.56h53.98c0.14 0 0.28 0 0.42-0.02 11.64-0.18 21.3-8.64 23.36-19.72 0.3-1.46 0.44-2.96 0.44-4.5 0-13.36-10.86-24.24-24.22-24.24h-19.76c-24.38 0-44.22-19.84-44.22-44.22 0-4.48 0.66-8.8 1.92-12.88 3.24-10.64 10.38-19.58 19.76-25.14 6.56-3.92 14.24-6.2 22.42-6.22v-28.46c0-3.94 2.28-7.34 5.58-8.96a9.92 9.92 0 0 1 4.42-1.04c5.52 0 10 4.48 10 10v28.46h34.1c5.52 0 10 4.48 10 10 0 3.04-1.36 5.76-3.5 7.58-1.74 1.52-4.02 2.42-6.5 2.42z" fill="#F9C139" p-id="50149"></path><path d="M512.02 682.6c70.248 0 127.4 57.152 127.4 127.4 0 7.006-0.576 14.012-1.714 20.846-2.844 17.346-9.192 33.664-18.87 48.51a129.692 129.692 0 0 1-19.174 23.074 128.768 128.768 0 0 1-23.15 17.422 123.41 123.41 0 0 1-13.584 6.942 125.718 125.718 0 0 1-42.456 10.328 115.46 115.46 0 0 1-8.452 0.298c-70.248 0-127.4-57.16-127.4-127.42 0-2.954 0.098-5.712 0.304-8.5a125.906 125.906 0 0 1 10.332-42.426 124.666 124.666 0 0 1 6.92-13.556 127.882 127.882 0 0 1 40.526-42.344 125.024 125.024 0 0 1 48.516-18.864 127.028 127.028 0 0 1 20.802-1.71M494 724.178a51.916 51.916 0 0 0-18.5 6.7 52.06 52.06 0 0 0-23.324 29.662 51.6 51.6 0 0 0-2.276 15.24c0 28.794 23.426 52.22 52.22 52.22h11.486l23.01 23.01c-2.54 5.556-8.12 9.354-14.438 9.452l-0.506 0.008-0.078 0.012H467.9c-9.926 0-18 8.074-18 18a17.986 17.986 0 0 0 18 18H494v20.46c0 9.926 8.074 18 18 18s18-8.074 18-18v-21.088a50.854 50.854 0 0 0 11.982-3.41 52.31 52.31 0 0 0 26.396-24.45 51.516 51.516 0 0 0 5.722-23.752c0-28.806-23.426-52.24-52.22-52.24h-19.76a16.222 16.222 0 0 1-16.22-16.218 16.194 16.194 0 0 1 11.23-15.438 15.654 15.654 0 0 1 4.99-0.802h53.98a17.876 17.876 0 0 0 11.728-4.364 17.918 17.918 0 0 0 6.272-13.636c0-9.926-8.074-18-18-18H530v-20.46c0-9.926-8.074-18-18-18a17.928 17.928 0 0 0-7.946 1.858 17.862 17.862 0 0 0-10.054 16.142v21.094m18.02-49.578c-7.54 0-14.92 0.62-22.12 1.82a133.648 133.648 0 0 0-51.58 20.06 135.814 135.814 0 0 0-43.04 44.98c-2.74 4.64-5.2 9.46-7.36 14.42a134.006 134.006 0 0 0-10.98 45.1c-0.22 2.98-0.32 5.98-0.32 9.02 0 74.68 60.74 135.42 135.4 135.42 3.04 0 6.06-0.1 9.04-0.32 15.94-1.04 31.12-4.86 45.08-10.98 4.98-2.16 9.8-4.64 14.44-7.38a136.64 136.64 0 0 0 24.58-18.5c7.72-7.36 14.56-15.58 20.38-24.52 10-15.34 16.98-32.8 20.06-51.58 1.2-7.2 1.82-14.6 1.82-22.14 0-74.66-60.74-135.4-135.4-135.4z m-9.9 145.4c-24.38 0-44.22-19.84-44.22-44.22 0-4.48 0.66-8.8 1.92-12.88 3.24-10.64 10.38-19.58 19.76-25.14 6.56-3.92 14.24-6.2 22.42-6.22v-28.46c0-3.94 2.28-7.34 5.58-8.96a9.92 9.92 0 0 1 4.42-1.04c5.52 0 10 4.48 10 10v28.46h34.1c5.52 0 10 4.48 10 10 0 3.04-1.36 5.76-3.5 7.58-1.74 1.52-4.02 2.42-6.5 2.42h-53.98c-2.64 0-5.16 0.42-7.54 1.22-9.68 3.16-16.68 12.3-16.68 23.02 0 2.06 0.26 4.04 0.74 5.94 2.18 8.6 8.94 15.36 17.54 17.54 1.9 0.48 3.88 0.74 5.94 0.74h19.76c24.38 0 44.22 19.86 44.22 44.24 0 7.24-1.74 14.06-4.84 20.1a44.366 44.366 0 0 1-22.36 20.72c-5.2 2.2-10.92 3.4-16.9 3.42v28.46c0 5.52-4.48 10-10 10s-10-4.48-10-10v-28.46h-34.1c-1.64 0-3.2-0.4-4.56-1.1a10.104 10.104 0 0 1-4.34-4.34 10.004 10.004 0 0 1 8.9-14.56h53.98c0.14 0 0.28 0 0.42-0.02 11.64-0.18 21.3-8.64 23.36-19.72L516.92 820h-14.8z m19.76 0h-4.96 4.96c13.36 0 24.22 10.88 24.22 24.24 0-13.36-10.86-24.24-24.22-24.24z" opacity=".2" p-id="50150"></path><path d="M681.74 127.56c-21.66 0-39.3 17.62-39.3 39.3 0 21.66 17.64 39.28 39.3 39.28s39.3-17.62 39.3-39.28c0-21.68-17.64-39.3-39.3-39.3z m0 58.58c-10.64 0-19.3-8.64-19.3-19.28s8.66-19.3 19.3-19.3 19.3 8.66 19.3 19.3-8.66 19.28-19.3 19.28z" fill="#23130D" p-id="50151"></path><path d="M701.04 166.86c0 10.64-8.66 19.28-19.3 19.28s-19.3-8.64-19.3-19.28 8.66-19.3 19.3-19.3 19.3 8.66 19.3 19.3z" fill="#E1E1E5" p-id="50152"></path><path d="M567.33 438.34c30.44 6.12 56.08 2.72 76.46-10.22 31.38-19.92 42.9-57.82 46.56-74.26-1.14-0.34-2.38-0.68-3.72-1.04-6 18.68-18.4 45.12-42.84 60.64-15.7 9.98-34.54 14.28-56.28 12.94l-20.18 11.94z" opacity=".2" p-id="50153"></path><path d="M557.15 421.12l7.34-4.34c9.26-19.76 22.14-34.22 38.5-43.2 30.36-16.66 65.84-10.8 83.64-6.1 1.72-5.3 2.9-9.98 3.72-13.62-16.12-4.72-54.7-12.86-87.36 5.06-21.22 11.64-36.58 32.52-45.84 62.2z" fill="#FFFFFF" opacity=".4" p-id="50154"></path><path d="M361.82 770.08c-3.4 12.74-5.2 26.12-5.2 39.92 0 11.08 1.16 21.9 3.38 32.32l-21.48-21.48a174.292 174.292 0 0 1 8.2-65.88l15.1 15.12zM566.12 974.36c-17.04 5.62-35.22 8.64-54.1 8.64-3.94 0-7.86-0.14-11.74-0.4l-20.56-20.56a154.838 154.838 0 0 0 32.3 3.38c13.8 0 27.18-1.8 39.94-5.2l14.16 14.14zM376.96 699.48l13.64 13.66a154.258 154.258 0 0 0-21.36 35.56l-14.3-14.3a173.044 173.044 0 0 1 22.02-34.92zM621.54 944.08a174.096 174.096 0 0 1-34.86 22.06l-13.34-13.34a153.78 153.78 0 0 0 35.54-21.38l12.66 12.66zM462.78 631.36l25.12 25.12a154.466 154.466 0 0 0-66.96 27.68l-13.84-13.84A173.056 173.056 0 0 1 456 644.38a9.986 9.986 0 0 0 6.78-9.46v-3.56zM681.14 849.72c-5.66 23.64-16.18 45.4-30.44 64.2l-12.86-12.86a154.034 154.034 0 0 0 27.7-66.94l15.6 15.6z" fill="#FFFFFF" opacity=".4" p-id="50155"></path><path d="M470.48 215.78c0 0.18 0 0.36 0.04 0.54l-52.36-52.36a92.62 92.62 0 0 1 7.54-34.06l75.88 75.88h-21.1c-5.52 0-10 4.48-10 10zM548.94 253.14c-10.52 4.54-22 7.2-34.06 7.54l-34.94-34.94c0.18 0.04 0.36 0.04 0.54 0.04H502v17.48c0 5.52 4.48 10 10 10s10-4.48 10-10v-17.06l26.94 26.94zM491.42 147.46l8.46 8.46a14.314 14.314 0 0 1-8.46-8.46z" fill="#FFFFFF" opacity=".4" p-id="50156"></path><path d="M533.5 191.32c0 7.96-6.48 14.46-14.44 14.46h-1.3l-86.62-86.62c3.9-6.58 8.58-12.64 13.92-18.06l28.06 28.06c-1.7 4.08-2.64 8.56-2.64 13.24 0 19 15.46 34.46 34.46 34.46h14.12c0.64 0 1.28 0.04 1.9 0.14l12.4 12.4c0.1 0.62 0.14 1.26 0.14 1.92zM577.76 233.8c-5.42 5.32-11.48 10-18.08 13.9l-25.46-25.46c6.94-3.42 12.56-9.1 15.9-16.08l27.64 27.64zM510.92 80.5a9.994 9.994 0 0 0-8.92 9.94v17.64c-4.62 0.4-8.98 1.7-12.9 3.74L463.68 86.4c11.9-7.2 25.5-11.8 40.06-13.08l7.18 7.18zM538.34 107.92H522v-16.34zM605.54 175.12a93.194 93.194 0 0 1-13.08 40.06L505.2 127.92h38.3a9.96 9.96 0 0 0 9.06-5.78l52.98 52.98z" fill="#FFFFFF" opacity=".4" p-id="50157"></path><path d="M457.9 878.48c0 1.64 0.4 3.2 1.1 4.56l-82.06-82.06c1.04-15.94 4.86-31.12 10.98-45.1l112.58 112.6h-32.6c-5.52 0-10 4.48-10 10zM566.14 934.12a133.778 133.778 0 0 1-45.08 10.98l-57.72-57.72c1.36 0.7 2.92 1.1 4.56 1.1H502v28.46c0 5.52 4.48 10 10 10s10-4.48 10-10v-26.96l44.14 44.14zM478.64 781.72l17.54 17.54c-8.6-2.18-15.36-8.94-17.54-17.54z" fill="#FFFFFF" opacity=".4" p-id="50158"></path><path d="M545.66 848.74c-2.06 11.08-11.72 19.54-23.36 19.72l-127.02-127c5.24-8.9 11.46-17.14 18.52-24.58l46.02 46.02c-1.26 4.08-1.92 8.4-1.92 12.88 0 24.38 19.84 44.22 44.22 44.22h14.8l28.74 28.74zM605.16 908.24a136.64 136.64 0 0 1-24.58 18.5l-41.68-41.68c9.68-4.04 17.62-11.44 22.36-20.72l43.9 43.9zM502 731.54c-8.18 0.02-15.86 2.3-22.42 6.22l-41.26-41.28c15.32-10.02 32.8-16.98 51.58-20.06l17.68 17.7a9.974 9.974 0 0 0-5.58 8.96v28.46zM545.02 731.54H522v-23.02zM645.6 832.14c-3.08 18.78-10.06 36.24-20.06 51.58l-130.96-130.96c2.38-0.8 4.9-1.22 7.54-1.22h53.98c2.48 0 4.76-0.9 6.5-2.42l83 83.02z" fill="#FFFFFF" opacity=".4" p-id="50159"></path></svg>