<?xml version="1.0" standalone="no"?><!DOCTYPE svg PUBLIC "-//W3C//DTD SVG 1.1//EN" "http://www.w3.org/Graphics/SVG/1.1/DTD/svg11.dtd"><svg t="1625811776843" class="icon" viewBox="0 0 1024 1024" version="1.1" xmlns="http://www.w3.org/2000/svg" p-id="37616" xmlns:xlink="http://www.w3.org/1999/xlink" width="200" height="200"><defs><style type="text/css"></style></defs><path d="M874.56 54.32H250.88c-33.48 0-60.7 27.24-60.7 60.72 0 0.48 0.06 0.92 0.14 1.38-0.08 0.48-0.16 0.96-0.16 1.46v328.44H98.74c-5.52 0-10 4.48-10 10v452.14c0.02 32.36 25.46 58.88 57.4 60.6 1.04 0.38 2.14 0.6 3.3 0.6h50.6c0.04 0 0.08 0.02 0.12 0.02h572.96c33.48 0 60.72-27.24 60.72-60.72v-647.8h91.42c2.76 0 5.26-1.12 7.06-2.92 1.82-1.82 2.94-4.32 2.94-7.08V115.04c0-33.48-27.22-60.7-60.7-60.72zM190.16 908.44c0 22.46-18.26 40.72-40.7 40.72-22.46 0-40.72-18.26-40.72-40.72V466.32h81.42v442.12z m623.68 0.52c0 22.46-18.26 40.72-40.72 40.72H200.28c-0.04 0-0.08-0.02-0.12-0.02h-6.2c10.04-10.82 16.18-25.28 16.2-41.14V117.88c0-0.48-0.06-0.94-0.14-1.4 0.08-0.48 0.16-0.94 0.16-1.44 0-22.44 18.24-40.7 40.68-40.72h0.1c22.42 0.04 40.64 18.3 40.64 40.72v136.12c0 5.52 4.48 10 10 10h512.24v647.8z m101.42-667.8H311.6V115.04c0-15.66-5.96-29.94-15.72-40.72h578.68c22.44 0 40.7 18.26 40.7 40.72v126.12z" fill="#23130D" p-id="37617"></path><path d="M915.26 115.04v126.12H311.6V115.04c0-15.66-5.96-29.94-15.72-40.72h578.68c22.44 0 40.7 18.26 40.7 40.72z" fill="#636368" p-id="37618"></path><path d="M915.26 115.04v38c0-22.46-18.26-40.72-40.7-40.72H311.54c-0.64-14.6-6.46-27.84-15.66-38h578.68c22.44 0 40.7 18.26 40.7 40.72z" fill="#23130D" opacity=".2" p-id="37619"></path><path d="M301.6 261.16c-5.52 0-10-4.48-10-10V115.04c0-22.42-18.22-40.68-40.64-40.72h-0.1c-22.44 0.02-40.68 18.28-40.68 40.72 0 0.5-0.08 0.96-0.16 1.44 0.08 0.46 0.14 0.92 0.14 1.4v790.64c-0.02 15.86-6.16 30.32-16.2 41.14h6.2c0.04 0 0.08 0.02 0.12 0.02h572.84c22.46 0 40.72-18.26 40.72-40.72v-647.8H301.6zM506 906H284c-5.52 0-10-4.48-10-10s4.48-10 10-10h222c5.52 0 10 4.48 10 10s-4.48 10-10 10z m0-48H284c-5.52 0-10-4.48-10-10s4.48-10 10-10h222c5.52 0 10 4.48 10 10s-4.48 10-10 10z m0-48H284c-5.52 0-10-4.48-10-10s4.48-10 10-10h222c5.52 0 10 4.48 10 10s-4.48 10-10 10z m0-48H284c-5.52 0-10-4.48-10-10s4.48-10 10-10h222c5.52 0 10 4.48 10 10s-4.48 10-10 10z m30-48H284c-5.52 0-10-4.48-10-10V464c0-5.52 4.48-10 10-10h252c5.52 0 10 4.48 10 10v240c0 5.52-4.48 10-10 10z m198 192h-180c-5.52 0-10-4.48-10-10s4.48-10 10-10h180c5.52 0 10 4.48 10 10s-4.48 10-10 10z m0-48h-180c-5.52 0-10-4.48-10-10s4.48-10 10-10h180c5.52 0 10 4.48 10 10s-4.48 10-10 10z m0-48h-180c-5.52 0-10-4.48-10-10s4.48-10 10-10h180c5.52 0 10 4.48 10 10s-4.48 10-10 10z m0-48h-180c-5.52 0-10-4.48-10-10s4.48-10 10-10h180c5.52 0 10 4.48 10 10s-4.48 10-10 10z m2-48h-160c-5.52 0-10-4.48-10-10s4.48-10 10-10h160c5.52 0 10 4.48 10 10s-4.48 10-10 10z m0-48h-160c-5.52 0-10-4.48-10-10s4.48-10 10-10h160c5.52 0 10 4.48 10 10s-4.48 10-10 10z m0-48h-160c-5.52 0-10-4.48-10-10s4.48-10 10-10h160c5.52 0 10 4.48 10 10s-4.48 10-10 10z m0-48h-160c-5.52 0-10-4.48-10-10s4.48-10 10-10h160c5.52 0 10 4.48 10 10s-4.48 10-10 10z m0-48h-160c-5.52 0-10-4.48-10-10s4.48-10 10-10h160c5.52 0 10 4.48 10 10s-4.48 10-10 10z m0-48h-160c-5.52 0-10-4.48-10-10s4.48-10 10-10h160c5.52 0 10 4.48 10 10s-4.48 10-10 10z m0-48H284c-5.52 0-10-4.48-10-10s4.48-10 10-10h452c5.52 0 10 4.48 10 10s-4.48 10-10 10z m0-48H284c-5.52 0-10-4.48-10-10s4.48-10 10-10h452c5.52 0 10 4.48 10 10s-4.48 10-10 10z m0-48H284c-5.52 0-10-4.48-10-10s4.48-10 10-10h452c5.52 0 10 4.48 10 10s-4.48 10-10 10z" fill="#E1E1E5" p-id="37620"></path><path d="M291.6 251.16V115.04c0-22.42-18.22-40.68-40.64-40.72h-0.1c-4.42 0-8.66 0.7-12.64 2.04 16.26 5.32 28.04 20.66 28.04 38.68v136.12c0 5.52 4.48 10 10 10h25.34c-5.52 0-10-4.48-10-10z" fill="#23130D" opacity=".2" p-id="37621"></path><path d="M190.16 466.32v442.12c0 22.46-18.26 40.72-40.7 40.72-22.46 0-40.72-18.26-40.72-40.72V466.32h81.42z" fill="#636368" p-id="37622"></path><path d="M190.16 466.32v442.12c0 22.46-18.26 40.72-40.7 40.72-6.06 0-11.82-1.34-17-3.74 13.98-6.44 23.7-20.58 23.7-36.98V466.32h34z" fill="#23130D" opacity=".2" p-id="37623"></path><path d="M536 454H284c-5.52 0-10 4.48-10 10v240c0 5.52 4.48 10 10 10h252c5.52 0 10-4.48 10-10V464c0-5.52-4.48-10-10-10z m-10 240H294V474h232v220z" fill="#23130D" p-id="37624"></path><path d="M294 474h232v220H294z" fill="#3594BF" p-id="37625"></path><path d="M526 474v13.84H307.84V694H294V474z" fill="#FFFFFF" opacity=".4" p-id="37626"></path><path d="M526 474v220H294v-13.84h218.16V474z" fill="#23130D" opacity=".2" p-id="37627"></path><path d="M746 320c0 5.52-4.48 10-10 10H284c-5.52 0-10-4.48-10-10s4.48-10 10-10h452c5.52 0 10 4.48 10 10zM746 368c0 5.52-4.48 10-10 10H284c-5.52 0-10-4.48-10-10s4.48-10 10-10h452c5.52 0 10 4.48 10 10zM746 416c0 5.52-4.48 10-10 10H284c-5.52 0-10-4.48-10-10s4.48-10 10-10h452c5.52 0 10 4.48 10 10zM746 464c0 5.52-4.48 10-10 10h-160c-5.52 0-10-4.48-10-10s4.48-10 10-10h160c5.52 0 10 4.48 10 10zM746 512c0 5.52-4.48 10-10 10h-160c-5.52 0-10-4.48-10-10s4.48-10 10-10h160c5.52 0 10 4.48 10 10zM746 560c0 5.52-4.48 10-10 10h-160c-5.52 0-10-4.48-10-10s4.48-10 10-10h160c5.52 0 10 4.48 10 10zM746 608c0 5.52-4.48 10-10 10h-160c-5.52 0-10-4.48-10-10s4.48-10 10-10h160c5.52 0 10 4.48 10 10zM746 656c0 5.52-4.48 10-10 10h-160c-5.52 0-10-4.48-10-10s4.48-10 10-10h160c5.52 0 10 4.48 10 10zM746 704c0 5.52-4.48 10-10 10h-160c-5.52 0-10-4.48-10-10s4.48-10 10-10h160c5.52 0 10 4.48 10 10zM516 752c0 5.52-4.48 10-10 10H284c-5.52 0-10-4.48-10-10s4.48-10 10-10h222c5.52 0 10 4.48 10 10zM516 800c0 5.52-4.48 10-10 10H284c-5.52 0-10-4.48-10-10s4.48-10 10-10h222c5.52 0 10 4.48 10 10zM516 848c0 5.52-4.48 10-10 10H284c-5.52 0-10-4.48-10-10s4.48-10 10-10h222c5.52 0 10 4.48 10 10zM516 896c0 5.52-4.48 10-10 10H284c-5.52 0-10-4.48-10-10s4.48-10 10-10h222c5.52 0 10 4.48 10 10zM744 752c0 5.52-4.48 10-10 10h-180c-5.52 0-10-4.48-10-10s4.48-10 10-10h180c5.52 0 10 4.48 10 10zM744 800c0 5.52-4.48 10-10 10h-180c-5.52 0-10-4.48-10-10s4.48-10 10-10h180c5.52 0 10 4.48 10 10zM744 848c0 5.52-4.48 10-10 10h-180c-5.52 0-10-4.48-10-10s4.48-10 10-10h180c5.52 0 10 4.48 10 10zM744 896c0 5.52-4.48 10-10 10h-180c-5.52 0-10-4.48-10-10s4.48-10 10-10h180c5.52 0 10 4.48 10 10z" fill="#23130D" p-id="37628"></path></svg>