<?xml version="1.0" standalone="no"?><!DOCTYPE svg PUBLIC "-//W3C//DTD SVG 1.1//EN" "http://www.w3.org/Graphics/SVG/1.1/DTD/svg11.dtd"><svg t="1625811780304" class="icon" viewBox="0 0 1024 1024" version="1.1" xmlns="http://www.w3.org/2000/svg" p-id="37771" xmlns:xlink="http://www.w3.org/1999/xlink" width="200" height="200"><defs><style type="text/css"></style></defs><path d="M849.4 137.26V125c0-23.42-19.08-42.5-42.52-42.5H422.1V43.04c0-5.52-4.48-10-10-10h-128.32c-5.52 0-10 4.48-10 10v39.46h-56.66c-23.44 0-42.52 19.08-42.52 42.5v12.26c0 21.8 16.52 39.8 37.7 42.2V488.4c-21.18 2.4-37.68 20.4-37.68 42.2v12.26c0 21.8 16.5 39.8 37.68 42.2v308.92c-21.18 2.4-37.7 20.4-37.7 42.22v12.24c0 23.44 19.08 42.52 42.52 42.52h589.76c23.44 0 42.52-19.08 42.52-42.52v-12.24c0-21.82-16.52-39.82-37.7-42.22V585.06c21.18-2.4 37.68-20.4 37.68-42.2v-12.26c0-21.8-16.5-39.8-37.68-42.2V179.46c21.18-2.4 37.7-20.4 37.7-42.2zM293.78 53.04h108.32v29.46h-108.32V53.04zM194.62 542.86v-12.26c0-12.4 10.08-22.5 22.48-22.5h219.68l-21.92 48.62c-1.5 2.8-2.82 5.7-4.06 8.62h-193.7c-12.4 0-22.48-10.08-22.48-22.48z m424.84 42.48h172.24v308.34h-559.4V585.34h172.24c-1.58 7.5-2.44 15.16-2.44 22.88 0 60.6 49.3 109.9 109.9 109.9s109.92-49.3 109.92-109.9c0-7.72-0.86-15.38-2.46-22.88zM512 698.12c-49.58 0-89.9-40.34-89.9-89.9 0-14.8 3.64-29.46 10.56-42.38l0.3-0.6L461.46 502 512 389.94l79.06 175.3 0.3 0.6c6.9 12.92 10.56 27.56 10.56 42.38 0 49.56-40.34 89.9-89.92 89.9z m9.12-336.62c-1.62-3.58-5.18-5.9-9.12-5.9s-7.5 2.32-9.12 5.9l-57.08 126.6H232.3V179.76h559.4v308.34H578.22l-57.1-126.6zM829.4 936.2v12.24c0 12.42-10.1 22.52-22.52 22.52H217.12c-12.42 0-22.52-10.1-22.52-22.52v-12.24c0-12.42 10.1-22.52 22.52-22.52h5.1c0.02 0 0.06 0.02 0.08 0.02 0.02 0 0.04-0.02 0.08-0.02h579.24c0.04 0 0.06 0.02 0.08 0.02 0.04 0 0.06-0.02 0.08-0.02h5.1c12.42 0 22.52 10.1 22.52 22.52z m-0.02-405.6v12.26c0 12.4-10.08 22.48-22.48 22.48H613.2c-1.24-2.92-2.56-5.82-4.04-8.62l-21.92-48.62h219.66c12.4 0 22.48 10.1 22.48 22.5zM806.88 159.76H217.12c-12.42 0-22.52-10.1-22.52-22.5V125c0-12.4 10.1-22.5 22.52-22.5h589.76c12.42 0 22.52 10.1 22.52 22.5v12.26c0 12.4-10.1 22.5-22.52 22.5z" fill="#23130D" p-id="37772"></path><path d="M293.78 53.04h108.32v29.46h-108.32z" fill="#636368" p-id="37773"></path><path d="M293.78 67.77h108.32v14.73h-108.32z" fill="#23130D" opacity=".2" p-id="37774"></path><path d="M829.4 125v12.26c0 12.4-10.1 22.5-22.52 22.5H217.12c-12.42 0-22.52-10.1-22.52-22.5V125c0-12.4 10.1-22.5 22.52-22.5h589.76c12.42 0 22.52 10.1 22.52 22.5zM829.4 936.2v12.24c0 12.42-10.1 22.52-22.52 22.52H217.12c-12.42 0-22.52-10.1-22.52-22.52v-12.24c0-12.42 10.1-22.52 22.52-22.52h5.1c0.02 0 0.06 0.02 0.08 0.02 0.02 0 0.04-0.02 0.08-0.02h579.24c0.04 0 0.06 0.02 0.08 0.02 0.04 0 0.06-0.02 0.08-0.02h5.1c12.42 0 22.52 10.1 22.52 22.52z" fill="#E1E1E5" p-id="37775"></path><path d="M829.4 936.2v12.24c0 12.42-10.1 22.52-22.52 22.52H217.12c-12.42 0-22.52-10.1-22.52-22.52v-12.24c0-1.32 0.12-2.62 0.34-3.88 1.84 10.58 11.08 18.64 22.18 18.64h589.76c11.1 0 20.34-8.06 22.18-18.64 0.22 1.26 0.34 2.56 0.34 3.88z" fill="#23130D" opacity=".2" p-id="37776"></path><path d="M791.7 585.34v308.34h-559.4V585.34h172.24c-1.58 7.5-2.44 15.16-2.44 22.88 0 60.6 49.3 109.9 109.9 109.9s109.92-49.3 109.92-109.9c0-7.72-0.86-15.38-2.46-22.88h172.24z" fill="#EC7063" p-id="37777"></path><path d="M829.38 530.6v12.26c0 1.92-0.24 3.8-0.68 5.58-0.02 0.02-0.02 0.04-0.02 0.04-0.2 0.72-0.42 1.42-0.66 2.1a22.74 22.74 0 0 1-6.82 9.62c-0.56 0.46-1.14 0.88-1.74 1.3-0.9 0.6-1.84 1.14-2.82 1.62-0.66 0.32-1.34 0.6-2.02 0.86-2.42 0.88-5.02 1.36-7.74 1.36H613.2c-1.24-2.92-2.56-5.82-4.04-8.62l-5.14-11.38-16.78-37.24h219.66c11.1 0 20.34 8.08 22.14 18.68 0.04 0.12 0.06 0.26 0.08 0.4 0.12 0.74 0.2 1.5 0.24 2.26 0.02 0.38 0.02 0.78 0.02 1.16zM436.78 508.1L420 545.34l-5.14 11.38c-1.5 2.8-2.82 5.7-4.06 8.62h-193.68c-2.72 0-5.32-0.48-7.74-1.36-0.68-0.26-1.36-0.54-2.02-0.86-0.98-0.48-1.92-1.02-2.82-1.62-0.6-0.42-1.18-0.84-1.74-1.3-0.56-0.46-1.08-0.96-1.6-1.46a22.74 22.74 0 0 1-5.22-8.16c-0.24-0.68-0.46-1.38-0.66-2.1 0 0 0-0.02-0.02-0.04-0.44-1.78-0.68-3.66-0.68-5.58v-12.26c0-0.38 0-0.78 0.02-1.16 0.04-0.76 0.12-1.52 0.24-2.26 0.02-0.14 0.04-0.28 0.08-0.4 1.8-10.6 11.04-18.68 22.14-18.68h219.68z" fill="#E1E1E5" p-id="37778"></path><path d="M601.92 608.22c0 49.56-40.34 89.9-89.92 89.9s-89.9-40.34-89.9-89.9c0-14.8 3.64-29.46 10.56-42.38l0.3-0.6L461.46 502 512 389.94l79.06 175.3 0.3 0.6c6.9 12.92 10.56 27.56 10.56 42.38z" fill="#F9C139" p-id="37779"></path><path d="M601.92 608.22c0 49.56-40.34 89.9-89.92 89.9-7.6 0-14.96-0.94-22-2.72 38.98-9.84 67.92-45.2 67.92-87.18 0-14.82-3.66-29.46-10.56-42.38l-0.3-0.6L490 438.72l22-48.78 79.06 175.3 0.3 0.6c6.9 12.92 10.56 27.56 10.56 42.38z" fill="#23130D" opacity=".2" p-id="37780"></path><path d="M791.7 179.76v308.34H578.22l-57.1-126.6c-1.62-3.58-5.18-5.9-9.12-5.9s-7.5 2.32-9.12 5.9l-57.08 126.6H232.3V179.76h559.4z" fill="#EC7063" p-id="37781"></path><path d="M232.3 585.34h50.66v308.34h-50.66zM232.3 179.76h50.66v308.34h-50.66z" fill="#FFFFFF" opacity=".4" p-id="37782"></path><path d="M741.04 585.34h50.66v308.34h-50.66zM741.04 179.76h50.66v308.34h-50.66zM217.12 545.34H420l-5.14 11.38c-1.5 2.8-2.82 5.7-4.06 8.62h-193.68c-2.72 0-5.32-0.48-7.74-1.36-0.68-0.26-1.36-0.54-2.02-0.86-0.98-0.48-1.92-1.02-2.82-1.62-0.6-0.42-1.18-0.84-1.74-1.3-0.56-0.46-1.08-0.96-1.6-1.46a22.74 22.74 0 0 1-5.22-8.16c-0.24-0.68-0.46-1.38-0.66-2.1 0 0 0-0.02-0.02-0.04-0.46-1.8-0.7-3.68-0.7-5.62v-12.24c0-0.38 0.02-0.76 0.04-1.14 0.04-0.76 0.12-1.52 0.24-2.26 0-0.16 0.04-0.32 0.06-0.48 0 0.02 0 0.06 0.02 0.08 1.86 10.54 11.08 18.56 22.16 18.56zM829.4 530.58v12.24c0 1.94-0.24 3.82-0.7 5.62-0.02 0.02-0.02 0.04-0.02 0.04-0.2 0.72-0.42 1.42-0.66 2.1a22.74 22.74 0 0 1-5.22 8.16c-0.52 0.5-1.04 1-1.6 1.46-0.56 0.46-1.14 0.88-1.74 1.3-0.9 0.6-1.84 1.14-2.82 1.62-0.66 0.32-1.34 0.6-2.02 0.86-2.42 0.88-5.02 1.36-7.74 1.36H613.2c-1.24-2.92-2.56-5.82-4.04-8.62l-5.14-11.38h202.86c11.08 0 20.3-8.02 22.16-18.56 0.02-0.02 0.02-0.06 0.02-0.08 0.02 0.16 0.06 0.32 0.06 0.48 0.12 0.74 0.2 1.5 0.24 2.26 0.02 0.38 0.04 0.76 0.04 1.14zM829.4 125v12.24c0 12.42-10.1 22.52-22.52 22.52H217.12c-12.42 0-22.52-10.1-22.52-22.52V125c0-1.32 0.12-2.62 0.34-3.88 1.84 10.58 11.08 18.64 22.18 18.64h589.76c11.1 0 20.34-8.06 22.18-18.64 0.22 1.26 0.34 2.56 0.34 3.88z" fill="#23130D" opacity=".2" p-id="37783"></path></svg>