<?xml version="1.0" standalone="no"?><!DOCTYPE svg PUBLIC "-//W3C//DTD SVG 1.1//EN" "http://www.w3.org/Graphics/SVG/1.1/DTD/svg11.dtd"><svg t="1625811796658" class="icon" viewBox="0 0 1024 1024" version="1.1" xmlns="http://www.w3.org/2000/svg" p-id="38404" xmlns:xlink="http://www.w3.org/1999/xlink" width="200" height="200"><defs><style type="text/css"></style></defs><path d="M482.86 510.7v-6.9c0-15.62-12.7-28.32-28.32-28.32H122.36c-15.62 0-28.32 12.7-28.32 28.32v6.9c0 13.16 9.04 24.2 21.22 27.36v166.82c-12.18 3.16-21.2 14.22-21.2 27.38v6.9c0 13.16 9.02 24.2 21.2 27.36v166.8c-12.18 3.16-21.22 14.22-21.22 27.38v6.9c0 15.6 12.7 28.32 28.32 28.32h332.18c15.62 0 28.32-12.72 28.32-28.32v-6.9c0-13.16-9.04-24.22-21.24-27.38v-166.8c12.18-3.16 21.22-14.22 21.22-27.36v-6.92c0-13.16-9.04-24.22-21.22-27.36v-166.82c12.2-3.14 21.24-14.2 21.24-27.36zM114.06 739.16v-6.9c0-4.6 3.72-8.32 8.28-8.32h116.98l-9.52 21.1c-0.42 0.78-0.8 1.6-1.18 2.4H122.34c-4.56 0-8.28-3.72-8.28-8.28z m240.1 28.28h87.46v164.96H135.26v-164.96h87.48c-0.36 2.82-0.56 5.66-0.56 8.52 0 36.54 29.72 66.28 66.26 66.28 36.56 0 66.28-29.74 66.28-66.28 0-2.86-0.2-5.7-0.56-8.52z m-111.98 8.52c0-7.62 1.88-15.16 5.42-21.8 0.12-0.2 0.2-0.4 0.3-0.62l16.1-35.7 0.02-0.02 24.42-54.18 40.56 89.9c0.1 0.22 0.18 0.42 0.3 0.62 3.54 6.64 5.42 14.18 5.42 21.8 0 25.52-20.76 46.28-46.28 46.28-25.5 0-46.26-20.76-46.26-46.28z m86.38-72.02l-31-68.74a10 10 0 0 0-18.22 0l-31 68.74H135.26V539h306.36v164.94h-113.06z m134.3 256.74v6.92a8.34 8.34 0 0 1-8.32 8.32H122.36a8.34 8.34 0 0 1-8.32-8.32v-6.9c0-4.58 3.74-8.3 8.32-8.3h332.18c4.58 0 8.32 3.72 8.32 8.28z m-0.02-228.44v6.92a8.3 8.3 0 0 1-8.3 8.28h-106.26c-0.38-0.8-0.76-1.62-1.18-2.4l-9.52-21.1h116.96c4.58 0 8.3 3.72 8.3 8.3z m-8.3-213.24H122.36c-4.58 0-8.32-3.72-8.32-8.3v-6.9a8.34 8.34 0 0 1 8.32-8.32h332.18c4.58 0 8.32 3.74 8.32 8.3v6.92c0 4.58-3.74 8.3-8.32 8.3z" fill="#23130D" p-id="38405"></path><path d="M462.86 960.68v6.92a8.34 8.34 0 0 1-8.32 8.32H122.36a8.34 8.34 0 0 1-8.32-8.32v-6.9c0-4.58 3.74-8.3 8.32-8.3h332.18c4.58 0 8.32 3.72 8.32 8.28zM462.86 503.78v6.92c0 4.58-3.74 8.3-8.32 8.3H122.36c-4.58 0-8.32-3.72-8.32-8.3v-6.9a8.34 8.34 0 0 1 8.32-8.32h332.18c4.58 0 8.32 3.74 8.32 8.3zM462.84 732.24v6.92a8.3 8.3 0 0 1-8.3 8.28h-106.26c-0.38-0.8-0.76-1.62-1.18-2.4l-9.52-21.1h116.96c4.58 0 8.3 3.72 8.3 8.3zM239.32 723.94l-9.52 21.1c-0.42 0.78-0.8 1.6-1.18 2.4H122.34c-4.56 0-8.28-3.72-8.28-8.28v-6.9c0-4.6 3.72-8.32 8.28-8.32h116.98z" fill="#E1E1E5" p-id="38406"></path><path d="M334.72 775.96c0 25.52-20.76 46.28-46.28 46.28-25.5 0-46.26-20.76-46.26-46.28 0-7.62 1.88-15.16 5.42-21.8 0.12-0.2 0.2-0.4 0.3-0.62l16.1-35.7 0.02-0.02 24.42-54.18 40.56 89.9c0.1 0.22 0.18 0.42 0.3 0.62 3.54 6.64 5.42 14.18 5.42 21.8z" fill="#F9C139" p-id="38407"></path><path d="M334.72 775.96c0 25.52-20.76 46.28-46.28 46.28-4.02 0-7.92-0.52-11.66-1.5 19.88-5.18 34.6-23.3 34.6-44.78 0-7.62-1.88-15.16-5.42-21.8-0.12-0.2-0.2-0.4-0.3-0.62l-28.88-64.02 11.66-25.88 40.56 89.9c0.1 0.22 0.18 0.42 0.3 0.62 3.54 6.64 5.42 14.18 5.42 21.8z" fill="#23130D" opacity=".2" p-id="38408"></path><path d="M441.62 539v164.94h-113.06l-31-68.74a10 10 0 0 0-18.22 0l-31 68.74H135.26V539h306.36zM441.62 767.44v164.96H135.26v-164.96h87.48c-0.36 2.82-0.56 5.66-0.56 8.52 0 36.54 29.72 66.28 66.26 66.28 36.56 0 66.28-29.74 66.28-66.28 0-2.86-0.2-5.7-0.56-8.52h87.46z" fill="#EC7063" p-id="38409"></path><path d="M929.96 510.7v-6.9c0-15.62-12.7-28.32-28.32-28.32H569.46c-15.62 0-28.32 12.7-28.32 28.32v6.9c0 13.16 9.04 24.22 21.24 27.36v166.82c-12.18 3.16-21.22 14.22-21.22 27.38v6.9c0 13.16 9.04 24.2 21.22 27.36v166.8c-12.2 3.16-21.24 14.22-21.24 27.38v6.9c0 15.6 12.7 28.32 28.32 28.32h332.18c15.62 0 28.32-12.72 28.32-28.32v-6.9c0-13.16-9.04-24.22-21.22-27.38v-166.8c12.18-3.16 21.22-14.22 21.22-27.36v-6.92c0-13.16-9.04-24.22-21.22-27.36v-166.82c12.18-3.14 21.22-14.2 21.22-27.36z m-368.8 228.46v-6.9c0-4.6 3.72-8.32 8.28-8.32h116.98l-9.52 21.1c-0.42 0.78-0.78 1.6-1.18 2.4h-106.28c-4.56 0-8.28-3.72-8.28-8.28z m240.1 28.28h87.48v164.96H582.38v-164.96h87.46c-0.36 2.82-0.56 5.66-0.56 8.52 0 36.54 29.72 66.28 66.28 66.28 36.54 0 66.26-29.74 66.26-66.28 0-2.86-0.2-5.7-0.56-8.52z m-111.98 8.52c0-7.62 1.88-15.16 5.44-21.8 0.1-0.2 0.2-0.4 0.28-0.62l40.56-89.9 40.54 89.9c0.1 0.22 0.2 0.42 0.3 0.62 3.54 6.64 5.42 14.18 5.42 21.8 0 25.52-20.76 46.28-46.26 46.28-25.52 0-46.28-20.76-46.28-46.28z m86.38-72.02l-31-68.74a10 10 0 0 0-18.22 0l-31 68.74h-113.06V539h306.36v164.94h-113.08z m134.3 256.76v6.9a8.34 8.34 0 0 1-8.32 8.32H569.46a8.34 8.34 0 0 1-8.32-8.32v-6.9c0-4.58 3.74-8.3 8.32-8.3H901.64c4.58 0 8.32 3.72 8.32 8.3z m0-228.46v6.92a8.3 8.3 0 0 1-8.3 8.28h-106.28c-0.38-0.8-0.76-1.62-1.18-2.4l-9.52-21.1h116.98c4.58 0 8.3 3.72 8.3 8.3z m-8.32-213.24H569.46c-4.58 0-8.32-3.72-8.32-8.3v-6.9a8.34 8.34 0 0 1 8.32-8.32h332.18a8.34 8.34 0 0 1 8.32 8.32v6.9c0 4.58-3.74 8.3-8.32 8.3z" fill="#23130D" p-id="38410"></path><path d="M909.96 960.7v6.9a8.34 8.34 0 0 1-8.32 8.32H569.46a8.34 8.34 0 0 1-8.32-8.32v-6.9c0-4.58 3.74-8.3 8.32-8.3H901.64c4.58 0 8.32 3.72 8.32 8.3zM686.42 723.94l-9.52 21.1c-0.42 0.78-0.78 1.6-1.18 2.4h-106.28c-4.56 0-8.28-3.72-8.28-8.28v-6.9c0-4.6 3.72-8.32 8.28-8.32h116.98zM909.96 732.24v6.92a8.3 8.3 0 0 1-8.3 8.28h-106.28c-0.38-0.8-0.76-1.62-1.18-2.4l-9.52-21.1h116.98c4.58 0 8.3 3.72 8.3 8.3z" fill="#E1E1E5" p-id="38411"></path><path d="M781.82 775.96c0 25.52-20.76 46.28-46.26 46.28-25.52 0-46.28-20.76-46.28-46.28 0-7.62 1.88-15.16 5.44-21.8 0.1-0.2 0.2-0.4 0.28-0.62l40.56-89.9 40.54 89.9c0.1 0.22 0.2 0.42 0.3 0.62 3.54 6.64 5.42 14.18 5.42 21.8z" fill="#F9C139" p-id="38412"></path><path d="M909.96 503.8v6.9c0 4.58-3.74 8.3-8.32 8.3H569.46c-4.58 0-8.32-3.72-8.32-8.3v-6.9a8.34 8.34 0 0 1 8.32-8.32h332.18a8.34 8.34 0 0 1 8.32 8.32z" fill="#E1E1E5" p-id="38413"></path><path d="M888.74 767.44v164.96H582.38v-164.96h87.46c-0.36 2.82-0.56 5.66-0.56 8.52 0 36.54 29.72 66.28 66.28 66.28 36.54 0 66.26-29.74 66.26-66.28 0-2.86-0.2-5.7-0.56-8.52h87.48zM888.74 539v164.94h-113.08l-31-68.74a10 10 0 0 0-18.22 0l-31 68.74h-113.06V539h306.36z" fill="#EC7063" p-id="38414"></path><path d="M991.9 274.94a9.464 9.464 0 0 0-0.58-2.06c-0.04-0.1-0.1-0.18-0.14-0.26-0.12-0.3-0.24-0.58-0.4-0.86l-68.02-119.48a10.018 10.018 0 0 0-8.68-5.06H668.9V38.08c0-5.52-4.48-10-10-10h-293.8c-5.52 0-10 4.48-10 10v109.14H109.92c-3.6 0-6.92 1.94-8.7 5.06l-68 119.48c-0.14 0.28-0.28 0.56-0.4 0.84-0.04 0.1-0.1 0.18-0.14 0.28-0.22 0.54-0.38 1.08-0.5 1.62-0.04 0.14-0.06 0.28-0.08 0.44-0.1 0.56-0.18 1.14-0.18 1.7v97.56c0 3.4 0.26 6.72 0.74 9.96-0.48 1.16-0.74 2.42-0.74 3.74v598.02c0 5.52 4.48 10 10 10s10-4.48 10-10V422.46c12.46 12.5 29.72 20.24 48.76 20.24 4.3 0 8.58-0.4 12.72-1.18a68.556 68.556 0 0 0 46.04-31.76c12.08 19.74 33.9 32.94 58.76 32.94s46.68-13.2 58.76-32.96c12.08 19.76 33.9 32.96 58.76 32.96s46.68-13.2 58.76-32.94c12.08 19.74 33.9 32.94 58.76 32.94s46.68-13.2 58.76-32.94c12.08 19.74 33.9 32.94 58.76 32.94s46.68-13.2 58.76-32.96c12.08 19.76 33.9 32.96 58.76 32.96s46.68-13.2 58.76-32.96c12.08 19.76 33.9 32.96 58.76 32.96s46.68-13.2 58.76-32.94c12.08 19.74 33.9 32.94 58.76 32.94 19.04 0 36.3-7.74 48.76-20.24v563.46c0 5.52 4.48 10 10 10s10-4.48 10-10V387.9c0-1.32-0.26-2.58-0.74-3.74 0.48-3.24 0.74-6.56 0.74-9.96v-97.44V276.64c0-0.56-0.08-1.14-0.18-1.7zM375.1 48.08h273.8v99.14h-273.8V48.08zM149.44 374.2v0.04c-0.02 23.32-16.7 43.34-39.76 47.62-2.92 0.56-5.96 0.84-9 0.84-26.88 0-48.76-21.74-48.76-48.5v-87.5h97.52v87.5z m117.52 0c0 26.76-21.88 48.5-48.76 48.5s-48.74-21.72-48.76-48.44v-0.04-87.52h97.52v87.5z m117.52-0.02v0.06c-0.02 26.74-21.88 48.46-48.76 48.46s-48.76-21.74-48.76-48.5v-87.5h97.52v87.48z m117.52-0.02v0.12c-0.04 26.72-21.9 48.42-48.76 48.42-26.88 0-48.74-21.72-48.76-48.46v-87.54H502v87.46z m117.52 0.04c0 26.76-21.88 48.5-48.76 48.5-26.86 0-48.72-21.7-48.76-48.42v-87.58h97.52v87.5z m117.52 0c0 26.76-21.88 48.5-48.76 48.5s-48.76-21.74-48.76-48.5v-87.5h97.52v87.5z m117.52-0.02v0.06c-0.02 26.74-21.88 48.46-48.76 48.46s-48.76-21.74-48.76-48.5v-87.5h97.52v87.48zM59.12 266.7l56.62-99.48h792.52l56.62 99.48H59.12z m912.96 107.5c0 26.76-21.86 48.5-48.76 48.5-26.86 0-48.74-21.72-48.76-48.46v-87.54h97.52v87.5z" fill="#23130D" p-id="38415"></path><path d="M972.08 286.7v87.5c0 26.76-21.86 48.5-48.76 48.5-26.86 0-48.74-21.72-48.76-48.46v-87.54h97.52z" fill="#E1E1E5" p-id="38416"></path><path d="M854.56 286.7v87.54c-0.02 26.74-21.88 48.46-48.76 48.46s-48.76-21.74-48.76-48.5v-87.5h97.52z" fill="#EC7063" p-id="38417"></path><path d="M737.04 286.7v87.5c0 26.76-21.88 48.5-48.76 48.5s-48.76-21.74-48.76-48.5v-87.5h97.52z" fill="#E1E1E5" p-id="38418"></path><path d="M619.52 286.7v87.5c0 26.76-21.88 48.5-48.76 48.5-26.86 0-48.72-21.7-48.76-48.42v-87.58h97.52z" fill="#EC7063" p-id="38419"></path><path d="M502 286.7v87.58c-0.04 26.72-21.9 48.42-48.76 48.42-26.88 0-48.74-21.72-48.76-48.46v-87.54H502z" fill="#E1E1E5" p-id="38420"></path><path d="M384.48 286.7v87.54c-0.02 26.74-21.88 48.46-48.76 48.46s-48.76-21.74-48.76-48.5v-87.5h97.52z" fill="#EC7063" p-id="38421"></path><path d="M266.96 286.7v87.5c0 26.76-21.88 48.5-48.76 48.5s-48.74-21.72-48.76-48.44v-0.04-87.52h97.52z" fill="#E1E1E5" p-id="38422"></path><path d="M149.44 286.7v87.54c-0.02 23.32-16.7 43.34-39.76 47.62-2.92 0.56-5.96 0.84-9 0.84-26.88 0-48.76-21.74-48.76-48.5v-87.5h97.52z" fill="#EC7063" p-id="38423"></path><path d="M110.62 421.66c-0.3 0.08-0.62 0.14-0.94 0.2-2.92 0.56-5.96 0.84-9 0.84-26.88 0-48.76-21.74-48.76-48.5v-87.5h20v87.5c0 23.32 16.64 42.84 38.7 47.46zM228.14 421.66c-0.3 0.08-0.62 0.14-0.94 0.2-2.92 0.56-5.96 0.84-9 0.84-26.88 0-48.76-21.74-48.76-48.5v-87.5h20v87.5c0 23.32 16.64 42.84 38.7 47.46zM345.66 421.66c-0.3 0.08-0.62 0.14-0.94 0.2-2.92 0.56-5.96 0.84-9 0.84-26.88 0-48.76-21.74-48.76-48.5v-87.5h20v87.5c0 23.32 16.64 42.84 38.7 47.46zM463.18 421.66c-0.3 0.08-0.62 0.14-0.94 0.2-2.92 0.56-5.96 0.84-9 0.84-26.88 0-48.76-21.74-48.76-48.5v-87.5h20v87.5c0 23.32 16.64 42.84 38.7 47.46zM580.7 421.66c-0.3 0.08-0.62 0.14-0.94 0.2-2.92 0.56-5.96 0.84-9 0.84-26.88 0-48.76-21.74-48.76-48.5v-87.5h20v87.5c0 23.32 16.64 42.84 38.7 47.46zM698.22 421.66c-0.3 0.08-0.62 0.14-0.94 0.2-2.92 0.56-5.96 0.84-9 0.84-26.88 0-48.76-21.74-48.76-48.5v-87.5h20v87.5c0 23.32 16.64 42.84 38.7 47.46zM815.74 421.66c-0.3 0.08-0.62 0.14-0.94 0.2-2.92 0.56-5.96 0.84-9 0.84-26.88 0-48.76-21.74-48.76-48.5v-87.5h20v87.5c0 23.32 16.64 42.84 38.7 47.46zM933.26 421.66c-0.3 0.08-0.62 0.14-0.94 0.2-2.92 0.56-5.96 0.84-9 0.84-26.88 0-48.76-21.74-48.76-48.5v-87.5h20v87.5c0 23.32 16.64 42.84 38.7 47.46z" fill="#23130D" opacity=".2" p-id="38424"></path><path d="M375.1 48.08h273.8v99.14h-273.8z" fill="#F9C139" p-id="38425"></path><path d="M375.1 48.08h273.8V76h-273.8z" fill="#FFFFFF" opacity=".5" p-id="38426"></path><path d="M964.88 266.7H59.12l56.62-99.48h792.52z" fill="#EC7063" p-id="38427"></path><path d="M781.82 775.96c0 25.52-20.76 46.28-46.28 46.28-4.02 0-7.92-0.52-11.66-1.5 19.88-5.18 34.6-23.3 34.6-44.78 0-7.62-1.88-15.16-5.42-21.8-0.12-0.2-0.2-0.4-0.3-0.62l-28.88-64.02 11.66-25.88 40.56 89.9c0.1 0.22 0.18 0.42 0.3 0.62 3.54 6.64 5.42 14.18 5.42 21.8z" fill="#23130D" opacity=".2" p-id="38428"></path><path d="M135.26 539H158v164.94H135.26zM135.26 767.45H158v164.94H135.26z" fill="#FFFFFF" opacity=".5" p-id="38429"></path><path d="M418.88 539h22.74v164.94h-22.74zM418.88 767.45h22.74v164.94h-22.74z" fill="#23130D" opacity=".2" p-id="38430"></path><path d="M582.38 539h22.74v164.94h-22.74zM582.38 767.45h22.74v164.94h-22.74z" fill="#FFFFFF" opacity=".5" p-id="38431"></path><path d="M866 539h22.74v164.94H866zM866 767.45h22.74v164.94H866z" fill="#23130D" opacity=".2" p-id="38432"></path></svg>