<?xml version="1.0" standalone="no"?><!DOCTYPE svg PUBLIC "-//W3C//DTD SVG 1.1//EN" "http://www.w3.org/Graphics/SVG/1.1/DTD/svg11.dtd"><svg t="1625811814961" class="icon" viewBox="0 0 1024 1024" version="1.1" xmlns="http://www.w3.org/2000/svg" p-id="39371" xmlns:xlink="http://www.w3.org/1999/xlink" width="200" height="200"><defs><style type="text/css"></style></defs><path d="M998.522 898.906c-15.948 0-23.586 8.138-33.26 18.442-10.352 11.03-23.234 24.754-47.838 24.754-24.606 0-37.49-13.724-47.844-24.754-9.672-10.302-17.312-18.442-33.258-18.442-15.944 0-23.582 8.138-33.254 18.442-10.352 11.03-23.232 24.754-47.832 24.754-24.604 0-37.488-13.726-47.84-24.754-9.672-10.302-17.31-18.442-33.254-18.442s-23.582 8.138-33.252 18.442c-10.35 11.03-23.232 24.754-47.834 24.754-24.6 0-37.482-13.724-47.834-24.754-9.67-10.302-17.308-18.442-33.25-18.442-15.94 0-23.578 8.138-33.246 18.442-10.35 11.03-23.232 24.754-47.83 24.754-24.6 0-37.482-13.724-47.834-24.754-9.67-10.302-17.308-18.442-33.25-18.442s-23.582 8.138-33.252 18.442c-10.35 11.03-23.234 24.754-47.834 24.754s-37.482-13.724-47.834-24.754c-9.67-10.302-17.308-18.442-33.25-18.442-15.94 0-23.58 8.138-33.248 18.442-10.352 11.028-23.234 24.754-47.834 24.754-24.596 0-37.478-13.724-47.828-24.754-9.67-10.302-17.308-18.442-33.25-18.442a10 10 0 1 1 0-20c24.6 0 37.484 13.726 47.834 24.756 9.668 10.302 17.306 18.44 33.246 18.44 15.942 0 23.58-8.138 33.25-18.442 10.35-11.03 23.232-24.754 47.832-24.754s37.482 13.724 47.834 24.754c9.67 10.302 17.308 18.442 33.25 18.442 15.944 0 23.582-8.138 33.252-18.442 10.35-11.03 23.234-24.754 47.834-24.754s37.484 13.726 47.834 24.754c9.67 10.302 17.308 18.442 33.25 18.442 15.94 0 23.576-8.138 33.246-18.442 10.35-11.028 23.232-24.754 47.83-24.754 24.6 0 37.482 13.724 47.834 24.754 9.67 10.302 17.308 18.442 33.252 18.442s23.582-8.138 33.252-18.442c10.35-11.03 23.232-24.754 47.834-24.754 24.6 0 37.484 13.724 47.836 24.752 9.672 10.304 17.31 18.444 33.258 18.444 15.942 0 23.58-8.138 33.25-18.442 10.352-11.028 23.234-24.754 47.836-24.754s37.486 13.724 47.84 24.752c9.672 10.304 17.312 18.444 33.262 18.444 15.946 0 23.586-8.138 33.256-18.442 10.354-11.03 23.238-24.754 47.842-24.754a9.998 9.998 0 0 1 9.998 9.986V831c0 5.52-4.48 10-10 10-15.94 0-23.58 8.12-33.26 18.44-10.34 11.02-23.24 24.74-47.84 24.74-24.6 0-37.48-13.72-47.84-24.74-9.68-10.32-17.32-18.44-33.26-18.44-15.94 0-23.58 8.12-33.26 18.44-10.34 11.02-23.22 24.74-47.82 24.74s-37.5-13.72-47.84-24.74c-9.68-10.32-17.32-18.44-33.26-18.44-15.94 0-23.58 8.12-33.24 18.44-10.36 11.02-23.24 24.74-47.84 24.74-24.6 0-37.48-13.72-47.84-24.74-9.66-10.32-17.3-18.44-33.24-18.44-15.94 0-23.58 8.12-33.26 18.44-10.34 11.02-23.22 24.74-47.82 24.74s-37.48-13.72-47.84-24.74c-9.66-10.32-17.3-18.44-33.24-18.44-15.96 0-23.58 8.12-33.26 18.44-10.36 11.02-23.24 24.74-47.84 24.74s-37.48-13.72-47.82-24.74c-9.68-10.32-17.32-18.44-33.26-18.44-15.94 0-23.58 8.12-33.24 18.44-10.36 11.02-23.24 24.74-47.84 24.74-24.6 0-37.48-13.72-47.82-24.74-9.68-10.32-17.32-18.44-33.26-18.44-5.52 0-10-4.48-10-10v115.82c0-5.52 4.48-10 10-10 24.6 0 37.48 13.72 47.84 24.76 9.66 10.3 17.3 18.44 33.24 18.44 15.94 0 23.58-8.14 33.26-18.44 10.34-11.04 23.22-24.76 47.82-24.76s37.48 13.72 47.84 24.76c9.66 10.3 17.3 18.44 33.24 18.44 15.94 0 23.58-8.14 33.26-18.44 10.34-11.04 23.24-24.76 47.84-24.76 24.6 0 37.48 13.72 47.82 24.76 9.68 10.3 17.32 18.44 33.26 18.44 15.94 0 23.58-8.14 33.24-18.44 10.36-11.04 23.24-24.76 47.84-24.76s37.48 13.72 47.82 24.76c9.68 10.3 17.32 18.44 33.26 18.44 15.94 0 23.58-8.14 33.24-18.44 10.36-11.04 23.24-24.76 47.84-24.76s37.48 13.72 47.84 24.74c9.68 10.32 17.3 18.46 33.26 18.46 15.94 0 23.58-8.14 33.24-18.44 10.36-11.04 23.24-24.76 47.84-24.76 24.6 0 37.48 13.72 47.84 24.74 9.68 10.32 17.32 18.46 33.26 18.46 15.94 0 23.58-8.14 33.26-18.44 10.36-11.04 23.24-24.76 47.84-24.76 5.52 0 10 4.48 10 10v-57.9a10.004 10.004 0 0 1-10.002 9.986z" fill="#3594BF" p-id="39372"></path><path d="M998.52 821c-13.76 0-23.86 4.3-31.88 10-6.34 4.5-11.4 9.9-15.96 14.74-9.68 10.3-17.32 18.44-33.26 18.44-15.94 0-23.58-8.14-33.26-18.44-4.56-4.84-9.62-10.24-15.96-14.74-8.02-5.7-18.12-10-31.88-10-8.4 0-15.4 1.62-21.42 4.16v-127.46h54.6c5.52 0 10-4.48 10-10V606c0-5.52-4.48-10-10-10H839.8v-98.76h12.7c5.52 0 10-4.48 10-10v-45.4c0-5.52-4.48-10-10-10h-8.92l96.16-294.38c0.08-0.22 0.08-0.46 0.14-0.68 0.1-0.38 0.2-0.78 0.26-1.16 0.04-0.32 0.04-0.62 0.04-0.92 0.02-0.34 0.04-0.68 0.02-1.02-0.02-0.32-0.1-0.64-0.16-0.98-0.04-0.3-0.08-0.6-0.16-0.9-0.08-0.32-0.2-0.62-0.32-0.92-0.12-0.3-0.22-0.6-0.36-0.9-0.12-0.28-0.3-0.54-0.46-0.8-0.18-0.28-0.34-0.58-0.54-0.84s-0.44-0.5-0.66-0.74c-0.22-0.24-0.4-0.48-0.64-0.68-0.3-0.26-0.62-0.48-0.94-0.7-0.2-0.14-0.36-0.3-0.56-0.42l-27.52-16.58c-0.18-0.12-0.38-0.18-0.58-0.28-0.18-0.1-0.34-0.22-0.54-0.3-0.12-0.06-0.24-0.08-0.36-0.12-0.34-0.14-0.68-0.24-1.02-0.34-0.3-0.08-0.58-0.16-0.88-0.2-0.36-0.08-0.7-0.1-1.04-0.12-0.3-0.04-0.6-0.06-0.9-0.04-0.34 0-0.68 0.04-1.02 0.08-0.3 0.02-0.6 0.06-0.9 0.12-0.32 0.08-0.64 0.18-0.96 0.28-0.3 0.1-0.58 0.18-0.86 0.3-0.3 0.14-0.6 0.3-0.9 0.46-0.26 0.14-0.54 0.28-0.78 0.46-0.28 0.18-0.54 0.38-0.78 0.6-0.26 0.2-0.5 0.42-0.74 0.64-0.22 0.24-0.42 0.48-0.62 0.72-0.22 0.28-0.44 0.54-0.62 0.84-0.08 0.12-0.16 0.2-0.24 0.3-0.1 0.18-0.16 0.38-0.26 0.58-0.1 0.18-0.22 0.34-0.32 0.54l-140.44 318.1h-16.18c-5.52 0-10 4.48-10 10v45.4c0 5.52 4.48 10 10 10h12.7V596h-43.86c0.66-2.38 1.06-4.88 1.06-7.48l-0.02-3.02c0-15.14-12.32-27.46-27.46-27.46h-5.4l-34.86-228.16c6.5-0.5 12.56-3.26 17.22-7.94 5.2-5.18 8.06-12.08 8.04-19.42v-3.02c0-15.16-12.3-27.48-27.46-27.48h-6.66l-16.76-109.72-12.54-82.1c10.42-3.9 17.88-13.94 17.88-25.72v-3.02c0-15.16-12.32-27.48-27.48-27.48h-158.68c-15.14 0-27.46 12.32-27.46 27.48v3.02c0 11.78 7.44 21.8 17.88 25.72l-12.56 82.1v0.02l-16.76 109.7h-6.66c-15.14 0-27.46 12.32-27.46 27.48v3.02c0 14.42 11.16 26.24 25.28 27.36l-34.86 228.16h-5.42c-12.34 0-22.78 8.16-26.24 19.38V320c0-5.54-4.48-10-10-10h-21.64v-35.5c0-5.52-4.48-10-10-10H181.82c-5.52 0-10 4.48-10 10V310H150.18c-5.52 0-10 4.46-10 10v367.7c0 5.52 4.48 10 10 10h54.62v125.86c-5.02-1.6-10.68-2.56-17.16-2.56-13.76 0-23.86 4.3-31.88 10-6.32 4.5-11.38 9.9-15.94 14.74-9.68 10.3-17.32 18.44-33.26 18.44-15.94 0-23.58-8.14-33.24-18.44-4.56-4.84-9.62-10.24-15.96-14.74-8.02-5.7-18.12-10-31.88-10-5.52 0-10 4.46-10 10 0 5.52 4.48 10 10 10 15.94 0 23.58 8.12 33.26 18.44 10.34 11.02 23.22 24.74 47.82 24.74s37.48-13.72 47.84-24.74c9.66-10.32 17.3-18.44 33.24-18.44 15.94 0 23.58 8.12 33.26 18.44 10.34 11.02 23.22 24.74 47.82 24.74s37.48-13.72 47.84-24.74c9.68-10.32 17.3-18.44 33.26-18.44 15.94 0 23.58 8.12 33.24 18.44 10.36 11.02 23.24 24.74 47.84 24.74s37.48-13.72 47.82-24.74c9.68-10.32 17.32-18.44 33.26-18.44 15.94 0 23.58 8.12 33.24 18.44 10.36 11.02 23.24 24.74 47.84 24.74 24.6 0 37.48-13.72 47.84-24.74 9.66-10.32 17.3-18.44 33.24-18.44 15.94 0 23.58 8.12 33.26 18.44 10.34 11.02 23.24 24.74 47.84 24.74s37.48-13.72 47.82-24.74c9.68-10.32 17.32-18.44 33.26-18.44 15.94 0 23.58 8.12 33.26 18.44 10.36 11.02 23.24 24.74 47.84 24.74 24.6 0 37.5-13.72 47.84-24.74 9.68-10.32 17.32-18.44 33.26-18.44 5.52 0 10-4.48 10-10 0-5.54-4.48-10-10-10zM907.28 132.2l10.98 6.62-95.72 293.02h-47.56L907.28 132.2z m-160.34 345.04v-25.4h95.56v25.4h-95.56z m72.86 20V596h-50.16v-98.76h50.16z m-167.26 53.04l-118.52-60.38 101.4-51.64 17.12 112.02zM512 357.4L446.42 330h131.16L512 357.4z m107.52-23.26l11.12 72.82-92.7-38.72 81.58-34.1z m-133.46 34.1l-92.68 38.72 11.12-72.82 81.56 34.1z m25.94 10.82l107.42 44.9L512 478.68l-107.42-54.72L512 379.06z m111.68 178.98H400.32L512 501.14l111.68 56.9z m-15.08-295.3l-76.88-45.24 64.18-37.78 12.7 83.02zM512 102.62l-38.1-20.66h76.22L512 102.62z m69.82-15.1l8.82 57.72-57.66-31.26 48.84-26.46z m-90.8 26.46l-57.66 31.26 8.82-57.72 48.84 26.46zM512 125.36l71.24 38.62L512 205.9l-71.24-41.92L512 125.36z m72.94 146.66h-145.88L512 229.1l72.94 42.92zM425.2 51.46c0-4.12 3.34-7.48 7.46-7.48h158.68c4.12 0 7.48 3.36 7.48 7.48v3.02c0 4.12-3.36 7.48-7.48 7.48h-158.68c-4.12 0-7.46-3.36-7.46-7.48v-3.02z m2.9 128.26l64.18 37.78-76.88 45.24 12.7-83.02z m-48.46 122.8v-3.02c0-4.12 3.34-7.48 7.46-7.48h15.1c0.06 0 0.1 0.02 0.16 0.02 0.04 0 0.1-0.02 0.14-0.02h219c0.04 0 0.1 0.02 0.14 0.02 0.06 0 0.1-0.02 0.16-0.02h15.1c4.12 0 7.46 3.36 7.46 7.48l0.02 3.02c0 4.12-3.36 7.48-7.46 7.48h-9.4c-0.02-0.02-0.04 0-0.08 0H396.56c-0.04 0-0.06-0.02-0.08 0h-9.38c-4.12 0-7.46-3.36-7.46-7.48z m8.94 135.74l101.4 51.64-118.52 60.38 17.12-112.02z m-51.4 147.24a7.46 7.46 0 0 1 7.46-7.46H679.36c4.12 0 7.46 3.34 7.46 7.48l0.02 3.02c0 4.1-3.36 7.46-7.48 7.46H344.64c-4.12 0-7.46-3.36-7.46-7.46v-3.04z m-145.36-301h74.94V310H191.82v-25.5zM160.18 330h138.22v31.52h-35.4c-5.54 0-10 4.48-10 10s4.46 10 10 10h35.4v24.86h-35.4c-5.54 0-10 4.48-10 10s4.46 10 10 10h35.4v24.86h-35.4c-5.54 0-10 4.48-10 10s4.46 10 10 10h35.4v24.86h-35.4c-5.54 0-10 4.48-10 10 0 5.54 4.46 10 10 10h35.4v24.86h-35.4c-5.54 0-10 4.48-10 10 0 5.54 4.46 10 10 10h35.4V596H160.18V330z m154.82 503.2c-5 4-9.18 8.46-13.02 12.54-9.68 10.3-17.32 18.44-33.26 18.44-15.94 0-23.58-8.14-33.24-18.44-3.22-3.42-6.7-7.12-10.68-10.58v-137.46h90.2v135.5z m369.68-11.26c-3.26-0.6-6.74-0.94-10.54-0.94-13.76 0-23.86 4.3-31.88 10-6.34 4.5-11.4 9.9-15.96 14.74-9.66 10.3-17.3 18.44-33.24 18.44-15.94 0-23.58-8.14-33.26-18.44-4.54-4.84-9.6-10.24-15.94-14.74-8.02-5.7-18.12-10-31.88-10s-23.86 4.3-31.88 10c-6.34 4.5-11.4 9.9-15.96 14.74-9.66 10.3-17.3 18.44-33.24 18.44-15.94 0-23.58-8.14-33.26-18.44-4.54-4.84-9.6-10.24-15.94-14.74-8.02-5.7-18.12-10-31.88-10-5.5 0-10.38 0.7-14.82 1.9v-125.2h349.68v124.24z m110.22 17.18c-2.28 2.22-4.4 4.48-6.42 6.62-9.66 10.3-17.3 18.44-33.24 18.44-15.96 0-23.58-8.14-33.26-18.44-4.58-4.88-9.66-10.26-16.02-14.74-0.42-0.32-0.84-0.62-1.28-0.9v-132.4h90.22v141.42z m10.04-161.42H325.04 160.18V616h699.32v61.7h-54.56z" fill="#23130D" p-id="39373"></path><path d="M598.82 51.46v3.02c0 4.12-3.36 7.48-7.48 7.48h-158.68c-4.12 0-7.46-3.36-7.46-7.48v-3.02c0-4.12 3.34-7.48 7.46-7.48h158.68c4.12 0 7.48 3.36 7.48 7.48zM644.38 302.52c0 4.12-3.36 7.48-7.46 7.48h-9.4c-0.02-0.02-0.04 0-0.08 0H396.56c-0.04 0-0.06-0.02-0.08 0h-9.38c-4.12 0-7.46-3.36-7.46-7.48v-3.02c0-4.12 3.34-7.48 7.46-7.48h15.1c0.06 0 0.1 0.02 0.16 0.02 0.04 0 0.1-0.02 0.14-0.02h219c0.04 0 0.1 0.02 0.14 0.02 0.06 0 0.1-0.02 0.16-0.02h15.1c4.12 0 7.46 3.36 7.46 7.48l0.02 3.02zM686.84 588.54c0 4.1-3.36 7.46-7.48 7.46H344.64c-4.12 0-7.46-3.36-7.46-7.46v-3.04a7.46 7.46 0 0 1 7.46-7.46H679.36c4.12 0 7.46 3.34 7.46 7.48l0.02 3.02z" fill="#E8790A" p-id="39374"></path><path d="M918.26 138.82l-95.72 293.02h-47.56L907.28 132.2z" fill="#EC7063" p-id="39375"></path><path d="M918.26 138.82l-16.6 50.82-106.94 242.2h-19.74L907.28 132.2z" fill="#23130D" opacity=".2" p-id="39376"></path><path d="M842.5 451.84v25.4h-95.56v-25.4h95.56z" fill="#E1E1E5" p-id="39377"></path><path d="M769.64 451.84v25.4h-22.7v-25.4h19.692z" fill="#23130D" opacity=".2" p-id="39378"></path><path d="M769.64 497.24h50.16V596h-50.16z" fill="#636368" p-id="39379"></path><path d="M769.64 497.24h18.026V596h-18.026z" fill="#23130D" opacity=".2" p-id="39380"></path><path d="M191.82 284.5h74.94V310H191.82z" fill="#E1E1E5" p-id="39381"></path><path d="M191.82 284.5H218V310H191.82z" fill="#23130D" opacity=".2" p-id="39382"></path><path d="M253 371.52c0 5.52 4.46 10 10 10h35.4v24.86h-35.4c-5.54 0-10 4.48-10 10s4.46 10 10 10h35.4v24.86h-35.4c-5.54 0-10 4.48-10 10s4.46 10 10 10h35.4v24.86h-35.4c-5.54 0-10 4.48-10 10 0 5.54 4.46 10 10 10h35.4v24.86h-35.4c-5.54 0-10 4.48-10 10 0 5.54 4.46 10 10 10h35.4V596H160.18V330h138.22v31.52h-35.4c-5.54 0-10 4.48-10 10z" fill="#F9C139" p-id="39383"></path><path d="M794.9 697.7v141.42c-2.28 2.22-4.4 4.48-6.42 6.62-9.66 10.3-17.3 18.44-33.24 18.44-15.96 0-23.58-8.14-33.26-18.44-4.58-4.88-9.66-10.26-16.02-14.74-0.42-0.32-0.84-0.62-1.28-0.9v-132.4h90.22zM315 697.7v135.5c-5 4-9.18 8.46-13.02 12.54-9.68 10.3-17.32 18.44-33.26 18.44-15.94 0-23.58-8.14-33.24-18.44-3.22-3.42-6.7-7.12-10.68-10.58v-137.46h90.2z" fill="#CC7B5A" p-id="39384"></path><path d="M859.5 616v61.7H325.04 160.18V616h699.32z" fill="#E59D89" p-id="39385"></path><path d="M859.5 616v17H325.04 160.18V616h699.32z" fill="#23130D" opacity=".2" p-id="39386"></path><path d="M998.522 878.906c-24.604 0-37.488 13.724-47.842 24.754-9.67 10.302-17.31 18.442-33.256 18.442-15.95 0-23.59-8.138-33.262-18.444-10.354-11.028-23.238-24.752-47.84-24.752s-37.484 13.726-47.836 24.754c-9.67 10.302-17.308 18.442-33.25 18.442-15.948 0-23.586-8.138-33.258-18.444-10.352-11.028-23.236-24.752-47.836-24.752-24.602 0-37.484 13.724-47.834 24.754-9.67 10.302-17.308 18.442-33.252 18.442s-23.582-8.138-33.252-18.442c-10.352-11.03-23.232-24.754-47.834-24.754-24.598 0-37.48 13.726-47.83 24.754-9.668 10.302-17.306 18.442-33.246 18.442-15.942 0-23.58-8.138-33.25-18.442-10.35-11.028-23.232-24.754-47.834-24.754s-37.484 13.724-47.834 24.754c-9.67 10.302-17.308 18.442-33.252 18.442-15.942 0-23.58-8.138-33.25-18.442-10.352-11.03-23.234-24.754-47.834-24.754-24.598 0-37.48 13.724-47.832 24.754-9.67 10.302-17.308 18.442-33.25 18.442-15.938 0-23.576-8.136-33.246-18.44-10.35-11.03-23.234-24.756-47.834-24.756a10 10 0 1 0 0 20c15.942 0 23.58 8.138 33.25 18.442 10.35 11.03 23.232 24.754 47.828 24.754 24.6 0 37.482-13.726 47.834-24.754 9.668-10.302 17.308-18.442 33.248-18.442 15.942 0 23.58 8.138 33.25 18.442 10.35 11.03 23.234 24.754 47.834 24.754s37.484-13.724 47.834-24.754c9.67-10.302 17.31-18.442 33.252-18.442s23.582 8.138 33.25 18.442c10.35 11.03 23.232 24.754 47.834 24.754 24.598 0 37.478-13.724 47.83-24.754 9.668-10.302 17.306-18.442 33.246-18.442 15.942 0 23.582 8.138 33.25 18.442 10.352 11.03 23.234 24.754 47.834 24.754 24.602 0 37.484-13.724 47.834-24.754 9.67-10.302 17.308-18.442 33.252-18.442s23.582 8.138 33.254 18.442c10.352 11.028 23.236 24.754 47.84 24.754 24.6 0 37.48-13.724 47.832-24.754 9.672-10.302 17.31-18.442 33.254-18.442 15.946 0 23.586 8.138 33.258 18.442 10.354 11.03 23.238 24.754 47.844 24.754 24.604 0 37.486-13.724 47.838-24.754 9.674-10.302 17.312-18.442 33.26-18.442a9.998 9.998 0 0 0 9.998-9.986l0.002-0.014-0.002-0.014a9.992 9.992 0 0 0-9.994-9.986z" fill="#23130D" p-id="39387"></path><path d="M998.52 936.82c-24.6 0-37.48 13.72-47.84 24.76-9.68 10.3-17.32 18.44-33.26 18.44-15.94 0-23.58-8.14-33.26-18.46-10.36-11.02-23.24-24.74-47.84-24.74-24.6 0-37.48 13.72-47.84 24.76-9.66 10.3-17.3 18.44-33.24 18.44-15.96 0-23.58-8.14-33.26-18.46-10.36-11.02-23.24-24.74-47.84-24.74s-37.48 13.72-47.84 24.76c-9.66 10.3-17.3 18.44-33.24 18.44-15.94 0-23.58-8.14-33.26-18.44-10.34-11.04-23.22-24.76-47.82-24.76s-37.48 13.72-47.84 24.76c-9.66 10.3-17.3 18.44-33.24 18.44-15.94 0-23.58-8.14-33.26-18.44-10.34-11.04-23.22-24.76-47.82-24.76s-37.5 13.72-47.84 24.76c-9.68 10.3-17.32 18.44-33.26 18.44-15.94 0-23.58-8.14-33.24-18.44-10.36-11.04-23.24-24.76-47.84-24.76s-37.48 13.72-47.82 24.76c-9.68 10.3-17.32 18.44-33.26 18.44-15.94 0-23.58-8.14-33.24-18.44-10.36-11.04-23.24-24.76-47.84-24.76-5.52 0-10 4.48-10 10s4.48 10 10 10c15.94 0 23.58 8.14 33.26 18.44 10.34 11.02 23.22 24.76 47.82 24.76s37.48-13.74 47.84-24.76c9.66-10.3 17.3-18.44 33.24-18.44 15.94 0 23.58 8.14 33.26 18.44 10.34 11.02 23.22 24.76 47.82 24.76s37.48-13.74 47.84-24.76c9.68-10.3 17.3-18.44 33.26-18.44 15.94 0 23.58 8.14 33.24 18.44 10.36 11.02 23.24 24.76 47.84 24.76s37.48-13.74 47.82-24.76c9.68-10.3 17.32-18.44 33.26-18.44 15.94 0 23.58 8.14 33.24 18.44 10.36 11.02 23.24 24.76 47.84 24.76 24.6 0 37.48-13.74 47.84-24.76 9.66-10.3 17.3-18.44 33.24-18.44 15.94 0 23.58 8.14 33.26 18.44 10.34 11.02 23.24 24.76 47.84 24.76s37.48-13.74 47.82-24.76c9.68-10.3 17.32-18.44 33.26-18.44 15.94 0 23.58 8.14 33.26 18.44 10.36 11.02 23.24 24.76 47.84 24.76 24.6 0 37.5-13.74 47.84-24.76 9.68-10.3 17.32-18.44 33.26-18.44 5.52 0 10-4.48 10-10s-4.48-10-10-10z" fill="#23130D" p-id="39388"></path><path d="M224.8 697.7h90.2v34.634h-90.2zM704.69 697.7h90.2v34.634h-90.2zM160.18 330H183v266H160.18z" fill="#23130D" opacity=".2" p-id="39389"></path></svg>