<?xml version="1.0" standalone="no"?><!DOCTYPE svg PUBLIC "-//W3C//DTD SVG 1.1//EN" "http://www.w3.org/Graphics/SVG/1.1/DTD/svg11.dtd"><svg t="1625811803425" class="icon" viewBox="0 0 1024 1024" version="1.1" xmlns="http://www.w3.org/2000/svg" p-id="38743" xmlns:xlink="http://www.w3.org/1999/xlink" width="200" height="200"><defs><style type="text/css"></style></defs><path d="M969.34 850.12h-52.88V280.36c0-5.52-4.48-10-10-10h-112c-5.52 0-10 4.48-10 10v279.88h-92v-165.88c0-5.52-4.48-10-10-10h-112c-5.52 0-10 4.48-10 10v50.14h-102c-5.52 0-10 4.48-10 10v181.86h-92v-216c0-5.52-4.48-10-10-10h-112c-5.52 0-10 4.48-10 10v429.76h-39l-50.68-112.36V68.16l48.12 48.1a9.98 9.98 0 0 0 7.08 2.94c2.56 0 5.1-0.98 7.06-2.94a10.006 10.006 0 0 0 0-14.14L131.88 36.96c-0.48-0.48-1-0.9-1.56-1.28-0.18-0.12-0.38-0.2-0.56-0.3-0.38-0.22-0.76-0.44-1.16-0.62-0.26-0.1-0.52-0.16-0.76-0.24-0.38-0.12-0.74-0.24-1.12-0.32-0.42-0.08-0.84-0.1-1.28-0.14-0.22 0-0.42-0.06-0.66-0.06-0.2 0-0.4 0.06-0.6 0.06-0.46 0.04-0.9 0.06-1.34 0.14-0.36 0.08-0.7 0.2-1.04 0.3-0.28 0.1-0.56 0.16-0.82 0.26-0.38 0.16-0.72 0.36-1.06 0.56-0.22 0.12-0.46 0.22-0.68 0.36-0.54 0.36-1.04 0.78-1.5 1.22 0 0.02-0.02 0.02-0.02 0.04l-65.2 65.18c-3.9 3.9-3.9 10.24 0 14.14s10.24 3.92 14.14 0l48.12-48.12V191H66.84c-5.52 0-10 4.48-10 10s4.48 10 10 10h47.94v30.7H91.84c-5.54 0-10 4.48-10 10s4.46 10 10 10h22.94v30.7H66.84c-5.52 0-10 4.48-10 10s4.48 10 10 10h47.94v30.72H91.84c-5.54 0-10 4.46-10 10 0 5.52 4.46 10 10 10h22.94v30.68H66.84c-5.52 0-10 4.48-10 10s4.48 10 10 10h47.94v30.7H91.84c-5.54 0-10 4.48-10 10s4.46 10 10 10h22.94v30.7H66.84c-5.52 0-10 4.48-10 10 0 5.54 4.48 10 10 10h47.94v30.72H91.84c-5.54 0-10 4.48-10 10s4.46 10 10 10h22.94v30.7H66.84c-5.52 0-10 4.46-10 10 0 5.52 4.48 10 10 10h47.94v30.68H91.84c-5.54 0-10 4.48-10 10 0 5.54 4.46 10 10 10h22.94v30.72H66.84c-5.52 0-10 4.48-10 10s4.48 10 10 10h47.94v19.72l-60.86 135c-6.06 11.44-9.26 24.4-9.26 37.44 0 44.18 35.94 80.14 80.12 80.14 44.18 0 80.14-35.96 80.14-80.14 0-13.06-3.2-26-9.26-37.44l-1.18-2.62h774.86c5.52 0 10-4.48 10-10s-4.48-10-10-10z m-844.56 120.2c-33.16 0-60.12-26.98-60.12-60.14 0-9.88 2.44-19.68 7.06-28.32l0.3-0.6 52.76-117.02 44.96 99.68c0.04 0.08 0.08 0.16 0.1 0.24l7.72 17.1c0.08 0.2 0.18 0.4 0.3 0.6 4.6 8.64 7.06 18.42 7.06 28.32 0 33.16-26.98 60.14-60.14 60.14z m211.68-120.2h-92V430.36h92v419.76z m112 0h-92v-193.76h92v193.76z m112 0h-92V464.5h92v385.62z m112 0h-92V404.36h92v445.76z m112 0h-92V580.24h92v269.88z m112 0h-92V290.36h92v559.76z" fill="#23130D" p-id="38744"></path><path d="M804.46 290.36h92v559.76h-92z" fill="#3594BF" p-id="38745"></path><path d="M692.46 580.24h92v269.88h-92z" fill="#F9C139" p-id="38746"></path><path d="M580.46 404.36h92v445.76h-92z" fill="#3594BF" p-id="38747"></path><path d="M468.46 464.5h92v385.62h-92z" fill="#F9C139" p-id="38748"></path><path d="M356.46 656.36h92v193.76h-92z" fill="#EC7063" p-id="38749"></path><path d="M184.92 910.18c0 33.16-26.98 60.14-60.14 60.14s-60.12-26.98-60.12-60.14c0-9.88 2.44-19.68 7.06-28.32l0.3-0.6 52.76-117.02 44.96 99.68c0.04 0.08 0.08 0.16 0.1 0.24l7.72 17.1c0.08 0.2 0.18 0.4 0.3 0.6 4.6 8.64 7.06 18.42 7.06 28.32z" fill="#F9C139" p-id="38750"></path><path d="M141.46 967.96c-5.3 1.54-10.9 2.36-16.68 2.36-33.16 0-60.12-26.98-60.12-60.14 0-9.88 2.44-19.68 7.06-28.32l0.3-0.6 52.76-117.02 16.68 36.96-36.1 80.06-0.3 0.6A60.268 60.268 0 0 0 98 910.18c0 27.38 18.38 50.54 43.46 57.78z" fill="#23130D" opacity=".2" p-id="38751"></path><path d="M244.46 430.36h92v419.76h-92z" fill="#3594BF" p-id="38752"></path><path d="M244.46 430.36H264v419.76h-19.54zM356.46 656.36H376v193.76h-19.54zM468.46 464.5H488v385.62h-19.54zM580.46 404.36H600v445.76h-19.54zM692.46 582H712v268.12h-19.54zM804.46 290.36H824v559.76h-19.54z" fill="#23130D" opacity=".2" p-id="38753"></path><path d="M857.834 200.54h-47.298a10 10 0 1 0 0 20h31.442v26.592a10 10 0 1 0 20 0v-26.794c9.802-0.942 18.894-5.212 25.948-12.268a42.3 42.3 0 0 0 12.458-30.096c0-23.472-19.088-42.568-42.55-42.568h-14.734c-12.442 0-22.562-10.122-22.562-22.56 0-12.446 10.122-22.572 22.562-22.572h47.296a10 10 0 1 0 0-20h-28.418V43.684a10 10 0 1 0-20 0v26.648c-22.948 0.602-41.442 19.42-41.442 42.514 0 23.468 19.094 42.56 42.562 42.56h14.734c12.434 0 22.55 10.124 22.55 22.568 0 6.03-2.346 11.696-6.606 15.958a22.38 22.38 0 0 1-15.942 6.608z" fill="#23130D" p-id="38754"></path></svg>