<?xml version="1.0" standalone="no"?><!DOCTYPE svg PUBLIC "-//W3C//DTD SVG 1.1//EN" "http://www.w3.org/Graphics/SVG/1.1/DTD/svg11.dtd"><svg t="1625811808946" class="icon" viewBox="0 0 1024 1024" version="1.1" xmlns="http://www.w3.org/2000/svg" p-id="39051" xmlns:xlink="http://www.w3.org/1999/xlink" width="200" height="200"><defs><style type="text/css"></style></defs><path d="M951.02 135.16c-32.26-45.12-80.14-74.96-134.84-84.04a10.024 10.024 0 0 0-11.52 8.22 9.992 9.992 0 0 0 8.24 11.5c8.02 1.34 15.86 3.22 23.52 5.52l-19.92 119.9v0.1l-4.58 27.56-603.4-100.18 1.94-11.68c0.9-5.44-2.78-10.6-8.24-11.5L69.3 78.48c-2.62-0.44-5.3 0.18-7.46 1.72s-3.6 3.88-4.04 6.5l-15.82 95.2a9.994 9.994 0 0 0 8.22 11.5l66.02 10.98v440.66H67.54c-18.38 0-33.34 15.76-33.34 35.12v103.72c0 19.38 14.96 35.14 33.34 35.14h117.36c9.04 0 17.5-3.76 23.82-10.56 6.14-6.6 9.52-15.32 9.52-24.58v-103.72c0-19.36-14.96-35.12-33.34-35.12H136.22V207.7l46.9 7.8c0.56 0.08 1.1 0.12 1.64 0.12 2.08 0 4.12-0.64 5.82-1.86a10.02 10.02 0 0 0 4.06-6.5l1.94-11.7L458 238.96c-17.2 11.62-29.3 30.22-32.2 51.72h-18.18c-16.66 0-30.22 13.56-30.22 30.22v3.52c0 13.4 8.78 24.78 20.88 28.72l-34.34 224.76h-9.08c-16.66 0-30.22 13.54-30.22 30.22v3.5c0 16.44 13.2 29.82 29.54 30.2l-16.42 107.4v0.04l-24.44 159.8h-7.62c-16.66 0-30.22 13.56-30.22 30.22v3.52c0 16.66 13.56 30.22 30.22 30.22h387.6c16.66 0 30.22-13.56 30.22-30.24l-0.02-3.5c0-16.66-13.54-30.22-30.22-30.22h-7.62l-40.82-267.24c7.8-0.18 15.12-3.28 20.66-8.82 5.7-5.72 8.84-13.3 8.84-21.38v-3.5c0-16.68-13.54-30.22-30.22-30.22h-9.06l-19.62-128.42v-0.02l-14.72-96.32c4.48-1.44 8.6-3.92 12.02-7.36 5.72-5.7 8.86-13.3 8.86-21.36v-3.52c0-16.66-13.56-30.22-30.22-30.22h-18.18a74.484 74.484 0 0 0-14.5-35L800 295.74l-4.02 24.28-0.06 0.18-20.46 123.22c-8-0.3-16.02-1.1-24.04-2.44-5.44-0.88-10.6 2.78-11.5 8.24-0.92 5.44 2.78 10.6 8.22 11.5 11.5 1.9 23.02 2.86 34.46 2.86 33.12 0 65.54-7.96 94.98-23.28v358.74h-48.68c-18.38 0-33.34 15.76-33.34 35.12v103.72c0 19.38 14.96 35.14 33.34 35.14h117.34c18.38 0 33.34-15.76 33.34-35.14v-103.72c0-19.36-14.96-35.12-33.34-35.12h-48.66V428.46c1.78-1.2 3.58-2.42 5.34-3.68 45.1-32.24 74.96-80.14 84.04-134.84 0.08-0.48 0.14-0.98 0.22-1.46 0.02-0.06 0.04-0.12 0.06-0.2v-0.22c8.5-54.08-4.32-108.32-36.22-152.9zM184.9 665.04c7.34 0 13.34 6.78 13.34 15.12v103.72c0 8.34-5.98 15.14-13.34 15.14H67.54c-7.34 0-13.34-6.8-13.34-15.14v-103.72c0-8.34 6-15.12 13.34-15.12h117.36zM176.54 194.12l-40.32-6.7V146.98c0-5.52-4.48-10-10-10s-10 4.48-10 10v37.12l-52.88-8.78 12.54-75.48 113.2 18.8-12.54 75.48z m679.02-110.9c31.48 13.32 58.8 35.06 79.2 63.56 2.12 2.98 4.14 6 6.08 9.06l-62.88 40.44-40.08-6.64 17.68-106.42z m-20.94 126.14l33.98 5.64-8.64 52.02c0 0.04-0.02 0.08-0.04 0.12v0.14l-8.62 51.94-33.98-5.64 17.3-104.22z m-335.12 36.92c1.06 0 2.12 0.04 3.18 0.1l11.46 1.9c20.14 5.62 35.02 22.34 38.8 42.4h-106.9c4.72-25.24 26.88-44.4 53.46-44.4z m-98.38 220.6l78.66 46.3-94.2 55.42 15.54-101.72z m12.68-15.74l85.7-46.46 85.7 46.46-85.7 50.44-85.7-50.44z m175.96 126.76h-180.52l90.26-53.12 90.26 53.12z m-69.28-184.6l61.08-33.1 11.04 72.2-72.12-39.1z m-20.98-11.36l-50.36-27.3h100.72l-50.36 27.3z m-20.98 11.36L406.4 432.4l11.04-72.2 61.08 33.1zM355.36 766.4l122.1 62.2-142.72 72.7 20.62-134.9z m16-14.3l128.14-53.56 128.14 53.56-128.14 65.28-128.14-65.28z m264.04 156.96H363.58l135.92-69.24 135.9 69.24z m-109.96-221.36l99.8-41.7 13.62 89.1-113.42-47.4z m-25.94-10.84l-83.82-35.02h167.64l-83.82 35.02z m-25.94 10.84l-113.42 47.4 13.62-89.1 99.8 41.7z m203.52 241.36h16.2c5.64 0 10.22 4.58 10.22 10.24l0.02 3.5c0 5.62-4.6 10.22-10.22 10.22h-387.6a10.24 10.24 0 0 1-10.22-10.22v-3.52c0-5.64 4.58-10.22 10.22-10.22h371.38z m-12.84-27.76l-142.72-72.7 122.12-62.22 20.6 134.92z m-20.12-303.4c5.64 0 10.22 4.58 10.22 10.22v3.5c0 5.64-4.58 10.22-10.2 10.22H354.86c-5.64 0-10.22-4.58-10.22-10.22v-3.5c0-5.64 4.58-10.22 10.22-10.22h289.26zM613.4 568.6l-94.18-55.42 78.64-46.28 15.54 101.7z m-22.02-257.92a10.24 10.24 0 0 1 10.22 10.22v3.52c0 5.62-4.6 10.22-10.22 10.22h-183.76a10.24 10.24 0 0 1-10.22-10.22v-3.52c0-5.64 4.58-10.22 10.22-10.22h183.76zM199.88 175.82l5.36-32.36 603.4 100.2-5.36 32.36-603.4-100.2z m746.36 643.22c7.36 0 13.34 6.78 13.34 15.12v103.72c0 8.34-5.98 15.14-13.34 15.14h-117.34c-7.36 0-13.34-6.8-13.34-15.14v-103.72c0-8.34 5.98-15.12 13.34-15.12h117.34z m-54.96-410.52c-28.5 20.4-61.4 32.14-95.5 34.56l18.24-109.78 40 6.64 47.84 60.38a195.81 195.81 0 0 1-10.58 8.2z m25.34-21.78l-46.52-58.7 7.92-47.74 87.64 14.54c-7.4 35.04-24.38 66.66-49.04 91.9z m52.16-111.66l-87.48-14.52 7.94-47.76 61.4-39.48c15.5 31.46 21.8 66.5 18.14 101.76z" fill="#23130D" p-id="39052"></path><path d="M552.94 290.68h-106.9c4.72-25.24 26.88-44.4 53.46-44.4 1.06 0 2.12 0.04 3.18 0.1l11.46 1.9c20.14 5.62 35.02 22.34 38.8 42.4z" fill="#636368" p-id="39053"></path><path d="M601.6 320.9v3.52c0 5.62-4.6 10.22-10.22 10.22h-183.76a10.24 10.24 0 0 1-10.22-10.22v-3.52c0-5.64 4.58-10.22 10.22-10.22h183.76a10.24 10.24 0 0 1 10.22 10.22z" fill="#E1E1E5" p-id="39054"></path><path d="M601.6 320.9v3.52c0 5.62-4.6 10.22-10.22 10.22h-183.76a10.24 10.24 0 0 1-10.22-10.22v-3.52c0-1.26 0.22-2.46 0.66-3.58a10.214 10.214 0 0 0 9.56 6.66h183.76c4.36 0 8.12-2.78 9.56-6.66 0.42 1.12 0.66 2.32 0.66 3.58z" fill="#23130D" opacity=".2" p-id="39055"></path><path d="M654.34 608.12v3.5c0 5.64-4.58 10.22-10.2 10.22H354.86c-5.64 0-10.22-4.58-10.22-10.22v-3.5c0-5.64 4.58-10.22 10.22-10.22h289.26c5.64 0 10.22 4.58 10.22 10.22z" fill="#E1E1E5" p-id="39056"></path><path d="M654.34 608.12v3.5c0 5.64-4.58 10.22-10.2 10.22H354.86c-5.64 0-10.22-4.58-10.22-10.22v-3.5c0-1.5 0.32-2.94 0.92-4.22a10.238 10.238 0 0 0 9.3 5.96h289.28c4.12 0 7.66-2.44 9.28-5.96 0.6 1.28 0.92 2.72 0.92 4.22z" fill="#23130D" opacity=".2" p-id="39057"></path><path d="M703.52 942.8c0 5.62-4.6 10.22-10.22 10.22h-387.6a10.24 10.24 0 0 1-10.22-10.22v-3.52c0-5.64 4.58-10.22 10.22-10.22h387.58c5.64 0 10.22 4.58 10.22 10.24l0.02 3.5z" fill="#E1E1E5" p-id="39058"></path><path d="M703.52 942.8c0 5.62-4.6 10.22-10.22 10.22h-387.6a10.24 10.24 0 0 1-10.22-10.22v-3.52c0-1.26 0.22-2.46 0.66-3.56a10.224 10.224 0 0 0 9.56 6.64h387.6c4.36 0 8.1-2.76 9.56-6.62 0.42 1.1 0.64 2.3 0.64 3.56l0.02 3.5z" fill="#23130D" opacity=".2" p-id="39059"></path><path d="M189.08 118.64l-12.54 75.48-40.32-6.7V146.98c0-5.52-4.48-10-10-10s-10 4.48-10 10v37.12l-52.88-8.78 12.54-75.48 113.2 18.8z" fill="#E1E1E5" p-id="39060"></path><path d="M189.08 118.64l-12.54 75.48-11.9-1.98 10.44-62.84-101.3-16.82 2.1-12.64z" fill="#23130D" opacity=".2" p-id="39061"></path><path d="M808.64 243.66l-5.36 32.36-603.4-100.2 5.36-32.36z" fill="#F9C139" p-id="39062"></path><path d="M808.64 243.66l-5.36 32.36h-0.02l3.38-20.36-603.38-100.2 1.98-12z" fill="#23130D" opacity=".2" p-id="39063"></path><path d="M868.6 215l-8.64 52.02c0 0.04-0.02 0.08-0.04 0.12v0.14l-8.62 51.94-33.98-5.64 17.3-104.22 33.98 5.64z" fill="#E1E1E5" p-id="39064"></path><path d="M868.6 215l-1.36 8.2-26.12-4.34-15.94 96.02-7.86-1.3 17.3-104.22z" fill="#23130D" opacity=".2" p-id="39065"></path><path d="M959.58 834.16v103.72c0 8.34-5.98 15.14-13.34 15.14h-117.34c-7.36 0-13.34-6.8-13.34-15.14v-103.72c0-8.34 5.98-15.12 13.34-15.12h117.34c7.36 0 13.34 6.78 13.34 15.12zM198.24 680.16v103.72c0 8.34-5.98 15.14-13.34 15.14H67.54c-7.34 0-13.34-6.8-13.34-15.14v-103.72c0-8.34 6-15.12 13.34-15.12h117.36c7.34 0 13.34 6.78 13.34 15.12z" fill="#3594BF" p-id="39066"></path><path d="M198.24 680.16v0.88H83.54c-7.34 0-13.34 6.78-13.34 15.12v102.86h-2.66c-7.34 0-13.34-6.8-13.34-15.14v-103.72c0-8.34 6-15.12 13.34-15.12h117.36c7.34 0 13.34 6.78 13.34 15.12z" fill="#FFFFFF" opacity=".4" p-id="39067"></path><path d="M198.24 680.16v103.72c0 8.34-5.98 15.14-13.34 15.14H67.54c-7.34 0-13.34-6.8-13.34-15.14v-0.86h114.7c7.36 0 13.34-6.8 13.34-15.14v-102.84h2.66c7.34 0 13.34 6.78 13.34 15.12z" fill="#23130D" opacity=".2" p-id="39068"></path><path d="M959.59 834.16v0.88h-114.7c-7.34 0-13.34 6.78-13.34 15.12v102.86h-2.66c-7.34 0-13.34-6.8-13.34-15.14v-103.72c0-8.34 6-15.12 13.34-15.12h117.36c7.34 0 13.34 6.78 13.34 15.12z" fill="#FFFFFF" opacity=".4" p-id="39069"></path><path d="M959.59 834.16v103.72c0 8.34-5.98 15.14-13.34 15.14h-117.36c-7.34 0-13.34-6.8-13.34-15.14v-0.86h114.7c7.36 0 13.34-6.8 13.34-15.14v-102.84h2.66c7.34 0 13.34 6.78 13.34 15.12z" fill="#23130D" opacity=".2" p-id="39070"></path></svg>