<?xml version="1.0" standalone="no"?><!DOCTYPE svg PUBLIC "-//W3C//DTD SVG 1.1//EN" "http://www.w3.org/Graphics/SVG/1.1/DTD/svg11.dtd"><svg t="1625811821996" class="icon" viewBox="0 0 1024 1024" version="1.1" xmlns="http://www.w3.org/2000/svg" p-id="39691" xmlns:xlink="http://www.w3.org/1999/xlink" width="200" height="200"><defs><style type="text/css"></style></defs><path d="M960.08 822.78h-11.86V412.64c-0.02-59.74-48.64-108.34-108.4-108.34-25.12 0-48.84 8.5-67.88 23.86v-9.2c0-66.06-51.14-120.36-115.9-125.48V136.06v-0.04c0-33.64-27.36-61-61-61H392c-1.12 0-2.2 0.22-3.2 0.56-59.74 1.72-107.82 50.8-107.82 110.94v39.82c0 24.64 20.04 44.7 44.68 44.7 0.1 0 0.18-0.04 0.28-0.04 13.48 0.16 24.42 11.16 24.42 24.68v79.74c-3.18-0.1-6.38-0.16-9.58-0.16-68.3 0-134.46 24.4-186.3 68.74-51.26 43.82-85.58 104.4-96.62 170.56v0.02c-2.62 15.6-3.94 31.58-3.94 47.54 0 15.9 1.32 31.88 3.92 47.52v0.02c11.04 66.18 45.36 126.76 96.62 170.58 51.84 44.32 118.02 68.74 186.32 68.74 55.04 0 107.72-15.38 153.58-44.6v34.62c0 5.52 4.48 10 10 10h283.34c0.02 0 0.02-0.02 0.02-0.02h172.36c5.52 0 10-4.46 10-10v-106.2c0-5.52-4.48-10-10-10zM646.04 213.04c58.4 0 105.9 47.52 105.9 105.92v56.98H706c-5.52 0-10 4.48-10 10s4.48 10 10 10h45.94v29.4H706c-5.52 0-10 4.48-10 10s4.48 10 10 10h45.94v29.38H706c-5.52 0-10 4.48-10 10s4.48 10 10 10h45.94v29.4H706c-5.52 0-10 4.46-10 10 0 5.52 4.48 10 10 10h45.94v29.38H706c-5.52 0-10 4.48-10 10s4.48 10 10 10h45.94v29.4H706c-5.52 0-10 4.48-10 10s4.48 10 10 10h45.94v29.38H706c-5.52 0-10 4.48-10 10s4.48 10 10 10h45.94v29.4H706c-5.52 0-10 4.48-10 10s4.48 10 10 10h45.94v62.2H540.12V318.96c0-58.4 47.52-105.92 105.92-105.92zM325.66 251c-0.08 0-0.18 0.02-0.28 0.02-13.48-0.16-24.4-11.16-24.4-24.68V186.52c0-50.18 40.84-91.02 91.02-91.02 1.04 0 2-0.2 2.94-0.48h200.1c22.6 0 40.98 18.38 41 40.96v57.5c-64.78 5.12-115.92 59.42-115.92 125.48v119.3c-42.88-34.36-95.08-55.84-149.76-61.48v-81.1c0-24.64-20.06-44.68-44.7-44.68z m15.12 144.26c6.38 0 12.74 0.22 18.88 0.66 59.48 4.16 116.28 28.48 160.46 68.62v141.7H79.78c26.06-122.94 133.98-210.98 261-210.98zM76.2 697.02a189 189 0 0 1-0.88-7.54c-0.06-0.48-0.1-0.96-0.14-1.44-0.22-2.26-0.4-4.54-0.56-6.82-0.04-0.56-0.1-1.12-0.14-1.7-0.16-2.52-0.28-5.06-0.38-7.6-0.02-0.62-0.04-1.26-0.04-1.9-0.08-2.54-0.14-5.06-0.14-7.6v-0.6c0-2.54 0.06-5.08 0.14-7.62 0-0.64 0.02-1.26 0.04-1.9 0.1-2.54 0.22-5.1 0.4-7.64 0.02-0.54 0.08-1.08 0.12-1.62 0.16-2.32 0.34-4.64 0.58-6.94l0.12-1.32c0.26-2.54 0.56-5.1 0.9-7.62l0.12-0.92h443.78V698H76.32l-0.12-0.98z m418.16 116.86v66.42c-45.06 31.84-98.04 48.68-153.58 48.68-127.04 0-234.96-88.04-261-210.98h440.34v85.88h-15.76c-5.52 0-10 4.48-10 10z m283.34 18.88V928.98h-58.12c-0.02 0-0.02 0.02-0.02 0.02h-205.2v-105.12h263.34v8.88z m10-28.88h-15.76V356.12c16.88-20.26 41.42-31.82 67.88-31.82 48.74 0 88.4 39.64 88.4 88.4v1.92h-45.94c-5.52 0-10 4.46-10 10 0 5.52 4.48 10 10 10h45.94V464h-45.94c-5.52 0-10 4.48-10 10s4.48 10 10 10h45.94v29.4h-45.94c-5.52 0-10 4.46-10 10 0 5.52 4.48 10 10 10h45.94v29.38h-45.94c-5.52 0-10 4.48-10 10s4.48 10 10 10h45.94v29.38h-45.94c-5.52 0-10 4.48-10 10 0 5.54 4.48 10 10 10h45.94v29.4h-45.94c-5.52 0-10 4.48-10 10s4.48 10 10 10h45.94v29.4h-45.94c-5.52 0-10 4.46-10 10 0 5.52 4.48 10 10 10h45.94v29.38h-45.94c-5.52 0-10 4.48-10 10s4.48 10 10 10h45.94v42.44h-130.52v-8.9c0-5.52-4.48-10-10-10z m162.38 125.1h-152.38v-86.2h152.38v86.2z" fill="#23130D" p-id="39692"></path><path d="M872.28 424.62c0 5.52 4.48 10 10 10h45.94V464h-45.94c-5.52 0-10 4.48-10 10s4.48 10 10 10h45.94v29.4h-45.94c-5.52 0-10 4.46-10 10 0 5.52 4.48 10 10 10h45.94v29.38h-45.94c-5.52 0-10 4.48-10 10s4.48 10 10 10h45.94v29.38h-45.94c-5.52 0-10 4.48-10 10 0 5.54 4.48 10 10 10h45.94v29.4h-45.94c-5.52 0-10 4.48-10 10s4.48 10 10 10h45.94v29.4h-45.94c-5.52 0-10 4.46-10 10 0 5.52 4.48 10 10 10h45.94v29.38h-45.94c-5.52 0-10 4.48-10 10s4.48 10 10 10h45.94v42.44h-130.52v-8.9c0-5.52-4.48-10-10-10h-15.76V356.12c16.88-20.26 41.42-31.82 67.88-31.82 48.74 0 88.4 39.64 88.4 88.4v1.92h-45.94c-5.52 0-10 4.46-10 10z" fill="#3594BF" p-id="39693"></path><path d="M829.7 813.88v8.9h-32v-8.9c0-5.52-4.48-10-10-10h-15.76V356.12c16.88-20.26 41.42-31.82 67.88-31.82 5.46 0 10.82 0.5 16 1.46-20.22 3.66-38.46 14.26-51.88 30.36v447.76h15.76c5.52 0 10 4.48 10 10z" fill="#23130D" opacity=".2" p-id="39694"></path><path d="M797.7 842.78h152.38v86.2h-152.38z" fill="#E1E1E5" p-id="39695"></path><path d="M797.7 842.78h152.38v27.554h-152.38z" fill="#23130D" opacity=".2" p-id="39696"></path><path d="M777.7 823.88V928.98h-58.12c-0.02 0-0.02 0.02-0.02 0.02h-205.2v-105.12h263.34z" fill="#E1E1E5" p-id="39697"></path><path d="M777.7 823.88v23.782h-58.12c-0.02 0-0.02 0.004-0.02 0.004h-205.2V823.88h263.34z" fill="#23130D" opacity=".2" p-id="39698"></path><path d="M696 385.94c0 5.52 4.48 10 10 10h45.94v29.4H706c-5.52 0-10 4.48-10 10s4.48 10 10 10h45.94v29.38H706c-5.52 0-10 4.48-10 10s4.48 10 10 10h45.94v29.4H706c-5.52 0-10 4.46-10 10 0 5.52 4.48 10 10 10h45.94v29.38H706c-5.52 0-10 4.48-10 10s4.48 10 10 10h45.94v29.4H706c-5.52 0-10 4.48-10 10s4.48 10 10 10h45.94v29.38H706c-5.52 0-10 4.48-10 10s4.48 10 10 10h45.94v29.4H706c-5.52 0-10 4.48-10 10s4.48 10 10 10h45.94v62.2H540.12V318.96c0-58.4 47.52-105.92 105.92-105.92s105.9 47.52 105.9 105.92v56.98H706c-5.52 0-10 4.48-10 10z" fill="#3594BF" p-id="39699"></path><path d="M664.72 214.7c-49.54 8.84-87.26 52.22-87.26 104.26v484.92h-37.34V318.96c0-58.4 47.52-105.92 105.92-105.92 6.38 0 12.62 0.56 18.68 1.66z" fill="#23130D" opacity=".2" p-id="39700"></path><path d="M520.12 718v85.88h-15.76c-5.52 0-10 4.48-10 10v66.42c-45.06 31.84-98.04 48.68-153.58 48.68-127.04 0-234.96-88.04-261-210.98h440.34z" fill="#F9C139" p-id="39701"></path><path d="M520.12 626.24V698H76.32l-0.12-0.98a189 189 0 0 1-0.88-7.54c-0.06-0.48-0.1-0.96-0.14-1.44-0.22-2.26-0.4-4.54-0.56-6.82-0.04-0.56-0.1-1.12-0.14-1.7-0.16-2.52-0.28-5.06-0.38-7.6-0.02-0.62-0.04-1.26-0.04-1.9-0.08-2.54-0.14-5.06-0.14-7.6v-0.6c0-2.54 0.06-5.08 0.14-7.62 0-0.64 0.02-1.26 0.04-1.9 0.1-2.54 0.22-5.1 0.4-7.64 0.02-0.54 0.08-1.08 0.12-1.62 0.16-2.32 0.34-4.64 0.58-6.94l0.12-1.32c0.26-2.54 0.56-5.1 0.9-7.62l0.12-0.92h443.78z" fill="#E1E1E5" p-id="39702"></path><path d="M520.12 464.54v141.7H79.78c26.06-122.94 133.98-210.98 261-210.98 6.38 0 12.74 0.22 18.88 0.66 59.48 4.16 116.28 28.48 160.46 68.62z" fill="#F9C139" p-id="39703"></path><path d="M364.2 927.96c-7.74 0.68-15.56 1.02-23.42 1.02-127.04 0-234.96-88.04-261-210.98h47c24.42 115.26 120.78 199.84 237.42 209.96zM123.2 697.02l0.12 0.98h-47l-0.12-0.98a189 189 0 0 1-0.88-7.54c-0.06-0.48-0.1-0.96-0.14-1.44-0.22-2.26-0.4-4.54-0.56-6.82-0.04-0.56-0.1-1.12-0.14-1.7-0.16-2.52-0.28-5.06-0.38-7.6-0.02-0.62-0.04-1.26-0.04-1.9-0.08-2.54-0.14-5.06-0.14-7.6v-0.6c0-2.54 0.06-5.08 0.14-7.62 0-0.64 0.02-1.26 0.04-1.9 0.1-2.54 0.22-5.1 0.4-7.64 0.02-0.54 0.08-1.08 0.12-1.62 0.16-2.32 0.34-4.64 0.58-6.94l0.12-1.32c0.26-2.54 0.56-5.1 0.9-7.62l0.12-0.92h47l-0.12 0.92c-0.34 2.52-0.64 5.08-0.9 7.62l-0.12 1.32c-0.24 2.3-0.42 4.62-0.58 6.94-0.04 0.54-0.1 1.08-0.12 1.62-0.18 2.54-0.3 5.1-0.4 7.64-0.02 0.64-0.04 1.26-0.04 1.9-0.08 2.54-0.14 5.08-0.14 7.62v0.6c0 2.54 0.06 5.06 0.14 7.6 0 0.64 0.02 1.28 0.04 1.9 0.1 2.54 0.22 5.08 0.38 7.6 0.04 0.58 0.1 1.14 0.14 1.7 0.16 2.28 0.34 4.56 0.56 6.82 0.04 0.48 0.08 0.96 0.14 1.44 0.24 2.52 0.54 5.04 0.88 7.54zM364.2 396.28c-116.62 10.12-212.98 94.7-237.42 209.96h-47c26.06-122.94 133.98-210.98 261-210.98 6.38 0 12.74 0.22 18.88 0.66 1.52 0.1 3.04 0.22 4.54 0.36z" fill="#23130D" opacity=".2" p-id="39704"></path></svg>