<?xml version="1.0" standalone="no"?><!DOCTYPE svg PUBLIC "-//W3C//DTD SVG 1.1//EN" "http://www.w3.org/Graphics/SVG/1.1/DTD/svg11.dtd"><svg t="1625811828207" class="icon" viewBox="0 0 1024 1024" version="1.1" xmlns="http://www.w3.org/2000/svg" p-id="40003" xmlns:xlink="http://www.w3.org/1999/xlink" width="200" height="200"><defs><style type="text/css"></style></defs><path d="M792.86 325.02c-19 0-37.58 2.96-55.42 8.74-20.68-81.22-84.22-145.5-165-167.26V145.92c0-5.52-4.48-10-10-10s-10 4.48-10 10v16.14A232.5 232.5 0 0 0 512 158.52c-13.8 0-27.3 1.22-40.44 3.52v-16.12c0-5.52-4.48-10-10-10s-10 4.48-10 10v20.58c-80.78 21.76-144.32 86.04-165 167.26a179.272 179.272 0 0 0-55.44-8.74c-99.46 0-180.36 80.92-180.36 180.36v372.7c0 5.52 4.48 10 10 10h902.48c5.52 0 10-4.48 10-10V505.38c0-99.44-80.92-180.36-180.38-180.36z m-513.48 66.1v476.96H70.76V505.38c0-88.42 71.94-160.36 160.36-160.36 17.64 0 34.86 2.84 51.34 8.4-2 12.28-3.08 24.88-3.08 37.7zM471.56 182.4c13.1-2.54 26.6-3.88 40.44-3.88 13.82 0 27.34 1.34 40.44 3.88v31.78h-80.88V182.4z m0 51.78h80.88v35.64h-80.88v-35.64z m0 55.64h80.88v35.64h-80.88v-35.64z m0 55.64h80.88v35.66h-80.88v-35.66z m0 55.66h80.88v35.64h-80.88v-35.64z m0 55.64h80.88v35.66h-80.88v-35.66z m0 55.66h80.88v35.64h-80.88v-35.64z m0 55.64h80.88v35.64h-80.88v-35.64z m0 55.64h80.88v35.64h-80.88v-35.64z m0 55.64h80.88v35.66h-80.88v-35.66z m0 55.66h80.88v35.64h-80.88V735z m253.04 133.08H299.38V391.12c0-96.24 64.3-177.74 152.18-203.84v650.82c0 5.52 4.48 10 10 10s10-4.48 10-10v-47.46h80.88v47.46c0 5.52 4.48 10 10 10s10-4.48 10-10V187.28c87.88 26.12 152.16 107.6 152.16 203.84v476.96z m228.64 0H744.6V391.12c0-12.84-1.06-25.42-3.06-37.7 16.48-5.56 33.7-8.4 51.32-8.4 88.44 0 160.38 71.94 160.38 160.36v362.7z" fill="#23130D" p-id="40004"></path><path d="M471.56 512.42h80.88v35.64h-80.88zM552.44 182.4v31.78h-80.88V182.4c13.1-2.54 26.6-3.88 40.44-3.88 13.82 0 27.34 1.34 40.44 3.88zM471.56 234.18h80.88v35.64h-80.88z" fill="#636368" p-id="40005"></path><path d="M471.56 234.18h80.88V242h-80.88z" fill="#FFFFFF" opacity=".4" p-id="40006"></path><path d="M471.56 289.82h80.88v35.64h-80.88zM471.56 345.46h80.88v35.66h-80.88zM471.56 401.12h80.88v35.64h-80.88zM471.56 456.76h80.88v35.66h-80.88zM471.56 568.06h80.88v35.64h-80.88zM471.56 623.7h80.88v35.64h-80.88zM471.56 679.34h80.88v35.66h-80.88zM471.56 735h80.88v35.64h-80.88z" fill="#636368" p-id="40007"></path><path d="M953.24 505.38v362.7H744.6V391.12c0-12.84-1.06-25.42-3.06-37.7 16.48-5.56 33.7-8.4 51.32-8.4 88.44 0 160.38 71.94 160.38 160.36z" fill="#3594BF" p-id="40008"></path><path d="M724.6 391.12v476.96H299.38V391.12c0-96.24 64.3-177.74 152.18-203.84v650.82c0 5.52 4.48 10 10 10s10-4.48 10-10v-47.46h80.88v47.46c0 5.52 4.48 10 10 10s10-4.48 10-10V187.28c87.88 26.12 152.16 107.6 152.16 203.84z" fill="#E1E1E5" p-id="40009"></path><path d="M451.56 187.28v25.14c-58.66 37.88-97.58 103.82-97.58 178.7v476.96h-54.6V391.12c0-96.24 64.3-177.74 152.18-203.84z" fill="#23130D" opacity=".2" p-id="40010"></path><path d="M282.46 353.42c-2 12.28-3.08 24.88-3.08 37.7v476.96H70.76V505.38c0-88.42 71.94-160.36 160.36-160.36 17.64 0 34.86 2.84 51.34 8.4z" fill="#3594BF" p-id="40011"></path><path d="M282.46 353.42c-2 12.28-3.08 24.88-3.08 37.7v476.96h-48V391.12c0-12.82 1.08-25.42 3.08-37.7a158.34 158.34 0 0 0-27.3-6.6c7.82-1.18 15.82-1.8 23.96-1.8 17.64 0 34.86 2.84 51.34 8.4zM741.54 353.42c2 12.28 3.08 24.88 3.08 37.7v476.96h48V391.12c0-12.82-1.08-25.42-3.08-37.7a158.34 158.34 0 0 1 27.3-6.6c-7.82-1.18-15.82-1.8-23.96-1.8-17.64 0-34.86 2.84-51.34 8.4z" fill="#23130D" opacity=".2" p-id="40012"></path><path d="M471.56 289.82h80.88v7.82h-80.88zM471.56 345.46h80.88v7.82h-80.88zM471.56 401.1h80.88v7.82h-80.88zM471.56 456.74h80.88v7.82h-80.88zM471.56 512.38h80.88v7.82h-80.88zM471.56 568.02h80.88v7.82h-80.88zM471.56 623.66h80.88v7.82h-80.88zM471.56 679.3h80.88v7.82h-80.88zM471.56 734.94h80.88v7.82h-80.88z" fill="#FFFFFF" opacity=".4" p-id="40013"></path></svg>