<?xml version="1.0" standalone="no"?><!DOCTYPE svg PUBLIC "-//W3C//DTD SVG 1.1//EN" "http://www.w3.org/Graphics/SVG/1.1/DTD/svg11.dtd"><svg t="1625812281760" class="icon" viewBox="0 0 1024 1024" version="1.1" xmlns="http://www.w3.org/2000/svg" p-id="58632" xmlns:xlink="http://www.w3.org/1999/xlink" width="200" height="200"><defs><style type="text/css"></style></defs><path d="M547.76 83.7c0 5.52-4.48 10-10 10h-89.86c-5.52 0-10-4.48-10-10s4.48-10 10-10h89.86c5.52 0 10 4.48 10 10zM399.66 83.7c0 5.52-4.48 10-10 10h-24.22c-5.52 0-10-4.48-10-10s4.48-10 10-10h24.22c5.52 0 10 4.48 10 10zM452.24 422.88c-1.12 0.42-2.28 0.6-3.42 0.6-4.08 0-7.92-2.52-9.4-6.58l-7.46-20.5c-1.88-5.18 0.8-10.92 5.98-12.82 5.2-1.88 10.92 0.8 12.82 5.98l7.46 20.5c1.88 5.2-0.78 10.94-5.98 12.82zM419.98 449.96c-1.84 3.2-5.2 5-8.66 5-1.7 0-3.42-0.44-5-1.34l-18.88-10.92a9.968 9.968 0 0 1-3.66-13.66 10 10 0 0 1 13.66-3.66l18.88 10.92a9.986 9.986 0 0 1 3.66 13.66zM404.56 503l-21.48 3.8c-0.6 0.1-1.18 0.14-1.76 0.14a10 10 0 0 1-9.84-8.26 10 10 0 0 1 8.12-11.58l21.48-3.8c5.46-0.94 10.64 2.68 11.6 8.12a10 10 0 0 1-8.12 11.58zM575.1 498.68a10 10 0 0 1-9.84 8.26c-0.58 0-1.16-0.04-1.74-0.14l-21.48-3.8a10 10 0 1 1 3.46-19.7l21.5 3.8a10 10 0 0 1 8.1 11.58zM514.64 396.4l-7.48 20.5a9.968 9.968 0 0 1-9.38 6.58c-1.14 0-2.3-0.18-3.42-0.6a9.98 9.98 0 0 1-5.98-12.82l7.46-20.5a10.028 10.028 0 0 1 12.82-5.98c5.18 1.9 7.86 7.64 5.98 12.82z" fill="#23130D" p-id="58633"></path><path d="M933.58 148.88H703.02V89.34c0-32.92-26.78-59.68-59.68-59.68H342.32c-32.9 0-59.66 26.76-59.66 59.68v58.58c-10.5-0.32-21 2.78-29.66 9.02l-107.68 77.64c-7.12-17.64-24.4-30.12-44.56-30.12-26.5 0-48.04 21.56-48.04 48.06V517.4c0 26.5 21.54 48.06 48.04 48.06 18.4 0 34.42-10.4 42.48-25.64 11.86 14.62 29.94 23.98 50.18 23.98h89.24V624c0 32.9 26.76 59.66 59.68 59.66h84.32v65.72c0 0.02-0.02 0.02-0.02 0.02 0 9.6-7.88 17.4-17.58 17.4-4.8 0-9.26-1.92-12.56-5.38-0.04-0.04-0.08-0.06-0.12-0.1l-0.12-0.12-41.14-40.46c-8.8-8.8-20.52-13.66-32.98-13.66s-24.18 4.86-32.98 13.68c-18.18 18.18-18.18 47.78 0 65.96l141.84 141.86c-4.08 6.58-6.5 14.34-6.5 22.66 0 23.76 19.34 43.1 43.12 43.1h230.52c23.78 0 43.14-19.34 43.14-43.1 0-15.84-8.62-29.68-21.38-37.18 12.2-10.54 19.94-26.12 19.94-43.48v-187.7c0-0.14-0.04-0.28-0.04-0.42-0.74-21.62-16.26-39.56-36.78-43.98v-161.14l5.06-3.04h225.5c20.78 0 37.7-16.92 37.7-37.72V186.62c0-20.8-16.92-37.74-37.7-37.74zM128.82 517.4c0 15.46-12.58 28.06-28.06 28.06-15.46 0-28.04-12.6-28.04-28.06V252.52c0-15.48 12.58-28.06 28.04-28.06 15.48 0 28.06 12.58 28.06 28.06V517.4z m153.84-272.2l-74.12 53.44a9.992 9.992 0 0 0-2.26 13.96 9.984 9.984 0 0 0 8.12 4.16c2.02 0 4.08-0.62 5.84-1.9l62.42-45V543.8H193.42c-24.6 0-44.6-20-44.6-44.58V256.72l115.88-83.56c5.24-3.76 11.62-5.56 17.96-5.22v77.26z m20-155.86c0-21.88 17.8-39.68 39.66-39.68h301.02c21.88 0 39.68 17.8 39.68 39.68v24.88H302.66V89.34z m0 44.88h380.36v14.66h-115.94c-20.82 0-37.74 16.94-37.74 37.74v249.96c0 20.8 16.92 37.72 37.74 37.72h18.88v55.4c0 0.22 0.06 0.4 0.06 0.62 0.02 0.36 0.06 0.72 0.12 1.1 0.06 0.32 0.14 0.62 0.22 0.94 0.1 0.3 0.18 0.6 0.28 0.92 0.14 0.34 0.32 0.68 0.48 1.02 0.1 0.16 0.16 0.36 0.26 0.54 0.06 0.08 0.12 0.16 0.18 0.26l0.3 0.42c0.28 0.38 0.58 0.76 0.9 1.1 0.06 0.06 0.12 0.14 0.18 0.2 0.42 0.4 0.86 0.76 1.32 1.08 0.1 0.08 0.22 0.14 0.32 0.2 0.42 0.28 0.84 0.5 1.28 0.7 0.1 0.04 0.2 0.1 0.3 0.14a9.254 9.254 0 0 0 2.02 0.58c0.6 0.1 1.18 0.18 1.8 0.18 0.58 0 1.18-0.08 1.78-0.18 0.14-0.02 0.28-0.06 0.42-0.08 0.54-0.12 1.08-0.28 1.6-0.5 0.04-0.02 0.1-0.04 0.14-0.06 0.4-0.18 0.8-0.36 1.18-0.6l81.92-48.98v89.82h-163.08V489.2c0-25.7-20.92-46.64-46.64-46.64s-46.64 20.94-46.64 46.64v89.92h-124V134.22z m380.36 464.9v39.42c-8 1.8-15.24 5.64-21.12 10.96-7.54-15.62-23.54-26.42-42.02-26.42-11.82 0-22.6 4.44-30.84 11.7-7.42-16.56-23.86-28.4-42.46-28.4-9.8 0-19.02 3.3-26.64 8.86v-16.12h163.08z m-340.68 64.54c-21.88 0-39.68-17.78-39.68-39.66v-24.88h124v64.54h-84.32z m378.94 287.58c0 12.74-10.38 23.1-23.14 23.1H467.62c-12.74 0-23.12-10.36-23.12-23.1 0-12.76 10.38-23.12 23.12-23.12h230.54c12.74 0 23.12 10.36 23.12 23.12z m-1.44-267.18v186.52c0 20.7-16.84 37.52-37.52 37.52-0.04 0-0.1 0.02-0.14 0.02H467.62c-8.22 0-15.88 2.34-22.42 6.36l-141.9-141.9c-10.4-10.38-10.38-27.3 0-37.7 5.04-5.02 11.72-7.8 18.84-7.8s13.8 2.78 18.9 7.86l41.2 40.52c0.04 0.02 0.08 0.04 0.1 0.08 6.98 7.14 16.68 11.26 26.72 11.26 20.7 0 37.56-16.76 37.58-37.34 0-0.02 0.02-0.04 0.02-0.04V489.2c0-14.68 11.94-26.64 26.64-26.64 14.68 0 26.64 11.96 26.64 26.64v195.74c0 5.54 4.48 10 10 10s10-4.46 10-10V654.2c0-15.08 12.2-27.82 26.64-27.82 14.46 0 26.66 12.74 26.66 27.82v41.54c0 5.52 4.48 10 10 10s10-4.48 10-10v-26c0-14.7 11.96-26.66 26.64-26.66 14.7 0 26.64 11.96 26.64 26.66v41.52c0 5.54 4.48 10 10 10 5.54 0 10-4.46 10-10v-27.1c0-0.04 0.02-0.06 0.02-0.1 0-14.68 11.96-26.64 26.64-26.64 14.7 0 26.66 11.96 26.66 26.64z m231.44-247.48c0 9.78-7.94 17.72-17.7 17.72H705.34c-0.24 0-0.46 0.06-0.68 0.08-0.34 0.02-0.68 0.04-1.02 0.1-0.34 0.06-0.66 0.14-0.98 0.24-0.3 0.08-0.6 0.16-0.9 0.28-0.34 0.12-0.66 0.28-0.98 0.46-0.18 0.1-0.4 0.16-0.58 0.28l-94.24 56.34V464.4c0-0.02 0.02-0.06 0.02-0.1 0-5.52-4.48-10-10-10h-28.9c-9.78 0-17.74-7.94-17.74-17.72V186.62c0-9.78 7.96-17.74 17.74-17.74h366.5c9.76 0 17.7 7.96 17.7 17.74v249.96z" fill="#23130D" p-id="58634"></path><path d="M643.34 49.66H342.32c-21.86 0-39.66 17.8-39.66 39.68v24.88h380.36V89.34c0-21.88-17.8-39.68-39.68-39.68zM389.66 93.7h-24.22c-5.52 0-10-4.48-10-10s4.48-10 10-10h24.22c5.52 0 10 4.48 10 10s-4.48 10-10 10z m148.1 0h-89.86c-5.52 0-10-4.48-10-10s4.48-10 10-10h89.86c5.52 0 10 4.48 10 10s-4.48 10-10 10z" fill="#E1E1E5" p-id="58635"></path><path d="M643.34 49.66H342.32c-21.86 0-39.66 17.8-39.66 39.68v20c0-21.88 17.8-39.68 39.66-39.68h301.02c21.88 0 39.68 17.8 39.68 39.68v-20c0-21.88-17.8-39.68-39.68-39.68z" fill="#23130D" opacity=".2" p-id="58636"></path><path d="M933.58 168.88H567.08c-9.78 0-17.74 7.96-17.74 17.74v249.96c0 9.78 7.96 17.72 17.74 17.72h28.9c5.52 0 10 4.48 10 10 0 0.04-0.02 0.08-0.02 0.1v47.68l94.24-56.34c0.18-0.12 0.4-0.18 0.58-0.28 0.32-0.18 0.64-0.34 0.98-0.46 0.3-0.12 0.6-0.2 0.9-0.28 0.32-0.1 0.64-0.18 0.98-0.24 0.34-0.06 0.68-0.08 1.02-0.1 0.22-0.02 0.44-0.08 0.68-0.08h228.24c9.76 0 17.7-7.94 17.7-17.72V186.62c0-9.78-7.94-17.74-17.7-17.74z m-73.46 128.14l-36.8 35.86c-3.02 2.94-5.28 9.92-4.56 14.06l8.68 50.66c1.3 7.58-1.1 12.36-3.36 15.02-2.8 3.32-6.82 5.16-11.34 5.16-3.1 0-6.32-0.86-9.56-2.56l-45.48-23.92c-1.74-0.92-4.5-1.46-7.38-1.46-2.9 0-5.66 0.54-7.4 1.46l-45.48 23.92c-7.96 4.16-16.18 3-20.9-2.6-2.26-2.66-4.66-7.44-3.36-15.04l8.7-50.64c0.7-4.14-1.56-11.12-4.58-14.06l-36.8-35.86c-5.38-5.26-7.36-11.64-5.44-17.54 1.92-5.9 7.28-9.9 14.72-10.98l50.84-7.38c4.18-0.6 10.1-4.92 11.96-8.68l22.74-46.1c3.34-6.74 8.8-10.6 15-10.6 6.2 0 11.66 3.86 14.98 10.6l22.74 46.08c1.88 3.78 7.8 8.1 11.96 8.7l50.86 7.38c7.44 1.08 12.8 5.08 14.72 10.98s-0.08 12.3-5.46 17.54z" fill="#E1E1E5" p-id="58637"></path><path d="M949.1 438.78H720.86c-0.24 0-0.46 0.06-0.68 0.08-0.34 0.02-0.68 0.04-1.02 0.1-0.34 0.06-0.66 0.14-0.98 0.24-0.3 0.08-0.6 0.16-0.9 0.28-0.34 0.12-0.66 0.28-0.98 0.46-0.18 0.1-0.4 0.16-0.58 0.28l-94.24 56.34v-47.68c0-0.02 0.02-0.06 0.02-0.1 0-5.52-4.48-10-10-10H582.6c-9.78 0-17.74-7.94-17.74-17.72V171.1c0-0.7 0.04-1.4 0.14-2.08-8.8 1.02-15.66 8.52-15.66 17.6v249.96c0 9.78 7.96 17.72 17.74 17.72h28.9c5.52 0 10 4.48 10 10 0 0.04-0.02 0.08-0.02 0.1v47.68l94.24-56.34c0.18-0.12 0.4-0.18 0.58-0.28 0.32-0.18 0.64-0.34 0.98-0.46 0.3-0.12 0.6-0.2 0.9-0.28 0.32-0.1 0.64-0.18 0.98-0.24 0.34-0.06 0.68-0.08 1.02-0.1 0.22-0.02 0.44-0.08 0.68-0.08h228.24c9.06 0 16.56-6.84 17.58-15.64-0.68 0.08-1.36 0.12-2.06 0.12z" fill="#23130D" opacity=".2" p-id="58638"></path><path d="M721.28 951.24c0 12.74-10.38 23.1-23.14 23.1H467.62c-12.74 0-23.12-10.36-23.12-23.1 0-12.76 10.38-23.12 23.12-23.12h230.54c12.74 0 23.12 10.36 23.12 23.12z" fill="#EC7063" p-id="58639"></path><path d="M721.28 951.24c0 2.68-0.46 5.26-1.32 7.66-3.16-9-11.74-15.44-21.8-15.44H467.62c-10.06 0-18.64 6.44-21.8 15.44-0.86-2.4-1.32-4.98-1.32-7.66 0-12.76 10.38-23.12 23.12-23.12h230.54c12.74 0 23.12 10.36 23.12 23.12z" fill="#FFFFFF" opacity=".4" p-id="58640"></path><path d="M683.02 599.12v39.42c-8 1.8-15.24 5.64-21.12 10.96-7.54-15.62-23.54-26.42-42.02-26.42-11.82 0-22.6 4.44-30.84 11.7-7.42-16.56-23.86-28.4-42.46-28.4-9.8 0-19.02 3.3-26.64 8.86v-16.12h163.08zM426.66 599.12v64.54h-84.32c-21.88 0-39.68-17.78-39.68-39.66v-24.88h124z" fill="#E1E1E5" p-id="58641"></path><path d="M683.02 627.06v11.48c-8 1.8-15.24 5.64-21.12 10.96-7.54-15.62-23.54-26.42-42.02-26.42-11.82 0-22.6 4.44-30.84 11.7-7.42-16.56-23.86-28.4-42.46-28.4-9.8 0-19.02 3.3-26.64 8.86v-11.48a46.2 46.2 0 0 1 7.84-4.64h37.62c10.38 4.86 18.88 13.54 23.64 24.18 8.24-7.26 19.02-11.7 30.84-11.7 18.48 0 34.48 10.8 42.02 26.42 5.88-5.32 13.12-9.16 21.12-10.96zM426.66 652.18v11.48h-84.32c-21.88 0-39.68-17.78-39.68-39.66v-11.48c0 21.88 17.8 39.66 39.68 39.66h84.32z" fill="#23130D" opacity=".2" p-id="58642"></path><path d="M719.84 684.06v186.52c0 20.7-16.84 37.52-37.52 37.52-0.04 0-0.1 0.02-0.14 0.02H467.62c-8.22 0-15.88 2.34-22.42 6.36l-141.9-141.9c-10.4-10.38-10.38-27.3 0-37.7 5.04-5.02 11.72-7.8 18.84-7.8s13.8 2.78 18.9 7.86l41.2 40.52c0.04 0.02 0.08 0.04 0.1 0.08 6.98 7.14 16.68 11.26 26.72 11.26 20.7 0 37.56-16.76 37.58-37.34 0-0.02 0.02-0.04 0.02-0.04V489.2c0-14.68 11.94-26.64 26.64-26.64 14.68 0 26.64 11.96 26.64 26.64v195.74c0 5.54 4.48 10 10 10s10-4.46 10-10V654.2c0-15.08 12.2-27.82 26.64-27.82 14.46 0 26.66 12.74 26.66 27.82v41.54c0 5.52 4.48 10 10 10s10-4.48 10-10v-26c0-14.7 11.96-26.66 26.64-26.66 14.7 0 26.64 11.96 26.64 26.66v41.52c0 5.54 4.48 10 10 10 5.54 0 10-4.46 10-10v-27.1c0-0.04 0.02-0.06 0.02-0.1 0-14.68 11.96-26.64 26.64-26.64 14.7 0 26.66 11.96 26.66 26.64z" fill="#F8D3C9" p-id="58643"></path><path d="M719.84 845.72v24.86c0 20.7-16.84 37.52-37.52 37.52-0.04 0-0.1 0.02-0.14 0.02H467.62c-8.22 0-15.88 2.34-22.42 6.36l-141.9-141.9c-8.46-8.44-10.02-21.2-4.74-31.26 1.22 2.3 2.8 4.46 4.74 6.4l141.9 141.9c6.54-4.02 14.2-6.36 22.42-6.36h214.56c0.04 0 0.1-0.02 0.14-0.02 20.68 0 37.52-16.82 37.52-37.52z" fill="#23130D" opacity=".2" p-id="58644"></path><path d="M499.94 514.06c0-14.68-11.96-26.64-26.64-26.64-14.7 0-26.64 11.96-26.64 26.64V489.2c0-14.68 11.94-26.64 26.64-26.64 14.68 0 26.64 11.96 26.64 26.64v24.86zM573.22 677.936c0-14.68-11.96-26.64-26.64-26.64-14.7 0-26.64 11.96-26.64 26.64v-24.86c0-14.68 11.94-26.64 26.64-26.64 14.68 0 26.64 11.96 26.64 26.64v24.86zM646.47 694.686c0-14.68-11.96-26.64-26.64-26.64-14.7 0-26.64 11.96-26.64 26.64v-24.86c0-14.68 11.94-26.64 26.64-26.64 14.68 0 26.64 11.96 26.64 26.64v24.86zM719.84 708.686c0-14.68-11.96-26.64-26.64-26.64-14.7 0-26.64 11.96-26.64 26.64v-24.86c0-14.68 11.94-26.64 26.64-26.64 14.68 0 26.64 11.96 26.64 26.64v24.86z" fill="#FFFFFF" opacity=".6" p-id="58645"></path><path d="M128.82 252.52V517.4c0 15.46-12.58 28.06-28.06 28.06-15.46 0-28.04-12.6-28.04-28.06V252.52c0-15.48 12.58-28.06 28.04-28.06 15.48 0 28.06 12.58 28.06 28.06z" fill="#EC7063" p-id="58646"></path><path d="M128.82 252.52V517.4c0 15.46-12.58 28.06-28.06 28.06-3.52 0-6.88-0.66-9.98-1.84 10.54-4.06 18.04-14.28 18.04-26.22V252.52c0-11.96-7.5-22.18-18.04-26.22 3.1-1.18 6.46-1.84 9.98-1.84 15.48 0 28.06 12.58 28.06 28.06z" fill="#FFFFFF" opacity=".4" p-id="58647"></path><path d="M206.28 312.6a9.984 9.984 0 0 0 8.12 4.16c2.02 0 4.08-0.62 5.84-1.9l42.76-30.82 19.66-14.18V543.8H193.42c-24.6 0-44.6-20-44.6-44.58V256.72l114.18-82.34 1.7-1.22c4.42-3.18 9.66-4.94 14.98-5.22h2.98v77.26l-19.66 14.18-54.46 39.26a9.992 9.992 0 0 0-2.26 13.96z" fill="#F8D3C9" p-id="58648"></path><path d="M529.34 186.62c0-20.8 16.92-37.74 37.74-37.74h115.94v-14.66H302.66v444.9h124V489.2c0-8 2.02-15.56 5.62-22.14 7.88-14.58 23.32-24.5 41.02-24.5 1.52 0 3.04 0.08 4.52 0.22 22.12 2.14 39.76 19.8 41.9 41.9 0.14 1.48 0.22 3 0.22 4.52v89.92h163.08v-89.82l-13.74 8.2-34.98 20.94-33.2 19.84c-0.14 0.08-0.26 0.16-0.4 0.22-0.26 0.14-0.52 0.26-0.78 0.38-0.04 0.02-0.1 0.04-0.14 0.06-0.52 0.22-1.06 0.38-1.6 0.5-0.14 0.02-0.28 0.06-0.42 0.08-0.6 0.1-1.2 0.18-1.78 0.18-0.62 0-1.2-0.08-1.8-0.18a9.254 9.254 0 0 1-2.02-0.58c-0.1-0.04-0.2-0.1-0.3-0.14-0.44-0.2-0.86-0.42-1.28-0.7-0.1-0.06-0.22-0.12-0.32-0.2-0.46-0.32-0.9-0.68-1.32-1.08-0.06-0.06-0.12-0.14-0.18-0.2-0.32-0.34-0.62-0.72-0.9-1.1l-0.3-0.42c-0.06-0.1-0.12-0.18-0.18-0.26-0.1-0.18-0.16-0.38-0.26-0.54-0.16-0.34-0.34-0.68-0.48-1.02-0.1-0.32-0.18-0.62-0.28-0.92-0.08-0.32-0.16-0.62-0.22-0.94a10.86 10.86 0 0 1-0.12-1.1c0-0.22-0.06-0.4-0.06-0.62v-55.4h-18.88c-20.82 0-37.74-16.92-37.74-37.72V186.62zM404.56 503l-21.48 3.8c-0.6 0.1-1.18 0.14-1.76 0.14a10 10 0 0 1-9.84-8.26 10 10 0 0 1 8.12-11.58l21.48-3.8c5.46-0.94 10.64 2.68 11.6 8.12a10 10 0 0 1-8.12 11.58z m6.76-48.04c-1.7 0-3.42-0.44-5-1.34l-18.88-10.92a9.968 9.968 0 0 1-3.66-13.66 9.972 9.972 0 0 1 5.88-4.6c2.52-0.74 5.32-0.48 7.78 0.94l18.88 10.92a9.986 9.986 0 0 1 3.66 13.66c-0.6 1.02-1.34 1.92-2.2 2.6-1.82 1.58-4.12 2.4-6.46 2.4z m40.92-32.08c-1.12 0.42-2.28 0.6-3.42 0.6-4.08 0-7.92-2.52-9.4-6.58l-7.16-19.68-0.3-0.82c-1.88-5.18 0.8-10.92 5.98-12.82 3.04-1.1 6.26-0.64 8.8 0.98 1.22 0.76 2.26 1.8 3.06 3.06 0.38 0.6 0.7 1.24 0.96 1.94l7.46 20.5c1.4 3.84 0.3 8-2.48 10.64-0.98 0.94-2.16 1.68-3.5 2.18z m114.76 64.22a10 10 0 0 1 8.1 11.58 9.96 9.96 0 0 1-6.54 7.68c-1.04 0.38-2.16 0.58-3.3 0.58-0.58 0-1.16-0.04-1.74-0.14l-21.48-3.8a10 10 0 1 1 3.46-19.7l21.5 3.8z m-59.84-70.2a9.968 9.968 0 0 1-9.38 6.58c-1.14 0-2.3-0.18-3.42-0.6a9.98 9.98 0 0 1-5.98-12.82l7.46-20.5c0.82-2.28 2.4-4.06 4.36-5.22 2.48-1.44 5.56-1.82 8.46-0.76 5.18 1.9 7.86 7.64 5.98 12.82l-0.64 1.74-6.84 18.76z" fill="#3594BF" p-id="58649"></path><path d="M860.12 297.02c5.38-5.24 7.38-11.64 5.46-17.54-1.92-5.9-7.28-9.9-14.72-10.98L800 261.12c-4.16-0.6-10.08-4.92-11.96-8.7l-22.74-46.08c-3.32-6.74-8.78-10.6-14.98-10.6-6.2 0-11.66 3.86-15 10.6l-22.74 46.1c-1.86 3.76-7.78 8.08-11.96 8.68l-50.84 7.38c-7.44 1.08-12.8 5.08-14.72 10.98s0.06 12.28 5.44 17.54l36.8 35.86c3.02 2.94 5.28 9.92 4.58 14.06l-8.7 50.64c-1.3 7.6 1.1 12.38 3.36 15.04 4.72 5.6 12.94 6.76 20.9 2.6l45.48-23.92c1.74-0.92 4.5-1.46 7.4-1.46 2.88 0 5.64 0.54 7.38 1.46l45.48 23.92c3.24 1.7 6.46 2.56 9.56 2.56 4.52 0 8.54-1.84 11.34-5.16 2.26-2.66 4.66-7.44 3.36-15.02l-8.68-50.66c-0.72-4.14 1.54-11.12 4.56-14.06l36.8-35.86z m-50.76 21.54c-7.7 7.5-12.14 21.16-10.32 31.76l7.56 44.1-39.6-20.82c-4.6-2.44-10.54-3.76-16.68-3.76-6.16 0-12.08 1.32-16.7 3.76l-39.6 20.82 7.56-44.1c1.82-10.6-2.6-24.24-10.32-31.76l-32.02-31.22 44.26-6.42c10.64-1.56 22.26-10 27.02-19.64l19.8-40.12 19.8 40.12c4.74 9.64 16.36 18.08 27 19.64l44.28 6.42-32.04 31.22z" fill="#23130D" p-id="58650"></path><path d="M809.36 318.56c-7.7 7.5-12.14 21.16-10.32 31.76l7.56 44.1-39.6-20.82c-4.6-2.44-10.54-3.76-16.68-3.76-6.16 0-12.08 1.32-16.7 3.76l-39.6 20.82 7.56-44.1c1.82-10.6-2.6-24.24-10.32-31.76l-32.02-31.22 44.26-6.42c10.64-1.56 22.26-10 27.02-19.64l19.8-40.12 19.8 40.12c4.74 9.64 16.36 18.08 27 19.64l44.28 6.42-32.04 31.22z" fill="#F9C139" p-id="58651"></path><path d="M750.32 221.16l6.74 13.64-14.78 29.98c-4.76 9.64-16.38 18.08-27.04 19.64l-44.26 6.42 32.04 31.22c7.7 7.52 12.14 21.16 10.3 31.76l-5.72 33.46-13.58 7.14 7.56-44.1c1.82-10.6-2.6-24.24-10.32-31.76l-32.02-31.22 44.26-6.42c10.64-1.56 22.26-10 27.02-19.64l19.8-40.12zM282.66 167.94v77.26l-19.66 14.18v-85l1.7-1.22c4.42-3.18 9.66-4.94 14.98-5.22h2.98zM263 284.04l19.66-14.18V543.8h-19.66z" fill="#23130D" opacity=".2" p-id="58652"></path><path d="M477.82 442.78c-1.48-0.14-3-0.22-4.52-0.22-17.7 0-33.14 9.92-41.02 24.5l-14.5-14.5c0.86-0.68 1.6-1.58 2.2-2.6 2.76-4.78 1.14-10.9-3.66-13.66l-18.88-10.92a9.914 9.914 0 0 0-7.78-0.94l-87-87v-69.82l129.6 129.6 7.16 19.68a10.012 10.012 0 0 0 9.4 6.58c1.14 0 2.3-0.18 3.42-0.6 1.34-0.5 2.52-1.24 3.5-2.18l22.08 22.08zM614.16 579.12h-69.82l-24.4-24.4V489.2c0-1.52-0.08-3.04-0.22-4.52l94.44 94.44zM585.96 474.3v49.46l-17.4-17.4c3.3-1.14 5.88-4 6.54-7.68a10 10 0 0 0-8.1-11.58l-21.5-3.8-95.7-95.68-3.06-3.06-144.08-144.08V186.8l197.54 197.54c-1.96 1.16-3.54 2.94-4.36 5.22l-7.46 20.5a9.98 9.98 0 0 0 5.98 12.82c1.12 0.42 2.28 0.6 3.42 0.6 4.08 0 7.92-2.52 9.38-6.58l6.84-18.76 15.34 15.34v23.1c0 20.8 16.92 37.72 37.74 37.72h18.88zM683.02 567.16v11.96h-41.7l-40.62-40.62c0.14-0.06 0.26-0.14 0.4-0.22l33.2-19.84 48.72 48.72zM395.22 134.22l134.12 134.12v89.22L306 134.22zM683.02 489.3v21.94l-13.74-13.74z" fill="#FFFFFF" opacity=".4" p-id="58653"></path></svg>