<?xml version="1.0" standalone="no"?><!DOCTYPE svg PUBLIC "-//W3C//DTD SVG 1.1//EN" "http://www.w3.org/Graphics/SVG/1.1/DTD/svg11.dtd"><svg t="1625811943899" class="icon" viewBox="0 0 1024 1024" version="1.1" xmlns="http://www.w3.org/2000/svg" p-id="45456" xmlns:xlink="http://www.w3.org/1999/xlink" width="200" height="200"><defs><style type="text/css"></style></defs><path d="M960.7 400.1l-91.24-32.58c18.34-19.46 18-50.22-1.04-69.26-19.38-19.38-50.94-19.38-70.34 0l-9.28 9.28V56.2c0-5.54-4.48-10-10-10h-79.48c-5.52 0-10 4.46-10 10v251.36l-9.28-9.28c-9.38-9.4-21.88-14.58-35.16-14.58-2.78 0-5.54 0.26-8.22 0.7l-121.3-43.28a9.94 9.94 0 0 0-6.72 0l-223.02 79.62V284.6h10.52c5.52 0 10-4.48 10-10v-49.32c0-5.52-4.48-10-10-10H169.6c-5.52 0-10 4.48-10 10v49.32c0 5.52 4.48 10 10 10h10.5v73.8l-116.8 41.7c-3.98 1.42-6.64 5.2-6.64 9.42v57.6c0 0.22 0.04 0.44 0.06 0.64 0.02 0.36 0.04 0.72 0.1 1.06 0.08 0.36 0.16 0.72 0.26 1.06 0.06 0.2 0.08 0.4 0.16 0.62 0.04 0.08 0.08 0.18 0.12 0.28 0.08 0.2 0.18 0.4 0.28 0.62 0.18 0.34 0.36 0.68 0.56 1.02 0.1 0.16 0.22 0.34 0.34 0.5 0.26 0.36 0.54 0.72 0.84 1.04 0.1 0.1 0.18 0.2 0.28 0.3 0.42 0.42 0.88 0.8 1.36 1.12l0.3 0.18c0.4 0.24 0.8 0.48 1.22 0.66 0.2 0.08 0.38 0.16 0.58 0.24 0.38 0.14 0.78 0.26 1.18 0.36 0.18 0.04 0.36 0.1 0.54 0.12 0.6 0.12 1.2 0.2 1.82 0.2s1.24-0.08 1.86-0.2c0.24-0.04 0.46-0.12 0.68-0.18 0.28-0.06 0.54-0.12 0.82-0.22l33.46-11.94v525.72c0 5.54 4.48 10 10 10 0.12 0 0.22-0.02 0.34-0.02h300.44c0.06 0 0.12 0.02 0.18 0.02s0.12-0.02 0.18-0.02h194.78c0.06 0 0.12 0.02 0.18 0.02s0.1-0.02 0.16-0.02h300.8c5.52 0 10-4.48 10-10V464.6l33.44 11.94c0.28 0.1 0.56 0.16 0.82 0.22 0.24 0.06 0.46 0.14 0.68 0.18 0.62 0.12 1.24 0.2 1.86 0.2s1.22-0.08 1.82-0.2c0.18-0.02 0.36-0.08 0.54-0.12 0.4-0.1 0.8-0.22 1.18-0.36 0.2-0.08 0.38-0.16 0.58-0.24 0.42-0.18 0.82-0.42 1.22-0.66l0.3-0.18c0.48-0.32 0.94-0.7 1.36-1.12 0.1-0.1 0.18-0.2 0.28-0.32a10.346 10.346 0 0 0 1.18-1.52c0.2-0.34 0.4-0.68 0.56-1.04 0.1-0.2 0.2-0.4 0.28-0.6 0.04-0.1 0.08-0.18 0.12-0.28 0.08-0.22 0.1-0.42 0.16-0.64 0.1-0.34 0.2-0.68 0.26-1.02 0.06-0.36 0.08-0.72 0.1-1.08 0.02-0.22 0.06-0.42 0.06-0.64v-57.6c0-4.22-2.66-8-6.64-9.42z m-336.86-87.68a29.58 29.58 0 0 1 21.04-8.72c7.94 0 15.4 3.1 21.02 8.72l26.36 26.36a10.014 10.014 0 0 0 10.9 2.16 9.98 9.98 0 0 0 6.16-9.24V66.2h59.48v265.5a10.02 10.02 0 0 0 6.18 9.24c3.72 1.54 8.02 0.68 10.9-2.18l26.34-26.36c11.6-11.58 30.46-11.58 42.06 0 11.6 11.6 11.6 30.46 0 42.06l-94 94-0.68 0.62c-0.54 0.52-1.08 1.04-1.68 1.52-0.2 0.16-0.4 0.32-0.62 0.46l-1.12 0.84c-0.18 0.14-0.38 0.3-0.6 0.44-0.3 0.2-0.6 0.36-0.9 0.54l-1.06 0.64c-0.18 0.12-0.36 0.22-0.54 0.32-0.32 0.18-0.68 0.34-1.02 0.5l-1 0.46c-0.22 0.1-0.42 0.2-0.62 0.3-0.26 0.1-0.52 0.2-0.8 0.28l-1.16 0.42c-0.26 0.1-0.54 0.2-0.74 0.26-0.26 0.08-0.54 0.14-0.8 0.2l-1.16 0.3c-0.3 0.08-0.62 0.16-0.94 0.24-0.32 0.06-0.64 0.08-0.94 0.14l-1.38 0.2c-0.16 0.02-0.34 0.06-0.5 0.08-0.96 0.08-1.88 0.14-2.74 0.14-1.02-0.02-2.08-0.04-3.2-0.14-0.18-0.02-0.38-0.06-0.56-0.1l-1.3-0.18c-0.34-0.06-0.68-0.1-0.96-0.14-0.32-0.08-0.66-0.16-0.98-0.26l-1.12-0.28c-0.24-0.06-0.48-0.1-0.74-0.18-0.3-0.1-0.62-0.22-0.92-0.32l-1.16-0.42c-0.2-0.08-0.42-0.14-0.6-0.22-0.3-0.12-0.6-0.26-0.88-0.4l-1.08-0.52c-0.24-0.1-0.48-0.2-0.72-0.34-0.22-0.12-0.44-0.26-0.66-0.38l-1.18-0.72c-0.22-0.14-0.46-0.26-0.66-0.4-0.34-0.22-0.66-0.48-1-0.74l-1.34-0.98c-0.78-0.64-1.52-1.32-2.22-2l-94.16-94.16a29.56 29.56 0 0 1-8.08-15.02c-0.04-0.1-0.04-0.2-0.08-0.3-0.36-1.86-0.54-3.78-0.54-5.72 0-7.94 3.1-15.4 8.7-21.02zM179.6 264.6v-29.32h106.54v29.32H179.6z m86.02 20v43.28l-65.52 23.38V284.6h65.52z m-188.96 168.34v-36.38l202.34-72.24 0.5-0.18h0.02L512 261.14l99.44 35.48c-0.6 0.54-1.16 1.1-1.74 1.66a49.336 49.336 0 0 0-14.18 29.06l-80.16-28.62a9.94 9.94 0 0 0-6.72 0L76.66 452.94z m522.92 527.36h-175.14v-146.84h23.1c5.52 0 10-4.48 10-10 0-5.54-4.48-10-10-10h-23.1V666.6h175.14v313.7z m300.96 0H619.58V656.6c0-5.52-4.48-10-10-10h-195.14c-5.52 0-10 4.48-10 10v323.7H123.48V457.46L512 318.76l85.74 30.6c2.42 7.18 6.46 13.74 11.96 19.26l94.16 94.16c1.16 1.14 2.4 2.26 3.68 3.32 0.42 0.34 0.86 0.66 1.28 0.98l0.62 0.46c0.66 0.5 1.32 1 2.04 1.48 0.52 0.34 1.04 0.64 1.56 0.96l0.96 0.56c0.52 0.34 1.06 0.66 1.62 0.96 0.58 0.3 1.2 0.6 1.8 0.88l0.76 0.36c0.6 0.28 1.18 0.56 1.84 0.84 0.56 0.24 1.14 0.44 1.74 0.64l0.84 0.32c0.68 0.24 1.34 0.48 2.04 0.68 0.58 0.18 1.2 0.34 1.8 0.48l0.78 0.2c0.7 0.18 1.4 0.36 2.2 0.52 0.7 0.14 1.42 0.24 2.12 0.34l0.78 0.1c0.62 0.1 1.24 0.2 1.84 0.26 1.56 0.16 3.1 0.24 4.6 0.24h0.3c1.58 0 3.22-0.08 4.9-0.24 0.62-0.06 1.22-0.16 1.82-0.26l0.76-0.1c0.76-0.1 1.52-0.22 2.26-0.36 0.68-0.14 1.36-0.32 2.02-0.48l0.82-0.2c0.6-0.16 1.22-0.3 1.9-0.52 0.62-0.18 1.22-0.4 1.82-0.62l0.9-0.32c0.62-0.22 1.24-0.44 1.86-0.7 0.54-0.22 1.08-0.48 1.62-0.74l0.7-0.32c0.7-0.32 1.4-0.66 2.08-1.02 0.52-0.28 1-0.58 1.5-0.88l0.82-0.48c0.62-0.36 1.26-0.74 1.84-1.14 0.56-0.36 1.08-0.76 1.6-1.16l0.78-0.58c0.52-0.38 1.04-0.76 1.52-1.14 1.1-0.92 2.08-1.82 2.82-2.54 0.26-0.22 0.5-0.44 0.84-0.76l37.16-37.16 89.14 31.84v522.82z m46.8-527.36l-33.42-11.94-0.36-0.12-86.52-30.9 26.8-26.8 93.5 33.38v36.38z" fill="#23130D" p-id="45457"></path><path d="M179.6 235.28h106.54v29.32H179.6z" fill="#CC7B5A" p-id="45458"></path><path d="M179.6 235.28h106.54V248H179.6z" fill="#FFFFFF" opacity=".4" p-id="45459"></path><path d="M265.62 284.6v43.28l-65.52 23.38V284.6z" fill="#E59D89" p-id="45460"></path><path d="M265.62 312.88v15l-65.52 23.38v-15z" opacity=".2" p-id="45461"></path><path d="M611.44 296.62c-0.6 0.54-1.16 1.1-1.74 1.66a49.336 49.336 0 0 0-14.18 29.06l-80.16-28.62a9.94 9.94 0 0 0-6.72 0L76.66 452.94v-36.38l202.34-72.24 0.5-0.18h0.02L512 261.14l99.44 35.48zM947.34 416.56v36.38l-33.42-11.94-0.36-0.12-86.52-30.9 26.8-26.8 93.5 33.38z" fill="#EC7063" p-id="45462"></path><path d="M611.44 296.62c-0.6 0.54-1.16 1.1-1.74 1.66-4.98 4.98-8.76 10.8-11.22 17.18L512 284.6l-232.48 83h-0.02l-0.5 0.18-202.34 72.24v-23.46l202.34-72.24 0.5-0.18h0.02L512 261.14l99.44 35.48zM947.34 416.56v23.46l-93.5-33.38-9.52 9.52-17.28-6.18 26.8-26.8z" opacity=".2" p-id="45463"></path><path d="M854.28 354.46l-94 94-0.68 0.62c-0.54 0.52-1.08 1.04-1.68 1.52-0.2 0.16-0.4 0.32-0.62 0.46l-1.12 0.84c-0.18 0.14-0.38 0.3-0.6 0.44-0.3 0.2-0.6 0.36-0.9 0.54l-1.06 0.64c-0.18 0.12-0.36 0.22-0.54 0.32-0.32 0.18-0.68 0.34-1.02 0.5l-1 0.46c-0.22 0.1-0.42 0.2-0.62 0.3-0.26 0.1-0.52 0.2-0.8 0.28l-1.16 0.42c-0.26 0.1-0.54 0.2-0.74 0.26-0.26 0.08-0.54 0.14-0.8 0.2l-1.16 0.3c-0.3 0.08-0.62 0.16-0.94 0.24-0.32 0.06-0.64 0.08-0.94 0.14l-1.38 0.2c-0.16 0.02-0.34 0.06-0.5 0.08-0.96 0.08-1.88 0.14-2.74 0.14-1.02-0.02-2.08-0.04-3.2-0.14-0.18-0.02-0.38-0.06-0.56-0.1l-1.3-0.18c-0.34-0.06-0.68-0.1-0.96-0.14-0.32-0.08-0.66-0.16-0.98-0.26l-1.12-0.28c-0.24-0.06-0.48-0.1-0.74-0.18-0.3-0.1-0.62-0.22-0.92-0.32l-1.16-0.42c-0.2-0.08-0.42-0.14-0.6-0.22-0.3-0.12-0.6-0.26-0.88-0.4l-1.08-0.52c-0.24-0.1-0.48-0.2-0.72-0.34-0.22-0.12-0.44-0.26-0.66-0.38l-1.18-0.72c-0.22-0.14-0.46-0.26-0.66-0.4-0.34-0.22-0.66-0.48-1-0.74l-1.34-0.98c-0.78-0.64-1.52-1.32-2.22-2l-94.16-94.16a29.56 29.56 0 0 1-8.08-15.02c-0.04-0.1-0.04-0.2-0.08-0.3-0.36-1.86-0.54-3.78-0.54-5.72 0-7.94 3.1-15.4 8.7-21.02a29.58 29.58 0 0 1 21.04-8.72c7.94 0 15.4 3.1 21.02 8.72l26.36 26.36a10.014 10.014 0 0 0 10.9 2.16 9.98 9.98 0 0 0 6.16-9.24V66.2h59.48v265.5a10.02 10.02 0 0 0 6.18 9.24c3.72 1.54 8.02 0.68 10.9-2.18l26.34-26.36c11.6-11.58 30.46-11.58 42.06 0 11.6 11.6 11.6 30.46 0 42.06z" fill="#E1E1E5" p-id="45464"></path><path d="M854.28 354.46l-94 94-0.68 0.62c-0.54 0.52-1.08 1.04-1.68 1.52-0.2 0.16-0.4 0.32-0.62 0.46l-1.12 0.84c-0.18 0.14-0.38 0.3-0.6 0.44-0.3 0.2-0.6 0.36-0.9 0.54l-1.06 0.64c-0.18 0.12-0.36 0.22-0.54 0.32-0.32 0.18-0.68 0.34-1.02 0.5l-1 0.46c-0.22 0.1-0.42 0.2-0.62 0.3-0.26 0.1-0.52 0.2-0.8 0.28l-1.16 0.42c-0.26 0.1-0.54 0.2-0.74 0.26-0.26 0.08-0.54 0.14-0.8 0.2l-1.16 0.3c-0.3 0.08-0.62 0.16-0.94 0.24-0.32 0.06-0.64 0.08-0.94 0.14l-1.38 0.2c-0.16 0.02-0.34 0.06-0.5 0.08-0.96 0.08-1.88 0.14-2.74 0.14-1.02-0.02-2.08-0.04-3.2-0.14-0.18-0.02-0.38-0.06-0.56-0.1l-1.3-0.18c-0.34-0.06-0.68-0.1-0.96-0.14-0.32-0.08-0.66-0.16-0.98-0.26l-1.12-0.28c-0.24-0.06-0.48-0.1-0.74-0.18-0.3-0.1-0.62-0.22-0.92-0.32l-1.16-0.42c-0.2-0.08-0.42-0.14-0.6-0.22-0.3-0.12-0.6-0.26-0.88-0.4l-1.08-0.52c-0.24-0.1-0.48-0.2-0.72-0.34-0.22-0.12-0.44-0.26-0.66-0.38l-1.18-0.72c-0.22-0.14-0.46-0.26-0.66-0.4-0.34-0.22-0.66-0.48-1-0.74l-1.34-0.98c-0.78-0.64-1.52-1.32-2.22-2l-94.16-94.16a29.56 29.56 0 0 1-8.08-15.02c-0.04-0.1-0.04-0.2-0.08-0.3-0.36-1.86-0.54-3.78-0.54-5.72 0-7.32 2.62-14.22 7.42-19.64 0.4 0.48 0.84 0.94 1.28 1.38L718 409.34c0.7 0.68 1.44 1.36 2.22 2l1.34 0.98c0.34 0.26 0.66 0.52 1 0.74 0.2 0.14 0.44 0.26 0.66 0.4l1.18 0.72c0.22 0.12 0.44 0.26 0.66 0.38 0.24 0.14 0.48 0.24 0.72 0.34l1.08 0.52c0.28 0.14 0.58 0.28 0.88 0.4 0.18 0.08 0.4 0.14 0.6 0.22l1.16 0.42c0.3 0.1 0.62 0.22 0.92 0.32 0.26 0.08 0.5 0.12 0.74 0.18l1.12 0.28c0.32 0.1 0.66 0.18 0.98 0.26 0.28 0.04 0.62 0.08 0.96 0.14l1.3 0.18c0.18 0.04 0.38 0.08 0.56 0.1 1.12 0.1 2.18 0.12 3.2 0.14 0.86 0 1.78-0.06 2.74-0.14 0.16-0.02 0.34-0.06 0.5-0.08l1.38-0.2c0.3-0.06 0.62-0.08 0.94-0.14 0.32-0.08 0.64-0.16 0.94-0.24l1.16-0.3c0.26-0.06 0.54-0.12 0.8-0.2 0.2-0.06 0.48-0.16 0.74-0.26l1.16-0.42c0.28-0.08 0.54-0.18 0.8-0.28 0.2-0.1 0.4-0.2 0.62-0.3l1-0.46c0.34-0.16 0.7-0.32 1.02-0.5 0.18-0.1 0.36-0.2 0.54-0.32l1.06-0.64c0.3-0.18 0.6-0.34 0.9-0.54 0.22-0.14 0.42-0.3 0.6-0.44l1.12-0.84c0.22-0.14 0.42-0.3 0.62-0.46 0.6-0.48 1.14-1 1.68-1.52l0.68-0.62 94-94c0.44-0.44 0.88-0.92 1.3-1.38 10.28 11.68 9.86 29.54-1.3 40.68z" opacity=".2" p-id="45465"></path><path d="M599.58 666.6v313.7h-175.14v-146.84h23.1c5.52 0 10-4.48 10-10 0-5.54-4.48-10-10-10h-23.1V666.6h175.14z" fill="#E59D89" p-id="45466"></path><path d="M593.58 672.6v301.7h-163.14v-134.84h17.1c8.822 0 16-7.178 16-16s-7.178-16-16-16h-17.1V672.6h163.14m6-6h-175.14v146.86h23.1c5.52 0 10 4.46 10 10 0 5.52-4.48 10-10 10h-23.1v146.84h175.14V666.6z" opacity=".2" p-id="45467"></path><path d="M811.4 425.64l-37.16 37.16c-0.34 0.32-0.58 0.54-0.84 0.76-0.74 0.72-1.72 1.62-2.82 2.54-0.48 0.38-1 0.76-1.52 1.14l-0.78 0.58c-0.52 0.4-1.04 0.8-1.6 1.16-0.58 0.4-1.22 0.78-1.84 1.14l-0.82 0.48c-0.5 0.3-0.98 0.6-1.5 0.88-0.68 0.36-1.38 0.7-2.08 1.02l-0.7 0.32c-0.54 0.26-1.08 0.52-1.62 0.74-0.62 0.26-1.24 0.48-1.86 0.7l-0.9 0.32c-0.6 0.22-1.2 0.44-1.82 0.62-0.68 0.22-1.3 0.36-1.9 0.52l-0.82 0.2c-0.66 0.16-1.34 0.34-2.02 0.48-0.74 0.14-1.5 0.26-2.26 0.36l-0.76 0.1c-0.6 0.1-1.2 0.2-1.82 0.26-1.68 0.16-3.32 0.24-4.9 0.24h-0.3c-1.5 0-3.04-0.08-4.6-0.24-0.6-0.06-1.22-0.16-1.84-0.26l-0.78-0.1c-0.7-0.1-1.42-0.2-2.12-0.34-0.8-0.16-1.5-0.34-2.2-0.52l-0.78-0.2c-0.6-0.14-1.22-0.3-1.8-0.48-0.7-0.2-1.36-0.44-2.04-0.68l-0.84-0.32c-0.6-0.2-1.18-0.4-1.74-0.64-0.66-0.28-1.24-0.56-1.84-0.84l-0.76-0.36c-0.6-0.28-1.22-0.58-1.8-0.88-0.56-0.3-1.1-0.62-1.62-0.96l-0.96-0.56c-0.52-0.32-1.04-0.62-1.56-0.96-0.72-0.48-1.38-0.98-2.04-1.48l-0.62-0.46c-0.42-0.32-0.86-0.64-1.28-0.98-1.28-1.06-2.52-2.18-3.68-3.32l-94.16-94.16a49.712 49.712 0 0 1-11.96-19.26L512 318.76 123.48 457.46v522.84h280.96V656.6c0-5.52 4.48-10 10-10h195.14c5.52 0 10 4.48 10 10v323.7h280.96V457.48l-89.14-31.84zM361.58 656.58V747.56c0 5.52-4.46 10-10 10h-90.92-0.04H169.66c-5.52 0-10-4.48-10-10v-181.94c0-5.52 4.48-10 10-10h181.92c5.54 0 10 4.48 10 10v90.96z m502.78 0v90.98c0 5.52-4.48 10-10 10h-181.94c-5.52 0-10-4.48-10-10v-181.94c0-5.52 4.48-10 10-10h181.94c5.52 0 10 4.48 10 10v90.96z" fill="#F8D3C9" p-id="45468"></path><path d="M619.58 876.28v104.02h280.96v-104.02H619.58z m-496.1 0v104.02h280.96v-104.02H123.48z" fill="#CC7B5A" p-id="45469"></path><path d="M811.4 425.64l-37.16 37.16c-0.34 0.32-0.58 0.54-0.84 0.76-0.74 0.72-1.72 1.62-2.82 2.54-0.48 0.38-1 0.76-1.52 1.14l-0.78 0.58c-0.52 0.4-1.04 0.8-1.6 1.16-0.58 0.4-1.22 0.78-1.84 1.14l-0.82 0.48c-0.5 0.3-0.98 0.6-1.5 0.88-0.68 0.36-1.38 0.7-2.08 1.02l-0.7 0.32c-0.54 0.26-1.08 0.52-1.62 0.74-0.62 0.26-1.24 0.48-1.86 0.7l-0.9 0.32c-0.6 0.22-1.2 0.44-1.82 0.62-0.68 0.22-1.3 0.36-1.9 0.52l-0.82 0.2c-0.66 0.16-1.34 0.34-2.02 0.48-0.74 0.14-1.5 0.26-2.26 0.36l-0.76 0.1c-0.6 0.1-1.2 0.2-1.82 0.26-1.68 0.16-3.32 0.24-4.9 0.24h-0.3c-1.5 0-3.04-0.08-4.6-0.24-0.6-0.06-1.22-0.16-1.84-0.26l-0.78-0.1c-0.7-0.1-1.42-0.2-2.12-0.34-0.8-0.16-1.5-0.34-2.2-0.52l-0.78-0.2c-0.6-0.14-1.22-0.3-1.8-0.48-0.7-0.2-1.36-0.44-2.04-0.68l-0.84-0.32c-0.6-0.2-1.18-0.4-1.74-0.64-0.66-0.28-1.24-0.56-1.84-0.84l-0.76-0.36c-0.6-0.28-1.22-0.58-1.8-0.88-0.56-0.3-1.1-0.62-1.62-0.96l-0.96-0.56c-0.52-0.32-1.04-0.62-1.56-0.96-0.72-0.48-1.38-0.98-2.04-1.48l-0.62-0.46c-0.42-0.32-0.86-0.64-1.28-0.98-1.28-1.06-2.52-2.18-3.68-3.32l-94.16-94.16a49.712 49.712 0 0 1-11.96-19.26L512 318.76 123.48 457.46v26.66L512 345.42l85.74 30.6c2.42 7.18 6.46 13.74 11.96 19.26l94.16 94.16c1.16 1.14 2.4 2.26 3.68 3.32 0.42 0.34 0.86 0.66 1.28 0.98l0.62 0.46c0.66 0.5 1.32 1 2.04 1.48 0.52 0.34 1.04 0.64 1.56 0.96l0.96 0.56c0.52 0.34 1.06 0.66 1.62 0.96 0.58 0.3 1.2 0.6 1.8 0.88l0.76 0.36c0.6 0.28 1.18 0.56 1.84 0.84 0.56 0.24 1.14 0.44 1.74 0.64l0.84 0.32c0.68 0.24 1.34 0.48 2.04 0.68 0.58 0.18 1.2 0.34 1.8 0.48l0.78 0.2c0.7 0.18 1.4 0.36 2.2 0.52 0.7 0.14 1.42 0.24 2.12 0.34l0.78 0.1c0.62 0.1 1.24 0.2 1.84 0.26 1.56 0.16 3.1 0.24 4.6 0.24h0.3c1.58 0 3.22-0.08 4.9-0.24 0.62-0.06 1.22-0.16 1.82-0.26l0.76-0.1c0.76-0.1 1.52-0.22 2.26-0.36 0.68-0.14 1.36-0.32 2.02-0.48l0.82-0.2c0.6-0.16 1.22-0.3 1.9-0.52 0.62-0.18 1.22-0.4 1.82-0.62l0.9-0.32c0.62-0.22 1.24-0.44 1.86-0.7 0.54-0.22 1.08-0.48 1.62-0.74l0.7-0.32c0.7-0.32 1.4-0.66 2.08-1.02 0.52-0.28 1-0.58 1.5-0.88l0.82-0.48c0.62-0.36 1.26-0.74 1.84-1.14 0.56-0.36 1.08-0.76 1.6-1.16l0.78-0.58c0.52-0.38 1.04-0.76 1.52-1.14 1.1-0.92 2.08-1.82 2.82-2.54 0.26-0.22 0.5-0.44 0.84-0.76l37.16-37.16 89.14 31.84v-26.66l-89.14-31.84z" opacity=".2" p-id="45470"></path><path d="M351.58 555.62H169.66c-5.52 0-10 4.48-10 10v181.94c0 5.52 4.48 10 10 10H351.58c5.54 0 10-4.48 10-10V656.6 565.62c0-5.52-4.46-10-10-10z m-100.96 181.94H179.66v-70.98h70.96v70.98z m0-90.98H179.66v-70.96h70.96v70.96z m90.96 90.98h-70.96v-70.98h70.96v70.98z m0-90.98h-70.96v-70.96h70.96v70.96z" fill="#23130D" p-id="45471"></path><path d="M270.62 666.58h70.96v70.98h-70.96zM179.66 666.58h70.96v70.98H179.66zM179.66 575.62h70.96v70.96H179.66zM270.62 575.62h70.96v70.96h-70.96z" fill="#3594BF" p-id="45472"></path><path d="M854.36 555.62h-181.94c-5.52 0-10 4.48-10 10v181.94c0 5.52 4.48 10 10 10h181.94c5.52 0 10-4.48 10-10v-90.94-91c0-5.52-4.48-10-10-10z m-100.96 181.94h-70.98v-70.98h70.98v70.98z m0-90.98h-70.98v-70.96h70.98v70.96z m90.96 90.98H773.4v-70.98h70.96v70.98z m0-90.98H773.4v-70.96h70.96v70.96z" fill="#23130D" p-id="45473"></path><path d="M682.42 575.62h70.98v70.96h-70.98zM682.42 666.58h70.98v70.98h-70.98zM773.4 666.58h70.96v70.98H773.4zM773.4 575.62h70.96v70.96H773.4z" fill="#3594BF" p-id="45474"></path><path d="M644.548 251.902a10 10 0 0 0 10-10V33.672a10 10 0 1 0-20 0v208.23a10 10 0 0 0 10 10zM833.582 251.902a10 10 0 0 0 10-10V33.672a10 10 0 1 0-20 0v208.23a10 10 0 0 0 10 10z" fill="#23130D" p-id="45475"></path><path d="M523.72 689.5h50.56v47.396h-50.56zM450.72 689.5h50.56v47.396h-50.56zM523.72 763.554h50.56v47.396h-50.56zM450.72 763.554h50.56v47.396h-50.56zM523.72 837.61h50.56v47.396h-50.56zM450.72 837.61h50.56v47.396h-50.56zM523.72 911.664h50.56v47.396h-50.56zM450.72 911.664h50.56v47.396h-50.56z" fill="#CC7B5A" p-id="45476"></path><path d="M123.48 876.278h70.24v34.692H123.48zM263.96 876.278h70.24v34.692h-70.24zM123.48 945.608h70.24v34.692H123.48zM263.96 945.608h70.24v34.692h-70.24zM193.72 910.916h70.24v34.692H193.72zM334.2 910.916h70.24v34.692H334.2z" fill="#E59D89" p-id="45477"></path><path d="M830.13 876.278h70.24v34.692h-70.24zM689.65 876.278h70.24v34.692h-70.24zM830.13 945.608h70.24v34.692h-70.24zM689.65 945.608h70.24v34.692h-70.24zM759.89 910.916h70.24v34.692h-70.24zM619.41 910.916h70.24v34.692h-70.24z" fill="#E59D89" p-id="45478"></path><path d="M232.68 646.58h-16.04L179.66 609.6v-16.04zM250.62 645.96v0.62h-11.7l-59.26-59.26v-11.7h0.62zM250.62 612.6v20.52l-57.5-57.5h20.52z" fill="#FFFFFF" opacity=".2" p-id="45479"></path><path d="M323.64 646.58h-16.04l-36.98-36.98v-16.04zM341.58 645.96v0.62h-11.7l-59.26-59.26v-11.7h0.62zM341.58 612.6v20.52l-57.5-57.5h20.52z" fill="#FFFFFF" opacity=".2" p-id="45480"></path><path d="M232.68 737.478h-16.04l-36.98-36.98v-16.04zM250.62 736.858v0.62h-11.7l-59.26-59.26v-11.7h0.62zM250.62 703.498v20.52l-57.5-57.5h20.52z" fill="#FFFFFF" opacity=".2" p-id="45481"></path><path d="M323.64 737.478h-16.04l-36.98-36.98v-16.04zM341.58 736.858v0.62h-11.7l-59.26-59.26v-11.7h0.62zM341.58 703.498v20.52l-57.5-57.5h20.52z" fill="#FFFFFF" opacity=".2" p-id="45482"></path><path d="M735.45 646.58h-16.04l-36.98-36.98v-16.04zM753.39 645.96v0.62h-11.7l-59.26-59.26v-11.7h0.62zM753.39 612.6v20.52l-57.5-57.5h20.52z" fill="#FFFFFF" opacity=".2" p-id="45483"></path><path d="M826.41 646.58h-16.04l-36.98-36.98v-16.04zM844.35 645.96v0.62h-11.7l-59.26-59.26v-11.7h0.62zM844.35 612.6v20.52l-57.5-57.5h20.52z" fill="#FFFFFF" opacity=".2" p-id="45484"></path><path d="M735.45 737.478h-16.04l-36.98-36.98v-16.04zM753.39 736.858v0.62h-11.7l-59.26-59.26v-11.7h0.62zM753.39 703.498v20.52l-57.5-57.5h20.52z" fill="#FFFFFF" opacity=".2" p-id="45485"></path><path d="M826.41 737.478h-16.04l-36.98-36.98v-16.04zM844.35 736.858v0.62h-11.7l-59.26-59.26v-11.7h0.62zM844.35 703.498v20.52l-57.5-57.5h20.52z" fill="#FFFFFF" opacity=".2" p-id="45486"></path></svg>