<?xml version="1.0" standalone="no"?><!DOCTYPE svg PUBLIC "-//W3C//DTD SVG 1.1//EN" "http://www.w3.org/Graphics/SVG/1.1/DTD/svg11.dtd"><svg t="1625811960008" class="icon" viewBox="0 0 1024 1024" version="1.1" xmlns="http://www.w3.org/2000/svg" p-id="46273" xmlns:xlink="http://www.w3.org/1999/xlink" width="200" height="200"><defs><style type="text/css"></style></defs><path d="M965.94 58.3h-88.86c-5.52 0-10 4.46-10 10v15.9h-28.58c-16.6 0-30.12 13.52-30.12 30.14v17.42L574.34 77.44c-21.18-4.6-52 0.96-70.28 12.72l-271.16 178c-10.36 6.66-17.6 17.12-19.88 28.66-2.08 10.64 0.12 21.3 6.2 30 8.84 12.64 24.6 19.78 40.74 19.78 7.12 0 14.32-1.4 21.04-4.32l56.94-23.5-81.44 81.46c-0.48 0.46-0.9 1-1.28 1.56-0.12 0.18-0.2 0.38-0.3 0.56-0.22 0.38-0.44 0.76-0.6 1.16-0.12 0.26-0.18 0.54-0.26 0.82-0.12 0.34-0.24 0.68-0.32 1.04-0.1 0.5-0.12 1.02-0.14 1.52-0.02 0.14-0.04 0.28-0.04 0.42v276.96h-37.94v-13.64c0-16.62-13.52-30.14-30.12-30.14H156.92v-11.78c0-5.54-4.48-10-10-10H58.04c-5.52 0-10 4.46-10 10v327c0 5.52 4.48 10 10 10h88.88c5.52 0 10-4.48 10-10v-15.94h28.58c16.6 0 30.12-13.5 30.12-30.12v-17.42l234.02 54.3c5.06 1.1 10.66 1.64 16.5 1.64 18.66 0 39.88-5.36 53.8-14.34l271.16-177.98c10.36-6.68 17.6-17.12 19.86-28.68 2.1-10.64-0.1-21.3-6.18-30-12.76-18.24-39.88-25.02-61.78-15.44l-42.82 17.66 75.64-75.64c0.46-0.48 0.88-0.98 1.26-1.54 0.14-0.22 0.24-0.44 0.36-0.66 0.2-0.36 0.4-0.7 0.56-1.06 0.12-0.28 0.18-0.58 0.26-0.86 0.1-0.34 0.24-0.66 0.3-1.02 0.08-0.44 0.1-0.86 0.14-1.3 0-0.22 0.06-0.42 0.06-0.66V339.72h29.62v13.64c0 16.6 13.52 30.12 30.12 30.12h28.58v11.8c0 5.52 4.48 10 10 10h88.86c5.54 0 10-4.48 10-10V68.3c0-5.54-4.46-10-10-10zM136.92 945.72H68.04v-307h68.88v307z m58.7-36.06c0 5.58-4.54 10.12-10.12 10.12H156.92V660.5h28.58c5.58 0 10.12 4.56 10.12 10.14v239.02z m190.46-610.74l36.58-15.1c6.48 17.72 23.72 30.24 43.88 30.24h1l-83.26 83.26h-96.58l98.38-98.4z m105.72 98.4h-79.24l83.26-83.26h79.26l-83.28 83.26z m111.14-82.84c18.52 1.38 42.66 6.12 57.6 11.58l0.7 0.28c0.1 0.04 0.18 0.08 0.26 0.1 5.96 2.2 12.78 4.14 20.22 5.84l-65.02 65.04h-96.6l82.84-82.84z m-116.98 102.84v124.88l-38.1-26.18a0.976 0.976 0 0 0-0.14-0.06c-0.32-0.22-0.68-0.4-1.04-0.58-0.24-0.12-0.46-0.26-0.72-0.36-0.3-0.14-0.64-0.2-0.96-0.3-0.3-0.1-0.6-0.2-0.9-0.26-0.32-0.06-0.64-0.08-0.96-0.1-0.3-0.04-0.62-0.08-0.94-0.08-0.34 0-0.7 0.04-1.04 0.08-0.28 0.04-0.58 0.04-0.86 0.1-0.32 0.06-0.62 0.18-0.94 0.26-0.32 0.1-0.64 0.18-0.94 0.3-0.24 0.1-0.46 0.24-0.7 0.36-0.36 0.18-0.72 0.36-1.06 0.58l-0.12 0.06-38.12 26.18v-124.88h87.54z m-212.4 276.98v-0.02-276.96h104.86v143.92c0 1.3 0.26 2.62 0.78 3.86 0.26 0.6 0.58 1.18 0.96 1.74 0 0 0 0.02 0.02 0.02 0.32 0.48 0.68 0.88 1.06 1.28 0.08 0.08 0.16 0.18 0.26 0.26 0.42 0.4 0.86 0.78 1.32 1.1h0.02c0.48 0.32 0.98 0.58 1.48 0.82 0.12 0.04 0.24 0.1 0.36 0.14 0.52 0.22 1.04 0.38 1.58 0.5l0.36 0.06c0.6 0.12 1.18 0.18 1.78 0.18h0.02c0.6 0 1.2-0.06 1.8-0.18 0.18-0.02 0.34-0.08 0.52-0.12 0.42-0.1 0.82-0.22 1.22-0.38 0.18-0.06 0.36-0.12 0.54-0.2 0.42-0.2 0.86-0.42 1.26-0.7 0.1-0.04 0.2-0.1 0.28-0.16 0.02 0 0.02 0 0.04-0.02l48.12-33.04 48.1 33.04c0 0.02 0.02 0.02 0.02 0.02 0.1 0.06 0.18 0.1 0.26 0.16 0.42 0.26 0.86 0.5 1.3 0.7 0.18 0.08 0.34 0.14 0.52 0.2 0.4 0.16 0.82 0.28 1.22 0.38 0.18 0.04 0.36 0.1 0.54 0.12 0.58 0.12 1.18 0.18 1.78 0.18h0.02c0.6 0 1.2-0.06 1.78-0.18l0.36-0.06c0.54-0.12 1.08-0.28 1.6-0.5 0.12-0.04 0.22-0.1 0.34-0.14 0.52-0.24 1.02-0.5 1.5-0.82s0.92-0.7 1.34-1.1c0.08-0.08 0.18-0.16 0.26-0.26 0.38-0.38 0.74-0.8 1.06-1.28 0 0 0-0.02 0.02-0.02 0.36-0.56 0.68-1.14 0.94-1.74 0.22-0.48 0.34-0.98 0.46-1.48 0.04-0.14 0.1-0.26 0.14-0.4 0.12-0.66 0.18-1.32 0.2-1.98v-143.92h104.88V754.6h-104.88v-143.9c-0.02-0.66-0.08-1.34-0.2-1.98-0.28-1.32-0.82-2.54-1.54-3.62-0.02-0.02-0.02-0.02-0.02-0.04-0.1-0.14-0.22-0.24-0.32-0.38-0.3-0.38-0.58-0.74-0.92-1.08-0.24-0.22-0.5-0.4-0.74-0.6-0.26-0.22-0.5-0.44-0.78-0.62s-0.58-0.32-0.88-0.48c-0.28-0.14-0.54-0.3-0.84-0.42-0.32-0.14-0.66-0.22-0.98-0.32-0.3-0.08-0.58-0.18-0.86-0.24-0.5-0.1-1-0.12-1.48-0.14-0.16-0.02-0.3-0.06-0.44-0.06-0.02 0-0.02 0.02-0.04 0.02-1.3 0-2.62 0.24-3.86 0.78-0.62 0.26-1.18 0.58-1.74 0.94 0 0.02-0.02 0.02-0.02 0.02l-48.12 33.04-48.1-33.04s-0.02 0-0.04-0.02c-0.54-0.36-1.12-0.68-1.74-0.94-1.24-0.54-2.54-0.78-3.86-0.78l-0.02-0.02c-0.16 0-0.3 0.04-0.46 0.06-0.5 0.02-0.98 0.04-1.46 0.14-0.3 0.06-0.56 0.16-0.86 0.24-0.34 0.1-0.68 0.18-1 0.32-0.28 0.12-0.56 0.28-0.82 0.42-0.3 0.16-0.62 0.3-0.9 0.48-0.26 0.18-0.5 0.4-0.76 0.6-0.24 0.2-0.52 0.4-0.74 0.62-0.34 0.32-0.62 0.7-0.9 1.06-0.1 0.14-0.24 0.26-0.34 0.4-0.02 0.02-0.02 0.02-0.02 0.04-0.74 1.08-1.26 2.3-1.54 3.62-0.14 0.64-0.2 1.32-0.2 1.98v143.9h-104.86v-60.3z m212.4-64.58v124.88h-87.54v-124.86l38.1 26.16c0.38 0.28 0.8 0.52 1.22 0.72 0.14 0.06 0.28 0.12 0.4 0.18 0.28 0.12 0.58 0.24 0.86 0.34 0.18 0.04 0.34 0.1 0.52 0.14 0.28 0.08 0.56 0.14 0.84 0.2 0.16 0.02 0.32 0.06 0.48 0.08 0.42 0.06 0.84 0.1 1.26 0.1h0.16c0.42 0 0.82-0.04 1.24-0.1 0.16-0.02 0.32-0.06 0.5-0.08 0.28-0.06 0.54-0.12 0.82-0.2 0.18-0.04 0.36-0.1 0.52-0.14 0.3-0.1 0.58-0.22 0.86-0.34 0.14-0.06 0.28-0.12 0.4-0.18 0.42-0.2 0.84-0.44 1.22-0.7 0-0.02 0.02-0.02 0.02-0.02l38.12-26.18z m264.78 70.46c0.06-0.04 0.14-0.06 0.2-0.1 13.04-5.72 30.2-1.8 37.46 8.56 2.94 4.2 3.98 9.42 2.94 14.68-1.22 6.24-5.26 11.98-11.14 15.76l-271.16 178c-13.58 8.74-39.34 13.38-55 9.96l-238.42-55.32v-167.44h37.94v60.32c0 5.54 4.46 10 10 10h311.96c-4.8 4.28-11.18 6.84-18.06 6.84h-126.28c-3.96-0.18-38.18-0.76-66.64 23.82a10.028 10.028 0 0 0-1.04 14.12 10.004 10.004 0 0 0 7.58 3.46c2.32 0 4.64-0.8 6.52-2.44 23.34-20.14 52.56-18.98 52.82-18.98 0.18 0 0.36 0.02 0.54 0.02h126.5c18.5 0 34.98-10.72 42.44-26.84h20.94c0.4 0 0.8-0.06 1.2-0.12 0.24-0.02 0.48-0.02 0.72-0.06 0.46-0.1 0.9-0.24 1.32-0.4 0.18-0.06 0.38-0.1 0.56-0.16 0.48-0.2 0.92-0.46 1.36-0.74 0.12-0.06 0.24-0.1 0.36-0.18 0.58-0.38 1.1-0.82 1.58-1.3l35.42-35.42 87.38-36.04z m8.02-87.64l-127.92 127.92V411.48l74.9-74.92c15.24 2.04 31.82 3.16 48.62 3.16h4.4v272.82z m49.62-292.82h-54.02c-33.24 0-65.32-4.48-85.84-12l-0.7-0.28a1.388 1.388 0 0 0-0.26-0.1c-18.08-6.66-47.32-12.16-68.4-13.12h-0.12c-2.08-0.1-4.1-0.16-6-0.16h-126.5c-14.02 0-25.96-11.02-26.62-24.72-0.02-0.34-0.02-0.68-0.02-1.04 0-1.64 0.16-3.26 0.48-4.9 2.44-12.08 13.44-20.84 26.16-20.84h126.28c3.94 0.16 38.2 0.74 66.64-23.84 4.18-3.6 4.64-9.92 1.04-14.1a10.01 10.01 0 0 0-14.12-1.02c-23.32 20.14-52.54 18.98-52.8 18.98-0.18-0.02-0.36-0.02-0.54-0.02h-126.5c-22.2 0-41.46 15.52-45.76 36.9-0.24 1.24-0.42 2.5-0.56 3.74l-43.44 17.92c-0.06 0.02-0.14 0.06-0.2 0.08l-103.32 42.62c-0.06 0.04-0.12 0.06-0.2 0.1-13.04 5.72-30.2 1.8-37.46-8.56-2.94-4.2-3.98-9.42-2.94-14.68 1.22-6.24 5.26-11.98 11.14-15.76l271.16-178c13.8-8.88 39.04-13.44 55-9.96l238.42 55.32v167.44z m58.7 43.76h-28.58c-5.58 0-10.12-4.54-10.12-10.12v-23.6-0.04V114.34c0-5.58 4.54-10.14 10.12-10.14h28.58v259.28z m88.86 21.8h-68.86V78.3h68.86v306.98z" fill="#23130D" p-id="46274"></path><path d="M887.08 78.3h68.86v306.98h-68.86z" fill="#3594BF" p-id="46275"></path><path d="M867.08 104.2v259.28h-28.58c-5.58 0-10.12-4.54-10.12-10.12v-23.6-0.04V114.34c0-5.58 4.54-10.14 10.12-10.14h28.58z" fill="#E1E1E5" p-id="46276"></path><path d="M808.38 152.28v167.44h-54.02c-33.24 0-65.32-4.48-85.84-12l-0.7-0.28a1.388 1.388 0 0 0-0.26-0.1c-18.08-6.66-47.32-12.16-68.4-13.12h-0.12c-2.08-0.1-4.1-0.16-6-0.16h-126.5c-14.02 0-25.96-11.02-26.62-24.72-0.02-0.34-0.02-0.68-0.02-1.04 0-1.64 0.16-3.26 0.48-4.9 2.44-12.08 13.44-20.84 26.16-20.84h126.28c3.94 0.16 38.2 0.74 66.64-23.84 4.18-3.6 4.64-9.92 1.04-14.1a10.01 10.01 0 0 0-14.12-1.02c-23.32 20.14-52.54 18.98-52.8 18.98-0.18-0.02-0.36-0.02-0.54-0.02h-126.5c-22.2 0-41.46 15.52-45.76 36.9-0.24 1.24-0.42 2.5-0.56 3.74l-43.44 17.92c-0.06 0.02-0.14 0.06-0.2 0.08l-103.32 42.62c-0.06 0.04-0.12 0.06-0.2 0.1-13.04 5.72-30.2 1.8-37.46-8.56-2.94-4.2-3.98-9.42-2.94-14.68 1.22-6.24 5.26-11.98 11.14-15.76l271.16-178c13.8-8.88 39.04-13.44 55-9.96l238.42 55.32z" fill="#F8D3C9" p-id="46277"></path><path d="M808.38 152.28v29.34L569.96 126.3c-15.96-3.48-41.2 1.08-55 9.96l-271.16 178c-1.98 1.28-3.76 2.76-5.28 4.44-1.1-1.02-2.08-2.14-2.92-3.34-2.94-4.2-3.98-9.42-2.94-14.68 1.22-6.24 5.26-11.98 11.14-15.76l271.16-178c13.8-8.88 39.04-13.44 55-9.96l238.42 55.32z" opacity=".2" p-id="46278"></path><path d="M467.54 314.06l-83.26 83.26h-96.58l98.38-98.4 36.58-15.1c6.48 17.72 23.72 30.24 43.88 30.24h1z" fill="#F2B0A2" p-id="46279"></path><path d="M575.08 314.06l-83.28 83.26h-79.24l83.26-83.26z" fill="#E1E1E5" p-id="46280"></path><path d="M681.72 332.28l-65.02 65.04h-96.6l82.84-82.84c18.52 1.38 42.66 6.12 57.6 11.58l0.7 0.28c0.1 0.04 0.18 0.08 0.26 0.1 5.96 2.2 12.78 4.14 20.22 5.84z" fill="#F2B0A2" p-id="46281"></path><path d="M467.54 314.06l-16.24 16.26h-1c-20.16 0-37.4-12.52-43.88-30.26l-36.6 15.12 16.26-16.26 36.58-15.1c6.48 17.72 23.72 30.24 43.88 30.24h1zM575.08 314.06l-16.26 16.26h-79.26l16.26-16.26zM681.72 332.28l-16.24 16.24c-7.44-1.7-14.28-3.64-20.22-5.84-0.08 0-0.18-0.06-0.26-0.1l-0.7-0.26c-14.94-5.48-39.08-10.22-57.6-11.6l16.24-16.24c18.52 1.38 42.66 6.12 57.6 11.58l0.7 0.28c0.1 0.04 0.18 0.08 0.26 0.1 5.96 2.2 12.78 4.14 20.22 5.84zM586.7 330.72l-66.6 66.6 66.58-66.6z" opacity=".2" p-id="46282"></path><path d="M758.76 339.72v272.82l-127.92 127.92V411.48l74.9-74.92c15.24 2.04 31.82 3.16 48.62 3.16h4.4z" fill="#CC7B5A" p-id="46283"></path><path d="M758.76 339.72v27.46h-4.4c-16.8 0-33.38-1.12-48.62-3.16l-74.9 74.92v-27.46l74.9-74.92c15.24 2.04 31.82 3.16 48.62 3.16h4.4z" opacity=".2" p-id="46284"></path><path d="M485.96 417.32v124.88l-38.1-26.18a0.976 0.976 0 0 0-0.14-0.06c-0.32-0.22-0.68-0.4-1.04-0.58-0.24-0.12-0.46-0.26-0.72-0.36-0.3-0.14-0.64-0.2-0.96-0.3-0.3-0.1-0.6-0.2-0.9-0.26-0.32-0.06-0.64-0.08-0.96-0.1-0.3-0.04-0.62-0.08-0.94-0.08-0.34 0-0.7 0.04-1.04 0.08-0.28 0.04-0.58 0.04-0.86 0.1-0.32 0.06-0.62 0.18-0.94 0.26-0.32 0.1-0.64 0.18-0.94 0.3-0.24 0.1-0.46 0.24-0.7 0.36-0.36 0.18-0.72 0.36-1.06 0.58l-0.12 0.06-38.12 26.18v-124.88h87.54zM485.96 629.72v124.88h-87.54v-124.86l38.1 26.16c0.38 0.28 0.8 0.52 1.22 0.72 0.14 0.06 0.28 0.12 0.4 0.18 0.28 0.12 0.58 0.24 0.86 0.34 0.18 0.04 0.34 0.1 0.52 0.14 0.28 0.08 0.56 0.14 0.84 0.2 0.16 0.02 0.32 0.06 0.48 0.08 0.42 0.06 0.84 0.1 1.26 0.1h0.16c0.42 0 0.82-0.04 1.24-0.1 0.16-0.02 0.32-0.06 0.5-0.08 0.28-0.06 0.54-0.12 0.82-0.2 0.18-0.04 0.36-0.1 0.52-0.14 0.3-0.1 0.58-0.22 0.86-0.34 0.14-0.06 0.28-0.12 0.4-0.18 0.42-0.2 0.84-0.44 1.22-0.7 0-0.02 0.02-0.02 0.02-0.02l38.12-26.18z" fill="#E1E1E5" p-id="46285"></path><path d="M610.84 417.32V754.6h-104.88v-143.9c-0.02-0.66-0.08-1.34-0.2-1.98-0.28-1.32-0.82-2.54-1.54-3.62-0.02-0.02-0.02-0.02-0.02-0.04-0.1-0.14-0.22-0.24-0.32-0.38-0.3-0.38-0.58-0.74-0.92-1.08-0.24-0.22-0.5-0.4-0.74-0.6-0.26-0.22-0.5-0.44-0.78-0.62s-0.58-0.32-0.88-0.48c-0.28-0.14-0.54-0.3-0.84-0.42-0.32-0.14-0.66-0.22-0.98-0.32-0.3-0.08-0.58-0.18-0.86-0.24-0.5-0.1-1-0.12-1.48-0.14-0.16-0.02-0.3-0.06-0.44-0.06-0.02 0-0.02 0.02-0.04 0.02-1.3 0-2.62 0.24-3.86 0.78-0.62 0.26-1.18 0.58-1.74 0.94 0 0.02-0.02 0.02-0.02 0.02l-48.12 33.04-48.1-33.04s-0.02 0-0.04-0.02c-0.54-0.36-1.12-0.68-1.74-0.94-1.24-0.54-2.54-0.78-3.86-0.78l-0.02-0.02c-0.16 0-0.3 0.04-0.46 0.06-0.5 0.02-0.98 0.04-1.46 0.14-0.3 0.06-0.56 0.16-0.86 0.24-0.34 0.1-0.68 0.18-1 0.32-0.28 0.12-0.56 0.28-0.82 0.42-0.3 0.16-0.62 0.3-0.9 0.48-0.26 0.18-0.5 0.4-0.76 0.6-0.24 0.2-0.52 0.4-0.74 0.62-0.34 0.32-0.62 0.7-0.9 1.06-0.1 0.14-0.24 0.26-0.34 0.4-0.02 0.02-0.02 0.02-0.02 0.04-0.74 1.08-1.26 2.3-1.54 3.62-0.14 0.64-0.2 1.32-0.2 1.98v143.9h-104.86v-60.3-0.02-276.96h104.86v143.92c0 1.3 0.26 2.62 0.78 3.86 0.26 0.6 0.58 1.18 0.96 1.74 0 0 0 0.02 0.02 0.02 0.32 0.48 0.68 0.88 1.06 1.28 0.08 0.08 0.16 0.18 0.26 0.26 0.42 0.4 0.86 0.78 1.32 1.1h0.02c0.48 0.32 0.98 0.58 1.48 0.82 0.12 0.04 0.24 0.1 0.36 0.14 0.52 0.22 1.04 0.38 1.58 0.5l0.36 0.06c0.6 0.12 1.18 0.18 1.78 0.18h0.02c0.6 0 1.2-0.06 1.8-0.18 0.18-0.02 0.34-0.08 0.52-0.12 0.42-0.1 0.82-0.22 1.22-0.38 0.18-0.06 0.36-0.12 0.54-0.2 0.42-0.2 0.86-0.42 1.26-0.7 0.1-0.04 0.2-0.1 0.28-0.16 0.02 0 0.02 0 0.04-0.02l48.12-33.04 48.1 33.04c0 0.02 0.02 0.02 0.02 0.02 0.1 0.06 0.18 0.1 0.26 0.16 0.42 0.26 0.86 0.5 1.3 0.7 0.18 0.08 0.34 0.14 0.52 0.2 0.4 0.16 0.82 0.28 1.22 0.38 0.18 0.04 0.36 0.1 0.54 0.12 0.58 0.12 1.18 0.18 1.78 0.18h0.02c0.6 0 1.2-0.06 1.78-0.18l0.36-0.06c0.54-0.12 1.08-0.28 1.6-0.5 0.12-0.04 0.22-0.1 0.34-0.14 0.52-0.24 1.02-0.5 1.5-0.82s0.92-0.7 1.34-1.1c0.08-0.08 0.18-0.16 0.26-0.26 0.38-0.38 0.74-0.8 1.06-1.28 0 0 0-0.02 0.02-0.02 0.36-0.56 0.68-1.14 0.94-1.74 0.22-0.48 0.34-0.98 0.46-1.48 0.04-0.14 0.1-0.26 0.14-0.4 0.12-0.66 0.18-1.32 0.2-1.98v-143.92h104.88z" fill="#E59D89" p-id="46286"></path><path d="M600.84 427.32V744.6h-84.88v-134.052l-0.004-0.152a23.01 23.01 0 0 0-0.366-3.52l-0.022-0.116-0.024-0.116a20.116 20.116 0 0 0-1.342-4.1v-0.69l-1.862-2.608-0.006-0.01-0.34-0.51-0.284-0.284-0.094-0.108a19.932 19.932 0 0 0-1.584-1.81l-0.154-0.154-0.16-0.146a17.594 17.594 0 0 0-1.116-0.928l-0.012-0.01a15.04 15.04 0 0 0-1.74-1.32c-0.606-0.39-1.14-0.664-1.46-0.83l-0.124-0.064-0.136-0.074-0.118-0.06c-0.28-0.15-0.784-0.42-1.436-0.69a15.864 15.864 0 0 0-1.856-0.638l-0.244-0.076-0.204-0.054a16.716 16.716 0 0 0-1.302-0.342l-0.066-0.014-0.066-0.014a17.098 17.098 0 0 0-2.444-0.298 11.06 11.06 0 0 0-1.438-0.096l-4.168 0.01-0.558 0.56a19.124 19.124 0 0 0-3.462 1.19h-0.576l-2.268 1.556-0.018 0.012-4.592 2.952v0.202l-38.138 26.186-41.752-28.68-0.026-0.026-0.394-0.262-0.268-0.184-2.558-1.758h-0.596l-0.352-0.154a19.42 19.42 0 0 0-3.092-1.034l-0.572-0.574h-4.152c-0.552 0-1.036 0.042-1.436 0.094-0.67 0.036-1.52 0.108-2.444 0.3-0.664 0.132-1.194 0.294-1.554 0.404l-0.052 0.014-0.118 0.034-0.116 0.032a14.71 14.71 0 0 0-3.522 1.442l-0.038 0.022-0.1 0.05a15.576 15.576 0 0 0-1.534 0.858l-0.142 0.092-0.14 0.096a16.72 16.72 0 0 0-1.128 0.864l-0.036 0.03-0.198 0.152-0.152 0.126a15.06 15.06 0 0 0-1.254 1.088 16.75 16.75 0 0 0-1.666 1.884l-2.634 2.634v1.63a19.832 19.832 0 0 0-1.738 8.132v133.9h-84.86V427.32h84.86v133.92c0 2.662 0.524 5.262 1.558 7.726l0.022 0.054 0.024 0.054 0.14 0.318 0.014 7.466h5.802c0.374 0.304 0.748 0.586 1.126 0.848l2.594 1.792h0.632l0.224 0.108 0.342 0.114 0.112 0.044c0.99 0.404 1.998 0.718 3.078 0.956l0.26 0.058 0.262 0.044 0.23 0.038a18.82 18.82 0 0 0 3.576 0.338 19.28 19.28 0 0 0 3.482-0.32c0.48-0.078 0.884-0.176 1.216-0.266a19.04 19.04 0 0 0 2.248-0.688 14.88 14.88 0 0 0 1.198-0.468l0.022-0.01 1.658-0.008 2.272-2.288 41.686-28.622 38.112 26.178 0.01 4.75h7.502c0.376 0.168 0.746 0.314 1.14 0.452 0.686 0.26 1.404 0.482 2.232 0.688l0.13 0.032 0.018 0.004c0.218 0.056 0.602 0.152 1.094 0.234a18.874 18.874 0 0 0 7.104-0.014l0.206-0.034 0.262-0.044 0.26-0.058a19.34 19.34 0 0 0 3.112-0.964l0.176-0.07 0.17-0.056 0.502-0.232c1.082-0.5 1.99-1 2.856-1.58 0.454-0.302 0.892-0.624 1.332-0.98h1.26l2.952-4.592 0.108-0.168 1.46-2.192v-0.506l0.1-0.224c0.462-1.03 0.734-1.972 0.914-2.672 0.056-0.168 0.11-0.338 0.16-0.514l0.136-0.476 0.088-0.486c0.204-1.118 0.32-2.252 0.356-3.466l0.004-0.192V427.32h84.894m10-10h-104.88v143.92c-0.02 0.66-0.08 1.32-0.2 1.98-0.04 0.14-0.1 0.26-0.14 0.4-0.12 0.5-0.24 1-0.46 1.48-0.26 0.6-0.58 1.18-0.94 1.74-0.02 0-0.02 0.02-0.02 0.02-0.32 0.48-0.68 0.9-1.06 1.28-0.08 0.1-0.18 0.18-0.26 0.26-0.42 0.4-0.86 0.78-1.34 1.1-0.48 0.32-0.98 0.58-1.5 0.82-0.12 0.04-0.22 0.1-0.34 0.14-0.52 0.22-1.06 0.38-1.6 0.5l-0.36 0.06c-0.58 0.12-1.18 0.18-1.78 0.18h-0.02c-0.6 0-1.2-0.06-1.78-0.18-0.18-0.02-0.36-0.08-0.54-0.12-0.4-0.1-0.82-0.22-1.22-0.38-0.18-0.06-0.34-0.12-0.52-0.2-0.44-0.2-0.88-0.44-1.3-0.7-0.08-0.06-0.16-0.1-0.26-0.16 0 0-0.02 0-0.02-0.02L442.2 536.4l-48.12 33.04c-0.02 0.02-0.02 0.02-0.04 0.02-0.08 0.06-0.18 0.12-0.28 0.16-0.4 0.28-0.84 0.5-1.26 0.7-0.18 0.08-0.36 0.14-0.54 0.2-0.4 0.16-0.8 0.28-1.22 0.38-0.18 0.04-0.34 0.1-0.52 0.12-0.6 0.12-1.2 0.18-1.8 0.18h-0.02c-0.6 0-1.18-0.06-1.78-0.18l-0.36-0.06c-0.54-0.12-1.06-0.28-1.58-0.5-0.12-0.04-0.24-0.1-0.36-0.14-0.5-0.24-1-0.5-1.48-0.82h-0.02a11.32 11.32 0 0 1-1.32-1.1c-0.1-0.08-0.18-0.18-0.26-0.26-0.38-0.4-0.74-0.8-1.06-1.28-0.02 0-0.02-0.02-0.02-0.02-0.38-0.56-0.7-1.14-0.96-1.74-0.52-1.24-0.78-2.56-0.78-3.86v-143.92h-104.86V754.6h104.86v-143.9c0-0.66 0.06-1.34 0.2-1.98 0.28-1.32 0.8-2.54 1.54-3.62 0-0.02 0-0.02 0.02-0.04 0.1-0.14 0.24-0.26 0.34-0.4 0.28-0.36 0.56-0.74 0.9-1.06 0.22-0.22 0.5-0.42 0.74-0.62 0.26-0.2 0.5-0.42 0.76-0.6 0.28-0.18 0.6-0.32 0.9-0.48 0.26-0.14 0.54-0.3 0.82-0.42 0.32-0.14 0.66-0.22 1-0.32 0.3-0.08 0.56-0.18 0.86-0.24 0.48-0.1 0.96-0.12 1.46-0.14 0.16-0.02 0.3-0.06 0.46-0.06l0.02 0.02c1.32 0 2.62 0.24 3.86 0.78 0.62 0.26 1.2 0.58 1.74 0.94 0.02 0.02 0.04 0.02 0.04 0.02l48.1 33.04 48.12-33.04s0.02 0 0.02-0.02c0.56-0.36 1.12-0.68 1.74-0.94 1.24-0.54 2.56-0.78 3.86-0.78 0.02 0 0.02-0.02 0.04-0.02 0.14 0 0.28 0.04 0.44 0.06 0.48 0.02 0.98 0.04 1.48 0.14 0.28 0.06 0.56 0.16 0.86 0.24 0.32 0.1 0.66 0.18 0.98 0.32 0.3 0.12 0.56 0.28 0.84 0.42 0.3 0.16 0.6 0.3 0.88 0.48s0.52 0.4 0.78 0.62c0.24 0.2 0.5 0.38 0.74 0.6 0.34 0.34 0.62 0.7 0.92 1.08 0.1 0.14 0.22 0.24 0.32 0.38 0 0.02 0 0.02 0.02 0.04 0.72 1.08 1.26 2.3 1.54 3.62 0.12 0.64 0.18 1.32 0.2 1.98v143.9h104.88V417.32z" opacity=".2" p-id="46287"></path><path d="M68.04 638.72h68.88v307H68.04z" fill="#3594BF" p-id="46288"></path><path d="M195.62 670.64v239.02c0 5.58-4.54 10.12-10.12 10.12H156.92V660.5h28.58c5.58 0 10.12 4.56 10.12 10.14z" fill="#E1E1E5" p-id="46289"></path><path d="M119.5 638.72h17.42v307h-17.42z" fill="#FFFFFF" opacity=".4" p-id="46290"></path><path d="M68.04 638.72h17.42v307h-17.42zM156.92 660.5h19.36v259.28h-19.36z" opacity=".2" p-id="46291"></path><path d="M887.09 78.3h17.42v307h-17.42z" fill="#FFFFFF" opacity=".4" p-id="46292"></path><path d="M938.55 78.3h17.42v307h-17.42zM847.73 104.24h19.36v259.28h-19.36z" opacity=".2" p-id="46293"></path><path d="M791.34 723.32c-1.22 6.24-5.26 11.98-11.14 15.76l-271.16 178c-13.58 8.74-39.34 13.38-55 9.96l-238.42-55.32v-167.44h37.94v60.32c0 5.54 4.46 10 10 10h311.96c-4.8 4.28-11.18 6.84-18.06 6.84h-126.28c-3.96-0.18-38.18-0.76-66.64 23.82a10.028 10.028 0 0 0-1.04 14.12 10.004 10.004 0 0 0 7.58 3.46c2.32 0 4.64-0.8 6.52-2.44 23.34-20.14 52.56-18.98 52.82-18.98 0.18 0 0.36 0.02 0.54 0.02h126.5c18.5 0 34.98-10.72 42.44-26.84h20.94c0.4 0 0.8-0.06 1.2-0.12 0.24-0.02 0.48-0.02 0.72-0.06 0.46-0.1 0.9-0.24 1.32-0.4 0.18-0.06 0.38-0.1 0.56-0.16 0.48-0.2 0.92-0.46 1.36-0.74 0.12-0.06 0.24-0.1 0.36-0.18 0.58-0.38 1.1-0.82 1.58-1.3l35.42-35.42 87.38-36.04c0.06-0.04 0.14-0.06 0.2-0.1 13.04-5.72 30.2-1.8 37.46 8.56 2.94 4.2 3.98 9.42 2.94 14.68z" fill="#F8D3C9" p-id="46294"></path><path d="M387.08 790.82c21.08-12.94 43.12-12.06 43.34-12.06 0.18 0 0.36 0.02 0.54 0.02h126.5c5.84 0 11.46-1.06 16.66-3.02-4.6 3.58-10.42 5.68-16.66 5.68h-126.28c-2.94-0.14-22.54-0.48-44.1 9.38z" opacity=".2" p-id="46295"></path><path d="M791.34 723.32c-1.22 6.24-5.26 11.98-11.14 15.76l-271.16 178c-13.58 8.74-39.34 13.38-55 9.96l-238.42-55.32v-22.66l238.42 55.32c15.66 3.42 41.42-1.22 55-9.96l271.16-178c3.32-2.14 6.06-4.9 8.02-8.02l0.18 0.24c2.94 4.2 3.98 9.42 2.94 14.68z" opacity=".2" p-id="46296"></path><path d="M574.12 775.76c-4.6 3.58-10.42 5.68-16.66 5.68h-126.28c-2.94-0.14-22.54-0.48-44.1 9.38 21.08-12.94 43.12-12.06 43.34-12.06 0.18 0 0.36 0.02 0.54 0.02h126.5c5.84 0 11.46-1.06 16.66-3.02zM215.62 704.28h37.94v17.56h-37.94z" opacity=".2" p-id="46297"></path><path d="M575.52 774.6c-4.8 4.28-11.18 6.84-18.06 6.84h-126.28c-3.06-0.14-24.28-0.52-46.9 10.72h-120.72c-5.54 0-10-4.46-10-10v-17.56c0 5.54 4.46 10 10 10h311.96z" opacity=".2" p-id="46298"></path></svg>