<?xml version="1.0" standalone="no"?><!DOCTYPE svg PUBLIC "-//W3C//DTD SVG 1.1//EN" "http://www.w3.org/Graphics/SVG/1.1/DTD/svg11.dtd"><svg t="1625811976387" class="icon" viewBox="0 0 1024 1024" version="1.1" xmlns="http://www.w3.org/2000/svg" p-id="46933" xmlns:xlink="http://www.w3.org/1999/xlink" width="200" height="200"><defs><style type="text/css"></style></defs><path d="M942.62 89.38c0-0.02 0-0.06-0.02-0.08-0.1-0.62-0.28-1.2-0.5-1.74-0.02-0.04-0.02-0.08-0.04-0.12a9.998 9.998 0 0 0-9.26-6.24H337.6c-2.82 0-5.36 1.18-7.18 3.06L84.12 330.56c-0.02 0.02-0.04 0.06-0.06 0.08-0.44 0.44-0.84 0.92-1.18 1.44-0.16 0.26-0.28 0.54-0.44 0.8-0.16 0.3-0.34 0.6-0.48 0.92-0.14 0.34-0.22 0.7-0.32 1.04-0.08 0.28-0.18 0.54-0.24 0.84-0.14 0.64-0.2 1.3-0.2 1.96V932.8c0 5.54 4.48 10 10 10h595.18c1.26 0 2.44-0.24 3.54-0.66 0.08-0.04 0.16-0.04 0.24-0.08a9.84 9.84 0 0 0 1.74-0.92c0.58-0.38 1.12-0.82 1.62-1.32l246.22-246.26c1-0.96 1.78-2.12 2.32-3.4 0.02-0.04 0.02-0.08 0.04-0.12 0.22-0.56 0.4-1.14 0.5-1.74 0.02-0.04 0.02-0.06 0.02-0.08 0.1-0.6 0.18-1.2 0.18-1.82V91.2c0-0.62-0.08-1.22-0.18-1.82zM700.64 101.2L474.2 327.62h-150.86L549.78 101.2h150.86zM468.34 347.62v227.34l-73.88-50.76c-0.04-0.02-0.1-0.04-0.14-0.08-0.32-0.22-0.68-0.38-1.04-0.56-0.24-0.12-0.48-0.28-0.72-0.38-0.3-0.12-0.64-0.2-0.96-0.28-0.3-0.1-0.6-0.2-0.9-0.26-0.32-0.06-0.62-0.08-0.94-0.1-0.32-0.04-0.64-0.1-0.96-0.1-0.34 0-0.68 0.06-1.02 0.1-0.3 0.02-0.6 0.04-0.88 0.08-0.32 0.06-0.62 0.18-0.92 0.28-0.32 0.08-0.64 0.16-0.96 0.28-0.24 0.1-0.46 0.24-0.7 0.36-0.36 0.18-0.72 0.36-1.06 0.6-0.04 0.02-0.1 0.04-0.14 0.06l-73.92 50.78V347.62h159.14zM341.78 101.2h179.72L295.06 327.62H115.34L341.78 101.2z m126.56 821.6H309.2V695.48l73.9 50.76c0.4 0.28 0.8 0.5 1.22 0.72 0.14 0.06 0.28 0.1 0.4 0.16 0.28 0.14 0.58 0.24 0.86 0.34 0.18 0.06 0.36 0.12 0.52 0.16 0.28 0.08 0.56 0.14 0.84 0.2 0.16 0.02 0.32 0.06 0.5 0.08 0.4 0.06 0.82 0.08 1.24 0.1h0.16c0.42-0.02 0.84-0.04 1.24-0.1 0.16-0.02 0.34-0.06 0.5-0.08 0.28-0.06 0.56-0.12 0.84-0.2 0.16-0.04 0.34-0.1 0.5-0.16 0.3-0.1 0.58-0.2 0.88-0.34 0.12-0.06 0.26-0.1 0.38-0.16 0.42-0.22 0.84-0.46 1.24-0.72l73.92-50.78V922.8z m208.04 0h-188.04V676.44c0-1.32-0.26-2.62-0.78-3.86-0.26-0.62-0.58-1.2-0.96-1.74 0-0.02 0-0.02-0.02-0.04-0.1-0.16-0.26-0.28-0.38-0.44-0.26-0.36-0.54-0.7-0.86-1.02-0.22-0.24-0.5-0.42-0.74-0.62-0.26-0.2-0.5-0.42-0.76-0.6-0.28-0.18-0.58-0.32-0.88-0.48-0.28-0.14-0.54-0.3-0.84-0.42-0.32-0.14-0.66-0.22-1-0.32-0.28-0.08-0.56-0.18-0.86-0.24-0.48-0.1-0.98-0.12-1.46-0.14-0.16-0.02-0.3-0.06-0.46-0.06h-0.02c-1.3 0.02-2.62 0.26-3.86 0.8-0.62 0.26-1.2 0.58-1.74 0.94-0.02 0.02-0.02 0.02-0.04 0.02l-83.92 57.64-83.88-57.64c-0.02 0-0.04 0-0.04-0.02-0.54-0.36-1.12-0.68-1.74-0.94-1.24-0.54-2.56-0.78-3.86-0.8h-0.04c-0.12 0-0.26 0.04-0.4 0.04a9.8 9.8 0 0 0-1.52 0.16c-0.28 0.06-0.54 0.16-0.82 0.24-0.36 0.1-0.7 0.18-1.02 0.32-0.3 0.12-0.56 0.28-0.84 0.42-0.3 0.16-0.6 0.3-0.88 0.48s-0.52 0.4-0.76 0.6c-0.26 0.2-0.52 0.38-0.76 0.62-0.32 0.32-0.6 0.7-0.9 1.06-0.1 0.14-0.24 0.26-0.34 0.4 0 0.02 0 0.02-0.02 0.04a10.034 10.034 0 0 0-1.72 5.58c0 0.02-0.02 0.04-0.02 0.04V922.8h-188V347.62h188v246.36l0.02 0.02c0 1.3 0.24 2.62 0.78 3.86 0.26 0.62 0.58 1.2 0.94 1.74 0.02 0.02 0.02 0.02 0.02 0.04 0.32 0.46 0.68 0.88 1.06 1.26 0.08 0.1 0.18 0.18 0.26 0.26 0.42 0.4 0.86 0.78 1.34 1.1v0.02c0.48 0.3 0.98 0.56 1.5 0.8 0.12 0.06 0.22 0.1 0.34 0.16 0.52 0.2 1.06 0.36 1.6 0.48 0.12 0.04 0.24 0.06 0.36 0.08 0.58 0.1 1.18 0.18 1.78 0.18h0.02c0.6 0 1.2-0.08 1.78-0.18l0.54-0.12c0.4-0.1 0.82-0.24 1.22-0.38 0.18-0.08 0.34-0.14 0.52-0.22 0.44-0.18 0.86-0.42 1.28-0.68 0.08-0.06 0.18-0.1 0.28-0.16 0-0.02 0.02-0.02 0.02-0.02l83.94-57.64 83.88 57.64c0.02 0 0.02 0 0.04 0.02 0.08 0.06 0.18 0.1 0.26 0.14 0.42 0.28 0.86 0.52 1.3 0.72 0.16 0.06 0.34 0.12 0.52 0.2 0.4 0.14 0.8 0.28 1.22 0.38l0.52 0.12c0.6 0.1 1.2 0.18 1.8 0.18h0.02c0.6 0 1.18-0.08 1.78-0.18 0.12-0.02 0.24-0.04 0.36-0.08 0.54-0.12 1.06-0.28 1.58-0.48 0.12-0.06 0.24-0.1 0.36-0.16 0.5-0.24 1-0.48 1.48-0.8l0.02-0.02c0.48-0.32 0.9-0.7 1.32-1.1a1.6 1.6 0 0 0 0.26-0.26c0.38-0.38 0.74-0.8 1.06-1.26 0.02-0.02 0.02-0.02 0.02-0.04 0.74-1.08 1.28-2.3 1.54-3.62 0.14-0.64 0.2-1.3 0.2-1.96v-246.4h188.04V922.8z m5.86-595.18h-179.76L728.92 101.2h179.74L682.24 327.62zM922.8 682.24L696.38 908.66V341.78L922.8 115.34v566.9z" fill="#23130D" p-id="46934"></path><path d="M468.34 695.46V922.8H309.2V695.48l73.9 50.76c0.4 0.28 0.8 0.5 1.22 0.72 0.14 0.06 0.28 0.1 0.4 0.16 0.28 0.14 0.58 0.24 0.86 0.34 0.18 0.06 0.36 0.12 0.52 0.16 0.28 0.08 0.56 0.14 0.84 0.2 0.16 0.02 0.32 0.06 0.5 0.08 0.4 0.06 0.82 0.08 1.24 0.1h0.16c0.42-0.02 0.84-0.04 1.24-0.1 0.16-0.02 0.34-0.06 0.5-0.08 0.28-0.06 0.56-0.12 0.84-0.2 0.16-0.04 0.34-0.1 0.5-0.16 0.3-0.1 0.58-0.2 0.88-0.34 0.12-0.06 0.26-0.1 0.38-0.16 0.42-0.22 0.84-0.46 1.24-0.72l73.92-50.78zM700.64 101.2L474.2 327.62h-150.86L549.78 101.2zM468.34 347.62v227.34l-73.88-50.76c-0.04-0.02-0.1-0.04-0.14-0.08-0.32-0.22-0.68-0.38-1.04-0.56-0.24-0.12-0.48-0.28-0.72-0.38-0.3-0.12-0.64-0.2-0.96-0.28-0.3-0.1-0.6-0.2-0.9-0.26-0.32-0.06-0.62-0.08-0.94-0.1-0.32-0.04-0.64-0.1-0.96-0.1-0.34 0-0.68 0.06-1.02 0.1-0.3 0.02-0.6 0.04-0.88 0.08-0.32 0.06-0.62 0.18-0.92 0.28-0.32 0.08-0.64 0.16-0.96 0.28-0.24 0.1-0.46 0.24-0.7 0.36-0.36 0.18-0.72 0.36-1.06 0.6-0.04 0.02-0.1 0.04-0.14 0.06l-73.92 50.78V347.62h159.14z" fill="#E1E1E5" p-id="46935"></path><path d="M468.34 546.98v27.98l-73.88-50.76c-0.04-0.02-0.1-0.04-0.14-0.08-0.32-0.22-0.68-0.38-1.04-0.56-0.24-0.12-0.48-0.28-0.72-0.38-0.3-0.12-0.64-0.2-0.96-0.28-0.3-0.1-0.6-0.2-0.9-0.26-0.32-0.06-0.62-0.08-0.94-0.1-0.32-0.04-0.64-0.1-0.96-0.1-0.34 0-0.68 0.06-1.02 0.1-0.3 0.02-0.6 0.04-0.88 0.08-0.32 0.06-0.62 0.18-0.92 0.28-0.32 0.08-0.64 0.16-0.96 0.28-0.24 0.1-0.46 0.24-0.7 0.36-0.36 0.18-0.72 0.36-1.06 0.6-0.04 0.02-0.1 0.04-0.14 0.06l-73.92 50.78V547l73.92-50.78c0.04-0.02 0.1-0.04 0.14-0.06 0.34-0.24 0.7-0.42 1.06-0.6 0.24-0.12 0.46-0.26 0.7-0.36 0.32-0.12 0.64-0.2 0.96-0.28 0.3-0.1 0.6-0.22 0.92-0.28 0.28-0.04 0.58-0.06 0.88-0.08 0.34-0.04 0.68-0.1 1.02-0.1 0.32 0 0.64 0.06 0.96 0.1 0.32 0.02 0.62 0.04 0.94 0.1 0.3 0.06 0.6 0.16 0.9 0.26 0.32 0.08 0.66 0.16 0.96 0.28 0.24 0.1 0.48 0.26 0.72 0.38 0.36 0.18 0.72 0.34 1.04 0.56 0.04 0.04 0.1 0.06 0.14 0.08l73.88 50.76zM309.2 723.46v-27.98l73.88 50.76c0.04 0.02 0.1 0.04 0.14 0.08 0.32 0.22 0.68 0.38 1.04 0.56 0.24 0.12 0.48 0.28 0.72 0.38 0.3 0.12 0.64 0.2 0.96 0.28 0.3 0.1 0.6 0.2 0.9 0.26 0.32 0.06 0.62 0.08 0.94 0.1 0.32 0.04 0.64 0.1 0.96 0.1 0.34 0 0.68-0.06 1.02-0.1 0.3-0.02 0.6-0.04 0.88-0.08 0.32-0.06 0.62-0.18 0.92-0.28 0.32-0.08 0.64-0.16 0.96-0.28 0.24-0.1 0.46-0.24 0.7-0.36 0.36-0.18 0.72-0.36 1.06-0.6 0.04-0.02 0.1-0.04 0.14-0.06l73.92-50.78v27.98l-73.92 50.78c-0.04 0.02-0.1 0.04-0.14 0.06-0.34 0.24-0.7 0.42-1.06 0.6-0.24 0.12-0.46 0.26-0.7 0.36-0.32 0.12-0.64 0.2-0.96 0.28-0.3 0.1-0.6 0.22-0.92 0.28-0.28 0.04-0.58 0.06-0.88 0.08-0.34 0.04-0.68 0.1-1.02 0.1-0.32 0-0.64-0.06-0.96-0.1-0.32-0.02-0.62-0.04-0.94-0.1-0.3-0.06-0.6-0.16-0.9-0.26-0.32-0.08-0.66-0.16-0.96-0.28-0.24-0.1-0.48-0.26-0.72-0.38-0.36-0.18-0.72-0.34-1.04-0.56-0.04-0.04-0.1-0.06-0.14-0.08l-73.88-50.76z" opacity=".2" p-id="46936"></path><path d="M922.8 115.34v566.9l-36.94 36.94-15.16 15.16-15.5 15.5-15.16 15.16-46.18 46.18-15.16 15.16-15.5 15.5-14.02 14.02-52.8 52.8V341.78l52.8-52.8 14.02-14.02 15.5-15.5 15.16-15.16 15.5-15.5 15.16-15.18 15.52-15.52 15.16-15.16 15.5-15.5 15.16-15.16z" fill="#CC7B5A" p-id="46937"></path><path d="M908.66 101.2L682.24 327.62h-179.76L728.92 101.2zM521.5 101.2L295.06 327.62H115.34L341.78 101.2z" fill="#F8D3C9" p-id="46938"></path><path d="M676.38 347.62V922.8h-188.04V676.44c0-1.32-0.26-2.62-0.78-3.86-0.26-0.62-0.58-1.2-0.96-1.74 0-0.02 0-0.02-0.02-0.04-0.1-0.16-0.26-0.28-0.38-0.44-0.26-0.36-0.54-0.7-0.86-1.02-0.22-0.24-0.5-0.42-0.74-0.62-0.26-0.2-0.5-0.42-0.76-0.6-0.28-0.18-0.58-0.32-0.88-0.48-0.28-0.14-0.54-0.3-0.84-0.42-0.32-0.14-0.66-0.22-1-0.32-0.28-0.08-0.56-0.18-0.86-0.24-0.48-0.1-0.98-0.12-1.46-0.14-0.16-0.02-0.3-0.06-0.46-0.06h-0.02c-1.3 0.02-2.62 0.26-3.86 0.8-0.04 0.02-0.1 0.04-0.14 0.06-0.56 0.26-1.1 0.54-1.6 0.88-0.02 0.02-0.02 0.02-0.04 0.02l-13.86 9.52-15.16 10.42-15.5 10.64-15.16 10.42-15.52 10.66-8.72 5.98-6.44-4.42-15.5-10.66-15.16-10.42-15.5-10.64-15.16-10.42-15.52-10.66-0.6-0.42c-0.02 0-0.04 0-0.04-0.02-0.54-0.36-1.12-0.68-1.74-0.94-1.24-0.54-2.56-0.78-3.86-0.8h-0.04c-0.12 0-0.26 0.04-0.4 0.04a9.8 9.8 0 0 0-1.52 0.16c-0.28 0.06-0.54 0.16-0.82 0.24-0.36 0.1-0.7 0.18-1.02 0.32-0.3 0.12-0.56 0.28-0.84 0.42-0.3 0.16-0.6 0.3-0.88 0.48s-0.52 0.4-0.76 0.6c-0.26 0.2-0.52 0.38-0.76 0.62-0.32 0.32-0.6 0.7-0.9 1.06-0.1 0.14-0.24 0.26-0.34 0.4 0 0.02 0 0.02-0.02 0.04-0.22 0.34-0.44 0.7-0.62 1.08-0.42 0.78-0.72 1.64-0.9 2.54-0.14 0.64-0.2 1.3-0.2 1.96 0 0.02-0.02 0.04-0.02 0.04V922.8h-188V347.62h188v246.36l0.02 0.02c0 1.3 0.24 2.62 0.78 3.86 0.1 0.22 0.2 0.44 0.32 0.66 0.18 0.38 0.4 0.74 0.62 1.08 0.02 0.02 0.02 0.02 0.02 0.04 0.32 0.46 0.68 0.88 1.06 1.26 0.08 0.1 0.18 0.18 0.26 0.26 0.42 0.4 0.86 0.78 1.34 1.1v0.02c0.48 0.3 0.98 0.56 1.5 0.8 0.12 0.06 0.22 0.1 0.34 0.16 0.52 0.2 1.06 0.36 1.6 0.48 0.12 0.04 0.24 0.06 0.36 0.08 0.58 0.1 1.18 0.18 1.78 0.18h0.02c0.6 0 1.2-0.08 1.78-0.18l0.54-0.12c0.4-0.1 0.82-0.24 1.22-0.38 0.18-0.08 0.34-0.14 0.52-0.22 0.44-0.18 0.86-0.42 1.28-0.68 0.08-0.06 0.18-0.1 0.28-0.16 0-0.02 0.02-0.02 0.02-0.02l0.62-0.42 15.52-10.66 15.16-10.42 15.5-10.64 15.16-10.4 15.5-10.66 6.48-4.44 8.68 5.96 15.52 10.66 15.16 10.42 15.5 10.66 15.16 10.42 13.86 9.52c0.02 0 0.02 0 0.04 0.02 0.08 0.06 0.18 0.1 0.26 0.14 0.42 0.28 0.86 0.52 1.3 0.72 0.02 0 0.02 0 0.04 0.02 0.14 0.04 0.32 0.1 0.48 0.18 0.4 0.14 0.8 0.28 1.22 0.38l0.52 0.12c0.6 0.1 1.2 0.18 1.8 0.18h0.02c0.6 0 1.18-0.08 1.78-0.18 0.12-0.02 0.24-0.04 0.36-0.08 0.54-0.12 1.06-0.28 1.58-0.48 0.12-0.06 0.24-0.1 0.36-0.16 0.5-0.24 1-0.48 1.48-0.8l0.02-0.02c0.48-0.32 0.9-0.7 1.32-1.1a1.6 1.6 0 0 0 0.26-0.26c0.38-0.38 0.74-0.8 1.06-1.26 0.02-0.02 0.02-0.02 0.02-0.04 0.74-1.08 1.28-2.3 1.54-3.62 0.14-0.64 0.2-1.3 0.2-1.96v-246.4h188.04z" fill="#E59D89" p-id="46939"></path><path d="M912.8 139.482v538.616l-34.012 34.012-15.16 15.16-15.5 15.5-15.16 15.16-46.18 46.18-15.16 15.16-15.5 15.5-14.02 14.02-35.728 35.728V345.922l49.872-49.872 14.02-14.02 15.5-15.5 15.16-15.16 15.504-15.504 15.156-15.176 15.52-15.52 15.16-15.16 15.5-15.5 15.16-15.16 19.868-19.868m10-24.142l-36.94 36.94-15.16 15.16-15.5 15.5-15.16 15.16-15.52 15.52-15.16 15.18-15.5 15.5-15.16 15.16-15.5 15.5-14.02 14.02-52.8 52.8v566.88l52.8-52.8 14.02-14.02 15.5-15.5 15.16-15.16 46.18-46.18 15.16-15.16 15.5-15.5 15.16-15.16 36.94-36.94V115.34zM884.518 111.2l-206.42 206.42h-151.474L733.062 111.2h151.456m24.142-10h-179.74L502.48 327.62h179.76L908.66 101.2zM497.356 111.2L290.918 317.62H139.484L345.922 111.2h151.434m24.144-10h-179.72L115.34 327.62h179.72L521.5 101.2zM666.38 357.62V912.8h-168.04V676.44a19.884 19.884 0 0 0-1.752-8.176l-0.008-1.622-2.592-2.58a2.46 2.46 0 0 0-0.066-0.074 18.236 18.236 0 0 0-1.4-1.61 13.62 13.62 0 0 0-1.578-1.394l-0.042-0.036-0.156-0.12-0.084-0.068a16.72 16.72 0 0 0-1.128-0.864l-0.138-0.096-0.142-0.092a16.892 16.892 0 0 0-1.462-0.83l-0.122-0.064-0.134-0.074-0.118-0.058c-0.28-0.15-0.784-0.422-1.436-0.692a15.34 15.34 0 0 0-1.92-0.654l-0.116-0.032-0.1-0.03-0.036-0.01a14.828 14.828 0 0 0-1.506-0.396 16.718 16.718 0 0 0-2.514-0.316 11.324 11.324 0 0 0-1.466-0.096h-0.078l-0.078 0.002a19.996 19.996 0 0 0-7.626 1.598l-0.308 0.124-0.072 0.036h-0.584l-2.558 1.758-13.862 9.522-15.158 10.42-15.504 10.644-15.158 10.418-15.514 10.656-3.062 2.1-0.776-0.532-15.502-10.662-15.164-10.424-15.496-10.636-15.162-10.422-11.822-8.12v-0.09l-4.116-2.746-0.108-0.076-2.582-1.808h-0.646a19.964 19.964 0 0 0-7.994-1.758l-0.118-0.002h-0.076c-0.458 0-0.86 0.03-1.186 0.066-0.988 0.054-1.852 0.16-2.694 0.328l-0.066 0.012-0.064 0.014a15.284 15.284 0 0 0-1.502 0.41l-0.032 0.008a15.32 15.32 0 0 0-3.526 1.396l-0.122 0.062-0.114 0.06-0.122 0.064c-0.32 0.164-0.854 0.438-1.458 0.828-0.69 0.444-1.224 0.88-1.606 1.204a14.848 14.848 0 0 0-1.58 1.358 18.19 18.19 0 0 0-1.364 1.548l-0.142 0.176-0.166 0.19-0.336 0.336-0.368 0.57-1.79 2.504v0.708a19.178 19.178 0 0 0-1.178 3.436l-0.582 0.582V912.8h-168V357.62h168v236.36l0.02 4.162 0.55 0.552c0.262 1.082 0.616 2.136 1.06 3.16l0.034 0.076 0.034 0.074 0.062 0.134v0.64l1.78 2.558 0.38 0.588 0.19 0.19c0.102 0.13 0.204 0.26 0.31 0.39v1.322l4.702 2.938c0.774 0.484 1.594 0.926 2.504 1.35l0.264 0.124 0.332 0.166 0.452 0.174c0.866 0.332 1.768 0.612 2.688 0.832a20.416 20.416 0 0 0 4.662 0.576c1.428 0 2.67-0.186 3.48-0.326l0.236-0.04 0.234-0.052 0.204-0.046 0.332-0.074 0.134-0.03 0.132-0.034c0.808-0.202 1.544-0.448 2.094-0.642l0.39-0.136 0.376-0.168 0.378-0.158 0.136-0.058h0.586l2.208-1.496 4.704-2.822v-0.4l11.824-8.122 15.156-10.416 15.498-10.638 15.17-10.406 15.486-10.65 0.822-0.562 3.024 2.076 15.518 10.658 15.158 10.418 15.502 10.662 15.162 10.422 13.86 9.52 1.582 1.086 0.468 0.47 0.372 0.106 0.138 0.094h0.192l1.1 0.314 1.244 0.566h0.464c0.338 0.104 0.712 0.21 1.122 0.308l0.076 0.018 0.078 0.018 0.134 0.032 0.382 0.088 0.26 0.058 0.264 0.044a20.62 20.62 0 0 0 3.464 0.316c1.346 0 2.486-0.16 3.424-0.316 0.328-0.054 0.738-0.13 1.214-0.258 0.9-0.216 1.778-0.488 2.67-0.832l0.452-0.174 0.208-0.104a12.7 12.7 0 0 0 0.478-0.22c0.65-0.312 1.616-0.78 2.66-1.476l0.854-0.576 0.164-0.164c0.564-0.44 1.048-0.872 1.472-1.27 0.324-0.286 0.628-0.588 0.918-0.908 0.46-0.48 0.894-0.98 1.298-1.496l2.428-2.444v-1.598a19.444 19.444 0 0 0 1.332-4.13c0.272-1.276 0.408-2.62 0.408-4.034V357.62h168.03m10-10h-188.04v246.4c0 0.66-0.06 1.32-0.2 1.96-0.26 1.32-0.8 2.54-1.54 3.62 0 0.02 0 0.02-0.02 0.04-0.32 0.46-0.68 0.88-1.06 1.26a1.6 1.6 0 0 1-0.26 0.26c-0.42 0.4-0.84 0.78-1.32 1.1l-0.02 0.02c-0.48 0.32-0.98 0.56-1.48 0.8-0.12 0.06-0.24 0.1-0.36 0.16-0.52 0.2-1.04 0.36-1.58 0.48-0.12 0.04-0.24 0.06-0.36 0.08-0.6 0.1-1.18 0.18-1.78 0.18h-0.02c-0.6 0-1.2-0.08-1.8-0.18l-0.52-0.12c-0.42-0.1-0.82-0.24-1.22-0.38-0.16-0.08-0.34-0.14-0.48-0.18-0.02-0.02-0.02-0.02-0.04-0.02-0.44-0.2-0.88-0.44-1.3-0.72-0.08-0.04-0.18-0.08-0.26-0.14-0.02-0.02-0.02-0.02-0.04-0.02l-13.86-9.52-15.16-10.42-15.5-10.66-15.16-10.42-15.52-10.66-8.68-5.96-6.48 4.44-15.5 10.66-15.16 10.4-15.5 10.64-15.16 10.42-15.52 10.66-0.62 0.42s-0.02 0-0.02 0.02c-0.1 0.06-0.2 0.1-0.28 0.16-0.42 0.26-0.84 0.5-1.28 0.68-0.18 0.08-0.34 0.14-0.52 0.22-0.4 0.14-0.82 0.28-1.22 0.38l-0.54 0.12c-0.58 0.1-1.18 0.18-1.78 0.18h-0.02c-0.6 0-1.2-0.08-1.78-0.18-0.12-0.02-0.24-0.04-0.36-0.08-0.54-0.12-1.08-0.28-1.6-0.48-0.12-0.06-0.22-0.1-0.34-0.16-0.52-0.24-1.02-0.5-1.5-0.8v-0.02c-0.48-0.32-0.92-0.7-1.34-1.1-0.08-0.08-0.18-0.16-0.26-0.26-0.38-0.38-0.74-0.8-1.06-1.26 0-0.02 0-0.02-0.02-0.04-0.22-0.34-0.44-0.7-0.62-1.08-0.12-0.22-0.22-0.44-0.32-0.66-0.54-1.24-0.78-2.56-0.78-3.86l-0.02-0.02V347.62h-188V922.8h188V676.46s0.02-0.02 0.02-0.04c0-0.66 0.06-1.32 0.2-1.96 0.18-0.9 0.48-1.76 0.9-2.54 0.18-0.38 0.4-0.74 0.62-1.08 0.02-0.02 0.02-0.02 0.02-0.04 0.1-0.14 0.24-0.26 0.34-0.4 0.3-0.36 0.58-0.74 0.9-1.06 0.24-0.24 0.5-0.42 0.76-0.62 0.24-0.2 0.48-0.42 0.76-0.6s0.58-0.32 0.88-0.48c0.28-0.14 0.54-0.3 0.84-0.42 0.32-0.14 0.66-0.22 1.02-0.32 0.28-0.08 0.54-0.18 0.82-0.24 0.5-0.1 1.02-0.14 1.52-0.16 0.14 0 0.28-0.04 0.4-0.04h0.04c1.3 0.02 2.62 0.26 3.86 0.8 0.62 0.26 1.2 0.58 1.74 0.94 0 0.02 0.02 0.02 0.04 0.02l0.6 0.42 15.52 10.66 15.16 10.42 15.5 10.64 15.16 10.42 15.5 10.66 6.44 4.42 8.72-5.98 15.52-10.66 15.16-10.42 15.5-10.64 15.16-10.42 13.86-9.52c0.02 0 0.02 0 0.04-0.02 0.5-0.34 1.04-0.62 1.6-0.88 0.04-0.02 0.1-0.04 0.14-0.06 1.24-0.54 2.56-0.78 3.86-0.8h0.02c0.16 0 0.3 0.04 0.46 0.06 0.48 0.02 0.98 0.04 1.46 0.14 0.3 0.06 0.58 0.16 0.86 0.24 0.34 0.1 0.68 0.18 1 0.32 0.3 0.12 0.56 0.28 0.84 0.42 0.3 0.16 0.6 0.3 0.88 0.48 0.26 0.18 0.5 0.4 0.76 0.6 0.24 0.2 0.52 0.38 0.74 0.62 0.32 0.32 0.6 0.66 0.86 1.02 0.12 0.16 0.28 0.28 0.38 0.44 0.02 0.02 0.02 0.02 0.02 0.04 0.38 0.54 0.7 1.12 0.96 1.74 0.52 1.24 0.78 2.54 0.78 3.86V922.8h188.04V347.62z" opacity=".2" p-id="46940"></path><path d="M101.2 347.62h6.28V922.8H101.2zM122.64 347.62h15.5V922.8h-15.5zM153.3 347.62h15.5V922.8h-15.5zM183.96 347.62h15.52V922.8h-15.52zM214.64 347.62h15.5V922.8h-15.5zM245.3 347.62h15.5V922.8h-15.5z" opacity=".1" p-id="46941"></path><path d="M290.32 598.52v73.4c-0.42 0.78-0.72 1.64-0.9 2.54-0.14 0.64-0.2 1.3-0.2 1.96 0 0.02-0.02 0.04-0.02 0.04V922.8h-14.38V347.62h14.38v246.36l0.02 0.02c0 1.3 0.24 2.62 0.78 3.86 0.1 0.22 0.2 0.44 0.32 0.66zM321 591.14v88.16l-15.52-10.66V601.8zM351.66 570.08v130.28l-15.5-10.64v-109zM382.32 549.02v172.42l-15.5-10.66v-151.1zM413 561.2v148.02l-15.52 10.66v-169.34zM443.66 582.28v105.88l-15.5 10.64v-127.18zM474.32 603.12v64.2c-0.56 0.26-1.1 0.54-1.6 0.88-0.02 0.02-0.02 0.02-0.04 0.02l-13.86 9.52v-85.04l13.86 9.52c0.02 0 0.02 0 0.04 0.02 0.08 0.06 0.18 0.1 0.26 0.14 0.42 0.28 0.86 0.52 1.3 0.72 0.02 0 0.02 0 0.04 0.02zM489.48 347.62h15.52V922.8h-15.52z" opacity=".1" p-id="46942"></path><path d="M519 347.62h15.52V922.8h-15.52zM549.68 347.62h15.5V922.8h-15.5zM580.34 347.62h15.5V922.8h-15.5zM611 347.62h15.52V922.8h-15.52zM641.68 347.62h15.5V922.8h-15.5zM672.34 347.62h4.04V922.8h-4.04zM718.52 319.64v566.88l-15.52 15.52V335.16zM749.18 288.98v566.88l-15.5 15.5V304.48z" opacity=".1" p-id="46943"></path><path d="M778.7 259.46v566.88l-15.5 15.5V274.96zM809.36 228.8v566.88l-15.5 15.5V244.3zM840.04 198.1V765l-15.52 15.52V213.62zM870.7 167.44v566.9l-15.5 15.5V182.94zM901.36 136.78v566.9l-15.5 15.5V152.28zM922.8 115.34v566.9l-6.28 6.28V121.62z" opacity=".1" p-id="46944"></path><path d="M347.14 101.2L120.72 327.62h-5.38L341.78 101.2zM390.5 101.2L164.08 327.62H142.16L368.58 101.2zM433.88 101.2L207.44 327.62H185.52L411.94 101.2zM477.24 101.2L250.82 327.62h-21.94L455.32 101.2zM520.6 101.2L294.2 327.62h-21.94L498.68 101.2z" opacity=".1" p-id="46945"></path><path d="M735.84 101.2L509.42 327.62h-6.94L728.92 101.2zM779.2 101.2L552.78 327.62h-21.92L757.28 101.2zM822.56 101.2l-226.4 226.42h-21.94L800.64 101.2zM865.94 101.2L639.52 327.62H617.6L844 101.2z" opacity=".1" p-id="46946"></path><path d="M907.68 101.2L681.26 327.62h-21.92L885.76 101.2z" opacity=".1" p-id="46947"></path></svg>