<?xml version="1.0" standalone="no"?><!DOCTYPE svg PUBLIC "-//W3C//DTD SVG 1.1//EN" "http://www.w3.org/Graphics/SVG/1.1/DTD/svg11.dtd"><svg t="1625811956969" class="icon" viewBox="0 0 1024 1024" version="1.1" xmlns="http://www.w3.org/2000/svg" p-id="46110" xmlns:xlink="http://www.w3.org/1999/xlink" width="200" height="200"><defs><style type="text/css"></style></defs><path d="M969.28 334.86l-89.4-112.34 73.66-125.2a10 10 0 0 0-8.62-15.06H472.64c-0.06 0-0.14 0.02-0.22 0.02-0.42 0-0.86 0.06-1.28 0.12-0.24 0.04-0.48 0.06-0.7 0.12-0.38 0.08-0.76 0.22-1.12 0.34-0.24 0.1-0.5 0.16-0.74 0.28-0.34 0.14-0.66 0.34-0.98 0.52-0.24 0.14-0.46 0.26-0.68 0.42-0.3 0.2-0.56 0.44-0.84 0.68-0.22 0.2-0.44 0.38-0.64 0.6-0.22 0.22-0.42 0.48-0.6 0.72-0.22 0.28-0.44 0.56-0.64 0.86-0.04 0.08-0.12 0.16-0.16 0.24l-69.7 118.46-73.88-94.64c-0.08-0.1-0.18-0.18-0.26-0.28-0.1-0.1-0.16-0.22-0.24-0.32-0.14-0.16-0.32-0.26-0.46-0.4-0.26-0.26-0.5-0.48-0.78-0.7a5.4 5.4 0 0 0-0.78-0.54c-0.28-0.18-0.56-0.36-0.86-0.5-0.28-0.14-0.58-0.26-0.88-0.38-0.3-0.12-0.6-0.24-0.92-0.32-0.3-0.08-0.6-0.14-0.92-0.2-0.32-0.06-0.64-0.12-0.96-0.14-0.3-0.02-0.62-0.02-0.94-0.02-0.32 0-0.64 0.02-0.98 0.04-0.3 0.04-0.6 0.1-0.92 0.16-0.32 0.06-0.64 0.14-0.96 0.24-0.3 0.1-0.6 0.22-0.9 0.34-0.3 0.14-0.6 0.26-0.88 0.42-0.3 0.16-0.58 0.36-0.88 0.56-0.16 0.1-0.34 0.18-0.5 0.32-0.12 0.08-0.2 0.18-0.3 0.28-0.1 0.08-0.22 0.14-0.32 0.24L61.26 334.4a10.008 10.008 0 0 0-1.12 13.52l88.16 112.94-71.6 125.32c-1.78 3.1-1.76 6.9 0.02 9.98a10.02 10.02 0 0 0 8.66 4.98h64.94v329.7c0 5.54 4.46 10 10 10h470.84c0.66 0 1.32-0.06 1.98-0.2 0.06 0 0.12-0.04 0.18-0.04 0.58-0.14 1.14-0.3 1.7-0.54 0.02 0 0.04-0.02 0.04-0.02 1.16-0.48 2.24-1.18 3.16-2.12l236.62-236.62c0.46-0.46 0.88-0.98 1.26-1.52 0.16-0.24 0.26-0.5 0.4-0.74 0.18-0.32 0.38-0.64 0.52-0.98 0.12-0.34 0.2-0.66 0.3-1 0.1-0.3 0.2-0.58 0.26-0.88 0.14-0.64 0.2-1.3 0.2-1.96V438.92l90.76-90.76c3.6-3.6 3.92-9.32 0.74-13.3zM478.36 102.26h449.06l-65.36 111.12H413l65.36-111.12zM81.6 342.88L311.38 131.86l70.82 90.72L161.22 444.9 81.6 342.88z m303.92-95.26V450H184.36l201.16-202.38zM102.6 581.14L166.12 470h447.8l-63.5 111.14H102.6z m371.32 339.7h-156.82v-103.7l72.92 48.46c0.02 0 0.02 0 0.04 0.02l0.14 0.08 0.18 0.12c0.32 0.18 0.64 0.38 0.96 0.52 0.14 0.08 0.3 0.14 0.44 0.2 0.26 0.12 0.54 0.22 0.8 0.32 0.18 0.06 0.36 0.1 0.52 0.16 0.28 0.06 0.54 0.12 0.8 0.18 0.18 0.02 0.34 0.06 0.52 0.08 0.4 0.06 0.8 0.08 1.2 0.1h0.2c0.42-0.02 0.82-0.04 1.22-0.1 0.16-0.02 0.32-0.06 0.48-0.08l0.84-0.18c0.16-0.06 0.34-0.12 0.5-0.16 0.28-0.1 0.56-0.2 0.84-0.32 0.14-0.06 0.28-0.12 0.42-0.2 0.34-0.16 0.66-0.34 0.98-0.56 0.06-0.02 0.12-0.06 0.18-0.08l0.1-0.08c0.02-0.02 0.04-0.02 0.06-0.04l72.48-48.38v103.64z m147.22 0h-127.22v-122.28-0.06c0-0.12-0.04-0.22-0.04-0.34-0.02-0.54-0.06-1.08-0.16-1.62-0.06-0.3-0.18-0.6-0.26-0.9-0.1-0.32-0.18-0.64-0.3-0.96-0.2-0.48-0.46-0.92-0.72-1.36-0.08-0.12-0.12-0.26-0.2-0.38h-0.02c-0.36-0.56-0.78-1.06-1.24-1.52-0.22-0.22-0.48-0.4-0.72-0.58-0.26-0.22-0.5-0.46-0.8-0.66-0.26-0.16-0.54-0.3-0.82-0.44-0.3-0.16-0.58-0.34-0.9-0.48-0.28-0.12-0.58-0.18-0.86-0.26-0.34-0.1-0.64-0.24-1-0.3-0.64-0.12-1.28-0.2-1.94-0.2h-0.02c-0.18 0-0.36 0.04-0.54 0.06-0.46 0.02-0.94 0.04-1.4 0.14-0.36 0.06-0.7 0.2-1.06 0.3-0.26 0.1-0.54 0.16-0.82 0.26-0.52 0.22-1.02 0.5-1.5 0.8l-0.24 0.12-0.02 0.02-0.02 0.02-82.6 55.14-83.02-55.14c0-0.02-0.02-0.02-0.02-0.02l-0.04-0.04c-0.16-0.08-0.3-0.14-0.46-0.22-0.4-0.26-0.82-0.5-1.26-0.68-0.34-0.14-0.66-0.2-1-0.3-0.3-0.1-0.58-0.2-0.88-0.26-0.52-0.1-1.04-0.14-1.56-0.16-0.12 0-0.26-0.04-0.38-0.04h-0.02c-0.66 0-1.32 0.06-1.98 0.2-0.26 0.06-0.52 0.16-0.78 0.24-0.36 0.1-0.72 0.18-1.06 0.34-0.3 0.12-0.58 0.3-0.86 0.44-0.28 0.16-0.58 0.28-0.86 0.48-0.3 0.2-0.56 0.44-0.84 0.68-0.22 0.18-0.46 0.34-0.66 0.54-0.46 0.46-0.88 0.98-1.26 1.52 0 0.02 0 0.02-0.02 0.02-0.08 0.12-0.12 0.26-0.18 0.38-0.28 0.44-0.52 0.88-0.72 1.36-0.12 0.3-0.2 0.6-0.28 0.92-0.1 0.3-0.22 0.62-0.28 0.94-0.1 0.48-0.14 0.98-0.16 1.46 0 0.16-0.04 0.32-0.04 0.48v122.34H170.32V601.14h385.9c3.6 0 6.9-1.92 8.68-5.04l56.24-98.4v423.14zM627.02 450H405.52V233.38h438.1L627.02 450z m230.76 240.08L641.14 906.74V485.88l77.08 96.86c1.78 2.22 4.42 3.6 7.26 3.76h0.58c2.64 0 5.18-1.04 7.06-2.92l124.66-124.66v231.16z m-130.88-128.56l-81.16-101.96 221.18-221.2 81.16 101.98-221.18 221.18z" fill="#23130D" p-id="46111"></path><path d="M473.92 817.2v103.64h-156.82v-103.7l72.92 48.46c0.02 0 0.02 0 0.04 0.02l0.14 0.08 0.18 0.12c0.32 0.18 0.64 0.38 0.96 0.52 0.14 0.08 0.3 0.14 0.44 0.2 0.26 0.12 0.54 0.22 0.8 0.32 0.18 0.06 0.36 0.1 0.52 0.16 0.28 0.06 0.54 0.12 0.8 0.18 0.18 0.02 0.34 0.06 0.52 0.08 0.4 0.06 0.8 0.08 1.2 0.1h0.2c0.42-0.02 0.82-0.04 1.22-0.1 0.16-0.02 0.32-0.06 0.48-0.08l0.84-0.18c0.16-0.06 0.34-0.12 0.5-0.16 0.28-0.1 0.56-0.2 0.84-0.32 0.14-0.06 0.28-0.12 0.42-0.2 0.34-0.16 0.66-0.34 0.98-0.56 0.06-0.02 0.12-0.06 0.18-0.08l0.1-0.08c0.02-0.02 0.04-0.02 0.06-0.04l72.48-48.38z" fill="#F9C139" p-id="46112"></path><path d="M473.92 817.2v26l-72.48 48.38c-0.02 0.02-0.04 0.02-0.06 0.04l-0.1 0.08c-0.06 0.02-0.12 0.06-0.18 0.08-0.32 0.22-0.64 0.4-0.98 0.56-0.14 0.08-0.28 0.14-0.42 0.2-0.28 0.12-0.56 0.22-0.84 0.32-0.16 0.04-0.34 0.1-0.5 0.16l-0.84 0.18c-0.16 0.02-0.32 0.06-0.48 0.08-0.4 0.06-0.8 0.08-1.22 0.1h-0.2c-0.4-0.02-0.8-0.04-1.2-0.1-0.18-0.02-0.34-0.06-0.52-0.08-0.26-0.06-0.52-0.12-0.8-0.18-0.16-0.06-0.34-0.1-0.52-0.16-0.26-0.1-0.54-0.2-0.8-0.32-0.14-0.06-0.3-0.12-0.44-0.2-0.32-0.14-0.64-0.34-0.96-0.52l-0.18-0.12-0.14-0.08c-0.02-0.02-0.02-0.02-0.04-0.02l-72.92-48.46v-26l72.92 48.46c0.02 0 0.02 0 0.04 0.02l0.14 0.08 0.18 0.12c0.32 0.18 0.64 0.38 0.96 0.52 0.14 0.08 0.3 0.14 0.44 0.2 0.26 0.12 0.54 0.22 0.8 0.32 0.18 0.06 0.36 0.1 0.52 0.16 0.28 0.06 0.54 0.12 0.8 0.18 0.18 0.02 0.34 0.06 0.52 0.08 0.4 0.06 0.8 0.08 1.2 0.1h0.2c0.42-0.02 0.82-0.04 1.22-0.1 0.16-0.02 0.32-0.06 0.48-0.08l0.84-0.18c0.16-0.06 0.34-0.12 0.5-0.16 0.28-0.1 0.56-0.2 0.84-0.32 0.14-0.06 0.28-0.12 0.42-0.2 0.34-0.16 0.66-0.34 0.98-0.56 0.06-0.02 0.12-0.06 0.18-0.08l0.1-0.08c0.02-0.02 0.04-0.02 0.06-0.04l72.48-48.38z" opacity=".2" p-id="46113"></path><path d="M857.78 458.92v231.16l-94.58 94.58-14.02 14.04-108.04 108.04V485.88l0.54 0.68 15.5 19.48 15.16 19.04 15.5 19.48 15.16 19.06 15.22 19.12c0.1 0.12 0.2 0.24 0.3 0.34a10.05 10.05 0 0 0 6.96 3.42h0.58c2.64 0 5.18-1.04 7.06-2.92l0.56-0.56 15.5-15.5 14.02-14.02 46.16-46.16 15.16-15.16 15.52-15.52 15.16-15.16 2.58-2.58z" fill="#CC7B5A" p-id="46114"></path><path d="M948.08 340.34L726.9 561.52l-81.16-101.96 221.18-221.2z" fill="#F8D3C9" p-id="46115"></path><path d="M675.24 462.56L742 546.42l-15.1 15.1-81.16-101.96 221.18-221.2 14.4 18.1z" fill="#FFFFFF" opacity=".7" p-id="46116"></path><path d="M927.42 102.26l-65.36 111.12H413l65.36-111.12z" fill="#F8D3C9" p-id="46117"></path><path d="M870.88 198.38l-8.82 15H413l65.36-111.12h17.84l-56.54 96.12z" fill="#FFFFFF" opacity=".7" p-id="46118"></path><path d="M843.62 233.38L627.02 450H405.52V233.38z" fill="#CC7B5A" p-id="46119"></path><path d="M382.2 222.58L161.22 444.9 81.6 342.88 311.38 131.86z" fill="#F8D3C9" p-id="46120"></path><path d="M382.2 222.58L161.22 444.9 81.6 342.88l13.98-12.84 68.96 88.36 207.54-208.8z" fill="#FFFFFF" opacity=".7" p-id="46121"></path><path d="M385.52 247.62V450H184.36z" fill="#CC7B5A" p-id="46122"></path><path d="M843.62 233.38L627.02 450H405.52v-31.34h221.5l185.26-185.28zM385.52 418.66V450H184.36l31.16-31.34z" opacity=".2" p-id="46123"></path><path d="M613.92 470l-63.5 111.14H102.6L166.12 470h447.8z" fill="#F8D3C9" p-id="46124"></path><path d="M613.92 470l-10.86 19H185.12l-52.66 92.14H102.6L166.12 470h447.8z" fill="#FFFFFF" opacity=".7" p-id="46125"></path><path d="M621.14 497.7v423.14h-127.22v-122.28-0.06c0-0.12-0.04-0.22-0.04-0.34-0.02-0.54-0.06-1.08-0.16-1.62-0.06-0.3-0.18-0.6-0.26-0.9-0.1-0.32-0.18-0.64-0.3-0.96-0.2-0.48-0.46-0.92-0.72-1.36-0.08-0.12-0.12-0.26-0.2-0.38h-0.02c-0.36-0.56-0.78-1.06-1.24-1.52-0.22-0.22-0.48-0.4-0.72-0.58-0.26-0.22-0.48-0.44-0.78-0.64 0-0.02-0.02-0.02-0.02-0.02-0.26-0.16-0.54-0.3-0.82-0.44-0.3-0.16-0.58-0.34-0.9-0.48-0.28-0.12-0.58-0.18-0.86-0.26-0.34-0.1-0.64-0.24-1-0.3-0.64-0.12-1.28-0.2-1.94-0.2h-0.02c-0.18 0-0.36 0.04-0.54 0.06-0.46 0.02-0.94 0.04-1.4 0.14-0.36 0.06-0.7 0.2-1.06 0.3-0.26 0.1-0.54 0.16-0.82 0.26-0.52 0.22-1.02 0.5-1.5 0.8l-0.24 0.12-0.02 0.02-0.02 0.02-4 2.68-15.5 10.34-15.16 10.12-15.5 10.34-15.16 10.12-15.52 10.36-1.76 1.18-13.4-8.9-15.5-10.3-15.16-10.06-15.5-10.3-15.16-10.06-8.3-5.52c0-0.02-0.02-0.02-0.02-0.02l-0.04-0.04c-0.16-0.08-0.3-0.14-0.46-0.22-0.4-0.26-0.82-0.5-1.26-0.68-0.34-0.14-0.66-0.2-1-0.3-0.3-0.1-0.58-0.2-0.88-0.26-0.52-0.1-1.04-0.14-1.56-0.16-0.12 0-0.26-0.04-0.38-0.04h-0.02c-0.54 0-1.06 0.04-1.6 0.14-0.12 0-0.26 0.04-0.38 0.06-0.26 0.06-0.52 0.16-0.78 0.24-0.36 0.1-0.72 0.18-1.06 0.34-0.3 0.12-0.58 0.3-0.86 0.44-0.28 0.16-0.58 0.28-0.86 0.48-0.3 0.2-0.56 0.44-0.84 0.68-0.22 0.18-0.46 0.34-0.66 0.54-0.46 0.46-0.88 0.98-1.26 1.52 0 0.02 0 0.02-0.02 0.02-0.08 0.12-0.12 0.26-0.18 0.38-0.28 0.44-0.52 0.88-0.72 1.36-0.12 0.3-0.2 0.6-0.28 0.92-0.1 0.3-0.22 0.62-0.28 0.94-0.1 0.48-0.14 0.98-0.16 1.46 0 0.16-0.04 0.32-0.04 0.48v122.34H170.32V601.14h385.9c3.6 0 6.9-1.92 8.68-5.04l0.28-0.48 15.16-26.54 15.5-27.12 15.16-26.52 10.14-17.74z" fill="#E59D89" p-id="46126"></path><path d="M857.78 458.92v49.34l-124.66 124.66c-1.88 1.88-4.42 2.92-7.06 2.92h-0.58a10.052 10.052 0 0 1-7.26-3.76l-77.08-96.86v-49.34l77.08 96.86c1.78 2.22 4.42 3.6 7.26 3.76h0.58c2.64 0 5.18-1.04 7.06-2.92l124.66-124.66zM621.14 497.7v49.34l-56.24 98.4a9.974 9.974 0 0 1-8.68 5.04H170.32v-49.34h385.9c3.6 0 6.9-1.92 8.68-5.04l56.24-98.4z" opacity=".2" p-id="46127"></path><path d="M183.96 601.14h15.52v319.7h-15.52zM214.64 601.14h15.5v319.7h-15.5zM245.3 601.14h15.5v319.7h-15.5zM274.82 601.14h15.5v319.7h-15.5zM321 601.14v194.6l-8.3-5.52c0-0.02-0.02-0.02-0.02-0.02l-0.04-0.04c-0.16-0.08-0.3-0.14-0.46-0.22-0.4-0.26-0.82-0.5-1.26-0.68-0.34-0.14-0.66-0.2-1-0.3-0.3-0.1-0.58-0.2-0.88-0.26-0.52-0.1-1.04-0.14-1.56-0.16-0.12 0-0.26-0.04-0.38-0.04h-0.02c-0.54 0-1.06 0.04-1.6 0.14v-187.5h15.52zM351.66 601.14v214.96l-15.5-10.3V601.14zM382.32 601.14v235.32l-15.5-10.3V601.14zM413 601.14v232.68l-15.52 10.36V601.14zM443.66 601.14v212.22l-15.5 10.34V601.14zM474.32 601.14v191.76l-15.5 10.34V601.14zM505 601.14v319.7h-11.08v-122.28-0.06c0-0.12-0.04-0.22-0.04-0.34-0.02-0.54-0.06-1.08-0.16-1.62-0.06-0.3-0.18-0.6-0.26-0.9-0.1-0.32-0.18-0.64-0.3-0.96-0.2-0.48-0.46-0.92-0.72-1.36-0.08-0.12-0.12-0.26-0.2-0.38h-0.02c-0.36-0.56-0.78-1.06-1.24-1.52-0.22-0.22-0.48-0.4-0.72-0.58-0.26-0.22-0.48-0.44-0.78-0.64v-189.06h15.52z" opacity=".1" p-id="46128"></path><path d="M519 601.14h15.52v319.7h-15.52zM565.18 595.62v325.22h-15.5V601.14h6.54c3.6 0 6.9-1.92 8.68-5.04l0.28-0.48zM595.84 541.96v378.88h-15.5V569.08zM621.14 497.7v423.14h-10.14v-405.4zM657.18 506.04v384.66l-15.5 15.5V486.56zM687.84 544.56v315.48l-15.5 15.5V525.08zM718.52 583.08v246.28l-15.52 15.52V563.62l15.22 19.12c0.1 0.12 0.2 0.24 0.3 0.34zM749.18 567.52v231.18l-15.5 15.5V583.02z" opacity=".1" p-id="46129"></path><path d="M778.7 538v231.16l-15.5 15.5V553.5zM809.36 507.34v231.16l-15.5 15.5V522.84zM840.04 476.66v231.16l-15.52 15.52V492.18zM857.78 458.92v231.16l-2.58 2.58V461.5z" opacity=".1" p-id="46130"></path></svg>