<?xml version="1.0" standalone="no"?><!DOCTYPE svg PUBLIC "-//W3C//DTD SVG 1.1//EN" "http://www.w3.org/Graphics/SVG/1.1/DTD/svg11.dtd"><svg t="1625812174375" class="icon" viewBox="0 0 1024 1024" version="1.1" xmlns="http://www.w3.org/2000/svg" p-id="53382" xmlns:xlink="http://www.w3.org/1999/xlink" width="200" height="200"><defs><style type="text/css"></style></defs><path d="M963.44 646.48c-14.56-20.84-46.78-28.84-71.86-17.9l-172.5 71.16c-6.9-21.58-27.44-37.04-51.6-37.04h-152.2c-22.88 0-60.36-6.68-81.94-14.58l-0.88-0.36c-0.08-0.02-0.18-0.06-0.26-0.08-26.98-9.94-68.5-15.86-111.04-15.86h-67.04v-18.46c0-18.86-15.34-34.2-34.22-34.2h-36.4v-16.24c0-5.52-4.48-10-10-10H66.54c-5.52 0-10 4.48-10 10V956.4c0 5.52 4.48 10 10 10h106.96c5.52 0 10-4.48 10-10v-21.18h36.4c18.88 0 34.22-15.36 34.22-34.22v-23.52l284.1 65.92c5.94 1.3 12.54 1.92 19.42 1.92 22.06 0 47.14-6.34 63.6-16.92l326.32-214.2c11.98-7.74 20.38-19.82 23-33.2 2.42-12.24-0.12-24.52-7.12-34.52zM163.5 946.4H76.54V572.92h86.96V946.4z m70.62-45.4c0 7.84-6.38 14.22-14.22 14.22h-36.4V599.16h36.4c7.84 0 14.22 6.36 14.22 14.2V901z m716.82-223.84c-1.58 8.04-6.76 15.42-14.3 20.26l-326.3 214.2c-17 10.96-48.08 16.56-67.74 12.28l-288.48-66.94V651.82h67.04c40.24 0 79.12 5.44 104.02 14.58l0.86 0.34c0.1 0.04 0.18 0.08 0.26 0.1 23.78 8.74 63.7 15.86 88.98 15.86h152.2c18.26 0 33.22 13.82 34.08 31.6 0.02 0.46 0.04 0.94 0.04 1.42 0 2.08-0.22 4.16-0.64 6.3-3.12 15.48-17.2 26.72-33.48 26.72h-151.96c-4.36-0.18-45.02-1.04-78.84 28.18a9.984 9.984 0 0 0-1.02 14.1 9.924 9.924 0 0 0 7.56 3.46c2.32 0 4.64-0.8 6.54-2.42 28.72-24.82 64.64-23.36 64.96-23.34 0.2 0 0.38 0.02 0.56 0.02h152.2c25.76 0 48.1-17.98 53.1-42.82 0.36-1.82 0.62-3.66 0.78-5.48l177.94-73.42c0.06-0.02 0.14-0.04 0.2-0.08 16.54-7.26 38.32-2.22 47.56 11 3.86 5.52 5.24 12.34 3.88 19.22z" fill="#23130D" p-id="53383"></path><path d="M76.54 572.92h86.96V946.4H76.54z" fill="#EC7063" p-id="53384"></path><path d="M234.12 613.36V901c0 7.84-6.38 14.22-14.22 14.22h-36.4V599.16h36.4c7.84 0 14.22 6.36 14.22 14.2z" fill="#F8D3C9" p-id="53385"></path><path d="M183.5 599.16h20v316.06h-20z" opacity=".2" p-id="53386"></path><path d="M950.94 677.16c-1.58 8.04-6.76 15.42-14.3 20.26l-326.3 214.2c-17 10.96-48.08 16.56-67.74 12.28l-288.48-66.94V651.82h67.04c40.24 0 79.12 5.44 104.02 14.58l0.86 0.34c0.1 0.04 0.18 0.08 0.26 0.1 23.78 8.74 63.7 15.86 88.98 15.86h152.2c18.26 0 33.22 13.82 34.08 31.6 0.02 0.46 0.04 0.94 0.04 1.42 0 2.08-0.22 4.16-0.64 6.3-3.12 15.48-17.2 26.72-33.48 26.72h-151.96c-4.36-0.18-45.02-1.04-78.84 28.18a9.984 9.984 0 0 0-1.02 14.1 9.924 9.924 0 0 0 7.56 3.46c2.32 0 4.64-0.8 6.54-2.42 28.72-24.82 64.64-23.36 64.96-23.34 0.2 0 0.38 0.02 0.56 0.02h152.2c25.76 0 48.1-17.98 53.1-42.82 0.36-1.82 0.62-3.66 0.78-5.48l177.94-73.42c0.06-0.02 0.14-0.04 0.2-0.08 16.54-7.26 38.32-2.22 47.56 11 3.86 5.52 5.24 12.34 3.88 19.22z" fill="#CC7B5A" p-id="53387"></path><path d="M950.94 677.16c-1.58 8.04-6.76 15.42-14.3 20.26l-326.3 214.2c-17 10.96-48.08 16.56-67.74 12.28l-288.48-66.94v-24.82l288.48 66.94c19.66 4.28 50.74-1.32 67.74-12.28l326.3-214.2c5.08-3.26 9.1-7.68 11.66-12.68 2.9 5.12 3.84 11.16 2.64 17.24z" opacity=".2" p-id="53388"></path><path d="M701.6 715.65c0 2.08-0.22 4.16-0.64 6.3-0.42 2.12-1.06 4.16-1.88 6.1-5.08-12.16-17.34-20.6-31.6-20.6h-152.2c-25.28 0-65.2-7.12-88.98-15.86-0.08-0.02-0.16-0.06-0.26-0.1l-0.86-0.34c-24.9-9.14-63.78-14.58-104.02-14.58h-67.04v-24.82h67.04c40.24 0 79.12 5.44 104.02 14.58l0.86 0.34c0.1 0.04 0.18 0.08 0.26 0.1 23.78 8.74 63.7 15.86 88.98 15.86h152.2c18.26 0 33.22 13.82 34.08 31.6 0.02 0.46 0.04 0.94 0.04 1.42z" fill="#FFFFFF" opacity=".2" p-id="53389"></path><path d="M513.998 230.73a10 10 0 0 0 10-10V67.592a10 10 0 1 0-20 0v153.138a10 10 0 0 0 10 10zM455.244 246.916a10 10 0 0 0 10-10V120.734a10 10 0 0 0-20 0v116.182a10 10 0 0 0 10 10zM396.478 279.8a10 10 0 0 0 10-10V165.006a10 10 0 0 0-20 0V269.8a10 10 0 0 0 10 10zM631.514 279.8a10 10 0 0 0 10-10V165.006a10 10 0 1 0-20 0V269.8a10 10 0 0 0 10 10zM572.762 246.916a10 10 0 0 0 10-10V120.734a10 10 0 1 0-20 0v116.182a10 10 0 0 0 10 10zM570.44 463.14c0 25.38-20.66 46.04-46.04 46.04h-0.4v30.5c0 5.52-4.48 10-10 10s-10-4.48-10-10v-30.5h-36.44c-5.52 0-10-4.48-10-10s4.48-10 10-10h56.84c14.36 0 26.04-11.68 26.04-26.04s-11.68-26.06-26.04-26.06h-20.8c-25.38 0-46.04-20.64-46.04-46.04 0-25.38 20.66-46.04 46.04-46.04h0.4v-30.5c0-5.52 4.48-10 10-10s10 4.48 10 10v30.5h36.44c5.52 0 10 4.48 10 10s-4.48 10-10 10H503.6c-14.36 0-26.04 11.68-26.04 26.04s11.68 26.04 26.04 26.04h20.8c25.38 0 46.04 20.66 46.04 46.06z" fill="#23130D" p-id="53390"></path><path d="M514 263.98c-89.94 0-163.1 73.16-163.1 163.1 0 89.92 73.16 163.1 163.1 163.1s163.1-73.18 163.1-163.1c0-89.94-73.16-163.1-163.1-163.1z m0 306.2c-78.9 0-143.1-64.2-143.1-143.1 0-78.92 64.2-143.1 143.1-143.1s143.1 64.18 143.1 143.1c0 78.9-64.2 143.1-143.1 143.1z" fill="#23130D" p-id="53391"></path><path d="M524.4 437.08h-6.22l31.66 31.66c0.4-1.8 0.6-3.68 0.6-5.6 0-14.36-11.68-26.06-26.04-26.06z m-10.4-153.1c-13.14 0-25.86 1.78-37.96 5.12a142.04 142.04 0 0 0-44.18 20.88 141.808 141.808 0 0 0-21.86 18.92c-6.4 6.76-12.14 14.14-17.1 22.04-2.6 4.08-4.98 8.3-7.12 12.66a141.76 141.76 0 0 0-12.66 38.26c-1.46 8.18-2.22 16.62-2.22 25.22 0 78.9 64.2 143.1 143.1 143.1 8.6 0 17.02-0.76 25.22-2.22a141.626 141.626 0 0 0 38.24-12.66 138.06 138.06 0 0 0 12.68-7.12c7.9-4.98 15.28-10.7 22.04-17.1a142.9 142.9 0 0 0 18.92-21.86 142.488 142.488 0 0 0 20.88-44.18 142.424 142.424 0 0 0 5.12-37.96c0-78.92-64.2-143.1-143.1-143.1z m-23.54 84.6c-7.72 4.52-12.9 12.9-12.9 22.46 0 2.12 0.26 4.18 0.74 6.16 2.3 9.42 9.72 16.84 19.14 19.14 1.98 0.48 4.04 0.74 6.16 0.74h20.8c6.54 0 12.78 1.38 18.42 3.86 10.6 4.64 19.14 13.18 23.78 23.78 2.46 5.64 3.84 11.88 3.84 18.42 0 7.6-1.84 14.76-5.12 21.08a46.416 46.416 0 0 1-19.48 19.66 44.826 44.826 0 0 1-14.96 4.82c-2.12 0.32-4.28 0.48-6.48 0.48h-0.4v30.5c0 3.54-1.84 6.66-4.62 8.42-1.56 1-3.4 1.58-5.38 1.58-5.52 0-10-4.48-10-10v-30.5h-36.44c-5.52 0-10-4.48-10-10 0-3.5 1.8-6.58 4.52-8.36 1.58-1.04 3.46-1.64 5.48-1.64h56.84c2.08 0 4.08-0.24 6.02-0.72 9.68-2.28 17.28-9.98 19.42-19.72 0.4-1.8 0.6-3.68 0.6-5.6 0-14.36-11.68-26.06-26.04-26.06h-20.8c-25.38 0-46.04-20.64-46.04-46.04 0-4.42 0.62-8.7 1.82-12.76 2.8-9.74 8.76-18.16 16.68-24.1a45.76 45.76 0 0 1 27.54-9.18h0.4v-30.5c0-5.52 4.48-10 10-10s10 4.48 10 10v30.5h36.44c5.52 0 10 4.48 10 10s-4.48 10-10 10H503.6c-4.8 0-9.28 1.3-13.14 3.58z m33.94 68.5h-6.22l31.66 31.66c0.4-1.8 0.6-3.68 0.6-5.6 0-14.36-11.68-26.06-26.04-26.06z" fill="#F9C139" p-id="53392"></path><path d="M514 291.98c74.494 0 135.1 60.606 135.1 135.1s-60.606 135.1-135.1 135.1-135.1-60.606-135.1-135.1 60.606-135.1 135.1-135.1m-18 45.552c-26.212 3.706-46.44 26.288-46.44 53.508 0 29.798 24.242 54.04 54.04 54.04h20.8c9.948 0 18.04 8.102 18.04 18.06 0 9.948-8.092 18.04-18.04 18.04h-56.84c-9.926 0-18 8.074-18 18s8.074 18 18 18H496v22.5c0 9.926 8.074 18 18 18s18-8.074 18-18v-23.032c26.212-3.706 46.44-26.288 46.44-53.508 0-29.808-24.242-54.06-54.04-54.06h-20.8c-9.948 0-18.04-8.092-18.04-18.04 0-9.948 8.092-18.04 18.04-18.04h56.84c9.926 0 18-8.074 18-18s-8.074-18-18-18H532v-22.5c0-9.926-8.074-18-18-18s-18 8.074-18 18v23.032m18-53.552c-78.9 0-143.1 64.18-143.1 143.1 0 78.9 64.2 143.1 143.1 143.1s143.1-64.2 143.1-143.1c0-78.92-64.2-143.1-143.1-143.1z m-10.4 153.1c-25.38 0-46.04-20.64-46.04-46.04 0-25.38 20.66-46.04 46.04-46.04h0.4v-30.5c0-5.52 4.48-10 10-10s10 4.48 10 10v30.5h36.44c5.52 0 10 4.48 10 10s-4.48 10-10 10H503.6c-14.36 0-26.04 11.68-26.04 26.04s11.68 26.04 26.04 26.04h20.8c25.38 0 46.04 20.66 46.04 46.06 0 25.38-20.66 46.04-46.04 46.04h-0.4v30.5c0 5.52-4.48 10-10 10s-10-4.48-10-10v-30.5h-36.44c-5.52 0-10-4.48-10-10s4.48-10 10-10h56.84c14.36 0 26.04-11.68 26.04-26.04s-11.68-26.06-26.04-26.06h-20.8z" opacity=".2" p-id="53393"></path><path d="M76.54 932.8h86.96v13.6H76.54zM76.54 902.14h86.96v15.5H76.54zM76.54 871.48h86.96v15.5H76.54zM76.54 840.8h86.96v15.52H76.54zM76.54 810.14h86.96v15.5H76.54zM76.54 779.48h86.96v15.5H76.54zM76.54 748.8h86.96v15.52H76.54z" fill="#FFFFFF" opacity=".1" p-id="53394"></path><path d="M76.54 719.28h86.96v15.52H76.54zM76.54 688.62h86.96v15.5H76.54zM76.54 657.96h86.96v15.5H76.54zM76.54 627.28h86.96v15.52H76.54zM76.54 596.62h86.96v15.5H76.54zM76.54 572.92h86.96v8.54H76.54z" fill="#FFFFFF" opacity=".1" p-id="53395"></path><path d="M480.46 509.18H504v23.54zM385.78 363.6l125.56 125.58h-43.78c-2.02 0-3.9 0.6-5.48 1.64l-88.96-88.96a141.76 141.76 0 0 1 12.66-38.26zM577.46 555.3a141.626 141.626 0 0 1-38.24 12.66l-19.84-19.86a9.95 9.95 0 0 0 4.62-8.42v-30.5h0.4c2.2 0 4.36-0.16 6.48-0.48l46.58 46.6zM478.3 397.2l19.14 19.14a26.142 26.142 0 0 1-19.14-19.14z" fill="#FFFFFF" opacity=".3" p-id="53396"></path><path d="M549.84 468.74a26.062 26.062 0 0 1-19.42 19.72l-137.52-137.52c4.96-7.9 10.7-15.28 17.1-22.04l49.38 49.38c-1.2 4.06-1.82 8.34-1.82 12.76 0 25.4 20.66 46.04 46.04 46.04h14.58l31.66 31.66zM612.18 531.08c-6.76 6.4-14.14 12.12-22.04 17.1l-44.3-44.3c8.34-4.42 15.16-11.3 19.48-19.66l46.86 46.86zM503.6 345c-10.32 0-19.86 3.42-27.54 9.18l-44.2-44.2a142.04 142.04 0 0 1 44.18-20.88L504 317.06v27.94h-0.4zM531.94 345H524v-7.94zM651.98 465.04a142.488 142.488 0 0 1-20.88 44.18l-64.5-64.5c-4.64-10.6-13.18-19.14-23.78-23.78l-52.36-52.36a25.72 25.72 0 0 1 13.14-3.58h48.34l100.04 100.04z" fill="#FFFFFF" opacity=".3" p-id="53397"></path><path d="M631.514 437.08a10 10 0 0 1-10-10c0-60.75-49.424-110.174-110.174-110.174a10 10 0 0 1 0-20c71.778 0 130.174 58.396 130.174 130.174a10 10 0 0 1-10 10z" fill="#FFFFFF" opacity=".8" p-id="53398"></path></svg>