<?xml version="1.0" standalone="no"?><!DOCTYPE svg PUBLIC "-//W3C//DTD SVG 1.1//EN" "http://www.w3.org/Graphics/SVG/1.1/DTD/svg11.dtd"><svg t="1625811545090" class="icon" viewBox="0 0 1024 1024" version="1.1" xmlns="http://www.w3.org/2000/svg" p-id="34290" xmlns:xlink="http://www.w3.org/1999/xlink" width="200" height="200"><defs><style type="text/css"></style></defs><path d="M558.54 174.6c0 5.52-4.46 10-10 10h-25.46v25.46c0 5.52-4.48 10-10 10s-10-4.48-10-10V184.6h-25.46c-5.52 0-10-4.48-10-10s4.48-10 10-10h25.46V139.14c0-5.54 4.48-10 10-10s10 4.46 10 10V164.6h25.46c5.54 0 10 4.48 10 10zM558.54 902.02c0 5.52-4.46 10-10 10h-70.92c-5.52 0-10-4.48-10-10 0-5.54 4.48-10 10-10h70.92c5.54 0 10 4.46 10 10z" fill="#FFFFFF" p-id="34291"></path><path d="M813.04 345.98l-93.48-69.7a10.038 10.038 0 0 0-11.38-0.4l-30.82 19.78v-41.58h22.66c5.52 0 10-4.48 10-10V105.12c0-5.52-4.48-10-10-10h-107.9v-42.6c0-5.54-4.48-10-10-10h-138.06c-5.54 0-10 4.46-10 10v42.6h-107.92c-5.52 0-10 4.48-10 10v138.96c0 5.52 4.48 10 10 10h22.66v441.6l-138.24 114.72a10.002 10.002 0 0 0-1.92 13.28 10.036 10.036 0 0 0 8.3 4.42c1.62 0 3.24-0.4 4.74-1.2l127.12-68.32v63.96h-22.66c-5.52 0-10 4.48-10 10v138.96c0 5.52 4.48 10 10 10h373.88c5.52 0 10-4.48 10-10v-138.96c0-5.52-4.48-10-10-10h-22.66V582l28.28-15.2c2.72-1.46 4.6-4.08 5.12-7.12 0.52-3.04-0.38-6.14-2.46-8.42l-30.94-33.96v-85.28l134.28-69.14a9.986 9.986 0 0 0 5.38-8.06c0.28-3.44-1.22-6.78-3.98-8.84zM454.06 62.52h118.06v32.6h-118.06v-32.6z m-117.92 171.56V115.12h353.88v118.96h-22.56c-0.04-0.02-0.06-0.02-0.1-0.02H358.8c-0.04 0-0.08 0-0.1 0.02h-22.56z m92.72 237.06l100.36 74.82-160.42 133.12v-425h288.56v54.4l-227.92 146.22c-2.76 1.78-4.48 4.8-4.6 8.08s1.38 6.4 4.02 8.36z m261.16 371.4v118.96H336.14v-118.96H690.02z m-321.22-20v-74.7l288.56-155.08v229.78H368.8z m234.92-375.1a9.994 9.994 0 0 0-5.26 7.12c-0.54 3.06 0.36 6.2 2.46 8.5l59.36 65.18 0.02 0.02 24.58 27L300.2 761.98l251.58-208.74a10.02 10.02 0 0 0-0.42-15.72l-98.96-73.78 220.46-141.44c0.06-0.04 0.1-0.06 0.14-0.08l40.16-25.76 75.08 55.98-184.52 95z m53.64-5.12v53.02l-32.88-36.1 32.88-16.92z" fill="#23130D" p-id="34292"></path><path d="M657.36 442.32v53.02l-32.88-36.1z" fill="#E1E1E5" p-id="34293"></path><path d="M657.36 442.32v53.02l-32.88-36.1z" fill="#23130D" opacity=".2" p-id="34294"></path><path d="M657.36 592.76v229.78H368.8v-74.7l38.2-20.54 212.16-114.02z" fill="#E1E1E5" p-id="34295"></path><path d="M667.4 842.54H336.14v118.96h353.88v-118.96H667.4z m-118.86 69.48h-70.92c-5.52 0-10-4.48-10-10 0-5.54 4.48-10 10-10h70.92c5.54 0 10 4.46 10 10 0 5.52-4.46 10-10 10z" fill="#EC7063" p-id="34296"></path><path d="M454.06 62.52h118.06v32.6h-118.06z" fill="#636368" p-id="34297"></path><path d="M454.06 62.52h118.06v10.48h-118.06z" fill="#FFFFFF" opacity=".4" p-id="34298"></path><path d="M336.14 115.12v118.96h22.56c0.02-0.02 0.06-0.02 0.1-0.02h308.56c0.04 0 0.06 0 0.1 0.02h22.56V115.12H336.14z m212.4 69.48h-25.46v25.46c0 5.52-4.48 10-10 10s-10-4.48-10-10V184.6h-25.46c-5.52 0-10-4.48-10-10s4.48-10 10-10h25.46V139.14c0-5.54 4.48-10 10-10s10 4.46 10 10V164.6h25.46c5.54 0 10 4.48 10 10s-4.46 10-10 10z" fill="#72AF5F" p-id="34299"></path><path d="M657.36 254.08v54.4l-38.2 24.5-189.72 121.72c-2.76 1.78-4.48 4.8-4.6 8.08s1.38 6.4 4.02 8.36l100.36 74.82-122.22 101.42-38.2 31.7v-425h288.56z" fill="#E1E1E5" p-id="34300"></path><path d="M660.3 528.26l24.58 27L300.2 761.98l251.58-208.74a10.02 10.02 0 0 0-0.42-15.72l-98.96-73.78 220.46-141.44c0.06-0.04 0.1-0.06 0.14-0.08l40.16-25.76 75.08 55.98-184.52 95a9.994 9.994 0 0 0-5.26 7.12c-0.54 3.06 0.36 6.2 2.46 8.5l59.36 65.18 0.02 0.02z" fill="#F9C139" p-id="34301"></path><path d="M738.14 315.08l-11.14 7.14c-0.04 0.02-0.08 0.04-0.14 0.08L506.4 463.74l98.96 73.78a10.02 10.02 0 0 1 0.42 15.72l-152.32 126.38-153.26 82.36 251.58-208.74a10.02 10.02 0 0 0-0.42-15.72l-98.96-73.78 220.46-141.44c0.06-0.04 0.1-0.06 0.14-0.08l40.16-25.76 24.98 18.62z" fill="#23130D" opacity=".2" p-id="34302"></path><path d="M336.14 115.12h32.66v118.94h-32.66z" fill="#FFFFFF" opacity=".4" p-id="34303"></path><path d="M657.36 115.12h32.66v118.94h-32.66z" fill="#23130D" opacity=".2" p-id="34304"></path><path d="M336.14 842.55h32.66v118.94h-32.66z" fill="#FFFFFF" opacity=".4" p-id="34305"></path><path d="M657.36 842.55h32.66v118.94h-32.66z" fill="#23130D" opacity=".2" p-id="34306"></path><path d="M407 254.08v393.3l-38.2 31.7v-425zM368.8 747.84l38.2-20.54v95.24h-38.2z" fill="#FFFFFF" opacity=".6" p-id="34307"></path><path d="M657.36 254.08v54.4l-38.2 24.5v-78.9zM619.16 613.28l38.2-20.52v229.78h-38.2z" fill="#23130D" opacity=".2" p-id="34308"></path></svg>