<?xml version="1.0" standalone="no"?><!DOCTYPE svg PUBLIC "-//W3C//DTD SVG 1.1//EN" "http://www.w3.org/Graphics/SVG/1.1/DTD/svg11.dtd"><svg t="1625811548211" class="icon" viewBox="0 0 1024 1024" version="1.1" xmlns="http://www.w3.org/2000/svg" p-id="34451" xmlns:xlink="http://www.w3.org/1999/xlink" width="200" height="200"><defs><style type="text/css"></style></defs><path d="M568.88 28.08c-167.14 0-303.12 135.98-303.12 303.12 0 0.1 0 0.2 0.02 0.3 0.04 1.98 4.42 197.72-109.36 277.2-0.02 0.02-0.04 0.04-0.08 0.06-0.02 0-0.04 0.02-0.06 0.04-0.08 0.06-0.14 0.12-0.2 0.18-0.46 0.32-0.88 0.68-1.28 1.08-0.14 0.16-0.26 0.34-0.4 0.5-0.28 0.32-0.56 0.66-0.8 1.02-0.12 0.2-0.22 0.4-0.32 0.62-0.22 0.36-0.42 0.72-0.56 1.1-0.1 0.22-0.14 0.46-0.22 0.68-0.12 0.38-0.26 0.78-0.32 1.18-0.06 0.28-0.06 0.58-0.1 0.88-0.02 0.32-0.1 0.62-0.1 0.96 0 0.04 0.02 0.06 0.02 0.1 0 0.32 0.06 0.66 0.1 0.98 0.04 0.32 0.04 0.66 0.1 0.98 0.04 0.12 0.08 0.24 0.12 0.34 0.12 0.54 0.28 1.06 0.48 1.54 0.02 0.06 0.08 0.12 0.1 0.2 0.26 0.54 0.52 1.04 0.86 1.52 0.02 0.02 0.02 0.04 0.04 0.06 0.3 0.44 0.64 0.84 1.02 1.22a1.6 1.6 0 0 0 0.26 0.26c0.84 0.82 1.8 1.46 2.84 1.92 0.1 0.04 0.22 0.1 0.32 0.14 0.54 0.22 1.08 0.38 1.62 0.5l0.3 0.06c0.6 0.1 1.22 0.18 1.84 0.18h130.62v142.58c0 5.52 4.48 10 10 10h127.3v206.34c0 5.52 4.48 10 10 10h422.1c5.52 0 10-4.48 10-10V331.2c0-167.14-135.98-303.12-303.14-303.12z m283.14 947.84H449.92V769.58c0-5.52-4.48-10-10-10h-127.3V617c0-5.52-4.46-10-10-10H190.12c39.46-36.96 68.08-92.34 83.46-162.06 13.34-60.42 12.28-110.12 12.18-113.88 0.08-156.04 127.06-282.98 283.12-282.98 156.12 0 283.14 127.02 283.14 283.12v644.72z" fill="#23130D" p-id="34452"></path><path d="M568.88 48.08c-156.06 0-283.04 126.94-283.12 282.98 0.1 3.76 1.16 53.46-12.18 113.88-15.38 69.72-44 125.1-83.46 162.06h112.5c5.54 0 10 4.48 10 10v142.58h127.3c5.52 0 10 4.48 10 10v206.34h402.1V331.2c0-156.1-127.02-283.12-283.14-283.12z m152.52 325.82h-141.04l-10.62 22.16 58.6 10.88c3.02 0.56 5.62 2.48 7.04 5.22 1.42 2.72 1.5 5.96 0.22 8.76l-120.7 263.92a10.006 10.006 0 0 1-9.1 5.84c-1.08 0-2.16-0.18-3.22-0.54a10.004 10.004 0 0 1-6.52-11.74l48.38-207.14-60.12 0.48h-0.08c-3.24 0-6.3-1.58-8.18-4.24a9.99 9.99 0 0 1-1.2-9.2l30.96-84.4h-86.76c-0.32 0-0.62-0.06-0.94-0.1-0.3 0.04-0.6 0.1-0.92 0.1-42.4 0-76.88-34.5-76.88-76.88 0-36.14 25.08-66.52 58.74-74.7 0.16-10.08 2.3-20.12 6.38-29.46 14.48-33.24 49.74-51.44 84.54-44.88 8.56-16.54 22.62-29.24 40.08-36.12 19.12-7.5 40-7.12 58.84 1.08a76.216 76.216 0 0 1 28.82 21.9c1.66-0.9 3.36-1.78 5.08-2.56 38.6-17.48 84.24-0.3 101.74 38.32 7.16 15.8 8.68 33.38 4.62 49.94 38.76 3.92 69.1 36.72 69.1 76.48 0 42.38-34.48 76.86-76.86 76.88z" fill="#F8D3C9" p-id="34453"></path><path d="M336.88 607h-34.26c5.54 0 10 4.48 10 10v142.58h34.26V617c0-5.52-4.46-10-10-10z m137.32 152.58h-34.28c5.52 0 10 4.48 10 10v206.34h34.28V769.58c0-5.52-4.5-10-10-10zM586.02 48.6c-5.68-0.34-11.38-0.52-17.14-0.52-156.06 0-283.04 126.94-283.12 282.98 0.1 3.76 1.16 53.46-12.18 113.88-15.38 69.72-44 125.1-83.46 162.06h34.26c39.46-36.96 68.08-92.34 83.46-162.06 13.36-60.42 12.28-110.12 12.18-113.88 0.08-150.3 117.88-273.58 266-282.46z" fill="#FFFFFF" opacity=".4" p-id="34454"></path><path d="M568.88 48.08c-5.74 0-11.46 0.18-17.12 0.52 148.18 8.88 266 132.26 266 282.6v644.72h34.26V331.2c0-156.1-127.02-283.12-283.14-283.12z" fill="#23130D" opacity=".2" p-id="34455"></path><path d="M729.16 220.54a76.686 76.686 0 0 0-4.62-49.94c-17.5-38.62-63.14-55.8-101.74-38.32-1.72 0.78-3.42 1.66-5.08 2.56a76.216 76.216 0 0 0-28.82-21.9c-18.84-8.2-39.72-8.58-58.84-1.08-17.46 6.88-31.52 19.58-40.08 36.12-34.8-6.56-70.06 11.64-84.54 44.88a76.694 76.694 0 0 0-6.38 29.46c-33.66 8.18-58.74 38.56-58.74 74.7 0 42.38 34.48 76.88 76.88 76.88 0.32 0 0.62-0.06 0.92-0.1 0.32 0.04 0.62 0.1 0.94 0.1h86.76l-30.96 84.4c-1.14 3.08-0.68 6.52 1.2 9.2a10.032 10.032 0 0 0 8.18 4.24h0.08l60.12-0.48-48.38 207.14c-1.16 5 1.64 10.08 6.52 11.74 1.06 0.36 2.14 0.54 3.22 0.54 3.82 0 7.44-2.2 9.1-5.84l120.7-263.92c1.28-2.8 1.2-6.04-0.22-8.76a9.976 9.976 0 0 0-7.04-5.22l-58.6-10.88 10.62-22.16h141.04c42.38-0.02 76.86-34.5 76.86-76.88 0-39.76-30.34-72.56-69.1-76.48z m-183.1 178.66c-1.34 2.8-1.3 6.08 0.12 8.84 1.4 2.78 4.02 4.74 7.08 5.3l58.82 10.92-73.82 161.4 28.56-122.24c0.68-2.98-0.02-6.12-1.94-8.52a9.966 9.966 0 0 0-7.8-3.76h-0.08l-58.4 0.48 52.9-144.16 38.66-0.32-44.1 92.06z m175.32-45.3h-131.44l25.16-52.56a9.94 9.94 0 0 0-0.58-9.68 9.956 9.956 0 0 0-8.44-4.64H606l-61.58 0.5a9.98 9.98 0 0 0-9.3 6.56l-21.96 59.82h-94.1c-0.32 0-0.62 0.06-0.92 0.1-0.32-0.04-0.62-0.1-0.94-0.1-31.36 0-56.88-25.52-56.88-56.88s25.52-56.88 56.88-56.88c31.36 0 56.88 25.52 56.88 56.88 0 5.52 4.46 10 10 10 5.52 0 10-4.48 10-10 0-41.72-33.44-75.78-74.92-76.82 0.4-6.64 1.94-13.2 4.62-19.36 11.6-26.64 41.24-40.24 68.92-31.62 2.02 0.62 4.02 1.36 5.94 2.2 28.74 12.52 41.94 46.1 29.42 74.86-2.2 5.06 0.1 10.96 5.18 13.16 1.3 0.56 2.64 0.84 3.98 0.84 3.86 0 7.54-2.26 9.18-6.02 16.52-37.94-0.12-82.1-37.1-99.92 6.42-10.82 16.18-19.18 28.08-23.86 14.14-5.56 29.6-5.28 43.52 0.8a56.42 56.42 0 0 1 20.64 15.32c-23.34 22.2-30.64 57.44-17.06 87.42a9.986 9.986 0 0 0 13.24 4.98c5.02-2.28 7.26-8.2 4.98-13.22-11.08-24.46-3.4-53.64 18.3-69.42 3.1-2.28 6.48-4.24 10.04-5.86 28.56-12.94 62.34-0.22 75.28 28.34 6.1 13.48 6.68 28.68 1.78 42.48-36.08 6.32-63.6 37.84-63.6 75.7 0 5.52 4.48 10 10 10 5.54 0 10-4.48 10-10 0-31.36 25.52-56.88 56.88-56.88s56.88 25.52 56.88 56.88-25.52 56.88-56.88 56.88z" fill="#23130D" p-id="34456"></path><path d="M778.26 297.02c0 31.36-25.52 56.88-56.88 56.88h-131.44l25.16-52.56a9.94 9.94 0 0 0-0.58-9.68 9.956 9.956 0 0 0-8.44-4.64H606l-61.58 0.5a9.98 9.98 0 0 0-9.3 6.56l-21.96 59.82h-94.1c-0.32 0-0.62 0.06-0.92 0.1-0.32-0.04-0.62-0.1-0.94-0.1-31.36 0-56.88-25.52-56.88-56.88s25.52-56.88 56.88-56.88c31.36 0 56.88 25.52 56.88 56.88 0 5.52 4.46 10 10 10 5.52 0 10-4.48 10-10 0-41.72-33.44-75.78-74.92-76.82 0.4-6.64 1.94-13.2 4.62-19.36 11.6-26.64 41.24-40.24 68.92-31.62 2.02 0.62 4.02 1.36 5.94 2.2 28.74 12.52 41.94 46.1 29.42 74.86-2.2 5.06 0.1 10.96 5.18 13.16 1.3 0.56 2.64 0.84 3.98 0.84 3.86 0 7.54-2.26 9.18-6.02 16.52-37.94-0.12-82.1-37.1-99.92 6.42-10.82 16.18-19.18 28.08-23.86 14.14-5.56 29.6-5.28 43.52 0.8a56.42 56.42 0 0 1 20.64 15.32c-23.34 22.2-30.64 57.44-17.06 87.42a9.986 9.986 0 0 0 13.24 4.98c5.02-2.28 7.26-8.2 4.98-13.22-11.08-24.46-3.4-53.64 18.3-69.42 3.1-2.28 6.48-4.24 10.04-5.86 28.56-12.94 62.34-0.22 75.28 28.34 6.1 13.48 6.68 28.68 1.78 42.48-36.08 6.32-63.6 37.84-63.6 75.7 0 5.52 4.48 10 10 10 5.54 0 10-4.48 10-10 0-31.36 25.52-56.88 56.88-56.88s56.88 25.52 56.88 56.88z" fill="#3594BF" p-id="34457"></path><path d="M747.5 347.52a56.348 56.348 0 0 1-26.12 6.38h-131.44l25.16-52.56a9.94 9.94 0 0 0-0.58-9.68 9.956 9.956 0 0 0-8.44-4.64H606l-61.58 0.5a9.98 9.98 0 0 0-9.3 6.56l-21.96 59.82h-94.1c-0.32 0-0.62 0.06-0.92 0.1-0.32-0.04-0.62-0.1-0.94-0.1-9.84 0-19.1-2.5-27.16-6.92 2.8 0.36 5.68 0.54 8.58 0.54 0.36 0 0.7 0.06 1.08 0.1 0.34-0.04 0.68-0.1 1.04-0.1h108.08l25.22-63.48c1.64-4.16 5.9-6.92 10.68-6.96l70.74-0.54h0.08c3.94 0 7.6 1.86 9.7 4.92a9.874 9.874 0 0 1 0.66 10.28l-28.9 55.78h150.5z" fill="#23130D" opacity=".2" p-id="34458"></path><path d="M566.82 463.42c0.68-2.98-0.02-6.12-1.94-8.52a9.966 9.966 0 0 0-7.8-3.76h-0.08l-58.4 0.48 52.9-144.16 38.66-0.32-44.1 92.06c-1.34 2.8-1.3 6.08 0.12 8.84 1.4 2.78 4.02 4.74 7.08 5.3l58.82 10.92-73.82 161.4 28.56-122.24z" fill="#F9C139" p-id="34459"></path><path d="M582.88 454.9c1.92 2.4 2.62 5.54 1.94 8.52l-9.76 41.78-36.8 80.46 28.56-122.24c0.68-2.98-0.02-6.12-1.94-8.52-1.58-1.96-3.8-3.26-6.24-3.62l16.36-0.14h0.08c3.04 0 5.9 1.38 7.8 3.76zM590.16 307.14l-0.08 0.14-20.58 0.18-52.84 144.02-18.06 0.14 52.9-144.16z" fill="#23130D" opacity=".2" p-id="34460"></path><path d="M558.64 451.28l-42.04 0.34 0.06-0.14 40.34-0.34h0.08c0.52 0 1.04 0.04 1.56 0.14z" fill="#F9C139" p-id="34461"></path></svg>