<?xml version="1.0" standalone="no"?><!DOCTYPE svg PUBLIC "-//W3C//DTD SVG 1.1//EN" "http://www.w3.org/Graphics/SVG/1.1/DTD/svg11.dtd"><svg t="1625811551601" class="icon" viewBox="0 0 1024 1024" version="1.1" xmlns="http://www.w3.org/2000/svg" p-id="34604" xmlns:xlink="http://www.w3.org/1999/xlink" width="200" height="200"><defs><style type="text/css"></style></defs><path d="M780.82 460.46c-0.02-0.22-0.06-0.44-0.08-0.68-0.02-0.12-0.02-0.22-0.04-0.36-8.9-47.36-29.3-80.08-60.62-97.26-49.82-27.34-108.14-4.5-110.6-3.52-0.2 0.08-0.36 0.2-0.56 0.3-0.34 0.16-0.66 0.32-0.96 0.5-0.28 0.16-0.52 0.36-0.78 0.54-0.26 0.2-0.52 0.4-0.76 0.62-0.24 0.24-0.46 0.48-0.68 0.72-0.2 0.24-0.4 0.46-0.6 0.72-0.18 0.26-0.34 0.54-0.52 0.82-0.16 0.28-0.32 0.54-0.46 0.84-0.12 0.28-0.24 0.58-0.34 0.88-0.12 0.3-0.22 0.6-0.3 0.92-0.08 0.32-0.12 0.64-0.18 0.98-0.04 0.3-0.08 0.62-0.1 0.92-0.02 0.38 0 0.74 0.02 1.1 0.02 0.2-0.02 0.42 0.02 0.62 0.3 2.64 8.34 64.76 56.26 95.3 16.94 10.78 36.52 16.18 58.56 16.18 17.16 0 35.82-3.26 55.88-9.82 0.08-0.02 0.14-0.06 0.22-0.1 0.14-0.04 0.28-0.08 0.42-0.14 0.08-0.02 0.16-0.08 0.24-0.1 0.3-0.14 0.62-0.28 0.92-0.44 0.08-0.06 0.16-0.12 0.24-0.16 0.04-0.04 0.08-0.06 0.14-0.1 0.14-0.08 0.28-0.18 0.42-0.26 0.22-0.16 0.42-0.32 0.62-0.48l0.4-0.34c0.08-0.08 0.18-0.14 0.26-0.22 0.06-0.08 0.12-0.16 0.2-0.22 0.22-0.24 0.46-0.48 0.66-0.76 0.06-0.08 0.12-0.18 0.18-0.26 0.02-0.02 0.04-0.04 0.04-0.06 0.12-0.16 0.22-0.3 0.32-0.46 0.08-0.1 0.16-0.2 0.22-0.3 0.04-0.1 0.06-0.18 0.12-0.26l0.3-0.6c0.12-0.22 0.2-0.46 0.3-0.68l0.18-0.54c0.06-0.2 0.12-0.38 0.16-0.58 0.08-0.26 0.12-0.5 0.16-0.76 0.04-0.18 0.06-0.38 0.1-0.56 0.02-0.2 0.02-0.42 0.04-0.62v-0.74c0-0.2 0-0.38-0.02-0.58z m-103.82-43.14l68.24 40.4c-29.76 5.94-54.88 2.58-74.84-10.1-30.8-19.56-42.16-56.7-45.78-72.94 15.94-4.66 53.78-12.58 85.84 5 20.78 11.4 35.84 31.82 44.98 60.84l-68.26-40.4a9.96 9.96 0 0 0-13.68 3.5 9.984 9.984 0 0 0 3.5 13.7z" fill="#23130D" p-id="34605"></path><path d="M677 417.32l68.24 40.4c-29.76 5.94-54.88 2.58-74.84-10.1-30.8-19.56-42.16-56.7-45.78-72.94 15.94-4.66 53.78-12.58 85.84 5 20.78 11.4 35.84 31.82 44.98 60.84l-68.26-40.4a9.96 9.96 0 0 0-13.68 3.5 9.984 9.984 0 0 0 3.5 13.7z" fill="#72AF5F" p-id="34606"></path><path d="M755.44 440.52l-7.44-4.4c-9.12-19.08-21.66-33.06-37.54-41.78-29.78-16.32-64.54-10.66-82.1-6.04-1.72-5.3-2.92-9.98-3.74-13.62 15.94-4.66 53.78-12.58 85.84 5 20.78 11.4 35.84 31.82 44.98 60.84z" fill="#FFFFFF" opacity=".4" p-id="34607"></path><path d="M745.24 457.72c-29.76 5.94-54.88 2.58-74.84-10.1-30.8-19.56-42.16-56.7-45.78-72.94a126.4 126.4 0 0 1 3.74-1.04c5.94 18.38 18.14 44.14 42.04 59.32 15.24 9.68 33.5 13.94 54.54 12.74l20.3 12.02z" fill="#23130D" opacity=".2" p-id="34608"></path><path d="M997.04 366.48a8.42 8.42 0 0 0-0.18-0.98c-0.08-0.3-0.18-0.6-0.28-0.9-0.12-0.32-0.22-0.62-0.36-0.9-0.14-0.28-0.28-0.56-0.44-0.82-0.18-0.28-0.34-0.58-0.56-0.86-0.16-0.22-0.36-0.44-0.54-0.66-0.24-0.26-0.48-0.52-0.74-0.78l-0.66-0.54c-0.28-0.22-0.58-0.42-0.88-0.62-0.26-0.16-0.54-0.28-0.82-0.42-0.22-0.12-0.44-0.26-0.66-0.36-2.46-0.98-60.78-23.82-110.6 3.52-31.32 17.16-51.72 49.9-60.64 97.26-0.02 0.14 0 0.24-0.02 0.36-0.04 0.22-0.08 0.44-0.08 0.66-0.02 0.2-0.02 0.42-0.04 0.62 0 0.24 0 0.48 0.02 0.72a6.256 6.256 0 0 0 0.14 1.2c0.04 0.26 0.08 0.5 0.14 0.74 0.04 0.18 0.1 0.38 0.16 0.56 0.06 0.2 0.14 0.38 0.2 0.56 0.1 0.24 0.18 0.46 0.28 0.68 0.1 0.2 0.2 0.4 0.3 0.58 0.06 0.1 0.08 0.18 0.14 0.28 0.06 0.1 0.14 0.2 0.22 0.32 0.08 0.14 0.18 0.28 0.28 0.42 0.04 0.04 0.06 0.08 0.08 0.12 0.06 0.08 0.1 0.16 0.16 0.22 0.22 0.28 0.46 0.54 0.7 0.78 0.06 0.06 0.1 0.12 0.16 0.18 0.1 0.1 0.2 0.16 0.28 0.26 0.12 0.1 0.24 0.2 0.38 0.3a7.838 7.838 0 0 0 1.04 0.76l0.18 0.12c0.08 0.04 0.14 0.08 0.2 0.12 0.32 0.18 0.64 0.32 0.96 0.46 0.08 0.04 0.14 0.08 0.2 0.1 0.14 0.06 0.3 0.1 0.44 0.16 0.08 0.02 0.14 0.06 0.2 0.08 20.06 6.56 38.72 9.82 55.88 9.82 22.06 0 41.64-5.4 58.58-16.18 47.92-30.54 55.94-92.66 56.26-95.3 0.02-0.2 0-0.42 0-0.62 0.04-0.36 0.06-0.72 0.04-1.1-0.02-0.3-0.08-0.62-0.12-0.92zM930 447.62c-19.96 12.68-45.08 16.04-74.86 10.1l68.24-40.4a10.008 10.008 0 0 0 3.52-13.7 9.99 9.99 0 0 0-13.7-3.5l-68.24 40.4c9.12-28.96 24.14-49.36 44.86-60.76 31.94-17.6 69.94-9.7 85.94-5.06-3.62 16.26-14.98 53.38-45.76 72.92z" fill="#23130D" p-id="34609"></path><path d="M975.76 374.7c-3.62 16.26-14.98 53.38-45.76 72.92-19.96 12.68-45.08 16.04-74.86 10.1l68.24-40.4a10.008 10.008 0 0 0 3.52-13.7 9.99 9.99 0 0 0-13.7-3.5l-68.24 40.4c9.12-28.96 24.14-49.36 44.86-60.76 31.94-17.6 69.94-9.7 85.94-5.06z" fill="#72AF5F" p-id="34610"></path><path d="M882.56 229.46c-3.12-81.08-74.14-135.88-77.18-138.18-0.16-0.14-0.36-0.22-0.52-0.34-0.32-0.2-0.62-0.4-0.94-0.56-0.28-0.14-0.56-0.26-0.86-0.38-0.3-0.12-0.62-0.24-0.92-0.34-0.32-0.08-0.64-0.14-0.94-0.2-0.32-0.06-0.64-0.12-0.96-0.16-0.3-0.02-0.62-0.02-0.92-0.02-0.34 0-0.68 0-1.02 0.04-0.28 0.04-0.56 0.08-0.84 0.14-0.36 0.08-0.7 0.14-1.04 0.24-0.28 0.1-0.56 0.2-0.82 0.32-0.34 0.12-0.66 0.26-0.96 0.42-0.28 0.16-0.56 0.34-0.82 0.52-0.2 0.14-0.42 0.24-0.62 0.38-3 2.34-73.38 57.96-75.58 139.06-1.36 50.9 24.44 99.7 76.72 145.08 0.12 0.1 0.26 0.18 0.4 0.28 0.14 0.12 0.28 0.26 0.44 0.36 0.12 0.08 0.26 0.16 0.38 0.24 0.3 0.18 0.6 0.34 0.9 0.5 0.16 0.08 0.32 0.18 0.48 0.26 0.08 0.02 0.18 0.06 0.26 0.08 0.4 0.16 0.8 0.28 1.2 0.38 0.16 0.04 0.3 0.1 0.46 0.14 0.04 0 0.08 0 0.12 0.02 0.64 0.12 1.26 0.18 1.9 0.18h0.1c0.62 0 1.24-0.08 1.86-0.2 0.18-0.04 0.38-0.1 0.58-0.16 0.4-0.1 0.82-0.22 1.22-0.38 0.08-0.04 0.16-0.06 0.24-0.1 0.18-0.06 0.34-0.18 0.5-0.26 0.32-0.16 0.62-0.32 0.92-0.52a1.98 1.98 0 0 0 0.34-0.22c0.16-0.12 0.32-0.24 0.48-0.38 0.14-0.1 0.28-0.18 0.4-0.3 51.76-45.96 77-95.06 75.04-145.94z m-71.8 115.24L810 216.6a9.974 9.974 0 0 0-9.98-9.94h-0.06a9.99 9.99 0 0 0-9.96 10.04l0.76 128.1c-36.3-36.54-54.16-74.72-53.14-113.72 1.52-58.52 45.44-103.82 61.8-118.7 16.52 14.68 60.96 59.48 63.16 117.98 1.46 39-15.96 77.38-51.82 114.34z" fill="#23130D" p-id="34611"></path><path d="M810.76 344.7L810 216.6a9.974 9.974 0 0 0-9.98-9.94h-0.06a9.99 9.99 0 0 0-9.96 10.04l0.76 128.1c-36.3-36.54-54.16-74.72-53.14-113.72 1.52-58.52 45.44-103.82 61.8-118.7 16.52 14.68 60.96 59.48 63.16 117.98 1.46 39-15.96 77.38-51.82 114.34z" fill="#72AF5F" p-id="34612"></path><path d="M790.62 321.94l0.14 22.86c-36.3-36.54-54.16-74.72-53.14-113.72 1.52-58.52 45.44-103.82 61.8-118.7 2.72 2.42 6.18 5.64 10.12 9.62-19.66 20.36-50.64 60.08-51.92 109.08-0.8 30.94 10.26 61.36 33 90.86z" fill="#FFFFFF" opacity=".4" p-id="34613"></path><path d="M810.76 344.7l-0.14-23.08c22.4-29.76 33.12-60.32 31.96-91.26-1.84-48.88-33.16-88.2-53.04-108.36 3.82-3.96 7.22-7.2 9.88-9.62 16.52 14.68 60.96 59.48 63.16 117.98 1.46 39-15.96 77.38-51.82 114.34z" fill="#23130D" opacity=".2" p-id="34614"></path><path d="M864.54 551.24h-54.52v-148.14c0-5.52-4.46-10-10-10-5.52 0-10 4.48-10 10v148.14h-43.44c-5.54 0-10 4.48-10 10v363.52c0 5.52 4.46 10 10 10h117.96c5.52 0 10-4.48 10-10V561.24c0-5.52-4.48-10-10-10z m-10 363.52h-97.96V571.24h97.96v343.52z" fill="#23130D" p-id="34615"></path><path d="M756.58 571.24h97.96v343.52h-97.96z" fill="#72AF5F" p-id="34616"></path><path d="M669.22 612.38h-117.98c-5.52 0-10 4.46-10 10v302.38c0 5.52 4.48 10 10 10h117.98c5.52 0 10-4.48 10-10V622.38c0-5.54-4.48-10-10-10z m-10 302.38h-97.98V632.38h97.98v282.38z" fill="#23130D" p-id="34617"></path><path d="M561.24 632.38h97.98v282.38h-97.98z" fill="#F9C139" p-id="34618"></path><path d="M473.88 673.78h-117.96c-5.52 0-10 4.48-10 10v240.98c0 5.52 4.48 10 10 10h117.96c5.54 0 10-4.48 10-10V683.78c0-5.52-4.46-10-10-10z m-10 240.98h-97.96V693.78h97.96v220.98z" fill="#23130D" p-id="34619"></path><path d="M365.92 693.78h97.96v220.98h-97.96z" fill="#F9C139" p-id="34620"></path><path d="M278.56 763.56H160.6c-5.54 0-10 4.48-10 10v151.2c0 5.52 4.46 10 10 10h117.96c5.52 0 10-4.48 10-10v-151.2c0-5.52-4.48-10-10-10z m-10 151.2H170.6v-131.2h97.96v131.2z" fill="#23130D" p-id="34621"></path><path d="M170.6 783.56h97.96v131.2H170.6z" fill="#EC7063" p-id="34622"></path><path d="M170.6 783.56h16.4v131.2h-16.4z" fill="#FFFFFF" opacity=".4" p-id="34623"></path><path d="M252.16 783.56h16.4v131.2h-16.4z" fill="#23130D" opacity=".2" p-id="34624"></path><path d="M365.92 693.34h16.4v221.42h-16.4z" fill="#FFFFFF" opacity=".4" p-id="34625"></path><path d="M447.48 693.34h16.4v221.42h-16.4z" fill="#23130D" opacity=".2" p-id="34626"></path><path d="M561.24 631.94h16.4v282.82h-16.4z" fill="#FFFFFF" opacity=".4" p-id="34627"></path><path d="M642.8 631.94h16.4v282.82h-16.4z" fill="#23130D" opacity=".2" p-id="34628"></path><path d="M756.56 571.8h16.4v342.96h-16.4z" fill="#FFFFFF" opacity=".4" p-id="34629"></path><path d="M838.12 571.8h16.4v342.96h-16.4z" fill="#23130D" opacity=".2" p-id="34630"></path><path d="M173.622 219.862a10 10 0 0 0 7.072-17.07L112.288 134.384c-0.024-0.024-0.054-0.04-0.078-0.064a10.024 10.024 0 0 0-1.446-1.182c-0.248-0.166-0.516-0.28-0.774-0.42-0.314-0.172-0.616-0.362-0.948-0.5-0.322-0.134-0.658-0.21-0.99-0.308-0.292-0.088-0.574-0.2-0.878-0.26a10.024 10.024 0 0 0-1.858-0.188c-0.034 0-0.064-0.01-0.098-0.01s-0.064 0.01-0.098 0.01a10.024 10.024 0 0 0-1.858 0.188c-0.304 0.06-0.586 0.174-0.878 0.26-0.332 0.098-0.668 0.174-0.99 0.308-0.334 0.138-0.636 0.328-0.95 0.5-0.258 0.14-0.526 0.254-0.772 0.42-0.52 0.348-1.002 0.746-1.446 1.182-0.024 0.024-0.054 0.04-0.078 0.064l-68.406 68.406a10 10 0 1 0 14.142 14.142l51.334-51.334v120.842H45.55a10 10 0 0 0 0 20h49.666v48.844H66.882a10 10 0 0 0 0 20h28.334v48.846H45.55a10 10 0 0 0 0 20h49.666v48.844H66.882a10 10 0 0 0 0 20h28.334v48.844H45.55a10 10 0 1 0 0 20h49.666v48.846H66.882a10 10 0 1 0 0 20h28.334v48.844H45.55a10 10 0 1 0 0 20h49.666v48.844H66.882a10 10 0 1 0 0 20h28.334v48.844H45.55a10 10 0 1 0 0 20h49.666v67.56a10 10 0 1 0 20 0V165.598l51.334 51.334a9.968 9.968 0 0 0 7.072 2.93z" fill="#23130D" p-id="34631"></path><path d="M844.96 440.52l7.44-4.4c9.12-19.08 21.66-33.06 37.54-41.78 29.78-16.32 64.54-10.66 82.1-6.04 1.72-5.3 2.92-9.98 3.74-13.62-15.94-4.66-53.78-12.58-85.84 5-20.78 11.4-35.84 31.82-44.98 60.84z" fill="#FFFFFF" opacity=".4" p-id="34632"></path><path d="M855.16 457.72c29.76 5.94 54.88 2.58 74.84-10.1 30.8-19.56 42.16-56.7 45.78-72.94a126.4 126.4 0 0 0-3.74-1.04c-5.94 18.38-18.14 44.14-42.04 59.32-15.24 9.68-33.5 13.94-54.54 12.74l-20.3 12.02z" fill="#23130D" opacity=".2" p-id="34633"></path></svg>