<?xml version="1.0" standalone="no"?><!DOCTYPE svg PUBLIC "-//W3C//DTD SVG 1.1//EN" "http://www.w3.org/Graphics/SVG/1.1/DTD/svg11.dtd"><svg t="1625812500963" class="icon" viewBox="0 0 1024 1024" version="1.1" xmlns="http://www.w3.org/2000/svg" p-id="107126" xmlns:xlink="http://www.w3.org/1999/xlink" width="200" height="200"><defs><style type="text/css"></style></defs><path d="M251.12 478.16c-25.88 0-46.92 21.04-46.92 46.92S225.24 572 251.12 572s46.92-21.04 46.92-46.92-21.04-46.92-46.92-46.92z m0 73.84c-14.84 0-26.92-12.08-26.92-26.92 0-14.86 12.08-26.92 26.92-26.92 14.86 0 26.92 12.06 26.92 26.92 0 14.84-12.06 26.92-26.92 26.92z" fill="#23130D" p-id="107127"></path><path d="M993.84 454.36c0-29.1-23.68-52.78-52.78-52.78s-52.78 23.68-52.78 52.78 23.68 52.76 52.78 52.76c5.52 0 10-4.46 10-10 0-5.52-4.48-10-10-10-18.08 0-32.78-14.7-32.78-32.76 0-18.08 14.7-32.78 32.78-32.78 18.06 0 32.78 14.7 32.78 32.78 0 1.34 0.26 2.62 0.74 3.8-0.48 1.18-0.74 2.46-0.74 3.8v105.18l-0.02 0.02c0 21.06-17.12 38.18-38.16 38.18h-27.56c-5.14-152.08-126.88-275.1-278.44-282.24 14.16-21.7 22.42-47.58 22.42-75.36 0-76.26-62.06-138.32-138.32-138.32-76.28 0-138.32 62.06-138.32 138.32 0 27.64 8.16 53.38 22.18 75.02h-5.5c-29.98 0-59.22 4.46-87.3 13.26-12.44-19.02-52.86-65.02-153.16-65.02-3.42 0-6.62 1.76-8.44 4.66a9.936 9.936 0 0 0-0.58 9.62l53.54 112.78c-3.1 2.8-6.16 5.66-9.14 8.6-40.68 39.98-68.42 90.1-80.58 145.34H74.02c-24.18 0-43.86 19.68-43.86 43.86v59.72c0 24.18 19.68 43.84 43.86 43.84H111.8c13.18 43.94 36.8 84.58 68.66 117.96 31.86 33.34 71.4 58.84 114.68 74.06v64.26c0 20.5 16.66 37.18 37.16 37.18h61.6c20.5 0 37.18-16.68 37.18-37.18v-47.78h145.66v47.78c0 20.5 16.68 37.18 37.18 37.18h61.58c20.5 0 37.18-16.68 37.18-37.18V891.4c55.44-19.44 103.2-54.64 138.4-102.26 35.44-47.9 55.06-104.34 57.04-163.8h27.54c30.2 0 55.08-23.14 57.9-52.6 0.16-0.74 0.28-1.48 0.28-2.26v-108.52c0-1.34-0.28-2.62-0.76-3.8 0.48-1.18 0.76-2.46 0.76-3.8zM74.02 679.42c-13.14 0-23.86-10.7-23.86-23.84v-59.72c0-13.16 10.72-23.86 23.86-23.86h28.72c-2.12 14.26-3.22 28.78-3.22 43.34 0 21.6 2.4 43.1 7.08 64.08H74.02z m321.42-431.68c0-65.24 53.06-118.32 118.32-118.32 65.24 0 118.32 53.08 118.32 118.32 0 65.26-53.08 118.32-118.32 118.32-65.26 0-118.32-53.06-118.32-118.32zM167.68 291.44c73.24 4.04 105.68 35.42 117.6 51.46-4.32 1.7-8.62 3.5-12.88 5.42-0.12 0.04-0.26 0.1-0.38 0.16A291.438 291.438 0 0 0 212 384.76l-44.32-93.32z m243.4 664.26c0 9.48-7.72 17.18-17.18 17.18h-61.6c-9.46 0-17.16-7.7-17.16-17.18v-58.04c24.92 6.78 50.74 10.26 76.96 10.26h18.98v47.78z m281.6 0c0 9.48-7.7 17.18-17.18 17.18h-61.58c-9.48 0-17.18-7.7-17.18-17.18v-47.78h18.96c26.2 0 52.04-3.44 76.98-10.24v58.02z m195.6-340.36v0.02c0 118.56-75.66 222.7-188.3 259.28-0.04 0.02-0.08 0.04-0.12 0.04-0.08 0.04-0.18 0.04-0.26 0.08-26.96 8.74-55.18 13.16-83.9 13.16h-223.6c-28.74 0-56.96-4.44-83.86-13.16-0.12-0.04-0.24-0.06-0.34-0.1-87.8-28.5-154.62-98.58-178.84-187.56-0.02-0.1-0.06-0.2-0.08-0.3a273.876 273.876 0 0 1-9.46-71.46c0-17.36 1.64-34.68 4.88-51.48 10.38-54.44 36.9-103.88 76.66-142.94 23-22.6 49.52-40.8 78.82-54.06 0.14-0.04 0.26-0.1 0.38-0.16 35.24-15.88 72.88-23.94 111.86-23.94h21.24c25.22 26.64 60.88 43.3 100.4 43.3 39.5 0 75.16-16.66 100.38-43.3h1.56c150.3 0 272.58 122.26 272.58 272.56v0.02z" fill="#23130D" p-id="107128"></path><path d="M692.68 897.68v58.02c0 9.48-7.7 17.18-17.18 17.18h-61.58c-9.48 0-17.18-7.7-17.18-17.18v-47.78h18.96c26.2 0 52.04-3.44 76.98-10.24zM411.08 907.92v47.78c0 9.48-7.72 17.18-17.18 17.18h-61.6c-9.46 0-17.16-7.7-17.16-17.18v-58.04c24.92 6.78 50.74 10.26 76.96 10.26h18.98z" fill="#F9C139" p-id="107129"></path><path d="M692.68 897.68v20c-24.94 6.8-50.78 10.24-76.98 10.24h-18.96v-20h18.96c26.2 0 52.04-3.44 76.98-10.24zM411.08 907.92v20h-18.98c-26.22 0-52.04-3.48-76.96-10.26v-20c24.92 6.78 50.74 10.26 76.96 10.26h18.98z" fill="#23130D" opacity=".2" p-id="107130"></path><path d="M106.6 679.42H74.02c-13.14 0-23.86-10.7-23.86-23.84v-59.72c0-13.16 10.72-23.86 23.86-23.86h28.72c-2.12 14.26-3.22 28.78-3.22 43.34 0 21.6 2.4 43.1 7.08 64.08z" fill="#F9C139" p-id="107131"></path><path d="M106.6 679.42h-20a294.428 294.428 0 0 1-7.08-64.08c0-14.56 1.1-29.08 3.22-43.34h20c-2.12 14.26-3.22 28.78-3.22 43.34 0 21.6 2.4 43.1 7.08 64.08z" fill="#23130D" opacity=".2" p-id="107132"></path><path d="M285.28 342.9c-4.32 1.7-8.62 3.5-12.88 5.42-0.12 0.04-0.26 0.1-0.38 0.16A291.438 291.438 0 0 0 212 384.76l-44.32-93.32c73.24 4.04 105.68 35.42 117.6 51.46z" fill="#F9C139" p-id="107133"></path><path d="M285.28 342.9c-4.32 1.7-8.62 3.5-12.88 5.42-0.12 0.04-0.26 0.1-0.38 0.16A291.438 291.438 0 0 0 212 384.76l-6.58-13.84c18.14-14.08 37.88-25.94 58.94-35.44 0.12-0.06 0.26-0.12 0.38-0.16 3.32-1.5 6.66-2.92 10-4.26 4.56 4.34 8.02 8.44 10.54 11.84z" fill="#23130D" opacity=".2" p-id="107134"></path><path d="M525.02 257.9l17.5 17.5c-1.16-9.12-8.4-16.36-17.5-17.5z m-11.26-128.48c-10.62 0-20.9 1.4-30.68 4.04a116.64 116.64 0 0 0-34.88 15.84 116.748 116.748 0 0 0-17.52 14.28 117.5 117.5 0 0 0-13.96 16.54c-2.14 3.04-4.14 6.2-5.96 9.46a117 117 0 0 0-11.5 28.22 119.14 119.14 0 0 0-3.82 29.94c0 65.26 53.06 118.32 118.32 118.32 10.34 0 20.38-1.34 29.94-3.84 9.98-2.6 19.44-6.48 28.22-11.48 3.26-1.82 6.42-3.82 9.46-5.96a117.5 117.5 0 0 0 16.54-13.96c5.3-5.36 10.1-11.22 14.28-17.52a117.252 117.252 0 0 0 15.84-34.9 117.502 117.502 0 0 0 4.04-30.66c0-65.24-53.08-118.32-118.32-118.32z m-16.12 69.3c-7.48 2.98-12.8 10.28-12.8 18.82v0.2c0.1 10.98 9.02 19.88 20 20h17.66c6.82 0 13.24 1.7 18.86 4.72 7.04 3.74 12.82 9.54 16.58 16.56a40.1 40.1 0 0 1 4.74 18.94c0 5.22-1 10.2-2.82 14.78a40.166 40.166 0 0 1-13.22 17.3 39.256 39.256 0 0 1-9.96 5.48c-4.02 1.54-8.38 2.44-12.9 2.58v24.02c0 0.06 0 0.12-0.02 0.18a9.976 9.976 0 0 1-9.98 9.82c-5.52 0-10-4.48-10-10v-23.96h-28.94c-5.52 0-10-4.46-10-10 0-5.52 4.48-10 10-10h47.66c3.54 0 6.86-0.92 9.74-2.52a20.206 20.206 0 0 0 10.28-20.24c-1.16-9.12-8.4-16.36-17.5-17.5-0.82-0.1-1.66-0.16-2.52-0.16h-17.44c-4.48 0-8.8-0.74-12.82-2.1-11.88-4-21.3-13.4-25.28-25.28a39.44 39.44 0 0 1-2.12-12.82c0-5.8 1.24-11.34 3.48-16.32 3.14-7.02 8.24-12.98 14.6-17.2 6.02-3.98 13.18-6.4 20.86-6.64v-24c0-5.52 4.48-10 10-10s10 4.48 10 10v23.94h28.92c5.52 0 10 4.48 10 10s-4.48 10-10 10h-47.64c-2.62 0-5.12 0.5-7.42 1.4z" fill="#F9C139" p-id="107135"></path><path d="M527.88 351.96c-3.56 0-7.1-0.16-10.58-0.48-1.1 0.42-2.28 0.64-3.52 0.64-2.14 0-4.14-0.68-5.76-1.84-55.84-9.46-98.48-58.16-98.48-116.66 0-29.02 10.5-55.64 27.92-76.24-25.68 21.7-42.02 54.16-42.02 90.36 0 65.26 53.06 118.32 118.32 118.32 36.2 0 68.66-16.34 90.38-42.04-20.6 17.42-47.22 27.94-76.26 27.94z" fill="#23130D" opacity=".2" p-id="107136"></path><path d="M615.7 342.76h-1.56c-25.22 26.64-60.88 43.3-100.38 43.3-39.52 0-75.18-16.66-100.4-43.3h-21.24c-38.98 0-76.62 8.06-111.86 23.94-0.12 0.06-0.24 0.12-0.38 0.16-29.3 13.26-55.82 31.46-78.82 54.06-39.76 39.06-66.28 88.5-76.66 142.94-3.24 16.8-4.88 34.12-4.88 51.48 0 24.18 3.18 48.24 9.46 71.46 0.02 0.1 0.06 0.2 0.08 0.3 24.22 88.98 91.04 159.06 178.84 187.56 0.1 0.04 0.22 0.06 0.34 0.1 26.9 8.72 55.12 13.16 83.86 13.16h223.6c28.72 0 56.94-4.42 83.9-13.16 0.08-0.04 0.18-0.04 0.26-0.08 0.04 0 0.08-0.02 0.12-0.04 112.64-36.58 188.3-140.72 188.3-259.28v-0.04c0-150.3-122.28-272.56-272.58-272.56zM251.12 572c-25.88 0-46.92-21.04-46.92-46.92s21.04-46.92 46.92-46.92 46.92 21.04 46.92 46.92S277 572 251.12 572z m385.24-148.22H391.14c-5.52 0-10-4.48-10-10s4.48-10 10-10h245.22c5.52 0 10 4.48 10 10s-4.48 10-10 10z" fill="#E8790A" p-id="107137"></path><path d="M834.52 452.96c9.52 27.72 14.7 57.44 14.7 88.36v0.04c0 118.56-75.66 222.7-188.3 259.28-0.04 0.02-0.08 0.04-0.12 0.04-0.08 0.04-0.18 0.04-0.26 0.08-26.96 8.74-55.18 13.16-83.9 13.16h-223.6c-28.74 0-56.96-4.44-83.86-13.16-0.12-0.04-0.24-0.06-0.34-0.1-54.68-17.76-101.24-51.64-134.42-96.16 27.8 80.66 91.48 143.54 173.48 170.16 0.1 0.04 0.22 0.06 0.34 0.1 26.9 8.72 55.12 13.16 83.86 13.16h223.6c28.72 0 56.94-4.42 83.9-13.16 0.08-0.04 0.18-0.04 0.26-0.08 0.04 0 0.08-0.02 0.12-0.04 112.64-36.58 188.3-140.72 188.3-259.28v-0.04c0-60.8-20-116.98-53.76-162.36z" fill="#23130D" opacity=".2" p-id="107138"></path><path d="M278.04 525.08c0 14.84-12.06 26.92-26.92 26.92-14.84 0-26.92-12.08-26.92-26.92 0-14.86 12.08-26.92 26.92-26.92 14.86 0 26.92 12.06 26.92 26.92z" fill="#F9C139" p-id="107139"></path><path d="M646.36 413.78c0 5.52-4.48 10-10 10H391.14c-5.52 0-10-4.48-10-10s4.48-10 10-10h245.22c5.52 0 10 4.48 10 10zM562.68 277.96c0 21.74-17.34 39.46-38.9 40.14v24.02c0 5.52-4.48 10-10 10s-10-4.48-10-10v-23.96h-28.94c-5.52 0-10-4.46-10-10 0-5.52 4.48-10 10-10h47.66c11.12 0 20.18-9.06 20.18-20.2s-9.06-20.22-20.18-20.22h-17.44c-22.18 0-40.22-18.04-40.22-40.2 0-21.74 17.36-39.46 38.94-40.16v-24c0-5.52 4.48-10 10-10s10 4.48 10 10v23.94h28.92c5.52 0 10 4.48 10 10s-4.48 10-10 10h-47.64c-11.14 0-20.22 9.06-20.22 20.22 0 11.14 9.08 20.2 20.22 20.2h17.44c22.16 0 40.18 18.04 40.18 40.22zM513.75 84.332a10 10 0 0 0 10-10V41.114a10 10 0 1 0-20 0v33.218a10 10 0 0 0 10 10zM595.456 106.224a10 10 0 0 0 13.66-3.658l16.612-28.764a10 10 0 0 0-17.32-10.002l-16.612 28.764a10 10 0 0 0 3.66 13.66zM663.94 171.04c1.696 0 3.416-0.432 4.99-1.342l28.77-16.608a9.998 9.998 0 0 0 3.66-13.66 9.996 9.996 0 0 0-13.66-3.66l-28.77 16.608a9.998 9.998 0 0 0-3.66 13.66 9.994 9.994 0 0 0 8.67 5.002zM329.798 153.09l28.774 16.608a9.994 9.994 0 0 0 13.66-3.662 10 10 0 0 0-3.662-13.66l-28.774-16.608a10 10 0 1 0-9.998 17.322zM418.384 102.566a9.992 9.992 0 0 0 13.66 3.658 9.998 9.998 0 0 0 3.658-13.66l-16.614-28.766a9.996 9.996 0 0 0-13.66-3.658 9.998 9.998 0 0 0-3.658 13.66l16.614 28.766z" fill="#23130D" p-id="107140"></path><path d="M499.62 318.16h4.16v4.16zM410.76 189.58l108.58 108.58h-39.72l-80.36-80.36a117 117 0 0 1 11.5-28.22zM571.92 350.74c-8.78 5-18.24 8.88-28.22 11.48l-19.94-19.92c0.02-0.06 0.02-0.12 0.02-0.18v-24.02c4.52-0.14 8.88-1.04 12.9-2.58l35.24 35.22zM468.32 201.22a39.734 39.734 0 0 0-3.48 16.32c0 4.48 0.74 8.8 2.12 12.82l-50.24-50.24a117.5 117.5 0 0 1 13.96-16.54l37.64 37.64zM504.84 237.74c-10.98-0.12-19.9-9.02-20-20l20 20zM542.68 277.96c0 7.6-4.22 14.24-10.44 17.68l-40-40c4.02 1.36 8.34 2.1 12.82 2.1h17.44c0.86 0 1.7 0.06 2.52 0.16l17.5 17.5c0.1 0.84 0.16 1.7 0.16 2.56zM597.92 330.82a117.5 117.5 0 0 1-16.54 13.96l-34.74-34.74c5.86-4.4 10.48-10.38 13.22-17.3l38.06 38.08zM503.78 177.38c-7.68 0.24-14.84 2.66-20.86 6.64L448.2 149.3a116.64 116.64 0 0 1 34.88-15.84l20.7 20.7v23.22zM526.94 177.32h-3.16v-3.16zM628.04 278.4a117.252 117.252 0 0 1-15.84 34.9l-54.26-54.28-16.58-16.56-43.72-43.74c2.3-0.9 4.8-1.4 7.42-1.4h41.88l81.1 81.08z" fill="#FFFFFF" opacity=".4" p-id="107141"></path></svg>