<?xml version="1.0" standalone="no"?><!DOCTYPE svg PUBLIC "-//W3C//DTD SVG 1.1//EN" "http://www.w3.org/Graphics/SVG/1.1/DTD/svg11.dtd"><svg t="1625812006529" class="icon" viewBox="0 0 1024 1024" version="1.1" xmlns="http://www.w3.org/2000/svg" p-id="48067" xmlns:xlink="http://www.w3.org/1999/xlink" width="200" height="200"><defs><style type="text/css"></style></defs><path d="M976.86 185H47.14c-5.54 0-10 4.48-10 10v435.46c0 5.54 4.46 10 10 10h929.72c5.54 0 10-4.46 10-10V195c0-5.52-4.46-10-10-10z m-10 435.46H57.14V205h909.72v415.46z" fill="#23130D" p-id="48068"></path><path d="M57.14 205v415.46h909.72V205H57.14z m755.58 151.26c0 5.52-4.48 10-10 10H547.44c-5.52 0-10-4.48-10-10 0-5.54 4.48-10 10-10h255.28c5.52 0 10 4.46 10 10z m44.88 50.7c5.52 0 10 4.48 10 10s-4.48 10-10 10H564.16c-5.52 0-10-4.48-10-10s4.48-10 10-10H857.6z m-344.12-121.42h243.5c5.52 0 10 4.48 10 10s-4.48 10-10 10H513.48c-5.52 0-10-4.48-10-10s4.48-10 10-10zM180.98 598.92c0 5.52-4.48 10-10 10s-10-4.48-10-10v-72.22H88.76c-5.52 0-10-4.48-10-10s4.48-10 10-10h82.22c5.52 0 10 4.48 10 10v82.22z m0-281.7c0 5.52-4.48 10-10 10H88.76c-5.52 0-10-4.48-10-10s4.48-10 10-10h72.22V235c0-5.52 4.48-10 10-10s10 4.48 10 10v82.22z m160.14 253.64c-84.86 0-153.9-69.04-153.9-153.9s69.04-153.9 153.9-153.9 153.88 69.04 153.88 153.9-69.02 153.9-153.88 153.9z m415.86-22.5H513.48c-5.52 0-10-4.46-10-10 0-5.52 4.48-10 10-10h243.5c5.52 0 10 4.48 10 10 0 5.54-4.48 10-10 10z m45.74-60.7H547.44c-5.52 0-10-4.48-10-10s4.48-10 10-10h255.28c5.52 0 10 4.48 10 10s-4.48 10-10 10z m132.52 39.04h-72.22v72.22c0 5.52-4.48 10-10 10s-10-4.48-10-10v-82.22c0-5.52 4.48-10 10-10h82.22c5.52 0 10 4.48 10 10s-4.48 10-10 10z m0-199.48h-82.22c-5.52 0-10-4.48-10-10V235c0-5.52 4.48-10 10-10s10 4.48 10 10v72.22h72.22c5.52 0 10 4.48 10 10s-4.48 10-10 10z" fill="#E1E1E5" p-id="48069"></path><path d="M960.86 211v403.46h-104.022c6.986-1.716 12.182-8.032 12.182-15.54v-66.22h66.22c8.822 0 16-7.178 16-16s-7.178-16-16-16h-82.22c-8.822 0-16 7.178-16 16v82.22c0 7.508 5.198 13.824 12.182 15.54H174.798c6.986-1.716 12.182-8.032 12.182-15.54v-82.22c0-8.822-7.178-16-16-16H88.76c-8.822 0-16 7.178-16 16s7.178 16 16 16h66.22v66.22c0 7.508 5.198 13.824 12.182 15.54H63.14V211h897.72m-107.84 122.22h82.22c8.822 0 16-7.178 16-16s-7.178-16-16-16h-66.22V235c0-8.822-7.178-16-16-16s-16 7.178-16 16v82.22c0 8.822 7.178 16 16 16m-698.04-32H88.76c-8.822 0-16 7.178-16 16s7.178 16 16 16h82.22c8.822 0 16-7.178 16-16V235c0-8.822-7.178-16-16-16s-16 7.178-16 16v66.22m186.14 275.64c88.158 0 159.88-71.73 159.88-159.9s-71.722-159.9-159.88-159.9c-88.17 0-159.9 71.73-159.9 159.9s71.73 159.9 159.9 159.9m172.36-265.32h243.5c8.822 0 16-7.178 16-16s-7.178-16-16-16H513.48c-8.822 0-16 7.178-16 16s7.178 16 16 16m33.96 60.72h255.28c8.822 0 16-7.178 16-16s-7.178-16-16-16H547.44c-8.822 0-16 7.178-16 16s7.178 16 16 16m16.72 60.7H857.6c8.822 0 16-7.178 16-16s-7.178-16-16-16H564.16c-8.822 0-16 7.178-16 16s7.178 16 16 16m-16.72 60.7h255.28c8.822 0 16-7.178 16-16s-7.178-16-16-16H547.44c-8.822 0-16 7.178-16 16s7.178 16 16 16m-33.96 60.7h243.5c8.822 0 16-7.178 16-16s-7.178-16-16-16H513.48c-8.822 0-16 7.178-16 16s7.178 16 16 16M966.86 205H57.14v415.46h909.72V205z m-113.84 122.22c-5.52 0-10-4.48-10-10V235c0-5.52 4.48-10 10-10s10 4.48 10 10v72.22h72.22c5.52 0 10 4.48 10 10s-4.48 10-10 10h-82.22z m-764.26 0c-5.52 0-10-4.48-10-10s4.48-10 10-10h72.22V235c0-5.52 4.48-10 10-10s10 4.48 10 10v82.22c0 5.52-4.48 10-10 10H88.76z m252.36 243.64c-84.86 0-153.9-69.04-153.9-153.9s69.04-153.9 153.9-153.9 153.88 69.04 153.88 153.9-69.02 153.9-153.88 153.9z m172.36-265.32c-5.52 0-10-4.48-10-10s4.48-10 10-10h243.5c5.52 0 10 4.48 10 10s-4.48 10-10 10H513.48z m33.96 60.72c-5.52 0-10-4.48-10-10 0-5.54 4.48-10 10-10h255.28c5.52 0 10 4.46 10 10 0 5.52-4.48 10-10 10H547.44z m16.72 60.7c-5.52 0-10-4.48-10-10s4.48-10 10-10H857.6c5.52 0 10 4.48 10 10s-4.48 10-10 10H564.16z m-16.72 60.7c-5.52 0-10-4.48-10-10s4.48-10 10-10h255.28c5.52 0 10 4.48 10 10s-4.48 10-10 10H547.44z m305.58 121.26c-5.52 0-10-4.48-10-10v-82.22c0-5.52 4.48-10 10-10h82.22c5.52 0 10 4.48 10 10s-4.48 10-10 10h-72.22v72.22c0 5.52-4.48 10-10 10zM88.76 526.7c-5.52 0-10-4.48-10-10s4.48-10 10-10h82.22c5.52 0 10 4.48 10 10v82.22c0 5.52-4.48 10-10 10s-10-4.48-10-10v-72.22H88.76z m424.72 21.66c-5.52 0-10-4.46-10-10 0-5.52 4.48-10 10-10h243.5c5.52 0 10 4.48 10 10 0 5.54-4.48 10-10 10H513.48z" opacity=".2" p-id="48070"></path><path d="M180.98 235v82.22c0 5.52-4.48 10-10 10H88.76c-5.52 0-10-4.48-10-10s4.48-10 10-10h72.22V235c0-5.52 4.48-10 10-10s10 4.48 10 10zM180.98 516.7v82.22c0 5.52-4.48 10-10 10s-10-4.48-10-10v-72.22H88.76c-5.52 0-10-4.48-10-10s4.48-10 10-10h82.22c5.52 0 10 4.48 10 10zM945.24 516.7c0 5.52-4.48 10-10 10h-72.22v72.22c0 5.52-4.48 10-10 10s-10-4.48-10-10v-82.22c0-5.52 4.48-10 10-10h82.22c5.52 0 10 4.48 10 10zM945.24 317.22c0 5.52-4.48 10-10 10h-82.22c-5.52 0-10-4.48-10-10V235c0-5.52 4.48-10 10-10s10 4.48 10 10v72.22h72.22c5.52 0 10 4.48 10 10zM381.9 419.92c8.26 8.3 12.78 19.34 12.76 31.06-0.04 11.72-4.62 22.72-12.92 30.98-8.26 8.22-19.2 12.74-30.84 12.78l-0.06 28.06a10.012 10.012 0 0 1-10 9.98h-0.04a9.986 9.986 0 0 1-9.96-10.02l0.06-28.08-33.66-0.08c-5.52 0-9.98-4.5-9.96-10.02 0-5.52 4.46-10.08 10.02-9.98l43.6 0.12h0.08l9.76 0.02h0.06c6.34 0 12.32-2.46 16.82-6.94 4.52-4.5 7.02-10.5 7.04-16.88s-2.46-12.38-6.96-16.9a23.684 23.684 0 0 0-16.84-7.04l-19.56-0.04c-11.72-0.04-22.72-4.62-31-12.94-8.26-8.3-12.8-19.34-12.76-31.06 0.02-11.72 4.62-22.72 12.92-31 8.26-8.2 19.2-12.74 30.84-12.76l0.08-28.08c0-5.5 4.48-9.96 10-9.96h0.02c5.52 0 9.98 4.5 9.98 10.02l-0.08 28.06 33.64 0.08c5.52 0.02 10 4.52 9.98 10.04a10.008 10.008 0 0 1-10 9.96h-0.02l-53.42-0.12h-0.06c-6.36 0-12.34 2.46-16.84 6.94-4.54 4.5-7.02 10.5-7.04 16.88s2.44 12.38 6.94 16.9 10.5 7.02 16.88 7.04l19.54 0.04c11.72 0.02 22.72 4.62 31 12.94z" fill="#23130D" p-id="48071"></path><path d="M341.12 263.06c-84.86 0-153.9 69.04-153.9 153.9s69.04 153.9 153.9 153.9 153.88-69.04 153.88-153.9-69.02-153.9-153.88-153.9z m0 287.8c-73.84 0-133.9-60.06-133.9-133.9s60.06-133.9 133.9-133.9c73.82 0 133.88 60.06 133.88 133.9s-60.06 133.9-133.88 133.9z" fill="#23130D" p-id="48072"></path><path d="M341.12 283.06c-4 0-7.96 0.18-11.88 0.54-18.02 1.58-35.02 6.74-50.28 14.8a131.162 131.162 0 0 0-24.32 16.44 131.27 131.27 0 0 0-19.18 19.96 127.668 127.668 0 0 0-8.12 11.66 132.27 132.27 0 0 0-15.46 35.46 133.214 133.214 0 0 0-4.66 35.04c0 73.84 60.06 133.9 133.9 133.9 12.12 0 23.88-1.62 35.04-4.66a132.144 132.144 0 0 0 35.44-15.46 122.9 122.9 0 0 0 11.66-8.14c7.32-5.66 14.02-12.1 19.96-19.16 6.36-7.46 11.88-15.62 16.46-24.34 8.04-15.26 13.2-32.26 14.78-50.26 0.36-3.92 0.54-7.88 0.54-11.88 0-73.84-60.06-133.9-133.88-133.9z m53.8 66.28a10.008 10.008 0 0 1-10 9.96h-0.02l-45.14-0.1-8.28-0.02h-0.06c-6.36 0-12.34 2.46-16.84 6.94a23.834 23.834 0 0 0-7.04 16.88c-0.02 6.38 2.44 12.38 6.94 16.9s10.5 7.02 16.88 7.04l15.4 0.04h4.14c11.72 0.02 22.72 4.62 31 12.94 8.26 8.3 12.78 19.34 12.76 31.06 0 1.24-0.06 2.5-0.18 3.72-0.86 10.1-5.14 19.5-12.32 26.8-0.12 0.16-0.26 0.32-0.42 0.46a43.496 43.496 0 0 1-10.96 7.96c-6.08 3.14-12.86 4.8-19.88 4.82l-0.06 26.16v1.9a10.012 10.012 0 0 1-10 9.98h-0.04a9.986 9.986 0 0 1-9.96-10.02l0.04-21.82 0.02-6.26-6.28-0.02-27.38-0.06c-5.52 0-9.98-4.5-9.96-10.02 0-5.52 4.46-10.08 10.02-9.98l7.26 0.02 36.34 0.1h0.08l9.76 0.02h0.06c1.48 0 2.96-0.14 4.4-0.42 4.68-0.86 8.98-3.1 12.42-6.52l0.42-0.42c4.26-4.44 6.6-10.28 6.62-16.46 0.02-6.38-2.46-12.38-6.96-16.9a23.684 23.684 0 0 0-16.84-7.04l-19.56-0.04c-1.3 0-2.6-0.06-3.88-0.18-10.26-0.92-19.76-5.36-27.12-12.76-7.28-7.32-11.68-16.76-12.56-26.92-0.14-1.38-0.2-2.76-0.2-4.14 0.02-9.64 3.12-18.78 8.86-26.32 1.22-1.64 2.58-3.2 4.06-4.68 5.76-5.72 12.84-9.66 20.54-11.52a44 44 0 0 1 10.3-1.24l0.08-28.08c0-5.5 4.48-9.96 10-9.96h0.02c5.52 0 9.98 4.5 9.98 10.02l-0.08 28.06 33.64 0.08a10.02 10.02 0 0 1 9.98 9.98v0.06z" fill="#F9C139" p-id="48073"></path><path d="M341.12 289.06c70.514 0 127.88 57.376 127.88 127.9 0 3.798-0.174 7.61-0.518 11.356a126.088 126.088 0 0 1-14.114 47.994 126.714 126.714 0 0 1-15.74 23.268 124.416 124.416 0 0 1-19.076 18.306 117.51 117.51 0 0 1-11.126 7.764 126.17 126.17 0 0 1-33.844 14.764 127.352 127.352 0 0 1-33.464 4.45c-70.524 0-127.9-57.376-127.9-127.9 0-11.366 1.496-22.626 4.452-33.476a126.19 126.19 0 0 1 14.77-33.868 122.096 122.096 0 0 1 7.758-11.138 125.554 125.554 0 0 1 18.332-19.072 125.422 125.422 0 0 1 23.23-15.7c14.942-7.892 31.092-12.646 48.026-14.13a123.648 123.648 0 0 1 11.334-0.518m-15.804 44.488a49.764 49.764 0 0 0-29.098 14.15 48.682 48.682 0 0 0-4.592 5.288c-6.576 8.638-10.064 18.992-10.086 29.954 0 1.664 0.076 3.216 0.222 4.658 0.996 11.494 6.068 22.372 14.284 30.634 8.386 8.432 19.05 13.448 30.814 14.502 1.458 0.136 2.952 0.206 4.428 0.206l19.554 0.04a17.696 17.696 0 0 1 12.606 5.274 17.732 17.732 0 0 1 5.212 12.648 17.79 17.79 0 0 1-4.91 12.284l-0.36 0.36a17.68 17.68 0 0 1-9.336 4.886 17.044 17.044 0 0 1-3.254 0.31h-0.048l-9.836-0.02-36.34-0.1-7.168-0.02-0.288-0.002c-8.734 0-15.84 7.17-15.84 15.96a15.88 15.88 0 0 0 4.664 11.348 15.836 15.836 0 0 0 11.282 4.694l27.374 0.06h0.28v0.268l-0.04 21.81a15.876 15.876 0 0 0 4.648 11.326 15.932 15.932 0 0 0 11.352 4.716c8.79 0 15.968-7.158 16-15.98v-1.886l0.048-20.548a49.466 49.466 0 0 0 16.608-5.094 49.38 49.38 0 0 0 12.376-8.958c0.276-0.256 0.538-0.534 0.786-0.832a49.52 49.52 0 0 0 13.792-30.194c0.138-1.408 0.208-2.858 0.208-4.298 0.022-13.342-5.13-25.88-14.508-35.302-9.416-9.462-21.932-14.684-35.252-14.708h-4.124l-15.396-0.04a17.8 17.8 0 0 1-12.646-5.274 17.712 17.712 0 0 1-5.192-12.638 17.92 17.92 0 0 1 2.452-9.02 17.744 17.744 0 0 1 2.822-3.636c3.364-3.348 7.84-5.192 12.652-5.192l8.282 0.02 45.174 0.1c8.79 0 15.968-7.15 16-15.938v-0.104c-0.032-8.768-7.19-15.926-15.966-15.958l-27.638-0.066 0.062-22.074c0-8.834-7.168-16.02-16-16.02-8.822 0-16 7.16-16 15.942l-0.064 22.464m15.804-50.488c-4 0-7.96 0.18-11.88 0.54-18.02 1.58-35.02 6.74-50.28 14.8a131.162 131.162 0 0 0-24.32 16.44 131.27 131.27 0 0 0-19.18 19.96 127.668 127.668 0 0 0-8.12 11.66 132.27 132.27 0 0 0-15.46 35.46 133.214 133.214 0 0 0-4.66 35.04c0 73.84 60.06 133.9 133.9 133.9 12.12 0 23.88-1.62 35.04-4.66a132.144 132.144 0 0 0 35.44-15.46 122.9 122.9 0 0 0 11.66-8.14c7.32-5.66 14.02-12.1 19.96-19.16 6.36-7.46 11.88-15.62 16.46-24.34 8.04-15.26 13.2-32.26 14.78-50.26 0.36-3.92 0.54-7.88 0.54-11.88 0-73.84-60.06-133.9-133.88-133.9z m9.62 191.68h0.06c1.48 0 2.96-0.14 4.4-0.42 4.68-0.86 8.98-3.1 12.42-6.52l0.42-0.42c4.26-4.44 6.6-10.28 6.62-16.46 0.02-6.38-2.46-12.38-6.96-16.9a23.684 23.684 0 0 0-16.84-7.04l-19.56-0.04c-1.3 0-2.6-0.06-3.88-0.18-10.26-0.92-19.76-5.36-27.12-12.76-7.28-7.32-11.68-16.76-12.56-26.92-0.14-1.38-0.2-2.76-0.2-4.14 0.02-9.64 3.12-18.78 8.86-26.32 1.22-1.64 2.58-3.2 4.06-4.68 5.76-5.72 12.84-9.66 20.54-11.52a44 44 0 0 1 10.3-1.24l0.08-28.08c0-5.5 4.48-9.96 10-9.96h0.02c5.52 0 9.98 4.5 9.98 10.02l-0.08 28.06 33.64 0.08a10.02 10.02 0 0 1 9.98 9.98v0.06a10.008 10.008 0 0 1-10 9.96h-0.02l-45.14-0.1-8.28-0.02h-0.06c-6.36 0-12.34 2.46-16.84 6.94a23.834 23.834 0 0 0-7.04 16.88c-0.02 6.38 2.44 12.38 6.94 16.9s10.5 7.02 16.88 7.04l15.4 0.04h4.14c11.72 0.02 22.72 4.62 31 12.94 8.26 8.3 12.78 19.34 12.76 31.06 0 1.24-0.06 2.5-0.18 3.72-0.86 10.1-5.14 19.5-12.32 26.8-0.12 0.16-0.26 0.32-0.42 0.46a43.496 43.496 0 0 1-10.96 7.96c-6.08 3.14-12.86 4.8-19.88 4.82l-0.06 26.16v1.9a10.012 10.012 0 0 1-10 9.98h-0.04a9.986 9.986 0 0 1-9.96-10.02l0.04-21.82 0.02-6.26-6.28-0.02-27.38-0.06c-5.52 0-9.98-4.5-9.96-10.02 0-5.46 4.364-9.982 9.84-9.982l0.18 0.002 7.26 0.02 36.34 0.1h0.08l9.76 0.02z" fill="#231F20" opacity=".2" p-id="48074"></path><path d="M976.86 687.98H520.36L151.28 688c-1.34-0.02-2.7 0.2-4 0.76l-104 43.5c-0.22 0.08-0.38 0.2-0.58 0.3-0.38 0.2-0.76 0.38-1.12 0.62-0.26 0.16-0.48 0.38-0.72 0.58-0.28 0.2-0.54 0.42-0.8 0.66-0.24 0.24-0.42 0.5-0.64 0.76-0.2 0.26-0.42 0.48-0.6 0.74a11.4 11.4 0 0 0-0.64 1.2c-0.08 0.16-0.2 0.32-0.28 0.5v0.04c-0.26 0.6-0.44 1.24-0.58 1.88-0.06 0.26-0.04 0.54-0.08 0.8-0.04 0.38-0.1 0.76-0.1 1.14s0.06 0.76 0.1 1.14c0.04 0.28 0.02 0.54 0.08 0.8 0.14 0.66 0.32 1.28 0.58 1.88v0.04c0.24 0.54 0.52 1.04 0.82 1.52 0.08 0.12 0.16 0.24 0.26 0.36 0.26 0.38 0.54 0.72 0.84 1.04 0.12 0.14 0.24 0.26 0.36 0.38 0.36 0.34 0.72 0.64 1.1 0.92 0.1 0.08 0.18 0.16 0.28 0.22a10.106 10.106 0 0 0 1.72 0.92l103.98 43.5c1.26 0.54 2.58 0.78 3.86 0.78 0.06 0 0.12-0.02 0.18-0.02h369c0.06 0 0.1 0.02 0.16 0.02 0.04 0 0.1-0.02 0.14-0.02h399.96v24.04h-169.78c-5.54 0-10 4.48-10 10s4.46 10 10 10h179.78c5.52 0 10-4.48 10-10v-34.02h36.3c5.54 0 10-4.48 10-10v-87c0-5.52-4.46-10-10-10zM141.12 769.96l-68.08-28.48 68.08-28.48v56.96z m369.34 5H161.12v-23.48h349.34v23.48z m0-43.48H161.12V708l349.34-0.02v23.5z m410.1 43.48H530.46v-66.98h390.1l-0.02 33.5 0.02 33.48z m46.3 0.02h-26.3l-0.02-33.5 0.02-33.5h26.3v67z" fill="#23130D" p-id="48075"></path><path d="M141.12 713v56.96l-68.08-28.48z" fill="#636368" p-id="48076"></path><path d="M141.12 751.48v18.48l-68.08-28.48 22.08-9.24z" opacity=".2" p-id="48077"></path><path d="M510.46 707.98v23.5H161.12V708z" fill="#E1E1E5" p-id="48078"></path><path d="M510.46 707.98v11.75H161.12v-11.74z" fill="#FFFFFF" opacity=".7" p-id="48079"></path><path d="M161.12 751.48h349.34v23.48H161.12z" fill="#E1E1E5" p-id="48080"></path><path d="M966.86 707.98v67h-26.3l-0.02-33.5 0.02-33.5z" fill="#F9C139" p-id="48081"></path><path d="M966.86 751.48v23.5h-26.3l-0.02-33.5v-11.74l0.02 21.74z" opacity=".2" p-id="48082"></path><path d="M920.54 741.48l0.02 33.48H530.46v-66.98h390.1z" fill="#3594BF" p-id="48083"></path><path d="M912.556 715.98l-0.016 25.504 0.016 25.476H538.46v-50.98h374.096m8.004-8H530.46v66.98h390.1l-0.02-33.48 0.02-33.5z" opacity=".2" p-id="48084"></path><path d="M867.6 416.96c0 5.52-4.48 10-10 10H564.16c-5.52 0-10-4.48-10-10s4.48-10 10-10H857.6c5.52 0 10 4.48 10 10zM812.72 356.26c0 5.52-4.48 10-10 10H547.44c-5.52 0-10-4.48-10-10 0-5.54 4.48-10 10-10h255.28c5.52 0 10 4.46 10 10zM766.98 295.54c0 5.52-4.48 10-10 10H513.48c-5.52 0-10-4.48-10-10s4.48-10 10-10h243.5c5.52 0 10 4.48 10 10zM766.98 538.36c0 5.54-4.48 10-10 10H513.48c-5.52 0-10-4.46-10-10 0-5.52 4.48-10 10-10h243.5c5.52 0 10 4.48 10 10zM812.72 477.66c0 5.52-4.48 10-10 10H547.44c-5.52 0-10-4.48-10-10s4.48-10 10-10h255.28c5.52 0 10 4.48 10 10z" fill="#23130D" p-id="48085"></path><path d="M510.46 763.22v11.75H161.12v-11.74z" opacity=".2" p-id="48086"></path><path d="M725.52 707.98h36v66.98h-36zM775.5 707.98h27.68v66.98h-27.68zM832.02 707.98h46v66.98h-46z" fill="#FFFFFF" opacity=".4" p-id="48087"></path><path d="M324.62 494.66l6.28 0.02-0.02 6.26zM355.2 474.32c-1.44 0.28-2.92 0.42-4.4 0.42h-0.06l-9.76-0.02h-0.06-0.02l-36.34-0.1-92.68-92.7a132.27 132.27 0 0 1 15.46-35.46l127.86 127.86zM411.6 530.74a132.144 132.144 0 0 1-35.44 15.46l-25.32-25.3 0.06-26.16c7.02-0.02 13.8-1.68 19.88-4.82l40.82 40.82zM296.4 356.62c-5.74 7.54-8.84 16.68-8.86 26.32 0 1.38 0.06 2.76 0.2 4.14l-52.28-52.28c5.68-7.32 12.12-14.02 19.18-19.96l41.76 41.78zM331.36 406.94c-6.38-0.02-12.38-2.52-16.88-7.04s-6.96-10.52-6.94-16.9c0.02-4.28 1.14-8.4 3.26-12l35.96 35.98-15.4-0.04zM367.7 434.02c4.5 4.52 6.98 10.52 6.96 16.9-0.02 6.18-2.36 12.02-6.62 16.46l-40.62-40.62c1.28 0.12 2.58 0.18 3.88 0.18l19.56 0.04c6.36 0.02 12.36 2.52 16.84 7.04zM443.22 503.44a130.184 130.184 0 0 1-19.96 19.16l-41.1-41.1c7.18-7.3 11.46-16.7 12.32-26.8l48.74 48.74zM341.38 301.14c-5.52 0-10 4.46-10 9.96l-0.08 28.08a44 44 0 0 0-10.3 1.24l-42.04-42.02a132.19 132.19 0 0 1 50.28-14.8l55.7 55.7-33.64-0.08 0.08-28.06c0-5.52-4.46-10.02-9.98-10.02h-0.02zM474.46 428.84c-1.58 18-6.74 35-14.78 50.26l-119.92-119.9 45.14 0.1h0.02c5.5 0 9.98-4.46 10-9.96v-0.04l79.54 79.54z" fill="#FFFFFF" opacity=".4" p-id="48088"></path></svg>