<?xml version="1.0" standalone="no"?><!DOCTYPE svg PUBLIC "-//W3C//DTD SVG 1.1//EN" "http://www.w3.org/Graphics/SVG/1.1/DTD/svg11.dtd"><svg t="1625811835292" class="icon" viewBox="0 0 1024 1024" version="1.1" xmlns="http://www.w3.org/2000/svg" p-id="40323" xmlns:xlink="http://www.w3.org/1999/xlink" width="200" height="200"><defs><style type="text/css"></style></defs><path d="M995.44 793.56h-38.86v-105.2c-0.08-87.78-71.48-159.18-159.26-159.18H769.6v-38.34c0-5.52-4.48-10-10-10h-46.2c-5.52 0-10 4.48-10 10v38.34h-66.66a143.45 143.45 0 0 0-37.94-43.38v-48.94h20.04c5.52 0 10-4.48 10-10v-46.2c0-5.52-4.48-10-10-10H552v-49.78l86.36-91.3h28.98c18 0 32.66-14.66 32.66-32.68 0-18-14.66-32.66-32.66-32.66H356.66c-18 0-32.66 14.66-32.66 32.66 0 18.02 14.66 32.68 32.66 32.68h28.98L472 320.88v49.78h-66.84c-5.52 0-10 4.48-10 10v46.2c0 5.52 4.48 10 10 10h20.04v48.92a143.76 143.76 0 0 0-37.94 43.4H320.6v-38.34c0-5.52-4.48-10-10-10h-46.2c-5.52 0-10 4.48-10 10v38.34h-27.72c-87.84 0-159.3 71.46-159.3 159.3v105.08H28.56c-5.52 0-10 4.48-10 10v46.2c0 5.52 4.48 10 10 10h213.66c5.52 0 10-4.48 10-10v-46.2c0-5.52-4.48-10-10-10h-39.74v-105.1c0.02-13.34 10.86-24.18 24.2-24.18h27.72v40.24c0 5.52 4.48 10 10 10h46.2c5.52 0 10-4.48 10-10v-40.24h63.08c23.62 46.98 72.24 79.32 128.32 79.32 56.06 0 104.7-32.34 128.3-79.32h63.1v40.24c0 5.52 4.48 10 10 10h46.2c5.52 0 10-4.48 10-10v-40.24h27.72c13.32 0 24.16 10.84 24.18 24.18v105.1h-39.72c-5.54 0-10 4.48-10 10v46.2c0 5.52 4.46 10 10 10h213.66c5.52 0 10-4.48 10-10v-46.2c0-5.52-4.48-10-10-10z m-763.22 20v26.2H38.56v-26.2h193.66z m22.18-169.28h-27.72c-24.38 0-44.2 19.82-44.2 44.2V793.56H87.38V688.4c0.04-76.78 62.52-139.22 139.3-139.22h27.72v95.1z m46.2 50.24h-26.2v-193.68h26.2v193.68z m74.86-50.24H320.6v-95.1h57.22a143.304 143.304 0 0 0-9.36 50.9c0 15.42 2.48 30.26 7 44.2z m-18.8-434.7c-6.98 0-12.66-5.68-12.66-12.68 0-6.98 5.68-12.66 12.66-12.66h310.68c6.98 0 12.66 5.68 12.66 12.66 0 7-5.68 12.68-12.66 12.68H356.66z m56.5 20h197.68L552 291.78v-3.36c0-5.52-4.48-10-10-10h-60c-5.52 0-10 4.48-10 10v3.36l-58.84-62.2zM532 298.42v72.24h-40v-72.24h40z m-116.84 118.44v-26.2h193.68v26.2h-20.02H415.16zM512 723.6c-68.12 0-123.54-55.42-123.54-123.52 0-40.14 19.62-77.92 52.48-101.06 0.18-0.12 0.3-0.26 0.44-0.38 0.34-0.26 0.68-0.54 1-0.84 0.2-0.22 0.36-0.44 0.54-0.66 0.22-0.28 0.46-0.56 0.66-0.86 0.16-0.26 0.28-0.52 0.4-0.76 0.18-0.32 0.36-0.64 0.48-0.98 0.12-0.26 0.18-0.54 0.26-0.82 0.1-0.34 0.22-0.68 0.28-1.04 0.08-0.32 0.08-0.66 0.12-1 0.02-0.28 0.08-0.54 0.08-0.84v-53.98h133.6v53.98c0 0.24 0.06 0.46 0.08 0.7 0.02 0.38 0.04 0.78 0.12 1.16 0.06 0.32 0.16 0.62 0.24 0.94 0.1 0.3 0.18 0.62 0.3 0.92 0.12 0.3 0.28 0.6 0.44 0.88 0.14 0.28 0.28 0.58 0.44 0.84 0.2 0.28 0.4 0.54 0.62 0.8 0.2 0.24 0.38 0.5 0.6 0.72 0.28 0.28 0.58 0.54 0.9 0.78 0.18 0.14 0.32 0.32 0.5 0.44 32.86 23.14 52.48 60.92 52.48 101.06 0 68.1-55.4 123.52-123.52 123.52z m191.4-79.32h-54.88c4.54-13.94 7-28.78 7-44.2 0-17.62-3.26-34.84-9.36-50.9h57.24v95.1z m46.2 50.24h-26.2v-193.68h26.2v193.68z m47.72-50.24H769.6v-95.1h27.72c76.78 0 139.26 62.48 139.26 139.3v105.08h-95.08v-105.04-0.04c0-24.38-19.82-44.2-44.18-44.2z m188.12 195.48h-193.66v-26.2h193.66v26.2z" fill="#23130D" p-id="40324"></path><path d="M680 196.9c0 7-5.68 12.68-12.66 12.68H356.66c-6.98 0-12.66-5.68-12.66-12.68 0-6.98 5.68-12.66 12.66-12.66h310.68c6.98 0 12.66 5.68 12.66 12.66z" fill="#E1E1E5" p-id="40325"></path><path d="M680 196.9c0 7-5.68 12.68-12.66 12.68H356.66c-6.98 0-12.66-5.68-12.66-12.68 0-2.3 0.62-4.46 1.72-6.32a12.608 12.608 0 0 0 10.94 6.32h310.68c4.68 0 8.76-2.54 10.94-6.32 1.1 1.86 1.72 4.02 1.72 6.32z" fill="#23130D" opacity=".2" p-id="40326"></path><path d="M492 298.42h40v72.24h-40z" fill="#E1E1E5" p-id="40327"></path><path d="M608.84 390.66v26.2h-20.02H415.16v-26.2h193.68zM38.56 813.56h193.66v26.2H38.56zM274.4 500.84h26.2v193.68h-26.2z" fill="#636368" p-id="40328"></path><path d="M368.46 600.08c0 15.42 2.48 30.26 7 44.2H320.6v-95.1h57.22a143.304 143.304 0 0 0-9.36 50.9z" fill="#E1E1E5" p-id="40329"></path><path d="M723.4 500.84h26.2v193.68h-26.2z" fill="#636368" p-id="40330"></path><path d="M703.4 549.18v95.1h-54.88c4.54-13.94 7-28.78 7-44.2 0-17.62-3.26-34.84-9.36-50.9h57.24z" fill="#E1E1E5" p-id="40331"></path><path d="M791.78 813.56h193.66v26.2h-193.66z" fill="#636368" p-id="40332"></path><path d="M936.58 688.48v105.08h-95.08v-105.04-0.04c0-24.38-19.82-44.2-44.18-44.2H769.6v-95.1h27.72c76.78 0 139.26 62.48 139.26 139.3zM254.4 549.18v95.1h-27.72c-24.38 0-44.2 19.82-44.2 44.2V793.56H87.38V688.4c0.04-76.78 62.52-139.22 139.3-139.22h27.72z" fill="#E1E1E5" p-id="40333"></path><path d="M371.96 568.68H320.6v-19.5h57.22a142.188 142.188 0 0 0-5.86 19.5zM254.4 549.18v21.58h-6.14c-76.78 0-139.26 62.44-139.3 139.22v83.58H87.38V688.4c0.04-76.78 62.52-139.22 139.3-139.22h27.72z" fill="#23130D" opacity=".2" p-id="40334"></path><path d="M652.02 568.68h51.36v-19.5h-57.22c2.42 6.34 4.36 12.84 5.86 19.5zM769.58 549.18v21.58h6.14c76.78 0 139.26 62.44 139.3 139.22v83.58h21.58V688.4c-0.04-76.78-62.52-139.22-139.3-139.22h-27.72z" fill="#23130D" opacity=".2" p-id="40335"></path><path d="M635.52 600.08c0 68.1-55.4 123.52-123.52 123.52s-123.54-55.42-123.54-123.52c0-40.14 19.62-77.92 52.48-101.06 0.18-0.12 0.3-0.26 0.44-0.38 0.34-0.26 0.68-0.54 1-0.84 0.2-0.22 0.36-0.44 0.54-0.66 0.22-0.28 0.46-0.56 0.66-0.86 0.16-0.26 0.28-0.52 0.4-0.76 0.18-0.32 0.36-0.64 0.48-0.98 0.12-0.26 0.18-0.54 0.26-0.82 0.1-0.34 0.22-0.68 0.28-1.04 0.08-0.32 0.08-0.66 0.12-1 0.02-0.28 0.08-0.54 0.08-0.84v-53.98h133.6v53.98c0 0.24 0.06 0.46 0.08 0.7 0.02 0.38 0.04 0.78 0.12 1.16 0.06 0.32 0.16 0.62 0.24 0.94 0.1 0.3 0.18 0.62 0.3 0.92 0.12 0.3 0.28 0.6 0.44 0.88 0.14 0.28 0.28 0.58 0.44 0.84 0.2 0.28 0.4 0.54 0.62 0.8 0.2 0.24 0.38 0.5 0.6 0.72 0.28 0.28 0.58 0.54 0.9 0.78 0.18 0.14 0.32 0.32 0.5 0.44 32.86 23.14 52.48 60.92 52.48 101.06z" fill="#3594BF" p-id="40336"></path><path d="M531.64 722.04c-6.4 1.02-12.96 1.56-19.64 1.56-68.12 0-123.54-55.42-123.54-123.52 0-40.14 19.62-77.92 52.48-101.06 0.18-0.12 0.3-0.26 0.44-0.38 0.34-0.26 0.68-0.54 1-0.84 0.2-0.22 0.36-0.44 0.54-0.66 0.22-0.28 0.46-0.56 0.66-0.86 0.16-0.26 0.28-0.52 0.4-0.76 0.18-0.32 0.36-0.64 0.48-0.98 0.12-0.26 0.18-0.54 0.26-0.82 0.1-0.34 0.22-0.68 0.28-1.04 0.08-0.32 0.08-0.66 0.12-1 0.02-0.28 0.08-0.54 0.08-0.84v-53.98h39.26v53.98c0 0.3-0.06 0.56-0.08 0.84-0.04 0.34-0.04 0.68-0.12 1-0.06 0.36-0.18 0.7-0.28 1.04-0.08 0.28-0.14 0.56-0.26 0.82-0.12 0.34-0.3 0.66-0.48 0.98-0.12 0.24-0.24 0.5-0.4 0.76-0.2 0.3-0.44 0.58-0.66 0.86-0.18 0.22-0.34 0.44-0.54 0.66-0.32 0.3-0.66 0.58-1 0.84-0.14 0.12-0.26 0.26-0.44 0.38-32.86 23.14-52.48 60.92-52.48 101.06 0 61.42 45.08 112.54 103.92 121.96z" fill="#23130D" opacity=".2" p-id="40337"></path></svg>