<?xml version="1.0" standalone="no"?><!DOCTYPE svg PUBLIC "-//W3C//DTD SVG 1.1//EN" "http://www.w3.org/Graphics/SVG/1.1/DTD/svg11.dtd"><svg t="1625812330508" class="icon" viewBox="0 0 1024 1024" version="1.1" xmlns="http://www.w3.org/2000/svg" p-id="61328" xmlns:xlink="http://www.w3.org/1999/xlink" width="200" height="200"><defs><style type="text/css"></style></defs><path d="M882.6 834.64V195.7c0-19.62-15.96-35.56-35.56-35.56h-133.16v-12.52c0-19.6-15.94-35.54-35.54-35.54h-41.8V34.52c0-5.52-4.48-10-10-10h-127.72c-5.52 0-10 4.48-10 10v77.56h-41.8c-19.6 0-35.54 15.94-35.54 35.54v12.52h-133.14c-19.62 0-35.56 15.94-35.56 35.56v747.54c0 19.6 15.94 35.54 35.56 35.54h42.1c15.86 12.94 36.1 20.7 58.1 20.7h447.52c50.82 0 92.16-41.34 92.16-92.14 0-29.52-13.96-55.84-35.62-72.7zM508.82 44.52h107.72v115.62h-107.72V44.52z m-77.34 103.1c0-8.58 6.98-15.54 15.54-15.54h41.8v28.06h-26.54c-5.52 0-10 4.48-10 10s4.48 10 10 10h200.8c5.54 0 10-4.48 10-10s-4.46-10-10-10h-26.54V132.08h41.8c8.56 0 15.54 6.96 15.54 15.54v45.04c0 8.58-6.98 15.54-15.54 15.54H447.02c-8.56 0-15.54-6.96-15.54-15.54V147.62z m-153.14 811.16c-8.58 0-15.56-6.98-15.56-15.54V195.7c0-8.58 6.98-15.56 15.56-15.56h133.14v12.52c0 19.6 15.94 35.54 35.54 35.54h231.32c19.6 0 35.54-15.94 35.54-35.54v-12.52h133.16c8.58 0 15.56 6.98 15.56 15.56v627.04c-8.3-3.58-17.2-6-26.54-7.02V259.62c0-5.52-4.48-10-10-10H296.4c-5.52 0-10 4.48-10 10v647.72c0 19.04 5.8 36.74 15.74 51.44h-23.8z m100.2 20.7c-39.78 0-72.14-32.36-72.14-72.14V269.62h509.66v545.56H378.54c-5.52 0-10 4.48-10 10s4.48 10 10 10c39.8 0 72.16 32.36 72.16 72.16 0 39.78-32.36 72.14-72.16 72.14z m447.52 0H435.78c21.26-16.9 34.92-42.94 34.92-72.14 0-29.22-13.66-55.26-34.92-72.16h390.28c19.9 0 37.94 8.1 51 21.16 13.06 13.06 21.16 31.1 21.16 51 0 39.78-32.38 72.14-72.16 72.14z" fill="#23130D" p-id="61329"></path><path d="M693.88 147.62v45.04c0 8.58-6.98 15.54-15.54 15.54H447.02c-8.56 0-15.54-6.96-15.54-15.54V147.62c0-8.58 6.98-15.54 15.54-15.54h41.8v28.06h-26.54c-5.52 0-10 4.48-10 10s4.48 10 10 10h200.8c5.54 0 10-4.48 10-10s-4.46-10-10-10h-26.54V132.08h41.8c8.56 0 15.54 6.96 15.54 15.54z" fill="#E1E1E5" p-id="61330"></path><path d="M678.34 138.08c5.26 0 9.54 4.28 9.54 9.54v45.04c0 5.26-4.28 9.54-9.54 9.54H447.02c-5.26 0-9.54-4.28-9.54-9.54V147.62c0-5.26 4.28-9.54 9.54-9.54h35.8v16.06h-20.54c-8.822 0-16 7.178-16 16s7.178 16 16 16h200.8c8.822 0 16-7.178 16-16s-7.178-16-16-16h-20.54v-16.06h35.8m0-6h-41.8v28.06h26.54c5.54 0 10 4.48 10 10s-4.46 10-10 10h-36.52-164.28c-5.52 0-10-4.48-10-10s4.48-10 10-10h26.54V132.08h-41.8c-8.56 0-15.54 6.96-15.54 15.54v45.04c0 8.58 6.98 15.54 15.54 15.54h231.32c8.56 0 15.54-6.96 15.54-15.54V170.18v-0.04-22.52c0-8.58-6.98-15.54-15.54-15.54z" opacity=".2" p-id="61331"></path><path d="M508.82 44.52h107.72v115.62h-107.72z" fill="#F9C139" p-id="61332"></path><path d="M610.54 50.52v103.62h-95.72V50.52h95.72m6-6h-107.72v115.62h107.72V44.52z" opacity=".2" p-id="61333"></path><path d="M862.6 195.7v627.04c-8.3-3.58-17.2-6-26.54-7.02V259.62c0-5.52-4.48-10-10-10H296.4c-5.52 0-10 4.48-10 10v647.72c0 19.04 5.8 36.74 15.74 51.44h-23.8c-8.58 0-15.56-6.98-15.56-15.54V195.7c0-8.58 6.98-15.56 15.56-15.56h133.14v12.52c0 19.6 15.94 35.54 35.54 35.54h231.32c19.6 0 35.54-15.94 35.54-35.54v-12.52h133.16c8.58 0 15.56 6.98 15.56 15.56z" fill="#3594BF" p-id="61334"></path><path d="M862.6 195.7v14.66c0-8.58-6.98-15.56-15.56-15.56h-133.16v12.52c0 19.6-15.94 35.54-35.54 35.54H447.02c-19.6 0-35.54-15.94-35.54-35.54V194.8h-133.14c-8.58 0-15.56 6.98-15.56 15.56v-14.66c0-8.58 6.98-15.56 15.56-15.56h133.14v12.52c0 19.6 15.94 35.54 35.54 35.54h231.32c19.6 0 35.54-15.94 35.54-35.54v-12.52h133.16c8.58 0 15.56 6.98 15.56 15.56z" fill="#FFFFFF" opacity=".3" p-id="61335"></path><path d="M898.22 907.34c0 39.78-32.38 72.14-72.16 72.14H435.78c21.26-16.9 34.92-42.94 34.92-72.14 0-29.22-13.66-55.26-34.92-72.16h390.28c19.9 0 37.94 8.1 51 21.16 13.06 13.06 21.16 31.1 21.16 51z" fill="#636368" p-id="61336"></path><path d="M898.22 907.34c0 39.78-32.38 72.14-72.16 72.14H435.78c10.78-8.58 19.62-19.5 25.7-32h364.58c34.3 0 63.1-24.06 70.38-56.18 1.16 5.16 1.78 10.54 1.78 16.04z" opacity=".2" p-id="61337"></path><path d="M378.54 815.18h437.52V269.62H306.4v637.72c0 39.78 32.36 72.14 72.14 72.14 39.8 0 72.16-32.36 72.16-72.14 0-39.8-32.36-72.16-72.16-72.16-5.52 0-10-4.48-10-10s4.48-10 10-10z m0.24-441.98c0-5.52 4.48-10 10-10h81.92v-42.02c0-5.52 4.48-10 10-10h242.34c5.52 0 10 4.48 10 10v197.06c0 5.52-4.48 10-10 10h-85.36v42.02c0 5.52-4.48 10-10 10h-91.94c-5.52 0-10-4.48-10-10v-42.02h-126.96v132.6h42.04c5.52 0 10 4.48 10 10v81.9h74.92v-119.4c0-5.52 4.48-10 10-10h119.68c5.52 0 10 4.48 10 10v129.42c0 5.52-4.48 10-10 10h-119.66c-0.02 0-0.02-0.02-0.04-0.02h-94.9c-5.52 0-10-4.48-10-10v-81.9h-42.04c-5.52 0-10-4.48-10-10V373.2z" fill="#E1E1E5" p-id="61338"></path><path d="M449.2 892.62c-6.82 32.76-35.9 57.44-70.66 57.44-39.78 0-72.14-32.36-72.14-72.14v29.42c0 39.78 32.36 72.14 72.14 72.14 39.8 0 72.16-32.36 72.16-72.14 0-5.04-0.52-9.98-1.5-14.72z" opacity=".2" p-id="61339"></path><path d="M723.04 311.18H480.7c-5.52 0-10 4.48-10 10v42.02h-81.92c-5.52 0-10 4.48-10 10v297.64c0 5.52 4.48 10 10 10h42.04v81.9c0 5.52 4.48 10 10 10h94.9c0.02 0 0.02 0.02 0.04 0.02h119.66c5.52 0 10-4.48 10-10v-129.42c0-5.52-4.48-10-10-10h-119.68c-5.52 0-10 4.48-10 10v119.4h-74.92v-81.9c0-5.52-4.48-10-10-10h-42.04v-132.6h126.96v42.02c0 5.52 4.48 10 10 10h91.94c5.52 0 10-4.48 10-10v-42.02h85.36c5.52 0 10-4.48 10-10v-197.06c0-5.52-4.48-10-10-10z m-177.28 332.16h99.66v109.42h-99.66v-109.42z m167.28-135.1h-85.36c-5.52 0-10 4.46-10 10v42.02h-71.94v-42.02c0-5.54-4.46-10-10-10h-136.96V383.2h81.92c5.54 0 10-4.48 10-10v-42.02h222.34v177.06z" fill="#23130D" p-id="61340"></path><path d="M545.76 643.34h99.66v109.42h-99.66zM713.04 331.18v177.06h-85.36c-5.52 0-10 4.46-10 10v42.02h-71.94v-42.02c0-5.54-4.46-10-10-10h-136.96V383.2h81.92c5.54 0 10-4.48 10-10v-42.02h222.34z" fill="#636368" p-id="61341"></path><path d="M635.42 653.34v89.42h-79.66v-89.42h79.66m10-10h-99.66v109.42h99.66v-109.42zM703.04 341.18v157.06h-75.36c-11.028 0-20 8.972-20 20v32.02h-51.94v-32.02c0-11.028-8.972-20-20-20h-126.96V393.2h71.92c11.028 0 20-8.972 20-20v-32.02h202.34m10-10H490.7v42.02c0 5.52-4.46 10-10 10h-81.92v125.04h136.96c5.54 0 10 4.46 10 10v42.02h71.94v-42.02c0-5.54 4.48-10 10-10h85.36v-177.06z" opacity=".2" p-id="61342"></path><path d="M199.56 197.48a9.92 9.92 0 0 0-0.76-3.98L161.9 105.28c-0.06-0.16-0.16-0.3-0.24-0.46-0.2-0.42-0.42-0.84-0.68-1.24-0.16-0.26-0.38-0.48-0.56-0.7-0.22-0.28-0.42-0.56-0.68-0.8-0.24-0.26-0.52-0.46-0.78-0.68-0.24-0.18-0.46-0.4-0.72-0.56-0.4-0.26-0.82-0.48-1.24-0.68-0.16-0.08-0.3-0.18-0.46-0.24-0.02-0.02-0.02-0.02-0.04-0.02-0.6-0.24-1.24-0.44-1.88-0.56-0.26-0.06-0.52-0.06-0.78-0.08-0.38-0.06-0.76-0.12-1.16-0.12-0.4 0-0.78 0.06-1.16 0.12-0.26 0.02-0.52 0.02-0.78 0.08-0.66 0.12-1.28 0.32-1.88 0.56-0.02 0-0.02 0-0.04 0.02-0.16 0.06-0.3 0.16-0.46 0.24-0.42 0.2-0.84 0.42-1.24 0.68-0.26 0.16-0.48 0.38-0.72 0.56-0.26 0.22-0.54 0.42-0.78 0.68-0.26 0.24-0.46 0.52-0.68 0.78-0.18 0.24-0.4 0.46-0.56 0.72-0.26 0.4-0.48 0.82-0.68 1.24-0.08 0.16-0.18 0.3-0.24 0.46l-36.9 88.2c-0.56 1.32-0.78 2.7-0.76 4.04v742.36c0 0.06-0.02 0.12-0.02 0.2v0.04l0.02 39.24c0 0.32 0.06 0.62 0.08 0.92 0.04 0.36 0.04 0.74 0.12 1.1 0.02 0.08 0.04 0.14 0.06 0.24 1.04 4.42 4.98 7.74 9.74 7.74h73.78c5.52 0 10-4.48 10-10v-39.28l-0.02-742.6zM152.68 135.06l21.88 52.3H130.8l21.88-52.3zM125.8 207.36h16.88v722.7H125.8V207.36z m53.78 762h-53.8v-19.3h53.8v19.3z m-16.9-39.3V207.36h16.88l0.02 722.7h-16.9z" fill="#23130D" p-id="61343"></path><path d="M125.78 950.06h53.8v19.3h-53.8z" fill="#EC7063" p-id="61344"></path><path d="M152.68 950.06h26.9v19.3H152.68z" opacity=".2" p-id="61345"></path><path d="M125.8 207.36h16.88v722.7H125.8zM179.58 930.06h-16.9V207.36h16.88z" fill="#F9C139" p-id="61346"></path><path d="M179.58 930.06h-16.9V207.36h16.88z" opacity=".2" p-id="61347"></path><path d="M174.56 187.36H130.8l21.88-52.3z" fill="#E1E1E5" p-id="61348"></path><path d="M174.56 187.36h-14.34L145.52 152.2l7.16-17.14z" opacity=".2" p-id="61349"></path><path d="M593.64 160.14H565.2l-56.38-56.38V75.32zM616.54 150.14v10h-11.86l-95.86-95.86v-19.76h2.1zM616.54 91.04v36.32l-82.84-82.84h36.32z" fill="#FFFFFF" opacity=".4" p-id="61350"></path></svg>