<?xml version="1.0" standalone="no"?><!DOCTYPE svg PUBLIC "-//W3C//DTD SVG 1.1//EN" "http://www.w3.org/Graphics/SVG/1.1/DTD/svg11.dtd"><svg t="1625811492118" class="icon" viewBox="0 0 1024 1024" version="1.1" xmlns="http://www.w3.org/2000/svg" p-id="31815" xmlns:xlink="http://www.w3.org/1999/xlink" width="200" height="200"><defs><style type="text/css"></style></defs><path d="M828.78 564.96c0-18.7-15.2-33.9-33.9-33.9h-74.6c-4.32-0.02-7.84-3.6-7.84-8 0-2.18 0.86-4.2 2.42-5.7 0.04-0.04 0.06-0.08 0.1-0.12 0.04-0.04 0.1-0.06 0.14-0.1l26.36-26.82c13.22-13.22 13.22-34.74 0-47.96-6.4-6.4-14.92-9.92-23.98-9.92s-17.56 3.52-23.98 9.92l-90.68 90.7c-4.28-2.16-9.08-3.4-14.18-3.4-17.44 0-31.62 14.18-31.62 31.6v150.4c0 17.44 14.18 31.62 31.62 31.62 10 0 18.92-4.68 24.72-11.96 7.32 6.82 17.1 11.02 27.88 11.02h122.48c0.26 0 0.52-0.06 0.78-0.08 17.98-0.82 32.34-15.66 32.34-33.84 0-7.2-2.28-13.88-6.14-19.38 9.32-6.06 15.5-16.52 15.5-28.44 0-7.04-2.16-13.58-5.86-19 9.96-6.04 16.76-16.8 16.76-28.82 0-6.66-2.1-12.94-5.66-18.24 10.34-5.82 17.34-16.88 17.34-29.58z m-228.54 146.72c0 6.4-5.2 11.6-11.6 11.6s-11.62-5.2-11.62-11.62v-150.4a11.608 11.608 0 1 1 23.22 0v150.42z m194.64-132.8h-32.52c-5.52 0-10 4.48-10 10s4.48 10 10 10h20.06c7.82 0 14.68 6.5 14.68 13.9 0 7.42-6.86 13.92-14.68 13.92h-27.1c-5.54 0-10 4.48-10 10s4.46 10 10 10h16.96c7.68 0 13.92 6.24 13.92 13.9 0 7.68-6.24 13.92-13.92 13.92h-27.1c-5.52 0-10 4.48-10 10s4.48 10 10 10H762.94c7.66 0 13.9 6.24 13.9 13.9 0 7.68-6.24 13.92-13.9 13.92h-121.7c-11.58 0-21-9.42-21-21v-140.08c0-5.04-1.22-9.78-3.32-14.02l90.72-90.74c2.64-2.62 6.12-4.06 9.84-4.06s7.22 1.44 9.84 4.06c5.42 5.42 5.42 14.26-0.06 19.74l-26.42 26.88c-0.04 0.02-0.06 0.06-0.08 0.1-5.28 5.2-8.32 12.4-8.32 19.84 0 15.44 12.5 28 27.86 28H794.88c7.66 0 13.9 6.24 13.9 13.9 0 7.68-6.24 13.92-13.9 13.92z" fill="#23130D" p-id="31816"></path><path d="M926.8 377.54H636.06V166.78c0-21.04-17.12-38.16-38.16-38.16H97.2c-21.04 0-38.16 17.12-38.16 38.16v352.5c0 21.04 17.12 38.16 38.16 38.16h31.32v79.02a10.02 10.02 0 0 0 5.42 8.9c1.44 0.74 3.02 1.1 4.58 1.1 2.04 0 4.1-0.62 5.82-1.86l121.74-87.16h121.86V768.2c0 21.04 17.12 38.16 38.16 38.16h331.8l121.76 87.16c1.72 1.24 3.76 1.86 5.82 1.86 1.56 0 3.12-0.36 4.56-1.1a10.024 10.024 0 0 0 5.44-8.9v-79.02h31.32c21.04 0 38.16-17.12 38.16-38.16V415.7c0-21.04-17.12-38.16-38.16-38.16z m-538.86 38.16v121.74h-125.06a10 10 0 0 0-5.82 1.88L148.52 617v-69.56c0-5.52-4.48-10-10-10H97.2c-10.02 0-18.16-8.14-18.16-18.16V166.78c0-10.02 8.14-18.16 18.16-18.16h500.7c10.02 0 18.16 8.14 18.16 18.16v210.76h-189.96c-21.04 0-38.16 17.12-38.16 38.16zM944.96 768.2c0 10.02-8.16 18.16-18.16 18.16h-41.32c-5.52 0-10 4.48-10 10v69.56l-108.28-77.5c-1.68-1.3-3.8-2.06-6.08-2.06H426.1c-10.02 0-18.16-8.14-18.16-18.16V415.7c0-10 8.14-18.16 18.16-18.16H926.8c10 0 18.16 8.16 18.16 18.16V768.2z" fill="#23130D" p-id="31817"></path><path d="M926.8 397.54H426.1c-10.02 0-18.16 8.16-18.16 18.16V768.2c0 10.02 8.14 18.16 18.16 18.16h335.02c2.28 0 4.4 0.76 6.08 2.06l108.28 77.5v-69.56c0-5.52 4.48-10 10-10h41.32c10 0 18.16-8.14 18.16-18.16V415.7c0-10-8.16-18.16-18.16-18.16z m-115.36 197c3.56 5.3 5.66 11.58 5.66 18.24 0 12.02-6.8 22.78-16.76 28.82a33.58 33.58 0 0 1 5.86 19c0 11.92-6.18 22.38-15.5 28.44 3.86 5.5 6.14 12.18 6.14 19.38 0 18.18-14.36 33.02-32.34 33.84-0.26 0.02-0.52 0.08-0.78 0.08h-122.48c-10.78 0-20.56-4.2-27.88-11.02-5.8 7.28-14.72 11.96-24.72 11.96-17.44 0-31.62-14.18-31.62-31.62v-150.4c0-17.42 14.18-31.6 31.62-31.6 5.1 0 9.9 1.24 14.18 3.4l90.68-90.7c6.42-6.4 14.92-9.92 23.98-9.92s17.58 3.52 23.98 9.92c13.22 13.22 13.22 34.74 0 47.96l-26.36 26.82c-0.04 0.04-0.1 0.06-0.14 0.1-0.04 0.04-0.06 0.08-0.1 0.12-1.56 1.5-2.42 3.52-2.42 5.7 0 4.4 3.52 7.98 7.84 8h74.6c18.7 0 33.9 15.2 33.9 33.9 0 12.7-7 23.76-17.34 29.58z" fill="#3594BF" p-id="31818"></path><path d="M600.24 561.26v150.42c0 6.4-5.2 11.6-11.6 11.6s-11.62-5.2-11.62-11.62v-150.4a11.608 11.608 0 1 1 23.22 0z" fill="#E1E1E5" p-id="31819"></path><path d="M752.36 588.88c0 5.52 4.48 10 10 10h20.06c7.82 0 14.68 6.5 14.68 13.9 0 7.42-6.86 13.92-14.68 13.92h-27.1c-5.54 0-10 4.48-10 10s4.46 10 10 10h16.96c7.68 0 13.92 6.24 13.92 13.9 0 7.68-6.24 13.92-13.92 13.92h-27.1c-5.52 0-10 4.48-10 10s4.48 10 10 10H762.94c7.66 0 13.9 6.24 13.9 13.9 0 7.68-6.24 13.92-13.9 13.92h-121.7c-11.58 0-21-9.42-21-21v-140.08c0-5.04-1.22-9.78-3.32-14.02l90.72-90.74c2.64-2.62 6.12-4.06 9.84-4.06s7.22 1.44 9.84 4.06c5.42 5.42 5.42 14.26-0.06 19.74l-26.42 26.88c-0.04 0.02-0.06 0.06-0.08 0.1-5.28 5.2-8.32 12.4-8.32 19.84 0 15.44 12.5 28 27.86 28H794.88c7.66 0 13.9 6.24 13.9 13.9 0 7.68-6.24 13.92-13.9 13.92h-32.52c-5.52 0-10 4.48-10 10z" fill="#F8D3C9" p-id="31820"></path><path d="M661.24 722.34h-20c-11.58 0-21-9.42-21-21v-140.08c0-5.04-1.22-9.78-3.32-14.02l90.72-90.74c2.64-2.62 6.12-4.06 9.84-4.06s7.22 1.44 9.84 4.06l0.16 0.16-90.56 90.58c2.1 4.24 3.32 8.98 3.32 14.02v140.08c0 11.58 9.42 21 21 21z" fill="#23130D" opacity=".2" p-id="31821"></path><path d="M597.9 148.62H97.2c-10.02 0-18.16 8.14-18.16 18.16v352.5c0 10.02 8.14 18.16 18.16 18.16h41.32c5.52 0 10 4.48 10 10v69.56l108.54-77.68a10 10 0 0 1 5.82-1.88h125.06v-121.74c0-21.04 17.12-38.16 38.16-38.16h189.96V166.78c0-10.02-8.14-18.16-18.16-18.16zM247.54 358.66c-18.74 0-34-15.24-34-34 0-18.74 15.26-34 34-34 18.76 0 34 15.26 34 34 0 18.76-15.24 34-34 34z m100 0c-18.74 0-34-15.24-34-34 0-18.74 15.26-34 34-34 18.76 0 34 15.26 34 34 0 18.76-15.24 34-34 34z m100 0c-18.74 0-34-15.24-34-34 0-18.74 15.26-34 34-34 18.76 0 34 15.26 34 34 0 18.76-15.24 34-34 34z" fill="#F9C139" p-id="31822"></path><path d="M597.9 148.62h-1.58V357.8h-141.24a33.386 33.386 0 0 1-15.08 0h-33.66c-21.02 0-38.16 17.12-38.16 38.14v121.74h-125.04a10 10 0 0 0-5.82 1.88l-88.8 63.56v33.88l108.54-77.68a10 10 0 0 1 5.82-1.88h125.06v-121.74c0-21.04 17.12-38.16 38.16-38.16h189.96V166.78c0-10.02-8.14-18.16-18.16-18.16z" fill="#23130D" opacity=".2" p-id="31823"></path><path d="M447.54 290.66c-18.74 0-34 15.26-34 34 0 18.76 15.26 34 34 34 18.76 0 34-15.24 34-34 0-18.74-15.24-34-34-34z m0 48c-7.7 0-14-6.28-14-14s6.3-14 14-14c7.72 0 14 6.28 14 14s-6.28 14-14 14z" fill="#23130D" p-id="31824"></path><path d="M461.54 324.66c0 7.72-6.28 14-14 14-7.7 0-14-6.28-14-14s6.3-14 14-14c7.72 0 14 6.28 14 14z" fill="#E1E1E5" p-id="31825"></path><path d="M347.54 290.66c-18.74 0-34 15.26-34 34 0 18.76 15.26 34 34 34 18.76 0 34-15.24 34-34 0-18.74-15.24-34-34-34z m0 48c-7.7 0-14-6.28-14-14s6.3-14 14-14c7.72 0 14 6.28 14 14s-6.28 14-14 14z" fill="#23130D" p-id="31826"></path><path d="M361.54 324.66c0 7.72-6.28 14-14 14-7.7 0-14-6.28-14-14s6.3-14 14-14c7.72 0 14 6.28 14 14z" fill="#E1E1E5" p-id="31827"></path><path d="M247.54 290.66c-18.74 0-34 15.26-34 34 0 18.76 15.26 34 34 34 18.76 0 34-15.24 34-34 0-18.74-15.24-34-34-34z m0 48c-7.7 0-14-6.28-14-14s6.3-14 14-14c7.72 0 14 6.28 14 14s-6.28 14-14 14z" fill="#23130D" p-id="31828"></path><path d="M261.54 324.66c0 7.72-6.28 14-14 14-7.7 0-14-6.28-14-14s6.3-14 14-14c7.72 0 14 6.28 14 14z" fill="#E1E1E5" p-id="31829"></path></svg>