<?xml version="1.0" standalone="no"?><!DOCTYPE svg PUBLIC "-//W3C//DTD SVG 1.1//EN" "http://www.w3.org/Graphics/SVG/1.1/DTD/svg11.dtd"><svg t="1625811557267" class="icon" viewBox="0 0 1024 1024" version="1.1" xmlns="http://www.w3.org/2000/svg" p-id="34924" xmlns:xlink="http://www.w3.org/1999/xlink" width="200" height="200"><defs><style type="text/css"></style></defs><path d="M723.48 494l-72.42-72.42c6.02-8.74 9.3-19.06 9.36-29.9 0.08-14.26-5.4-27.68-15.42-37.82-10.08-10.22-23.56-15.84-37.92-15.84-4.36 0-8.62 0.52-12.74 1.52-1.96-21.2-11.58-42.2-26.48-56.36l-78.88-76.06-67.66-67.04-11.8-11.42-37.8-37.34-0.02-0.04c-0.02-0.02-0.04-0.02-0.04-0.04l-0.36-0.34-0.46-0.46c-0.02-0.02-0.04-0.04-0.06-0.04l-5.64-5.54a1.362 1.362 0 0 0-0.24-0.24l-17.7-16.82c-11.18-10.66-25.78-16.28-41.06-15.94-14.9 0.38-28.68 6.48-38.84 17.18-12.62 13.3-17.3 31.34-14.24 48.36-4.58-1.02-9.32-1.48-14.14-1.36-15.48 0.38-29.88 6.78-40.54 18-10.68 11.22-16.34 25.92-15.96 41.42 0.1 3.42 0.5 6.78 1.16 10.06-4.24-0.84-8.58-1.24-13-1.14-15.5 0.4-29.9 6.78-40.56 18-13.52 14.22-18.38 33.58-14.76 51.5-4.24-0.86-8.6-1.26-13.04-1.14-15.48 0.38-29.88 6.78-40.54 17.98-10.68 11.24-16.34 25.94-15.94 41.42 0.38 15.44 6.74 29.8 17.9 40.44l22.52 22.54 29.22 29.16c-14.36 0.88-27.74 6.88-38 17.14-21.82 21.84-19.76 53.26 5.18 78.18l39.28 39.28v0.02l18.26 18.26c0.2 0.18 0.4 0.38 0.62 0.56 36.58 31 145.38 33.66 157.5 33.84l41.94 1.36c-0.68 3.36-1.04 6.82-1.06 10.34-0.08 14.24 5.38 27.68 15.4 37.82 10.12 10.2 23.58 15.84 37.96 15.84 11.96 0 23.34-3.94 32.64-11.18l73.32 73.32c1.96 1.94 4.52 2.92 7.08 2.92s5.12-0.98 7.06-2.92a9.97 9.97 0 0 0 0-14.14l-72.94-72.96 197.88-195.66 71.84 71.84a9.9 9.9 0 0 0 7.06 2.94 10.006 10.006 0 0 0 7.08-17.08z m-374.9 79.18l-49.86-1.6c-31.28-0.52-118.04-6.7-144.78-28.88L136 524.76h-0.02l-39.28-39.3c-13.32-13.3-21.66-33.4-5.18-49.9a38.68 38.68 0 0 1 27.54-11.4c10.4 0 20.18 4.04 27.54 11.4 0.22 0.24 0.48 0.4 0.74 0.6l90.94 90.76a10 10 0 0 0 14.14-0.02 9.988 9.988 0 0 0-0.02-14.14l-152.1-151.8-22.6-22.6-0.18-0.18c-7.34-6.98-11.54-16.4-11.78-26.54-0.26-10.14 3.44-19.78 10.44-27.14 6.98-7.34 16.4-11.52 26.54-11.78 10.14-0.28 19.78 3.46 27.14 10.44l17.96 17.08c0.04 0.02 0.06 0.06 0.08 0.06l6.14 6.02 0.46 0.46c0 0.02 0.04 0.02 0.06 0.04v0.02c0.04 0.04 0.08 0.06 0.12 0.1 1.94 1.84 4.4 2.76 6.88 2.76 2.56 0 5.12-0.96 7.08-2.92 0.5-0.52 0.94-1.08 1.32-1.66 0.04-0.04 0.04-0.08 0.06-0.12 0.34-0.52 0.62-1.06 0.84-1.62 0.04-0.12 0.06-0.22 0.1-0.32 0.18-0.5 0.34-1.02 0.42-1.52 0.04-0.2 0.04-0.38 0.06-0.58 0.06-0.44 0.12-0.88 0.12-1.32 0-0.28-0.06-0.54-0.08-0.82-0.04-0.36-0.04-0.72-0.12-1.08-0.06-0.34-0.2-0.68-0.3-1.02-0.08-0.28-0.14-0.56-0.24-0.82-0.18-0.4-0.4-0.8-0.64-1.18-0.1-0.18-0.16-0.36-0.28-0.54-0.3-0.44-0.66-0.84-1.02-1.26-0.1-0.08-0.16-0.2-0.24-0.28l-0.04-0.04c-0.02-0.02-0.02-0.04-0.04-0.06l-0.44-0.42-22.08-22.1-0.18-0.18c-15.16-14.42-15.76-38.5-1.34-53.68 6.98-7.34 16.4-11.52 26.56-11.78 10.12-0.24 19.76 3.46 27.12 10.44l17.96 17.06 0.08 0.08 6.38 6.26 0.22 0.2c0 0.02 0.02 0.02 0.02 0.04l0.04 0.04c0.12 0.1 0.26 0.18 0.38 0.3 0.4 0.34 0.78 0.68 1.2 0.96 0.06 0.04 0.14 0.06 0.2 0.1 1.6 0.98 3.42 1.5 5.24 1.5a9.97 9.97 0 0 0 9.82-8.2v-0.04c0.12-0.62 0.18-1.24 0.16-1.86 0-0.08-0.02-0.18-0.02-0.26-0.02-0.54-0.06-1.1-0.18-1.64-0.02-0.16-0.1-0.32-0.14-0.5-0.12-0.44-0.24-0.9-0.42-1.32-0.1-0.26-0.26-0.5-0.38-0.74-0.16-0.32-0.32-0.66-0.52-0.98-0.22-0.32-0.48-0.6-0.74-0.88a5.2 5.2 0 0 0-0.52-0.64l-0.06-0.08s-0.02 0-0.02-0.02l-0.14-0.12-22.36-22.4-0.18-0.18c-7.36-6.98-11.54-16.42-11.8-26.56a37.72 37.72 0 0 1 10.44-27.12c6.98-7.34 16.42-11.54 26.56-11.78a37.68 37.68 0 0 1 27.14 10.44l17.96 17.06 0.06 0.06 6.5 6.36 0.98 1a9.98 9.98 0 0 0 7.08 2.94c2.56 0 5.12-0.98 7.06-2.94a9.988 9.988 0 0 0 0.02-14.14l-0.96-0.94v-0.02l-0.08-0.08-21.12-21.14-0.18-0.18c-14.8-14.08-15.74-37.26-2.06-51.66 6.46-6.82 15.28-10.7 24.82-10.94 9.98-0.24 19.46 3.46 26.78 10.42l17.68 16.82 6.56 6.42 37.88 37.44 11.78 11.4 49.78 49.36 17.92 17.72 79 76.18c13.12 12.46 21.1 32.62 20.68 51.34-1.8 1.38-3.52 2.86-5.14 4.48L354.94 565.62a52.86 52.86 0 0 0-6.36 7.56z m281.94-158.08L415.9 627.28a33.13 33.13 0 0 1-23.44 9.64c-8.98 0-17.42-3.52-23.72-9.92a32.99 32.99 0 0 1-9.64-23.64 33.06 33.06 0 0 1 9.9-23.52l214.62-212.18a33.14 33.14 0 0 1 23.46-9.64c8.98 0 17.4 3.5 23.7 9.9 6.28 6.34 9.7 14.74 9.64 23.64-0.04 8.92-3.56 17.26-9.9 23.54z" fill="#23130D" p-id="34925"></path><path d="M640.42 391.56c-0.04 8.92-3.56 17.26-9.9 23.54L415.9 627.28a33.13 33.13 0 0 1-23.44 9.64c-8.98 0-17.42-3.52-23.72-9.92a32.99 32.99 0 0 1-9.64-23.64 33.06 33.06 0 0 1 9.9-23.52l214.62-212.18a33.14 33.14 0 0 1 23.46-9.64c8.98 0 17.4 3.5 23.7 9.9 6.28 6.34 9.7 14.74 9.64 23.64z" fill="#3594BF" p-id="34926"></path><path d="M574.7 348.96c-1.8 1.38-3.52 2.86-5.14 4.48L354.94 565.62a52.86 52.86 0 0 0-6.36 7.56l-49.86-1.6c-31.28-0.52-118.04-6.7-144.78-28.88L136 524.76h-0.02l-39.28-39.3c-13.32-13.3-21.66-33.4-5.18-49.9a38.68 38.68 0 0 1 27.54-11.4c10.4 0 20.18 4.04 27.54 11.4 0.22 0.24 0.48 0.4 0.74 0.6l90.94 90.76a10 10 0 0 0 14.14-0.02 9.988 9.988 0 0 0-0.02-14.14l-152.1-151.8-22.6-22.6-0.18-0.18c-7.34-6.98-11.54-16.4-11.78-26.54-0.26-10.14 3.44-19.78 10.44-27.14 6.98-7.34 16.4-11.52 26.54-11.78 10.14-0.28 19.78 3.46 27.14 10.44l17.96 17.08c0.04 0.02 0.06 0.06 0.08 0.06l6.14 6.02 0.46 0.46c0 0.02 0.04 0.02 0.06 0.04v0.02c0.04 0.04 0.08 0.06 0.12 0.1 1.94 1.84 4.4 2.76 6.88 2.76 2.56 0 5.12-0.96 7.08-2.92 0.5-0.52 0.94-1.08 1.32-1.66 0.04-0.04 0.04-0.08 0.06-0.12 0.34-0.52 0.62-1.06 0.84-1.62 0.04-0.12 0.06-0.22 0.1-0.32 0.18-0.5 0.34-1.02 0.42-1.52 0.04-0.2 0.04-0.38 0.06-0.58 0.06-0.44 0.12-0.88 0.12-1.32 0-0.28-0.06-0.54-0.08-0.82-0.04-0.36-0.04-0.72-0.12-1.08-0.06-0.34-0.2-0.68-0.3-1.02-0.08-0.28-0.14-0.56-0.24-0.82-0.18-0.4-0.4-0.8-0.64-1.18-0.1-0.18-0.16-0.36-0.28-0.54-0.3-0.44-0.66-0.84-1.02-1.26-0.1-0.08-0.16-0.2-0.24-0.28l-0.04-0.04c-0.02-0.02-0.02-0.04-0.04-0.06l-0.44-0.42-22.08-22.1-0.18-0.18c-15.16-14.42-15.76-38.5-1.34-53.68 6.98-7.34 16.4-11.52 26.56-11.78 10.12-0.24 19.76 3.46 27.12 10.44l17.96 17.06 0.08 0.08 6.38 6.26 0.22 0.2c0 0.02 0.02 0.02 0.02 0.04l0.04 0.04c0.12 0.1 0.26 0.18 0.38 0.3 0.4 0.34 0.78 0.68 1.2 0.96 0.06 0.04 0.14 0.06 0.2 0.1 1.6 0.98 3.42 1.5 5.24 1.5a9.97 9.97 0 0 0 9.82-8.2v-0.04c0.12-0.62 0.18-1.24 0.16-1.86 0-0.08-0.02-0.18-0.02-0.26-0.02-0.54-0.06-1.1-0.18-1.64-0.02-0.16-0.1-0.32-0.14-0.5-0.12-0.44-0.24-0.9-0.42-1.32-0.1-0.26-0.26-0.5-0.38-0.74-0.16-0.32-0.32-0.66-0.52-0.98-0.22-0.32-0.48-0.6-0.74-0.88a5.2 5.2 0 0 0-0.52-0.64l-0.06-0.08s-0.02 0-0.02-0.02l-0.14-0.12-22.36-22.4-0.18-0.18c-7.36-6.98-11.54-16.42-11.8-26.56a37.72 37.72 0 0 1 10.44-27.12c6.98-7.34 16.42-11.54 26.56-11.78a37.68 37.68 0 0 1 27.14 10.44l17.96 17.06 0.06 0.06 6.5 6.36 0.98 1a9.98 9.98 0 0 0 7.08 2.94c2.56 0 5.12-0.98 7.06-2.94a9.988 9.988 0 0 0 0.02-14.14l-0.96-0.94v-0.02l-0.08-0.08-21.12-21.14-0.18-0.18c-14.8-14.08-15.74-37.26-2.06-51.66 6.46-6.82 15.28-10.7 24.82-10.94 9.98-0.24 19.46 3.46 26.78 10.42l17.68 16.82 6.56 6.42 37.88 37.44 11.78 11.4 49.78 49.36 17.92 17.72 79 76.18c13.12 12.46 21.1 32.62 20.68 51.34z" fill="#F8D3C9" p-id="34927"></path><path d="M696.696 678.132a9.996 9.996 0 0 0-14.14 0 9.996 9.996 0 0 0 0 14.14l137.428 137.422c1.952 1.954 4.512 2.93 7.07 2.93s5.12-0.976 7.07-2.93a9.996 9.996 0 0 0 0-14.14l-137.428-137.422zM643.966 730.862a9.996 9.996 0 0 0-14.14 0 9.996 9.996 0 0 0 0 14.14l89.742 89.74c1.952 1.954 4.512 2.93 7.07 2.93s5.12-0.976 7.07-2.93a9.996 9.996 0 0 0 0-14.14l-89.742-89.74zM533.064 753.696l94.044 94.044c1.952 1.954 4.512 2.93 7.07 2.93s5.12-0.976 7.07-2.93a9.996 9.996 0 0 0 0-14.14l-94.044-94.044a9.996 9.996 0 0 0-14.14 0 9.996 9.996 0 0 0 0 14.14zM758.12 528.64a9.996 9.996 0 0 0-14.14 0 9.996 9.996 0 0 0 0 14.14l94.044 94.044c1.952 1.954 4.512 2.93 7.07 2.93s5.12-0.976 7.07-2.93a9.996 9.996 0 0 0 0-14.14L758.12 528.64zM749.432 625.4a10.002 10.002 0 0 0-14.144 14.14l89.732 89.742c1.954 1.954 4.514 2.93 7.072 2.93s5.12-0.976 7.07-2.928a10 10 0 0 0 0.002-14.142L749.432 625.4zM891.894 662.416a9.996 9.996 0 0 0-14.14 0 9.996 9.996 0 0 0 0 14.14l28.536 28.536c1.952 1.954 4.512 2.93 7.07 2.93s5.12-0.976 7.07-2.93a9.996 9.996 0 0 0 0-14.14l-28.536-28.536zM680.98 873.33a9.996 9.996 0 0 0-14.14 0 9.996 9.996 0 0 0 0 14.14l28.536 28.536c1.952 1.954 4.512 2.93 7.07 2.93s5.12-0.976 7.07-2.93a9.996 9.996 0 0 0 0-14.14l-28.536-28.536zM733.392 404.022a10 10 0 0 0-14.14 14.142l121.694 121.694c1.952 1.954 4.512 2.93 7.07 2.93s5.12-0.976 7.07-2.93a9.996 9.996 0 0 0 0-14.14l-121.694-121.696zM975.352 645.984l-80.804-80.806a9.996 9.996 0 0 0-14.14 0 9.996 9.996 0 0 0 0 14.14l80.804 80.806c1.952 1.954 4.512 2.93 7.07 2.93s5.12-0.976 7.07-2.93a9.996 9.996 0 0 0 0-14.14zM424.296 713.12a10 10 0 0 0-14.142 14.14l121.696 121.698c1.952 1.954 4.512 2.93 7.07 2.93s5.12-0.976 7.07-2.93a9.996 9.996 0 0 0 0-14.14l-121.694-121.698zM585.452 874.274a9.996 9.996 0 0 0-14.14 0 9.996 9.996 0 0 0 0 14.14l80.802 80.806c1.952 1.954 4.512 2.93 7.07 2.93s5.12-0.976 7.07-2.93a9.996 9.996 0 0 0 0-14.14l-80.802-80.806z" fill="#F9C139" p-id="34928"></path></svg>