<?xml version="1.0" standalone="no"?><!DOCTYPE svg PUBLIC "-//W3C//DTD SVG 1.1//EN" "http://www.w3.org/Graphics/SVG/1.1/DTD/svg11.dtd"><svg t="1625811978977" class="icon" viewBox="0 0 1024 1024" version="1.1" xmlns="http://www.w3.org/2000/svg" p-id="47090" xmlns:xlink="http://www.w3.org/1999/xlink" width="200" height="200"><defs><style type="text/css"></style></defs><path d="M511.98 584.7c-20.5 0-37.16 16.66-37.16 37.16s16.66 37.16 37.16 37.16 37.18-16.66 37.18-37.16-16.68-37.16-37.18-37.16z m0 54.32c-9.46 0-17.16-7.7-17.16-17.16s7.7-17.16 17.16-17.16c9.48 0 17.18 7.7 17.18 17.16s-7.7 17.16-17.18 17.16z" fill="#23130D" p-id="47091"></path><path d="M781.16 440.02V71.98c0-5.52-4.48-10-10-10H731.4c-4.32-14.48-17.74-25.08-33.6-25.08H326.16c-15.86 0-29.28 10.6-33.6 25.08h-39.72c-5.52 0-10 4.48-10 10v368.04c-35.36 4.88-62.7 35.3-62.7 71.98s27.34 67.1 62.7 71.98V948.02c0 2.76 1.12 5.26 2.92 7.06 1.82 1.82 4.32 2.94 7.08 2.94h38.8c2.86 16.48 17.24 29.08 34.54 29.08H697.8c17.28 0 31.66-12.6 34.52-29.08h38.84c5.52 0 10-4.48 10-10V583.98c35.36-4.88 62.7-35.3 62.7-71.98s-27.34-67.1-62.7-71.98zM311.08 71.98c0-8.32 6.78-15.08 15.08-15.08H697.8c8.32 0 15.08 6.76 15.08 15.08v8c0 8.32-6.76 15.08-15.08 15.08H326.16c-8.3 0-15.08-6.76-15.08-15.08v-8z m200.9 649.8c-62.02 0-122.28 16.32-175.36 47.34v-91.88c0-36.28 14.76-69.16 38.58-92.98 23.82-23.82 56.72-38.58 92.98-38.58 0.02 0 0.06-0.02 0.08-0.02a55.1 55.1 0 0 0 43.72 21.5c17.56 0 33.52-8.26 43.72-21.5 0.04 0 0.06 0.02 0.08 0.02 72.56 0 131.58 59.02 131.58 131.56v91.88c-53.1-31.02-113.34-47.34-175.38-47.34z m175.38 70.74v116.42H336.62v-116.42c52.42-33.2 112.92-50.74 175.36-50.74 62.44 0 122.96 17.54 175.38 50.74z m-141.58-304.2v33.34a35.09 35.09 0 0 1-33.8 25.5c-15.8 0-29.54-10.46-33.8-25.54v-33.3c0-5.52-4.48-10-10-10-69.18 0-126.02-53.68-131.14-121.56h349.9c-5.14 67.88-61.98 121.56-131.16 121.56-5.52 0-10 4.48-10 10z m-209.16-151.56V115.06h350.74v221.7H336.62zM200.14 512c0-29.06 23.64-52.7 52.7-52.7 29.06 0 52.7 23.64 52.7 52.7s-23.64 52.7-52.7 52.7c-29.06 0-52.7-23.64-52.7-52.7z m109.04 401.36c-0.74 0.4-1.48 0.86-2.18 1.32-0.16 0.1-0.34 0.2-0.5 0.3-0.86 0.6-1.68 1.22-2.5 1.88-0.2 0.18-0.42 0.36-0.62 0.56-0.58 0.48-1.14 1-1.7 1.52-0.26 0.26-0.5 0.52-0.76 0.8-0.48 0.48-0.94 1-1.38 1.52a26.684 26.684 0 0 0-2 2.58c-0.2 0.26-0.4 0.54-0.6 0.82-0.5 0.78-1 1.58-1.44 2.38l-0.18 0.3c-0.5 0.92-0.96 1.88-1.38 2.84-0.12 0.28-0.22 0.58-0.34 0.88-0.26 0.68-0.54 1.38-0.76 2.1-0.12 0.36-0.24 0.74-0.34 1.1-0.2 0.68-0.36 1.36-0.52 2.04-0.08 0.38-0.18 0.76-0.24 1.16-0.04 0.18-0.1 0.36-0.12 0.56h-28.78V583.98c35.36-4.88 62.7-35.3 62.7-71.98s-27.34-67.1-62.7-71.98V81.98h28.36c0.86 15.14 11.32 27.72 25.42 31.72v233.06c0 40.1 15.66 76.6 41.18 103.74 25.52 27.12 60.92 44.86 100.38 47.46v28.08c-78.92 5.18-141.56 70.98-141.56 151.2v233.02c-0.18 0.04-0.32 0.12-0.48 0.16-0.38 0.1-0.72 0.24-1.08 0.36-0.66 0.22-1.32 0.46-1.96 0.72-0.36 0.14-0.72 0.28-1.08 0.44-0.64 0.3-1.28 0.6-1.9 0.92-0.3 0.16-0.62 0.32-0.94 0.5z m403.7 38.66c0 8.32-6.78 15.08-15.08 15.08H326.18c-8.32 0-15.08-6.76-15.08-15.08v-8c0-8.32 6.76-15.08 15.08-15.08H697.8c8.3 0 15.08 6.76 15.08 15.08v8z m48.28-14h-28.8c-0.04-0.2-0.1-0.38-0.12-0.56-0.08-0.4-0.16-0.78-0.26-1.16-0.14-0.68-0.32-1.36-0.52-2.04-0.1-0.36-0.2-0.74-0.32-1.1-0.24-0.72-0.5-1.42-0.78-2.1-0.12-0.3-0.22-0.6-0.34-0.88-0.42-0.96-0.88-1.92-1.38-2.84-0.04-0.1-0.12-0.2-0.18-0.3-0.44-0.82-0.92-1.6-1.44-2.38-0.18-0.28-0.4-0.56-0.6-0.84-0.4-0.58-0.82-1.14-1.26-1.68-0.24-0.3-0.48-0.6-0.72-0.88-0.46-0.52-0.92-1.02-1.38-1.52-0.26-0.26-0.52-0.54-0.78-0.8-0.54-0.52-1.1-1.02-1.68-1.52-0.22-0.18-0.42-0.38-0.64-0.56-0.8-0.66-1.64-1.28-2.5-1.88-0.16-0.1-0.34-0.2-0.5-0.3-0.72-0.48-1.44-0.92-2.18-1.32-0.3-0.18-0.62-0.34-0.94-0.5-0.62-0.32-1.26-0.64-1.9-0.92-0.36-0.16-0.7-0.3-1.06-0.44-0.66-0.26-1.32-0.5-1.98-0.74-0.36-0.1-0.7-0.24-1.06-0.34-0.16-0.04-0.32-0.12-0.48-0.16V677.24c0-40.12-15.66-76.62-41.18-103.74-25.54-27.12-60.94-44.86-100.4-47.46v-28.08c78.94-5.18 141.58-71 141.58-151.2V113.7c14.08-4 24.56-16.58 25.42-31.72h28.38v358.04c-35.36 4.88-62.7 35.3-62.7 71.98s27.34 67.1 62.7 71.98v354.04z m10-373.32c-29.06 0-52.7-23.64-52.7-52.7s23.64-52.7 52.7-52.7c29.06 0 52.7 23.64 52.7 52.7s-23.64 52.7-52.7 52.7z" fill="#23130D" p-id="47092"></path><path d="M712.88 944.02v8c0 8.32-6.78 15.08-15.08 15.08H326.18c-8.32 0-15.08-6.76-15.08-15.08v-8c0-8.32 6.76-15.08 15.08-15.08H697.8c8.3 0 15.08 6.76 15.08 15.08zM712.88 71.98v8c0 8.32-6.76 15.08-15.08 15.08H326.16c-8.3 0-15.08-6.76-15.08-15.08v-8c0-8.32 6.78-15.08 15.08-15.08H697.8c8.32 0 15.08 6.76 15.08 15.08z" fill="#636368" p-id="47093"></path><path d="M712.88 71.98v8c0 1.96-0.38 3.82-1.06 5.54a15.088 15.088 0 0 0-14.02-9.54H326.16a15.04 15.04 0 0 0-14 9.54c-0.7-1.72-1.08-3.58-1.08-5.54v-8c0-8.32 6.78-15.08 15.08-15.08H697.8c8.32 0 15.08 6.76 15.08 15.08zM712.88 944.02v8c0 1.96-0.38 3.82-1.06 5.54a15.088 15.088 0 0 0-14.02-9.54H326.16a15.04 15.04 0 0 0-14 9.54c-0.7-1.72-1.08-3.58-1.08-5.54v-8c0-8.32 6.78-15.08 15.08-15.08H697.8c8.32 0 15.08 6.76 15.08 15.08z" fill="#FFFFFF" opacity=".7" p-id="47094"></path><path d="M305.54 512c0 29.06-23.64 52.7-52.7 52.7-29.06 0-52.7-23.64-52.7-52.7s23.64-52.7 52.7-52.7c29.06 0 52.7 23.64 52.7 52.7zM823.86 512c0 6.04-1.02 11.86-2.92 17.26a51.92 51.92 0 0 1-7.58 14.26 50.906 50.906 0 0 1-7.76 8.3 51.22 51.22 0 0 1-7.58 5.5c-2.46 1.46-5.04 2.74-7.74 3.78-2.44 0.96-4.98 1.74-7.58 2.3-2.52 0.6-5.12 0.98-7.76 1.16-1.24 0.1-2.5 0.14-3.78 0.14-1.28 0-2.54-0.04-3.78-0.14a47.46 47.46 0 0 1-7.76-1.16c-2.6-0.56-5.14-1.34-7.58-2.3-2.7-1.04-5.28-2.32-7.74-3.78a51.22 51.22 0 0 1-7.58-5.5 50.906 50.906 0 0 1-7.76-8.3 51.92 51.92 0 0 1-7.58-14.26c-1.9-5.4-2.92-11.22-2.92-17.26s1.02-11.86 2.92-17.26a51.92 51.92 0 0 1 7.58-14.26c2.28-3.06 4.88-5.84 7.76-8.3a51.22 51.22 0 0 1 7.58-5.5c2.46-1.46 5.04-2.74 7.74-3.78 2.44-0.96 4.98-1.74 7.58-2.3 2.52-0.6 5.12-0.98 7.76-1.16 1.24-0.1 2.5-0.14 3.78-0.14 1.28 0 2.54 0.04 3.78 0.14 2.64 0.18 5.24 0.56 7.76 1.16 2.6 0.56 5.14 1.34 7.58 2.3 2.7 1.04 5.28 2.32 7.74 3.78 2.7 1.6 5.22 3.44 7.58 5.5 2.88 2.46 5.48 5.24 7.76 8.3a51.92 51.92 0 0 1 7.58 14.26c1.9 5.4 2.92 11.22 2.92 17.26z" fill="#636368" p-id="47095"></path><path d="M687.36 792.52v116.42H336.62v-116.42a326.92 326.92 0 0 1 81.62-37.14c13.58-4.04 27.42-7.2 41.46-9.44 5.78-0.94 11.6-1.72 17.46-2.32 11.52-1.22 23.14-1.84 34.82-1.84 0.84 0 1.68 0 2.52 0.02 14.82 0.1 29.52 1.2 44.02 3.26a326.602 326.602 0 0 1 128.84 47.46z" fill="#F9C139" p-id="47096"></path><path d="M555.78 545.68c-0.02 0-0.04-0.02-0.08-0.02a55.13 55.13 0 0 1-43.72 21.5 55.1 55.1 0 0 1-43.72-21.5c-0.02 0-0.06 0.02-0.08 0.02-13.32 0-26.18 1.98-38.3 5.68a131.82 131.82 0 0 0-42.74 22.32c-4.2 3.3-8.18 6.82-11.94 10.58a135.526 135.526 0 0 0-8.68 9.56c-5.98 7.26-11.2 15.18-15.5 23.64a129.37 129.37 0 0 0-6.08 13.72 130.616 130.616 0 0 0-8.28 42.64c-0.02 1.14-0.04 2.28-0.04 3.42v91.88a344.584 344.584 0 0 1 65.68-29.68c13.16-4.38 26.58-7.96 40.2-10.7 5.56-1.14 11.16-2.14 16.8-2.98 11.74-1.8 23.62-2.98 35.58-3.58 5.68-0.26 11.38-0.4 17.1-0.4 8.06 0 16.1 0.28 24.08 0.82 27.36 1.88 54.22 6.94 80.12 15.06a345.18 345.18 0 0 1 71.18 31.46v-91.88c0-72.54-59.02-131.56-131.58-131.56z m-43.8 113.34c-20.5 0-37.16-16.66-37.16-37.16 0-7.3 2.1-14.1 5.74-19.82 6.58-10.42 18.2-17.34 31.42-17.34 20.5 0 37.18 16.66 37.18 37.16 0 13.22-6.94 24.84-17.36 31.42a36.838 36.838 0 0 1-19.82 5.74z" fill="#8FDCFF" p-id="47097"></path><path d="M529.16 621.86c0 7.78-5.2 14.36-12.32 16.46-1.54 0.46-3.18 0.7-4.86 0.7-9.46 0-17.16-7.7-17.16-17.16 0-1.7 0.24-3.32 0.7-4.86 2.1-7.1 8.68-12.3 16.46-12.3 9.48 0 17.18 7.7 17.18 17.16zM686.94 356.76c-0.38 5.08-1.06 10.06-2.02 14.96a130.82 130.82 0 0 1-18.68 46.4 132.656 132.656 0 0 1-18.32 22.44 133.502 133.502 0 0 1-21.8 17.34 130.926 130.926 0 0 1-51.62 19.1c-6.12 0.86-12.36 1.32-18.72 1.32-5.52 0-10 4.48-10 10v33.34a35.09 35.09 0 0 1-33.8 25.5c-15.8 0-29.54-10.46-33.8-25.54v-33.3c0-5.52-4.48-10-10-10-69.18 0-126.02-53.68-131.14-121.56h349.9z" fill="#F9C139" p-id="47098"></path><path d="M336.62 115.06h350.74v221.7H336.62z" fill="#8FDCFF" p-id="47099"></path><path d="M512.154 749.78c0.718 0 1.436 0 2.154 0.018l0.068 0.002h0.068c14.324 0.096 28.774 1.166 42.946 3.18a318.572 318.572 0 0 1 90.434 26.964 319.81 319.81 0 0 1 31.534 17.016v103.98H344.62v-103.98a319.01 319.01 0 0 1 75.902-33.912 318.08 318.08 0 0 1 40.462-9.212c5.708-0.928 11.426-1.688 17.018-2.26a323.766 323.766 0 0 1 34.152-1.796m-0.174-8c-11.68 0-23.3 0.62-34.82 1.84-5.86 0.6-11.68 1.38-17.46 2.32a324.86 324.86 0 0 0-41.46 9.44 326.92 326.92 0 0 0-81.62 37.14v116.42h350.74v-116.42a326.602 326.602 0 0 0-128.84-47.46c-14.5-2.06-29.2-3.16-44.02-3.26-0.84-0.02-1.68-0.02-2.52-0.02z" opacity=".2" p-id="47100"></path><path d="M464.546 553.732c11.994 13.668 29.058 21.428 47.434 21.428 18.376 0 35.44-7.758 47.434-21.428 66.47 1.928 119.946 56.59 119.946 123.508v78.25a353.764 353.764 0 0 0-60.786-25.462 355.766 355.766 0 0 0-81.974-15.408 366.504 366.504 0 0 0-42.12-0.428c-12.334 0.618-24.578 1.85-36.358 3.658-5.638 0.84-11.434 1.868-17.2 3.05a348.48 348.48 0 0 0-41.136 10.948 353.366 353.366 0 0 0-55.166 23.644V677.24c0-1.094 0.02-2.186 0.038-3.216a122.522 122.522 0 0 1 7.774-40.038 121.66 121.66 0 0 1 5.72-12.9 121.618 121.618 0 0 1 14.538-22.172 128.282 128.282 0 0 1 8.166-8.996 126.054 126.054 0 0 1 11.22-9.942 123.328 123.328 0 0 1 40.14-20.964 122.84 122.84 0 0 1 32.33-5.28m47.434 113.288c8.564 0 16.9-2.416 24.092-6.976 13.204-8.338 21.088-22.614 21.088-38.184 0-24.902-20.268-45.16-45.18-45.16-15.578 0-29.854 7.876-38.17 21.046a44.82 44.82 0 0 0-6.99 24.114c0 24.902 20.258 45.16 45.16 45.16m43.72-121.36a55.13 55.13 0 0 1-43.72 21.5 55.1 55.1 0 0 1-43.72-21.5c-0.02 0-0.06 0.02-0.08 0.02-13.32 0-26.18 1.98-38.3 5.68a131.82 131.82 0 0 0-42.74 22.32c-4.2 3.3-8.18 6.82-11.94 10.58a135.526 135.526 0 0 0-8.68 9.56c-5.98 7.26-11.2 15.18-15.5 23.64a129.37 129.37 0 0 0-6.08 13.72 130.616 130.616 0 0 0-8.28 42.64c-0.02 1.14-0.04 2.28-0.04 3.42v91.88a344.584 344.584 0 0 1 65.68-29.68c13.16-4.38 26.58-7.96 40.2-10.7 5.56-1.14 11.16-2.14 16.8-2.98 11.74-1.8 23.62-2.98 35.58-3.58 5.68-0.26 11.38-0.4 17.1-0.4 8.06 0 16.1 0.28 24.08 0.82 27.36 1.88 54.22 6.94 80.12 15.06a345.18 345.18 0 0 1 71.18 31.46v-91.88c0-72.54-59.02-131.56-131.58-131.56-0.02 0-0.04-0.02-0.08-0.02z m-43.72 113.36c-20.5 0-37.16-16.66-37.16-37.16 0-7.3 2.1-14.1 5.74-19.82 6.58-10.42 18.2-17.34 31.42-17.34 20.5 0 37.18 16.66 37.18 37.16 0 13.22-6.94 24.84-17.36 31.42a36.838 36.838 0 0 1-19.82 5.74z" opacity=".2" p-id="47101"></path><path d="M678.002 364.76a119.554 119.554 0 0 1-0.938 5.446 122.424 122.424 0 0 1-17.536 43.56 124.816 124.816 0 0 1-37.684 37.372 126.066 126.066 0 0 1-11.92 6.676 122.816 122.816 0 0 1-36.538 11.264 127.024 127.024 0 0 1-17.606 1.242c-9.926 0-18 8.074-18 18v32.152c-3.612 11.056-14.074 18.688-25.8 18.688-11.742 0-22.204-7.648-25.8-18.722V488.32c0-9.926-8.074-18-18-18-31.308 0-61.188-11.782-84.138-33.176-20.702-19.298-34.026-44.742-38.072-72.384h332.032m8.938-8H337.04c5.12 67.88 61.96 121.56 131.14 121.56 5.52 0 10 4.48 10 10v33.3c4.26 15.08 18 25.54 33.8 25.54 15.78 0 29.52-10.44 33.8-25.5v-33.34c0-5.52 4.48-10 10-10 6.36 0 12.6-0.46 18.72-1.32a130.926 130.926 0 0 0 51.62-19.1c7.88-5.02 15.18-10.84 21.8-17.34 6.9-6.78 13.04-14.3 18.32-22.44a130.82 130.82 0 0 0 18.68-46.4c0.96-4.9 1.64-9.88 2.02-14.96zM679.36 123.06v205.7H344.62V123.06h334.74m8-8H336.62v221.7h350.74V115.06z" opacity=".2" p-id="47102"></path><path d="M485.2 336.76h-50.94l-97.64-97.64V188.2zM613.44 465a130.926 130.926 0 0 1-38.94 12l-120.22-120.24h50.92l108.24 108.24zM544.12 336.76h-39.14L336.62 168.4V129.28zM647.92 440.56a133.502 133.502 0 0 1-21.8 17.34l-101.14-101.14h39.14l83.8 83.8zM649.96 336.76h-65.08L363.2 115.06h65.04zM684.92 371.72a130.82 130.82 0 0 1-18.68 46.4l-61.36-61.36h65.08l14.96 14.96z" fill="#FFFFFF" opacity=".4" p-id="47103"></path><path d="M442.5 728.74c-13.62 2.74-27.04 6.32-40.2 10.7l-65.64-65.62c0.38-14.96 3.28-29.32 8.28-42.64l97.56 97.56zM622.7 908.94H571.8l-153.56-153.56c13.58-4.04 27.42-7.2 41.46-9.44l163 163zM494.88 722.18c-11.96 0.6-23.84 1.78-35.58 3.58l-108.28-108.3c4.3-8.46 9.52-16.38 15.5-23.64l128.36 128.36zM681.64 908.94h-39.16l-165.32-165.32c11.52-1.22 23.14-1.84 34.82-1.84 0.84 0 1.68 0 2.52 0.02l167.14 167.14zM494.82 621.86c0-1.7 0.24-3.32 0.7-4.86l21.32 21.32c-1.54 0.46-3.18 0.7-4.86 0.7-9.46 0-17.16-7.7-17.16-17.16z" fill="#FFFFFF" opacity=".4" p-id="47104"></path><path d="M616.18 737.66a347.22 347.22 0 0 0-80.12-15.06l-148.92-148.92a131.82 131.82 0 0 1 42.74-22.32l50.68 50.68a36.786 36.786 0 0 0-5.74 19.82c0 20.5 16.66 37.16 37.16 37.16 7.3 0 14.08-2.1 19.82-5.74l84.38 84.38zM687.36 808.84v65.06l-128.84-128.84c32.16 4.58 63.36 13.88 92.7 27.64l36.14 36.14z" fill="#FFFFFF" opacity=".4" p-id="47105"></path><path d="M721.38 494.74v34.52c-1.9-5.4-2.92-11.22-2.92-17.26s1.02-11.86 2.92-17.26zM736.72 472.18v79.64a50.906 50.906 0 0 1-7.76-8.3v-63.04c2.28-3.06 4.88-5.84 7.76-8.3zM752.04 462.9v98.2c-2.7-1.04-5.28-2.32-7.74-3.78v-90.64c2.46-1.46 5.04-2.74 7.74-3.78zM767.38 459.44v105.12a47.46 47.46 0 0 1-7.76-1.16v-102.8c2.52-0.6 5.12-0.98 7.76-1.16zM782.7 460.6v102.8c-2.52 0.6-5.12 0.98-7.76 1.16v-105.12c2.64 0.18 5.24 0.56 7.76 1.16zM798.02 466.68v90.64c-2.46 1.46-5.04 2.74-7.74 3.78v-98.2c2.7 1.04 5.28 2.32 7.74 3.78zM813.36 480.48v63.04a50.906 50.906 0 0 1-7.76 8.3v-79.64c2.88 2.46 5.48 5.24 7.76 8.3zM823.86 512c0 6.04-1.02 11.86-2.92 17.26v-34.52c1.9 5.4 2.92 11.22 2.92 17.26z" opacity=".1" p-id="47106"></path><path d="M203.06 494.74v34.52c-1.9-5.4-2.92-11.22-2.92-17.26s1.02-11.86 2.92-17.26zM218.4 472.18v79.64a50.906 50.906 0 0 1-7.76-8.3v-63.04c2.28-3.06 4.88-5.84 7.76-8.3zM233.72 462.9v98.2c-2.7-1.04-5.28-2.32-7.74-3.78v-90.64c2.46-1.46 5.04-2.74 7.74-3.78zM249.06 459.44v105.12a47.46 47.46 0 0 1-7.76-1.16v-102.8c2.52-0.6 5.12-0.98 7.76-1.16zM264.38 460.6v102.8c-2.52 0.6-5.12 0.98-7.76 1.16v-105.12c2.64 0.18 5.24 0.56 7.76 1.16zM279.7 466.68v90.64c-2.46 1.46-5.04 2.74-7.74 3.78v-98.2c2.7 1.04 5.28 2.32 7.74 3.78zM295.04 480.48v63.04a50.906 50.906 0 0 1-7.76 8.3v-79.64c2.88 2.46 5.48 5.24 7.76 8.3zM305.54 512c0 6.04-1.02 11.86-2.92 17.26v-34.52c1.9 5.4 2.92 11.22 2.92 17.26z" opacity=".1" p-id="47107"></path></svg>