<?xml version="1.0" standalone="no"?><!DOCTYPE svg PUBLIC "-//W3C//DTD SVG 1.1//EN" "http://www.w3.org/Graphics/SVG/1.1/DTD/svg11.dtd"><svg t="1625811457538" class="icon" viewBox="0 0 1024 1024" version="1.1" xmlns="http://www.w3.org/2000/svg" p-id="30240" xmlns:xlink="http://www.w3.org/1999/xlink" width="200" height="200"><defs><style type="text/css"></style></defs><path d="M724.24 289.76H299.76c-5.52 0-10 4.48-10 10v424.48c0 5.52 4.48 10 10 10h424.48c5.52 0 10-4.48 10-10V299.76c0-5.52-4.48-10-10-10z m-10 424.48H309.76V309.76h404.48v404.48z" fill="#23130D" p-id="30241"></path><path d="M876.32 428.08c5.52 0 10-4.48 10-10v-14.4h84.02c5.52 0 10-4.48 10-10s-4.48-10-10-10h-84.02v-14.38c0-5.52-4.48-10-10-10h-38.78v-49.54h38.78c5.52 0 10-4.48 10-10v-14.38h84.02c5.52 0 10-4.48 10-10s-4.48-10-10-10h-84.02v-14.38c0-5.54-4.48-10-10-10h-38.78V196.46c0-5.52-4.46-10-10-10H783V147.68c0-5.52-4.48-10-10-10h-14.38V53.66c0-5.52-4.48-10-10-10s-10 4.48-10 10v84.02h-14.38c-5.52 0-10 4.48-10 10v38.78h-49.54V147.68c0-5.52-4.48-10-10-10h-14.38V53.66c0-5.52-4.48-10-10-10-5.54 0-10 4.48-10 10v84.02h-14.4c-5.52 0-10 4.48-10 10v38.78h-49.54V147.68c0-5.52-4.48-10-10-10H522V53.66c0-5.52-4.48-10-10-10s-10 4.48-10 10v84.02h-14.38c-5.52 0-10 4.48-10 10v38.78h-49.54V147.68c0-5.52-4.48-10-10-10h-14.4V53.66c0-5.52-4.48-10-10-10s-10 4.48-10 10v84.02h-14.38c-5.52 0-10 4.48-10 10v38.78h-49.54V147.68c0-5.52-4.48-10-10-10h-14.38V53.66c0-5.52-4.48-10-10-10s-10 4.48-10 10v84.02h-14.38c-5.52 0-10 4.48-10 10v38.78H196.46c-5.52 0-10 4.48-10 10v44.54H147.68c-5.52 0-10 4.46-10 10v14.38H53.66c-5.52 0-10 4.48-10 10s4.48 10 10 10h84.02v14.38c0 5.52 4.48 10 10 10h38.78v49.54H147.68c-5.52 0-10 4.48-10 10v14.38H53.66c-5.52 0-10 4.48-10 10s4.48 10 10 10h84.02v14.4c0 5.52 4.48 10 10 10h38.78v49.54H147.68c-5.52 0-10 4.48-10 10V502H53.66c-5.52 0-10 4.48-10 10s4.48 10 10 10h84.02v14.38c0 5.52 4.48 10 10 10h38.78v49.54H147.68c-5.52 0-10 4.48-10 10v14.4H53.66c-5.52 0-10 4.46-10 10 0 5.52 4.48 10 10 10h84.02v14.38c0 5.52 4.48 10 10 10h38.78v49.54H147.68c-5.52 0-10 4.48-10 10v14.38H53.66c-5.52 0-10 4.48-10 10s4.48 10 10 10h84.02v14.38c0 5.52 4.48 10 10 10h38.78v44.54c0 5.52 4.48 10 10 10h44.54v38.78c0 5.52 4.48 10 10 10h14.38v84.02c0 5.52 4.48 10 10 10s10-4.48 10-10v-84.02h14.38c5.52 0 10-4.48 10-10v-38.78h49.54v38.78c0 5.52 4.48 10 10 10h14.38v84.02c0 5.52 4.48 10 10 10s10-4.48 10-10v-84.02h14.4c5.52 0 10-4.48 10-10v-38.78h49.54v38.78c0 5.52 4.48 10 10 10H502v84.02c0 5.52 4.48 10 10 10s10-4.48 10-10v-84.02h14.38c5.52 0 10-4.48 10-10v-38.78h49.54v38.78c0 5.52 4.48 10 10 10h14.4v84.02c0 5.52 4.46 10 10 10 5.52 0 10-4.48 10-10v-84.02h14.38c5.52 0 10-4.48 10-10v-38.78h49.54v38.78c0 5.52 4.48 10 10 10h14.38v84.02c0 5.52 4.48 10 10 10s10-4.48 10-10v-84.02h14.38c5.52 0 10-4.48 10-10v-38.78h44.54c5.54 0 10-4.48 10-10V783h38.78c5.52 0 10-4.48 10-10v-14.38h84.02c5.52 0 10-4.48 10-10s-4.48-10-10-10h-84.02v-14.38c0-5.52-4.48-10-10-10h-38.78v-49.54h38.78c5.52 0 10-4.48 10-10v-14.38h84.02c5.52 0 10-4.48 10-10 0-5.54-4.48-10-10-10h-84.02v-14.4c0-5.52-4.48-10-10-10h-38.78v-49.54h38.78c5.52 0 10-4.48 10-10V522h84.02c5.52 0 10-4.48 10-10s-4.48-10-10-10h-84.02v-14.38c0-5.52-4.48-10-10-10h-38.78v-49.54h38.78z m-38.78-167.08h28.78v28.76h-28.78V261z m0 118.3h28.78v28.78h-28.78v-28.78zM186.46 763H157.68v-28.76h28.78v28.76z m0-118.3H157.68v-28.78h28.78v28.78z m0-118.32H157.68v-28.76h28.78v28.76z m0-118.3H157.68v-28.78h28.78v28.78z m0-118.32H157.68V261h28.78v28.76z m547.78-132.08H763v28.78h-28.76V157.68z m-118.32 0h28.78v28.78h-28.78V157.68z m-118.3 0H526.38v28.78h-28.76V157.68z m-118.32 0H408.08v28.78h-28.78V157.68z m-118.3 0H289.76v28.78H261V157.68z m28.76 708.64H261v-28.78h28.76v28.78z m118.32 0h-28.78v-28.78h28.78v28.78z m118.3 0h-28.76v-28.78h28.76v28.78z m118.32 0h-28.78v-28.78h28.78v28.78z m118.3 0h-28.76v-28.78h28.76v28.78z m54.54-142.1V817.54H206.46V206.46h611.08v517.76z m48.78 10.02v28.76h-28.78v-28.76h28.78z m0-118.32v28.78h-28.78v-28.78h28.78z m0-118.3v28.76h-28.78v-28.76h28.78z" fill="#23130D" p-id="30242"></path><path d="M837.54 734.24h28.78v28.76h-28.78zM866.32 615.92v28.78h-28.78v-28.78h28.78zM837.54 497.62h28.78v28.76h-28.78zM866.32 379.3v28.78h-28.78v-28.78h28.78zM837.54 261h28.78v28.76h-28.78zM763 157.68v28.78h-28.76V157.68H763zM644.7 157.68v28.78h-28.78V157.68h28.78zM526.38 157.68v28.78h-28.76V157.68H526.38zM157.68 261h28.78v28.76H157.68zM408.08 157.68v28.78h-28.78V157.68H408.08zM289.76 157.68v28.78H261V157.68H289.76zM157.68 379.3h28.78v28.78H157.68zM157.68 497.62h28.78v28.76H157.68zM157.68 615.92h28.78v28.78H157.68zM157.68 734.24h28.78v28.76H157.68zM261 837.54h28.76v28.78H261zM379.3 837.54h28.78v28.78h-28.78zM497.62 837.54h28.76v28.78h-28.76zM615.92 837.54h28.78v28.78h-28.78zM734.24 837.54h28.76v28.78h-28.76z" fill="#F9C139" p-id="30243"></path><path d="M206.46 206.46v611.08h611.08v-44.52-0.02-48.74-0.02-517.78H206.46z m527.78 517.78c0 5.52-4.48 10-10 10H299.76c-5.52 0-10-4.48-10-10V299.76c0-5.52 4.48-10 10-10h424.48c5.52 0 10 4.48 10 10v424.48z" fill="#E1E1E5" p-id="30244"></path><path d="M807.54 216.46v591.08H216.46V216.46h591.08M299.76 744.24h424.48c11.028 0 20-8.972 20-20V299.76c0-11.028-8.972-20-20-20H299.76c-11.028 0-20 8.972-20 20v424.48c0 11.028 8.972 20 20 20m517.78-537.78H206.46v611.08h611.08v-44.52-0.02-48.74-0.02-517.78zM299.76 734.24c-5.52 0-10-4.48-10-10V299.76c0-5.52 4.48-10 10-10h424.48c5.52 0 10 4.48 10 10v424.48c0 5.52-4.48 10-10 10H299.76z" opacity=".2" p-id="30245"></path><path d="M309.76 309.76v404.48h404.48V309.76H309.76z m359.02 163.36c0 5.52-4.48 10-10 10h-42.86v57.76h42.86c5.52 0 10 4.48 10 10v106.94c0 5.52-4.48 10-10 10h-106.94c-5.52 0-10-4.48-10-10v-41.9h-55.94v41.9c0 5.52-4.48 10-10 10h-106.94c-5.52 0-10-4.48-10-10v-106.94c0-5.52 4.48-10 10-10h43.46v-57.76h-43.46c-5.52 0-10-4.48-10-10v-106.94c0-5.52 4.48-10 10-10h106.94c5.52 0 10 4.48 10 10v43.48h55.94v-43.48c0-5.52 4.48-10 10-10h106.94c5.52 0 10 4.48 10 10v106.94z" fill="#3594BF" p-id="30246"></path><path d="M658.78 483.12c5.52 0 10-4.48 10-10v-106.94c0-5.52-4.48-10-10-10h-106.94c-5.52 0-10 4.48-10 10v43.48h-55.94v-43.48c0-5.52-4.48-10-10-10h-106.94c-5.52 0-10 4.48-10 10v106.94c0 5.52 4.48 10 10 10h43.46v57.76h-43.46c-5.52 0-10 4.48-10 10v106.94c0 5.52 4.48 10 10 10h106.94c5.52 0 10-4.48 10-10v-41.9h55.94v41.9c0 5.52 4.48 10 10 10h106.94c5.52 0 10-4.48 10-10v-106.94c0-5.52-4.48-10-10-10h-42.86v-57.76h42.86z m-279.82-20v-86.94h86.94v86.94h-86.94z m86.94 184.7h-86.94v-86.94h86.94v86.94z m75.94-96.94v45.04h-55.94v-45.04c0-5.52-4.48-10-10-10h-43.48v-57.76h43.48c5.52 0 10-4.48 10-10v-43.46h55.94v43.46c0 5.52 4.48 10 10 10h44.08v57.76h-44.08c-5.52 0-10 4.48-10 10z m106.94 10v86.94h-86.94v-86.94h86.94z m-86.94-97.76v-86.94h86.94v86.94h-86.94z" fill="#23130D" p-id="30247"></path><path d="M561.84 560.88h86.94v86.94h-86.94zM561.84 376.18h86.94v86.94h-86.94z" fill="#F9C139" p-id="30248"></path><path d="M595.92 483.12v57.76h-44.08c-5.52 0-10 4.48-10 10v45.04h-55.94v-45.04c0-5.52-4.48-10-10-10h-43.48v-57.76h43.48c5.52 0 10-4.48 10-10v-43.46h55.94v43.46c0 5.52 4.48 10 10 10h44.08z" fill="#EC7063" p-id="30249"></path><path d="M378.96 560.88h86.94v86.94h-86.94zM378.96 376.18h86.94v86.94h-86.94z" fill="#F9C139" p-id="30250"></path><path d="M638.78 570.88v66.94h-66.94v-66.94h66.94m10-10h-86.94v86.94h86.94v-86.94zM638.78 386.18v66.94h-66.94v-66.94h66.94m10-10h-86.94v86.94h86.94v-86.94z" opacity=".2" p-id="30251"></path><path d="M531.84 439.66v33.46c0 11.028 8.972 20 20 20h34.08v37.76h-34.08c-11.028 0-20 8.972-20 20v35.04h-35.94v-35.04c0-11.028-8.972-20-20-20h-33.48v-37.76h33.48c11.028 0 20-8.972 20-20v-33.46h35.94m10-10h-55.94v43.46c0 5.52-4.48 10-10 10h-43.48v57.76h43.48c5.52 0 10 4.48 10 10v45.04h55.94v-45.04c0-5.52 4.48-10 10-10h44.08v-57.76h-44.08c-5.52 0-10-4.48-10-10v-43.46z" opacity=".2" p-id="30252"></path><path d="M455.9 570.88v66.94h-66.94v-66.94h66.94m10-10h-86.94v86.94h86.94v-86.94zM455.9 386.18v66.94h-66.94v-66.94h66.94m10-10h-86.94v86.94h86.94v-86.94z" opacity=".2" p-id="30253"></path></svg>