<?xml version="1.0" standalone="no"?><!DOCTYPE svg PUBLIC "-//W3C//DTD SVG 1.1//EN" "http://www.w3.org/Graphics/SVG/1.1/DTD/svg11.dtd"><svg t="1625811497609" class="icon" viewBox="0 0 1024 1024" version="1.1" xmlns="http://www.w3.org/2000/svg" p-id="31972" xmlns:xlink="http://www.w3.org/1999/xlink" width="200" height="200"><defs><style type="text/css"></style></defs><path d="M954 101.46H70c-5.52 0-10 4.48-10 10v801.08c0 5.52 4.48 10 10 10h884c5.52 0 10-4.48 10-10V111.46c0-5.52-4.48-10-10-10z m-10 801.08H80V216.2h864v686.34z m0-706.34H80V121.46h864V196.2z" fill="#23130D" p-id="31973"></path><path d="M80 121.46V196.2h864V121.46H80z m641.74 45.76H676c-5.54 0-10-4.48-10-10s4.46-10 10-10h45.74c5.52 0 10 4.48 10 10s-4.48 10-10 10z m93.6 0H769.6c-5.52 0-10-4.48-10-10s4.48-10 10-10h45.74c5.54 0 10 4.48 10 10s-4.46 10-10 10z m93.62 0H863.2c-5.52 0-10-4.48-10-10s4.48-10 10-10h45.76c5.52 0 10 4.48 10 10s-4.48 10-10 10z" fill="#636368" p-id="31974"></path><path d="M80 216.2v686.34h864V216.2H80z m488.54 538.74c0 0.68-0.06 1.36-0.2 2.04-0.04 0.18-0.1 0.34-0.16 0.52-0.12 0.44-0.22 0.9-0.42 1.34-0.1 0.26-0.26 0.5-0.38 0.74-0.18 0.34-0.32 0.66-0.52 0.98-0.34 0.5-0.74 0.96-1.16 1.4-0.04 0.04-0.06 0.08-0.08 0.12h-0.02l-79.12 79.1c-0.48 0.48-0.98 0.9-1.54 1.26-0.22 0.16-0.46 0.24-0.68 0.38-0.34 0.18-0.68 0.4-1.04 0.54-0.32 0.14-0.64 0.2-0.94 0.3-0.32 0.08-0.62 0.2-0.94 0.28-0.62 0.12-1.26 0.18-1.88 0.18H151.02c-5.52 0-10-4.46-10-10V571.4c0-0.66 0.08-1.3 0.2-1.96 0.06-0.28 0.18-0.56 0.26-0.84 0.1-0.34 0.18-0.7 0.32-1.02 0.14-0.34 0.32-0.62 0.48-0.94 0.14-0.26 0.26-0.54 0.44-0.78 0.36-0.54 0.76-1.04 1.22-1.5 0-0.02 0.02-0.02 0.02-0.02l79.14-79.14c0.26-0.24 0.54-0.42 0.8-0.64 0.24-0.2 0.46-0.42 0.72-0.58 0.32-0.22 0.66-0.38 1-0.56 0.24-0.12 0.48-0.26 0.72-0.38 0.36-0.14 0.74-0.24 1.12-0.34 0.26-0.08 0.5-0.18 0.76-0.22 0.6-0.12 1.22-0.18 1.84-0.18 0.04 0 0.08-0.02 0.12-0.02h328.36c0.66 0 1.32 0.06 1.96 0.2 0.24 0.04 0.46 0.14 0.68 0.2 0.4 0.1 0.8 0.2 1.2 0.36 0.26 0.12 0.48 0.26 0.72 0.38 0.34 0.18 0.68 0.34 1 0.56 0.32 0.2 0.6 0.48 0.9 0.72 0.2 0.18 0.42 0.32 0.62 0.5 0.22 0.24 0.4 0.5 0.6 0.74 0.2 0.26 0.44 0.5 0.62 0.78 0.26 0.36 0.44 0.76 0.64 1.14 0.08 0.2 0.2 0.38 0.28 0.56 0.2 0.48 0.34 0.98 0.46 1.48 0.04 0.12 0.08 0.26 0.12 0.38 0.14 0.68 0.2 1.38 0.2 2.06v262.6z m268.16 105h-163.44c-25.52 0-46.3-20.76-46.3-46.3 0-25.52 20.76-46.3 46.28-46.3H836.66c25.54 0 46.32 20.76 46.32 46.3 0 25.52-20.76 46.28-46.28 46.3z m36.28-138.7H636.96c-5.52 0-10-4.48-10-10s4.48-10 10-10h236.02c5.52 0 10 4.48 10 10s-4.48 10-10 10z m0-59.8H636.96c-5.52 0-10-4.48-10-10s4.48-10 10-10h236.02c5.52 0 10 4.48 10 10s-4.48 10-10 10z m0-59.8H636.96c-5.52 0-10-4.48-10-10s4.48-10 10-10h236.02c5.52 0 10 4.48 10 10s-4.48 10-10 10z m-246.02-69.8c0-5.52 4.48-10 10-10h116.94c5.52 0 10 4.48 10 10s-4.48 10-10 10h-116.94c-5.52 0-10-4.48-10-10z m256.02-118.12c0 5.52-4.48 10-10 10H151.02c-5.52 0-10-4.48-10-10v-138c0-5.52 4.48-10 10-10h721.96c5.52 0 10 4.48 10 10v138z" fill="#E1E1E5" p-id="31975"></path><path d="M918.96 157.22c0 5.52-4.48 10-10 10H863.2c-5.52 0-10-4.48-10-10s4.48-10 10-10h45.76c5.52 0 10 4.48 10 10zM825.34 157.22c0 5.52-4.46 10-10 10H769.6c-5.52 0-10-4.48-10-10s4.48-10 10-10h45.74c5.54 0 10 4.48 10 10zM731.74 157.22c0 5.52-4.48 10-10 10H676c-5.54 0-10-4.48-10-10s4.46-10 10-10h45.74c5.52 0 10 4.48 10 10zM568.34 490.28c-0.04-0.12-0.08-0.26-0.12-0.38-0.12-0.5-0.26-1-0.46-1.48-0.08-0.18-0.2-0.36-0.28-0.56-0.2-0.38-0.38-0.78-0.64-1.14-0.18-0.28-0.42-0.52-0.62-0.78-0.2-0.24-0.38-0.5-0.6-0.74-0.2-0.18-0.42-0.32-0.62-0.5-0.3-0.24-0.58-0.52-0.9-0.72-0.32-0.22-0.66-0.38-1-0.56-0.24-0.12-0.46-0.26-0.72-0.38-0.4-0.16-0.8-0.26-1.2-0.36-0.22-0.06-0.44-0.16-0.68-0.2-0.64-0.14-1.3-0.2-1.96-0.2H230.18c-0.04 0-0.08 0.02-0.12 0.02-0.62 0-1.24 0.06-1.84 0.18-0.26 0.04-0.5 0.14-0.76 0.22-0.38 0.1-0.76 0.2-1.12 0.34-0.24 0.12-0.48 0.26-0.72 0.38-0.34 0.18-0.68 0.34-1 0.56-0.26 0.16-0.48 0.38-0.72 0.58-0.26 0.22-0.54 0.4-0.8 0.64l-79.14 79.14s-0.02 0-0.02 0.02c-0.46 0.46-0.86 0.96-1.22 1.5-0.18 0.24-0.3 0.52-0.44 0.78-0.16 0.32-0.34 0.6-0.48 0.94-0.14 0.32-0.22 0.68-0.32 1.02-0.08 0.28-0.2 0.56-0.26 0.84-0.12 0.66-0.2 1.3-0.2 1.96v262.72c0 5.54 4.48 10 10 10h328.44c0.62 0 1.26-0.06 1.88-0.18 0.32-0.08 0.62-0.2 0.94-0.28 0.3-0.1 0.62-0.16 0.94-0.3 0.36-0.14 0.7-0.36 1.04-0.54 0.22-0.14 0.46-0.22 0.68-0.38 0.56-0.36 1.06-0.78 1.54-1.26l79.12-79.1h0.02a0.42 0.42 0 0 1 0.08-0.12c0.42-0.44 0.82-0.9 1.16-1.4 0.2-0.32 0.34-0.64 0.52-0.98 0.12-0.24 0.28-0.48 0.38-0.74 0.2-0.44 0.3-0.9 0.42-1.34 0.06-0.18 0.12-0.34 0.16-0.52 0.14-0.68 0.2-1.36 0.2-2.04v-262.6c0-0.68-0.06-1.38-0.2-2.06zM220.18 516.4v45h-45l45-45zM469.4 824.12H161.02V581.4H469.4v242.72z m5.86-262.72H240.18v-59.12H534.4l-59.14 59.12z m73.28 189.46l-59.14 59.12V575.54l59.14-59.12v234.44z" fill="#23130D" p-id="31976"></path><path d="M220.18 516.4v45h-45zM534.4 502.28l-59.14 59.12H240.18v-59.12z" fill="#F8D3C9" p-id="31977"></path><path d="M220.18 545.96v15.44h-45l15.44-15.44zM534.4 502.28l-59.14 59.12H240.18v-15.44h235.08l43.7-43.68z" fill="#23130D" opacity=".2" p-id="31978"></path><path d="M548.54 516.42v234.44l-59.14 59.12V575.54zM161.02 581.4H469.4v242.72H161.02z" fill="#CC7B5A" p-id="31979"></path><path d="M763.9 531.84c0 5.52-4.48 10-10 10h-116.94c-5.52 0-10-4.48-10-10s4.48-10 10-10h116.94c5.52 0 10 4.48 10 10zM882.98 591.64c0 5.52-4.48 10-10 10H636.96c-5.52 0-10-4.48-10-10s4.48-10 10-10h236.02c5.52 0 10 4.48 10 10zM882.98 651.44c0 5.52-4.48 10-10 10H636.96c-5.52 0-10-4.48-10-10s4.48-10 10-10h236.02c5.52 0 10 4.48 10 10zM882.98 711.24c0 5.52-4.48 10-10 10H636.96c-5.52 0-10-4.48-10-10s4.48-10 10-10h236.02c5.52 0 10 4.48 10 10zM836.66 767.34h-163.4-0.02c-25.52 0-46.28 20.78-46.28 46.3 0 25.54 20.78 46.3 46.3 46.3h163.44c25.52-0.02 46.28-20.78 46.28-46.3 0-25.54-20.78-46.3-46.32-46.3z m0 72.6h-163.4c-14.5 0-26.3-11.8-26.3-26.3s11.8-26.3 26.3-26.3h163.4c14.52 0 26.32 11.8 26.32 26.3s-11.8 26.3-26.32 26.3z" fill="#23130D" p-id="31980"></path><path d="M862.98 813.64c0 14.5-11.8 26.3-26.32 26.3h-163.4c-14.5 0-26.3-11.8-26.3-26.3s11.8-26.3 26.3-26.3h163.4c14.52 0 26.32 11.8 26.32 26.3z" fill="#3594BF" p-id="31981"></path><path d="M862.98 813.64c0 14.5-11.8 26.3-26.32 26.3h-163.4c-14.5 0-26.3-11.8-26.3-26.3 0-3.54 0.7-6.92 2-10 3.92 9.56 13.34 16.3 24.3 16.3h163.4c10.98 0 20.4-6.74 24.34-16.3 1.28 3.08 1.98 6.46 1.98 10z" fill="#23130D" opacity=".2" p-id="31982"></path><path d="M872.98 265.72H151.02c-5.52 0-10 4.48-10 10v138c0 5.52 4.48 10 10 10h721.96c5.52 0 10-4.48 10-10v-138c0-5.52-4.48-10-10-10z m-10 138H161.02v-118h701.96v118z" fill="#23130D" p-id="31983"></path><path d="M161.02 285.72h701.96v118H161.02z" fill="#F9C139" p-id="31984"></path><path d="M161.02 285.72h701.96v21.28H161.02z" fill="#FFFFFF" opacity=".4" p-id="31985"></path><path d="M161.02 382.44h701.96v21.28H161.02z" fill="#23130D" opacity=".2" p-id="31986"></path></svg>