<?xml version="1.0" standalone="no"?><!DOCTYPE svg PUBLIC "-//W3C//DTD SVG 1.1//EN" "http://www.w3.org/Graphics/SVG/1.1/DTD/svg11.dtd"><svg t="1625812504591" class="icon" viewBox="0 0 1024 1024" version="1.1" xmlns="http://www.w3.org/2000/svg" p-id="107286" xmlns:xlink="http://www.w3.org/1999/xlink" width="200" height="200"><defs><style type="text/css"></style></defs><path d="M922.98 685.78c-13.76-19.66-43-26.96-66.66-16.64l-46.96 19.38v-108.6c0-0.02 0.02-0.02 0.02-0.02 0-0.02-0.02-0.02-0.02-0.02V517s0.02 0 0.02-0.02c0 0-0.02 0-0.02-0.02v-62.86c0-0.02 0.02-0.02 0.02-0.02 0-0.02-0.02-0.02-0.02-0.02v-62.88s0.02 0 0.02-0.02c0 0-0.02 0-0.02-0.02 0-44.08-12.28-87-35.08-124.12-6.68-10.84-14.24-21.2-22.66-30.94-7.08-8.16-14.66-15.78-22.68-22.86-30.54-26.9-67.56-45.56-107.42-54 9.82-19.56 26.74-43.78 51.48-47.9 15.68-2.62 26.12-11.02 28.66-23.04 2.58-12.24-3.88-25.14-16.86-33.66-21.34-14.02-61.78-16.44-112.52 17.28-50.74-33.72-91.18-31.3-112.52-17.28-12.98 8.52-19.44 21.42-16.86 33.66 2.54 12.02 12.98 20.42 28.64 23.04 24.76 4.12 41.68 28.34 51.5 47.9-50.32 10.66-96.14 37.62-130.1 76.86-37.24 43.02-57.74 98.08-57.76 155.06v0.02c0 0.02 0.02 0.04 0.02 0.06v62.8c0 0.02-0.02 0.04-0.02 0.06 0 0.02 0.02 0.02 0.02 0.04v62.82c0 0.02-0.02 0.02-0.02 0.04s0.02 0.04 0.02 0.06v62.8c0 0.02-0.02 0.04-0.02 0.06 0 0 0.02 0.02 0.02 0.04v92.1h-59.56v-15.98c0-17.7-14.4-32.1-32.1-32.1h-32.36v-13.94c0-5.52-4.48-10-10-10H103.56c-5.54 0-10 4.48-10 10V969.2c0 5.52 4.46 10 10 10h97.62c5.52 0 10-4.48 10-10v-18.48h32.36c17.7 0 32.1-14.4 32.1-32.1v-20.38l258.28 59.94c5.48 1.18 11.54 1.76 17.88 1.76 20.34 0 43.42-5.84 58.56-15.58l297.88-195.52c11.14-7.18 18.94-18.44 21.38-30.86 2.26-11.42-0.1-22.86-6.64-32.2z m-731.8-51.84V959.2H113.56V620.02h77.62v13.92z m64.46 284.68c0 6.68-5.42 12.1-12.1 12.1h-32.36V643.96h32.36c6.68 0 12.1 5.44 12.1 12.1v262.56zM474.84 91.6c-7.02-1.18-11.64-3.96-12.38-7.46-0.68-3.22 1.62-8.44 8.28-12.82 16.62-10.92 50.52-11.18 95.76 20.86 0.08 0.06 0.18 0.1 0.28 0.16 0.28 0.18 0.56 0.32 0.84 0.48 0.3 0.16 0.6 0.32 0.92 0.44 0.26 0.12 0.54 0.18 0.82 0.28 0.34 0.1 0.68 0.2 1.04 0.28 0.28 0.04 0.54 0.06 0.82 0.1 0.36 0.04 0.72 0.08 1.08 0.08 0.3 0 0.6-0.04 0.88-0.08 0.34-0.02 0.68-0.04 1-0.12 0.32-0.06 0.62-0.14 0.92-0.24 0.32-0.1 0.64-0.18 0.94-0.3 0.28-0.12 0.56-0.26 0.82-0.42 0.32-0.16 0.64-0.32 0.94-0.52 0.08-0.06 0.18-0.08 0.26-0.14 45.24-32.04 79.12-31.78 95.76-20.86 6.66 4.38 8.94 9.6 8.26 12.82-0.74 3.5-5.36 6.28-12.36 7.44-34.44 5.76-56.08 36.68-68.78 64.24-1.78-0.2-3.56-0.38-5.34-0.56-7.76-0.74-15.54-1.16-23.3-1.16l-0.02-0.02c-9.56 0-19.16 0.6-28.66 1.74-12.7-27.56-34.34-58.48-68.78-64.22zM355.2 589.9h88.92c5.52 0 10-4.48 10-10 0-5.54-4.48-10-10-10H355.2v-42.92h56.48c5.52 0 10-4.48 10-10s-4.48-10-10-10H355.2v-42.9h56.48c5.52 0 10-4.48 10-10s-4.48-10-10-10H355.2v-42.92h88.92c5.52 0 10-4.46 10-10 0-5.52-4.48-10-10-10h-88.7c4.64-98.94 77.64-183.8 174.7-202.98 2.94-0.58 5.9-1.1 8.88-1.56 0.44-0.08 0.88-0.12 1.32-0.18 10.6-1.54 21.34-2.34 31.96-2.34 6.96 0 13.98 0.36 20.96 1.04 4.12 0.38 8.22 0.86 12.3 1.48 101.5 15.6 178.82 102.6 183.58 204.54h-88.68c-5.52 0-10 4.48-10 10 0 5.54 4.48 10 10 10h88.92v42.92h-56.48c-5.52 0-10 4.48-10 10s4.48 10 10 10h56.48v42.9h-56.48c-5.52 0-10 4.48-10 10s4.48 10 10 10h56.48v42.92h-88.92c-5.52 0-10 4.46-10 10 0 5.52 4.48 10 10 10h88.92v54.48H355.2v-54.48z m0 74.48h434.16v28.72c0 1.28-0.12 2.56-0.36 3.82l-89.26 36.82c-6.7-19.58-25.52-33.52-47.64-33.52h-138.94c-20.8 0-54.86-6.06-74.48-13.26l-0.8-0.3a1.004 1.004 0 0 0-0.26-0.1c-20.62-7.58-50.5-12.62-82.42-14.08v-8.1zM910 714.12c-1.4 7.12-6 13.64-12.66 17.94l-297.88 195.52c-15.36 9.88-43.42 14.94-61.16 11.08l-262.66-60.94v-185.68h60.32c36.64 0 72 4.94 94.64 13.24l0.8 0.32c0.08 0.04 0.16 0.06 0.24 0.1 21.78 8 58.36 14.52 81.52 14.52h138.94c16.2 0 29.48 12.26 30.24 28 0.02 0.4 0.02 0.84 0.02 1.28 0 1.86-0.18 3.68-0.54 5.58-2.78 13.72-15.26 23.68-29.72 23.68H513.4c-4.16-0.18-41.52-0.88-72.56 25.94a9.984 9.984 0 0 0-1.02 14.1 9.994 9.994 0 0 0 14.1 1.02c25.94-22.4 58.4-21.1 58.7-21.08 0.18 0 0.36 0.02 0.54 0.02h138.94c23.94 0 44.68-16.72 49.32-39.76 0.3-1.54 0.54-3.06 0.68-4.6l161.94-66.8c0.08-0.04 0.14-0.06 0.22-0.1 14.72-6.46 34.12-2 42.34 9.74 3.38 4.84 4.58 10.84 3.4 16.88z" fill="#23130D" p-id="107287"></path><path d="M682.08 84.14c-0.74 3.5-5.36 6.28-12.36 7.44-34.44 5.76-56.08 36.68-68.78 64.24-1.78-0.2-3.56-0.38-5.34-0.56-7.76-0.74-15.54-1.16-23.3-1.16l-0.02-0.02c-9.56 0-19.16 0.6-28.66 1.74-12.7-27.56-34.34-58.48-68.78-64.22-7.02-1.18-11.64-3.96-12.38-7.46-0.68-3.22 1.62-8.44 8.28-12.82 16.62-10.92 50.52-11.18 95.76 20.86 0.08 0.06 0.18 0.1 0.28 0.16 0.28 0.18 0.56 0.32 0.84 0.48 0.3 0.16 0.6 0.32 0.92 0.44 0.26 0.12 0.54 0.18 0.82 0.28 0.34 0.1 0.68 0.2 1.04 0.28 0.28 0.04 0.54 0.06 0.82 0.1 0.36 0.04 0.72 0.08 1.08 0.08 0.3 0 0.6-0.04 0.88-0.08 0.34-0.02 0.68-0.04 1-0.12 0.32-0.06 0.62-0.14 0.92-0.24 0.32-0.1 0.64-0.18 0.94-0.3 0.28-0.12 0.56-0.26 0.82-0.42 0.32-0.16 0.64-0.32 0.94-0.52 0.08-0.06 0.18-0.08 0.26-0.14 45.24-32.04 79.12-31.78 95.76-20.86 6.66 4.38 8.94 9.6 8.26 12.82z" fill="#F9C139" p-id="107288"></path><path d="M575.34 154.14c-1.02-0.04-2.02-0.04-3.04-0.04l-0.02-0.02c-9.56 0-19.16 0.6-28.66 1.74-12.7-27.56-34.34-58.48-68.78-64.22-7.02-1.18-11.64-3.96-12.38-7.46-0.68-3.22 1.62-8.44 8.28-12.82 9.24-6.06 23.8-8.84 42.7-4.6-3.9 1.12-7.32 2.7-10.2 4.6-6.66 4.38-8.96 9.6-8.28 12.82 0.74 3.5 5.36 6.28 12.38 7.46 33.74 5.62 55.2 35.42 68 62.54z" opacity=".2" p-id="107289"></path><path d="M191.18 620.02V959.2H113.56V620.02h77.62z" fill="#3594BF" p-id="107290"></path><path d="M191.18 620.02V959.2H170V620.02h21.18z" fill="#FFFFFF" opacity=".4" p-id="107291"></path><path d="M255.64 656.06v262.56c0 6.68-5.42 12.1-12.1 12.1h-32.36V643.96h32.36c6.68 0 12.1 5.44 12.1 12.1z" fill="#E1E1E5" p-id="107292"></path><path d="M211.18 643.96h20v286.76h-20z" opacity=".2" p-id="107293"></path><path d="M910 714.12c-1.4 7.12-6 13.64-12.66 17.94l-297.88 195.52c-15.36 9.88-43.42 14.94-61.16 11.08l-262.66-60.94v-185.68h60.32c36.64 0 72 4.94 94.64 13.24l0.8 0.32c0.08 0.04 0.16 0.06 0.24 0.1 21.78 8 58.36 14.52 81.52 14.52h138.94c16.2 0 29.48 12.26 30.24 28 0.02 0.4 0.02 0.84 0.02 1.28 0 1.86-0.18 3.68-0.54 5.58-2.78 13.72-15.26 23.68-29.72 23.68H513.4c-4.16-0.18-41.52-0.88-72.56 25.94a9.984 9.984 0 0 0-1.02 14.1 9.994 9.994 0 0 0 14.1 1.02c25.94-22.4 58.4-21.1 58.7-21.08 0.18 0 0.36 0.02 0.54 0.02h138.94c23.94 0 44.68-16.72 49.32-39.76 0.3-1.54 0.54-3.06 0.68-4.6l161.94-66.8c0.08-0.04 0.14-0.06 0.22-0.1 14.72-6.46 34.12-2 42.34 9.74 3.38 4.84 4.58 10.84 3.4 16.88z" fill="#F8D3C9" p-id="107294"></path><path d="M910 714.12c-1.4 7.12-6 13.64-12.66 17.94l-297.88 195.52c-15.36 9.88-43.42 14.94-61.16 11.08l-262.66-60.94v-40.16l262.66 60.94c17.74 3.86 45.8-1.2 61.16-11.08l297.88-195.52c0.72-0.46 1.44-0.96 2.1-1.48 2.84 1.86 5.3 4.16 7.16 6.82 3.38 4.84 4.58 10.84 3.4 16.88z" opacity=".2" p-id="107295"></path><path d="M789.36 664.38v28.72c0 1.28-0.12 2.56-0.36 3.82l-89.26 36.82c-6.7-19.58-25.52-33.52-47.64-33.52h-138.94c-20.8 0-54.86-6.06-74.48-13.26l-0.8-0.3a1.004 1.004 0 0 0-0.26-0.1c-20.62-7.58-50.5-12.62-82.42-14.08v-8.1h434.16z" fill="#F9C139" p-id="107296"></path><path d="M477.34 686.96c19.62 7.2 53.68 13.26 74.48 13.26h-38.66c-20.8 0-54.86-6.06-74.48-13.26l-0.8-0.3a1.004 1.004 0 0 0-0.26-0.1c-20.62-7.58-50.5-12.62-82.42-14.08v-8.1h38.66v8.1c31.92 1.46 61.8 6.5 82.42 14.08 0.1 0.02 0.18 0.06 0.26 0.1l0.8 0.3z" opacity=".2" p-id="107297"></path><path d="M732.88 444.08h56.48v-42.92h-88.92c-5.52 0-10-4.46-10-10 0-5.52 4.48-10 10-10h88.68c-4.76-101.94-82.08-188.94-183.58-204.54-4.08-0.62-8.18-1.1-12.3-1.48-6.98-0.68-14-1.04-20.96-1.04-10.62 0-21.36 0.8-31.96 2.34-0.44 0.06-0.88 0.1-1.32 0.18-2.98 0.46-5.94 0.98-8.88 1.56-97.06 19.18-170.06 104.04-174.7 202.98h88.7c5.52 0 10 4.48 10 10 0 5.54-4.48 10-10 10H355.2v42.92h56.48c5.52 0 10 4.48 10 10s-4.48 10-10 10H355.2v42.9h56.48c5.52 0 10 4.48 10 10s-4.48 10-10 10H355.2v42.92h88.92c5.52 0 10 4.46 10 10 0 5.52-4.48 10-10 10H355.2v54.48h434.16v-54.48h-88.92c-5.52 0-10-4.48-10-10 0-5.54 4.48-10 10-10h88.92v-42.92h-56.48c-5.52 0-10-4.48-10-10s4.48-10 10-10h56.48v-42.9h-56.48c-5.52 0-10-4.48-10-10s4.48-10 10-10z m-174.1-9.76h27.02c31.32 0 56.8 25.48 56.8 56.82 0 31.32-25.48 56.8-56.8 56.8h-3.52v42.62c0 5.52-4.48 10-10 10s-10-4.48-10-10v-42.62h-50.3c-5.52 0-10-4.46-10-10 0-5.52 4.48-10 10-10h73.82c20.28 0 36.8-16.5 36.8-36.8 0-20.3-16.52-36.82-36.8-36.82h-27.02c-31.32 0-56.82-25.48-56.82-56.8 0-31.34 25.5-56.82 56.82-56.82h3.5v-42.58c0-5.54 4.48-10 10-10s10 4.46 10 10v42.58h50.32c5.52 0 10 4.46 10 10 0 5.52-4.48 10-10 10h-73.82c-20.3 0-36.82 16.5-36.82 36.82 0 20.28 16.52 36.8 36.82 36.8z" fill="#F9C139" p-id="107298"></path><path d="M572.28 174.1c-10.62 0-21.36 0.8-31.96 2.34-0.44 0.06-0.88 0.1-1.32 0.18-2.98 0.46-5.94 0.98-8.88 1.56-97.06 19.18-170.06 104.04-174.7 202.98h41c4.64-98.94 77.64-183.8 174.7-202.98 2.94-0.58 5.9-1.1 8.88-1.56 0.44-0.08 0.88-0.12 1.32-0.18 3.74-0.54 7.52-1 11.3-1.36-6.78-0.64-13.58-0.98-20.34-0.98zM355.2 589.9v54.48h41v-54.48h-41z m0-62.92v42.92h41v-42.92h-41z m0-62.9v42.9h41v-42.9h-41z m0-62.92v42.92h41v-42.92h-41z" opacity=".2" p-id="107299"></path><path d="M642.6 491.14c0 31.32-25.48 56.8-56.8 56.8h-3.52v42.62c0 5.52-4.48 10-10 10s-10-4.48-10-10v-42.62h-50.3c-5.52 0-10-4.46-10-10 0-5.52 4.48-10 10-10h73.82c20.28 0 36.8-16.5 36.8-36.8 0-20.3-16.52-36.82-36.8-36.82h-27.02c-31.32 0-56.82-25.48-56.82-56.8 0-31.34 25.5-56.82 56.82-56.82h3.5v-42.58c0-5.54 4.48-10 10-10s10 4.46 10 10v42.58h50.32c5.52 0 10 4.46 10 10 0 5.52-4.48 10-10 10h-73.82c-20.3 0-36.82 16.5-36.82 36.82 0 20.28 16.52 36.8 36.82 36.8h27.02c31.32 0 56.8 25.48 56.8 56.82z" fill="#23130D" p-id="107300"></path></svg>