<?xml version="1.0" standalone="no"?><!DOCTYPE svg PUBLIC "-//W3C//DTD SVG 1.1//EN" "http://www.w3.org/Graphics/SVG/1.1/DTD/svg11.dtd"><svg t="1625811460381" class="icon" viewBox="0 0 1024 1024" version="1.1" xmlns="http://www.w3.org/2000/svg" p-id="30396" xmlns:xlink="http://www.w3.org/1999/xlink" width="200" height="200"><defs><style type="text/css"></style></defs><path d="M512.02 76.76h-0.04c-223.02 0.02-404.46 181.46-404.46 404.48 0 223.04 181.44 404.48 404.48 404.48 111.52 0 212.64-45.36 285.88-118.6s118.6-174.36 118.6-285.88c0-223.02-181.44-404.46-404.46-404.48z m-0.02 198.02c5.52 0 10-4.48 10-10V96.88c204.08 5.24 369.12 170.3 374.36 374.38h-157.9v-11.04c13.58-11.94 21.28-28.86 21.28-47.16 0-34.74-28.26-63-63-63s-63.02 28.26-63.02 63c0 18.3 7.72 35.22 21.28 47.18v11H522v-143.02c0-2.7-1.08-5.12-2.82-6.92-0.04-0.06-0.06-0.1-0.1-0.14-0.1-0.1-0.22-0.18-0.32-0.26a9.86 9.86 0 0 0-6.76-2.68h-25.74-5l-3 4.02c-1.02 1.36-2.12 2.66-3.28 3.88-8.08 8.56-19.2 13.38-31.16 13.38-11.48 0-22.28-4.46-30.4-12.6-8.12-8.12-12.6-18.92-12.6-30.4 0-13.34 6.1-25.28 15.66-33.18 7.44-6.14 16.96-9.84 27.34-9.84 13.68 0 26.22 6.3 34.44 17.28l3 4h4.94c0.02 0 0.04 0.02 0.06 0.02H512z m-10-177.9v157.88h-10.98c-0.26-0.28-0.52-0.54-0.78-0.82-0.38-0.44-0.78-0.86-1.18-1.28-0.42-0.44-0.86-0.86-1.28-1.28-0.4-0.4-0.82-0.8-1.24-1.2-0.44-0.42-0.9-0.82-1.36-1.22-0.42-0.36-0.84-0.74-1.26-1.1-0.5-0.4-1.02-0.8-1.52-1.2-0.42-0.32-0.8-0.64-1.22-0.94-0.9-0.68-1.82-1.32-2.74-1.92-0.44-0.3-0.9-0.56-1.34-0.84-0.54-0.34-1.06-0.68-1.62-1-0.48-0.28-0.96-0.54-1.46-0.8-0.52-0.28-1.04-0.58-1.56-0.84s-1.02-0.5-1.54-0.74c-0.52-0.26-1.06-0.52-1.6-0.74-0.52-0.24-1.04-0.46-1.56-0.66-0.54-0.24-1.1-0.46-1.64-0.66-0.54-0.2-1.08-0.38-1.62-0.58-0.54-0.18-1.1-0.38-1.66-0.54-0.56-0.18-1.1-0.34-1.64-0.5-0.58-0.16-1.14-0.32-1.72-0.46-0.56-0.14-1.1-0.28-1.66-0.4-0.6-0.14-1.18-0.24-1.78-0.36-0.56-0.12-1.1-0.22-1.66-0.32-0.62-0.1-1.24-0.18-1.86-0.26-0.54-0.08-1.08-0.16-1.62-0.22-0.68-0.08-1.36-0.12-2.04-0.18l-1.5-0.12c-0.9-0.04-1.82-0.06-2.72-0.08-0.28 0-0.56-0.02-0.82-0.02-14.12 0-27.16 4.66-37.66 12.54-15.38 11.5-25.34 29.84-25.34 50.48 0 16.82 6.56 32.64 18.46 44.54 11.9 11.92 27.7 18.46 44.54 18.46 1.2 0 2.42-0.04 3.62-0.1 0.3-0.02 0.6-0.04 0.92-0.08 0.88-0.06 1.74-0.12 2.62-0.22 0.42-0.04 0.82-0.1 1.24-0.16 0.76-0.1 1.5-0.2 2.26-0.34 0.44-0.06 0.9-0.16 1.34-0.24 0.7-0.14 1.4-0.28 2.1-0.44 0.46-0.1 0.94-0.22 1.4-0.34 0.66-0.16 1.34-0.34 2-0.52l1.38-0.42c0.66-0.2 1.3-0.42 1.94-0.64a74.366 74.366 0 0 0 3.28-1.24c0.44-0.2 0.88-0.38 1.32-0.56 0.64-0.28 1.26-0.58 1.88-0.88 0.42-0.2 0.84-0.4 1.26-0.62 0.66-0.32 1.3-0.68 1.94-1.04 0.36-0.2 0.74-0.4 1.12-0.6 0.72-0.44 1.44-0.88 2.16-1.34 0.26-0.18 0.52-0.32 0.78-0.5 0.98-0.62 1.92-1.3 2.86-1.98l0.62-0.5c0.72-0.54 1.42-1.1 2.12-1.66 0.32-0.28 0.64-0.58 0.96-0.86 0.56-0.48 1.12-0.96 1.66-1.46 0.36-0.34 0.7-0.68 1.04-1 0.5-0.5 1-0.98 1.48-1.48 0.34-0.36 0.68-0.74 1.02-1.12 0.3-0.32 0.6-0.62 0.88-0.94H502v133.02h-143.02c-5.52 0-10 4.48-10 10 0 0.02 0.02 0.02 0.02 0.04v25.7c0 0.22 0.04 0.42 0.06 0.64 0.02 0.36 0.04 0.72 0.1 1.08 0.06 0.3 0.14 0.62 0.22 0.92 0.1 0.32 0.18 0.62 0.3 0.94 0.12 0.3 0.26 0.58 0.4 0.88 0.14 0.28 0.3 0.58 0.46 0.84 0.18 0.28 0.38 0.54 0.58 0.78 0.2 0.26 0.38 0.52 0.62 0.76 0.24 0.26 0.5 0.48 0.76 0.7 0.18 0.16 0.32 0.32 0.5 0.46 10.98 8.22 17.28 20.76 17.28 34.44 0 23.72-19.3 43-43.02 43-11.48 0-22.28-4.48-30.42-12.6-8.12-8.12-12.58-18.92-12.58-30.4 0-13.68 6.28-26.24 17.26-34.44 0.18-0.14 0.32-0.3 0.5-0.46 0.26-0.22 0.52-0.44 0.76-0.7 0.24-0.24 0.44-0.5 0.64-0.76 0.18-0.24 0.38-0.5 0.56-0.76 0.18-0.28 0.32-0.58 0.46-0.86 0.14-0.3 0.28-0.58 0.4-0.88 0.12-0.32 0.2-0.62 0.3-0.94 0.08-0.3 0.16-0.6 0.22-0.92 0.06-0.36 0.08-0.72 0.1-1.08 0.02-0.22 0.08-0.42 0.08-0.64v-25.7-0.02c0-0.7-0.08-1.38-0.2-2.02-0.94-4.56-4.98-8-9.8-8-0.04 0-0.08 0.02-0.12 0.02H127.64C132.88 267.16 297.92 102.12 502 96.88z m0 600.84V865.6c-204.08-5.24-369.12-170.28-374.36-374.34h157.9v11c-13.4 11.88-21.28 29.14-21.28 47.16 0 16.82 6.54 32.66 18.44 44.56 11.92 11.88 27.74 18.44 44.56 18.44 34.74 0 63.02-28.26 63.02-63 0-18-7.9-35.26-21.28-47.16v-11.02H502v143.02c0 5.52 4.48 10 10 10h25.74c0.22 0 0.42-0.06 0.66-0.08 0.34-0.02 0.7-0.04 1.04-0.1 0.32-0.06 0.64-0.14 0.94-0.22 0.32-0.1 0.62-0.18 0.92-0.3 0.32-0.12 0.6-0.26 0.9-0.4 0.28-0.14 0.56-0.28 0.84-0.46 0.28-0.18 0.54-0.38 0.8-0.58s0.5-0.38 0.72-0.6c0.28-0.26 0.52-0.54 0.76-0.82 0.14-0.16 0.3-0.28 0.42-0.46 8.2-10.98 20.76-17.26 34.44-17.26 11.48 0 22.28 4.46 30.4 12.6 8.12 8.12 12.6 18.92 12.6 30.4 0 23.72-19.28 43.02-43 43.02-13.68 0-26.24-6.3-34.44-17.28-0.12-0.16-0.28-0.3-0.42-0.46-0.24-0.28-0.48-0.56-0.76-0.82-0.22-0.2-0.46-0.38-0.7-0.58-0.28-0.2-0.54-0.42-0.82-0.6-0.28-0.16-0.54-0.3-0.82-0.44-0.3-0.14-0.6-0.3-0.92-0.42-0.3-0.12-0.58-0.2-0.88-0.28-0.32-0.08-0.64-0.18-0.98-0.24-0.34-0.06-0.68-0.08-1.02-0.1-0.22-0.02-0.46-0.06-0.68-0.06H512c-5.52 0-10 4.48-10 10z m20 167.88v-157.88h11.02c11.94 13.56 28.86 21.28 47.16 21.28 34.74 0 63-28.28 63-63.02 0-16.82-6.56-32.64-18.46-44.54-11.88-11.92-27.7-18.46-44.54-18.46-18.3 0-35.22 7.7-47.16 21.28H522v-133.02h143.02c5.52 0 10-4.48 10-10 0-0.02-0.02-0.04-0.02-0.08v-25.64c0-0.22-0.04-0.44-0.06-0.64-0.02-0.38-0.04-0.72-0.1-1.08a8.1 8.1 0 0 0-0.24-0.94c-0.08-0.3-0.16-0.62-0.28-0.92-0.12-0.32-0.26-0.6-0.4-0.88-0.16-0.3-0.3-0.58-0.46-0.86-0.18-0.28-0.38-0.54-0.58-0.78-0.2-0.26-0.38-0.52-0.62-0.74-0.24-0.26-0.52-0.5-0.78-0.74-0.18-0.14-0.3-0.3-0.48-0.44-10.98-8.2-17.28-20.76-17.28-34.44 0-23.7 19.3-43 43.02-43 23.7 0 43 19.3 43 43 0 13.68-6.3 26.24-17.26 34.44-0.2 0.14-0.34 0.32-0.52 0.48-0.26 0.22-0.52 0.44-0.74 0.68-0.24 0.26-0.44 0.52-0.66 0.8-0.18 0.24-0.36 0.46-0.52 0.72-0.2 0.3-0.36 0.6-0.5 0.92-0.14 0.26-0.26 0.52-0.38 0.8-0.12 0.34-0.22 0.68-0.32 1.04-0.06 0.26-0.14 0.54-0.2 0.82-0.06 0.4-0.1 0.78-0.12 1.18 0 0.2-0.06 0.38-0.06 0.58v25.72c0 3.46 1.76 6.5 4.44 8.3 1.58 1.08 3.52 1.72 5.58 1.72h167.88C891.12 695.32 726.08 860.36 522 865.6z" fill="#23130D" p-id="30397"></path><path d="M759.74 413.06c0-34.74-28.26-63-63-63s-63.02 28.26-63.02 63c0 18.3 7.72 35.22 21.28 47.18v11H522v-143.02c0-2.7-1.08-5.12-2.82-6.92-0.04-0.06-0.06-0.1-0.1-0.14-0.1-0.1-0.22-0.18-0.32-0.26a9.86 9.86 0 0 0-6.76-2.68h-25.74-5l-3 4.02c-1.02 1.36-2.12 2.66-3.28 3.88-8.08 8.56-19.2 13.38-31.16 13.38-11.48 0-22.28-4.46-30.4-12.6-8.12-8.12-12.6-18.92-12.6-30.4 0-13.34 6.1-25.28 15.66-33.18 7.44-6.14 16.96-9.84 27.34-9.84 13.68 0 26.22 6.3 34.44 17.28l3 4h4.94c0.02 0 0.04 0.02 0.06 0.02H512c5.52 0 10-4.48 10-10V96.88c204.08 5.24 369.12 170.3 374.36 374.38h-157.9v-11.04c13.58-11.94 21.28-28.86 21.28-47.16z" fill="#EC7063" p-id="30398"></path><path d="M896.36 491.26C891.12 695.32 726.08 860.36 522 865.6v-157.88h11.02c11.94 13.56 28.86 21.28 47.16 21.28 34.74 0 63-28.28 63-63.02 0-16.82-6.56-32.64-18.46-44.54-11.88-11.92-27.7-18.46-44.54-18.46-18.3 0-35.22 7.7-47.16 21.28H522v-133.02h143.02c5.52 0 10-4.48 10-10 0-0.02-0.02-0.04-0.02-0.08v-25.64c0-0.22-0.04-0.44-0.06-0.64-0.02-0.38-0.04-0.72-0.1-1.08a8.1 8.1 0 0 0-0.24-0.94c-0.08-0.3-0.16-0.62-0.28-0.92-0.12-0.32-0.26-0.6-0.4-0.88-0.16-0.3-0.3-0.58-0.46-0.86-0.18-0.28-0.38-0.54-0.58-0.78-0.2-0.26-0.38-0.52-0.62-0.74-0.24-0.26-0.52-0.5-0.78-0.74-0.18-0.14-0.3-0.3-0.48-0.44-10.98-8.2-17.28-20.76-17.28-34.44 0-23.7 19.3-43 43.02-43 23.7 0 43 19.3 43 43 0 13.68-6.3 26.24-17.26 34.44-0.2 0.14-0.34 0.32-0.52 0.48-0.26 0.22-0.52 0.44-0.74 0.68-0.24 0.26-0.44 0.52-0.66 0.8-0.18 0.24-0.36 0.46-0.52 0.72-0.2 0.3-0.36 0.6-0.5 0.92-0.14 0.26-0.26 0.52-0.38 0.8-0.12 0.34-0.22 0.68-0.32 1.04-0.06 0.26-0.14 0.54-0.2 0.82-0.06 0.4-0.1 0.78-0.12 1.18 0 0.2-0.06 0.38-0.06 0.58v25.72c0 3.46 1.76 6.5 4.44 8.3 1.58 1.08 3.52 1.72 5.58 1.72h167.88z" fill="#72AF5F" p-id="30399"></path><path d="M623.18 665.98c0 23.72-19.28 43.02-43 43.02-13.68 0-26.24-6.3-34.44-17.28-0.12-0.16-0.28-0.3-0.42-0.46-0.24-0.28-0.48-0.56-0.76-0.82-0.22-0.2-0.46-0.38-0.7-0.58-0.28-0.2-0.54-0.42-0.82-0.6-0.28-0.16-0.54-0.3-0.82-0.44-0.3-0.14-0.6-0.3-0.92-0.42-0.3-0.12-0.58-0.2-0.88-0.28-0.32-0.08-0.64-0.18-0.98-0.24-0.34-0.06-0.68-0.08-1.02-0.1-0.22-0.02-0.46-0.06-0.68-0.06H512c-5.52 0-10 4.48-10 10V865.6c-204.08-5.24-369.12-170.28-374.36-374.34h157.9v11c-13.4 11.88-21.28 29.14-21.28 47.16 0 16.82 6.54 32.66 18.44 44.56 11.92 11.88 27.74 18.44 44.56 18.44 34.74 0 63.02-28.26 63.02-63 0-18-7.9-35.26-21.28-47.16v-11.02H502v143.02c0 5.52 4.48 10 10 10h25.74c0.22 0 0.42-0.06 0.66-0.08 0.34-0.02 0.7-0.04 1.04-0.1 0.32-0.06 0.64-0.14 0.94-0.22 0.32-0.1 0.62-0.18 0.92-0.3 0.32-0.12 0.6-0.26 0.9-0.4 0.28-0.14 0.56-0.28 0.84-0.46 0.28-0.18 0.54-0.38 0.8-0.58s0.5-0.38 0.72-0.6c0.28-0.26 0.52-0.54 0.76-0.82 0.14-0.16 0.3-0.28 0.42-0.46 8.2-10.98 20.76-17.26 34.44-17.26 11.48 0 22.28 4.46 30.4 12.6 8.12 8.12 12.6 18.92 12.6 30.4z" fill="#3594BF" p-id="30400"></path><path d="M380.82 296.5c0 16.82 6.56 32.64 18.46 44.54 11.9 11.92 27.7 18.46 44.54 18.46 1.2 0 2.42-0.04 3.62-0.1 0.3-0.02 0.6-0.04 0.92-0.08 0.88-0.06 1.74-0.12 2.62-0.22 0.42-0.04 0.82-0.1 1.24-0.16 0.76-0.1 1.5-0.2 2.26-0.34 0.44-0.06 0.9-0.16 1.34-0.24 0.7-0.14 1.4-0.28 2.1-0.44 0.46-0.1 0.94-0.22 1.4-0.34 0.66-0.16 1.34-0.34 2-0.52l1.38-0.42c0.66-0.2 1.3-0.42 1.94-0.64a74.366 74.366 0 0 0 3.28-1.24c0.44-0.2 0.88-0.38 1.32-0.56 0.64-0.28 1.26-0.58 1.88-0.88 0.42-0.2 0.84-0.4 1.26-0.62 0.66-0.32 1.3-0.68 1.94-1.04 0.36-0.2 0.74-0.4 1.12-0.6 0.72-0.44 1.44-0.88 2.16-1.34 0.26-0.18 0.52-0.32 0.78-0.5 0.98-0.62 1.92-1.3 2.86-1.98l0.62-0.5c0.72-0.54 1.42-1.1 2.12-1.66 0.32-0.28 0.64-0.58 0.96-0.86 0.56-0.48 1.12-0.96 1.66-1.46 0.36-0.34 0.7-0.68 1.04-1 0.5-0.5 1-0.98 1.48-1.48 0.34-0.36 0.68-0.74 1.02-1.12 0.3-0.32 0.6-0.62 0.88-0.94H502v133.02h-143.02c-5.52 0-10 4.48-10 10 0 0.02 0.02 0.02 0.02 0.04v25.7c0 0.22 0.04 0.42 0.06 0.64 0.02 0.36 0.04 0.72 0.1 1.08 0.06 0.3 0.14 0.62 0.22 0.92 0.1 0.32 0.18 0.62 0.3 0.94 0.12 0.3 0.26 0.58 0.4 0.88 0.14 0.28 0.3 0.58 0.46 0.84 0.18 0.28 0.38 0.54 0.58 0.78 0.2 0.26 0.38 0.52 0.62 0.76 0.24 0.26 0.5 0.48 0.76 0.7 0.18 0.16 0.32 0.32 0.5 0.46 10.98 8.22 17.28 20.76 17.28 34.44 0 23.72-19.3 43-43.02 43-11.48 0-22.28-4.48-30.42-12.6-8.12-8.12-12.58-18.92-12.58-30.4 0-13.68 6.28-26.24 17.26-34.44 0.18-0.14 0.32-0.3 0.5-0.46 0.26-0.22 0.52-0.44 0.76-0.7 0.24-0.24 0.44-0.5 0.64-0.76 0.18-0.24 0.38-0.5 0.56-0.76 0.18-0.28 0.32-0.58 0.46-0.86 0.14-0.3 0.28-0.58 0.4-0.88 0.12-0.32 0.2-0.62 0.3-0.94 0.08-0.3 0.16-0.6 0.22-0.92 0.06-0.36 0.08-0.72 0.1-1.08 0.02-0.22 0.08-0.42 0.08-0.64v-25.7-0.02c0-0.7-0.08-1.38-0.2-2.02-0.94-4.56-4.98-8-9.8-8-0.04 0-0.08 0.02-0.12 0.02H127.64C132.88 267.16 297.92 102.12 502 96.88v157.88h-10.98c-0.26-0.28-0.52-0.54-0.78-0.82-0.38-0.44-0.78-0.86-1.18-1.28-0.42-0.44-0.86-0.86-1.28-1.28-0.4-0.4-0.82-0.8-1.24-1.2-0.44-0.42-0.9-0.82-1.36-1.22-0.42-0.36-0.84-0.74-1.26-1.1-0.5-0.4-1.02-0.8-1.52-1.2-0.42-0.32-0.8-0.64-1.22-0.94-0.9-0.68-1.82-1.32-2.74-1.92-0.44-0.3-0.9-0.56-1.34-0.84-0.54-0.34-1.06-0.68-1.62-1-0.48-0.28-0.96-0.54-1.46-0.8-0.52-0.28-1.04-0.58-1.56-0.84s-1.02-0.5-1.54-0.74c-0.52-0.26-1.06-0.52-1.6-0.74-0.52-0.24-1.04-0.46-1.56-0.66-0.54-0.24-1.1-0.46-1.64-0.66-0.54-0.2-1.08-0.38-1.62-0.58-0.54-0.18-1.1-0.38-1.66-0.54-0.56-0.18-1.1-0.34-1.64-0.5-0.58-0.16-1.14-0.32-1.72-0.46-0.56-0.14-1.1-0.28-1.66-0.4-0.6-0.14-1.18-0.24-1.78-0.36-0.56-0.12-1.1-0.22-1.66-0.32-0.62-0.1-1.24-0.18-1.86-0.26-0.54-0.08-1.08-0.16-1.62-0.22-0.68-0.08-1.36-0.12-2.04-0.18l-1.5-0.12c-0.9-0.04-1.82-0.06-2.72-0.08-0.28 0-0.56-0.02-0.82-0.02-14.12 0-27.16 4.66-37.66 12.54-15.38 11.5-25.34 29.84-25.34 50.48z" fill="#F9C139" p-id="30401"></path><path d="M534 109.394c91.01 5.326 176.278 43.61 241.26 108.596 64.98 64.986 103.262 150.256 108.586 241.27h-128.036a74.882 74.882 0 0 0 15.93-46.2c0-41.356-33.644-75-75-75-41.366 0-75.02 33.644-75.02 75a74.966 74.966 0 0 0 15.914 46.18H534v-131.02c0-5.428-1.988-10.594-5.614-14.638a11.85 11.85 0 0 0-0.826-0.91 13.52 13.52 0 0 0-1.082-0.968 21.84 21.84 0 0 0-14.478-5.482h-36.758l-3.6 4.822-2.982 3.996c-0.736 0.98-1.534 1.926-2.406 2.844-5.854 6.202-13.82 9.618-22.434 9.618a30.726 30.726 0 0 1-21.914-9.086 30.796 30.796 0 0 1-9.086-21.914c0-9.272 4.12-17.994 11.298-23.924 5.624-4.642 12.438-7.096 19.702-7.096 9.848 0 18.9 4.546 24.84 12.48l3 4 3.6 4.8h8.128l0.04 0.02H512c12.13 0 22-9.87 22-22.02V109.394m-12-12.514v167.9c0 5.52-4.48 10-10 10h-25.74c-0.02 0-0.04-0.02-0.06-0.02h-4.94l-3-4c-8.22-10.98-20.76-17.28-34.44-17.28-10.38 0-19.9 3.7-27.34 9.84-9.56 7.9-15.66 19.84-15.66 33.18 0 11.48 4.48 22.28 12.6 30.4 8.12 8.14 18.92 12.6 30.4 12.6 11.96 0 23.08-4.82 31.16-13.38 1.16-1.22 2.26-2.52 3.28-3.88l3-4.02H512c2.62 0 4.98 1.02 6.76 2.68 0.1 0.08 0.22 0.16 0.32 0.26 0.04 0.04 0.06 0.08 0.1 0.14 1.74 1.8 2.82 4.22 2.82 6.92v143.02h133v-11c-13.56-11.96-21.28-28.88-21.28-47.18 0-34.74 28.28-63 63.02-63s63 28.26 63 63c0 18.3-7.7 35.22-21.28 47.16v11.04h157.9C891.12 267.18 726.08 102.12 522 96.88z" opacity=".2" p-id="30402"></path><path d="M696.74 382.06c17.094 0 31 13.906 31 31 0 9.832-4.51 18.858-12.378 24.778-0.628 0.46-1.116 0.902-1.506 1.282a17.26 17.26 0 0 0-1.454 1.402c-0.544 0.59-0.952 1.11-1.278 1.526l-0.14 0.18-0.08 0.106c-0.202 0.266-0.564 0.738-0.958 1.356a17.526 17.526 0 0 0-1.194 2.148 22.46 22.46 0 0 0-0.622 1.338l-0.156 0.364-0.132 0.372c-0.21 0.596-0.39 1.19-0.566 1.822l-0.06 0.214-0.06 0.256-0.028 0.114c-0.078 0.306-0.154 0.618-0.222 0.93l-0.078 0.366-0.056 0.37c-0.098 0.648-0.166 1.274-0.21 1.904-0.054 0.44-0.102 0.994-0.102 1.638v25.72c0 7.334 3.644 14.162 9.668 18.206a21.804 21.804 0 0 0 12.352 3.814h155.366c-5.326 91.004-43.606 176.264-108.586 241.242-64.982 64.972-150.248 103.252-241.26 108.578v-128.008a74.894 74.894 0 0 0 46.18 15.922c41.356 0 75-33.654 75-75.02 0-20.024-7.804-38.854-21.96-53.012-14.132-14.18-32.968-21.988-53.04-21.988a74.88 74.88 0 0 0-46.18 15.914V503.24h131.02c12.13 0 22-9.87 22-22l-0.008-2.412-0.012-0.03V455.52c0-0.66-0.046-1.21-0.1-1.69a19.416 19.416 0 0 0-0.222-2.004l-0.02-0.12-0.022-0.12a19.98 19.98 0 0 0-0.49-2.012 18.214 18.214 0 0 0-0.628-1.956c-0.33-0.86-0.662-1.524-0.864-1.928l-0.07-0.142-0.074-0.14-0.106-0.2c-0.172-0.328-0.34-0.644-0.522-0.962l-0.156-0.274-0.17-0.264a19.446 19.446 0 0 0-1.248-1.722 15.91 15.91 0 0 0-1.524-1.76 21.724 21.724 0 0 0-1.05-1.004l-0.11-0.1-0.14-0.13a13.47 13.47 0 0 0-1.116-0.968l-0.092-0.072-0.094-0.07c-7.918-5.914-12.46-14.962-12.46-24.826-0.002-17.09 13.914-30.996 31.018-30.996m0-12c-23.72 0-43.02 19.3-43.02 43 0 13.68 6.3 26.24 17.28 34.44 0.18 0.14 0.3 0.3 0.48 0.44 0.26 0.24 0.54 0.48 0.78 0.74 0.24 0.22 0.42 0.48 0.62 0.74 0.2 0.24 0.4 0.5 0.58 0.78 0.16 0.28 0.3 0.56 0.46 0.86 0.14 0.28 0.28 0.56 0.4 0.88 0.12 0.3 0.2 0.62 0.28 0.92 0.1 0.32 0.18 0.62 0.24 0.94 0.06 0.36 0.08 0.7 0.1 1.08 0.02 0.2 0.06 0.42 0.06 0.64v25.64c0 0.04 0.02 0.06 0.02 0.08 0 5.52-4.48 10-10 10H522v133.02h11.02c11.94-13.58 28.86-21.28 47.16-21.28 16.84 0 32.66 6.54 44.54 18.46 11.9 11.9 18.46 27.72 18.46 44.54 0 34.74-28.26 63.02-63 63.02-18.3 0-35.22-7.72-47.16-21.28H522v157.88c204.08-5.24 369.12-170.28 374.36-374.34h-167.88c-2.06 0-4-0.64-5.58-1.72a9.976 9.976 0 0 1-4.44-8.3v-25.72c0-0.2 0.06-0.38 0.06-0.58 0.02-0.4 0.06-0.78 0.12-1.18 0.06-0.28 0.14-0.56 0.2-0.82 0.1-0.36 0.2-0.7 0.32-1.04 0.12-0.28 0.24-0.54 0.38-0.8 0.14-0.32 0.3-0.62 0.5-0.92 0.16-0.26 0.34-0.48 0.52-0.72 0.22-0.28 0.42-0.54 0.66-0.8 0.22-0.24 0.48-0.46 0.74-0.68 0.18-0.16 0.32-0.34 0.52-0.48 10.96-8.2 17.26-20.76 17.26-34.44 0-23.7-19.3-43-43-43z" opacity=".2" p-id="30403"></path><path d="M490 503.24v131.02c0 12.13 9.87 22 22.04 22h25.7c0.748 0 1.374-0.062 1.888-0.134 0.502-0.036 1.158-0.098 1.896-0.228l0.062-0.01 0.062-0.012c0.744-0.14 1.396-0.306 1.82-0.42l0.246-0.066 0.242-0.076 0.126-0.038c0.338-0.102 0.89-0.268 1.548-0.526 0.666-0.256 1.198-0.506 1.522-0.66l0.12-0.056 0.15-0.07 0.146-0.072c0.424-0.212 1.136-0.568 1.958-1.098 0.706-0.454 1.26-0.88 1.674-1.198 0.374-0.288 0.982-0.754 1.674-1.424 0.534-0.508 0.964-0.982 1.282-1.348 0.362-0.37 0.808-0.868 1.27-1.502 5.906-7.844 14.92-12.34 24.75-12.34 8.288 0 16.066 3.222 21.914 9.086a30.796 30.796 0 0 1 9.086 21.914c0 17.104-13.906 31.02-31 31.02-9.864 0-18.912-4.542-24.842-12.482a14.396 14.396 0 0 0-1.106-1.3 19.926 19.926 0 0 0-1.504-1.57l-0.048-0.044-0.048-0.044c-0.32-0.29-0.652-0.568-0.996-0.844l-0.09-0.072-0.276-0.238-0.366-0.262-0.082-0.062a19.152 19.152 0 0 0-1.29-0.914l-0.264-0.17-0.272-0.156c-0.48-0.274-0.928-0.514-1.408-0.754l-0.172-0.084-0.11-0.052-0.1-0.048a19.34 19.34 0 0 0-3.692-1.376l-0.074-0.02-0.094-0.024-0.104-0.028c-0.36-0.096-0.96-0.258-1.716-0.392a18.726 18.726 0 0 0-2.078-0.242 15.386 15.386 0 0 0-1.708-0.1H512c-12.13 0-22 9.87-22 22.02v155.346c-91.012-5.326-176.278-43.606-241.26-108.584-64.98-64.978-103.26-150.238-108.586-241.242h128.044a75 75 0 0 0-15.938 46.16c0 20.048 7.796 38.888 21.968 53.06 14.196 14.148 33.03 21.94 53.032 21.94 41.366 0 75.02-33.644 75.02-75 0-16.808-5.706-33.05-15.97-46.18H490m12-12.004h-133v11.02c13.38 11.9 21.28 29.16 21.28 47.16 0 34.74-28.28 63-63.02 63-16.82 0-32.64-6.56-44.56-18.44-11.9-11.9-18.44-27.74-18.44-44.56 0-18.02 7.88-35.28 21.28-47.16v-11H127.64C132.88 695.32 297.92 860.36 502 865.6v-167.86-0.02c0-5.52 4.48-10 10-10h25.74c0.22 0 0.46 0.04 0.68 0.06 0.34 0.02 0.68 0.04 1.02 0.1 0.34 0.06 0.66 0.16 0.98 0.24 0.3 0.08 0.58 0.16 0.88 0.28 0.32 0.12 0.62 0.28 0.92 0.42 0.28 0.14 0.54 0.28 0.82 0.44 0.28 0.18 0.54 0.4 0.82 0.6 0.24 0.2 0.48 0.38 0.7 0.58 0.28 0.26 0.52 0.54 0.76 0.82 0.14 0.16 0.3 0.3 0.42 0.46 8.2 10.98 20.76 17.28 34.44 17.28 23.72 0 43-19.3 43-43.02 0-11.48-4.48-22.28-12.6-30.4-8.12-8.14-18.92-12.6-30.4-12.6-13.68 0-26.24 6.28-34.44 17.26-0.12 0.18-0.28 0.3-0.42 0.46-0.24 0.28-0.48 0.56-0.76 0.82-0.22 0.22-0.46 0.4-0.72 0.6-0.26 0.2-0.52 0.4-0.8 0.58-0.28 0.18-0.56 0.32-0.84 0.46-0.3 0.14-0.58 0.28-0.9 0.4-0.3 0.12-0.6 0.2-0.92 0.3-0.3 0.08-0.62 0.16-0.94 0.22-0.34 0.06-0.7 0.08-1.04 0.1-0.24 0.02-0.44 0.08-0.66 0.08H512c-5.52 0-10-4.48-10-10v-143.02z" opacity=".2" p-id="30404"></path><path d="M490 109.394v127.978l-0.104-0.082-0.11-0.088-0.112-0.086-0.298-0.232a61.606 61.606 0 0 0-5.526-3.858l-0.356-0.22-0.314-0.2a43.254 43.254 0 0 0-3.518-2.038l-0.366-0.2c-0.488-0.27-0.98-0.536-1.468-0.78a73.656 73.656 0 0 0-1.708-0.824 34.98 34.98 0 0 0-2.002-0.924 36.446 36.446 0 0 0-1.766-0.748 40.926 40.926 0 0 0-3.056-1.178l-0.624-0.222-0.188-0.07-0.19-0.064-0.346-0.116a46.532 46.532 0 0 0-1.598-0.516 80.212 80.212 0 0 0-1.74-0.528l-0.108-0.032-0.108-0.03-0.292-0.082a50.924 50.924 0 0 0-1.71-0.454l-0.266-0.066a54.196 54.196 0 0 0-3.272-0.728l-0.408-0.08a65.938 65.938 0 0 0-1.954-0.376l-0.098-0.018-0.098-0.016a67.676 67.676 0 0 0-2.122-0.3 46.98 46.98 0 0 0-3.686-0.422l-0.564-0.046-0.05-0.004-0.05-0.004-1.496-0.12-0.214-0.018-0.214-0.01a136.866 136.866 0 0 0-2.984-0.088l-0.134-0.004h-0.054l-0.068-0.002a23.81 23.81 0 0 0-0.832-0.018c-16.324 0-31.838 5.166-44.846 14.93-18.882 14.118-30.154 36.582-30.154 60.09 0 20.024 7.804 38.854 21.968 53.018 14.152 14.176 32.986 21.982 53.032 21.982 1.29 0 2.67-0.038 4.218-0.114l0.1-0.006 0.1-0.006c0.396-0.026 0.792-0.056 1.202-0.1 0.806-0.056 1.766-0.126 2.796-0.24 0.524-0.052 1.032-0.122 1.554-0.196l0.06-0.008a55.66 55.66 0 0 0 2.57-0.386c0.416-0.064 0.84-0.142 1.258-0.222l0.282-0.054 0.112-0.02 0.104-0.02c0.784-0.156 1.568-0.316 2.354-0.494 0.564-0.124 1.15-0.268 1.716-0.414 0.736-0.18 1.492-0.38 2.226-0.58l0.168-0.046 0.168-0.05 1.368-0.416c0.8-0.242 1.576-0.506 2.418-0.796 0.57-0.198 1.14-0.4 1.712-0.622 0.716-0.268 1.41-0.538 2.126-0.83l0.226-0.092 0.222-0.102c0.298-0.136 0.596-0.254 0.9-0.378l0.132-0.054 0.13-0.058c0.782-0.342 1.542-0.706 2.228-1.04 0.502-0.238 1.002-0.48 1.504-0.738a48.46 48.46 0 0 0 2.366-1.266c0.278-0.154 0.572-0.308 0.884-0.472l0.338-0.178 0.326-0.2c0.788-0.482 1.576-0.964 2.364-1.468l0.186-0.118 0.046-0.032a68.406 68.406 0 0 0 3.982-2.72l0.238-0.172 0.23-0.184 0.352-0.284 0.146-0.118c0.256-0.194 0.51-0.388 0.762-0.586v103.62h-131.02c-12.13 0-22 9.87-22 22l0.01 4.99 0.01 0.01v20.74c0 0.708 0.056 1.304 0.1 1.688 0.032 0.514 0.09 1.212 0.222 2.004l0.032 0.19 0.038 0.19c0.108 0.54 0.248 1.118 0.392 1.658l0.066 0.246 0.076 0.242 0.042 0.142c0.142 0.476 0.292 0.942 0.474 1.43l0.046 0.12 0.048 0.12c0.184 0.462 0.386 0.904 0.6 1.354l0.07 0.148 0.07 0.148 0.072 0.146c0.326 0.65 0.644 1.226 0.972 1.76l0.062 0.1 0.064 0.1c0.374 0.58 0.782 1.144 1.246 1.718a18.456 18.456 0 0 0 2.776 2.954c0.248 0.238 0.644 0.606 1.164 1.01l0.088 0.068 0.088 0.066c7.926 5.934 12.472 14.984 12.472 24.834 0 17.094-13.916 31-31.02 31a30.868 30.868 0 0 1-21.934-9.086 30.782 30.782 0 0 1-9.066-21.914c0-9.872 4.534-18.922 12.44-24.826l0.096-0.072 0.096-0.074c0.508-0.396 0.9-0.758 1.158-1.004 0.368-0.316 0.856-0.754 1.386-1.312 0.698-0.72 1.19-1.358 1.494-1.752l0.046-0.06 0.046-0.06 0.092-0.122c0.244-0.324 0.498-0.666 0.734-1.006l0.116-0.168 0.11-0.172c0.516-0.802 0.868-1.514 1.056-1.896l0.044-0.09 0.072-0.144 0.068-0.144 0.07-0.148c0.214-0.45 0.414-0.89 0.598-1.352l0.05-0.122 0.046-0.124c0.182-0.488 0.33-0.952 0.474-1.428l0.042-0.142 0.076-0.244 0.066-0.246c0.11-0.412 0.276-1.036 0.418-1.798l0.022-0.118 0.02-0.12c0.114-0.688 0.174-1.306 0.208-1.794 0.072-0.514 0.136-1.148 0.136-1.898v-25.72c0-1.372-0.136-2.794-0.406-4.23l-0.02-0.106-0.022-0.106c-2.1-10.184-11.164-17.578-21.552-17.578a11.42 11.42 0 0 0-0.692 0.02H140.154c5.326-91.02 43.606-176.294 108.586-241.278C313.72 153.002 398.988 114.72 490 109.394m12-12.514C297.92 102.12 132.88 267.16 127.64 471.26h167.78c0.04 0 0.08-0.02 0.12-0.02 4.82 0 8.86 3.44 9.8 8 0.12 0.64 0.2 1.32 0.2 2.02v25.72c0 0.22-0.06 0.42-0.08 0.64-0.02 0.36-0.04 0.72-0.1 1.08-0.06 0.32-0.14 0.62-0.22 0.92-0.1 0.32-0.18 0.62-0.3 0.94-0.12 0.3-0.26 0.58-0.4 0.88-0.14 0.28-0.28 0.58-0.46 0.86-0.18 0.26-0.38 0.52-0.56 0.76-0.2 0.26-0.4 0.52-0.64 0.76-0.24 0.26-0.5 0.48-0.76 0.7-0.18 0.16-0.32 0.32-0.5 0.46-10.98 8.2-17.26 20.76-17.26 34.44 0 11.48 4.46 22.28 12.58 30.4 8.14 8.12 18.94 12.6 30.42 12.6 23.72 0 43.02-19.28 43.02-43 0-13.68-6.3-26.22-17.28-34.44-0.18-0.14-0.32-0.3-0.5-0.46-0.26-0.22-0.52-0.44-0.76-0.7-0.24-0.24-0.42-0.5-0.62-0.76-0.2-0.24-0.4-0.5-0.58-0.78-0.16-0.26-0.32-0.56-0.46-0.84-0.14-0.3-0.28-0.58-0.4-0.88-0.12-0.32-0.2-0.62-0.3-0.94-0.08-0.3-0.16-0.62-0.22-0.92-0.06-0.36-0.08-0.72-0.1-1.08-0.02-0.22-0.06-0.42-0.06-0.64v-25.7c0-0.02-0.02-0.02-0.02-0.04 0-5.52 4.48-10 10-10H502v-133.02h-10.98c-0.28 0.32-0.58 0.62-0.88 0.94-0.34 0.38-0.68 0.76-1.02 1.12-0.48 0.5-0.98 0.98-1.48 1.48-0.34 0.32-0.68 0.66-1.04 1-0.54 0.5-1.1 0.98-1.66 1.46-0.32 0.28-0.64 0.58-0.96 0.86-0.7 0.56-1.4 1.12-2.12 1.66l-0.62 0.5c-0.94 0.68-1.88 1.36-2.86 1.98-0.26 0.18-0.52 0.32-0.78 0.5-0.72 0.46-1.44 0.9-2.16 1.34-0.38 0.2-0.76 0.4-1.12 0.6-0.64 0.36-1.28 0.72-1.94 1.04-0.42 0.22-0.84 0.42-1.26 0.62-0.62 0.3-1.24 0.6-1.88 0.88-0.44 0.18-0.88 0.36-1.32 0.56a74.366 74.366 0 0 1-3.28 1.24c-0.64 0.22-1.28 0.44-1.94 0.64l-1.38 0.42c-0.66 0.18-1.34 0.36-2 0.52-0.46 0.12-0.94 0.24-1.4 0.34-0.7 0.16-1.4 0.3-2.1 0.44-0.44 0.08-0.9 0.18-1.34 0.24-0.76 0.14-1.5 0.24-2.26 0.34-0.42 0.06-0.82 0.12-1.24 0.16-0.88 0.1-1.74 0.16-2.62 0.22-0.32 0.04-0.62 0.06-0.92 0.08-1.2 0.06-2.42 0.1-3.62 0.1-16.84 0-32.64-6.54-44.54-18.46-11.9-11.9-18.46-27.72-18.46-44.54 0-20.64 9.96-38.98 25.34-50.48a62.522 62.522 0 0 1 37.66-12.54c0.26 0 0.54 0.02 0.82 0.02 0.9 0.02 1.82 0.04 2.72 0.08l1.5 0.12c0.68 0.06 1.36 0.1 2.04 0.18 0.54 0.06 1.08 0.14 1.62 0.22 0.62 0.08 1.24 0.16 1.86 0.26 0.56 0.1 1.1 0.2 1.66 0.32 0.6 0.12 1.18 0.22 1.78 0.36 0.56 0.12 1.1 0.26 1.66 0.4 0.58 0.14 1.14 0.3 1.72 0.46 0.54 0.16 1.08 0.32 1.64 0.5 0.56 0.16 1.12 0.36 1.66 0.54 0.54 0.2 1.08 0.38 1.62 0.58 0.54 0.2 1.1 0.42 1.64 0.66 0.52 0.2 1.04 0.42 1.56 0.66 0.54 0.22 1.08 0.48 1.6 0.74 0.52 0.24 1.02 0.48 1.54 0.74s1.04 0.56 1.56 0.84c0.5 0.26 0.98 0.52 1.46 0.8 0.56 0.32 1.08 0.66 1.62 1 0.44 0.28 0.9 0.54 1.34 0.84 0.92 0.6 1.84 1.24 2.74 1.92 0.42 0.3 0.8 0.62 1.22 0.94 0.5 0.4 1.02 0.8 1.52 1.2 0.42 0.36 0.84 0.74 1.26 1.1 0.46 0.4 0.92 0.8 1.36 1.22 0.42 0.4 0.84 0.8 1.24 1.2 0.42 0.42 0.86 0.84 1.28 1.28 0.4 0.42 0.8 0.84 1.18 1.28 0.26 0.28 0.52 0.54 0.78 0.82H502V96.88z" opacity=".2" p-id="30405"></path><path d="M375.93 906.108l-1.882-0.608a9.71 9.71 0 0 0-0.95-0.26 11.418 11.418 0 0 0-0.928-0.356l-1.85-0.614-0.054-0.018a445.372 445.372 0 0 1-29.28-10.972 10.004 10.004 0 0 0-13.072 5.396 9.998 9.998 0 0 0 5.398 13.072 464.5 464.5 0 0 0 30.644 11.482h0.004l0.002 0.002h0.002l0.05 0.018 1.908 0.632c0.326 0.108 0.654 0.198 0.982 0.27 0.31 0.136 0.628 0.258 0.958 0.366l1.942 0.626a10.008 10.008 0 0 0 12.582-6.458 9.994 9.994 0 0 0-6.456-12.578zM280.028 862.246l-1.666-1.022a9.938 9.938 0 0 0-0.854-0.47 9.632 9.632 0 0 0-0.808-0.558l-1.658-1.038c-0.06-0.04-0.12-0.076-0.18-0.112a451.42 451.42 0 0 1-25.732-17.464 9.996 9.996 0 0 0-13.974 2.176 9.998 9.998 0 0 0 2.176 13.972 470.26 470.26 0 0 0 27.06 18.358l0.202 0.124 1.53 0.958c0.292 0.182 0.592 0.348 0.896 0.496 0.27 0.208 0.554 0.404 0.85 0.586l1.748 1.072a9.998 9.998 0 0 0 13.744-3.334 10 10 0 0 0-3.334-13.744zM479.358 926.066l-1.964-0.146a9.046 9.046 0 0 0-0.982-0.028 10.668 10.668 0 0 0-0.956-0.126l-1.962-0.164-0.044-0.002a449.712 449.712 0 0 1-31.008-3.748 10 10 0 1 0-3.092 19.758 467.48 467.48 0 0 0 32.444 3.92l0.052 0.006 1.974 0.164c0.35 0.03 0.698 0.042 1.04 0.032 0.332 0.06 0.668 0.104 1.012 0.128l2.024 0.15a10 10 0 0 0 1.462-19.944zM67.298 515.538l-0.144-1.95a10.114 10.114 0 0 0-0.116-0.966 10.12 10.12 0 0 0-0.018-0.984l-0.126-1.942v-0.008A453.188 453.188 0 0 1 66 481.242a10 10 0 0 0-20 0 475.16 475.16 0 0 0 0.932 29.702l0.132 2.04c0.024 0.342 0.064 0.678 0.12 1.008-0.01 0.338-0.002 0.68 0.022 1.026l0.152 2.042a10 10 0 0 0 19.94-1.522zM195.776 795.754a10.268 10.268 0 0 0-0.742-0.678 10.808 10.808 0 0 0-0.644-0.718l-1.356-1.382-0.128-0.13a450.052 450.052 0 0 1-20.96-23.006 10 10 0 0 0-15.242 12.95 472.008 472.008 0 0 0 22.014 24.154l0.132 0.132 1.296 1.322c0.246 0.248 0.5 0.48 0.762 0.7 0.208 0.256 0.43 0.502 0.666 0.74l1.45 1.454a9.97 9.97 0 0 0 7.064 2.922 10 10 0 0 0 7.064-17.078l-1.376-1.382zM130.772 712.842a10.22 10.22 0 0 0-0.552-0.816 9.874 9.874 0 0 0-0.462-0.856l-0.94-1.568-0.062-0.104a446.076 446.076 0 0 1-15.068-27.386 10.002 10.002 0 0 0-17.852 9.02 467.524 467.524 0 0 0 15.748 28.624l1.046 1.744c0.178 0.294 0.37 0.578 0.572 0.85 0.144 0.3 0.304 0.598 0.482 0.888l1.068 1.746a9.998 9.998 0 0 0 13.758 3.274 10 10 0 0 0 3.274-13.758l-1.012-1.658zM87.044 617.03a10.216 10.216 0 0 0-0.338-0.908 10.018 10.018 0 0 0-0.25-0.954l-0.562-1.796-0.02-0.068a445.028 445.028 0 0 1-8.188-30.184 10 10 0 0 0-19.474 4.552 465.32 465.32 0 0 0 8.53 31.462l0.026 0.084 0.608 1.952c0.104 0.326 0.222 0.646 0.354 0.956 0.07 0.334 0.158 0.668 0.264 1l0.622 1.932a10.004 10.004 0 0 0 12.59 6.442 10 10 0 0 0 6.442-12.59l-0.604-1.88zM958.946 572.61a10.004 10.004 0 0 0-11.954 7.558l-0.432 1.886a11.072 11.072 0 0 0-0.176 0.968 10.26 10.26 0 0 0-0.272 0.952l-0.452 1.89-0.022 0.096a445.634 445.634 0 0 1-8.358 30.042 9.996 9.996 0 0 0 9.536 13.018 10.004 10.004 0 0 0 9.532-6.984 465.552 465.552 0 0 0 8.758-31.492l0.028-0.12 0.448-1.878c0.078-0.332 0.138-0.664 0.184-0.996 0.108-0.318 0.202-0.644 0.28-0.978l0.458-2.012a9.998 9.998 0 0 0-7.558-11.95zM968 471.242a10 10 0 0 0-10 10c0 10.42-0.364 20.942-1.08 31.268a10.002 10.002 0 0 0 19.954 1.384c0.748-10.786 1.126-21.772 1.126-32.652a10 10 0 0 0-10-10zM925.05 674.92a9.992 9.992 0 0 0-13.398 4.524l-0.868 1.736c-0.15 0.298-0.286 0.6-0.402 0.904a10 10 0 0 0-0.482 0.848l-0.89 1.744-0.004 0.004a444.564 444.564 0 0 1-15.272 27.328 10 10 0 0 0 17.106 10.368 467.908 467.908 0 0 0 15.958-28.558l0.02-0.042 0.91-1.782c0.158-0.31 0.296-0.624 0.42-0.94 0.18-0.284 0.348-0.578 0.502-0.882l0.924-1.854a9.998 9.998 0 0 0-4.524-13.398zM853.912 767.638l-1.248 1.482a10.754 10.754 0 0 0-0.594 0.774c-0.236 0.226-0.46 0.466-0.678 0.718l-1.276 1.488-0.034 0.04a449.58 449.58 0 0 1-21.198 22.948 10 10 0 1 0 14.212 14.074 469.35 469.35 0 0 0 22.178-24.014l0.052-0.06 1.276-1.486c0.222-0.262 0.43-0.53 0.62-0.806a10.02 10.02 0 0 0 0.704-0.748l1.33-1.58a10 10 0 0 0-15.344-12.83zM584.622 921.362l-1.946 0.312a9.92 9.92 0 0 0-0.952 0.202c-0.32 0.018-0.642 0.05-0.966 0.102l-1.942 0.294-0.006 0.002a447.334 447.334 0 0 1-31.064 3.554 10 10 0 0 0 1.578 19.936 468.532 468.532 0 0 0 32.44-3.712l0.03-0.004 2.016-0.306a10.34 10.34 0 0 0 1.008-0.208c0.34-0.02 0.682-0.054 1.024-0.11l2.004-0.324a10 10 0 0 0 8.258-11.48c-0.894-5.45-6.034-9.162-11.482-8.258zM685.802 892.11l-1.808 0.762c-0.304 0.126-0.6 0.268-0.884 0.422a10.2 10.2 0 0 0-0.906 0.324l-1.814 0.746-0.136 0.056a442.572 442.572 0 0 1-29.222 10.728 10.002 10.002 0 0 0 6.228 19.008 463.008 463.008 0 0 0 30.69-11.276c0.052-0.022 0.108-0.042 0.16-0.066l1.726-0.708c0.322-0.132 0.632-0.28 0.932-0.442 0.32-0.098 0.636-0.21 0.954-0.344l1.86-0.782a10.004 10.004 0 0 0 5.328-13.102 10.008 10.008 0 0 0-13.108-5.326zM777.202 839.866l-1.566 1.156c-0.268 0.196-0.522 0.4-0.762 0.618-0.276 0.16-0.544 0.338-0.806 0.528l-1.598 1.156-0.118 0.084a446.824 446.824 0 0 1-25.872 17.296 10 10 0 0 0 5.274 18.504c1.794 0 3.614-0.484 5.254-1.5a467.998 467.998 0 0 0 27.158-18.16c0.046-0.036 0.094-0.068 0.138-0.104l1.496-1.082a10 10 0 0 0 0.808-0.652c0.292-0.17 0.576-0.358 0.854-0.562l1.644-1.21a10 10 0 0 0 2.082-13.988 9.994 9.994 0 0 0-13.986-2.084z" fill="#23130D" p-id="30406"></path></svg>