<?xml version="1.0" standalone="no"?><!DOCTYPE svg PUBLIC "-//W3C//DTD SVG 1.1//EN" "http://www.w3.org/Graphics/SVG/1.1/DTD/svg11.dtd"><svg t="1625811783077" class="icon" viewBox="0 0 1024 1024" version="1.1" xmlns="http://www.w3.org/2000/svg" p-id="37926" xmlns:xlink="http://www.w3.org/1999/xlink" width="200" height="200"><defs><style type="text/css"></style></defs><path d="M937.6 447.8h-76.6c-39.92-46.82-91.44-85.64-149.36-112.4-62.2-28.74-129.38-43.32-199.64-43.32s-137.44 14.58-199.64 43.32c-57.92 26.76-109.44 65.58-149.36 112.4h-16.46v-24.84c0-5.52-4.48-10-10-10h-8.12V188.72c11.62-4.14 19.98-15.22 19.98-28.24 0-16.52-13.44-29.98-29.98-29.98-16.52 0-29.98 13.46-29.98 29.98 0 13.02 8.36 24.1 19.98 28.24v224.24h-8.12c-5.52 0-10 4.48-10 10v24.84h-3.92c-28.3 0-51.32 23.04-51.32 51.34v343.02c0 28.3 23.02 51.34 51.32 51.34H937.6c28.32 0 51.34-23.04 51.34-51.34V499.14c0-28.3-23.02-51.34-51.34-51.34zM512 312.08c125.78 0 241.96 49.22 322.28 135.72H189.72c80.32-86.5 196.5-135.72 322.28-135.72zM118.42 150.5c5.5 0 9.98 4.48 9.98 9.98s-4.48 9.98-9.96 9.98h-0.02c-2.74 0-5.24-1.12-7.06-2.92-1.8-1.82-2.92-4.3-2.92-7.06 0-5.5 4.48-9.98 9.98-9.98z m8.12 282.46v14.84h-16.24v-14.84h16.24z m842.4 409.2c0 17.28-14.06 31.34-31.34 31.34H86.38c-17.26 0-31.32-14.06-31.32-31.34V499.14c0-17.28 14.06-31.34 31.32-31.34h769.92c0.04 0 0.08 0.02 0.12 0.02 0.02 0 0.04-0.02 0.06-0.02h81.12c17.28 0 31.34 14.06 31.34 31.34v343.02z" fill="#23130D" p-id="37927"></path><path d="M128.4 160.48c0 5.5-4.48 9.98-9.96 9.98h-0.02c-2.74 0-5.24-1.12-7.06-2.92-1.8-1.82-2.92-4.3-2.92-7.06 0-5.5 4.48-9.98 9.98-9.98s9.98 4.48 9.98 9.98zM110.3 432.96h16.24v14.84h-16.24z" fill="#E1E1E5" p-id="37928"></path><path d="M937.6 467.8h-81.12c-0.02 0-0.04 0.02-0.06 0.02-0.04 0-0.08-0.02-0.12-0.02h-756-13.92c-17.26 0-31.32 14.06-31.32 31.34v343.02c0 17.28 14.06 31.34 31.32 31.34H937.6c17.28 0 31.34-14.06 31.34-31.34V499.14c0-17.28-14.06-31.34-31.34-31.34z m-527.3 36.12c0-5.52 4.46-10 10-10h175.66c5.52 0 10 4.48 10 10v51.66c0 5.52-4.48 10-10 10h-175.66c-5.54 0-10-4.48-10-10v-51.66z m195.66 97.14c0 5.52-4.48 10-10 10h-27.38c-5.52 0-10-4.48-10-10 0-5.54 4.48-10 10-10h27.38c5.52 0 10 4.46 10 10z m-80.26 10h-27.4c-5.52 0-10-4.48-10-10 0-5.54 4.48-10 10-10h27.4c5.52 0 10 4.46 10 10 0 5.52-4.48 10-10 10z m10 40.62c0 5.54-4.48 10-10 10h-27.4c-5.52 0-10-4.46-10-10 0-5.52 4.48-10 10-10h27.4c5.52 0 10 4.48 10 10z m-70.28-50.62c0 5.52-4.48 10-10 10h-27.38c-5.52 0-10-4.48-10-10 0-5.54 4.48-10 10-10h27.38c5.52 0 10 4.46 10 10zM253.7 833.02c-90.1 0-163.4-73.3-163.4-163.4s73.3-163.4 163.4-163.4c90.1 0 163.4 73.3 163.4 163.4s-73.3 163.4-163.4 163.4z m166.6 11.58h-27.4c-5.52 0-10-4.48-10-10s4.48-10 10-10h27.4c5.52 0 10 4.48 10 10s-4.48 10-10 10z m70.26 0h-27.38c-5.54 0-10-4.48-10-10s4.46-10 10-10h27.38c5.52 0 10 4.48 10 10s-4.48 10-10 10z m-32.64-101.92c0-29.84 24.26-54.1 54.08-54.1s54.08 24.26 54.08 54.1c0 29.82-24.26 54.08-54.08 54.08s-54.08-24.26-54.08-54.08z m102.92 101.92h-27.4c-5.52 0-10-4.48-10-10s4.48-10 10-10h27.4c5.52 0 10 4.48 10 10s-4.48 10-10 10z m70.26 0h-27.38c-5.54 0-10-4.48-10-10s4.46-10 10-10h27.38c5.52 0 10 4.48 10 10s-4.48 10-10 10z m139.2-11.58c-90.1 0-163.4-73.3-163.4-163.4s73.3-163.4 163.4-163.4c90.1 0 163.4 73.3 163.4 163.4s-73.3 163.4-163.4 163.4z" fill="#EC7063" p-id="37929"></path><path d="M937.6 467.8h-81.12c-0.02 0-0.04 0.02-0.06 0.02-0.04 0-0.08-0.02-0.12-0.02h-756-13.92c-17.26 0-31.32 14.06-31.32 31.34v343.02c0 14.4 9.76 26.56 23 30.22-0.74-2.66-1.14-5.46-1.14-8.36V520.98c0-17.28 14.04-31.32 31.3-31.32h851.22c2.9 0 5.7 0.4 8.36 1.14-3.66-13.24-15.8-23-30.2-23z" fill="#FFFFFF" opacity=".4" p-id="37930"></path><path d="M945.38 468.38c0.74 2.66 1.14 5.46 1.14 8.34v343.02c0 17.28-14.06 31.34-31.34 31.34H63.96c-2.88 0-5.66-0.4-8.32-1.12 3.66 13.22 15.8 22.96 30.16 22.96h851.22c17.28 0 31.34-14.06 31.34-31.32V498.56c0-14.38-9.74-26.52-22.98-30.18z" fill="#23130D" opacity=".2" p-id="37931"></path><path d="M253.7 506.22c-90.1 0-163.4 73.3-163.4 163.4s73.3 163.4 163.4 163.4c90.1 0 163.4-73.3 163.4-163.4s-73.3-163.4-163.4-163.4z m0 306.8c-79.06 0-143.4-64.34-143.4-143.4 0-79.08 64.34-143.4 143.4-143.4 79.08 0 143.4 64.32 143.4 143.4 0 79.06-64.32 143.4-143.4 143.4z" fill="#23130D" p-id="37932"></path><path d="M253.7 526.22c-79.06 0-143.4 64.32-143.4 143.4 0 79.06 64.34 143.4 143.4 143.4 79.08 0 143.4-64.34 143.4-143.4 0-79.08-64.32-143.4-143.4-143.4z m0 249.8c-58.66 0-106.4-47.74-106.4-106.4 0-58.68 47.74-106.4 106.4-106.4 58.68 0 106.4 47.72 106.4 106.4 0 58.66-47.72 106.4-106.4 106.4z" fill="#E1E1E5" p-id="37933"></path><path d="M770.3 506.22c-90.1 0-163.4 73.3-163.4 163.4s73.3 163.4 163.4 163.4c90.1 0 163.4-73.3 163.4-163.4s-73.3-163.4-163.4-163.4z m0 306.8c-79.08 0-143.4-64.34-143.4-143.4 0-79.08 64.32-143.4 143.4-143.4 79.06 0 143.4 64.32 143.4 143.4 0 79.06-64.34 143.4-143.4 143.4z" fill="#23130D" p-id="37934"></path><path d="M770.3 526.22c-79.08 0-143.4 64.32-143.4 143.4 0 79.06 64.32 143.4 143.4 143.4 79.06 0 143.4-64.34 143.4-143.4 0-79.08-64.34-143.4-143.4-143.4z m0 249.8c-58.68 0-106.4-47.74-106.4-106.4 0-58.68 47.72-106.4 106.4-106.4 58.66 0 106.4 47.72 106.4 106.4 0 58.66-47.74 106.4-106.4 106.4z" fill="#E1E1E5" p-id="37935"></path><path d="M253.7 536.22c73.558 0 133.4 59.844 133.4 133.4s-59.842 133.4-133.4 133.4-133.4-59.844-133.4-133.4 59.844-133.4 133.4-133.4m0 249.8c64.184 0 116.4-52.216 116.4-116.4s-52.216-116.4-116.4-116.4-116.4 52.216-116.4 116.4 52.216 116.4 116.4 116.4m0-259.8c-79.06 0-143.4 64.32-143.4 143.4 0 79.06 64.34 143.4 143.4 143.4 79.08 0 143.4-64.34 143.4-143.4 0-79.08-64.32-143.4-143.4-143.4z m0 249.8c-58.66 0-106.4-47.74-106.4-106.4 0-58.68 47.74-106.4 106.4-106.4 58.68 0 106.4 47.72 106.4 106.4 0 58.66-47.72 106.4-106.4 106.4zM770.3 536.22c73.556 0 133.4 59.844 133.4 133.4s-59.842 133.4-133.4 133.4-133.4-59.844-133.4-133.4 59.844-133.4 133.4-133.4m0 249.8c64.184 0 116.4-52.216 116.4-116.4s-52.216-116.4-116.4-116.4-116.4 52.216-116.4 116.4 52.216 116.4 116.4 116.4m0-259.8c-79.08 0-143.4 64.32-143.4 143.4 0 79.06 64.32 143.4 143.4 143.4 79.06 0 143.4-64.34 143.4-143.4 0-79.08-64.34-143.4-143.4-143.4z m0 249.8c-58.68 0-106.4-47.74-106.4-106.4 0-58.68 47.72-106.4 106.4-106.4 58.66 0 106.4 47.72 106.4 106.4 0 58.66-47.74 106.4-106.4 106.4z" opacity=".2" p-id="37936"></path><path d="M512 688.58c-29.82 0-54.08 24.26-54.08 54.1 0 29.82 24.26 54.08 54.08 54.08s54.08-24.26 54.08-54.08c0-29.84-24.26-54.1-54.08-54.1z m0 88.18c-18.8 0-34.08-15.28-34.08-34.08 0-18.8 15.28-34.1 34.08-34.1s34.08 15.3 34.08 34.1-15.28 34.08-34.08 34.08z" fill="#23130D" p-id="37937"></path><path d="M546.08 742.68c0 18.8-15.28 34.08-34.08 34.08s-34.08-15.28-34.08-34.08c0-18.8 15.28-34.1 34.08-34.1s34.08 15.3 34.08 34.1z" fill="#3594BF" p-id="37938"></path><path d="M517.72 776.26c-1.86 0.34-3.76 0.5-5.72 0.5-18.8 0-34.08-15.28-34.08-34.08 0-18.8 15.28-34.1 34.08-34.1 1.96 0 3.86 0.16 5.72 0.5-16.08 2.72-28.36 16.76-28.36 33.6s12.28 30.88 28.36 33.58z" opacity=".2" p-id="37939"></path><path d="M430.3 834.6c0 5.52-4.48 10-10 10h-27.4c-5.52 0-10-4.48-10-10s4.48-10 10-10h27.4c5.52 0 10 4.48 10 10zM500.56 834.6c0 5.52-4.48 10-10 10h-27.38c-5.54 0-10-4.48-10-10s4.46-10 10-10h27.38c5.52 0 10 4.48 10 10zM570.84 834.6c0 5.52-4.48 10-10 10h-27.4c-5.52 0-10-4.48-10-10s4.48-10 10-10h27.4c5.52 0 10 4.48 10 10zM641.1 834.6c0 5.52-4.48 10-10 10h-27.38c-5.54 0-10-4.48-10-10s4.46-10 10-10h27.38c5.52 0 10 4.48 10 10zM465.42 601.06c0 5.52-4.48 10-10 10h-27.38c-5.52 0-10-4.48-10-10 0-5.54 4.48-10 10-10h27.38c5.52 0 10 4.46 10 10zM535.7 601.06c0 5.52-4.48 10-10 10h-27.4c-5.52 0-10-4.48-10-10 0-5.54 4.48-10 10-10h27.4c5.52 0 10 4.46 10 10zM535.7 651.68c0 5.54-4.48 10-10 10h-27.4c-5.52 0-10-4.46-10-10 0-5.52 4.48-10 10-10h27.4c5.52 0 10 4.48 10 10zM605.96 601.06c0 5.52-4.48 10-10 10h-27.38c-5.52 0-10-4.48-10-10 0-5.54 4.48-10 10-10h27.38c5.52 0 10 4.46 10 10zM595.96 493.92h-175.66c-5.54 0-10 4.48-10 10v51.66c0 5.52 4.46 10 10 10h175.66c5.52 0 10-4.48 10-10v-51.66c0-5.52-4.48-10-10-10z m-10 51.66h-155.66v-31.66h155.66v31.66z" fill="#23130D" p-id="37940"></path><path d="M430.3 513.92h155.66v31.66h-155.66z" fill="#E1E1E5" p-id="37941"></path><path d="M430.3 533.666h155.66v11.914h-155.66z" opacity=".2" p-id="37942"></path><path d="M253.7 563.22c-58.66 0-106.4 47.72-106.4 106.4 0 58.66 47.74 106.4 106.4 106.4 58.68 0 106.4-47.74 106.4-106.4 0-58.68-47.72-106.4-106.4-106.4z m0 192.8c-47.64 0-86.4-38.76-86.4-86.4s38.76-86.4 86.4-86.4c47.64 0 86.4 38.76 86.4 86.4s-38.76 86.4-86.4 86.4z" fill="#23130D" p-id="37943"></path><path d="M340.1 669.62c0 47.64-38.76 86.4-86.4 86.4-47.64 0-86.4-38.76-86.4-86.4s38.76-86.4 86.4-86.4c47.64 0 86.4 38.76 86.4 86.4z" fill="#F9C139" p-id="37944"></path><path d="M340.1 669.62c0 47.64-38.76 86.4-86.4 86.4-47.64 0-86.4-38.76-86.4-86.4 0-2.24 0.08-4.44 0.26-6.64 3.44 44.52 40.76 79.68 86.14 79.68s82.7-35.16 86.14-79.68c0.18 2.2 0.26 4.4 0.26 6.64z" opacity=".2" p-id="37945"></path><path d="M340.1 669.62c0 2.24-0.08 4.44-0.26 6.64-3.44-44.52-40.76-79.68-86.14-79.68s-82.7 35.16-86.14 79.68c-0.18-2.2-0.26-4.4-0.26-6.64 0-47.64 38.76-86.4 86.4-86.4 47.64 0 86.4 38.76 86.4 86.4z" fill="#FFFFFF" opacity=".4" p-id="37946"></path><path d="M770.3 563.22c-58.68 0-106.4 47.72-106.4 106.4 0 58.66 47.72 106.4 106.4 106.4 58.66 0 106.4-47.74 106.4-106.4 0-58.68-47.74-106.4-106.4-106.4z m0 192.8c-47.64 0-86.4-38.76-86.4-86.4s38.76-86.4 86.4-86.4c47.64 0 86.4 38.76 86.4 86.4s-38.76 86.4-86.4 86.4z" fill="#23130D" p-id="37947"></path><path d="M856.7 669.62c0 47.64-38.76 86.4-86.4 86.4-47.64 0-86.4-38.76-86.4-86.4s38.76-86.4 86.4-86.4c47.64 0 86.4 38.76 86.4 86.4z" fill="#F9C139" p-id="37948"></path><path d="M856.7 669.62c0 47.64-38.76 86.4-86.4 86.4-47.64 0-86.4-38.76-86.4-86.4 0-2.24 0.08-4.44 0.26-6.64 3.44 44.52 40.76 79.68 86.14 79.68s82.7-35.16 86.14-79.68c0.18 2.2 0.26 4.4 0.26 6.64z" opacity=".2" p-id="37949"></path><path d="M856.7 669.62c0 2.24-0.08 4.44-0.26 6.64-3.44-44.52-40.76-79.68-86.14-79.68s-82.7 35.16-86.14 79.68c-0.18-2.2-0.26-4.4-0.26-6.64 0-47.64 38.76-86.4 86.4-86.4 47.64 0 86.4 38.76 86.4 86.4z" fill="#FFFFFF" opacity=".4" p-id="37950"></path></svg>