<?xml version="1.0" standalone="no"?><!DOCTYPE svg PUBLIC "-//W3C//DTD SVG 1.1//EN" "http://www.w3.org/Graphics/SVG/1.1/DTD/svg11.dtd"><svg t="1625811908635" class="icon" viewBox="0 0 1024 1024" version="1.1" xmlns="http://www.w3.org/2000/svg" p-id="43547" xmlns:xlink="http://www.w3.org/1999/xlink" width="200" height="200"><defs><style type="text/css"></style></defs><path d="M818.34 299.52c-12.34 0-24.58 1.36-36.52 4.04-28.88-118.6-136.3-203.6-259.38-203.6-92.88 0-179.44 48.76-227.8 127.76-16.24-4.06-33.02-6.12-50.02-6.12-113.68 0-206.14 92.48-206.14 206.14 0 113.56 92.28 205.96 205.8 206.14 0.1 0 0.2 0.04 0.3 0.04h125.64c-24.36 31.34-37.96 70.28-37.96 110.4 0 99.1 80.64 179.72 179.74 179.72s179.74-80.62 179.74-179.72c0-40.6-13.5-79.18-37.88-110.4h164.5c0.12 0 0.24-0.04 0.36-0.04 92-0.2 166.8-75.12 166.8-167.18 0-92.18-75-167.18-167.18-167.18z m-146.6 444.8c0 88.06-71.66 159.72-159.74 159.72s-159.74-71.66-159.74-159.72c0-44.32 18.66-87.02 51.2-117.18 2.84-2.64 5.78-5.16 8.74-7.54l0.42-0.36c25.58-22.96 77.56-75.2 99.38-137.82 21.82 62.62 73.78 114.86 99.38 137.82 0.12 0.12 0.28 0.24 0.42 0.36 4.46 3.56 8.68 7.36 12.68 11.32 0.06 0.04 0.1 0.08 0.14 0.14 30.12 29.88 47.12 70.3 47.12 113.26z m146.6-130.44c-0.08 0-0.16 0.02-0.24 0.04h-182.42a180.37 180.37 0 0 0-11.16-9.76C600.18 582.3 522 505.74 522 425.7c0-5.52-4.48-10-10-10s-10 4.48-10 10c0 80.02-78.2 156.6-102.52 178.46a177.8 177.8 0 0 0-9.62 8.32c-0.52 0.46-1.02 0.96-1.52 1.44h-143.46a1.17 1.17 0 0 0-0.26-0.04c-102.64 0-186.14-83.5-186.14-186.14s83.5-186.14 186.14-186.14c13.52 0 26.88 1.44 39.86 4.28-18.98 37.28-29 78.86-29 121.04 0 26.62 3.9 52.92 11.64 78.18a9.96 9.96 0 0 0 9.56 7.08 9.994 9.994 0 0 0 9.56-12.92 247.26 247.26 0 0 1-10.76-72.34c0-43.1 11.24-85.48 32.56-122.6 43.94-76.72 126.1-124.36 214.4-124.36 114.14 0 213.72 79.02 240.14 189.14-66.04 23.38-111.4 86.86-111.4 157.6 0 3.12 0.08 6.18 0.24 9.12a10.034 10.034 0 0 0 10.54 9.42 10.002 10.002 0 0 0 9.44-10.54c-0.14-2.56-0.22-5.26-0.22-8 0-65.06 43.56-123.16 105.94-141.3a146.68 146.68 0 0 1 41.22-5.88c81.16 0 147.18 66.02 147.18 147.18 0 81.16-66.02 147.18-147.18 147.18z" fill="#23130D" p-id="43548"></path><path d="M671.74 744.32c0 88.06-71.66 159.72-159.74 159.72s-159.74-71.66-159.74-159.72c0-44.32 18.66-87.02 51.2-117.18 2.84-2.64 5.78-5.16 8.74-7.54l0.42-0.36c25.58-22.96 77.56-75.2 99.38-137.82 21.82 62.62 73.78 114.86 99.38 137.82 0.12 0.12 0.28 0.24 0.42 0.36 4.46 3.56 8.68 7.36 12.68 11.32 0.06 0.04 0.1 0.08 0.14 0.14 30.12 29.88 47.12 70.3 47.12 113.26z" fill="#3594BF" p-id="43549"></path><path d="M539 901.74c-8.78 1.52-17.8 2.3-27 2.3-88.08 0-159.74-71.66-159.74-159.72 0-44.32 18.66-87.02 51.2-117.18 2.84-2.64 5.78-5.16 8.74-7.54l0.42-0.36c25.58-22.96 77.56-75.2 99.38-137.82 6.7 19.22 16.26 37.48 27 54.2-24.26 37.74-54.66 67.72-72.38 83.62l-0.42 0.36a161.402 161.402 0 0 0-8.74 7.54c-32.54 30.16-51.2 72.86-51.2 117.18 0 78.86 57.48 144.58 132.74 157.42z" opacity=".2" p-id="43550"></path><path d="M965.52 466.7c0 81.16-66.02 147.18-147.18 147.18-0.08 0-0.16 0.02-0.24 0.04h-182.42a180.37 180.37 0 0 0-11.16-9.76C600.18 582.3 522 505.74 522 425.7c0-5.52-4.48-10-10-10s-10 4.48-10 10c0 80.02-78.2 156.6-102.52 178.46a177.8 177.8 0 0 0-9.62 8.32c-0.52 0.46-1.02 0.96-1.52 1.44h-143.46a1.17 1.17 0 0 0-0.26-0.04c-102.64 0-186.14-83.5-186.14-186.14s83.5-186.14 186.14-186.14c13.52 0 26.88 1.44 39.86 4.28-18.98 37.28-29 78.86-29 121.04 0 26.62 3.9 52.92 11.64 78.18a9.96 9.96 0 0 0 9.56 7.08 9.994 9.994 0 0 0 9.56-12.92 247.26 247.26 0 0 1-10.76-72.34c0-43.1 11.24-85.48 32.56-122.6 43.94-76.72 126.1-124.36 214.4-124.36 114.14 0 213.72 79.02 240.14 189.14-66.04 23.38-111.4 86.86-111.4 157.6 0 3.12 0.08 6.18 0.24 9.12a10.034 10.034 0 0 0 10.54 9.42 10.002 10.002 0 0 0 9.44-10.54c-0.14-2.56-0.22-5.26-0.22-8 0-65.06 43.56-123.16 105.94-141.3a146.68 146.68 0 0 1 41.22-5.88c81.16 0 147.18 66.02 147.18 147.18z" fill="#E1E1E5" p-id="43551"></path><path d="M522.44 139.96c50.642 0 100.564 17.392 140.574 48.974 35.416 27.956 61.808 66.01 75.518 108.466-64.906 30.626-107.352 96.482-107.352 169.302 0 3.486 0.09 6.92 0.274 10.278 0.92 15.856 14.078 28.278 29.956 28.278 0.548 0 1.098-0.016 1.636-0.044 16.516-0.898 29.224-15.072 28.324-31.602a127.3 127.3 0 0 1-0.19-6.908c0-56.218 37.636-106.424 91.56-122.106a126.598 126.598 0 0 1 35.6-5.074c70.128 0 127.18 57.052 127.18 127.18s-57.052 127.18-127.18 127.18c-0.432 0-0.862 0.014-1.29 0.04h-173.628a196.98 196.98 0 0 0-5.926-4.988c-10.198-9.19-35.316-33.08-57.046-63.748C554.936 489.176 542 455.704 542 425.7c0-16.542-13.458-30-30-30s-30 13.458-30 30c0 29.994-12.94 63.464-38.458 99.476-20.98 29.61-44.582 52.524-57.038 63.754a197.452 197.452 0 0 0-5.926 4.988H245.9c-0.428-0.026-0.854-0.04-1.28-0.04-91.61 0-166.14-74.53-166.14-166.14 0-91.61 74.53-166.14 166.14-166.14 3.59 0 7.176 0.114 10.748 0.342-13.062 33.318-19.888 69.126-19.888 104.978 0 28.656 4.212 56.932 12.518 84.038 3.866 12.698 15.38 21.22 28.682 21.22 2.97 0 5.924-0.444 8.786-1.32 15.818-4.854 24.744-21.662 19.9-37.446a227.28 227.28 0 0 1-9.886-66.494c0-39.628 10.34-78.578 29.916-112.66 40.378-70.498 115.882-114.296 197.044-114.296m0-20c-88.3 0-170.46 47.64-214.4 124.36-21.32 37.12-32.56 79.5-32.56 122.6 0 24.64 3.62 48.98 10.76 72.34a9.994 9.994 0 0 1-9.56 12.92 9.96 9.96 0 0 1-9.56-7.08c-7.74-25.26-11.64-51.56-11.64-78.18 0-42.18 10.02-83.76 29-121.04a186.456 186.456 0 0 0-39.86-4.28c-102.64 0-186.14 83.5-186.14 186.14 0 102.64 83.5 186.14 186.14 186.14 0.08 0 0.18 0.02 0.26 0.04h143.46c0.5-0.48 1-0.98 1.52-1.44a177.8 177.8 0 0 1 9.62-8.32C423.8 582.3 502 505.72 502 425.7c0-5.52 4.48-10 10-10s10 4.48 10 10c0 80.04 78.18 156.6 102.52 178.46 3.88 3.12 7.6 6.38 11.16 9.76h182.42c0.08-0.02 0.16-0.04 0.24-0.04 81.16 0 147.18-66.02 147.18-147.18 0-81.16-66.02-147.18-147.18-147.18-14.02 0-27.9 1.98-41.22 5.88-62.38 18.14-105.94 76.24-105.94 141.3 0 2.74 0.08 5.44 0.22 8a10.002 10.002 0 0 1-9.99 10.556 10.038 10.038 0 0 1-9.99-9.436c-0.16-2.94-0.24-6-0.24-9.12 0-70.74 45.36-134.22 111.4-157.6-26.42-110.12-126-189.14-240.14-189.14z" opacity=".2" p-id="43552"></path><path d="M240.78 753.88c-8.06-7.26-33.26-31.98-33.26-56.92 0-5.52-4.48-10-10-10s-10 4.48-10 10c0 24.92-25.18 49.64-33.26 56.92-1.18 0.96-2.36 1.98-3.54 3.06a69.12 69.12 0 0 0-22.06 50.52c0 37.96 30.9 68.86 68.86 68.86s68.86-30.9 68.86-68.86c0-20.92-9.32-40.42-25.6-53.58z m-43.26 102.44c-26.94 0-48.86-21.92-48.86-48.86 0-13.76 5.56-26.48 15.64-35.84 0.88-0.8 1.8-1.58 2.68-2.3a4 4 0 0 0 0.44-0.38c7.4-6.64 20.84-20 30.1-36.86 9.26 16.86 22.7 30.22 30.1 36.86 0.14 0.14 0.28 0.24 0.42 0.36 11.66 9.34 18.34 23.24 18.34 38.16 0 26.94-21.92 48.86-48.86 48.86z" fill="#23130D" p-id="43553"></path><path d="M246.38 807.46c0 26.94-21.92 48.86-48.86 48.86-26.94 0-48.86-21.92-48.86-48.86 0-13.76 5.56-26.48 15.64-35.84 0.88-0.8 1.8-1.58 2.68-2.3a4 4 0 0 0 0.44-0.38c7.4-6.64 20.84-20 30.1-36.86 9.26 16.86 22.7 30.22 30.1 36.86 0.14 0.14 0.28 0.24 0.42 0.36 11.66 9.34 18.34 23.24 18.34 38.16z" fill="#3594BF" p-id="43554"></path><path d="M212 854.12c-4.58 1.44-9.44 2.2-14.48 2.2-26.94 0-48.86-21.92-48.86-48.86 0-13.76 5.56-26.48 15.64-35.84 0.88-0.8 1.8-1.58 2.68-2.3a4 4 0 0 0 0.44-0.38c7.4-6.64 20.84-20 30.1-36.86 4.28 7.78 9.44 14.8 14.5 20.78a164.23 164.23 0 0 1-15.6 16.08 4 4 0 0 1-0.44 0.38c-0.88 0.72-1.8 1.5-2.68 2.3-10.08 9.36-15.64 22.08-15.64 35.84 0 21.88 14.48 40.46 34.34 46.66z" opacity=".2" p-id="43555"></path><path d="M865.34 753.88c-8.08-7.26-33.26-32-33.26-56.92 0-5.52-4.48-10-10-10s-10 4.48-10 10c0 24.94-25.18 49.64-33.26 56.92-1.18 0.96-2.38 1.98-3.54 3.06a69.12 69.12 0 0 0-22.06 50.52c0 37.96 30.88 68.86 68.86 68.86 37.96 0 68.86-30.9 68.86-68.86 0-20.92-9.32-40.42-25.6-53.58z m-43.26 102.44c-26.94 0-48.86-21.92-48.86-48.86 0-13.76 5.56-26.48 15.66-35.84 0.88-0.82 1.78-1.58 2.66-2.3 0.16-0.12 0.3-0.24 0.44-0.36 7.4-6.64 20.84-20.02 30.1-36.88 9.26 16.86 22.7 30.22 30.1 36.86 0.14 0.14 0.28 0.24 0.42 0.36 11.66 9.34 18.34 23.24 18.34 38.16 0 26.94-21.92 48.86-48.86 48.86z" fill="#23130D" p-id="43556"></path><path d="M870.94 807.46c0 26.94-21.92 48.86-48.86 48.86-26.94 0-48.86-21.92-48.86-48.86 0-13.76 5.56-26.48 15.66-35.84 0.88-0.82 1.78-1.58 2.66-2.3 0.16-0.12 0.3-0.24 0.44-0.36 7.4-6.64 20.84-20.02 30.1-36.88 9.26 16.86 22.7 30.22 30.1 36.86 0.14 0.14 0.28 0.24 0.42 0.36 11.66 9.34 18.34 23.24 18.34 38.16z" fill="#3594BF" p-id="43557"></path><path d="M836.56 854.12c-4.58 1.44-9.44 2.2-14.48 2.2-26.94 0-48.86-21.92-48.86-48.86 0-13.76 5.56-26.48 15.64-35.84 0.88-0.8 1.8-1.58 2.68-2.3a4 4 0 0 0 0.44-0.38c7.4-6.64 20.84-20 30.1-36.86 4.28 7.78 9.44 14.8 14.5 20.78a164.23 164.23 0 0 1-15.6 16.08 4 4 0 0 1-0.44 0.38c-0.88 0.72-1.8 1.5-2.68 2.3-10.08 9.36-15.64 22.08-15.64 35.84 0 21.88 14.48 40.46 34.34 46.66z" opacity=".2" p-id="43558"></path></svg>