<?xml version="1.0" standalone="no"?><!DOCTYPE svg PUBLIC "-//W3C//DTD SVG 1.1//EN" "http://www.w3.org/Graphics/SVG/1.1/DTD/svg11.dtd"><svg t="1625812287862" class="icon" viewBox="0 0 1024 1024" version="1.1" xmlns="http://www.w3.org/2000/svg" p-id="58954" xmlns:xlink="http://www.w3.org/1999/xlink" width="200" height="200"><defs><style type="text/css"></style></defs><path d="M546.34 193.56c4.76-4.64 6.48-10.38 4.74-15.76-1.74-5.36-6.52-8.98-13.08-9.94l-38.38-5.58c-2.32-0.34-6.14-3.1-7.16-5.2l-17.16-34.76c-2.94-5.96-7.86-9.38-13.52-9.38-5.64 0-10.56 3.42-13.5 9.36l-17.18 34.78c-1.02 2.1-4.84 4.88-7.16 5.2l-38.38 5.58c-6.56 0.96-11.34 4.58-13.08 9.96-1.74 5.36-0.02 11.1 4.74 15.74l27.76 27.06c1.68 1.64 3.14 6.12 2.74 8.44l-6.56 38.2c-0.88 5.2 0.2 9.94 3.08 13.34 4.3 5.1 11.76 6.24 18.78 2.54l34.32-18.04c0.72-0.38 2.32-0.82 4.44-0.82s3.7 0.44 4.44 0.82l34.3 18.04c2.8 1.48 5.6 2.22 8.36 2.22 4.14 0 7.84-1.68 10.44-4.76 2.86-3.4 3.96-8.14 3.06-13.34l-6.54-38.2c-0.4-2.32 1.06-6.8 2.74-8.44l27.76-27.06z m-41.72 12.74c-6.44 6.28-10.02 17.26-8.5 26.14l4.86 28.36-25.46-13.4c-3.82-2-8.7-3.12-13.74-3.12-5.04 0-9.92 1.12-13.74 3.12l-25.46 13.38 4.86-28.34c1.52-8.86-2.06-19.86-8.5-26.14l-20.6-20.08 28.46-4.14c8.92-1.3 18.26-8.08 22.24-16.16l12.74-25.8 12.74 25.8c3.98 8.08 13.32 14.86 22.22 16.16l28.48 4.14-20.6 20.08z" fill="#23130D" p-id="58955"></path><path d="M504.62 206.3c-6.44 6.28-10.02 17.26-8.5 26.14l4.86 28.36-25.46-13.4c-3.82-2-8.7-3.12-13.74-3.12-5.04 0-9.92 1.12-13.74 3.12l-25.46 13.38 4.86-28.34c1.52-8.86-2.06-19.86-8.5-26.14l-20.6-20.08 28.46-4.14c8.92-1.3 18.26-8.08 22.24-16.16l12.74-25.8 12.74 25.8c3.98 8.08 13.32 14.86 22.22 16.16l28.48 4.14-20.6 20.08z" fill="#72AF5F" p-id="58956"></path><path d="M461.78 140.12l8 16.18-6.98 14.12c-3.98 8.08-13.34 14.86-22.24 16.16l-28.48 4.14 20.6 20.08c6.46 6.28 10.02 17.28 8.5 26.14l-2.66 15.46-15.94 8.38 4.86-28.34c1.52-8.86-2.06-19.86-8.5-26.14l-20.6-20.08 28.46-4.14c8.92-1.3 18.26-8.08 22.24-16.16l12.74-25.8z" fill="#23130D" opacity=".2" p-id="58957"></path><path d="M749.7 193.56c4.76-4.64 6.48-10.38 4.74-15.76-1.74-5.36-6.52-8.98-13.08-9.94l-38.38-5.58c-2.32-0.34-6.12-3.1-7.16-5.2l-17.16-34.76c-2.94-5.96-7.86-9.38-13.52-9.38-5.64 0-10.56 3.42-13.5 9.36l-17.18 34.78c-1.02 2.1-4.84 4.88-7.16 5.2l-38.38 5.58c-6.56 0.96-11.34 4.58-13.08 9.96s-0.02 11.1 4.74 15.74l27.76 27.06c1.68 1.64 3.14 6.12 2.74 8.44l-6.54 38.2c-0.9 5.2 0.2 9.94 3.06 13.34 4.3 5.1 11.76 6.24 18.8 2.54l34.3-18.04c0.72-0.38 2.32-0.82 4.44-0.82s3.72 0.44 4.44 0.82l34.32 18.04c2.78 1.48 5.6 2.22 8.34 2.22 4.14 0 7.84-1.68 10.44-4.76 2.86-3.4 3.96-8.14 3.08-13.34l-6.56-38.2c-0.4-2.32 1.06-6.8 2.74-8.44l27.76-27.06z m-41.72 12.74c-6.44 6.28-10.02 17.26-8.5 26.14l4.86 28.34-25.46-13.38c-3.82-2-8.7-3.12-13.74-3.12s-9.92 1.12-13.74 3.12l-25.46 13.38 4.86-28.34c1.52-8.86-2.06-19.86-8.5-26.14l-20.6-20.08 28.46-4.14c8.92-1.3 18.26-8.08 22.24-16.16l12.74-25.8 12.74 25.8c3.98 8.08 13.32 14.86 22.24 16.16l28.46 4.14-20.6 20.08z" fill="#23130D" p-id="58958"></path><path d="M707.98 206.3c-6.44 6.28-10.02 17.26-8.5 26.14l4.86 28.34-25.46-13.38c-3.82-2-8.7-3.12-13.74-3.12s-9.92 1.12-13.74 3.12l-25.46 13.38 4.86-28.34c1.52-8.86-2.06-19.86-8.5-26.14l-20.6-20.08 28.46-4.14c8.92-1.3 18.26-8.08 22.24-16.16l12.74-25.8 12.74 25.8c3.98 8.08 13.32 14.86 22.24 16.16l28.46 4.14-20.6 20.08z" fill="#72AF5F" p-id="58959"></path><path d="M953.06 193.56c4.76-4.64 6.48-10.38 4.74-15.74-1.74-5.38-6.52-9-13.08-9.96l-38.38-5.58c-2.32-0.34-6.12-3.1-7.16-5.2l-17.16-34.76c-2.94-5.96-7.86-9.38-13.52-9.38-5.64 0-10.56 3.42-13.5 9.36l-17.18 34.78c-1.02 2.1-4.84 4.88-7.16 5.2l-38.36 5.58c-6.58 0.96-11.34 4.58-13.1 9.96-1.74 5.36-0.02 11.1 4.74 15.74l27.76 27.06c1.68 1.64 3.14 6.12 2.74 8.44l-6.54 38.2c-0.9 5.2 0.2 9.94 3.06 13.34 4.3 5.1 11.76 6.24 18.8 2.54l34.3-18.04c0.72-0.38 2.32-0.82 4.44-0.82s3.72 0.44 4.44 0.82l34.3 18.04c2.8 1.48 5.62 2.22 8.36 2.22 4.14 0 7.84-1.68 10.44-4.76 2.88-3.4 3.96-8.14 3.06-13.34l-6.54-38.2c-0.4-2.32 1.06-6.8 2.74-8.44l27.76-27.06z m-41.72 12.74c-6.44 6.28-10.02 17.26-8.5 26.14l4.86 28.34-25.46-13.38c-3.82-2-8.7-3.12-13.74-3.12s-9.92 1.12-13.74 3.12l-25.46 13.38 4.86-28.34c1.52-8.88-2.06-19.86-8.5-26.14l-20.6-20.08 28.46-4.14c8.92-1.3 18.26-8.08 22.24-16.16l12.74-25.8 12.74 25.8c3.98 8.06 13.32 14.86 22.24 16.16l28.46 4.14-20.6 20.08z" fill="#23130D" p-id="58960"></path><path d="M911.34 206.3c-6.44 6.28-10.02 17.26-8.5 26.14l4.86 28.34-25.46-13.38c-3.82-2-8.7-3.12-13.74-3.12s-9.92 1.12-13.74 3.12l-25.46 13.38 4.86-28.34c1.52-8.88-2.06-19.86-8.5-26.14l-20.6-20.08 28.46-4.14c8.92-1.3 18.26-8.08 22.24-16.16l12.74-25.8 12.74 25.8c3.98 8.06 13.32 14.86 22.24 16.16l28.46 4.14-20.6 20.08z" fill="#72AF5F" p-id="58961"></path><path d="M196.46 68.24c-72.18 0-130.92 58.72-130.92 130.92 0 72.18 58.74 130.9 130.92 130.9 72.2 0 130.92-58.72 130.92-130.9 0-72.2-58.72-130.92-130.92-130.92z m0 241.82c-61.16 0-110.92-49.74-110.92-110.9 0-61.16 49.76-110.92 110.92-110.92 61.16 0 110.92 49.76 110.92 110.92 0 61.16-49.76 110.9-110.92 110.9z" fill="#23130D" p-id="58962"></path><path d="M196.46 88.24c-61.16 0-110.92 49.76-110.92 110.92 0 61.16 49.76 110.9 110.92 110.9 61.16 0 110.92-49.74 110.92-110.9 0-61.16-49.76-110.92-110.92-110.92z m0 179.88c-38.08 0-68.96-30.88-68.96-68.96 0-38.1 30.88-68.98 68.96-68.98 38.1 0 68.98 30.88 68.98 68.98 0 38.08-30.88 68.96-68.98 68.96z" fill="#72AF5F" p-id="58963"></path><path d="M110.2 199.16c0-57 43.22-104.08 98.6-110.22a109.08 109.08 0 0 0-12.34-0.7c-61.16 0-110.92 49.76-110.92 110.92 0 61.16 49.76 110.9 110.92 110.9 4.18 0 8.3-0.24 12.34-0.7-55.38-6.12-98.6-53.2-98.6-110.2z" fill="#23130D" opacity=".2" p-id="58964"></path><path d="M546.34 506.4c4.76-4.62 6.48-10.38 4.74-15.74-1.74-5.38-6.52-9-13.08-9.94l-38.38-5.58c-2.32-0.34-6.14-3.12-7.16-5.22l-17.16-34.76c-2.94-5.96-7.86-9.38-13.52-9.38-5.64 0-10.56 3.42-13.5 9.38l-17.18 34.76c-1.04 2.1-4.84 4.88-7.16 5.22l-38.38 5.58c-6.56 0.94-11.34 4.58-13.08 9.94-1.74 5.38-0.02 11.12 4.74 15.76l27.76 27.06c1.68 1.62 3.14 6.12 2.74 8.42l-6.56 38.22c-0.88 5.18 0.2 9.92 3.08 13.34 4.3 5.08 11.76 6.22 18.78 2.54l34.32-18.04c0.72-0.38 2.32-0.82 4.44-0.82s3.72 0.44 4.44 0.82l34.3 18.04c2.8 1.46 5.6 2.22 8.36 2.22 4.14 0 7.84-1.7 10.44-4.76 2.86-3.42 3.96-8.16 3.06-13.34l-6.54-38.22c-0.4-2.3 1.06-6.8 2.74-8.42l27.76-27.08z m-41.72 12.76c-6.44 6.26-10.02 17.26-8.5 26.12l4.86 28.36-25.46-13.38c-3.82-2.02-8.7-3.12-13.74-3.12-5.04 0-9.92 1.1-13.74 3.12l-25.46 13.38 4.86-28.36c1.52-8.86-2.06-19.84-8.5-26.12l-20.6-20.1 28.46-4.14c8.92-1.28 18.26-8.08 22.24-16.14l12.74-25.8 12.74 25.8c3.98 8.06 13.32 14.86 22.22 16.14l28.48 4.16-20.6 20.08z" fill="#23130D" p-id="58965"></path><path d="M504.62 519.16c-6.44 6.26-10.02 17.26-8.5 26.12l4.86 28.36-25.46-13.38c-3.82-2.02-8.7-3.12-13.74-3.12-5.04 0-9.92 1.1-13.74 3.12l-25.46 13.38 4.86-28.36c1.52-8.86-2.06-19.84-8.5-26.12l-20.6-20.1 28.46-4.14c8.92-1.28 18.26-8.08 22.24-16.14l12.74-25.8 12.74 25.8c3.98 8.06 13.32 14.86 22.22 16.14l28.48 4.16-20.6 20.08z" fill="#F9C139" p-id="58966"></path><path d="M749.7 506.4c4.76-4.64 6.48-10.38 4.74-15.74-1.74-5.38-6.52-9-13.08-9.94l-38.38-5.58c-2.3-0.34-6.12-3.12-7.16-5.22l-17.16-34.76c-2.94-5.96-7.86-9.38-13.52-9.38-5.64 0-10.56 3.42-13.5 9.38l-17.18 34.76c-1.04 2.1-4.84 4.88-7.16 5.22l-38.36 5.58c-6.58 0.94-11.36 4.58-13.1 9.94-1.74 5.38-0.02 11.12 4.74 15.76l27.76 27.06c1.68 1.62 3.14 6.12 2.74 8.42l-6.54 38.22c-0.9 5.18 0.2 9.92 3.06 13.34 4.3 5.08 11.76 6.22 18.8 2.54l34.3-18.04c0.72-0.38 2.32-0.82 4.44-0.82s3.72 0.44 4.44 0.82l34.32 18.04c2.78 1.46 5.6 2.22 8.34 2.22 4.14 0 7.84-1.7 10.44-4.76 2.86-3.42 3.96-8.14 3.08-13.34l-6.56-38.22c-0.4-2.3 1.06-6.8 2.74-8.42l27.76-27.08z m-41.72 12.74c-6.44 6.28-10.02 17.28-8.5 26.14l4.86 28.36-25.46-13.38c-3.82-2.02-8.7-3.12-13.74-3.12s-9.92 1.1-13.74 3.12l-25.46 13.38 4.86-28.36c1.52-8.86-2.06-19.86-8.5-26.12l-20.6-20.1 28.46-4.14c8.92-1.28 18.26-8.08 22.24-16.14l12.74-25.8 12.74 25.8c3.98 8.06 13.32 14.86 22.24 16.14l28.46 4.16-20.6 20.06z" fill="#23130D" p-id="58967"></path><path d="M707.98 519.14c-6.44 6.28-10.02 17.28-8.5 26.14l4.86 28.36-25.46-13.38c-3.82-2.02-8.7-3.12-13.74-3.12s-9.92 1.1-13.74 3.12l-25.46 13.38 4.86-28.36c1.52-8.86-2.06-19.86-8.5-26.12l-20.6-20.1 28.46-4.14c8.92-1.28 18.26-8.08 22.24-16.14l12.74-25.8 12.74 25.8c3.98 8.06 13.32 14.86 22.24 16.14l28.46 4.16-20.6 20.06z" fill="#F9C139" p-id="58968"></path><path d="M196.46 381.08c-72.18 0-130.92 58.74-130.92 130.92s58.74 130.92 130.92 130.92c72.2 0 130.92-58.74 130.92-130.92s-58.72-130.92-130.92-130.92z m0 241.84c-61.16 0-110.92-49.76-110.92-110.92s49.76-110.92 110.92-110.92c61.16 0 110.92 49.76 110.92 110.92s-49.76 110.92-110.92 110.92z" fill="#23130D" p-id="58969"></path><path d="M307.38 512c0 61.16-49.76 110.92-110.92 110.92-61.16 0-110.92-49.76-110.92-110.92s49.76-110.92 110.92-110.92c61.16 0 110.92 49.76 110.92 110.92z" fill="#F9C139" p-id="58970"></path><path d="M546.34 819.26c4.76-4.64 6.48-10.38 4.74-15.76-1.74-5.36-6.52-8.98-13.08-9.94l-38.38-5.58c-2.32-0.32-6.14-3.1-7.16-5.2l-17.16-34.76c-2.94-5.96-7.86-9.38-13.52-9.38-5.64 0-10.56 3.42-13.5 9.36l-17.18 34.78c-1.04 2.1-4.84 4.88-7.16 5.2l-38.38 5.58c-6.56 0.96-11.34 4.58-13.08 9.96s-0.02 11.1 4.74 15.74l27.76 27.06c1.68 1.64 3.14 6.12 2.74 8.44l-6.56 38.2c-0.88 5.2 0.2 9.94 3.08 13.34 4.3 5.1 11.76 6.24 18.78 2.54l34.32-18.04c0.72-0.38 2.32-0.82 4.44-0.82s3.72 0.44 4.44 0.82l34.3 18.04c2.8 1.48 5.62 2.22 8.36 2.22 4.14 0 7.84-1.68 10.44-4.76 2.86-3.4 3.96-8.14 3.06-13.34l-6.54-38.2c-0.4-2.32 1.06-6.8 2.74-8.44l27.76-27.06zM504.62 832c-6.44 6.28-10.02 17.26-8.5 26.14l4.86 28.36-25.46-13.4c-3.82-2-8.7-3.12-13.74-3.12-5.04 0-9.92 1.12-13.74 3.12l-25.46 13.38 4.86-28.34c1.52-8.86-2.06-19.86-8.5-26.14l-20.6-20.08 28.46-4.14c8.92-1.28 18.26-8.08 22.24-16.16l12.74-25.8 12.74 25.8c3.98 8.08 13.32 14.86 22.22 16.16l28.48 4.14-20.6 20.08z" fill="#23130D" p-id="58971"></path><path d="M504.62 832c-6.44 6.28-10.02 17.26-8.5 26.14l4.86 28.36-25.46-13.4c-3.82-2-8.7-3.12-13.74-3.12-5.04 0-9.92 1.12-13.74 3.12l-25.46 13.38 4.86-28.34c1.52-8.86-2.06-19.86-8.5-26.14l-20.6-20.08 28.46-4.14c8.92-1.28 18.26-8.08 22.24-16.16l12.74-25.8 12.74 25.8c3.98 8.08 13.32 14.86 22.22 16.16l28.48 4.14-20.6 20.08z" fill="#EC7063" p-id="58972"></path><path d="M196.46 693.94c-72.18 0-130.92 58.72-130.92 130.9 0 72.2 58.74 130.92 130.92 130.92 72.2 0 130.92-58.72 130.92-130.92 0-72.18-58.72-130.9-130.92-130.9z m0 241.82c-61.16 0-110.92-49.76-110.92-110.92 0-61.16 49.76-110.9 110.92-110.9 61.16 0 110.92 49.74 110.92 110.9 0 61.16-49.76 110.92-110.92 110.92z" fill="#23130D" p-id="58973"></path><path d="M307.38 824.84c0 61.16-49.76 110.92-110.92 110.92-61.16 0-110.92-49.76-110.92-110.92 0-61.16 49.76-110.9 110.92-110.9 61.16 0 110.92 49.74 110.92 110.9z" fill="#EC7063" p-id="58974"></path><path d="M265.44 199.16c0 38.08-30.88 68.96-68.98 68.96-38.08 0-68.96-30.88-68.96-68.96 0-38.1 30.88-68.98 68.96-68.98 38.1 0 68.98 30.88 68.98 68.98z" fill="#FFFFFF" p-id="58975"></path><path d="M665.14 140.12l8 16.18-6.98 14.12c-3.98 8.08-13.34 14.86-22.24 16.16l-28.48 4.14 20.6 20.08c6.46 6.28 10.02 17.28 8.5 26.14l-2.66 15.46-15.94 8.38 4.86-28.34c1.52-8.86-2.06-19.86-8.5-26.14l-20.6-20.08 28.46-4.14c8.92-1.3 18.26-8.08 22.24-16.16l12.74-25.8zM461.78 452.982l8 16.18-6.98 14.12c-3.98 8.08-13.34 14.86-22.24 16.16l-28.48 4.14 20.6 20.08c6.46 6.28 10.02 17.28 8.5 26.14l-2.66 15.46-15.94 8.38 4.86-28.34c1.52-8.86-2.06-19.86-8.5-26.14l-20.6-20.08 28.46-4.14c8.92-1.3 18.26-8.08 22.24-16.16l12.74-25.8zM461.78 765.83l8 16.18-6.98 14.12c-3.98 8.08-13.34 14.86-22.24 16.16l-28.48 4.14 20.6 20.08c6.46 6.28 10.02 17.28 8.5 26.14l-2.66 15.46-15.94 8.38 4.86-28.34c1.52-8.86-2.06-19.86-8.5-26.14l-20.6-20.08 28.46-4.14c8.92-1.3 18.26-8.08 22.24-16.16l12.74-25.8zM665.14 452.982l8 16.18-6.98 14.12c-3.98 8.08-13.34 14.86-22.24 16.16l-28.48 4.14 20.6 20.08c6.46 6.28 10.02 17.28 8.5 26.14l-2.66 15.46-15.94 8.38 4.86-28.34c1.52-8.86-2.06-19.86-8.5-26.14l-20.6-20.08 28.46-4.14c8.92-1.3 18.26-8.08 22.24-16.16l12.74-25.8zM868.5 140.12l8 16.18-6.98 14.12c-3.98 8.08-13.34 14.86-22.24 16.16l-28.48 4.14 20.6 20.08c6.46 6.28 10.02 17.28 8.5 26.14l-2.66 15.46-15.94 8.38 4.86-28.34c1.52-8.86-2.06-19.86-8.5-26.14l-20.6-20.08 28.46-4.14c8.92-1.3 18.26-8.08 22.24-16.16l12.74-25.8zM110.2 512.01c0-57 43.22-104.08 98.6-110.22a109.08 109.08 0 0 0-12.34-0.7c-61.16 0-110.92 49.76-110.92 110.92 0 61.16 49.76 110.9 110.92 110.9 4.18 0 8.3-0.24 12.34-0.7-55.38-6.12-98.6-53.2-98.6-110.2zM110.2 824.86c0-57 43.22-104.08 98.6-110.22a109.08 109.08 0 0 0-12.34-0.7c-61.16 0-110.92 49.76-110.92 110.92 0 61.16 49.76 110.9 110.92 110.9 4.18 0 8.3-0.24 12.34-0.7-55.38-6.12-98.6-53.2-98.6-110.2z" fill="#23130D" opacity=".2" p-id="58976"></path></svg>