<?xml version="1.0" standalone="no"?><!DOCTYPE svg PUBLIC "-//W3C//DTD SVG 1.1//EN" "http://www.w3.org/Graphics/SVG/1.1/DTD/svg11.dtd"><svg t="1625812296437" class="icon" viewBox="0 0 1024 1024" version="1.1" xmlns="http://www.w3.org/2000/svg" p-id="59444" xmlns:xlink="http://www.w3.org/1999/xlink" width="200" height="200"><defs><style type="text/css"></style></defs><path d="M949.92 884.32c12.68-10.82 20.72-26.9 20.72-44.82v-193.4c0-0.14-0.02-0.26-0.04-0.4-0.86-25.58-21.92-46.12-47.7-46.12-12.46 0-23.82 4.8-32.34 12.64-7.66-16.18-24.14-27.4-43.2-27.4-12.24 0-23.42 4.62-31.88 12.24-7.5-17.16-24.46-29.46-43.62-29.46-10.26 0-19.88 3.52-27.76 9.42v-130.44c0-26.32-21.42-47.74-47.76-47.74-26.32 0-47.74 21.42-47.74 47.74v268.08c0 10.04-8.28 18.2-18.44 18.2-5.02 0-9.7-2-13.16-5.62-0.04-0.04-0.08-0.06-0.12-0.1s-0.06-0.08-0.1-0.12l-42.4-41.68c-9.02-9.02-21-13.98-33.76-13.98s-24.76 4.96-33.78 13.98c-18.6 18.62-18.6 48.92 0.02 67.54l146.28 146.28c-4.28 6.8-6.76 14.82-6.76 23.42 0 24.34 19.8 44.12 44.12 44.12H928c24.34 0 44.14-19.78 44.14-44.12 0-16.36-8.96-30.64-22.22-38.26zM521 738.74c-10.82-10.82-10.82-28.44 0-39.26 5.24-5.24 12.2-8.12 19.62-8.12s14.38 2.88 19.68 8.18l42.46 41.74c0.02 0.02 0.06 0.04 0.1 0.08 7.14 7.3 17.06 11.5 27.3 11.5 21.2 0 38.42-17.14 38.44-38.2V446.58c0-15.3 12.44-27.74 27.74-27.74 15.32 0 27.76 12.44 27.76 27.74v201.66c0 5.52 4.48 10 10 10s10-4.48 10-10v-31.62-0.04c0-15.72 12.72-28.98 27.76-28.98s27.76 13.26 27.76 28.98v42.78c0 5.54 4.46 10 10 10 5.52 0 10-4.46 10-10v-26.78c0-15.32 12.44-27.76 27.74-27.76 15.32 0 27.76 12.44 27.76 27.76v42.78c0 5.52 4.48 10 10 10s10-4.48 10-10v-27.92c0-0.04 0.02-0.06 0.02-0.1 0-15.32 12.44-27.76 27.76-27.76 15.3 0 27.74 12.44 27.74 27.76v192.16c0 21.48-17.46 38.96-38.94 38.96h-221.2c-8.5 0-16.44 2.42-23.18 6.6l-146.32-146.32zM928 946.7H690.5c-13.3 0-24.12-10.82-24.12-24.12s10.82-24.12 24.12-24.12H928c13.32 0 24.14 10.82 24.14 24.12s-10.84 24.12-24.14 24.12z" fill="#23130D" p-id="59445"></path><path d="M952.14 922.58c0 13.3-10.84 24.12-24.14 24.12H690.5c-13.3 0-24.12-10.82-24.12-24.12s10.82-24.12 24.12-24.12H928c13.32 0 24.14 10.82 24.14 24.12z" fill="#3594BF" p-id="59446"></path><path d="M952.14 922.58c0 2.8-0.48 5.5-1.36 8-3.3-9.38-12.26-16.12-22.78-16.12H690.5c-10.5 0-19.46 6.74-22.76 16.12-0.88-2.5-1.36-5.2-1.36-8 0-13.3 10.82-24.12 24.12-24.12H928c13.32 0 24.14 10.82 24.14 24.12z" fill="#FFFFFF" opacity=".6" p-id="59447"></path><path d="M950.64 647.34v192.16c0 21.48-17.46 38.96-38.94 38.96h-221.2c-8.5 0-16.44 2.42-23.18 6.6l-146.32-146.32c-10.82-10.82-10.82-28.44 0-39.26 5.24-5.24 12.2-8.12 19.62-8.12s14.38 2.88 19.68 8.18l42.46 41.74c0.02 0.02 0.06 0.04 0.1 0.08 7.14 7.3 17.06 11.5 27.3 11.5 21.2 0 38.42-17.14 38.44-38.2V446.58c0-15.3 12.44-27.74 27.74-27.74 15.32 0 27.76 12.44 27.76 27.74v201.66c0 5.52 4.48 10 10 10s10-4.48 10-10v-31.62-0.04c0-15.72 12.72-28.98 27.76-28.98s27.76 13.26 27.76 28.98v42.78c0 5.54 4.46 10 10 10 5.52 0 10-4.46 10-10v-26.78c0-15.32 12.44-27.76 27.74-27.76 15.32 0 27.76 12.44 27.76 27.76v42.78c0 5.52 4.48 10 10 10s10-4.48 10-10v-27.92c0-0.04 0.02-0.06 0.02-0.1 0-15.32 12.44-27.76 27.76-27.76 15.3 0 27.74 12.44 27.74 27.76z" fill="#F8D3C9" p-id="59448"></path><path d="M950.64 814.16v25.34c0 21.48-17.46 38.96-38.94 38.96h-221.2c-8.5 0-16.44 2.42-23.18 6.6l-146.32-146.32c-8.72-8.72-10.42-21.86-5.06-32.3 1.28 2.5 2.96 4.86 5.06 6.96l146.32 146.32a43.84 43.84 0 0 1 23.18-6.6h221.2c21.48 0 38.94-17.48 38.94-38.96z" fill="#23130D" opacity=".2" p-id="59449"></path><path d="M724.1 471.83c0-15.3-12.44-27.74-27.76-27.74-15.3 0-27.74 12.44-27.74 27.74v-25.34c0-15.3 12.44-27.74 27.74-27.74 15.32 0 27.76 12.44 27.76 27.74v25.34zM799.62 641.83c0-15.72-12.72-28.98-27.76-28.98s-27.76 13.26-27.76 28.98v-25.3-0.04c0-15.72 12.72-28.98 27.76-28.98s27.76 13.26 27.76 28.98v25.34zM875.12 657.83c0-15.32-12.44-27.76-27.76-27.76-15.3 0-27.74 12.44-27.74 27.76v-25.34c0-15.32 12.44-27.76 27.74-27.76 15.32 0 27.76 12.44 27.76 27.76v25.34zM950.64 647.25v25.34c0-15.32-12.44-27.76-27.74-27.76-15.32 0-27.76 12.44-27.76 27.76 0 0.04-0.02 0.06-0.02 0.1v-25.34c0-0.04 0.02-0.06 0.02-0.1 0-15.32 12.44-27.76 27.76-27.76 15.3 0 27.74 12.44 27.74 27.76z" fill="#FFFFFF" opacity=".6" p-id="59450"></path><path d="M631.534 117.142a10.004 10.004 0 0 0 12.816 5.976 10 10 0 0 0 5.976-12.818l-16.898-46.422a10 10 0 0 0-18.792 6.842l16.898 46.422zM508.224 168.936l42.788 24.712a9.998 9.998 0 0 0 13.662-3.658 10 10 0 0 0-3.658-13.662l-42.788-24.712a10.004 10.004 0 0 0-10.004 17.32zM832.992 194.992c1.698 0 3.416-0.432 4.992-1.342l42.788-24.712a10 10 0 0 0-10.004-17.32L827.98 176.33a10 10 0 0 0 5.012 18.662zM488.086 312.734c0.576 0 1.162-0.05 1.748-0.154l48.668-8.582a10 10 0 1 0-3.472-19.696l-48.668 8.582a10 10 0 0 0-8.112 11.584 10.004 10.004 0 0 0 9.836 8.266zM846.09 292.412a10 10 0 0 0 8.112 11.584l48.658 8.582a10.004 10.004 0 0 0 11.584-8.11 10 10 0 0 0-8.112-11.584l-48.658-8.582a10 10 0 0 0-11.584 8.11zM748.362 123.122a10.004 10.004 0 0 0 12.818-5.976l16.902-46.422a10 10 0 1 0-18.792-6.842l-16.902 46.422a10 10 0 0 0 5.974 12.818zM194.46 831.18c4.3-4.18 5.9-9.66 4.28-14.62-1.6-4.98-6.12-8.46-12.06-9.32l-30.6-4.44c-1.2-0.18-3.66-1.98-4.2-3.06l-13.68-27.72c-2.66-5.38-7.36-8.6-12.58-8.6s-9.94 3.22-12.6 8.6l-13.68 27.72c-0.52 1.08-3 2.88-4.2 3.06l-30.58 4.44c-5.96 0.86-10.46 4.34-12.08 9.32-1.62 4.96 0 10.44 4.3 14.62l22.14 21.58c0.86 0.84 1.8 3.76 1.6 4.94l-5.24 30.46c-0.8 4.76 0.22 9.12 2.9 12.3 2.42 2.86 6.02 4.5 9.88 4.5 2.52 0 5.08-0.66 7.6-1.98l27.36-14.4c0.22-0.1 1.14-0.42 2.6-0.42s2.38 0.32 2.58 0.42l27.36 14.38c2.54 1.34 5.08 2 7.6 2 3.86 0 7.46-1.64 9.88-4.5 2.68-3.18 3.72-7.54 2.9-12.3l-5.22-30.46c-0.2-1.18 0.74-4.1 1.6-4.94l22.14-21.58z m-36.1 7.26c-5.58 5.44-8.68 14.96-7.36 22.64l3.18 18.56-16.66-8.76c-4.28-2.24-8.84-2.72-11.9-2.72-3.08 0-7.62 0.48-11.9 2.72l-16.68 8.76 3.18-18.56c1.32-7.68-1.78-17.2-7.34-22.64l-13.5-13.14 18.64-2.72c7.72-1.12 15.8-7 19.26-13.98l8.34-16.9 8.34 16.9c3.44 6.98 11.54 12.86 19.24 13.98l18.64 2.72-13.48 13.14z" fill="#23130D" p-id="59451"></path><path d="M158.36 838.44c-5.58 5.44-8.68 14.96-7.36 22.64l3.18 18.56-16.66-8.76c-4.28-2.24-8.84-2.72-11.9-2.72-3.08 0-7.62 0.48-11.9 2.72l-16.68 8.76 3.18-18.56c1.32-7.68-1.78-17.2-7.34-22.64l-13.5-13.14 18.64-2.72c7.72-1.12 15.8-7 19.26-13.98l8.34-16.9 8.34 16.9c3.44 6.98 11.54 12.86 19.24 13.98l18.64 2.72-13.48 13.14z" fill="#F9C139" p-id="59452"></path><path d="M319.58 706.06c4.3-4.2 5.9-9.66 4.3-14.64-1.62-4.96-6.14-8.44-12.08-9.3l-30.6-4.46c-1.18-0.16-3.66-1.96-4.18-3.04l-13.68-27.72c-2.66-5.4-7.38-8.6-12.6-8.6s-9.92 3.2-12.58 8.6l-13.68 27.72c-0.54 1.08-3.02 2.88-4.2 3.04l-30.6 4.46c-5.94 0.86-10.46 4.34-12.08 9.3-1.6 4.98 0 10.44 4.3 14.64l22.14 21.58c0.86 0.84 1.8 3.74 1.6 4.94l-5.22 30.46c-0.82 4.74 0.22 9.1 2.9 12.28 2.42 2.88 6.02 4.52 9.88 4.52 2.5 0 5.06-0.68 7.58-2l27.38-14.38c0.2-0.12 1.12-0.42 2.58-0.42s2.38 0.3 2.6 0.42l27.36 14.38c2.52 1.32 5.08 2 7.6 2 3.86 0 7.46-1.64 9.86-4.52 2.7-3.18 3.72-7.54 2.9-12.28l-5.22-30.46c-0.2-1.2 0.74-4.1 1.6-4.94l22.14-21.58z m-36.1 7.26c-5.58 5.44-8.66 14.96-7.36 22.64l3.2 18.56-16.68-8.76c-4.28-2.26-8.82-2.72-11.9-2.72-3.06 0-7.62 0.46-11.9 2.72l-16.68 8.76 3.2-18.56c1.3-7.68-1.78-17.2-7.36-22.64l-13.5-13.16 18.66-2.7c7.7-1.12 15.8-7 19.24-13.98l8.34-16.9 8.34 16.9c3.44 6.98 11.54 12.86 19.26 13.98l18.64 2.7-13.5 13.16z" fill="#23130D" p-id="59453"></path><path d="M283.48 713.32c-5.58 5.44-8.66 14.96-7.36 22.64l3.2 18.56-16.68-8.76c-4.28-2.26-8.82-2.72-11.9-2.72-3.06 0-7.62 0.46-11.9 2.72l-16.68 8.76 3.2-18.56c1.3-7.68-1.78-17.2-7.36-22.64l-13.5-13.16 18.66-2.7c7.7-1.12 15.8-7 19.24-13.98l8.34-16.9 8.34 16.9c3.44 6.98 11.54 12.86 19.26 13.98l18.64 2.7-13.5 13.16z" fill="#F9C139" p-id="59454"></path><path d="M444.72 580.94c4.3-4.2 5.9-9.66 4.28-14.64-1.62-4.96-6.12-8.46-12.08-9.32l-30.58-4.44c-1.2-0.18-3.66-1.96-4.2-3.04l-13.68-27.74c-2.66-5.38-7.36-8.6-12.6-8.6-5.22 0-9.92 3.22-12.58 8.6l-13.68 27.74c-0.54 1.08-3 2.86-4.2 3.04l-30.6 4.44c-5.94 0.86-10.46 4.36-12.06 9.32-1.62 4.98-0.02 10.44 4.28 14.64l22.14 21.56c0.86 0.86 1.82 3.76 1.6 4.94l-5.22 30.48c-0.82 4.74 0.22 9.1 2.9 12.28 2.42 2.86 6.02 4.52 9.88 4.52 2.52 0 5.08-0.68 7.6-2l27.36-14.38c0.2-0.12 1.12-0.44 2.58-0.44 1.48 0 2.4 0.32 2.6 0.42l27.36 14.4c2.52 1.32 5.08 2 7.6 2 3.86 0 7.46-1.66 9.88-4.52 2.68-3.18 3.7-7.54 2.9-12.28l-5.24-30.48c-0.2-1.18 0.76-4.08 1.62-4.92l22.14-21.58z m-36.12 7.26c-5.56 5.44-8.66 14.94-7.34 22.62l3.18 18.58-16.68-8.78c-4.26-2.24-8.82-2.72-11.9-2.72-3.06 0-7.62 0.48-11.9 2.72l-16.66 8.78 3.18-18.58c1.32-7.66-1.78-17.18-7.36-22.62l-13.48-13.16 18.64-2.7c7.7-1.14 15.8-7.02 19.26-14l8.32-16.88 8.34 16.88c3.46 6.98 11.56 12.88 19.26 14l18.64 2.7-13.5 13.16z" fill="#23130D" p-id="59455"></path><path d="M408.6 588.2c-5.56 5.44-8.66 14.94-7.34 22.62l3.18 18.58-16.68-8.78c-4.26-2.24-8.82-2.72-11.9-2.72-3.06 0-7.62 0.48-11.9 2.72l-16.66 8.78 3.18-18.58c1.32-7.66-1.78-17.18-7.36-22.62l-13.48-13.16 18.64-2.7c7.7-1.14 15.8-7.02 19.26-14l8.32-16.88 8.34 16.88c3.46 6.98 11.56 12.88 19.26 14l18.64 2.7-13.5 13.16z" fill="#F9C139" p-id="59456"></path><path d="M569.84 455.8c4.3-4.18 5.9-9.66 4.28-14.62-1.6-4.98-6.12-8.46-12.06-9.32l-30.6-4.44c-1.2-0.18-3.66-1.98-4.2-3.06l-13.68-27.72c-2.66-5.38-7.36-8.6-12.58-8.6-5.24 0-9.94 3.22-12.6 8.6l-13.68 27.72c-0.52 1.08-3 2.88-4.2 3.06l-30.58 4.44c-5.96 0.86-10.46 4.34-12.08 9.32-1.62 4.96 0 10.44 4.3 14.62l22.14 21.58c0.86 0.84 1.8 3.76 1.6 4.94l-5.24 30.48c-0.8 4.74 0.22 9.1 2.9 12.28 2.42 2.86 6.02 4.5 9.88 4.5 2.52 0 5.08-0.66 7.6-2l27.36-14.38c0.22-0.1 1.14-0.42 2.6-0.42s2.38 0.32 2.58 0.42l27.36 14.38c2.54 1.34 5.08 2 7.6 2 3.86 0 7.46-1.64 9.88-4.5 2.68-3.18 3.72-7.54 2.9-12.28l-5.22-30.48c-0.2-1.18 0.74-4.1 1.6-4.94l22.14-21.58z m-36.1 7.26c-5.58 5.44-8.68 14.96-7.36 22.64l3.18 18.56-16.66-8.76c-4.28-2.24-8.84-2.72-11.9-2.72-3.08 0-7.62 0.48-11.9 2.72l-16.68 8.76 3.18-18.56c1.32-7.68-1.78-17.2-7.34-22.64l-13.5-13.14 18.64-2.72c7.72-1.12 15.8-7 19.26-13.98l8.34-16.9 8.34 16.9c3.44 6.98 11.54 12.86 19.24 13.98l18.64 2.72-13.48 13.14z" fill="#23130D" p-id="59457"></path><path d="M533.74 463.06c-5.58 5.44-8.68 14.96-7.36 22.64l3.18 18.56-16.66-8.76c-4.28-2.24-8.84-2.72-11.9-2.72-3.08 0-7.62 0.48-11.9 2.72l-16.68 8.76 3.18-18.56c1.32-7.68-1.78-17.2-7.34-22.64l-13.5-13.14 18.64-2.72c7.72-1.12 15.8-7 19.26-13.98l8.34-16.9 8.34 16.9c3.44 6.98 11.54 12.86 19.24 13.98l18.64 2.72-13.48 13.14z" fill="#F9C139" p-id="59458"></path><path d="M501 416.32l8.06 16.34-2.74 5.56c-3.46 6.98-11.54 12.86-19.26 13.98l-18.64 2.72 13.5 13.14c5.56 5.44 8.66 14.96 7.34 22.64l-0.88 5.18-15.96 8.38 3.18-18.56c1.32-7.68-1.78-17.2-7.34-22.64l-13.5-13.14 18.64-2.72c7.72-1.12 15.8-7 19.26-13.98l8.34-16.9zM375.88 541.46l8.06 16.34-2.74 5.56c-3.46 6.98-11.54 12.86-19.26 13.98l-18.64 2.72 13.5 13.14c5.56 5.44 8.66 14.96 7.34 22.64l-0.88 5.18-15.96 8.38 3.18-18.56c1.32-7.68-1.78-17.2-7.34-22.64l-13.5-13.14 18.64-2.72c7.72-1.12 15.8-7 19.26-13.98l8.34-16.9zM250.74 666.58l8.06 16.34-2.74 5.56c-3.46 6.98-11.54 12.86-19.26 13.98l-18.64 2.72 13.5 13.14c5.56 5.44 8.66 14.96 7.34 22.64l-0.88 5.18-15.96 8.38 3.18-18.56c1.32-7.68-1.78-17.2-7.34-22.64l-13.5-13.14 18.64-2.72c7.72-1.12 15.8-7 19.26-13.98l8.34-16.9zM125.6 791.7l8.06 16.34-2.74 5.56c-3.46 6.98-11.54 12.86-19.26 13.98l-18.64 2.72 13.5 13.14c5.56 5.44 8.66 14.96 7.34 22.64l-0.88 5.18-15.96 8.38 3.18-18.56c1.32-7.68-1.78-17.2-7.34-22.64l-13.5-13.14 18.64-2.72c7.72-1.12 15.8-7 19.26-13.98l8.34-16.9z" fill="#23130D" opacity=".2" p-id="59459"></path><path d="M837.32 250.28c6.12-5.96 8.4-13.1 6.3-19.6-2.12-6.5-8.18-10.94-16.62-12.16l-65.26-9.48c-6.2-0.9-14.7-7.08-17.48-12.7l-29.2-59.16c-3.76-7.64-9.86-12.02-16.68-12.02-6.84 0-12.92 4.38-16.7 12.02l-29.2 59.16c-2.78 5.62-11.26 11.8-17.48 12.7l-65.26 9.48c-8.44 1.22-14.5 5.66-16.62 12.16-2.1 6.5 0.18 13.64 6.3 19.6l47.22 46.04c4.5 4.38 7.74 14.36 6.68 20.54l-11.14 65.02c-1.5 8.66 1.18 14.02 3.68 16.98 3.04 3.6 7.44 5.6 12.4 5.6 3.52 0 7.18-1 10.92-2.96l58.38-30.7c2.62-1.38 6.66-2.2 10.8-2.2 4.16 0 8.2 0.82 10.82 2.2l58.38 30.7c3.74 1.96 7.4 2.96 10.92 2.96 4.96 0 9.36-2 12.4-5.6 2.5-2.96 5.18-8.32 3.68-16.98l-11.14-65.02c-1.06-6.18 2.18-16.16 6.68-20.54l47.22-46.04zM776.14 282c-9.28 9.04-14.62 25.48-12.44 38.24l10.68 62.26-55.9-29.4c-5.52-2.9-12.66-4.5-20.12-4.5-7.44 0-14.58 1.6-20.1 4.5l-55.9 29.4 10.68-62.26c2.18-12.76-3.16-29.2-12.44-38.24l-45.22-44.1 62.5-9.08c12.82-1.86 26.8-12.02 32.54-23.64l27.96-56.64 27.94 56.64c5.74 11.62 19.72 21.78 32.54 23.64l62.5 9.08L776.14 282z" fill="#23130D" p-id="59460"></path><path d="M776.14 282c-9.28 9.04-14.62 25.48-12.44 38.24l10.68 62.26-55.9-29.4c-5.52-2.9-12.66-4.5-20.12-4.5-7.44 0-14.58 1.6-20.1 4.5l-55.9 29.4 10.68-62.26c2.18-12.76-3.16-29.2-12.44-38.24l-45.22-44.1 62.5-9.08c12.82-1.86 26.8-12.02 32.54-23.64l27.96-56.64 27.94 56.64c5.74 11.62 19.72 21.78 32.54 23.64l62.5 9.08L776.14 282z" fill="#F9C139" p-id="59461"></path><path d="M698.38 148.54l12.06 24.44-19.36 39.2c-5.74 11.62-19.72 21.78-32.54 23.64l-62.5 9.08 45.22 44.1c9.28 9.04 14.62 25.48 12.44 38.24l-7.32 42.62-24.02 12.64 10.68-62.26c2.18-12.76-3.16-29.2-12.44-38.24l-45.22-44.1 62.5-9.08c12.82-1.86 26.8-12.02 32.54-23.64l27.96-56.64z" fill="#23130D" opacity=".2" p-id="59462"></path></svg>