<?xml version="1.0" standalone="no"?><!DOCTYPE svg PUBLIC "-//W3C//DTD SVG 1.1//EN" "http://www.w3.org/Graphics/SVG/1.1/DTD/svg11.dtd"><svg t="1625812328001" class="icon" viewBox="0 0 1024 1024" version="1.1" xmlns="http://www.w3.org/2000/svg" p-id="61174" xmlns:xlink="http://www.w3.org/1999/xlink" width="200" height="200"><defs><style type="text/css"></style></defs><path d="M956.18 160.36c-0.26-0.62-0.56-1.22-0.94-1.8-0.76-1.12-1.7-2.06-2.8-2.78-0.26-0.18-0.56-0.3-0.84-0.46-0.28-0.16-0.56-0.32-0.86-0.46-0.32-0.12-0.64-0.2-0.94-0.3-0.32-0.08-0.6-0.2-0.92-0.26-0.28-0.06-0.56-0.06-0.86-0.1-0.36-0.04-0.7-0.1-1.08-0.1-0.28 0-0.58 0.04-0.86 0.08-0.36 0.02-0.7 0.02-1.06 0.1-1.28 0.24-2.52 0.72-3.64 1.48-0.58 0.38-1.1 0.8-1.56 1.28l-119.56 119.54-72.84-72.84 119.54-119.56c0.48-0.46 0.9-0.98 1.28-1.56 0.76-1.12 1.24-2.38 1.48-3.66 0.06-0.3 0.06-0.58 0.1-0.88 0.02-0.36 0.08-0.7 0.08-1.04 0-0.34-0.06-0.66-0.1-0.98-0.02-0.32-0.04-0.64-0.1-0.96-0.06-0.28-0.16-0.56-0.26-0.86-0.1-0.32-0.18-0.66-0.3-0.98-0.14-0.3-0.3-0.58-0.46-0.86-0.16-0.28-0.28-0.58-0.46-0.84-0.72-1.1-1.66-2.06-2.78-2.8-0.58-0.38-1.18-0.68-1.8-0.94-62.66-25.38-134.02-10.88-181.82 36.92-38.84 38.82-56.06 93.56-46.68 147.44l-76.68 69.42-32.06-32.06c-0.06-0.06-0.14-0.1-0.2-0.16-0.28-0.26-0.56-0.48-0.86-0.7-0.24-0.18-0.46-0.38-0.72-0.52-0.28-0.18-0.58-0.32-0.88-0.48-0.28-0.14-0.58-0.28-0.88-0.4-0.28-0.1-0.58-0.18-0.88-0.26-0.34-0.1-0.68-0.2-1.04-0.24-0.08-0.02-0.18-0.06-0.28-0.08l-73-9.8a60.242 60.242 0 0 0 10.86-34.72c0-16.24-6.32-31.52-17.8-43s-26.76-17.8-43-17.8-31.52 6.32-43 17.78L104.62 449.28c-23.7 23.72-23.7 62.3-0.02 85.98 11.5 11.5 26.78 17.84 43.02 17.84 8 0 15.76-1.54 22.94-4.48-0.76 4.58-1.18 9.22-1.18 13.94 0 22.16 8.62 42.98 24.28 58.62l16.06 16.06-114.5 103.62c-0.38 0.3-0.7 0.62-1.02 0.98-51.52 51.86-51.44 135.96 0.3 187.68 25.9 25.9 59.94 38.86 93.98 38.86s68.08-12.96 94-38.86c0.04-0.06 0.08-0.1 0.12-0.16 0.08-0.08 0.16-0.12 0.24-0.22l103.94-114.84 9.26 9.26 0.02 0.02 1.28 1.28c0.14 0.16 0.32 0.26 0.48 0.38 12.66 11.78 28.84 17.68 45.04 17.68 16.96 0 33.9-6.44 46.82-19.34 12.5-12.52 19.4-29.16 19.42-46.84 0-1.5-0.08-2.98-0.16-4.44 9.12 4.44 19.06 6.66 29 6.66 16.94 0 33.9-6.44 46.82-19.34 13.84-13.86 20.24-32.36 19.24-50.52 9.34 4.9 19.8 7.64 30.72 7.88 0.5 0 1.02 0.02 1.52 0.02 17.68-0.02 34.02-6.64 46.14-18.78 12.5-12.5 19.18-29.42 18.78-47.7-0.02-0.68-0.06-1.36-0.1-2.04 10.04 5.9 21.5 9.06 33.46 9.06h0.02c17.68 0 34.3-6.9 46.8-19.4 12.52-12.5 19.42-29.14 19.42-46.82 0-17.7-6.9-34.32-19.42-46.84l-78.92-78.92 69.42-76.7c9.66 1.68 19.32 2.52 28.94 2.52 44.02-0.02 86.62-17.32 118.48-49.2 47.8-47.78 62.28-119.16 36.92-181.82zM147.62 533.1c-10.9 0-21.16-4.26-28.88-11.98-15.9-15.9-15.88-41.78 0.02-57.7l250.1-250.12c7.7-7.68 17.96-11.92 28.86-11.92s21.16 4.24 28.86 11.94c7.7 7.7 11.94 17.96 11.94 28.86 0.02 10.9-4.22 21.14-11.92 28.84L176.5 521.12c-7.72 7.72-17.96 11.98-28.88 11.98z m120.7 382.28c-44.02 44.02-115.66 44.02-159.68 0-43.98-43.98-44.02-115.52-0.14-159.56l115.38-104.42 148.74 148.74-104.3 115.24zM767.2 558.62c8.74 8.74 13.56 20.36 13.56 32.7 0 12.34-4.82 23.94-13.56 32.68-8.72 8.72-20.32 13.54-32.66 13.54h-0.02c-12.34 0-23.94-4.8-32.68-13.54l-20.7-20.72c-0.14-0.14-0.3-0.28-0.44-0.4l-32.94-32.96a10.032 10.032 0 0 0-14.16 0 10.006 10.006 0 0 0 0 14.14l33.36 33.36c0.02 0 0.02 0.02 0.02 0.02 8.74 8.74 13.9 20.96 14.18 33.52 0.28 12.76-4.3 24.52-12.92 33.12-8.58 8.58-20.32 13.16-33.1 12.9-12.58-0.28-24.8-5.44-33.54-14.2l-45.04-45.08c-3.9-3.9-10.24-3.92-14.14-0.02a10.012 10.012 0 0 0-0.02 14.16l28 28.02c0.06 0.08 0.12 0.16 0.2 0.24 18.02 18 18.02 47.34 0.02 65.38-18.04 18-47.38 18-65.38-0.02l-15.22-15.24c-0.12-0.12-0.22-0.22-0.32-0.34-0.04-0.02-0.06-0.04-0.1-0.08l-29.42-29.42a10.006 10.006 0 0 0-14.14 0 10.006 10.006 0 0 0 0 14.14l29.68 29.7c8.62 8.72 13.38 20.24 13.38 32.5-0.02 12.36-4.82 23.98-13.56 32.72-18.02 18-47.34 17.98-65.36-0.02L207.8 607.04c-11.88-11.88-18.42-27.66-18.42-44.48 0-16.8 6.54-32.58 18.4-44.44h0.02l223.26-223.28 83.6 11.24L767.2 558.62z m137.92-230.58c-35.4 35.42-85.84 50.42-134.9 40.16-0.1-0.02-0.2-0.02-0.32-0.04-0.32-0.04-0.64-0.08-0.96-0.1-0.36-0.02-0.7-0.06-1.04-0.04-0.26 0-0.52 0.04-0.76 0.06-0.4 0.06-0.8 0.1-1.18 0.18-0.22 0.06-0.44 0.12-0.64 0.2-0.4 0.12-0.8 0.24-1.2 0.42-0.18 0.08-0.36 0.18-0.56 0.28-0.38 0.22-0.78 0.42-1.14 0.68-0.14 0.1-0.28 0.24-0.42 0.34-0.4 0.32-0.76 0.64-1.1 1-0.04 0.04-0.08 0.06-0.12 0.1l-72.52 80.12-115.64-115.64 79.74-72.2c1.28-1.04 2.26-2.38 2.9-3.92 0-0.02 0.02-0.04 0.02-0.08 0.22-0.56 0.4-1.14 0.52-1.76 0.02-0.04 0.02-0.1 0.04-0.14 0.1-0.6 0.18-1.2 0.18-1.82v-0.04c0-0.04-0.02-0.06-0.02-0.1 0-0.66-0.08-1.3-0.2-1.94-10.26-49.06 4.76-99.48 40.16-134.88a147.704 147.704 0 0 1 145.58-37.56L726.2 196.66a10.006 10.006 0 0 0 0 14.14l86.98 87c1.88 1.88 4.42 2.94 7.08 2.94s5.2-1.06 7.06-2.94l115.34-115.34c14.86 51.42 0.9 107.16-37.54 145.58z" fill="#23130D" p-id="61175"></path><path d="M905.12 328.04c-35.4 35.42-85.84 50.42-134.9 40.16-0.1-0.02-0.2-0.02-0.32-0.04-0.32-0.04-0.64-0.08-0.96-0.1-0.36-0.02-0.7-0.06-1.04-0.04-0.26 0-0.52 0.04-0.76 0.06-0.4 0.06-0.8 0.1-1.18 0.18-0.22 0.06-0.44 0.12-0.64 0.2-0.4 0.12-0.8 0.24-1.2 0.42-0.18 0.08-0.36 0.18-0.56 0.28-0.38 0.22-0.78 0.42-1.14 0.68-0.14 0.1-0.28 0.24-0.42 0.34-0.4 0.32-0.76 0.64-1.1 1-0.04 0.04-0.08 0.06-0.12 0.1l-72.52 80.12-115.64-115.64 79.74-72.2c1.28-1.04 2.26-2.38 2.9-3.92 0-0.02 0.02-0.04 0.02-0.08 0.22-0.56 0.4-1.14 0.52-1.76 0.02-0.04 0.02-0.1 0.04-0.14 0.1-0.6 0.18-1.2 0.18-1.82v-0.04c0-0.04-0.02-0.06-0.02-0.1 0-0.66-0.08-1.3-0.2-1.94-10.26-49.06 4.76-99.48 40.16-134.88a147.704 147.704 0 0 1 145.58-37.56L726.2 196.66a10.006 10.006 0 0 0 0 14.14l86.98 87c1.88 1.88 4.42 2.94 7.08 2.94s5.2-1.06 7.06-2.94l115.34-115.34c14.86 51.42 0.9 107.16-37.54 145.58z" fill="#E1E1E5" p-id="61176"></path><path d="M588.36 321.5l114.16 114.16-14.26 15.74-115.64-115.64z" opacity=".2" p-id="61177"></path><path d="M223.88 651.4l-115.38 104.42c-43.88 44.04-43.84 115.58 0.14 159.56 44.02 44.02 115.66 44.02 159.68 0l104.3-115.24-148.74-148.74z m-35.4 266.5c-45.42 0-82.36-36.96-82.36-82.38 0-45.42 36.94-82.36 82.36-82.36s82.38 36.94 82.38 82.36-36.96 82.38-82.38 82.38z" fill="#E1E1E5" p-id="61178"></path><path d="M223.88 651.4l-115.38 104.42c-2.48 2.48-4.8 5.04-7 7.7l107.88-97.62 148.74 148.74-97.62 107.86c2.7-2.22 5.3-4.6 7.82-7.12l104.3-115.24-148.74-148.74z" opacity=".2" p-id="61179"></path><path d="M438.52 242.18c0.02 10.9-4.22 21.14-11.92 28.84L176.5 521.12c-7.72 7.72-17.96 11.98-28.88 11.98-10.9 0-21.16-4.26-28.88-11.98-15.9-15.9-15.88-41.78 0.02-57.7l250.1-250.12c7.7-7.68 17.96-11.92 28.86-11.92s21.16 4.24 28.86 11.94c7.7 7.7 11.94 17.96 11.94 28.86z" fill="#3594BF" p-id="61180"></path><path d="M438.52 242.18c0.02 10.9-4.22 21.14-11.92 28.84L176.5 521.12c-7.72 7.72-17.96 11.98-28.88 11.98-10.9 0-21.16-4.26-28.88-11.98a40.366 40.366 0 0 1-8.6-12.68c5.04 2.18 10.5 3.32 16.14 3.32 10.92 0 21.16-4.26 28.88-11.98l250.1-250.1c7.7-7.7 11.94-17.94 11.92-28.84 0-5.64-1.14-11.12-3.3-16.16 4.68 2.02 8.98 4.94 12.7 8.64 7.7 7.7 11.94 17.96 11.94 28.86z" opacity=".2" p-id="61181"></path><path d="M780.76 591.32c0 12.34-4.82 23.94-13.56 32.68-8.72 8.72-20.32 13.54-32.66 13.54h-0.02c-12.34 0-23.94-4.8-32.68-13.54l-20.7-20.72c-0.14-0.14-0.3-0.28-0.44-0.4l-32.94-32.96a10.032 10.032 0 0 0-14.16 0 10.006 10.006 0 0 0 0 14.14l33.36 33.36c0.02 0 0.02 0.02 0.02 0.02 8.74 8.74 13.9 20.96 14.18 33.52 0.28 12.76-4.3 24.52-12.92 33.12-8.58 8.58-20.32 13.16-33.1 12.9-12.58-0.28-24.8-5.44-33.54-14.2l-45.04-45.08c-3.9-3.9-10.24-3.92-14.14-0.02a10.012 10.012 0 0 0-0.02 14.16l28 28.02c0.06 0.08 0.12 0.16 0.2 0.24 18.02 18 18.02 47.34 0.02 65.38-18.04 18-47.38 18-65.38-0.02l-15.22-15.24c-0.12-0.12-0.22-0.22-0.32-0.34-0.04-0.02-0.06-0.04-0.1-0.08l-29.42-29.42a10.006 10.006 0 0 0-14.14 0 10.006 10.006 0 0 0 0 14.14l29.68 29.7c8.62 8.72 13.38 20.24 13.38 32.5-0.02 12.36-4.82 23.98-13.56 32.72-18.02 18-47.34 17.98-65.36-0.02L207.8 607.04c-11.88-11.88-18.42-27.66-18.42-44.48 0-16.8 6.54-32.58 18.4-44.44h0.02l223.26-223.28 83.6 11.24L767.2 558.62c8.74 8.74 13.56 20.36 13.56 32.7z" fill="#F8D3C9" p-id="61182"></path><path d="M471.08 711.28l-0.42-0.42c0.04 0.04 0.06 0.06 0.1 0.08 0.1 0.12 0.2 0.22 0.32 0.34zM475.72 744.22c8.62 8.72 13.38 20.24 13.38 32.5-0.02 12.36-4.82 23.98-13.56 32.72-18.02 18-47.34 17.98-65.36-0.02l-18.94-18.94c18.02 18 47.34 18.02 65.36 0.02 8.74-8.74 13.54-20.36 13.56-32.72 0-12.26-4.76-23.78-13.38-32.5l18.94 18.94zM570.6 680.1c18.02 18 18.02 47.34 0.02 65.38-18.04 18-47.38 18-65.38-0.02l-15.22-15.24c-0.12-0.12-0.22-0.22-0.32-0.34-0.04-0.02-0.06-0.04-0.1-0.08l-2.86-2.86c18.02 17.6 47.04 17.46 64.94-0.4 18-18.04 18-47.38-0.02-65.38-0.08-0.08-0.14-0.16-0.2-0.24l18.94 18.94c0.06 0.08 0.12 0.16 0.2 0.24zM680.7 602.88l-18.82-18.82c0.1 0.08 0.22 0.18 0.32 0.28l18.74 18.76c-0.08-0.08-0.16-0.16-0.24-0.22zM666.98 617.44c8.74 8.74 13.9 20.96 14.18 33.52 0.28 12.76-4.3 24.52-12.92 33.12-8.58 8.58-20.32 13.16-33.1 12.9-12.58-0.28-24.8-5.44-33.54-14.2l-18.6-18.6c8.7 8.54 20.78 13.58 33.2 13.86 12.78 0.26 24.52-4.32 33.1-12.9 8.62-8.6 13.2-20.36 12.92-33.12-0.28-12.56-5.44-24.78-14.18-33.52l18.92 18.92c0.02 0 0.02 0.02 0.02 0.02zM780.76 591.32c0 12.34-4.82 23.94-13.56 32.68-8.72 8.72-20.32 13.54-32.66 13.54h-0.02c-12.34 0-23.94-4.8-32.68-13.54l-18.56-18.58c8.68 8.52 20.14 13.18 32.3 13.18h0.02c12.34 0 23.94-4.82 32.66-13.54 8.74-8.74 13.56-20.34 13.56-32.68s-4.82-23.96-13.56-32.7l18.94 18.94c8.74 8.74 13.56 20.36 13.56 32.7z" fill="#FFFFFF" opacity=".6" p-id="61183"></path><path d="M514.66 306.08l26.82 26.82-83.6-11.24-223.26 223.28h-0.02c-11.86 11.86-18.4 27.64-18.4 44.44 0 16.82 6.54 32.6 18.42 44.48l-26.82-26.82c-11.88-11.88-18.42-27.66-18.42-44.48 0-16.8 6.54-32.58 18.4-44.44h0.02l223.26-223.28 83.6 11.24z" opacity=".2" p-id="61184"></path><path d="M188.48 753.16c-45.42 0-82.36 36.94-82.36 82.36s36.94 82.38 82.36 82.38 82.38-36.96 82.38-82.38c0-45.42-36.96-82.36-82.38-82.36z m0 144.74c-34.38 0-62.36-27.98-62.36-62.38 0-34.38 27.98-62.36 62.36-62.36 34.4 0 62.38 27.98 62.38 62.36 0 34.4-27.98 62.38-62.38 62.38z" fill="#23130D" p-id="61185"></path></svg>