<?xml version="1.0" standalone="no"?><!DOCTYPE svg PUBLIC "-//W3C//DTD SVG 1.1//EN" "http://www.w3.org/Graphics/SVG/1.1/DTD/svg11.dtd"><svg t="1625811562873" class="icon" viewBox="0 0 1024 1024" version="1.1" xmlns="http://www.w3.org/2000/svg" p-id="35233" xmlns:xlink="http://www.w3.org/1999/xlink" width="200" height="200"><defs><style type="text/css"></style></defs><path d="M964.99 277.12L746.89 59.02a30.606 30.606 0 0 0-21.78-9.02c-8.24 0-15.98 3.2-21.8 9.02l-4.68 4.7c-9.64 9.64-11.52 24.1-5.72 35.66l-135.86 135.88c-12.04 12.04-21.38 26.06-27.7 41.32-6.32 15.28-9.64 31.78-9.64 48.82 0 30.7 10.8 59.72 30.56 82.78l-14.24 14.24c-23.08-19.76-52.08-30.56-82.78-30.56-9.32 0-18.48 1-27.38 2.94-8.88 1.94-17.5 4.84-25.72 8.6-28.92-8.64-83.06-18.84-144.84-0.96-78.26 22.62-145.94 82.26-201.16 177.26a9.988 9.988 0 0 0 1.58 12.1 9.98 9.98 0 0 0 12.12 1.54c1.06-0.62 99.14-57.36 175.86-44.76l-16.46 16.48c-0.24-0.12-0.5-0.22-0.72-0.32-0.68-0.32-1.36-0.62-2.06-0.9-0.4-0.14-0.78-0.28-1.18-0.42-0.66-0.22-1.34-0.42-2.04-0.6-0.4-0.12-0.8-0.22-1.2-0.32-0.74-0.16-1.5-0.28-2.24-0.38-0.36-0.06-0.72-0.12-1.08-0.16-1.12-0.12-2.24-0.2-3.38-0.2-8.22 0-15.96 3.2-21.78 9.02l-4.7 4.7a30.606 30.606 0 0 0-9.02 21.78c0 8.24 3.2 15.98 9.02 21.8l33.72 33.72-18.22 18.24c-1.88 1.88-2.94 4.42-2.94 7.06 0 2.66 1.06 5.2 2.94 7.08l19.6 19.62-32.14 32.14a10.006 10.006 0 0 0 0 14.14l83.14 83.12a9.9 9.9 0 0 0 7.06 2.94c2.56 0 5.12-0.98 7.08-2.94l32.14-32.14 19.6 19.6a9.98 9.98 0 0 0 7.08 2.94c2.56 0 5.12-0.98 7.06-2.94l18.24-18.22 33.72 33.72c5.82 5.82 13.56 9.02 21.78 9.02 8.24 0 15.98-3.2 21.8-9.02l4.7-4.7c0.66-0.66 1.28-1.36 1.88-2.08 0.22-0.26 0.42-0.54 0.64-0.8 0.34-0.46 0.68-0.9 1.02-1.38 0.24-0.34 0.48-0.7 0.7-1.06 0.24-0.4 0.48-0.78 0.7-1.18 0.26-0.44 0.48-0.86 0.72-1.28 0.14-0.32 0.28-0.64 0.44-0.94 0.84-1.8 1.5-3.64 1.98-5.56 0.04-0.24 0.1-0.46 0.16-0.68 0.14-0.58 0.24-1.18 0.34-1.78l0.12-0.84c0.08-0.58 0.16-1.16 0.2-1.76 0.02-0.28 0.02-0.56 0.04-0.84 0.04-0.52 0.08-1.06 0.08-1.6 0-0.62-0.06-1.22-0.08-1.84-0.02-0.22-0.02-0.44-0.04-0.66-0.04-0.62-0.12-1.2-0.22-1.8-0.02-0.28-0.06-0.54-0.1-0.8-0.1-0.6-0.22-1.22-0.36-1.82-0.06-0.2-0.1-0.42-0.16-0.62a30 30 0 0 0-2.06-5.72c-0.1-0.22-0.18-0.42-0.28-0.62l15.12-15.14c12.76 76.52-42.82 173.52-43.42 174.56a9.992 9.992 0 1 0 13.68 13.66c94.98-55.22 154.62-122.9 177.26-201.16 17.88-61.84 7.64-116.02-1-144.92 20.12-44.12 13.78-97.46-19.02-135.8l14.26-14.24c23.06 19.76 52.08 30.56 82.78 30.56 17.02 0 33.54-3.32 48.8-9.64 15.28-6.32 29.3-15.66 41.34-27.68v-0.02h0.02l135.86-135.86c4.24 2.14 8.96 3.3 13.88 3.3 8.22 0 15.96-3.2 21.78-9.02l4.7-4.68c12-12.02 12-31.56 0-43.58zM90.23 559.58c102.72-153.56 221.64-155.5 285.86-141.72a130.942 130.942 0 0 0-13 11.34l-102.56 102.56c-58.86-15.86-129.78 9.36-170.3 27.82z m189.8 253.4l-68.98-69 25.06-25.06 69 68.98-25.08 25.08z m65.9-12.54l-102.72-102.72-0.02-0.02-0.02-0.02-19.6-19.6 11.16-11.16 122.36 122.36-11.16 11.16z m94.68 15.92c-0.06 0.08-0.1 0.18-0.16 0.26-0.38 0.6-0.84 1.16-1.36 1.68l-4.7 4.7a10.754 10.754 0 0 1-7.66 3.16c-2.88 0-5.6-1.12-7.64-3.16l-218.08-218.08a10.76 10.76 0 0 1-2.96-5.52c-0.14-0.7-0.2-1.4-0.2-2.14 0-2.16 0.62-4.22 1.8-5.98 0.4-0.6 0.84-1.14 1.36-1.66l4.7-4.7a10.74 10.74 0 0 1 7.64-3.16c2.9 0 5.6 1.12 7.66 3.18l218.08 218.08c0.16 0.16 0.28 0.36 0.44 0.54 0.32 0.36 0.66 0.74 0.92 1.12 0.1 0.16 0.16 0.34 0.26 0.48 0.28 0.46 0.54 0.94 0.74 1.42 0.02 0.06 0.04 0.1 0.06 0.16 1.2 3.14 0.9 6.7-0.9 9.62z m5.28-34.82l-203.42-203.42 28.5-28.5c0.02-0.02 0.02-0.04 0.04-0.04l37.92-37.92c49.58 11.3 94.76 36.28 130.94 72.48 36.2 36.18 61.18 81.36 72.48 130.94l-66.46 66.46z m18.28 152.42c18.06-40.16 42.62-110.38 26.7-169.12l39.48-39.48c0.02 0 0.04-0.02 0.04-0.04l64.42-64.4v-0.02c4.14-4.12 7.88-8.48 11.34-13.02 13.78 64.26 11.88 183.3-141.98 286.08z m116.5-287.2v0.02l-51.86 51.84c-13.26-48.52-38.88-92.7-74.8-128.62s-80.1-61.52-128.64-74.8l51.86-51.86c10.16-10.14 21.98-18.02 34.86-23.36 12.88-5.32 26.8-8.12 41.16-8.12 28.7 0 55.7 11.18 76 31.48a9.98 9.98 0 0 0 7.08 2.94c0.64 0 1.28-0.06 1.9-0.2 1.88-0.36 3.68-1.26 5.14-2.7 2.54 8.82 7.18 18.84 15.54 26.78 5.88 5.56 12.84 9.42 20.8 11.62-2.88 3.92-2.58 9.44 0.96 12.98 41.9 41.9 41.9 110.1 0 152z m117.94-162.46c-28.72 0-55.7-11.18-76.02-31.48a10.006 10.006 0 0 0-14.14 0l-11.12 11.12c-10.44 0.16-18.52-2.54-24.58-8.24-9.36-8.8-11.74-22.72-12.34-29.38l10.78-10.78c3.42-3.4 3.84-8.68 1.28-12.56-0.36-0.56-0.8-1.08-1.28-1.58-20.3-20.3-31.48-47.28-31.48-76 0-25.36 8.72-49.36 24.74-68.6l202.76 202.76c-19.24 16.02-43.26 24.74-68.6 24.74z m83.08-38.54l-203.44-203.44 127.7-127.7 203.44 203.44-127.7 127.7z m169.16-139.2l-4.7 4.68a10.74 10.74 0 0 1-7.64 3.16c-2.9 0-5.62-1.12-7.66-3.16L712.77 93.16a10.828 10.828 0 0 1 0-15.3l4.68-4.7a10.754 10.754 0 0 1 7.66-3.16c2.88 0 5.6 1.12 7.64 3.16l218.1 218.1c4.2 4.22 4.2 11.08 0 15.3z" fill="#23130D" p-id="35234"></path><path d="M950.85 306.56l-4.7 4.68a10.74 10.74 0 0 1-7.64 3.16c-2.9 0-5.62-1.12-7.66-3.16L712.77 93.16a10.828 10.828 0 0 1 0-15.3l4.68-4.7a10.754 10.754 0 0 1 7.66-3.16c2.88 0 5.6 1.12 7.64 3.16l218.1 218.1c4.2 4.22 4.2 11.08 0 15.3zM440.61 816.36c-0.06 0.08-0.1 0.18-0.16 0.26-0.38 0.6-0.84 1.16-1.36 1.68l-4.7 4.7a10.754 10.754 0 0 1-7.66 3.16c-2.88 0-5.6-1.12-7.64-3.16l-218.08-218.08a10.76 10.76 0 0 1-2.96-5.52c-0.14-0.7-0.2-1.4-0.2-2.14 0-2.16 0.62-4.22 1.8-5.98 0.4-0.6 0.84-1.14 1.36-1.66l4.7-4.7a10.74 10.74 0 0 1 7.64-3.16c2.9 0 5.6 1.12 7.66 3.18l218.08 218.08c0.16 0.16 0.28 0.36 0.44 0.54 0.32 0.36 0.66 0.74 0.92 1.12 0.1 0.16 0.16 0.34 0.26 0.48 0.28 0.46 0.54 0.94 0.74 1.42 0.02 0.06 0.04 0.1 0.06 0.16 1.2 3.14 0.9 6.7-0.9 9.62z" fill="#636368" p-id="35235"></path><path d="M357.09 789.28l-11.16 11.16-102.72-102.72-0.02-0.02-0.02-0.02-19.6-19.6 11.16-11.16 122.36 122.36z" fill="#E1E1E5" p-id="35236"></path><path d="M305.11 787.9l-25.08 25.08-7.46-7.46-7.86-7.86-8.04-8.06-23.76-23.76-8.04-8.04-7.88-7.88-5.94-5.94 25.06-25.06 5.94 5.94 7.88 7.88 8.04 8.04 23.76 23.76 8.04 8.04 7.88 7.86z" fill="#F9C139" p-id="35237"></path><path d="M578.244 242.324l127.7-127.7 203.438 203.44-127.7 127.7z" fill="#E1E1E5" p-id="35238"></path><path d="M767.21 459.56c-19.24 16.02-43.26 24.74-68.6 24.74-28.72 0-55.7-11.18-76.02-31.48a10.006 10.006 0 0 0-14.14 0l-11.12 11.12c-10.44 0.16-18.52-2.54-24.58-8.24-9.36-8.8-11.74-22.72-12.34-29.38l10.78-10.78c3.42-3.4 3.84-8.68 1.28-12.56-0.36-0.56-0.8-1.08-1.28-1.58-20.3-20.3-31.48-47.28-31.48-76 0-25.36 8.72-49.36 24.74-68.6l202.76 202.76z" fill="#3594BF" p-id="35239"></path><path d="M464.17 933.96c18.06-40.16 42.62-110.38 26.7-169.12l39.48-39.48c0.02 0 0.04-0.02 0.04-0.04l64.42-64.4v-0.02c4.14-4.12 7.88-8.48 11.34-13.02 13.78 64.26 11.88 183.3-141.98 286.08zM376.09 417.86a130.942 130.942 0 0 0-13 11.34l-102.56 102.56c-58.86-15.86-129.78 9.36-170.3 27.82 102.72-153.56 221.64-155.5 285.86-141.72z" fill="#EC7063" p-id="35240"></path><path d="M376.09 417.86a130.942 130.942 0 0 0-13 11.34l-102.56 102.56c-58.86-15.86-129.78 9.36-170.3 27.82 8.74-13.06 17.58-25.02 26.52-35.96 38.2-12.52 84.68-21.22 125.4-10.24l100.3-100.3c12.36 0.88 23.66 2.64 33.64 4.78zM606.086 647.856a130.942 130.942 0 0 1-11.34 13l-102.56 102.56c15.86 58.86-9.36 129.78-27.82 170.3 13.06-8.74 25.02-17.58 35.96-26.52 12.52-38.2 21.22-84.68 10.24-125.4l100.3-100.3c-0.88-12.36-2.64-23.66-4.78-33.64z" fill="#23130D" opacity=".2" p-id="35241"></path><path d="M512.35 715.08l-66.46 66.46-203.42-203.42 28.5-28.5c0.02-0.02 0.02-0.04 0.04-0.04l37.92-37.92c49.58 11.3 94.76 36.28 130.94 72.48 36.2 36.18 61.18 81.36 72.48 130.94z" fill="#3594BF" p-id="35242"></path><path d="M580.67 494.76c-3.54-3.54-3.84-9.06-0.96-12.98-7.96-2.2-14.92-6.06-20.8-11.62-8.36-7.94-13-17.96-15.54-26.78-1.46 1.44-3.26 2.34-5.14 2.7-0.62 0.14-1.26 0.2-1.9 0.2a9.98 9.98 0 0 1-7.08-2.94c-20.3-20.3-47.3-31.48-76-31.48-14.36 0-28.28 2.8-41.16 8.12-12.88 5.34-24.7 13.22-34.86 23.36l-51.86 51.86c48.54 13.28 92.72 38.88 128.64 74.8s61.54 80.1 74.8 128.62l51.86-51.84v-0.02c41.9-41.9 41.9-110.1 0-152z m-57.48 38.6c-17.96 0-32.56-14.6-32.56-32.54 0-17.94 14.6-32.56 32.56-32.56 17.94 0 32.54 14.62 32.54 32.56 0 17.94-14.6 32.54-32.54 32.54z" fill="#E1E1E5" p-id="35243"></path><path d="M523.19 468.26c-17.96 0-32.56 14.62-32.56 32.56 0 17.94 14.6 32.54 32.56 32.54 17.94 0 32.54-14.6 32.54-32.54 0-17.94-14.6-32.56-32.54-32.56z m0 45.1c-6.92 0-12.56-5.62-12.56-12.54a12.58 12.58 0 0 1 12.56-12.56c6.92 0 12.54 5.64 12.54 12.56 0 6.92-5.62 12.54-12.54 12.54z" fill="#23130D" p-id="35244"></path><path d="M535.73 500.82c0 6.92-5.62 12.54-12.54 12.54-6.92 0-12.56-5.62-12.56-12.54a12.58 12.58 0 0 1 12.56-12.56c6.92 0 12.54 5.64 12.54 12.56z" fill="#3594BF" p-id="35245"></path><path d="M218.536 805.246a10 10 0 0 0-14.14 0.238L137.32 874.848a10 10 0 1 0 14.378 13.902l67.076-69.364a10 10 0 0 0-0.238-14.14zM257.48 849.884a10 10 0 0 0-14.142 0l-43.33 43.33a9.996 9.996 0 0 0 7.072 17.07c2.56 0 5.118-0.976 7.072-2.93l43.33-43.33a9.998 9.998 0 0 0-0.002-14.14zM330.166 846.402l-67.432 67.432a9.996 9.996 0 0 0 7.072 17.07c2.56 0 5.118-0.976 7.072-2.93l67.432-67.432a10 10 0 0 0-14.144-14.14zM177.61 679.702a10 10 0 0 0-14.142 0l-67.432 67.434a9.996 9.996 0 0 0 7.072 17.07c2.56 0 5.118-0.976 7.072-2.93l67.432-67.434a9.998 9.998 0 0 0-0.002-14.14zM174.124 766.528a10.002 10.002 0 0 0-14.142 0.002L116.66 809.86a10 10 0 1 0 14.142 14.14l43.322-43.33a10 10 0 0 0 0-14.142zM69.514 773.656l-16.574 16.574a9.996 9.996 0 0 0 7.072 17.07c2.56 0 5.118-0.976 7.072-2.93l16.574-16.574a10 10 0 0 0-14.144-14.14zM236.216 940.354l-16.576 16.574a10 10 0 0 0 7.072 17.072 9.968 9.968 0 0 0 7.07-2.928l16.576-16.574a10 10 0 1 0-14.142-14.144z" fill="#F9C139" p-id="35246"></path><path d="M211.044 743.976l25.06-25.06 5.94 5.94-25.06 25.06zM224.862 757.796l25.06-25.06 8.04 8.04-25.06 25.06zM240.762 773.696l25.06-25.06 8.04 8.04-25.06 25.06zM289.77 772.58l-25.06 25.08-8.04-8.06 25.06-25.06zM272.564 805.518l25.08-25.08 7.46 7.46-25.08 25.08z" fill="#FFFFFF" opacity=".4" p-id="35247"></path></svg>