<?xml version="1.0" standalone="no"?><!DOCTYPE svg PUBLIC "-//W3C//DTD SVG 1.1//EN" "http://www.w3.org/Graphics/SVG/1.1/DTD/svg11.dtd"><svg t="1625811500829" class="icon" viewBox="0 0 1024 1024" version="1.1" xmlns="http://www.w3.org/2000/svg" p-id="32129" xmlns:xlink="http://www.w3.org/1999/xlink" width="200" height="200"><defs><style type="text/css"></style></defs><path d="M366.36 763.08h324.88c0.22 0 0.42-0.04 0.64-0.06 0.44-0.02 0.86-0.04 1.28-0.12 0.3-0.06 0.58-0.18 0.86-0.26 0.34-0.1 0.68-0.16 1-0.3 0.34-0.14 0.64-0.32 0.94-0.5 0.26-0.14 0.54-0.26 0.8-0.42 0.54-0.36 1.06-0.78 1.54-1.26l205.12-205.12c0.48-0.48 0.9-1 1.26-1.54 0.2-0.3 0.32-0.6 0.48-0.9 0.16-0.28 0.32-0.54 0.44-0.84 0.16-0.38 0.26-0.78 0.36-1.2 0.06-0.22 0.16-0.42 0.2-0.66 0.12-0.62 0.18-1.24 0.18-1.86 0-0.02 0.02-0.04 0.02-0.08v-175.46c0-49.7-37.88-90.7-86.28-95.68v-49.68c0-5.54-4.46-10-10-10h-58.16V63.22c0-5.54-4.46-10-10-10H421.76c-5.54 0-10 4.46-10 10v82.36h-60.84c-5.52 0-10 4.48-10 10v120.76c-30.42 0.42-57.46 15.04-74.8 37.54V168.96c0-40.94-33.3-74.24-74.24-74.24S117.64 128.02 117.64 168.96c0 5.52 4.48 10 10 10s10-4.48 10-10c0-29.9 24.34-54.24 54.24-54.24s54.24 24.34 54.24 54.24v497.94c0 44.14 29.9 81.42 70.5 92.68-20.6 15.3-33.98 39.8-33.98 67.38 0 18.72 6.24 36.74 17.64 51.4-2.42 7.06-3.74 14.6-3.74 22.48 0 38.56 31.38 69.94 69.96 69.94 35.18 0 64.36-26.1 69.24-59.94h331.44c4.86 33.84 34.04 59.94 69.22 59.94 38.58 0 69.96-31.38 69.96-69.94 0-38.58-31.38-69.96-69.96-69.96-35.18 0-64.36 26.1-69.22 59.96H435.74c-4.88-33.86-34.06-59.96-69.24-59.96-22.64 0-42.78 10.8-55.58 27.52a63.744 63.744 0 0 1-8.28-31.44c0-35.16 28.56-63.78 63.72-63.88z m470.04 87.8c27.54 0 49.96 22.4 49.96 49.96 0 27.54-22.42 49.94-49.96 49.94s-49.96-22.4-49.96-49.94c0-27.56 22.42-49.96 49.96-49.96z m-469.9 0c27.52 0 49.92 22.38 49.96 49.9v0.12c-0.04 27.52-22.44 49.88-49.96 49.88-27.54 0-49.96-22.4-49.96-49.94 0-27.56 22.42-49.96 49.96-49.96z m433.58-613.74v39.16h-138.74v-39.16h138.74zM431.76 73.22h300.16v143.92h-80.58c-5.52 0-10 4.46-10 10v49.16h-55.1V155.58c0-5.52-4.48-10-10-10h-144.48V73.22z m-70.84 92.36h205.32v110.72H360.92V165.58z m-94.8 501.32V372.52v-0.1c0.04-41.98 34.2-76.12 76.18-76.12h8.54c0.04 0 0.06 0.02 0.08 0.02 0.04 0 0.06-0.02 0.1-0.02h225.12c0.04 0 0.06 0.02 0.1 0.02 0.02 0 0.04-0.02 0.08-0.02h74.94c0.04 0 0.06 0.02 0.08 0.02 0.04 0 0.06-0.02 0.1-0.02H810c0.04 0 0.06 0.02 0.08 0.02 0.04 0 0.06-0.02 0.1-0.02 42 0 76.18 34.18 76.18 76.2v171.32l-99.66 99.68-99.6 99.58H342.3c-42 0-76.18-34.16-76.18-76.18z" fill="#23130D" p-id="32130"></path><path d="M836.4 850.88c-27.54 0-49.96 22.4-49.96 49.96 0 27.54 22.42 49.94 49.96 49.94s49.96-22.4 49.96-49.94c0-27.56-22.42-49.96-49.96-49.96z m0 86.26c-20.02 0-36.3-16.28-36.3-36.3s16.28-36.32 36.3-36.32 36.3 16.3 36.3 36.32-16.28 36.3-36.3 36.3zM366.5 850.88c-27.54 0-49.96 22.4-49.96 49.96 0 27.54 22.42 49.94 49.96 49.94 27.52 0 49.92-22.36 49.96-49.88v-0.12c-0.04-27.52-22.44-49.9-49.96-49.9z m0 86.26c-20.02 0-36.3-16.28-36.3-36.3s16.28-36.32 36.3-36.32 36.3 16.3 36.3 36.32-16.28 36.3-36.3 36.3z" fill="#E1E1E5" p-id="32131"></path><path d="M731.92 73.22v143.92h-80.58c-5.52 0-10 4.46-10 10v49.16h-55.1V155.58c0-5.52-4.48-10-10-10h-144.48V73.22h300.16z" fill="#F9C139" p-id="32132"></path><path d="M661.34 237.14h138.74v39.16h-138.74z" fill="#E1E1E5" p-id="32133"></path><path d="M360.92 165.58h205.32v110.72H360.92z" fill="#EC7063" p-id="32134"></path><path d="M723.92 81.22v127.92h-72.58c-9.926 0-18 8.074-18 18v41.16h-39.1V155.58c0-9.926-8.074-18-18-18h-136.48V81.22h284.16m8-8H431.76v72.36h144.48c5.52 0 10 4.48 10 10v120.72h55.1v-49.16c0-5.54 4.48-10 10-10h80.58V73.22z" opacity=".2" p-id="32135"></path><path d="M792.08 245.14v23.16h-122.74v-23.16h122.74m8-8h-138.74v39.16h138.74v-39.16zM558.24 173.58v94.72h-189.32V173.58h189.32m8-8H360.92v110.72h205.32V165.58z" opacity=".2" p-id="32136"></path><path d="M810.18 296.3c-0.04 0-0.06 0.02-0.1 0.02-0.02 0-0.04-0.02-0.08-0.02h-158.56c-0.04 0-0.06 0.02-0.1 0.02-0.02 0-0.04-0.02-0.08-0.02h-74.94c-0.04 0-0.06 0.02-0.08 0.02-0.04 0-0.06-0.02-0.1-0.02H351.02c-0.04 0-0.06 0.02-0.1 0.02-0.02 0-0.04-0.02-0.08-0.02h-8.54c-41.98 0-76.14 34.14-76.18 76.12v294.48c0 42.02 34.18 76.18 76.18 76.18h344.8l99.6-99.58 99.66-99.68v-171.32c0-42.02-34.18-76.2-76.18-76.2zM360.92 711.76c0 5.52-4.48 10-10 10s-10-4.48-10-10V327.62c0-5.52 4.48-10 10-10s10 4.48 10 10v384.14z m75.12 0c0 5.52-4.48 10-10 10-5.54 0-10-4.48-10-10V327.62c0-5.52 4.46-10 10-10 5.52 0 10 4.48 10 10v384.14z m75.1 0c0 5.52-4.48 10-10 10s-10-4.48-10-10V327.62c0-5.52 4.48-10 10-10s10 4.48 10 10v384.14z m75.1 0c0 5.52-4.48 10-10 10s-10-4.48-10-10V327.62c0-5.52 4.48-10 10-10s10 4.48 10 10v384.14z m75.1 0c0 5.52-4.48 10-10 10s-10-4.48-10-10V327.62c0-5.52 4.48-10 10-10s10 4.48 10 10v384.14z m75.1-72.64c0 5.52-4.46 10-10 10-5.52 0-10-4.48-10-10V327.62c0-5.52 4.48-10 10-10 5.54 0 10 4.48 10 10v311.5z m77.58-67.72c0 5.54-4.48 10-10 10s-10-4.46-10-10V327.62c0-5.52 4.48-10 10-10s10 4.48 10 10V571.4z" fill="#3594BF" p-id="32137"></path><path d="M848.82 306.84a75.714 75.714 0 0 1 10.54 38.66v171.32l-45.34 45.34v9.24c0 5.54-4.48 10-10 10a9.86 9.86 0 0 1-6.66-2.56l-37.66 37.66-23.3 23.3a9.932 9.932 0 0 1-9.28 9.28l-66.54 66.52a10.004 10.004 0 1 1-18.26 0.48h-57.06a10.004 10.004 0 0 1-18.04 0h-57.06a10.004 10.004 0 0 1-18.04 0h-57.06a10.004 10.004 0 0 1-18.04 0h-57.08a10.004 10.004 0 0 1-18.04 0H315.3c-14.1 0-27.32-3.86-38.66-10.56 13.28 22.46 37.74 37.56 65.66 37.56h344.8l99.6-99.58 99.66-99.68v-171.32c0-27.92-15.08-52.38-37.54-65.66z" fill="#23130D" opacity=".2" p-id="32138"></path><path d="M836.4 864.52c-20.02 0-36.3 16.3-36.3 36.32s16.28 36.3 36.3 36.3 36.3-16.28 36.3-36.3-16.28-36.32-36.3-36.32z m0 52.62c-8.98 0-16.3-7.32-16.3-16.3 0-9 7.32-16.32 16.3-16.32 9 0 16.3 7.32 16.3 16.32 0 8.98-7.3 16.3-16.3 16.3zM366.5 864.52c-20.02 0-36.3 16.3-36.3 36.32s16.28 36.3 36.3 36.3 36.3-16.28 36.3-36.3-16.28-36.32-36.3-36.32z m0 52.62c-8.98 0-16.3-7.32-16.3-16.3 0-9 7.32-16.32 16.3-16.32 9 0 16.3 7.32 16.3 16.32 0 8.98-7.3 16.3-16.3 16.3zM736.44 327.62v311.5c0 5.52-4.46 10-10 10-5.52 0-10-4.48-10-10V327.62c0-5.52 4.48-10 10-10 5.54 0 10 4.48 10 10zM814.02 327.62V571.4c0 5.54-4.48 10-10 10s-10-4.46-10-10V327.62c0-5.52 4.48-10 10-10s10 4.48 10 10zM661.34 327.62v384.14c0 5.52-4.48 10-10 10s-10-4.48-10-10V327.62c0-5.52 4.48-10 10-10s10 4.48 10 10zM586.24 327.62v384.14c0 5.52-4.48 10-10 10s-10-4.48-10-10V327.62c0-5.52 4.48-10 10-10s10 4.48 10 10zM511.14 327.62v384.14c0 5.52-4.48 10-10 10s-10-4.48-10-10V327.62c0-5.52 4.48-10 10-10s10 4.48 10 10zM436.04 327.62v384.14c0 5.52-4.48 10-10 10-5.54 0-10-4.48-10-10V327.62c0-5.52 4.46-10 10-10 5.52 0 10 4.48 10 10zM360.92 327.62v384.14c0 5.52-4.48 10-10 10s-10-4.48-10-10V327.62c0-5.52 4.48-10 10-10s10 4.48 10 10z" fill="#23130D" p-id="32139"></path></svg>