<?xml version="1.0" standalone="no"?><!DOCTYPE svg PUBLIC "-//W3C//DTD SVG 1.1//EN" "http://www.w3.org/Graphics/SVG/1.1/DTD/svg11.dtd"><svg t="1625812041114" class="icon" viewBox="0 0 1024 1024" version="1.1" xmlns="http://www.w3.org/2000/svg" p-id="49967" xmlns:xlink="http://www.w3.org/1999/xlink" width="200" height="200"><defs><style type="text/css"></style></defs><path d="M926.98 63H97.02c-5.52 0-10 4.48-10 10V868c0 5.52 4.48 10 10 10h79.56v73c0 5.52 4.46 10 10 10h137.58c5.54 0 10-4.48 10-10V878h355.66v73c0 5.52 4.48 10 10 10h137.6c5.52 0 10-4.48 10-10V878h79.56c5.52 0 10-4.48 10-10V73c0-5.52-4.48-10-10-10z m-612.82 878H196.58V878h117.58v63z m513.26 0h-117.6V878h117.6v63z m89.56-83H107.02V83h809.96V858z" fill="#23130D" p-id="49968"></path><path d="M709.82 878h117.6v63h-117.6zM196.58 878h117.58v63H196.58z" fill="#636368" p-id="49969"></path><path d="M196.58 878h117.58v26.5H196.58zM709.83 878h117.58v26.5h-117.58z" opacity=".2" p-id="49970"></path><path d="M107.02 83V858h809.96V83H107.02z m740.4 261.98c0 16.94-11.5 31.22-27.08 35.54v182.38c15.58 4.32 27.08 18.6 27.08 35.54v67.3c0 16.94-11.5 31.22-27.08 35.54v67.56c0 5.52-4.48 10-10 10H213.66c-5.52 0-10-4.48-10-10V172.16c0-5.52 4.48-10 10-10h596.68c5.52 0 10 4.48 10 10v69.98c15.58 4.32 27.08 18.6 27.08 35.54v67.3z" fill="#E1E1E5" p-id="49971"></path><path d="M847.42 344.98v-67.3c0-16.94-11.5-31.22-27.08-35.54V172.16c0-5.52-4.48-10-10-10H213.66c-5.52 0-10 4.48-10 10v596.68c0 5.52 4.48 10 10 10h596.68c5.52 0 10-4.48 10-10v-67.56c15.58-4.32 27.08-18.6 27.08-35.54v-67.3c0-16.94-11.5-31.22-27.08-35.54v-182.38c15.58-4.32 27.08-18.6 27.08-35.54z m-47.08 413.86H223.66V182.16h576.68v59.98c-15.6 4.3-27.1 18.58-27.1 35.54v67.3c0 16.94 11.5 31.22 27.1 35.54v182.38c-15.6 4.32-27.1 18.6-27.1 35.54v67.3c0 16.96 11.5 31.24 27.1 35.56v57.54z m27.08-160.4v67.3c0 9.32-7.58 16.92-16.92 16.92h-0.34c-9.32 0-16.92-7.6-16.92-16.92v-67.3c0-9.32 7.6-16.92 16.92-16.92h0.16s0 0.02 0.02 0.02c0 0 0-0.02 0.02-0.02h0.14c9.34 0 16.92 7.6 16.92 16.92z m-16.92-236.54h-0.34c-9.32 0-16.92-7.6-16.92-16.92v-67.3c0-9.32 7.6-16.92 16.92-16.92h0.34c9.34 0 16.92 7.6 16.92 16.92v67.3c0 9.32-7.58 16.92-16.92 16.92z" fill="#23130D" p-id="49972"></path><path d="M827.42 277.68v67.3c0 9.32-7.58 16.92-16.92 16.92h-0.34c-9.32 0-16.92-7.6-16.92-16.92v-67.3c0-9.32 7.6-16.92 16.92-16.92h0.34c9.34 0 16.92 7.6 16.92 16.92z" fill="#E1E1E5" p-id="49973"></path><path d="M818.88 359.66a16.764 16.764 0 0 1-8.38 2.24h-0.34c-9.32 0-16.92-7.6-16.92-16.92v-67.3c0-9.32 7.6-16.92 16.92-16.92h0.34c3.04 0 5.92 0.82 8.38 2.24-5.1 2.92-8.54 8.4-8.54 14.68v67.3c0 6.28 3.44 11.76 8.54 14.68z" opacity=".2" p-id="49974"></path><path d="M827.42 598.44v67.3c0 9.32-7.58 16.92-16.92 16.92h-0.34c-9.32 0-16.92-7.6-16.92-16.92v-67.3c0-9.32 7.6-16.92 16.92-16.92h0.16s0 0.02 0.02 0.02c0 0 0-0.02 0.02-0.02h0.14c9.34 0 16.92 7.6 16.92 16.92z" fill="#E1E1E5" p-id="49975"></path><path d="M522 614.84v31.74c0 3.08-1.4 5.84-3.6 7.66-1.74 1.46-3.96 2.34-6.4 2.34-5.52 0-10-4.48-10-10v-8.76l-47.72-47.7c-0.2 0.58-0.46 1.16-0.78 1.72L432.62 628c-1.84 3.2-5.2 5-8.66 5a10.004 10.004 0 0 1-8.66-15l20.88-36.16a9.978 9.978 0 0 1 5.38-4.44l-36.46-36.46a9.932 9.932 0 0 1-4.44 5.4l-36.14 20.86c-1.58 0.92-3.3 1.34-5 1.34-3.46 0-6.82-1.78-8.66-5a9.986 9.986 0 0 1 3.66-13.66l36.14-20.86c0.56-0.32 1.14-0.6 1.72-0.8l-47.72-47.72h-8.74c-5.52 0-10-4.48-10-10 0-2.44 0.88-4.68 2.34-6.42a10 10 0 0 1 7.66-3.58h31.74l-88.84-88.84v339.6h339.6L522 614.84z m0 0v31.74c0 3.08-1.4 5.84-3.6 7.66-1.74 1.46-3.96 2.34-6.4 2.34-5.52 0-10-4.48-10-10v-8.76l-47.72-47.7c-0.2 0.58-0.46 1.16-0.78 1.72L432.62 628c-1.84 3.2-5.2 5-8.66 5a10.004 10.004 0 0 1-8.66-15l20.88-36.16a9.978 9.978 0 0 1 5.38-4.44l-36.46-36.46a9.932 9.932 0 0 1-4.44 5.4l-36.14 20.86c-1.58 0.92-3.3 1.34-5 1.34-3.46 0-6.82-1.78-8.66-5a9.986 9.986 0 0 1 3.66-13.66l36.14-20.86c0.56-0.32 1.14-0.6 1.72-0.8l-47.72-47.72h-8.74c-5.52 0-10-4.48-10-10 0-2.44 0.88-4.68 2.34-6.42a10 10 0 0 1 7.66-3.58h31.74l-88.84-88.84v339.6h339.6L522 614.84z m0 0v31.74c0 3.08-1.4 5.84-3.6 7.66-1.74 1.46-3.96 2.34-6.4 2.34-5.52 0-10-4.48-10-10v-8.76l-47.72-47.7c-0.2 0.58-0.46 1.16-0.78 1.72L432.62 628c-1.84 3.2-5.2 5-8.66 5a10.004 10.004 0 0 1-8.66-15l20.88-36.16a9.978 9.978 0 0 1 5.38-4.44l-36.46-36.46a9.932 9.932 0 0 1-4.44 5.4l-36.14 20.86c-1.58 0.92-3.3 1.34-5 1.34-3.46 0-6.82-1.78-8.66-5a9.986 9.986 0 0 1 3.66-13.66l36.14-20.86c0.56-0.32 1.14-0.6 1.72-0.8l-47.72-47.72h-8.74c-5.52 0-10-4.48-10-10 0-2.44 0.88-4.68 2.34-6.42a10 10 0 0 1 7.66-3.58h31.74l-88.84-88.84v339.6h339.6L522 614.84z m0 0v31.74c0 3.08-1.4 5.84-3.6 7.66-1.74 1.46-3.96 2.34-6.4 2.34-5.52 0-10-4.48-10-10v-8.76l-47.72-47.7c-0.2 0.58-0.46 1.16-0.78 1.72L432.62 628c-1.84 3.2-5.2 5-8.66 5a10.004 10.004 0 0 1-8.66-15l20.88-36.16a9.978 9.978 0 0 1 5.38-4.44l-36.46-36.46a9.932 9.932 0 0 1-4.44 5.4l-36.14 20.86c-1.58 0.92-3.3 1.34-5 1.34-3.46 0-6.82-1.78-8.66-5a9.986 9.986 0 0 1 3.66-13.66l36.14-20.86c0.56-0.32 1.14-0.6 1.72-0.8l-47.72-47.72h-8.74c-5.52 0-10-4.48-10-10 0-2.44 0.88-4.68 2.34-6.42a10 10 0 0 1 7.66-3.58h31.74l-88.84-88.84v339.6h339.6L522 614.84z m0 0v31.74c0 3.08-1.4 5.84-3.6 7.66-1.74 1.46-3.96 2.34-6.4 2.34-5.52 0-10-4.48-10-10v-8.76l-47.72-47.7c-0.2 0.58-0.46 1.16-0.78 1.72L432.62 628c-1.84 3.2-5.2 5-8.66 5a10.004 10.004 0 0 1-8.66-15l20.88-36.16a9.978 9.978 0 0 1 5.38-4.44l-36.46-36.46a9.932 9.932 0 0 1-4.44 5.4l-36.14 20.86c-1.58 0.92-3.3 1.34-5 1.34-3.46 0-6.82-1.78-8.66-5a9.986 9.986 0 0 1 3.66-13.66l36.14-20.86c0.56-0.32 1.14-0.6 1.72-0.8l-47.72-47.72h-8.74c-5.52 0-10-4.48-10-10 0-2.44 0.88-4.68 2.34-6.42a10 10 0 0 1 7.66-3.58h31.74l-88.84-88.84v339.6h339.6L522 614.84z m0 0v31.74c0 3.08-1.4 5.84-3.6 7.66-1.74 1.46-3.96 2.34-6.4 2.34-5.52 0-10-4.48-10-10v-8.76l-47.72-47.7c-0.2 0.58-0.46 1.16-0.78 1.72L432.62 628c-1.84 3.2-5.2 5-8.66 5a10.004 10.004 0 0 1-8.66-15l20.88-36.16a9.978 9.978 0 0 1 5.38-4.44l-36.46-36.46a9.932 9.932 0 0 1-4.44 5.4l-36.14 20.86c-1.58 0.92-3.3 1.34-5 1.34-3.46 0-6.82-1.78-8.66-5a9.986 9.986 0 0 1 3.66-13.66l36.14-20.86c0.56-0.32 1.14-0.6 1.72-0.8l-47.72-47.72h-8.74c-5.52 0-10-4.48-10-10 0-2.44 0.88-4.68 2.34-6.42a10 10 0 0 1 7.66-3.58h31.74l-88.84-88.84v339.6h339.6L522 614.84z m0 0v31.74c0 3.08-1.4 5.84-3.6 7.66-1.74 1.46-3.96 2.34-6.4 2.34-5.52 0-10-4.48-10-10v-8.76l-47.72-47.7c-0.2 0.58-0.46 1.16-0.78 1.72L432.62 628c-1.84 3.2-5.2 5-8.66 5a10.004 10.004 0 0 1-8.66-15l20.88-36.16a9.978 9.978 0 0 1 5.38-4.44l-36.46-36.46a9.932 9.932 0 0 1-4.44 5.4l-36.14 20.86c-1.58 0.92-3.3 1.34-5 1.34-3.46 0-6.82-1.78-8.66-5a9.986 9.986 0 0 1 3.66-13.66l36.14-20.86c0.56-0.32 1.14-0.6 1.72-0.8l-47.72-47.72h-8.74c-5.52 0-10-4.48-10-10 0-2.44 0.88-4.68 2.34-6.42a10 10 0 0 1 7.66-3.58h31.74l-88.84-88.84v339.6h339.6L522 614.84z m0 0v31.74c0 3.08-1.4 5.84-3.6 7.66-1.74 1.46-3.96 2.34-6.4 2.34-5.52 0-10-4.48-10-10v-8.76l-47.72-47.7c-0.2 0.58-0.46 1.16-0.78 1.72L432.62 628c-1.84 3.2-5.2 5-8.66 5a10.004 10.004 0 0 1-8.66-15l20.88-36.16a9.978 9.978 0 0 1 5.38-4.44l-36.46-36.46a9.932 9.932 0 0 1-4.44 5.4l-36.14 20.86c-1.58 0.92-3.3 1.34-5 1.34-3.46 0-6.82-1.78-8.66-5a9.986 9.986 0 0 1 3.66-13.66l36.14-20.86c0.56-0.32 1.14-0.6 1.72-0.8l-47.72-47.72h-8.74c-5.52 0-10-4.48-10-10 0-2.44 0.88-4.68 2.34-6.42a10 10 0 0 1 7.66-3.58h31.74l-88.84-88.84v339.6h339.6L522 614.84z m0 0v31.74c0 3.08-1.4 5.84-3.6 7.66-1.74 1.46-3.96 2.34-6.4 2.34-5.52 0-10-4.48-10-10v-8.76l-47.72-47.7c-0.2 0.58-0.46 1.16-0.78 1.72L432.62 628c-1.84 3.2-5.2 5-8.66 5a10.004 10.004 0 0 1-8.66-15l20.88-36.16a9.978 9.978 0 0 1 5.38-4.44l-36.46-36.46a9.932 9.932 0 0 1-4.44 5.4l-36.14 20.86c-1.58 0.92-3.3 1.34-5 1.34-3.46 0-6.82-1.78-8.66-5a9.986 9.986 0 0 1 3.66-13.66l36.14-20.86c0.56-0.32 1.14-0.6 1.72-0.8l-47.72-47.72h-8.74c-5.52 0-10-4.48-10-10 0-2.44 0.88-4.68 2.34-6.42a10 10 0 0 1 7.66-3.58h31.74l-88.84-88.84v339.6h339.6L522 614.84z m0 0v31.74c0 3.08-1.4 5.84-3.6 7.66-1.74 1.46-3.96 2.34-6.4 2.34-5.52 0-10-4.48-10-10v-8.76l-47.72-47.7c-0.2 0.58-0.46 1.16-0.78 1.72L432.62 628c-1.84 3.2-5.2 5-8.66 5a10.004 10.004 0 0 1-8.66-15l20.88-36.16a9.978 9.978 0 0 1 5.38-4.44l-36.46-36.46a9.932 9.932 0 0 1-4.44 5.4l-36.14 20.86c-1.58 0.92-3.3 1.34-5 1.34-3.46 0-6.82-1.78-8.66-5a9.986 9.986 0 0 1 3.66-13.66l36.14-20.86c0.56-0.32 1.14-0.6 1.72-0.8l-47.72-47.72h-8.74c-5.52 0-10-4.48-10-10 0-2.44 0.88-4.68 2.34-6.42a10 10 0 0 1 7.66-3.58h31.74l-88.84-88.84v339.6h339.6L522 614.84z m278.34-372.7V182.16H223.66v576.68h576.68v-57.54c-15.6-4.32-27.1-18.6-27.1-35.56v-67.3c0-12.82 6.58-24.1 16.54-30.7 3.2-2.14 6.76-3.78 10.56-4.84v-182.38c-15.6-4.32-27.1-18.6-27.1-35.54v-67.3c0-16.96 11.5-31.24 27.1-35.54z m-104.4 489.12H268.82c-5.52 0-10-4.48-10-10V222.16c0-2.76 1.12-5.26 2.94-7.08 1.8-1.8 4.3-2.92 7.06-2.92h427.12c5.52 0 10 4.48 10 10s-4.48 10-10 10H278.82v479.1h417.12c5.52 0 10 4.48 10 10s-4.48 10-10 10z m-26.44-340.14l-35.72 20.62-0.44 0.24c-1.58 0.92-3.3 1.34-5 1.34a10 10 0 0 1-5-18.66l36.16-20.86a9.968 9.968 0 0 1 13.66 3.66c2.76 4.78 1.12 10.9-3.66 13.66z m-74.76 122.86c-10 18.94-26.3 34.04-46.1 42.5a92.524 92.524 0 0 1-36.64 7.5c-51.54 0-93.48-41.94-93.48-93.48 0-13 2.66-25.4 7.48-36.66a94.2 94.2 0 0 1 42.52-46.08c13-6.86 27.8-10.74 43.48-10.74 51.54 0 93.48 41.94 93.48 93.48 0 15.7-3.88 30.5-10.74 43.48zM522 646.58c0 3.08-1.4 5.84-3.6 7.66-1.74 1.46-3.96 2.34-6.4 2.34-5.52 0-10-4.48-10-10v-41.74c0-2.76 1.12-5.26 2.92-7.08 1.82-1.8 4.32-2.92 7.08-2.92 5.52 0 10 4.48 10 10v41.74z m-193.74-182.5a10 10 0 0 1 7.66-3.58h41.74c5.52 0 10 4.48 10 10 0 2.76-1.12 5.26-2.94 7.06-1.8 1.82-4.3 2.94-7.06 2.94h-41.74c-5.52 0-10-4.48-10-10 0-2.44 0.88-4.68 2.34-6.42z m22.58-86.62a10.004 10.004 0 0 1 13.66-3.66l3.46 2 32.7 18.86a10.008 10.008 0 0 1 3.66 13.66c-0.46 0.8-1.04 1.52-1.68 2.16-1.88 1.86-4.42 2.86-7 2.86-1.7 0-3.42-0.44-4.98-1.36l-36.16-20.86a10.004 10.004 0 0 1-3.66-13.66z m64.46-54.46a10.004 10.004 0 0 1 3.66-13.66 10.004 10.004 0 0 1 13.66 3.66l20.86 36.16c2.76 4.78 1.14 10.9-3.66 13.66-1.54 0.88-3.22 1.32-4.9 1.34h-0.08c-3.46 0-6.82-1.8-8.68-5l-5.12-8.88-15.74-27.28z m106.7 13.16c0 5.52-4.48 10-10 10s-10-4.48-10-10v-41.74c0-3.9 2.24-7.3 5.52-8.94a10.004 10.004 0 0 1 14.48 8.94v41.74z m-116.9 204.78a9.932 9.932 0 0 1-4.44 5.4l-36.14 20.86c-1.58 0.92-3.3 1.34-5 1.34-3.46 0-6.82-1.78-8.66-5a9.986 9.986 0 0 1 3.66-13.66l36.14-20.86c0.56-0.32 1.14-0.6 1.72-0.8a9.98 9.98 0 0 1 11.94 4.46c1.5 2.6 1.7 5.62 0.78 8.26z m48.4 50.9L432.62 628c-1.84 3.2-5.2 5-8.66 5a10.004 10.004 0 0 1-8.66-15l20.88-36.16a10.01 10.01 0 0 1 13.66-3.66c4.22 2.44 6 7.5 4.44 11.94-0.2 0.58-0.46 1.16-0.78 1.72z m125.66-227.68c-1.7 0-3.42-0.44-5-1.36a10 10 0 0 1-3.66-13.66l0.24-0.44 20.64-35.7a10.004 10.004 0 0 1 13.66-3.66 10.004 10.004 0 0 1 3.66 13.66l-20.86 36.14a9.68 9.68 0 0 1-3.26 3.4c-1.62 1.06-3.5 1.62-5.42 1.62zM608.7 618c2.76 4.78 1.14 10.88-3.66 13.66-1.56 0.9-3.28 1.34-4.98 1.34-3.46 0-6.82-1.8-8.68-5l-20.86-36.16c-2.3-3.96-1.54-8.86 1.5-11.98 0.64-0.64 1.36-1.22 2.16-1.68a10.004 10.004 0 0 1 13.66 3.66l18.86 32.7 2 3.46z m14.64-71.68a9.98 9.98 0 0 1-5-8.74c0.02-1.68 0.46-3.36 1.34-4.92a10.004 10.004 0 0 1 13.66-3.66l36.16 20.88a10.004 10.004 0 0 1 3.66 13.66c-1.86 3.2-5.22 5-8.68 5-1.68 0-3.4-0.44-4.98-1.34l-27.3-15.76-8.86-5.12z m64.74-65.82h-41.74c-5.52 0-10-4.48-10-10s4.48-10 10-10h41.74a10.004 10.004 0 0 1 8.94 14.48 9.994 9.994 0 0 1-8.94 5.52zM522 614.84v31.74c0 3.08-1.4 5.84-3.6 7.66-1.74 1.46-3.96 2.34-6.4 2.34-5.52 0-10-4.48-10-10v-8.76l-47.72-47.7c-0.2 0.58-0.46 1.16-0.78 1.72L432.62 628c-1.84 3.2-5.2 5-8.66 5a10.004 10.004 0 0 1-8.66-15l20.88-36.16a9.978 9.978 0 0 1 5.38-4.44l-36.46-36.46a9.932 9.932 0 0 1-4.44 5.4l-36.14 20.86c-1.58 0.92-3.3 1.34-5 1.34-3.46 0-6.82-1.78-8.66-5a9.986 9.986 0 0 1 3.66-13.66l36.14-20.86c0.56-0.32 1.14-0.6 1.72-0.8l-47.72-47.72h-8.74c-5.52 0-10-4.48-10-10 0-2.44 0.88-4.68 2.34-6.42a10 10 0 0 1 7.66-3.58h31.74l-88.84-88.84v339.6h339.6L522 614.84z m0 0v31.74c0 3.08-1.4 5.84-3.6 7.66-1.74 1.46-3.96 2.34-6.4 2.34-5.52 0-10-4.48-10-10v-8.76l-47.72-47.7c-0.2 0.58-0.46 1.16-0.78 1.72L432.62 628c-1.84 3.2-5.2 5-8.66 5a10.004 10.004 0 0 1-8.66-15l20.88-36.16a9.978 9.978 0 0 1 5.38-4.44l-36.46-36.46a9.932 9.932 0 0 1-4.44 5.4l-36.14 20.86c-1.58 0.92-3.3 1.34-5 1.34-3.46 0-6.82-1.78-8.66-5a9.986 9.986 0 0 1 3.66-13.66l36.14-20.86c0.56-0.32 1.14-0.6 1.72-0.8l-47.72-47.72h-8.74c-5.52 0-10-4.48-10-10 0-2.44 0.88-4.68 2.34-6.42a10 10 0 0 1 7.66-3.58h31.74l-88.84-88.84v339.6h339.6L522 614.84z m0 0v31.74c0 3.08-1.4 5.84-3.6 7.66-1.74 1.46-3.96 2.34-6.4 2.34-5.52 0-10-4.48-10-10v-8.76l-47.72-47.7c-0.2 0.58-0.46 1.16-0.78 1.72L432.62 628c-1.84 3.2-5.2 5-8.66 5a10.004 10.004 0 0 1-8.66-15l20.88-36.16a9.978 9.978 0 0 1 5.38-4.44l-36.46-36.46a9.932 9.932 0 0 1-4.44 5.4l-36.14 20.86c-1.58 0.92-3.3 1.34-5 1.34-3.46 0-6.82-1.78-8.66-5a9.986 9.986 0 0 1 3.66-13.66l36.14-20.86c0.56-0.32 1.14-0.6 1.72-0.8l-47.72-47.72h-8.74c-5.52 0-10-4.48-10-10 0-2.44 0.88-4.68 2.34-6.42a10 10 0 0 1 7.66-3.58h31.74l-88.84-88.84v339.6h339.6L522 614.84z m0 0v31.74c0 3.08-1.4 5.84-3.6 7.66-1.74 1.46-3.96 2.34-6.4 2.34-5.52 0-10-4.48-10-10v-8.76l-47.72-47.7c-0.2 0.58-0.46 1.16-0.78 1.72L432.62 628c-1.84 3.2-5.2 5-8.66 5a10.004 10.004 0 0 1-8.66-15l20.88-36.16a9.978 9.978 0 0 1 5.38-4.44l-36.46-36.46a9.932 9.932 0 0 1-4.44 5.4l-36.14 20.86c-1.58 0.92-3.3 1.34-5 1.34-3.46 0-6.82-1.78-8.66-5a9.986 9.986 0 0 1 3.66-13.66l36.14-20.86c0.56-0.32 1.14-0.6 1.72-0.8l-47.72-47.72h-8.74c-5.52 0-10-4.48-10-10 0-2.44 0.88-4.68 2.34-6.42a10 10 0 0 1 7.66-3.58h31.74l-88.84-88.84v339.6h339.6L522 614.84z m0 0v31.74c0 3.08-1.4 5.84-3.6 7.66-1.74 1.46-3.96 2.34-6.4 2.34-5.52 0-10-4.48-10-10v-8.76l-47.72-47.7c-0.2 0.58-0.46 1.16-0.78 1.72L432.62 628c-1.84 3.2-5.2 5-8.66 5a10.004 10.004 0 0 1-8.66-15l20.88-36.16a9.978 9.978 0 0 1 5.38-4.44l-36.46-36.46a9.932 9.932 0 0 1-4.44 5.4l-36.14 20.86c-1.58 0.92-3.3 1.34-5 1.34-3.46 0-6.82-1.78-8.66-5a9.986 9.986 0 0 1 3.66-13.66l36.14-20.86c0.56-0.32 1.14-0.6 1.72-0.8l-47.72-47.72h-8.74c-5.52 0-10-4.48-10-10 0-2.44 0.88-4.68 2.34-6.42a10 10 0 0 1 7.66-3.58h31.74l-88.84-88.84v339.6h339.6L522 614.84z m0 0v31.74c0 3.08-1.4 5.84-3.6 7.66-1.74 1.46-3.96 2.34-6.4 2.34-5.52 0-10-4.48-10-10v-8.76l-47.72-47.7c-0.2 0.58-0.46 1.16-0.78 1.72L432.62 628c-1.84 3.2-5.2 5-8.66 5a10.004 10.004 0 0 1-8.66-15l20.88-36.16a9.978 9.978 0 0 1 5.38-4.44l-36.46-36.46a9.932 9.932 0 0 1-4.44 5.4l-36.14 20.86c-1.58 0.92-3.3 1.34-5 1.34-3.46 0-6.82-1.78-8.66-5a9.986 9.986 0 0 1 3.66-13.66l36.14-20.86c0.56-0.32 1.14-0.6 1.72-0.8l-47.72-47.72h-8.74c-5.52 0-10-4.48-10-10 0-2.44 0.88-4.68 2.34-6.42a10 10 0 0 1 7.66-3.58h31.74l-88.84-88.84v339.6h339.6L522 614.84z m0 0v31.74c0 3.08-1.4 5.84-3.6 7.66-1.74 1.46-3.96 2.34-6.4 2.34-5.52 0-10-4.48-10-10v-8.76l-47.72-47.7c-0.2 0.58-0.46 1.16-0.78 1.72L432.62 628c-1.84 3.2-5.2 5-8.66 5a10.004 10.004 0 0 1-8.66-15l20.88-36.16a9.978 9.978 0 0 1 5.38-4.44l-36.46-36.46a9.932 9.932 0 0 1-4.44 5.4l-36.14 20.86c-1.58 0.92-3.3 1.34-5 1.34-3.46 0-6.82-1.78-8.66-5a9.986 9.986 0 0 1 3.66-13.66l36.14-20.86c0.56-0.32 1.14-0.6 1.72-0.8l-47.72-47.72h-8.74c-5.52 0-10-4.48-10-10 0-2.44 0.88-4.68 2.34-6.42a10 10 0 0 1 7.66-3.58h31.74l-88.84-88.84v339.6h339.6L522 614.84z m0 0v31.74c0 3.08-1.4 5.84-3.6 7.66-1.74 1.46-3.96 2.34-6.4 2.34-5.52 0-10-4.48-10-10v-8.76l-47.72-47.7c-0.2 0.58-0.46 1.16-0.78 1.72L432.62 628c-1.84 3.2-5.2 5-8.66 5a10.004 10.004 0 0 1-8.66-15l20.88-36.16a9.978 9.978 0 0 1 5.38-4.44l-36.46-36.46a9.932 9.932 0 0 1-4.44 5.4l-36.14 20.86c-1.58 0.92-3.3 1.34-5 1.34-3.46 0-6.82-1.78-8.66-5a9.986 9.986 0 0 1 3.66-13.66l36.14-20.86c0.56-0.32 1.14-0.6 1.72-0.8l-47.72-47.72h-8.74c-5.52 0-10-4.48-10-10 0-2.44 0.88-4.68 2.34-6.42a10 10 0 0 1 7.66-3.58h31.74l-88.84-88.84v339.6h339.6L522 614.84z m0 0v31.74c0 3.08-1.4 5.84-3.6 7.66-1.74 1.46-3.96 2.34-6.4 2.34-5.52 0-10-4.48-10-10v-8.76l-47.72-47.7c-0.2 0.58-0.46 1.16-0.78 1.72L432.62 628c-1.84 3.2-5.2 5-8.66 5a10.004 10.004 0 0 1-8.66-15l20.88-36.16a9.978 9.978 0 0 1 5.38-4.44l-36.46-36.46a9.932 9.932 0 0 1-4.44 5.4l-36.14 20.86c-1.58 0.92-3.3 1.34-5 1.34-3.46 0-6.82-1.78-8.66-5a9.986 9.986 0 0 1 3.66-13.66l36.14-20.86c0.56-0.32 1.14-0.6 1.72-0.8l-47.72-47.72h-8.74c-5.52 0-10-4.48-10-10 0-2.44 0.88-4.68 2.34-6.42a10 10 0 0 1 7.66-3.58h31.74l-88.84-88.84v339.6h339.6L522 614.84z m0 0v31.74c0 3.08-1.4 5.84-3.6 7.66-1.74 1.46-3.96 2.34-6.4 2.34-5.52 0-10-4.48-10-10v-8.76l-47.72-47.7c-0.2 0.58-0.46 1.16-0.78 1.72L432.62 628c-1.84 3.2-5.2 5-8.66 5a10.004 10.004 0 0 1-8.66-15l20.88-36.16a9.978 9.978 0 0 1 5.38-4.44l-36.46-36.46a9.932 9.932 0 0 1-4.44 5.4l-36.14 20.86c-1.58 0.92-3.3 1.34-5 1.34-3.46 0-6.82-1.78-8.66-5a9.986 9.986 0 0 1 3.66-13.66l36.14-20.86c0.56-0.32 1.14-0.6 1.72-0.8l-47.72-47.72h-8.74c-5.52 0-10-4.48-10-10 0-2.44 0.88-4.68 2.34-6.42a10 10 0 0 1 7.66-3.58h31.74l-88.84-88.84v339.6h339.6L522 614.84z" fill="#636368" p-id="49976"></path><path d="M906.98 93V848H117.02V93h789.96M213.66 788.84h596.68c11.028 0 20-8.972 20-20v-60.632c16.262-7.612 27.08-24.122 27.08-42.468v-67.3c0-18.346-10.818-34.854-27.08-42.468v-168.524c16.262-7.612 27.08-24.122 27.08-42.468v-67.3c0-18.346-10.818-34.854-27.08-42.468V172.16c0-11.028-8.972-20-20-20H213.66c-11.028 0-20 8.972-20 20v596.68c0 11.028 8.972 20 20 20M916.98 83H107.02V858h809.96V83zM213.66 778.84c-5.52 0-10-4.48-10-10V172.16c0-5.52 4.48-10 10-10h596.68c5.52 0 10 4.48 10 10v69.98c15.58 4.32 27.08 18.6 27.08 35.54v67.3c0 16.94-11.5 31.22-27.08 35.54v182.38c15.58 4.32 27.08 18.6 27.08 35.54v67.3c0 16.94-11.5 31.22-27.08 35.54v67.56c0 5.52-4.48 10-10 10H213.66z" opacity=".2" p-id="49977"></path><path d="M790.34 192.16v43.042c-16.274 7.596-27.1 24.108-27.1 42.478v67.3c0 18.352 10.826 34.86 27.1 42.47v168.52c-16.274 7.61-27.1 24.12-27.1 42.47v67.3c0 18.362 10.826 34.878 27.1 42.49v40.61H233.66V192.16h556.68M268.82 741.26h427.12c11.028 0 20-8.972 20-20s-8.972-20-20-20H288.82V242.16h407.12c11.028 0 20-8.972 20-20s-8.972-20-20-20H268.82a19.858 19.858 0 0 0-14.13 5.848 19.888 19.888 0 0 0-5.87 14.152v499.1c0 11.028 8.972 20 20 20M512 356.16c11.028 0 20-8.972 20-20v-41.74c0-11.028-8.972-20-20-20s-20 8.972-20 20v41.74c0 11.028 8.972 20 20 20m67.16 18c7.126 0 13.77-3.838 17.34-10.02L617.36 328c5.514-9.55 2.23-21.806-7.32-27.32a19.994 19.994 0 0 0-9.988-2.68 20.064 20.064 0 0 0-17.33 9.998l-20.89 36.158c-5.492 9.552-2.204 21.8 7.298 27.286a19.956 19.956 0 0 0 10.03 2.718m-134.32 0c3.49 0 6.94-0.926 9.964-2.67a19.836 19.836 0 0 0 9.332-12.128 19.868 19.868 0 0 0-1.996-15.198L441.28 308a20.066 20.066 0 0 0-17.332-10c-3.498 0-6.952 0.928-9.988 2.68-9.55 5.514-12.834 17.77-7.322 27.316l20.876 36.188a20.106 20.106 0 0 0 17.326 9.976m183.5 49.16a19.9 19.9 0 0 0 9.996-2.678l36.164-20.862a19.868 19.868 0 0 0 9.316-12.144 19.858 19.858 0 0 0-1.988-15.16 20.04 20.04 0 0 0-17.33-10.028c-3.514 0-6.98 0.938-9.996 2.692L618.34 386a19.868 19.868 0 0 0-9.316 12.144 19.87 19.87 0 0 0 1.998 15.178 20.056 20.056 0 0 0 17.318 9.998m-232.7 0.02c7.126 0 13.77-3.838 17.34-10.02 5.498-9.52 2.226-21.77-7.322-27.322L369.5 365.14a19.994 19.994 0 0 0-9.988-2.68 20.066 20.066 0 0 0-17.332 10 19.866 19.866 0 0 0-1.996 15.176 19.87 19.87 0 0 0 9.32 12.146l36.076 20.812a19.826 19.826 0 0 0 10.06 2.746M512 573.98c57.06 0 103.48-46.42 103.48-103.48s-46.42-103.48-103.48-103.48-103.48 46.42-103.48 103.48 46.42 103.48 103.48 103.48m134.34-83.48h41.74c11.028 0 20-8.972 20-20s-8.972-20-20-20h-41.74c-11.028 0-20 8.972-20 20s8.972 20 20 20m-310.42 0h41.74c11.028 0 20-8.972 20-20s-8.972-20-20-20h-41.74c-11.028 0-20 8.972-20 20s8.972 20 20 20m328.56 88.04c7.11 0 13.75-3.822 17.34-10a19.866 19.866 0 0 0 1.996-15.176 19.868 19.868 0 0 0-9.316-12.144l-36.16-20.88a19.994 19.994 0 0 0-9.988-2.68 20.07 20.07 0 0 0-17.34 10.016c-5.492 9.552-2.204 21.8 7.328 27.304l36.212 20.91a20.094 20.094 0 0 0 9.928 2.65m-304.96 0c3.532 0 7-0.934 10-2.68l36.142-20.86a19.868 19.868 0 0 0 9.316-12.144 19.856 19.856 0 0 0-1.988-15.16 20.044 20.044 0 0 0-17.33-10.03c-3.514 0-6.98 0.938-9.998 2.692l-36.126 20.852a19.836 19.836 0 0 0-9.332 12.128 19.848 19.848 0 0 0 1.974 15.162 20.002 20.002 0 0 0 17.342 10.04m240.54 64.46c3.49 0 6.94-0.926 9.992-2.686 9.536-5.524 12.816-17.776 7.31-27.31L596.5 576.84a20.07 20.07 0 0 0-17.334-10 20 20 0 0 0-9.986 2.68 19.86 19.86 0 0 0-9.316 12.144 19.868 19.868 0 0 0 1.994 15.172l20.876 36.188a20.106 20.106 0 0 0 17.326 9.976m-176.1 0c7.136 0 13.776-3.838 17.32-10l20.88-36.16c2.67-4.626 3.38-10.014 1.996-15.176s-4.692-9.474-9.332-12.154a20.054 20.054 0 0 0-9.982-2.672 20.056 20.056 0 0 0-17.322 10l-20.88 36.16c-5.514 9.55-2.23 21.806 7.37 27.35a20.13 20.13 0 0 0 9.95 2.652M512 666.58c11.028 0 20-8.972 20-20v-41.74c0-11.028-8.972-20-20-20s-20 8.972-20 20v41.74c0 11.028 8.972 20 20 20M800.34 182.16H223.66v576.68h576.68v-57.54c-15.6-4.32-27.1-18.6-27.1-35.56v-67.3c0-16.94 11.5-31.22 27.1-35.54v-182.38c-15.6-4.32-27.1-18.6-27.1-35.54v-67.3c0-16.96 11.5-31.24 27.1-35.54V182.16zM268.82 731.26c-5.52 0-10-4.48-10-10V222.16c0-2.76 1.12-5.26 2.94-7.08 1.8-1.8 4.3-2.92 7.06-2.92h427.12c5.52 0 10 4.48 10 10s-4.48 10-10 10H278.82v479.1h417.12c5.52 0 10 4.48 10 10s-4.48 10-10 10H268.82zM512 346.16c-5.52 0-10-4.48-10-10v-41.74c0-5.52 4.48-10 10-10s10 4.48 10 10v41.74c0 5.52-4.48 10-10 10z m67.16 18c-1.7 0-3.42-0.44-5-1.36a10 10 0 0 1-3.66-13.66l20.88-36.14a10.002 10.002 0 0 1 13.66-3.66 10.004 10.004 0 0 1 3.66 13.66l-20.86 36.14a10.01 10.01 0 0 1-8.68 5.02z m-134.32 0c-3.46 0-6.82-1.8-8.68-5l-20.86-36.16a10.004 10.004 0 0 1 8.648-15 10 10 0 0 1 8.672 5l20.86 36.16c2.76 4.78 1.14 10.9-3.66 13.66-1.56 0.9-3.28 1.34-4.98 1.34z m183.5 49.16c-3.44 0-6.8-1.78-8.66-5a10.004 10.004 0 0 1 3.66-13.66l36.16-20.86a9.972 9.972 0 0 1 13.66 3.66c2.76 4.78 1.12 10.9-3.66 13.66l-36.16 20.86c-1.58 0.92-3.3 1.34-5 1.34z m-232.7 0.02c-1.7 0-3.42-0.44-4.98-1.36l-36.16-20.86a10.002 10.002 0 1 1 10-17.32l36.16 20.86a10.008 10.008 0 0 1 3.66 13.66 10.01 10.01 0 0 1-8.68 5.02zM512 563.98c-51.54 0-93.48-41.94-93.48-93.48 0-51.54 41.94-93.48 93.48-93.48s93.48 41.94 93.48 93.48c0 51.54-41.94 93.48-93.48 93.48z m134.34-83.48c-5.52 0-10-4.48-10-10s4.48-10 10-10h41.74c5.52 0 10 4.48 10 10s-4.48 10-10 10h-41.74z m-310.42 0c-5.52 0-10-4.48-10-10s4.48-10 10-10h41.74c5.52 0 10 4.48 10 10s-4.48 10-10 10h-41.74z m328.56 88.04c-1.68 0-3.4-0.44-4.98-1.34l-36.16-20.88a10 10 0 1 1 10-17.32l36.16 20.88a10.004 10.004 0 0 1 3.66 13.66c-1.86 3.2-5.22 5-8.68 5z m-304.96 0c-3.46 0-6.82-1.78-8.66-5a9.986 9.986 0 0 1 3.66-13.66l36.14-20.86a9.972 9.972 0 0 1 13.66 3.66c2.76 4.78 1.12 10.9-3.66 13.66l-36.14 20.86c-1.58 0.92-3.3 1.34-5 1.34z m240.54 64.46c-3.46 0-6.82-1.8-8.68-5l-20.86-36.16a10.004 10.004 0 0 1 8.648-15 10 10 0 0 1 8.672 5L608.7 618c2.76 4.78 1.14 10.88-3.66 13.66-1.56 0.9-3.28 1.34-4.98 1.34z m-176.1 0a10.004 10.004 0 0 1-8.66-15l20.88-36.16a9.988 9.988 0 0 1 13.66-3.66 10.004 10.004 0 0 1 3.66 13.66L432.62 628c-1.84 3.2-5.2 5-8.66 5zM512 656.58c-5.52 0-10-4.48-10-10v-41.74c0-5.52 4.48-10 10-10s10 4.48 10 10v41.74c0 5.52-4.48 10-10 10z" opacity=".2" p-id="49978"></path><path d="M512 377.02c-51.54 0-93.48 41.94-93.48 93.48s41.94 93.48 93.48 93.48 93.48-41.94 93.48-93.48-41.94-93.48-93.48-93.48z m0 166.96c-40.52 0-73.48-32.96-73.48-73.48s32.96-73.48 73.48-73.48 73.48 32.96 73.48 73.48-32.96 73.48-73.48 73.48z" fill="#23130D" p-id="49979"></path><path d="M585.48 470.5c0 40.52-32.96 73.48-73.48 73.48s-73.48-32.96-73.48-73.48 32.96-73.48 73.48-73.48 73.48 32.96 73.48 73.48z" fill="#E1E1E5" p-id="49980"></path><path d="M560.11 470.5c0 26.53-21.58 48.11-48.11 48.11s-48.11-21.58-48.11-48.11 21.58-48.11 48.11-48.11 48.11 21.58 48.11 48.11z" opacity=".2" p-id="49981"></path><path d="M522 294.42v41.74c0 5.52-4.48 10-10 10s-10-4.48-10-10v-41.74c0-5.52 4.48-10 10-10s10 4.48 10 10zM449.82 362.82c-1.56 0.9-3.28 1.34-4.98 1.34-3.46 0-6.82-1.8-8.68-5l-20.86-36.16a10.004 10.004 0 0 1 3.66-13.66 10.004 10.004 0 0 1 13.66 3.66l20.86 36.16c2.76 4.78 1.14 10.9-3.66 13.66zM404.32 408.32a10.01 10.01 0 0 1-8.68 5.02c-1.7 0-3.42-0.44-4.98-1.36l-36.16-20.86a10.004 10.004 0 0 1-3.66-13.66 10.004 10.004 0 0 1 13.66-3.66l36.16 20.86a10.008 10.008 0 0 1 3.66 13.66zM387.66 470.5c0 5.52-4.48 10-10 10h-41.74c-5.52 0-10-4.48-10-10s4.48-10 10-10h41.74c5.52 0 10 4.48 10 10zM400.66 546.34l-36.14 20.86c-1.58 0.92-3.3 1.34-5 1.34-3.46 0-6.82-1.78-8.66-5a9.986 9.986 0 0 1 3.66-13.66l36.14-20.86a9.968 9.968 0 0 1 13.66 3.66c2.76 4.78 1.12 10.9-3.66 13.66zM453.5 591.84L432.62 628c-1.84 3.2-5.2 5-8.66 5a10.004 10.004 0 0 1-8.66-15l20.88-36.16a10 10 0 1 1 17.32 10zM522 604.84v41.74c0 5.52-4.48 10-10 10s-10-4.48-10-10v-41.74c0-5.52 4.48-10 10-10s10 4.48 10 10zM605.04 631.66c-1.56 0.9-3.28 1.34-4.98 1.34-3.46 0-6.82-1.8-8.68-5l-20.86-36.16a10.004 10.004 0 0 1 3.66-13.66 10.004 10.004 0 0 1 13.66 3.66L608.7 618c2.76 4.78 1.14 10.88-3.66 13.66zM673.16 563.54c-1.86 3.2-5.22 5-8.68 5-1.68 0-3.4-0.44-4.98-1.34l-36.16-20.88a10 10 0 1 1 10-17.32l36.16 20.88a10.004 10.004 0 0 1 3.66 13.66zM698.08 470.5c0 5.52-4.48 10-10 10h-41.74c-5.52 0-10-4.48-10-10s4.48-10 10-10h41.74c5.52 0 10 4.48 10 10zM669.5 391.12l-36.16 20.86c-1.58 0.92-3.3 1.34-5 1.34-3.44 0-6.8-1.78-8.66-5a10.004 10.004 0 0 1 3.66-13.66l36.16-20.86a9.968 9.968 0 0 1 13.66 3.66c2.76 4.78 1.12 10.9-3.66 13.66zM608.7 323l-20.86 36.14a10.01 10.01 0 0 1-8.68 5.02c-1.7 0-3.42-0.44-5-1.36a10 10 0 0 1-3.66-13.66l20.88-36.14a10.004 10.004 0 0 1 13.66-3.66 10.004 10.004 0 0 1 3.66 13.66z" fill="#23130D" p-id="49982"></path><path d="M705.94 721.26c0 5.52-4.48 10-10 10H268.82c-5.52 0-10-4.48-10-10V222.16c0-2.76 1.12-5.26 2.94-7.08 1.8-1.8 4.3-2.92 7.06-2.92h427.12c5.52 0 10 4.48 10 10s-4.48 10-10 10H278.82v479.1h417.12c5.52 0 10 4.48 10 10z" fill="#FFFFFF" p-id="49983"></path><path d="M818.88 680.42a16.764 16.764 0 0 1-8.38 2.24h-0.34c-9.32 0-16.92-7.6-16.92-16.92v-67.3c0-9.32 7.6-16.92 16.92-16.92h0.34c3.04 0 5.92 0.82 8.38 2.24-5.1 2.92-8.54 8.4-8.54 14.68v67.3c0 6.28 3.44 11.76 8.54 14.68z" opacity=".2" p-id="49984"></path><path d="M223.66 359.5l35.16 35.16v110.56l-35.16-35.16zM575.44 711.26h-110.58l-186.04-186.04v-110.56l49.44 49.42c-1.46 1.74-2.34 3.98-2.34 6.42 0 5.52 4.48 10 10 10h8.74l47.72 47.72c-0.58 0.2-1.16 0.48-1.72 0.8l-36.14 20.86a9.986 9.986 0 0 0-3.66 13.66c1.84 3.22 5.2 5 8.66 5 1.7 0 3.42-0.42 5-1.34l36.14-20.86c2.16-1.26 3.7-3.2 4.44-5.4l36.46 36.46c-2.2 0.76-4.12 2.28-5.38 4.44L415.3 618a10.004 10.004 0 0 0 8.66 15c3.46 0 6.82-1.8 8.66-5l20.88-36.16c0.32-0.56 0.58-1.14 0.78-1.72L502 637.82v8.76c0 5.52 4.48 10 10 10 2.44 0 4.66-0.88 6.4-2.34l57.04 57.02zM623.02 758.84h-110.58l-27.58-27.58h110.58zM223.66 231.5l35.16 35.16v85l-35.16-35.16zM751 758.84H666l-27.58-27.58h57.52c5.52 0 10-4.48 10-10s-4.48-10-10-10h-77.52L522 614.84v-10c0-5.52-4.48-10-10-10-2.76 0-5.26 1.12-7.08 2.92l-120.2-120.2c1.82-1.8 2.94-4.3 2.94-7.06 0-5.52-4.48-10-10-10h-10l-88.84-88.84v-85l89.14 89.14-3.46-2a10.004 10.004 0 0 0-13.66 3.66 10.004 10.004 0 0 0 3.66 13.66l36.16 20.86c1.56 0.92 3.28 1.36 4.98 1.36 2.58 0 5.12-1 7-2.86L426 433.84a92.96 92.96 0 0 0-7.48 36.66c0 51.54 41.94 93.48 93.48 93.48 13 0 25.38-2.66 36.64-7.5l23.38 23.38c-3.04 3.12-3.8 8.02-1.5 11.98L591.38 628c1.86 3.2 5.22 5 8.68 5 1.7 0 3.42-0.44 4.98-1.34a9.99 9.99 0 0 0 3.66-13.66l-2-3.46 144.3 144.3zM434.2 212.16h-141.28l-30-30h141.28zM800.34 701.3v18.28l-168.14-168.14 27.3 15.76c1.58 0.9 3.3 1.34 4.98 1.34 3.46 0 6.82-1.8 8.68-5 2.76-4.78 1.12-10.9-3.66-13.66l-36.16-20.88a10.004 10.004 0 0 0-13.66 3.66c-0.88 1.56-1.32 3.24-1.34 4.92l-23.6-23.6c6.86-12.98 10.74-27.78 10.74-43.48 0-51.54-41.94-93.48-93.48-93.48-15.68 0-30.48 3.88-43.48 10.74l-23.6-23.6c1.68-0.02 3.36-0.46 4.9-1.34a9.986 9.986 0 0 0 3.66-13.66l-20.86-36.16a10.004 10.004 0 0 0-13.66-3.66 10.004 10.004 0 0 0-3.66 13.66l15.74 27.28-118.12-118.12h141.28l53.32 53.32a9.994 9.994 0 0 0-5.52 8.94v41.74c0 5.52 4.48 10 10 10s10-4.48 10-10v-36.2l48.74 48.74-0.24 0.44a10 10 0 0 0 3.66 13.66c1.58 0.92 3.3 1.36 5 1.36 1.92 0 3.8-0.56 5.42-1.62l35.36 35.36a10 10 0 0 0 13.4 14.08l0.44-0.24 48.76 48.76h-36.2c-5.52 0-10 4.48-10 10s4.48 10 10 10h41.74c3.9 0 7.3-2.24 8.94-5.52l92.76 92.76c-9.96 6.6-16.54 17.88-16.54 30.7v67.3c0 16.96 11.5 31.24 27.1 35.56z" fill="#FFFFFF" opacity=".4" p-id="49985"></path></svg>