<?xml version="1.0" standalone="no"?><!DOCTYPE svg PUBLIC "-//W3C//DTD SVG 1.1//EN" "http://www.w3.org/Graphics/SVG/1.1/DTD/svg11.dtd"><svg t="1625811962839" class="icon" viewBox="0 0 1024 1024" version="1.1" xmlns="http://www.w3.org/2000/svg" p-id="46441" xmlns:xlink="http://www.w3.org/1999/xlink" width="200" height="200"><defs><style type="text/css"></style></defs><path d="M949.76 222.54h-90.14V174.66c0-19.62-15.96-35.6-35.6-35.6h-23.18c-19.62 0-35.58 15.98-35.58 35.6v47.88H709.4V174.66c0-19.62-15.96-35.6-35.6-35.6h-23.18c-19.62 0-35.58 15.98-35.58 35.6v47.88h-55.86V174.66c0-19.62-15.96-35.6-35.6-35.6h-23.16c-19.64 0-35.6 15.98-35.6 35.6v47.88h-55.86V174.66c0-19.62-15.96-35.6-35.58-35.6H350.2c-19.64 0-35.6 15.98-35.6 35.6v47.88h-55.86V174.66c0-19.62-15.96-35.6-35.58-35.6H199.98c-19.64 0-35.6 15.98-35.6 35.6v47.88H74.24c-5.54 0-10 4.46-10 10v642.4c0 5.52 4.46 10 10 10h875.52c5.54 0 10-4.48 10-10v-642.4c0-5.54-4.46-10-10-10z m-164.5-47.88c0-8.6 6.98-15.6 15.58-15.6h23.18c8.6 0 15.6 7 15.6 15.6v115.72c0 8.6-7 15.6-15.6 15.6h-23.18c-8.6 0-15.58-7-15.58-15.6V174.66z m-150.22 57.88V174.66c0-8.6 6.98-15.6 15.58-15.6h23.18c8.6 0 15.6 7 15.6 15.6v115.72c0 8.6-7 15.6-15.6 15.6h-23.18c-8.6 0-15.58-7-15.58-15.6v-57.84z m-150.22-57.88c0-8.6 7-15.6 15.6-15.6h23.16c8.6 0 15.6 7 15.6 15.6v115.72c0 8.6-7 15.6-15.6 15.6h-23.16c-8.6 0-15.6-7-15.6-15.6V174.66z m-150.22 0c0-8.6 7-15.6 15.6-15.6h23.18c8.58 0 15.58 7 15.58 15.6v115.72c0 8.6-7 15.6-15.58 15.6H350.2c-8.6 0-15.6-7-15.6-15.6V174.66z m-150.22 57.88V174.66c0-8.6 7-15.6 15.6-15.6h23.18c8.6 0 15.58 7 15.58 15.6v115.72c0 8.6-6.98 15.6-15.58 15.6H199.98c-8.6 0-15.6-7-15.6-15.6v-57.84z m755.38 632.4H84.24v-622.4h80.14v47.84c0 19.62 15.96 35.6 35.6 35.6h23.18c19.62 0 35.58-15.98 35.58-35.6v-47.84h55.86v47.84c0 19.62 15.96 35.6 35.6 35.6h23.18c19.62 0 35.58-15.98 35.58-35.6v-47.84h55.86v47.84c0 19.62 15.96 35.6 35.6 35.6h23.16c19.64 0 35.6-15.98 35.6-35.6v-47.84h55.86v47.84c0 19.62 15.96 35.6 35.58 35.6h23.18c19.64 0 35.6-15.98 35.6-35.6v-47.84h55.86v47.84c0 19.62 15.96 35.6 35.58 35.6h23.18c19.64 0 35.6-15.98 35.6-35.6v-47.84h80.14v622.4z" fill="#23130D" p-id="46442"></path><path d="M238.74 174.66v115.72c0 8.6-6.98 15.6-15.58 15.6H199.98c-8.6 0-15.6-7-15.6-15.6v-57.84-57.88c0-8.6 7-15.6 15.6-15.6h23.18c8.6 0 15.58 7 15.58 15.6zM388.96 174.66v115.72c0 8.6-7 15.6-15.58 15.6H350.2c-8.6 0-15.6-7-15.6-15.6V174.66c0-8.6 7-15.6 15.6-15.6h23.18c8.58 0 15.58 7 15.58 15.6zM539.18 174.66v115.72c0 8.6-7 15.6-15.6 15.6h-23.16c-8.6 0-15.6-7-15.6-15.6V174.66c0-8.6 7-15.6 15.6-15.6h23.16c8.6 0 15.6 7 15.6 15.6zM689.4 174.66v115.72c0 8.6-7 15.6-15.6 15.6h-23.18c-8.6 0-15.58-7-15.58-15.6v-57.84-57.88c0-8.6 6.98-15.6 15.58-15.6h23.18c8.6 0 15.6 7 15.6 15.6zM839.62 174.66v115.72c0 8.6-7 15.6-15.6 15.6h-23.18c-8.6 0-15.58-7-15.58-15.6V174.66c0-8.6 6.98-15.6 15.58-15.6h23.18c8.6 0 15.6 7 15.6 15.6z" fill="#F9C139" p-id="46443"></path><path d="M223.16 169.06a5.596 5.596 0 0 1 5.58 5.6v115.72c0 3.088-2.504 5.6-5.58 5.6H199.98a5.606 5.606 0 0 1-5.6-5.6V174.66c0-3.088 2.512-5.6 5.6-5.6h23.18m0-10H199.98c-8.6 0-15.6 7-15.6 15.6v115.72c0 8.6 7 15.6 15.6 15.6h23.18c8.6 0 15.58-7 15.58-15.6V174.66c0-8.6-6.98-15.6-15.58-15.6zM373.38 169.06a5.596 5.596 0 0 1 5.58 5.6v115.72c0 3.088-2.504 5.6-5.58 5.6H350.2a5.606 5.606 0 0 1-5.6-5.6V174.66c0-3.088 2.512-5.6 5.6-5.6h23.18m0-10H350.2c-8.6 0-15.6 7-15.6 15.6v115.72c0 8.6 7 15.6 15.6 15.6h23.18c8.58 0 15.58-7 15.58-15.6V174.66c0-8.6-7-15.6-15.58-15.6zM523.58 169.06c3.088 0 5.6 2.512 5.6 5.6v115.72c0 3.088-2.512 5.6-5.6 5.6h-23.16a5.606 5.606 0 0 1-5.6-5.6V174.66c0-3.088 2.512-5.6 5.6-5.6h23.16m0-10h-23.16c-8.6 0-15.6 7-15.6 15.6v115.72c0 8.6 7 15.6 15.6 15.6h23.16c8.6 0 15.6-7 15.6-15.6V174.66c0-8.6-7-15.6-15.6-15.6zM673.8 169.06c3.088 0 5.6 2.512 5.6 5.6v115.72c0 3.088-2.512 5.6-5.6 5.6h-23.18a5.596 5.596 0 0 1-5.58-5.6V174.66c0-3.088 2.504-5.6 5.58-5.6h23.18m0-10h-23.18c-8.6 0-15.58 7-15.58 15.6v115.72c0 8.6 6.98 15.6 15.58 15.6h23.18c8.6 0 15.6-7 15.6-15.6V174.66c0-8.6-7-15.6-15.6-15.6zM824.02 169.06c3.088 0 5.6 2.512 5.6 5.6v115.72c0 3.088-2.512 5.6-5.6 5.6h-23.18a5.596 5.596 0 0 1-5.58-5.6V174.66c0-3.088 2.504-5.6 5.58-5.6h23.18m0-10h-23.18c-8.6 0-15.58 7-15.58 15.6v115.72c0 8.6 6.98 15.6 15.58 15.6h23.18c8.6 0 15.6-7 15.6-15.6V174.66c0-8.6-7-15.6-15.6-15.6z" opacity=".2" p-id="46444"></path><path d="M859.62 242.54v47.84c0 5.4-1.2 10.52-3.38 15.1a35.604 35.604 0 0 1-14.08 15.52 35.406 35.406 0 0 1-18.14 4.98h-23.18c-6.6 0-12.8-1.82-18.12-4.98a35.604 35.604 0 0 1-14.08-15.52 35.028 35.028 0 0 1-3.38-15.1v-47.84H709.4v47.84c0 5.4-1.2 10.52-3.38 15.1a35.604 35.604 0 0 1-14.08 15.52 35.406 35.406 0 0 1-18.14 4.98h-23.18c-6.62 0-12.82-1.82-18.12-4.98a35.604 35.604 0 0 1-14.08-15.52 35.028 35.028 0 0 1-3.38-15.1v-47.84h-55.86v47.84c0 5.4-1.2 10.52-3.38 15.1a35.604 35.604 0 0 1-14.08 15.52 35.406 35.406 0 0 1-18.14 4.98h-23.16c-6.62 0-12.82-1.82-18.14-4.98a35.604 35.604 0 0 1-14.08-15.52 35.028 35.028 0 0 1-3.38-15.1v-47.84h-55.86v47.84c0 5.4-1.2 10.52-3.38 15.1a35.604 35.604 0 0 1-14.08 15.52 35.28 35.28 0 0 1-18.12 4.98H350.2c-6.62 0-12.82-1.82-18.14-4.98a35.604 35.604 0 0 1-14.08-15.52 35.028 35.028 0 0 1-3.38-15.1v-47.84h-55.86v47.84c0 5.4-1.2 10.52-3.38 15.1a35.604 35.604 0 0 1-14.08 15.52 35.388 35.388 0 0 1-18.12 4.98H199.98c-6.62 0-12.82-1.82-18.14-4.98a35.604 35.604 0 0 1-14.08-15.52 35.028 35.028 0 0 1-3.38-15.1v-47.84H84.24v622.4h855.52v-622.4h-80.14zM885.16 808c0 0.46-0.04 0.92-0.1 1.36a9.992 9.992 0 0 1-9.9 8.64H148.84c-5.06 0-9.24-3.76-9.9-8.64-0.06-0.44-0.1-0.9-0.1-1.36V378c0-5.52 4.48-10 10-10h726.32c5.52 0 10 4.48 10 10v430z" fill="#E1E1E5" p-id="46445"></path><path d="M859.62 242.54v24h80.14v-24h-80.14z m-35.6 83.44h-23.18c-19.62 0-35.58-15.98-35.58-35.6v24c0 19.62 15.96 35.6 35.58 35.6h23.18c19.64 0 35.6-15.98 35.6-35.6v-24c0 19.62-15.96 35.6-35.6 35.6z m-58.76-83.44H709.4v24h55.86v-24z m-91.46 83.44h-23.18c-19.62 0-35.58-15.98-35.58-35.6v24c0 19.62 15.96 35.6 35.58 35.6h23.18c19.64 0 35.6-15.98 35.6-35.6v-24c0 19.62-15.96 35.6-35.6 35.6z m-58.76-83.44h-55.86v24h55.86v-24z m-91.46 83.44h-23.16c-19.64 0-35.6-15.98-35.6-35.6v24c0 19.62 15.96 35.6 35.6 35.6h23.16c19.64 0 35.6-15.98 35.6-35.6v-24c0 19.62-15.96 35.6-35.6 35.6z m-58.76-83.44h-55.86v24h55.86v-24z m-91.44 83.44H350.2c-19.64 0-35.6-15.98-35.6-35.6v24c0 19.62 15.96 35.6 35.6 35.6h23.18c19.62 0 35.58-15.98 35.58-35.6v-24c0 19.62-15.96 35.6-35.58 35.6z m-58.78-83.44h-55.86v24h55.86v-24z m-91.44 83.44H199.98c-19.64 0-35.6-15.98-35.6-35.6v24c0 19.62 15.96 35.6 35.6 35.6h23.18c19.62 0 35.58-15.98 35.58-35.6v-24c0 19.62-15.96 35.6-35.58 35.6z m-58.78-83.44H84.24v24h80.14v-24z" opacity=".2" p-id="46446"></path><path d="M875.16 368H148.84c-5.52 0-10 4.48-10 10v430c0 5.52 4.48 10 10 10h726.32c5.52 0 10-4.48 10-10V378c0-5.52-4.48-10-10-10zM320.42 798H158.84v-123.34h161.58V798z m0-143.34H158.84v-123.32h161.58v123.32z m0-143.32H158.84V388h161.58v123.34zM502 798h-161.58v-123.34H502V798z m0-143.34h-161.58v-123.32H502v123.32z m0-143.32h-161.58V388H502v123.34zM683.58 798H522v-123.34h161.58V798z m0-143.34H522v-123.32h161.58v123.32z m0-143.32H522V388h161.58v123.34zM865.16 798h-161.58v-123.34h161.58V798z m0-143.34h-161.58v-123.32h161.58v123.32z m0-143.32h-161.58V388h161.58v123.34z" fill="#23130D" p-id="46447"></path><path d="M703.58 674.66h161.58V798h-161.58zM522 674.66h161.58V798H522zM340.42 674.66H502V798h-161.58z" fill="#636368" p-id="46448"></path><path d="M158.84 674.66V798h161.58v-123.34H158.84z m106.98 66.02l-11.48 11.48-11.02 11-5.56 5.58-5.34 5.34a10.044 10.044 0 0 1-14.16 0l-30-30a10.032 10.032 0 0 1 0-14.16 10.032 10.032 0 0 1 7.78-2.9c2.32 0.16 4.6 1.12 6.38 2.9l22.92 22.94 3.84-3.84 11.02-11 11.48-11.48 18.3-18.32 9.62-9.62a9.97 9.97 0 0 1 14.14 0 9.97 9.97 0 0 1 0 14.14l-9.62 9.62-18.3 18.32z" fill="#72AF5F" p-id="46449"></path><path d="M314.42 680.66V792H164.84v-111.34h149.58m-89.078 63.712l-18.69-18.706a15.942 15.942 0 0 0-11.312-4.672 15.96 15.96 0 0 0-11.334 4.694c-6.206 6.238-6.206 16.386 0.01 22.634l30.022 30.022a15.972 15.972 0 0 0 11.3 4.656 15.996 15.996 0 0 0 11.324-4.678l61.308-61.328a15.864 15.864 0 0 0 4.708-11.324 15.85 15.85 0 0 0-4.686-11.302 15.864 15.864 0 0 0-11.324-4.708 15.852 15.852 0 0 0-11.312 4.698l-50.014 50.014m95.078-69.712H158.84V798h161.58v-123.34z m-95.08 78.2l54.26-54.26c1.95-1.96 4.51-2.94 7.07-2.94s5.12 0.98 7.07 2.94a9.97 9.97 0 0 1 0 14.14l-61.32 61.34a10.044 10.044 0 0 1-14.16 0l-30-30a10.032 10.032 0 0 1 0-14.16c1.96-1.95 4.52-2.926 7.08-2.926s5.12 0.976 7.08 2.926l22.92 22.94z" opacity=".2" p-id="46450"></path><path d="M158.84 531.34h161.58v123.32H158.84zM340.42 531.34H502v123.32h-161.58zM522 531.34h161.58v123.32H522zM703.58 531.34h161.58v123.32h-161.58zM703.58 388h161.58v123.34h-161.58zM522 388h161.58v123.34H522zM340.42 388H502v123.34h-161.58zM158.84 388h161.58v123.34H158.84z" fill="#636368" p-id="46451"></path><path d="M293.74 712.74l-61.32 61.34a10.044 10.044 0 0 1-14.16 0l-30-30a10.032 10.032 0 0 1 0-14.16 10.032 10.032 0 0 1 14.16 0l22.92 22.94 54.26-54.26a9.97 9.97 0 0 1 14.14 0 9.97 9.97 0 0 1 0 14.14z" fill="#23130D" p-id="46452"></path><path d="M158.84 388h9.96v123.34h-9.96zM158.84 531.34h9.96v123.32h-9.96zM183.96 388h15.52v266.66h-15.52zM214.64 388h15.5v266.66h-15.5zM245.3 388h15.5v266.66h-15.5z" opacity=".1" p-id="46453"></path><path d="M274.82 388h15.5v266.66h-15.5zM305.48 388h14.94v123.34h-14.94zM305.48 531.34h14.94v123.32h-14.94zM340.42 388h11.24v123.34h-11.24zM340.42 531.34h11.24v123.32h-11.24zM340.42 674.66h11.24V798h-11.24zM366.82 388h15.5v410h-15.5zM397.48 388h15.52v410h-15.52zM428.16 388h15.5v410h-15.5zM458.82 388h15.5v410h-15.5zM489.48 388H502v123.34h-12.52zM489.48 531.34H502v123.32h-12.52zM489.48 674.66H502V798h-12.52z" opacity=".1" p-id="46454"></path><path d="M522 388h12.52v123.34H522zM522 531.34h12.52v123.32H522zM522 674.66h12.52V798H522zM549.68 388h15.5v410h-15.5zM580.34 388h15.5v410h-15.5zM611 388h15.52v410h-15.52zM641.68 388h15.5v410h-15.5zM672.34 388h11.24v123.34h-11.24zM672.34 531.34h11.24v123.32h-11.24zM672.34 674.66h11.24V798h-11.24zM703.58 388h14.94v123.34h-14.94zM703.58 531.34h14.94v123.32h-14.94zM703.58 674.66h14.94V798h-14.94zM733.68 388h15.5v410h-15.5z" opacity=".1" p-id="46455"></path><path d="M763.2 388h15.5v410h-15.5zM793.86 388h15.5v410h-15.5zM824.52 388h15.52v410h-15.52zM855.2 388h9.96v123.34h-9.96zM855.2 531.34h9.96v123.32h-9.96zM855.2 674.66h9.96V798h-9.96z" opacity=".1" p-id="46456"></path><path d="M267.02 798h-28.66l-79.52-79.52v-28.66l37.2 37.2c-2.78-0.2-5.64 0.78-7.78 2.9a10.032 10.032 0 0 0 0 14.16l30 30a10.044 10.044 0 0 0 14.16 0l5.34-5.34L267.02 798zM176.84 674.66l63.36 63.36-11.02 11-70.34-70.34v-4.02zM300.18 798h-22.02l-34.84-34.84 11.02-11zM269.98 708.22l-18.3 18.32-51.88-51.88h36.62zM320.42 758.66v36.62l-54.6-54.6 18.3-18.32z" fill="#FFFFFF" opacity=".3" p-id="46457"></path><path d="M84.24 855.2h855.52v9.74H84.24zM84.24 824.52h855.52v15.52H84.24zM138.84 808c0 0.46 0.04 0.92 0.1 1.36H84.24v-15.5h54.6V808zM939.76 793.86v15.5h-54.7c0.06-0.44 0.1-0.9 0.1-1.36v-14.14h54.6zM84.24 763.2h54.6v15.5h-54.6zM885.16 763.2h54.6v15.5h-54.6z" fill="#FFFFFF" opacity=".3" p-id="46458"></path><path d="M84.24 733.68h54.6v15.5h-54.6zM885.16 733.68h54.6v15.5h-54.6zM84.24 703h54.6v15.52h-54.6zM885.16 703h54.6v15.52h-54.6zM84.24 672.34h54.6v15.5h-54.6zM885.16 672.34h54.6v15.5h-54.6zM84.24 641.68h54.6v15.5h-54.6zM885.16 641.68h54.6v15.5h-54.6zM84.24 611h54.6v15.52h-54.6zM885.16 611h54.6v15.52h-54.6zM84.24 580.34h54.6v15.5h-54.6zM885.16 580.34h54.6v15.5h-54.6zM84.24 549.68h54.6v15.5h-54.6zM885.16 549.68h54.6v15.5h-54.6zM84.24 519h54.6v15.52h-54.6zM885.16 519h54.6v15.52h-54.6z" fill="#FFFFFF" opacity=".3" p-id="46459"></path><path d="M84.24 489.48h54.6v15.52h-54.6zM885.16 489.48h54.6v15.52h-54.6zM84.24 458.82h54.6v15.5h-54.6zM885.16 458.82h54.6v15.5h-54.6zM84.24 428.16h54.6v15.5h-54.6zM885.16 428.16h54.6v15.5h-54.6zM84.24 397.48h54.6v15.52h-54.6zM885.16 397.48h54.6v15.52h-54.6zM939.76 366.82v15.5h-54.6V378c0-5.52-4.48-10-10-10H148.84c-5.52 0-10 4.48-10 10v4.32h-54.6v-15.5h855.52zM84.24 336.16h855.52v15.5H84.24zM181.84 321h-97.6v-15.52h83.52c3.02 6.48 7.96 11.88 14.08 15.52zM332.06 321h-90.78c6.12-3.64 11.06-9.04 14.08-15.52h62.62c3.02 6.48 7.96 11.88 14.08 15.52zM482.28 321h-90.78c6.12-3.64 11.06-9.04 14.08-15.52h62.62c3.02 6.48 7.96 11.88 14.08 15.52zM632.5 321h-90.78c6.12-3.64 11.06-9.04 14.08-15.52h62.62c3.02 6.48 7.96 11.88 14.08 15.52zM782.72 321h-90.78c6.12-3.64 11.06-9.04 14.08-15.52h62.62c3.02 6.48 7.96 11.88 14.08 15.52zM939.76 305.48v15.52h-97.6c6.12-3.64 11.06-9.04 14.08-15.52h83.52zM84.24 274.82h80.14v15.5H84.24zM258.74 274.82h55.86v15.5h-55.86zM408.96 274.82h55.86v15.5h-55.86zM559.18 274.82h55.86v15.5h-55.86zM709.4 274.82h55.86v15.5H709.4zM859.62 274.82h80.14v15.5h-80.14z" fill="#FFFFFF" opacity=".3" p-id="46460"></path><path d="M84.24 245.3h80.14v15.5H84.24zM258.74 245.3h55.86v15.5h-55.86zM408.96 245.3h55.86v15.5h-55.86zM559.18 245.3h55.86v15.5h-55.86zM709.4 245.3h55.86v15.5H709.4zM859.62 245.3h80.14v15.5h-80.14z" fill="#FFFFFF" opacity=".3" p-id="46461"></path></svg>