<?xml version="1.0" standalone="no"?><!DOCTYPE svg PUBLIC "-//W3C//DTD SVG 1.1//EN" "http://www.w3.org/Graphics/SVG/1.1/DTD/svg11.dtd"><svg t="1625812542108" class="icon" viewBox="0 0 1024 1024" version="1.1" xmlns="http://www.w3.org/2000/svg" p-id="107942" xmlns:xlink="http://www.w3.org/1999/xlink" width="200" height="200"><defs><style type="text/css"></style></defs><path d="M827.9 418.16h-36.32v-97.14c0-154.16-125.42-279.58-279.58-279.58S232.42 166.86 232.42 321.02v97.14H196.1c-31.12 0-56.46 25.34-56.46 56.46v451.5c0 31.12 25.34 56.44 56.46 56.44h631.8c31.12 0 56.46-25.32 56.46-56.44V474.62c0-31.12-25.34-56.46-56.46-56.46z m-575.48-97.14c0-143.14 116.44-259.58 259.58-259.58s259.58 116.44 259.58 259.58v97.14h-63.2v-103.12c0-108.28-88.1-196.38-196.38-196.38s-196.38 88.1-196.38 196.38v103.12h-63.2v-97.14z m435.96-5.98v103.12H335.62v-103.12c0-97.26 79.12-176.38 176.38-176.38s176.38 79.12 176.38 176.38z m175.98 161.2h-64.34c-5.52 0-10 4.48-10 10s4.48 10 10 10h64.34v33.52h-165.98c-5.52 0-10 4.48-10 10 0 5.54 4.48 10 10 10h165.98v33.54h-165.98c-5.52 0-10 4.48-10 10s4.48 10 10 10h165.98v33.54h-82.78c-5.52 0-10 4.46-10 10 0 5.52 4.48 10 10 10h82.78v33.52h-82.78c-5.52 0-10 4.48-10 10s4.48 10 10 10h82.78v33.54h-82.78c-5.52 0-10 4.48-10 10s4.48 10 10 10h82.78v33.54h-165.98c-5.52 0-10 4.46-10 10 0 5.52 4.48 10 10 10h165.98v33.52h-165.98c-5.52 0-10 4.48-10 10s4.48 10 10 10h165.98v33.54h-64.34c-5.52 0-10 4.48-10 10s4.48 10 10 10h64.34v1.62c0 20.1-16.36 36.44-36.46 36.44H196.1c-20.1 0-36.46-16.34-36.46-36.44v-1.62h64.34c5.52 0 10-4.48 10-10s-4.48-10-10-10H159.64v-33.54h165.98c5.52 0 10-4.48 10-10s-4.48-10-10-10H159.64v-33.52h165.98c5.52 0 10-4.48 10-10 0-5.54-4.48-10-10-10H159.64v-33.54h82.78c5.52 0 10-4.48 10-10s-4.48-10-10-10H159.64v-33.54h82.78c5.52 0 10-4.48 10-10s-4.48-10-10-10H159.64v-33.52h82.78c5.52 0 10-4.48 10-10 0-5.54-4.48-10-10-10H159.64v-33.54h165.98c5.52 0 10-4.48 10-10s-4.48-10-10-10H159.64v-33.54h165.98c5.52 0 10-4.46 10-10 0-5.52-4.48-10-10-10H159.64v-33.52h64.34c5.52 0 10-4.48 10-10s-4.48-10-10-10H159.64v-1.62c0-20.1 16.36-36.46 36.46-36.46h631.8c20.1 0 36.46 16.36 36.46 36.46v1.62z" fill="#23130D" p-id="107943"></path><path d="M771.58 321.02v97.14h-63.2v-103.12c0-108.28-88.1-196.38-196.38-196.38s-196.38 88.1-196.38 196.38v103.12h-63.2v-97.14c0-143.14 116.44-259.58 259.58-259.58s259.58 116.44 259.58 259.58z" fill="#E1E1E5" p-id="107944"></path><path d="M771.58 321.02v28c0-143.14-116.44-259.58-259.58-259.58s-259.58 116.44-259.58 259.58v-28c0-143.14 116.44-259.58 259.58-259.58s259.58 116.44 259.58 259.58z" fill="#23130D" opacity=".2" p-id="107945"></path><path d="M800.02 476.24h64.34v-1.62c0-20.1-16.36-36.46-36.46-36.46H196.1c-20.1 0-36.46 16.36-36.46 36.46v1.62h64.34c5.52 0 10 4.48 10 10s-4.48 10-10 10H159.64v33.52h165.98c5.52 0 10 4.48 10 10 0 5.54-4.48 10-10 10H159.64v33.54h165.98c5.52 0 10 4.48 10 10s-4.48 10-10 10H159.64v33.54h82.78c5.52 0 10 4.46 10 10 0 5.52-4.48 10-10 10H159.64v33.52h82.78c5.52 0 10 4.48 10 10s-4.48 10-10 10H159.64v33.54h82.78c5.52 0 10 4.48 10 10s-4.48 10-10 10H159.64v33.54h165.98c5.52 0 10 4.46 10 10 0 5.52-4.48 10-10 10H159.64v33.52h165.98c5.52 0 10 4.48 10 10s-4.48 10-10 10H159.64v33.54h64.34c5.52 0 10 4.48 10 10s-4.48 10-10 10H159.64v1.62c0 20.1 16.36 36.44 36.46 36.44h631.8c20.1 0 36.46-16.34 36.46-36.44v-1.62h-64.34c-5.52 0-10-4.48-10-10s4.48-10 10-10h64.34v-33.54h-165.98c-5.52 0-10-4.48-10-10s4.48-10 10-10h165.98v-33.52h-165.98c-5.52 0-10-4.48-10-10 0-5.54 4.48-10 10-10h165.98v-33.54h-82.78c-5.52 0-10-4.48-10-10s4.48-10 10-10h82.78v-33.54h-82.78c-5.52 0-10-4.48-10-10s4.48-10 10-10h82.78v-33.52h-82.78c-5.52 0-10-4.48-10-10 0-5.54 4.48-10 10-10h82.78v-33.54h-165.98c-5.52 0-10-4.48-10-10s4.48-10 10-10h165.98v-33.54h-165.98c-5.52 0-10-4.46-10-10 0-5.52 4.48-10 10-10h165.98v-33.52h-64.34c-5.52 0-10-4.48-10-10s4.48-10 10-10zM571.96 718.9v97.5c0 33.06-26.9 59.96-59.96 59.96s-59.96-26.9-59.96-59.96v-97.5c-27.98-19.56-44.5-51.14-44.5-85.54 0-57.6 46.86-104.46 104.46-104.46s104.46 46.86 104.46 104.46c0 34.4-16.52 65.98-44.5 85.54z" fill="#F9C139" p-id="107946"></path><path d="M512 508.9c-68.62 0-124.46 55.84-124.46 124.46 0 37 16.46 71.92 44.5 95.4v87.64c0 44.1 35.86 79.96 79.96 79.96s79.96-35.86 79.96-79.96v-87.64c28.04-23.48 44.5-58.4 44.5-95.4 0-68.62-55.84-124.46-124.46-124.46z m59.96 210v97.5c0 33.06-26.9 59.96-59.96 59.96s-59.96-26.9-59.96-59.96v-97.5c-27.98-19.56-44.5-51.14-44.5-85.54 0-57.6 46.86-104.46 104.46-104.46s104.46 46.86 104.46 104.46c0 34.4-16.52 65.98-44.5 85.54z m-59.96-210c-68.62 0-124.46 55.84-124.46 124.46 0 37 16.46 71.92 44.5 95.4v87.64c0 44.1 35.86 79.96 79.96 79.96s79.96-35.86 79.96-79.96v-87.64c28.04-23.48 44.5-58.4 44.5-95.4 0-68.62-55.84-124.46-124.46-124.46z m59.96 210v97.5c0 33.06-26.9 59.96-59.96 59.96s-59.96-26.9-59.96-59.96v-97.5c-27.98-19.56-44.5-51.14-44.5-85.54 0-57.6 46.86-104.46 104.46-104.46s104.46 46.86 104.46 104.46c0 34.4-16.52 65.98-44.5 85.54z m-59.96-210c-68.62 0-124.46 55.84-124.46 124.46 0 37 16.46 71.92 44.5 95.4v87.64c0 44.1 35.86 79.96 79.96 79.96s79.96-35.86 79.96-79.96v-87.64c28.04-23.48 44.5-58.4 44.5-95.4 0-68.62-55.84-124.46-124.46-124.46z m59.96 210v97.5c0 33.06-26.9 59.96-59.96 59.96s-59.96-26.9-59.96-59.96v-97.5c-27.98-19.56-44.5-51.14-44.5-85.54 0-57.6 46.86-104.46 104.46-104.46s104.46 46.86 104.46 104.46c0 34.4-16.52 65.98-44.5 85.54z" opacity=".2" p-id="107947"></path><path d="M512 528.9c-57.6 0-104.46 46.86-104.46 104.46 0 34.4 16.52 65.98 44.5 85.54v97.5c0 33.06 26.9 59.96 59.96 59.96s59.96-26.9 59.96-59.96v-97.5c27.98-19.56 44.5-51.14 44.5-85.54 0-57.6-46.86-104.46-104.46-104.46z m44.66 176.14a10.01 10.01 0 0 0-4.7 8.48v102.88c0 22.02-17.92 39.96-39.96 39.96s-39.96-17.94-39.96-39.96v-102.88c0-3.44-1.78-6.66-4.7-8.48-24.92-15.54-39.8-42.34-39.8-71.68 0-46.58 37.88-84.46 84.46-84.46s84.46 37.88 84.46 84.46c0 29.34-14.88 56.14-39.8 71.68z" fill="#23130D" p-id="107948"></path></svg>