<?xml version="1.0" standalone="no"?><!DOCTYPE svg PUBLIC "-//W3C//DTD SVG 1.1//EN" "http://www.w3.org/Graphics/SVG/1.1/DTD/svg11.dtd"><svg t="1625811973395" class="icon" viewBox="0 0 1024 1024" version="1.1" xmlns="http://www.w3.org/2000/svg" p-id="46774" xmlns:xlink="http://www.w3.org/1999/xlink" width="200" height="200"><defs><style type="text/css"></style></defs><path d="M522 69V34.68c0-5.52-4.48-10-10-10s-10 4.48-10 10V69c-110.38 2.52-213.8 46.68-292.14 125.02-80.7 80.7-125.14 188-125.14 302.14 0 5.52 4.48 10 10 10s10-4.48 10-10c0-51.48 42.32-93.34 94.32-93.34 47.78 0 87.36 35.34 93.48 81-0.06 4.1-0.1 8.22-0.1 12.34 0 5.52 4.48 10 10 10 0.16 0 0.3-0.04 0.46-0.06 0.16 0.02 0.32 0.06 0.48 0.06 2.76 0 5.26-1.12 7.08-2.92 1.8-1.82 2.92-4.32 2.92-7.08v-0.04c0.02-51.46 42.32-93.3 94.32-93.3S502 444.68 502 496.16v83.42h-117.48c-0.44 0-0.86 0.08-1.3 0.12-0.2 0.04-0.4 0.04-0.62 0.08-0.5 0.08-0.96 0.26-1.44 0.42l-0.42 0.12c-0.54 0.24-1.06 0.52-1.56 0.84-0.04 0.02-0.1 0.04-0.16 0.08-0.58 0.38-1.12 0.84-1.62 1.34l-116.98 116.98c-0.46 0.46-0.88 0.96-1.24 1.52-0.16 0.24-0.28 0.52-0.42 0.78-0.18 0.3-0.36 0.6-0.5 0.94-0.14 0.34-0.22 0.68-0.32 1.02-0.08 0.28-0.2 0.56-0.24 0.84-0.14 0.66-0.2 1.3-0.2 1.96v282.7c0 5.52 4.48 10 10 10h282.68c0.42 0 0.8-0.08 1.2-0.12 0.24-0.04 0.48-0.04 0.74-0.08 0.44-0.08 0.88-0.24 1.3-0.4 0.2-0.06 0.38-0.08 0.56-0.16 0.48-0.2 0.94-0.46 1.38-0.72 0.1-0.08 0.24-0.12 0.34-0.2 0.58-0.38 1.12-0.82 1.6-1.3l116.94-116.94c0.5-0.5 0.94-1.04 1.32-1.62 0.06-0.1 0.1-0.22 0.18-0.32 0.26-0.44 0.52-0.9 0.72-1.4 0.08-0.18 0.12-0.4 0.2-0.6 0.14-0.4 0.28-0.82 0.36-1.26 0.08-0.34 0.08-0.7 0.12-1.06 0.02-0.28 0.08-0.56 0.08-0.86V589.58c0-0.32-0.06-0.6-0.08-0.92-0.04-0.34-0.04-0.68-0.12-1.02-0.08-0.44-0.24-0.86-0.38-1.3-0.06-0.18-0.1-0.38-0.18-0.56-0.2-0.5-0.46-0.98-0.76-1.44-0.06-0.1-0.08-0.18-0.14-0.28-0.74-1.12-1.7-2.08-2.82-2.82-0.08-0.04-0.16-0.08-0.22-0.12-0.48-0.3-0.98-0.58-1.5-0.78-0.16-0.08-0.32-0.1-0.48-0.16-0.46-0.16-0.92-0.32-1.4-0.4-0.22-0.06-0.44-0.04-0.66-0.08-0.42-0.04-0.82-0.12-1.26-0.12H522v-83.42c0-51.48 42.32-93.34 94.32-93.34s94.32 41.86 94.32 93.34c0 5.52 4.48 10 10 10 0.16 0 0.3-0.04 0.46-0.06 0.16 0.02 0.32 0.06 0.48 0.06 5.52 0 10-4.48 10-10 0-4.12-0.04-8.24-0.1-12.34 6.12-45.66 45.7-81 93.48-81 52 0 94.32 41.86 94.32 93.34 0 5.52 4.48 10 10 10 2.76 0 5.26-1.12 7.08-2.92 1.8-1.82 2.92-4.32 2.92-7.08C939.28 263.9 753 74.34 522 69zM294.68 434.16c-20.44-30.88-55.66-51.34-95.64-51.34-35.28 0-66.88 15.94-87.86 40.92C140.82 259.16 269.7 128.66 433.4 96.52c-29.34 21.56-56.06 55.36-78.54 100.08-32.8 65.34-53.6 148.06-60.18 237.56z m113-51.34c-38.06 0-71.82 18.54-92.6 46.98 6.84-84.64 26.7-162.58 57.66-224.22C408.1 135.16 453.68 94.36 502 89.4v342.8c-20.62-29.8-55.2-49.38-94.32-49.38z m-19 216.76h70.52l-97.06 97.04h-70.5l97.04-97.04z m151.5 379.74H277.5V716.62h262.68v262.7z m117.04-111.2l-97.04 97.04v-254.4l97.04-97.04v254.4z m-14.14-268.54l-97.04 97.04h-70.52l97.04-97.04h70.52z m-98.8 0l-97.04 97.04h-56.8l97.04-97.04h56.8z m72.04-216.76c-39.12 0-73.7 19.58-94.32 49.38V89.4c48.32 4.96 93.9 45.76 129.26 116.18 30.96 61.64 50.82 139.58 57.66 224.24-20.8-28.46-54.54-47-92.6-47z m208.64 0c-39.98 0-75.2 20.46-95.64 51.34-6.58-89.5-27.38-172.22-60.18-237.56-22.48-44.72-49.2-78.52-78.54-100.08 163.7 32.14 292.58 162.64 322.22 327.22-20.98-24.98-52.58-40.92-87.86-40.92z" fill="#23130D" p-id="46775"></path><path d="M459.2 599.58l-97.06 97.04h-70.5l97.04-97.04z" fill="#F8D3C9" p-id="46776"></path><path d="M544.28 599.58l-97.04 97.04h-56.8l97.04-97.04z" fill="#E1E1E5" p-id="46777"></path><path d="M643.08 599.58l-97.04 97.04h-70.52l97.04-97.04z" fill="#F8D3C9" p-id="46778"></path><path d="M435.054 609.58l-77.056 77.04h-42.216l77.04-77.04h42.232m24.146-10h-70.52l-97.04 97.04h70.5l97.06-97.04zM618.938 609.58l-77.04 77.04h-42.236l77.04-77.04h42.236m24.142-10h-70.52l-97.04 97.04h70.52l97.04-97.04z" opacity=".2" p-id="46779"></path><path d="M277.5 716.62h262.68v262.7H277.5zM657.22 613.72v254.4l-6.52 6.52-10.52 10.52-10.74 10.74-63 63-6.26 6.26v-254.4l6.26-6.26 63-63 10.74-10.74 10.52-10.52z" fill="#CC7B5A" p-id="46780"></path><path d="M530.18 726.62v242.7H287.5V726.62h242.68m10-10H277.5v262.7h262.68V716.62zM647.22 637.862v226.116l-77.04 77.04V714.902l77.04-77.04m10-24.142l-97.04 97.04v254.4l97.04-97.04v-254.4z" opacity=".2" p-id="46781"></path><path d="M912.82 423.74c-20.98-24.98-52.58-40.92-87.86-40.92-39.98 0-75.2 20.46-95.64 51.34-6.58-89.5-27.38-172.22-60.18-237.56-22.48-44.72-49.2-78.52-78.54-100.08 163.7 32.14 292.58 162.64 322.22 327.22z" fill="#EC7063" p-id="46782"></path><path d="M708.92 429.82c-20.8-28.46-54.54-47-92.6-47-39.12 0-73.7 19.58-94.32 49.38V89.4c48.32 4.96 93.9 45.76 129.26 116.18 30.96 61.64 50.82 139.58 57.66 224.24z" fill="#E1E1E5" p-id="46783"></path><path d="M502 89.4v342.8c-20.62-29.8-55.2-49.38-94.32-49.38-38.06 0-71.82 18.54-92.6 46.98 6.84-84.64 26.7-162.58 57.66-224.22C408.1 135.16 453.68 94.36 502 89.4z" fill="#EC7063" p-id="46784"></path><path d="M433.4 96.52c-29.34 21.56-56.06 55.36-78.54 100.08-32.8 65.34-53.6 148.06-60.18 237.56-20.44-30.88-55.66-51.34-95.64-51.34-35.28 0-66.88 15.94-87.86 40.92C140.82 259.16 269.7 128.66 433.4 96.52z" fill="#E1E1E5" p-id="46785"></path><path d="M502 89.4v3.04c-42.2 11.54-81.62 50.68-112.98 113.14-28.54 56.86-47.66 127.6-55.82 204.68a114.19 114.19 0 0 0-18.12 19.54c6.84-84.64 26.7-162.58 57.66-224.22C408.1 135.16 453.68 94.36 502 89.4zM433.4 96.52c-2.28 1.68-4.54 3.42-6.78 5.24-146.5 37.78-261.32 155.18-295.26 303.14a114.088 114.088 0 0 0-20.18 18.84C140.82 259.16 269.7 128.66 433.4 96.52z" fill="#FFFFFF" p-id="46786"></path><path d="M522 89.4v3.04c42.2 11.54 81.62 50.68 112.98 113.14 28.54 56.86 47.66 127.6 55.82 204.68 6.78 5.78 12.86 12.34 18.12 19.54-6.84-84.64-26.7-162.58-57.66-224.22C615.9 135.16 570.32 94.36 522 89.4zM590.6 96.52c2.28 1.68 4.54 3.42 6.78 5.24 146.5 37.78 261.32 155.18 295.26 303.14 7.48 5.44 14.24 11.78 20.18 18.84-29.64-164.58-158.52-295.08-322.22-327.22z" opacity=".2" p-id="46787"></path><path d="M277.5 716.62h3.66v262.7h-3.66zM290.88 716.62h10.74v262.7h-10.74zM312.14 716.62h10.74v262.7h-10.74zM333.38 716.62h10.76v262.7h-10.76zM354.64 716.62h10.76v262.7h-10.76zM375.9 716.62h10.76v262.7h-10.76zM397.16 716.62h10.76v262.7h-10.76zM418.42 716.62h10.76v262.7h-10.76zM439.68 716.62h10.76v262.7h-10.76z" opacity=".1" p-id="46788"></path><path d="M460.16 716.62h10.74v262.7h-10.74zM481.42 716.62h10.74v262.7h-10.74zM502.68 716.62h10.74v262.7h-10.74zM523.94 716.62h10.74v262.7h-10.74zM577.2 693.74v254.4l-10.76 10.76v-254.4zM598.46 672.48v254.4l-10.76 10.76v-254.4zM619.72 651.22v254.4l-10.76 10.76v-254.4z" opacity=".1" p-id="46789"></path><path d="M640.18 630.76v254.4l-10.74 10.74v-254.4zM657.22 613.72v254.4l-6.52 6.52v-254.4z" opacity=".1" p-id="46790"></path></svg>