<?xml version="1.0" standalone="no"?><!DOCTYPE svg PUBLIC "-//W3C//DTD SVG 1.1//EN" "http://www.w3.org/Graphics/SVG/1.1/DTD/svg11.dtd"><svg t="1625812179972" class="icon" viewBox="0 0 1024 1024" version="1.1" xmlns="http://www.w3.org/2000/svg" p-id="53694" xmlns:xlink="http://www.w3.org/1999/xlink" width="200" height="200"><defs><style type="text/css"></style></defs><path d="M638.32 215.68a10 10 0 0 1-10-10c0-65.242-53.078-118.32-118.32-118.32a10 10 0 0 1 0-20c76.27 0 138.32 62.05 138.32 138.32a10 10 0 0 1-10 10z" fill="#FFFFFF" opacity=".4" p-id="53695"></path><path d="M844.82 434.8c-0.02-0.1-0.06-0.16-0.08-0.26-0.12-0.54-0.28-1.08-0.5-1.6-0.06-0.16-0.16-0.3-0.22-0.44-0.22-0.44-0.42-0.88-0.7-1.28-0.12-0.2-0.3-0.36-0.44-0.54-0.24-0.32-0.48-0.66-0.78-0.96-0.26-0.26-0.54-0.44-0.8-0.66-0.24-0.18-0.46-0.4-0.7-0.58-0.34-0.22-0.7-0.38-1.06-0.56-0.24-0.12-0.44-0.26-0.68-0.36-0.38-0.16-0.8-0.26-1.2-0.38-0.24-0.06-0.44-0.14-0.66-0.18-0.66-0.14-1.32-0.2-1.98-0.2H572.7l72.8-128.2c20.3-28.38 31.04-61.84 31.04-96.84 0-91.8-74.72-166.5-166.54-166.5s-166.52 74.7-166.52 166.5c0 35 10.7 68.46 30.98 96.78l72.84 128.26H314.4c-0.64 0-1.28 0.06-1.9 0.2-0.24 0.04-0.46 0.12-0.68 0.18-0.4 0.12-0.82 0.22-1.2 0.38-0.22 0.1-0.4 0.22-0.6 0.32-0.38 0.18-0.78 0.36-1.14 0.62-0.12 0.08-0.22 0.2-0.36 0.28-0.38 0.3-0.78 0.58-1.14 0.94l-125.48 125.44c-1.98 1.98-2.94 4.58-2.92 7.18v416.4c0 5.52 4.48 10 10 10H709.56c0.66 0 1.32-0.06 1.96-0.2 0.3-0.06 0.58-0.16 0.88-0.26 0.32-0.1 0.66-0.16 0.98-0.3 0.4-0.16 0.8-0.4 1.18-0.62 0.16-0.1 0.36-0.18 0.52-0.28 0.58-0.38 1.12-0.82 1.6-1.32l125.4-125.36c0.46-0.48 0.88-0.98 1.26-1.54 0.2-0.3 0.34-0.64 0.52-0.96 0.12-0.24 0.28-0.48 0.4-0.74 0.18-0.46 0.3-0.94 0.42-1.42 0.04-0.14 0.1-0.28 0.14-0.44 0.14-0.68 0.2-1.38 0.2-2.08V436.88c0-0.7-0.06-1.4-0.2-2.08z m-453.24-146.6c-0.16-0.32-0.36-0.62-0.58-0.9-18-25-27.52-54.58-27.52-85.54 0-80.78 65.72-146.5 146.52-146.5s146.54 65.72 146.54 146.5c0 30.8-9.44 60.24-27.3 85.2-0.3 0.38-0.58 0.8-0.84 1.24L510 496.68 391.58 288.2z m-87.12 172.72v91.32h-91.34l91.34-91.32z m222.66 507.82h-155.7v-128.28l72.72 43.64c3.16 1.9 7.12 1.9 10.28 0l72.7-43.64v128.28z m172.44 0h-152.44V822.8c0-3.62-1.94-6.94-5.08-8.72a10.036 10.036 0 0 0-10.08 0.14l-82.68 49.64-82.7-49.64a10.036 10.036 0 0 0-10.08-0.14 10.01 10.01 0 0 0-5.08 8.72v145.94H198.98V572.24h500.58v396.5z m5.84-416.5H324.46V446.8h134.2l42.64 75.06c1.78 3.12 5.1 5.06 8.7 5.06s6.92-1.94 8.7-5.06l42.64-75.06h249.54l-105.48 105.44z m119.62 296.92l-105.46 105.44V566.36l105.46-105.42v388.22z" fill="#23130D" p-id="53696"></path><path d="M510 55.26c-80.8 0-146.52 65.72-146.52 146.5 0 30.96 9.52 60.54 27.52 85.54 0.22 0.28 0.42 0.58 0.58 0.9L510 496.68l118.4-208.48c0.26-0.44 0.54-0.86 0.84-1.24 17.86-24.96 27.3-54.4 27.3-85.2 0-80.78-65.74-146.5-146.54-146.5z m0 244.76c-52.02 0-94.34-42.32-94.34-94.34S457.98 111.34 510 111.34s94.34 42.32 94.34 94.34-42.32 94.34-94.34 94.34z" fill="#EC7063" p-id="53697"></path><path d="M427 287.3c-18-25-27.52-54.58-27.52-85.54 0-74.68 56.18-136.5 128.52-145.4-5.9-0.72-11.9-1.1-18-1.1-80.8 0-146.52 65.72-146.52 146.5 0 30.96 9.52 60.54 27.52 85.54 0.22 0.28 0.42 0.58 0.58 0.9L510 496.68l18-31.7-100.42-176.78c-0.16-0.32-0.36-0.62-0.58-0.9z" opacity=".2" p-id="53698"></path><path d="M304.46 460.92v91.32h-91.34z" fill="#F8D3C9" p-id="53699"></path><path d="M304.46 460.92v32l-59.34 59.32h-32z" opacity=".2" p-id="53700"></path><path d="M527.12 840.46v128.28h-155.7v-128.28l6.98 4.18 10.6 6.36 10.84 6.52 10.62 6.36 10.84 6.52 10.6 6.36 10.84 6.5 1.4 0.84c2.82 1.7 6.26 1.88 9.22 0.54 0.36-0.16 0.72-0.34 1.06-0.54l9.78-5.88 10.6-6.36 10.84-6.5 10.62-6.38 10.84-6.5 9.8-5.88 10.22-6.14z" fill="#E1E1E5" p-id="53701"></path><path d="M825.02 460.94v388.22l-105.46 105.44V566.36z" fill="#CC7B5A" p-id="53702"></path><path d="M810.88 446.8l-105.48 105.44H324.46V446.8h134.2l42.64 75.06c1.78 3.12 5.1 5.06 8.7 5.06s6.92-1.94 8.7-5.06l42.64-75.06h249.54z" fill="#F8D3C9" p-id="53703"></path><path d="M810.88 446.8l-30.02 30H561.34l-42.64 75.06c-0.08 0.12-0.16 0.26-0.26 0.38h-16.88c-0.1-0.12-0.18-0.26-0.26-0.38l-42.64-75.06h-134.2v-30h134.2l42.64 75.06c1.78 3.12 5.1 5.06 8.7 5.06s6.92-1.94 8.7-5.06l42.64-75.06h249.54z" opacity=".2" p-id="53704"></path><path d="M699.56 572.24v396.5h-152.44V822.8c0-3.62-1.94-6.94-5.08-8.72a10.036 10.036 0 0 0-10.08 0.14l-82.68 49.64-82.7-49.64a10.036 10.036 0 0 0-10.08-0.14 10.01 10.01 0 0 0-5.08 8.72v145.94H198.98V572.24h500.58z" fill="#E59D89" p-id="53705"></path><path d="M739.56 906.322l65.46-65.448V509.212l-65.46 65.434z" fill="#CC7B5A" opacity=".2" p-id="53706"></path><path d="M719.56 566.36V954.6l105.46-105.44V460.94l-105.46 105.42z m85.46 274.514l-65.46 65.448V574.646l65.46-65.436v331.664z" opacity=".2" p-id="53707"></path><path d="M331.42 822.8a30.07 30.07 0 0 1 15.218-26.118 30.22 30.22 0 0 1 14.79-3.89c5.438 0 10.778 1.48 15.444 4.278l72.408 43.462 72.386-43.46a30.03 30.03 0 0 1 30.154-0.44c9.47 5.368 15.3 15.376 15.3 26.166v125.94h112.44V592.24H218.98v356.5h112.44V822.8z" fill="#E59D89" opacity=".2" p-id="53708"></path><path d="M198.98 968.74h152.44V822.8c0-3.62 1.94-6.94 5.08-8.72a10.072 10.072 0 0 1 4.926-1.288c1.784 0 3.566 0.476 5.154 1.428l82.7 49.64 82.68-49.64a10 10 0 0 1 5.154-1.428c1.696 0 3.394 0.43 4.926 1.288 3.14 1.78 5.08 5.1 5.08 8.72v145.94h152.44V572.24H198.98v396.5z m20-376.5h460.58v356.5h-112.44V822.8c0-10.79-5.83-20.798-15.3-26.166a30.036 30.036 0 0 0-30.154 0.44l-72.386 43.46-72.408-43.462a30.028 30.028 0 0 0-15.444-4.278c-5.136 0-10.22 1.328-14.79 3.89a30.074 30.074 0 0 0-15.218 26.118v125.94h-112.44V592.24z" opacity=".2" p-id="53709"></path><path d="M510 111.34c-52.02 0-94.34 42.32-94.34 94.34s42.32 94.34 94.34 94.34 94.34-42.32 94.34-94.34S562.02 111.34 510 111.34z m0 168.68c-40.98 0-74.34-33.34-74.34-74.34 0-40.98 33.36-74.34 74.34-74.34 41 0 74.34 33.36 74.34 74.34 0 41-33.34 74.34-74.34 74.34z" fill="#23130D" p-id="53710"></path><path d="M378.4 844.64v124.1h-6.98v-128.28zM399.84 857.52v111.22h-10.84V851zM421.3 870.4v98.34h-10.84v-104.86zM442.74 883.26v85.48h-10.84v-91.98zM464.2 878.22v90.52h-10.84v-84.1c0.36-0.16 0.72-0.34 1.06-0.54l9.78-5.88zM485.64 865.36v103.38h-10.84v-96.88zM507.1 852.48v116.26h-10.84v-109.76z" opacity=".2" p-id="53711"></path><path d="M527.12 840.46v128.28h-10.22V846.6z" opacity=".2" p-id="53712"></path></svg>