<?xml version="1.0" standalone="no"?><!DOCTYPE svg PUBLIC "-//W3C//DTD SVG 1.1//EN" "http://www.w3.org/Graphics/SVG/1.1/DTD/svg11.dtd"><svg t="1625811994029" class="icon" viewBox="0 0 1024 1024" version="1.1" xmlns="http://www.w3.org/2000/svg" p-id="47416" xmlns:xlink="http://www.w3.org/1999/xlink" width="200" height="200"><defs><style type="text/css"></style></defs><path d="M933.34 572.86c-7-2.56-14.54-3.96-22.42-3.96h-45.22V445.6c0-23.78-12.1-44.8-30.46-57.22a68.74 68.74 0 0 0-38.58-11.8h-140.42v-84.9c0-5.54-4.48-10-10-10H57.84c-5.52 0-10 4.46-10 10v532.3c0 5.52 4.48 10 10 10h69.54c4.94 38.3 37.72 67.98 77.32 67.98 39.62 0 72.4-29.68 77.34-67.98h391.6c4.94 38.3 37.72 67.98 77.34 67.98 39.6 0 72.38-29.68 77.32-67.98h137.86c5.52 0 10-4.48 10-10v-52.7-137.14-0.02c0-28.1-17.86-52.1-42.82-61.26z m-277.1-176.28h140.42c10.04 0 19.38 3.04 27.16 8.24 13.18 8.78 21.88 23.78 21.88 40.78v123.3h-189.46v-172.32z m0 192.32h189.46v172.32H797.2a77.556 77.556 0 0 0-46.22-15.22c-17.3 0-33.3 5.66-46.24 15.22h-48.5v-172.32zM67.84 301.68h568.4V761.22H250.94c-12.96-9.56-28.94-15.22-46.24-15.22-17.28 0-33.28 5.66-46.22 15.22H67.84V301.68z m59.54 512.3H67.84v-32.76h71.7a77.678 77.678 0 0 0-12.16 32.76z m77.32 67.98c-31.96 0-57.98-26-57.98-57.98S172.74 766 204.7 766c31.98 0 58 26 58 57.98s-26.02 57.98-58 57.98z m468.94-67.98h-391.6c-1.56-11.98-5.8-23.1-12.16-32.76H685.8a77.678 77.678 0 0 0-12.16 32.76z m135.32 10.04c-0.04 31.96-26.04 57.94-57.98 57.94-31.98 0-58-26-58-57.98s26.02-57.98 58-57.98c31.94 0 57.94 25.98 57.98 57.94 0 0.02-0.02 0.02-0.02 0.04s0.02 0.04 0.02 0.04z m147.2-10.04h-127.86c-1.54-11.98-5.8-23.1-12.16-32.76h39.48c0.02 0 0.06 0.02 0.08 0.02h100.46v32.74z m0-52.76h-90.46v-172.32H910.92c6.24 0 12.18 1.26 17.6 3.56 16.22 6.88 27.64 22.96 27.64 41.66v127.1z" fill="#23130D" p-id="47417"></path><path d="M956.16 781.24v32.74h-127.86c-1.54-11.98-5.8-23.1-12.16-32.76h39.48c0.02 0 0.06 0.02 0.08 0.02h100.46zM139.54 781.22a77.678 77.678 0 0 0-12.16 32.76H67.84v-32.76h71.7z" fill="#5D5D5D" p-id="47418"></path><path d="M262.7 823.98c0 31.98-26.02 57.98-58 57.98-31.96 0-57.98-26-57.98-57.98S172.74 766 204.7 766c31.98 0 58 26 58 57.98z" fill="#E1E1E5" p-id="47419"></path><path d="M244.028 823.98c0 21.682-17.642 39.31-39.324 39.31-21.668 0-39.31-17.628-39.31-39.31s17.642-39.31 39.31-39.31c21.682 0 39.324 17.628 39.324 39.31zM685.8 781.22a77.678 77.678 0 0 0-12.16 32.76h-391.6c-1.56-11.98-5.8-23.1-12.16-32.76H685.8z" fill="#5D5D5D" p-id="47420"></path><path d="M808.94 823.98c0 0.02 0.02 0.04 0.02 0.04-0.04 31.96-26.04 57.94-57.98 57.94-31.98 0-58-26-58-57.98s26.02-57.98 58-57.98c31.94 0 57.94 25.98 57.98 57.94 0 0.02-0.02 0.02-0.02 0.04z" fill="#E1E1E5" p-id="47421"></path><path d="M956.16 634.12v127.1h-90.46v-172.32H910.92c6.24 0 12.18 1.26 17.6 3.56 16.22 6.88 27.64 22.96 27.64 41.66z" fill="#636368" p-id="47422"></path><path d="M956.16 634.12v127.1h-9.66v-117.44c0-18.7-11.42-34.78-27.64-41.66a44.912 44.912 0 0 0-17.6-3.56h-35.56v-9.66H910.92c6.24 0 12.18 1.26 17.6 3.56 16.22 6.88 27.64 22.96 27.64 41.66z" opacity=".2" p-id="47423"></path><path d="M656.24 588.9v172.32h48.5a77.572 77.572 0 0 1 46.24-15.22c17.28 0 33.28 5.66 46.22 15.22h48.5v-172.32h-189.46z m81.4 48.38h-45.7c-5.52 0-10-4.48-10-10s4.48-10 10-10h45.7c5.52 0 10 4.48 10 10s-4.48 10-10 10z" fill="#636368" p-id="47424"></path><path d="M656.24 588.9v13.34h189.46v-13.34h-189.46z" opacity=".2" p-id="47425"></path><path d="M845.7 445.6v123.3h-189.46v-172.32h140.42c10.04 0 19.38 3.04 27.16 8.24 13.18 8.78 21.88 23.78 21.88 40.78z" fill="#3594BF" p-id="47426"></path><path d="M796.66 406.58c7.718 0 15.188 2.266 21.616 6.562 10.91 7.268 17.424 19.402 17.424 32.458v113.3h-169.46v-152.32h130.42m0-10h-140.42v172.32h189.46V445.6c0-17-8.7-32-21.88-40.78a48.72 48.72 0 0 0-27.16-8.24z" opacity=".2" p-id="47427"></path><path d="M67.84 301.68v459.54h90.64a78.52 78.52 0 0 1 9.86-6.2c4.78-2.54 9.86-4.58 15.16-6.08 4.98-1.42 10.16-2.34 15.5-2.72 1.88-0.16 3.78-0.22 5.7-0.22 3.2 0 6.36 0.2 9.46 0.56 5.36 0.66 10.54 1.86 15.5 3.54 5.34 1.8 10.42 4.18 15.16 7.04 2.12 1.26 4.16 2.62 6.12 4.08h385.3v-182.28-0.04-277.22H67.84z m477.14 305.56c0 0.14-0.04 0.28-0.04 0.44-0.02 0.5-0.06 1-0.14 1.5-0.08 0.38-0.22 0.72-0.32 1.08-0.08 0.26-0.14 0.52-0.26 0.78-0.16 0.42-0.4 0.82-0.62 1.2-0.1 0.18-0.18 0.36-0.28 0.52-0.38 0.58-0.82 1.1-1.3 1.58l-6.84 6.84-15.5 15.5-15.16 15.16-46.18 46.18-15.16 15.16-9.44 9.44c-0.46 0.48-0.98 0.9-1.54 1.26-0.2 0.14-0.42 0.22-0.62 0.34-0.36 0.2-0.72 0.42-1.1 0.58-0.28 0.12-0.58 0.18-0.86 0.26-0.34 0.12-0.66 0.24-1.02 0.3-0.3 0.06-0.6 0.1-0.92 0.12-0.2 0.02-0.42 0.04-0.62 0.04-0.14 0-0.26 0.04-0.4 0.04H165c-5.52 0-10-4.48-10-10V453.92c0-0.66 0.08-1.32 0.2-1.96 0.06-0.28 0.16-0.56 0.26-0.84 0.1-0.34 0.18-0.7 0.32-1.02 0.12-0.34 0.3-0.62 0.48-0.92 0.14-0.28 0.26-0.56 0.44-0.82 0.34-0.5 0.74-1 1.16-1.44 0.04-0.02 0.06-0.04 0.08-0.08l10.4-10.4 15.16-15.16 15.5-15.5 15.16-15.14 15.5-15.5 15.16-15.16 21.4-21.4c0.48-0.5 1.02-0.96 1.6-1.34 0.06-0.04 0.14-0.06 0.2-0.1 0.5-0.32 1-0.58 1.54-0.8 0.12-0.06 0.26-0.08 0.4-0.14 0.48-0.16 0.96-0.32 1.46-0.42 0.18-0.04 0.34-0.04 0.52-0.06 0.46-0.06 0.92-0.14 1.4-0.14h261.64c0.06 0 0.14 0 0.2 0.02 0.38 0 0.74 0.06 1.1 0.12 0.22 0.02 0.42 0.02 0.62 0.06 0.48 0.08 0.94 0.24 1.4 0.4 0.16 0.06 0.32 0.08 0.48 0.16 0.5 0.2 0.98 0.46 1.44 0.74 0.08 0.06 0.18 0.1 0.28 0.16 1.12 0.74 2.08 1.7 2.82 2.82 0.08 0.14 0.14 0.28 0.22 0.42 0.26 0.42 0.5 0.84 0.68 1.3 0.1 0.24 0.16 0.48 0.24 0.72 0.12 0.38 0.26 0.74 0.34 1.14 0.08 0.48 0.12 0.98 0.14 1.48 0 0.16 0.04 0.3 0.04 0.46v261.66z" fill="#E1E1E5" p-id="47428"></path><path d="M628.24 309.68V753.22H253.512a78.15 78.15 0 0 0-4.56-2.93 85.006 85.006 0 0 0-16.726-7.768 86.35 86.35 0 0 0-17.144-3.91 90.164 90.164 0 0 0-10.384-0.614c-2.3 0-4.37 0.08-6.32 0.244a84.334 84.334 0 0 0-17.058 2.998 85.02 85.02 0 0 0-16.722 6.706 86.196 86.196 0 0 0-8.678 5.272H75.84V309.68h552.4m-357.184 18.086a10 10 0 0 0-1.264 0.18c-0.96 0.196-1.766 0.464-2.358 0.662l-0.18 0.06a9.02 9.02 0 0 0-0.86 0.322 17.168 17.168 0 0 0-2.248 1.138c-0.214 0.112-0.46 0.25-0.708 0.418-1.04 0.68-2.022 1.496-2.922 2.424l-21.352 21.352-15.16 15.16-15.496 15.496-15.164 15.144-15.5 15.5-15.16 15.16-9.56 9.56-0.086 0.042-0.9 0.942-0.782 0.782-0.098 0.196a19.368 19.368 0 0 0-1.138 1.5c-0.43 0.62-0.72 1.188-0.898 1.552-0.242 0.408-0.584 1.02-0.884 1.802a13.11 13.11 0 0 0-0.508 1.542 13.012 13.012 0 0 0-0.452 1.582l-0.022 0.102-0.018 0.102a18.534 18.534 0 0 0-0.336 3.434v261.64c0 9.926 8.074 18 18 18h261.66c0.376 0 0.706-0.024 0.978-0.054 0.256-0.012 0.492-0.032 0.704-0.052 0.58-0.042 1.144-0.118 1.712-0.226a12.6 12.6 0 0 0 1.926-0.518c0.366-0.096 0.962-0.262 1.602-0.536 0.732-0.308 1.32-0.642 1.708-0.862l0.158-0.09c0.244-0.122 0.67-0.34 1.164-0.67a16.538 16.538 0 0 0 2.83-2.322l9.392-9.392 15.16-15.16 46.18-46.18 15.16-15.16 15.5-15.5 6.84-6.84a17.92 17.92 0 0 0 2.336-2.852l0.046-0.07 0.044-0.072c0.176-0.28 0.338-0.576 0.48-0.856 0.274-0.47 0.67-1.158 1.024-2.032a12.28 12.28 0 0 0 0.52-1.506l0.014-0.044 0.03-0.104 0.04-0.12c0.104-0.318 0.278-0.85 0.418-1.51l0.04-0.192 0.03-0.194c0.11-0.692 0.184-1.412 0.222-2.192 0.032-0.276 0.058-0.614 0.058-1.01V345.58c0-0.398-0.026-0.734-0.056-1.016a19.358 19.358 0 0 0-0.232-2.238l-0.022-0.128-0.026-0.128a14.35 14.35 0 0 0-0.498-1.806l-0.056-0.172-0.034-0.108-0.02-0.06a13.942 13.942 0 0 0-0.392-1.126 15.502 15.502 0 0 0-1.13-2.25 13.148 13.148 0 0 0-0.25-0.464l-0.126-0.22-0.14-0.212a17.9 17.9 0 0 0-5.084-5.086l-0.144-0.094-0.148-0.088a7.854 7.854 0 0 0-0.304-0.174 17.72 17.72 0 0 0-2.382-1.22 9.536 9.536 0 0 0-1.158-0.416 15.752 15.752 0 0 0-2.454-0.664 9.92 9.92 0 0 0-1.112-0.14 14.486 14.486 0 0 0-1.374-0.148 9.194 9.194 0 0 0-0.854-0.038H273.34c-0.94 0-1.716 0.108-2.232 0.18l-0.052 0.002M636.24 301.68H67.84v459.54h90.64a78.52 78.52 0 0 1 9.86-6.2c4.78-2.54 9.86-4.58 15.16-6.08 4.98-1.42 10.16-2.34 15.5-2.72 1.88-0.16 3.78-0.22 5.7-0.22 3.2 0 6.36 0.2 9.46 0.56 5.36 0.66 10.54 1.86 15.5 3.54 5.34 1.8 10.42 4.18 15.16 7.04 2.12 1.26 4.16 2.62 6.12 4.08h385.3v-182.28-0.04-277.22zM165 725.56c-5.52 0-10-4.48-10-10V453.92c0-0.66 0.08-1.32 0.2-1.96 0.06-0.28 0.16-0.56 0.26-0.84 0.1-0.34 0.18-0.7 0.32-1.02 0.12-0.34 0.3-0.62 0.48-0.92 0.14-0.28 0.26-0.56 0.44-0.82 0.34-0.5 0.74-1 1.16-1.44 0.04-0.02 0.06-0.04 0.08-0.08l10.4-10.4 15.16-15.16 15.5-15.5 15.16-15.14 15.5-15.5 15.16-15.16 21.4-21.4c0.48-0.5 1.02-0.96 1.6-1.34 0.06-0.04 0.14-0.06 0.2-0.1 0.5-0.32 1-0.58 1.54-0.8 0.12-0.06 0.26-0.08 0.4-0.14 0.48-0.16 0.96-0.32 1.46-0.42 0.18-0.04 0.34-0.04 0.52-0.06 0.46-0.06 0.92-0.14 1.4-0.14h261.64c0.06 0 0.14 0 0.2 0.02 0.38 0 0.74 0.06 1.1 0.12 0.22 0.02 0.42 0.02 0.62 0.06 0.48 0.08 0.94 0.24 1.4 0.4 0.16 0.06 0.32 0.08 0.48 0.16 0.5 0.2 0.98 0.46 1.44 0.74 0.08 0.06 0.18 0.1 0.28 0.16 1.12 0.74 2.08 1.7 2.82 2.82 0.08 0.14 0.14 0.28 0.22 0.42 0.26 0.42 0.5 0.84 0.68 1.3 0.1 0.24 0.16 0.48 0.24 0.72 0.12 0.38 0.26 0.74 0.34 1.14 0.08 0.48 0.12 0.98 0.14 1.48 0 0.16 0.04 0.3 0.04 0.46v261.66c0 0.14-0.04 0.28-0.04 0.44-0.02 0.5-0.06 1-0.14 1.5-0.08 0.38-0.22 0.72-0.32 1.08-0.08 0.26-0.14 0.52-0.26 0.78-0.16 0.42-0.4 0.82-0.62 1.2-0.1 0.18-0.18 0.36-0.28 0.52-0.38 0.58-0.82 1.1-1.3 1.58l-6.84 6.84-15.5 15.5-15.16 15.16-46.18 46.18-15.16 15.16-9.44 9.44c-0.46 0.48-0.98 0.9-1.54 1.26-0.2 0.14-0.42 0.22-0.62 0.34-0.36 0.2-0.72 0.42-1.1 0.58-0.28 0.12-0.58 0.18-0.86 0.26-0.34 0.12-0.66 0.24-1.02 0.3-0.3 0.06-0.6 0.1-0.92 0.12-0.2 0.02-0.42 0.04-0.62 0.04-0.14 0-0.26 0.04-0.4 0.04H165z" opacity=".2" p-id="47429"></path><path d="M747.64 627.28c0 5.52-4.48 10-10 10h-45.7c-5.52 0-10-4.48-10-10s4.48-10 10-10h45.7c5.52 0 10 4.48 10 10z" fill="#FFFFFF" p-id="47430"></path><path d="M544.94 345.12c-0.02-0.5-0.06-1-0.14-1.48-0.08-0.4-0.22-0.76-0.34-1.14-0.08-0.24-0.14-0.48-0.24-0.72a8.04 8.04 0 0 0-0.68-1.3c-0.08-0.14-0.14-0.28-0.22-0.42-0.74-1.12-1.7-2.08-2.82-2.82-0.1-0.06-0.2-0.1-0.28-0.16-0.46-0.28-0.94-0.54-1.44-0.74-0.16-0.08-0.32-0.1-0.48-0.16-0.46-0.16-0.92-0.32-1.4-0.4-0.2-0.04-0.4-0.04-0.62-0.06-0.42-0.06-0.84-0.14-1.3-0.14H273.34c-0.48 0-0.94 0.08-1.4 0.14-0.18 0.02-0.34 0.02-0.52 0.06-0.5 0.1-0.98 0.26-1.46 0.42-0.14 0.06-0.28 0.08-0.4 0.14-0.54 0.22-1.04 0.48-1.54 0.8-0.06 0.04-0.14 0.06-0.2 0.1-0.58 0.38-1.12 0.84-1.6 1.34l-108.28 108.26c-0.02 0.04-0.04 0.06-0.08 0.08-0.42 0.44-0.82 0.94-1.16 1.44-0.18 0.26-0.3 0.54-0.44 0.82-0.18 0.3-0.36 0.58-0.48 0.92-0.14 0.32-0.22 0.68-0.32 1.02-0.1 0.28-0.2 0.56-0.26 0.84-0.12 0.64-0.2 1.3-0.2 1.96v261.64c0 5.52 4.48 10 10 10h261.66c0.14 0 0.26-0.04 0.4-0.04 0.52-0.02 1.04-0.06 1.54-0.16 0.36-0.06 0.68-0.18 1.02-0.3 0.28-0.08 0.58-0.14 0.86-0.26 0.38-0.16 0.74-0.38 1.1-0.58 0.2-0.12 0.42-0.2 0.62-0.34 0.56-0.36 1.08-0.78 1.54-1.26l108.28-108.28c0.48-0.48 0.92-1 1.3-1.58 0.1-0.16 0.18-0.34 0.28-0.52 0.22-0.38 0.46-0.78 0.62-1.2 0.12-0.26 0.18-0.52 0.26-0.78 0.1-0.36 0.24-0.7 0.32-1.08 0.08-0.5 0.12-1 0.14-1.5 0-0.16 0.04-0.3 0.04-0.44V345.58c0-0.16-0.04-0.3-0.04-0.46z m-125.54 10.46l-88.34 88.34H280.6l88.32-88.34h50.48z m-94.2 108.34v83.68l-23.7-16.28c-0.04-0.04-0.08-0.04-0.14-0.08-0.32-0.22-0.68-0.38-1.02-0.56-0.26-0.12-0.48-0.28-0.74-0.38-0.3-0.12-0.62-0.2-0.92-0.28-0.32-0.1-0.62-0.22-0.94-0.28-0.3-0.04-0.6-0.06-0.88-0.08-0.34-0.04-0.68-0.1-1.02-0.1-0.32 0-0.64 0.06-0.98 0.1-0.3 0.02-0.62 0.02-0.92 0.08-0.32 0.06-0.62 0.18-0.92 0.26-0.32 0.1-0.64 0.18-0.96 0.3-0.24 0.1-0.46 0.26-0.7 0.38-0.36 0.18-0.72 0.34-1.06 0.56-0.04 0.04-0.08 0.04-0.12 0.08l-23.72 16.28v-83.68h58.74z m-47.72-108.34h63.16l-88.34 88.34H189.14l88.34-88.34z m47.72 349.98h-58.74v-83.68l23.7 16.28v0.02c0.4 0.26 0.8 0.5 1.22 0.7l0.42 0.18c0.28 0.12 0.56 0.24 0.86 0.34 0.16 0.06 0.34 0.1 0.5 0.16 0.28 0.08 0.56 0.14 0.84 0.18 0.16 0.04 0.34 0.06 0.5 0.1 0.4 0.04 0.82 0.08 1.24 0.08h0.16c0.42 0 0.84-0.04 1.24-0.08 0.16-0.04 0.34-0.06 0.5-0.1 0.28-0.04 0.56-0.1 0.84-0.18 0.16-0.06 0.34-0.1 0.5-0.16 0.3-0.1 0.58-0.22 0.88-0.34 0.12-0.06 0.26-0.1 0.38-0.18 0.44-0.2 0.84-0.44 1.24-0.7v-0.02l23.72-16.28v83.68z m91.46 0H345.2v-102.68-0.04c0-1.3-0.26-2.62-0.78-3.86-0.26-0.6-0.58-1.18-0.96-1.74 0 0 0-0.02-0.02-0.02-0.1-0.16-0.24-0.3-0.36-0.44-0.28-0.36-0.56-0.72-0.88-1.04-0.22-0.22-0.48-0.4-0.74-0.6-0.24-0.2-0.48-0.42-0.76-0.62a7.36 7.36 0 0 0-0.88-0.46c-0.28-0.16-0.54-0.32-0.84-0.44-0.34-0.12-0.68-0.22-1.02-0.32-0.28-0.08-0.54-0.18-0.84-0.24-0.5-0.1-1.02-0.12-1.54-0.14-0.12-0.02-0.24-0.04-0.38-0.04h-0.02c-1.3 0-2.62 0.26-3.86 0.78-0.62 0.26-1.2 0.58-1.74 0.96-0.02 0-0.02 0-0.04 0.02l-33.72 23.16-33.7-23.16c-0.02-0.02-0.02-0.02-0.04-0.02-0.54-0.38-1.12-0.7-1.74-0.96-1.24-0.52-2.56-0.78-3.86-0.78h-0.02c-0.14 0-0.26 0.02-0.4 0.04-0.5 0.02-1.02 0.04-1.54 0.14-0.28 0.06-0.54 0.16-0.8 0.24-0.36 0.1-0.7 0.18-1.04 0.32-0.28 0.12-0.54 0.28-0.82 0.42-0.3 0.16-0.62 0.3-0.9 0.5-0.26 0.16-0.5 0.38-0.74 0.56-0.26 0.22-0.54 0.42-0.78 0.64-0.3 0.32-0.56 0.66-0.84 1-0.12 0.16-0.28 0.3-0.4 0.48 0 0 0 0.02-0.02 0.02-0.36 0.56-0.68 1.14-0.94 1.74-0.52 1.24-0.78 2.56-0.78 3.86V705.56H175V463.92h71.46V566.64c0 0.66 0.06 1.32 0.2 1.98 0.26 1.32 0.8 2.54 1.54 3.62v0.02c0.32 0.48 0.68 0.88 1.06 1.28 0.1 0.1 0.18 0.18 0.28 0.26 0.4 0.4 0.84 0.78 1.32 1.1h0.02c0.46 0.32 0.96 0.58 1.48 0.82 0.12 0.04 0.24 0.1 0.36 0.14 0.5 0.22 1.04 0.38 1.58 0.5l0.36 0.06c0.58 0.12 1.18 0.18 1.78 0.18h0.02c0.6 0 1.2-0.06 1.8-0.18 0.18-0.02 0.34-0.08 0.52-0.12 0.42-0.1 0.82-0.22 1.22-0.38 0.18-0.06 0.36-0.12 0.52-0.2 0.46-0.2 0.88-0.44 1.32-0.7 0.08-0.06 0.16-0.1 0.24-0.14 0-0.02 0.02-0.02 0.04-0.02l33.72-23.16 33.7 23.14 0.04 0.04c0.08 0.04 0.18 0.08 0.26 0.14 0.42 0.28 0.86 0.5 1.3 0.7 0.16 0.08 0.34 0.14 0.5 0.2 0.42 0.16 0.82 0.28 1.24 0.38 0.18 0.04 0.34 0.1 0.52 0.12 0.6 0.12 1.2 0.18 1.8 0.18h0.02c0.6 0 1.18-0.06 1.78-0.18l0.36-0.06c0.54-0.12 1.06-0.28 1.58-0.5 0.12-0.04 0.24-0.1 0.36-0.14 0.5-0.24 1-0.5 1.48-0.82h0.02c0.48-0.32 0.9-0.7 1.32-1.1a1.6 1.6 0 0 0 0.26-0.26c0.38-0.4 0.74-0.8 1.06-1.28 0.02 0 0.02-0.02 0.02-0.02 0.4-0.6 0.74-1.24 1.02-1.92 0.48-1.18 0.72-2.44 0.72-3.68V463.92h71.46v241.64z m5.86-261.64h-63.18l88.34-88.34h63.16l-88.32 88.34z m102.46 159.18l-88.32 88.32V458.06l88.32-88.34v233.38z" fill="#23130D" p-id="47431"></path><path d="M340.64 355.58l-88.34 88.34H189.14l88.34-88.34z" fill="#F8D3C9" p-id="47432"></path><path d="M419.4 355.58l-88.34 88.34H280.6l88.32-88.34z" fill="#F9C139" p-id="47433"></path><path d="M510.84 355.58l-88.32 88.34h-63.18l88.34-88.34z" fill="#F8D3C9" p-id="47434"></path><path d="M524.98 369.72v233.38l-88.32 88.32V458.06z" fill="#CC7B5A" p-id="47435"></path><path d="M325.2 621.88v83.68h-58.74v-83.68l23.7 16.28v0.02c0.4 0.26 0.8 0.5 1.22 0.7l0.42 0.18c0.28 0.12 0.56 0.24 0.86 0.34 0.16 0.06 0.34 0.1 0.5 0.16 0.28 0.08 0.56 0.14 0.84 0.18 0.16 0.04 0.34 0.06 0.5 0.1 0.4 0.04 0.82 0.08 1.24 0.08h0.16c0.42 0 0.84-0.04 1.24-0.08 0.16-0.04 0.34-0.06 0.5-0.1 0.28-0.04 0.56-0.1 0.84-0.18 0.16-0.06 0.34-0.1 0.5-0.16 0.3-0.1 0.58-0.22 0.88-0.34 0.12-0.06 0.26-0.1 0.38-0.18 0.44-0.2 0.84-0.44 1.24-0.7v-0.02l23.72-16.28zM325.2 463.92v83.68l-23.7-16.28c-0.04-0.04-0.08-0.04-0.14-0.08-0.32-0.22-0.68-0.38-1.02-0.56-0.26-0.12-0.48-0.28-0.74-0.38-0.3-0.12-0.62-0.2-0.92-0.28-0.32-0.1-0.62-0.22-0.94-0.28-0.3-0.04-0.6-0.06-0.88-0.08-0.34-0.04-0.68-0.1-1.02-0.1-0.32 0-0.64 0.06-0.98 0.1-0.3 0.02-0.62 0.02-0.92 0.08-0.32 0.06-0.62 0.18-0.92 0.26-0.32 0.1-0.64 0.18-0.96 0.3-0.24 0.1-0.46 0.26-0.7 0.38-0.36 0.18-0.72 0.34-1.06 0.56-0.04 0.04-0.08 0.04-0.12 0.08l-23.72 16.28v-83.68h58.74z" fill="#F9C139" p-id="47436"></path><path d="M416.66 463.92v241.64H345.2v-102.68-0.04c0-1.3-0.26-2.62-0.78-3.86-0.26-0.6-0.58-1.18-0.96-1.74 0 0 0-0.02-0.02-0.02-0.1-0.16-0.24-0.3-0.36-0.44-0.28-0.36-0.56-0.72-0.88-1.04-0.22-0.22-0.48-0.4-0.74-0.6-0.24-0.2-0.48-0.42-0.76-0.62a7.36 7.36 0 0 0-0.88-0.46c-0.28-0.16-0.54-0.32-0.84-0.44-0.34-0.12-0.68-0.22-1.02-0.32-0.28-0.08-0.54-0.18-0.84-0.24-0.5-0.1-1.02-0.12-1.54-0.14-0.12-0.02-0.24-0.04-0.38-0.04h-0.02c-1.3 0-2.62 0.26-3.86 0.78-0.62 0.26-1.2 0.58-1.74 0.96-0.02 0-0.02 0-0.04 0.02l-33.72 23.16-33.7-23.16c-0.02-0.02-0.02-0.02-0.04-0.02-0.54-0.38-1.12-0.7-1.74-0.96-1.24-0.52-2.56-0.78-3.86-0.78h-0.02c-0.14 0-0.26 0.02-0.4 0.04-0.5 0.02-1.02 0.04-1.54 0.14-0.28 0.06-0.54 0.16-0.8 0.24-0.36 0.1-0.7 0.18-1.04 0.32-0.28 0.12-0.54 0.28-0.82 0.42-0.3 0.16-0.62 0.3-0.9 0.5-0.26 0.16-0.5 0.38-0.74 0.56-0.26 0.22-0.54 0.42-0.78 0.64-0.3 0.32-0.56 0.66-0.84 1-0.12 0.16-0.28 0.3-0.4 0.48 0 0 0 0.02-0.02 0.02-0.36 0.56-0.68 1.14-0.94 1.74-0.52 1.24-0.78 2.56-0.78 3.86V705.56H175V463.92h71.46V566.64c0 0.66 0.06 1.32 0.2 1.98 0.26 1.32 0.8 2.54 1.54 3.62v0.02c0.32 0.48 0.68 0.88 1.06 1.28 0.1 0.1 0.18 0.18 0.28 0.26 0.4 0.4 0.84 0.78 1.32 1.1h0.02c0.46 0.32 0.96 0.58 1.48 0.82 0.12 0.04 0.24 0.1 0.36 0.14 0.5 0.22 1.04 0.38 1.58 0.5l0.36 0.06c0.58 0.12 1.18 0.18 1.78 0.18h0.02c0.6 0 1.2-0.06 1.8-0.18 0.18-0.02 0.34-0.08 0.52-0.12 0.42-0.1 0.82-0.22 1.22-0.38 0.18-0.06 0.36-0.12 0.52-0.2 0.46-0.2 0.88-0.44 1.32-0.7 0.08-0.06 0.16-0.1 0.24-0.14 0-0.02 0.02-0.02 0.04-0.02l33.72-23.16 33.7 23.14 0.04 0.04c0.08 0.04 0.18 0.08 0.26 0.14 0.42 0.28 0.86 0.5 1.3 0.7 0.16 0.08 0.34 0.14 0.5 0.2 0.42 0.16 0.82 0.28 1.24 0.38 0.18 0.04 0.34 0.1 0.52 0.12 0.6 0.12 1.2 0.18 1.8 0.18h0.02c0.6 0 1.18-0.06 1.78-0.18l0.36-0.06c0.54-0.12 1.06-0.28 1.58-0.5 0.12-0.04 0.24-0.1 0.36-0.14 0.5-0.24 1-0.5 1.48-0.82h0.02c0.48-0.32 0.9-0.7 1.32-1.1a1.6 1.6 0 0 0 0.26-0.26c0.38-0.4 0.74-0.8 1.06-1.28 0.02 0 0.02-0.02 0.02-0.02 0.4-0.6 0.74-1.24 1.02-1.92 0.48-1.18 0.72-2.44 0.72-3.68V463.92h71.46z" fill="#CC7B5A" p-id="47437"></path><path d="M57.842 249.478h514.796a10 10 0 1 0 0-20H57.842a10 10 0 0 0 0 20zM57.842 195.758h362.104a10 10 0 0 0 0-20H57.842a10 10 0 0 0 0 20zM57.842 142.036h189.728a10 10 0 0 0 0-20H57.842a10 10 0 0 0 0 20z" fill="#23130D" p-id="47438"></path><path d="M790.288 823.98c0 21.682-17.642 39.31-39.324 39.31-21.668 0-39.31-17.628-39.31-39.31s17.642-39.31 39.31-39.31c21.682 0 39.324 17.628 39.324 39.31z" fill="#5D5D5D" p-id="47439"></path><path d="M67.84 301.68h9.64v459.54h-9.64zM92.64 301.68h15.5v459.54h-15.5zM122.16 301.68h15.5v459.54h-15.5zM155 453.92v261.64c0 5.52 4.48 10 10 10h3.34v29.46a78.52 78.52 0 0 0-9.86 6.2h-5.66V301.68h15.52v134.76l-10.4 10.4c-0.02 0.04-0.04 0.06-0.08 0.08-0.42 0.44-0.82 0.94-1.16 1.44-0.18 0.26-0.3 0.54-0.44 0.82-0.18 0.3-0.36 0.58-0.48 0.92-0.14 0.32-0.22 0.68-0.32 1.02-0.1 0.28-0.2 0.56-0.26 0.84-0.12 0.64-0.2 1.3-0.2 1.96zM199 301.68v104.1l-15.5 15.5v-119.6zM183.5 725.56h15.5v20.66c-5.34 0.38-10.52 1.3-15.5 2.72v-23.38zM229.66 301.68v73.46l-15.5 15.5v-88.96zM214.16 725.56h15.5v24.54c-4.96-1.68-10.14-2.88-15.5-3.54v-21zM260.34 301.68v42.78l-15.52 15.52v-58.3zM244.82 725.56h15.52v35.66h-9.4c-1.96-1.46-4-2.82-6.12-4.08v-31.58zM275.5 301.68h15.5v33.9h-15.5zM275.5 725.56h15.5v35.66h-15.5zM306.16 301.68h15.5v33.9h-15.5zM306.16 725.56h15.5v35.66h-15.5zM336.82 301.68h15.52v33.9h-15.52zM336.82 725.56h15.52v35.66h-15.52z" opacity=".1" p-id="47440"></path><path d="M366.34 301.68h15.52v33.9h-15.52zM366.34 725.56h15.52v35.66h-15.52zM397.02 301.68h15.5v33.9h-15.5zM397.02 725.56h15.5v35.66h-15.5zM427.68 301.68h15.5v33.9h-15.5zM433.74 722.62l9.44-9.44v48.04h-15.5v-35.74c0.32-0.02 0.62-0.06 0.92-0.12 0.36-0.06 0.68-0.18 1.02-0.3 0.28-0.08 0.58-0.14 0.86-0.26 0.38-0.16 0.74-0.38 1.1-0.58 0.2-0.12 0.42-0.2 0.62-0.34 0.56-0.36 1.08-0.78 1.54-1.26zM458.34 301.68h15.52v33.9h-15.52zM458.34 698.02l15.52-15.52v78.72h-15.52zM489.02 301.68h15.5v33.9h-15.5zM489.02 667.34l15.5-15.5v109.38h-15.5zM535.18 301.68v33.92c-0.06-0.02-0.14-0.02-0.2-0.02h-15.3v-33.9h15.5zM519.68 636.68l15.5-15.5v140.04h-15.5zM550.34 301.68h15.52v459.54h-15.52zM581.02 301.68h15.5v459.54h-15.5z" opacity=".1" p-id="47441"></path><path d="M610.54 301.68h15.5v459.54h-15.5z" opacity=".1" p-id="47442"></path><path d="M793.72 568.9h-31.26l-106.22-106.22v-31.24zM829.88 568.9h-24.02l-149.62-149.62v-22.7h1.34zM845.7 519.76v39.92l-163.12-163.1h39.94z" fill="#FFFFFF" opacity=".4" p-id="47443"></path></svg>