<?xml version="1.0" standalone="no"?><!DOCTYPE svg PUBLIC "-//W3C//DTD SVG 1.1//EN" "http://www.w3.org/Graphics/SVG/1.1/DTD/svg11.dtd"><svg t="1625812183169" class="icon" viewBox="0 0 1024 1024" version="1.1" xmlns="http://www.w3.org/2000/svg" p-id="53855" xmlns:xlink="http://www.w3.org/1999/xlink" width="200" height="200"><defs><style type="text/css"></style></defs><path d="M964.8 45.08c-0.06-0.28-0.16-0.54-0.24-0.82-0.1-0.34-0.18-0.7-0.32-1.04-0.14-0.32-0.32-0.62-0.48-0.92-0.16-0.26-0.28-0.54-0.44-0.8-0.36-0.52-0.76-1.02-1.2-1.46-0.02-0.02-0.04-0.04-0.04-0.06-0.02-0.02-0.02-0.02-0.04-0.02-0.46-0.46-0.96-0.86-1.5-1.24-0.24-0.16-0.5-0.26-0.76-0.4-0.32-0.18-0.62-0.38-0.96-0.5-0.32-0.14-0.66-0.22-0.98-0.32-0.3-0.08-0.58-0.2-0.88-0.26-0.62-0.12-1.26-0.18-1.9-0.18-0.02 0-0.04-0.02-0.06-0.02h-0.04c-0.64 0.02-1.28 0.08-1.92 0.2-0.3 0.06-0.58 0.18-0.86 0.26-0.34 0.1-0.68 0.18-1 0.32-0.34 0.12-0.64 0.32-0.96 0.48-0.24 0.14-0.52 0.26-0.76 0.42-0.56 0.38-1.06 0.8-1.54 1.26L912 75.9l-35.94-35.92a10.006 10.006 0 0 0-14.14 0L826 75.9l-35.94-35.92c-0.5-0.5-1.02-0.92-1.58-1.28a9.956 9.956 0 0 0-12.56 1.28h-0.02l-35.92 35.92-35.94-35.92c-1.48-1.5-3.32-2.4-5.24-2.76-3.12-0.58-6.48 0.34-8.9 2.76l-35.92 35.92-35.94-35.92a9.9 9.9 0 0 0-7.06-2.94c-2.56 0-5.12 0.98-7.08 2.94l-35.94 35.92-35.92-35.92h-0.02a9.9 9.9 0 0 0-7.06-2.94c-1.02 0-2.04 0.2-3.02 0.52-0.24 0.08-0.5 0.12-0.74 0.22-1.22 0.48-2.34 1.22-3.32 2.2l-35.94 35.92-35.92-35.92a9.936 9.936 0 0 0-8.6-2.78c-0.46-0.08-0.94-0.16-1.44-0.16-5.52 0-10 4.48-10 10v295.88H163.74c-55.54 0-100.74 45.2-100.74 100.76v528.66c0 5.52 4.48 10 10 10H592c5.52 0 10-4.48 10-10l0.02-286.18h262.26c55.54-0.02 100.72-45.2 100.72-100.74V47.04c0-0.64-0.06-1.3-0.2-1.96z m-382.78 398.6v232.44c0 0.02-0.02 0.02-0.02 0.04s0.02 0.04 0.02 0.04L582 962.34H83V443.68c0-44.54 36.22-80.76 80.74-80.76h458.84c-24.6 18.4-40.56 47.74-40.56 80.76z m20 222.48V443.68c0-44.54 36.22-80.76 80.74-80.76s80.74 36.22 80.74 80.76v141.74c0 33 15.96 62.36 40.58 80.74H602.02z m342.98-80.74c0 44.52-36.22 80.74-80.74 80.74s-80.76-36.22-80.76-80.74v-141.74c0-55.56-45.18-100.76-100.74-100.76H445.98V68.22l28.9 28.9c1.96 1.96 4.5 2.92 7.06 2.92 2.56 0 5.12-0.96 7.08-2.92l35.94-35.94 35.94 35.94a9.88 9.88 0 0 0 7.06 2.92c2.56 0 5.12-0.96 7.08-2.92l35.92-35.94 35.94 35.94c1.88 1.88 4.42 2.92 7.08 2.92 2.64 0 5.18-1.04 7.06-2.92l35.94-35.94 35.92 35.94a9.96 9.96 0 0 0 7.08 2.92c2.56 0 5.12-0.96 7.06-2.92l35.94-35.94 35.94 35.94a9.96 9.96 0 0 0 7.08 2.92c2.54 0 5.1-0.96 7.06-2.92l35.94-35.94 35.92 35.94c1.96 1.96 4.52 2.92 7.08 2.92s5.12-0.96 7.06-2.92l25.94-25.94v514.24z" fill="#23130D" p-id="53856"></path><path d="M945 71.18v514.24c0 44.52-36.22 80.74-80.74 80.74s-80.76-36.22-80.76-80.74v-141.74c0-55.56-45.18-100.76-100.74-100.76H445.98V68.22l28.9 28.9c1.96 1.96 4.5 2.92 7.06 2.92 2.56 0 5.12-0.96 7.08-2.92l35.94-35.94 35.94 35.94a9.88 9.88 0 0 0 7.06 2.92c2.56 0 5.12-0.96 7.08-2.92l35.92-35.94 35.94 35.94c1.88 1.88 4.42 2.92 7.08 2.92 2.64 0 5.18-1.04 7.06-2.92l35.94-35.94 35.92 35.94a9.96 9.96 0 0 0 7.08 2.92c2.56 0 5.12-0.96 7.06-2.92l35.94-35.94 35.94 35.94a9.96 9.96 0 0 0 7.08 2.92c2.54 0 5.1-0.96 7.06-2.92l35.94-35.94 35.92 35.94c1.96 1.96 4.52 2.92 7.08 2.92s5.12-0.96 7.06-2.92l25.94-25.94z" fill="#E1E1E5" p-id="53857"></path><path d="M945 71.18v22l-25.94 25.94c-1.94 1.96-4.5 2.92-7.06 2.92s-5.12-0.96-7.08-2.92L869 83.18l-35.94 35.94c-1.96 1.96-4.52 2.92-7.06 2.92a9.96 9.96 0 0 1-7.08-2.92l-35.94-35.94-35.94 35.94a9.88 9.88 0 0 1-7.06 2.92 9.96 9.96 0 0 1-7.08-2.92l-35.92-35.94-35.94 35.94c-1.88 1.88-4.42 2.92-7.06 2.92-2.66 0-5.2-1.04-7.08-2.92l-35.94-35.94-35.92 35.94a9.96 9.96 0 0 1-7.08 2.92 9.88 9.88 0 0 1-7.06-2.92l-35.94-35.94-35.94 35.94a9.96 9.96 0 0 1-7.08 2.92c-2.56 0-5.1-0.96-7.06-2.92l-28.9-28.9v-22l28.9 28.9c1.96 1.96 4.5 2.92 7.06 2.92 2.56 0 5.12-0.96 7.08-2.92l35.94-35.94 35.94 35.94a9.88 9.88 0 0 0 7.06 2.92c2.56 0 5.12-0.96 7.08-2.92l35.92-35.94 35.94 35.94c1.88 1.88 4.42 2.92 7.08 2.92 2.64 0 5.18-1.04 7.06-2.92l35.94-35.94 35.92 35.94a9.96 9.96 0 0 0 7.08 2.92c2.56 0 5.12-0.96 7.06-2.92l35.94-35.94 35.94 35.94a9.96 9.96 0 0 0 7.08 2.92c2.54 0 5.1-0.96 7.06-2.92l35.94-35.94 35.92 35.94c1.96 1.96 4.52 2.92 7.08 2.92s5.12-0.96 7.06-2.92l25.94-25.94zM888.24 662.52a80.574 80.574 0 0 1-23.98 3.64c-44.52 0-80.76-36.22-80.76-80.74v-141.74c0-55.56-45.18-100.76-100.74-100.76h48c55.56 0 100.74 45.2 100.74 100.76v141.74c0 36.16 23.9 66.84 56.74 77.1z" opacity=".2" p-id="53858"></path><path d="M804.08 666.16H602.02V443.68c0-44.54 36.22-80.76 80.74-80.76s80.74 36.22 80.74 80.76v141.74c0 33 15.96 62.36 40.58 80.74z" fill="#5D5D5D" p-id="53859"></path><path d="M708.1 367c-32.16 10.64-55.42 40.98-55.42 76.68v222.48h-50.66V443.68c0-44.54 36.22-80.76 80.74-80.76 8.86 0 17.38 1.44 25.34 4.08z" opacity=".2" p-id="53860"></path><path d="M163.74 362.92c-44.52 0-80.74 36.22-80.74 80.76v518.66H582l0.02-286.14s-0.02-0.02-0.02-0.04 0.02-0.02 0.02-0.04V443.68c0-33.02 15.96-62.36 40.56-80.76H163.74z m337.34 554.76H163.92c-5.52 0-10-4.48-10-10 0-5.54 4.48-10 10-10h337.16c5.52 0 10 4.46 10 10 0 5.52-4.48 10-10 10z m0-64.7H163.92c-5.52 0-10-4.48-10-10s4.48-10 10-10h337.16c5.52 0 10 4.48 10 10s-4.48 10-10 10z m0-64.68H163.92c-5.52 0-10-4.48-10-10s4.48-10 10-10h337.16c5.52 0 10 4.48 10 10s-4.48 10-10 10z m0-64.68H163.92c-5.52 0-10-4.48-10-10s4.48-10 10-10h337.16c5.52 0 10 4.48 10 10s-4.48 10-10 10z m0-64.68H163.92c-5.52 0-10-4.48-10-10s4.48-10 10-10h337.16c5.52 0 10 4.48 10 10s-4.48 10-10 10z m0-64.7H163.92c-5.52 0-10-4.46-10-10 0-5.52 4.48-10 10-10h337.16c5.52 0 10 4.48 10 10 0 5.54-4.48 10-10 10z m0-64.68H163.92c-5.52 0-10-4.48-10-10s4.48-10 10-10h337.16c5.52 0 10 4.48 10 10s-4.48 10-10 10z m0-64.68H163.92c-5.52 0-10-4.48-10-10s4.48-10 10-10h337.16c5.52 0 10 4.48 10 10s-4.48 10-10 10z" fill="#E1E1E5" p-id="53861"></path><path d="M163.74 362.92c-44.52 0-80.74 36.22-80.74 80.76v518.66h18.5V462.18c0-44.54 36.22-80.76 80.74-80.76h421.38c5.48-6.96 11.86-13.18 18.96-18.5H163.74z" opacity=".2" p-id="53862"></path><path d="M821.72 886.36c0 20.24-15.96 36.78-35.94 37.8v21.44c0 5.52-4.48 10-10 10s-10-4.48-10-10v-21.34h-25.94c-5.54 0-10-4.48-10-10s4.46-10 10-10h44c9.86 0 17.88-8.02 17.88-17.9 0-9.86-8.02-17.9-17.88-17.9h-16.1c-20.9 0-37.9-17-37.9-37.9 0-20.24 15.96-36.78 35.94-37.8v-21.44c0-5.52 4.48-10 10-10s10 4.48 10 10v21.34h25.94c5.52 0 10 4.48 10 10s-4.48 10-10 10h-43.98c-9.88 0-17.9 8.04-17.9 17.9 0 9.88 8.02 17.9 17.9 17.9h16.1c20.88 0 37.88 17 37.88 37.9z" fill="#23130D" p-id="53863"></path><path d="M775.8 729.96c-70.86 0-128.5 57.66-128.5 128.5 0 70.86 57.64 128.5 128.5 128.5 70.84 0 128.48-57.64 128.48-128.5 0-70.84-57.64-128.5-128.48-128.5z m0 237c-59.84 0-108.5-48.68-108.5-108.5s48.66-108.5 108.5-108.5c59.82 0 108.48 48.68 108.48 108.5s-48.66 108.5-108.48 108.5z" fill="#23130D" p-id="53864"></path><path d="M783.84 868.46h-4.4l21.84 21.84c0.28-1.26 0.44-2.58 0.44-3.94 0-9.86-8.02-17.9-17.88-17.9z m0 0h-4.4l21.84 21.84c0.28-1.26 0.44-2.58 0.44-3.94 0-9.86-8.02-17.9-17.88-17.9z m0 0h-4.4l21.84 21.84c0.28-1.26 0.44-2.58 0.44-3.94 0-9.86-8.02-17.9-17.88-17.9z m-8.04-118.5c-9.98 0-19.64 1.36-28.82 3.9-12.42 3.4-23.96 9-34.18 16.32a108.842 108.842 0 0 0-16.8 14.84 110.286 110.286 0 0 0-13.04 17.32c-1.94 3.22-3.74 6.56-5.36 10-4.46 9.46-7.6 19.66-9.14 30.36-0.78 5.14-1.16 10.4-1.16 15.76 0 59.82 48.66 108.5 108.5 108.5 5.36 0 10.62-0.38 15.76-1.16 10.7-1.54 20.9-4.68 30.36-9.14 3.44-1.62 6.78-3.4 10-5.36 6.2-3.78 12-8.14 17.32-13.04 5.5-5.08 10.48-10.72 14.84-16.82 7.32-10.2 12.9-21.74 16.32-34.16 2.52-9.18 3.88-18.84 3.88-28.82 0-59.82-48.66-108.5-108.48-108.5z m-17.68 65.52a17.886 17.886 0 0 0-8.28 15.08c0 9.88 8.02 17.9 17.9 17.9h16.1c2.8 0 5.52 0.3 8.14 0.9 14.36 3.14 25.68 14.46 28.86 28.84 0.58 2.62 0.88 5.36 0.88 8.16 0 6.98-1.9 13.52-5.22 19.14-3.68 6.28-9.16 11.4-15.7 14.68-3.6 1.82-7.56 3.08-11.7 3.66-1.1 0.16-2.2 0.26-3.32 0.32v21.44c0 3.9-2.24 7.28-5.5 8.92-1.34 0.7-2.88 1.08-4.5 1.08-5.52 0-10-4.48-10-10v-21.34h-25.94a10 10 0 1 1-6.98-17.16c1.8-1.76 4.26-2.84 6.98-2.84h44c0.34 0 0.68 0 1.02-0.02 8.06-0.46 14.7-6.28 16.42-13.94 0.28-1.26 0.44-2.58 0.44-3.94 0-9.86-8.02-17.9-17.88-17.9h-16.1c-20.9 0-37.9-17-37.9-37.9a37.676 37.676 0 0 1 14-29.34 37.76 37.76 0 0 1 21.94-8.46v-21.44c0-5.52 4.48-10 10-10s10 4.48 10 10v21.34h25.94c5.52 0 10 4.48 10 10s-4.48 10-10 10h-43.98c-3.54 0-6.84 1.04-9.62 2.82z m25.72 52.98h-4.4l21.84 21.84c0.28-1.26 0.44-2.58 0.44-3.94 0-9.86-8.02-17.9-17.88-17.9z m0 0h-4.4l21.84 21.84c0.28-1.26 0.44-2.58 0.44-3.94 0-9.86-8.02-17.9-17.88-17.9z" fill="#F9C139" p-id="53865"></path><path d="M780.634 756.072c54.272 2.534 97.646 47.49 97.646 102.388s-43.374 99.854-97.646 102.388c6.456-2.06 11.146-8.116 11.146-15.248v-16.108c20.558-3.748 35.94-21.704 35.94-43.132 0-24.206-19.684-43.9-43.88-43.9h-16.1c-6.562 0-11.9-5.338-11.9-11.9s5.338-11.9 11.9-11.9h43.98c8.822 0 16-7.178 16-16s-7.178-16-16-16h-19.94v-15.34c0-7.132-4.688-13.188-11.146-15.248m-9.714 0.002c-6.454 2.062-11.14 8.116-11.14 15.246v16.108c-20.558 3.748-35.94 21.704-35.94 43.132 0 24.206 19.694 43.9 43.9 43.9h16.1c6.55 0 11.88 5.338 11.88 11.9s-5.33 11.9-11.88 11.9h-44c-8.822 0-16 7.178-16 16s7.178 16 16 16h19.94v15.34c0 7.128 4.686 13.182 11.14 15.246-54.262-2.554-97.62-47.502-97.62-102.386s43.356-99.83 97.62-102.386m4.88-6.114c-59.84 0-108.5 48.68-108.5 108.5s48.66 108.5 108.5 108.5c59.82 0 108.48-48.68 108.48-108.5s-48.66-108.5-108.48-108.5z m-8.06 118.5c-20.9 0-37.9-17-37.9-37.9 0-20.24 15.96-36.78 35.94-37.8v-21.44c0-5.52 4.48-10 10-10s10 4.48 10 10v21.34h25.94c5.52 0 10 4.48 10 10s-4.48 10-10 10h-43.98c-9.88 0-17.9 8.04-17.9 17.9 0 9.88 8.02 17.9 17.9 17.9h16.1c20.88 0 37.88 17 37.88 37.9 0 20.24-15.96 36.78-35.94 37.8v21.44c0 5.52-4.48 10-10 10s-10-4.48-10-10v-21.34h-25.94c-5.54 0-10-4.48-10-10s4.46-10 10-10h44c9.86 0 17.88-8.02 17.88-17.9 0-9.86-8.02-17.9-17.88-17.9h-16.1z" opacity=".2" p-id="53866"></path><path d="M511.08 454.88c0 5.52-4.48 10-10 10H163.92c-5.52 0-10-4.48-10-10s4.48-10 10-10h337.16c5.52 0 10 4.48 10 10zM511.08 519.56c0 5.52-4.48 10-10 10H163.92c-5.52 0-10-4.48-10-10s4.48-10 10-10h337.16c5.52 0 10 4.48 10 10zM511.08 584.24c0 5.54-4.48 10-10 10H163.92c-5.52 0-10-4.46-10-10 0-5.52 4.48-10 10-10h337.16c5.52 0 10 4.48 10 10zM511.08 648.94c0 5.52-4.48 10-10 10H163.92c-5.52 0-10-4.48-10-10s4.48-10 10-10h337.16c5.52 0 10 4.48 10 10zM511.08 713.62c0 5.52-4.48 10-10 10H163.92c-5.52 0-10-4.48-10-10s4.48-10 10-10h337.16c5.52 0 10 4.48 10 10zM511.08 778.3c0 5.52-4.48 10-10 10H163.92c-5.52 0-10-4.48-10-10s4.48-10 10-10h337.16c5.52 0 10 4.48 10 10zM511.08 842.98c0 5.52-4.48 10-10 10H163.92c-5.52 0-10-4.48-10-10s4.48-10 10-10h337.16c5.52 0 10 4.48 10 10zM511.08 907.68c0 5.52-4.48 10-10 10H163.92c-5.52 0-10-4.48-10-10 0-5.54 4.48-10 10-10h337.16c5.52 0 10 4.46 10 10z" fill="#23130D" p-id="53867"></path><path d="M765.78 924.26v15.78l-15.78-15.78zM769.52 904.26h-29.68c-2.72 0-5.18 1.08-6.98 2.84l-64.4-64.4c1.54-10.7 4.68-20.9 9.14-30.36l91.92 91.92zM821.92 956.66c-9.46 4.46-19.66 7.6-30.36 9.14l-11.28-11.28a9.982 9.982 0 0 0 5.5-8.92v-21.44c1.12-0.06 2.22-0.16 3.32-0.32l32.82 32.82zM801.28 890.3c-1.72 7.66-8.36 13.48-16.42 13.94l-101.9-101.9c3.78-6.2 8.14-12 13.04-17.32l35.26 35.26c-0.92 3.26-1.42 6.72-1.42 10.28 0 20.9 17 37.9 37.9 37.9h11.7l21.84 21.84zM849.24 938.26a110.286 110.286 0 0 1-17.32 13.04l-31.12-31.12c6.54-3.28 12.02-8.4 15.7-14.68l32.74 32.76zM765.78 792.76a37.76 37.76 0 0 0-21.94 8.46l-31.04-31.04a107.452 107.452 0 0 1 34.18-16.32l18.8 18.8v20.1zM880.4 887.28a107.57 107.57 0 0 1-16.32 34.16l-43.24-43.24c-3.18-14.38-14.5-25.7-28.86-28.84l-33.86-33.88a17.786 17.786 0 0 1 9.62-2.82h38.04l74.62 74.62z" fill="#FFFFFF" opacity=".4" p-id="53868"></path><path d="M868.62 868.46a10 10 0 0 1-10-10c0-45.68-37.162-82.842-82.84-82.842-5.524 0-10-4.476-10-10s4.476-10 10-10c56.708 0 102.84 46.134 102.84 102.842a10 10 0 0 1-10 10z" fill="#FFFFFF" opacity=".8" p-id="53869"></path></svg>