<?xml version="1.0" standalone="no"?><!DOCTYPE svg PUBLIC "-//W3C//DTD SVG 1.1//EN" "http://www.w3.org/Graphics/SVG/1.1/DTD/svg11.dtd"><svg t="1625812192854" class="icon" viewBox="0 0 1024 1024" version="1.1" xmlns="http://www.w3.org/2000/svg" p-id="54351" xmlns:xlink="http://www.w3.org/1999/xlink" width="200" height="200"><defs><style type="text/css"></style></defs><path d="M376.52 813.76H678.8c0.16 0 0.3-0.04 0.46-0.06 0.5-0.02 1-0.04 1.48-0.14 0.22-0.04 0.4-0.12 0.62-0.18 0.42-0.12 0.84-0.22 1.26-0.38 0.18-0.08 0.34-0.2 0.52-0.28 0.4-0.2 0.82-0.38 1.2-0.64 0.24-0.16 0.44-0.38 0.68-0.56 0.28-0.22 0.58-0.42 0.86-0.7l190.9-190.9c0.38-0.38 0.68-0.78 0.98-1.2 0.1-0.12 0.2-0.22 0.28-0.34 0.26-0.38 0.46-0.8 0.64-1.2 0.1-0.18 0.2-0.36 0.28-0.54 0.16-0.36 0.24-0.76 0.36-1.14 0.06-0.24 0.16-0.48 0.2-0.72 0.08-0.32 0.08-0.64 0.1-0.96 0.04-0.32 0.1-0.66 0.1-0.98v-163.32c0-49.74-40.46-90.2-90.22-90.2h-61.38c-4.14-81.76-71.96-147-154.72-147-82.78 0-150.6 65.24-154.74 147h-64.6c-28.34 0-53.66 13.16-70.22 33.66v-132.88c0-38.48-31.3-69.78-69.78-69.78-38.48 0-69.78 31.3-69.78 69.78 0 5.52 4.48 10 10 10s10-4.48 10-10c0-27.44 22.34-49.78 49.78-49.78 27.46 0 49.78 22.34 49.78 49.78v189.44c0 0.02 0.02 0.06 0.02 0.08v273.92c0 40.92 27.4 75.54 64.8 86.54-18.72 14.42-30.82 37.02-30.82 62.42 0 17.46 5.76 34.26 16.32 47.96a65.7 65.7 0 0 0-3.38 20.8c0 36.28 29.52 65.8 65.8 65.8 32.88 0 60.22-24.24 65.04-55.8h307.26c4.82 31.56 32.16 55.8 65.04 55.8 36.28 0 65.8-29.52 65.8-65.8s-29.52-65.8-65.8-65.8c-32.88 0-60.22 24.24-65.04 55.8H441.62c-4.82-31.56-32.16-55.8-65.04-55.8-20.9 0-39.56 9.82-51.62 25.06a58.504 58.504 0 0 1-7.12-28.02c0-32.36 26.32-58.7 58.68-58.74z m437.4 81.7c25.24 0 45.8 20.54 45.8 45.8s-20.56 45.8-45.8 45.8c-25.26 0-45.8-20.54-45.8-45.8s20.54-45.8 45.8-45.8z m-437.34 0c25.24 0 45.78 20.52 45.8 45.76v0.08c-0.02 25.24-20.56 45.76-45.8 45.76-25.26 0-45.8-20.54-45.8-45.8s20.54-45.8 45.8-45.8z m196.82-663.14c74.4 0 134.94 60.54 134.94 134.94S647.8 502.2 573.4 502.2s-134.94-60.54-134.94-134.94 60.54-134.94 134.94-134.94zM283.86 723.54V449.52c0-38.7 31.5-70.2 70.2-70.2h64.92c6.18 79.8 73.04 142.86 154.42 142.86 81.36 0 148.24-63.06 154.42-142.86h61.68c38.72 0 70.22 31.5 70.22 70.2v159.18l-185.06 185.06h-320.6c-38.7 0-70.2-31.5-70.2-70.22z" fill="#23130D" p-id="54352"></path><path d="M813.92 895.46c-25.26 0-45.8 20.54-45.8 45.8s20.54 45.8 45.8 45.8c25.24 0 45.8-20.54 45.8-45.8s-20.56-45.8-45.8-45.8z m0 80.28c-19.02 0-34.48-15.48-34.48-34.48 0-19.02 15.46-34.48 34.48-34.48 19 0 34.48 15.46 34.48 34.48 0 19-15.48 34.48-34.48 34.48zM376.58 895.46c-25.26 0-45.8 20.54-45.8 45.8s20.54 45.8 45.8 45.8c25.24 0 45.78-20.52 45.8-45.76v-0.04-0.04c-0.02-25.24-20.56-45.76-45.8-45.76z m0 80.28c-19.02 0-34.48-15.48-34.48-34.48 0-19.02 15.46-34.48 34.48-34.48 19.02 0 34.48 15.46 34.48 34.48 0 19-15.46 34.48-34.48 34.48z" fill="#E1E1E5" p-id="54353"></path><path d="M376.58 897.46c24.132 0 43.78 19.632 43.8 43.838-0.02 24.13-19.668 43.762-43.8 43.762-24.152 0-43.8-19.648-43.8-43.8s19.648-43.8 43.8-43.8m0 80.28c20.116 0 36.48-16.364 36.48-36.48s-16.364-36.48-36.48-36.48c-20.116 0-36.48 16.364-36.48 36.48s16.364 36.48 36.48 36.48m0-82.28c-25.26 0-45.8 20.54-45.8 45.8s20.54 45.8 45.8 45.8c25.24 0 45.78-20.52 45.8-45.76v-0.04-0.04c-0.02-25.24-20.56-45.76-45.8-45.76z m0 80.28c-19.02 0-34.48-15.48-34.48-34.48 0-19.02 15.46-34.48 34.48-34.48 19.02 0 34.48 15.46 34.48 34.48 0 19-15.46 34.48-34.48 34.48zM813.92 897.46c24.132 0 43.78 19.632 43.8 43.838-0.02 24.13-19.668 43.762-43.8 43.762-24.152 0-43.8-19.648-43.8-43.8s19.648-43.8 43.8-43.8m0 80.28c20.116 0 36.48-16.364 36.48-36.48s-16.364-36.48-36.48-36.48c-20.116 0-36.48 16.364-36.48 36.48s16.364 36.48 36.48 36.48m0-82.28c-25.26 0-45.8 20.54-45.8 45.8s20.54 45.8 45.8 45.8c25.24 0 45.78-20.52 45.8-45.76v-0.04-0.04c-0.02-25.24-20.56-45.76-45.8-45.76z m0 80.28c-19.02 0-34.48-15.48-34.48-34.48 0-19.02 15.46-34.48 34.48-34.48 19.02 0 34.48 15.46 34.48 34.48 0 19-15.46 34.48-34.48 34.48z" opacity=".2" p-id="54354"></path><path d="M789.5 379.32h-61.68c-6.18 79.8-73.06 142.86-154.42 142.86-81.38 0-148.24-63.06-154.42-142.86h-64.92c-38.7 0-70.2 31.5-70.2 70.2v274.02c0 38.72 31.5 70.22 70.2 70.22h320.6l185.06-185.06v-159.18c0-38.7-31.5-70.2-70.22-70.2zM372.08 765.3c0 5.52-4.48 10-10 10s-10-4.48-10-10V407.78c0-5.52 4.48-10 10-10s10 4.48 10 10v357.52z m69.9 0c0 5.52-4.48 10-10 10s-10-4.48-10-10v-263.8c0-5.54 4.48-10 10-10s10 4.46 10 10v263.8z m69.9 0c0 5.52-4.48 10-10 10s-10-4.48-10-10V543.38c0-5.52 4.48-10 10-10s10 4.48 10 10v221.92z m69.9 0c0 5.52-4.48 10-10 10s-10-4.48-10-10V560.4c0-5.52 4.48-10 10-10s10 4.48 10 10v204.9z m69.9 0c0 5.52-4.48 10-10 10s-10-4.48-10-10V543.38c0-5.52 4.48-10 10-10s10 4.48 10 10v221.92z m69.9-67.6c0 5.52-4.48 10-10 10s-10-4.48-10-10v-196.2c0-5.54 4.48-10 10-10s10 4.46 10 10v196.2z m72.2-63.04c0 5.52-4.48 10-10 10-5.54 0-10-4.48-10-10V407.78c0-5.52 4.46-10 10-10 5.52 0 10 4.48 10 10v226.88z" fill="#3594BF" p-id="54355"></path><path d="M789.5 379.32h-61.68c-6.18 79.8-73.06 142.86-154.42 142.86-81.38 0-148.24-63.06-154.42-142.86h-64.92c-38.7 0-70.2 31.5-70.2 70.2v274.02c0 38.72 31.5 70.22 70.2 70.22h320.6l185.06-185.06v-159.18c0-38.7-31.5-70.2-70.22-70.2zM372.08 765.3c0 5.52-4.48 10-10 10s-10-4.48-10-10V407.78c0-5.52 4.48-10 10-10s10 4.48 10 10v357.52z m69.9 0c0 5.52-4.48 10-10 10s-10-4.48-10-10v-263.8c0-5.54 4.48-10 10-10s10 4.46 10 10v263.8z m69.9 0c0 5.52-4.48 10-10 10s-10-4.48-10-10V543.38c0-5.52 4.48-10 10-10s10 4.48 10 10v221.92z m69.9 0c0 5.52-4.48 10-10 10s-10-4.48-10-10V560.4c0-5.52 4.48-10 10-10s10 4.48 10 10v204.9z m69.9 0c0 5.52-4.48 10-10 10s-10-4.48-10-10V543.38c0-5.52 4.48-10 10-10s10 4.48 10 10v221.92z m69.9-67.6c0 5.52-4.48 10-10 10s-10-4.48-10-10v-196.2c0-5.54 4.48-10 10-10s10 4.46 10 10v196.2z m72.2-63.04c0 5.52-4.48 10-10 10-5.54 0-10-4.48-10-10V407.78c0-5.52 4.46-10 10-10 5.52 0 10 4.48 10 10v226.88z" fill="#3594BF" p-id="54356"></path><path d="M674.66 770.1h-24.2c-1.72 3.1-5 5.2-8.78 5.2-3.78 0-7.06-2.1-8.78-5.2h-52.34c-1.72 3.1-5 5.2-8.78 5.2s-7.06-2.1-8.78-5.2h-52.34c-1.72 3.1-5 5.2-8.78 5.2s-7.06-2.1-8.78-5.2h-52.34c-1.72 3.1-5 5.2-8.78 5.2s-7.06-2.1-8.78-5.2h-52.34c-1.72 3.1-5 5.2-8.78 5.2-3.78 0-7.06-2.1-8.78-5.2-38.36-0.42-69.44-31.76-69.44-70.22v23.66c0 38.72 31.5 70.22 70.2 70.22h320.6l185.06-185.06v-23.66l-185.06 185.06z" fill="#FFFFFF" opacity=".4" p-id="54357"></path><path d="M789.5 379.32h-61.68c-6.18 79.8-73.06 142.86-154.42 142.86-81.38 0-148.24-63.06-154.42-142.86h-64.92c-28.46 0-53.02 17.04-64.02 41.44a76.14 76.14 0 0 1 43.82-13.8h18.26a10 10 0 0 1 9.96-9.18 10 10 0 0 1 9.96 9.18h32.76c2.46 31.7 13.68 60.98 31.24 85.4 3.06 1.36 5.32 4.22 5.82 7.66 13.78 17.06 30.8 31.4 50.12 42.06a9.98 9.98 0 0 1 9.9-8.7c5.52 0 10 4.48 10 10v8.06a167.78 167.78 0 0 0 49.9 11.24v-2.28c0-5.52 4.48-10 10-10s10 4.48 10 10v2.48c17.46-0.84 34.22-4.34 49.9-10.1v-9.4c0-5.52 4.48-10 10-10s10 4.48 10 10v0.54a169.902 169.902 0 0 0 49.9-39.54v-2.88c0-5.54 4.48-10 10-10h0.1c17.2-24.26 28.2-53.22 30.62-84.54h31.52a9.986 9.986 0 0 1 9.96-9.18 10 10 0 0 1 9.96 9.18h15.96c16.28 0 31.42 5.1 43.84 13.8-11-24.4-35.56-41.44-64.04-41.44z" opacity=".2" p-id="54358"></path><path d="M793.74 406.96h-19.92c-0.02 0.26-0.04 0.54-0.04 0.82v226.88c0 5.52 4.46 10 10 10a10.02 10.02 0 0 0 8.74-5.14V438.06c0-1.84 0.46-3.56 1.26-5.08v-25.2c0-0.28-0.02-0.56-0.04-0.82z" opacity=".2" p-id="54359"></path><path d="M589.14 378l17.48 17.48a24.202 24.202 0 0 0-17.48-17.48z m-15.74-145.68c-7.58 0-15.02 0.62-22.26 1.86a133.838 133.838 0 0 0-47.46 17.58 135.472 135.472 0 0 0-41.18 38.74c-2.74 3.92-5.26 8-7.56 12.22a133.584 133.584 0 0 0-13.7 37.22c-1.82 8.82-2.78 17.96-2.78 27.32 0 74.4 60.54 134.94 134.94 134.94 9.36 0 18.5-0.96 27.32-2.78 13.22-2.72 25.72-7.4 37.22-13.7a129.78 129.78 0 0 0 12.24-7.56c7.64-5.3 14.68-11.36 21.06-18.06a135.36 135.36 0 0 0 17.64-23.12 133.488 133.488 0 0 0 17.6-47.46c1.24-7.24 1.86-14.68 1.86-22.26 0-74.4-60.54-134.94-134.94-134.94z m43.96 76.7h-53.8c-0.84 0-1.68 0.04-2.5 0.12-10.68 1.12-19.3 9.18-21.22 19.56-0.28 1.44-0.42 2.92-0.42 4.44 0 13.3 10.82 24.12 24.14 24.12h19.68c24.32 0 44.12 19.8 44.12 44.14 0 4.48-0.68 8.82-1.92 12.9a44.29 44.29 0 0 1-16.32 22.8 42.93 42.93 0 0 1-13.24 6.56c-3.96 1.2-8.14 1.84-12.48 1.86v28.34a9.99 9.99 0 0 1-10 10c-5.52 0-10-4.48-10-10v-28.34h-33.98a9.996 9.996 0 1 1-2.32-19.72c0.74-0.18 1.52-0.28 2.32-0.28h53.82c4.12 0 8-1.04 11.4-2.88a24.078 24.078 0 0 0 11.98-27.16 24.202 24.202 0 0 0-17.48-17.48c-1.9-0.48-3.86-0.74-5.9-0.74h-19.68c-6.5 0-12.7-1.42-18.26-3.96a44.376 44.376 0 0 1-21.94-21.94 43.624 43.624 0 0 1-3.94-18.22c0-7.2 1.74-14 4.84-20.02a44.02 44.02 0 0 1 20.78-20c5.6-2.62 11.82-4.08 18.36-4.1v-28.34c0-3.86 2.18-7.2 5.38-8.86 1.38-0.74 2.96-1.14 4.62-1.14 5.52 0 10 4.48 10 10v28.34h33.96c5.52 0 10 4.48 10 10 0 3.12-1.42 5.9-3.66 7.72-1.72 1.42-3.94 2.28-6.34 2.28z" fill="#F9C139" p-id="54360"></path><path d="M573.4 240.32c69.994 0 126.94 56.946 126.94 126.94s-56.946 126.94-126.94 126.94-126.94-56.946-126.94-126.94 56.946-126.94 126.94-126.94m-18 41.338c-24.876 3.928-43.98 25.548-43.98 51.482 0 28.74 23.39 52.12 52.14 52.12h19.68c8.888 0 16.12 7.24 16.12 16.14 0 8.888-7.232 16.12-16.12 16.12h-53.82c-9.926 0-18 8.074-18 18s8.074 18 18 18h25.98v20.34c0 9.926 8.074 18 18 18s18-8.074 18-18v-20.982c24.864-3.946 43.96-25.564 43.96-51.478 0-28.75-23.38-52.14-52.12-52.14h-19.68c-8.9 0-16.14-7.232-16.14-16.12 0-8.888 7.24-16.12 16.14-16.12h53.8c9.926 0 18-8.074 18-18s-8.074-18-18-18H591.4v-20.34c0-9.926-8.074-18-18-18s-18 8.074-18 18v20.978m18-49.338c-74.4 0-134.94 60.54-134.94 134.94s60.54 134.94 134.94 134.94 134.94-60.54 134.94-134.94-60.54-134.94-134.94-134.94z m-9.84 144.94c-24.34 0-44.14-19.78-44.14-44.12 0-24.28 19.72-44.04 43.98-44.12v-28.34c0-5.52 4.48-10 10-10s10 4.48 10 10v28.34h33.96c5.52 0 10 4.48 10 10s-4.48 10-10 10h-53.8c-13.32 0-24.14 10.82-24.14 24.12s10.82 24.12 24.14 24.12h19.68c24.32 0 44.12 19.8 44.12 44.14 0 24.28-19.72 44.02-43.96 44.12v28.34c0 5.52-4.48 10-10 10s-10-4.48-10-10v-28.34h-33.98c-5.52 0-10-4.48-10-10s4.48-10 10-10h53.82c13.3 0 24.12-10.82 24.12-24.12s-10.82-24.14-24.12-24.14h-19.68z" opacity=".2" p-id="54361"></path><path d="M813.92 906.78c-19.02 0-34.48 15.46-34.48 34.48 0 19 15.46 34.48 34.48 34.48 19 0 34.48-15.48 34.48-34.48 0-19.02-15.48-34.48-34.48-34.48z m0 48.96c-7.98 0-14.48-6.5-14.48-14.48s6.5-14.48 14.48-14.48 14.48 6.5 14.48 14.48-6.5 14.48-14.48 14.48zM376.58 906.78c-19.02 0-34.48 15.46-34.48 34.48 0 19 15.46 34.48 34.48 34.48 19.02 0 34.48-15.48 34.48-34.48 0-19.02-15.46-34.48-34.48-34.48z m0 48.96c-7.98 0-14.48-6.5-14.48-14.48s6.5-14.48 14.48-14.48 14.48 6.5 14.48 14.48-6.5 14.48-14.48 14.48z" fill="#23130D" p-id="54362"></path><path d="M721.58 501.5v196.2c0 5.52-4.48 10-10 10s-10-4.48-10-10v-196.2c0-5.54 4.48-10 10-10s10 4.46 10 10zM793.78 407.78v226.88c0 5.52-4.48 10-10 10-5.54 0-10-4.48-10-10V407.78c0-5.52 4.46-10 10-10 5.52 0 10 4.48 10 10zM651.68 543.38v221.92c0 5.52-4.48 10-10 10s-10-4.48-10-10V543.38c0-5.52 4.48-10 10-10s10 4.48 10 10zM581.78 560.4v204.9c0 5.52-4.48 10-10 10s-10-4.48-10-10V560.4c0-5.52 4.48-10 10-10s10 4.48 10 10zM511.88 543.38v221.92c0 5.52-4.48 10-10 10s-10-4.48-10-10V543.38c0-5.52 4.48-10 10-10s10 4.48 10 10zM441.98 501.5v263.8c0 5.52-4.48 10-10 10s-10-4.48-10-10v-263.8c0-5.54 4.48-10 10-10s10 4.46 10 10zM372.08 407.78v357.52c0 5.52-4.48 10-10 10s-10-4.48-10-10V407.78c0-5.52 4.48-10 10-10s10 4.48 10 10z" fill="#FFFFFF" p-id="54363"></path><path d="M573.392 181.914a10 10 0 0 0 10-10V26.942a10 10 0 1 0-20 0v144.972a10 10 0 0 0 10 10zM517.77 197.234a10 10 0 0 0 10-10V77.248a10 10 0 1 0-20 0v109.986a10 10 0 0 0 10 10zM462.136 228.366a10 10 0 0 0 10-10V119.16a10 10 0 0 0-20 0v99.206a10 10 0 0 0 10 10zM684.64 228.366a10 10 0 0 0 10-10V119.16a10 10 0 1 0-20 0v99.206a10 10 0 0 0 10 10zM629.022 197.234a10 10 0 0 0 10-10V77.248a10 10 0 1 0-20 0v109.986a10 10 0 0 0 10 10zM627.36 401.4c0 24.28-19.72 44.02-43.96 44.12v28.34c0 5.52-4.48 10-10 10s-10-4.48-10-10v-28.34h-33.98c-5.52 0-10-4.48-10-10s4.48-10 10-10h53.82c13.3 0 24.12-10.82 24.12-24.12s-10.82-24.14-24.12-24.14h-19.68c-24.34 0-44.14-19.78-44.14-44.12 0-24.28 19.72-44.04 43.98-44.12v-28.34c0-5.52 4.48-10 10-10s10 4.48 10 10v28.34h33.96c5.52 0 10 4.48 10 10s-4.48 10-10 10h-53.8c-13.32 0-24.14 10.82-24.14 24.12s10.82 24.12 24.14 24.12h19.68c24.32 0 44.12 19.8 44.12 44.14z" fill="#23130D" p-id="54364"></path><path d="M546.82 445.52h16.58v16.58zM454.94 302.72l122.78 122.8h-48.3c-0.8 0-1.58 0.1-2.32 0.28l-85.86-85.86c2.72-13.2 7.4-25.72 13.7-37.22zM637.94 485.72c-11.5 6.3-24 10.98-37.22 13.7l-19.42-19.42c1.32-1.68 2.1-3.82 2.1-6.14v-28.34c4.34-0.02 8.52-0.66 12.48-1.86l42.06 42.06zM524.26 313.12a43.582 43.582 0 0 0-4.84 20.02c0 6.5 1.4 12.68 3.94 18.22l-60.86-60.86c5.28-7.62 11.34-14.68 18.06-21.08l43.7 43.7zM539.42 333.14c0-1.52 0.14-3 0.42-4.44l28.56 28.56h-4.84c-13.32 0-24.14-10.82-24.14-24.12zM607.36 401.4c0 9.18-5.14 17.18-12.72 21.24l-49.34-49.34c5.56 2.54 11.76 3.96 18.26 3.96h19.68c2.04 0 4 0.26 5.9 0.74l17.48 17.48c0.48 1.9 0.74 3.88 0.74 5.92zM671.24 460.1a136.608 136.608 0 0 1-21.06 18.06l-41.06-41.06c7.66-5.56 13.48-13.54 16.32-22.8l45.8 45.8zM563.4 289.02c-6.54 0.02-12.76 1.48-18.36 4.1l-41.36-41.36a133.838 133.838 0 0 1 47.46-17.58l17.64 17.64c-3.2 1.66-5.38 5-5.38 8.86v28.34zM605.98 289.02H583.4v-22.58zM706.48 389.52a133.488 133.488 0 0 1-17.6 47.46l-127.82-127.84c0.82-0.08 1.66-0.12 2.5-0.12h53.8c2.4 0 4.62-0.86 6.34-2.28l82.78 82.78z" fill="#FFFFFF" opacity=".4" p-id="54365"></path><path d="M688.29 377.27a10 10 0 0 1-10-10c0-57.836-47.052-104.89-104.888-104.89a10 10 0 1 1 0-20c68.864 0 124.888 56.026 124.888 124.89a10 10 0 0 1-10 10z" fill="#FFFFFF" opacity=".8" p-id="54366"></path></svg>