<?xml version="1.0" standalone="no"?><!DOCTYPE svg PUBLIC "-//W3C//DTD SVG 1.1//EN" "http://www.w3.org/Graphics/SVG/1.1/DTD/svg11.dtd"><svg t="1625811812103" class="icon" viewBox="0 0 1024 1024" version="1.1" xmlns="http://www.w3.org/2000/svg" p-id="39213" xmlns:xlink="http://www.w3.org/1999/xlink" width="200" height="200"><defs><style type="text/css"></style></defs><path d="M716.42 930.42h-8.52l-43.24-282.96c17.24-0.06 31.22-14.08 31.22-31.32v-3.7c0-17.28-14.04-31.32-31.32-31.32h-10.04l-20.78-135.94v-0.04l-15.58-102c4.82-1.48 9.24-4.12 12.9-7.8 5.92-5.92 9.18-13.78 9.18-22.14v-3.72c0-15.76-11.7-28.8-26.88-30.96 22.94-25.16 36.14-58.34 36.14-92.84 0-75.8-61.68-137.48-137.5-137.48s-137.5 61.68-137.5 137.48c0 34.48 13.18 67.68 36.12 92.84-15.16 2.18-26.86 15.22-26.86 30.96v3.72c0 14.04 9.3 25.98 22.08 29.92l-36.36 238h-10.04c-17.28 0-31.32 14.04-31.32 31.32v3.7c0 17.24 14 31.28 31.22 31.32l-17.4 113.92c0 0.02-0.02 0.06-0.02 0.1l-25.82 168.94h-8.52c-17.28 0-31.32 14.06-31.32 31.34v3.7c0 17.28 14.04 31.34 31.32 31.34h408.84c17.28 0 31.32-14.06 31.32-31.34v-3.7c0-17.28-14.06-31.34-31.32-31.34z m-29.94-7.74l-152.46-77.68 130.44-66.44 22.02 144.12zM512 685.56l-91.14-38.08h182.28L512 685.56z m133.08-33.94l14.6 95.66-121.74-50.88 107.14-44.78z m-159.02 44.78l-121.74 50.86 14.62-95.62 107.12 44.76z m25.94 10.84l136.46 57.02L512 833.78l-136.48-69.52L512 707.24z m145.64 223.18H366.36L512 856.24l145.64 74.18z m-24.78-358.6l-101.14-59.52 84.46-49.7 16.68 109.22zM512 374.48l-55.28-29.96h110.56L512 374.48z m86.98-24.4l11.92 78.02-77.92-42.24 66-35.78z m-107.96 35.78l-77.94 42.24 11.94-78.02 66 35.78z m20.98 11.38l91.5 49.6L512 500.7l-91.5-53.86 91.5-49.6z m97.22 183.88h-194.44L512 523.9l97.22 57.22zM394.5 185.68c0-64.78 52.7-117.48 117.5-117.48 64.78 0 117.5 52.7 117.5 117.48 0 36.54-16.42 70.04-45.08 92.48h-144.84c-28.68-22.46-45.08-55.96-45.08-92.48z m9.26 127.52v-3.72c0-6.24 5.08-11.32 11.32-11.32h193.84c6.24 0 11.32 5.08 11.32 11.34v3.7c0 6.24-5.08 11.32-11.32 11.32h-193.84c-6.24 0-11.32-5.08-11.32-11.32z m4.06 149.4l84.46 49.7-101.16 59.52 16.7-109.22z m-59.7 153.54v-3.7c0-6.24 5.08-11.32 11.32-11.32H664.56c6.24 0 11.32 5.08 11.32 11.32v3.7c0 6.26-5.08 11.34-11.32 11.34H359.44c-6.24 0-11.32-5.08-11.32-11.34z m11.42 162.42l130.42 66.44-152.44 77.68 22.02-144.12z m368.2 186.9c0 6.26-5.08 11.34-11.32 11.34H307.58c-6.24 0-11.32-5.08-11.32-11.34v-3.7c0-6.24 5.08-11.34 11.32-11.34h17c0.04 0 0.08 0.02 0.12 0.02 0.04 0 0.08-0.02 0.12-0.02h374.34c0.06 0 0.1 0.02 0.14 0.02 0.04 0 0.08-0.02 0.12-0.02h17c6.24 0 11.32 5.1 11.32 11.36v3.68z" fill="#23130D" p-id="39214"></path><path d="M727.74 961.78v3.68c0 6.26-5.08 11.34-11.32 11.34H307.58c-6.24 0-11.32-5.08-11.32-11.34v-3.7c0-6.24 5.08-11.34 11.32-11.34h17c0.04 0 0.08 0.02 0.12 0.02 0.04 0 0.08-0.02 0.12-0.02h374.34c0.06 0 0.1 0.02 0.14 0.02 0.04 0 0.08-0.02 0.12-0.02h17c6.24 0 11.32 5.1 11.32 11.36z" fill="#E1E1E5" p-id="39215"></path><path d="M727.74 961.78v3.68c0 6.26-5.08 11.34-11.32 11.34H307.58c-6.24 0-11.32-5.08-11.32-11.34v-3.7c0-1.28 0.22-2.5 0.6-3.64a11.352 11.352 0 0 0 10.72 7.68h408.84c4.96 0 9.2-3.22 10.72-7.68 0.38 1.14 0.6 2.38 0.6 3.66z" fill="#23130D" opacity=".2" p-id="39216"></path><path d="M675.88 612.44v3.7c0 6.26-5.08 11.34-11.32 11.34H359.44c-6.24 0-11.32-5.08-11.32-11.34v-3.7c0-6.24 5.08-11.32 11.32-11.32H664.56c6.24 0 11.32 5.08 11.32 11.32z" fill="#E1E1E5" p-id="39217"></path><path d="M675.88 612.44v3.7c0 6.26-5.08 11.34-11.32 11.34H359.44c-6.24 0-11.32-5.08-11.32-11.34v-3.7c0-1.7 0.38-3.3 1.06-4.74 1.78 3.9 5.7 6.6 10.26 6.6h305.12c4.56 0 8.48-2.7 10.26-6.6 0.68 1.44 1.06 3.04 1.06 4.74z" fill="#23130D" opacity=".2" p-id="39218"></path><path d="M620.24 309.5v3.7c0 6.24-5.08 11.32-11.32 11.32h-193.84c-6.24 0-11.32-5.08-11.32-11.32v-3.72c0-6.24 5.08-11.32 11.32-11.32h193.84c6.24 0 11.32 5.08 11.32 11.34z" fill="#E1E1E5" p-id="39219"></path><path d="M620.24 309.5v3.7c0 6.24-5.08 11.32-11.32 11.32h-193.84c-6.24 0-11.32-5.08-11.32-11.32v-3.72c0-1.3 0.22-2.56 0.66-3.72a11.278 11.278 0 0 0 10.66 7.58h193.84c4.92 0 9.14-3.16 10.66-7.58 0.44 1.16 0.66 2.42 0.66 3.74z" fill="#23130D" opacity=".2" p-id="39220"></path><path d="M629.5 185.68c0 36.54-16.42 70.04-45.08 92.48h-144.84c-28.68-22.46-45.08-55.96-45.08-92.48 0-64.78 52.7-117.48 117.5-117.48 64.78 0 117.5 52.7 117.5 117.48z" fill="#3594BF" p-id="39221"></path><path d="M605.1 257.42c-5.92 7.64-12.84 14.6-20.68 20.74h-144.84c-28.68-22.46-45.08-55.96-45.08-92.48 0-37.66 17.82-71.26 45.48-92.78-15.5 19.92-24.74 44.92-24.74 72.04 0 36.5 16.42 70 45.08 92.48h144.78z" fill="#23130D" opacity=".2" p-id="39222"></path><path d="M694.502 248.182a9.966 9.966 0 0 0 7.068 2.926c2.56 0 5.122-0.978 7.074-2.932 20.026-20.046 31.054-46.682 31.054-75 0-28.32-11.03-54.954-31.054-74.996a10 10 0 0 0-14.148 14.136c16.252 16.266 25.204 37.88 25.204 60.86 0 22.98-8.952 44.596-25.204 60.866a9.998 9.998 0 0 0 0.006 14.14z" fill="#23130D" p-id="39223"></path><path d="M767.812 173.182c0 35.83-13.958 69.524-39.306 94.872a10 10 0 0 0 14.144 14.142c29.124-29.126 45.162-67.842 45.162-109.014 0-41.176-16.04-79.892-45.164-109.016a10 10 0 0 0-14.14 14.142c25.346 25.346 39.304 59.04 39.304 94.874z" fill="#23130D" p-id="39224"></path><path d="M776.676 30.138a10 10 0 0 0-14.144 14.14c34.428 34.442 53.386 80.218 53.386 128.898 0 48.684-18.958 94.46-53.386 128.898a10 10 0 0 0 14.144 14.14C814.878 278 835.918 227.2 835.918 173.176c0-54.02-21.04-104.818-59.242-143.038zM315.356 248.174a9.974 9.974 0 0 0 7.074 2.932 10 10 0 0 0 7.074-17.068c-16.252-16.266-25.204-37.88-25.204-60.86 0-22.98 8.952-44.596 25.204-60.864a10 10 0 0 0-14.148-14.136c-20.026 20.044-31.056 46.68-31.056 75s11.03 54.952 31.056 74.996z" fill="#23130D" p-id="39225"></path><path d="M281.35 282.19c1.954 1.952 4.512 2.928 7.072 2.928s5.118-0.976 7.072-2.928a10 10 0 0 0 0-14.142c-25.346-25.346-39.306-59.04-39.306-94.876 0-35.83 13.958-69.522 39.306-94.87a10 10 0 0 0-14.142-14.142C252.226 93.286 236.188 132 236.188 173.172c0 41.176 16.038 79.894 45.162 109.018z" fill="#23130D" p-id="39226"></path><path d="M208.082 173.178c0-48.682 18.96-94.458 53.386-128.898a10 10 0 0 0-14.144-14.14C209.12 68.356 188.082 119.154 188.082 173.178c0 54.018 21.04 104.818 59.242 143.038a9.968 9.968 0 0 0 7.074 2.93 10 10 0 0 0 7.074-17.068c-34.43-34.444-53.39-80.222-53.39-128.9z" fill="#23130D" p-id="39227"></path><path d="M608.84 195.53a10 10 0 0 1-10-10c0-47.884-38.958-86.84-86.84-86.84a10 10 0 0 1 0-20c58.912 0 106.84 47.928 106.84 106.84a10 10 0 0 1-10 10z" fill="#FFFFFF" p-id="39228"></path></svg>