<?xml version="1.0" standalone="no"?><!DOCTYPE svg PUBLIC "-//W3C//DTD SVG 1.1//EN" "http://www.w3.org/Graphics/SVG/1.1/DTD/svg11.dtd"><svg t="1625812241699" class="icon" viewBox="0 0 1024 1024" version="1.1" xmlns="http://www.w3.org/2000/svg" p-id="56393" xmlns:xlink="http://www.w3.org/1999/xlink" width="200" height="200"><defs><style type="text/css"></style></defs><path d="M819.06 557.3c5.52 0 10-4.48 10-10V226.14c0-2.64-1.06-5.18-2.94-7.06l-163.58-163.56a10.072 10.072 0 0 0-7.08-2.92H204.94c-5.52 0-10 4.48-10 10v196.42c0 5.54 4.48 10 10 10h37.86v114.3h-37.86c-5.52 0-10 4.48-10 10V961.4c0 5.52 4.48 10 10 10h70.14c2.66 0 5.2-1.06 7.08-2.94a10.06 10.06 0 0 0 2.92-7.06v-37.86h114.28v37.86a10.02 10.02 0 0 0 10.2 10h205.08c1.28 0 2.58-0.24 3.82-0.76a10.02 10.02 0 0 0 6.18-9.24v-37.86h114.28v37.86a10.006 10.006 0 0 0 10 10h70.14c5.52 0 10-4.48 10-10V681.58c0-5.52-4.48-10-10-10H781.2v-114.28h37.86z m-47.86 134.28h37.86V951.4h-50.14v-37.86c0-5.52-4.48-10-10-10h-134.28c-5.52 0-10 4.48-10 10v37.86h-185.28v-37.86c0-5.52-4.48-10-10-10h-134.28a10.006 10.006 0 0 0-10 10v37.86h-50.14V403.32h37.86c5.52 0 10-4.48 10-10v-134.3c0-5.52-4.48-10-10-10h-37.86V72.6h436.38l157.74 157.68v307.02H771.2c-5.52 0-10 4.48-10 10v134.28c0 5.52 4.48 10 10 10z" fill="#23130D" p-id="56394"></path><path d="M771.2 537.3h37.86V230.28L651.32 72.6H214.94v176.42h37.86c5.52 0 10 4.48 10 10v134.3c0 5.52-4.48 10-10 10h-37.86V951.4h50.14v-37.86a10.006 10.006 0 0 1 10-10h134.28c5.52 0 10 4.48 10 10v37.86h185.28v-37.86c0-5.52 4.48-10 10-10h134.28c5.52 0 10 4.48 10 10v37.86h50.14V691.58H771.2c-5.52 0-10-4.48-10-10v-134.28c0-5.52 4.48-10 10-10z m-121.78-298.42c0-5.52 4.48-10 10-10s10 4.48 10 10v108.66c0 5.52-4.48 10-10 10s-10-4.48-10-10v-108.66z m-60-26.22c0-5.52 4.48-10 10-10s10 4.48 10 10v161.1c0 5.52-4.48 10-10 10s-10-4.48-10-10v-161.1z m-60-38.66c0-5.52 4.48-10 10-10s10 4.48 10 10v238.42c0 5.52-4.48 10-10 10s-10-4.48-10-10V174z m-60 38.66c0-5.52 4.48-10 10-10s10 4.48 10 10v161.1c0 5.52-4.48 10-10 10s-10-4.48-10-10v-161.1z m-60 26.22c0-5.52 4.48-10 10-10s10 4.48 10 10v108.66c0 5.52-4.48 10-10 10s-10-4.48-10-10v-108.66z m-60 21.32c0-5.52 4.48-10 10-10 5.54 0 10 4.48 10 10v66c0 5.54-4.46 10-10 10-5.52 0-10-4.46-10-10v-66z m325.76 539.78c0 18.76-15.26 34-34 34H329.2c-18.76 0-34-15.24-34-34V536c0-18.74 15.24-34 34-34h311.98c18.74 0 34 15.26 34 34v263.98z m54.24-473.78c0 5.54-4.48 10-10 10-5.54 0-10-4.46-10-10v-66c0-5.52 4.46-10 10-10 5.52 0 10 4.48 10 10v66z" fill="#E1E1E5" p-id="56395"></path><path d="M647.178 82.6l151.882 151.824V527.3H771.2c-11.028 0-20 8.972-20 20v134.28c0 11.028 8.972 20 20 20h27.86V941.4h-30.14v-27.86c0-11.028-8.972-20-20-20h-134.28c-11.028 0-20 8.972-20 20v27.86h-165.28v-27.86c0-11.028-8.972-20-20-20h-134.28a19.892 19.892 0 0 0-14.152 5.868 20.12 20.12 0 0 0-5.848 14.132v27.86h-30.14V413.32h27.86c11.028 0 20-8.972 20-20v-134.3c0-11.028-8.972-20-20-20h-27.86V82.6h422.238M539.42 432.42c11.028 0 20-8.972 20-20V174c0-11.028-8.972-20-20-20s-20 8.972-20 20v238.42c0 11.028 8.972 20 20 20m60-38.66c11.028 0 20-8.972 20-20v-161.1c0-11.028-8.972-20-20-20s-20 8.972-20 20v161.1c0 11.028 8.972 20 20 20m-120 0c11.028 0 20-8.972 20-20v-161.1c0-11.028-8.972-20-20-20s-20 8.972-20 20v161.1c0 11.028 8.972 20 20 20m180-26.22c11.028 0 20-8.972 20-20v-108.66c0-11.028-8.972-20-20-20s-20 8.972-20 20v108.66c0 11.028 8.972 20 20 20m-240 0c11.028 0 20-8.972 20-20v-108.66c0-11.028-8.972-20-20-20s-20 8.972-20 20v108.66c0 11.028 8.972 20 20 20m300-21.34c11.028 0 20-8.972 20-20v-66c0-11.028-8.972-20-20-20s-20 8.972-20 20v66c0 11.028 8.972 20 20 20m-360 0c11.028 0 20-8.972 20-20v-66c0-11.028-8.972-20-20-20s-20 8.972-20 20v66c0 11.028 8.972 20 20 20M329.2 843.98h311.98c24.262 0 44-19.738 44-44V536c0-24.262-19.738-44-44-44H329.2c-24.262 0-44 19.738-44 44v263.98c0 24.262 19.738 44 44 44M651.32 72.6H214.94v176.42h37.86c5.52 0 10 4.48 10 10v134.3c0 5.52-4.48 10-10 10h-37.86V951.4h50.14v-37.86a10.006 10.006 0 0 1 10-10h134.28c5.52 0 10 4.48 10 10v37.86h185.28v-37.86c0-5.52 4.48-10 10-10h134.28c5.52 0 10 4.48 10 10v37.86h50.14V691.58H771.2c-5.52 0-10-4.48-10-10v-134.28c0-5.52 4.48-10 10-10h37.86V230.28L651.32 72.6z m-111.9 349.82c-5.52 0-10-4.48-10-10V174c0-5.52 4.48-10 10-10s10 4.48 10 10v238.42c0 5.52-4.48 10-10 10z m60-38.66c-5.52 0-10-4.48-10-10v-161.1c0-5.52 4.48-10 10-10s10 4.48 10 10v161.1c0 5.52-4.48 10-10 10z m-120 0c-5.52 0-10-4.48-10-10v-161.1c0-5.52 4.48-10 10-10s10 4.48 10 10v161.1c0 5.52-4.48 10-10 10z m180-26.22c-5.52 0-10-4.48-10-10v-108.66c0-5.52 4.48-10 10-10s10 4.48 10 10v108.66c0 5.52-4.48 10-10 10z m-240 0c-5.52 0-10-4.48-10-10v-108.66c0-5.52 4.48-10 10-10s10 4.48 10 10v108.66c0 5.52-4.48 10-10 10z m300-21.34c-5.54 0-10-4.46-10-10v-66c0-5.52 4.46-10 10-10 5.52 0 10 4.48 10 10v66c0 5.54-4.48 10-10 10z m-360 0c-5.52 0-10-4.46-10-10v-66c0-5.52 4.48-10 10-10 5.54 0 10 4.48 10 10v66c0 5.54-4.46 10-10 10zM329.2 833.98c-18.76 0-34-15.24-34-34V536c0-18.74 15.24-34 34-34h311.98c18.74 0 34 15.26 34 34v263.98c0 18.76-15.26 34-34 34H329.2z" opacity=".2" p-id="56396"></path><path d="M641.18 502H329.2c-18.76 0-34 15.26-34 34v263.98c0 18.76 15.24 34 34 34h311.98c18.74 0 34-15.24 34-34V536c0-18.74-15.26-34-34-34z m14 297.98c0 7.72-6.28 14-14 14H329.2c-7.72 0-14-6.28-14-14V536c0-7.72 6.28-14 14-14h311.98c7.72 0 14 6.28 14 14v263.98z" fill="#23130D" p-id="56397"></path><path d="M386.24 617.58c-5.02 3-10.38 5.52-16 7.44L403.2 658h23.46l-40.42-40.42z m0 0c-5.02 3-10.38 5.52-16 7.44L403.2 658h23.46l-40.42-40.42z m0 0c-5.02 3-10.38 5.52-16 7.44L403.2 658h23.46l-40.42-40.42z m0 0c-5.02 3-10.38 5.52-16 7.44L403.2 658h23.46l-40.42-40.42zM641.18 522H329.2c-7.72 0-14 6.28-14 14v263.98c0 7.72 6.28 14 14 14h311.98c7.72 0 14-6.28 14-14V536c0-7.72-6.28-14-14-14zM417.82 801.62c-5.52 0-10-4.48-10-10 0-36-29.28-65.28-65.28-65.28-5.52 0-10-4.48-10-10 0-5.54 4.48-10 10-10 47.02 0 85.28 38.26 85.28 85.28 0 5.52-4.46 10-10 10z m-46.3-198.76a65.86 65.86 0 0 0 24.82-21.54 64.916 64.916 0 0 0 11.48-36.84v-0.12c0-5.52 4.48-10 10-10 5.54 0 10 4.48 10 10 0 6.24-0.68 12.32-1.96 18.16a84.744 84.744 0 0 1-15.2 33.12 86.238 86.238 0 0 1-24.42 21.94c-5.02 3-10.38 5.52-16 7.44a84.304 84.304 0 0 1-27.7 4.64c-5.52 0-10-4.48-10-10 0-5.54 4.48-10 10-10 3.86 0 7.66-0.34 11.34-0.98 6.22-1.1 12.16-3.08 17.64-5.82z m123.66 158.14c0 5.52-4.48 10-10 10s-10-4.48-10-10v-47.52h-25.48c-5.52 0-10-4.48-10-10V678h-47.52c-5.52 0-10-4.48-10-10s4.48-10 10-10h47.52v-25.5c0-2.2 0.72-4.24 1.94-5.88 1.8-2.5 4.74-4.12 8.06-4.12h25.48v-47.52c0-5.52 4.48-10 10-10s10 4.48 10 10v47.52h25.48c5.52 0 10 4.48 10 10V658h47.52c5.52 0 10 4.48 10 10s-4.48 10-10 10h-47.52v25.48c0 3.3-1.6 6.24-4.1 8.06-1.64 1.22-3.68 1.94-5.9 1.94h-25.48v47.52z m77.14-3.7a64.828 64.828 0 0 0-9.78 34.32c0 0.7-0.08 1.4-0.2 2.06a10.018 10.018 0 0 1-9.8 7.94c-5.52 0-10-4.48-10-10s0.52-10.94 1.56-16.18a84.112 84.112 0 0 1 13.8-32.56c6.56-9.42 15-17.46 24.76-23.56a84.76 84.76 0 0 1 45.18-12.98c5.52 0 10 4.46 10 10 0 5.52-4.48 10-10 10-11.04 0-21.44 2.76-30.56 7.6a65.768 65.768 0 0 0-24.96 23.36z m-19.78-222.94c5.52 0 10 4.48 10 10 0 36 29.3 65.3 65.3 65.3 5.52 0 10 4.46 10 10 0 5.52-4.48 10-10 10-47.04 0-85.3-38.28-85.3-85.3 0-5.52 4.48-10 10-10z m-166.3 83.22c-5.02 3-10.38 5.52-16 7.44L403.2 658h23.46l-40.42-40.42z m0 0c-5.02 3-10.38 5.52-16 7.44L403.2 658h23.46l-40.42-40.42z m0 0c-5.02 3-10.38 5.52-16 7.44L403.2 658h23.46l-40.42-40.42z m0 0c-5.02 3-10.38 5.52-16 7.44L403.2 658h23.46l-40.42-40.42z" fill="#F9C139" p-id="56398"></path><path d="M578.18 658h-47.52v-25.5c0-5.52-4.48-10-10-10h-25.48v-47.52c0-5.52-4.48-10-10-10s-10 4.48-10 10v47.52h-25.48c-5.52 0-10 4.48-10 10V658h-47.52c-5.52 0-10 4.48-10 10s4.48 10 10 10h47.52v25.48c0 5.52 4.48 10 10 10h25.48v47.52c0 5.52 4.48 10 10 10s10-4.48 10-10v-47.52h25.48c5.52 0 10-4.48 10-10V678h47.52c5.52 0 10-4.48 10-10s-4.48-10-10-10z m-67.52 35.48h-50.96v-25.44-0.04-25.5h50.96v50.98z" fill="#23130D" p-id="56399"></path><path d="M510.66 642.5v50.98h-50.96v-25.44-0.04-25.5h50.96z" fill="#E1E1E5" p-id="56400"></path><path d="M502.66 650.5v34.98h-34.96V650.5h34.96m8-8h-50.96V693.48h50.96v-50.98z" opacity=".2" p-id="56401"></path><path d="M427.82 544.36c0 47.02-38.26 85.3-85.28 85.3-5.52 0-10-4.48-10-10 0-5.54 4.48-10 10-10 36 0 65.28-29.3 65.28-65.3 0-5.52 4.48-10 10-10 5.54 0 10 4.48 10 10zM637.84 619.66c0 5.52-4.48 10-10 10-47.04 0-85.3-38.28-85.3-85.3 0-5.52 4.48-10 10-10s10 4.48 10 10c0 36 29.3 65.3 65.3 65.3 5.52 0 10 4.46 10 10zM637.84 716.34c0 5.52-4.48 10-10 10-36 0-65.3 29.28-65.3 65.28 0 5.52-4.48 10-10 10s-10-4.48-10-10c0-47.02 38.26-85.28 85.3-85.28 5.52 0 10 4.46 10 10zM427.82 791.62c0 5.52-4.46 10-10 10-5.52 0-10-4.48-10-10 0-36-29.28-65.28-65.28-65.28-5.52 0-10-4.48-10-10 0-5.54 4.48-10 10-10 47.02 0 85.28 38.26 85.28 85.28z" fill="#FFFFFF" p-id="56402"></path><path d="M369.42 260.2v66c0 5.54-4.46 10-10 10-5.52 0-10-4.46-10-10v-66c0-5.52 4.48-10 10-10 5.54 0 10 4.48 10 10zM429.42 238.88v108.66c0 5.52-4.48 10-10 10s-10-4.48-10-10v-108.66c0-5.52 4.48-10 10-10s10 4.48 10 10zM489.42 212.66v161.1c0 5.52-4.48 10-10 10s-10-4.48-10-10v-161.1c0-5.52 4.48-10 10-10s10 4.48 10 10zM549.42 174v238.42c0 5.52-4.48 10-10 10s-10-4.48-10-10V174c0-5.52 4.48-10 10-10s10 4.48 10 10zM609.42 212.66v161.1c0 5.52-4.48 10-10 10s-10-4.48-10-10v-161.1c0-5.52 4.48-10 10-10s10 4.48 10 10zM669.42 238.88v108.66c0 5.52-4.48 10-10 10s-10-4.48-10-10v-108.66c0-5.52 4.48-10 10-10s10 4.48 10 10zM729.42 260.2v66c0 5.54-4.48 10-10 10-5.54 0-10-4.46-10-10v-66c0-5.52 4.46-10 10-10 5.52 0 10 4.48 10 10z" fill="#23130D" p-id="56403"></path><path d="M559.2 813.98h-60.34l-183.66-183.66V570l38.68 38.68c-3.68 0.64-7.48 0.98-11.34 0.98-5.52 0-10 4.46-10 10 0 5.52 4.48 10 10 10 9.68 0 19-1.62 27.7-4.64L403.2 658h-11.02c-5.52 0-10 4.48-10 10s4.48 10 10 10h31.02l16.5 16.5v8.98c0 5.52 4.48 10 10 10h9l16.48 16.48v31.04c0 5.52 4.48 10 10 10s10-4.48 10-10v-11.04l64.02 64.02zM371.52 602.86l-56.32-56.32V536c0-7.72 6.28-14 14-14h7.82l59.32 59.32a65.86 65.86 0 0 1-24.82 21.54zM441.64 626.62c-1.22 1.64-1.94 3.68-1.94 5.88V658h-13.04l-40.42-40.42c9.48-5.68 17.78-13.16 24.42-21.94l30.98 30.98zM526.56 711.54l31.34 31.34a84.112 84.112 0 0 0-13.8 32.56l-48.92-48.92v-13.04h25.48c2.22 0 4.26-0.72 5.9-1.94zM629 813.98h-46.36l-20.3-20.3c0.12-0.66 0.2-1.36 0.2-2.06 0-12.58 3.58-24.34 9.78-34.32l56.68 56.68zM655.18 714.76v77.08l-57.9-57.9c9.12-4.84 19.52-7.6 30.56-7.6 5.52 0 10-4.48 10-10 0-5.54-4.48-10-10-10a84.76 84.76 0 0 0-45.18 12.98L541.34 678h36.84c5.52 0 10-4.48 10-10s-4.48-10-10-10h-47.52v-25.5c0-5.52-4.48-10-10-10h-25.48v-47.52c0-5.52-4.48-10-10-10s-10 4.48-10 10v36.86l-49.32-49.32c1.28-5.84 1.96-11.92 1.96-18.16 0-5.52-4.46-10-10-10-5.52 0-10 4.48-10 10v0.12L385.34 522h77.08l192.76 192.76z" fill="#FFFFFF" opacity=".4" p-id="56404"></path></svg>