<?xml version="1.0" standalone="no"?><!DOCTYPE svg PUBLIC "-//W3C//DTD SVG 1.1//EN" "http://www.w3.org/Graphics/SVG/1.1/DTD/svg11.dtd"><svg t="1625811509813" class="icon" viewBox="0 0 1024 1024" version="1.1" xmlns="http://www.w3.org/2000/svg" p-id="32588" xmlns:xlink="http://www.w3.org/1999/xlink" width="200" height="200"><defs><style type="text/css"></style></defs><path d="M915.4 128.96H836V71.66c0-5.54-4.48-10-10-10H198c-5.52 0-10 4.46-10 10v57.3H108.6c-29.86 0-54.14 24.28-54.14 54.12v591.18c0 29.86 24.28 54.14 54.14 54.14h311.44l-25.12 121.9c0 0.04-0.02 0.08-0.02 0.12-0.12 0.58-0.16 1.18-0.18 1.76 0 0.06-0.02 0.12-0.02 0.16 0 0.04 0.02 0.06 0.02 0.08 0 0.6 0.06 1.18 0.16 1.74 0.02 0.12 0.04 0.24 0.08 0.34 0.12 0.54 0.28 1.06 0.48 1.56 0.04 0.12 0.1 0.24 0.16 0.36 0.22 0.5 0.46 0.98 0.76 1.44l0.18 0.24c0.14 0.2 0.26 0.38 0.42 0.56 0.18 0.24 0.38 0.44 0.58 0.66l0.14 0.14c0.4 0.38 0.82 0.74 1.28 1.06 0.1 0.06 0.18 0.12 0.28 0.2 0.46 0.28 0.94 0.54 1.42 0.76 0.12 0.06 0.24 0.1 0.34 0.14 0.52 0.22 1.06 0.38 1.6 0.5 0.1 0.02 0.18 0.02 0.26 0.04 0.6 0.12 1.22 0.18 1.84 0.18h214.64c5.52 0 10-4.46 10-10 0-1-0.16-1.98-0.44-2.9l-24.94-121.04H915.4c29.86 0 54.14-24.28 54.14-54.14V183.08c0-29.84-24.28-54.12-54.14-54.12zM208 81.66h608v47.3H208V81.66z m0 67.3h608v464.7H208V148.96z m-10 484.7h628c5.52 0 10-4.48 10-10V197.76h68.38V718.4H119.62V197.76H188v425.9c0 5.52 4.48 10 10 10z m409.02 308.68h-190.04l23.48-113.92h143.08l23.48 113.92z m342.52-168.08c0 18.84-15.32 34.14-34.14 34.14H108.6c-18.82 0-34.14-15.3-34.14-34.14V183.08c0-18.82 15.32-34.12 34.14-34.12H188v28.8H109.62c-5.52 0-10 4.48-10 10V728.4c0 5.52 4.48 10 10 10h804.76c5.52 0 10-4.48 10-10V187.76c0-5.52-4.48-10-10-10H836v-28.8h79.4c18.82 0 34.14 15.3 34.14 34.12v591.18z" fill="#23130D" p-id="32589"></path><path d="M208 81.66v47.3h608V81.66H208z m453 32.5h-32.5c-5.52 0-10-4.48-10-10 0-5.54 4.48-10 10-10h32.5c5.52 0 10 4.46 10 10 0 5.52-4.48 10-10 10z m66.5 0H695c-5.52 0-10-4.48-10-10 0-5.54 4.48-10 10-10h32.5c5.52 0 10 4.46 10 10 0 5.52-4.48 10-10 10z m66.5 0h-32.5c-5.52 0-10-4.48-10-10 0-5.54 4.48-10 10-10H794c5.52 0 10 4.46 10 10 0 5.52-4.48 10-10 10z" fill="#636368" p-id="32590"></path><path d="M208 148.96v464.7h608V148.96H208z m545.54 427.72H270.46c-5.52 0-10-4.48-10-10s4.48-10 10-10h23.92V297.9c0-5.52 4.48-10 10-10h68.44c5.54 0 10 4.48 10 10v128.14h48.46v-107.28c0-5.52 4.48-10 10-10h58.46V282c0-5.52 4.48-10 10-10h68.46c5.52 0 10 4.48 10 10v97.5h48.44v-167.16c0-5.54 4.48-10 10-10h68.46c5.52 0 10 4.46 10 10v344.34h28.44c5.52 0 10 4.48 10 10s-4.48 10-10 10zM607.02 942.34h-190.04l23.48-113.92h143.08z" fill="#E1E1E5" p-id="32591"></path><path d="M607.02 942.34h-5.56l-17.92-86.92h-143.08l-17.92 86.92h-5.56l23.48-113.92h143.08z" fill="#23130D" opacity=".2" p-id="32592"></path><path d="M915.4 148.96H836v28.8h78.38c5.52 0 10 4.48 10 10V728.4c0 5.52-4.48 10-10 10H109.62c-5.52 0-10-4.48-10-10V187.76c0-5.52 4.48-10 10-10H188v-28.8H108.6c-18.82 0-34.14 15.3-34.14 34.12v591.18c0 18.84 15.32 34.14 34.14 34.14h806.8c18.82 0 34.14-15.3 34.14-34.14V183.08c0-18.82-15.32-34.12-34.14-34.12zM567.66 782.34h-111.32c-5.52 0-10-4.48-10-10s4.48-10 10-10h111.32c5.52 0 10 4.48 10 10s-4.48 10-10 10z" fill="#E1E1E5" p-id="32593"></path><path d="M915.4 788.4H108.6c-18.82 0-34.14-15.3-34.14-34.14v20c0 18.84 15.32 34.14 34.14 34.14h806.8c18.82 0 34.14-15.3 34.14-34.14v-20c0 18.84-15.32 34.14-34.14 34.14z" fill="#23130D" opacity=".2" p-id="32594"></path><path d="M904.38 197.76V718.4H119.62V197.76H188v425.9c0 5.52 4.48 10 10 10h628c5.52 0 10-4.48 10-10V197.76h68.38z" fill="#3594BF" p-id="32595"></path><path d="M577.66 772.34c0 5.52-4.48 10-10 10h-111.32c-5.52 0-10-4.48-10-10s4.48-10 10-10h111.32c5.52 0 10 4.48 10 10zM804 104.16c0 5.52-4.48 10-10 10h-32.5c-5.52 0-10-4.48-10-10 0-5.54 4.48-10 10-10H794c5.52 0 10 4.46 10 10zM737.5 104.16c0 5.52-4.48 10-10 10H695c-5.52 0-10-4.48-10-10 0-5.54 4.48-10 10-10h32.5c5.52 0 10 4.46 10 10zM671 104.16c0 5.52-4.48 10-10 10h-32.5c-5.52 0-10-4.48-10-10 0-5.54 4.48-10 10-10h32.5c5.52 0 10 4.46 10 10zM753.54 556.68h-28.44V212.34c0-5.54-4.48-10-10-10h-68.46c-5.52 0-10 4.46-10 10v167.16H588.2V282c0-5.52-4.48-10-10-10h-68.46c-5.52 0-10 4.48-10 10v26.76h-58.46c-5.52 0-10 4.48-10 10v107.28h-48.46v-128.14c0-5.52-4.46-10-10-10h-68.44c-5.52 0-10 4.48-10 10v258.78h-23.92c-5.52 0-10 4.48-10 10s4.48 10 10 10h483.08c5.52 0 10-4.48 10-10s-4.48-10-10-10z m-390.72 0h-48.44V307.9h48.44v248.78z m68.46 0h-48.46v-110.64h48.46v110.64z m68.46 0h-48.46V328.76h48.46v227.92z m68.46 0h-48.46V292h48.46v264.68z m68.44 0H588.2v-157.18h48.44v157.18z m68.46 0h-48.44v-167.18l-0.02-0.02v-167.14h48.46v334.34z" fill="#23130D" p-id="32596"></path><path d="M314.38 307.9h48.44v248.78h-48.44z" fill="#72AF5F" p-id="32597"></path><path d="M314.38 307.9h15.286v248.78h-15.286z" fill="#FFFFFF" opacity=".4" p-id="32598"></path><path d="M382.82 446.04h48.46v110.64h-48.46z" fill="#EC7063" p-id="32599"></path><path d="M519.74 292h48.46v264.68h-48.46z" fill="#72AF5F" p-id="32600"></path><path d="M451.28 328.76h48.46v227.92h-48.46z" fill="#F9C139" p-id="32601"></path><path d="M588.2 399.5h48.44v157.18H588.2z" fill="#EC7063" p-id="32602"></path><path d="M705.1 222.34v334.34h-48.44v-167.18l-0.02-0.02v-167.14z" fill="#72AF5F" p-id="32603"></path><path d="M382.82 446.04h15.286v110.64h-15.286zM451.26 328.76h15.286v227.92h-15.286zM519.7 292h15.286v264.68h-15.286zM588.14 399.5h15.286v157.18h-15.286zM656.58 222.34h15.286v334.34h-15.286z" fill="#FFFFFF" opacity=".4" p-id="32604"></path><path d="M188 385.86v86.72L119.62 404.2v-86.72zM520.54 718.4h-86.7l-84.74-84.74h86.7zM188 285.5v66.64l-68.38-68.38v-66.64zM620.9 718.4h-66.64l-84.74-84.74h66.64zM169.72 197.76H188v18.28zM801.16 718.4h-110.8l-84.74-84.74h110.8z" fill="#FFFFFF" opacity=".4" p-id="32605"></path></svg>