<?xml version="1.0" standalone="no"?><!DOCTYPE svg PUBLIC "-//W3C//DTD SVG 1.1//EN" "http://www.w3.org/Graphics/SVG/1.1/DTD/svg11.dtd"><svg t="1625812201745" class="icon" viewBox="0 0 1024 1024" version="1.1" xmlns="http://www.w3.org/2000/svg" p-id="54833" xmlns:xlink="http://www.w3.org/1999/xlink" width="200" height="200"><defs><style type="text/css"></style></defs><path d="M558.92 160.64c0 5.54-4.48 10-10 10H522v26.94c0 5.52-4.48 10-10 10s-10-4.48-10-10V170.64h-26.94c-5.52 0-10-4.46-10-10 0-5.52 4.48-10 10-10H502V123.72c0-5.52 4.48-10 10-10s10 4.48 10 10v26.92h26.92c5.52 0 10 4.48 10 10zM558.92 918.14c0 5.52-4.48 10-10 10h-73.86c-5.52 0-10-4.48-10-10s4.48-10 10-10h73.86c5.52 0 10 4.48 10 10zM604.14 459.36a9.944 9.944 0 0 0-7-5.28l-70.42-13.66 54.78-112.08a9.98 9.98 0 0 0-0.5-9.7 9.984 9.984 0 0 0-8.48-4.7h-71.88c-4.16 0-7.88 2.58-9.36 6.48l-71.88 191.1c-1.16 3.06-0.72 6.52 1.14 9.22a10.026 10.026 0 0 0 8.22 4.3h72.3l-58.92 243.38a10.012 10.012 0 0 0 9.72 12.36c3.78 0 7.38-2.16 9.06-5.78l143.36-306.88c1.32-2.78 1.26-6.02-0.14-8.76z m-119.06 216.66l38.4-158.62c0.74-2.98 0.04-6.14-1.86-8.54a9.932 9.932 0 0 0-7.86-3.82H443.2l64.36-171.1h48.94l-53.48 109.42c-1.38 2.8-1.36 6.08 0.02 8.86 1.4 2.78 4 4.76 7.06 5.36l70.64 13.68-95.66 204.76z" fill="#23130D" p-id="54834"></path><path d="M727.68 482.76c5.54 0 10-4.48 10-10v-17.52h96.08c5.54 0 10-4.48 10-10s-4.46-10-10-10h-96.08v-17.52c0-5.52-4.46-10-10-10h-45.02v-58.46h45.02c5.54 0 10-4.48 10-10v-17.5h96.08c5.54 0 10-4.48 10-10 0-5.54-4.46-10-10-10h-96.08v-17.52c0-5.52-4.46-10-10-10h-45.02V243h24c5.52 0 10-4.48 10-10V88.3c0-5.52-4.48-10-10-10h-112.78V33.52c0-5.52-4.48-10-10-10h-143.76c-5.52 0-10 4.48-10 10v44.78h-112.78c-5.52 0-10 4.48-10 10v144.7c0 5.52 4.48 10 10 10h24v31.24h-45.02c-5.54 0-10 4.48-10 10v17.52H190.24c-5.54 0-10 4.48-10 10s4.46 10 10 10h96.08v17.5c0 5.54 4.46 10 10 10h45.02v58.48h-45.02c-5.54 0-10 4.48-10 10v17.5H190.24c-5.54 0-10 4.48-10 10 0 5.54 4.46 10 10 10h96.08v17.52c0 5.52 4.46 10 10 10h45.02v58.48h-45.02c-5.54 0-10 4.46-10 10v17.5H190.24c-5.54 0-10 4.48-10 10 0 5.54 4.46 10 10 10h96.08v17.52c0 5.52 4.46 10 10 10h45.02v58.46h-45.02c-5.54 0-10 4.48-10 10v17.52H190.24c-5.54 0-10 4.48-10 10s4.46 10 10 10h96.08v17.52c0 5.52 4.46 10 10 10h45.02v86.02h-24c-5.52 0-10 4.48-10 10v144.7c0 5.52 4.48 10 10 10h389.32c5.52 0 10-4.48 10-10v-144.7c0-5.52-4.48-10-10-10h-24v-86.02h45.02c5.54 0 10-4.48 10-10v-17.52h96.08c5.54 0 10-4.48 10-10s-4.46-10-10-10h-96.08v-17.52c0-5.52-4.46-10-10-10h-45.02v-58.48h45.02c5.54 0 10-4.46 10-10v-17.5h96.08c5.54 0 10-4.48 10-10s-4.46-10-10-10h-96.08v-17.5c0-5.54-4.46-10-10-10h-45.02v-58.48h45.02z m-10-55.04v35.04h-35.02v-35.04h35.02z m0-133.48V329.26h-35.02v-35.02h35.02zM450.12 43.52h123.76v34.78h-123.76V43.52z m-143.8 285.74v-17.46-0.04-17.52h35.02v35.02h-35.02z m0 133.5v-17.48-17.54h35.02v35.02h-35.02z m0 133.5v-17.48-0.04-17.5h35.02v35.02h-35.02z m0 133.5v-17.48-0.04-17.52h35.02v35.04h-35.02z m390.34 126.02v124.7H327.34v-124.7h369.32z m-335.32-20V243h301.32v592.78H361.34z m356.34-141.06v35.04h-35.02v-35.04h35.02z m0-133.48v35h-35.02v-35h35.02zM327.34 223V98.3h369.32v124.7H327.34z" fill="#23130D" p-id="54835"></path><path d="M341.34 294.24v35.02h-35.02v-17.46-0.04-17.52h35.02z" fill="#F9C139" p-id="54836"></path><path d="M341.34 294.24v35.02h-17.51v-17.46-0.04-17.52h17.51z" opacity=".2" p-id="54837"></path><path d="M341.34 427.74v35.02h-35.02v-17.48-17.54h35.02zM341.34 561.24v35.02h-35.02v-17.48-0.04-17.5h35.02zM341.34 694.72v35.04h-35.02v-17.48-0.04-17.52h35.02zM717.68 294.24V329.26h-35.02v-35.02h35.02zM717.68 427.72v35.04h-35.02v-35.04h35.02zM717.68 561.24v35h-35.02v-35h35.02zM717.68 694.72v35.04h-35.02v-35.04h35.02z" fill="#F9C139" p-id="54838"></path><path d="M327.34 855.78v124.7h369.32v-124.7H327.34z m221.58 72.36h-73.86c-5.52 0-10-4.48-10-10s4.48-10 10-10h73.86c5.52 0 10 4.48 10 10s-4.48 10-10 10z" fill="#EC7063" p-id="54839"></path><path d="M450.12 43.52h123.76v34.78h-123.76z" fill="#E1E1E5" p-id="54840"></path><path d="M450.12 60.91h123.76v17.39h-123.76z" opacity=".2" p-id="54841"></path><path d="M327.34 98.3v124.7h369.32V98.3H327.34z m221.58 72.34H522v26.94c0 5.52-4.48 10-10 10s-10-4.48-10-10V170.64h-26.94c-5.52 0-10-4.46-10-10 0-5.52 4.48-10 10-10H502V123.72c0-5.52 4.48-10 10-10s10 4.48 10 10v26.92h26.92c5.52 0 10 4.48 10 10 0 5.54-4.48 10-10 10z" fill="#72AF5F" p-id="54842"></path><path d="M361.34 243v592.78h301.32V243H361.34z m242.94 225.12L460.92 775a9.99 9.99 0 0 1-12.36 5.22 10.012 10.012 0 0 1-6.42-11.8l58.92-243.38h-72.3c-3.28 0-6.36-1.62-8.22-4.3a10.03 10.03 0 0 1-1.14-9.22l71.88-191.1c1.48-3.9 5.2-6.48 9.36-6.48h71.88c3.46 0 6.66 1.78 8.48 4.7a9.98 9.98 0 0 1 0.5 9.7l-54.78 112.08 70.42 13.66c3.02 0.58 5.6 2.52 7 5.28 1.4 2.74 1.46 5.98 0.14 8.76z" fill="#E1E1E5" p-id="54843"></path><path d="M523.48 517.4c0.74-2.98 0.04-6.14-1.86-8.54a9.932 9.932 0 0 0-7.86-3.82H443.2l64.36-171.1h48.94l-53.48 109.42c-1.38 2.8-1.36 6.08 0.02 8.86 1.4 2.78 4 4.76 7.06 5.36l70.64 13.68-95.66 204.76 38.4-158.62z" fill="#F9C139" p-id="54844"></path><path d="M528.22 333.94l-64.36 171.1H443.2l64.36-171.1zM544.14 517.4l-16.18 66.84-42.88 91.78 38.4-158.62c0.74-2.98 0.04-6.14-1.86-8.54a9.932 9.932 0 0 0-7.86-3.82h20.66c3.08 0 5.98 1.4 7.86 3.82 1.9 2.4 2.6 5.56 1.86 8.54zM341.34 427.74v35.02h-17.51v-17.46-0.04-17.52h17.51zM341.34 561.24v35.02h-17.51v-17.46-0.04-17.52h17.51zM341.34 694.74v35.02h-17.51v-17.46-0.04-17.52h17.51zM700.17 294.24v35.02h-17.51v-17.46-0.04-17.52h17.51zM700.17 427.74v35.02h-17.51v-17.46-0.04-17.52h17.51zM700.17 561.24v35.02h-17.51v-17.46-0.04-17.52h17.51zM700.17 694.74v35.02h-17.51v-17.46-0.04-17.52h17.51zM361.34 243H663v22H361.34zM361.34 813.78H663v22H361.34z" opacity=".2" p-id="54845"></path><path d="M574.98 98.3h17.56v124.7h-17.56zM599.36 98.3h13.5v124.7h-13.5zM626.92 98.3h22.44v124.7h-22.44z" fill="#FFFFFF" opacity=".4" p-id="54846"></path><path d="M574.98 855.79h17.56v124.7h-17.56zM599.36 855.79h13.5v124.7h-13.5zM626.92 855.79h22.44v124.7h-22.44z" fill="#FFFFFF" opacity=".4" p-id="54847"></path></svg>