<?xml version="1.0" standalone="no"?><!DOCTYPE svg PUBLIC "-//W3C//DTD SVG 1.1//EN" "http://www.w3.org/Graphics/SVG/1.1/DTD/svg11.dtd"><svg t="1625811596164" class="icon" viewBox="0 0 1024 1024" version="1.1" xmlns="http://www.w3.org/2000/svg" p-id="35873" xmlns:xlink="http://www.w3.org/1999/xlink" width="200" height="200"><defs><style type="text/css"></style></defs><path d="M154.402 735.748H40.812a10 10 0 1 0 0 20h113.59a10 10 0 1 0 0-20zM158.402 668.964H112.91a10 10 0 1 0 0 20h45.492a10 10 0 1 0 0-20zM28.402 678.964a10 10 0 0 0 10 10h24.41a10 10 0 1 0 0-20H38.402a10 10 0 0 0-10 10zM131.632 622.178a10 10 0 1 0 0-20H61.18a10 10 0 1 0 0 20h70.452zM158.402 535.394h-120a10 10 0 1 0 0 20h120a10 10 0 1 0 0-20zM59.954 468.606a10 10 0 0 0 0 20h71.678a10 10 0 0 0 0-20H59.954zM153.248 411.822a10 10 0 0 0-10-10H73.762a10 10 0 0 0 0 20h69.486a10 10 0 0 0 10-10zM192.916 345.036a10 10 0 0 0-10-10H133.068a10 10 0 0 0 0 20h49.848a10 10 0 0 0 10-10zM76.91 288.252H304a10 10 0 0 0 0-20H76.91a10 10 0 0 0 0 20zM36.03 355.036h47.848a10 10 0 0 0 0-20H36.03a10 10 0 0 0 0 20z" fill="#F9C139" p-id="35874"></path><path d="M851.16 495.7h-103.62l-149.06-144.68c-0.02-0.04-0.06-0.06-0.08-0.08a9.64 9.64 0 0 0-0.88-0.7c-0.24-0.18-0.46-0.38-0.7-0.52-0.26-0.18-0.54-0.28-0.82-0.42-0.32-0.16-0.62-0.34-0.94-0.46-0.24-0.08-0.48-0.12-0.72-0.2-0.38-0.12-0.74-0.24-1.14-0.3-0.24-0.04-0.5-0.04-0.76-0.06-0.38-0.04-0.76-0.1-1.14-0.08-0.28 0-0.58 0.06-0.86 0.1-0.36 0.02-0.7 0.04-1.04 0.12-0.28 0.06-0.54 0.16-0.8 0.24-0.36 0.12-0.72 0.22-1.06 0.36-0.24 0.1-0.44 0.24-0.66 0.36-0.38 0.2-0.74 0.38-1.08 0.62-0.04 0.02-0.06 0.04-0.1 0.06-0.94 0.68-96.16 68.14-166.94 68.14-70.96 0-173.08-67.64-174.1-68.32-1.64-1.1-3.58-1.7-5.56-1.7-29.78 0-54.02 24.24-54.02 54.04v343.52c0 5.54 4.46 10 10 10h792.9c5.52 0 10-4.46 10-10v-103.22c0-80.96-65.86-146.82-146.82-146.82z m-646.08-93.48c0-17.82 13.76-32.48 31.22-33.92 17.54 11.36 111.38 69.9 182.46 69.9 66.4 0 147.62-50.98 171.68-67.12l144.14 139.92c3.98 14.84 23.14 94.4-10.72 139.98-16.16 21.78-42.84 32.82-79.32 32.84H356.52c-4.98-81.26-70.2-146.46-151.44-151.46v-130.14z m0 150.2c70.22 4.92 126.46 61.18 131.38 131.4h-131.38v-131.4z m772.9 183.32H205.08v-31.92h772.9v31.92z m0-51.92h-259.6c8.24-5.74 15.46-12.7 21.54-20.9 34.46-46.4 23.08-118.04 16.44-147.22h94.8c69.92 0 126.82 56.9 126.82 126.82v41.3z" fill="#23130D" p-id="35875"></path><path d="M977.98 703.82v31.92H205.08v-31.92h772.9z" fill="#5D5D5D" p-id="35876"></path><path d="M977.98 703.82v15.96H205.08v-15.96h772.9z" fill="#23130D" opacity=".2" p-id="35877"></path><path d="M977.98 642.52v41.3h-259.6c8.24-5.74 15.46-12.7 21.54-20.9 34.46-46.4 23.08-118.04 16.44-147.22h94.8c69.92 0 126.82 56.9 126.82 126.82z" fill="#E1E1E5" p-id="35878"></path><path d="M718.38 683.82c0.96-0.68 1.92-1.36 2.86-2.06-0.52 0.7-1.06 1.38-1.6 2.06h-1.26zM977.98 642.52v41.3h-18.18v-23.12c0-69.92-56.9-126.82-126.82-126.82h-73.08c-1.16-7.06-2.42-13.24-3.54-18.18h94.8c69.92 0 126.82 56.9 126.82 126.82z" fill="#23130D" opacity=".2" p-id="35879"></path><path d="M336.46 683.82h-131.38v-131.4c70.22 4.92 126.46 61.18 131.38 131.4z" fill="#E1E1E5" p-id="35880"></path><path d="M336.46 683.82h-131.38v-131.4c6.08 0.42 12.08 1.24 17.92 2.42v111.04h111.04c1.18 5.86 2 11.84 2.42 17.94z" fill="#23130D" opacity=".2" p-id="35881"></path><path d="M734.58 511l-144.14-139.92c-24.06 16.14-105.28 67.12-171.68 67.12-71.08 0-164.92-58.54-182.46-69.9-17.46 1.44-31.22 16.1-31.22 33.92v130.14c81.24 5 146.46 70.2 151.44 151.46h288.02c36.48-0.02 63.16-11.06 79.32-32.84 33.86-45.58 14.7-125.14 10.72-139.98z m-36.96 18.12a9.912 9.912 0 0 1-7.24 3.12c-2.48 0-4.96-0.92-6.88-2.76l-98.88-94.04c-4-3.82-4.16-10.14-0.34-14.14 3.8-4 10.14-4.16 14.14-0.36l98.86 94.06c4 3.8 4.16 10.12 0.34 14.12z" fill="#F9C139" p-id="35882"></path><path d="M663.86 664.5H375.84c-4.98-81.24-70.22-146.46-151.46-151.46v-130.14c0-4.36 0.82-8.54 2.34-12.38-12.66 4.96-21.64 17.3-21.64 31.7v130.14c81.24 5 146.46 70.2 151.44 151.46h288.02c36.48-0.02 63.16-11.06 79.32-32.84 0.62-0.82 1.22-1.66 1.78-2.52-15.66 10.66-36.32 16.04-61.78 16.04z" fill="#23130D" opacity=".2" p-id="35883"></path><path d="M697.62 529.12a9.912 9.912 0 0 1-7.24 3.12c-2.48 0-4.96-0.92-6.88-2.76l-98.88-94.04c-4-3.82-4.16-10.14-0.34-14.14 3.8-4 10.14-4.16 14.14-0.36l98.86 94.06c4 3.8 4.16 10.12 0.34 14.12z" fill="#FFFFFF" p-id="35884"></path></svg>