<?xml version="1.0" standalone="no"?><!DOCTYPE svg PUBLIC "-//W3C//DTD SVG 1.1//EN" "http://www.w3.org/Graphics/SVG/1.1/DTD/svg11.dtd"><svg t="1625811602710" class="icon" viewBox="0 0 1024 1024" version="1.1" xmlns="http://www.w3.org/2000/svg" p-id="36191" xmlns:xlink="http://www.w3.org/1999/xlink" width="200" height="200"><defs><style type="text/css"></style></defs><path d="M994.06 472.66a31.024 31.024 0 0 0-15.28-18.36l-35.96-18.92c-3.4-1.8-7.1-2.94-10.9-3.38l15.08-28.64c8-15.22 2.14-34.12-13.08-42.14l-35.98-18.94c-4.46-2.34-9.48-3.6-14.52-3.6-11.62 0-22.2 6.4-27.62 16.68l-47.74 90.68c-32.1-16.78-67-30.66-104-41.34l-0.2-11.2-0.26-45.9v-1.08c0-0.02-0.02-0.04-0.02-0.06l-0.06-6.9v-0.26l-0.54-21.1c-0.32-13.72-5.94-26.42-15.8-35.8-9.58-9.1-22.12-13.94-35.18-13.6-15.6 0.4-29.34 8.12-38.18 19.84-2.02-2.9-4.32-5.6-6.92-8.1-9.98-9.46-22.96-14.5-36.76-14.16-13.76 0.36-26.54 6.04-36.02 16-1.62 1.72-3.1 3.52-4.46 5.4-1.88-2.56-3.98-5-6.32-7.24-9.98-9.48-23.02-14.48-36.76-14.16-16.7 0.44-31.38 8.82-40.46 21.42-1.86-2.58-3.98-5-6.34-7.26-9.96-9.48-23.02-14.46-36.74-14.16-13.76 0.36-26.54 6.04-36.02 16-9.44 9.94-14.46 22.94-14.14 36.62l-0.02 27.5c0 0.02 0.02 0.02 0.02 0.02l0.02 32.74a52.192 52.192 0 0 0-32.34-11.16c-27.08 0-45.98 21.52-45.98 52.3v5.1c-19.26 7.92-37.86 16.82-55.46 26.62L168.2 355.36c-5.42-10.28-16-16.66-27.64-16.66-5.02 0-10.04 1.24-14.5 3.58l-35.98 18.94c-15.22 8.02-21.08 26.92-13.08 42.16L92.08 432c-3.8 0.44-7.5 1.58-10.9 3.38l-35.96 18.92c-7.38 3.88-12.8 10.4-15.28 18.36-2.46 7.98-1.68 16.42 2.2 23.8l82.18 156.12c5.42 10.28 16 16.68 27.62 16.68 5.04 0 10.06-1.24 14.52-3.6l35.98-18.94c3.5-1.84 6.48-4.28 8.92-7.08l16.04 30.46c5.42 10.3 16.02 16.68 27.64 16.68 5.02 0 10.04-1.24 14.52-3.6l35.96-18.92c15.24-8.02 21.1-26.92 13.08-42.16l-43.36-82.38c6.9-4.7 14.08-9.24 21.5-13.52 20.88 38.58 62.04 81.32 63.82 83.16l23.76 25.36c-12 8.56-19.9 22.56-19.98 38.36-0.14 23.84 17.4 43.72 40.3 47.2v224.26c0 5.52 4.46 10 10 10h257.82c5.54 0 10-4.48 10-10V721.3c21.38-4.52 37.58-23.5 37.7-46.18 0.08-12.68-4.8-24.64-13.72-33.66-2.4-2.44-5.04-4.58-7.86-6.4 11.38-14.26 18.06-32.76 17.62-50.34l-1.48-81.56c20.66 8.5 40.02 18.36 57.76 29.48l-47.08 89.46a31.096 31.096 0 0 0-2.2 23.8c2.48 7.96 7.9 14.48 15.28 18.36l35.96 18.92c4.48 2.36 9.5 3.6 14.52 3.6 5.8 0 11.36-1.6 16.14-4.48s8.78-7.06 11.5-12.2l16.04-30.46c2.46 2.8 5.42 5.24 8.92 7.08l35.98 18.94c4.46 2.36 9.48 3.6 14.52 3.6 11.62 0 22.22-6.4 27.62-16.68l82.18-156.12c3.88-7.38 4.66-15.82 2.2-23.8z m-673.5-84.56c10.58 0 20.12 5.04 26.06 13.18-17.76 4.74-35.14 10.24-51.96 16.42 0.76-14.78 7.84-29.6 25.9-29.6zM183.12 629.02l-35.98 18.94c-1.62 0.86-3.38 1.3-5.2 1.3-4.18 0-7.98-2.3-9.92-6l-82.18-156.12c-1.4-2.66-1.68-5.68-0.8-8.54 0.9-2.86 2.84-5.2 5.5-6.6l35.96-18.94c1.64-0.86 3.38-1.28 5.2-1.28 4.18 0 7.98 2.28 9.94 5.98l19.56 37.2 62.62 118.94c2.88 5.46 0.76 12.26-4.7 15.12z m107.78 2.4c2.88 5.46 0.78 12.26-4.68 15.14l-35.98 18.94c-1.62 0.84-3.38 1.28-5.2 1.28-4.18 0-7.98-2.28-9.94-5.98l-77.56-147.36-34.2-64.98c0-0.02-0.02-0.02-0.02-0.02l-28.62-54.38a11.228 11.228 0 0 1 4.7-15.14l35.96-18.94c1.64-0.86 3.38-1.28 5.2-1.28 4.2 0 8 2.28 9.94 5.98l140.4 266.74z m-4.68-127.86c-10.52 5.68-20.7 11.82-30.36 18.32l-27.42-52.06c18.88-10.52 38.96-20.02 59.84-28.3 20.66-8.2 42.36-15.32 64.66-21.24l0.06 54.36c-23.52 7.94-45.96 17.64-66.78 28.92z m78.82 92.02c-0.44-0.46-41.22-42.84-60.74-78.92 15.44-7.86 31.76-14.84 48.72-20.86l0.04 36.48a10 10 0 0 0 10 9.98h0.02c5.52 0 10-4.48 9.98-10l-0.18-185.76c0-0.02-0.02-0.02-0.02-0.02l0.02-27.6v-0.26c-0.22-8.4 2.86-16.36 8.64-22.46 5.8-6.1 13.62-9.56 22.02-9.78 8.38-0.22 16.36 2.86 22.46 8.66 6.1 5.8 9.56 13.62 9.78 22.02l0.54 21.4v0.08l0.08 7.44v0.52c0 0.02 0.02 0.06 0.02 0.08v0.02c0 0.1 0.02 0.2 0.02 0.28 0.02 0.6 0.08 1.18 0.2 1.74 0 0.02 0.02 0.04 0.02 0.06a10 10 0 0 0 2.76 4.98c0.04 0.04 0.1 0.06 0.14 0.1 0.42 0.4 0.86 0.76 1.34 1.08 0.16 0.12 0.36 0.2 0.52 0.3 0.38 0.22 0.76 0.44 1.16 0.6 0.26 0.12 0.56 0.18 0.82 0.26 0.36 0.12 0.7 0.24 1.06 0.32 0.22 0.04 0.46 0.04 0.68 0.06 0.42 0.06 0.84 0.14 1.26 0.14 0.04 0 0.08-0.02 0.12-0.02h0.06c0.66-0.02 1.32-0.08 1.94-0.22 0.06-0.02 0.12-0.04 0.2-0.06 0.58-0.14 1.14-0.3 1.66-0.54 0.12-0.06 0.22-0.12 0.34-0.18 0.46-0.22 0.92-0.46 1.34-0.76 0.16-0.1 0.3-0.24 0.46-0.36 0.34-0.28 0.7-0.54 1-0.86 0.2-0.18 0.34-0.4 0.5-0.6 0.24-0.28 0.5-0.56 0.7-0.88 0.2-0.26 0.34-0.58 0.48-0.88 0.16-0.26 0.32-0.52 0.44-0.8 0.16-0.38 0.26-0.78 0.36-1.18 0.06-0.22 0.16-0.44 0.2-0.68 0.1-0.48 0.12-0.96 0.16-1.46 0-0.18 0.04-0.34 0.04-0.52v-0.08s0.02-0.02 0.02-0.04l-0.02-0.44 0.02-27.08v-0.26c-0.44-17.34 13.32-31.8 30.66-32.24 8.4-0.22 16.38 2.86 22.46 8.66 6.1 5.8 9.58 13.62 9.8 22.02l0.54 21.4v0.08l0.08 7.88v0.18c0 0.26 0.06 0.48 0.08 0.74 0.04 0.42 0.06 0.84 0.14 1.24 0.04 0.14 0.1 0.26 0.12 0.4 0.14 0.52 0.28 1.02 0.48 1.48 0 0.02 0 0.02 0.02 0.04a9.972 9.972 0 0 0 9.16 6.02c1.42 0 2.76-0.32 3.98-0.84 0.02 0 0.02-0.02 0.04-0.02 0.58-0.26 1.14-0.56 1.64-0.92a0.54 0.54 0 0 0 0.16-0.14c0.48-0.32 0.92-0.68 1.3-1.08 0.1-0.1 0.18-0.22 0.26-0.32 0.34-0.36 0.68-0.74 0.96-1.16 0.1-0.18 0.18-0.36 0.28-0.54 0.22-0.38 0.44-0.76 0.62-1.16 0.1-0.26 0.16-0.54 0.24-0.82 0.12-0.34 0.26-0.68 0.32-1.04 0.08-0.38 0.08-0.76 0.12-1.14 0.02-0.28 0.08-0.54 0.08-0.82v-0.3l0.02-27.34v-0.26c-0.22-8.4 2.86-16.36 8.64-22.46 5.8-6.1 13.62-9.56 22.02-9.78 8.36-0.22 16.38 2.86 22.46 8.66 6.1 5.8 9.58 13.62 9.78 22.02l0.56 21.4v0.08l0.08 7.56v1.48c-0.02 5.52 4.46 10 9.98 10h0.02a10 10 0 0 0 10-9.98v-27.36c-0.42-16.92 12.6-31.02 29-31.46 7.72-0.2 15.18 2.68 20.88 8.12 5.98 5.68 9.38 13.42 9.6 21.8l0.52 20.98v0.08l0.08 7.92v0.04l0.28 46.02 0.22 14.14 0.26 60.62 0.12 21.78 1.74 94.88c0.36 15.06-6.7 31.62-17.88 42.54-1.78-0.2-3.58-0.32-5.38-0.34l-260.88-1.48h-0.3c-2.62 0-5.2 0.24-7.72 0.64l-29.02-30.94z m287.42 338.96H414.64V720.9l237.82 1.36v212.28z m37.7-259.54c-0.08 15.06-12.4 27.32-27.46 27.32l-261.04-1.48c-15.16-0.1-27.42-12.48-27.32-27.64 0.08-15.06 12.4-27.32 27.62-27.32l260.88 1.48c7.34 0.04 14.22 2.94 19.38 8.16a27.32 27.32 0 0 1 7.94 19.48z m14.28-193.48l-0.26-55.96c33.6 10.06 65.32 22.88 94.58 38.18l-26.92 51.14c-20.6-12.8-43.22-23.96-67.4-33.36z m114.04 123.06l-29.58 56.22a11.204 11.204 0 0 1-9.94 5.98c-1.82 0-3.58-0.44-5.2-1.28l-35.96-18.94c-2.66-1.4-4.6-3.74-5.5-6.6-0.88-2.86-0.6-5.88 0.8-8.54l140.4-266.74a11.17 11.17 0 0 1 15.14-4.7l35.96 18.94a11.228 11.228 0 0 1 4.7 15.14l-50.66 96.24-60.16 114.28z m155.68-117.44l-82.18 156.12a11.17 11.17 0 0 1-15.14 4.7l-35.96-18.94a11.204 11.204 0 0 1-4.7-15.12l59.38-112.82 22.8-43.32a11.204 11.204 0 0 1 9.94-5.98c1.82 0 3.56 0.42 5.2 1.28l35.96 18.94c2.66 1.4 4.6 3.74 5.5 6.6 0.88 2.86 0.6 5.88-0.8 8.54z" fill="#23130D" p-id="36192"></path><path d="M346.62 401.28c-17.76 4.74-35.14 10.24-51.96 16.42 0.76-14.78 7.84-29.6 25.9-29.6 10.58 0 20.12 5.04 26.06 13.18z" fill="#F8D3C9" p-id="36193"></path><path d="M974.16 487.14l-82.18 156.12a11.17 11.17 0 0 1-15.14 4.7l-35.96-18.94a11.204 11.204 0 0 1-4.7-15.12l59.38-112.82 22.8-43.32a11.204 11.204 0 0 1 9.94-5.98c1.82 0 3.56 0.42 5.2 1.28l35.96 18.94c2.66 1.4 4.6 3.74 5.5 6.6 0.88 2.86 0.6 5.88-0.8 8.54z" fill="#EC7063" p-id="36194"></path><path d="M929.3 394.06l-50.66 96.24-60.16 114.28-29.58 56.22a11.204 11.204 0 0 1-9.94 5.98c-1.82 0-3.58-0.44-5.2-1.28l-35.96-18.94c-2.66-1.4-4.6-3.74-5.5-6.6-0.88-2.86-0.6-5.88 0.8-8.54l140.4-266.74a11.17 11.17 0 0 1 15.14-4.7l35.96 18.94a11.228 11.228 0 0 1 4.7 15.14z" fill="#F9C139" p-id="36195"></path><path d="M798.76 463.74l-26.92 51.14c-20.6-12.8-43.22-23.96-67.4-33.36l-0.26-55.96c33.6 10.06 65.32 22.88 94.58 38.18z" fill="#E1E1E5" p-id="36196"></path><path d="M798.76 463.74l-8.58 16.3c-26.82-13.38-55.6-24.7-85.9-33.8l-0.1-20.68c33.6 10.06 65.32 22.88 94.58 38.18z" fill="#23130D" opacity=".2" p-id="36197"></path><path d="M353 474.64c-23.52 7.94-45.96 17.64-66.78 28.92-10.52 5.68-20.7 11.82-30.36 18.32l-27.42-52.06c18.88-10.52 38.96-20.02 59.84-28.3 20.66-8.2 42.36-15.32 64.66-21.24l0.06 54.36z" fill="#E1E1E5" p-id="36198"></path><path d="M353 474.64h-0.02l-0.04-35.28c-22.3 5.92-44 13.04-64.66 21.24-18.02 7.14-35.46 15.2-52.02 24.04l-7.82-14.82c18.88-10.52 38.96-20.02 59.84-28.3 20.66-8.2 42.36-15.32 64.66-21.24l0.06 54.36z" fill="#23130D" opacity=".2" p-id="36199"></path><path d="M183.12 629.02l-35.98 18.94c-1.62 0.86-3.38 1.3-5.2 1.3-4.18 0-7.98-2.3-9.92-6l-82.18-156.12c-1.4-2.66-1.68-5.68-0.8-8.54 0.9-2.86 2.84-5.2 5.5-6.6l35.96-18.94c1.64-0.86 3.38-1.28 5.2-1.28 4.18 0 7.98 2.28 9.94 5.98l19.56 37.2 62.62 118.94c2.88 5.46 0.76 12.26-4.7 15.12z" fill="#EC7063" p-id="36200"></path><path d="M286.22 646.56l-35.98 18.94c-1.62 0.84-3.38 1.28-5.2 1.28-4.18 0-7.98-2.28-9.94-5.98l-77.56-147.36-34.2-64.98c0-0.02-0.02-0.02-0.02-0.02l-28.62-54.38a11.228 11.228 0 0 1 4.7-15.14l35.96-18.94c1.64-0.86 3.38-1.28 5.2-1.28 4.2 0 8 2.28 9.94 5.98l140.4 266.74c2.88 5.46 0.78 12.26-4.68 15.14z" fill="#F9C139" p-id="36201"></path><path d="M183.12 629.02l-2.12 1.12-62.46-118.66-19.56-37.2a11.242 11.242 0 0 0-9.94-5.98c-1.82 0-3.56 0.42-5.2 1.3l-33.86 17.82-0.14-0.28c-1.4-2.66-1.68-5.68-0.8-8.54 0.9-2.86 2.84-5.2 5.5-6.6l35.96-18.94c1.64-0.86 3.38-1.28 5.2-1.28 4.18 0 7.98 2.28 9.94 5.98l19.56 37.2 62.62 118.94c2.88 5.46 0.76 12.26-4.7 15.12zM286.22 646.56l-2.12 1.12-140.26-266.46a11.14 11.14 0 0 0-9.94-6c-1.82 0-3.56 0.42-5.2 1.28l-33.84 17.84-0.16-0.28a11.228 11.228 0 0 1 4.7-15.14l35.96-18.94c1.64-0.86 3.38-1.28 5.2-1.28 4.2 0 8 2.28 9.94 5.98l140.4 266.74c2.88 5.46 0.78 12.26-4.68 15.14zM840.868 629.02l2.12 1.12 62.46-118.66 19.56-37.2a11.242 11.242 0 0 1 9.94-5.98c1.82 0 3.56 0.42 5.2 1.3l33.86 17.82 0.14-0.28c1.4-2.66 1.68-5.68 0.8-8.54a11.188 11.188 0 0 0-5.5-6.6l-35.96-18.94c-1.64-0.86-3.38-1.28-5.2-1.28-4.18 0-7.98 2.28-9.94 5.98l-19.56 37.2-62.62 118.94a11.204 11.204 0 0 0 4.7 15.12zM737.768 646.56l2.12 1.12 140.26-266.46c1.94-3.72 5.74-6 9.94-6 1.82 0 3.56 0.42 5.2 1.28l33.84 17.84 0.16-0.28c2.88-5.48 0.76-12.26-4.7-15.14l-35.96-18.94c-1.64-0.86-3.38-1.28-5.2-1.28-4.2 0-8 2.28-9.94 5.98l-140.4 266.74a11.226 11.226 0 0 0 4.68 15.14z" fill="#23130D" opacity=".2" p-id="36202"></path><path d="M652.46 722.26v212.28H414.64V720.9z" fill="#3594BF" p-id="36203"></path><path d="M440 722.26v212.28h-25.36V720.9z" fill="#FFFFFF" opacity=".4" p-id="36204"></path><path d="M652.46 722.26v212.28h-25.36V720.9z" fill="#23130D" opacity=".2" p-id="36205"></path><path d="M690.16 675c-0.08 15.06-12.4 27.32-27.46 27.32l-261.04-1.48c-15.16-0.1-27.42-12.48-27.32-27.64 0.08-15.06 12.4-27.32 27.62-27.32l260.88 1.48c7.34 0.04 14.22 2.94 19.38 8.16a27.32 27.32 0 0 1 7.94 19.48z" fill="#E1E1E5" p-id="36206"></path><path d="M690.16 675c-0.08 15.06-12.4 27.32-27.46 27.32l-261.04-1.48c-15.16-0.1-27.42-12.48-27.32-27.64 0.02-3.12 0.56-6.12 1.56-8.9 3.74 10.62 13.86 18.28 25.76 18.36l261.04 1.48c11.94 0 22.16-7.72 25.9-18.42 1.04 2.94 1.58 6.06 1.56 9.28z" fill="#23130D" opacity=".2" p-id="36207"></path><path d="M686.22 585.16c0.36 15.06-6.7 31.62-17.88 42.54-1.78-0.2-3.58-0.32-5.38-0.34l-260.88-1.48h-0.3c-2.62 0-5.2 0.24-7.72 0.64l-29.02-30.94c-0.44-0.46-41.22-42.84-60.74-78.92 15.44-7.86 31.76-14.84 48.72-20.86l0.04 36.48a10 10 0 0 0 10 9.98h0.02c5.52 0 10-4.48 9.98-10l-0.18-185.76c0-0.02-0.02-0.02-0.02-0.02l0.02-27.6v-0.26c-0.22-8.4 2.86-16.36 8.64-22.46 5.8-6.1 13.62-9.56 22.02-9.78 8.38-0.22 16.36 2.86 22.46 8.66 6.1 5.8 9.56 13.62 9.78 22.02l0.54 21.4v0.08l0.08 7.44v0.52c0 0.02 0.02 0.06 0.02 0.08v0.02c0 0.1 0.02 0.2 0.02 0.28 0.02 0.6 0.08 1.18 0.2 1.74 0 0.02 0.02 0.04 0.02 0.06a10 10 0 0 0 2.76 4.98c0.04 0.04 0.1 0.06 0.14 0.1 0.42 0.4 0.86 0.76 1.34 1.08 0.16 0.12 0.36 0.2 0.52 0.3 0.38 0.22 0.76 0.44 1.16 0.6 0.26 0.12 0.56 0.18 0.82 0.26 0.36 0.12 0.7 0.24 1.06 0.32 0.22 0.04 0.46 0.04 0.68 0.06 0.42 0.06 0.84 0.14 1.26 0.14 0.04 0 0.08-0.02 0.12-0.02h0.06c0.66-0.02 1.32-0.08 1.94-0.22 0.06-0.02 0.12-0.04 0.2-0.06 0.58-0.14 1.14-0.3 1.66-0.54 0.12-0.06 0.22-0.12 0.34-0.18 0.46-0.22 0.92-0.46 1.34-0.76 0.16-0.1 0.3-0.24 0.46-0.36 0.34-0.28 0.7-0.54 1-0.86 0.2-0.18 0.34-0.4 0.5-0.6 0.24-0.28 0.5-0.56 0.7-0.88 0.2-0.26 0.34-0.58 0.48-0.88 0.16-0.26 0.32-0.52 0.44-0.8 0.16-0.38 0.26-0.78 0.36-1.18 0.06-0.22 0.16-0.44 0.2-0.68 0.1-0.48 0.12-0.96 0.16-1.46 0-0.18 0.04-0.34 0.04-0.52v-0.08s0.02-0.02 0.02-0.04l-0.02-0.44 0.02-27.08v-0.26c-0.44-17.34 13.32-31.8 30.66-32.24 8.4-0.22 16.38 2.86 22.46 8.66 6.1 5.8 9.58 13.62 9.8 22.02l0.54 21.4v0.08l0.08 7.88v0.18c0 0.26 0.06 0.48 0.08 0.74 0.04 0.42 0.06 0.84 0.14 1.24 0.04 0.14 0.1 0.26 0.12 0.4 0.14 0.52 0.28 1.02 0.48 1.48 0 0.02 0 0.02 0.02 0.04a9.972 9.972 0 0 0 9.16 6.02c1.42 0 2.76-0.32 3.98-0.84 0.02 0 0.02-0.02 0.04-0.02 0.58-0.26 1.14-0.56 1.64-0.92a0.54 0.54 0 0 0 0.16-0.14c0.48-0.32 0.92-0.68 1.3-1.08 0.1-0.1 0.18-0.22 0.26-0.32 0.34-0.36 0.68-0.74 0.96-1.16 0.1-0.18 0.18-0.36 0.28-0.54 0.22-0.38 0.44-0.76 0.62-1.16 0.1-0.26 0.16-0.54 0.24-0.82 0.12-0.34 0.26-0.68 0.32-1.04 0.08-0.38 0.08-0.76 0.12-1.14 0.02-0.28 0.08-0.54 0.08-0.82v-0.3l0.02-27.34v-0.26c-0.22-8.4 2.86-16.36 8.64-22.46 5.8-6.1 13.62-9.56 22.02-9.78 8.36-0.22 16.38 2.86 22.46 8.66 6.1 5.8 9.58 13.62 9.78 22.02l0.56 21.4v0.08l0.08 7.56v1.48c-0.02 5.52 4.46 10 9.98 10h0.02a10 10 0 0 0 10-9.98v-27.36c-0.42-16.92 12.6-31.02 29-31.46 7.72-0.2 15.18 2.68 20.88 8.12 5.98 5.68 9.38 13.42 9.6 21.8l0.52 20.98v0.08l0.08 7.92v0.04l0.28 46.02 0.22 14.14 0.26 60.62 0.12 21.78 1.74 94.88z" fill="#F8D3C9" p-id="36208"></path><path d="M686.22 585.16c0.36 15.06-6.7 31.62-17.88 42.54-1.78-0.2-3.58-0.32-5.38-0.34l-260.88-1.48h-0.3c-2.62 0-5.2 0.24-7.72 0.64l-29.02-30.94c-0.44-0.46-41.22-42.84-60.74-78.92 5-2.54 10.08-5 15.26-7.34 20.2 28.52 45.14 54.42 45.48 54.78l29.02 30.94c2.52-0.4 5.1-0.64 7.72-0.64h0.3l260.88 1.48c1.8 0.02 3.6 0.14 5.38 0.34 9.28-9.08 15.74-22.04 17.44-34.8l0.44 23.74z" fill="#23130D" opacity=".2" p-id="36209"></path><path d="M530.246 135.212a10 10 0 0 0 10-10V79.456a10 10 0 1 0-20 0v45.756a10 10 0 0 0 10 10zM402.158 162.212a9.998 9.998 0 0 0 13.66 3.66 10 10 0 0 0 3.66-13.66l-22.876-39.618a10 10 0 1 0-17.32 10l22.876 39.618zM278.762 230.424l39.624 22.876a9.998 9.998 0 0 0 13.66-3.66 9.998 9.998 0 0 0-3.66-13.66l-39.624-22.876a10 10 0 0 0-10 17.32zM737.11 254.642c1.696 0 3.414-0.432 4.99-1.34l39.63-22.876a9.998 9.998 0 0 0 3.66-13.66 10 10 0 0 0-13.66-3.662L732.1 235.98a9.998 9.998 0 0 0 5.01 18.662zM644.67 165.872a9.992 9.992 0 0 0 13.66-3.658l22.888-39.622a10 10 0 1 0-17.316-10.004l-22.888 39.622a10 10 0 0 0 3.656 13.662z" fill="#23130D" p-id="36210"></path></svg>