<?xml version="1.0" standalone="no"?><!DOCTYPE svg PUBLIC "-//W3C//DTD SVG 1.1//EN" "http://www.w3.org/Graphics/SVG/1.1/DTD/svg11.dtd"><svg t="1625812196059" class="icon" viewBox="0 0 1024 1024" version="1.1" xmlns="http://www.w3.org/2000/svg" p-id="54509" xmlns:xlink="http://www.w3.org/1999/xlink" width="200" height="200"><defs><style type="text/css"></style></defs><path d="M729.28 821.26c-0.48-1.2-1.22-2.32-2.2-3.3l-136.8-136.8c-0.04-0.04-0.1-0.08-0.14-0.12-0.3-0.3-0.64-0.54-0.98-0.8-0.2-0.14-0.4-0.32-0.6-0.44-0.32-0.2-0.64-0.36-0.98-0.52-0.26-0.12-0.5-0.26-0.78-0.36-0.3-0.12-0.64-0.2-0.96-0.3-0.3-0.08-0.58-0.16-0.88-0.22-0.34-0.06-0.68-0.08-1.04-0.1-0.28-0.02-0.58-0.06-0.86-0.06-0.34 0.02-0.68 0.06-1.02 0.1-0.3 0.04-0.62 0.06-0.92 0.12-0.3 0.08-0.6 0.18-0.9 0.28-0.34 0.1-0.66 0.2-0.98 0.34-0.08 0.04-0.16 0.04-0.24 0.08-56.92 26.5-96.98 80.38-106.34 142.06-69.94-2.18-135.38-30.44-185.1-80.16-49.7-49.7-77.96-115.14-80.16-185.1 61.68-9.36 115.56-49.42 142.06-106.34 0.02-0.06 0.04-0.14 0.08-0.22 0.14-0.34 0.26-0.7 0.36-1.06 0.08-0.28 0.18-0.56 0.24-0.84 0.08-0.32 0.1-0.64 0.14-0.96 0.04-0.32 0.08-0.64 0.1-0.98 0-0.3-0.04-0.62-0.06-0.92a7.74 7.74 0 0 0-0.1-0.98c-0.06-0.32-0.16-0.64-0.24-0.96-0.08-0.28-0.16-0.58-0.26-0.88-0.12-0.3-0.28-0.58-0.44-0.88-0.14-0.28-0.26-0.58-0.44-0.86-0.16-0.24-0.34-0.48-0.52-0.7-0.24-0.3-0.46-0.6-0.72-0.86-0.04-0.06-0.08-0.14-0.14-0.18l-136.8-136.8a9.97 9.97 0 0 0-14.14 0l-118.62 118.62c-0.12 0.1-0.18 0.24-0.28 0.34-0.24 0.26-0.46 0.54-0.66 0.82-0.2 0.26-0.38 0.52-0.56 0.8-0.16 0.28-0.3 0.54-0.42 0.82-0.16 0.34-0.3 0.68-0.44 1.02-0.04 0.14-0.1 0.26-0.14 0.38-45.26 150.04-4.58 312.02 106.14 422.74 80.82 80.82 188.96 124.32 299.82 124.32 41 0 82.4-5.96 122.92-18.16 0.14-0.06 0.26-0.12 0.4-0.18 0.32-0.12 0.66-0.26 0.98-0.4 0.3-0.14 0.58-0.28 0.84-0.44 0.28-0.18 0.54-0.36 0.8-0.54 0.28-0.22 0.56-0.44 0.84-0.68 0.1-0.1 0.22-0.18 0.32-0.28l118.62-118.62c2.94-2.92 3.66-7.22 2.2-10.84zM203.6 322.74l124.64 124.66c-4.4 8.5-9.5 16.56-15.2 24.08L183.94 342.4l19.66-19.66z m392.52 612.04c-142.3 41.98-295.52 3.08-400.44-101.84-104.92-104.92-143.8-258.14-101.84-400.44l75.96-75.96 130.18 130.18c-27.2 28.14-63.9 46.5-103.74 50.52-0.18 0.02-0.32 0.08-0.5 0.1-0.34 0.06-0.68 0.12-1.02 0.22-0.3 0.08-0.62 0.18-0.9 0.28-0.32 0.12-0.62 0.24-0.92 0.38-0.3 0.14-0.58 0.3-0.84 0.46-0.28 0.18-0.54 0.36-0.8 0.54a11.032 11.032 0 0 0-1.42 1.3l-0.6 0.72c-0.18 0.26-0.36 0.54-0.54 0.82-0.16 0.26-0.3 0.54-0.44 0.82-0.14 0.3-0.26 0.6-0.38 0.9-0.12 0.32-0.22 0.62-0.3 0.94-0.08 0.32-0.14 0.62-0.18 0.94-0.06 0.34-0.1 0.68-0.1 1.04-0.02 0.16-0.06 0.32-0.06 0.5 0.02 78.58 30.62 152.44 86.18 208s129.42 86.16 208 86.18c0.24 0 0.46-0.06 0.68-0.06 0.42-0.04 0.84-0.06 1.24-0.14 0.32-0.06 0.6-0.16 0.9-0.24 0.3-0.1 0.62-0.18 0.92-0.3 0.3-0.12 0.56-0.26 0.84-0.42 0.28-0.14 0.56-0.28 0.82-0.44 0.26-0.16 0.48-0.36 0.72-0.54 0.26-0.2 0.52-0.4 0.74-0.62 0.22-0.2 0.4-0.42 0.6-0.64 0.22-0.24 0.44-0.5 0.64-0.76 0.16-0.24 0.3-0.48 0.46-0.72 0.18-0.3 0.34-0.6 0.48-0.9 0.12-0.26 0.22-0.54 0.34-0.82 0.1-0.32 0.22-0.64 0.3-0.98 0.06-0.28 0.12-0.58 0.16-0.88 0.04-0.18 0.1-0.36 0.12-0.54 4.02-39.84 22.38-76.54 50.52-103.74l130.18 130.18-75.96 75.96z m90.1-90.1l-129.08-129.1c7.52-5.7 15.56-10.8 24.08-15.2l124.66 124.64-19.66 19.66z" fill="#23130D" p-id="54510"></path><path d="M705.88 825.02l-19.66 19.66-129.08-129.1c7.52-5.7 15.56-10.8 24.08-15.2l124.66 124.64zM328.24 447.4c-4.4 8.5-9.5 16.56-15.2 24.08L183.94 342.4l19.66-19.66 124.64 124.66z" fill="#E1E1E5" p-id="54511"></path><path d="M705.88 825.02l-10.34 10.34-124.66-124.64c-4.06 2.1-8 4.34-11.84 6.76l-1.9-1.9c7.52-5.7 15.56-10.8 24.08-15.2l124.66 124.64zM328.24 447.4c-4.4 8.5-9.5 16.56-15.2 24.08l-1.9-1.9c2.4-3.84 4.66-7.78 6.76-11.84l-124.64-124.66 10.34-10.34 124.64 124.66z" opacity=".2" p-id="54512"></path><path d="M672.08 858.82l-75.96 75.96c-4.58 1.34-9.16 2.62-13.76 3.8-9.12 2.34-18.3 4.38-27.5 6.06-8.6 1.6-17.22 2.9-25.86 3.92-7.86 0.94-15.7 1.64-23.56 2.1-7.56 0.48-15.1 0.72-22.64 0.72-6.5 0.04-12.96-0.1-19.42-0.38-6.86-0.3-13.68-0.78-20.5-1.44-6.4-0.62-12.78-1.38-19.14-2.3-6.28-0.9-12.54-1.96-18.78-3.16-5.92-1.14-11.8-2.4-17.64-3.8-5.82-1.4-11.6-2.92-17.36-4.56-5.48-1.58-10.94-3.28-16.34-5.1-5.44-1.8-10.82-3.72-16.16-5.76-5.14-1.96-10.22-4.02-15.26-6.18-5.08-2.18-10.1-4.46-15.08-6.86-4.8-2.28-9.58-4.68-14.28-7.16-4.76-2.52-9.44-5.12-14.1-7.82-4.5-2.6-8.94-5.3-13.34-8.1-4.46-2.8-8.86-5.72-13.2-8.74-4.22-2.88-8.38-5.88-12.48-8.96-4.16-3.1-8.28-6.3-12.34-9.58-3.64-2.94-7.24-5.96-10.78-9.04-3.9-3.38-7.74-6.86-11.52-10.42-3.18-2.96-6.32-6-9.4-9.08l-1.48-1.48c-3.64-3.68-7.22-7.44-10.68-11.24-3.44-3.74-6.8-7.54-10.06-11.38-3.38-3.96-6.66-7.98-9.88-12.06-3.16-4.02-6.24-8.08-9.22-12.22-3.1-4.24-6.1-8.54-9.02-12.9-2.88-4.3-5.66-8.66-8.38-13.06a406.134 406.134 0 0 1-15.6-27.78c-2.48-4.88-4.88-9.8-7.14-14.78a391.732 391.732 0 0 1-12.64-30.72c-1.94-5.3-3.76-10.62-5.44-16-1.8-5.62-3.46-11.26-4.98-16.96-1.42-5.26-2.74-10.56-3.94-15.88-1.38-6.04-2.6-12.12-3.68-18.24-1.12-6.16-2.08-12.34-2.88-18.56-0.86-6.58-1.56-13.2-2.1-19.84-0.56-6.74-0.92-13.52-1.12-20.3-0.24-7.28-0.26-14.58-0.08-21.88 0.18-7.52 0.56-15.06 1.18-22.6a397.048 397.048 0 0 1 7.3-50.68c2.02-9.74 4.42-19.46 7.22-29.14 0.24-0.92 0.52-1.82 0.78-2.74l75.96-75.96 130.18 130.18a169.022 169.022 0 0 1-61.94 40.7c-9.7 3.66-19.8 6.44-30.16 8.22-3.84 0.68-7.72 1.2-11.64 1.6-0.18 0.02-0.32 0.08-0.5 0.1-0.34 0.06-0.68 0.12-1.02 0.22-0.3 0.08-0.62 0.18-0.9 0.28-0.32 0.12-0.62 0.24-0.92 0.38-0.3 0.14-0.58 0.3-0.84 0.46-0.28 0.18-0.54 0.36-0.8 0.54a11.032 11.032 0 0 0-1.42 1.3l-0.6 0.72c-0.18 0.26-0.36 0.54-0.54 0.82-0.16 0.26-0.3 0.54-0.44 0.82-0.14 0.3-0.26 0.6-0.38 0.9-0.12 0.32-0.22 0.62-0.3 0.94-0.08 0.32-0.14 0.62-0.18 0.94-0.06 0.34-0.1 0.68-0.1 1.04-0.02 0.16-0.06 0.32-0.06 0.5 0 2.98 0.04 5.96 0.14 8.94 0.2 6.92 0.64 13.78 1.32 20.62 0.64 6.36 1.46 12.68 2.5 18.94a292.952 292.952 0 0 0 8.08 35.28c1.64 5.54 3.46 11.04 5.44 16.48 1.86 5.18 3.88 10.32 6.04 15.4 2.18 5.06 4.48 10.06 6.94 15 2.36 4.74 4.84 9.4 7.44 14 2.62 4.64 5.38 9.2 8.26 13.68 2.76 4.32 5.64 8.58 8.66 12.76 3.04 4.22 6.18 8.38 9.46 12.48 3.18 3.94 6.44 7.82 9.82 11.62 3.44 3.84 6.96 7.62 10.62 11.3 0.46 0.5 0.96 1 1.46 1.5 3.1 3.1 6.24 6.1 9.44 9.04 3.82 3.52 7.74 6.92 11.72 10.2 3.64 3 7.36 5.92 11.12 8.72 4.2 3.16 8.48 6.18 12.84 9.08a283.656 283.656 0 0 0 27.24 16.14c4.74 2.48 9.56 4.82 14.42 7.02a296.8 296.8 0 0 0 15.46 6.46c5.22 2.02 10.52 3.88 15.86 5.58 5.62 1.8 11.32 3.44 17.06 4.88 5.8 1.48 11.66 2.78 17.56 3.88 6.26 1.2 12.58 2.18 18.96 2.96 6.52 0.8 13.08 1.38 19.68 1.76 5.52 0.3 11.06 0.46 16.64 0.46 0.24 0 0.46-0.06 0.68-0.06 0.42-0.04 0.84-0.06 1.24-0.14 0.32-0.06 0.6-0.16 0.9-0.24 0.3-0.1 0.62-0.18 0.92-0.3 0.3-0.12 0.56-0.26 0.84-0.42 0.28-0.14 0.56-0.28 0.82-0.44 0.26-0.16 0.48-0.36 0.72-0.54 0.26-0.2 0.52-0.4 0.74-0.62 0.22-0.2 0.4-0.42 0.6-0.64 0.22-0.24 0.44-0.5 0.64-0.76 0.16-0.24 0.3-0.48 0.46-0.72 0.18-0.3 0.34-0.6 0.48-0.9 0.12-0.26 0.22-0.54 0.34-0.82 0.1-0.32 0.22-0.64 0.3-0.98 0.06-0.28 0.12-0.58 0.16-0.88 0.04-0.18 0.1-0.36 0.12-0.54 0.74-7.36 1.98-14.62 3.66-21.72a168.11 168.11 0 0 1 11.74-33.18c8.68-18.22 20.6-34.8 35.12-48.84l17.58 17.58 10.96 10.96 10.72 10.72 21.68 21.68 10.98 10.98 9.9 9.9 48.36 48.36z" fill="#EC7063" p-id="54513"></path><path d="M626.2 904.7l-30.08 30.08c-142.3 41.98-295.52 3.08-400.44-101.84-104.92-104.92-143.8-258.14-101.84-400.44l30.08-30.08c-41.96 142.3-3.08 295.52 101.84 400.44s258.14 143.82 400.44 101.84z" opacity=".2" p-id="54514"></path><path d="M266.43 513.63l-126.86-126.86 30.08-30.08 130.18 130.18a168.76 168.76 0 0 1-33.4 26.76zM671.93 858.97l-30.08 30.08-126.84-126.84c7.42-12.2 16.44-23.46 26.74-33.42l130.18 130.18z" fill="#FFFFFF" opacity=".1" p-id="54515"></path><path d="M686.14 52.68c-154.68 0-280.54 125.86-280.54 280.56 0 57.66 17.36 113.06 50.22 160.22 31.7 45.48 75.52 80.22 126.82 100.58l98.98 99c1.88 1.88 4.42 2.92 7.08 2.92 2.64 0 5.2-1.04 7.06-2.92l102.64-102.64a280.356 280.356 0 0 0 168.3-257.16c0-154.7-125.86-280.56-280.56-280.56z m102.6 520.1c-1.16 0.5-2.24 1.22-3.12 2.12l-96.92 96.92-93.4-93.4c-0.98-0.98-2.16-1.74-3.46-2.24-99.44-38.6-166.24-136.24-166.24-242.94 0-143.68 116.88-260.56 260.54-260.56 143.68 0 260.56 116.88 260.56 260.56 0 104.38-62 198.4-157.96 239.54z" fill="#23130D" p-id="54516"></path><path d="M562.9 214.54l86.36 86.36v-86.36h-86.36z m-16.42 181.26v44.3h44.3l-44.3-44.3z m16.42-181.26l86.36 86.36v-86.36h-86.36z m-16.42 181.26v44.3h44.3l-44.3-44.3z m176.22-94.86v16.38h16.38l-16.38-16.38z m-159.8-86.4l86.36 86.36v-86.36h-86.36z m-16.42 181.26v44.3h44.3l-44.3-44.3z m176.22-94.86v16.38h16.38l-16.38-16.38z m-159.8-86.4l86.36 86.36v-86.36h-86.36z m-16.42 225.56h44.3l-44.3-44.3v44.3z m139.66-367.42c-22.84 0-45 2.96-66.12 8.5a259.448 259.448 0 0 0-80.38 36.7c-14.4 9.82-27.78 21.06-39.9 33.5-11.68 11.96-22.2 25.02-31.4 39.02a258.514 258.514 0 0 0-37.34 89.92c-3.54 17.08-5.4 34.8-5.4 52.92 0 106.7 66.8 204.34 166.24 242.94 1.3 0.5 2.48 1.26 3.46 2.24l93.4 93.4 66.9-66.9 30.02-30.02c0.88-0.9 1.96-1.62 3.12-2.12 6.1-2.62 12.06-5.44 17.86-8.48 7.76-4.02 15.24-8.42 22.46-13.18 14.12-9.22 27.18-19.74 39.08-31.34 12.5-12.2 23.7-25.58 33.46-39.94a260.26 260.26 0 0 0 36.62-80.46c5.56-21.26 8.48-43.46 8.48-66.14 0-143.68-116.88-260.56-260.56-260.56z m-16.88 254.64c0 5.52-4.46 10-10 10h-112.78v102.78h112.78c5.54 0 10 4.48 10 10s-4.46 10-10 10h-122.78c-5.52 0-10-4.48-10-10v-122.78c0-5.52 4.48-10 10-10h112.78v-102.78h-112.78c-5.52 0-10-4.48-10-10s4.48-10 10-10h122.78c5.54 0 10 4.48 10 10v122.78z m176.22 122.78c0 5.52-4.48 10-10 10s-10-4.48-10-10v-112.78h-112.78c-5.54 0-10-4.48-10-10v-122.78c0-5.52 4.46-10 10-10 5.52 0 10 4.48 10 10v112.78h102.78v-112.78c0-5.52 4.48-10 10-10s10 4.48 10 10v245.56z m-299-54.3v44.3h44.3l-44.3-44.3z m16.42-181.26l86.36 86.36v-86.36h-86.36z m159.8 86.4v16.38h16.38l-16.38-16.38z m-176.22 94.86v44.3h44.3l-44.3-44.3z m16.42-181.26l86.36 86.36v-86.36h-86.36z m159.8 86.4v16.38h16.38l-16.38-16.38z m-176.22 94.86v44.3h44.3l-44.3-44.3z m16.42-181.26l86.36 86.36v-86.36h-86.36z m-16.42 181.26v44.3h44.3l-44.3-44.3z m16.42-181.26l86.36 86.36v-86.36h-86.36z" fill="#F9C139" p-id="54517"></path><path d="M686.14 82.68c138.16 0 250.56 112.4 250.56 250.56a250.368 250.368 0 0 1-151.918 230.356 19.94 19.94 0 0 0-6.264 4.264l-89.818 89.818-86.328-86.328a19.8 19.8 0 0 0-6.912-4.492c-95.616-37.116-159.858-131-159.858-233.618C435.6 195.08 547.992 82.68 686.14 82.68m129.34 224.64h-82.78v-102.78c0-11.028-8.972-20-20-20s-20 8.972-20 20v122.78c0 11.028 8.972 20 20 20h102.78v102.78c0 11.028 8.972 20 20 20s20-8.972 20-20V204.54c0-11.028-8.972-20-20-20s-20 8.972-20 20v102.78m-279-82.78h102.78v82.78h-102.78c-11.028 0-20 8.972-20 20v122.78c0 11.028 8.972 20 20 20h122.78c11.028 0 20-8.972 20-20s-8.972-20-20-20h-102.78v-82.78h102.78c11.028 0 20-8.972 20-20v-122.78c0-11.028-8.972-20-20-20h-122.78c-11.028 0-20 8.972-20 20s8.972 20 20 20m149.66-151.86c-143.66 0-260.54 116.88-260.54 260.56 0 106.7 66.8 204.34 166.24 242.94 1.3 0.5 2.48 1.26 3.46 2.24l93.4 93.4 96.92-96.92c0.88-0.9 1.96-1.62 3.12-2.12a260.346 260.346 0 0 0 157.96-239.54c0-143.68-116.88-260.56-260.56-260.56z m36.56 244.64h102.78v-112.78c0-5.52 4.48-10 10-10s10 4.48 10 10v245.56c0 5.52-4.48 10-10 10s-10-4.48-10-10v-112.78h-112.78c-5.54 0-10-4.48-10-10v-122.78c0-5.52 4.46-10 10-10 5.52 0 10 4.48 10 10v112.78z m-186.22-102.78c-5.52 0-10-4.48-10-10s4.48-10 10-10h122.78c5.54 0 10 4.48 10 10v122.78c0 5.52-4.46 10-10 10h-112.78v102.78h112.78c5.54 0 10 4.48 10 10s-4.46 10-10 10h-122.78c-5.52 0-10-4.48-10-10v-122.78c0-5.52 4.48-10 10-10h112.78v-102.78h-112.78z" opacity=".2" p-id="54518"></path><path d="M546.48 337.32v102.78h112.78c5.54 0 10 4.48 10 10s-4.46 10-10 10h-122.78c-5.52 0-10-4.48-10-10v-122.78c0-5.52 4.48-10 10-10h112.78v-102.78h-112.78c-5.52 0-10-4.48-10-10s4.48-10 10-10h122.78c5.54 0 10 4.48 10 10v122.78c0 5.52-4.46 10-10 10h-112.78zM845.48 204.54v245.56c0 5.52-4.48 10-10 10s-10-4.48-10-10v-112.78h-112.78c-5.54 0-10-4.48-10-10v-122.78c0-5.52 4.46-10 10-10 5.52 0 10 4.48 10 10v112.78h102.78v-112.78c0-5.52 4.48-10 10-10s10 4.48 10 10z" fill="#23130D" p-id="54519"></path><path d="M559.62 317.32h-23.14c-5.52 0-10 4.48-10 10v48.48l-95.48-95.48c4.94-23.86 13.14-46.52 24.12-67.5l104.5 104.5z" fill="#FFFFFF" opacity=".4" p-id="54520"></path><path d="M806.6 564.3c-5.8 3.04-11.76 5.86-17.86 8.48-1.16 0.5-2.24 1.22-3.12 2.12l-30.02 30.02-144.82-144.82h48.48c5.54 0 10-4.48 10-10s-4.46-10-10-10h-68.48l-44.3-44.3v-58.48h33.14L806.6 564.3zM649.26 317.32h-54L468.34 190.4c9.2-14 19.72-27.06 31.4-39.02l43.16 43.16h-6.42c-5.52 0-10 4.48-10 10s4.48 10 10 10h26.42l86.36 86.36v16.42zM868.14 519.78c-11.9 11.6-24.96 22.12-39.08 31.34l-213.8-213.8h44c5.54 0 10-4.48 10-10v-6.42l198.88 198.88zM636.3 214.54h12.96v12.96z" fill="#FFFFFF" opacity=".4" p-id="54521"></path><path d="M825.48 286.64v30.68h-86.4l-16.38-16.38v-96.4c0-5.52-4.48-10-10-10-5.54 0-10 4.48-10 10v76.4l-33.44-33.44v-42.96c0-5.52-4.46-10-10-10h-42.96l-76.66-76.66c24.2-16.52 51.3-29.06 80.38-36.7l205.46 205.46zM759.08 337.32h66.4v66.4zM938.22 399.38a260.26 260.26 0 0 1-36.62 80.46l-56.12-56.12v-117.08l92.74 92.74z" fill="#FFFFFF" opacity=".4" p-id="54522"></path><path d="M181.74 368.48l-95.9 95.9c2.02-9.74 4.42-19.46 7.22-29.14l77.72-77.72 10.96 10.96zM203.42 390.16l-124.88 124.9c0.64-8.22 1.56-16.44 2.72-24.66l111.2-111.2 10.96 10.96zM225.12 411.86l-147.68 147.68c-0.24-7.28-0.26-14.58-0.08-21.88l136.78-136.78 10.98 10.98zM246.8 433.54l-166.14 166.14c-0.86-6.58-1.56-13.2-2.1-19.84l157.28-157.26 10.96 10.96zM268.48 455.22l-181.26 181.26c-1.38-6.04-2.6-12.12-3.68-18.24l173.98-173.98 10.96 10.96z" fill="#FFFFFF" opacity=".1" p-id="54523"></path><path d="M187.38 556.14c0.2 6.92 0.64 13.78 1.32 20.62l-92.56 92.56c-1.8-5.62-3.46-11.26-4.98-16.96l96.22-96.22zM289.36 476.1l-51.32 51.32c-9.7 3.66-19.8 6.44-30.16 8.22l70.52-70.5 10.96 10.96zM194.82 614l-87.12 87.12c-2.16-5.24-4.2-10.5-6.12-15.8l89.62-89.62c1.02 6.16 2.22 12.26 3.62 18.3zM204.72 647.46l-83.36 83.36c-2.48-4.88-4.88-9.8-7.14-14.78l85.06-85.06c1.64 5.54 3.46 11.04 5.44 16.48zM217.7 677.86L136.96 758.6c-2.8-4.56-5.5-9.16-8.12-13.82l81.92-81.92c2.18 5.06 4.48 10.06 6.94 15zM233.4 705.54l-79.04 79.02c-3.1-4.24-6.1-8.54-9.02-12.9l79.8-79.8c2.62 4.64 5.38 9.2 8.26 13.68zM251.52 730.78l-78.06 78.06c-3.38-3.96-6.66-7.98-9.88-12.06l78.48-78.48c3.04 4.22 6.18 8.38 9.46 12.48zM271.96 753.7L194.2 831.46c-3.64-3.68-7.22-7.44-10.68-11.24l77.82-77.82c3.44 3.84 6.96 7.62 10.62 11.3zM294.58 774.44l-77.98 78c-3.9-3.38-7.74-6.86-11.52-10.42l77.78-77.78c3.82 3.52 7.74 6.92 11.72 10.2z" fill="#FFFFFF" opacity=".1" p-id="54524"></path><path d="M318.54 792.24l-78.82 78.82c-4.16-3.1-8.28-6.3-12.34-9.58l78.32-78.32c4.2 3.16 8.48 6.18 12.84 9.08zM345.78 808.38l-80.38 80.38c-4.46-2.8-8.86-5.72-13.2-8.74l79.48-79.48c4.62 2.74 9.32 5.36 14.1 7.84zM375.66 821.86l-82.82 82.82c-4.76-2.52-9.44-5.12-14.1-7.82l81.46-81.46a296.8 296.8 0 0 0 15.46 6.46zM408.58 832.32l-86.38 86.38c-5.08-2.18-10.1-4.46-15.08-6.86l84.4-84.4c5.62 1.8 11.32 3.44 17.06 4.88zM445.1 839.16l-91.48 91.48c-5.44-1.8-10.82-3.72-16.16-5.76l88.68-88.68c6.26 1.2 12.58 2.18 18.96 2.96zM548.76 735.5l-41.98 41.98c8.68-18.22 20.6-34.8 35.12-48.84l6.86 6.86zM570.44 757.18l-183.12 183.12c-5.82-1.4-11.6-2.92-17.36-4.56l94.82-94.82c5.52 0.3 11.06 0.46 16.64 0.46 0.24 0 0.46-0.06 0.68-0.06 0.42-0.04 0.84-0.06 1.24-0.14 0.32-0.06 0.6-0.16 0.9-0.24 0.3-0.1 0.62-0.18 0.92-0.3 0.3-0.12 0.56-0.26 0.84-0.42 0.28-0.14 0.56-0.28 0.82-0.44 0.26-0.16 0.48-0.36 0.72-0.54 0.26-0.2 0.52-0.4 0.74-0.62 0.22-0.2 0.4-0.42 0.6-0.64 0.22-0.24 0.44-0.5 0.64-0.76 0.16-0.24 0.3-0.48 0.46-0.72 0.18-0.3 0.34-0.6 0.48-0.9 0.12-0.26 0.22-0.54 0.34-0.82 0.1-0.32 0.22-0.64 0.3-0.98 0.06-0.28 0.12-0.58 0.16-0.88 0.04-0.18 0.1-0.36 0.12-0.54 0.74-7.36 1.98-14.62 3.66-21.72l64.44-64.44 10.96 10.96zM592.12 778.86l-168.38 168.4c-6.28-0.9-12.54-1.96-18.78-3.16l176.2-176.2 10.96 10.96zM613.82 800.56l-150.44 150.44c-6.86-0.3-13.68-0.78-20.5-1.44l159.96-159.98 10.98 10.98z" fill="#FFFFFF" opacity=".1" p-id="54525"></path><path d="M634.68 821.42l-129.24 129.24c-7.56 0.48-15.1 0.72-22.64 0.72l140.92-140.92 10.96 10.96zM656.38 843.12l-101.52 101.52c-8.6 1.6-17.22 2.9-25.86 3.92l116.4-116.42 10.98 10.98zM672.08 858.82l-75.96 75.96c-4.58 1.34-9.16 2.62-13.76 3.8l84.74-84.74 4.98 4.98z" fill="#FFFFFF" opacity=".1" p-id="54526"></path></svg>