<?xml version="1.0" standalone="no"?><!DOCTYPE svg PUBLIC "-//W3C//DTD SVG 1.1//EN" "http://www.w3.org/Graphics/SVG/1.1/DTD/svg11.dtd"><svg t="1625811926438" class="icon" viewBox="0 0 1024 1024" version="1.1" xmlns="http://www.w3.org/2000/svg" p-id="44483" xmlns:xlink="http://www.w3.org/1999/xlink" width="200" height="200"><defs><style type="text/css"></style></defs><path d="M470.7 255.8c5.52 0 10-4.48 10-10V107.74c0-5.52-4.48-10-10-10h-107.16V55.48c0-5.52-4.48-10-10-10h-137.16c-5.52 0-10 4.48-10 10v42.26H99.24c-5.52 0-10 4.48-10 10v138.06c0 5.52 4.48 10 10 10h22.44v564.66H99.24c-5.52 0-10 4.48-10 10v138.06c0 5.52 4.48 10 10 10h371.46c5.52 0 10-4.48 10-10v-138.06c0-5.52-4.48-10-10-10h-22.46V255.8h22.46zM226.38 65.48h117.16v32.26h-117.16V65.48z m234.32 774.98v118.06H109.24v-118.06h351.46z m-107.16-536.32h74.7v28.8h-45.86c-5.52 0-10 4.48-10 10s4.48 10 10 10h45.86v28.8h-74.7c-5.52 0-10 4.48-10 10s4.48 10 10 10h74.7v28.8h-45.86c-5.52 0-10 4.48-10 10s4.48 10 10 10h45.86v28.8h-74.7c-5.52 0-10 4.46-10 10 0 5.52 4.48 10 10 10h74.7v28.8h-45.86c-5.52 0-10 4.48-10 10s4.48 10 10 10h45.86v28.8h-74.7c-5.52 0-10 4.48-10 10s4.48 10 10 10h74.7v28.8h-45.86c-5.52 0-10 4.48-10 10s4.48 10 10 10h45.86v28.8h-74.7c-5.52 0-10 4.46-10 10 0 5.52 4.48 10 10 10h74.7v28.8h-45.86c-5.52 0-10 4.48-10 10s4.48 10 10 10h45.86v28.8h-74.7c-5.52 0-10 4.46-10 10 0 5.52 4.48 10 10 10h74.7v28.32H141.68V255.8h286.56v28.34h-74.7c-5.52 0-10 4.46-10 10 0 5.52 4.48 10 10 10zM109.24 235.8V117.74h107.08c0.02 0 0.04 0.02 0.06 0.02s0.04-0.02 0.06-0.02h137.04c0.02 0 0.04 0.02 0.06 0.02s0.04-0.02 0.06-0.02h107.1v118.06H109.24z" fill="#23130D" p-id="44484"></path><path d="M109.24 840.46v118.06h351.46v-118.06H109.24z m210.96 69.04h-70.48c-5.52 0-10-4.48-10-10s4.48-10 10-10h70.48c5.52 0 10 4.48 10 10s-4.48 10-10 10z" fill="#E1E1E5" p-id="44485"></path><path d="M226.38 65.48h117.16v32.26h-117.16z" fill="#F9C139" p-id="44486"></path><path d="M226.38 65.48h117.16v17.27h-117.16z" opacity=".2" p-id="44487"></path><path d="M353.6 117.74c-0.02 0-0.04 0.02-0.06 0.02s-0.04-0.02-0.06-0.02h-137.04c-0.02 0-0.04 0.02-0.06 0.02s-0.04-0.02-0.06-0.02H109.24v118.06h351.46V117.74H353.6z m-33.4 69.04h-25.24V212c0 5.54-4.48 10-10 10s-10-4.46-10-10V186.78h-25.24c-5.52 0-10-4.48-10-10s4.48-10 10-10h25.24V141.54c0-5.52 4.48-10 10-10s10 4.48 10 10v25.24h25.24c5.52 0 10 4.48 10 10s-4.48 10-10 10z" fill="#E1E1E5" p-id="44488"></path><path d="M343.54 294.14c0 5.52 4.48 10 10 10h74.7v28.8h-45.86c-5.52 0-10 4.48-10 10s4.48 10 10 10h45.86v28.8h-74.7c-5.52 0-10 4.48-10 10s4.48 10 10 10h74.7v28.8h-45.86c-5.52 0-10 4.48-10 10s4.48 10 10 10h45.86v28.8h-74.7c-5.52 0-10 4.46-10 10 0 5.52 4.48 10 10 10h74.7v28.8h-45.86c-5.52 0-10 4.48-10 10s4.48 10 10 10h45.86v28.8h-74.7c-5.52 0-10 4.48-10 10s4.48 10 10 10h74.7v28.8h-45.86c-5.52 0-10 4.48-10 10s4.48 10 10 10h45.86v28.8h-74.7c-5.52 0-10 4.46-10 10 0 5.52 4.48 10 10 10h74.7v28.8h-45.86c-5.52 0-10 4.48-10 10s4.48 10 10 10h45.86v28.8h-74.7c-5.52 0-10 4.46-10 10 0 5.52 4.48 10 10 10h74.7v28.32H141.68V255.8h286.56v28.34h-74.7c-5.52 0-10 4.46-10 10z" fill="#F9C139" p-id="44489"></path><path d="M393.08 255.8h35.16v28.34h-35.16zM393.08 304.14h35.16v28.8h-35.16zM393.08 352.94h35.16v28.8h-35.16zM393.08 401.74h35.16v28.8h-35.16zM393.08 450.54h35.16v28.8h-35.16zM393.08 499.34h35.16v28.8h-35.16zM393.08 548.14h35.16v28.8h-35.16zM393.08 596.94h35.16v28.8h-35.16zM393.08 645.74h35.16v28.8h-35.16zM393.08 694.54h35.16v28.8h-35.16zM393.08 743.34h35.16v28.8h-35.16zM393.08 792.14h35.16v28.32h-35.16z" opacity=".2" p-id="44490"></path><path d="M141.6 255.8h35.16v564.66H141.6z" fill="#FFFFFF" opacity=".4" p-id="44491"></path><path d="M330.2 176.78c0 5.52-4.48 10-10 10h-25.24V212c0 5.54-4.48 10-10 10s-10-4.46-10-10V186.78h-25.24c-5.52 0-10-4.48-10-10s4.48-10 10-10h25.24V141.54c0-5.52 4.48-10 10-10s10 4.48 10 10v25.24h25.24c5.52 0 10 4.48 10 10zM330.2 899.5c0 5.52-4.48 10-10 10h-70.48c-5.52 0-10-4.48-10-10s4.48-10 10-10h70.48c5.52 0 10 4.48 10 10zM924.76 255.8c5.52 0 10-4.48 10-10V107.74c0-5.52-4.48-10-10-10h-107.14V55.48c0-5.52-4.48-10-10-10h-137.16c-5.52 0-10 4.48-10 10v42.26h-107.14c-5.54 0-10 4.48-10 10v138.06c0 5.52 4.46 10 10 10h22.44v564.66h-22.44c-5.54 0-10 4.48-10 10v138.06c0 5.52 4.46 10 10 10h371.44c5.52 0 10-4.48 10-10v-138.06c0-5.52-4.48-10-10-10h-22.44V255.8h22.44zM680.46 65.48h117.16v32.26h-117.16V65.48z m234.3 774.98v118.06H563.32v-118.06h351.44z m-319-20V255.8h286.56v564.66H595.76zM563.32 235.8V117.74h107.08c0.02 0 0.04 0.02 0.06 0.02s0.04-0.02 0.06-0.02h137.04c0.02 0 0.04 0.02 0.06 0.02s0.04-0.02 0.06-0.02h107.08v118.06H563.32z" fill="#23130D" p-id="44492"></path><path d="M563.32 840.46v118.06h351.44v-118.06H563.32z m210.96 69.04H703.8c-5.52 0-10-4.48-10-10s4.48-10 10-10h70.48c5.52 0 10 4.48 10 10s-4.48 10-10 10z" fill="#E1E1E5" p-id="44493"></path><path d="M680.46 65.48h117.16v32.26h-117.16zM701.36 524.9v110.12l15.16-62.62 11.5-47.5h-26.66z m0 0v110.12l15.16-62.62 11.5-47.5h-26.66z m60.2-97.48l-7.8 15.96 7.8 1.52 15.16 2.92V396.4l-15.16 31.02z m-60.2 97.48v110.12l15.16-62.62 11.5-47.5h-26.66z m-105.6-269.1v564.66h286.56V255.8H595.76z m231.76 214.54l-4.64 9.94-15.5 33.16-15.16 32.46-15.5 33.16-15.16 32.46-15.52 33.22-14 29.96-15.52 33.22-15.16 32.44-10.64 22.78a9.9 9.9 0 0 1-4.86 4.82c-1.3 0.62-2.74 0.94-4.2 0.94a10.012 10.012 0 0 1-9.72-12.36l13.92-57.5 15.5-64.02 15.16-62.62 11.5-47.5h-68.4c-1.56 0-3.06-0.36-4.42-1.04-1.5-0.74-2.82-1.86-3.8-3.28a9.982 9.982 0 0 1-1.14-9.2l4.94-13.14 15.5-41.2 15.16-40.3 15.5-41.2 15.16-40.32 2.32-6.16c1.48-3.9 5.2-6.48 9.36-6.48h68.58c3.46 0 6.66 1.76 8.48 4.7 1.84 2.92 2.02 6.58 0.52 9.68l-13.56 27.74-15.5 31.7-15.16 31.02-7.8 15.96 7.8 1.52 15.16 2.92 15.5 3 15.16 2.94 12.98 2.52c0.88 0.16 1.72 0.46 2.52 0.86 1.9 0.94 3.48 2.48 4.48 4.42 1.4 2.74 1.46 5.98 0.16 8.78z m-126.16 54.56v110.12l15.16-62.62 11.5-47.5h-26.66z m60.2-97.48l-7.8 15.96 7.8 1.52 15.16 2.92V396.4l-15.16 31.02z m-60.2 97.48v110.12l15.16-62.62 11.5-47.5h-26.66z" fill="#72AF5F" p-id="44494"></path><path d="M807.68 117.74c-0.02 0-0.04 0.02-0.06 0.02s-0.04-0.02-0.06-0.02h-137.04c-0.02 0-0.04 0.02-0.06 0.02s-0.04-0.02-0.06-0.02h-107.08v118.06h351.44V117.74h-107.08z m-33.4 69.04h-25.24V212c0 5.54-4.48 10-10 10s-10-4.46-10-10V186.78H703.8c-5.52 0-10-4.48-10-10s4.48-10 10-10h25.24V141.54c0-5.52 4.48-10 10-10s10 4.48 10 10v25.24h25.24c5.52 0 10 4.48 10 10s-4.48 10-10 10z" fill="#E1E1E5" p-id="44495"></path><path d="M784.28 176.78c0 5.52-4.48 10-10 10h-25.24V212c0 5.54-4.48 10-10 10s-10-4.46-10-10V186.78H703.8c-5.52 0-10-4.48-10-10s4.48-10 10-10h25.24V141.54c0-5.52 4.48-10 10-10s10 4.48 10 10v25.24h25.24c5.52 0 10 4.48 10 10zM784.28 899.5c0 5.52-4.48 10-10 10H703.8c-5.52 0-10-4.48-10-10s4.48-10 10-10h70.48c5.52 0 10 4.48 10 10zM827.36 461.56a9.998 9.998 0 0 0-7-5.28l-66.6-12.9 52.02-106.42c1.5-3.1 1.32-6.76-0.52-9.68a9.94 9.94 0 0 0-8.48-4.7H728.2c-4.16 0-7.88 2.58-9.36 6.48l-68.58 182.32c-1.16 3.06-0.72 6.52 1.14 9.2a9.994 9.994 0 0 0 8.22 4.32h68.4l-56.08 231.64a10.012 10.012 0 0 0 9.72 12.36c3.78 0 7.38-2.16 9.06-5.76l136.8-292.8c1.3-2.8 1.24-6.04-0.16-8.78z m-112.48 202.6l35.56-146.9c0.74-2.98 0.04-6.14-1.86-8.54a9.92 9.92 0 0 0-7.84-3.82h-66.68l61.06-162.32h45.64l-50.7 103.74c-1.38 2.78-1.36 6.06 0.02 8.84 1.4 2.8 4 4.78 7.06 5.36l66.82 12.96-89.08 190.68z" fill="#23130D" p-id="44496"></path><path d="M750.44 517.26c0.74-2.98 0.04-6.14-1.86-8.54a9.92 9.92 0 0 0-7.84-3.82h-66.68l61.06-162.32h45.64l-50.7 103.74c-1.38 2.78-1.36 6.06 0.02 8.84 1.4 2.8 4 4.78 7.06 5.36l66.82 12.96-89.08 190.68 35.56-146.9z" fill="#E1E1E5" p-id="44497"></path><path d="M772.98 502.26l-18.84 77.86-39.26 84.04 35.56-146.9c0.74-2.98 0.04-6.14-1.86-8.54a9.92 9.92 0 0 0-7.84-3.82h-66.68l61.06-162.32h16.92l-55.42 147.32h66.68c3.06 0 5.94 1.4 7.84 3.82 1.9 2.4 2.6 5.56 1.84 8.54z" opacity=".2" p-id="44498"></path><path d="M418.62 743.34c3.94 0 7.44 1.92 9.62 4.84v-4.84h-9.62zM161.82 268.88c0 6.62-5.38 12-12 12-3.16 0-6-1.22-8.14-3.2v-17.62a11.996 11.996 0 0 1 8.14-3.18c6.62 0 12 5.36 12 12zM216.22 268.88c0 6.62-5.36 12-12 12-6.62 0-12-5.38-12-12 0-6.64 5.38-12 12-12 6.64 0 12 5.36 12 12zM270.64 268.88c0 6.62-5.38 12-12 12-6.64 0-12-5.38-12-12 0-6.64 5.36-12 12-12 6.62 0 12 5.36 12 12zM325.04 268.88c0 6.62-5.36 12-12 12-6.62 0-12-5.38-12-12 0-6.64 5.38-12 12-12 6.64 0 12 5.36 12 12zM379.46 268.88c0 6.62-5.36 12-12 12-6.62 0-12-5.38-12-12 0-6.64 5.38-12 12-12 6.64 0 12 5.36 12 12zM428.24 258.72v20.32c-1.84 1.16-4.02 1.84-6.36 1.84-6.64 0-12-5.38-12-12a11.984 11.984 0 0 1 18.36-10.16zM187.42 294.48c0 6.62-5.38 12-12 12-6.64 0-12-5.38-12-12s5.36-12 12-12c6.62 0 12 5.38 12 12zM241.82 294.48c0 6.62-5.36 12-12 12-6.62 0-12-5.38-12-12s5.38-12 12-12c6.64 0 12 5.38 12 12zM296.24 294.48c0 6.62-5.38 12-12 12s-12-5.38-12-12 5.38-12 12-12 12 5.38 12 12zM347.76 302.28a11.982 11.982 0 0 1-9.1 4.2c-6.64 0-12-5.38-12-12s5.36-12 12-12c3.46 0 6.56 1.48 8.74 3.82-2.32 1.82-3.86 4.64-3.86 7.84 0 3.36 1.68 6.32 4.22 8.14zM399.14 284.14h-12.14c1.78-1.04 3.84-1.66 6.06-1.66 2.22 0 4.3 0.62 6.08 1.66zM400.16 304.14c-1.98 1.46-4.44 2.34-7.1 2.34-2.66 0-5.1-0.88-7.1-2.34h14.2zM158.6 320.08a11.984 11.984 0 0 1-16.92 10.94v-21.88c1.5-0.66 3.16-1.06 4.92-1.06 6.64 0 12 5.38 12 12zM213.02 320.08c0 6.64-5.38 12-12 12-6.64 0-12-5.36-12-12 0-6.62 5.36-12 12-12 6.62 0 12 5.38 12 12zM267.42 320.08c0 6.64-5.36 12-12 12-6.62 0-12-5.36-12-12 0-6.62 5.38-12 12-12 6.64 0 12 5.38 12 12zM321.84 320.08c0 6.64-5.36 12-12 12-6.62 0-12-5.36-12-12 0-6.62 5.38-12 12-12 6.64 0 12 5.38 12 12zM376.26 320.08c0 6.64-5.38 12-12 12-6.64 0-12-5.36-12-12 0-6.62 5.36-12 12-12 6.62 0 12 5.38 12 12zM428.24 312.86v14.44a11.996 11.996 0 0 1-21.58-7.22c0-6.62 5.38-12 12-12 3.92 0 7.38 1.88 9.58 4.78zM184.2 345.68c0 6.64-5.36 12-12 12-6.62 0-12-5.36-12-12 0-6.62 5.38-12 12-12 6.64 0 12 5.38 12 12zM238.62 345.68c0 6.64-5.38 12-12 12s-12-5.36-12-12c0-6.62 5.38-12 12-12s12 5.38 12 12zM293.04 345.68c0 6.64-5.38 12-12 12-6.64 0-12-5.36-12-12 0-6.62 5.36-12 12-12 6.62 0 12 5.38 12 12zM347.44 345.68c0 6.64-5.36 12-12 12-6.62 0-12-5.36-12-12 0-6.62 5.38-12 12-12 6.64 0 12 5.38 12 12zM399.4 352.94a11.988 11.988 0 0 1-19.3-0.28c0.74 0.16 1.5 0.28 2.28 0.28h17.02zM155.4 371.3c0 6.62-5.38 12-12 12-0.58 0-1.16-0.06-1.72-0.14v-23.74a11.996 11.996 0 0 1 13.72 11.88zM209.82 371.3c0 6.62-5.38 12-12 12-6.64 0-12-5.38-12-12 0-6.64 5.36-12 12-12 6.62 0 12 5.36 12 12zM264.22 371.3c0 6.62-5.36 12-12 12-6.62 0-12-5.38-12-12 0-6.64 5.38-12 12-12 6.64 0 12 5.36 12 12zM318.64 371.3c0 6.62-5.38 12-12 12-6.64 0-12-5.38-12-12 0-6.64 5.36-12 12-12 6.62 0 12 5.36 12 12zM373.04 371.3c0 4.48-2.46 8.38-6.1 10.44h-11.78a12.002 12.002 0 0 1-6.12-10.44c0-6.64 5.38-12 12-12 6.64 0 12 5.36 12 12zM427.46 371.3c0 4.48-2.46 8.38-6.1 10.44h-11.78a11.96 11.96 0 0 1-6.12-10.44c0-6.64 5.38-12 12-12 6.64 0 12 5.36 12 12zM181 396.9c0 6.62-5.38 12-12 12s-12-5.38-12-12c0-6.64 5.38-12 12-12s12 5.36 12 12zM235.42 396.9c0 6.62-5.38 12-12 12-6.64 0-12-5.38-12-12 0-6.64 5.36-12 12-12 6.62 0 12 5.36 12 12zM289.82 396.9c0 6.62-5.36 12-12 12-6.62 0-12-5.38-12-12 0-6.64 5.38-12 12-12 6.64 0 12 5.36 12 12zM344.24 396.9c0 6.62-5.38 12-12 12s-12-5.38-12-12a12.006 12.006 0 1 1 23.46-3.58c0.08 0.46 0.2 0.9 0.32 1.34 0.14 0.72 0.22 1.46 0.22 2.24zM397.62 401.74c-1.86 4.22-6.06 7.16-10.96 7.16s-9.12-2.94-10.98-7.16h21.94zM152.2 422.5c0 6.12-4.6 11.16-10.52 11.9v-23.8c5.92 0.74 10.52 5.78 10.52 11.9zM206.6 422.5c0 6.62-5.36 12-12 12-6.62 0-12-5.38-12-12 0-6.64 5.38-12 12-12 6.64 0 12 5.36 12 12zM261.02 422.5c0 6.62-5.38 12-12 12-6.64 0-12-5.38-12-12 0-6.64 5.36-12 12-12 6.62 0 12 5.36 12 12zM315.42 422.5c0 6.62-5.36 12-12 12-6.62 0-12-5.38-12-12 0-6.64 5.38-12 12-12 6.64 0 12 5.36 12 12zM369.84 422.5c0 6.62-5.36 12-12 12-6.62 0-12-5.38-12-12 0-6.64 5.38-12 12-12 6.64 0 12 5.36 12 12zM424.26 422.5c0 3.1-1.18 5.92-3.12 8.04h-17.78a11.942 11.942 0 0 1-3.1-8.04c0-6.64 5.36-12 12-12 6.62 0 12 5.36 12 12zM177.8 448.1c0 6.62-5.38 12-12 12-6.64 0-12-5.38-12-12s5.36-12 12-12c6.62 0 12 5.38 12 12zM232.2 448.1c0 6.62-5.36 12-12 12-6.62 0-12-5.38-12-12s5.38-12 12-12c6.64 0 12 5.38 12 12zM286.62 448.1c0 6.62-5.38 12-12 12s-12-5.38-12-12 5.38-12 12-12 12 5.38 12 12zM341.04 448.1c0 6.62-5.38 12-12 12-6.64 0-12-5.38-12-12s5.36-12 12-12c6.62 0 12 5.38 12 12zM395.2 450.54a12.014 12.014 0 0 1-11.76 9.56c-6.62 0-12-5.38-12-12 0-1.88 0.46-3.66 1.24-5.26 1.04 4.4 4.98 7.7 9.7 7.7h12.82zM428.24 450.54v4.72a12.08 12.08 0 0 1-2.14-4.72h2.14zM148.98 473.7c0 4.96-3 9.22-7.3 11.04v-22.08c4.3 1.82 7.3 6.08 7.3 11.04zM203.4 473.7c0 6.64-5.38 12-12 12-6.64 0-12-5.36-12-12 0-6.62 5.36-12 12-12 6.62 0 12 5.38 12 12zM257.82 473.7c0 6.64-5.38 12-12 12-6.64 0-12-5.36-12-12 0-6.62 5.36-12 12-12 6.62 0 12 5.38 12 12zM312.22 473.7c0 6.64-5.36 12-12 12-6.62 0-12-5.36-12-12 0-6.62 5.38-12 12-12 6.64 0 12 5.38 12 12zM366.64 473.7c0 2.04-0.52 3.96-1.42 5.64h-11.68c-2.82 0-5.36 1.18-7.18 3.04a11.996 11.996 0 0 1 8.28-20.68c6.62 0 12 5.38 12 12zM421.04 473.7c0 2.04-0.5 3.96-1.4 5.64h-21.18c-0.9-1.68-1.42-3.6-1.42-5.64 0-6.62 5.38-12 12-12 6.64 0 12 5.38 12 12zM174.58 499.3c0 6.64-5.36 12-12 12-6.62 0-12-5.36-12-12 0-6.62 5.38-12 12-12 6.64 0 12 5.38 12 12zM229 499.3c0 6.64-5.38 12-12 12s-12-5.36-12-12c0-6.62 5.38-12 12-12s12 5.38 12 12zM283.42 499.3c0 6.64-5.38 12-12 12-6.64 0-12-5.36-12-12 0-6.62 5.36-12 12-12 6.62 0 12 5.38 12 12zM337.82 499.3c0 6.64-5.36 12-12 12-6.62 0-12-5.36-12-12 0-6.62 5.38-12 12-12 6.64 0 12 5.38 12 12zM392.24 499.34c-0.02 6.62-5.38 11.96-12 11.96s-11.98-5.34-12-11.96h24zM428.24 499.34v10.1a11.952 11.952 0 0 1-5.58-10.1h5.58zM145.78 524.92c0 3.58-1.6 6.8-4.1 9v-18.02a11.992 11.992 0 0 1 4.1 9.02zM200.2 524.92c0 6.62-5.38 12-12 12-6.64 0-12-5.38-12-12 0-6.64 5.36-12 12-12 6.62 0 12 5.36 12 12zM254.6 524.92c0 6.62-5.36 12-12 12-6.62 0-12-5.38-12-12 0-6.64 5.38-12 12-12 6.64 0 12 5.36 12 12zM309.02 524.92c0 6.62-5.38 12-12 12-6.64 0-12-5.38-12-12 0-6.64 5.36-12 12-12 6.62 0 12 5.36 12 12zM363.42 524.92c0 6.62-5.36 12-12 12-6.62 0-12-5.38-12-12 0-6.64 5.38-12 12-12 6.64 0 12 5.36 12 12zM417.84 524.92c0 1.12-0.16 2.2-0.44 3.22h-23.1c-0.3-1.02-0.46-2.1-0.46-3.22 0-6.64 5.38-12 12-12 6.64 0 12 5.36 12 12zM171.38 550.52c0 6.62-5.38 12-12 12s-12-5.38-12-12c0-6.64 5.38-12 12-12s12 5.36 12 12zM225.8 550.52c0 6.62-5.38 12-12 12-6.64 0-12-5.38-12-12 0-6.64 5.36-12 12-12 6.62 0 12 5.36 12 12zM280.2 550.52c0 6.62-5.36 12-12 12-6.62 0-12-5.38-12-12 0-6.64 5.38-12 12-12 6.64 0 12 5.36 12 12zM334.62 550.52c0 6.62-5.38 12-12 12s-12-5.38-12-12c0-6.64 5.38-12 12-12s12 5.36 12 12zM389.04 550.52c0 6.62-5.38 12-12 12-6.64 0-12-5.38-12-12a12 12 0 0 1 7.46-11.12c0.64 4.92 4.8 8.74 9.88 8.74h6.42c0.16 0.76 0.24 1.56 0.24 2.38zM428.24 548.14v13.92c-5.06-1.4-8.8-6.04-8.8-11.54 0-0.82 0.08-1.62 0.24-2.38h8.56zM142.58 576.12c0 1.6-0.32 3.12-0.9 4.52v-9.04c0.58 1.38 0.9 2.92 0.9 4.52zM196.98 576.12c0 6.62-5.36 12-12 12-6.62 0-12-5.38-12-12 0-6.64 5.38-12 12-12 6.64 0 12 5.36 12 12zM251.4 576.12c0 6.62-5.38 12-12 12-6.64 0-12-5.38-12-12 0-6.64 5.36-12 12-12 6.62 0 12 5.36 12 12zM305.82 576.12c0 6.62-5.38 12-12 12-6.64 0-12-5.38-12-12 0-6.64 5.36-12 12-12 6.62 0 12 5.36 12 12zM360.22 576.12c0 0.28-0.02 0.54-0.04 0.82h-6.64c-5.52 0-10 4.48-10 10 0 0.08 0.02 0.16 0.02 0.24a12.016 12.016 0 0 1-7.34-11.06c0-6.64 5.38-12 12-12 6.64 0 12 5.36 12 12zM414.64 576.12c0 0.28-0.02 0.54-0.04 0.82h-23.92c-0.02-0.28-0.04-0.54-0.04-0.82 0-6.64 5.36-12 12-12 6.62 0 12 5.36 12 12zM168.18 601.72c0 6.62-5.38 12-12 12-6.64 0-12-5.38-12-12s5.36-12 12-12c6.62 0 12 5.38 12 12zM222.58 601.72c0 6.62-5.36 12-12 12-6.62 0-12-5.38-12-12s5.38-12 12-12c6.64 0 12 5.38 12 12zM277 601.72c0 6.62-5.38 12-12 12s-12-5.38-12-12 5.38-12 12-12 12 5.38 12 12zM331.42 601.72c0 6.62-5.38 12-12 12-6.64 0-12-5.38-12-12s5.36-12 12-12c6.62 0 12 5.38 12 12zM385.82 601.72c0 6.62-5.36 12-12 12-6.62 0-12-5.38-12-12 0-1.7 0.36-3.32 1-4.78h22.02c0.62 1.46 0.98 3.08 0.98 4.78zM428.24 596.94v16.78c-6.62 0-12-5.38-12-12 0-1.7 0.36-3.32 1-4.78h11zM193.78 627.32c0 6.64-5.38 12-12 12-6.64 0-12-5.36-12-12 0-6.62 5.36-12 12-12 6.62 0 12 5.38 12 12zM248.2 627.32c0 6.64-5.38 12-12 12-6.64 0-12-5.36-12-12 0-6.62 5.36-12 12-12 6.62 0 12 5.38 12 12zM302.6 627.32c0 6.64-5.36 12-12 12-6.62 0-12-5.36-12-12 0-6.62 5.38-12 12-12 6.64 0 12 5.38 12 12zM357.02 627.32c0 6.64-5.38 12-12 12-6.64 0-12-5.36-12-12 0-6.62 5.36-12 12-12 6.62 0 12 5.38 12 12zM411.32 625.74h-23.78c0.78-5.88 5.8-10.42 11.9-10.42 6.08 0 11.1 4.54 11.88 10.42zM164.96 652.92c0 6.64-5.36 12-12 12-5.2 0-9.62-3.32-11.28-7.96v-8.08a11.986 11.986 0 0 1 23.28 4.04zM219.38 652.92c0 6.64-5.38 12-12 12s-12-5.36-12-12c0-6.62 5.38-12 12-12s12 5.38 12 12zM273.8 652.92c0 6.64-5.38 12-12 12-6.64 0-12-5.36-12-12 0-6.62 5.36-12 12-12 6.62 0 12 5.38 12 12zM328.2 652.92c0 6.64-5.36 12-12 12-6.62 0-12-5.36-12-12 0-6.62 5.38-12 12-12 6.64 0 12 5.38 12 12zM382.62 652.92c0 6.64-5.38 12-12 12s-12-5.36-12-12c0-6.62 5.38-12 12-12 1.24 0 2.46 0.2 3.58 0.56 1.36 1.94 3.4 3.34 5.76 3.94a11.904 11.904 0 0 1 2.66 7.5zM428.24 645.74v18.74a11.984 11.984 0 0 1-12.8-18.74h12.8zM190.58 678.54c0 6.62-5.38 12-12 12-6.64 0-12-5.38-12-12 0-6.64 5.36-12 12-12 6.62 0 12 5.36 12 12zM244.98 678.54c0 6.62-5.36 12-12 12-6.62 0-12-5.38-12-12 0-6.64 5.38-12 12-12 6.64 0 12 5.36 12 12zM299.4 678.54c0 6.62-5.38 12-12 12-6.64 0-12-5.38-12-12 0-6.64 5.36-12 12-12 6.62 0 12 5.36 12 12zM343.54 684.54c0 2.04 0.62 3.92 1.66 5.5-1.08 0.32-2.22 0.5-3.38 0.5-6.64 0-12-5.38-12-12 0-6.64 5.36-12 12-12 5.24 0 9.68 3.36 11.32 8.04-5.34 0.22-9.6 4.56-9.6 9.96zM407.52 674.54h-22.6a11.98 11.98 0 0 1 22.6 0zM161.76 704.14c0 6.62-5.38 12-12 12-3.12 0-5.94-1.2-8.08-3.16v-17.7a11.98 11.98 0 0 1 8.08-3.14c6.62 0 12 5.36 12 12zM216.18 704.14c0 6.62-5.38 12-12 12-6.64 0-12-5.38-12-12 0-6.64 5.36-12 12-12 6.62 0 12 5.36 12 12zM270.58 704.14c0 6.62-5.36 12-12 12-6.62 0-12-5.38-12-12 0-6.64 5.38-12 12-12 6.64 0 12 5.36 12 12zM325 704.14c0 6.62-5.38 12-12 12s-12-5.38-12-12c0-6.64 5.38-12 12-12s12 5.36 12 12zM379.42 704.14c0 6.62-5.38 12-12 12-6.64 0-12-5.38-12-12 0-3.94 1.88-7.42 4.8-9.6h14.38a11.95 11.95 0 0 1 4.82 9.6zM428.24 694.54v19.72c-1.86 1.18-4.06 1.88-6.42 1.88-6.62 0-12-5.38-12-12 0-3.94 1.9-7.42 4.82-9.6h13.6zM187.36 729.74c0 6.62-5.36 12-12 12-6.62 0-12-5.38-12-12 0-6.64 5.38-12 12-12 6.64 0 12 5.36 12 12zM241.78 729.74c0 6.62-5.38 12-12 12-6.64 0-12-5.38-12-12 0-6.64 5.36-12 12-12 6.62 0 12 5.36 12 12zM296.2 729.74c0 6.62-5.38 12-12 12-6.64 0-12-5.38-12-12 0-6.64 5.36-12 12-12 6.62 0 12 5.36 12 12zM350.6 729.74c0 6.62-5.36 12-12 12-6.62 0-12-5.38-12-12 0-6.64 5.38-12 12-12 6.64 0 12 5.36 12 12zM403.16 723.34h-20.28a11.966 11.966 0 0 1 10.14-5.6c4.26 0 8.02 2.24 10.14 5.6zM158.56 755.34c0 6.62-5.38 12-12 12-1.74 0-3.38-0.38-4.88-1.04v-21.92a12.06 12.06 0 0 1 4.88-1.04c6.62 0 12 5.38 12 12zM212.96 755.34c0 6.62-5.36 12-12 12-6.62 0-12-5.38-12-12s5.38-12 12-12c6.64 0 12 5.38 12 12zM267.38 755.34c0 6.62-5.38 12-12 12s-12-5.38-12-12 5.38-12 12-12 12 5.38 12 12zM321.8 755.34c0 6.62-5.38 12-12 12-6.64 0-12-5.38-12-12s5.36-12 12-12c6.62 0 12 5.38 12 12zM376.2 755.34c0 6.62-5.36 12-12 12-6.62 0-12-5.38-12-12s5.38-12 12-12c6.64 0 12 5.38 12 12z" fill="#FFFFFF" opacity=".2" p-id="44499"></path><path d="M428.24 748.18v14.32a12.006 12.006 0 0 1-9.62 4.84c-6.62 0-12-5.38-12-12s5.38-12 12-12c3.94 0 7.44 1.92 9.62 4.84zM184.16 780.94c0 6.64-5.38 12-12 12-6.64 0-12-5.36-12-12 0-6.62 5.36-12 12-12 6.62 0 12 5.38 12 12zM238.58 780.94c0 6.64-5.38 12-12 12-6.64 0-12-5.36-12-12 0-6.62 5.36-12 12-12 6.62 0 12 5.38 12 12zM292.98 780.94c0 6.64-5.36 12-12 12-6.62 0-12-5.36-12-12 0-6.62 5.38-12 12-12 6.64 0 12 5.38 12 12zM343.54 782.14c0 2.08 0.64 4.02 1.74 5.62a12.032 12.032 0 0 1-9.88 5.18c-6.64 0-12-5.36-12-12a11.996 11.996 0 0 1 22.7-5.42c-1.58 1.76-2.56 4.06-2.56 6.62zM394.1 792.14c-1.34 0.52-2.78 0.8-4.28 0.8-1.52 0-2.96-0.28-4.3-0.8h8.58zM397.94 772.14h-16.26a11.92 11.92 0 0 1 16.26 0zM155.34 806.54a11.984 11.984 0 0 1-13.66 11.88v-23.74c0.54-0.08 1.1-0.14 1.66-0.14 6.64 0 12 5.38 12 12zM209.76 806.54c0 6.64-5.38 12-12 12s-12-5.36-12-12c0-6.62 5.38-12 12-12s12 5.38 12 12zM264.18 806.54c0 6.64-5.38 12-12 12-6.64 0-12-5.36-12-12 0-6.62 5.36-12 12-12 6.62 0 12 5.38 12 12zM318.58 806.54c0 6.64-5.36 12-12 12-6.62 0-12-5.36-12-12 0-6.62 5.38-12 12-12 6.64 0 12 5.38 12 12zM373 806.54c0 6.64-5.38 12-12 12s-12-5.36-12-12c0-6.62 5.38-12 12-12s12 5.38 12 12zM427.42 806.54c0 6.64-5.38 12-12 12-6.64 0-12-5.36-12-12 0-6.62 5.36-12 12-12 6.62 0 12 5.38 12 12zM171.62 820.46h-5.34c0.86-0.2 1.74-0.3 2.68-0.3 0.92 0 1.8 0.1 2.66 0.3zM226.04 820.46h-5.36c0.86-0.2 1.76-0.3 2.68-0.3s1.82 0.1 2.68 0.3zM280.46 820.46h-5.36c0.86-0.2 1.76-0.3 2.68-0.3 0.92 0 1.82 0.1 2.68 0.3zM334.86 820.46h-5.34c0.86-0.2 1.74-0.3 2.68-0.3 0.92 0 1.8 0.1 2.66 0.3zM389.28 820.46h-5.36c0.86-0.2 1.76-0.3 2.68-0.3 0.92 0 1.82 0.1 2.68 0.3z" fill="#FFFFFF" opacity=".2" p-id="44500"></path><path d="M595.76 255.8h35.16v564.66h-35.16z" fill="#FFFFFF" opacity=".4" p-id="44501"></path><path d="M847.16 255.8h35.16v564.66h-35.16zM680.43 65.48h117.16v17.27h-117.16z" opacity=".2" p-id="44502"></path><path d="M595.76 255.8h13.6v564.66h-13.6zM624.52 255.8h15.52v564.66h-15.52zM670.7 255.8v201.24l-15.5 41.2V255.8zM670.7 524.9v295.56h-15.5v-296.6c1.36 0.68 2.86 1.04 4.42 1.04h11.08zM701.36 255.8v119.74l-15.5 41.2V255.8zM701.36 524.9v110.12l-15.5 64.02v-174.14zM701.36 740.36v80.1h-15.5v-52.5a9.9 9.9 0 0 0 4.86-4.82l10.64-22.78zM728.02 524.9l-11.5 47.5v-47.5zM732.04 255.8v66.78h-3.84c-4.16 0-7.88 2.58-9.36 6.48l-2.32 6.16V255.8h15.52zM732.04 674.7v145.76h-15.52v-112.54z" fill="#FFFFFF" opacity=".1" p-id="44503"></path><path d="M746.04 255.8h15.52v66.78h-15.52zM761.56 427.42v17.48l-7.8-1.52zM761.56 611.52v208.94h-15.52v-175.72zM776.72 255.8h15.5v66.78h-15.5zM776.72 396.4l15.5-31.7v86.12l-15.5-3zM792.22 545.9v274.56h-15.5v-241.4zM822.88 255.8v201.34c-0.8-0.4-1.64-0.7-2.52-0.86l-12.98-2.52V255.8h15.5zM822.88 480.28v340.18h-15.5V513.44zM838.04 255.8h15.52v564.66h-15.52zM868.72 255.8h13.6v564.66h-13.6z" fill="#FFFFFF" opacity=".1" p-id="44504"></path><path d="M109.24 117.74H138v118.06H109.24z" fill="#FFFFFF" opacity=".7" p-id="44505"></path><path d="M431.856 117.74h28.76v118.06h-28.76z" opacity=".2" p-id="44506"></path><path d="M109.24 840.47H138v118.06H109.24z" fill="#FFFFFF" opacity=".7" p-id="44507"></path><path d="M431.856 840.47h28.76v118.06h-28.76z" opacity=".2" p-id="44508"></path><path d="M563.352 840.47h28.76v118.06h-28.76z" fill="#FFFFFF" opacity=".7" p-id="44509"></path><path d="M885.968 840.47h28.76v118.06h-28.76z" opacity=".2" p-id="44510"></path><path d="M563.352 117.74h28.76v118.06h-28.76z" fill="#FFFFFF" opacity=".7" p-id="44511"></path><path d="M885.968 117.74h28.76v118.06h-28.76z" opacity=".2" p-id="44512"></path></svg>