<?xml version="1.0" standalone="no"?><!DOCTYPE svg PUBLIC "-//W3C//DTD SVG 1.1//EN" "http://www.w3.org/Graphics/SVG/1.1/DTD/svg11.dtd"><svg t="1625811513676" class="icon" viewBox="0 0 1024 1024" version="1.1" xmlns="http://www.w3.org/2000/svg" p-id="32748" xmlns:xlink="http://www.w3.org/1999/xlink" width="200" height="200"><defs><style type="text/css"></style></defs><path d="M754.8 596.14c-0.48 0-0.96-0.04-1.46-0.04H270.66c-79.06 0-143.36 64.32-143.36 143.38v237.64c0 5.54 4.46 10 10 10h749.4c5.54 0 10-4.46 10-10V739.48c0-78.58-63.52-142.54-141.9-143.34z m121.9 370.98H147.3V739.48c0-68.04 55.34-123.38 123.36-123.38h482.68c0.86 0 1.72 0.06 2.58 0.08 1.26 0.02 2.52 0.02 3.76 0.08l0.68 0.06c59.44 3.36 107.72 48.96 115.28 107.18a123.456 123.456 0 0 1 1.06 15.98v227.64z" fill="#23130D" p-id="32749"></path><path d="M876.7 739.48v227.64H147.3V739.48c0-68.04 55.34-123.38 123.36-123.38h482.68c0.86 0 1.72 0.06 2.58 0.08 1.26 0.02 2.52 0.02 3.76 0.08l0.68 0.06c59.44 3.36 107.72 48.96 115.28 107.18a123.456 123.456 0 0 1 1.06 15.98z" fill="#F9C139" p-id="32750"></path><path d="M876.7 739.48v48a123.456 123.456 0 0 0-1.06-15.98c-7.56-58.22-55.84-103.82-115.28-107.18l-0.68-0.06c-1.24-0.06-2.5-0.06-3.76-0.08-0.86-0.02-1.72-0.08-2.58-0.08H270.66c-68.02 0-123.36 55.34-123.36 123.38v-48c0-68.04 55.34-123.38 123.36-123.38h482.68c0.86 0 1.72 0.06 2.58 0.08 1.26 0.02 2.52 0.02 3.76 0.08l0.68 0.06c59.44 3.36 107.72 48.96 115.28 107.18a123.456 123.456 0 0 1 1.06 15.98z" fill="#23130D" opacity=".2" p-id="32751"></path><path d="M512 229.16c-41.1 0-74.54 33.44-74.54 74.54 0 41.1 33.44 74.54 74.54 74.54s74.54-33.44 74.54-74.54c0-41.1-33.44-74.54-74.54-74.54z m0 129.08c-30.08 0-54.54-24.46-54.54-54.54 0-30.06 24.46-54.54 54.54-54.54s54.54 24.48 54.54 54.54c0 30.08-24.46 54.54-54.54 54.54z" fill="#23130D" p-id="32752"></path><path d="M768.84 293.7h-50.56c-5.06-105.94-90.34-191.2-196.28-196.28V46.88c0-5.54-4.48-10-10-10s-10 4.46-10 10v50.54c-105.94 5.08-191.22 90.34-196.28 196.28h-50.56c-5.52 0-10 4.48-10 10s4.48 10 10 10h50.56c5.06 105.94 90.34 191.22 196.28 196.3v50.54c0 5.52 4.48 10 10 10s10-4.48 10-10V510c105.94-5.08 191.22-90.36 196.28-196.3h50.56c5.52 0 10-4.48 10-10s-4.48-10-10-10zM502 117.44v49.12c-67.88 4.9-122.24 59.26-127.14 127.14h-49.12c5.04-94.9 81.34-171.22 176.26-176.26z m0 372.52c-94.92-5.02-171.22-81.34-176.26-176.26h49.12c4.9 67.88 59.26 122.24 127.14 127.14v49.12z m10-68.72c-64.82 0-117.54-52.72-117.54-117.54 0-64.82 52.72-117.54 117.54-117.54s117.54 52.72 117.54 117.54c0 64.82-52.72 117.54-117.54 117.54z m10 68.72v-49.12c67.88-4.9 122.24-59.26 127.14-127.14h49.12c-5.04 94.92-81.34 171.24-176.26 176.26z m127.14-196.26c-4.9-67.88-59.26-122.24-127.14-127.14V117.44c94.92 5.04 171.22 81.36 176.26 176.26h-49.12z" fill="#23130D" p-id="32753"></path><path d="M698.26 293.7h-49.12c-4.9-67.88-59.26-122.24-127.14-127.14V117.44c94.92 5.04 171.22 81.36 176.26 176.26zM502 117.44v49.12c-67.88 4.9-122.24 59.26-127.14 127.14h-49.12c5.04-94.9 81.34-171.22 176.26-176.26zM502 440.84v49.12c-94.92-5.02-171.22-81.34-176.26-176.26h49.12c4.9 67.88 59.26 122.24 127.14 127.14zM698.26 313.7c-5.04 94.92-81.34 171.24-176.26 176.26v-49.12c67.88-4.9 122.24-59.26 127.14-127.14h49.12z" fill="#EC7063" p-id="32754"></path><path d="M512 186.16c-64.82 0-117.54 52.72-117.54 117.54 0 64.82 52.72 117.54 117.54 117.54s117.54-52.72 117.54-117.54c0-64.82-52.72-117.54-117.54-117.54z m0 192.08c-41.1 0-74.54-33.44-74.54-74.54 0-41.1 33.44-74.54 74.54-74.54s74.54 33.44 74.54 74.54c0 41.1-33.44 74.54-74.54 74.54z" fill="#E1E1E5" p-id="32755"></path><path d="M512 194.16c60.4 0 109.54 49.14 109.54 109.54 0 60.4-49.14 109.54-109.54 109.54s-109.54-49.14-109.54-109.54c0-60.4 49.14-109.54 109.54-109.54m0 192.08c45.512 0 82.54-37.028 82.54-82.54 0-45.512-37.028-82.54-82.54-82.54s-82.54 37.028-82.54 82.54c0 45.512 37.028 82.54 82.54 82.54m0-200.08c-64.82 0-117.54 52.72-117.54 117.54 0 64.82 52.72 117.54 117.54 117.54s117.54-52.72 117.54-117.54c0-64.82-52.72-117.54-117.54-117.54z m0 192.08c-41.1 0-74.54-33.44-74.54-74.54 0-41.1 33.44-74.54 74.54-74.54s74.54 33.44 74.54 74.54c0 41.1-33.44 74.54-74.54 74.54z" opacity=".2" p-id="32756"></path><path d="M566.54 303.7c0 30.08-24.46 54.54-54.54 54.54s-54.54-24.46-54.54-54.54c0-30.06 24.46-54.54 54.54-54.54s54.54 24.48 54.54 54.54z" fill="#EC7063" p-id="32757"></path></svg>