<?xml version="1.0" standalone="no"?><!DOCTYPE svg PUBLIC "-//W3C//DTD SVG 1.1//EN" "http://www.w3.org/Graphics/SVG/1.1/DTD/svg11.dtd"><svg t="1625812143597" class="icon" viewBox="0 0 1024 1024" version="1.1" xmlns="http://www.w3.org/2000/svg" p-id="51886" xmlns:xlink="http://www.w3.org/1999/xlink" width="200" height="200"><defs><style type="text/css"></style></defs><path d="M976.5 310.26c0-21.6-8.42-41.92-23.7-57.2-15.28-15.26-35.6-23.68-57.22-23.68h-28.76v-92.8a10 10 0 0 0-10-10.02h-98.18c-0.06 0-0.1 0.02-0.16 0.02H269.54c-0.06 0-0.12-0.02-0.18-0.02H171.18c-2.66 0-5.2 1.06-7.08 2.94a9.94 9.94 0 0 0-2.92 7.06v92.82h-28.8c-11.42 0-22.46 2.34-32.84 6.94l-0.36 0.18c-0.02 0-0.06 0.02-0.08 0.04-0.06 0.02-0.1 0.04-0.14 0.06-28.88 13.12-47.5 41.96-47.48 73.66v506.26c0 44.62 36.3 80.92 80.92 80.92h763.18c15.64 0 30.26-4.48 42.64-12.2 0.16-0.08 0.3-0.18 0.44-0.28 22.7-14.34 37.84-39.64 37.86-68.44l-0.02-506.26z m-109.68-60.88h28.76c4.12 0 8.18 0.4 12.12 1.2l-40.88 52.08v-53.28z m-20-102.8v77.62c-40.64-4.6-73-36.96-77.62-77.62h77.62z m-665.62 0h77.6c-4.62 40.64-36.96 73-77.6 77.62V146.58z m0 97.7c51.68-4.78 92.92-46.02 97.68-97.7h470.24c4.76 51.68 46.02 92.94 97.7 97.7v83.88l-139.66 177.96H320.84L181.2 328.16v-83.88z m510.26 281.84l-14.9 19-325.08 0.06-14.96-19.06h354.94zM132.38 249.38H161.2v53.3l-40.88-52.1c3.94-0.8 7.96-1.2 12.06-1.2zM71.48 816.52V310.26c0-21.44 11.32-41.12 29.4-52.06l233.02 296.98L92.62 862.6c-12.92-11.18-21.14-27.68-21.14-46.08z m824.1 60.92H132.4c-7.98 0-15.58-1.56-22.58-4.36l241.66-307.9 325.08-0.06 241.62 307.96c-7 2.8-14.62 4.36-22.6 4.36z m39.78-14.84L694.14 555.12l233.02-296.94c4.14 2.52 8 5.52 11.5 9.04 11.5 11.5 17.84 26.78 17.84 43.04l0.02 506.26c-0.02 18.4-8.22 34.9-21.16 46.08z" fill="#23130D" p-id="51887"></path><path d="M161.2 249.38v53.3l-40.88-52.1c3.94-0.8 7.96-1.2 12.06-1.2H161.2z" fill="#E59D89" p-id="51888"></path><path d="M258.8 146.58c-4.62 40.64-36.96 73-77.6 77.62V146.58h77.6z" fill="#E1E1E5" p-id="51889"></path><path d="M907.7 250.58l-40.88 52.08v-53.28h28.76c4.12 0 8.18 0.4 12.12 1.2z" fill="#E59D89" p-id="51890"></path><path d="M846.82 146.58v77.62c-40.64-4.6-73-36.96-77.62-77.62h77.62z" fill="#E1E1E5" p-id="51891"></path><path d="M691.46 526.12l-14.9 19-325.08 0.06-14.96-19.06z" fill="#E59D89" p-id="51892"></path><path d="M691.46 526.12l-14.9 19-325.08 0.06-14.96-19.06z" fill="#E59D89" p-id="51893"></path><path d="M956.52 816.52c-0.02 18.4-8.22 34.9-21.16 46.08L694.14 555.12l233.02-296.94c4.14 2.52 8 5.52 11.5 9.04 11.5 11.5 17.84 26.78 17.84 43.04l0.02 506.26z" fill="#CC7B5A" p-id="51894"></path><path d="M749.12 146.58H278.88c-4.76 51.68-46 92.92-97.68 97.7v83.88l139.64 177.96h386.32l139.66-177.96v-83.88c-51.68-4.76-92.94-46.02-97.7-97.7zM514 481.48c-85.54 0-155.14-69.58-155.14-155.14 0-85.54 69.6-155.12 155.14-155.12s155.14 69.58 155.14 155.12c0 85.56-69.6 155.14-155.14 155.14z" fill="#72AF5F" p-id="51895"></path><path d="M740.352 156.58c8.406 49.302 47.164 88.062 96.468 96.468v71.658l-134.524 171.416H325.704L191.2 324.706v-71.66c49.29-8.422 88.04-47.184 96.448-96.464h452.704M514 491.48c91.058 0 165.14-74.082 165.14-165.14 0-91.048-74.082-165.12-165.14-165.12s-165.14 74.072-165.14 165.12c0 91.058 74.082 165.14 165.14 165.14M749.12 146.58H278.88c-4.76 51.68-46 92.92-97.68 97.7v83.88l139.64 177.96h386.32l139.66-177.96v-83.88c-51.68-4.76-92.94-46.02-97.7-97.7zM514 481.48c-85.54 0-155.14-69.58-155.14-155.14 0-85.54 69.6-155.12 155.14-155.12 85.54 0 155.14 69.58 155.14 155.12 0 85.56-69.6 155.14-155.14 155.14z" opacity=".2" p-id="51896"></path><path d="M333.9 555.18L92.62 862.6c-12.92-11.18-21.14-27.68-21.14-46.08V310.26c0-21.44 11.32-41.12 29.4-52.06l233.02 296.98z" fill="#CC7B5A" p-id="51897"></path><path d="M333.9 555.18L92.62 862.6a61.168 61.168 0 0 1-18.7-29.04L292.4 555.18 78.32 282.32c5.08-9.84 12.84-18.24 22.56-24.12l233.02 296.98z" opacity=".2" p-id="51898"></path><path d="M112.98 816.52c0 5.92 0.86 11.64 2.44 17.04l-22.8 29.04c-12.92-11.18-21.14-27.68-21.14-46.08V310.26c0-21.44 11.32-41.12 29.4-52.06l18.94 24.12c-4.4 8.46-6.84 18.02-6.84 27.94v506.26z" fill="#FFFFFF" opacity=".4" p-id="51899"></path><path d="M694.12 555.18L935.4 862.6c8.76-7.58 15.36-17.62 18.7-29.04L735.62 555.18l214.08-272.86a60.804 60.804 0 0 0-22.56-24.12L694.12 555.18z" opacity=".2" p-id="51900"></path><path d="M915.04 816.52c0 5.92-0.86 11.64-2.44 17.04l22.8 29.04c12.92-11.18 21.14-27.68 21.14-46.08V310.26c0-21.44-11.32-41.12-29.4-52.06l-18.94 24.12c4.4 8.46 6.84 18.02 6.84 27.94v506.26z" fill="#FFFFFF" opacity=".4" p-id="51901"></path><path d="M918.18 873.08c-0.54 0.22-1.1 0.44-1.66 0.62-4.8 1.78-9.88 2.96-15.16 3.46-1.9 0.18-3.84 0.28-5.78 0.28H132.4c-3.32 0-6.58-0.28-9.76-0.8a59.9 59.9 0 0 1-12.82-3.56l12.82-16.34 15.5-19.74 15.16-19.32 15.5-19.74 15.16-19.32 15.52-19.78 15.16-19.32 15.5-19.74 15.16-19.32 15.5-19.74 14.02-17.86 15.5-19.76 15.16-19.32 15.52-19.76 15.16-19.32 15.32-19.52h46l15.52-0.02h92l14-0.02h92l15.52-0.02h50.04l11.28 14.38 15.16 19.32 15.52 19.78 15.16 19.32 15.5 19.76 14.02 17.86 15.5 19.76 15.16 19.32 15.5 19.76 15.16 19.32 15.52 19.78 15.16 19.32 15.5 19.76 15.16 19.32 15.5 19.76 15.16 19.32 1.66 2.12z" fill="#F8D3C9" p-id="51902"></path><path d="M568.02 360.52c0 24.32-19.72 44.1-44.02 44.18v28.38c0 5.52-4.46 10-10 10-5.52 0-10-4.48-10-10v-28.38h-34.02c-5.52 0-10-4.48-10-10s4.48-10 10-10h53.88c13.32 0 24.16-10.86 24.16-24.18s-10.84-24.16-24.16-24.16h-19.72c-24.34 0-44.16-19.82-44.16-44.18 0-24.3 19.74-44.08 44.02-44.16v-28.4c0-5.52 4.48-10 10-10 5.54 0 10 4.48 10 10v28.4h34.02c5.54 0 10 4.48 10 10s-4.46 10-10 10h-53.88c-13.32 0-24.16 10.84-24.16 24.16 0 13.34 10.84 24.18 24.16 24.18h19.72c24.36 0 44.16 19.8 44.16 44.16z" fill="#23130D" p-id="51903"></path><path d="M514 171.22c-85.54 0-155.14 69.58-155.14 155.12 0 85.56 69.6 155.14 155.14 155.14s155.14-69.58 155.14-155.14c0-85.54-69.6-155.12-155.14-155.12z m0 290.26c-74.52 0-135.14-60.62-135.14-135.14 0-74.5 60.62-135.12 135.14-135.12 74.5 0 135.14 60.62 135.14 135.12 0 74.52-60.64 135.14-135.14 135.14z" fill="#23130D" p-id="51904"></path><path d="M533.9 338.54l11.94 11.94a24.416 24.416 0 0 0-11.94-11.94zM514 191.22c-6.82 0-13.54 0.5-20.1 1.5a133.552 133.552 0 0 0-48.06 17 133.786 133.786 0 0 0-23.42 17.36 135.34 135.34 0 0 0-18.36 20.76 128.92 128.92 0 0 0-7.7 12.1 132.96 132.96 0 0 0-14.2 36.7 134.636 134.636 0 0 0-3.3 29.7c0 74.52 60.62 135.14 135.14 135.14 10.2 0 20.14-1.14 29.7-3.3A133.548 133.548 0 0 0 580.4 444c4.18-2.36 8.2-4.94 12.08-7.72 7.56-5.4 14.52-11.56 20.8-18.36a135.68 135.68 0 0 0 17.36-23.4c8.52-14.52 14.4-30.74 17-48.04 0.98-6.58 1.5-13.3 1.5-20.14 0-74.5-60.64-135.12-135.14-135.12z m44.02 76.8h-53.88c-11.02 0-20.36 7.42-23.24 17.54-0.6 2.1-0.92 4.32-0.92 6.62 0 13.34 10.84 24.18 24.16 24.18h19.72c24.36 0 44.16 19.8 44.16 44.16 0 3.74-0.46 7.36-1.34 10.82-2.4 9.52-7.9 17.82-15.36 23.76a43.648 43.648 0 0 1-12.74 7.08c-4.56 1.62-9.46 2.5-14.58 2.52v28.38c0 1.58-0.36 3.08-1.02 4.4a9.964 9.964 0 0 1-8.98 5.6c-5.52 0-10-4.48-10-10v-28.38h-34.02c-5.52 0-10-4.48-10-10s4.48-10 10-10h53.88c4.84 0 9.36-1.44 13.14-3.92a24.154 24.154 0 0 0 8.84-30.3 24.416 24.416 0 0 0-11.94-11.94c-3.06-1.4-6.46-2.18-10.04-2.18h-19.72c-4.82 0-9.44-0.78-13.78-2.22A44.332 44.332 0 0 1 462.2 306c-1.44-4.34-2.22-9-2.22-13.82 0-7.9 2.1-15.36 5.76-21.78 4.86-8.56 12.52-15.32 21.7-19.08 5.12-2.12 10.7-3.28 16.56-3.3v-28.4a10 10 0 0 1 20 0v28.4h34.02c5.54 0 10 4.48 10 10 0 2.46-0.9 4.72-2.36 6.46a10.02 10.02 0 0 1-7.64 3.54z" fill="#E1E1E5" p-id="51905"></path><path d="M514 199.22c70.106 0 127.14 57.026 127.14 127.12 0 70.106-57.034 127.14-127.14 127.14s-127.14-57.034-127.14-127.14c0-70.094 57.034-127.12 127.14-127.12m-18 41.436c-24.898 3.93-44.02 25.566-44.02 51.524 0 28.772 23.398 52.18 52.16 52.18h19.72c8.91 0 16.16 7.25 16.16 16.16 0 8.922-7.25 16.18-16.16 16.18h-53.88c-9.926 0-18 8.074-18 18s8.074 18 18 18H496v20.38c0 9.926 8.074 18 18 18s18-8.074 18-18v-21.016c24.898-3.93 44.02-25.576 44.02-51.544 0-28.762-23.398-52.16-52.16-52.16h-19.72c-8.91 0-16.16-7.258-16.16-16.18 0-8.91 7.25-16.16 16.16-16.16h53.88c9.926 0 18-8.074 18-18s-8.074-18-18-18H532v-20.4c0-9.926-8.074-18-18-18s-18 8.074-18 18v21.036m18-49.436c-74.52 0-135.14 60.62-135.14 135.12 0 74.52 60.62 135.14 135.14 135.14 74.5 0 135.14-60.62 135.14-135.14 0-74.5-60.64-135.12-135.14-135.12z m-9.86 145.14c-24.34 0-44.16-19.82-44.16-44.18 0-24.3 19.74-44.08 44.02-44.16v-28.4c0-5.52 4.48-10 10-10 5.54 0 10 4.48 10 10v28.4h34.02c5.54 0 10 4.48 10 10s-4.46 10-10 10h-53.88c-13.32 0-24.16 10.84-24.16 24.16 0 13.34 10.84 24.18 24.16 24.18h19.72c24.36 0 44.16 19.8 44.16 44.16 0 24.32-19.72 44.1-44.02 44.18v28.38c0 5.52-4.46 10-10 10-5.52 0-10-4.48-10-10v-28.38h-34.02c-5.52 0-10-4.48-10-10s4.48-10 10-10h53.88c13.32 0 24.16-10.86 24.16-24.18s-10.84-24.16-24.16-24.16h-19.72z" opacity=".2" p-id="51906"></path><path d="M138.14 837v40.44H132.4c-3.32 0-6.58-0.28-9.76-0.8v-19.9l15.5-19.74zM168.8 797.94v79.5h-15.5v-59.76zM199.48 758.84v118.6h-15.52v-98.82zM230.14 719.78v157.66h-15.5v-137.92zM260.8 680.72v196.72h-15.5v-176.98z" fill="#FFFFFF" opacity=".4" p-id="51907"></path><path d="M290.32 643.1v234.34h-15.5V662.86zM321 604.02v273.42h-15.52V623.78zM351.66 565.18v312.26h-15.5V584.7l15.32-19.52zM366.82 565.18h15.5v312.26h-15.5zM413 565.16v312.28h-15.52V565.18zM428.16 565.16h15.5v312.28h-15.5zM458.82 565.16h15.5v312.28h-15.5zM489.48 565.16h15.52v312.28h-15.52z" fill="#FFFFFF" opacity=".4" p-id="51908"></path><path d="M519 565.14h15.52v312.3h-15.52zM549.68 565.14h15.5v312.3h-15.5zM580.34 565.14h15.5v312.3h-15.5zM626.52 565.12v312.32h-15.52V565.14zM641.68 565.12h15.5v312.32h-15.5zM687.84 579.5v297.94h-15.5V565.12h4.22zM718.52 618.6v258.84h-15.52V598.82zM749.18 657.68v219.76h-15.5V637.92z" fill="#FFFFFF" opacity=".4" p-id="51909"></path><path d="M778.7 695.3v182.14h-15.5V675.54zM809.36 734.38v143.06h-15.5v-162.82zM840.04 773.48v103.96h-15.52v-123.74zM870.7 812.56v64.88h-15.5V792.8zM901.36 851.64v25.52c-1.9 0.18-3.84 0.28-5.78 0.28h-9.72v-45.56l15.5 19.76zM918.18 873.08c-0.54 0.22-1.1 0.44-1.66 0.62v-2.74l1.66 2.12z" fill="#FFFFFF" opacity=".4" p-id="51910"></path><path d="M490.2 404.7h13.8v13.8zM396.36 259.94l124.76 124.76H470.2l-88.04-88.06a132.96 132.96 0 0 1 14.2-36.7zM580.4 444a133.548 133.548 0 0 1-36.7 14.18l-20.72-20.7c0.66-1.32 1.02-2.82 1.02-4.4v-28.38c5.12-0.02 10.02-0.9 14.58-2.52L580.4 444zM465.74 270.4a43.918 43.918 0 0 0-5.76 21.78c0 4.82 0.78 9.48 2.22 13.82l-58.14-58.16a135.34 135.34 0 0 1 18.36-20.76l43.32 43.32zM504.14 316.36c-13.32 0-24.16-10.84-24.16-24.18 0-2.3 0.32-4.52 0.92-6.62l30.8 30.8h-7.56zM548.02 360.52c0 8.48-4.4 15.96-11.02 20.26l-46.64-46.64c4.34 1.44 8.96 2.22 13.78 2.22h19.72c3.58 0 6.98 0.78 10.04 2.18l11.94 11.94c1.4 3.06 2.18 6.46 2.18 10.04zM613.28 417.92c-6.28 6.8-13.24 12.96-20.8 18.36l-41.16-41.18c7.46-5.94 12.96-14.24 15.36-23.76l46.6 46.58zM504 219.62v28.4c-5.86 0.02-11.44 1.18-16.56 3.3l-41.6-41.6a133.552 133.552 0 0 1 48.06-17l17.3 17.3a10 10 0 0 0-7.2 9.6zM549.2 248.02H524v-25.2zM647.64 346.48a134.21 134.21 0 0 1-17 48.04l-126.5-126.5h53.88c3.06 0 5.8-1.38 7.64-3.54l81.98 82z" fill="#FFFFFF" opacity=".4" p-id="51911"></path></svg>