<?xml version="1.0" standalone="no"?><!DOCTYPE svg PUBLIC "-//W3C//DTD SVG 1.1//EN" "http://www.w3.org/Graphics/SVG/1.1/DTD/svg11.dtd"><svg t="1625812345825" class="icon" viewBox="0 0 1024 1024" version="1.1" xmlns="http://www.w3.org/2000/svg" p-id="61830" xmlns:xlink="http://www.w3.org/1999/xlink" width="200" height="200"><defs><style type="text/css"></style></defs><path d="M888.42 534.82c-4.22-13.04-16.1-22.64-30.3-23.52v-39.58c25.7-4.72 45.26-27.28 45.26-54.32 0-215.82-175.58-391.4-391.4-391.4S120.56 201.58 120.56 417.4c0 27.04 19.56 49.6 45.26 54.32v39.32c-14.18 0.92-26.04 10.52-30.26 23.54-36.78 15.92-61.14 52.62-61.14 93.04s24.36 77.14 61.16 93.06c4.44 13.7 17.3 23.62 32.46 23.62h15.56c18.82 0 34.14-15.3 34.14-34.12v-165.1c0-18.08-14.14-32.88-31.92-34.04v-39.32c25.7-4.72 45.26-27.28 45.26-54.32 0-154.9 126-280.9 280.88-280.9 154.9 0 280.9 126 280.9 280.9 0 27.04 19.56 49.6 45.26 54.32v39.58c-17.76 1.18-31.86 15.96-31.86 34.02v165.1c0 18.82 15.32 34.14 34.14 34.14h5.56v91.28l-169.08 65.04c-11.2-19.4-32.16-32.48-56.12-32.48-35.74 0-64.82 29.08-64.82 64.8 0 35.74 29.08 64.8 64.82 64.8 35.72 0 64.8-29.06 64.8-64.8 0-4.68-0.52-9.26-1.46-13.66l175.46-67.5c0.06-0.02 0.1-0.06 0.14-0.08 0.34-0.14 0.66-0.32 0.98-0.48 0.26-0.16 0.54-0.28 0.8-0.44 0.22-0.16 0.42-0.34 0.64-0.52 0.3-0.22 0.6-0.46 0.88-0.72 0.16-0.14 0.28-0.32 0.42-0.5 0.28-0.3 0.56-0.62 0.8-0.96 0.14-0.2 0.22-0.4 0.34-0.6 0.2-0.36 0.42-0.7 0.58-1.08 0.1-0.2 0.14-0.44 0.22-0.64 0.14-0.4 0.28-0.8 0.38-1.22 0.04-0.18 0.04-0.38 0.08-0.58 0.06-0.46 0.14-0.94 0.14-1.42v-99.74c10.64-3.26 19.06-11.58 22.48-22.14 36.78-15.92 61.14-52.62 61.14-93.04s-24.36-77.14-61.16-93.06zM133.9 697.38c-24.08-14.52-39.48-40.98-39.48-69.76s15.4-55.22 39.48-69.76v139.52zM620.76 978c-24.72 0-44.82-20.08-44.82-44.8 0-24.7 20.1-44.8 44.82-44.8 24.7 0 44.8 20.1 44.8 44.8 0 24.72-20.1 44.8-44.8 44.8zM197.74 545.08v165.1c0 7.78-6.34 14.12-14.14 14.12h-15.56c-7.8 0-14.14-6.34-14.14-14.12v-165.1c0-7.8 6.34-14.14 14.14-14.14h15.56c7.8 0 14.14 6.34 14.14 14.14z m615.12-127.68c0-165.92-134.98-300.9-300.9-300.9-165.9 0-300.88 134.98-300.88 300.9 0 19.44-15.82 35.24-35.26 35.24-19.44 0-35.26-15.8-35.26-35.24C140.56 212.6 307.18 46 511.98 46c204.78 0 371.4 166.6 371.4 371.4 0 19.44-15.82 35.24-35.26 35.24-19.44 0-35.26-15.8-35.26-35.24z m57.24 293.02c0 7.8-6.34 14.14-14.14 14.14h-15.56c-7.8 0-14.14-6.34-14.14-14.14v-165.1c0-7.8 6.34-14.14 14.14-14.14h15.56c7.8 0 14.14 6.34 14.14 14.14v165.1z m20-12.8v-139.52c24.08 14.54 39.48 41 39.48 69.78s-15.4 55.22-39.48 69.74z" fill="#23130D" p-id="61831"></path><path d="M870.1 545.32v165.1c0 7.8-6.34 14.14-14.14 14.14h-15.56c-7.8 0-14.14-6.34-14.14-14.14v-165.1c0-7.8 6.34-14.14 14.14-14.14h15.56c7.8 0 14.14 6.34 14.14 14.14zM665.56 933.2c0 2.08-0.14 4.14-0.44 6.16-0.64 4.82-2.08 9.4-4.16 13.6-4.4 8.96-11.72 16.22-20.7 20.58-2.74 1.32-5.64 2.38-8.64 3.12-3.48 0.88-7.12 1.34-10.86 1.34s-7.38-0.46-10.86-1.34h-0.02c-3-0.74-5.88-1.8-8.62-3.12a45.104 45.104 0 0 1-20.72-20.58c-2.08-4.2-3.52-8.78-4.16-13.6-0.3-2.02-0.44-4.08-0.44-6.16s0.14-4.14 0.44-6.16c0.64-4.82 2.08-9.4 4.16-13.6a45.2 45.2 0 0 1 20.72-20.58c2.74-1.32 5.62-2.38 8.62-3.12h0.02c3.48-0.88 7.12-1.34 10.86-1.34s7.38 0.46 10.86 1.34c3 0.74 5.9 1.8 8.64 3.12 8.98 4.36 16.3 11.64 20.7 20.58 2.08 4.2 3.52 8.78 4.16 13.6 0.3 2.02 0.44 4.08 0.44 6.16z" fill="#E1E1E5" p-id="61832"></path><path d="M929.58 627.88c0 28.78-15.4 55.22-39.48 69.74v-139.52c24.08 14.54 39.48 41 39.48 69.78z" fill="#636368" p-id="61833"></path><path d="M858.18 724.36c-0.72 0.14-1.46 0.2-2.22 0.2h-15.56c-7.8 0-14.14-6.34-14.14-14.14v-165.1c0-7.8 6.34-14.14 14.14-14.14h15.56c0.76 0 1.5 0.06 2.22 0.2a14.12 14.12 0 0 0-11.92 13.94v165.1a14.12 14.12 0 0 0 11.92 13.94zM929.58 627.88c0 28.78-15.4 55.22-39.48 69.74v-12.32c14.9-14.94 23.82-35.5 23.82-57.42s-8.92-42.48-23.82-57.46v-12.32c24.08 14.54 39.48 41 39.48 69.78z" fill="#23130D" opacity=".2" p-id="61834"></path><path d="M133.9 557.86v139.52c-24.08-14.52-39.48-40.98-39.48-69.76s15.4-55.22 39.48-69.76z" fill="#636368" p-id="61835"></path><path d="M197.74 545.08v165.1c0 7.78-6.34 14.12-14.14 14.12h-15.56c-7.8 0-14.14-6.34-14.14-14.12v-165.1c0-7.8 6.34-14.14 14.14-14.14h15.56c7.8 0 14.14 6.34 14.14 14.14z" fill="#E1E1E5" p-id="61836"></path><path d="M883.38 417.4c0 19.44-15.82 35.24-35.26 35.24-19.44 0-35.26-15.8-35.26-35.24 0-165.92-134.98-300.9-300.9-300.9-165.9 0-300.88 134.98-300.88 300.9 0 19.44-15.82 35.24-35.26 35.24-19.44 0-35.26-15.8-35.26-35.24C140.56 212.6 307.18 46 511.98 46c204.78 0 371.4 166.6 371.4 371.4z" fill="#3594BF" p-id="61837"></path><path d="M883.38 417.4c0 2.4-0.24 4.76-0.7 7.04C870.78 230.3 709.06 76 511.98 76c-197.1 0-358.82 154.3-370.72 348.44-0.46-2.28-0.7-4.64-0.7-7.04C140.56 212.6 307.18 46 511.98 46c204.78 0 371.4 166.6 371.4 371.4z" fill="#23130D" opacity=".2" p-id="61838"></path><path d="M730.62 388H296.26c-18.98 0-34.42 15.44-34.42 34.42v305.8c0 18.98 15.44 34.42 34.42 34.42l287.42 0.02L688.96 838c1.72 1.24 3.76 1.88 5.82 1.88 1.56 0 3.14-0.38 4.58-1.12a9.99 9.99 0 0 0 5.42-8.88v-67.24h25.84c18.98 0 34.44-15.44 34.44-34.42v-305.8c0-18.98-15.46-34.42-34.44-34.42z m-294.66 20h154.96a86.054 86.054 0 0 1 8.78 37.92c0 47.56-38.7 86.24-86.26 86.24s-86.24-38.68-86.24-86.24c0-13.2 3.02-26.2 8.76-37.92z m-122.28 27.1l4.78-27.1h95.72a106.724 106.724 0 0 0-6.98 37.92c0 58.58 47.66 106.24 106.24 106.24 58.6 0 106.26-47.66 106.26-106.24 0-13.02-2.4-25.88-7-37.92h95.74l4.76 27.08c0.96 5.5-2.72 10.78-8.22 11.76l-23.2 4.08c-0.22 0.04-0.42 0.12-0.64 0.18-0.38 0.08-0.74 0.16-1.1 0.3-0.26 0.1-0.5 0.22-0.74 0.34-0.36 0.16-0.68 0.32-1.02 0.52-0.22 0.14-0.42 0.3-0.64 0.46-0.32 0.22-0.62 0.44-0.88 0.7-0.2 0.18-0.36 0.38-0.54 0.56-0.26 0.28-0.52 0.56-0.74 0.86-0.16 0.22-0.3 0.46-0.44 0.68-0.18 0.32-0.38 0.62-0.54 0.96-0.12 0.28-0.22 0.56-0.34 0.84-0.1 0.32-0.22 0.62-0.3 0.96-0.1 0.34-0.14 0.68-0.2 1.04-0.02 0.24-0.1 0.46-0.12 0.7a160.392 160.392 0 0 1-5.44 31.14c-0.06 0.22-0.08 0.44-0.12 0.64-0.08 0.38-0.16 0.74-0.18 1.1-0.04 0.32-0.04 0.62-0.04 0.92 0 0.34 0 0.68 0.04 1 0.02 0.32 0.1 0.64 0.16 0.96 0.06 0.32 0.12 0.62 0.2 0.92 0.1 0.32 0.22 0.6 0.34 0.9 0.12 0.3 0.24 0.6 0.4 0.9 0.14 0.26 0.3 0.52 0.48 0.78 0.18 0.28 0.36 0.56 0.56 0.82 0.22 0.26 0.44 0.48 0.66 0.72 0.22 0.22 0.44 0.44 0.7 0.66s0.58 0.42 0.88 0.64c0.18 0.12 0.34 0.28 0.54 0.38l20.36 11.76c2.32 1.36 4 3.54 4.7 6.18 0.7 2.62 0.36 5.34-0.98 7.68l-22.16 38.36a10.112 10.112 0 0 1-6.14 4.7c-2.62 0.7-5.36 0.34-7.7-1l-20.4-11.78c-0.18-0.1-0.4-0.16-0.6-0.26a5.88 5.88 0 0 0-1.02-0.46c-0.28-0.1-0.58-0.18-0.86-0.26-0.34-0.08-0.66-0.16-1-0.22-0.32-0.04-0.62-0.06-0.94-0.08-0.34-0.02-0.66-0.04-0.98-0.02-0.32 0-0.6 0.06-0.9 0.1-0.34 0.04-0.68 0.08-1.02 0.16-0.28 0.08-0.56 0.16-0.84 0.26-0.32 0.12-0.66 0.22-0.98 0.36-0.28 0.14-0.54 0.3-0.8 0.44-0.3 0.18-0.58 0.34-0.86 0.52-0.28 0.22-0.54 0.44-0.8 0.68-0.18 0.16-0.38 0.28-0.54 0.46a161.48 161.48 0 0 1-24.2 20.32c-0.2 0.12-0.34 0.28-0.5 0.42a7.452 7.452 0 0 0-1.48 1.4c-0.22 0.26-0.44 0.52-0.62 0.78-0.18 0.28-0.34 0.56-0.5 0.84-0.14 0.28-0.3 0.56-0.42 0.86-0.14 0.28-0.22 0.58-0.32 0.9-0.1 0.3-0.2 0.6-0.28 0.92-0.06 0.32-0.1 0.62-0.14 0.94-0.04 0.32-0.08 0.64-0.08 0.96-0.02 0.34 0.02 0.68 0.04 1a7.396 7.396 0 0 0 0.38 2.02c0.06 0.2 0.08 0.42 0.16 0.62l8.04 22.14c0.92 2.52 0.8 5.28-0.36 7.74a9.95 9.95 0 0 1-5.68 5.24l-41.62 15.16a10.1 10.1 0 0 1-7.74-0.36 10.112 10.112 0 0 1-5.24-5.7l-8.06-22.14c-0.1-0.24-0.24-0.46-0.34-0.7-0.14-0.28-0.26-0.58-0.42-0.86-0.18-0.3-0.38-0.6-0.6-0.88-0.16-0.24-0.32-0.46-0.5-0.68-0.26-0.28-0.52-0.54-0.8-0.78-0.2-0.18-0.4-0.38-0.6-0.54-0.3-0.22-0.6-0.42-0.92-0.6-0.22-0.16-0.46-0.3-0.7-0.42-0.32-0.18-0.66-0.3-1-0.42-0.26-0.1-0.52-0.22-0.8-0.3a9.98 9.98 0 0 0-1.06-0.22c-0.28-0.04-0.56-0.1-0.86-0.12-0.36-0.02-0.72-0.02-1.1 0-0.22 0-0.46-0.04-0.68 0-10.38 1.02-21.2 1.02-31.64 0-0.22-0.04-0.44 0-0.66 0a10.46 10.46 0 0 0-1.12 0c-0.3 0.02-0.58 0.08-0.86 0.14-0.36 0.06-0.7 0.1-1.04 0.2-0.3 0.08-0.58 0.2-0.88 0.32-0.3 0.12-0.6 0.22-0.9 0.38-0.28 0.14-0.54 0.32-0.82 0.48-0.28 0.18-0.54 0.34-0.78 0.54-0.26 0.2-0.5 0.42-0.74 0.64-0.24 0.22-0.46 0.42-0.66 0.66-0.24 0.26-0.44 0.56-0.64 0.84-0.16 0.24-0.34 0.46-0.48 0.72-0.2 0.34-0.36 0.7-0.52 1.06-0.08 0.18-0.2 0.34-0.26 0.54l-8.06 22.14a10.112 10.112 0 0 1-5.24 5.7c-2.48 1.14-5.22 1.28-7.74 0.36l-41.64-15.16a10.104 10.104 0 0 1-5.68-5.22c-1.14-2.48-1.28-5.24-0.36-7.76l8.06-22.14c0.08-0.22 0.1-0.44 0.16-0.66 0.1-0.34 0.22-0.7 0.28-1.04 0.04-0.32 0.06-0.64 0.1-0.96 0.02-0.32 0.04-0.64 0.04-0.96 0-0.34-0.06-0.66-0.1-1a7.24 7.24 0 0 0-0.12-0.92c-0.08-0.32-0.18-0.62-0.28-0.92-0.1-0.32-0.2-0.62-0.32-0.92-0.12-0.28-0.28-0.56-0.42-0.82-0.16-0.3-0.32-0.58-0.5-0.86-0.2-0.26-0.4-0.52-0.62-0.76-0.2-0.24-0.4-0.48-0.62-0.72-0.26-0.24-0.56-0.46-0.84-0.7-0.18-0.14-0.32-0.3-0.52-0.44-8.66-5.9-16.8-12.74-24.2-20.3-0.14-0.14-0.32-0.26-0.46-0.38-0.3-0.28-0.6-0.54-0.92-0.78-0.22-0.16-0.46-0.28-0.7-0.42-0.32-0.2-0.64-0.38-0.98-0.54-0.26-0.1-0.52-0.2-0.78-0.28-0.36-0.12-0.7-0.24-1.06-0.34l-0.76-0.12a10.84 10.84 0 0 0-1.16-0.12c-0.24-0.02-0.48 0-0.72 0.02-0.4 0.02-0.8 0.04-1.2 0.1-0.24 0.04-0.48 0.1-0.74 0.16-0.38 0.1-0.74 0.18-1.12 0.32-0.26 0.1-0.52 0.24-0.78 0.36s-0.52 0.2-0.78 0.34l-20.4 11.78c-2.32 1.34-5.04 1.7-7.68 1-2.62-0.72-4.82-2.38-6.16-4.72l-22.14-38.34a10.146 10.146 0 0 1 3.72-13.86l20.34-11.76c0.2-0.1 0.36-0.26 0.54-0.38 0.32-0.22 0.62-0.42 0.9-0.64 0.24-0.22 0.46-0.44 0.68-0.66 0.22-0.24 0.46-0.48 0.66-0.72 0.2-0.26 0.38-0.54 0.56-0.82 0.18-0.26 0.34-0.52 0.5-0.8 0.14-0.28 0.26-0.58 0.38-0.88 0.12-0.3 0.24-0.6 0.34-0.9 0.08-0.3 0.14-0.6 0.2-0.92 0.08-0.32 0.14-0.64 0.18-0.96 0.02-0.34 0.02-0.66 0.02-0.98 0-0.32 0-0.64-0.02-0.96-0.04-0.36-0.12-0.7-0.2-1.06-0.04-0.24-0.04-0.46-0.1-0.68-2.84-10.06-4.66-20.54-5.46-31.12-0.02-0.28-0.1-0.54-0.14-0.8-0.06-0.32-0.08-0.62-0.16-0.92a14.66 14.66 0 0 0-0.34-1c-0.1-0.28-0.2-0.56-0.32-0.82-0.16-0.32-0.34-0.62-0.52-0.9-0.16-0.26-0.3-0.52-0.48-0.76-0.2-0.26-0.4-0.5-0.62-0.72-0.22-0.26-0.44-0.5-0.7-0.72-0.2-0.2-0.44-0.36-0.66-0.54-0.3-0.22-0.58-0.44-0.9-0.62-0.24-0.16-0.48-0.26-0.74-0.4-0.32-0.16-0.64-0.32-1-0.44-0.28-0.1-0.58-0.18-0.88-0.26-0.28-0.06-0.52-0.16-0.78-0.2l-23.18-4.08a10.14 10.14 0 0 1-6.54-4.18 10.108 10.108 0 0 1-1.7-7.56z m431.38 293.12c0 7.96-6.48 14.42-14.44 14.42h-35.84c-5.52 0-10 4.48-10 10v57.78l-92.06-65.9a10 10 0 0 0-5.82-1.88H296.26c-7.94 0-14.42-6.46-14.42-14.42v-305.8c0-7.96 6.48-14.42 14.42-14.42h1.9L294 431.62c-1.4 7.9 0.38 15.9 5 22.5 4.64 6.62 11.54 11.02 19.44 12.4l15.74 2.78c0.78 6.64 1.92 13.2 3.44 19.66l-13.82 7.98c-14.38 8.32-19.34 26.78-11.02 41.18l22.14 38.34c4 6.96 10.5 11.94 18.3 14.04 2.6 0.7 5.26 1.04 7.88 1.04 5.22 0 10.36-1.36 14.98-4.04l13.86-8c4.86 4.58 9.96 8.86 15.28 12.84l-5.46 15.02c-2.76 7.54-2.38 15.74 1.02 23.06 3.42 7.3 9.44 12.82 16.98 15.56l41.62 15.16c3.34 1.2 6.8 1.82 10.26 1.82 4.36 0 8.7-0.96 12.76-2.86 7.32-3.42 12.86-9.44 15.6-16.98l5.46-15.04c3.32 0.18 6.66 0.3 9.98 0.3 3.34 0 6.66-0.12 9.98-0.3l5.48 15.04c2.74 7.54 8.26 13.56 15.58 16.98 4.06 1.9 8.4 2.86 12.76 2.86 3.46 0 6.94-0.62 10.28-1.82l41.6-15.16c7.56-2.74 13.58-8.28 17-15.58 3.4-7.32 3.76-15.5 1.02-23.04l-5.46-15.02c5.3-3.98 10.42-8.28 15.28-12.84l13.84 8c4.64 2.66 9.78 4.04 15 4.04 2.62 0 5.28-0.36 7.88-1.06 7.8-2.08 14.3-7.06 18.28-14.02l22.14-38.34c4.02-6.96 5.1-15.08 3-22.86-2.08-7.8-7.06-14.3-14.02-18.3l-13.82-8c1.52-6.46 2.66-13.04 3.46-19.66l15.76-2.78c16.32-2.9 27.28-18.54 24.42-34.9L728.74 408h1.88c7.96 0 14.44 6.46 14.44 14.42v305.8z" fill="#23130D" p-id="61839"></path><path d="M599.7 445.92c0 47.56-38.7 86.24-86.26 86.24s-86.24-38.68-86.24-86.24c0-13.2 3.02-26.2 8.76-37.92h154.96a86.054 86.054 0 0 1 8.78 37.92z" fill="#F9C139" p-id="61840"></path><path d="M745.06 422.42v305.8c0 7.96-6.48 14.42-14.44 14.42h-35.84c-5.52 0-10 4.48-10 10v57.78l-92.06-65.9a10 10 0 0 0-5.82-1.88H296.26c-7.94 0-14.42-6.46-14.42-14.42v-305.8c0-7.96 6.48-14.42 14.42-14.42h1.9L294 431.62c-1.4 7.9 0.38 15.9 5 22.5 4.64 6.62 11.54 11.02 19.44 12.4l15.74 2.78c0.78 6.64 1.92 13.2 3.44 19.66l-13.82 7.98c-14.38 8.32-19.34 26.78-11.02 41.18l22.14 38.34c4 6.96 10.5 11.94 18.3 14.04 2.6 0.7 5.26 1.04 7.88 1.04 5.22 0 10.36-1.36 14.98-4.04l13.86-8c4.86 4.58 9.96 8.86 15.28 12.84l-5.46 15.02c-2.76 7.54-2.38 15.74 1.02 23.06 3.42 7.3 9.44 12.82 16.98 15.56l41.62 15.16c3.34 1.2 6.8 1.82 10.26 1.82 4.36 0 8.7-0.96 12.76-2.86 7.32-3.42 12.86-9.44 15.6-16.98l5.46-15.04c3.32 0.18 6.66 0.3 9.98 0.3 3.34 0 6.66-0.12 9.98-0.3l5.48 15.04c2.74 7.54 8.26 13.56 15.58 16.98 4.06 1.9 8.4 2.86 12.76 2.86 3.46 0 6.94-0.62 10.28-1.82l41.6-15.16c7.56-2.74 13.58-8.28 17-15.58 3.4-7.32 3.76-15.5 1.02-23.04l-5.46-15.02c5.3-3.98 10.42-8.28 15.28-12.84l13.84 8c4.64 2.66 9.78 4.04 15 4.04 2.62 0 5.28-0.36 7.88-1.06 7.8-2.08 14.3-7.06 18.28-14.02l22.14-38.34c4.02-6.96 5.1-15.08 3-22.86-2.08-7.8-7.06-14.3-14.02-18.3l-13.82-8c1.52-6.46 2.66-13.04 3.46-19.66l15.76-2.78c16.32-2.9 27.28-18.54 24.42-34.9L728.74 408h1.88c7.96 0 14.44 6.46 14.44 14.42z" fill="#F9C139" p-id="61841"></path><path d="M745.06 422.42v305.8c0 7.96-6.48 14.42-14.44 14.42h-35.84c-5.52 0-10 4.48-10 10v57.78l-92.06-65.9a10 10 0 0 0-5.82-1.88H296.26c-7.94 0-14.42-6.46-14.42-14.42v-5.58h285.06a10 10 0 0 1 5.82 1.88l92.06 65.9v-57.78c0-5.52 4.48-10 10-10h35.84c7.96 0 14.44-6.46 14.44-14.42V457.58c6.34-6.7 9.54-16.2 7.84-25.96L728.74 408h1.88c7.96 0 14.44 6.46 14.44 14.42z" fill="#23130D" opacity=".2" p-id="61842"></path><path d="M704.98 446.84l-23.2 4.08c-0.22 0.04-0.42 0.12-0.64 0.18-0.38 0.08-0.74 0.16-1.1 0.3-0.26 0.1-0.5 0.22-0.74 0.34-0.36 0.16-0.68 0.32-1.02 0.52-0.22 0.14-0.42 0.3-0.64 0.46-0.32 0.22-0.62 0.44-0.88 0.7-0.2 0.18-0.36 0.38-0.54 0.56-0.26 0.28-0.52 0.56-0.74 0.86-0.16 0.22-0.3 0.46-0.44 0.68-0.18 0.32-0.38 0.62-0.54 0.96-0.12 0.28-0.22 0.56-0.34 0.84-0.1 0.32-0.22 0.62-0.3 0.96-0.1 0.34-0.14 0.68-0.2 1.04-0.02 0.24-0.1 0.46-0.12 0.7a160.392 160.392 0 0 1-5.44 31.14c-0.06 0.22-0.08 0.44-0.12 0.64-0.08 0.38-0.16 0.74-0.18 1.1-0.04 0.32-0.04 0.62-0.04 0.92 0 0.34 0 0.68 0.04 1 0.02 0.32 0.1 0.64 0.16 0.96 0.06 0.32 0.12 0.62 0.2 0.92 0.1 0.32 0.22 0.6 0.34 0.9 0.12 0.3 0.24 0.6 0.4 0.9 0.14 0.26 0.3 0.52 0.48 0.78 0.18 0.28 0.36 0.56 0.56 0.82 0.22 0.26 0.44 0.48 0.66 0.72 0.22 0.22 0.44 0.44 0.7 0.66s0.58 0.42 0.88 0.64c0.18 0.12 0.34 0.28 0.54 0.38l20.36 11.76c2.32 1.36 4 3.54 4.7 6.18 0.7 2.62 0.36 5.34-0.98 7.68l-22.16 38.36a10.112 10.112 0 0 1-6.14 4.7c-2.62 0.7-5.36 0.34-7.7-1l-20.4-11.78c-0.18-0.1-0.4-0.16-0.6-0.26a5.88 5.88 0 0 0-1.02-0.46c-0.28-0.1-0.58-0.18-0.86-0.26-0.34-0.08-0.66-0.16-1-0.22-0.32-0.04-0.62-0.06-0.94-0.08-0.34-0.02-0.66-0.04-0.98-0.02-0.32 0-0.6 0.06-0.9 0.1-0.34 0.04-0.68 0.08-1.02 0.16-0.28 0.08-0.56 0.16-0.84 0.26-0.32 0.12-0.66 0.22-0.98 0.36-0.28 0.14-0.54 0.3-0.8 0.44-0.3 0.18-0.58 0.34-0.86 0.52-0.28 0.22-0.54 0.44-0.8 0.68-0.18 0.16-0.38 0.28-0.54 0.46a161.48 161.48 0 0 1-24.2 20.32c-0.2 0.12-0.34 0.28-0.5 0.42a7.452 7.452 0 0 0-1.48 1.4c-0.22 0.26-0.44 0.52-0.62 0.78-0.18 0.28-0.34 0.56-0.5 0.84-0.14 0.28-0.3 0.56-0.42 0.86-0.14 0.28-0.22 0.58-0.32 0.9-0.1 0.3-0.2 0.6-0.28 0.92-0.06 0.32-0.1 0.62-0.14 0.94-0.04 0.32-0.08 0.64-0.08 0.96-0.02 0.34 0.02 0.68 0.04 1a7.396 7.396 0 0 0 0.38 2.02c0.06 0.2 0.08 0.42 0.16 0.62l8.04 22.14c0.92 2.52 0.8 5.28-0.36 7.74a9.95 9.95 0 0 1-5.68 5.24l-41.62 15.16a10.1 10.1 0 0 1-7.74-0.36 10.112 10.112 0 0 1-5.24-5.7l-8.06-22.14c-0.1-0.24-0.24-0.46-0.34-0.7-0.14-0.28-0.26-0.58-0.42-0.86-0.18-0.3-0.38-0.6-0.6-0.88-0.16-0.24-0.32-0.46-0.5-0.68-0.26-0.28-0.52-0.54-0.8-0.78-0.2-0.18-0.4-0.38-0.6-0.54-0.3-0.22-0.6-0.42-0.92-0.6-0.22-0.16-0.46-0.3-0.7-0.42-0.32-0.18-0.66-0.3-1-0.42-0.26-0.1-0.52-0.22-0.8-0.3a9.98 9.98 0 0 0-1.06-0.22c-0.28-0.04-0.56-0.1-0.86-0.12-0.36-0.02-0.72-0.02-1.1 0-0.22 0-0.46-0.04-0.68 0-10.38 1.02-21.2 1.02-31.64 0-0.22-0.04-0.44 0-0.66 0a10.46 10.46 0 0 0-1.12 0c-0.3 0.02-0.58 0.08-0.86 0.14-0.36 0.06-0.7 0.1-1.04 0.2-0.3 0.08-0.58 0.2-0.88 0.32-0.3 0.12-0.6 0.22-0.9 0.38-0.28 0.14-0.54 0.32-0.82 0.48-0.28 0.18-0.54 0.34-0.78 0.54-0.26 0.2-0.5 0.42-0.74 0.64-0.24 0.22-0.46 0.42-0.66 0.66-0.24 0.26-0.44 0.56-0.64 0.84-0.16 0.24-0.34 0.46-0.48 0.72-0.2 0.34-0.36 0.7-0.52 1.06-0.08 0.18-0.2 0.34-0.26 0.54l-8.06 22.14a10.112 10.112 0 0 1-5.24 5.7c-2.48 1.14-5.22 1.28-7.74 0.36l-41.64-15.16a10.104 10.104 0 0 1-5.68-5.22c-1.14-2.48-1.28-5.24-0.36-7.76l8.06-22.14c0.08-0.22 0.1-0.44 0.16-0.66 0.1-0.34 0.22-0.7 0.28-1.04 0.04-0.32 0.06-0.64 0.1-0.96 0.02-0.32 0.04-0.64 0.04-0.96 0-0.34-0.06-0.66-0.1-1a7.24 7.24 0 0 0-0.12-0.92c-0.08-0.32-0.18-0.62-0.28-0.92-0.1-0.32-0.2-0.62-0.32-0.92-0.12-0.28-0.28-0.56-0.42-0.82-0.16-0.3-0.32-0.58-0.5-0.86-0.2-0.26-0.4-0.52-0.62-0.76-0.2-0.24-0.4-0.48-0.62-0.72-0.26-0.24-0.56-0.46-0.84-0.7-0.18-0.14-0.32-0.3-0.52-0.44-8.66-5.9-16.8-12.74-24.2-20.3-0.14-0.14-0.32-0.26-0.46-0.38-0.3-0.28-0.6-0.54-0.92-0.78-0.22-0.16-0.46-0.28-0.7-0.42-0.32-0.2-0.64-0.38-0.98-0.54-0.26-0.1-0.52-0.2-0.78-0.28-0.36-0.12-0.7-0.24-1.06-0.34l-0.76-0.12a10.84 10.84 0 0 0-1.16-0.12c-0.24-0.02-0.48 0-0.72 0.02-0.4 0.02-0.8 0.04-1.2 0.1-0.24 0.04-0.48 0.1-0.74 0.16-0.38 0.1-0.74 0.18-1.12 0.32-0.26 0.1-0.52 0.24-0.78 0.36s-0.52 0.2-0.78 0.34l-20.4 11.78c-2.32 1.34-5.04 1.7-7.68 1-2.62-0.72-4.82-2.38-6.16-4.72l-22.14-38.34a10.146 10.146 0 0 1 3.72-13.86l20.34-11.76c0.2-0.1 0.36-0.26 0.54-0.38 0.32-0.22 0.62-0.42 0.9-0.64 0.24-0.22 0.46-0.44 0.68-0.66 0.22-0.24 0.46-0.48 0.66-0.72 0.2-0.26 0.38-0.54 0.56-0.82 0.18-0.26 0.34-0.52 0.5-0.8 0.14-0.28 0.26-0.58 0.38-0.88 0.12-0.3 0.24-0.6 0.34-0.9 0.08-0.3 0.14-0.6 0.2-0.92 0.08-0.32 0.14-0.64 0.18-0.96 0.02-0.34 0.02-0.66 0.02-0.98 0-0.32 0-0.64-0.02-0.96-0.04-0.36-0.12-0.7-0.2-1.06-0.04-0.24-0.04-0.46-0.1-0.68-2.84-10.06-4.66-20.54-5.46-31.12-0.02-0.28-0.1-0.54-0.14-0.8-0.06-0.32-0.08-0.62-0.16-0.92a14.66 14.66 0 0 0-0.34-1c-0.1-0.28-0.2-0.56-0.32-0.82-0.16-0.32-0.34-0.62-0.52-0.9-0.16-0.26-0.3-0.52-0.48-0.76-0.2-0.26-0.4-0.5-0.62-0.72-0.22-0.26-0.44-0.5-0.7-0.72-0.2-0.2-0.44-0.36-0.66-0.54-0.3-0.22-0.58-0.44-0.9-0.62-0.24-0.16-0.48-0.26-0.74-0.4-0.32-0.16-0.64-0.32-1-0.44-0.28-0.1-0.58-0.18-0.88-0.26-0.28-0.06-0.52-0.16-0.78-0.2l-23.18-4.08a10.14 10.14 0 0 1-6.54-4.18 10.108 10.108 0 0 1-1.7-7.56l4.78-27.1h95.72a106.724 106.724 0 0 0-6.98 37.92c0 58.58 47.66 106.24 106.24 106.24 58.6 0 106.26-47.66 106.26-106.24 0-13.02-2.4-25.88-7-37.92h95.74l4.76 27.08c0.96 5.5-2.72 10.78-8.22 11.76z" fill="#E1E1E5" p-id="61843"></path><path d="M701.724 416l3.596 20.456c0.202 1.156-0.596 2.304-1.724 2.506l-23.24 4.088a10.538 10.538 0 0 0-1.226 0.302 13.818 13.818 0 0 0-1.958 0.582 15.036 15.036 0 0 0-1.298 0.578 17.438 17.438 0 0 0-1.646 0.854l-0.122 0.072-0.12 0.076a15.578 15.578 0 0 0-0.94 0.658l-0.056 0.042a13.992 13.992 0 0 0-2.476 2.164l-0.052 0.052-0.102 0.11c-0.352 0.38-0.836 0.9-1.348 1.598a16.83 16.83 0 0 0-0.648 0.976l-0.068 0.11-0.124 0.196-0.1 0.178-0.086 0.144c-0.178 0.3-0.448 0.754-0.722 1.334l-0.06 0.126-0.056 0.128c-0.092 0.216-0.178 0.43-0.262 0.646l-0.078 0.194-0.166 0.404-0.116 0.358-0.044 0.128c-0.088 0.26-0.23 0.672-0.358 1.182-0.184 0.676-0.274 1.252-0.33 1.61l-0.024 0.154-0.022 0.138a10.78 10.78 0 0 0-0.184 1.286 152.456 152.456 0 0 1-5.18 29.628c-0.14 0.514-0.212 0.944-0.26 1.234-0.096 0.456-0.228 1.1-0.29 1.876-0.072 0.694-0.072 1.262-0.072 1.652 0 0.424 0 1.044 0.076 1.762 0.058 0.67 0.168 1.21 0.236 1.55l0.026 0.126c0.098 0.524 0.202 1.016 0.334 1.508l0.044 0.162 0.05 0.16c0.15 0.48 0.316 0.914 0.496 1.356l0.052 0.13c0.16 0.4 0.402 1.006 0.784 1.722 0.256 0.476 0.544 0.95 0.858 1.412 0.222 0.344 0.514 0.792 0.884 1.27l0.114 0.15 0.122 0.144c0.242 0.286 0.482 0.546 0.724 0.802l0.144 0.154 0.118 0.128 0.122 0.122c0.286 0.286 0.676 0.676 1.192 1.112 0.46 0.39 0.884 0.684 1.166 0.878l0.152 0.106 0.056 0.04c0.242 0.19 0.698 0.534 1.318 0.876l20.212 11.674c0.52 0.304 0.86 0.752 1.016 1.344 0.158 0.59 0.092 1.14-0.178 1.614l-22.16 38.36a2.08 2.08 0 0 1-1.276 0.972 2.278 2.278 0 0 1-0.584 0.078 2.1 2.1 0 0 1-1.05-0.278l-20.4-11.78-0.058-0.034-0.06-0.034a9.886 9.886 0 0 0-1.05-0.502 13.55 13.55 0 0 0-1.85-0.788 19.214 19.214 0 0 0-1.14-0.352l-0.126-0.036-0.18-0.052-0.182-0.042-0.144-0.034c-0.436-0.104-0.858-0.2-1.3-0.278l-0.2-0.036-0.202-0.026a24.154 24.154 0 0 0-2.628-0.17c-0.184 0-0.368 0.004-0.552 0.012-0.704 0.018-1.272 0.104-1.66 0.162a16.18 16.18 0 0 0-1.822 0.306l-0.184 0.044-0.182 0.052c-0.444 0.128-0.888 0.26-1.334 0.418l-0.082 0.03-0.032 0.012-0.156 0.054a15.684 15.684 0 0 0-1.228 0.47l-0.186 0.082-0.182 0.092c-0.3 0.15-0.59 0.31-0.872 0.47l-0.144 0.082-0.162 0.088-0.158 0.096-0.216 0.128c-0.292 0.172-0.572 0.34-0.852 0.52l-0.32 0.206-0.3 0.236c-0.372 0.292-0.722 0.586-1.06 0.89a9.986 9.986 0 0 0-1.128 1.02 153.612 153.612 0 0 1-22.822 19.166c-0.538 0.352-0.95 0.7-1.226 0.95a14.398 14.398 0 0 0-1.378 1.208 17.74 17.74 0 0 0-1.072 1.17c-0.29 0.344-0.688 0.814-1.088 1.39l-0.078 0.114-0.074 0.116c-0.254 0.396-0.484 0.79-0.714 1.192l-0.112 0.194-0.1 0.2-0.064 0.124c-0.13 0.252-0.316 0.61-0.51 1.058-0.318 0.694-0.498 1.284-0.612 1.656l-0.018 0.06a20.62 20.62 0 0 0-0.422 1.418l-0.058 0.232-0.044 0.236c-0.09 0.484-0.154 0.94-0.214 1.42a15.702 15.702 0 0 0-0.14 1.728c-0.026 0.688 0.018 1.252 0.044 1.604l0.01 0.122c0.024 0.4 0.066 1.052 0.206 1.818 0.116 0.686 0.272 1.268 0.43 1.796 0.066 0.3 0.184 0.774 0.388 1.318l8.024 22.094c0.19 0.52 0.162 1.068-0.114 1.654a1.946 1.946 0 0 1-1.15 1.064l-41.626 15.162a1.972 1.972 0 0 1-0.672 0.118c-0.32 0-0.642-0.074-0.912-0.2a2.114 2.114 0 0 1-1.134-1.2l-8.06-22.14-0.062-0.172-0.07-0.168a12.51 12.51 0 0 0-0.412-0.878l-0.022-0.054-0.124-0.25-0.052-0.114a14.964 14.964 0 0 0-0.586-1.158l-0.042-0.076-0.044-0.074a16.304 16.304 0 0 0-0.968-1.442 16.948 16.948 0 0 0-0.798-1.064l-0.16-0.194-0.172-0.184a17.77 17.77 0 0 0-1.342-1.312l-0.064-0.058a15.184 15.184 0 0 0-0.858-0.752l-0.134-0.106-0.138-0.1a17.504 17.504 0 0 0-1.362-0.908 13.052 13.052 0 0 0-1.254-0.736 13.708 13.708 0 0 0-1.946-0.844v-0.002c-0.29-0.118-0.774-0.316-1.448-0.508a17.512 17.512 0 0 0-1.882-0.402l-0.118-0.018-0.056-0.008-0.102-0.016a13.784 13.784 0 0 0-2.442-0.2c-0.18 0-0.36 0.002-0.544 0.008a9.686 9.686 0 0 0-1.63 0.06 155.824 155.824 0 0 1-29.774 0 9.17 9.17 0 0 0-1.612-0.06 18.02 18.02 0 0 0-1.522 0.018l-0.056 0.002-0.056 0.004a13.084 13.084 0 0 0-1.79 0.254l-0.006 0.002c-0.38 0.06-1.004 0.156-1.732 0.364-0.686 0.19-1.226 0.408-1.588 0.554l-0.102 0.042-0.118 0.046c-0.326 0.126-0.864 0.33-1.488 0.658a15.392 15.392 0 0 0-1.022 0.584l-0.09 0.056-0.182 0.104-0.176 0.114-0.084 0.054c-0.33 0.21-0.814 0.52-1.358 0.962-0.478 0.376-0.864 0.73-1.176 1.014a14.802 14.802 0 0 0-2.308 2.622l-0.076 0.108-0.094 0.128-0.072 0.108c-0.164 0.23-0.46 0.644-0.764 1.186a16.674 16.674 0 0 0-0.766 1.52 9.5 9.5 0 0 0-0.614 1.402l-8.016 22.022c-0.196 0.538-0.58 0.944-1.066 1.174a2.38 2.38 0 0 1-0.99 0.232 1.888 1.888 0 0 1-0.672-0.122l-41.614-15.15a2.056 2.056 0 0 1-1.174-1.054c-0.184-0.402-0.354-1.018-0.112-1.682l8.06-22.14c0.206-0.568 0.322-1.054 0.392-1.386 0.122-0.402 0.288-0.976 0.41-1.662l0.036-0.2 0.026-0.2c0.03-0.24 0.054-0.482 0.076-0.722l0.024-0.234 0.032-0.25 0.016-0.248c0.03-0.484 0.056-0.97 0.056-1.456 0-0.79-0.086-1.426-0.138-1.808l-0.002-0.012a15.05 15.05 0 0 0-0.236-1.67l-0.036-0.184-0.046-0.182a19.58 19.58 0 0 0-0.43-1.444 20.386 20.386 0 0 0-0.504-1.43l-0.036-0.09-0.038-0.088a14.822 14.822 0 0 0-0.67-1.35l-0.046-0.082a19.906 19.906 0 0 0-0.83-1.424l-0.182-0.282-0.204-0.266a19.176 19.176 0 0 0-0.914-1.122 25.48 25.48 0 0 0-0.772-0.888l-0.226-0.246-0.244-0.226a17.066 17.066 0 0 0-0.9-0.766l-0.158-0.128-0.1-0.086a11.304 11.304 0 0 0-1.124-0.894 152.428 152.428 0 0 1-23.048-19.346 10.564 10.564 0 0 0-0.918-0.812 18.1 18.1 0 0 0-1.318-1.092l-0.046-0.034-0.046-0.034a12.49 12.49 0 0 0-1.324-0.832 17.792 17.792 0 0 0-1.656-0.898l-0.27-0.126-0.272-0.104a20.606 20.606 0 0 0-1.174-0.42l-0.136-0.046c-0.42-0.142-0.828-0.276-1.254-0.394l-0.458-0.128-0.47-0.072-0.336-0.054-0.388-0.062a18.53 18.53 0 0 0-2.618-0.226c-0.342 0-0.686 0.018-1.03 0.044a18.77 18.77 0 0 0-1.866 0.172l-0.064 0.01-0.064 0.01c-0.362 0.06-0.724 0.14-1.106 0.228l-0.118 0.028-0.118 0.028-0.118 0.03-0.18 0.046c-0.39 0.1-0.98 0.25-1.666 0.502l-0.056 0.02-0.056 0.022a15.192 15.192 0 0 0-1.15 0.51l-0.046 0.022c-0.258 0.104-0.732 0.294-1.282 0.59l-0.104 0.056-0.104 0.06-20.4 11.78a2.02 2.02 0 0 1-1.022 0.278c-0.196 0-0.4-0.028-0.536-0.064-0.612-0.168-1.062-0.498-1.352-1.006l-22.144-38.346a2.094 2.094 0 0 1-0.21-1.618c0.106-0.392 0.364-0.938 1.01-1.31l20.236-11.7c0.588-0.324 1.028-0.65 1.29-0.854l0.016-0.01c0.416-0.284 0.806-0.558 1.176-0.85l0.24-0.188 0.224-0.206c0.328-0.302 0.632-0.6 0.932-0.902l0.122-0.122 0.116-0.128 0.144-0.152c0.266-0.282 0.53-0.57 0.766-0.852l0.1-0.12 0.096-0.124c0.37-0.48 0.662-0.928 0.886-1.272 0.264-0.39 0.52-0.802 0.78-1.254l0.11-0.194 0.1-0.2c0.288-0.578 0.498-1.102 0.652-1.486 0.18-0.448 0.354-0.896 0.502-1.344l0.076-0.23 0.062-0.234c0.114-0.428 0.208-0.854 0.294-1.302 0.128-0.548 0.226-1.104 0.296-1.654l0.032-0.258 0.016-0.26c0.03-0.504 0.034-0.978 0.034-1.452 0-0.486-0.006-0.974-0.036-1.46l-0.012-0.19-0.02-0.19a14.446 14.446 0 0 0-0.256-1.526 10.464 10.464 0 0 0-0.296-1.508c-2.672-9.462-4.414-19.404-5.18-29.516a11.49 11.49 0 0 0-0.226-1.548l-0.006-0.048-0.024-0.126c-0.046-0.316-0.12-0.846-0.292-1.49l-0.026-0.098-0.028-0.098a21.994 21.994 0 0 0-0.5-1.488 17.288 17.288 0 0 0-0.57-1.426l-0.052-0.114-0.056-0.112a17.388 17.388 0 0 0-0.88-1.546l-0.046-0.078a14.166 14.166 0 0 0-0.886-1.336 15.614 15.614 0 0 0-1.05-1.238 13.896 13.896 0 0 0-1.224-1.242 12.592 12.592 0 0 0-0.98-0.814l-0.166-0.136-0.172-0.126-0.12-0.09c-0.312-0.23-0.762-0.566-1.348-0.914a12.276 12.276 0 0 0-1.108-0.608l-0.11-0.06-0.11-0.054a15.164 15.164 0 0 0-1.97-0.848 20.794 20.794 0 0 0-1.424-0.426l-0.192-0.052-0.016-0.004a10.592 10.592 0 0 0-1.294-0.302l-23.096-4.066a2.114 2.114 0 0 1-1.396-0.88 2.104 2.104 0 0 1-0.386-1.598l3.586-20.48h78.006a114.132 114.132 0 0 0-3.978 29.92c0 62.992 51.248 114.24 114.24 114.24 63.004 0 114.26-51.248 114.26-114.24a113.86 113.86 0 0 0-3.984-29.92h78.008m6.716-8h-95.74c4.6 12.04 7 24.9 7 37.92 0 58.58-47.66 106.24-106.26 106.24-58.58 0-106.24-47.66-106.24-106.24 0-13.02 2.4-25.88 6.98-37.92h-95.72l-4.78 27.1c-0.46 2.64 0.14 5.32 1.7 7.56a10.14 10.14 0 0 0 6.54 4.18l23.18 4.08c0.26 0.04 0.5 0.14 0.78 0.2 0.3 0.08 0.6 0.16 0.88 0.26 0.36 0.12 0.68 0.28 1 0.44 0.26 0.14 0.5 0.24 0.74 0.4 0.32 0.18 0.6 0.4 0.9 0.62 0.22 0.18 0.46 0.34 0.66 0.54 0.26 0.22 0.48 0.46 0.7 0.72 0.22 0.22 0.42 0.46 0.62 0.72 0.18 0.24 0.32 0.5 0.48 0.76 0.18 0.28 0.36 0.58 0.52 0.9 0.12 0.26 0.22 0.54 0.32 0.82 0.12 0.32 0.24 0.66 0.34 1 0.08 0.3 0.1 0.6 0.16 0.92 0.04 0.26 0.12 0.52 0.14 0.8 0.8 10.58 2.62 21.06 5.46 31.12 0.06 0.22 0.06 0.44 0.1 0.68 0.08 0.36 0.16 0.7 0.2 1.06 0.02 0.32 0.02 0.64 0.02 0.96 0 0.32 0 0.64-0.02 0.98-0.04 0.32-0.1 0.64-0.18 0.96-0.06 0.32-0.12 0.62-0.2 0.92-0.1 0.3-0.22 0.6-0.34 0.9-0.12 0.3-0.24 0.6-0.38 0.88-0.16 0.28-0.32 0.54-0.5 0.8-0.18 0.28-0.36 0.56-0.56 0.82-0.2 0.24-0.44 0.48-0.66 0.72-0.22 0.22-0.44 0.44-0.68 0.66-0.28 0.22-0.58 0.42-0.9 0.64-0.18 0.12-0.34 0.28-0.54 0.38l-20.34 11.76a10.146 10.146 0 0 0-3.72 13.86l22.14 38.34c1.34 2.34 3.54 4 6.16 4.72a10.36 10.36 0 0 0 2.658 0.35c1.758 0 3.478-0.458 5.022-1.35l20.4-11.78c0.26-0.14 0.52-0.22 0.78-0.34 0.26-0.12 0.52-0.26 0.78-0.36 0.38-0.14 0.74-0.22 1.12-0.32 0.26-0.06 0.5-0.12 0.74-0.16 0.4-0.06 0.8-0.08 1.2-0.1 0.17-0.014 0.34-0.028 0.51-0.028a10.84 10.84 0 0 1 1.37 0.128l0.76 0.12c0.36 0.1 0.7 0.22 1.06 0.34 0.26 0.08 0.52 0.18 0.78 0.28 0.34 0.16 0.66 0.34 0.98 0.54 0.24 0.14 0.48 0.26 0.7 0.42 0.32 0.24 0.62 0.5 0.92 0.78 0.14 0.12 0.32 0.24 0.46 0.38 7.4 7.56 15.54 14.4 24.2 20.3 0.2 0.14 0.34 0.3 0.52 0.44 0.28 0.24 0.58 0.46 0.84 0.7 0.22 0.24 0.42 0.48 0.62 0.72 0.22 0.24 0.42 0.5 0.62 0.76 0.18 0.28 0.34 0.56 0.5 0.86 0.14 0.26 0.3 0.54 0.42 0.82 0.12 0.3 0.22 0.6 0.32 0.92 0.1 0.3 0.2 0.6 0.28 0.92 0.06 0.3 0.1 0.62 0.12 0.92 0.04 0.34 0.1 0.66 0.1 1 0 0.32-0.02 0.64-0.04 0.96-0.04 0.32-0.06 0.64-0.1 0.96-0.06 0.34-0.18 0.7-0.28 1.04-0.06 0.22-0.08 0.44-0.16 0.66l-8.06 22.14c-0.92 2.52-0.78 5.28 0.36 7.76a10.104 10.104 0 0 0 5.68 5.22l41.64 15.16a9.932 9.932 0 0 0 3.408 0.604c1.468 0 2.94-0.324 4.332-0.964a10.112 10.112 0 0 0 5.24-5.7l8.06-22.14c0.06-0.2 0.18-0.36 0.26-0.54 0.16-0.36 0.32-0.72 0.52-1.06 0.14-0.26 0.32-0.48 0.48-0.72 0.2-0.28 0.4-0.58 0.64-0.84 0.2-0.24 0.42-0.44 0.66-0.66 0.24-0.22 0.48-0.44 0.74-0.64 0.24-0.2 0.5-0.36 0.78-0.54 0.28-0.16 0.54-0.34 0.82-0.48 0.3-0.16 0.6-0.26 0.9-0.38 0.3-0.12 0.58-0.24 0.88-0.32 0.34-0.1 0.68-0.14 1.04-0.2 0.28-0.06 0.56-0.12 0.86-0.14a10.65 10.65 0 0 1 1.12 0c0.146 0 0.294-0.018 0.44-0.018a163.372 163.372 0 0 0 31.86 0.018 1.202 1.202 0 0 1 0.226-0.018c0.152 0 0.308 0.018 0.454 0.018a10.636 10.636 0 0 1 1.1 0c0.3 0.02 0.58 0.08 0.86 0.12 0.36 0.06 0.7 0.12 1.06 0.22 0.28 0.08 0.54 0.2 0.8 0.3 0.34 0.12 0.68 0.24 1 0.42 0.24 0.12 0.48 0.26 0.7 0.42 0.32 0.18 0.62 0.38 0.92 0.6 0.2 0.16 0.4 0.36 0.6 0.54 0.28 0.24 0.54 0.5 0.8 0.78 0.18 0.22 0.34 0.44 0.5 0.68 0.22 0.28 0.42 0.58 0.6 0.88 0.16 0.28 0.28 0.58 0.42 0.86 0.1 0.24 0.24 0.46 0.34 0.7l8.06 22.14a10.112 10.112 0 0 0 5.24 5.7c1.38 0.64 2.852 0.964 4.324 0.964 1.154 0 2.308-0.2 3.416-0.604l41.62-15.16a9.95 9.95 0 0 0 5.68-5.24c1.16-2.46 1.28-5.22 0.36-7.74l-8.04-22.14c-0.08-0.2-0.1-0.42-0.16-0.62a7.396 7.396 0 0 1-0.38-2.02c-0.02-0.32-0.06-0.66-0.04-1 0-0.32 0.04-0.64 0.08-0.96 0.04-0.32 0.08-0.62 0.14-0.94 0.08-0.32 0.18-0.62 0.28-0.92 0.1-0.32 0.18-0.62 0.32-0.9 0.12-0.3 0.28-0.58 0.42-0.86 0.16-0.28 0.32-0.56 0.5-0.84 0.18-0.26 0.4-0.52 0.62-0.78a7.452 7.452 0 0 1 1.48-1.4c0.16-0.14 0.3-0.3 0.5-0.42a161.48 161.48 0 0 0 24.2-20.32c0.16-0.18 0.36-0.3 0.54-0.46 0.26-0.24 0.52-0.46 0.8-0.68 0.28-0.18 0.56-0.34 0.86-0.52 0.26-0.14 0.52-0.3 0.8-0.44 0.32-0.14 0.66-0.24 0.98-0.36 0.28-0.1 0.56-0.18 0.84-0.26 0.34-0.08 0.68-0.12 1.02-0.16 0.3-0.04 0.58-0.1 0.9-0.1 0.094-0.006 0.188-0.008 0.282-0.008 0.228 0 0.458 0.014 0.698 0.028 0.32 0.02 0.62 0.04 0.94 0.08 0.34 0.06 0.66 0.14 1 0.22 0.28 0.08 0.58 0.16 0.86 0.26 0.36 0.12 0.7 0.28 1.02 0.46 0.2 0.1 0.42 0.16 0.6 0.26l20.4 11.78a10.142 10.142 0 0 0 7.7 1c2.62-0.72 4.8-2.38 6.14-4.7l22.16-38.36c1.34-2.34 1.68-5.06 0.98-7.68a10.12 10.12 0 0 0-4.7-6.18l-20.36-11.76c-0.2-0.1-0.36-0.26-0.54-0.38-0.3-0.22-0.62-0.42-0.88-0.64s-0.48-0.44-0.7-0.66c-0.22-0.24-0.44-0.46-0.66-0.72-0.2-0.26-0.38-0.54-0.56-0.82-0.18-0.26-0.34-0.52-0.48-0.78-0.16-0.3-0.28-0.6-0.4-0.9-0.12-0.3-0.24-0.58-0.34-0.9-0.08-0.3-0.14-0.6-0.2-0.92-0.06-0.32-0.14-0.64-0.16-0.96-0.04-0.32-0.04-0.66-0.04-1 0-0.3 0-0.6 0.04-0.92 0.02-0.36 0.1-0.72 0.18-1.1 0.04-0.2 0.06-0.42 0.12-0.64 2.82-10.12 4.66-20.6 5.44-31.14 0.02-0.24 0.1-0.46 0.12-0.7 0.06-0.36 0.1-0.7 0.2-1.04 0.08-0.34 0.2-0.64 0.3-0.96 0.12-0.28 0.22-0.56 0.34-0.84 0.16-0.34 0.36-0.64 0.54-0.96 0.14-0.22 0.28-0.46 0.44-0.68 0.22-0.3 0.48-0.58 0.74-0.86 0.18-0.18 0.34-0.38 0.54-0.56 0.26-0.26 0.56-0.48 0.88-0.7 0.22-0.16 0.42-0.32 0.64-0.46 0.34-0.2 0.66-0.36 1.02-0.52 0.24-0.12 0.48-0.24 0.74-0.34 0.36-0.14 0.72-0.22 1.1-0.3 0.22-0.06 0.42-0.14 0.64-0.18l23.2-4.08c5.5-0.98 9.18-6.26 8.22-11.76L708.44 408z" opacity=".2" p-id="61844"></path><path d="M165.82 724.36c0.72 0.14 1.46 0.2 2.22 0.2h15.56c7.8 0 14.14-6.34 14.14-14.14v-165.1c0-7.8-6.34-14.14-14.14-14.14h-15.56c-0.76 0-1.5 0.06-2.22 0.2a14.12 14.12 0 0 1 11.92 13.94v165.1a14.12 14.12 0 0 1-11.92 13.94zM94.42 627.88c0 28.78 15.4 55.22 39.48 69.74v-12.32c-14.9-14.94-23.82-35.5-23.82-57.42s8.92-42.48 23.82-57.46v-12.32c-24.08 14.54-39.48 41-39.48 69.78z" fill="#23130D" opacity=".2" p-id="61845"></path><path d="M615.66 897.36a7.908 7.908 0 1 1-15.82 0c0-1.68 0.52-3.24 1.42-4.5 2.74-1.32 5.62-2.38 8.62-3.12h0.02c3.32 0.94 5.76 3.98 5.76 7.62zM641.66 897.36a7.908 7.908 0 1 1-15.82 0c0-3.64 2.44-6.7 5.78-7.62 3 0.74 5.9 1.8 8.64 3.12 0.88 1.26 1.4 2.82 1.4 4.5zM589.66 921.26c0 4.36-3.54 7.9-7.9 7.9-2.1 0-3.96-0.8-5.38-2.12 0.64-4.82 2.08-9.4 4.16-13.6 0.4-0.06 0.8-0.1 1.22-0.1 4.36 0 7.9 3.54 7.9 7.92z" opacity=".2" p-id="61846"></path><path d="M607.75 921.254m-7.914 0a7.914 7.914 0 1 0 15.828 0 7.914 7.914 0 1 0-15.828 0Z" opacity=".2" p-id="61847"></path><path d="M633.75 921.254m-7.914 0a7.914 7.914 0 1 0 15.828 0 7.914 7.914 0 1 0-15.828 0Z" opacity=".2" p-id="61848"></path><path d="M665.12 927.04c-1.4 1.32-3.28 2.12-5.36 2.12a7.908 7.908 0 1 1 1.2-15.72c2.08 4.2 3.52 8.78 4.16 13.6zM589.66 945.14c0 4.38-3.54 7.92-7.9 7.92-0.42 0-0.82-0.04-1.22-0.1-2.08-4.2-3.52-8.78-4.16-13.6a7.82 7.82 0 0 1 5.38-2.12c4.36 0 7.9 3.54 7.9 7.9z" opacity=".2" p-id="61849"></path><path d="M607.75 945.146m-7.914 0a7.914 7.914 0 1 0 15.828 0 7.914 7.914 0 1 0-15.828 0Z" opacity=".2" p-id="61850"></path><path d="M633.75 945.146m-7.914 0a7.914 7.914 0 1 0 15.828 0 7.914 7.914 0 1 0-15.828 0Z" opacity=".2" p-id="61851"></path><path d="M665.12 939.36c-0.64 4.82-2.08 9.4-4.16 13.6-0.38 0.06-0.8 0.1-1.2 0.1a7.912 7.912 0 1 1 0-15.82c2.08 0 3.96 0.8 5.36 2.12zM615.66 969.04c0 3.64-2.44 6.68-5.76 7.62h-0.02c-3-0.74-5.88-1.8-8.62-3.12a7.72 7.72 0 0 1-1.42-4.5 7.912 7.912 0 1 1 15.82 0zM641.66 969.04c0 1.68-0.52 3.24-1.4 4.5-2.74 1.32-5.64 2.38-8.64 3.12a7.89 7.89 0 0 1-5.78-7.62 7.912 7.912 0 1 1 15.82 0z" opacity=".2" p-id="61852"></path></svg>