<?xml version="1.0" standalone="no"?><!DOCTYPE svg PUBLIC "-//W3C//DTD SVG 1.1//EN" "http://www.w3.org/Graphics/SVG/1.1/DTD/svg11.dtd"><svg t="1625811825034" class="icon" viewBox="0 0 1024 1024" version="1.1" xmlns="http://www.w3.org/2000/svg" p-id="39847" xmlns:xlink="http://www.w3.org/1999/xlink" width="200" height="200"><defs><style type="text/css"></style></defs><path d="M917.62 679.34V181.16c0-66.26-53.9-120.18-120.18-120.18-66.26 0-120.18 53.92-120.18 120.18v74.08C609.6 187.86 519.8 150.38 424.52 149.7c-1.96-0.06-4.06-0.06-5.62-0.02-95.76 0.7-185.8 38.38-253.52 106.1-68.44 68.4-106.14 159.4-106.14 256.22s37.7 187.8 106.14 256.2c68.42 68.46 159.42 106.14 256.22 106.14 74.82 0 148.26-23.44 208.98-66.34 2.32 32.32 13.78 62.8 33.54 88.8 21.5 28.34 52.04 49.44 85.98 59.42 15.26 4.52 31.18 6.8 47.34 6.8 12.12 0 24.12-1.28 35.78-3.84 0.52-0.1 1.02-0.24 1.52-0.36 1.44-0.32 2.88-0.64 4.3-1.02 0.68-0.18 1.36-0.38 2.06-0.56 1.22-0.34 2.46-0.66 3.68-1.02h0.02c16.96-5 33.08-12.78 47.64-22.84a168.414 168.414 0 0 0 38.32-36.58c22.24-29.28 34-64.22 34-101.08 0-43.9-16.7-85.04-47.14-116.38zM179.52 269.92c43.32-43.32 96.3-73.6 154.14-88.86-24.08 18.2-46.12 44.04-65.1 76.78-38.06 65.68-59.62 152.06-61.08 244.16H79.4c2.5-87.72 37.82-169.82 100.12-232.08z m0 484.14C117.22 691.8 81.9 609.72 79.4 522h128.08c1.46 92.12 23.02 178.48 61.08 244.16 19 32.78 41.08 58.64 65.2 76.84-57.84-15.24-110.84-45.52-154.24-88.94z m232.08 99.82c-47.12-4.26-91.46-38.6-125.74-97.76-36.34-62.68-56.92-145.5-58.36-234.12h184.1v331.88z m0-351.88h-184.1c1.44-88.62 22.02-171.42 58.36-234.12 34.28-59.16 78.62-93.5 125.74-97.76V502z m252.06-232.08c4.72 4.72 9.26 9.54 13.6 14.4V502h-41.56c-1.46-92.1-23-178.48-61.06-244.16-19-32.76-41.06-58.6-65.16-76.82 57.82 15.26 110.84 45.56 154.18 88.9zM431.6 170.12c47.12 4.28 91.44 38.6 125.72 97.76 36.34 62.7 56.94 145.5 58.38 234.12H431.6V170.12z m0 351.88h184.1c-1.44 88.62-22.04 171.44-58.38 234.12-34.28 59.16-78.6 93.48-125.72 97.74V522z m78.2 320.72c23.98-18.18 45.92-43.94 64.84-76.56 38.06-65.68 59.6-152.04 61.06-244.16h41.56v157.34c-27.5 28.3-43.74 64.64-46.62 103.76-35.92 27.76-77.16 47.98-120.84 59.62z m329.3 94.32c-6.4 1.9-12.94 3.34-19.58 4.34-7.26 1.08-14.64 1.64-22.08 1.64-14.22 0-28.26-2-41.66-5.98h-0.02c-31.1-9.16-57.52-28.26-76.14-53.18-18.64-24.94-29.5-55.7-29.5-88.14 0-39.9 15.68-77.22 44.14-105.12 1.92-1.88 3-4.44 3-7.14v-171.44-0.02V181.16c0-55.24 44.94-100.18 100.18-100.18 55.24 0 100.18 44.94 100.18 100.18v34.4h-18.74c-5.52 0-10 4.48-10 10 0 5.54 4.48 10 10 10h18.74v20.22h-18.74c-5.52 0-10 4.46-10 10 0 5.52 4.48 10 10 10h18.74v20.2h-18.74c-5.52 0-10 4.48-10 10s4.48 10 10 10h18.74v20.2h-18.74c-5.52 0-10 4.48-10 10s4.48 10 10 10h18.74v20.2h-18.74c-5.52 0-10 4.48-10 10s4.48 10 10 10h18.74v20.2h-18.74c-5.52 0-10 4.48-10 10s4.48 10 10 10h18.74v20.2h-18.74c-5.52 0-10 4.48-10 10s4.48 10 10 10h18.74v20.2h-18.74c-5.52 0-10 4.48-10 10s4.48 10 10 10h18.74v20.2h-18.74c-5.52 0-10 4.48-10 10 0 5.54 4.48 10 10 10h18.74v20.22h-18.74c-5.52 0-10 4.46-10 10 0 5.52 4.48 10 10 10h18.74v20.2h-18.74c-5.52 0-10 4.48-10 10s4.48 10 10 10h18.74v45.86c0 2.7 1.08 5.26 3 7.14 28.46 27.9 44.14 65.22 44.14 105.12 0 64.9-43.44 123.02-105.66 141.32z" fill="#23130D" p-id="39848"></path><path d="M900.62 690.6c-1.92-1.88-3-4.44-3-7.14V637.6h-18.74c-5.52 0-10-4.48-10-10s4.48-10 10-10h18.74v-20.2h-18.74c-5.52 0-10-4.48-10-10 0-5.54 4.48-10 10-10h18.74v-20.22h-18.74c-5.52 0-10-4.46-10-10 0-5.52 4.48-10 10-10h18.74v-20.2h-18.74c-5.52 0-10-4.48-10-10s4.48-10 10-10h18.74v-20.2h-18.74c-5.52 0-10-4.48-10-10s4.48-10 10-10h18.74v-20.2h-18.74c-5.52 0-10-4.48-10-10s4.48-10 10-10h18.74v-20.2h-18.74c-5.52 0-10-4.48-10-10s4.48-10 10-10h18.74v-20.2h-18.74c-5.52 0-10-4.48-10-10s4.48-10 10-10h18.74v-20.2h-18.74c-5.52 0-10-4.48-10-10s4.48-10 10-10h18.74v-20.2h-18.74c-5.52 0-10-4.48-10-10 0-5.54 4.48-10 10-10h18.74v-20.22h-18.74c-5.52 0-10-4.46-10-10 0-5.52 4.48-10 10-10h18.74v-34.4c0-55.24-44.94-100.18-100.18-100.18-55.24 0-100.18 44.94-100.18 100.18V683.46c0 2.7-1.08 5.26-3 7.14-28.46 27.9-44.14 65.22-44.14 105.12 0 32.44 10.86 63.2 29.5 88.14 18.62 24.92 45.04 44.02 76.14 53.18h0.02c13.4 3.98 27.44 5.98 41.66 5.98 7.44 0 14.82-0.56 22.08-1.64 6.64-1 13.18-2.44 19.58-4.34 62.22-18.3 105.66-76.42 105.66-141.32 0-39.9-15.68-77.22-44.14-105.12z m-103.18 208.86c-56.68 0-102.78-46.12-102.78-102.8a102.84 102.84 0 0 1 48.28-87.18V399.58c0-2.64 0.28-5.22 0.82-7.7 0.04-0.24 0.12-0.48 0.18-0.72 3.82-16.16 18.34-28.24 35.64-28.24h35.72c20.2 0 36.64 16.44 36.64 36.66v309.9a102.858 102.858 0 0 1 48.3 87.18c0 56.68-46.12 102.8-102.8 102.8z" fill="#E1E1E5" p-id="39849"></path><path d="M782.9 937.04c-31.1-9.16-57.52-28.26-76.14-53.18-18.64-24.94-29.5-55.7-29.5-88.14 0-39.9 15.68-77.22 44.14-105.12 1.92-1.88 3-4.44 3-7.14v-171.44-0.02V181.16c0-50.64 37.76-92.62 86.62-99.26-4.44-0.6-8.98-0.92-13.58-0.92-55.24 0-100.18 44.94-100.18 100.18V683.46c0 2.7-1.08 5.26-3 7.14-28.46 27.9-44.14 65.22-44.14 105.12 0 32.44 10.86 63.2 29.5 88.14 18.62 24.92 45.04 44.02 76.14 53.18h0.02c13.4 3.98 27.44 5.98 41.66 5.98 4.54 0 9.06-0.2 13.54-0.62-9.56-0.86-18.96-2.66-28.06-5.36h-0.02z" opacity=".4" p-id="39850"></path><path d="M677.26 522v157.34c-20.78 21.38-35.12 47.34-42.12 75.62-2.3 9.16-3.8 18.56-4.5 28.14-35.76 27.64-76.8 47.8-120.26 59.46-0.2 0.06-0.38 0.1-0.58 0.16 23.98-18.18 45.92-43.94 64.84-76.56 38.06-65.68 59.6-152.04 61.06-244.16h41.56zM677.26 284.32V502h-41.56c-1.46-92.1-23-178.48-61.06-244.16-19-32.76-41.06-58.6-65.16-76.82 0.2 0.06 0.38 0.1 0.58 0.16 57.6 15.3 110.4 45.54 153.6 88.74 4.72 4.72 9.26 9.54 13.6 14.4zM333.76 843c-57.84-15.24-110.84-45.52-154.24-88.94C117.22 691.8 81.9 609.72 79.4 522h128.08c1.46 92.12 23.02 178.48 61.08 244.16 19 32.78 41.08 58.64 65.2 76.84zM333.66 181.06c-24.08 18.2-46.12 44.04-65.1 76.78-38.06 65.68-59.62 152.06-61.08 244.16H79.4c2.5-87.72 37.82-169.82 100.12-232.08 43.32-43.32 96.3-73.6 154.14-88.86z" fill="#3594BF" p-id="39851"></path><path d="M333.71 843c-57.84-15.24-110.84-45.52-154.24-88.94-62.3-62.26-97.62-144.34-100.12-232.06h28c2.5 87.72 37.82 169.8 100.12 232.06 31.44 31.46 67.92 56.02 107.62 72.96 6.04 5.86 12.26 11.18 18.62 15.98zM333.61 181.06c-6.36 4.82-12.6 10.16-18.66 16.02-39.68 16.94-76.12 41.48-107.48 72.84-62.3 62.26-97.62 144.36-100.12 232.08h-28c2.5-87.72 37.82-169.82 100.12-232.08 43.32-43.32 96.3-73.6 154.14-88.86z" fill="#FFFFFF" opacity=".4" p-id="39852"></path><path d="M411.6 522v331.88c-47.12-4.26-91.46-38.6-125.74-97.76-36.34-62.68-56.92-145.5-58.36-234.12h184.1zM615.7 522c-1.44 88.62-22.04 171.44-58.38 234.12-34.28 59.16-78.6 93.48-125.72 97.74V522h184.1zM615.7 502H431.6V170.12c47.12 4.28 91.44 38.6 125.72 97.76 36.34 62.7 56.94 145.5 58.38 234.12zM411.6 170.12V502h-184.1c1.44-88.62 22.02-171.42 58.36-234.12 34.28-59.16 78.62-93.5 125.74-97.76z" fill="#3594BF" p-id="39853"></path><path d="M411.6 846.22v7.66c-47.12-4.26-91.46-38.6-125.74-97.76-36.34-62.68-56.92-145.5-58.36-234.12h32c1.44 88.62 22.02 171.44 58.36 234.12 26.4 45.54 58.74 76.38 93.74 90.1zM411.6 170.12v7.66c-35 13.72-67.34 44.56-93.74 90.1-36.34 62.7-56.92 145.5-58.36 234.12h-32c1.44-88.62 22.02-171.42 58.36-234.12 34.28-59.16 78.62-93.5 125.74-97.76z" fill="#FFFFFF" opacity=".4" p-id="39854"></path><path d="M431.6 846.22v7.66c47.12-4.26 91.46-38.6 125.74-97.76 36.34-62.68 56.92-145.5 58.36-234.12h-32c-1.44 88.62-22.02 171.44-58.36 234.12-26.4 45.54-58.74 76.38-93.74 90.1zM431.6 170.12v7.66c35 13.72 67.34 44.56 93.74 90.1 36.34 62.7 56.92 145.5 58.36 234.12h32c-1.44-88.62-22.02-171.42-58.36-234.12-34.28-59.16-78.62-93.5-125.74-97.76z" opacity=".4" p-id="39855"></path><path d="M851.94 709.48V399.58c0-20.22-16.44-36.66-36.64-36.66h-35.72c-17.3 0-31.82 12.08-35.64 28.24-0.06 0.24-0.14 0.48-0.18 0.72-0.54 2.48-0.82 5.06-0.82 7.7v309.9a102.84 102.84 0 0 0-48.28 87.18c0 56.68 46.1 102.8 102.78 102.8s102.8-46.12 102.8-102.8c0-35.56-18.36-68.44-48.3-87.18z m-54.5 169.98c-45.64 0-82.78-37.14-82.78-82.8a82.82 82.82 0 0 1 43.08-72.68c0.12-0.08 0.22-0.18 0.34-0.24 0.32-0.2 0.62-0.4 0.9-0.62 0.24-0.2 0.48-0.38 0.7-0.58 0.26-0.24 0.48-0.48 0.7-0.72 0.2-0.24 0.42-0.48 0.6-0.72 0.2-0.28 0.36-0.56 0.54-0.84 0.16-0.26 0.3-0.52 0.44-0.8 0.14-0.32 0.26-0.62 0.36-0.94 0.12-0.3 0.2-0.6 0.28-0.9 0.08-0.3 0.14-0.62 0.18-0.94 0.06-0.34 0.1-0.68 0.1-1.04 0.02-0.14 0.06-0.28 0.06-0.44V399.58c0-9.18 7.46-16.66 16.64-16.66h35.72c9.18 0 16.64 7.48 16.64 16.66V715.2c0 0.14 0.04 0.28 0.06 0.42 0 0.36 0.04 0.72 0.1 1.08 0.04 0.3 0.1 0.62 0.18 0.92 0.08 0.3 0.18 0.62 0.28 0.92 0.12 0.3 0.22 0.6 0.36 0.9 0.14 0.28 0.3 0.56 0.46 0.84s0.32 0.54 0.52 0.8c0.18 0.26 0.4 0.52 0.62 0.76s0.42 0.46 0.66 0.68c0.24 0.22 0.48 0.42 0.74 0.6 0.28 0.22 0.56 0.42 0.86 0.6 0.12 0.08 0.24 0.18 0.36 0.26a82.838 82.838 0 0 1 43.1 72.68c0 45.66-37.14 82.8-82.8 82.8z" fill="#23130D" p-id="39856"></path><path d="M880.24 796.66c0 45.66-37.14 82.8-82.8 82.8-45.64 0-82.78-37.14-82.78-82.8a82.82 82.82 0 0 1 43.08-72.68c0.12-0.08 0.22-0.18 0.34-0.24 0.32-0.2 0.62-0.4 0.9-0.62 0.24-0.2 0.48-0.38 0.7-0.58 0.26-0.24 0.48-0.48 0.7-0.72 0.2-0.24 0.42-0.48 0.6-0.72 0.2-0.28 0.36-0.56 0.54-0.84 0.16-0.26 0.3-0.52 0.44-0.8 0.14-0.32 0.26-0.62 0.36-0.94 0.12-0.3 0.2-0.6 0.28-0.9 0.08-0.3 0.14-0.62 0.18-0.94 0.06-0.34 0.1-0.68 0.1-1.04 0.02-0.14 0.06-0.28 0.06-0.44V399.58c0-9.18 7.46-16.66 16.64-16.66h35.72c9.18 0 16.64 7.48 16.64 16.66V715.2c0 0.14 0.04 0.28 0.06 0.42 0 0.36 0.04 0.72 0.1 1.08 0.04 0.3 0.1 0.62 0.18 0.92 0.08 0.3 0.18 0.62 0.28 0.92 0.12 0.3 0.22 0.6 0.36 0.9 0.14 0.28 0.3 0.56 0.46 0.84s0.32 0.54 0.52 0.8c0.18 0.26 0.4 0.52 0.62 0.76s0.42 0.46 0.66 0.68c0.24 0.22 0.48 0.42 0.74 0.6 0.28 0.22 0.56 0.42 0.86 0.6 0.12 0.08 0.24 0.18 0.36 0.26a82.838 82.838 0 0 1 43.1 72.68z" fill="#EC7063" p-id="39857"></path><path d="M808.78 878.68c-3.7 0.52-7.5 0.78-11.34 0.78-45.64 0-82.78-37.14-82.78-82.8a82.82 82.82 0 0 1 43.08-72.68c0.12-0.08 0.22-0.18 0.34-0.24 0.32-0.2 0.62-0.4 0.9-0.62 0.24-0.2 0.48-0.38 0.7-0.58 0.26-0.24 0.48-0.48 0.7-0.72 0.2-0.24 0.42-0.48 0.6-0.72 0.2-0.28 0.36-0.56 0.54-0.84 0.16-0.26 0.3-0.52 0.44-0.8 0.14-0.32 0.26-0.62 0.36-0.94 0.12-0.3 0.2-0.6 0.28-0.9 0.08-0.3 0.14-0.62 0.18-0.94 0.06-0.34 0.1-0.68 0.1-1.04 0.02-0.14 0.06-0.28 0.06-0.44V399.58c0-9.18 7.46-16.66 16.64-16.66h22.66c-9.18 0-16.64 7.48-16.64 16.66V715.2c0 0.16-0.04 0.3-0.06 0.44 0 0.36-0.04 0.7-0.1 1.04-0.04 0.32-0.1 0.64-0.18 0.94s-0.16 0.6-0.28 0.9c-0.1 0.32-0.22 0.62-0.36 0.94-0.14 0.28-0.28 0.54-0.44 0.8-0.18 0.28-0.34 0.56-0.54 0.84-0.18 0.24-0.4 0.48-0.6 0.72-0.22 0.24-0.44 0.48-0.7 0.72-0.22 0.2-0.46 0.38-0.7 0.58-0.28 0.22-0.58 0.42-0.9 0.62-0.12 0.06-0.22 0.16-0.34 0.24a82.82 82.82 0 0 0-43.08 72.68c0 41.82 31.16 76.5 71.46 82.02z" opacity=".4" p-id="39858"></path><path d="M880.24 796.66c0 45.66-37.14 82.8-82.8 82.8-3.84 0-7.62-0.26-11.32-0.78 40.32-5.54 71.46-40.2 71.46-82.02 0-30.28-16.52-58.14-43.1-72.68-0.12-0.08-0.24-0.18-0.36-0.26-0.3-0.18-0.58-0.38-0.86-0.6-0.26-0.18-0.5-0.38-0.74-0.6-0.24-0.22-0.44-0.44-0.66-0.68s-0.44-0.5-0.62-0.76c-0.2-0.26-0.36-0.52-0.52-0.8s-0.32-0.56-0.46-0.84c-0.14-0.3-0.24-0.6-0.36-0.9-0.1-0.3-0.2-0.62-0.28-0.92-0.08-0.3-0.14-0.62-0.18-0.92-0.06-0.36-0.1-0.72-0.1-1.08-0.02-0.14-0.06-0.28-0.06-0.42V399.58c0-9.18-7.46-16.66-16.64-16.66h22.66c9.18 0 16.64 7.48 16.64 16.66V715.2c0 0.14 0.04 0.28 0.06 0.42 0 0.36 0.04 0.72 0.1 1.08 0.04 0.3 0.1 0.62 0.18 0.92 0.08 0.3 0.18 0.62 0.28 0.92 0.12 0.3 0.22 0.6 0.36 0.9 0.14 0.28 0.3 0.56 0.46 0.84 0.16 0.28 0.32 0.54 0.52 0.8 0.18 0.26 0.4 0.52 0.62 0.76 0.22 0.24 0.42 0.46 0.66 0.68s0.48 0.42 0.74 0.6c0.28 0.22 0.56 0.42 0.86 0.6 0.12 0.08 0.24 0.18 0.36 0.26a82.838 82.838 0 0 1 43.1 72.68z" fill="#FFFFFF" opacity=".4" p-id="39859"></path><path d="M635.14 754.96c-2.3 9.16-3.8 18.56-4.5 28.14-35.76 27.64-76.8 47.8-120.26 59.46 6.16-4.68 12.18-9.86 18.04-15.54 39.32-16.78 75.48-41.04 106.72-72.06zM677.26 284.32v35.28a343.766 343.766 0 0 0-41.22-49.68c-31.36-31.36-67.8-55.9-107.48-72.84-6-5.82-12.2-11.12-18.5-15.9 57.6 15.3 110.4 45.54 153.6 88.74 4.72 4.72 9.26 9.54 13.6 14.4z" opacity=".4" p-id="39860"></path></svg>