<?xml version="1.0" standalone="no"?><!DOCTYPE svg PUBLIC "-//W3C//DTD SVG 1.1//EN" "http://www.w3.org/Graphics/SVG/1.1/DTD/svg11.dtd"><svg t="1625811939971" class="icon" viewBox="0 0 1024 1024" version="1.1" xmlns="http://www.w3.org/2000/svg" p-id="45302" xmlns:xlink="http://www.w3.org/1999/xlink" width="200" height="200"><defs><style type="text/css"></style></defs><path d="M990.52 511.92c-0.02-52.26-13.98-101.3-38.38-143.62-0.1-0.2-0.16-0.4-0.28-0.6-0.14-0.24-0.32-0.44-0.48-0.68a290.812 290.812 0 0 0-104.48-104.48c-0.22-0.16-0.42-0.34-0.66-0.48-0.2-0.12-0.42-0.18-0.62-0.28-42.32-24.4-91.38-38.38-143.64-38.38h-0.12c-52.26 0-101.32 13.98-143.66 38.4-0.18 0.1-0.4 0.16-0.58 0.26-0.24 0.14-0.42 0.32-0.64 0.46a289.524 289.524 0 0 0-47.36 34.5c-51.5-45.5-117.28-70.84-186.3-71.58h-0.1c-0.24-0.02-0.46-0.02-0.6-0.02-0.74-0.02-1.48 0-2.22 0-0.1 0-0.2-0.04-0.28-0.04-0.1 0-0.2 0.04-0.3 0.04-0.74 0-1.48-0.02-2.22 0-0.2 0-0.42 0-0.66 0.02-75.38 0.8-146.22 30.58-199.52 83.9-54.14 54.12-83.96 126.1-83.96 202.68 0 76.58 29.82 148.56 83.96 202.66 54.16 54.16 126.14 83.98 202.7 83.98 70.16 0 137.08-25.38 189.5-71.66 14.56 13.02 30.42 24.6 47.38 34.5 0.22 0.14 0.4 0.3 0.62 0.44 0.26 0.16 0.54 0.28 0.82 0.4 42.26 24.32 91.24 38.24 143.42 38.26h0.14c52.14-0.02 101.1-13.92 143.36-38.22 0.28-0.14 0.58-0.28 0.88-0.44 0.22-0.14 0.42-0.32 0.64-0.46a290.734 290.734 0 0 0 104.26-104.1c0.26-0.34 0.5-0.7 0.72-1.08 0.12-0.2 0.18-0.4 0.28-0.6 24.4-42.32 38.36-91.36 38.38-143.62 0-0.02 0.02-0.04 0.02-0.08s-0.02-0.06-0.02-0.08zM131.56 323.48c31.24-31.24 68.94-53.78 110.1-66.38-16.38 14.2-31.38 32.94-44.48 55.88-29.2 51.16-45.82 117.96-47.26 189.04H53.66c2.48-67.48 29.9-130.54 77.9-178.54z m0 377.06c-48-47.98-75.42-111.04-77.9-178.52h96.26c1.46 71.88 18.4 139.24 48.18 190.62 12.9 22.26 27.6 40.48 43.58 54.36-41.14-12.62-78.82-35.16-110.12-66.46z m178.56 77.5c-35.42-4.2-68.74-30.6-94.72-75.44-28.06-48.38-44.04-112.2-45.48-180.58h140.2v256.02z m0-276.02H169.9c2.88-135.7 64.02-247.02 140.22-256.04v256.04z m185-191.12a292.594 292.594 0 0 0-33.4 41.3c-13.44-33.86-31.1-62.68-51.68-84.12a173.84 173.84 0 0 0-11.58-10.96c35.4 10.84 68.32 29.06 96.66 53.78z m-165-64.86c48.18 5.84 92.8 53.88 118.38 127.98-20.92 38.28-33.4 81.78-34.98 128h-83.4V246.04z m0 532V522.02h83.4c1.58 46.2 14.06 89.7 34.98 127.96-25.62 74.36-70.12 122.22-118.38 128.06z m67.88-10.96c25.46-21.92 47.52-54.48 63.74-95.28 9.86 14.8 21.06 28.62 33.4 41.3-28.52 24.88-61.58 43.14-97.14 53.98zM932.76 522h37.56c-1.54 41.6-12.56 80.8-30.98 115.52l-32.52-18.76c-4.78-2.78-10.9-1.12-13.66 3.66a10.004 10.004 0 0 0 3.66 13.66l32.48 18.74a270.796 270.796 0 0 1-84.54 84.56L826 706.9a10.004 10.004 0 0 0-13.66-3.66 10.004 10.004 0 0 0-3.66 13.66l18.76 32.5c-34.7 18.44-73.92 29.46-115.52 31v-37.56c0-5.54-4.48-10-10-10s-10 4.46-10 10v37.56c-41.6-1.54-80.8-12.56-115.52-31l18.76-32.5c2.78-4.78 1.14-10.9-3.66-13.66a10.004 10.004 0 0 0-13.66 3.66l-18.74 32.48a270.65 270.65 0 0 1-84.56-84.56l32.48-18.74a10.004 10.004 0 0 0 3.66-13.66 9.986 9.986 0 0 0-13.66-3.66l-32.5 18.76c-18.44-34.72-29.46-73.92-31-115.52h37.58c5.52 0 10-4.48 10-10s-4.48-10-10-10h-37.58c1.54-41.6 12.56-80.8 31-115.52l32.5 18.76c1.58 0.92 3.3 1.34 5 1.34 3.44 0 6.82-1.78 8.66-5 2.76-4.78 1.12-10.9-3.66-13.66l-32.48-18.74a270.86 270.86 0 0 1 84.56-84.56l18.74 32.48c1.86 3.2 5.22 5 8.68 5 1.7 0 3.42-0.44 4.98-1.34a9.968 9.968 0 0 0 3.66-13.66l-18.76-32.5c34.72-18.44 73.92-29.46 115.52-31v37.58c0 5.52 4.48 10 10 10s10-4.48 10-10V243.6c41.6 1.54 80.82 12.56 115.52 31l-18.76 32.5a10.004 10.004 0 0 0 8.66 15 10 10 0 0 0 8.66-5l18.74-32.48a270.65 270.65 0 0 1 84.56 84.56l-32.46 18.74a9.992 9.992 0 0 0 5 18.66c1.7 0 3.42-0.42 5-1.34l32.5-18.76c18.42 34.72 29.44 73.92 30.98 115.52h-37.56c-5.52 0-10 4.48-10 10s4.48 10 10 10z" fill="#23130D" p-id="45303"></path><path d="M495.12 310.9c-3.78 3.88-7.46 7.88-10.98 11.98-8.08 9.28-15.56 19.06-22.42 29.32-13.44-33.86-31.1-62.68-51.68-84.12a173.84 173.84 0 0 0-11.58-10.96c0.1 0.04 0.22 0.06 0.32 0.1 35.28 10.84 68.08 29.04 96.34 53.68zM495.14 713.1c-28.34 24.72-61.16 42.92-96.48 53.78-0.22 0.06-0.44 0.14-0.66 0.2 25.46-21.92 47.52-54.48 63.74-95.28 6.82 10.24 14.3 20.02 22.36 29.28 3.56 4.12 7.24 8.12 11.04 12.02zM241.68 766.95c-41.14-12.62-78.82-35.16-110.12-66.46-48-47.98-75.42-111.04-77.9-178.52h96.26c1.46 71.88 18.4 139.24 48.18 190.62 12.9 22.26 27.6 40.48 43.58 54.36zM241.66 257.05c-16.38 14.2-31.38 32.94-44.48 55.88-29.2 51.16-45.82 117.96-47.26 189.04H53.66c2.48-67.48 29.9-130.54 77.9-178.54 31.24-31.24 68.94-53.78 110.1-66.38z" fill="#3594BF" p-id="45304"></path><path d="M241.68 766.96c-41.14-12.62-78.82-35.18-110.12-66.46-48-47.98-75.42-111.04-77.9-178.52h24c2.48 67.48 29.9 130.54 77.9 178.52 20.78 20.78 44.38 37.7 69.94 50.4 5.2 5.88 10.6 11.22 16.18 16.06zM241.66 257.04a175.606 175.606 0 0 0-16.1 15.98c-25.6 12.72-49.22 29.64-70 50.4-48 48-75.42 111.08-77.9 178.56h-24c2.48-67.48 29.9-130.56 77.9-178.56 31.24-31.22 68.94-53.78 110.1-66.38z" fill="#FFFFFF" opacity=".4" p-id="45305"></path><path d="M310.12 245.98v256.04H169.9c2.88-135.7 64.02-247.02 140.22-256.04zM310.12 522.02v256.02c-35.42-4.2-68.74-30.6-94.72-75.44-28.06-48.38-44.04-112.2-45.48-180.58h140.2z" fill="#3594BF" p-id="45306"></path><path d="M310.12 245.98v6.78c-64.18 27.52-112.66 128.78-115.22 249.26h-25c2.88-135.7 64.02-247.02 140.22-256.04zM310.12 771.24v6.8c-35.42-4.2-68.74-30.6-94.72-75.44-28.06-48.38-44.04-112.2-45.48-180.58h25c1.44 68.38 17.42 132.2 45.48 180.58 19.76 34.12 43.78 57.56 69.72 68.64z" fill="#FFFFFF" opacity=".4" p-id="45307"></path><path d="M448.5 649.98c-24.82 72.04-67.36 119.2-113.86 127.38-0.62 0.12-1.22 0.22-1.82 0.3-0.9 0.16-1.8 0.28-2.7 0.38V522.02h83.4a286.94 286.94 0 0 0 19.66 95.2 289.16 289.16 0 0 0 15.32 32.76zM448.5 374.02c-5.78 10.58-10.92 21.56-15.36 32.88a287.152 287.152 0 0 0-19.62 95.12h-83.4V246.04c46.68 5.66 90 50.92 115.92 121.1 0.84 2.28 1.66 4.56 2.46 6.88z" fill="#3594BF" p-id="45308"></path><path d="M922.76 512c0-5.52 4.48-10 10-10h37.56c-1.54-41.6-12.56-80.8-30.98-115.52l-32.5 18.76c-1.58 0.92-3.3 1.34-5 1.34a9.992 9.992 0 0 1-5-18.66l32.46-18.74a270.65 270.65 0 0 0-84.56-84.56L826 317.1a10 10 0 0 1-17.32-10l18.76-32.5c-34.7-18.44-73.92-29.46-115.52-31v37.58c0 5.52-4.48 10-10 10s-10-4.48-10-10V243.6c-29.12 1.08-57.06 6.8-83.1 16.46-11.18 4.14-22 9-32.42 14.54l18.76 32.5c2.78 4.78 1.14 10.9-3.66 13.66-1.56 0.9-3.28 1.34-4.98 1.34-3.46 0-6.82-1.8-8.68-5l-18.74-32.48c-7.86 4.94-15.44 10.28-22.7 16.02a268.178 268.178 0 0 0-36.38 34.44c-9.38 10.66-17.9 22.06-25.48 34.1l32.48 18.74a10.004 10.004 0 0 1 3.66 13.66 9.94 9.94 0 0 1-8.66 5c-1.7 0-3.42-0.42-5-1.34l-32.5-18.76a266.63 266.63 0 0 0-26.8 77.06c-2.3 12.54-3.72 25.38-4.2 38.46h37.58c5.52 0 10 4.48 10 10s-4.48 10-10 10h-37.58c1.54 41.6 12.56 80.8 31 115.52l32.5-18.76a9.986 9.986 0 0 1 13.66 3.66c2.76 4.78 1.12 10.9-3.66 13.66l-32.48 18.74a270.65 270.65 0 0 0 84.56 84.56l18.74-32.48a10.004 10.004 0 0 1 13.66-3.66 9.968 9.968 0 0 1 3.66 13.66l-18.76 32.5c34.72 18.44 73.92 29.46 115.52 31v-37.56c0-5.54 4.48-10 10-10s10 4.46 10 10v37.56c13.06-0.48 25.9-1.9 38.44-4.2a265.2 265.2 0 0 0 66.8-21.64c3.46-1.64 6.9-3.36 10.28-5.16l-18.76-32.5a10.056 10.056 0 0 1-1.24-6.42 10.004 10.004 0 0 1 18.56-3.58l18.76 32.48c12.04-7.58 23.42-16.1 34.08-25.46 12.58-11.04 24.12-23.22 34.46-36.38 5.7-7.28 11.06-14.86 16-22.72l-32.48-18.74a10.004 10.004 0 0 1-3.66-13.66c2.76-4.78 8.88-6.44 13.66-3.66l32.52 18.76c5.54-10.42 10.4-21.24 14.52-32.42 9.66-26.04 15.38-53.98 16.46-83.1h-37.56c-5.52 0-10-4.48-10-10z m-210.84-10h117.36c5.52 0 10 4.48 10 10s-4.48 10-10 10h-127.36c-5.52 0-10-4.48-10-10v-153.16c0-4.24 2.64-7.86 6.36-9.32a10.004 10.004 0 0 1 13.64 9.32V502z" fill="#F9C139" p-id="45309"></path><path d="M721.92 254.18c32.036 2.444 62.756 10.684 91.58 24.568l-13.48 23.352c-5.514 9.55-2.23 21.806 7.37 27.35a20.142 20.142 0 0 0 9.95 2.65c7.138 0 13.778-3.838 17.322-10.002l13.438-23.29a262.488 262.488 0 0 1 67.012 67.016l-23.256 13.426a19.876 19.876 0 0 0-9.348 12.146 19.852 19.852 0 0 0 1.994 15.184 20.072 20.072 0 0 0 17.34 9.998c3.532 0 7-0.934 10-2.68l23.348-13.476c13.876 28.848 22.11 59.566 24.554 91.576h-26.98c-11.028 0-20 8.972-20 20s8.972 20 20 20h26.98c-2.442 32.01-10.68 62.73-24.554 91.578l-23.338-13.462a19.94 19.94 0 0 0-10.016-2.704 20.076 20.076 0 0 0-17.332 10.008c-5.514 9.55-2.232 21.806 7.322 27.322l23.288 13.436a262.672 262.672 0 0 1-66.996 67.014l-13.454-23.292a20.066 20.066 0 0 0-17.332-10 19.994 19.994 0 0 0-9.988 2.68c-9.55 5.514-12.834 17.77-7.32 27.32l13.48 23.352c-28.824 13.884-59.544 22.124-91.58 24.568v-26.98c0-11.028-8.972-20-20-20s-20 8.972-20 20v26.98c-32.02-2.444-62.738-10.686-91.578-24.57l13.462-23.322a19.828 19.828 0 0 0 2.03-15.19 19.844 19.844 0 0 0-9.336-12.158 19.994 19.994 0 0 0-9.988-2.68 20.07 20.07 0 0 0-17.334 10.002l-13.436 23.288a262.544 262.544 0 0 1-67.014-67.012l23.292-13.44c9.55-5.514 12.834-17.77 7.328-27.304a20.04 20.04 0 0 0-17.328-10.02c-3.502 0-6.96 0.928-10 2.684l-23.352 13.48c-13.884-28.84-22.126-59.558-24.57-91.578h27c11.028 0 20-8.972 20-20s-8.972-20-20-20h-27c2.444-32.022 10.686-62.738 24.57-91.578l23.318 13.46a19.946 19.946 0 0 0 10.032 2.698c7.158 0 13.804-3.846 17.32-10 5.514-9.55 2.23-21.806-7.322-27.322l-23.288-13.436a262.632 262.632 0 0 1 67.012-67.012l13.452 23.316a20.106 20.106 0 0 0 17.326 9.974c3.49 0 6.94-0.926 9.964-2.67a19.852 19.852 0 0 0 9.35-12.166 19.808 19.808 0 0 0-2.014-15.162l-13.478-23.35c28.84-13.884 59.558-22.126 91.578-24.57v27c0 11.028 8.972 20 20 20s20-8.972 20-20v-27m-20 277.82h127.36c11.028 0 20-8.972 20-20s-8.972-20-20-20h-107.36v-133.16c0-11.028-8.972-20-20-20s-20 8.972-20 20V512c0 11.028 8.972 20 20 20m10-288.4v37.58c0 5.52-4.48 10-10 10s-10-4.48-10-10V243.6c-41.6 1.54-80.8 12.56-115.52 31l18.76 32.5c2.78 4.78 1.14 10.9-3.66 13.66-1.56 0.9-3.28 1.34-4.98 1.34-3.46 0-6.82-1.8-8.68-5l-18.74-32.48a270.86 270.86 0 0 0-84.56 84.56l32.48 18.74a10.004 10.004 0 0 1 3.66 13.66 9.96 9.96 0 0 1-8.66 5c-1.7 0-3.42-0.42-5-1.34l-32.5-18.76c-18.44 34.72-29.46 73.92-31 115.52h37.58c5.52 0 10 4.48 10 10s-4.48 10-10 10h-37.58c1.54 41.6 12.56 80.8 31 115.52l32.5-18.76a9.982 9.982 0 0 1 5-1.344c3.452 0 6.81 1.788 8.66 5.004 2.76 4.78 1.12 10.9-3.66 13.66l-32.48 18.74a270.65 270.65 0 0 0 84.56 84.56l18.74-32.48a10.002 10.002 0 0 1 13.66-3.66 9.968 9.968 0 0 1 3.66 13.66l-18.76 32.5c34.72 18.44 73.92 29.46 115.52 31v-37.56c0-5.54 4.48-10 10-10s10 4.46 10 10v37.56c41.6-1.54 80.82-12.56 115.52-31l-18.76-32.5a10.004 10.004 0 0 1 8.648-15 10 10 0 0 1 8.672 5l18.76 32.48a270.796 270.796 0 0 0 84.54-84.56l-32.48-18.74a10.004 10.004 0 0 1 5.012-18.67c1.696 0 3.414 0.434 4.988 1.35l32.52 18.76c18.42-34.72 29.44-73.92 30.98-115.52h-37.56c-5.52 0-10-4.48-10-10s4.48-10 10-10h37.56c-1.54-41.6-12.56-80.8-30.98-115.52l-32.5 18.76c-1.58 0.92-3.3 1.34-5 1.34a9.992 9.992 0 0 1-5-18.66l32.46-18.74a270.65 270.65 0 0 0-84.56-84.56L826 317.1a10 10 0 0 1-17.32-10l18.76-32.5c-34.7-18.44-73.92-29.46-115.52-31z m-10 278.4c-5.52 0-10-4.48-10-10v-153.16c0-5.52 4.48-10 10-10s10 4.48 10 10V502h117.36c5.52 0 10 4.48 10 10s-4.48 10-10 10h-127.36z" opacity=".2" p-id="45310"></path><path d="M839.28 512c0 5.52-4.48 10-10 10h-127.36c-5.52 0-10-4.48-10-10v-153.16c0-5.52 4.48-10 10-10s10 4.48 10 10V502h117.36c5.52 0 10 4.48 10 10z" fill="#23130D" p-id="45311"></path><path d="M495.14 713.1c-28.34 24.72-61.16 42.92-96.48 53.78 5.54-4.82 10.92-10.14 16.08-15.98 25.32-12.58 48.72-29.3 69.36-49.82 3.56 4.12 7.24 8.12 11.04 12.02zM495.12 310.9c-3.78 3.88-7.46 7.88-10.98 11.98-20.64-20.5-44.08-37.24-69.46-49.86-5.12-5.76-10.42-11.04-15.9-15.8 35.28 10.84 68.08 29.04 96.34 53.68zM448.5 374.02c-5.78 10.58-10.92 21.56-15.36 32.88-18.62-76.1-56.74-134.3-103.02-154.14v-6.78c48.42 5.74 90.78 52.78 115.92 121.16 0.84 2.28 1.66 4.56 2.46 6.88zM448.5 649.98c-24.82 72.04-67.36 119.2-113.86 127.38-0.62 0.12-1.22 0.22-1.82 0.3-0.9 0.16-1.8 0.28-2.7 0.38v-6.8c25.94-11.08 49.96-34.52 69.72-68.64 14.42-24.86 25.66-53.82 33.34-85.38a289.16 289.16 0 0 0 15.32 32.76z" opacity=".2" p-id="45312"></path><path d="M817.16 754.56a265.2 265.2 0 0 1-66.8 21.64L437.72 463.54c4.3-23.46 11.64-45.86 21.62-66.78l357.82 357.8zM878.84 713.92c-10.66 9.36-22.04 17.88-34.08 25.46L826 706.9a10.004 10.004 0 0 0-18.56 3.58l-303.98-304a9.94 9.94 0 0 0 7.22-4.9c2.76-4.78 1.12-10.9-3.66-13.66l-32.48-18.74c7.58-12.04 16.1-23.44 25.48-34.1l378.82 378.84zM608.82 260.06l89.46 89.46a10.016 10.016 0 0 0-6.36 9.32v97.32l-155.52-155.52c7.26-5.74 14.84-11.08 22.7-16.02l18.74 32.48c1.86 3.2 5.22 5 8.68 5 1.7 0 3.42-0.44 4.98-1.34a9.968 9.968 0 0 0 3.66-13.66l-18.76-32.5c10.42-5.54 21.24-10.4 32.42-14.54zM893.16 622.42a10.004 10.004 0 0 0 3.66 13.66l32.48 18.74c-4.94 7.86-10.3 15.44-16 22.72L757.76 522h71.52c5.52 0 10-4.48 10-10s-4.48-10-10-10h-91.52l-25.84-25.84v-112.98l241.94 241.92c-4.12 11.18-8.98 22-14.52 32.42l-32.52-18.76c-4.78-2.78-10.9-1.12-13.66 3.66z" fill="#FFFFFF" opacity=".4" p-id="45313"></path></svg>