<?xml version="1.0" standalone="no"?><!DOCTYPE svg PUBLIC "-//W3C//DTD SVG 1.1//EN" "http://www.w3.org/Graphics/SVG/1.1/DTD/svg11.dtd"><svg t="1625811850037" class="icon" viewBox="0 0 1024 1024" version="1.1" xmlns="http://www.w3.org/2000/svg" p-id="40989" xmlns:xlink="http://www.w3.org/1999/xlink" width="200" height="200"><defs><style type="text/css"></style></defs><path d="M984.62 513.64l-123.42-61.72v-83.66c0-28.44-23.14-51.56-51.56-51.56h-108.2c-5.52 0-10 4.48-10 10V649.4h-16.52v-26.08c0-5.52-4.48-10-10-10h-71.4c48.5-27.08 81.4-78.92 81.4-138.3 0-87.3-71.02-158.32-158.3-158.32h-17.06v-20.74c0-5.52-4.48-10-10-10h-83.2c-5.52 0-10 4.48-10 10v20.74h-108.42v-20.74c0-5.52-4.48-10-10-10s-10 4.48-10 10v20.74h-65.8v-20.74c0-5.52-4.48-10-10-10s-10 4.48-10 10v21.08c-82.64 5.18-148.3 74.04-148.3 157.98 0 59.38 32.9 111.22 81.4 138.3h-71.4c-5.52 0-10 4.48-10 10v36.08c0 5.52 4.48 10 10 10h33.18c-0.9 4.04-1.4 8.18-1.4 12.36 0 31.04 25.26 56.28 56.28 56.28 31.04 0 56.28-25.24 56.28-56.28 0-4.18-0.48-8.32-1.4-12.36h16.78c-0.9 4.04-1.4 8.18-1.4 12.36 0 31.04 25.26 56.28 56.28 56.28 31.04 0 56.28-25.24 56.28-56.28 0-4.18-0.48-8.32-1.4-12.36h222.56c-0.9 4.04-1.4 8.18-1.4 12.36 0 31.04 25.26 56.28 56.28 56.28 31.04 0 56.28-25.24 56.28-56.28 0-4.18-0.48-8.32-1.4-12.36h127.58c4.92 38.66 38 68.64 77.98 68.64 39.96 0 73.04-29.98 77.98-68.64h50.98c5.52 0 10-4.48 10-10v-136.82a10 10 0 0 0-5.54-8.94zM416.36 305.96h63.2v10.74h-63.2v-10.74z m-214.22 30.74h65.8v24.98h-65.8v-24.98z m0 44.98h65.8v23.22h-65.8v-23.22z m0 43.22h65.8v23.22h-65.8v-23.22z m0 43.22h65.8v23.22h-65.8v-23.22z m-148.3 6.9c0-72.9 56.7-132.78 128.3-137.92v195.42c0 5.54 4.48 10 10 10s10-4.46 10-10v-21.18h65.8v21.18c0 5.54 4.48 10 10 10s10-4.46 10-10v-195.82h228.68c76.26 0 138.3 62.04 138.3 138.32 0 76.26-62.04 138.3-138.3 138.3H192.14c-76.26 0-138.3-62.04-138.3-138.3z m78.06 243.02c-20 0-36.28-16.26-36.28-36.28 0-4.24 0.76-8.42 2.18-12.36H166c1.42 3.94 2.18 8.12 2.18 12.36 0 20.02-16.28 36.28-36.28 36.28z m126.54 0c-20 0-36.28-16.26-36.28-36.28 0-4.24 0.76-8.42 2.18-12.36h68.2c1.44 3.94 2.18 8.12 2.18 12.36 0 20.02-16.26 36.28-36.28 36.28z m332.32 0c-20 0-36.28-16.26-36.28-36.28 0-4.24 0.76-8.42 2.18-12.36h68.2c1.44 3.94 2.18 8.12 2.18 12.36 0 20.02-16.26 36.28-36.28 36.28z m64.16-68.64H53.84v-16.08h601.08v16.08z m56.52-312.7h98.2c17.4 0 31.56 14.16 31.56 31.56v79.86h-129.76v-111.42z m0 312.7v-181.28h129.76v113.3c-35.38 4.52-63.46 32.6-67.98 67.98h-61.78z m139.76 68.64c-32.34 0-58.64-26.3-58.64-58.64 0-32.32 26.3-58.64 58.64-58.64s58.64 26.32 58.64 58.64c0 32.34-26.3 58.64-58.64 58.64z m118.96-68.64h-40.98c-4.52-35.38-32.6-63.46-67.98-67.98v-107.14l108.96 54.48v120.64z" fill="#23130D" p-id="40990"></path><path d="M416.36 305.96h63.2v10.74h-63.2z" fill="#636368" p-id="40991"></path><path d="M202.14 336.7h65.8v24.98h-65.8zM202.14 381.68h65.8v23.22h-65.8zM202.14 424.9h65.8v23.22h-65.8zM202.14 468.12h65.8v23.22h-65.8z" fill="#E1E1E5" p-id="40992"></path><path d="M294.72 681.76c0 20.02-16.26 36.28-36.28 36.28-20 0-36.28-16.26-36.28-36.28 0-4.24 0.76-8.42 2.18-12.36h68.2c1.44 3.94 2.18 8.12 2.18 12.36zM168.18 681.76c0 20.02-16.28 36.28-36.28 36.28s-36.28-16.26-36.28-36.28c0-4.24 0.76-8.42 2.18-12.36H166c1.42 3.94 2.18 8.12 2.18 12.36zM851.2 600.76c-32.34 0-58.64 26.32-58.64 58.64 0 32.34 26.3 58.64 58.64 58.64s58.64-26.3 58.64-58.64c0-32.32-26.3-58.64-58.64-58.64z m0 93.6c-19.28 0-34.96-15.68-34.96-34.96s15.68-34.96 34.96-34.96 34.96 15.68 34.96 34.96-15.68 34.96-34.96 34.96z" fill="#E8790A" p-id="40993"></path><path d="M53.84 633.32h601.08v16.08H53.84z" fill="#636368" p-id="40994"></path><path d="M627.04 681.76c0 20.02-16.26 36.28-36.28 36.28-20 0-36.28-16.26-36.28-36.28 0-4.24 0.76-8.42 2.18-12.36h68.2c1.44 3.94 2.18 8.12 2.18 12.36z" fill="#E8790A" p-id="40995"></path><path d="M841.2 368.26v79.86h-129.76v-111.42h98.2c17.4 0 31.56 14.16 31.56 31.56z" fill="#3594BF" p-id="40996"></path><path d="M970.16 528.76v120.64h-40.98c-4.52-35.38-32.6-63.46-67.98-67.98v-107.14l108.96 54.48z" fill="#E1E1E5" p-id="40997"></path><path d="M970.16 528.76v120.64h-19v-101.64l-89.96-44.98v-28.5z" fill="#23130D" opacity=".2" p-id="40998"></path><path d="M711.44 468.12v181.28h61.78c4.52-35.38 32.6-63.46 67.98-67.98v-113.3h-129.76z m59.68 41.18h-31.2c-5.52 0-10-4.48-10-10 0-5.54 4.48-10 10-10h31.2c5.52 0 10 4.46 10 10 0 5.52-4.48 10-10 10z" fill="#E1E1E5" p-id="40999"></path><path d="M711.44 468.12v31.18h18.48c0-5.54 4.48-10 10-10h31.2c5.52 0 10 4.46 10 10h60.08v-31.18h-129.76z" fill="#23130D" opacity=".2" p-id="41000"></path><path d="M654.92 475.02c0 76.26-62.04 138.3-138.3 138.3H192.14c-76.26 0-138.3-62.04-138.3-138.3 0-72.9 56.7-132.78 128.3-137.92v195.42c0 5.54 4.48 10 10 10s10-4.46 10-10v-21.18h65.8v21.18c0 5.54 4.48 10 10 10s10-4.46 10-10v-195.82h228.68c76.26 0 138.3 62.04 138.3 138.32z" fill="#F9C139" p-id="41001"></path><path d="M654.92 475.02c0 76.26-62.04 138.3-138.3 138.3H192.14c-45.12 0-85.26-21.72-110.5-55.24 23.16 17.5 51.96 27.86 83.12 27.86h324.48c76.26 0 138.3-62.04 138.3-138.3 0-31.18-10.36-59.98-27.86-83.14 33.52 25.24 55.24 65.4 55.24 110.52z" fill="#23130D" opacity=".2" p-id="41002"></path><path d="M781.12 499.3c0 5.52-4.48 10-10 10h-31.2c-5.52 0-10-4.48-10-10 0-5.54 4.48-10 10-10h31.2c5.52 0 10 4.46 10 10zM851.2 624.44c-19.28 0-34.96 15.68-34.96 34.96s15.68 34.96 34.96 34.96 34.96-15.68 34.96-34.96-15.68-34.96-34.96-34.96z m0 49.92c-8.26 0-14.96-6.7-14.96-14.96 0-8.24 6.7-14.96 14.96-14.96 8.24 0 14.96 6.72 14.96 14.96 0 8.26-6.72 14.96-14.96 14.96z" fill="#23130D" p-id="41003"></path><path d="M866.16 659.4c0 8.26-6.72 14.96-14.96 14.96-8.26 0-14.96-6.7-14.96-14.96 0-8.24 6.7-14.96 14.96-14.96 8.24 0 14.96 6.72 14.96 14.96z" fill="#E1E1E5" p-id="41004"></path><path d="M794.24 448.12h-23.14l-59.66-59.64v-23.16zM821.04 448.12h-17.8l-91.8-91.8v-17.8zM841.2 420.16v27.96h-1.64l-111.42-111.42h29.6z" fill="#FFFFFF" opacity=".4" p-id="41005"></path></svg>