<?xml version="1.0" standalone="no"?><!DOCTYPE svg PUBLIC "-//W3C//DTD SVG 1.1//EN" "http://www.w3.org/Graphics/SVG/1.1/DTD/svg11.dtd"><svg class="icon" width="200px" height="200.00px" viewBox="0 0 1024 1024" version="1.1" xmlns="http://www.w3.org/2000/svg"><path d="M372.52 200.74c0 11.6-8.06 21.34-18.86 23.94v7.18c0 5.52-4.48 10-10 10-5.54 0-10-4.48-10-10v-6.46h-8.88c-5.52 0-10-4.48-10-10s4.48-10 10-10h23.1a4.66 4.66 0 0 0 4.64-4.66c0-2.56-2.08-4.64-4.64-4.64h-8.46c-13.58 0-24.64-11.06-24.64-24.64 0-11.62 8.06-21.34 18.88-23.94v-7.18c0-5.52 4.46-10 10-10 5.52 0 10 4.48 10 10v6.46h8.86c5.52 0 10 4.48 10 10s-4.48 10-10 10h-23.1c-2.56 0-4.64 2.08-4.64 4.66 0 2.56 2.08 4.64 4.64 4.64h8.46c13.58 0 24.64 11.06 24.64 24.64z" fill="#23130D" /><path d="M343.66 103.84c-45.36 0-82.26 36.9-82.26 82.26s36.9 82.26 82.26 82.26 82.26-36.9 82.26-82.26-36.9-82.26-82.26-82.26z m0 144.52c-34.34 0-62.26-27.94-62.26-62.26 0-34.32 27.92-62.26 62.26-62.26 34.32 0 62.26 27.94 62.26 62.26 0 34.32-27.94 62.26-62.26 62.26z" fill="#23130D" /><path d="M343.66 123.84c-34.34 0-62.26 27.94-62.26 62.26 0 34.32 27.92 62.26 62.26 62.26 34.32 0 62.26-27.94 62.26-62.26 0-34.32-27.94-62.26-62.26-62.26z m-4.24 52.26h8.46c13.58 0 24.64 11.06 24.64 24.64 0 11.6-8.06 21.34-18.86 23.94v7.18c0 5.52-4.48 10-10 10-5.54 0-10-4.48-10-10v-6.46h-8.88c-5.52 0-10-4.48-10-10s4.48-10 10-10h23.1a4.66 4.66 0 0 0 4.64-4.66c0-2.56-2.08-4.64-4.64-4.64h-8.46c-13.58 0-24.64-11.06-24.64-24.64 0-11.62 8.06-21.34 18.88-23.94v-7.18c0-5.52 4.46-10 10-10 5.52 0 10 4.48 10 10v6.46h8.86c5.52 0 10 4.48 10 10s-4.48 10-10 10h-23.1c-2.56 0-4.64 2.08-4.64 4.66 0 2.56 2.08 4.64 4.64 4.64z" fill="#F9C139" /><path d="M583.18 126.9c0 11.6-8.06 21.34-18.88 23.94V158c0 5.54-4.48 10-10 10s-10-4.46-10-10v-6.44h-8.88c-5.52 0-10-4.48-10-10 0-5.54 4.48-10 10-10h23.1c2.56 0 4.66-2.1 4.66-4.66a4.66 4.66 0 0 0-4.66-4.64h-8.44c-13.6 0-24.66-11.06-24.66-24.66 0-11.6 8.08-21.32 18.88-23.94v-7.16c0-5.52 4.48-10 10-10s10 4.48 10 10v6.46h8.88c5.52 0 10 4.48 10 10s-4.48 10-10 10h-23.1a4.66 4.66 0 0 0-4.66 4.64c0 2.56 2.1 4.66 4.66 4.66h8.44c13.6 0 24.66 11.06 24.66 24.64z" fill="#23130D" /><path d="M554.3 30c-45.34 0-82.26 36.9-82.26 82.26s36.92 82.26 82.26 82.26c45.36 0 82.26-36.9 82.26-82.26S599.66 30 554.3 30z m0 144.52c-34.32 0-62.26-27.94-62.26-62.26 0-34.34 27.94-62.26 62.26-62.26 34.34 0 62.26 27.92 62.26 62.26 0 34.32-27.92 62.26-62.26 62.26z" fill="#23130D" /><path d="M554.3 50c-34.32 0-62.26 27.92-62.26 62.26 0 34.32 27.94 62.26 62.26 62.26 34.34 0 62.26-27.94 62.26-62.26 0-34.34-27.92-62.26-62.26-62.26z m-4.22 52.26h8.44c13.6 0 24.66 11.06 24.66 24.64 0 11.6-8.06 21.34-18.88 23.94V158c0 5.54-4.48 10-10 10s-10-4.46-10-10v-6.44h-8.88c-5.52 0-10-4.48-10-10 0-5.54 4.48-10 10-10h23.1c2.56 0 4.66-2.1 4.66-4.66a4.66 4.66 0 0 0-4.66-4.64h-8.44c-13.6 0-24.66-11.06-24.66-24.66 0-11.6 8.08-21.32 18.88-23.94v-7.16c0-5.52 4.48-10 10-10s10 4.48 10 10v6.46h8.88c5.52 0 10 4.48 10 10s-4.48 10-10 10h-23.1a4.66 4.66 0 0 0-4.66 4.64c0 2.56 2.1 4.66 4.66 4.66z" fill="#F9C139" /><path d="M546.78 342.1c0 11.6-8.06 21.32-18.88 23.94v7.16c0 5.54-4.48 10-10 10s-10-4.46-10-10v-6.46h-8.86c-5.54 0-10-4.46-10-10 0-5.52 4.46-10 10-10h23.1c2.56 0 4.64-2.08 4.64-4.64 0-2.56-2.08-4.64-4.64-4.64h-8.46c-13.6 0-24.64-11.06-24.64-24.66 0-11.6 8.06-21.32 18.86-23.94v-7.16c0-5.52 4.48-10 10-10s10 4.48 10 10v6.46h8.88c5.52 0 10 4.48 10 10s-4.48 10-10 10h-23.1c-2.56 0-4.64 2.08-4.64 4.64a4.66 4.66 0 0 0 4.64 4.66h8.46c13.58 0 24.64 11.04 24.64 24.64z" fill="#23130D" /><path d="M517.92 245.2c-45.36 0-82.26 36.9-82.26 82.26 0 45.34 36.9 82.24 82.26 82.24 45.34 0 82.24-36.9 82.24-82.24 0-45.36-36.9-82.26-82.24-82.26z m0 144.5c-34.34 0-62.26-27.92-62.26-62.24 0-34.34 27.92-62.26 62.26-62.26 34.32 0 62.24 27.92 62.24 62.26 0 34.32-27.92 62.24-62.24 62.24z" fill="#23130D" /><path d="M517.92 265.2c-34.34 0-62.26 27.92-62.26 62.26 0 34.32 27.92 62.24 62.26 62.24 34.32 0 62.24-27.92 62.24-62.24 0-34.34-27.92-62.26-62.24-62.26z m-4.24 52.26h8.46c13.58 0 24.64 11.04 24.64 24.64 0 11.6-8.06 21.32-18.88 23.94v7.16c0 5.54-4.48 10-10 10s-10-4.46-10-10v-6.46h-8.86c-5.54 0-10-4.46-10-10 0-5.52 4.46-10 10-10h23.1c2.56 0 4.64-2.08 4.64-4.64 0-2.56-2.08-4.64-4.64-4.64h-8.46c-13.6 0-24.64-11.06-24.64-24.66 0-11.6 8.06-21.32 18.86-23.94v-7.16c0-5.52 4.48-10 10-10s10 4.48 10 10v6.46h8.88c5.52 0 10 4.48 10 10s-4.48 10-10 10h-23.1c-2.56 0-4.64 2.08-4.64 4.64a4.66 4.66 0 0 0 4.64 4.66z" fill="#F9C139" /><path d="M754.28 279.88c0 11.6-8.06 21.34-18.88 23.94v7.18c0 5.52-4.48 10-10 10s-10-4.48-10-10v-6.46h-8.88c-5.52 0-10-4.48-10-10s4.48-10 10-10h23.12c2.56 0 4.64-2.08 4.64-4.66 0-2.56-2.08-4.64-4.64-4.64h-8.46c-13.6 0-24.66-11.06-24.66-24.64 0-11.6 8.08-21.34 18.88-23.94v-7.16c0-5.54 4.48-10 10-10s10 4.46 10 10v6.44h8.88c5.52 0 10 4.48 10 10s-4.48 10-10 10h-23.1c-2.56 0-4.66 2.1-4.66 4.66a4.66 4.66 0 0 0 4.66 4.64h8.46c13.58 0 24.64 11.06 24.64 24.64z" fill="#23130D" /><path d="M725.42 182.98c-45.36 0-82.26 36.9-82.26 82.26s36.9 82.26 82.26 82.26c45.34 0 82.24-36.9 82.24-82.26s-36.9-82.26-82.24-82.26z m0 144.52c-34.34 0-62.26-27.92-62.26-62.26 0-34.32 27.92-62.26 62.26-62.26 34.32 0 62.24 27.94 62.24 62.26 0 34.34-27.92 62.26-62.24 62.26z" fill="#23130D" /><path d="M725.42 202.98c-34.34 0-62.26 27.94-62.26 62.26 0 34.34 27.92 62.26 62.26 62.26 34.32 0 62.24-27.92 62.24-62.26 0-34.32-27.92-62.26-62.24-62.26z m-4.24 52.26h8.46c13.58 0 24.64 11.06 24.64 24.64 0 11.6-8.06 21.34-18.88 23.94v7.18c0 5.52-4.48 10-10 10s-10-4.48-10-10v-6.46h-8.88c-5.52 0-10-4.48-10-10s4.48-10 10-10h23.12c2.56 0 4.64-2.08 4.64-4.66 0-2.56-2.08-4.64-4.64-4.64h-8.46c-13.6 0-24.66-11.06-24.66-24.64 0-11.6 8.08-21.34 18.88-23.94v-7.16c0-5.54 4.48-10 10-10s10 4.46 10 10v6.44h8.88c5.52 0 10 4.48 10 10s-4.48 10-10 10h-23.1c-2.56 0-4.66 2.1-4.66 4.66a4.66 4.66 0 0 0 4.66 4.64z" fill="#F9C139" /><path d="M700.88 513.4c0 11.6-8.06 21.32-18.88 23.94v7.16c0 5.52-4.46 10-10 10-5.52 0-10-4.48-10-10v-6.46h-8.86c-5.52 0-10-4.48-10-10s4.48-10 10-10h23.1c2.56 0 4.64-2.08 4.64-4.64a4.66 4.66 0 0 0-4.64-4.66h-8.46c-13.58 0-24.64-11.06-24.64-24.64 0-11.6 8.06-21.32 18.86-23.94v-7.16c0-5.52 4.48-10 10-10 5.54 0 10 4.48 10 10v6.46h8.88c5.52 0 10 4.46 10 10 0 5.52-4.48 10-10 10h-23.1c-2.56 0-4.64 2.08-4.64 4.64 0 2.56 2.08 4.64 4.64 4.64h8.46c13.58 0 24.64 11.06 24.64 24.66z" fill="#23130D" /><path d="M672.02 416.5c-45.36 0-82.26 36.9-82.26 82.26 0 45.34 36.9 82.24 82.26 82.24s82.26-36.9 82.26-82.24c0-45.36-36.9-82.26-82.26-82.26z m0 144.5c-34.34 0-62.26-27.92-62.26-62.24 0-34.34 27.92-62.26 62.26-62.26 34.32 0 62.26 27.92 62.26 62.26 0 34.32-27.94 62.24-62.26 62.24z" fill="#23130D" /><path d="M672.02 436.5c-34.34 0-62.26 27.92-62.26 62.26 0 34.32 27.92 62.24 62.26 62.24 34.32 0 62.26-27.92 62.26-62.24 0-34.34-27.94-62.26-62.26-62.26z m-4.24 52.24h8.46c13.58 0 24.64 11.06 24.64 24.66 0 11.6-8.06 21.32-18.88 23.94v7.16c0 5.52-4.46 10-10 10-5.52 0-10-4.48-10-10v-6.46h-8.86c-5.52 0-10-4.48-10-10s4.48-10 10-10h23.1c2.56 0 4.64-2.08 4.64-4.64a4.66 4.66 0 0 0-4.64-4.66h-8.46c-13.58 0-24.64-11.06-24.64-24.64 0-11.6 8.06-21.32 18.86-23.94v-7.16c0-5.52 4.48-10 10-10 5.54 0 10 4.48 10 10v6.46h8.88c5.52 0 10 4.46 10 10 0 5.52-4.48 10-10 10h-23.1c-2.56 0-4.64 2.08-4.64 4.64 0 2.56 2.08 4.64 4.64 4.64z" fill="#F9C139" /><path d="M474.52 559.16c0 11.6-8.06 21.32-18.88 23.92v7.18c0 5.52-4.46 10-10 10-5.52 0-10-4.48-10-10v-6.46h-8.86c-5.52 0-10-4.48-10-10s4.48-10 10-10h23.1c2.56 0 4.64-2.08 4.64-4.64 0-2.58-2.08-4.66-4.64-4.66h-8.46c-13.58 0-24.64-11.06-24.64-24.64 0-11.6 8.06-21.34 18.86-23.94v-7.16c0-5.54 4.48-10 10-10 5.54 0 10 4.46 10 10v6.44h8.88c5.52 0 10 4.48 10 10s-4.48 10-10 10h-23.1a4.66 4.66 0 0 0-4.64 4.66c0 2.56 2.08 4.64 4.64 4.64h8.46c13.58 0 24.64 11.06 24.64 24.66z" fill="#23130D" /><path d="M445.66 462.24c-45.36 0-82.26 36.9-82.26 82.26s36.9 82.26 82.26 82.26 82.26-36.9 82.26-82.26-36.9-82.26-82.26-82.26z m0 144.52c-34.34 0-62.26-27.92-62.26-62.26 0-34.32 27.92-62.26 62.26-62.26 34.32 0 62.26 27.94 62.26 62.26 0 34.34-27.94 62.26-62.26 62.26z" fill="#23130D" /><path d="M445.66 482.24c-34.34 0-62.26 27.94-62.26 62.26 0 34.34 27.92 62.26 62.26 62.26 34.32 0 62.26-27.92 62.26-62.26 0-34.32-27.94-62.26-62.26-62.26z m-4.24 52.26h8.46c13.58 0 24.64 11.06 24.64 24.66 0 11.6-8.06 21.32-18.88 23.92v7.18c0 5.52-4.46 10-10 10-5.52 0-10-4.48-10-10v-6.46h-8.86c-5.52 0-10-4.48-10-10s4.48-10 10-10h23.1c2.56 0 4.64-2.08 4.64-4.64 0-2.58-2.08-4.66-4.64-4.66h-8.46c-13.58 0-24.64-11.06-24.64-24.64 0-11.6 8.06-21.34 18.86-23.94v-7.16c0-5.54 4.48-10 10-10 5.54 0 10 4.46 10 10v6.44h8.88c5.52 0 10 4.48 10 10s-4.48 10-10 10h-23.1a4.66 4.66 0 0 0-4.64 4.66c0 2.56 2.08 4.64 4.64 4.64z" fill="#F9C139" /><path d="M330 403.62c0 11.6-8.06 21.32-18.86 23.94v7.16c0 5.52-4.48 10-10 10-5.54 0-10-4.48-10-10v-6.46h-8.88c-5.52 0-10-4.48-10-10s4.48-10 10-10h23.1c2.56 0 4.64-2.08 4.64-4.64 0-2.58-2.08-4.66-4.64-4.66h-8.46c-13.58 0-24.64-11.06-24.64-24.64 0-11.6 8.06-21.32 18.88-23.94v-7.16c0-5.52 4.46-10 10-10 5.52 0 10 4.48 10 10v6.44H320c5.52 0 10 4.48 10 10 0 5.54-4.48 10-10 10h-23.1a4.66 4.66 0 0 0-4.64 4.66c0 2.56 2.08 4.64 4.64 4.64h8.46c13.58 0 24.64 11.06 24.64 24.66z" fill="#23130D" /><path d="M301.14 306.7c-45.36 0-82.26 36.9-82.26 82.26s36.9 82.26 82.26 82.26 82.26-36.9 82.26-82.26-36.9-82.26-82.26-82.26z m0 144.52c-34.32 0-62.26-27.92-62.26-62.26 0-34.32 27.94-62.26 62.26-62.26 34.32 0 62.26 27.94 62.26 62.26 0 34.34-27.94 62.26-62.26 62.26z" fill="#23130D" /><path d="M301.14 326.7c-2.86 0-5.68 0.2-8.44 0.58-8.26 1.12-16 3.86-22.9 7.9-4 2.34-7.7 5.12-11.08 8.24-3.2 3-6.1 6.32-8.62 9.92-1.3 1.86-2.5 3.78-3.58 5.78-3 5.44-5.2 11.38-6.44 17.66-0.78 3.94-1.2 8-1.2 12.18 0 34.34 27.94 62.26 62.26 62.26 4.18 0 8.24-0.42 12.18-1.2 6.28-1.24 12.22-3.44 17.66-6.44 2-1.08 3.92-2.28 5.78-3.58 3.6-2.52 6.92-5.42 9.92-8.62 3.12-3.36 5.9-7.08 8.24-11.08 4.04-6.88 6.78-14.64 7.9-22.88 0.38-2.76 0.58-5.6 0.58-8.46 0-34.32-27.94-62.26-62.26-62.26z m-4.24 52.26h8.46c3.8 0 7.42 0.86 10.64 2.42a24.74 24.74 0 0 1 11.56 11.56v0.02a24.12 24.12 0 0 1 2.44 10.66c0 3.28-0.64 6.4-1.82 9.26-1.7 4.18-4.52 7.78-8.08 10.44-1.82 1.38-3.86 2.5-6.04 3.34-0.94 0.36-1.92 0.66-2.92 0.9v7.16c0 3.56-1.86 6.7-4.68 8.46-1.54 0.98-3.36 1.54-5.32 1.54-5.54 0-10-4.48-10-10v-6.46h-8.88c-5.52 0-10-4.48-10-10 0-2.58 0.98-4.94 2.6-6.7a9.868 9.868 0 0 1 7.4-3.3h23.1c2.56 0 4.64-2.08 4.64-4.64 0-2.58-2.08-4.66-4.64-4.66h-8.46c-0.4 0-0.8 0-1.2-0.04-12.62-0.6-22.8-10.78-23.4-23.4-0.04-0.4-0.04-0.8-0.04-1.2 0-4.94 1.46-9.52 3.98-13.38a24.88 24.88 0 0 1 10.34-8.98c1.44-0.66 2.98-1.2 4.56-1.58v-7.16c0-4.76 3.3-8.74 7.76-9.74 0.72-0.18 1.46-0.26 2.24-0.26 5.52 0 10 4.48 10 10v6.44H320a10.004 10.004 0 0 1 9.14 14.06 10 10 0 0 1-9.14 5.94h-23.1a4.66 4.66 0 0 0-4.64 4.66c0 2.56 2.08 4.64 4.64 4.64z" fill="#F9C139" /><path d="M711.5 746.72h-189.88v-120.64c0-5.52-4.48-10-10-10s-10 4.48-10 10v120.64h-189.9c-17.34 0-31.44 14.12-31.44 31.44v3.74c0 14.18 9.42 26.18 22.34 30.1l50.52 174.78a9.966 9.966 0 0 0 9.6 7.22h297.76c4.46 0 8.38-2.94 9.62-7.22l50.48-174.76c4.92-1.48 9.42-4.16 13.14-7.88 5.94-5.94 9.22-13.84 9.22-22.24v-3.74c0-17.32-14.12-31.44-31.46-31.44zM652.98 974H370.26l-46.44-160.66H699.4L652.98 974z m69.98-192.1c0 6.32-5.14 11.44-11.44 11.44h-399.8c-6.3 0-11.44-5.12-11.44-11.44v-3.74c0-6.3 5.14-11.44 11.44-11.44h399.78c6.32 0 11.46 5.14 11.46 11.46v3.72z" fill="#23130D" /><path d="M722.96 778.18v3.72c0 6.32-5.14 11.44-11.44 11.44h-399.8c-6.3 0-11.44-5.12-11.44-11.44v-3.74c0-6.3 5.14-11.44 11.44-11.44h399.78c6.32 0 11.46 5.14 11.46 11.46z" fill="#F8D3C9" /><path d="M699.4 813.34L652.98 974H370.26l-46.44-160.66z" fill="#CC7B5A" /><path d="M352.72 793.34h-41c-6.3 0-11.44-5.12-11.44-11.44v-3.74c0-6.3 5.14-11.44 11.44-11.44h41c-6.3 0-11.44 5.14-11.44 11.44v3.74c0 6.32 5.14 11.44 11.44 11.44zM411.26 974h-41l-46.44-160.66h41z" fill="#FFFFFF" opacity=".4" /><path d="M722.96 778.18v3.72c0 6.32-5.14 11.44-11.44 11.44h-41c6.3 0 11.44-5.12 11.44-11.44v-3.72c0-6.32-5.14-11.46-11.46-11.46h41c6.32 0 11.46 5.14 11.46 11.46zM699.4 813.34L652.98 974h-41l46.42-160.66z" fill="#23130D" opacity=".2" /><path d="M545.02 415.88c-20.46 0-37.12 16.64-37.12 37.12 0 20.46 16.66 37.12 37.12 37.12 20.48 0 37.14-16.66 37.14-37.12 0-20.48-16.66-37.12-37.14-37.12z m0 54.24c-9.44 0-17.12-7.68-17.12-17.12s7.68-17.12 17.12-17.12c9.46 0 17.14 7.68 17.14 17.12s-7.68 17.12-17.14 17.12z" fill="#23130D" /><path d="M562.16 453c0 9.44-7.68 17.12-17.14 17.12-9.44 0-17.12-7.68-17.12-17.12s7.68-17.12 17.12-17.12c9.46 0 17.14 7.68 17.14 17.12z" fill="#F9C139" /><path d="M575.44 553.14c-20.48 0-37.14 16.64-37.14 37.12s16.66 37.12 37.14 37.12c20.46 0 37.12-16.64 37.12-37.12s-16.66-37.12-37.12-37.12z m0 54.24c-9.44 0-17.14-7.68-17.14-17.12 0-9.44 7.7-17.12 17.14-17.12 9.44 0 17.12 7.68 17.12 17.12 0 9.44-7.68 17.12-17.12 17.12z" fill="#23130D" /><path d="M592.56 590.26c0 9.44-7.68 17.12-17.12 17.12-9.44 0-17.14-7.68-17.14-17.12 0-9.44 7.7-17.12 17.14-17.12 9.44 0 17.12 7.68 17.12 17.12z" fill="#F9C139" /><path d="M686.88 102.42c-20.48 0-37.12 16.66-37.12 37.14 0 20.46 16.64 37.12 37.12 37.12S724 160.02 724 139.56c0-20.48-16.64-37.14-37.12-37.14z m0 54.26c-9.44 0-17.12-7.68-17.12-17.12 0-9.46 7.68-17.14 17.12-17.14 9.44 0 17.12 7.68 17.12 17.14 0 9.44-7.68 17.12-17.12 17.12z" fill="#23130D" /><path d="M704 139.56c0 9.44-7.68 17.12-17.12 17.12-9.44 0-17.12-7.68-17.12-17.12 0-9.46 7.68-17.14 17.12-17.14 9.44 0 17.12 7.68 17.12 17.14z" fill="#F9C139" /><path d="M424.78 37.6c-20.48 0-37.14 16.66-37.14 37.14 0 20.46 16.66 37.12 37.14 37.12 20.46 0 37.12-16.66 37.12-37.12 0-20.48-16.66-37.14-37.12-37.14z m0 54.26c-9.44 0-17.14-7.68-17.14-17.12 0-9.46 7.7-17.14 17.14-17.14 9.44 0 17.12 7.68 17.12 17.14 0 9.44-7.68 17.12-17.12 17.12z" fill="#23130D" /><path d="M441.9 74.74c0 9.44-7.68 17.12-17.12 17.12-9.44 0-17.14-7.68-17.14-17.12 0-9.46 7.7-17.14 17.14-17.14 9.44 0 17.12 7.68 17.12 17.14z" fill="#F9C139" /><path d="M240.28 232.3c-20.48 0-37.12 16.64-37.12 37.12 0 20.46 16.64 37.12 37.12 37.12 20.46 0 37.12-16.66 37.12-37.12 0-20.48-16.66-37.12-37.12-37.12z m0 54.24c-9.44 0-17.12-7.68-17.12-17.12 0-9.44 7.68-17.12 17.12-17.12 9.44 0 17.12 7.68 17.12 17.12 0 9.44-7.68 17.12-17.12 17.12z" fill="#23130D" /><path d="M257.4 269.42c0 9.44-7.68 17.12-17.12 17.12-9.44 0-17.12-7.68-17.12-17.12 0-9.44 7.68-17.12 17.12-17.12 9.44 0 17.12 7.68 17.12 17.12z" fill="#F9C139" /><path d="M308.52 480.26c-20.48 0-37.14 16.64-37.14 37.12s16.66 37.12 37.14 37.12c20.46 0 37.12-16.64 37.12-37.12s-16.66-37.12-37.12-37.12z m0 54.24c-9.46 0-17.14-7.68-17.14-17.12 0-9.44 7.68-17.12 17.14-17.12 9.44 0 17.12 7.68 17.12 17.12 0 9.44-7.68 17.12-17.12 17.12z" fill="#23130D" /><path d="M325.64 517.38c0 9.44-7.68 17.12-17.12 17.12-9.46 0-17.14-7.68-17.14-17.12 0-9.44 7.68-17.12 17.14-17.12 9.44 0 17.12 7.68 17.12 17.12z" fill="#F9C139" /><path d="M468.52 180.1c-15.74 0-28.56 12.82-28.56 28.56s12.82 28.56 28.56 28.56 28.56-12.82 28.56-28.56-12.82-28.56-28.56-28.56z m0 37.12c-4.72 0-8.56-3.84-8.56-8.56 0-4.72 3.84-8.56 8.56-8.56s8.56 3.84 8.56 8.56c0 4.72-3.84 8.56-8.56 8.56z" fill="#23130D" /><path d="M477.08 208.66c0 4.72-3.84 8.56-8.56 8.56s-8.56-3.84-8.56-8.56c0-4.72 3.84-8.56 8.56-8.56s8.56 3.84 8.56 8.56z" fill="#F9C139" /><path d="M599.76 199.16c-15.76 0-28.56 12.82-28.56 28.56s12.8 28.56 28.56 28.56c15.74 0 28.56-12.82 28.56-28.56s-12.82-28.56-28.56-28.56z m0 37.12c-4.72 0-8.56-3.84-8.56-8.56s3.84-8.56 8.56-8.56 8.56 3.84 8.56 8.56-3.84 8.56-8.56 8.56z" fill="#23130D" /><path d="M608.32 227.72c0 4.72-3.84 8.56-8.56 8.56s-8.56-3.84-8.56-8.56 3.84-8.56 8.56-8.56 8.56 3.84 8.56 8.56z" fill="#F9C139" /><path d="M636.88 344.02c-15.76 0-28.56 12.82-28.56 28.56 0 15.76 12.8 28.56 28.56 28.56 15.74 0 28.56-12.8 28.56-28.56 0-15.74-12.82-28.56-28.56-28.56z m0 37.12c-4.72 0-8.56-3.84-8.56-8.56 0-4.72 3.84-8.56 8.56-8.56s8.56 3.84 8.56 8.56c0 4.72-3.84 8.56-8.56 8.56z" fill="#23130D" /><path d="M645.44 372.58c0 4.72-3.84 8.56-8.56 8.56s-8.56-3.84-8.56-8.56c0-4.72 3.84-8.56 8.56-8.56s8.56 3.84 8.56 8.56z" fill="#F9C139" /><path d="M714 356.4c-15.74 0-28.56 12.82-28.56 28.56 0 15.76 12.82 28.56 28.56 28.56 15.76 0 28.56-12.8 28.56-28.56 0-15.74-12.8-28.56-28.56-28.56z m0 37.12c-4.72 0-8.56-3.84-8.56-8.56 0-4.72 3.84-8.56 8.56-8.56s8.56 3.84 8.56 8.56c0 4.72-3.84 8.56-8.56 8.56z" fill="#23130D" /><path d="M722.56 384.96c0 4.72-3.84 8.56-8.56 8.56s-8.56-3.84-8.56-8.56c0-4.72 3.84-8.56 8.56-8.56s8.56 3.84 8.56 8.56z" fill="#F9C139" /><path d="M792.28 342.42c-15.74 0-28.54 12.82-28.54 28.56s12.8 28.56 28.54 28.56c15.76 0 28.56-12.82 28.56-28.56s-12.8-28.56-28.56-28.56z m0 37.12c-4.7 0-8.54-3.84-8.54-8.56s3.84-8.56 8.54-8.56c4.72 0 8.56 3.84 8.56 8.56s-3.84 8.56-8.56 8.56z" fill="#23130D" /><path d="M800.84 370.98c0 4.72-3.84 8.56-8.56 8.56-4.7 0-8.54-3.84-8.54-8.56s3.84-8.56 8.54-8.56c4.72 0 8.56 3.84 8.56 8.56z" fill="#F9C139" /><path d="M783.62 415.88c-15.74 0-28.56 12.8-28.56 28.54 0 15.76 12.82 28.56 28.56 28.56s28.56-12.8 28.56-28.56c0-15.74-12.82-28.54-28.56-28.54z m0 37.1c-4.72 0-8.56-3.84-8.56-8.56 0-4.7 3.84-8.54 8.56-8.54s8.56 3.84 8.56 8.54c0 4.72-3.84 8.56-8.56 8.56z" fill="#23130D" /><path d="M792.18 444.42c0 4.72-3.84 8.56-8.56 8.56s-8.56-3.84-8.56-8.56c0-4.7 3.84-8.54 8.56-8.54s8.56 3.84 8.56 8.54z" fill="#F9C139" /><path d="M426.78 389.7c-15.76 0-28.56 12.82-28.56 28.56s12.8 28.56 28.56 28.56c15.74 0 28.56-12.82 28.56-28.56s-12.82-28.56-28.56-28.56z m0 37.12c-4.72 0-8.56-3.84-8.56-8.56s3.84-8.56 8.56-8.56 8.56 3.84 8.56 8.56-3.84 8.56-8.56 8.56z" fill="#23130D" /><path d="M435.34 418.26c0 4.72-3.84 8.56-8.56 8.56s-8.56-3.84-8.56-8.56 3.84-8.56 8.56-8.56 8.56 3.84 8.56 8.56z" fill="#F9C139" /><path d="M393.66 272.22c-15.76 0-28.56 12.8-28.56 28.54 0 15.76 12.8 28.56 28.56 28.56 15.74 0 28.54-12.8 28.54-28.56 0-15.74-12.8-28.54-28.54-28.54z m0 37.1c-4.72 0-8.56-3.84-8.56-8.56 0-4.7 3.84-8.54 8.56-8.54a8.56 8.56 0 0 1 8.54 8.54c0 4.72-3.84 8.56-8.54 8.56z" fill="#23130D" /><path d="M402.2 300.76c0 4.72-3.84 8.56-8.54 8.56-4.72 0-8.56-3.84-8.56-8.56 0-4.7 3.84-8.54 8.56-8.54a8.56 8.56 0 0 1 8.54 8.54z" fill="#F9C139" /><path d="M246.52 359.12l49.14 49.14h-13.4c-2.94 0-5.58 1.26-7.4 3.3l-34.78-34.78c1.24-6.28 3.44-12.22 6.44-17.66zM330.98 443.58c-5.44 3-11.38 5.2-17.66 6.44l-6.86-6.84a9.956 9.956 0 0 0 4.68-8.46v-7.16c1-0.24 1.98-0.54 2.92-0.9l16.92 16.92zM276.24 360.94a24.356 24.356 0 0 0-3.98 13.38c0 0.4 0 0.8 0.04 1.2l-22.2-22.18c2.52-3.6 5.42-6.92 8.62-9.92l17.52 17.52zM310 403.62c0 2.56-2.08 4.64-4.64 4.64h-0.32l-9.34-9.34c0.4 0.04 0.8 0.04 1.2 0.04h8.46c2.56 0 4.64 2.08 4.64 4.66zM346.68 431.38c-3 3.2-6.32 6.1-9.92 8.62l-16.66-16.68c3.56-2.66 6.38-6.26 8.08-10.44l18.5 18.5zM292.7 327.28l6.2 6.2c-4.46 1-7.76 4.98-7.76 9.74v7.16c-1.58 0.38-3.12 0.92-4.56 1.58l-16.78-16.78c6.9-4.04 14.64-6.78 22.9-7.9zM315.08 349.66h-3.94v-3.94zM362.82 397.42c-1.12 8.24-3.86 16-7.9 22.88l-27.36-27.34v-0.02l-11.56-11.56-11.72-11.72H320a10 10 0 0 0 9.14-5.94l33.68 33.7z" fill="#FFFFFF" opacity=".4" /><path d="M390.73 514.98l49.14 49.14h-13.4c-2.94 0-5.58 1.26-7.4 3.3l-34.78-34.78c1.24-6.28 3.44-12.22 6.44-17.66zM475.19 599.44c-5.44 3-11.38 5.2-17.66 6.44l-6.86-6.84a9.956 9.956 0 0 0 4.68-8.46v-7.16c1-0.24 1.98-0.54 2.92-0.9l16.92 16.92zM420.45 516.8a24.356 24.356 0 0 0-3.98 13.38c0 0.4 0 0.8 0.04 1.2l-22.2-22.18c2.52-3.6 5.42-6.92 8.62-9.92l17.52 17.52zM454.21 559.48c0 2.56-2.08 4.64-4.64 4.64h-0.32l-9.34-9.34c0.4 0.04 0.8 0.04 1.2 0.04h8.46c2.56 0 4.64 2.08 4.64 4.66zM490.89 587.24c-3 3.2-6.32 6.1-9.92 8.62l-16.66-16.68c3.56-2.66 6.38-6.26 8.08-10.44l18.5 18.5zM436.91 483.14l6.2 6.2c-4.46 1-7.76 4.98-7.76 9.74v7.16c-1.58 0.38-3.12 0.92-4.56 1.58l-16.78-16.78c6.9-4.04 14.64-6.78 22.9-7.9zM459.29 505.52h-3.94v-3.94zM507.03 553.28c-1.12 8.24-3.86 16-7.9 22.88l-27.36-27.34v-0.02l-11.56-11.56-11.72-11.72h15.72a10 10 0 0 0 9.14-5.94l33.68 33.7z" fill="#FFFFFF" opacity=".4" /><path d="M617.372 468.844l49.14 49.14h-13.4c-2.94 0-5.58 1.26-7.4 3.3l-34.78-34.78c1.24-6.28 3.44-12.218 6.44-17.66zM701.832 553.304c-5.44 3-11.38 5.2-17.66 6.44l-6.86-6.84a9.956 9.956 0 0 0 4.68-8.46v-7.16c1-0.24 1.98-0.54 2.92-0.9l16.92 16.92zM647.092 470.664a24.356 24.356 0 0 0-3.98 13.38c0 0.4 0 0.8 0.04 1.2l-22.2-22.18c2.52-3.6 5.42-6.92 8.62-9.92l17.52 17.52zM680.852 513.344c0 2.56-2.08 4.64-4.64 4.64h-0.32l-9.34-9.34c0.4 0.04 0.8 0.04 1.2 0.04h8.46c2.56 0 4.64 2.082 4.64 4.66zM717.532 541.104c-3 3.2-6.32 6.1-9.92 8.62l-16.66-16.68c3.56-2.66 6.38-6.26 8.08-10.44l18.5 18.5zM663.552 437.006l6.2 6.2c-4.46 1-7.76 4.98-7.76 9.74v7.16c-1.58 0.38-3.12 0.92-4.56 1.58l-16.78-16.78a61.612 61.612 0 0 1 22.9-7.9zM685.932 459.386h-3.94v-3.942zM733.672 507.146c-1.12 8.24-3.86 16-7.9 22.88l-27.36-27.34v-0.02l-11.56-11.56-11.72-11.72h15.72a10 10 0 0 0 9.14-5.94l33.68 33.7z" fill="#FFFFFF" opacity=".4" /><path d="M463.198 297.608l49.14 49.14h-13.4c-2.94 0-5.58 1.26-7.4 3.3l-34.78-34.78c1.24-6.28 3.44-12.22 6.44-17.66zM547.658 382.068c-5.44 3-11.38 5.2-17.66 6.44l-6.86-6.84a9.956 9.956 0 0 0 4.68-8.46v-7.16c1-0.24 1.98-0.54 2.92-0.9l16.92 16.92zM492.918 299.428a24.356 24.356 0 0 0-3.98 13.38c0 0.4 0 0.8 0.04 1.2l-22.2-22.18c2.52-3.6 5.42-6.92 8.62-9.92l17.52 17.52zM526.678 342.108c0 2.56-2.08 4.64-4.64 4.64h-0.32l-9.34-9.34c0.4 0.04 0.8 0.04 1.2 0.04h8.46c2.56 0 4.64 2.08 4.64 4.66zM563.358 369.868c-3 3.2-6.32 6.1-9.92 8.62l-16.66-16.68c3.56-2.66 6.38-6.26 8.08-10.44l18.5 18.5zM509.378 265.768l6.2 6.2c-4.46 1-7.76 4.98-7.76 9.74v7.16c-1.58 0.38-3.12 0.92-4.56 1.58l-16.78-16.78c6.9-4.04 14.64-6.78 22.9-7.9zM531.758 288.148h-3.94v-3.94zM579.498 335.908c-1.12 8.24-3.86 16-7.9 22.88l-27.36-27.34v-0.02l-11.56-11.56-11.72-11.72h15.72a10 10 0 0 0 9.14-5.94l33.68 33.7z" fill="#FFFFFF" opacity=".4" /><path d="M670.824 235.42l49.14 49.14h-13.4c-2.94 0-5.58 1.26-7.4 3.3l-34.78-34.78c1.24-6.28 3.44-12.22 6.44-17.66zM755.284 319.88c-5.44 3-11.38 5.2-17.66 6.44l-6.86-6.84a9.956 9.956 0 0 0 4.68-8.46v-7.16c1-0.24 1.98-0.54 2.92-0.9l16.92 16.92zM700.544 237.24a24.356 24.356 0 0 0-3.98 13.38c0 0.4 0 0.8 0.04 1.2l-22.2-22.18c2.52-3.6 5.42-6.92 8.62-9.92l17.52 17.52zM734.304 279.92c0 2.56-2.08 4.64-4.64 4.64h-0.32l-9.34-9.34c0.4 0.04 0.8 0.04 1.2 0.04h8.46c2.56 0 4.64 2.08 4.64 4.66zM770.984 307.68c-3 3.2-6.32 6.1-9.92 8.62l-16.66-16.68c3.56-2.66 6.38-6.26 8.08-10.44l18.5 18.5zM717.004 203.58l6.2 6.2c-4.46 1-7.76 4.98-7.76 9.74v7.16c-1.58 0.38-3.12 0.92-4.56 1.58l-16.78-16.78c6.9-4.04 14.64-6.78 22.9-7.9zM739.384 225.96h-3.94v-3.94zM787.124 273.72c-1.12 8.24-3.86 16-7.9 22.88l-27.36-27.34v-0.02l-11.56-11.56-11.72-11.72h15.72a10 10 0 0 0 9.14-5.94l33.68 33.7z" fill="#FFFFFF" opacity=".4" /><path d="M499.652 82.386l49.14 49.14h-13.4c-2.94 0-5.58 1.26-7.4 3.3l-34.78-34.78c1.24-6.28 3.44-12.22 6.44-17.66zM584.112 166.846c-5.44 3-11.38 5.2-17.66 6.44l-6.86-6.84a9.956 9.956 0 0 0 4.68-8.46v-7.16c1-0.24 1.98-0.54 2.92-0.9l16.92 16.92zM529.372 84.206a24.356 24.356 0 0 0-3.98 13.38c0 0.4 0 0.8 0.04 1.2l-22.2-22.18c2.52-3.6 5.42-6.92 8.62-9.92l17.52 17.52zM563.132 126.886c0 2.56-2.08 4.64-4.64 4.64h-0.32l-9.34-9.34c0.4 0.04 0.8 0.04 1.2 0.04h8.46c2.56 0 4.64 2.08 4.64 4.66zM599.812 154.646c-3 3.2-6.32 6.1-9.92 8.62l-16.66-16.68c3.56-2.66 6.38-6.26 8.08-10.44l18.5 18.5zM545.832 50.546l6.2 6.2c-4.46 1-7.76 4.98-7.76 9.74v7.16c-1.58 0.38-3.12 0.92-4.56 1.58l-16.78-16.78c6.9-4.04 14.64-6.78 22.9-7.9zM568.212 72.926h-3.94v-3.94zM615.952 120.686c-1.12 8.24-3.86 16-7.9 22.88l-27.36-27.34v-0.02l-11.56-11.56-11.72-11.72h15.72a10 10 0 0 0 9.14-5.94l33.68 33.7z" fill="#FFFFFF" opacity=".4" /><path d="M288.72 156.57l49.14 49.14h-13.4c-2.94 0-5.58 1.26-7.4 3.3l-34.78-34.78c1.24-6.28 3.44-12.22 6.44-17.66zM373.18 241.03c-5.44 3-11.38 5.2-17.66 6.44l-6.86-6.84a9.956 9.956 0 0 0 4.68-8.46v-7.16c1-0.24 1.98-0.54 2.92-0.9l16.92 16.92zM318.44 158.39a24.356 24.356 0 0 0-3.98 13.38c0 0.4 0 0.8 0.04 1.2l-22.2-22.18c2.52-3.6 5.42-6.92 8.62-9.92l17.52 17.52zM352.2 201.07c0 2.56-2.08 4.64-4.64 4.64h-0.32l-9.34-9.34c0.4 0.04 0.8 0.04 1.2 0.04h8.46c2.56 0 4.64 2.08 4.64 4.66zM388.88 228.83c-3 3.2-6.32 6.1-9.92 8.62l-16.66-16.68c3.56-2.66 6.38-6.26 8.08-10.44l18.5 18.5zM334.9 124.73l6.2 6.2c-4.46 1-7.76 4.98-7.76 9.74v7.16c-1.58 0.38-3.12 0.92-4.56 1.58l-16.78-16.78c6.9-4.04 14.64-6.78 22.9-7.9zM357.28 147.11h-3.94v-3.94zM405.02 194.87c-1.12 8.24-3.86 16-7.9 22.88l-27.36-27.34v-0.02l-11.56-11.56-11.72-11.72h15.72a10 10 0 0 0 9.14-5.94l33.68 33.7z" fill="#FFFFFF" opacity=".4" /></svg>