<?xml version="1.0" standalone="no"?><!DOCTYPE svg PUBLIC "-//W3C//DTD SVG 1.1//EN" "http://www.w3.org/Graphics/SVG/1.1/DTD/svg11.dtd"><svg t="1625812083238" class="icon" viewBox="0 0 1024 1024" version="1.1" xmlns="http://www.w3.org/2000/svg" p-id="51566" xmlns:xlink="http://www.w3.org/1999/xlink" width="200" height="200"><defs><style type="text/css"></style></defs><path d="M897.54 150.96h-140.56V106.14h1.46c19.2 0 34.82-15.62 34.82-34.82 0-19.2-15.62-34.84-34.82-34.84H265.56c-19.2 0-34.84 15.64-34.84 34.84 0 19.2 15.64 34.82 34.84 34.82h1.46v44.82H126.46c-5.52 0-10 4.48-10 10v152.52c0 22.48 4.06 44.54 11.84 65.22a184.94 184.94 0 0 0 34 56.86c27.34 31.26 64.26 52.38 104.72 60.12v24.26c0 73.48 59.78 133.26 133.26 133.26 0.02 0 0.04-0.02 0.06-0.02 37.04 0.04 67.18 30.2 67.18 67.26v92.46h-67.24c-5.52 0-10 4.46-10 10v87.56h-58.02c-5.52 0-10 4.48-10 10v57.06c0 5.52 4.48 10 10 10h359.48c5.52 0 10-4.48 10-10v-57.06c0-5.52-4.48-10-10-10h-58.02v-87.56c0-5.54-4.48-10-10-10h-67.24v-92.46c0-37.06 30.14-67.22 67.18-67.26 0.02 0 0.04 0.02 0.06 0.02 73.48 0 133.26-59.8 133.26-133.28v-24.24c40.46-7.74 77.38-28.86 104.72-60.12a185.32 185.32 0 0 0 45.84-122.08V160.96c0-5.52-4.48-10-10-10zM267.02 475.24c-75.18-16.22-130.56-83.78-130.56-161.76V170.96h130.56v304.28z m356.72 455.22h58v37.06H342.26v-37.06H623.74z m-10.02-97.56v77.56H410.28v-77.56h203.44z m123.26-312.98c0 62.44-50.78 113.24-113.2 113.26h-0.06c-48.1 0-87.24 39.14-87.24 87.26v92.46h-48.96v-92.46c0-48.12-39.14-87.26-87.24-87.26h-0.06c-62.42-0.02-113.2-50.82-113.2-113.26V106.14h449.96v413.78zM265.56 86.14c-8.18 0-14.84-6.64-14.84-14.82s6.66-14.84 14.84-14.84h492.88c8.18 0 14.82 6.66 14.82 14.84s-6.64 14.82-14.82 14.82H265.56z m621.98 227.34c0 77.98-55.38 145.54-130.56 161.76V170.96h130.56v142.52z" fill="#23130D" p-id="51567"></path><path d="M681.74 930.46v37.06H342.26v-37.06H681.74z" fill="#CC7B5A" p-id="51568"></path><path d="M410.28 832.9h203.44v77.56H410.28z" fill="#F9C139" p-id="51569"></path><path d="M613.72 832.9v15.34h-188.1v62.22h-15.34v-77.56z" fill="#FFFFFF" opacity=".4" p-id="51570"></path><path d="M613.72 832.9v77.56H410.28v-15.34h188.1v-62.22z" opacity=".2" p-id="51571"></path><path d="M773.26 71.32c0 8.18-6.64 14.82-14.82 14.82H265.56c-8.18 0-14.84-6.64-14.84-14.82s6.66-14.84 14.84-14.84h492.88c8.18 0 14.82 6.66 14.82 14.84z" fill="#F9C139" p-id="51572"></path><path d="M773.26 71.32c0 3.08-0.96 5.96-2.58 8.34a14.7 14.7 0 0 0-12.24-6.52H265.56c-5.1 0-9.6 2.58-12.26 6.52a14.804 14.804 0 0 1-2.58-8.34c0-8.18 6.66-14.84 14.84-14.84h492.88c8.18 0 14.82 6.66 14.82 14.84z" fill="#FFFFFF" opacity=".4" p-id="51573"></path><path d="M287.02 106.14v413.78c0 62.44 50.78 113.24 113.2 113.26h0.06c48.1 0 87.24 39.14 87.24 87.26v92.46h48.96v-92.46c0-12.9 2.82-25.16 7.86-36.18a87.728 87.728 0 0 1 44.64-43.86c8.54-3.72 17.8-6.12 27.5-6.92 2.38-0.2 4.8-0.3 7.24-0.3h0.06a112.78 112.78 0 0 0 49.14-11.26 113.708 113.708 0 0 0 39.38-31.52c15.44-19.36 24.68-43.86 24.68-70.48V106.14H287.02z m299.32 335.6c0.64 3.74-0.9 7.54-3.98 9.78a9.884 9.884 0 0 1-7.14 1.8c-1.16-0.12-2.32-0.48-3.4-1.04L512 420.82l-26.32 13.84-33.52 17.62c-1.46 0.76-3.06 1.14-4.64 1.14-2.08 0-4.14-0.64-5.88-1.9a10.018 10.018 0 0 1-3.98-9.78l8.06-47.02 3.36-19.6-48.4-47.18a10.016 10.016 0 0 1-2.52-10.26 9.952 9.952 0 0 1 8.06-6.8l23.2-3.36 43.7-6.36 20.82-42.2 9.1-18.42a9.984 9.984 0 0 1 17.92 0l29.92 60.62 66.9 9.72a9.98 9.98 0 0 1 8.06 6.8c1.18 3.62 0.2 7.6-2.52 10.26l-30.58 29.8-17.82 17.38 11.42 66.62z" fill="#F9C139" p-id="51574"></path><path d="M716.98 126.14v393.78c0 51.408-41.812 93.244-93.26 93.26-59.132 0-107.24 48.116-107.24 107.26v72.46h-8.96v-72.46c0-59.144-48.108-107.26-107.294-107.26-51.394-0.016-93.206-41.852-93.206-93.26V126.14h409.96m-257.14 156.74l-56.462 8.204c-11.236 1.614-20.736 9.616-24.232 20.398-3.564 10.932-0.67 22.718 7.574 30.78l40.872 39.842-9.644 56.264c-1.938 11.328 2.632 22.566 11.964 29.352a29.838 29.838 0 0 0 17.61 5.702c4.804 0 9.602-1.176 13.946-3.438L512 443.418l50.584 26.602a30.242 30.242 0 0 0 13.908 3.406c6.382 0 12.48-1.982 17.634-5.73 9.298-6.762 13.868-18 11.93-29.334l-9.644-56.258 40.894-39.864c8.222-8.04 11.116-19.826 7.552-30.758-3.568-10.948-12.854-18.764-24.2-20.394l-56.494-8.208-25.25-51.158c-5.002-10.182-15.566-16.762-26.912-16.762s-21.91 6.58-26.894 16.728L459.84 282.88m277.14-176.74H287.02v413.78c0 62.44 50.78 113.24 113.2 113.26h0.06c48.1 0 87.24 39.14 87.24 87.26v92.46h48.96v-92.46c0-48.12 39.14-87.26 87.24-87.26h0.06c62.42-0.02 113.2-50.82 113.2-113.26V106.14zM447.52 453.42c-2.08 0-4.14-0.64-5.88-1.9a10.018 10.018 0 0 1-3.98-9.78l11.42-66.62-48.4-47.18a10.016 10.016 0 0 1-2.52-10.26 9.952 9.952 0 0 1 8.06-6.8l66.9-9.72 29.92-60.62a9.984 9.984 0 0 1 17.92 0l29.92 60.62 66.9 9.72a9.98 9.98 0 0 1 8.06 6.8c1.18 3.62 0.2 7.6-2.52 10.26l-48.4 47.18 11.42 66.62c0.64 3.74-0.9 7.54-3.98 9.78-1.74 1.266-3.8 1.906-5.87 1.906-1.596 0-3.198-0.38-4.67-1.146L512 420.82l-59.84 31.46c-1.46 0.76-3.06 1.14-4.64 1.14z" opacity=".2" p-id="51575"></path><path d="M625.84 317.68a9.98 9.98 0 0 0-8.06-6.8l-66.9-9.72-29.92-60.62a9.984 9.984 0 0 0-17.92 0l-29.92 60.62-66.9 9.72a9.952 9.952 0 0 0-8.06 6.8c-1.18 3.62-0.2 7.6 2.52 10.26l48.4 47.18-11.42 66.62c-0.64 3.74 0.9 7.54 3.98 9.78 1.74 1.26 3.8 1.9 5.88 1.9 1.58 0 3.18-0.38 4.64-1.14L512 420.82l59.82 31.46c3.38 1.76 7.46 1.48 10.54-0.76s4.62-6.04 3.98-9.78l-11.42-66.62 48.4-47.18a10.016 10.016 0 0 0 2.52-10.26z m-68.66 46.78a10.032 10.032 0 0 0-2.86 8.86l8.88 51.82-46.54-24.46c-1.46-0.78-3.06-1.16-4.66-1.16s-3.2 0.38-4.66 1.16l-46.54 24.46 8.88-51.82c0.56-3.26-0.52-6.56-2.86-8.86l-37.66-36.7 52.04-7.56a9.992 9.992 0 0 0 7.52-5.48L512 267.56l23.28 47.16c1.46 2.96 4.26 5 7.52 5.48l52.04 7.56-37.66 36.7z" fill="#23130D" p-id="51576"></path><path d="M554.32 373.32l8.88 51.82-46.54-24.46c-1.46-0.78-3.06-1.16-4.66-1.16s-3.2 0.38-4.66 1.16l-46.54 24.46 8.88-51.82c0.56-3.26-0.52-6.56-2.86-8.86l-37.66-36.7 52.04-7.56a9.992 9.992 0 0 0 7.52-5.48L512 267.56l23.28 47.16c1.46 2.96 4.26 5 7.52 5.48l52.04 7.56-37.66 36.7a10.032 10.032 0 0 0-2.86 8.86z" fill="#F9C139" p-id="51577"></path><path d="M512 267.56l13.48 27.3-12.76 25.86a9.992 9.992 0 0 1-7.52 5.48l-52.04 7.56 37.66 36.7a10.032 10.032 0 0 1 2.86 8.86l-5.38 31.36-27.5 14.46 8.88-51.82c0.56-3.26-0.52-6.56-2.86-8.86l-37.66-36.7 52.04-7.56a9.992 9.992 0 0 0 7.52-5.48L512 267.56z" fill="#FFFFFF" opacity=".4" p-id="51578"></path><path d="M554.32 373.32l8.88 51.82-25.24-13.26-7.64-44.56c-0.56-3.26 0.52-6.56 2.86-8.86l35.42-34.52 26.24 3.82-37.66 36.7a10.032 10.032 0 0 0-2.86 8.86zM663.68 967.52h11.48a128.22 128.22 0 0 0 6.58-10.6v-22.56c-4.26 12.16-10.38 23.16-18.06 33.16z m-3.1-37.06c-6.72 13.92-16.08 26.22-27.52 37.06h13.06c10.26-10.96 18.62-23.26 24.66-37.06h-10.2z m-25.48 0c-9.86 14.24-22.8 26.48-38 37.06h15.46c13.48-10.74 24.9-23.02 33.66-37.06h-11.12z m-16.76 0h-12.52c-14.1 14.7-31.86 26.9-52.1 37.06h19.22c17.68-10.4 33.12-22.64 45.4-37.06z m-46.68 0c-20.26 15.48-45.18 27.56-72.7 37.06h25.68c23.42-9.92 44.46-22.08 61.64-37.06h-14.62z m-40.88 0c-8.24 4.6-16.98 8.8-26.12 12.66 4.72-4 8.82-8.22 12.2-12.66h-12.2c-11.56 11.98-29.48 22.38-51.82 30.14-9.5 2.54-19.18 4.84-29 6.92h38.38c32.06-9.08 61.82-21.08 86.5-37.06h-17.94z m-27.32 0h-35.78c-8.94 5.3-19.34 10.04-30.92 14.06-19.58 5.24-40 9.44-60.6 12.84-11.7 1.1-23.12 1.42-33.9 1v9.16h28.5c2.18-0.34 4.36-0.68 6.54-1.04 9.5-0.9 19.12-2.26 28.72-4.18 12.46-2.48 24.08-5.64 34.74-9.36 22.22-6.02 43.42-13.4 62.7-22.48z m-113.52 15.76c12.46-2.48 24.1-5.64 34.74-9.36 7.28-1.98 14.46-4.1 21.48-6.4h-33.24c-17.2 4.32-34.96 7.86-52.86 10.82-6.02 0.58-11.98 0.94-17.8 1.08v10.94c6.32-0.9 12.64-1.86 18.96-2.9 9.5-0.9 19.12-2.26 28.72-4.18z m-17.72-15.76h-29.96v4.32c0.96-0.14 1.94-0.3 2.9-0.46 8.94-0.84 18.02-2.1 27.06-3.86z" opacity=".2" p-id="51579"></path><path d="M588.98 640.4a87.728 87.728 0 0 0-44.64 43.86L287.02 426.94v-88.5L588.98 640.4zM672.92 621.92a112.78 112.78 0 0 1-49.14 11.26h-0.06c-2.44 0-4.86 0.1-7.24 0.3L287.02 304.04V236l158.7 158.72-8.06 47.02c-0.64 3.74 0.9 7.54 3.98 9.78 1.74 1.26 3.8 1.9 5.88 1.9 1.58 0 3.18-0.38 4.64-1.14l33.52-17.62 187.24 187.26zM341.12 106.14l152.82 152.82-20.82 42.2-43.7 6.36-142.4-142.4V106.14zM736.98 501.98v17.94c0 26.62-9.24 51.12-24.68 70.48l-137.08-137.08c2.48 0.34 5.04-0.28 7.14-1.8a10.018 10.018 0 0 0 3.98-9.78l-11.42-66.62 17.82-17.38 144.24 144.24z" fill="#FFFFFF" opacity=".4" p-id="51580"></path></svg>