<?xml version="1.0" standalone="no"?><!DOCTYPE svg PUBLIC "-//W3C//DTD SVG 1.1//EN" "http://www.w3.org/Graphics/SVG/1.1/DTD/svg11.dtd"><svg t="1625811947366" class="icon" viewBox="0 0 1024 1024" version="1.1" xmlns="http://www.w3.org/2000/svg" p-id="45629" xmlns:xlink="http://www.w3.org/1999/xlink" width="200" height="200"><defs><style type="text/css"></style></defs><path d="M969.44 263.52c0-10-3.9-19.38-10.96-26.44a37.14 37.14 0 0 0-26.44-10.96c-9.98 0-19.36 3.9-26.36 10.9l-30.8 30.26c-0.04 0.04-0.06 0.1-0.1 0.14-0.04 0.04-0.08 0.06-0.12 0.1a10.324 10.324 0 0 1-7.56 3.22c-5.86 0-10.62-4.68-10.62-10.46v-0.02l0.02-63.78-0.02-62.94 0.02-61.54-0.02-1.68 0.02-4.48c0-4.72-0.9-9.34-2.62-13.68-5.66-14.38-19.3-23.68-34.78-23.7-6.62 0.04-13.24 1.78-19 5.18-0.3 0.18-0.6 0.36-0.86 0.54a37.22 37.22 0 0 0-14.76 17.54 37.428 37.428 0 0 0-20.16-5.92c-1.18 0-2.34 0.08-3.42 0.18-10.8 0.96-20.62 6.6-26.96 15.48-0.4 0.52-0.86 1.2-1.34 2-0.54 0.86-1.04 1.74-1.5 2.64-6.2-4.3-13.56-6.66-21.28-6.66-4.98 0-9.84 0.98-14.32 2.84-4.48 1.84-8.58 4.6-12.12 8.12-7.06 7.06-10.94 16.44-10.94 26.44V128.8c-5.3-2.8-11.22-4.28-17.38-4.28-10.3 0-19.66 4.2-26.42 10.96s-10.96 16.12-10.96 26.42v10.76h-128.66c-2.76-16.42-17.04-29-34.22-29-6 0-11.64 1.52-16.56 4.2l-104.58-104.58c-7.06-7.08-16.46-10.96-26.44-10.96s-19.38 3.88-26.42 10.94a37.126 37.126 0 0 0-10.96 26.44c0 9.98 3.88 19.38 10.88 26.38l30.28 30.78 0.12 0.12c0.04 0.04 0.06 0.08 0.12 0.12 2.08 1.98 3.22 4.66 3.22 7.56 0 5.86-4.7 10.62-10.46 10.62h-0.02l-63.8-0.02-62.94 0.02-61.5-0.02-1.72 0.02-4.46-0.02c-4.72 0-9.34 0.9-13.7 2.62-14.38 5.66-23.68 19.3-23.68 34.76a37.22 37.22 0 0 0 5.74 19.94c4.26 6.74 10.4 11.8 17.5 14.7a37.172 37.172 0 0 0-5.74 23.58c0.96 10.78 6.6 20.6 15.48 26.94 0.48 0.36 1.18 0.86 2 1.36 0.88 0.54 1.76 1.04 2.66 1.5-4.32 6.2-6.66 13.56-6.66 21.28 0 9.98 3.88 19.36 10.94 26.42 7.06 7.06 16.46 10.96 26.44 10.96h31.96c-2.8 5.3-4.28 11.22-4.28 17.38 0 16.9 11.26 31.18 26.68 35.8v196.18c-16.42 2.76-28.98 17.04-28.98 34.24 0 5.98 1.52 11.62 4.2 16.54l-104.6 104.6c-7.06 7.06-10.96 16.44-10.96 26.42 0 10 3.9 19.38 10.96 26.44 7.3 7.3 16.88 10.94 26.46 10.94 9.54 0 19.1-3.64 26.34-10.88l30.8-30.26c0.04-0.04 0.06-0.08 0.1-0.12 0.04-0.04 0.08-0.08 0.14-0.12a10.246 10.246 0 0 1 7.54-3.22c5.86 0 10.62 4.68 10.62 10.46v189.98l-0.02 4.44c0 4.72 0.9 9.34 2.62 13.7 5.66 14.38 19.3 23.68 34.78 23.7h0.02c6.68 0 13.24-1.8 18.98-5.2 0.3-0.16 0.6-0.34 0.86-0.54 6.78-4.24 11.88-10.38 14.76-17.52 5.96 3.82 12.9 5.9 20.16 5.92 1.18 0 2.32-0.06 3.42-0.18 10.8-0.96 20.62-6.6 26.94-15.46 0.4-0.54 0.9-1.22 1.38-2.04 0.54-0.86 1.02-1.74 1.48-2.62a37.2 37.2 0 0 0 21.26 6.66h0.02c9.98 0 19.38-3.9 26.44-10.96 7.06-7.06 10.94-16.44 10.94-26.44v-31.94c5.3 2.78 11.22 4.26 17.38 4.26 10.3 0 19.66-4.2 26.42-10.96s10.96-16.12 10.96-26.42v-10.76h128.66c2.76 16.42 17.04 28.98 34.22 28.98 6 0 11.62-1.52 16.54-4.18l104.6 104.6c7.3 7.28 16.86 10.92 26.44 10.92 9.56 0 19.14-3.64 26.44-10.92 7.06-7.06 10.94-16.46 10.94-26.44s-3.88-19.38-10.88-26.38l-30.28-30.78c-0.04-0.04-0.08-0.06-0.12-0.1-0.04-0.04-0.06-0.1-0.1-0.14a10.342 10.342 0 0 1-3.24-7.56c0-5.86 4.7-10.62 10.48-10.62h0.02l63.78 0.02 62.94-0.02 61.5 0.02 1.72-0.02 4.46 0.02c4.72 0 9.34-0.88 13.7-2.62 14.38-5.66 23.68-19.3 23.68-34.76 0.02-6.7-1.78-13.3-5.2-19.06-0.16-0.26-0.3-0.52-0.46-0.76-4.26-6.8-10.42-11.92-17.58-14.82a37.22 37.22 0 0 0 5.74-23.56c-0.96-10.82-6.6-20.64-15.48-26.98-0.52-0.38-1.2-0.86-2-1.34-0.86-0.54-1.76-1.04-2.66-1.5 4.32-6.2 6.66-13.56 6.66-21.28 0-9.98-3.88-19.36-10.94-26.42a37.174 37.174 0 0 0-26.44-10.96h-31.96c2.8-5.3 4.28-11.22 4.28-17.38 0-16.88-11.28-31.18-26.68-35.8v-196.18c16.42-2.76 28.98-17.04 28.98-34.24 0-5.98-1.52-11.62-4.2-16.54l104.6-104.6c7.06-7.06 10.96-16.44 10.96-26.42zM489.54 192.66h128.14v15.68c-0.18 0.72-0.28 1.46-0.28 2.22v126.14h-127.86V192.66z m-49.5-14.24c0-8.14 6.62-14.76 14.76-14.76 8.12 0 14.74 6.62 14.74 14.76v172.24c0 8.14-6.62 14.76-14.74 14.76-8.14 0-14.76-6.62-14.76-14.76V178.42zM188.22 346.7c0-4.64 1.8-9.02 5.08-12.3a17.326 17.326 0 0 1 12.3-5.08h81.2c5.52 0 10-4.48 10-10s-4.48-10-10-10H140.54c-4.64 0-9.02-1.82-12.3-5.1s-5.08-7.64-5.08-12.28c0-4.66 1.8-9.02 5.08-12.3a17.35 17.35 0 0 1 9.4-4.84l135.54 0.02c0.76 0 1.5-0.12 2.22-0.28h4.44c5.52 0 10-4.48 10-10s-4.48-10-10-10H140.54c-1.46 0-2.9 0.12-4.34 0.28h-9.28a17.18 17.18 0 0 1-9.2-2.64l-0.34-0.22c-0.1-0.06-0.18-0.12-0.28-0.2-0.08-0.06-0.16-0.12-0.26-0.18a17.304 17.304 0 0 1-7.24-12.64c-0.06-0.5-0.08-1-0.08-1.5 0-4.66 1.8-9.02 5.1-12.3a17.3 17.3 0 0 1 12.26-5.1h5.78l12.96 0.02c0.14-0.02 0.32-0.02 0.48-0.02h128.52c2.78 0 5.26-1.12 7.08-2.92 1.8-1.82 2.92-4.32 2.92-7.08 0-5.52-4.46-10-9.98-10H109.58c-6.12 0-11.66-3.12-14.86-8.34-0.06-0.1-0.12-0.2-0.2-0.32a17.268 17.268 0 0 1-2.34-8.72c0-7.2 4.32-13.54 11.04-16.18a17.16 17.16 0 0 1 6.32-1.22l4.5 0.02 1.72-0.02 22.88 0.02 101.54-0.02 63.8 0.02h0.04c16.78-0.02 30.44-13.74 30.44-30.62 0-8.14-3.32-16.02-9.12-21.7a0.42 0.42 0 0 0-0.08-0.12L294.94 82a17.228 17.228 0 0 1-5.1-12.3c0-4.64 1.8-9 5.1-12.28 3.28-3.3 7.64-5.1 12.28-5.1s9.02 1.8 12.3 5.1l104.64 104.64a34.464 34.464 0 0 0-4.12 16.36v160.42c0 6.82-2.64 13.22-7.46 18.04a25.32 25.32 0 0 1-18.04 7.46h-40.48c-0.7-0.16-1.44-0.26-2.2-0.26H205.6c-9.58 0-17.38-7.8-17.38-17.38z m170.72 37.64v193.82h-144.04v-194.08h37.16c0.72 0.16 1.44 0.26 2.2 0.26h104.68z m27.64 329.3c-0.16 0.72-0.26 1.44-0.26 2.2v146.26c0 9.58-7.8 17.38-17.38 17.38-2.32 0-4.58-0.44-6.66-1.32-2.08-0.84-4-2.12-5.64-3.76a17.328 17.328 0 0 1-5.08-12.28v-81.2c0-5.52-4.48-10-10-10s-10 4.48-10 10v146.24c0 4.66-1.8 9.02-5.1 12.3a17.264 17.264 0 0 1-12.28 5.1c-2.34 0-4.58-0.46-6.66-1.32-2.08-0.86-4-2.14-5.64-3.78a17.35 17.35 0 0 1-4.84-9.4l0.02-135.52c0-0.78-0.1-1.5-0.26-2.22v-4.46c0-5.52-4.48-10-10-10-5.54 0-10 4.48-10 10v53.38c0 0.02-0.02 0.06-0.02 0.1 0 0.04 0.02 0.06 0.02 0.1v85.72c0 1.46 0.1 2.9 0.26 4.34v9.28c0 3.3-0.92 6.48-2.64 9.2-0.08 0.14-0.14 0.22-0.22 0.36-0.06 0.1-0.12 0.18-0.18 0.26-0.08 0.08-0.14 0.18-0.2 0.26a17.26 17.26 0 0 1-12.62 7.26c-0.5 0.04-1 0.08-1.52 0.08a17.394 17.394 0 0 1-12.3-5.1c-3.28-3.3-5.1-7.66-5.08-12.3v-18.7c0-0.18 0-0.36-0.02-0.52v-58.68l0.02-69.82c0-5.52-4.48-10-10-10-2.78 0-5.26 1.12-7.08 2.92-1.8 1.82-2.92 4.32-2.92 7.08v18.66c-0.02 0.04-0.02 0.1-0.02 0.16v110.18c0 0.18 0 0.38 0.02 0.56l-0.02 35.5c0 6.1-3.12 11.66-8.32 14.84-0.12 0.06-0.22 0.14-0.32 0.2a17.34 17.34 0 0 1-8.72 2.36h-0.02a17.348 17.348 0 0 1-16.18-11.04c-0.8-2.04-1.22-4.16-1.22-6.34l0.02-4.48v-189.98c-0.02-16.8-13.74-30.44-30.62-30.44-8.14 0-16.02 3.32-21.7 9.1-0.04 0.04-0.08 0.06-0.1 0.1l-30.86 30.32c-6.78 6.78-17.8 6.78-24.58 0-3.28-3.28-5.1-7.66-5.1-12.3s1.82-9 5.1-12.28l104.64-104.64c4.88 2.6 10.46 4.1 16.36 4.1h160.44c6.8 0 13.2 2.66 18.02 7.48 4.82 4.8 7.46 11.22 7.46 18.02v40.48z m-13.66-85.98h-172.26c-8.14 0-14.74-6.62-14.74-14.74 0-8.14 6.6-14.76 14.74-14.76h4.16c0.02 0 0.04 0.02 0.08 0.02 0.02 0 0.04-0.02 0.08-0.02h163.88c0.04 0 0.06 0.02 0.08 0.02 0.04 0 0.06-0.02 0.08-0.02h3.9c8.12 0 14.74 6.62 14.74 14.76 0 8.12-6.62 14.74-14.74 14.74z m161.54 203.68h-128.14v-15.68c0.16-0.72 0.28-1.46 0.28-2.22l-0.02-95.02v-31.12h127.88v144.04z m49.5 14.24c0 8.14-6.62 14.74-14.76 14.74-8.12 0-14.74-6.6-14.74-14.74v-172.26c0-8.12 6.62-14.74 14.74-14.74 8.14 0 14.76 6.62 14.76 14.74v172.26z m-14.76-207c-17.1 0-31.32 12.44-34.18 28.72h-128.84c-1.28-9.92-5.72-19.1-12.9-26.3 8.7-6.32 14.38-16.54 14.38-28.08 0-9.28-3.62-18.02-10.18-24.58-5.12-5.12-11.54-8.4-18.54-9.62v-194.38h15.6c12.14 0 23.56-4.72 32.16-13.3 6.32 8.7 16.54 14.38 28.1 14.38 17.1 0 31.32-12.44 34.18-28.72h128.84c1.28 9.92 5.72 19.1 12.9 26.3-8.7 6.32-14.38 16.54-14.38 28.08 0 17.1 12.42 31.32 28.72 34.2v194.38h-15.6c-12.16 0-23.56 4.72-32.16 13.3-6.32-8.7-16.54-14.38-28.1-14.38z m266.58 38.72c0 4.64-1.8 9.02-5.08 12.3a17.326 17.326 0 0 1-12.3 5.08h-81.2c-5.52 0-10 4.48-10 10 0 5.54 4.48 10 10 10h146.26c4.64 0 9.02 1.82 12.3 5.1s5.08 7.64 5.08 12.28c0 4.66-1.8 9.02-5.08 12.3a17.274 17.274 0 0 1-9.42 4.84l-135.52-0.02c-0.76 0-1.5 0.12-2.22 0.28h-4.44c-5.52 0-10 4.46-10 10 0 5.52 4.48 10 10 10l139.3-0.02h0.02c1.44 0 2.86-0.1 4.28-0.26h9.32c3.3 0 6.48 0.92 9.2 2.66 0.12 0.06 0.2 0.12 0.32 0.18 0.1 0.06 0.22 0.16 0.32 0.24 0.08 0.06 0.16 0.1 0.24 0.16 4.16 2.94 6.78 7.5 7.24 12.64 0.06 0.5 0.08 1 0.08 1.5 0 9.6-7.78 17.38-17.36 17.4h-3.2l-15.52-0.02c-0.2 0-0.38 0.02-0.56 0.02h-128.46c-5.52 0-10 4.48-10 10s4.46 10 10 10h165.04a17.28 17.28 0 0 1 14.86 8.34c0.06 0.08 0.12 0.18 0.18 0.26a17.56 17.56 0 0 1 2.36 8.78c0 7.2-4.32 13.54-11.04 16.18-2.02 0.8-4.16 1.22-6.32 1.22l-4.5-0.02-1.74 0.02-22.86-0.02-101.54 0.02-63.8-0.02h-0.04c-16.78 0.02-30.44 13.74-30.44 30.62 0 8.14 3.34 16.02 9.12 21.72 0.04 0.02 0.06 0.06 0.08 0.1L729.08 942a17.29 17.29 0 0 1 5.08 12.3c0 4.64-1.8 9-5.08 12.28-6.8 6.78-17.82 6.78-24.6 0l-104.64-104.64c2.62-4.88 4.12-10.44 4.12-16.36v-160.42c0-6.82 2.64-13.22 7.46-18.04a25.32 25.32 0 0 1 18.04-7.46h40.48c0.7 0.16 1.44 0.26 2.2 0.26h146.26c9.58 0 17.38 7.8 17.38 17.38z m-170.72-37.64v-193.82h144.04v194.08h-37.16c-0.7-0.16-1.44-0.26-2.22-0.26h-104.66z m158.28-213.82h-4.16c-0.02-0.02-0.06-0.02-0.08-0.02s-0.04 0-0.08 0.02h-163.88c-0.02 0-0.06-0.02-0.08-0.02-0.04 0-0.08 0.02-0.1 0.02h-3.88c-8.14 0-14.74-6.62-14.74-14.76 0-8.12 6.6-14.74 14.74-14.74h172.26c8.12 0 14.74 6.62 14.74 14.74 0 8.14-6.62 14.76-14.74 14.76z m121-150.04l-104.64 104.64a34.508 34.508 0 0 0-16.36-4.1H662.92h-0.02c-6.8 0-13.2-2.66-18.02-7.48-4.82-4.8-7.48-11.22-7.48-18.02v-4.14-36.34c0.16-0.7 0.28-1.44 0.28-2.2V182.7v-0.04V161.9c0-9.58 7.8-17.38 17.38-17.38 2.32 0 4.58 0.44 6.66 1.32 2.08 0.84 3.98 2.12 5.62 3.76a17.31 17.31 0 0 1 5.1 12.3v81.18c0 5.54 4.48 10 10 10s10-4.46 10-10V96.84c0-4.66 1.8-9.02 5.08-12.3a17.344 17.344 0 0 1 12.3-5.1c2.32 0 4.58 0.46 6.66 1.32 2.08 0.86 4 2.14 5.64 3.78a17.35 17.35 0 0 1 4.84 9.4l-0.02 88.62v46.9c0 0.78 0.1 1.5 0.26 2.22v4.44c0 5.54 4.48 10 10 10 5.54 0 10-4.46 10-10V96.82c0-1.44-0.1-2.88-0.26-4.3v-9.3c0-3.3 0.92-6.48 2.64-9.22 0.08-0.1 0.12-0.18 0.18-0.28 0.08-0.14 0.18-0.24 0.26-0.36l0.16-0.22a17.262 17.262 0 0 1 12.64-7.26c0.5-0.04 1-0.08 1.5-0.08 4.66 0.02 9.02 1.82 12.3 5.1a17.26 17.26 0 0 1 5.1 12.3l-0.02 18.68c0 0.18 0 0.36 0.02 0.54v128.5c0 5.52 4.46 10 10 10 5.52 0 10-4.48 10-10V101.9c0-0.18 0-0.38-0.02-0.58l0.02-35.44c0-6.12 3.12-11.68 8.34-14.88l0.3-0.18a17.34 17.34 0 0 1 8.72-2.36c3.6 0.02 7 1.1 9.82 3.02 2.82 1.92 5.06 4.68 6.38 8.04 0.8 2.02 1.22 4.14 1.22 6.3l-0.02 4.52 0.02 1.72-0.02 22.86 0.02 101.56-0.02 63.8v0.02c0.02 16.8 13.74 30.44 30.62 30.44 8.14 0 16.02-3.32 21.72-9.12 0.02-0.02 0.06-0.04 0.08-0.08l30.86-30.32a17.276 17.276 0 0 1 12.3-5.1c4.64 0 9 1.82 12.28 5.1 3.28 3.28 5.1 7.66 5.1 12.3s-1.82 9-5.1 12.28z" fill="#23130D" p-id="45630"></path><path d="M583.96 673.32v172.26c0 8.14-6.62 14.74-14.76 14.74-8.12 0-14.74-6.6-14.74-14.74v-172.26c0-8.12 6.62-14.74 14.74-14.74 8.14 0 14.76 6.62 14.76 14.74z" fill="#E1E1E5" p-id="45631"></path><path d="M931.82 841.34c0 7.2-4.32 13.54-11.04 16.18-2.02 0.8-4.16 1.22-6.32 1.22l-4.5-0.02-1.74 0.02-22.86-0.02-101.54 0.02-63.8-0.02h-0.04c-16.78 0.02-30.44 13.74-30.44 30.62 0 8.14 3.34 16.02 9.12 21.72 0.04 0.02 0.06 0.06 0.08 0.1L729.08 942a17.29 17.29 0 0 1 5.08 12.3c0 4.64-1.8 9-5.08 12.28-6.8 6.78-17.82 6.78-24.6 0l-104.64-104.64c2.62-4.88 4.12-10.44 4.12-16.36v-160.42c0-6.82 2.64-13.22 7.46-18.04a25.32 25.32 0 0 1 18.04-7.46h40.48c0.7 0.16 1.44 0.26 2.2 0.26h146.26c9.58 0 17.38 7.8 17.38 17.38 0 4.64-1.8 9.02-5.08 12.3a17.326 17.326 0 0 1-12.3 5.08h-81.2c-5.52 0-10 4.48-10 10 0 5.54 4.48 10 10 10h146.26c4.64 0 9.02 1.82 12.3 5.1s5.08 7.64 5.08 12.28c0 4.66-1.8 9.02-5.08 12.3a17.274 17.274 0 0 1-9.42 4.84l-135.52-0.02c-0.76 0-1.5 0.12-2.22 0.28h-4.44c-5.52 0-10 4.46-10 10 0 5.52 4.48 10 10 10l139.3-0.02h0.02c1.44 0 2.86-0.1 4.28-0.26h9.32c3.3 0 6.48 0.92 9.2 2.66 0.12 0.06 0.2 0.12 0.32 0.18 0.1 0.06 0.22 0.16 0.32 0.24 0.08 0.06 0.16 0.1 0.24 0.16 4.16 2.94 6.78 7.5 7.24 12.64 0.06 0.5 0.08 1 0.08 1.5 0 9.6-7.78 17.38-17.36 17.4h-3.2l-15.52-0.02c-0.2 0-0.38 0.02-0.56 0.02h-128.46c-5.52 0-10 4.48-10 10s4.46 10 10 10h165.04a17.28 17.28 0 0 1 14.86 8.34c0.06 0.08 0.12 0.18 0.18 0.26a17.56 17.56 0 0 1 2.36 8.78z" fill="#F8D3C9" p-id="45632"></path><path d="M838.08 411.08c0 8.14-6.62 14.76-14.74 14.76h-4.16c-0.02-0.02-0.06-0.02-0.08-0.02s-0.04 0-0.08 0.02h-163.88c-0.02 0-0.06-0.02-0.08-0.02-0.04 0-0.08 0.02-0.1 0.02h-3.88c-8.14 0-14.74-6.62-14.74-14.76 0-8.12 6.6-14.74 14.74-14.74h172.26c8.12 0 14.74 6.62 14.74 14.74z" fill="#E1E1E5" p-id="45633"></path><path d="M809.1 445.84v194.08h-37.16c-0.7-0.16-1.44-0.26-2.22-0.26h-104.66v-193.82h144.04z" fill="#EC7063" p-id="45634"></path><path d="M949.44 263.52c0 4.64-1.82 9-5.1 12.28l-104.64 104.64a34.508 34.508 0 0 0-16.36-4.1H662.92h-0.02c-6.8 0-13.2-2.66-18.02-7.48-4.82-4.8-7.48-11.22-7.48-18.02v-4.14-36.34c0.16-0.7 0.28-1.44 0.28-2.2V182.7v-0.04V161.9c0-9.58 7.8-17.38 17.38-17.38 2.32 0 4.58 0.44 6.66 1.32 2.08 0.84 3.98 2.12 5.62 3.76a17.31 17.31 0 0 1 5.1 12.3v81.18c0 5.54 4.48 10 10 10s10-4.46 10-10V96.84c0-4.66 1.8-9.02 5.08-12.3a17.344 17.344 0 0 1 12.3-5.1c2.32 0 4.58 0.46 6.66 1.32 2.08 0.86 4 2.14 5.64 3.78a17.35 17.35 0 0 1 4.84 9.4l-0.02 88.62v46.9c0 0.78 0.1 1.5 0.26 2.22v4.44c0 5.54 4.48 10 10 10 5.54 0 10-4.46 10-10V96.82c0-1.44-0.1-2.88-0.26-4.3v-9.3c0-3.3 0.92-6.48 2.64-9.22 0.08-0.1 0.12-0.18 0.18-0.28 0.08-0.14 0.18-0.24 0.26-0.36l0.16-0.22a17.262 17.262 0 0 1 12.64-7.26c0.5-0.04 1-0.08 1.5-0.08 4.66 0.02 9.02 1.82 12.3 5.1a17.26 17.26 0 0 1 5.1 12.3l-0.02 18.68c0 0.18 0 0.36 0.02 0.54v128.5c0 5.52 4.46 10 10 10 5.52 0 10-4.48 10-10V101.9c0-0.18 0-0.38-0.02-0.58l0.02-35.44c0-6.12 3.12-11.68 8.34-14.88l0.3-0.18a17.34 17.34 0 0 1 8.72-2.36c3.6 0.02 7 1.1 9.82 3.02 2.82 1.92 5.06 4.68 6.38 8.04 0.8 2.02 1.22 4.14 1.22 6.3l-0.02 4.52 0.02 1.72-0.02 22.86 0.02 101.56-0.02 63.8v0.02c0.02 16.8 13.74 30.44 30.62 30.44 8.14 0 16.02-3.32 21.72-9.12 0.02-0.02 0.06-0.04 0.08-0.08l30.86-30.32a17.276 17.276 0 0 1 12.3-5.1c4.64 0 9 1.82 12.28 5.1a17.31 17.31 0 0 1 5.1 12.3z" fill="#F8D3C9" p-id="45635"></path><path d="M469.54 178.42v172.24c0 8.14-6.62 14.76-14.74 14.76-8.14 0-14.76-6.62-14.76-14.76V178.42c0-8.14 6.62-14.76 14.76-14.76 8.12 0 14.74 6.62 14.74 14.76z" fill="#E1E1E5" p-id="45636"></path><path d="M617.68 192.66v15.68c-0.18 0.72-0.28 1.46-0.28 2.22v126.14h-127.86V192.66h128.14z" fill="#72AF5F" p-id="45637"></path><path d="M617.68 192.66v3.52c-0.18 0.162-0.28 0.328-0.28 0.498V225h-127.86V192.66h128.14z" fill="#23130D" opacity=".2" p-id="45638"></path><path d="M387.66 612.92c0 8.12-6.62 14.74-14.74 14.74h-172.26c-8.14 0-14.74-6.62-14.74-14.74 0-8.14 6.6-14.76 14.74-14.76h4.16c0.02 0 0.04 0.02 0.08 0.02 0.02 0 0.04-0.02 0.08-0.02h163.88c0.04 0 0.06 0.02 0.08 0.02 0.04 0 0.06-0.02 0.08-0.02h3.9c8.12 0 14.74 6.62 14.74 14.76z" fill="#E1E1E5" p-id="45639"></path><path d="M534.46 687.3v144.04h-128.14v-15.68c0.16-0.72 0.28-1.46 0.28-2.22l-0.02-95.02v-31.12h127.88z" fill="#3594BF" p-id="45640"></path><path d="M386.58 673.16v40.48c-0.16 0.72-0.26 1.44-0.26 2.2v146.26c0 9.58-7.8 17.38-17.38 17.38-2.32 0-4.58-0.44-6.66-1.32-2.08-0.84-4-2.12-5.64-3.76a17.328 17.328 0 0 1-5.08-12.28v-81.2c0-5.52-4.48-10-10-10s-10 4.48-10 10v146.24c0 4.66-1.8 9.02-5.1 12.3a17.264 17.264 0 0 1-12.28 5.1c-2.34 0-4.58-0.46-6.66-1.32-2.08-0.86-4-2.14-5.64-3.78a17.35 17.35 0 0 1-4.84-9.4l0.02-135.52c0-0.78-0.1-1.5-0.26-2.22v-4.46c0-5.52-4.48-10-10-10-5.54 0-10 4.48-10 10v53.38c0 0.02-0.02 0.06-0.02 0.1 0 0.04 0.02 0.06 0.02 0.1v85.72c0 1.46 0.1 2.9 0.26 4.34v9.28c0 3.3-0.92 6.48-2.64 9.2-0.08 0.14-0.14 0.22-0.22 0.36-0.06 0.1-0.12 0.18-0.18 0.26-0.08 0.08-0.14 0.18-0.2 0.26a17.26 17.26 0 0 1-12.62 7.26c-0.5 0.04-1 0.08-1.52 0.08a17.394 17.394 0 0 1-12.3-5.1c-3.28-3.3-5.1-7.66-5.08-12.3v-18.7c0-0.18 0-0.36-0.02-0.52v-58.68l0.02-69.82c0-5.52-4.48-10-10-10-2.78 0-5.26 1.12-7.08 2.92-1.8 1.82-2.92 4.32-2.92 7.08v18.66c-0.02 0.04-0.02 0.1-0.02 0.16v110.18c0 0.18 0 0.38 0.02 0.56l-0.02 35.5c0 6.1-3.12 11.66-8.32 14.84-0.12 0.06-0.22 0.14-0.32 0.2a17.34 17.34 0 0 1-8.72 2.36h-0.02a17.348 17.348 0 0 1-16.18-11.04c-0.8-2.04-1.22-4.16-1.22-6.34l0.02-4.48v-189.98c-0.02-16.8-13.74-30.44-30.62-30.44-8.14 0-16.02 3.32-21.7 9.1-0.04 0.04-0.08 0.06-0.1 0.1l-30.86 30.32c-6.78 6.78-17.8 6.78-24.58 0-3.28-3.28-5.1-7.66-5.1-12.3s1.82-9 5.1-12.28l104.64-104.64c4.88 2.6 10.46 4.1 16.36 4.1h160.44c6.8 0 13.2 2.66 18.02 7.48 4.82 4.8 7.46 11.22 7.46 18.02z" fill="#F8D3C9" p-id="45641"></path><path d="M358.94 384.34v193.82h-144.04v-194.08h37.16c0.72 0.16 1.44 0.26 2.2 0.26h104.68z" fill="#F9C139" p-id="45642"></path><path d="M245 384.34v193.82h-30.1v-194.08h7.766c0.15 0.16 0.3 0.26 0.46 0.26H245zM808.47 446.1v193.82h-30.1v-194.08h7.766c0.15 0.16 0.3 0.26 0.46 0.26h21.874z" fill="#23130D" opacity=".2" p-id="45643"></path><path d="M424.16 162.06a34.464 34.464 0 0 0-4.12 16.36v160.42c0 6.82-2.64 13.22-7.46 18.04a25.32 25.32 0 0 1-18.04 7.46h-40.48c-0.7-0.16-1.44-0.26-2.2-0.26H205.6c-9.58 0-17.38-7.8-17.38-17.38 0-4.64 1.8-9.02 5.08-12.3a17.326 17.326 0 0 1 12.3-5.08h81.2c5.52 0 10-4.48 10-10s-4.48-10-10-10H140.54c-4.64 0-9.02-1.82-12.3-5.1s-5.08-7.64-5.08-12.28c0-4.66 1.8-9.02 5.08-12.3a17.35 17.35 0 0 1 9.4-4.84l135.54 0.02c0.76 0 1.5-0.12 2.22-0.28h4.44c5.52 0 10-4.48 10-10s-4.48-10-10-10H140.54c-1.46 0-2.9 0.12-4.34 0.28h-9.28a17.18 17.18 0 0 1-9.2-2.64l-0.34-0.22c-0.1-0.06-0.18-0.12-0.28-0.2-0.08-0.06-0.16-0.12-0.26-0.18a17.304 17.304 0 0 1-7.24-12.64c-0.06-0.5-0.08-1-0.08-1.5 0-4.66 1.8-9.02 5.1-12.3a17.3 17.3 0 0 1 12.26-5.1h5.78l12.96 0.02c0.14-0.02 0.32-0.02 0.48-0.02h128.52c2.78 0 5.26-1.12 7.08-2.92 1.8-1.82 2.92-4.32 2.92-7.08 0-5.52-4.46-10-9.98-10H109.58c-6.12 0-11.66-3.12-14.86-8.34-0.06-0.1-0.12-0.2-0.2-0.32a17.268 17.268 0 0 1-2.34-8.72c0-7.2 4.32-13.54 11.04-16.18a17.16 17.16 0 0 1 6.32-1.22l4.5 0.02 1.72-0.02 22.88 0.02 101.54-0.02 63.8 0.02h0.04c16.78-0.02 30.44-13.74 30.44-30.62 0-8.14-3.32-16.02-9.12-21.7a0.42 0.42 0 0 0-0.08-0.12L294.94 82a17.228 17.228 0 0 1-5.1-12.3c0-4.64 1.8-9 5.1-12.28 3.28-3.3 7.64-5.1 12.28-5.1s9.02 1.8 12.3 5.1l104.64 104.64z" fill="#F8D3C9" p-id="45644"></path><path d="M424.16 162.06a34.464 34.464 0 0 0-4.12 16.36v160.42c0 6.82-2.64 13.22-7.46 18.04a25.32 25.32 0 0 1-18.04 7.46h-27.6c6.82 0 13.22-2.64 18.04-7.46a25.32 25.32 0 0 0 7.46-18.04V178.42c0-5.92 1.5-11.48 4.12-16.36l-103.04-103.04c0.44-0.56 0.9-1.1 1.42-1.6 3.28-3.3 7.64-5.1 12.28-5.1s9.02 1.8 12.3 5.1l104.64 104.64zM184.3 643.56c4.88 2.62 10.44 4.12 16.36 4.12h160.42c6.82 0 13.22 2.64 18.04 7.46a25.32 25.32 0 0 1 7.46 18.04v27.6c0-6.82-2.64-13.22-7.46-18.04a25.32 25.32 0 0 0-18.04-7.46h-160.42c-5.92 0-11.48-1.5-16.36-4.12L81.26 774.2c-0.56-0.44-1.1-0.9-1.6-1.42-3.3-3.28-5.1-7.64-5.1-12.28s1.8-9.02 5.1-12.3l104.64-104.64zM599.74 861.932c2.62-4.88 4.12-10.44 4.12-16.36v-160.38-0.04c0-6.82 2.64-13.22 7.46-18.04a25.32 25.32 0 0 1 18.04-7.46h27.6c-6.82 0-13.22 2.64-18.04 7.46a25.32 25.32 0 0 0-7.46 18.04v160.42c0 5.92-1.5 11.48-4.12 16.36l103.04 103.04c-0.44 0.56-0.9 1.1-1.42 1.6-3.28 3.3-7.64 5.1-12.28 5.1s-9.02-1.8-12.3-5.1l-104.64-104.64zM839.69 380.44a34.464 34.464 0 0 0-16.36-4.12h-160.42c-6.82 0-13.22-2.64-18.04-7.46a25.32 25.32 0 0 1-7.46-18.04v-27.6c0 6.82 2.64 13.22 7.46 18.04a25.32 25.32 0 0 0 18.04 7.46h160.42c5.92 0 11.48 1.5 16.36 4.12l103.04-103.04c0.56 0.44 1.1 0.9 1.6 1.42 3.3 3.28 5.1 7.64 5.1 12.28s-1.8 9.02-5.1 12.3l-104.64 104.64zM534.46 799v3.52c-0.18 0.162-0.28 0.328-0.28 0.498v28.322h-127.86V799h128.14z" fill="#23130D" opacity=".2" p-id="45645"></path></svg>