<?xml version="1.0" standalone="no"?><!DOCTYPE svg PUBLIC "-//W3C//DTD SVG 1.1//EN" "http://www.w3.org/Graphics/SVG/1.1/DTD/svg11.dtd"><svg t="1625812299773" class="icon" viewBox="0 0 1024 1024" version="1.1" xmlns="http://www.w3.org/2000/svg" p-id="59605" xmlns:xlink="http://www.w3.org/1999/xlink" width="200" height="200"><defs><style type="text/css"></style></defs><path d="M829.24 473.44l-69.46-149c27.42-18.14 38.24-54.2 23.92-84.88-14.3-30.68-48.88-45.58-80.4-36.22l-69.48-149c-4.3-9.24-13.68-15.2-23.86-15.2a26 26 0 0 0-11.12 2.46l-9.02 4.2c-12.82 6-18.54 21.08-13.12 34.02-68.24 150.52-205.92 223.64-210.32 225.94l-163.98 76.46c0 0.02-0.02 0.02-0.02 0.02-58.14 27.12-83.38 96.48-56.26 154.64 19.72 42.3 61.8 67.18 105.64 67.18 13.28 0 26.72-2.32 39.74-7.1l33.26 71.32-61.96 28.9c-0.08 0.04-0.14 0.1-0.22 0.14-0.34 0.16-0.66 0.36-0.98 0.58-0.24 0.14-0.48 0.3-0.72 0.48-0.26 0.2-0.5 0.44-0.74 0.66-0.24 0.24-0.48 0.46-0.68 0.7-0.2 0.22-0.36 0.48-0.54 0.72-0.2 0.3-0.42 0.6-0.6 0.9-0.04 0.08-0.1 0.16-0.16 0.24l-16.74 31.96c-7.24-7.22-17.2-11.52-27.76-11.52-5.74 0-11.32 1.24-16.56 3.68a38.914 38.914 0 0 0-20.26 22.14c-3.6 9.84-3.12 20.48 1.3 29.98l85.98 184.36c6.4 13.76 20.38 22.66 35.56 22.66 5.74 0 11.32-1.24 16.54-3.68 12.56-5.84 20.52-17.54 22.26-30.32 0.68 0.26 1.32 0.58 2 0.82 5.8 2.12 11.8 3.16 17.78 3.16a52 52 0 0 0 21.92-4.88l150.14-70.02c0.34-0.16 0.62-0.36 0.94-0.56 9.28-4.9 16.36-12.94 19.98-22.88a41.968 41.968 0 0 0-1.4-32.36 42.092 42.092 0 0 0-20.5-20.48 42.68 42.68 0 0 0 6.04-11.12c3.86-10.62 3.38-22.1-1.4-32.38-4.3-9.2-11.52-16.12-20.04-20.22 9.98-12.4 12.98-29.8 6.06-44.62-4.1-8.78-11.14-15.46-19.52-19.54 3.4-3.88 6.1-8.38 7.92-13.38 3.88-10.64 3.38-22.12-1.4-32.38-4.78-10.24-13.26-18.02-23.9-21.88-9.74-3.56-20.2-3.38-29.78 0.36l-7.48-16.1 44.74-20.86a9.94 9.94 0 0 0 5.16-5.64c0.92-2.5 0.8-5.24-0.32-7.64l-21.08-45.18c35.26-12.48 161.5-50.58 298.64-12.28 4.5 8.72 13.56 14.3 23.42 14.3 3.84 0 7.58-0.84 11.1-2.48l9-4.2c6.38-2.96 11.22-8.24 13.62-14.86 2.42-6.6 2.1-13.76-0.88-20.12zM765.58 248c9.64 20.66 3.08 44.78-14.4 58.02l-39.3-84.26c21.38-4.88 44.06 5.6 53.7 26.24zM292.22 575.08c-48.14 22.38-105.54 1.48-127.98-46.66-22.44-48.16-1.54-105.6 46.62-128.06 0 0 0-0.02 0.02-0.02l155.1-72.32 81.46 174.68-44.66 20.82c-0.02 0.02-0.06 0.02-0.08 0.04l-110.4 51.46c-0.02 0.02-0.04 0.04-0.08 0.06z m17.6 13.86l92.28-43.02 21.32 45.74c0.02 0.06 0.02 0.1 0.04 0.14 0.04 0.06 0.08 0.12 0.1 0.18l11.58 24.84-92.26 43.02-33.06-70.9z m-2.04 374.12c-2.58 1.2-5.3 1.8-8.1 1.8-7.44 0-14.3-4.36-17.44-11.1l-85.98-184.38a19.166 19.166 0 0 1-0.64-14.68 19.164 19.164 0 0 1 9.94-10.86c2.58-1.2 5.3-1.8 8.1-1.8 7.46 0 14.3 4.36 17.44 11.1l85.98 184.36c4.48 9.62 0.3 21.08-9.3 25.56z m144.82-332.32c0.02 0 0.04 0 0.06-0.02 0.02 0 0.04-0.02 0.06-0.02l6.46-3.02c5.42-2.52 11.48-2.8 17.08-0.76 5.62 2.04 10.08 6.14 12.6 11.56a22.2 22.2 0 0 1 0.76 17.08c-2.04 5.6-6.14 10.08-11.56 12.6l-39.86 18.6a9.988 9.988 0 0 0-4.84 13.28 9.994 9.994 0 0 0 13.3 4.84l24.58-11.46a23.7 23.7 0 0 1 10.02-2.22c8.64 0 16.94 4.68 20.62 12.58 5.12 10.98-0.26 24.78-11.76 30.14l-33.22 15.46a9.988 9.988 0 0 0-4.84 13.28 10 10 0 0 0 9.06 5.78c1.42 0 2.86-0.3 4.22-0.92l20.76-9.68c0.02 0 0.04 0 0.06-0.02 11.16-5.2 24.48-0.34 29.7 10.8 2.5 5.4 2.76 11.48 0.72 17.08a22.112 22.112 0 0 1-11.56 12.6l-33.22 15.48a10.034 10.034 0 0 0-4.84 13.3 10.028 10.028 0 0 0 9.08 5.78c1.42 0 2.84-0.3 4.22-0.94l21.72-10.14h0.04c5.4-2.52 11.48-2.8 17.08-0.74 5.6 2.04 10.08 6.14 12.62 11.56 2.52 5.4 2.78 11.46 0.74 17.06-2.04 5.6-6.16 10.08-11.56 12.6l-0.02 0.02-149.16 69.54c-7.72 3.6-16.4 3.98-24.4 1.08a31.72 31.72 0 0 1-18.02-16.5l-75.86-162.68 20.88-39.84 178.28-83.14z m-15.22-56.46l-17.16-36.82 35.68-16.64 17.16 36.82-35.68 16.64z m118.28-102.5c-43.24 7.28-75.1 17.7-89.82 23.06l-82-175.88c13.56-7.82 42.04-25.52 75.4-53.98 38.86-33.14 91.24-87.22 128.38-161.6l174.36 373.92c-80.86-19.36-155.94-14-206.32-5.52z m255.68 14.94c-0.58 1.6-1.74 2.86-3.28 3.58l-9 4.2c-3.12 1.46-6.98-0.02-8.42-3.06L595.22 72.34a6.318 6.318 0 0 1 3.06-8.4l9.02-4.2c0.84-0.4 1.74-0.6 2.66-0.6 2.44 0 4.7 1.44 5.74 3.66l73.36 157.32c0 0.02 0.02 0.04 0.02 0.06 0 0.02 0.02 0.02 0.02 0.04l48.62 104.26c0.02 0.02 0.02 0.02 0.02 0.04l0.02 0.02 73.36 157.34c0.72 1.54 0.8 3.26 0.22 4.84z" fill="#23130D" p-id="59606"></path><path d="M751.18 306.02l-39.3-84.26c21.38-4.88 44.06 5.6 53.7 26.24 9.64 20.66 3.08 44.78-14.4 58.02z" fill="#E1E1E5" p-id="59607"></path><path d="M751.18 306.02l-3.52-7.52c7.46-12.98 8.72-29.28 1.92-43.84-6.8-14.54-20.08-24.04-34.8-26.66l-2.9-6.24c21.38-4.88 44.06 5.6 53.7 26.24 9.64 20.66 3.08 44.78-14.4 58.02z" opacity=".2" p-id="59608"></path><path d="M811.34 486.72c-0.58 1.6-1.74 2.86-3.28 3.58l-9 4.2c-3.12 1.46-6.98-0.02-8.42-3.06L595.22 72.34a6.318 6.318 0 0 1 3.06-8.4l9.02-4.2c0.84-0.4 1.74-0.6 2.66-0.6 2.44 0 4.7 1.44 5.74 3.66l73.36 157.32c0 0.02 0.02 0.04 0.02 0.06 0 0.02 0.02 0.02 0.02 0.04l48.62 104.26c0.02 0.02 0.02 0.02 0.02 0.04l0.02 0.02 73.36 157.34c0.72 1.54 0.8 3.26 0.22 4.84z" fill="#636368" p-id="59609"></path><path d="M307.78 963.06c-2.58 1.2-5.3 1.8-8.1 1.8-7.44 0-14.3-4.36-17.44-11.1l-85.98-184.38a19.166 19.166 0 0 1-0.64-14.68 19.164 19.164 0 0 1 9.94-10.86c2.58-1.2 5.3-1.8 8.1-1.8 7.46 0 14.3 4.36 17.44 11.1l85.98 184.36c4.48 9.62 0.3 21.08-9.3 25.56z" fill="#3594BF" p-id="59610"></path><path d="M307.78 963.06c-0.18 0.08-0.34 0.16-0.52 0.22a19.102 19.102 0 0 0-0.2-15.76l-85.98-184.36a19.296 19.296 0 0 0-17.44-11.1c-2.62 0-5.16 0.52-7.58 1.58 1.86-4.34 5.2-7.78 9.5-9.8 2.58-1.2 5.3-1.8 8.1-1.8 7.46 0 14.3 4.36 17.44 11.1l85.98 184.36c4.48 9.62 0.3 21.08-9.3 25.56z" fill="#FFFFFF" opacity=".4" p-id="59611"></path><path d="M532.46 849.66c-2.04 5.6-6.16 10.08-11.56 12.6l-0.02 0.02-149.16 69.54c-7.72 3.6-16.4 3.98-24.4 1.08a31.72 31.72 0 0 1-18.02-16.5l-75.86-162.68 20.88-39.84 178.28-83.14c0.02 0 0.04 0 0.06-0.02 0.02 0 0.04-0.02 0.06-0.02l6.46-3.02c5.42-2.52 11.48-2.8 17.08-0.76 5.62 2.04 10.08 6.14 12.6 11.56a22.2 22.2 0 0 1 0.76 17.08c-2.04 5.6-6.14 10.08-11.56 12.6l-39.86 18.6a9.988 9.988 0 0 0-4.84 13.28 9.994 9.994 0 0 0 13.3 4.84l24.58-11.46a23.7 23.7 0 0 1 10.02-2.22c8.64 0 16.94 4.68 20.62 12.58 5.12 10.98-0.26 24.78-11.76 30.14l-33.22 15.46a9.988 9.988 0 0 0-4.84 13.28 10 10 0 0 0 9.06 5.78c1.42 0 2.86-0.3 4.22-0.92l20.76-9.68c0.02 0 0.04 0 0.06-0.02 11.16-5.2 24.48-0.34 29.7 10.8 2.5 5.4 2.76 11.48 0.72 17.08a22.112 22.112 0 0 1-11.56 12.6l-33.22 15.48a10.034 10.034 0 0 0-4.84 13.3 10.028 10.028 0 0 0 9.08 5.78c1.42 0 2.84-0.3 4.22-0.94l21.72-10.14h0.04c5.4-2.52 11.48-2.8 17.08-0.74 5.6 2.04 10.08 6.14 12.62 11.56 2.52 5.4 2.78 11.46 0.74 17.06z" fill="#F8D3C9" p-id="59612"></path><path d="M298.32 703.88l-20.88 39.84 75.86 162.68c3.6 7.72 10 13.58 18.02 16.5 5.36 1.94 11 2.42 16.48 1.42l-16.08 7.5c-7.72 3.6-16.4 3.98-24.4 1.08a31.72 31.72 0 0 1-18.02-16.5l-75.86-162.68 20.88-39.84 178.28-83.14c0.02 0 0.04 0 0.06-0.02 0.02 0 0.04-0.02 0.06-0.02l6.46-3.02c2.16-1 4.4-1.64 6.68-1.94l-167.54 78.14z" opacity=".2" p-id="59613"></path><path d="M435.14 616.82l-92.26 43.02-33.06-70.9 92.28-43.02 21.32 45.74c0.02 0.06 0.02 0.1 0.04 0.14 0.04 0.06 0.08 0.12 0.1 0.18l11.58 24.84z" fill="#E1E1E5" p-id="59614"></path><path d="M324.82 594.94l28.08 60.22-10.02 4.68-33.06-70.9 92.28-43.02 4.98 10.68z" opacity=".2" p-id="59615"></path><path d="M447.44 502.7l-44.66 20.82c-0.02 0.02-0.06 0.02-0.08 0.04l-110.4 51.46c-0.02 0.02-0.04 0.04-0.08 0.06-48.14 22.38-105.54 1.48-127.98-46.66-22.44-48.16-1.54-105.6 46.62-128.06 0 0 0-0.02 0.02-0.02l155.1-72.32 81.46 174.68z" fill="#EC7063" p-id="59616"></path><path d="M360.176 343.966l71.316 152.928-33.224 15.488-2.042 0.686-0.506 0.504-108.49 50.57-1.71 0.798a83.374 83.374 0 0 1-33.79 7.118c-32.748 0-62.82-19.12-76.612-48.706-19.646-42.164-1.336-92.458 40.814-112.116l6.928-3.232v-0.01l137.316-64.028m5.804-15.946l-155.1 72.32c-0.02 0-0.02 0.02-0.02 0.02-48.16 22.46-69.06 79.9-46.62 128.06 16.33 35.032 51.172 55.638 87.49 55.638a95.852 95.852 0 0 0 40.49-8.978c0.04-0.02 0.06-0.04 0.08-0.06l110.4-51.46c0.02-0.02 0.06-0.02 0.08-0.04l44.66-20.82-81.46-174.68z" opacity=".2" p-id="59617"></path><path d="M761.98 477.3c-80.86-19.36-155.94-14-206.32-5.52-43.24 7.28-75.1 17.7-89.82 23.06l-82-175.88c13.56-7.82 42.04-25.52 75.4-53.98 38.86-33.14 91.24-87.22 128.38-161.6l174.36 373.92z" fill="#E1E1E5" p-id="59618"></path><path d="M761.98 477.3c-0.24-0.06-0.48-0.12-0.72-0.16L595.68 122.04c-37.14 74.38-89.52 128.46-128.38 161.6-32.96 28.12-61.14 45.72-74.9 53.68l-8.56-18.36c13.56-7.82 42.04-25.52 75.4-53.98 38.86-33.14 91.24-87.22 128.38-161.6l174.36 373.92z" opacity=".2" p-id="59619"></path><path d="M884.12 600.92c4.12-4.04 5.66-9.34 4.08-14.18-1.56-4.82-5.92-8.22-11.64-9.04l-27.38-3.98c-0.86-0.18-2.58-1.42-3-2.16l-12.24-24.84c-2.56-5.18-7.14-8.28-12.22-8.28-5.08 0-9.64 3.1-12.22 8.3l-12.22 24.78c-0.44 0.78-2.16 2.02-2.98 2.2l-27.4 3.98c-5.74 0.82-10.08 4.22-11.66 9.04-1.58 4.84-0.04 10.14 4.1 14.18l19.8 19.3c0.6 0.66 1.26 2.68 1.16 3.52l-4.68 27.28c-0.78 4.56 0.22 8.78 2.84 11.86 2.36 2.8 5.88 4.42 9.64 4.42 2.42 0 4.88-0.64 7.28-1.92l24.48-12.86c0.16-0.08 0.84-0.28 1.86-0.28 1.04 0 1.72 0.2 1.84 0.26l24.5 12.88c2.42 1.28 4.86 1.92 7.3 1.92 3.76 0 7.28-1.62 9.64-4.42 2.6-3.08 3.6-7.3 2.82-11.86l-4.68-27.24c-0.1-0.88 0.56-2.9 1.14-3.54l19.84-19.32z m-33.8 5c-5.22 5.1-8.12 14.02-6.88 21.2l2.48 14.54-13.06-6.86c-4-2.12-8.26-2.56-11.14-2.56-2.86 0-7.12 0.44-11.14 2.56l-13.06 6.86 2.5-14.54c1.22-7.18-1.66-16.1-6.88-21.2l-10.58-10.3 14.62-2.12c7.2-1.04 14.78-6.54 18.02-13.1l6.52-13.22 6.54 13.24c3.22 6.52 10.8 12.04 18.02 13.08l14.6 2.12-10.56 10.3z" fill="#23130D" p-id="59620"></path><path d="M850.32 605.92c-5.22 5.1-8.12 14.02-6.88 21.2l2.48 14.54-13.06-6.86c-4-2.12-8.26-2.56-11.14-2.56-2.86 0-7.12 0.44-11.14 2.56l-13.06 6.86 2.5-14.54c1.22-7.18-1.66-16.1-6.88-21.2l-10.58-10.3 14.62-2.12c7.2-1.04 14.78-6.54 18.02-13.1l6.52-13.22 6.54 13.24c3.22 6.52 10.8 12.04 18.02 13.08l14.6 2.12-10.56 10.3z" fill="#F9C139" p-id="59621"></path><path d="M765.56 756.5c4.14-4.04 5.68-9.34 4.1-14.18s-5.92-8.22-11.66-9.04l-27.36-3.98c-0.86-0.18-2.58-1.44-3-2.16l-12.26-24.84c-2.56-5.18-7.12-8.28-12.2-8.28-5.1 0-9.66 3.1-12.22 8.28l-12.22 24.8c-0.44 0.76-2.16 2.02-3 2.18l-27.4 4c-5.72 0.82-10.08 4.2-11.64 9.04-1.58 4.84-0.04 10.14 4.1 14.18l19.8 19.3c0.6 0.66 1.26 2.68 1.16 3.52l-4.68 27.28c-0.78 4.56 0.22 8.76 2.82 11.86 2.36 2.8 5.88 4.42 9.64 4.42 2.44 0 4.88-0.66 7.3-1.92l24.48-12.88c0.16-0.06 0.82-0.26 1.86-0.26 1.02 0 1.7 0.2 1.84 0.26l24.5 12.88c2.4 1.26 4.86 1.92 7.28 1.92 3.78 0 7.28-1.62 9.64-4.42 2.62-3.1 3.62-7.3 2.84-11.86l-4.68-27.26c-0.1-0.86 0.56-2.88 1.14-3.52l19.82-19.32z m-33.8 5c-5.22 5.1-8.1 14-6.88 21.2l2.5 14.54-13.06-6.86c-4.02-2.12-8.28-2.56-11.14-2.56-2.86 0-7.12 0.44-11.14 2.56l-13.06 6.86 2.48-14.54c1.24-7.18-1.64-16.1-6.88-21.2l-10.56-10.3 14.6-2.12c7.22-1.04 14.8-6.56 18.04-13.1l6.52-13.22 6.52 13.22c3.24 6.54 10.82 12.06 18.04 13.1l14.6 2.12-10.58 10.3z" fill="#23130D" p-id="59622"></path><path d="M731.76 761.5c-5.22 5.1-8.1 14-6.88 21.2l2.5 14.54-13.06-6.86c-4.02-2.12-8.28-2.56-11.14-2.56-2.86 0-7.12 0.44-11.14 2.56l-13.06 6.86 2.48-14.54c1.24-7.18-1.64-16.1-6.88-21.2l-10.56-10.3 14.6-2.12c7.22-1.04 14.8-6.56 18.04-13.1l6.52-13.22 6.52 13.22c3.24 6.54 10.82 12.06 18.04 13.1l14.6 2.12-10.58 10.3z" fill="#F9C139" p-id="59623"></path><path d="M682.78 582.16c4.14-4.04 5.68-9.34 4.1-14.18-1.56-4.84-5.92-8.22-11.64-9.06l-27.38-3.96c-0.86-0.18-2.58-1.44-3-2.18l-12.26-24.82c-2.56-5.18-7.12-8.28-12.2-8.28-5.1 0-9.66 3.1-12.22 8.28l-12.22 24.8c-0.44 0.76-2.16 2.02-3 2.18l-27.4 3.98c-5.72 0.84-10.08 4.22-11.64 9.06-1.58 4.84-0.04 10.14 4.1 14.18l19.8 19.3c0.6 0.64 1.26 2.68 1.16 3.52l-4.68 27.28c-0.78 4.56 0.22 8.76 2.82 11.86 2.38 2.8 5.88 4.4 9.66 4.4 2.42 0 4.86-0.64 7.28-1.9l24.48-12.88c0.16-0.06 0.82-0.26 1.86-0.26 1.02 0 1.7 0.2 1.84 0.26l24.5 12.88c2.42 1.26 4.86 1.9 7.28 1.9 3.78 0 7.28-1.6 9.66-4.4 2.6-3.1 3.6-7.3 2.82-11.86l-4.68-27.26c-0.1-0.88 0.56-2.9 1.14-3.52l19.82-19.32z m-33.78 5c-5.24 5.1-8.12 14.02-6.9 21.2l2.5 14.54-13.06-6.86c-4.02-2.12-8.28-2.56-11.14-2.56s-7.12 0.44-11.14 2.56l-13.06 6.86 2.5-14.54c1.22-7.2-1.68-16.1-6.9-21.2l-10.56-10.3 14.6-2.12c7.22-1.06 14.8-6.56 18.04-13.1l6.52-13.22 6.52 13.22c3.24 6.54 10.82 12.04 18.04 13.1l14.6 2.12-10.56 10.3z" fill="#23130D" p-id="59624"></path><path d="M649 587.16c-5.24 5.1-8.12 14.02-6.9 21.2l2.5 14.54-13.06-6.86c-4.02-2.12-8.28-2.56-11.14-2.56s-7.12 0.44-11.14 2.56l-13.06 6.86 2.5-14.54c1.22-7.2-1.68-16.1-6.9-21.2l-10.56-10.3 14.6-2.12c7.22-1.06 14.8-6.56 18.04-13.1l6.52-13.22 6.52 13.22c3.24 6.54 10.82 12.04 18.04 13.1l14.6 2.12-10.56 10.3z" fill="#F9C139" p-id="59625"></path><path d="M620.4 548.42l5.16 10.46-2.68 5.42c-3.24 6.54-10.82 12.04-18.04 13.1l-14.6 2.12 10.56 10.3c5.22 5.1 8.12 14 6.9 21.2l-1.1 6.42-10.4 5.46 2.5-14.54c1.22-7.2-1.68-16.1-6.9-21.2l-10.56-10.3 14.6-2.12c7.22-1.06 14.8-6.56 18.04-13.1l6.52-13.22zM703.18 722.76l5.16 10.46-2.68 5.42c-3.24 6.54-10.82 12.04-18.04 13.1l-14.6 2.12 10.56 10.3c5.22 5.1 8.12 14 6.9 21.2l-1.1 6.42-10.4 5.46 2.5-14.54c1.22-7.2-1.68-16.1-6.9-21.2l-10.56-10.3 14.6-2.12c7.22-1.06 14.8-6.56 18.04-13.1l6.52-13.22zM821.72 567.18l5.16 10.46-2.68 5.42c-3.24 6.54-10.82 12.04-18.04 13.1l-14.6 2.12 10.56 10.3c5.22 5.1 8.12 14 6.9 21.2l-1.1 6.42-10.4 5.46 2.5-14.54c1.22-7.2-1.68-16.1-6.9-21.2l-10.56-10.3 14.6-2.12c7.22-1.06 14.8-6.56 18.04-13.1l6.52-13.22z" opacity=".2" p-id="59626"></path></svg>