<?xml version="1.0" standalone="no"?><!DOCTYPE svg PUBLIC "-//W3C//DTD SVG 1.1//EN" "http://www.w3.org/Graphics/SVG/1.1/DTD/svg11.dtd"><svg t="1625811914994" class="icon" viewBox="0 0 1024 1024" version="1.1" xmlns="http://www.w3.org/2000/svg" p-id="43853" xmlns:xlink="http://www.w3.org/1999/xlink" width="200" height="200"><defs><style type="text/css"></style></defs><path d="M663.64 379.12C630.14 349.02 522 243.16 522 132c0-5.52-4.48-10-10-10s-10 4.48-10 10c0 111.18-108.14 217.04-141.66 247.12-4.46 3.6-8.84 7.38-13.04 11.26-49.34 45.76-77.66 110.54-77.66 177.78 0 133.64 108.72 242.36 242.36 242.36s242.36-108.72 242.36-242.36c0-73.86-33.06-142.74-90.72-189.04zM512 790.52c-122.6 0-222.36-99.76-222.36-222.36 0-61.68 25.98-121.14 71.26-163.1 3.92-3.64 8.02-7.16 12.18-10.5l0.42-0.36c19.12-17.16 56.02-52.82 88.18-98.76 23.78-33.98 40.58-67.16 50.32-99.26 9.74 32.08 26.54 65.28 50.32 99.26 32.14 45.94 69.04 81.58 88.18 98.76l0.42 0.36c53.02 42.48 83.44 105.76 83.44 173.6 0 122.6-99.76 222.36-222.36 222.36z" fill="#23130D" p-id="43854"></path><path d="M734.36 568.16c0 122.6-99.76 222.36-222.36 222.36s-222.36-99.76-222.36-222.36c0-61.68 25.98-121.14 71.26-163.1 3.92-3.64 8.02-7.16 12.18-10.5l0.42-0.36c19.12-17.16 56.02-52.82 88.18-98.76 23.78-33.98 40.58-67.16 50.32-99.26 9.74 32.08 26.54 65.28 50.32 99.26 32.14 45.94 69.04 81.58 88.18 98.76l0.42 0.36c53.02 42.48 83.44 105.76 83.44 173.6z" fill="#3594BF" p-id="43855"></path><path d="M538 789c-8.52 1-17.2 1.52-26 1.52-122.6 0-222.36-99.76-222.36-222.36 0-61.68 25.98-121.14 71.26-163.1 3.92-3.64 8.02-7.16 12.18-10.5l0.42-0.36c19.12-17.16 56.02-52.82 88.18-98.76 23.78-33.98 40.58-67.16 50.32-99.26 6 19.74 14.66 39.92 26 60.44-7.06 12.8-15.18 25.74-24.32 38.82-32.16 45.94-69.06 81.6-88.18 98.76l-0.42 0.36c-4.16 3.34-8.26 6.86-12.18 10.5-45.28 41.96-71.26 101.42-71.26 163.1 0 113.8 85.96 207.92 196.36 220.84z" fill="#FFFFFF" opacity=".4" p-id="43856"></path><path d="M734.36 568.16c0 122.6-99.76 222.36-222.36 222.36-8.8 0-17.48-0.52-26-1.52 110.4-12.92 196.36-107.04 196.36-220.84 0-67.84-30.42-131.12-83.44-173.6l-0.42-0.36c-19.14-17.18-56.04-52.82-88.18-98.76-9.14-13.08-17.26-26.02-24.32-38.82 11.34-20.52 20-40.68 26-60.44 9.74 32.08 26.54 65.28 50.32 99.26 32.14 45.94 69.04 81.58 88.18 98.76l0.42 0.36c53.02 42.48 83.44 105.76 83.44 173.6z" opacity=".2" p-id="43857"></path><path d="M888.492 278.268c-46.55-65.226-109.164-115.58-182.12-146.724l57.022-24.43a10 10 0 0 0-7.874-18.384l-79.18 33.922c-3.326 1.426-5.45 4.448-5.93 7.786-0.028 0.18-0.032 0.36-0.05 0.54a9.556 9.556 0 0 0-0.056 1.198c0.008 0.494 0.072 0.978 0.152 1.46 0.016 0.092 0.022 0.182 0.042 0.274 0.186 0.948 0.5 1.856 0.946 2.708l33.564 78.342a10.004 10.004 0 0 0 13.13 5.254 10 10 0 0 0 5.254-13.13l-24.388-56.926c150.266 64.528 249.652 213.88 249.652 378.884 0 172.976-109.222 328.756-271.786 387.638a10 10 0 0 0 6.812 18.804c82.678-29.948 153.5-83.778 204.808-155.67 52.444-73.482 80.164-160.198 80.164-250.774s-27.718-177.29-80.162-250.772zM353.696 891.824a9.926 9.926 0 0 0-0.152-1.464c-0.016-0.09-0.022-0.18-0.04-0.27a9.994 9.994 0 0 0-0.948-2.714l-33.562-78.338a9.996 9.996 0 0 0-13.13-5.254 9.996 9.996 0 0 0-5.252 13.128l24.39 56.926C174.732 809.316 75.344 659.964 75.344 494.958c0-172.976 109.222-328.756 271.784-387.638a10 10 0 1 0-6.81-18.806c-82.678 29.948-153.5 83.776-204.81 155.668-52.444 73.482-80.164 160.198-80.164 250.774s27.72 177.292 80.164 250.776c46.55 65.224 109.164 115.58 182.12 146.722l-57.022 24.432a10 10 0 1 0 7.878 18.382l79.178-33.924c3.328-1.424 5.45-4.446 5.928-7.786 0.028-0.18 0.03-0.356 0.05-0.536a9.52 9.52 0 0 0 0.056-1.198z" fill="#23130D" p-id="43858"></path></svg>