<?xml version="1.0" standalone="no"?><!DOCTYPE svg PUBLIC "-//W3C//DTD SVG 1.1//EN" "http://www.w3.org/Graphics/SVG/1.1/DTD/svg11.dtd"><svg t="1625812305513" class="icon" viewBox="0 0 1024 1024" version="1.1" xmlns="http://www.w3.org/2000/svg" p-id="59921" xmlns:xlink="http://www.w3.org/1999/xlink" width="200" height="200"><defs><style type="text/css"></style></defs><path d="M947.1 883.2H165.2c-1.32 0-2.66 0.24-3.96 0.78l-88.14 36.86-0.06 0.02c-0.14 0.06-0.26 0.16-0.4 0.22-0.46 0.22-0.9 0.44-1.32 0.72-0.24 0.16-0.44 0.36-0.66 0.52-0.28 0.24-0.58 0.46-0.84 0.72-0.22 0.22-0.42 0.5-0.62 0.74-0.22 0.26-0.44 0.48-0.62 0.76-0.24 0.38-0.44 0.78-0.64 1.18-0.08 0.18-0.2 0.34-0.28 0.52v0.04c-0.26 0.6-0.44 1.22-0.58 1.88-0.04 0.26-0.04 0.52-0.08 0.8-0.04 0.38-0.1 0.76-0.1 1.14s0.06 0.76 0.1 1.14c0.04 0.26 0.04 0.54 0.08 0.8 0.14 0.64 0.32 1.28 0.58 1.88v0.04c0.24 0.54 0.52 1.04 0.82 1.52 0.08 0.12 0.18 0.24 0.26 0.36 0.26 0.36 0.54 0.72 0.84 1.04 0.12 0.12 0.24 0.26 0.36 0.38 0.36 0.34 0.72 0.64 1.1 0.92l0.28 0.22c0.5 0.32 1.04 0.62 1.58 0.86 0.06 0.02 0.08 0.04 0.14 0.06l88.2 36.9c1.26 0.52 2.58 0.78 3.86 0.78 0.06 0 0.12-0.02 0.18-0.02h742.36c0.06 0 0.12 0.02 0.18 0.02h0.04l39.24-0.02c1.22 0 2.36-0.24 3.42-0.64 0.16-0.04 0.32-0.08 0.48-0.14 0.14-0.06 0.24-0.14 0.38-0.2a9.96 9.96 0 0 0 5.72-9.02V893.2c0-5.52-4.48-10-10-10z m-792 68.78L102.8 930.1l52.3-21.88v43.76z m742.72 5H175.1v-16.88h722.72v16.88z m0-36.88H175.1v-16.9h722.72v16.9z m39.28 36.88h-19.28l-0.02-26.88 0.02-26.9h19.28v53.78z" fill="#23130D" p-id="59922"></path><path d="M937.1 903.2v53.78h-19.28l-0.02-26.88 0.02-26.9z" fill="#EC7063" p-id="59923"></path><path d="M937.1 932v24.98h-19.28l-0.02-12.486 0.02-12.494z" opacity=".2" p-id="59924"></path><path d="M175.1 940.1h722.72v16.88H175.1z" fill="#F9C139" p-id="59925"></path><path d="M175.1 940.1h722.72v16.88H175.1z" opacity=".2" p-id="59926"></path><path d="M175.1 903.2h722.72v16.9H175.1z" fill="#F9C139" p-id="59927"></path><path d="M155.1 908.22v43.76L102.8 930.1z" fill="#E1E1E5" p-id="59928"></path><path d="M155.1 936.98v15L102.8 930.1l17.92-7.5z" opacity=".2" p-id="59929"></path><path d="M947.1 700.58H76.9c-5.52 0-10 4.48-10 10v128.7c0 5.54 4.48 10 10 10h870.2c5.52 0 10-4.46 10-10v-128.7c0-5.52-4.48-10-10-10z m-10 128.7H86.9v-108.7h41.76v54.36c0 5.52 4.48 10 10 10s10-4.48 10-10v-54.36H182v28.28c0 5.52 4.48 10 10 10s10-4.48 10-10v-28.28h33.34v54.36c0 5.52 4.46 10 10 10 5.52 0 10-4.48 10-10v-54.36h33.32v28.28c0 5.52 4.48 10 10 10s10-4.48 10-10v-28.28H342v54.36c0 5.52 4.48 10 10 10s10-4.48 10-10v-54.36h33.34v28.28c0 5.52 4.46 10 10 10 5.52 0 10-4.48 10-10v-28.28h33.32v54.36c0 5.52 4.48 10 10 10s10-4.48 10-10v-54.36H502v28.28c0 5.52 4.48 10 10 10s10-4.48 10-10v-28.28h33.32v54.36c0 5.52 4.48 10 10 10 5.54 0 10-4.48 10-10v-54.36h33.34v28.28c0 5.52 4.48 10 10 10s10-4.48 10-10v-28.28H662v54.36c0 5.52 4.48 10 10 10s10-4.48 10-10v-54.36h33.32v28.28c0 5.52 4.48 10 10 10 5.54 0 10-4.48 10-10v-28.28h33.34v54.36c0 5.52 4.48 10 10 10s10-4.48 10-10v-54.36H822v28.28c0 5.52 4.48 10 10 10s10-4.48 10-10v-28.28h33.34v54.36c0 5.52 4.48 10 10 10s10-4.48 10-10v-54.36h41.76v108.7z" fill="#23130D" p-id="59930"></path><path d="M937.1 720.58v108.7H86.9v-108.7h41.76v54.36c0 5.52 4.48 10 10 10s10-4.48 10-10v-54.36H182v28.28c0 5.52 4.48 10 10 10s10-4.48 10-10v-28.28h33.34v54.36c0 5.52 4.46 10 10 10 5.52 0 10-4.48 10-10v-54.36h33.32v28.28c0 5.52 4.48 10 10 10s10-4.48 10-10v-28.28H342v54.36c0 5.52 4.48 10 10 10s10-4.48 10-10v-54.36h33.34v28.28c0 5.52 4.46 10 10 10 5.52 0 10-4.48 10-10v-28.28h33.32v54.36c0 5.52 4.48 10 10 10s10-4.48 10-10v-54.36H502v28.28c0 5.52 4.48 10 10 10s10-4.48 10-10v-28.28h33.32v54.36c0 5.52 4.48 10 10 10 5.54 0 10-4.48 10-10v-54.36h33.34v28.28c0 5.52 4.48 10 10 10s10-4.48 10-10v-28.28H662v54.36c0 5.52 4.48 10 10 10s10-4.48 10-10v-54.36h33.32v28.28c0 5.52 4.48 10 10 10 5.54 0 10-4.48 10-10v-28.28h33.34v54.36c0 5.52 4.48 10 10 10s10-4.48 10-10v-54.36H822v28.28c0 5.52 4.48 10 10 10s10-4.48 10-10v-28.28h33.34v54.36c0 5.52 4.48 10 10 10s10-4.48 10-10v-54.36h41.76z" fill="#EC7063" p-id="59931"></path><path d="M86.9 809.28h850.2v20H86.9z" opacity=".2" p-id="59932"></path><path d="M862.88 47c-48.58 0-88.68 36.96-93.68 84.22H76.9c-5.52 0-10 4.48-10 10V648.2c0 5.52 4.48 10 10 10h785.98c51.96 0 94.22-42.26 94.22-94.22V141.22c0-51.94-42.26-94.22-94.22-94.22z m0 591.2H86.9V151.22h681.76v412.76c0 2.76 1.12 5.26 2.94 7.06 1.8 1.82 4.3 2.94 7.06 2.94 5.52 0 10-4.48 10-10 0-40.92 33.3-74.22 74.22-74.22s74.22 33.3 74.22 74.22c0 40.94-33.3 74.22-74.22 74.22z m74.22-132.16c-17.26-22.06-44.1-36.28-74.22-36.28s-56.96 14.22-74.22 36.28V141.22c0-40.92 33.3-74.22 74.22-74.22s74.22 33.3 74.22 74.22v364.82z" fill="#23130D" p-id="59933"></path><path d="M937.1 141.22v364.82c-17.26-22.06-44.1-36.28-74.22-36.28s-56.96 14.22-74.22 36.28V141.22c0-40.92 33.3-74.22 74.22-74.22s74.22 33.3 74.22 74.22z" fill="#636368" p-id="59934"></path><path d="M937.1 141.22v364.82c-9.62-12.28-22.2-22.14-36.66-28.46V141.22c0-34.6-23.8-63.74-55.88-71.92 5.86-1.5 12-2.3 18.32-2.3 40.92 0 74.22 33.3 74.22 74.22z" opacity=".2" p-id="59935"></path><path d="M862.88 489.76c-40.92 0-74.22 33.3-74.22 74.22 0 5.52-4.48 10-10 10-2.76 0-5.26-1.12-7.06-2.94-1.82-1.8-2.94-4.3-2.94-7.06V151.22H86.9V638.2h775.98c40.92 0 74.22-33.28 74.22-74.22 0-40.92-33.3-74.22-74.22-74.22z m-208.22 30.9c0 5.52-4.48 10-10 10h-84.22V574c0 5.52-4.48 10-10 10H245.32c-5.52 0-10-4.48-10-10v-84.24H192c-5.52 0-10-4.48-10-10V231.34c0-5.52 4.48-10 10-10h202c5.52 0 10 4.48 10 10v87.76h43.34c5.52 0 10 4.48 10 10v94.24c0 5.52-4.48 10-10 10H404V564h136.44v-43.34c0-5.52 4.48-10 10-10h84.22v-77.32H512c-2.76 0-5.26-1.12-7.08-2.94a9.96 9.96 0 0 1-2.92-7.06v-122.68c0-5.52 4.48-10 10-10h132.66c5.52 0 10 4.48 10 10v220z" fill="#E1E1E5" p-id="59936"></path><path d="M862.88 489.76c-26.98 0-50.66 14.48-63.64 36.08 11.16-6.72 24.2-10.58 38.14-10.58 40.92 0 74.22 33.3 74.22 74.22 0 13.94-3.86 27-10.58 38.14 21.6-12.98 36.08-36.64 36.08-63.64 0-40.92-33.3-74.22-74.22-74.22z" opacity=".2" p-id="59937"></path><path d="M644.66 290.66H512c-5.52 0-10 4.48-10 10v122.68c0 2.76 1.12 5.26 2.92 7.06 1.82 1.82 4.32 2.94 7.08 2.94h122.66v77.32h-84.22c-5.52 0-10 4.48-10 10V564H404v-130.66h43.34c5.52 0 10-4.48 10-10v-94.24c0-5.52-4.48-10-10-10H404v-87.76c0-5.52-4.48-10-10-10H192c-5.52 0-10 4.48-10 10v248.42c0 5.52 4.48 10 10 10h43.32V574c0 5.52 4.48 10 10 10h305.12c5.52 0 10-4.48 10-10v-43.34h84.22c5.52 0 10-4.48 10-10v-220c0-5.52-4.48-10-10-10zM384 423.34V564h-128.68v-84.24c0-5.52-4.48-10-10-10H202V241.34h182v87.76c0 5.52 4.48 10 10 10h43.34v74.24H394c-5.52 0-10 4.48-10 10z m250.66-10H522v-102.68h112.66v102.68z" fill="#23130D" p-id="59938"></path><path d="M522 310.66h112.66v102.68H522zM437.34 339.1v74.24H394c-5.52 0-10 4.48-10 10V564h-128.68v-84.24c0-5.52-4.48-10-10-10H202V241.34h182v87.76c0 5.52 4.48 10 10 10h43.34z" fill="#3594BF" p-id="59939"></path><path d="M624.66 320.66v82.68H532v-82.68h92.66m10-10H522v102.68h112.66v-102.68zM374 251.34v77.76c0 11.028 8.972 20 20 20h33.34v54.24H394c-11.028 0-20 8.972-20 20V554h-108.68v-74.24c0-11.028-8.972-20-20-20H212V251.34h162m10-10h-182v228.42h43.32c5.52 0 10 4.48 10 10V564H384v-140.66c0-5.52 4.48-10 10-10h43.34v-74.24H394c-5.52 0-10-4.48-10-10v-87.76z" opacity=".2" p-id="59940"></path></svg>