<?xml version="1.0" standalone="no"?><!DOCTYPE svg PUBLIC "-//W3C//DTD SVG 1.1//EN" "http://www.w3.org/Graphics/SVG/1.1/DTD/svg11.dtd"><svg t="1625811489289" class="icon" viewBox="0 0 1024 1024" version="1.1" xmlns="http://www.w3.org/2000/svg" p-id="31653" xmlns:xlink="http://www.w3.org/1999/xlink" width="200" height="200"><defs><style type="text/css"></style></defs><path d="M856.82 430.58c0-0.04-0.02-0.08-0.04-0.1-0.12-0.6-0.3-1.2-0.54-1.76-0.04-0.12-0.12-0.2-0.16-0.32-0.22-0.48-0.46-0.94-0.76-1.4l-0.24-0.3c-0.3-0.4-0.6-0.82-0.98-1.18-0.3-0.32-0.66-0.56-0.98-0.82-0.18-0.12-0.34-0.3-0.52-0.42-0.36-0.24-0.74-0.42-1.12-0.6-0.2-0.1-0.4-0.24-0.62-0.32-0.4-0.18-0.82-0.28-1.24-0.38-0.2-0.06-0.4-0.16-0.62-0.2-0.66-0.12-1.32-0.2-1.98-0.2h-260v-14.24h4.92c5.52 0 10-4.48 10-10 0-5.54-4.48-10-10-10h-4.92v-3.04c53.04-27.78 86.96-83.42 86.96-143.54 0-89.32-72.66-161.98-161.96-161.98-89.32 0-161.96 72.66-161.96 161.98 0 60.12 33.92 115.76 86.94 143.54v3.04h-4.92c-5.52 0-10 4.46-10 10 0 5.52 4.48 10 10 10h4.92v14.24h-129.88-0.02c-0.64 0-1.3 0.08-1.94 0.2-0.22 0.04-0.42 0.14-0.64 0.18-0.42 0.12-0.84 0.22-1.26 0.4-0.18 0.08-0.34 0.18-0.52 0.28-0.4 0.2-0.82 0.4-1.2 0.64a1.1 1.1 0 0 1-0.18 0.14c-0.46 0.34-0.9 0.68-1.32 1.1l-130.14 130.1-0.02 0.02c-0.46 0.46-0.86 0.96-1.22 1.5-0.18 0.26-0.28 0.52-0.44 0.78-0.16 0.32-0.34 0.62-0.48 0.94-0.14 0.34-0.22 0.68-0.32 1.02-0.08 0.28-0.2 0.56-0.26 0.84-0.12 0.66-0.2 1.3-0.2 1.96v432c0 5.52 4.48 10 10 10h539.94c0.64 0 1.3-0.08 1.94-0.2 0.3-0.06 0.58-0.18 0.88-0.26 0.34-0.1 0.66-0.18 1-0.32 0.34-0.14 0.64-0.32 0.96-0.5 0.26-0.14 0.52-0.24 0.76-0.4 0.54-0.36 1.04-0.78 1.5-1.24 0 0 0.02 0 0.02-0.02l130.12-130.08c0.46-0.46 0.88-0.98 1.26-1.54 0.22-0.32 0.36-0.66 0.54-1 0.12-0.24 0.26-0.46 0.36-0.7 0.22-0.48 0.36-1 0.48-1.5 0.02-0.12 0.08-0.24 0.1-0.34 0.14-0.7 0.2-1.4 0.2-2.12V432.68c0-0.7-0.06-1.4-0.2-2.1z m-486.76-188.82c0-78.3 63.68-141.98 141.96-141.98s141.96 63.68 141.96 141.98c0 54.56-31.9 104.94-81.24 128.34-0.2 0.1-0.36 0.22-0.56 0.34-0.32 0.18-0.64 0.36-0.94 0.56-0.28 0.2-0.5 0.4-0.74 0.62-0.26 0.22-0.5 0.42-0.72 0.66s-0.42 0.5-0.62 0.76c-0.2 0.24-0.4 0.48-0.56 0.76-0.18 0.26-0.32 0.56-0.46 0.84s-0.3 0.58-0.42 0.88c-0.12 0.3-0.2 0.62-0.28 0.94-0.08 0.3-0.18 0.6-0.24 0.92-0.06 0.36-0.08 0.72-0.1 1.1-0.02 0.22-0.08 0.42-0.08 0.66v9.2H457v-9.2c0-0.22-0.06-0.4-0.06-0.62a11.4 11.4 0 0 0-0.12-1.16c-0.06-0.3-0.14-0.58-0.22-0.88-0.1-0.32-0.18-0.66-0.3-0.98a15.98 15.98 0 0 0-0.4-0.84c-0.16-0.3-0.3-0.6-0.48-0.88a8.44 8.44 0 0 0-0.54-0.72c-0.2-0.28-0.4-0.54-0.64-0.8-0.22-0.22-0.46-0.42-0.68-0.62-0.26-0.22-0.5-0.44-0.78-0.64s-0.6-0.38-0.92-0.56c-0.2-0.1-0.36-0.24-0.58-0.34-49.34-23.4-81.22-73.78-81.22-128.34z m127.6 200.7h69.36v12.22h-69.36c-5.52 0-10 4.48-10 10s4.48 10 10 10h69.36v12.9h-23.3-0.04-63.3-0.04-23.34v-79.24h110.02v14.12h-69.36c-5.52 0-10 4.48-10 10s4.48 10 10 10z m36.02 65.12v5.12h-43.34v-5.12h43.34z m-236.56-50.88v95.98h-96l96-95.98z m-110.16 115.98h249.96v61.96h-1.46c-8.08-8.4-19.36-13.3-31.12-13.3-23.76 0-43.1 19.34-43.1 43.1 0 23.78 19.34 43.12 43.1 43.12 11.76 0 23.04-4.9 31.12-13.3h1.46v75.58h-85.56c-5.52 0-10 4.48-10 10v16.08c0 0.2 0.06 0.42 0.06 0.62 0.04 0.38 0.06 0.74 0.12 1.1 0.06 0.3 0.14 0.62 0.22 0.92 0.08 0.32 0.18 0.62 0.3 0.94 0.1 0.3 0.26 0.58 0.4 0.88 0.14 0.28 0.28 0.56 0.46 0.84 0.18 0.28 0.38 0.54 0.58 0.8 0.18 0.24 0.38 0.5 0.6 0.72 0.24 0.28 0.52 0.52 0.8 0.74 0.16 0.14 0.3 0.3 0.48 0.44 5.9 4.42 9.28 11.16 9.28 18.5 0 12.74-10.38 23.1-23.12 23.1s-23.1-10.36-23.1-23.1c0-7.34 3.38-14.08 9.28-18.5 0.18-0.14 0.32-0.3 0.48-0.46 0.28-0.22 0.54-0.44 0.78-0.7 0.24-0.24 0.42-0.5 0.62-0.76s0.4-0.5 0.56-0.76c0.18-0.3 0.34-0.58 0.48-0.88 0.14-0.28 0.28-0.56 0.4-0.86 0.12-0.32 0.2-0.64 0.3-0.96 0.08-0.3 0.16-0.6 0.22-0.9 0.06-0.36 0.08-0.74 0.1-1.12 0.02-0.2 0.06-0.4 0.06-0.6v-16.08c0-5.52-4.48-10-10-10H186.96v-197.16z m259.16 332.44c-0.4 0.04-0.82 0.06-1.2 0.14-0.08 0-0.16 0.04-0.24 0.06a10 10 0 0 0-7.54 7.72c-0.14 0.64-0.22 1.32-0.22 2.02v69.62H186.96v-194.84h114.76v1.48c-8.4 8.08-13.28 19.36-13.28 31.1 0 23.78 19.34 43.1 43.1 43.1 23.78 0 43.12-19.32 43.12-43.1 0-11.74-4.9-23.04-13.3-31.1v-1.48h75.56v85.58c0 5.52 4.48 10 10 10h21.1l3-4.02c4.4-5.9 11.14-9.28 18.5-9.28 12.74 0 23.1 10.36 23.1 23.12 0 12.74-10.36 23.1-23.1 23.1-7.36 0-14.1-3.38-18.52-9.28l-3-4h-4.94c-0.02 0-0.04-0.02-0.06-0.02h-16.08c-0.28 0-0.54 0.06-0.8 0.08z m260.78 79.56H456.92v-59.62h1.48c0.52 0.54 1.06 1.06 1.6 1.56 0.12 0.12 0.24 0.22 0.34 0.32a41.986 41.986 0 0 0 2.06 1.76c0.4 0.32 0.8 0.64 1.2 0.94 0.24 0.2 0.5 0.36 0.74 0.54 0.4 0.28 0.8 0.56 1.18 0.82 0.28 0.18 0.54 0.36 0.8 0.52 0.4 0.26 0.82 0.52 1.22 0.76 0.26 0.16 0.52 0.3 0.8 0.46 0.44 0.24 0.88 0.48 1.34 0.72 0.24 0.12 0.48 0.26 0.72 0.38 0.56 0.28 1.14 0.54 1.7 0.8l0.42 0.18c0.72 0.32 1.44 0.6 2.18 0.86 0.2 0.08 0.42 0.16 0.62 0.22 0.54 0.18 1.06 0.36 1.6 0.54l0.84 0.24c0.48 0.14 0.94 0.26 1.42 0.38 0.32 0.08 0.62 0.14 0.92 0.22l1.4 0.3c0.32 0.04 0.62 0.1 0.94 0.16 0.48 0.08 0.96 0.14 1.44 0.22l0.9 0.12c0.52 0.06 1.06 0.1 1.6 0.14l0.76 0.06c0.8 0.04 1.58 0.06 2.38 0.06 23.76 0 43.1-19.34 43.1-43.1 0-23.78-19.34-43.12-43.1-43.12-0.8 0-1.58 0.02-2.38 0.08-0.26 0-0.52 0.04-0.76 0.06-0.54 0.04-1.08 0.08-1.6 0.14-0.3 0.02-0.6 0.08-0.9 0.12-0.48 0.06-0.96 0.12-1.44 0.2l-0.94 0.18c-0.46 0.08-0.94 0.18-1.4 0.28-0.3 0.08-0.62 0.14-0.92 0.22-0.48 0.12-0.96 0.26-1.42 0.4-0.28 0.08-0.56 0.14-0.84 0.24-0.54 0.16-1.08 0.34-1.62 0.52-0.2 0.08-0.4 0.14-0.6 0.22-0.74 0.26-1.46 0.56-2.18 0.86-0.14 0.06-0.26 0.12-0.4 0.18-0.58 0.26-1.16 0.52-1.72 0.8-0.24 0.12-0.48 0.26-0.72 0.38-0.46 0.24-0.9 0.48-1.34 0.72-0.28 0.16-0.54 0.32-0.8 0.46-0.4 0.26-0.82 0.5-1.22 0.76-0.28 0.18-0.54 0.34-0.78 0.52-0.42 0.26-0.8 0.54-1.2 0.82-0.24 0.18-0.5 0.36-0.74 0.54-0.4 0.3-0.8 0.62-1.2 0.94-0.22 0.18-0.44 0.34-0.64 0.52-0.48 0.4-0.94 0.82-1.4 1.24-0.12 0.12-0.26 0.22-0.36 0.32-0.56 0.52-1.08 1.04-1.6 1.58h-1.48v-75.58h85.58c5.52 0 10-4.48 10-10v-16.08c0-0.22-0.06-0.42-0.06-0.62a9.74 9.74 0 0 0-0.12-1.1c-0.04-0.3-0.14-0.6-0.22-0.92-0.08-0.32-0.18-0.62-0.28-0.94-0.12-0.3-0.26-0.58-0.42-0.86a7.1 7.1 0 0 0-0.46-0.86c-0.18-0.28-0.36-0.54-0.56-0.8-0.2-0.24-0.4-0.5-0.62-0.74-0.24-0.26-0.52-0.48-0.78-0.72-0.18-0.14-0.32-0.3-0.5-0.44-5.9-4.42-9.28-11.16-9.28-18.5 0-12.74 10.38-23.1 23.12-23.1s23.1 10.36 23.1 23.1c0 7.34-3.38 14.1-9.26 18.5-0.18 0.12-0.3 0.28-0.46 0.42-0.3 0.24-0.58 0.48-0.84 0.76-0.2 0.22-0.38 0.46-0.58 0.7-0.2 0.26-0.42 0.54-0.6 0.82-0.16 0.26-0.3 0.54-0.44 0.82-0.14 0.3-0.3 0.6-0.42 0.92-0.12 0.3-0.2 0.58-0.28 0.88-0.08 0.32-0.18 0.64-0.24 0.98-0.06 0.34-0.08 0.68-0.1 1.02-0.02 0.24-0.06 0.46-0.06 0.68v16.08c0 5.52 4.48 10 10 10h124.76v194.84z m0-214.84h-114.76v-1.48c8.4-8.06 13.28-19.36 13.28-31.1 0-23.78-19.34-43.1-43.1-43.1-23.78 0-43.12 19.32-43.12 43.1 0 11.74 4.9 23.04 13.3 31.1v1.48h-75.58v-85.58c0-5.52-4.46-10-10-10h-16.06c-0.22 0-0.42 0.06-0.64 0.08-0.36 0.02-0.72 0.04-1.08 0.1-0.32 0.06-0.62 0.14-0.92 0.22-0.32 0.1-0.64 0.18-0.94 0.3-0.3 0.12-0.6 0.26-0.88 0.4-0.3 0.14-0.58 0.3-0.86 0.46-0.28 0.18-0.52 0.38-0.78 0.58-0.26 0.2-0.5 0.38-0.74 0.6-0.26 0.26-0.5 0.52-0.74 0.8-0.14 0.16-0.3 0.3-0.44 0.48-4.4 5.9-11.14 9.28-18.5 9.28-12.74 0-23.1-10.36-23.1-23.12 0-12.74 10.36-23.1 23.1-23.1 7.36 0 14.1 3.38 18.5 9.28 0.14 0.18 0.3 0.32 0.44 0.48 0.24 0.28 0.48 0.54 0.74 0.8 0.24 0.22 0.48 0.4 0.74 0.6s0.5 0.4 0.78 0.58c0.28 0.16 0.56 0.32 0.86 0.46 0.28 0.14 0.58 0.28 0.88 0.4 0.3 0.12 0.62 0.2 0.92 0.3 0.32 0.08 0.62 0.16 0.94 0.22 0.36 0.06 0.72 0.08 1.08 0.1 0.22 0.02 0.42 0.08 0.64 0.08h16.06c5.54 0 10-4.48 10-10v-71.96h249.98v197.16z m5.84-217.16H317.12v-110.1h119.88v55c0 5.54 4.48 10 10 10h23.34v15.12c0 5.52 4.48 10 10 10h63.34c5.52 0 10-4.48 10-10v-15.12h23.34c5.54 0 10-4.46 10-10v-22.9h4.92c5.52 0 10-4.48 10-10s-4.48-10-10-10h-4.92v-12.1h235.86l-110.14 110.1z m124.28 307.76l-110.12 110.1V566.84l110.12-110.1v403.7z" fill="#23130D" p-id="31654"></path><path d="M490.34 507.58h43.34v5.12h-43.34z" fill="#636368" p-id="31655"></path><path d="M487.66 432.46c0 5.52 4.48 10 10 10h69.36v12.22h-69.36c-5.52 0-10 4.48-10 10s4.48 10 10 10h69.36v12.9h-23.3-0.04-63.3-0.04-23.34v-79.24h110.02v14.12h-69.36c-5.52 0-10 4.48-10 10z" fill="#E1E1E5" p-id="31656"></path><path d="M653.98 241.76c0 54.56-31.9 104.94-81.24 128.34-0.2 0.1-0.36 0.22-0.56 0.34-0.32 0.18-0.64 0.36-0.94 0.56-0.28 0.2-0.5 0.4-0.74 0.62-0.26 0.22-0.5 0.42-0.72 0.66s-0.42 0.5-0.62 0.76c-0.2 0.24-0.4 0.48-0.56 0.76-0.18 0.26-0.32 0.56-0.46 0.84s-0.3 0.58-0.42 0.88c-0.12 0.3-0.2 0.62-0.28 0.94-0.08 0.3-0.18 0.6-0.24 0.92-0.06 0.36-0.08 0.72-0.1 1.1-0.02 0.22-0.08 0.42-0.08 0.66v9.2H457v-9.2c0-0.22-0.06-0.4-0.06-0.62a11.4 11.4 0 0 0-0.12-1.16c-0.06-0.3-0.14-0.58-0.22-0.88-0.1-0.32-0.18-0.66-0.3-0.98a15.98 15.98 0 0 0-0.4-0.84c-0.16-0.3-0.3-0.6-0.48-0.88a8.44 8.44 0 0 0-0.54-0.72c-0.2-0.28-0.4-0.54-0.64-0.8-0.22-0.22-0.46-0.42-0.68-0.62-0.26-0.22-0.5-0.44-0.78-0.64s-0.6-0.38-0.92-0.56c-0.2-0.1-0.36-0.24-0.58-0.34-49.34-23.4-81.22-73.78-81.22-128.34 0-78.3 63.68-141.98 141.96-141.98s141.96 63.68 141.96 141.98z" fill="#F9C139" p-id="31657"></path><path d="M569.16 373.04c-0.2 0.24-0.4 0.48-0.56 0.76-0.18 0.26-0.32 0.56-0.46 0.84s-0.3 0.58-0.42 0.88c-0.12 0.3-0.2 0.62-0.28 0.94-0.08 0.3-0.18 0.6-0.24 0.92-0.06 0.36-0.08 0.72-0.1 1.1-0.02 0.22-0.08 0.42-0.08 0.66v9.2H457v-9.2c0-0.22-0.06-0.4-0.06-0.62a11.4 11.4 0 0 0-0.12-1.16c-0.06-0.3-0.14-0.58-0.22-0.88-0.1-0.32-0.18-0.66-0.3-0.98a15.98 15.98 0 0 0-0.4-0.84c-0.16-0.3-0.3-0.6-0.48-0.88a8.44 8.44 0 0 0-0.54-0.72c-0.2-0.28-0.4-0.54-0.64-0.8-0.22-0.22-0.46-0.42-0.68-0.62-0.26-0.22-0.5-0.44-0.78-0.64s-0.6-0.38-0.92-0.56c-0.2-0.1-0.36-0.24-0.58-0.34-49.34-23.4-81.22-73.78-81.22-128.34 0-31.88 10.56-61.32 28.34-85.04-11.68 20.62-18.34 44.42-18.34 69.74 0 54.56 31.88 104.94 81.22 128.34 0.22 0.1 0.38 0.24 0.58 0.34 0.32 0.18 0.64 0.36 0.92 0.56 0.28 0.2 0.52 0.42 0.78 0.64 0.22 0.2 0.46 0.4 0.68 0.62 0.24 0.26 0.44 0.52 0.64 0.8 0.2 0.24 0.38 0.48 0.54 0.72 0.18 0.28 0.32 0.58 0.48 0.88 0.14 0.28 0.28 0.56 0.4 0.84 0.12 0.32 0.2 0.66 0.3 0.98 0.08 0.3 0.16 0.58 0.22 0.88 0.06 0.38 0.1 0.78 0.12 1.16 0 0.22 0.06 0.4 0.06 0.62v9.2h102.16z" opacity=".2" p-id="31658"></path><path d="M297.12 456.7v95.98h-96zM822.88 442.58l-110.14 110.1H317.12v-110.1h119.88v55c0 5.54 4.48 10 10 10h23.34v15.12c0 5.52 4.48 10 10 10h63.34c5.52 0 10-4.48 10-10v-15.12h23.34c5.54 0 10-4.46 10-10v-22.9h4.92c5.52 0 10-4.48 10-10s-4.48-10-10-10h-4.92v-12.1h235.86z" fill="#F8D3C9" p-id="31659"></path><path d="M297.12 527.34v25.34h-96l25.34-25.34zM822.88 442.58l-110.14 110.1H317.12v-25.34h154.36a10.028 10.028 0 0 0 8.86 5.36h63.34c3.84 0 7.18-2.18 8.86-5.36h160.2l84.8-84.76h25.34z" opacity=".2" p-id="31660"></path><path d="M837.02 456.74v403.7l-110.12 110.1V566.84z" fill="#E59D89" p-id="31661"></path><path d="M837.02 456.74v28l-90.12 90.1v375.7l-20 20V566.84z" opacity=".2" p-id="31662"></path><path d="M512.62 895.24c0 12.74-10.36 23.1-23.1 23.1-7.36 0-14.1-3.38-18.52-9.28l-3-4h-4.94c-0.02 0-0.04-0.02-0.06-0.02h-16.08c-0.28 0-0.54 0.06-0.8 0.08-0.4 0.04-0.82 0.06-1.2 0.14-0.08 0-0.16 0.04-0.24 0.06a10 10 0 0 0-7.54 7.72c-0.14 0.64-0.22 1.32-0.22 2.02v69.62H186.96v-194.84h114.76v1.48c-8.4 8.08-13.28 19.36-13.28 31.1 0 23.78 19.34 43.1 43.1 43.1 23.78 0 43.12-19.32 43.12-43.1 0-11.74-4.9-23.04-13.3-31.1v-1.48h75.56v85.58c0 5.52 4.48 10 10 10h21.1l3-4.02c4.4-5.9 11.14-9.28 18.5-9.28 12.74 0 23.1 10.36 23.1 23.12z" fill="#EC7063" p-id="31663"></path><path d="M706.9 789.84v194.84H456.92v-59.62h1.48c0.52 0.54 1.06 1.06 1.6 1.56 0.12 0.12 0.24 0.22 0.34 0.32a41.986 41.986 0 0 0 2.06 1.76c0.4 0.32 0.8 0.64 1.2 0.94 0.24 0.2 0.5 0.36 0.74 0.54 0.4 0.28 0.8 0.56 1.18 0.82 0.28 0.18 0.54 0.36 0.8 0.52 0.4 0.26 0.82 0.52 1.22 0.76 0.26 0.16 0.52 0.3 0.8 0.46 0.44 0.24 0.88 0.48 1.34 0.72 0.24 0.12 0.48 0.26 0.72 0.38 0.56 0.28 1.14 0.54 1.7 0.8l0.42 0.18c0.72 0.32 1.44 0.6 2.18 0.86 0.2 0.08 0.42 0.16 0.62 0.22 0.54 0.18 1.06 0.36 1.6 0.54l0.84 0.24c0.48 0.14 0.94 0.26 1.42 0.38 0.32 0.08 0.62 0.14 0.92 0.22l1.4 0.3c0.32 0.04 0.62 0.1 0.94 0.16 0.48 0.08 0.96 0.14 1.44 0.22l0.9 0.12c0.52 0.06 1.06 0.1 1.6 0.14l0.76 0.06c0.8 0.04 1.58 0.06 2.38 0.06 23.76 0 43.1-19.34 43.1-43.1 0-23.78-19.34-43.12-43.1-43.12-0.8 0-1.58 0.02-2.38 0.08-0.26 0-0.52 0.04-0.76 0.06-0.54 0.04-1.08 0.08-1.6 0.14-0.3 0.02-0.6 0.08-0.9 0.12-0.48 0.06-0.96 0.12-1.44 0.2l-0.94 0.18c-0.46 0.08-0.94 0.18-1.4 0.28-0.3 0.08-0.62 0.14-0.92 0.22-0.48 0.12-0.96 0.26-1.42 0.4-0.28 0.08-0.56 0.14-0.84 0.24-0.54 0.16-1.08 0.34-1.62 0.52-0.2 0.08-0.4 0.14-0.6 0.22-0.74 0.26-1.46 0.56-2.18 0.86-0.14 0.06-0.26 0.12-0.4 0.18-0.58 0.26-1.16 0.52-1.72 0.8-0.24 0.12-0.48 0.26-0.72 0.38-0.46 0.24-0.9 0.48-1.34 0.72-0.28 0.16-0.54 0.32-0.8 0.46-0.4 0.26-0.82 0.5-1.22 0.76-0.28 0.18-0.54 0.34-0.78 0.52-0.42 0.26-0.8 0.54-1.2 0.82-0.24 0.18-0.5 0.36-0.74 0.54-0.4 0.3-0.8 0.62-1.2 0.94-0.22 0.18-0.44 0.34-0.64 0.52-0.48 0.4-0.94 0.82-1.4 1.24-0.12 0.12-0.26 0.22-0.36 0.32-0.56 0.52-1.08 1.04-1.6 1.58h-1.48v-75.58h85.58c5.52 0 10-4.48 10-10v-16.08c0-0.22-0.06-0.42-0.06-0.62a9.74 9.74 0 0 0-0.12-1.1c-0.04-0.3-0.14-0.6-0.22-0.92-0.08-0.32-0.18-0.62-0.28-0.94-0.12-0.3-0.26-0.58-0.42-0.86a7.1 7.1 0 0 0-0.46-0.86c-0.18-0.28-0.36-0.54-0.56-0.8-0.2-0.24-0.4-0.5-0.62-0.74-0.24-0.26-0.52-0.48-0.78-0.72-0.18-0.14-0.32-0.3-0.5-0.44-5.9-4.42-9.28-11.16-9.28-18.5 0-12.74 10.38-23.1 23.12-23.1s23.1 10.36 23.1 23.1c0 7.34-3.38 14.1-9.26 18.5-0.18 0.12-0.3 0.28-0.46 0.42-0.3 0.24-0.58 0.48-0.84 0.76-0.2 0.22-0.38 0.46-0.58 0.7-0.2 0.26-0.42 0.54-0.6 0.82-0.16 0.26-0.3 0.54-0.44 0.82-0.14 0.3-0.3 0.6-0.42 0.92-0.12 0.3-0.2 0.58-0.28 0.88-0.08 0.32-0.18 0.64-0.24 0.98-0.06 0.34-0.08 0.68-0.1 1.02-0.02 0.24-0.06 0.46-0.06 0.68v16.08c0 5.52 4.48 10 10 10h124.76z" fill="#E8790A" p-id="31664"></path><path d="M361.24 664.44c0 23.78 19.34 43.12 43.1 43.12 11.76 0 23.04-4.9 31.12-13.3h1.46v75.58h-85.56c-5.52 0-10 4.48-10 10v16.08c0 0.2 0.06 0.42 0.06 0.62 0.04 0.38 0.06 0.74 0.12 1.1 0.06 0.3 0.14 0.62 0.22 0.92 0.08 0.32 0.18 0.62 0.3 0.94 0.1 0.3 0.26 0.58 0.4 0.88 0.14 0.28 0.28 0.56 0.46 0.84 0.18 0.28 0.38 0.54 0.58 0.8 0.18 0.24 0.38 0.5 0.6 0.72 0.24 0.28 0.52 0.52 0.8 0.74 0.16 0.14 0.3 0.3 0.48 0.44 5.9 4.42 9.28 11.16 9.28 18.5 0 12.74-10.38 23.1-23.12 23.1s-23.1-10.36-23.1-23.1c0-7.34 3.38-14.08 9.28-18.5 0.18-0.14 0.32-0.3 0.48-0.46 0.28-0.22 0.54-0.44 0.78-0.7 0.24-0.24 0.42-0.5 0.62-0.76s0.4-0.5 0.56-0.76c0.18-0.3 0.34-0.58 0.48-0.88 0.14-0.28 0.28-0.56 0.4-0.86 0.12-0.32 0.2-0.64 0.3-0.96 0.08-0.3 0.16-0.6 0.22-0.9 0.06-0.36 0.08-0.74 0.1-1.12 0.02-0.2 0.06-0.4 0.06-0.6v-16.08c0-5.52-4.48-10-10-10H186.96v-197.16h249.96v61.96h-1.46c-8.08-8.4-19.36-13.3-31.12-13.3-23.76 0-43.1 19.34-43.1 43.1z" fill="#3594BF" p-id="31665"></path><path d="M706.9 572.68v197.16h-114.76v-1.48c8.4-8.06 13.28-19.36 13.28-31.1 0-23.78-19.34-43.1-43.1-43.1-23.78 0-43.12 19.32-43.12 43.1 0 11.74 4.9 23.04 13.3 31.1v1.48h-75.58v-85.58c0-5.52-4.46-10-10-10h-16.06c-0.22 0-0.42 0.06-0.64 0.08-0.36 0.02-0.72 0.04-1.08 0.1-0.32 0.06-0.62 0.14-0.92 0.22-0.32 0.1-0.64 0.18-0.94 0.3-0.3 0.12-0.6 0.26-0.88 0.4-0.3 0.14-0.58 0.3-0.86 0.46-0.28 0.18-0.52 0.38-0.78 0.58-0.26 0.2-0.5 0.38-0.74 0.6-0.26 0.26-0.5 0.52-0.74 0.8-0.14 0.16-0.3 0.3-0.44 0.48-4.4 5.9-11.14 9.28-18.5 9.28-12.74 0-23.1-10.36-23.1-23.12 0-12.74 10.36-23.1 23.1-23.1 7.36 0 14.1 3.38 18.5 9.28 0.14 0.18 0.3 0.32 0.44 0.48 0.24 0.28 0.48 0.54 0.74 0.8 0.24 0.22 0.48 0.4 0.74 0.6s0.5 0.4 0.78 0.58c0.28 0.16 0.56 0.32 0.86 0.46 0.28 0.14 0.58 0.28 0.88 0.4 0.3 0.12 0.62 0.2 0.92 0.3 0.32 0.08 0.62 0.16 0.94 0.22 0.36 0.06 0.72 0.08 1.08 0.1 0.22 0.02 0.42 0.08 0.64 0.08h16.06c5.54 0 10-4.48 10-10v-71.96h249.98z" fill="#72AF5F" p-id="31666"></path><path d="M430.92 795.84v79.58c0 8.822 7.178 16 16 16h24.11l1.8-2.412 3.002-4.022a16.926 16.926 0 0 1 13.69-6.866c9.428 0 17.1 7.68 17.1 17.12 0 9.428-7.67 17.1-17.1 17.1a17 17 0 0 1-13.72-6.88l-3-4-1.8-2.4H464.456l-0.04-0.02h-17.496c-0.562 0-1.024 0.06-1.344 0.104l-0.052 0.006-0.226 0.02c-0.346 0.03-0.798 0.068-1.314 0.16-0.382 0.058-0.69 0.14-0.902 0.204-5.972 1.488-10.598 6.294-11.8 12.224a15.472 15.472 0 0 0-0.358 3.302v63.62H192.96v-182.84h97.336c-5.068 7.884-7.856 17.142-7.856 26.58 0 27.074 22.026 49.1 49.1 49.1 27.084 0 49.12-22.026 49.12-49.1 0-9.442-2.79-18.698-7.864-26.58h58.124m6-6h-75.56v1.48c8.4 8.06 13.3 19.36 13.3 31.1 0 23.78-19.34 43.1-43.12 43.1-23.76 0-43.1-19.32-43.1-43.1 0-11.74 4.88-23.02 13.28-31.1v-1.48H186.96v194.84h249.96v-69.62c0-0.7 0.08-1.38 0.22-2.02a10 10 0 0 1 7.54-7.72c0.08-0.02 0.16-0.06 0.24-0.06 0.38-0.08 0.8-0.1 1.2-0.14 0.26-0.02 0.52-0.08 0.8-0.08h16.08c0.02 0 0.04 0.02 0.06 0.02H468l3 4c4.42 5.9 11.16 9.28 18.52 9.28 12.74 0 23.1-10.36 23.1-23.1 0-12.76-10.36-23.12-23.1-23.12-7.36 0-14.1 3.38-18.5 9.28l-3 4.02h-21.1c-5.52 0-10-4.48-10-10v-85.58z" opacity=".2" p-id="31667"></path><path d="M562.32 720.16c9.43 0 17.1 7.672 17.1 17.1a16.96 16.96 0 0 1-6.788 13.646 7.4 7.4 0 0 0-0.93 0.792 13.448 13.448 0 0 0-1.284 1.208 15.378 15.378 0 0 0-0.608 0.72l-0.14 0.174-0.134 0.166-0.07 0.09a16.828 16.828 0 0 0-0.834 1.16l-0.032 0.05-0.032 0.05a16.354 16.354 0 0 0-0.696 1.282l-0.036 0.072-0.034 0.072-0.084 0.174a13.608 13.608 0 0 0-1 2.706l-0.05 0.19a13.372 13.372 0 0 0-0.278 1.204c-0.12 0.682-0.156 1.276-0.178 1.622a9.84 9.84 0 0 0-0.074 1.122v16.08c0 8.822 7.178 16 16 16h118.76v182.84H462.92v-42.21l0.186 0.118a42.924 42.924 0 0 0 2.042 1.24l0.216 0.122 0.052 0.03 0.054 0.028c0.472 0.258 0.944 0.514 1.438 0.772l0.046 0.024 0.046 0.024 0.186 0.1c0.178 0.096 0.356 0.192 0.534 0.28 0.484 0.242 0.98 0.472 1.468 0.696l0.388 0.18 0.082 0.038 0.084 0.036 0.188 0.08 0.156 0.066c0.796 0.354 1.622 0.682 2.52 1 0.286 0.112 0.59 0.218 0.876 0.308l0.714 0.242 0.83 0.28 0.122 0.04 0.124 0.036 0.498 0.142 0.314 0.09c0.556 0.162 1.088 0.302 1.644 0.44l0.522 0.124c0.102 0.024 0.204 0.046 0.304 0.072l0.136 0.036 0.138 0.03 0.722 0.154 0.676 0.144 0.262 0.058 0.266 0.034c0.15 0.018 0.29 0.05 0.438 0.078l0.142 0.026 0.06 0.012 0.06 0.01c0.28 0.046 0.56 0.088 0.84 0.128 0.2 0.03 0.4 0.058 0.6 0.092l0.164 0.026 0.096 0.012 0.834 0.112 0.052 0.006 0.052 0.006c0.6 0.07 1.222 0.118 1.828 0.162l0.362 0.028 0.398 0.032 0.082 0.006 0.082 0.004c0.908 0.046 1.784 0.068 2.678 0.068 27.074 0 49.1-22.026 49.1-49.1 0-27.084-22.026-49.12-49.1-49.12-0.986 0-1.84 0.028-2.672 0.086a11.776 11.776 0 0 0-0.922 0.072c-0.58 0.044-1.16 0.088-1.722 0.15a13.892 13.892 0 0 0-0.946 0.12l-0.122 0.02c-0.56 0.07-1.122 0.142-1.682 0.236l-0.062 0.01-0.06 0.012-0.502 0.096-0.358 0.07c-0.542 0.094-1.106 0.21-1.648 0.328l-0.138 0.03-0.13 0.034-0.234 0.054a33.132 33.132 0 0 0-2.23 0.6l-0.128 0.034a61.324 61.324 0 0 0-2.56 0.798l-0.22 0.074-0.162 0.064a48.77 48.77 0 0 0-2.86 1.118c-0.124 0.052-0.238 0.106-0.4 0.18l-0.05 0.022-0.046 0.02a50.98 50.98 0 0 0-1.944 0.906c-0.178 0.088-0.356 0.184-0.534 0.28l-0.186 0.1-0.046 0.024-0.046 0.024c-0.49 0.256-0.958 0.51-1.438 0.772l-0.054 0.028-0.052 0.03-0.362 0.21c-0.104 0.06-0.204 0.122-0.304 0.176l-0.218 0.118-0.208 0.134a18.05 18.05 0 0 1-0.464 0.288c-0.254 0.154-0.508 0.31-0.732 0.456l-0.134 0.086-0.02 0.012V795.84h79.58c8.822 0 16-7.178 16-16v-16.08c0-0.442-0.042-0.81-0.076-1.06a15.32 15.32 0 0 0-0.174-1.57 10.454 10.454 0 0 0-0.29-1.314l-0.04-0.15a17.752 17.752 0 0 0-0.324-1.114l-0.052-0.162-0.07-0.222-0.086-0.216a12.706 12.706 0 0 0-0.654-1.382 12.31 12.31 0 0 0-0.75-1.354 18.2 18.2 0 0 0-0.85-1.212l-0.072-0.092-0.076-0.09-0.138-0.17a18.004 18.004 0 0 0-0.682-0.8 12.388 12.388 0 0 0-0.974-0.93l-0.146-0.128-0.186-0.172-0.072-0.056a9.182 9.182 0 0 0-0.626-0.538l-0.042-0.034-0.044-0.032c-4.37-3.274-6.878-8.268-6.878-13.698-0.004-9.432 7.676-17.104 17.116-17.104m0-6c-12.74 0-23.12 10.36-23.12 23.1 0 7.34 3.38 14.08 9.28 18.5 0.18 0.14 0.32 0.3 0.5 0.44 0.26 0.24 0.54 0.46 0.78 0.72 0.22 0.24 0.42 0.5 0.62 0.74 0.2 0.26 0.38 0.52 0.56 0.8 0.18 0.28 0.32 0.56 0.46 0.86 0.16 0.28 0.3 0.56 0.42 0.86 0.1 0.32 0.2 0.62 0.28 0.94 0.08 0.32 0.18 0.62 0.22 0.92 0.06 0.36 0.1 0.72 0.12 1.1 0 0.2 0.06 0.4 0.06 0.62v16.08c0 5.52-4.48 10-10 10h-85.58v75.58h1.48c0.52-0.54 1.04-1.06 1.6-1.58 0.1-0.1 0.24-0.2 0.36-0.32 0.46-0.42 0.92-0.84 1.4-1.24 0.2-0.18 0.42-0.34 0.64-0.52 0.4-0.32 0.8-0.64 1.2-0.94 0.24-0.18 0.5-0.36 0.74-0.54 0.4-0.28 0.78-0.56 1.2-0.82 0.24-0.18 0.5-0.34 0.78-0.52 0.4-0.26 0.82-0.5 1.22-0.76 0.26-0.14 0.52-0.3 0.8-0.46 0.44-0.24 0.88-0.48 1.34-0.72 0.24-0.12 0.48-0.26 0.72-0.38 0.56-0.28 1.14-0.54 1.72-0.8 0.14-0.06 0.26-0.12 0.4-0.18 0.72-0.3 1.44-0.6 2.18-0.86 0.2-0.08 0.4-0.14 0.6-0.22 0.54-0.18 1.08-0.36 1.62-0.52 0.28-0.1 0.56-0.16 0.84-0.24 0.46-0.14 0.94-0.28 1.42-0.4 0.3-0.08 0.62-0.14 0.92-0.22 0.46-0.1 0.94-0.2 1.4-0.28l0.94-0.18c0.48-0.08 0.96-0.14 1.44-0.2 0.3-0.04 0.6-0.1 0.9-0.12 0.52-0.06 1.06-0.1 1.6-0.14 0.24-0.02 0.5-0.06 0.76-0.06 0.8-0.06 1.58-0.08 2.38-0.08 23.76 0 43.1 19.34 43.1 43.12 0 23.76-19.34 43.1-43.1 43.1-0.8 0-1.58-0.02-2.38-0.06l-0.76-0.06c-0.54-0.04-1.08-0.08-1.6-0.14l-0.9-0.12c-0.48-0.08-0.96-0.14-1.44-0.22-0.32-0.06-0.62-0.12-0.94-0.16l-1.4-0.3c-0.3-0.08-0.6-0.14-0.92-0.22-0.48-0.12-0.94-0.24-1.42-0.38l-0.84-0.24c-0.54-0.18-1.06-0.36-1.6-0.54-0.2-0.06-0.42-0.14-0.62-0.22a29 29 0 0 1-2.18-0.86l-0.42-0.18c-0.56-0.26-1.14-0.52-1.7-0.8-0.24-0.12-0.48-0.26-0.72-0.38-0.46-0.24-0.9-0.48-1.34-0.72-0.28-0.16-0.54-0.3-0.8-0.46-0.4-0.24-0.82-0.5-1.22-0.76-0.26-0.16-0.52-0.34-0.8-0.52-0.38-0.26-0.78-0.54-1.18-0.82-0.24-0.18-0.5-0.34-0.74-0.54-0.4-0.3-0.8-0.62-1.2-0.94l-0.64-0.52c-0.48-0.4-0.96-0.82-1.42-1.24-0.1-0.1-0.22-0.2-0.34-0.32-0.54-0.5-1.08-1.02-1.6-1.56h-1.48v59.62h249.98v-194.84h-124.76c-5.52 0-10-4.48-10-10v-16.08c0-0.22 0.04-0.44 0.06-0.68 0.02-0.34 0.04-0.68 0.1-1.02 0.06-0.34 0.16-0.66 0.24-0.98 0.08-0.3 0.16-0.58 0.28-0.88 0.12-0.32 0.28-0.62 0.42-0.92 0.14-0.28 0.28-0.56 0.44-0.82 0.18-0.28 0.4-0.56 0.6-0.82 0.2-0.24 0.38-0.48 0.58-0.7 0.26-0.28 0.54-0.52 0.84-0.76 0.16-0.14 0.28-0.3 0.46-0.42 5.88-4.4 9.26-11.16 9.26-18.5 0-12.74-10.36-23.1-23.1-23.1zM430.92 578.68v44.52c-7.888-5.07-17.146-7.86-26.58-7.86-27.074 0-49.1 22.026-49.1 49.1 0 27.084 22.026 49.12 49.1 49.12 9.434 0 18.692-2.79 26.58-7.86v58.14h-79.56c-8.822 0-16 7.178-16 16.04v16.04c0 0.372 0.03 0.692 0.06 0.934l0.032 0.312 0.024 0.262c0.036 0.406 0.078 0.802 0.144 1.198l0.016 0.094 0.018 0.094c0.084 0.42 0.194 0.87 0.282 1.2 0.122 0.49 0.274 0.972 0.472 1.512 0.192 0.544 0.402 0.968 0.544 1.256l0.066 0.134 0.034 0.074 0.036 0.072c0.18 0.358 0.424 0.848 0.778 1.4 0.272 0.422 0.566 0.818 0.828 1.158 0.284 0.378 0.598 0.78 0.996 1.198 0.452 0.502 0.904 0.9 1.264 1.194 0.23 0.222 0.47 0.438 0.736 0.646l0.042 0.034 0.044 0.032c4.37 3.274 6.878 8.266 6.878 13.698 0 9.428-7.68 17.1-17.12 17.1-9.43 0-17.1-7.672-17.1-17.1 0-5.432 2.506-10.424 6.878-13.698l0.044-0.032 0.042-0.034c0.346-0.268 0.62-0.53 0.836-0.746 0.322-0.266 0.694-0.596 1.074-1a11.48 11.48 0 0 0 0.956-1.138l0.086-0.114 0.1-0.13c0.216-0.276 0.512-0.654 0.85-1.204a15.78 15.78 0 0 0 0.732-1.344c0.202-0.406 0.4-0.818 0.574-1.254l0.024-0.06 0.022-0.06c0.134-0.356 0.242-0.712 0.346-1.068l0.062-0.21 0.038-0.12 0.032-0.122c0.112-0.422 0.222-0.846 0.306-1.27l0.02-0.096 0.016-0.096a14.24 14.24 0 0 0 0.162-1.576c0.032-0.242 0.08-0.644 0.08-1.13v-16.08c0-8.822-7.178-16-16-16H192.96v-185.16h237.96m6-6H186.96v197.16h124.76c5.52 0 10 4.48 10 10v16.08c0 0.2-0.04 0.4-0.06 0.6-0.02 0.38-0.04 0.76-0.1 1.12-0.06 0.3-0.14 0.6-0.22 0.9-0.1 0.32-0.18 0.64-0.3 0.96-0.12 0.3-0.26 0.58-0.4 0.86-0.14 0.3-0.3 0.58-0.48 0.88-0.16 0.26-0.36 0.5-0.56 0.76-0.2 0.26-0.38 0.52-0.62 0.76-0.24 0.26-0.5 0.48-0.78 0.7-0.16 0.16-0.3 0.32-0.48 0.46-5.9 4.42-9.28 11.16-9.28 18.5 0 12.74 10.36 23.1 23.1 23.1 12.74 0 23.12-10.36 23.12-23.1 0-7.34-3.38-14.08-9.28-18.5-0.18-0.14-0.32-0.3-0.48-0.44-0.28-0.22-0.56-0.46-0.8-0.74-0.22-0.22-0.42-0.48-0.6-0.72-0.2-0.26-0.4-0.52-0.58-0.8-0.18-0.28-0.32-0.56-0.46-0.84-0.14-0.3-0.3-0.58-0.4-0.88-0.12-0.32-0.22-0.62-0.3-0.94-0.08-0.3-0.16-0.62-0.22-0.92-0.06-0.36-0.08-0.72-0.12-1.1 0-0.2-0.06-0.42-0.06-0.62v-16.04-0.04c0-5.52 4.48-10 10-10h85.56v-75.58h-1.46c-8.08 8.4-19.36 13.3-31.12 13.3-23.76 0-43.1-19.34-43.1-43.12 0-23.76 19.34-43.1 43.1-43.1 11.76 0 23.04 4.9 31.12 13.3h1.46v-61.96z" opacity=".2" p-id="31668"></path><path d="M700.9 578.68v185.16h-97.328c5.062-7.876 7.848-17.132 7.848-26.58 0-27.074-22.026-49.1-49.1-49.1-27.084 0-49.12 22.026-49.12 49.1 0 9.442 2.79 18.698 7.864 26.58H462.92v-79.58c0-8.822-7.178-16-16-16h-16.06c-0.524 0-0.96 0.058-1.252 0.106a13.624 13.624 0 0 0-1.454 0.156l-0.06 0.01-0.06 0.012a18.274 18.274 0 0 0-1.36 0.32l-0.122 0.032-0.12 0.038-0.19 0.056c-0.406 0.12-0.804 0.246-1.188 0.398a17.01 17.01 0 0 0-1.27 0.572 18.614 18.614 0 0 0-1.22 0.65l-0.136 0.078-0.132 0.084a13.972 13.972 0 0 0-1.056 0.764l-0.21 0.164a15.746 15.746 0 0 0-1.064 0.876l-0.096 0.088-0.092 0.092a19.606 19.606 0 0 0-0.972 1.044l0.002-0.002a9.46 9.46 0 0 0-0.704 0.796l-0.038 0.048-0.036 0.048a16.928 16.928 0 0 1-13.69 6.868c-9.428 0-17.1-7.68-17.1-17.12 0-9.428 7.67-17.1 17.1-17.1a16.926 16.926 0 0 1 13.69 6.866l0.036 0.048 0.038 0.048c0.216 0.278 0.44 0.526 0.702 0.796 0.314 0.362 0.63 0.702 0.972 1.044l0.092 0.092 0.096 0.088c0.348 0.318 0.692 0.592 1.136 0.934l0.138 0.108c0.34 0.266 0.68 0.522 1.056 0.764l0.13 0.084 0.134 0.076c0.398 0.228 0.798 0.45 1.22 0.65 0.406 0.202 0.838 0.398 1.268 0.57 0.354 0.142 0.72 0.26 1.086 0.37l0.168 0.052 0.22 0.074 0.224 0.056 0.148 0.038c0.382 0.096 0.752 0.186 1.142 0.26l0.058 0.01 0.058 0.01c0.55 0.092 1.05 0.132 1.454 0.156 0.272 0.044 0.716 0.106 1.252 0.106h16.06c8.822 0 16-7.178 16-16.02v-65.94H700.9m6-5.998H456.92v71.96c0 5.52-4.46 10-10 10h-16.06c-0.22 0-0.42-0.06-0.64-0.08-0.36-0.02-0.72-0.04-1.08-0.1-0.32-0.06-0.62-0.14-0.94-0.22-0.3-0.1-0.62-0.18-0.92-0.3-0.3-0.12-0.6-0.26-0.88-0.4-0.3-0.14-0.58-0.3-0.86-0.46-0.28-0.18-0.52-0.38-0.78-0.58s-0.5-0.38-0.74-0.6c-0.26-0.26-0.5-0.52-0.74-0.8-0.14-0.16-0.3-0.3-0.44-0.48-4.4-5.9-11.14-9.28-18.5-9.28-12.74 0-23.1 10.36-23.1 23.1 0 12.76 10.36 23.12 23.1 23.12 7.36 0 14.1-3.38 18.5-9.28 0.14-0.18 0.3-0.32 0.44-0.48 0.24-0.28 0.48-0.54 0.74-0.8 0.24-0.22 0.48-0.4 0.74-0.6 0.26-0.2 0.5-0.4 0.78-0.58 0.28-0.16 0.56-0.32 0.86-0.46 0.28-0.14 0.58-0.28 0.88-0.4 0.3-0.12 0.62-0.2 0.94-0.3 0.3-0.08 0.6-0.16 0.92-0.22 0.36-0.06 0.72-0.08 1.08-0.1 0.22-0.02 0.42-0.08 0.64-0.08h16.06c5.54 0 10 4.48 10 10v85.58h75.58v-1.48c-8.4-8.06-13.3-19.36-13.3-31.1 0-23.78 19.34-43.1 43.12-43.1 23.76 0 43.1 19.32 43.1 43.1 0 11.74-4.88 23.04-13.28 31.1v1.48h114.76v-197.16z" opacity=".2" p-id="31669"></path><path d="M512.012 63.292a10 10 0 0 0 10-10V29.326a10 10 0 1 0-20 0v23.966a10 10 0 0 0 10 10zM410.62 83.136a9.994 9.994 0 0 0 13.66 3.66 9.998 9.998 0 0 0 3.66-13.66l-11.98-20.75a10 10 0 0 0-17.32 10l11.98 20.75zM325.638 142.702l20.752 11.984a10 10 0 0 0 10.002-17.32l-20.752-11.984a10.002 10.002 0 0 0-10.002 17.32zM302.582 248.76h23.96a10 10 0 0 0 0-20h-23.96a10 10 0 0 0 0 20zM321.974 348.464a9.996 9.996 0 0 0 13.66 3.664l20.756-11.976a10.002 10.002 0 0 0-9.994-17.326l-20.756 11.976a10.004 10.004 0 0 0-3.666 13.662zM677.626 322.838a10 10 0 0 0-9.996 17.324l20.752 11.976a9.998 9.998 0 0 0 13.66-3.664 10 10 0 0 0-3.664-13.66l-20.752-11.976zM687.48 238.768a10 10 0 0 0 10 10h23.958a10 10 0 1 0 0-20H697.48a10 10 0 0 0-10 10zM672.642 156.028c1.696 0 3.416-0.432 4.992-1.342l20.748-11.982a10 10 0 1 0-10.004-17.318l-20.748 11.982a10 10 0 0 0 5.012 18.66zM599.748 86.798a10 10 0 0 0 13.66-3.658l11.98-20.75a10 10 0 1 0-17.32-10l-11.98 20.75a9.996 9.996 0 0 0 3.66 13.658z" fill="#23130D" p-id="31670"></path><path d="M635 254.06a10 10 0 0 1-10-10c0-63.4-51.58-114.98-114.98-114.98a10 10 0 0 1 0-20c74.428 0 134.98 60.552 134.98 134.98a10 10 0 0 1-10 10z" fill="#FFFFFF" p-id="31671"></path><path d="M457 408.34h11v79.24h-11z" opacity=".2" p-id="31672"></path></svg>