<?xml version="1.0" standalone="no"?><!DOCTYPE svg PUBLIC "-//W3C//DTD SVG 1.1//EN" "http://www.w3.org/Graphics/SVG/1.1/DTD/svg11.dtd"><svg t="1625812034508" class="icon" viewBox="0 0 1024 1024" version="1.1" xmlns="http://www.w3.org/2000/svg" p-id="49514" xmlns:xlink="http://www.w3.org/1999/xlink" width="200" height="200"><defs><style type="text/css"></style></defs><path d="M604.34 142.56H219.56c-28.04 0-50.86 22.82-50.86 50.86v98.94c0 28.06 22.82 50.88 50.86 50.88h384.78c13.6 0 26.36-5.3 35.98-14.9 9.6-9.62 14.9-22.38 14.9-35.98V193.42c0-28.04-22.82-50.86-50.88-50.86z m30.88 149.8c0 17.02-13.86 30.88-30.88 30.88H219.56c-17.02 0-30.86-13.86-30.86-30.88V193.42c0-17.02 13.84-30.86 30.86-30.86h384.78c17.02 0 30.88 13.84 30.88 30.86v98.94z" fill="#23130D" p-id="49515"></path><path d="M635.22 193.42v98.94c0 6.46-2 12.48-5.42 17.44-5.56 8.1-14.9 13.44-25.46 13.44H219.56c-17.02 0-30.86-13.86-30.86-30.88V193.42c0-5.06 1.22-9.84 3.4-14.06 5.12-9.98 15.5-16.8 27.46-16.8h384.78c17.02 0 30.88 13.84 30.88 30.86z" fill="#E1E1E5" p-id="49516"></path><path d="M318.5 419.6h-98.94c-28.04 0-50.86 22.82-50.86 50.88v98.94c0 28.04 22.82 50.86 50.86 50.86h98.94c28.06 0 50.88-22.82 50.88-50.86v-98.94c0-28.06-22.82-50.88-50.88-50.88z m30.88 149.82c0 17.02-13.86 30.86-30.88 30.86h-98.94c-17.02 0-30.86-13.84-30.86-30.86v-98.94c0-17.02 13.84-30.88 30.86-30.88h98.94c17.02 0 30.88 13.86 30.88 30.88v98.94z" fill="#23130D" p-id="49517"></path><path d="M318.5 439.6h-98.94c-6.04 0-11.68 1.74-16.44 4.78a30.904 30.904 0 0 0-13.2 17.48c-0.8 2.74-1.22 5.62-1.22 8.62v98.94c0 17.02 13.84 30.86 30.86 30.86h98.94c3 0 5.88-0.42 8.62-1.22 7.32-2.14 13.52-6.9 17.48-13.2 3.04-4.76 4.78-10.4 4.78-16.44v-98.94c0-17.02-13.86-30.88-30.88-30.88z m-11.74 103.94a9.86 9.86 0 0 1 2.9 7.38 9.84 9.84 0 0 1-2.9 6.76c-1.94 1.94-4.5 2.92-7.06 2.92s-5.12-0.98-7.08-2.92l-23.58-23.6-3.44 3.46-7.76 7.76-12.4 12.38c-1.94 1.94-4.5 2.92-7.06 2.92s-5.12-0.98-7.08-2.92a10.006 10.006 0 0 1 0-14.14l12.4-12.38 7.76-7.76 3.44-3.46-23.6-23.58a10.006 10.006 0 0 1 0-14.14c1.88-1.86 4.3-2.84 6.76-2.9a9.86 9.86 0 0 1 7.38 2.9l23.6 23.58 13.74-13.72 9.84-9.86c3.92-3.9 10.24-3.9 14.14 0s3.9 10.24 0 14.14l-9.84 9.86-13.74 13.72 23.58 23.6z" fill="#F9C139" p-id="49518"></path><path d="M604.34 419.6H505.4c-28.04 0-50.86 22.82-50.86 50.88v98.94c0 28.04 22.82 50.86 50.86 50.86h98.94c28.06 0 50.88-22.82 50.88-50.86v-98.94c0-28.06-22.82-50.88-50.88-50.88z m30.88 149.82c0 17.02-13.86 30.86-30.88 30.86H505.4c-17.02 0-30.86-13.84-30.86-30.86v-98.94c0-17.02 13.84-30.88 30.86-30.88h98.94c17.02 0 30.88 13.86 30.88 30.88v98.94z" fill="#23130D" p-id="49519"></path><path d="M546.18 529.94h-15.52l15.28 15.28a9.982 9.982 0 0 1 8.92-5.5c0.4 0 0.8 0.02 1.18 0.08l-9.86-9.86z m0 0h-15.52l15.28 15.28a9.982 9.982 0 0 1 8.92-5.5c0.4 0 0.8 0.02 1.18 0.08l-9.86-9.86z m0 0h-15.52l15.28 15.28a9.982 9.982 0 0 1 8.92-5.5c0.4 0 0.8 0.02 1.18 0.08l-9.86-9.86z m58.16-90.34H505.4c-5.44 0-10.54 1.42-14.98 3.9a30.94 30.94 0 0 0-14.08 16.6c-1.16 3.24-1.8 6.74-1.8 10.38v98.94c0 17.02 13.84 30.86 30.86 30.86h98.94c3.64 0 7.14-0.64 10.38-1.8 7.1-2.54 12.98-7.58 16.6-14.08 2.48-4.44 3.9-9.56 3.9-14.98v-98.94c0-17.02-13.86-30.88-30.88-30.88z m-49.48 26.98c5.54 0 10 4.48 10 10v13.56c0 5.54-4.46 10-10 10-5.52 0-10-4.46-10-10v-13.56c0-2.9 1.24-5.52 3.24-7.34 1.76-1.66 4.14-2.66 6.76-2.66z m10 83.14v13.6c0 0.26-0.02 0.52-0.04 0.78a9.964 9.964 0 0 1-9.96 9.22c-5.52 0-10-4.48-10-10v-13.6c0-1.62 0.38-3.16 1.08-4.5a9.982 9.982 0 0 1 8.92-5.5c0.4 0 0.8 0.02 1.18 0.08 4.6 0.52 8.22 4.16 8.74 8.74 0.06 0.38 0.08 0.78 0.08 1.18z m33.38-19.78h-86.72c-5.52 0-10-4.48-10-10a10 10 0 0 1 9.18-9.96c0.26-0.02 0.54-0.04 0.82-0.04h86.72c5.52 0 10 4.48 10 10 0 2.62-1.02 5-2.66 6.78a9.98 9.98 0 0 1-7.34 3.22z m-52.06 0h-15.52l15.28 15.28a9.982 9.982 0 0 1 8.92-5.5c0.4 0 0.8 0.02 1.18 0.08l-9.86-9.86z m0 0h-15.52l15.28 15.28a9.982 9.982 0 0 1 8.92-5.5c0.4 0 0.8 0.02 1.18 0.08l-9.86-9.86z" fill="#3594BF" p-id="49520"></path><path d="M318.5 680.76h-98.94c-28.04 0-50.86 22.82-50.86 50.88v98.92c0 28.06 22.82 50.88 50.86 50.88h98.94c28.06 0 50.88-22.82 50.88-50.88v-98.92c0-28.06-22.82-50.88-50.88-50.88z m30.88 149.8c0 17.02-13.86 30.88-30.88 30.88h-98.94c-17.02 0-30.86-13.86-30.86-30.88v-98.92c0-17.04 13.84-30.88 30.86-30.88h98.94c17.02 0 30.88 13.84 30.88 30.88v98.92z" fill="#23130D" p-id="49521"></path><path d="M318.5 700.76h-98.94c-7.56 0-14.46 2.72-19.82 7.22a30.8 30.8 0 0 0-10.8 19.88c-0.16 1.24-0.24 2.5-0.24 3.78v98.92c0 17.02 13.84 30.88 30.86 30.88h98.94c1.28 0 2.54-0.08 3.78-0.24 7.96-0.96 14.98-4.98 19.86-10.82 4.52-5.36 7.24-12.28 7.24-19.82v-98.92c0-17.04-13.86-30.88-30.88-30.88z m-6.1 90.34h-86.72c-5.52 0-10-4.48-10-10 0-3.02 1.34-5.72 3.44-7.54 1.76-1.54 4.06-2.46 6.56-2.46h86.72c5.52 0 10 4.48 10 10a9.996 9.996 0 0 1-10 10z" fill="#EC7063" p-id="49522"></path><path d="M604.34 680.76H505.4c-28.04 0-50.86 22.82-50.86 50.88v98.92c0 28.06 22.82 50.88 50.86 50.88h98.94c28.06 0 50.88-22.82 50.88-50.88v-98.92c0-28.06-22.82-50.88-50.88-50.88z m30.88 149.8c0 17.02-13.86 30.88-30.88 30.88H505.4c-17.02 0-30.86-13.86-30.86-30.88v-98.92c0-17.04 13.84-30.88 30.86-30.88h98.94c17.02 0 30.88 13.84 30.88 30.88v98.92z" fill="#23130D" p-id="49523"></path><path d="M524.84 791.1l20.04 20.04v-20.04h-20.04z m0 0l20.04 20.04v-20.04h-20.04z m79.5-90.34H505.4c-6.96 0-13.36 2.3-18.52 6.2-6 4.52-10.32 11.18-11.8 18.86-0.36 1.88-0.54 3.84-0.54 5.82v98.92c0 17.02 13.84 30.88 30.86 30.88h98.94c1.98 0 3.92-0.18 5.8-0.56a30.88 30.88 0 0 0 18.88-11.78c3.9-5.16 6.2-11.58 6.2-18.54v-98.92c0-17.04-13.86-30.88-30.88-30.88z m-6.1 90.34h-33.36v33.36c0 1.9-0.54 3.68-1.48 5.2a9.93 9.93 0 0 1-8.52 4.8c-5.52 0-10-4.48-10-10v-33.36h-33.36c-5.52 0-10-4.48-10-10 0-3.62 1.92-6.78 4.8-8.52 1.52-0.94 3.3-1.48 5.2-1.48h33.36v-33.36c0-1.4 0.28-2.72 0.8-3.94a10.004 10.004 0 0 1 19.2 3.94v33.36h33.36a10.004 10.004 0 0 1 3.94 19.2c-1.22 0.52-2.54 0.8-3.94 0.8z m-73.4 0l20.04 20.04v-20.04h-20.04z m0 0l20.04 20.04v-20.04h-20.04z" fill="#72AF5F" p-id="49524"></path><path d="M604.34 328.24H219.56c-19.774 0-35.86-16.096-35.86-35.88V193.42c0-5.688 1.368-11.342 3.958-16.354a35.726 35.726 0 0 1 31.904-19.504h384.78c19.786 0 35.88 16.086 35.88 35.86v98.94c0 7.286-2.18 14.296-6.302 20.278a35.9 35.9 0 0 1-29.58 15.6zM219.56 167.56a25.772 25.772 0 0 0-23.012 14.082 25.406 25.406 0 0 0-2.848 11.778v98.94c0 14.27 11.6 25.88 25.86 25.88h384.78c8.518 0 16.494-4.212 21.338-11.27a25.612 25.612 0 0 0 4.542-14.61V193.42c0-14.258-11.61-25.86-25.88-25.86H219.56z" fill="#231F20" opacity=".2" p-id="49525"></path><path d="M604.34 605.28H505.4c-19.774 0-35.86-16.086-35.86-35.86v-98.94c0-4.128 0.704-8.188 2.092-12.066a35.838 35.838 0 0 1 16.354-19.282 35.794 35.794 0 0 1 17.414-4.532h98.94c19.786 0 35.88 16.096 35.88 35.88v98.94a35.93 35.93 0 0 1-23.816 33.768 35.672 35.672 0 0 1-12.064 2.092zM505.4 444.6c-4.38 0-8.718 1.128-12.542 3.266a25.86 25.86 0 0 0-13.318 22.616v98.94c0 14.26 11.6 25.86 25.86 25.86h98.94c2.978 0 5.904-0.506 8.696-1.506a25.942 25.942 0 0 0 13.918-11.806 25.788 25.788 0 0 0 3.268-12.546v-98.94c0-14.27-11.61-25.88-25.88-25.88H505.4v-0.004z m49.46 133.72c-8.272 0-15-6.728-15-15v-13.6c0-1.072 0.116-2.136 0.338-3.172l-11.608-11.61h-17.07c-8.272 0-15-6.728-15-15 0-7.748 6.05-14.312 13.774-14.942 0.398-0.032 0.814-0.058 1.226-0.058h40.888c-7.11-1.172-12.548-7.364-12.548-14.8v-13.56c0-4.196 1.778-8.218 4.876-11.038 2.684-2.534 6.302-3.962 10.126-3.962 8.272 0 15 6.728 15 15v13.56c0 7.436-5.44 13.626-12.548 14.8h40.93c8.272 0 15 6.728 15 15 0 3.77-1.414 7.38-3.982 10.168a15.094 15.094 0 0 1-11.018 4.832h-39.99l0.222 0.222a14.838 14.838 0 0 1 11.262 12.708c0.084 0.568 0.126 1.174 0.126 1.85v13.6c0 0.384-0.024 0.77-0.052 1.154-0.578 7.764-7.144 13.848-14.952 13.848z m-4.522-30.718c-0.314 0.628-0.478 1.36-0.478 2.12v13.6c0 2.758 2.242 5 5 5 2.6 0 4.786-2.016 4.974-4.588 0.01-0.142 0.026-0.278 0.026-0.412v-13.6c0-0.134 0.002-0.27-0.018-0.396a8.324 8.324 0 0 1-0.032-0.22 4.89 4.89 0 0 0-4.302-4.33 6.468 6.468 0 0 1-0.284-0.04 4.96 4.96 0 0 0-4.886 2.866z m-7.608-12.662l2.926 2.926c0.26-0.202 0.526-0.394 0.796-0.58l-2.346-2.346h-1.376z m3.45-10h52.06c1.398 0 2.706-0.576 3.678-1.624 0.848-0.92 1.322-2.126 1.322-3.376 0-2.758-2.242-5-5-5h-86.72c-0.146 0-0.292 0.016-0.426 0.026a5.018 5.018 0 0 0-4.574 4.974c0 2.758 2.244 5 5 5h34.66z m8.68-53.36c-1.26 0-2.442 0.46-3.328 1.296-1.102 1.004-1.672 2.296-1.672 3.704v13.56c0 2.756 2.242 5 5 5s5-2.244 5-5v-13.56c0-2.756-2.242-5-5-5z" fill="#231F20" opacity=".2" p-id="49526"></path><path d="M604.34 866.44H505.4c-19.774 0-35.86-16.096-35.86-35.878v-98.92c0-2.308 0.212-4.584 0.63-6.762a35.91 35.91 0 0 1 13.702-21.912 35.436 35.436 0 0 1 21.528-7.208h98.94c19.786 0 35.88 16.096 35.88 35.88v98.92c0 7.858-2.494 15.312-7.212 21.554a35.828 35.828 0 0 1-21.934 13.678 34.284 34.284 0 0 1-6.734 0.648z m-98.94-160.68c-5.652 0-11.014 1.794-15.506 5.19a25.94 25.94 0 0 0-9.906 15.818 25.954 25.954 0 0 0-0.45 4.874v98.92c0 14.27 11.6 25.878 25.86 25.878h98.94c1.678 0 3.296-0.154 4.812-0.46a25.886 25.886 0 0 0 15.876-9.888 25.552 25.552 0 0 0 5.194-15.53v-98.92c0-14.272-11.61-25.88-25.88-25.88l-98.94-0.002z m49.48 133.7c-8.272 0-15-6.728-15-15v-11.25l-17.112-17.112h-11.25c-8.272 0-15-6.728-15-15a14.832 14.832 0 0 1 7.216-12.798 14.814 14.814 0 0 1 7.784-2.202h28.362v-28.36c0-2.048 0.404-4.034 1.2-5.9a15.034 15.034 0 0 1 13.8-9.1c8.272 0 15 6.728 15 15v28.36h28.36c8.272 0 15 6.728 15 15a15.028 15.028 0 0 1-9.074 13.79 15 15 0 0 1-5.926 1.21h-28.36v28.362a14.874 14.874 0 0 1-2.228 7.828c-2.702 4.476-7.488 7.172-12.772 7.172z m-5-28.32v13.32c0 2.758 2.242 5 5 5 1.752 0 3.338-0.892 4.24-2.386 0.506-0.82 0.76-1.708 0.76-2.614v-33.36a5 5 0 0 1 5-5h33.36c0.704 0 1.35-0.13 1.978-0.398a5.004 5.004 0 0 0-1.978-9.602h-33.36a5 5 0 0 1-5-5v-33.36a5.004 5.004 0 0 0-9.614-1.954 4.938 4.938 0 0 0-0.386 1.954v33.36a5 5 0 0 1-5 5h-33.36a4.9 4.9 0 0 0-2.57 0.732 4.94 4.94 0 0 0-2.43 4.268c0 2.758 2.244 5 5 5H544.922a5 5 0 0 1 4.96 5.634v19.406h-0.002z m-12.97-15.04l2.97 2.97v-2.97h-2.97z" fill="#231F20" opacity=".2" p-id="49527"></path><path d="M178.686 945.954H108.164v-74.52a10 10 0 1 0-20 0v84.52a10 10 0 0 0 10 10h80.522a10 10 0 1 0 0-20zM725.748 861.434a10 10 0 0 0-10 10v74.52h-70.526c-5.524 0-10 4.476-10 10s4.476 10 10 10h80.526a10 10 0 0 0 10-10v-84.52a10 10 0 0 0-10-10zM725.748 58.048h-80.526a10 10 0 1 0 0 20h70.526v74.51a10 10 0 1 0 20 0V68.048a10 10 0 0 0-10-10zM98.164 162.558a10 10 0 0 0 10-10V78.048h70.522a10 10 0 0 0 0-20H98.164a10 10 0 0 0-10 10v84.51a10 10 0 0 0 10 10zM935.82 175.88c0.02-1.34-0.22-2.72-0.76-4.04l-45.04-107.66c-0.06-0.18-0.18-0.34-0.28-0.52-0.18-0.4-0.38-0.8-0.64-1.16-0.16-0.28-0.38-0.5-0.58-0.74-0.22-0.26-0.4-0.54-0.64-0.78-0.26-0.24-0.54-0.46-0.82-0.68-0.24-0.18-0.44-0.38-0.7-0.56-0.4-0.26-0.82-0.46-1.24-0.68-0.16-0.06-0.3-0.16-0.46-0.24h-0.02c-0.62-0.26-1.24-0.46-1.9-0.58-0.24-0.06-0.5-0.04-0.74-0.08-0.4-0.04-0.8-0.12-1.2-0.12-0.38 0-0.74 0.08-1.12 0.12-0.28 0.02-0.54 0.02-0.82 0.08-0.64 0.12-1.28 0.32-1.88 0.58h-0.04c-0.2 0.08-0.36 0.2-0.56 0.3-0.38 0.2-0.78 0.38-1.14 0.62-0.26 0.18-0.5 0.4-0.74 0.62-0.26 0.2-0.52 0.38-0.76 0.62-0.26 0.26-0.48 0.56-0.7 0.84-0.18 0.22-0.38 0.42-0.54 0.66-0.28 0.42-0.5 0.88-0.72 1.32-0.06 0.14-0.14 0.26-0.2 0.38l-0.02 0.06s0 0.02-0.02 0.02l-44.98 107.58c-0.56 1.32-0.8 2.68-0.76 4.02V907.8c0 0.08-0.02 0.14-0.02 0.22v47.94c0 1.2 0.26 2.34 0.64 3.4 0.06 0.16 0.08 0.34 0.16 0.48 0.04 0.14 0.14 0.26 0.2 0.38 1.6 3.38 5.02 5.74 9 5.74h90.04c5.52 0 10-4.48 10-10v-47.84c0-0.04 0.02-0.06 0.02-0.1l-0.02-732.14zM880.8 93.96l30 71.74h-60l30-71.74z m-35 91.74h25V898l-25 0.02V185.7z m70.02 760.26h-70.04v-27.94l35.02-0.02 35.02 0.02v27.94zM890.8 898V185.7h25.02l0.02 712.32-25.04-0.02z" fill="#23130D" p-id="49528"></path><path d="M915.82 918.02v27.94h-70.04v-27.94l35.02-0.02z" fill="#EC7063" p-id="49529"></path><path d="M858.3 918.02v27.94h-12.52v-27.94l6.26-0.02z" fill="#FFFFFF" opacity=".4" p-id="49530"></path><path d="M915.83 918.02v27.94h-12.52v-27.94l6.26-0.02z" fill="#231F20" opacity=".2" p-id="49531"></path><path d="M910.8 165.7h-60l30-71.74z" fill="#E1E1E5" p-id="49532"></path><path d="M910.8 165.7h-22.5l-18.74-44.84 11.24-26.9z" fill="#231F20" opacity=".2" p-id="49533"></path><path d="M915.84 544.94v353.08L890.8 898V185.7h25.02v345l0.02 14.24zM870.8 185.7V898l-25 0.02V185.7z" fill="#636368" p-id="49534"></path><path d="M858.3 185.7V898l-12.5 0.02V185.7z" fill="#FFFFFF" opacity=".4" p-id="49535"></path><path d="M915.82 185.7V898l-12.5 0.02V185.7z" fill="#231F20" opacity=".2" p-id="49536"></path><path d="M322.4 781.1c0 5.52-4.48 10-10 10h-86.72c-5.52 0-10-4.48-10-10s4.48-10 10-10h86.72c5.52 0 10 4.48 10 10zM306.76 543.54a10.006 10.006 0 0 1 0 14.14c-1.94 1.94-4.5 2.92-7.06 2.92s-5.12-0.98-7.08-2.92l-23.58-23.6-23.6 23.6c-1.94 1.94-4.5 2.92-7.06 2.92s-5.12-0.98-7.08-2.92a10.006 10.006 0 0 1 0-14.14l23.6-23.6-23.6-23.58a10.006 10.006 0 0 1 0-14.14 10.006 10.006 0 0 1 14.14 0l23.6 23.58 23.58-23.58c3.92-3.9 10.24-3.9 14.14 0s3.9 10.24 0 14.14l-23.58 23.58 23.58 23.6zM608.24 781.1c0 5.52-4.48 10-10 10h-33.36v33.36c0 5.52-4.48 10-10 10s-10-4.48-10-10v-33.36h-33.36c-5.52 0-10-4.48-10-10s4.48-10 10-10h33.36v-33.36c0-5.52 4.48-10 10-10s10 4.48 10 10v33.36h33.36c5.52 0 10 4.48 10 10zM608.24 519.94c0 5.52-4.48 10-10 10h-86.72c-5.52 0-10-4.48-10-10s4.48-10 10-10h86.72c5.52 0 10 4.48 10 10zM564.86 476.58v13.56c0 5.54-4.46 10-10 10-5.52 0-10-4.46-10-10v-13.56c0-5.52 4.48-10 10-10 5.54 0 10 4.48 10 10zM564.86 549.72v13.6c0 5.52-4.46 10-10 10-5.52 0-10-4.48-10-10v-13.6c0-5.52 4.48-10 10-10 5.54 0 10 4.48 10 10z" fill="#FFFFFF" p-id="49537"></path><path d="M408.5 323.24h-72.52L192.1 179.36c5.12-9.98 15.5-16.8 27.46-16.8h28.28l160.66 160.68zM492.46 323.24h-55.76l-160.66-160.68h55.76zM629.8 309.8c-5.56 8.1-14.9 13.44-25.46 13.44h-53.78l-160.68-160.68h92.68l147.24 147.24z" fill="#FFFFFF" opacity=".7" p-id="49538"></path><path d="M601 600.28h-39.92l-86.54-86.56v-39.9l36.16 36.16a10 10 0 0 0-9.18 9.96c0 5.52 4.48 10 10 10h19.14l15.28 15.28c-0.7 1.34-1.08 2.88-1.08 4.5v13.6c0 5.52 4.48 10 10 10 5.28 0 9.58-4.06 9.96-9.22l36.18 36.18zM556.84 509.94h-30.66l-49.84-49.84a30.94 30.94 0 0 1 14.08-16.6l66.42 66.44zM631.32 584.4a30.952 30.952 0 0 1-16.6 14.08l-58.68-58.68-9.86-9.86h30.66l54.48 54.46zM635.22 505.36v50.98l-29.64-29.62c1.64-1.78 2.66-4.16 2.66-6.78 0-5.52-4.48-10-10-10h-9.44L564.86 486v-9.42c0-5.52-4.46-10-10-10-2.62 0-5 1-6.76 2.66l-29.64-29.64h51l65.76 65.76z" fill="#FFFFFF" opacity=".4" p-id="49539"></path><path d="M312.82 600.28h-39.9l-84.22-84.24v-39.88l55 55-12.4 12.38a10.006 10.006 0 0 0 0 14.14c1.96 1.94 4.52 2.92 7.08 2.92s5.12-0.98 7.06-2.92l12.4-12.38 54.98 54.98zM254.9 519.94l-3.44 3.46-61.54-61.54c2.12-7.3 6.9-13.52 13.2-17.48l34.94 34.94c-2.46 0.06-4.88 1.04-6.76 2.9a10.006 10.006 0 0 0 0 14.14l23.6 23.58zM344.6 585.86a30.924 30.924 0 0 1-17.48 13.2l-61.52-61.52 3.44-3.46 23.58 23.6c1.96 1.94 4.52 2.92 7.08 2.92s5.12-0.98 7.06-2.92a9.84 9.84 0 0 0 2.9-6.76l34.94 34.94zM349.38 507.68v51l-52.46-52.46 9.84-9.86c3.9-3.9 3.9-10.24 0-14.14s-10.22-3.9-14.14 0l-9.84 9.86-52.48-52.48h51l68.08 68.08z" fill="#FFFFFF" opacity=".4" p-id="49540"></path><path d="M595.18 861.44h-39.9l-80.74-80.74V740.8l31.78 31.78c-2.88 1.74-4.8 4.9-4.8 8.52 0 5.52 4.48 10 10 10h13.32l20.04 20.04v13.32c0 5.52 4.48 10 10 10 3.62 0 6.78-1.92 8.52-4.8l31.78 31.78zM544.88 764.96v6.14h-24.52l-45.28-45.28c1.48-7.68 5.8-14.34 11.8-18.86l58 58zM544.88 791.1v4.52l-4.52-4.52zM629.02 849.1a30.88 30.88 0 0 1-18.88 11.78l-45.26-45.26v-24.52h6.14l58 58zM635.22 772.34v50.98l-33.04-33.02a10.004 10.004 0 0 0-3.94-19.2h-15.26l-18.1-18.1v-15.26a10.004 10.004 0 0 0-19.2-3.94l-33.04-33.04h51l71.58 71.58z" fill="#FFFFFF" opacity=".4" p-id="49541"></path><path d="M307 861.44h-39.88l-78.42-78.42v-39.88l30.42 30.42a9.954 9.954 0 0 0-3.44 7.54c0 5.52 4.48 10 10 10h10.98l70.34 70.34zM262.86 771.1h-30.68l-43.24-43.24a30.8 30.8 0 0 1 10.8-19.88l63.12 63.12zM342.14 850.38a30.682 30.682 0 0 1-19.86 10.82l-70.1-70.1h30.68l59.28 59.28zM349.38 774.66v51l-34.8-34.8c4.48-1 7.82-4.98 7.82-9.76 0-5.52-4.48-10-10-10h-17.58l-70.34-70.34h51l73.9 73.9z" fill="#FFFFFF" opacity=".4" p-id="49542"></path><path d="M903.46 369.9c-4.22-4.36-8.44-8.52-12.66-12.44v16.16c8.48 8.56 16.84 17.4 25.02 26.44v-16.54a316.3 316.3 0 0 0-12.36-13.62z m-57.66-33.98c7.06 4.3 14.24 9.36 21.46 15.06 1.18 1.08 2.36 2.16 3.54 3.28v-14.06c-8.24-7.42-16.56-14.52-25-21.22v16.94z m52.5 59.46c-2.5-2.58-5-5.1-7.5-7.54v16.52c7.32 7.52 14.5 15.22 21.58 23.06 1.18 1.48 2.32 2.98 3.44 4.48v-16.76c-5.5-6.74-11.36-13.36-17.52-19.76z m-52.5-46.76v16.04c5.4 3.52 10.84 7.46 16.3 11.78 2.92 2.66 5.82 5.36 8.7 8.12v-14.58a181.8 181.8 0 0 0-3.22-2.58c-7.18-6.52-14.44-12.8-21.78-18.78z m69.34 97.52a341.24 341.24 0 0 0-22-25.28c-0.78-0.8-1.56-1.62-2.34-2.4v16.74c5.54 5.8 11 11.7 16.4 17.68 3 3.8 5.88 7.64 8.62 11.5v-17.46c-0.22-0.26-0.44-0.52-0.68-0.78z m-69.34-67.76v15.22c3.7 2.6 7.42 5.36 11.16 8.32 4.64 4.26 9.26 8.6 13.84 13.06v-15.22c-2.8-2.4-5.58-4.68-8.38-6.88-5.5-5-11.04-9.84-16.62-14.5z m64.2 93.26c-6-7.62-12.4-15.12-19.2-22.36v16.84c3.78 4.04 7.54 8.12 11.26 12.24 4.92 6.24 9.54 12.56 13.76 18.9v-19.06c-1.9-2.2-3.86-4.38-5.82-6.56z m-64.2-63.44v14.62c2 1.46 4 3 6 4.58 6.4 5.86 12.74 11.9 19 18.1v-15.74a262.26 262.26 0 0 0-13.52-11.4c-3.8-3.46-7.64-6.84-11.48-10.16z m59.04 88.92c-4.46-5.66-9.14-11.26-14.04-16.72v16.76c2.04 2.22 4.08 4.44 6.1 6.68 6.98 8.86 13.32 17.88 18.92 26.84v-21.16c-3.62-4.16-7.28-8.3-10.98-12.4z m-59.04-58.96v14.06l0.84 0.66c8.16 7.46 16.22 15.24 24.16 23.28v-16.22a296.04 296.04 0 0 0-18.68-16.12c-2.1-1.9-4.2-3.8-6.32-5.66z m0 451.44v8.42l25-0.02v-9.78c-8.44 0.96-16.78 1.46-25 1.38z m45-681.94v13.88c8.46 7.66 16.82 15.66 25.02 23.94v-14.6c-8.2-8.06-16.56-15.82-25.02-23.22z m-44.44-21.96c8.22 5.78 16.36 12 24.44 18.6v-13.28c-2.28-1.82-4.56-3.58-6.86-5.32h-17.58z m44.44 52.02v14.02c8.46 7.84 16.82 16.02 25.02 24.46v-14.78c-8.22-8.18-16.56-16.12-25.02-23.7z m-45-23.26c8.42 6.1 16.76 12.66 25 19.6v-13.46c-8.24-6.7-16.58-13.04-25-18.9v12.76z m45 53.12v14.5c8.48 8.02 16.82 16.38 25.02 24.96v-16.72c-8.3-8.42-16.68-16-25.02-22.74z m-45-16.48c8.12 3.82 16.5 8.72 25 14.6v-15.38c-8.24-6.88-16.58-13.38-25-19.48v20.26z m67.96 67.86c-7.62-7.9-15.3-15.14-22.96-21.66v15.2c8.48 8.18 16.82 16.7 25.02 25.42v-16.8c-0.68-0.72-1.36-1.44-2.06-2.16z m-67.96-39.82c8.16 4.22 16.54 9.5 25 15.74v-14.72c-8.22-7.06-16.56-13.76-25-20.04v19.02z m62.8 65.3a315.02 315.02 0 0 0-17.8-17.16v15.72c8.48 8.38 16.82 17.06 25.02 25.94v-16.74c-2.34-2.62-4.76-5.2-7.22-7.76z m-62.8-37.04c8.2 4.64 16.56 10.26 25 16.82v-14.1c-8.24-7.24-16.56-14.14-25-20.62v17.9z m45 235.98v16.84c9.92 13.14 18.4 26.54 25.04 39.46v-21.1c-7.18-11.8-15.62-23.68-25.04-35.2z m-45-31.7c6.46 5.6 12.92 11.74 19.3 18.38 1.92 2 3.82 4.02 5.7 6.08v-15.14c-8.3-8.5-16.66-16.18-25-23v13.68z m70.04 101.2c-6.98-12.46-15.42-25.16-25.04-37.56v17.44c9.9 13.94 18.12 28.02 24.22 41.38-2.18 0.18-4.36 0.32-6.52 0.42-5.2-8.94-11.12-17.98-17.7-26.92v18.1c2.02 3.02 3.96 6.06 5.8 9.08-1.94-0.02-3.88-0.08-5.8-0.18v24.62c0.22 0.34 0.42 0.7 0.64 1.04-0.22 0-0.42 0-0.64-0.02v10.72c2.26 0.06 4.56 0.06 6.86 0.02 2.6 4.76 4.96 9.46 7.06 14.06-4.68 0.38-9.32 0.62-13.92 0.68v10.74c5.98-0.04 12.08-0.36 18.34-0.94 1.76 4.62 3.24 9.1 4.38 13.44-7.64 1.08-15.24 1.8-22.72 2.1v10.78c8.06-0.28 16.36-1.02 24.92-2.24l0.12 0.66v-36.36c-0.08 0.02-0.18 0.02-0.26 0.04-1.94-4.42-4.08-8.92-6.44-13.46 1.7-0.12 3.42-0.28 5.16-0.44 0.54 1.42 1.06 2.84 1.54 4.24v-26.24c-0.52-1.02-1.04-2.02-1.56-3.04l1.56-0.12v-32.04z m-12.5 47.16c-2.8-4.82-5.78-9.68-9-14.52 2.78 0.08 5.62 0.08 8.46 0.02 2.6 4.76 4.96 9.46 7.06 14.08-2.18 0.16-4.34 0.32-6.52 0.42z m-57.54 57.88c8 1.84 16.34 3.04 25 3.62v-10.7c-8.52-0.58-16.88-1.8-25-3.76v10.84z m0-26.74a155.66 155.66 0 0 0 25 4.46v-10.72c-8.56-0.84-16.92-2.38-25-4.68v10.94z m0-26.94a149.78 149.78 0 0 0 25 5.32v-10.72c-8.58-1.14-16.92-3-25-5.64v11.04z m0-27.18a146.1 146.1 0 0 0 25 6.28v-10.78c-8.6-1.44-16.96-3.62-25-6.68v11.18z m0-49.04v14.56c1.28 1.28 2.56 2.6 3.84 3.92 7.54 7.84 14.62 16.02 21.16 24.32v-16.44c-4.38-5.16-8.96-10.24-13.72-15.18-3.74-3.9-7.52-7.62-11.28-11.18z m0-30.2v14.24c3 2.86 6 5.86 8.98 8.96 5.6 5.82 10.96 11.82 16.02 17.92v-15.96a311.3 311.3 0 0 0-8.58-9.26c-5.46-5.66-10.94-10.98-16.42-15.9z m0-30.04v13.98c4.74 4.32 9.46 8.92 14.14 13.78 3.74 3.88 7.38 7.84 10.86 11.88v-15.58c-1.12-1.2-2.26-2.4-3.42-3.6-7.16-7.44-14.38-14.26-21.58-20.46z m45 208.52v10.82c8.1-0.46 16.44-1.4 25.04-2.8v-11.02c-8.42 1.46-16.78 2.48-25.04 3z m-45 8.2c8.02 1.54 16.34 2.48 25 2.82v-10.72c-8.52-0.34-16.88-1.28-25-2.92v10.82z m45 16.9v10.84c8.1-0.66 16.46-1.76 25.04-3.34v-11.04c-8.42 1.62-16.78 2.82-25.04 3.54z m-45 9.46c8.02 1.28 16.36 1.96 25 2.08v-10.74c-8.5-0.08-16.86-0.76-25-2.1v10.76z m45 15.5v10.92c8.12-0.84 16.46-2.14 25.04-3.88v-11.1c-8.4 1.78-16.76 3.16-25.04 4.06z m-45-0.02v10.74c8.02 1.02 16.36 1.46 25 1.36v-10.78c-8.48 0.16-16.84-0.26-25-1.32z m45 24.88v10.94c8.12-1.02 16.46-2.46 25.04-4.36v-11.14c-8.4 1.92-16.76 3.46-25.04 4.56z m-45 1.16v10.76c8.04 0.74 16.38 0.96 25 0.66v-10.8c-8.48 0.36-16.84 0.18-25-0.62z m45 23.58v10.96c8.12-1.18 16.46-2.78 25.04-4.82v-11.18c-8.38 2.06-16.74 3.76-25.04 5.04z m-45 2.34v10.7c8.04 0.54 16.38 0.54 25 0v-10.82c-8.46 0.6-16.8 0.64-25 0.12z m45 22.3v10.98c8.12-1.32 16.46-3.08 25.04-5.28v-11.22c-8.36 2.2-16.74 4.06-25.04 5.52z m-45 3.42v10.72c8.06 0.32 16.38 0.1 25-0.62v-10.86c-8.46 0.78-16.8 1.06-25 0.76z m54.12-678.32h-9.12v5.78c8.46 7.44 16.8 15.28 25.02 23.4v-14.5c-5.24-5.02-10.54-9.92-15.9-14.68z m-9.12 326.04v16.34c9.62 12.1 18.08 24.5 25.04 36.64v-19.78c-7.38-11.2-15.78-22.4-25.04-33.2z m-45-29.9c8.18 6.74 16.36 14.34 24.44 22.74 0.18 0.2 0.36 0.38 0.56 0.58v-14.8c-8.32-8.16-16.68-15.5-25-21.94v13.42z m45 403.28v11.04c8.14-1.48 16.48-3.4 25.04-5.74v-11.26c-8.36 2.34-16.72 4.34-25.04 5.96z" opacity=".2" p-id="49543"></path></svg>