<?xml version="1.0" standalone="no"?><!DOCTYPE svg PUBLIC "-//W3C//DTD SVG 1.1//EN" "http://www.w3.org/Graphics/SVG/1.1/DTD/svg11.dtd"><svg t="1625811430795" class="icon" viewBox="0 0 1024 1024" version="1.1" xmlns="http://www.w3.org/2000/svg" p-id="28987" xmlns:xlink="http://www.w3.org/1999/xlink" width="200" height="200"><defs><style type="text/css"></style></defs><path d="M463.176 113.33a519.852 519.852 0 0 1 29.152 11.414l0.074 0.032 1.814 0.778c0.306 0.132 0.614 0.246 0.922 0.344 0.282 0.156 0.572 0.3 0.874 0.43l1.8 0.788a10.004 10.004 0 0 0 8.044-18.31l-1.864-0.816a10.04 10.04 0 0 0-0.962-0.362 9.438 9.438 0 0 0-0.914-0.448l-1.778-0.762-0.088-0.038a540.706 540.706 0 0 0-30.356-11.886 9.994 9.994 0 0 0-12.778 6.06 9.998 9.998 0 0 0 6.06 12.776zM360.6 90.02c10.094 0.904 20.48 2.29 30.872 4.116l0.026 0.004 1.888 0.336c0.326 0.06 0.652 0.102 0.974 0.128 0.304 0.088 0.614 0.162 0.932 0.22l1.938 0.366a10.002 10.002 0 0 0 3.746-19.648l-1.994-0.376a9.784 9.784 0 0 0-1.034-0.14 10.684 10.684 0 0 0-0.992-0.232l-2.026-0.362-0.068-0.012a390.3 390.3 0 0 0-32.48-4.326 9.996 9.996 0 0 0-10.852 9.068 10.008 10.008 0 0 0 9.07 10.858zM909.052 660.336a10 10 0 0 0-9.498 10.478c0.306 6.22 0.46 12.458 0.46 18.542 0.004 4.174-0.07 8.41-0.218 12.592v0.012l-0.074 1.926c-0.012 0.322-0.01 0.642 0.006 0.958a10.966 10.966 0 0 0-0.094 1.002l-0.094 1.902a10.004 10.004 0 0 0 19.974 1.06l0.102-2.078a9.528 9.528 0 0 0-0.004-0.986c0.048-0.34 0.08-0.684 0.096-1.034l0.076-1.994 0.002-0.056c0.156-4.424 0.234-8.906 0.23-13.312 0-6.402-0.164-12.968-0.484-19.514a9.996 9.996 0 0 0-10.48-9.498zM872.12 507.34c-1.26 0.54-2.56 0.78-3.84 0.78-3.92 0-7.64-2.32-9.24-6.16l-0.76-1.8c-0.12-0.3-0.24-0.62-0.34-0.92-0.16-0.28-0.3-0.58-0.42-0.88l-0.78-1.82v-0.02c-4.08-9.5-8.48-19.14-13.1-28.62a10.012 10.012 0 0 1 4.6-13.38c4.96-2.42 10.96-0.34 13.38 4.62 4.76 9.78 9.3 19.7 13.5 29.52l0.02 0.02 0.78 1.84c0.14 0.32 0.26 0.64 0.36 0.96 0.16 0.3 0.3 0.6 0.44 0.92l0.78 1.86a10 10 0 0 1-5.38 13.08zM688.6 243.44a10.004 10.004 0 0 1-7.4 3.26c-2.4 0-4.82-0.86-6.72-2.6l-1.48-1.34c-0.24-0.22-0.48-0.46-0.7-0.7-0.26-0.2-0.52-0.4-0.78-0.64l-1.44-1.3c-0.06-0.04-0.1-0.1-0.16-0.14-7.8-7-15.82-13.86-23.8-20.44-4.28-3.5-4.88-9.8-1.38-14.08a10.016 10.016 0 0 1 14.08-1.38c8.26 6.8 16.54 13.92 24.6 21.14 0.06 0.04 0.1 0.1 0.16 0.14l1.36 1.22c0.24 0.24 0.48 0.46 0.7 0.72 0.28 0.2 0.54 0.4 0.8 0.64l1.5 1.36a10.018 10.018 0 0 1 0.66 14.14z" fill="#23130D" p-id="28988"></path><path d="M899.88 803.62c3.02-7.64 5.7-15.56 8.02-23.64 1.54-5.3-1.52-10.84-6.82-12.38-5.32-1.52-10.86 1.54-12.38 6.84-1.86 6.42-3.98 12.72-6.3 18.84a98.1 98.1 0 0 0-41.1-9c-54.38 0-98.64 44.24-98.64 98.64 0 12.72 2.46 24.88 6.88 36.06-84.58 25.92-192.18 5.76-299.44-56.02a120.26 120.26 0 0 0 51.94-56.9c18.46 42.16 60.58 71.7 109.48 71.7 64.38 0 116.98-51.16 119.38-114.96a119.336 119.336 0 0 0 35.68 5.5c16.8 0 33.62-3.56 49.3-10.66 60-27.18 86.72-98.12 59.54-158.12-1.96-4.32-4.18-8.5-6.62-12.54a118.28 118.28 0 0 0 14.92-13.14c2.12 7.84 4.06 15.7 5.76 23.44 0.02 0.06 0.02 0.12 0.04 0.18l0.38 1.74c0.08 0.32 0.16 0.64 0.26 0.94 0.04 0.32 0.08 0.64 0.14 0.96l0.4 1.92a10.02 10.02 0 0 0 9.8 7.98c0.66 0 1.34-0.08 2.04-0.22 5.4-1.12 8.88-6.42 7.76-11.82l-0.42-1.98c-0.08-0.34-0.16-0.68-0.26-1-0.04-0.34-0.1-0.68-0.18-1.02l-0.42-1.96c-0.02-0.06-0.02-0.14-0.04-0.2-2.3-10.38-4.96-20.94-7.94-31.42-0.6-2.08-1.84-3.82-3.42-5.06 3.58-5.52 6.76-11.36 9.42-17.5 25.86-59.34-0.48-128.48-58.78-155.84 12.82-55.58-15.58-112.94-68.76-136.1a119.354 119.354 0 0 0-50.8-9.9c-10.88-54.76-59.28-96.18-117.18-96.18-12.02 0-23.64 1.8-34.58 5.12-2.58-1.56-5.18-3.12-7.78-4.64a10.01 10.01 0 0 0-13.7 3.54c-1.88 3.2-1.74 7-0.02 10a120.264 120.264 0 0 0-53.4 57.7c-18.48-42.18-60.58-71.72-109.5-71.72-57.9 0-106.3 41.42-117.18 96.18a119.414 119.414 0 0 0-50.8 9.9C171.4 270.04 143 327.4 155.8 382.96c-16.68 7.82-31.06 19.14-42.32 33.16-21.9-105-5.1-196.94 47.08-256.52 11.96 10.86 27.82 17.48 45.2 17.48 37.12 0 67.3-30.2 67.3-67.32 0-5.02-0.56-9.92-1.62-14.64 5.16-1.16 10.4-2.2 15.68-3.04 0.06 0 0.1-0.02 0.16-0.02l1.9-0.3c0.32-0.04 0.64-0.1 0.94-0.18 0.32-0.02 0.64-0.04 0.96-0.1l1.92-0.26a10.008 10.008 0 0 0 8.56-11.26c-0.74-5.46-5.78-9.28-11.26-8.56l-2.06 0.28c-0.34 0.06-0.68 0.12-1.02 0.2-0.34 0.02-0.68 0.06-1.02 0.12l-1.86 0.28c-0.08 0-0.14 0.02-0.2 0.02-6.78 1.08-13.48 2.42-20.04 3.98-11.62-20.18-33.42-33.82-58.34-33.82-37.12 0-67.3 30.2-67.3 67.3 0 12.44 3.4 24.1 9.3 34.1-61.56 68.1-79.46 175.34-49.24 296.3-1.12 2.36-2.2 4.76-3.16 7.22-11.68 29.72-11.08 62.18 1.66 91.44 8.42 19.3 21.54 35.78 38.26 48.16-2.44 4.04-4.68 8.2-6.62 12.52-27.18 60.02-0.48 130.96 59.54 158.14a119.422 119.422 0 0 0 49.28 10.66c12.04 0 24.08-1.86 35.7-5.5 2.38 63.8 55 114.96 119.36 114.96 12.04 0 23.66-1.8 34.62-5.12C511.1 923.56 596.26 950 672.26 950c30.58 0 59.7-4.3 86.64-12.98 17.64 26.8 47.98 44.52 82.4 44.52 54.38 0 98.62-44.24 98.62-98.62 0-32.46-15.76-61.3-40.04-79.3zM512.04 260.28c0-41.78 25.92-77.62 62.5-92.32a596.2 596.2 0 0 1 11.42 7.28l1.48 0.98c0.28 0.18 0.56 0.36 0.86 0.5 0.24 0.2 0.5 0.4 0.78 0.58l1.66 1.1c1.7 1.14 3.64 1.68 5.54 1.68 3.24 0 6.4-1.56 8.32-4.44 3.08-4.6 1.84-10.82-2.76-13.88l-0.64-0.42c3.4-0.36 6.84-0.54 10.32-0.54 54.86 0 99.48 44.64 99.48 99.48 0 54.86-44.62 99.5-99.48 99.5-5.52 0-10 4.46-10 10 0 5.52 4.48 10 10 10 53.66 0 99.14-35.56 114.2-84.32 2.84 3.12 5.72 6.32 8.62 9.6 3.3 3.78 6.6 7.6 9.82 11.4 0.02 0.04 0.06 0.08 0.1 0.14l1.28 1.5c0.22 0.26 0.44 0.5 0.68 0.74 0.18 0.26 0.38 0.52 0.58 0.78l1.28 1.52a10 10 0 0 0 7.68 3.58c2.26 0 4.52-0.76 6.4-2.32a9.992 9.992 0 0 0 1.28-14.08l-1.3-1.54c-0.22-0.26-0.44-0.52-0.68-0.74-0.2-0.28-0.4-0.56-0.62-0.8l-1.18-1.42a694.572 694.572 0 0 0-10.32-11.96 823.88 823.88 0 0 0-11.22-12.5c-2.16-2.36-5.22-3.4-8.2-3.16 0.7-5.2 1.08-10.52 1.08-15.92 0-1.1-0.04-2.2-0.08-3.3 13.86-0.12 27.74 2.64 40.6 8.22 46.6 20.3 70.38 72.14 55.32 120.58-0.7 2.24-1.5 4.44-2.34 6.62l-0.34-0.54c-0.04-0.04-0.06-0.1-0.08-0.14a782.4 782.4 0 0 0-17.78-26.96c-3.12-4.54-9.36-5.68-13.9-2.54a10.032 10.032 0 0 0-2.56 13.92c6 8.66 11.84 17.54 17.38 26.34l0.06 0.12 0.98 1.54c0.18 0.3 0.36 0.58 0.58 0.84 0.12 0.28 0.28 0.56 0.44 0.82l1.06 1.7c1.08 1.76 2.64 3.04 4.38 3.84-11.18 16.96-27.24 30.08-46.54 37.66-24.74 9.72-51.76 9.24-76.12-1.38-5.08-2.2-10.96 0.12-13.18 5.18-2.2 5.06 0.12 10.96 5.18 13.16 15.3 6.66 31.48 10 47.7 10 14.78 0 29.56-2.76 43.74-8.34 29.7-11.68 53.08-34.22 65.82-63.48 0.28-0.64 0.52-1.32 0.8-1.96 46.88 23.5 67.78 80.02 46.58 128.66-6.96 16-17.82 29.66-31.64 39.94-34.16-39.66-91.4-52.74-139.78-30.84a10.016 10.016 0 0 0-4.98 13.24 9.992 9.992 0 0 0 13.24 4.98c42.76-19.36 93.82-5.92 121.4 32 4 5.44 7.44 11.36 10.26 17.6 22.62 49.96 0.38 109.04-49.58 131.66a99.506 99.506 0 0 1-77.86 1.82c-8.3-57.84-58.14-102.44-118.24-102.44-5.52 0-10 4.48-10 10s4.48 10 10 10c54.86 0 99.48 44.62 99.48 99.48s-44.62 99.48-99.48 99.48-99.48-44.62-99.48-99.48V263.34c0-0.52-0.08-1.02-0.16-1.52 0.08-0.5 0.16-1 0.16-1.54zM205.76 62.46c26.08 0 47.3 21.22 47.3 47.3 0 26.1-21.22 47.32-47.3 47.32S158.46 135.86 158.46 109.76c0-26.08 21.22-47.3 47.3-47.3z m186.78 795.3c-54.84 0-99.48-44.62-99.48-99.48s44.64-99.48 99.48-99.48c5.54 0 10-4.48 10-10s-4.46-10-10-10c-60.08 0-109.94 44.6-118.24 102.42a99.368 99.368 0 0 1-77.84-1.8c-49.98-22.62-72.22-81.7-49.58-131.68 2.82-6.24 6.26-12.14 10.26-17.6 27.58-37.9 78.62-51.34 121.4-31.98 5.02 2.28 10.94 0.06 13.22-4.98a10 10 0 0 0-4.98-13.24c-48.4-21.92-105.62-8.82-139.78 30.84a98.73 98.73 0 0 1-31.64-39.94c-10.62-24.36-11.1-51.4-1.38-76.14 9.06-23.06 26-41.54 47.98-52.52 0.26 0.64 0.5 1.32 0.8 1.96 19.56 44.92 63.58 71.76 109.7 71.76 15.9 0 32.06-3.2 47.54-9.94a10.008 10.008 0 0 0 5.18-13.16 10.008 10.008 0 0 0-13.16-5.18c-50.3 21.92-109.04-1.18-130.94-51.46-1.44-3.34-2.74-6.84-3.84-10.38-15.06-48.44 8.72-100.28 55.3-120.58a99.624 99.624 0 0 1 40.6-8.22c-0.02 1.1-0.08 2.2-0.08 3.3 0 65.9 53.6 119.5 119.48 119.5 5.54 0 10-4.48 10-10 0-5.54-4.46-10-10-10-54.84 0-99.48-44.64-99.48-99.5 0-54.84 44.64-99.48 99.48-99.48 54.86 0 99.5 44.64 99.5 99.48 0 0.54 0.08 1.04 0.14 1.54-0.06 0.5-0.14 1-0.14 1.52v494.94c0 54.86-44.64 99.48-99.5 99.48z m448.76 103.78c-43.36 0-78.64-35.28-78.64-78.62 0-43.36 35.28-78.64 78.64-78.64s78.62 35.28 78.62 78.64c0 43.34-35.26 78.62-78.62 78.62z" fill="#23130D" p-id="28989"></path><path d="M919.92 882.92c0 43.34-35.26 78.62-78.62 78.62-43.36 0-78.64-35.28-78.64-78.62 0-43.36 35.28-78.64 78.64-78.64s78.62 35.28 78.62 78.64z" fill="#F9C139" p-id="28990"></path><path d="M899.92 892.918a10 10 0 0 1-10-10c0-26.82-21.812-48.638-48.624-48.638-5.524 0-10-4.476-10-10s4.476-10 10-10c37.838 0 68.624 30.792 68.624 68.638a10 10 0 0 1-10 10z" fill="#FFFFFF" p-id="28991"></path><path d="M856.3 960.1c-4.86 0.94-9.86 1.44-15 1.44-43.36 0-78.64-35.28-78.64-78.62 0-43.36 35.28-78.64 78.64-78.64 5.14 0 10.14 0.5 15 1.44-36.22 7.02-63.64 38.98-63.64 77.2 0 38.22 27.42 70.16 63.64 77.18z" fill="#23130D" opacity=".2" p-id="28992"></path><path d="M842.12 402.18c-0.28 0.64-0.52 1.32-0.8 1.96-12.74 29.26-36.12 51.8-65.82 63.48a119.196 119.196 0 0 1-43.74 8.34c-16.22 0-32.4-3.34-47.7-10a10.008 10.008 0 0 1-5.18-13.16 10.03 10.03 0 0 1 13.18-5.18c24.36 10.62 51.38 11.1 76.12 1.38 19.3-7.58 35.36-20.7 46.54-37.66-1.74-0.8-3.3-2.08-4.38-3.84l-1.06-1.7c-0.16-0.26-0.32-0.54-0.44-0.82-0.22-0.26-0.4-0.54-0.58-0.84l-0.98-1.54-0.06-0.12c-5.54-8.8-11.38-17.68-17.38-26.34a10.032 10.032 0 0 1 2.56-13.92c4.54-3.14 10.78-2 13.9 2.54a782.4 782.4 0 0 1 17.78 26.96c0.02 0.04 0.04 0.1 0.08 0.14l0.34 0.54c0.84-2.18 1.64-4.38 2.34-6.62 15.06-48.44-8.72-100.28-55.32-120.58a99.954 99.954 0 0 0-40.6-8.22c0.04 1.1 0.08 2.2 0.08 3.3 0 5.4-0.38 10.72-1.08 15.92 2.98-0.24 6.04 0.8 8.2 3.16 3.68 4.02 7.46 8.22 11.22 12.5 3.44 3.9 6.88 7.88 10.2 11.82 0.04 0.06 0.08 0.1 0.12 0.14l1.18 1.42c0.22 0.24 0.42 0.52 0.62 0.8 0.24 0.22 0.46 0.48 0.68 0.74l1.3 1.54a9.992 9.992 0 0 1-1.28 14.08c-1.88 1.56-4.14 2.32-6.4 2.32a10 10 0 0 1-7.68-3.58l-1.28-1.52c-0.2-0.26-0.4-0.52-0.58-0.78a11.92 11.92 0 0 1-0.68-0.74l-1.28-1.5c-0.04-0.06-0.08-0.1-0.1-0.14-3.22-3.8-6.52-7.62-9.82-11.4-2.9-3.28-5.78-6.48-8.62-9.6-15.06 48.76-60.54 84.32-114.2 84.32-5.52 0-10-4.48-10-10 0-5.54 4.48-10 10-10 54.86 0 99.48-44.64 99.48-99.5 0-46.8-32.5-86.18-76.14-96.7-2.7-0.66-5.42-1.2-8.2-1.64-0.82-0.14-1.66-0.24-2.48-0.34-0.84-0.1-1.66-0.2-2.5-0.28-0.84-0.1-1.68-0.16-2.52-0.22-0.66-0.06-1.34-0.1-2-0.14-0.44-0.04-0.88-0.06-1.32-0.06-0.58-0.04-1.16-0.06-1.76-0.06-0.8-0.04-1.6-0.04-2.4-0.04-1.22 0-2.42 0.02-3.62 0.08-0.58 0-1.16 0.02-1.74 0.06-0.1 0-0.22 0.02-0.32 0.02-1.5 0.08-3 0.2-4.48 0.36-0.1 0-0.22 0-0.32 0.02l0.02 0.02 0.62 0.4a9.992 9.992 0 0 1 2.76 13.88c-0.6 0.9-1.32 1.68-2.14 2.3-0.36 0.3-0.72 0.54-1.1 0.76-0.06 0.02-0.1 0.06-0.16 0.1-1.5 0.84-3.2 1.28-4.92 1.28-1.9 0-3.84-0.54-5.54-1.68l-1.66-1.1c-0.28-0.18-0.54-0.38-0.78-0.58-0.3-0.14-0.58-0.32-0.86-0.5l-1.48-0.98a1.844 1.844 0 0 0-0.16-0.1c-3.7-2.44-7.46-4.8-11.22-7.16-0.02 0-0.02-0.02-0.04-0.02-36.58 14.7-62.5 50.54-62.5 92.32 0 0.54-0.08 1.04-0.16 1.54 0.08 0.5 0.16 1 0.16 1.52v494.94c0 53.2 41.96 96.76 94.52 99.36 1.7 0.08 3.4 0.12 5.12 0.12 0.8 0 1.6 0 2.4-0.04 0.6 0 1.18-0.02 1.76-0.06 0.44 0 0.88-0.02 1.32-0.06 0.66-0.04 1.34-0.08 2-0.14 0.84-0.06 1.68-0.12 2.52-0.22 0.84-0.08 1.66-0.18 2.5-0.28 0.82-0.1 1.66-0.2 2.48-0.34 2.78-0.44 5.5-0.98 8.2-1.64 43.64-10.52 76.14-49.88 76.14-96.7 0-54.86-44.62-99.48-99.48-99.48-5.52 0-10-4.48-10-10s4.48-10 10-10c60.1 0 109.94 44.6 118.24 102.44a99.506 99.506 0 0 0 77.86-1.82c49.96-22.62 72.2-81.7 49.58-131.66a97.53 97.53 0 0 0-10.26-17.6c-27.58-37.92-78.64-51.36-121.4-32a9.992 9.992 0 0 1-13.24-4.98 10.016 10.016 0 0 1 4.98-13.24c48.38-21.9 105.62-8.82 139.78 30.84 13.82-10.28 24.68-23.94 31.64-39.94 21.2-48.64 0.3-105.16-46.58-128.66z m-197.38-196.72a10.016 10.016 0 0 1 14.08-1.38c8.26 6.8 16.54 13.92 24.6 21.14 0.06 0.04 0.1 0.1 0.16 0.14l1.36 1.22c0.24 0.24 0.48 0.46 0.7 0.72 0.28 0.2 0.54 0.4 0.8 0.64l1.5 1.36a10.018 10.018 0 0 1 0.66 14.14 10.004 10.004 0 0 1-7.4 3.26c-2.4 0-4.82-0.86-6.72-2.6l-1.48-1.34c-0.24-0.22-0.48-0.46-0.7-0.7-0.26-0.2-0.52-0.4-0.78-0.64l-1.44-1.3c-0.06-0.04-0.1-0.1-0.16-0.14-7.8-7-15.82-13.86-23.8-20.44-4.28-3.5-4.88-9.8-1.38-14.08z m227.38 301.88c-1.26 0.54-2.56 0.78-3.84 0.78-3.92 0-7.64-2.32-9.24-6.16l-0.76-1.8c-0.12-0.3-0.24-0.62-0.34-0.92-0.16-0.28-0.3-0.58-0.42-0.88l-0.78-1.82v-0.02c-4.08-9.5-8.48-19.14-13.1-28.62a10.012 10.012 0 0 1 4.6-13.38c4.96-2.42 10.96-0.34 13.38 4.62 4.76 9.78 9.3 19.7 13.5 29.52l0.02 0.02 0.78 1.84c0.14 0.32 0.26 0.64 0.36 0.96 0.16 0.3 0.3 0.6 0.44 0.92l0.78 1.86a10 10 0 0 1-5.38 13.08z" fill="#F8D3C9" p-id="28993"></path><path d="M253.06 109.76c0 26.1-21.22 47.32-47.3 47.32S158.46 135.86 158.46 109.76c0-26.08 21.22-47.3 47.3-47.3s47.3 21.22 47.3 47.3z" fill="#EC7063" p-id="28994"></path><path d="M229.88 119.764a10 10 0 0 1-10-10c0-7.786-6.334-14.12-14.122-14.12a10 10 0 0 1 0-20c18.814 0 34.122 15.306 34.122 34.12a10 10 0 0 1-10 10z" fill="#FFFFFF" p-id="28995"></path><path d="M219.44 155.06c-4.34 1.32-8.92 2.02-13.68 2.02-26.08 0-47.3-21.22-47.3-47.32 0-26.08 21.22-47.3 47.3-47.3 4.76 0 9.34 0.7 13.68 2.02C200 70.34 185.8 88.42 185.8 109.76s14.2 39.44 33.64 45.3z" fill="#23130D" opacity=".2" p-id="28996"></path><path d="M492.18 261.82c-0.06 0.5-0.14 1-0.14 1.52v494.94c0 54.86-44.64 99.48-99.5 99.48-54.84 0-99.48-44.62-99.48-99.48s44.64-99.48 99.48-99.48c5.54 0 10-4.48 10-10s-4.46-10-10-10c-60.08 0-109.94 44.6-118.24 102.42a99.368 99.368 0 0 1-77.84-1.8c-49.98-22.62-72.22-81.7-49.58-131.68 2.82-6.24 6.26-12.14 10.26-17.6 27.58-37.9 78.62-51.34 121.4-31.98 5.02 2.28 10.94 0.06 13.22-4.98a10 10 0 0 0-4.98-13.24c-48.4-21.92-105.62-8.82-139.78 30.84a98.73 98.73 0 0 1-31.64-39.94c-10.62-24.36-11.1-51.4-1.38-76.14 9.06-23.06 26-41.54 47.98-52.52 0.26 0.64 0.5 1.32 0.8 1.96 19.56 44.92 63.58 71.76 109.7 71.76 15.9 0 32.06-3.2 47.54-9.94a10.008 10.008 0 0 0 5.18-13.16 10.008 10.008 0 0 0-13.16-5.18c-50.3 21.92-109.04-1.18-130.94-51.46-1.44-3.34-2.74-6.84-3.84-10.38-15.06-48.44 8.72-100.28 55.3-120.58a99.624 99.624 0 0 1 40.6-8.22c-0.02 1.1-0.08 2.2-0.08 3.3 0 65.9 53.6 119.5 119.48 119.5 5.54 0 10-4.48 10-10 0-5.54-4.46-10-10-10-54.84 0-99.48-44.64-99.48-99.5 0-54.84 44.64-99.48 99.48-99.48 54.86 0 99.5 44.64 99.5 99.48 0 0.54 0.08 1.04 0.14 1.54z" fill="#F8D3C9" p-id="28997"></path><path d="M492.18 261.82c-0.06 0.5-0.14 1-0.14 1.52v494.94c0 54.86-44.64 99.48-99.5 99.48-8 0-15.8-0.96-23.26-2.76 43.68-10.5 76.22-49.88 76.22-96.72V263.34c0-0.52 0.08-1.02 0.14-1.52-0.06-0.5-0.14-1-0.14-1.54 0-46.82-32.54-86.22-76.22-96.72 7.46-1.8 15.26-2.76 23.26-2.76 54.86 0 99.5 44.64 99.5 99.48 0 0.54 0.08 1.04 0.14 1.54zM634.86 854.98c0.02 0 0.06 0.02 0.08 0.02-2.72 0.66-5.48 1.2-8.28 1.62-0.82 0.14-1.66 0.24-2.48 0.34-0.84 0.1-1.66 0.2-2.5 0.28-0.84 0.1-1.68 0.16-2.52 0.22-0.66 0.06-1.34 0.1-2 0.14-0.44 0.04-0.88 0.06-1.32 0.06-0.58 0.04-1.16 0.06-1.76 0.06-0.8 0.04-1.6 0.04-2.4 0.04-1.72 0-3.42-0.04-5.12-0.12-52.48-2.68-94.38-46.22-94.38-99.36V263.34c0-0.52-0.08-1.02-0.14-1.52 0.06-0.5 0.14-1 0.14-1.54 0-41.74 25.86-77.56 62.4-92.3a592.22 592.22 0 0 1 11.38 7.26l1.48 0.98c0.28 0.18 0.56 0.36 0.86 0.5 0.24 0.2 0.5 0.4 0.78 0.58l1.66 1.1c1.7 1.14 3.64 1.68 5.54 1.68 1.72 0 3.42-0.44 4.92-1.28-25.66 18-42.48 47.82-42.48 81.48 0 0.54-0.08 1.04-0.14 1.54 0.06 0.5 0.14 1 0.14 1.52v494.94c0 46.82 32.5 86.18 76.14 96.7zM601.84 161.76l-0.62-0.4c0.1-0.02 0.2-0.04 0.3-0.04 1.48-0.16 2.98-0.28 4.48-0.36 0.1 0 0.22-0.02 0.32-0.02 0.58-0.04 1.16-0.06 1.74-0.06 1.2-0.06 2.4-0.08 3.62-0.08 0.8 0 1.6 0 2.4 0.04 0.6 0 1.18 0.02 1.76 0.06 0.44 0 0.88 0.02 1.32 0.06 0.66 0.04 1.34 0.08 2 0.14 0.84 0.06 1.68 0.12 2.52 0.22 0.84 0.08 1.66 0.18 2.5 0.28 0.82 0.1 1.66 0.2 2.48 0.34 2.8 0.42 5.56 0.96 8.28 1.62-0.02 0-0.06 0.02-0.08 0.02a98.332 98.332 0 0 0-32.4 14.36c0.82-0.62 1.54-1.4 2.14-2.3 3.08-4.6 1.84-10.82-2.76-13.88z" fill="#23130D" opacity=".2" p-id="28998"></path><path d="M162.78 813.92c-38.04 0-69 30.94-69 69 0 38.04 30.96 68.98 69 68.98s68.98-30.94 68.98-68.98c0-38.06-30.94-69-68.98-69z m0 117.98c-27.02 0-49-21.98-49-48.98 0-27.02 21.98-49 49-49 27 0 48.98 21.98 48.98 49 0 27-21.98 48.98-48.98 48.98z" fill="#23130D" p-id="28999"></path><path d="M211.76 882.92c0 27-21.98 48.98-48.98 48.98-27.02 0-49-21.98-49-48.98 0-27.02 21.98-49 49-49 27 0 48.98 21.98 48.98 49z" fill="#3594BF" p-id="29000"></path><path d="M195.8 892.916a10 10 0 0 1-10-10c0-12.702-10.328-23.036-23.024-23.036a10 10 0 1 1 0-20c23.724 0 43.024 19.304 43.024 43.036a10 10 0 0 1-10 10z" fill="#FFFFFF" p-id="29001"></path><path d="M172.78 930.86c-3.24 0.68-6.58 1.04-10 1.04-27.02 0-49-21.98-49-48.98 0-27.02 21.98-49 49-49 3.42 0 6.76 0.36 10 1.04-22.24 4.62-39 24.36-39 47.96 0 23.58 16.76 43.32 39 47.94z" fill="#23130D" opacity=".2" p-id="29002"></path></svg>