<?xml version="1.0" standalone="no"?><!DOCTYPE svg PUBLIC "-//W3C//DTD SVG 1.1//EN" "http://www.w3.org/Graphics/SVG/1.1/DTD/svg11.dtd"><svg t="1625811806167" class="icon" viewBox="0 0 1024 1024" version="1.1" xmlns="http://www.w3.org/2000/svg" p-id="38897" xmlns:xlink="http://www.w3.org/1999/xlink" width="200" height="200"><defs><style type="text/css"></style></defs><path d="M905.44 105.34H118.58c-0.08 0-0.16 0-0.24 0.02-29.14 0.12-52.82 23.86-52.82 53.04v576.56c0 29.26 23.8 53.06 53.06 53.06H422l-22.8 110.64h-67.7c-5.52 0-10 4.46-10 10 0 5.52 4.48 10 10 10h361c5.52 0 10-4.48 10-10 0-5.54-4.48-10-10-10H624.8L602 788.02h303.44c29.24 0 53.04-23.8 53.04-53.06V158.4c0-29.26-23.8-53.06-53.04-53.06zM604.38 898.66h-184.76l22.8-110.64h139.16l22.8 110.64z m334.1-163.7c0 18.22-14.82 33.06-33.04 33.06H118.58c-18.24 0-33.06-14.84-33.06-33.06V158.4c0-18.22 14.82-33.06 33.06-33.06h786.86c18.22 0 33.04 14.84 33.04 33.06v576.56z" fill="#23130D" p-id="38898"></path><path d="M604.38 898.66h-184.76l22.8-110.64h139.16z" fill="#E1E1E5" p-id="38899"></path><path d="M604.38 898.66h-8.86l-13.94-67.64h-139.16l-13.94 67.64h-8.86l22.8-110.64h139.16z" fill="#23130D" opacity=".2" p-id="38900"></path><path d="M905.44 125.34H118.58c-18.24 0-33.06 14.84-33.06 33.06v576.56c0 18.22 14.82 33.06 33.06 33.06h786.86c18.22 0 33.04-14.84 33.04-33.06V158.4c0-18.22-14.82-33.06-33.04-33.06zM566.28 743.08h-108.56c-5.52 0-10-4.46-10-10 0-5.52 4.48-10 10-10h108.56c5.54 0 10 4.48 10 10 0 5.54-4.46 10-10 10z m348.16-52.86c0 5.52-4.48 10-10 10H119.56c-5.52 0-10-4.48-10-10V162.96c0-5.52 4.48-10 10-10h784.88c5.52 0 10 4.48 10 10v527.26z" fill="#E1E1E5" p-id="38901"></path><path d="M905.44 743.08H118.58c-18.24 0-33.06-14.84-33.06-33.06v24.94c0 18.22 14.82 33.06 33.06 33.06h786.86c18.22 0 33.04-14.84 33.04-33.06v-24.94c0 18.22-14.82 33.06-33.04 33.06z" fill="#23130D" opacity=".2" p-id="38902"></path><path d="M904.44 152.96H119.56c-5.52 0-10 4.48-10 10v527.26c0 5.52 4.48 10 10 10h784.88c5.52 0 10-4.48 10-10V162.96c0-5.52-4.48-10-10-10z m-10 527.26H129.56V172.96h764.88v507.26z" fill="#23130D" p-id="38903"></path><path d="M387.74 514.88v5.74h5.74l-5.74-5.74z m0-53.62v59.36h59.34l-59.34-59.36z m0 0v59.36h59.34l-59.34-59.36z m0 0v59.36h59.34l-59.34-59.36z m-47.84-47.84v53.62l27.84 27.84v-53.62l-27.84-27.84z m47.84 47.84v59.36h59.34l-59.34-59.36z m-47.84-47.84v53.62l27.84 27.84v-53.62l-27.84-27.84z m47.84 47.84v59.36h59.34l-59.34-59.36z m-47.84-47.84v53.62l27.84 27.84v-53.62l-27.84-27.84z m206.02-10.48v87.48l30.32-57.16-30.32-30.32z m-158.18-70.38v84.04h100.34c5.52 0 10 4.48 10 10s-4.48 10-10 10h-18.98l56.82 56.82v-110.46l-50.4-50.4h-87.78z m0 128.7v59.36h59.34l-59.34-59.36z m-47.84 5.78l27.84 27.84v-53.62l-27.84-27.84v53.62zM129.56 172.96v507.26h764.88V172.96H129.56z m99.98 357.66c0 5.52-4.46 10-10 10-5.52 0-10-4.48-10-10V322.56c0-0.16 0.06-0.32 0.06-0.48 0.02-0.36 0.06-0.7 0.1-1.06 0.06-0.32 0.12-0.62 0.2-0.94 0.08-0.3 0.18-0.6 0.28-0.9 0.12-0.32 0.24-0.62 0.38-0.92 0.14-0.28 0.28-0.56 0.46-0.84 0.16-0.26 0.32-0.52 0.52-0.78s0.4-0.52 0.62-0.76a10.904 10.904 0 0 1 1.4-1.28c0.3-0.22 0.58-0.42 0.9-0.6 0.14-0.08 0.26-0.18 0.4-0.26 0.12-0.08 0.26-0.1 0.38-0.16 0.32-0.16 0.66-0.28 1-0.4 0.3-0.12 0.6-0.22 0.9-0.28 0.3-0.08 0.62-0.14 0.94-0.18 0.36-0.06 0.7-0.1 1.06-0.12 0.14 0 0.26-0.04 0.4-0.04 0.18 0 0.34 0.04 0.5 0.06 0.36 0.02 0.7 0.04 1.06 0.1 0.32 0.06 0.62 0.12 0.94 0.2 0.3 0.08 0.6 0.16 0.9 0.28 0.32 0.1 0.62 0.24 0.9 0.38 0.3 0.14 0.58 0.28 0.84 0.44 0.28 0.18 0.54 0.34 0.8 0.54 0.26 0.18 0.52 0.4 0.76 0.62a10.904 10.904 0 0 1 1.28 1.4c0.22 0.3 0.4 0.58 0.6 0.9 0.08 0.14 0.18 0.26 0.26 0.4l42.52 80.16 49 92.38v-167.86c0-5.52 4.48-10 10-10s10 4.48 10 10v208.06c0 0.16-0.04 0.32-0.06 0.5-0.02 0.34-0.04 0.7-0.1 1.04-0.06 0.32-0.12 0.64-0.2 0.94a9.502 9.502 0 0 1-0.66 1.82c-0.14 0.28-0.28 0.56-0.44 0.84-0.18 0.26-0.34 0.54-0.54 0.8-0.18 0.26-0.4 0.5-0.62 0.74s-0.44 0.48-0.68 0.68c-0.22 0.22-0.46 0.42-0.72 0.6-0.28 0.22-0.58 0.42-0.9 0.6-0.14 0.08-0.26 0.2-0.4 0.28-0.18 0.1-0.38 0.16-0.56 0.26-0.14 0.04-0.24 0.1-0.38 0.16-0.52 0.22-1.06 0.38-1.62 0.5l-0.3 0.06c-0.6 0.1-1.22 0.18-1.82 0.18a10.53 10.53 0 0 1-2.24-0.28c-0.54-0.12-1.08-0.28-1.6-0.48l-0.12-0.06c-0.5-0.22-0.98-0.48-1.46-0.78-0.12-0.08-0.24-0.18-0.36-0.26-0.4-0.28-0.8-0.6-1.16-0.96-0.06-0.06-0.12-0.1-0.18-0.16-0.4-0.4-0.76-0.84-1.08-1.32-0.1-0.12-0.16-0.26-0.26-0.4-0.12-0.2-0.26-0.4-0.38-0.62l-91.52-172.54v167.86z m148.2 10c-5.52 0-10-4.48-10-10V322.56c0-5.52 4.48-10 10-10h110.34c5.52 0 10 4.48 10 10s-4.48 10-10 10h-100.34v84.04h100.34c5.52 0 10 4.48 10 10s-4.48 10-10 10h-100.34v84.02h100.34c5.52 0 10 4.48 10 10s-4.48 10-10 10h-110.34z m278.54-10c0 0.16-0.04 0.32-0.06 0.48 0 0.36-0.04 0.72-0.1 1.06-0.04 0.32-0.1 0.62-0.18 0.92-0.08 0.32-0.18 0.64-0.3 0.94-0.1 0.3-0.22 0.6-0.36 0.88-0.14 0.3-0.3 0.58-0.48 0.86-0.16 0.28-0.32 0.52-0.5 0.78-0.2 0.26-0.42 0.52-0.64 0.78-0.22 0.22-0.42 0.44-0.66 0.64-0.24 0.24-0.5 0.44-0.76 0.64-0.28 0.2-0.54 0.38-0.84 0.56-0.16 0.1-0.28 0.2-0.44 0.3-0.2 0.1-0.4 0.18-0.6 0.26-0.1 0.06-0.2 0.1-0.3 0.14-0.56 0.24-1.12 0.4-1.68 0.52-0.08 0.02-0.14 0.04-0.22 0.04-0.62 0.12-1.26 0.2-1.88 0.2-0.6 0-1.22-0.08-1.82-0.18-0.12-0.04-0.26-0.06-0.38-0.08a10.06 10.06 0 0 1-3.24-1.36c-0.1-0.08-0.2-0.14-0.3-0.22a8.62 8.62 0 0 1-1.24-1.02c-0.04-0.04-0.08-0.06-0.12-0.1-0.4-0.42-0.78-0.86-1.1-1.36-0.08-0.1-0.16-0.22-0.24-0.34-0.12-0.22-0.28-0.42-0.4-0.66l-46.1-86.94-0.24-0.44-0.08 0.14-38.28 72.18-7.98 15.06c-0.12 0.24-0.28 0.44-0.4 0.66-0.08 0.12-0.16 0.24-0.24 0.34-0.32 0.5-0.7 0.94-1.1 1.36-0.04 0.04-0.08 0.06-0.12 0.1-0.38 0.38-0.8 0.72-1.22 1.02-0.12 0.08-0.22 0.14-0.32 0.22-1 0.64-2.1 1.1-3.24 1.36-0.12 0.02-0.26 0.04-0.38 0.08-0.6 0.1-1.22 0.18-1.82 0.18-0.64 0-1.26-0.08-1.88-0.2-0.08 0-0.14-0.02-0.22-0.04-0.56-0.12-1.12-0.28-1.68-0.52-0.1-0.04-0.2-0.08-0.3-0.14-0.2-0.08-0.4-0.16-0.6-0.26-0.16-0.1-0.28-0.2-0.44-0.3-0.3-0.18-0.58-0.36-0.84-0.56-0.28-0.2-0.52-0.4-0.76-0.64-0.24-0.2-0.44-0.42-0.66-0.64-0.22-0.26-0.44-0.52-0.64-0.78-0.18-0.26-0.36-0.5-0.52-0.78s-0.32-0.56-0.46-0.86c-0.14-0.28-0.26-0.58-0.36-0.88-0.12-0.3-0.22-0.62-0.3-0.94-0.08-0.3-0.14-0.6-0.18-0.92a9.04 9.04 0 0 1-0.12-1.06c0-0.16-0.04-0.32-0.04-0.48V322.56c0-5.52 4.48-10 10-10s10 4.48 10 10v167.86l30.32-57.16 6.02-11.36c0.32-0.6 0.68-1.14 1.12-1.66 0.22-0.28 0.48-0.5 0.74-0.76 0.22-0.2 0.4-0.44 0.64-0.62 1.02-0.86 2.22-1.48 3.48-1.86 0.26-0.08 0.54-0.1 0.8-0.16 0.36-0.08 0.72-0.18 1.1-0.2 0.3-0.04 0.6-0.02 0.92-0.02 0.34 0 0.68-0.02 1.02 0.02 0.32 0.02 0.64 0.12 0.96 0.18 0.32 0.06 0.62 0.1 0.94 0.18 0.6 0.18 1.16 0.42 1.72 0.72 0.02 0 0.06 0.02 0.08 0.02 0.6 0.32 1.14 0.68 1.66 1.12 0.24 0.18 0.44 0.42 0.64 0.62 0.26 0.26 0.52 0.48 0.74 0.76 0.44 0.52 0.8 1.06 1.12 1.66l36.34 68.52v-167.86a10.004 10.004 0 0 1 10-10c5.52 0 10 4.48 10 10v208.06z m93 10h-55.18c-5.52 0-10-4.48-10-10V494c0-5.52 4.48-10 10-10s10 4.48 10 10v26.62h45.18c24.9 0 45.16-20.26 45.16-45.18V436.6h-100.34c-5.52 0-10-4.48-10-10v-48.86c0-4.02 0.36-7.96 1.06-11.78 5.56-30.34 32.2-53.4 64.12-53.4h55.16c5.54 0 10 4.48 10 10v36.62c0 5.52-4.46 10-10 10-5.52 0-10-4.48-10-10v-26.62h-45.16c-24.92 0-45.18 20.28-45.18 45.18v38.86h100.34c5.54 0 10 4.48 10 10v48.84c0 6.02-0.82 11.88-2.38 17.42-7.62 27.52-32.88 47.76-62.78 47.76z m-409.38-127.2v53.62l27.84 27.84v-53.62l-27.84-27.84z m47.84 47.84v59.36h59.34l-59.34-59.36z m87.78-128.7h-87.78v84.04h100.34c5.52 0 10 4.48 10 10s-4.48 10-10 10h-18.98l56.82 56.82v-110.46l-50.4-50.4z m70.4 70.38v87.48l30.32-57.16-30.32-30.32z m-206.02 10.48v53.62l27.84 27.84v-53.62l-27.84-27.84z m47.84 47.84v59.36h59.34l-59.34-59.36z m-47.84-47.84v53.62l27.84 27.84v-53.62l-27.84-27.84z m47.84 47.84v59.36h59.34l-59.34-59.36z m-47.84-47.84v53.62l27.84 27.84v-53.62l-27.84-27.84z m47.84 47.84v59.36h59.34l-59.34-59.36z m0 0v59.36h59.34l-59.34-59.36z m0 0v59.36h59.34l-59.34-59.36z" fill="#3594BF" p-id="38904"></path><path d="M576.28 733.08c0 5.54-4.46 10-10 10h-108.56c-5.52 0-10-4.46-10-10 0-5.52 4.48-10 10-10h108.56c5.54 0 10 4.48 10 10zM339.9 322.56v208.06c0 0.16-0.04 0.32-0.06 0.5-0.02 0.34-0.04 0.7-0.1 1.04-0.06 0.32-0.12 0.64-0.2 0.94a9.502 9.502 0 0 1-0.66 1.82c-0.14 0.28-0.28 0.56-0.44 0.84-0.18 0.26-0.34 0.54-0.54 0.8-0.18 0.26-0.4 0.5-0.62 0.74s-0.44 0.48-0.68 0.68c-0.22 0.22-0.46 0.42-0.72 0.6-0.28 0.22-0.58 0.42-0.9 0.6-0.14 0.08-0.26 0.2-0.4 0.28-0.18 0.1-0.38 0.16-0.56 0.26-0.14 0.04-0.24 0.1-0.38 0.16-0.52 0.22-1.06 0.38-1.62 0.5l-0.3 0.06c-0.6 0.1-1.22 0.18-1.82 0.18a10.53 10.53 0 0 1-2.24-0.28c-0.54-0.12-1.08-0.28-1.6-0.48l-0.12-0.06c-0.5-0.22-0.98-0.48-1.46-0.78-0.12-0.08-0.24-0.18-0.36-0.26-0.4-0.28-0.8-0.6-1.16-0.96-0.06-0.06-0.12-0.1-0.18-0.16-0.4-0.4-0.76-0.84-1.08-1.32-0.1-0.12-0.16-0.26-0.26-0.4-0.12-0.2-0.26-0.4-0.38-0.62l-91.52-172.54v167.86c0 5.52-4.46 10-10 10-5.52 0-10-4.48-10-10V322.56c0-0.16 0.06-0.32 0.06-0.48 0.02-0.36 0.06-0.7 0.1-1.06 0.06-0.32 0.12-0.62 0.2-0.94 0.08-0.3 0.18-0.6 0.28-0.9 0.12-0.32 0.24-0.62 0.38-0.92 0.14-0.28 0.28-0.56 0.46-0.84 0.16-0.26 0.32-0.52 0.52-0.78s0.4-0.52 0.62-0.76a10.904 10.904 0 0 1 1.4-1.28c0.3-0.22 0.58-0.42 0.9-0.6 0.14-0.08 0.26-0.18 0.4-0.26 0.12-0.08 0.26-0.1 0.38-0.16 0.32-0.16 0.66-0.28 1-0.4 0.3-0.12 0.6-0.22 0.9-0.28 0.3-0.08 0.62-0.14 0.94-0.18 0.36-0.06 0.7-0.1 1.06-0.12 0.14 0 0.26-0.04 0.4-0.04 0.18 0 0.34 0.04 0.5 0.06 0.36 0.02 0.7 0.04 1.06 0.1 0.32 0.06 0.62 0.12 0.94 0.2 0.3 0.08 0.6 0.16 0.9 0.28 0.32 0.1 0.62 0.24 0.9 0.38 0.3 0.14 0.58 0.28 0.84 0.44 0.28 0.18 0.54 0.34 0.8 0.54 0.26 0.18 0.52 0.4 0.76 0.62a10.904 10.904 0 0 1 1.28 1.4c0.22 0.3 0.4 0.58 0.6 0.9 0.08 0.14 0.18 0.26 0.26 0.4l91.52 172.54v-167.86c0-5.52 4.48-10 10-10s10 4.48 10 10zM656.28 322.56v208.06c0 0.16-0.04 0.32-0.06 0.48 0 0.36-0.04 0.72-0.1 1.06-0.04 0.32-0.1 0.62-0.18 0.92-0.08 0.32-0.18 0.64-0.3 0.94-0.1 0.3-0.22 0.6-0.36 0.88-0.14 0.3-0.3 0.58-0.48 0.86-0.16 0.28-0.32 0.52-0.5 0.78-0.2 0.26-0.42 0.52-0.64 0.78-0.22 0.22-0.42 0.44-0.66 0.64-0.24 0.24-0.5 0.44-0.76 0.64-0.28 0.2-0.54 0.38-0.84 0.56-0.16 0.1-0.28 0.2-0.44 0.3-0.2 0.1-0.4 0.18-0.6 0.26-0.1 0.06-0.2 0.1-0.3 0.14-0.56 0.24-1.12 0.4-1.68 0.52-0.08 0.02-0.14 0.04-0.22 0.04-0.62 0.12-1.26 0.2-1.88 0.2-0.6 0-1.22-0.08-1.82-0.18-0.12-0.04-0.26-0.06-0.38-0.08a10.06 10.06 0 0 1-3.24-1.36c-0.1-0.08-0.2-0.14-0.3-0.22a8.62 8.62 0 0 1-1.24-1.02c-0.04-0.04-0.08-0.06-0.12-0.1-0.4-0.42-0.78-0.86-1.1-1.36-0.08-0.1-0.16-0.22-0.24-0.34-0.12-0.22-0.28-0.42-0.4-0.66l-46.34-87.38-46.34 87.38c-0.12 0.24-0.28 0.44-0.4 0.66-0.08 0.12-0.16 0.24-0.24 0.34-0.32 0.5-0.7 0.94-1.1 1.36-0.04 0.04-0.08 0.06-0.12 0.1-0.38 0.38-0.8 0.72-1.22 1.02-0.12 0.08-0.22 0.14-0.32 0.22-1 0.64-2.1 1.1-3.24 1.36-0.12 0.02-0.26 0.04-0.38 0.08-0.6 0.1-1.22 0.18-1.82 0.18-0.64 0-1.26-0.08-1.88-0.2-0.08 0-0.14-0.02-0.22-0.04-0.56-0.12-1.12-0.28-1.68-0.52-0.1-0.04-0.2-0.08-0.3-0.14-0.2-0.08-0.4-0.16-0.6-0.26-0.16-0.1-0.28-0.2-0.44-0.3-0.3-0.18-0.58-0.36-0.84-0.56-0.28-0.2-0.52-0.4-0.76-0.64-0.24-0.2-0.44-0.42-0.66-0.64-0.22-0.26-0.44-0.52-0.64-0.78-0.18-0.26-0.36-0.5-0.52-0.78s-0.32-0.56-0.46-0.86c-0.14-0.28-0.26-0.58-0.36-0.88-0.12-0.3-0.22-0.62-0.3-0.94-0.08-0.3-0.14-0.6-0.18-0.92a9.04 9.04 0 0 1-0.12-1.06c0-0.16-0.04-0.32-0.04-0.48V322.56c0-5.52 4.48-10 10-10s10 4.48 10 10v167.86l36.34-68.52c0.32-0.6 0.68-1.14 1.12-1.66 0.22-0.28 0.48-0.5 0.74-0.76 0.22-0.2 0.4-0.44 0.64-0.62 1.02-0.86 2.22-1.48 3.48-1.86 0.26-0.08 0.54-0.1 0.8-0.16 0.36-0.08 0.72-0.18 1.1-0.2 0.3-0.04 0.6-0.02 0.92-0.02 0.34 0 0.68-0.02 1.02 0.02 0.32 0.02 0.64 0.12 0.96 0.18 0.32 0.06 0.62 0.1 0.94 0.18 0.6 0.18 1.16 0.42 1.72 0.72 0.02 0 0.06 0.02 0.08 0.02 0.6 0.32 1.14 0.68 1.66 1.12 0.24 0.18 0.44 0.42 0.64 0.62 0.26 0.26 0.52 0.48 0.74 0.76 0.44 0.52 0.8 1.06 1.12 1.66l36.34 68.52v-167.86c0-5.52 4.48-10 10-10s10 4.48 10 10zM387.74 436.6v84.02h100.34c5.52 0 10 4.48 10 10s-4.48 10-10 10h-110.34c-5.52 0-10-4.48-10-10V322.56c0-5.52 4.48-10 10-10h110.34c5.52 0 10 4.48 10 10s-4.48 10-10 10h-100.34v84.04h100.34c5.52 0 10 4.48 10 10s-4.48 10-10 10h-100.34zM794.44 359.18v-26.62h-45.16c-24.92 0-45.18 20.28-45.18 45.18v38.86h100.34c5.54 0 10 4.48 10 10v48.84c0 35.94-29.22 65.18-65.16 65.18h-55.18c-5.52 0-10-4.48-10-10V494c0-5.52 4.48-10 10-10s10 4.48 10 10v26.62h45.18c24.9 0 45.16-20.26 45.16-45.18V436.6h-100.34c-5.52 0-10-4.48-10-10v-48.86c0-35.94 29.24-65.18 65.18-65.18h55.16c5.54 0 10 4.48 10 10v36.62c0 5.52-4.46 10-10 10-5.52 0-10-4.48-10-10z" fill="#23130D" p-id="38905"></path><path d="M129.56 256.7l79.98 79.98v137.94l-79.98-79.98zM319.9 490.42l-49-92.38 49 49zM393.48 520.62h-5.74v-5.74z" fill="#FFFFFF" opacity=".4" p-id="38906"></path><path d="M553.08 680.22h-137.92l-185.62-185.6v-131.86l91.52 172.54c0.12 0.22 0.26 0.42 0.38 0.62 0.1 0.14 0.16 0.28 0.26 0.4 0.32 0.48 0.68 0.92 1.08 1.32 0.06 0.06 0.12 0.1 0.18 0.16 0.36 0.36 0.76 0.68 1.16 0.96 0.12 0.08 0.24 0.18 0.36 0.26 0.48 0.3 0.96 0.56 1.46 0.78l0.12 0.06c0.52 0.2 1.06 0.36 1.6 0.48a10.53 10.53 0 0 0 2.24 0.28c0.6 0 1.22-0.08 1.82-0.18l0.3-0.06c0.56-0.12 1.1-0.28 1.62-0.5 0.14-0.06 0.24-0.12 0.38-0.16 0.18-0.1 0.38-0.16 0.56-0.26 0.14-0.08 0.26-0.2 0.4-0.28 0.32-0.18 0.62-0.38 0.9-0.6 0.26-0.18 0.5-0.38 0.72-0.6 0.24-0.2 0.46-0.44 0.68-0.68s0.44-0.48 0.62-0.74c0.2-0.26 0.36-0.54 0.54-0.8 0.16-0.28 0.3-0.56 0.44-0.84a9.502 9.502 0 0 0 0.66-1.82c0.08-0.3 0.14-0.62 0.2-0.94 0.06-0.34 0.08-0.7 0.1-1.04 0.02-0.18 0.06-0.34 0.06-0.5v-63.58l27.84 27.84v35.74c0 5.52 4.48 10 10 10h35.74l139.6 139.6zM205.46 172.96l162.28 162.28v106.02l-27.84-27.84v-90.86c0-5.52-4.48-10-10-10s-10 4.48-10 10v70.86l-190.34-190.34V172.96h75.9zM449.1 416.6h-61.36v-61.36zM712.72 680.22h-106.04l-139.6-139.6h21c5.52 0 10-4.48 10-10s-4.48-10-10-10h-41l-59.34-59.36V436.6h81.36l56.82 56.82v37.2c0 0.16 0.04 0.32 0.04 0.48 0.02 0.36 0.06 0.72 0.12 1.06 0.04 0.32 0.1 0.62 0.18 0.92 0.08 0.32 0.18 0.64 0.3 0.94 0.1 0.3 0.22 0.6 0.36 0.88 0.14 0.3 0.3 0.58 0.46 0.86s0.34 0.52 0.52 0.78c0.2 0.26 0.42 0.52 0.64 0.78 0.22 0.22 0.42 0.44 0.66 0.64 0.24 0.24 0.48 0.44 0.76 0.64 0.26 0.2 0.54 0.38 0.84 0.56 0.16 0.1 0.28 0.2 0.44 0.3 0.2 0.1 0.4 0.18 0.6 0.26 0.1 0.06 0.2 0.1 0.3 0.14 0.56 0.24 1.12 0.4 1.68 0.52 0.08 0.02 0.14 0.04 0.22 0.04 0.62 0.12 1.24 0.2 1.88 0.2 0.6 0 1.22-0.08 1.82-0.18 0.12-0.04 0.26-0.06 0.38-0.08 1.14-0.26 2.24-0.72 3.24-1.36 0.1-0.08 0.2-0.14 0.32-0.22 0.42-0.3 0.84-0.64 1.22-1.02 0.04-0.04 0.08-0.06 0.12-0.1 0.4-0.42 0.78-0.86 1.1-1.36 0.08-0.1 0.16-0.22 0.24-0.34 0.12-0.22 0.28-0.42 0.4-0.66l7.98-15.06 159.98 159.98zM591.1 447.92l0.24 0.44-0.32-0.3zM492.16 172.96l145.16 145.16c-0.66 1.34-1.04 2.84-1.04 4.44v167.86l-36.34-68.52c-0.32-0.6-0.68-1.14-1.12-1.66-0.22-0.28-0.48-0.5-0.74-0.76-0.2-0.2-0.4-0.44-0.64-0.62-0.52-0.44-1.06-0.8-1.66-1.12-0.02 0-0.06-0.02-0.08-0.02-0.56-0.3-1.12-0.54-1.72-0.72-0.32-0.08-0.62-0.12-0.94-0.18-0.32-0.06-0.64-0.16-0.96-0.18-0.34-0.04-0.68-0.02-1.02-0.02-0.32 0-0.62-0.02-0.92 0.02-0.38 0.02-0.74 0.12-1.1 0.2-0.26 0.06-0.54 0.08-0.8 0.16-1.26 0.38-2.46 1-3.48 1.86-0.24 0.18-0.42 0.42-0.64 0.62-0.26 0.26-0.52 0.48-0.74 0.76-0.44 0.52-0.8 1.06-1.12 1.66l-6.02 11.36-30.32-30.32v-80.38c0-5.52-4.48-10-10-10s-10 4.48-10 10v60.4l-50.4-50.4h12.56c5.52 0 10-4.48 10-10s-4.48-10-10-10h-32.56l-139.6-139.6h176.24zM735.82 416.6h-31.72v-31.72z" fill="#FFFFFF" opacity=".4" p-id="38907"></path><path d="M894.44 575.22v105H823.2l-166.92-166.92v-176.24l28.88 28.9c-0.7 3.82-1.06 7.76-1.06 11.78v48.86c0 5.52 4.48 10 10 10h61.72l38.62 38.62v0.22c0 24.92-20.26 45.18-45.16 45.18h-45.18V494c0-5.52-4.48-10-10-10s-10 4.48-10 10v36.62c0 5.52 4.48 10 10 10h55.18c29.9 0 55.16-20.24 62.78-47.76l82.38 82.36z" fill="#FFFFFF" opacity=".4" p-id="38908"></path></svg>