<?xml version="1.0" standalone="no"?><!DOCTYPE svg PUBLIC "-//W3C//DTD SVG 1.1//EN" "http://www.w3.org/Graphics/SVG/1.1/DTD/svg11.dtd"><svg t="1625812047032" class="icon" viewBox="0 0 1024 1024" version="1.1" xmlns="http://www.w3.org/2000/svg" p-id="50302" xmlns:xlink="http://www.w3.org/1999/xlink" width="200" height="200"><defs><style type="text/css"></style></defs><path d="M907.8 174.68H688.18V104.52c0-22.6-18.38-41-40.98-41H376.8c-22.6 0-41 18.4-41 41v70.16H116.2c-36.16 0-65.58 29.42-65.58 65.58v166.74c0 5.52 4.48 10 10 10h37.02v477.9c0 36.16 29.44 65.56 65.6 65.56h697.52c36.16 0 65.6-29.4 65.6-65.56V417h37.02c5.54 0 10-4.48 10-10v-166.74c0-36.16-29.42-65.58-65.58-65.58z m-552-70.16c0-11.58 9.42-21 21-21h270.4c11.58 0 20.98 9.42 20.98 21v70.16H355.8V104.52z m550.56 790.38c0 25.12-20.46 45.56-45.6 45.56H163.24c-25.14 0-45.6-20.44-45.6-45.56V417h105.9v39.86c0 22.6 18.38 40.98 40.98 40.98h50.3c22.6 0 41-18.38 41-40.98V417h312.36v39.86c0 22.6 18.4 40.98 41 40.98h50.3c22.6 0 40.98-18.38 40.98-40.98V417h105.9v477.9zM335.82 407.08v49.78c0 11.56-9.42 20.98-21 20.98h-50.3c-11.58 0-20.98-9.42-20.98-20.98v-99.72c0-11.58 9.4-21 20.98-21h50.3c11.58 0 21 9.42 21 21v49.76c0 0.04-0.02 0.06-0.02 0.1 0 0.02 0.02 0.04 0.02 0.08z m352.36 49.78v-49.84-0.02V357.14c0-11.58 9.42-21 21-21h50.3c11.58 0 20.98 9.42 20.98 21v99.72c0 11.56-9.4 20.98-20.98 20.98h-50.3c-11.58 0-21-9.42-21-20.98z m265.2-59.86h-152.92v-39.86c0-22.62-18.38-41-40.98-41h-50.3c-22.6 0-41 18.38-41 41v39.86H355.82v-39.86c0-22.62-18.4-41-41-41h-50.3c-22.6 0-40.98 18.38-40.98 41v39.86H70.62v-156.74c0-25.12 20.44-45.58 45.58-45.58h791.6c25.14 0 45.58 20.44 45.58 45.58v156.74z" fill="#23130D" p-id="50303"></path><path d="M780.46 357.14v99.72c0 11.56-9.4 20.98-20.98 20.98h-50.3c-11.58 0-21-9.42-21-20.98v-49.84-0.02V357.14c0-11.58 9.42-21 21-21h50.3c11.58 0 20.98 9.42 20.98 21zM335.82 357.14v49.76c0 0.04-0.02 0.06-0.02 0.1 0 0.02 0.02 0.04 0.02 0.08v49.78c0 2.74-0.54 5.38-1.52 7.78-0.96 2.44-2.4 4.66-4.16 6.56a20.982 20.982 0 0 1-15.32 6.64h-50.3c-11.58 0-20.98-9.42-20.98-20.98v-99.72c0-1.38 0.14-2.74 0.38-4.04 1.08-5.5 4.3-10.24 8.76-13.28 3.38-2.32 7.44-3.68 11.84-3.68h50.3c11.58 0 21 9.42 21 21z" fill="#E1E1E5" p-id="50304"></path><path d="M759.48 346.14c6.054 0 10.98 4.934 10.98 11v99.72a10.992 10.992 0 0 1-10.98 10.98h-50.3c-6.066 0-11-4.926-11-10.98v-99.72c0-6.066 4.934-11 11-11h50.3m0-10h-50.3c-11.58 0-21 9.42-21 21V456.86c0 11.56 9.42 20.98 21 20.98h50.3c11.58 0 20.98-9.42 20.98-20.98v-99.72c0-11.58-9.4-21-20.98-21zM314.82 346.14c6.066 0 11 4.934 11 11v49.226c-0.014 0.21-0.02 0.422-0.02 0.634l0.008 2.008 0.012 0.03v47.822c0 6.054-4.934 10.98-11 10.98h-50.3a10.992 10.992 0 0 1-10.98-10.98v-99.72c0-6.066 4.926-11 10.98-11h50.3m0-10h-50.3c-11.58 0-20.98 9.42-20.98 21v99.72c0 11.56 9.4 20.98 20.98 20.98h50.3c11.58 0 21-9.42 21-20.98v-49.78c0-0.04-0.02-0.06-0.02-0.08 0-0.04 0.02-0.06 0.02-0.1v-49.76c0-11.58-9.42-21-21-21z" opacity=".2" p-id="50305"></path><path d="M953.38 240.26v156.74h-152.92v-39.86c0-22.62-18.38-41-40.98-41h-50.3c-22.6 0-41 18.38-41 41v39.86H355.82v-39.86c0-22.62-18.4-41-41-41h-50.3c-22.6 0-40.98 18.38-40.98 41v39.86H70.62v-156.74c0-25.12 20.44-45.58 45.58-45.58h791.6c25.14 0 45.58 20.44 45.58 45.58z" fill="#E59D89" p-id="50306"></path><path d="M953.38 240.26v33c0-25.14-20.44-45.58-45.58-45.58H116.2c-25.14 0-45.58 20.46-45.58 45.58v-33c0-25.12 20.44-45.58 45.58-45.58h791.6c25.14 0 45.58 20.44 45.58 45.58z" fill="#FFFFFF" opacity=".4" p-id="50307"></path><path d="M906.36 417v477.9c0 25.12-20.46 45.56-45.6 45.56H163.24c-25.14 0-45.6-20.44-45.6-45.56V417h105.9v39.86c0 22.6 18.38 40.98 40.98 40.98h50.3c22.6 0 41-18.38 41-40.98V417h312.36v39.86c0 22.6 18.4 40.98 41 40.98h50.3c22.6 0 40.98-18.38 40.98-40.98V417h105.9z" fill="#CC7B5A" p-id="50308"></path><path d="M886.36 437v457.9c0 14.094-11.484 25.56-25.6 25.56H163.24c-14.116 0-25.6-11.466-25.6-25.56V437h65.9v19.86c0 33.624 27.356 60.98 60.98 60.98h50.3c33.636 0 61-27.356 61-60.98v-19.86h272.36v19.86c0 33.624 27.364 60.98 61 60.98h50.3c33.624 0 60.98-27.356 60.98-60.98v-19.86h65.9m20-20h-105.9v39.86c0 22.6-18.38 40.98-40.98 40.98h-50.3c-22.6 0-41-18.38-41-40.98V417H355.82v39.86c0 22.6-18.4 40.98-41 40.98h-50.3c-22.6 0-40.98-18.38-40.98-40.98V417H117.64v477.9c0 25.12 20.46 45.56 45.6 45.56h697.52c25.14 0 45.6-20.44 45.6-45.56V417z" opacity=".2" p-id="50309"></path><path d="M330.14 471.2a20.982 20.982 0 0 1-15.32 6.64h-5.58l-65.7-65.68V384.6l86.6 86.6zM335.82 445v11.86c0 2.74-0.54 5.38-1.52 7.78l-90.76-90.76v-16.74c0-1.38 0.14-2.74 0.38-4.04l91.9 91.9zM335.82 406.9c0 0.04-0.02 0.06-0.02 0.1 0 0.02 0.02 0.04 0.02 0.08v15.88l-83.14-83.14c3.38-2.32 7.44-3.68 11.84-3.68h19.68l51.62 51.62v19.14z" fill="#FFFFFF" opacity=".4" p-id="50310"></path><path d="M774.78 471.2a20.982 20.982 0 0 1-15.32 6.64h-5.58l-65.7-65.68V384.6l86.6 86.6zM780.46 445v11.86c0 2.74-0.54 5.38-1.52 7.78l-90.76-90.76v-16.74c0-1.38 0.14-2.74 0.38-4.04l91.9 91.9zM780.46 406.9c0 0.04-0.02 0.06-0.02 0.1 0 0.02 0.02 0.04 0.02 0.08v15.88l-83.14-83.14c3.38-2.32 7.44-3.68 11.84-3.68h19.68l51.62 51.62v19.14z" fill="#FFFFFF" opacity=".4" p-id="50311"></path></svg>