<?xml version="1.0" standalone="no"?><!DOCTYPE svg PUBLIC "-//W3C//DTD SVG 1.1//EN" "http://www.w3.org/Graphics/SVG/1.1/DTD/svg11.dtd"><svg t="1625812057424" class="icon" viewBox="0 0 1024 1024" version="1.1" xmlns="http://www.w3.org/2000/svg" p-id="50924" xmlns:xlink="http://www.w3.org/1999/xlink" width="200" height="200"><defs><style type="text/css"></style></defs><path d="M801.76 860.82c-3.22-0.66-6.54-1-9.92-1h-80.58v-116.16c19.94-12.44 63.26-40.4 65.28-87.04 1.64-38.14-25.72-78.64-81.34-120.36-76.78-57.58-114.28-116.46-132.22-155.72-6.92-15.16-11.54-28.62-14.62-39.7 19.04 10.8 47.9 18.36 86.56 26.08 62.34 12.48 97 56.26 97.34 56.68a9.992 9.992 0 0 0 12.64 2.7l75.12-40.24a10.032 10.032 0 0 0 5.24-9.68l-6.7-77.8a9.94 9.94 0 0 0-4.42-7.46c-62-41.34-133.38-146.48-134.1-147.54-1.14-1.7-2.8-3.02-4.72-3.74l-86.24-32.8 21.04-61.96c1-2.92 0.58-6.14-1.1-8.7a9.992 9.992 0 0 0-7.54-4.5c-61.76-5.1-98.9 53.16-108.18 69.76-100.22 25.24-175.44 78.4-223.62 158-54.26 89.7-63.58 197.12-61.84 271.46 1.88 80.2 16.26 138.58 16.86 141.02a9.948 9.948 0 0 0 4.52 6.12l107.88 65.5v116.08h-96c-27.18 0-49.28 22.1-49.28 49.28v73.32c0 5.54 4.48 10 10 10h629.3c5.52 0 10-4.46 10-10v-73.32c0-23.78-16.94-43.68-39.36-48.28zM243.2 663.34c-6.92-31.22-48.6-240.98 43.58-393.34 46.02-76.04 118.56-126.52 215.62-150a10.06 10.06 0 0 0 6.6-5.3c0.32-0.64 28.92-57.32 77.64-62.7l-19.6 57.74c-1.74 5.1 0.88 10.66 5.9 12.56l92.32 35.12c11.62 16.86 74.54 106.02 133.78 147.6l5.74 66.52-62.28 33.36c-13-14-48.2-46.5-103.66-57.58-65.72-13.16-92.02-24.36-97-41.32-1.42-4.82-6.2-7.84-11.18-7.04a10 10 0 0 0-8.42 10.2c0.04 1.3 1.32 32.68 22.02 78.48 18.84 41.7 58.24 104.1 138.94 164.62 50.02 37.52 74.7 72.34 73.36 103.5-1.6 37.12-40.54 61.38-57.16 71.74-1.32 0.82-2.5 1.54-3.52 2.2 0 0-0.02 0.02-0.04 0.02-0.52 0.34-0.98 0.72-1.44 1.14-0.04 0.04-0.08 0.08-0.12 0.1-1.34 1.32-2.32 3.02-2.74 4.92-0.02 0.04-0.04 0.06-0.04 0.1-0.08 0.4-0.1 0.8-0.14 1.22-0.02 0.26-0.08 0.5-0.08 0.76 0 0.06-0.02 0.1-0.02 0.16v121.7h-35.84v-119.58c0-5.52-4.48-10-10-10s-10 4.48-10 10v119.58h-39.52v-119.58c0-5.52-4.48-10-10-10s-10 4.48-10 10v119.58h-39.52v-119.58c0-5.52-4.46-10-10-10-5.52 0-10 4.48-10 10v119.58h-39.52v-119.58c0-5.52-4.48-10-10-10s-10 4.48-10 10v119.58h-39.52v-119.58c0-5.52-4.48-10-10-10s-10 4.48-10 10v119.58h-40.24v-121.7c0-0.08-0.02-0.16-0.02-0.22a9.74 9.74 0 0 0-0.12-1.1c-0.04-0.3-0.06-0.6-0.12-0.88-0.08-0.32-0.18-0.62-0.28-0.92-0.12-0.32-0.2-0.64-0.34-0.92-0.12-0.3-0.28-0.56-0.44-0.84s-0.3-0.58-0.5-0.84c-0.18-0.26-0.38-0.48-0.6-0.72-0.2-0.26-0.42-0.52-0.66-0.76-0.2-0.18-0.44-0.36-0.66-0.54a7.58 7.58 0 0 0-0.9-0.68c-0.06-0.04-0.12-0.1-0.18-0.14l-109.08-66.22z m577.92 309.08H211.82v-63.32c0-16.14 13.14-29.28 29.28-29.28h550.74c2.02 0 3.98 0.2 5.88 0.6 13.34 2.74 23.4 14.56 23.4 28.68v63.32z" fill="#23130D" p-id="50925"></path><path d="M821.12 909.1v63.32H211.82v-63.32c0-16.14 13.14-29.28 29.28-29.28h550.74c2.02 0 3.98 0.2 5.88 0.6 13.34 2.74 23.4 14.56 23.4 28.68z" fill="#F9C139" p-id="50926"></path><path d="M791.84 889.82c1.32 0 2.604 0.13 3.868 0.396 8.93 1.834 15.412 9.776 15.412 18.884v53.32H221.82v-53.32c0-10.63 8.648-19.28 19.28-19.28h550.74m0-10H241.1c-16.14 0-29.28 13.14-29.28 29.28v63.32h609.3v-63.32c0-14.12-10.06-25.94-23.4-28.68-1.9-0.4-3.86-0.6-5.88-0.6z" opacity=".2" p-id="50927"></path><path d="M804.78 371.54l-16.56 8.86-1.44 0.78-5.84 3.14-8.36 4.48-15.3 8.18-0.34 0.18-14.44 7.74c-4.76-5.12-12.46-12.7-23.04-20.8-0.36-0.28-0.72-0.56-1.1-0.82-3.4-2.58-7.08-5.18-11.04-7.78-2.22-1.46-4.54-2.92-6.94-4.36-0.46-0.26-0.92-0.54-1.4-0.82a193.944 193.944 0 0 0-22.44-11.3c-1.98-0.84-4-1.66-6.06-2.46-4.76-1.86-9.72-3.56-14.88-5.08-5.36-1.6-10.96-3-16.76-4.16a835.694 835.694 0 0 1-20.06-4.24c-7.22-1.6-13.84-3.2-19.9-4.8-8.1-2.12-15.22-4.26-21.42-6.42-9.78-3.38-17.32-6.86-22.92-10.58-7.04-4.64-11.06-9.64-12.7-15.28a9.994 9.994 0 0 0-12.26-6.8 9.928 9.928 0 0 0-5.64 4.06c-1.14 1.68-1.76 3.72-1.7 5.9 0 0.28 0.08 1.9 0.38 4.72 0.9 8.92 4.1 29.78 15.02 57.94 1.94 5.04 4.14 10.34 6.62 15.82a333.162 333.162 0 0 0 7.24 14.98c4.92 9.54 10.82 19.86 17.9 30.76 0.56 0.88 1.14 1.76 1.74 2.64 5.84 8.84 12.44 18.06 19.92 27.54 6.32 8.02 13.28 16.24 20.94 24.58 0.08 0.1 0.16 0.2 0.26 0.3 3.5 3.84 7.16 7.72 10.98 11.6 2.92 2.98 5.94 5.98 9.06 8.98 2.8 2.7 5.68 5.42 8.62 8.14 0.98 0.9 1.98 1.8 2.98 2.72 5.02 4.56 10.28 9.14 15.74 13.7 0.14 0.14 0.26 0.24 0.4 0.32 5.72 4.82 11.68 9.6 17.9 14.36 1.72 1.34 3.48 2.66 5.26 4 6.74 5.06 13 10.06 18.82 15 3.56 3.04 6.94 6.04 10.16 9.06 4.54 4.2 8.74 8.4 12.58 12.56 12.66 13.62 21.58 26.82 26.68 39.52 2.96 7.32 4.66 14.5 5.06 21.48 0.12 1.98 0.14 3.94 0.06 5.88-0.38 8.94-2.94 17.14-6.84 24.56-3.82 7.36-8.98 13.98-14.6 19.82-7.98 8.28-16.96 15.02-24.64 20.22-4.2 2.86-8.02 5.24-11.08 7.14-1.32 0.82-2.5 1.54-3.52 2.2 0 0-0.02 0.02-0.04 0.02-0.52 0.34-0.98 0.72-1.44 1.14-0.04 0.04-0.08 0.08-0.12 0.1-1.34 1.32-2.32 3.02-2.74 4.92-0.02 0.04-0.04 0.06-0.04 0.1-0.08 0.4-0.1 0.8-0.14 1.22-0.02 0.26-0.08 0.5-0.08 0.76 0 0.06-0.02 0.1-0.02 0.16v121.7h-35.84v-119.58c0-5.52-4.48-10-10-10s-10 4.48-10 10v119.58h-39.52v-119.58c0-5.52-4.48-10-10-10s-10 4.48-10 10v119.58h-39.52v-119.58c0-5.52-4.46-10-10-10-2.52 0-4.82 0.92-6.56 2.46a9.948 9.948 0 0 0-3.44 7.54v119.58h-39.52v-119.58a10 10 0 0 0-9.86-10h-0.14c-4.18 0-7.74 2.56-9.24 6.18a9.72 9.72 0 0 0-0.76 3.82v119.58h-39.52v-119.58c0-1.08-0.18-2.12-0.5-3.1-1.3-4-5.06-6.9-9.5-6.9-0.3 0-0.6 0.02-0.88 0.06-0.8 0.06-1.56 0.22-2.28 0.48a9.936 9.936 0 0 0-6.84 9.46v119.58h-40.24v-121.7c0-0.08-0.02-0.16-0.02-0.22a9.74 9.74 0 0 0-0.12-1.1c-0.04-0.3-0.06-0.6-0.12-0.88-0.08-0.32-0.18-0.62-0.28-0.92-0.12-0.32-0.2-0.64-0.34-0.92-0.12-0.3-0.28-0.56-0.44-0.84-0.16-0.28-0.3-0.58-0.5-0.84-0.18-0.26-0.38-0.48-0.6-0.72-0.2-0.26-0.42-0.52-0.66-0.76-0.2-0.18-0.44-0.36-0.66-0.54a7.58 7.58 0 0 0-0.9-0.68c-0.06-0.04-0.12-0.1-0.18-0.14l-39.64-24.06-26.48-16.1h-0.02l-15.48-9.4-5.9-3.58-18.96-11.5-2.6-1.58a519.944 519.944 0 0 1-5.04-26.26c-0.04-0.06-0.04-0.12-0.04-0.18-0.62-3.64-1.24-7.56-1.88-11.76-1.96-13-3.96-28.54-5.5-46-0.46-5.2-0.88-10.58-1.26-16.1-0.6-8.96-1.08-18.32-1.36-28-0.1-3.14-0.16-6.3-0.2-9.5-0.1-5.34-0.12-10.8-0.08-16.32 0.04-6.36 0.18-12.82 0.42-19.38 0.48-13.04 1.36-26.44 2.72-40.04 0.54-5.26 1.16-10.56 1.84-15.86 1.82-14.08 4.22-28.3 7.3-42.56a422.2 422.2 0 0 1 3.68-15.88 431.3 431.3 0 0 1 9.3-31.9c2.68-8.06 5.64-16.06 8.88-24 6.92-16.98 15.12-33.6 24.8-49.6 0.58-0.96 1.16-1.92 1.78-2.86 3.08-5.02 6.3-9.94 9.66-14.72 7.08-10.18 14.7-19.82 22.84-28.96 5.66-6.38 11.58-12.5 17.76-18.34 0.02 0 0.02 0 0.04-0.02 8.64-8.24 17.74-15.92 27.34-23.14 0 0 0.02 0 0.02-0.02 6.88-5.16 14.02-10.1 21.42-14.76 0.02-0.02 0.02-0.02 0.04-0.02 15.16-9.54 31.38-18.02 48.62-25.4a362.746 362.746 0 0 1 20.6-8.12c8.72-3.16 17.68-6.06 26.88-8.7 6.1-1.78 12.3-3.42 18.62-4.94 0.54-0.14 1.06-0.3 1.58-0.52 0.64-0.3 1.26-0.64 1.84-1.06 1.34-0.94 2.44-2.22 3.18-3.72 0.08-0.14 1.68-3.34 4.74-8.22 2.04-3.26 4.72-7.28 8-11.66 3.5-4.64 7.7-9.7 12.58-14.66 4-4.08 8.46-8.1 13.34-11.76a89.42 89.42 0 0 1 8.32-5.66c2.74-1.66 5.6-3.18 8.54-4.52 6.82-3.12 14.2-5.36 22.12-6.22l-4.74 13.98-5.18 15.24-1.78 5.24-7.9 23.28c-1.74 5.1 0.88 10.66 5.9 12.56l30.7 11.68 25.2 9.58L654 153.14l11.26 4.28c3.22 4.66 10.4 14.92 20.34 28.18 0.3 0.38 0.58 0.76 0.88 1.16a938.356 938.356 0 0 0 26.38 33.46c8.78 10.62 18.38 21.72 28.44 32.54 3.06 3.3 6.18 6.58 9.32 9.82 1.9 1.94 3.82 3.88 5.74 5.8 13.94 13.86 28.4 26.62 42.68 36.64l1.3 15.08 4.44 51.44z" fill="#CC7B5A" p-id="50928"></path><path d="M571.258 66.206l-13.682 40.304a19.892 19.892 0 0 0 11.808 25.136l89.422 34.018c15.31 21.968 73.862 103.172 130.666 144.798l4.778 55.374-49.84 26.696c-16.564-16.274-51.734-44.654-103.608-55.018-39.222-7.854-84.824-18.854-89.372-34.34-2.488-8.444-10.372-14.342-19.172-14.342-1.062 0-2.134 0.086-3.186 0.254-9.912 1.592-17.148 10.358-16.83 20.38 0.042 1.386 1.292 34.476 22.902 82.29 19.318 42.758 59.644 106.702 142.052 168.502 46.554 34.92 70.542 67.796 69.37 95.07-1.372 31.84-37.16 54.148-52.446 63.676l-0.966 0.598-0.186 0.116h-0.11l-2.494 1.632a8.918 8.918 0 0 0-0.286 0.192l-0.522 0.338-0.114 0.114a18.712 18.712 0 0 0-0.734 0.572l-0.32 0.16-1.128 1.112a19.91 19.91 0 0 0-5.028 8.178l-0.734 1.288v1.956c-0.036 0.314-0.06 0.584-0.078 0.804l-0.01 0.112c-0.018 0.128-0.04 0.296-0.062 0.494l-0.09 0.462v112.69h-15.84v-109.58c0-11.028-8.972-20-20-20s-20 8.972-20 20v109.58h-19.52v-109.58c0-11.028-8.972-20-20-20s-20 8.972-20 20v109.58h-19.52v-109.58c0-11.028-8.972-20-20-20s-20 8.972-20 20v109.58h-19.52v-109.58c0-11.028-8.972-20-20-20s-20 8.972-20 20v109.58h-19.52v-109.58c0-11.028-8.972-20-20-20s-20 8.972-20 20v109.58h-20.24v-111.7c0-0.414-0.026-0.778-0.052-1.046a19.56 19.56 0 0 0-0.186-1.674c-0.038-0.336-0.1-0.898-0.246-1.576l-0.036-0.164-0.04-0.164a22.52 22.52 0 0 0-0.494-1.656l-0.058-0.176-0.066-0.174 0.014 0.034c-0.106-0.318-0.286-0.862-0.584-1.516a15.322 15.322 0 0 0-0.842-1.64l-0.066-0.12c-0.194-0.356-0.538-0.994-1.076-1.724a15.42 15.42 0 0 0-1.06-1.314 16.822 16.822 0 0 0-1.222-1.36l-0.184-0.184-0.194-0.174c-0.28-0.252-0.592-0.508-0.908-0.76l-0.064-0.052a17.946 17.946 0 0 0-1.456-1.116 10.256 10.256 0 0 0-0.47-0.332l-0.17-0.114-0.174-0.106-105.402-63.986c-4.34-20.656-14.456-76.308-14.24-144.896 0.298-94.65 19.646-174.372 57.508-236.952 44.6-73.692 115.056-122.632 209.442-145.464a19.92 19.92 0 0 0 13.162-10.532c0.234-0.456 20.184-39.394 53.324-52.978M586.64 52h0.01-0.01z m0 0c-48.72 5.38-77.32 62.06-77.64 62.7a10.06 10.06 0 0 1-6.6 5.3c-97.06 23.48-169.6 73.96-215.62 150-92.18 152.36-50.5 362.12-43.58 393.34l109.08 66.22c0.06 0.04 0.12 0.1 0.18 0.14 0.32 0.2 0.62 0.44 0.9 0.68 0.22 0.18 0.46 0.36 0.66 0.54 0.24 0.24 0.46 0.5 0.66 0.76 0.22 0.24 0.42 0.46 0.6 0.72 0.2 0.26 0.34 0.56 0.5 0.84s0.32 0.54 0.44 0.84c0.14 0.28 0.22 0.6 0.34 0.92 0.1 0.3 0.2 0.6 0.28 0.92 0.06 0.28 0.08 0.58 0.12 0.88 0.06 0.36 0.1 0.72 0.12 1.1 0 0.06 0.02 0.14 0.02 0.22v121.7h40.24v-119.58c0-5.52 4.48-10 10-10s10 4.48 10 10v119.58h39.52v-119.58c0-5.52 4.48-10 10-10s10 4.48 10 10v119.58h39.52v-119.58c0-5.52 4.48-10 10-10 5.54 0 10 4.48 10 10v119.58h39.52v-119.58c0-5.52 4.48-10 10-10s10 4.48 10 10v119.58h39.52v-119.58c0-5.52 4.48-10 10-10s10 4.48 10 10v119.58h35.84v-121.7c0-0.06 0.02-0.1 0.02-0.16 0-0.26 0.06-0.5 0.08-0.76 0.04-0.42 0.06-0.82 0.14-1.22 0-0.04 0.02-0.06 0.04-0.1 0.42-1.9 1.4-3.6 2.74-4.92 0.04-0.02 0.08-0.06 0.12-0.1 0.46-0.42 0.92-0.8 1.44-1.14 0.02 0 0.04-0.02 0.04-0.02 1.02-0.66 2.2-1.38 3.52-2.2 16.62-10.36 55.56-34.62 57.16-71.74 1.34-31.16-23.34-65.98-73.36-103.5-80.7-60.52-120.1-122.92-138.94-164.62-20.7-45.8-21.98-77.18-22.02-78.48a10 10 0 0 1 10.02-10.328 9.992 9.992 0 0 1 9.58 7.168c4.98 16.96 31.28 28.16 97 41.32 55.46 11.08 90.66 43.58 103.66 57.58l62.28-33.36-5.74-66.52c-59.24-41.58-122.16-130.74-133.78-147.6l-92.32-35.12a9.984 9.984 0 0 1-5.9-12.56l19.6-57.74z" opacity=".2" p-id="50929"></path><path d="M436.92 972.42h-92.06l-92.6-92.6h92.06zM543.48 972.42h-70.76l-92.62-92.6h70.76zM734.84 972.42H617.2l-92.6-92.6h117.64z" fill="#FFFFFF" opacity=".4" p-id="50930"></path></svg>