<?xml version="1.0" standalone="no"?><!DOCTYPE svg PUBLIC "-//W3C//DTD SVG 1.1//EN" "http://www.w3.org/Graphics/SVG/1.1/DTD/svg11.dtd"><svg t="1625812163383" class="icon" viewBox="0 0 1024 1024" version="1.1" xmlns="http://www.w3.org/2000/svg" p-id="52732" xmlns:xlink="http://www.w3.org/1999/xlink" width="200" height="200"><defs><style type="text/css"></style></defs><path d="M562.2 401v106.3c0 28.04-22.82 50.86-50.88 50.86-28.06 0-50.88-22.82-50.88-50.86V401c0-5.52 4.48-10 10-10s10 4.48 10 10v106.3c0 17.02 13.86 30.86 30.88 30.86s30.88-13.84 30.88-30.86V401c0-5.52 4.48-10 10-10s10 4.48 10 10zM682.12 401v105.6c0 28.06-22.84 50.88-50.88 50.88-28.06 0-50.88-22.82-50.88-50.88 0-5.52 4.48-10 10-10s10 4.48 10 10c0 17.04 13.84 30.88 30.88 30.88 17.02 0 30.88-13.84 30.88-30.88v-33.86c-8.58 6.56-19.28 10.48-30.88 10.48-28.06 0-50.88-22.82-50.88-50.88V401c0-5.52 4.48-10 10-10s10 4.48 10 10v31.34c0 17.02 13.84 30.88 30.88 30.88 8.52 0 16.24-3.46 21.82-9.06 5.6-5.6 9.06-13.32 9.06-21.82V401c0-5.52 4.46-10 10-10 5.52 0 10 4.48 10 10z" fill="#23130D" p-id="52733"></path><path d="M975.54 757.06h-31.56V249.12c0-42.46-34.56-77-77.04-77H157.06c-42.48 0-77.04 34.54-77.04 77v507.94H48.46c-5.52 0-10 4.48-10 10v41.56a9.96 9.96 0 0 0 5.64 9l68.58 33.26c1.36 0.66 2.86 1 4.38 1h789.9c1.5 0 3-0.34 4.36-1l68.6-33.26a9.98 9.98 0 0 0 5.62-9v-41.56c0-5.52-4.46-10-10-10zM100.02 249.12c0-31.42 25.6-57 57.04-57h709.88c31.44 0 57.04 25.56 57.04 57v507.94H100.02V249.12z m865.52 553.24l-60.88 29.52H119.34l-60.88-29.52v-25.3h907.08v25.3z" fill="#23130D" p-id="52734"></path><path d="M58.46 777.06v25.3l60.88 29.52h785.32l60.88-29.52v-25.3H58.46z m565.78 37.4H399.76c-5.54 0-10-4.46-10-10 0-5.52 4.46-10 10-10h224.48c5.52 0 10 4.48 10 10 0 5.54-4.48 10-10 10z" fill="#636368" p-id="52735"></path><path d="M904.66 807.88H633.64a10.006 10.006 0 0 1-9.4 6.58H399.76c-4.34 0-8-2.74-9.4-6.58H119.34l-60.88-29.52v24l60.88 29.52h785.32l60.88-29.52v-24l-60.88 29.52z" opacity=".2" p-id="52736"></path><path d="M866.94 192.12H157.06c-31.44 0-57.04 25.58-57.04 57v507.94h823.96V249.12c0-31.44-25.6-57-57.04-57z m31.3 533.36c0 5.52-4.48 10-10 10H135.76c-5.52 0-10-4.48-10-10V234.92c0-5.54 4.48-10 10-10h752.48c5.52 0 10 4.46 10 10v490.56z" fill="#E1E1E5" p-id="52737"></path><path d="M866.94 198.12c28.144 0 51.04 22.878 51.04 51v501.94H106.02V249.12c0-28.122 22.896-51 51.04-51h709.88M135.76 741.48h752.48c8.822 0 16-7.178 16-16V234.92c0-8.822-7.178-16-16-16H135.76c-8.822 0-16 7.178-16 16v490.56c0 8.822 7.178 16 16 16M866.94 192.12H157.06c-31.44 0-57.04 25.58-57.04 57v507.94h823.96V249.12c0-31.44-25.6-57-57.04-57zM135.76 735.48c-5.52 0-10-4.48-10-10V234.92c0-5.54 4.48-10 10-10h752.48c5.52 0 10 4.46 10 10v490.56c0 5.52-4.48 10-10 10H135.76z" opacity=".2" p-id="52738"></path><path d="M888.24 224.92H135.76c-5.52 0-10 4.46-10 10v490.56c0 5.52 4.48 10 10 10h752.48c5.52 0 10-4.48 10-10V234.92c0-5.54-4.48-10-10-10z m-10 490.56H145.76V244.92h732.48v470.56z" fill="#23130D" p-id="52739"></path><path d="M145.76 244.92v470.56h732.48V244.92H145.76z m485.48 238.3c-28.06 0-50.88-22.82-50.88-50.88V401c0-5.52 4.48-10 10-10s10 4.48 10 10v31.34c0 17.02 13.84 30.88 30.88 30.88 8.52 0 16.24-3.46 21.82-9.06 5.6-5.6 9.06-13.32 9.06-21.82V401c0-5.52 4.46-10 10-10 5.52 0 10 4.48 10 10v105.6c0 28.06-22.84 50.88-50.88 50.88-28.06 0-50.88-22.82-50.88-50.88 0-5.52 4.48-10 10-10s10 4.48 10 10c0 17.04 13.84 30.88 30.88 30.88 17.02 0 30.88-13.84 30.88-30.88v-33.86c-8.58 6.56-19.28 10.48-30.88 10.48z m-234.38 74.94h-44.98c-5.52 0-10-4.46-10-10V401c0-5.52 4.48-10 10-10h44.98c9.14 0 17.66 2.62 24.86 7.18 5.94 3.74 10.98 8.78 14.7 14.7 4.58 7.22 7.22 15.76 7.22 24.92 0 14.9-7.02 28.2-17.92 36.78 10.9 8.58 17.92 21.88 17.92 36.8 0 6.82-1.46 13.32-4.12 19.16-7.32 16.28-23.68 27.62-42.66 27.62z m114.46 0c-28.06 0-50.88-22.82-50.88-50.86V401c0-5.52 4.48-10 10-10s10 4.48 10 10v106.3c0 17.02 13.86 30.86 30.88 30.86 13.6 0 25.2-8.84 29.28-21.1 1.04-3.06 1.6-6.36 1.6-9.76V401c0-5.52 4.48-10 10-10s10 4.48 10 10v106.3c0 9.02-2.36 17.52-6.5 24.86-8.74 15.5-25.36 26-44.38 26z" fill="#3594BF" p-id="52740"></path><path d="M872.24 250.92v458.56H151.76V250.92h720.48m-241 206.3c-13.718 0-24.88-11.162-24.88-24.88V401c0-8.822-7.178-16-16-16s-16 7.178-16 16v31.34c0 31.364 25.516 56.88 56.88 56.88 8.74 0 17.178-1.96 24.88-5.734V506.6c0 13.718-11.162 24.88-24.88 24.88-13.718 0-24.88-11.162-24.88-24.88 0-8.822-7.178-16-16-16s-16 7.178-16 16c0 31.364 25.516 56.88 56.88 56.88s56.88-25.516 56.88-56.88v-105.6c0-8.822-7.178-16-16-16s-16 7.178-16 16v31.34c0 6.626-2.594 12.868-7.31 17.584a24.632 24.632 0 0 1-17.57 7.296m-119.92 74.94c-13.718 0-24.88-11.152-24.88-24.86V401c0-8.822-7.178-16-16-16s-16 7.178-16 16v106.3c0 31.352 25.516 56.86 56.88 56.86 20.494 0 39.502-11.132 49.606-29.052a56.706 56.706 0 0 0 7.274-27.808V401c0-8.822-7.178-16-16-16s-16 7.178-16 16v106.3c0 2.694-0.43 5.328-1.294 7.866a24.816 24.816 0 0 1-23.586 16.994m-159.44 32h44.98c20.728 0 39.622-12.23 48.12-31.132 3.092-6.788 4.66-14.072 4.66-21.648 0-13.908-5.38-26.982-14.962-36.8a52.43 52.43 0 0 0 14.962-36.78c0-9.996-2.82-19.726-8.14-28.112a53.096 53.096 0 0 0-16.57-16.576 52.372 52.372 0 0 0-28.07-8.112h-44.98c-8.822 0-16 7.178-16 16v147.16c0 8.822 7.178 16 16 16m526.36-319.24H145.76v470.56h732.48V244.92z m-247 218.3c8.52 0 16.24-3.46 21.82-9.06 5.6-5.6 9.06-13.32 9.06-21.82V401c0-5.52 4.46-10 10-10 5.52 0 10 4.48 10 10v105.6c0 28.06-22.84 50.88-50.88 50.88-28.06 0-50.88-22.82-50.88-50.88 0-5.52 4.48-10 10-10s10 4.48 10 10c0 17.04 13.84 30.88 30.88 30.88 17.02 0 30.88-13.84 30.88-30.88v-33.86c-8.58 6.56-19.28 10.48-30.88 10.48-28.06 0-50.88-22.82-50.88-50.88V401c0-5.52 4.48-10 10-10s10 4.48 10 10v31.34c0 17.02 13.84 30.88 30.88 30.88z m-119.92 74.94c13.6 0 25.2-8.84 29.28-21.1 1.04-3.06 1.6-6.36 1.6-9.76V401c0-5.52 4.48-10 10-10s10 4.48 10 10v106.3c0 9.02-2.36 17.52-6.5 24.86-8.74 15.5-25.36 26-44.38 26-28.06 0-50.88-22.82-50.88-50.86V401c0-5.52 4.48-10 10-10s10 4.48 10 10v106.3c0 17.02 13.86 30.86 30.88 30.86z m-159.44 20c-5.52 0-10-4.46-10-10V401c0-5.52 4.48-10 10-10h44.98c9.14 0 17.66 2.62 24.86 7.18 5.94 3.74 10.98 8.78 14.7 14.7 4.58 7.22 7.22 15.76 7.22 24.92 0 14.9-7.02 28.2-17.92 36.78 10.9 8.58 17.92 21.88 17.92 36.8 0 6.82-1.46 13.32-4.12 19.16-7.32 16.28-23.68 27.62-42.66 27.62h-44.98z" opacity=".2" p-id="52741"></path><path d="M425.72 474.58c10.9-8.58 17.92-21.88 17.92-36.78 0-25.8-20.98-46.8-46.78-46.8h-44.98c-5.52 0-10 4.48-10 10v147.16c0 5.54 4.48 10 10 10h44.98c25.8 0 46.78-20.98 46.78-46.78 0-14.92-7.02-28.22-17.92-36.8z m-28.86 63.58h-34.98v-53.58h35c14.76 0.02 26.76 12.04 26.76 26.8s-12.02 26.78-26.78 26.78z m0.02-73.58h-35V411h34.98c14.76 0 26.78 12.02 26.78 26.8 0 14.76-12 26.76-26.76 26.78z" fill="#23130D" p-id="52742"></path><path d="M423.64 437.8c0 14.76-12 26.76-26.76 26.78h-35V411h34.98c14.76 0 26.78 12.02 26.78 26.8zM423.64 511.38c0 1.04-0.06 2.08-0.18 3.1-1.54 13.3-12.88 23.68-26.6 23.68h-34.98v-53.58h35c14.76 0.02 26.76 12.04 26.76 26.8z" fill="#3594BF" p-id="52743"></path><path d="M634.24 804.46c0 5.54-4.48 10-10 10H399.76c-5.54 0-10-4.46-10-10 0-5.52 4.46-10 10-10h224.48c5.52 0 10 4.48 10 10z" fill="#23130D" p-id="52744"></path><path d="M448.82 715.48h-89.66l-213.4-213.4v-89.66zM375.3 538.16h-13.42v-13.42z" fill="#FFFFFF" opacity=".4" p-id="52745"></path><path d="M552.62 715.48h-68.92L145.76 377.54v-68.92l196.12 196.12v43.42c0 5.54 4.48 10 10 10h43.42l157.32 157.32zM480.44 507.3v-50.4l60.16 60.16c-4.08 12.26-15.68 21.1-29.28 21.1-17.02 0-30.88-13.84-30.88-30.86zM423.64 437.8c0 14.76-12 26.76-26.76 26.78h-23.32l-11.68-11.68V411h34.98c14.76 0 26.78 12.02 26.78 26.8z" fill="#FFFFFF" opacity=".4" p-id="52746"></path><path d="M396.86 391h-44.98c-5.52 0-10 4.48-10 10v31.9l-187.98-187.98h114.56l153.26 153.26a46.28 46.28 0 0 0-24.86-7.18zM423.64 511.38c0 1.04-0.06 2.08-0.18 3.1l-29.9-29.9h3.32c14.76 0.02 26.76 12.04 26.76 26.8zM739.02 715.48h-114.56l-184.94-184.94c2.66-5.84 4.12-12.34 4.12-19.16 0-14.92-7.02-28.22-17.92-36.8 10.9-8.58 17.92-21.88 17.92-36.78 0-9.16-2.64-17.7-7.22-24.92l24.02 24.02v70.4c0 28.04 22.82 50.86 50.88 50.86 19.02 0 35.64-10.5 44.38-26l183.32 183.32z" fill="#FFFFFF" opacity=".4" p-id="52747"></path><path d="M878.24 483.02v89.68L550.46 244.92h89.68zM878.24 379.24v68.94L674.98 244.92h68.94zM878.24 244.92v62.5l-62.5-62.5z" fill="#FFFFFF" opacity=".4" p-id="52748"></path></svg>