<?xml version="1.0" standalone="no"?><!DOCTYPE svg PUBLIC "-//W3C//DTD SVG 1.1//EN" "http://www.w3.org/Graphics/SVG/1.1/DTD/svg11.dtd"><svg t="1625812343392" class="icon" viewBox="0 0 1024 1024" version="1.1" xmlns="http://www.w3.org/2000/svg" p-id="61647" xmlns:xlink="http://www.w3.org/1999/xlink" width="200" height="200"><defs><style type="text/css"></style></defs><path d="M741.84 87.98H92.6c-21.8 0-39.52 20.22-39.52 45.08v757.88c0 24.86 17.72 45.08 39.52 45.08h649.24c21.78 0 39.52-20.22 39.52-45.08V133.06c0-24.86-17.74-45.08-39.52-45.08z m19.52 802.96c0 13.6-8.94 25.08-19.52 25.08H92.6c-10.76 0-19.52-11.26-19.52-25.08V133.06c0-13.82 8.76-25.08 19.52-25.08h649.24c10.76 0 19.52 11.26 19.52 25.08v757.88z" fill="#23130D" p-id="61648"></path><path d="M216.42 419.92c-2.62 0.6-5.36 0.9-8.16 0.9H175.96l33.52 33.52c19.94 0.64 36.06 16.74 36.68 36.68l34.68 34.68v-33.48c0-2.46 0.24-4.86 0.68-7.2l-65.1-65.1zM530.2 566.8a37.76 37.76 0 0 1-14.52 2.88h-43.22c-20.9 0-37.92-17-37.92-37.92v-39.54c0-6.12 1.46-11.9 4.06-17.02l-58.82-58.82a37.86 37.86 0 0 1-17.8 4.44h-43.24c-20.9 0-37.9-17-37.9-37.92v-39.54c0-7.38 2.12-14.28 5.8-20.12l-51.28-51.28H156.5c-2.38 0-4.72-0.22-6.98-0.66l34.16 34.16h24.58c20.9 0 37.92 17 37.92 37.9v39.54c0 18.12-12.76 33.3-29.76 37.02l65.1 65.1c3.38-17.46 18.78-30.7 37.22-30.7h43.24c20.9 0 37.9 17 37.9 37.9v39.54c0 19.58-14.88 35.72-33.92 37.7l68.7 68.7c1.5-19.54 17.88-34.98 37.8-34.98h43.22c20.9 0 37.92 17 37.92 37.9v39.56c0 20.9-17.02 37.9-37.92 37.9h-0.64l73.22 73.22V790v-148.92c0-4.82 0.9-9.42 2.56-13.66L530.2 566.8z m-313.78-146.88c-2.62 0.6-5.36 0.9-8.16 0.9H175.96l33.52 33.52c19.94 0.64 36.06 16.74 36.68 36.68l34.68 34.68v-33.48c0-2.46 0.24-4.86 0.68-7.2l-65.1-65.1zM588.26 790v-148.92c0-4.82 0.9-9.42 2.56-13.66L530.2 566.8a37.76 37.76 0 0 1-14.52 2.88h-43.22c-20.9 0-37.92-17-37.92-37.92v-39.54c0-6.12 1.46-11.9 4.06-17.02l-58.82-58.82a37.86 37.86 0 0 1-17.8 4.44h-43.24c-20.9 0-37.9-17-37.9-37.92v-39.54c0-7.38 2.12-14.28 5.8-20.12l-51.28-51.28H156.5c-2.38 0-4.72-0.22-6.98-0.66l34.16 34.16h24.58c20.9 0 37.92 17 37.92 37.9v39.54c0 18.12-12.76 33.3-29.76 37.02l65.1 65.1c3.38-17.46 18.78-30.7 37.22-30.7h43.24c20.9 0 37.9 17 37.9 37.9v39.54c0 19.58-14.88 35.72-33.92 37.7l68.7 68.7c1.5-19.54 17.88-34.98 37.8-34.98h43.22c20.9 0 37.92 17 37.92 37.9v39.56c0 20.9-17.02 37.9-37.92 37.9h-42l33.5 33.5h8.5c20.9 0 37.92 17 37.92 37.92v8.5l34.86 34.86c-0.14-1.26-0.2-2.54-0.2-3.82V790zM216.42 419.92c-2.62 0.6-5.36 0.9-8.16 0.9H175.96l33.52 33.52c19.94 0.64 36.06 16.74 36.68 36.68l34.68 34.68v-33.48c0-2.46 0.24-4.86 0.68-7.2l-65.1-65.1zM588.26 790v-148.92c0-4.82 0.9-9.42 2.56-13.66L530.2 566.8a37.76 37.76 0 0 1-14.52 2.88h-43.22c-20.9 0-37.92-17-37.92-37.92v-39.54c0-6.12 1.46-11.9 4.06-17.02l-58.82-58.82a37.86 37.86 0 0 1-17.8 4.44h-43.24c-20.9 0-37.9-17-37.9-37.92v-39.54c0-7.38 2.12-14.28 5.8-20.12l-51.28-51.28H156.5c-2.38 0-4.72-0.22-6.98-0.66l34.16 34.16h24.58c20.9 0 37.92 17 37.92 37.9v39.54c0 18.12-12.76 33.3-29.76 37.02l65.1 65.1c3.38-17.46 18.78-30.7 37.22-30.7h43.24c20.9 0 37.9 17 37.9 37.9v39.54c0 19.58-14.88 35.72-33.92 37.7l68.7 68.7c1.5-19.54 17.88-34.98 37.8-34.98h43.22c20.9 0 37.92 17 37.92 37.9v39.56c0 20.9-17.02 37.9-37.92 37.9h-42l33.5 33.5h8.5c20.9 0 37.92 17 37.92 37.92v8.5l34.86 34.86c-0.14-1.26-0.2-2.54-0.2-3.82V790zM216.42 419.92c-2.62 0.6-5.36 0.9-8.16 0.9H175.96l33.52 33.52c19.94 0.64 36.06 16.74 36.68 36.68l34.68 34.68v-33.48c0-2.46 0.24-4.86 0.68-7.2l-65.1-65.1zM588.26 790v-148.92c0-4.82 0.9-9.42 2.56-13.66L530.2 566.8a37.76 37.76 0 0 1-14.52 2.88h-43.22c-20.9 0-37.92-17-37.92-37.92v-39.54c0-6.12 1.46-11.9 4.06-17.02l-58.82-58.82a37.86 37.86 0 0 1-17.8 4.44h-43.24c-20.9 0-37.9-17-37.9-37.92v-39.54c0-7.38 2.12-14.28 5.8-20.12l-51.28-51.28H156.5c-2.38 0-4.72-0.22-6.98-0.66l34.16 34.16h24.58c20.9 0 37.92 17 37.92 37.9v39.54c0 18.12-12.76 33.3-29.76 37.02l65.1 65.1c3.38-17.46 18.78-30.7 37.22-30.7h43.24c20.9 0 37.9 17 37.9 37.9v39.54c0 19.58-14.88 35.72-33.92 37.7l68.7 68.7c1.5-19.54 17.88-34.98 37.8-34.98h43.22c20.9 0 37.92 17 37.92 37.9v39.56c0 20.9-17.02 37.9-37.92 37.9h-42l33.5 33.5h8.5c20.9 0 37.92 17 37.92 37.92v8.5l34.86 34.86c-0.14-1.26-0.2-2.54-0.2-3.82V790zM216.42 419.92c-2.62 0.6-5.36 0.9-8.16 0.9H175.96l33.52 33.52c19.94 0.64 36.06 16.74 36.68 36.68l34.68 34.68v-33.48c0-2.46 0.24-4.86 0.68-7.2l-65.1-65.1zM588.26 790v-148.92c0-4.82 0.9-9.42 2.56-13.66L530.2 566.8a37.76 37.76 0 0 1-14.52 2.88h-43.22c-20.9 0-37.92-17-37.92-37.92v-39.54c0-6.12 1.46-11.9 4.06-17.02l-58.82-58.82a37.86 37.86 0 0 1-17.8 4.44h-43.24c-20.9 0-37.9-17-37.9-37.92v-39.54c0-7.38 2.12-14.28 5.8-20.12l-51.28-51.28H156.5c-2.38 0-4.72-0.22-6.98-0.66l34.16 34.16h24.58c20.9 0 37.92 17 37.92 37.9v39.54c0 18.12-12.76 33.3-29.76 37.02l65.1 65.1c3.38-17.46 18.78-30.7 37.22-30.7h43.24c20.9 0 37.9 17 37.9 37.9v39.54c0 19.58-14.88 35.72-33.92 37.7l68.7 68.7c1.5-19.54 17.88-34.98 37.8-34.98h43.22c20.9 0 37.92 17 37.92 37.9v39.56c0 20.9-17.02 37.9-37.92 37.9h-42l33.5 33.5h8.5c20.9 0 37.92 17 37.92 37.92v8.5l34.86 34.86c-0.14-1.26-0.2-2.54-0.2-3.82V790zM216.42 419.92c-2.62 0.6-5.36 0.9-8.16 0.9H175.96l33.52 33.52c19.94 0.64 36.06 16.74 36.68 36.68l34.68 34.68v-33.48c0-2.46 0.24-4.86 0.68-7.2l-65.1-65.1zM588.26 790v-148.92c0-4.82 0.9-9.42 2.56-13.66L530.2 566.8a37.76 37.76 0 0 1-14.52 2.88h-43.22c-20.9 0-37.92-17-37.92-37.92v-39.54c0-6.12 1.46-11.9 4.06-17.02l-58.82-58.82a37.86 37.86 0 0 1-17.8 4.44h-43.24c-20.9 0-37.9-17-37.9-37.92v-39.54c0-7.38 2.12-14.28 5.8-20.12l-51.28-51.28H156.5c-2.38 0-4.72-0.22-6.98-0.66l34.16 34.16h24.58c20.9 0 37.92 17 37.92 37.9v39.54c0 18.12-12.76 33.3-29.76 37.02l65.1 65.1c3.38-17.46 18.78-30.7 37.22-30.7h43.24c20.9 0 37.9 17 37.9 37.9v39.54c0 19.58-14.88 35.72-33.92 37.7l68.7 68.7c1.5-19.54 17.88-34.98 37.8-34.98h43.22c20.9 0 37.92 17 37.92 37.9v39.56c0 20.9-17.02 37.9-37.92 37.9h-42l33.5 33.5h8.5c20.9 0 37.92 17 37.92 37.92v8.5l34.86 34.86c-0.14-1.26-0.2-2.54-0.2-3.82V790zM216.42 419.92c-2.62 0.6-5.36 0.9-8.16 0.9H175.96l33.52 33.52c19.94 0.64 36.06 16.74 36.68 36.68l34.68 34.68v-33.48c0-2.46 0.24-4.86 0.68-7.2l-65.1-65.1zM588.26 790v-148.92c0-4.82 0.9-9.42 2.56-13.66L530.2 566.8a37.76 37.76 0 0 1-14.52 2.88h-43.22c-20.9 0-37.92-17-37.92-37.92v-39.54c0-6.12 1.46-11.9 4.06-17.02l-58.82-58.82a37.86 37.86 0 0 1-17.8 4.44h-43.24c-20.9 0-37.9-17-37.9-37.92v-39.54c0-7.38 2.12-14.28 5.8-20.12l-51.28-51.28H156.5c-2.38 0-4.72-0.22-6.98-0.66l34.16 34.16h24.58c20.9 0 37.92 17 37.92 37.9v39.54c0 18.12-12.76 33.3-29.76 37.02l65.1 65.1c3.38-17.46 18.78-30.7 37.22-30.7h43.24c20.9 0 37.9 17 37.9 37.9v39.54c0 19.58-14.88 35.72-33.92 37.7l68.7 68.7c1.5-19.54 17.88-34.98 37.8-34.98h43.22c20.9 0 37.92 17 37.92 37.9v39.56c0 20.9-17.02 37.9-37.92 37.9h-42l33.5 33.5h8.5c20.9 0 37.92 17 37.92 37.92v8.5l34.86 34.86c-0.14-1.26-0.2-2.54-0.2-3.82V790zM216.42 419.92c-2.62 0.6-5.36 0.9-8.16 0.9H175.96l33.52 33.52c19.94 0.64 36.06 16.74 36.68 36.68l34.68 34.68v-33.48c0-2.46 0.24-4.86 0.68-7.2l-65.1-65.1zM588.26 790v-148.92c0-4.82 0.9-9.42 2.56-13.66L530.2 566.8a37.76 37.76 0 0 1-14.52 2.88h-43.22c-20.9 0-37.92-17-37.92-37.92v-39.54c0-6.12 1.46-11.9 4.06-17.02l-58.82-58.82a37.86 37.86 0 0 1-17.8 4.44h-43.24c-20.9 0-37.9-17-37.9-37.92v-39.54c0-7.38 2.12-14.28 5.8-20.12l-51.28-51.28H156.5c-2.38 0-4.72-0.22-6.98-0.66l34.16 34.16h24.58c20.9 0 37.92 17 37.92 37.9v39.54c0 18.12-12.76 33.3-29.76 37.02l65.1 65.1c3.38-17.46 18.78-30.7 37.22-30.7h43.24c20.9 0 37.9 17 37.9 37.9v39.54c0 19.58-14.88 35.72-33.92 37.7l68.7 68.7c1.5-19.54 17.88-34.98 37.8-34.98h43.22c20.9 0 37.92 17 37.92 37.9v39.56c0 20.9-17.02 37.9-37.92 37.9h-42l33.5 33.5h8.5c20.9 0 37.92 17 37.92 37.92v8.5l34.86 34.86c-0.14-1.26-0.2-2.54-0.2-3.82V790zM216.42 419.92c-2.62 0.6-5.36 0.9-8.16 0.9H175.96l33.52 33.52c19.94 0.64 36.06 16.74 36.68 36.68l34.68 34.68v-33.48c0-2.46 0.24-4.86 0.68-7.2l-65.1-65.1zM741.84 107.98H92.6c-5.4 0-10.28 2.84-13.82 7.4-3.52 4.54-5.7 10.8-5.7 17.68v757.88c0 13.82 8.76 25.08 19.52 25.08h649.24c10.58 0 19.52-11.48 19.52-25.08V133.06c0-13.82-8.76-25.08-19.52-25.08zM118.6 234.04V194.5c0-10.8 4.54-20.56 11.82-27.48 6.78-6.46 15.96-10.44 26.08-10.44h521.42c20.9 0 37.92 17.02 37.92 37.92v39.54c0 20.9-17 37.92-37.92 37.92H156.5c-2.38 0-4.72-0.22-6.98-0.66-15.3-2.84-27.4-14.94-30.26-30.26-0.44-2.26-0.66-4.6-0.66-7z m435 446.6c0 20.9-17.02 37.9-37.92 37.9h-43.22c-20.9 0-37.92-17-37.92-37.9v-39.56c0-0.98 0.04-1.96 0.12-2.92 1.5-19.54 17.88-34.98 37.8-34.98h43.22c20.9 0 37.92 17 37.92 37.9v39.56z m-272.76-188.42c0-2.46 0.24-4.86 0.68-7.2 3.38-17.46 18.78-30.7 37.22-30.7h43.24c20.9 0 37.9 17 37.9 37.9v39.54c0 19.58-14.88 35.72-33.92 37.7-1.32 0.16-2.64 0.22-3.98 0.22h-43.24c-20.9 0-37.9-17-37.9-37.92v-39.54z m0-148.86c0-7.38 2.12-14.28 5.8-20.12 6.72-10.68 18.6-17.78 32.1-17.78h43.24c20.9 0 37.9 17 37.9 37.9v39.54c0 14.48-8.16 27.1-20.1 33.48a37.86 37.86 0 0 1-17.8 4.44h-43.24c-20.9 0-37.9-17-37.9-37.92v-39.54z m0 297.72c0-2.8 0.3-5.54 0.88-8.16 3.76-17 18.92-29.74 37.02-29.74h43.24c20.9 0 37.9 17 37.9 37.9v39.56c0 19.2-14.34 35.1-32.88 37.56-1.64 0.22-3.32 0.34-5.02 0.34h-43.24c-20.9 0-37.9-17-37.9-37.9v-39.56z m272.76-109.32c0 15.78-9.68 29.32-23.4 35.04a37.76 37.76 0 0 1-14.52 2.88h-43.22c-20.9 0-37.92-17-37.92-37.92v-39.54c0-6.12 1.46-11.9 4.06-17.02 6.24-12.38 19.08-20.88 33.86-20.88h43.22c20.9 0 37.92 17 37.92 37.9v39.54z m-37.92-110.94h-43.22c-20.9 0-37.92-17-37.92-37.92v-39.54c0-2.52 0.24-4.98 0.74-7.36 3.42-17.4 18.8-30.54 37.18-30.54h43.22c20.9 0 37.92 17 37.92 37.9v39.54c0 19.5-14.8 35.6-33.74 37.68-1.36 0.16-2.76 0.24-4.18 0.24z m191.64-77.46v39.54c0 20.92-17.02 37.92-37.92 37.92h-43.22c-20.92 0-37.92-17-37.92-37.92v-39.54c0-20.9 17-37.9 37.92-37.9h43.22c20.9 0 37.92 17 37.92 37.9z m-580.2 0c0-3.84 0.58-7.56 1.66-11.08 4.74-15.52 19.2-26.82 36.26-26.82h43.22c20.9 0 37.92 17 37.92 37.9v39.54c0 18.12-12.76 33.3-29.76 37.02-2.62 0.6-5.36 0.9-8.16 0.9H165.04c-20.92 0-37.92-17-37.92-37.92v-39.54z m37.92 110.96h43.22c0.42 0 0.82 0 1.22 0.02 19.94 0.64 36.06 16.74 36.68 36.68 0.02 0.4 0.02 0.8 0.02 1.2v39.54c0 17.78-12.3 32.72-28.82 36.8-2.9 0.74-5.96 1.12-9.1 1.12H165.04c-20.92 0-37.92-17-37.92-37.92v-39.54c0-4.18 0.68-8.2 1.94-11.96 5.02-15.06 19.24-25.94 35.98-25.94z m81.14 375.18c0 20.9-17.02 37.9-37.92 37.9H165.04c-20.92 0-37.92-17-37.92-37.9v-39.54c0-20.92 17-37.92 37.92-37.92h43.22c20.9 0 37.92 17 37.92 37.92v39.54z m0-148.86c0 20.9-17.02 37.9-37.92 37.9H165.04c-20.92 0-37.92-17-37.92-37.9v-39.56c0-20.9 17-37.9 37.92-37.9h43.22c20.9 0 37.92 17 37.92 37.9v39.56z m153.7 148.86c0 20.9-17 37.9-37.9 37.9h-43.24c-20.9 0-37.9-17-37.9-37.9v-39.54c0-20.92 17-37.92 37.9-37.92h43.24c20.9 0 37.9 17 37.9 37.92v39.54z m115.8 37.9h-43.22c-20.9 0-37.92-17-37.92-37.9v-39.54c0-1.34 0.08-2.68 0.22-4 2-19.04 18.14-33.92 37.7-33.92h43.22c20.9 0 37.92 17 37.92 37.92v39.54c0 20.74-16.74 37.62-37.42 37.88-0.16 0.02-0.34 0.02-0.5 0.02z m191.64-37.9c0 20.9-17.02 37.9-37.92 37.9h-43.22c-1.3 0-2.58-0.06-3.84-0.2-17.86-1.8-32.1-16.04-33.88-33.88-0.14-1.26-0.2-2.54-0.2-3.82V790v-148.92c0-4.82 0.9-9.42 2.56-13.66 5.48-14.18 19.26-24.24 35.36-24.24h43.22c20.9 0 37.9 17 37.9 37.9v39.52s0.02 0.02 0.02 0.04v148.86z m-81.14-259.82c-20.92 0-37.92-17-37.92-37.92v-39.54c0-1.04 0.04-2.08 0.14-3.1 1.56-19.46 17.9-34.8 37.78-34.8h43.22c20.9 0 37.92 17 37.92 37.9v39.54c0 20.92-17.02 37.92-37.92 37.92h-43.22z m-409.76-149.76c-2.62 0.6-5.36 0.9-8.16 0.9H175.96l33.52 33.52c19.94 0.64 36.06 16.74 36.68 36.68l34.68 34.68v-33.48c0-2.46 0.24-4.86 0.68-7.2l-65.1-65.1zM588.26 790v-148.92c0-4.82 0.9-9.42 2.56-13.66L530.2 566.8a37.76 37.76 0 0 1-14.52 2.88h-43.22c-20.9 0-37.92-17-37.92-37.92v-39.54c0-6.12 1.46-11.9 4.06-17.02l-58.82-58.82a37.86 37.86 0 0 1-17.8 4.44h-43.24c-20.9 0-37.9-17-37.9-37.92v-39.54c0-7.38 2.12-14.28 5.8-20.12l-51.28-51.28H156.5c-2.38 0-4.72-0.22-6.98-0.66l34.16 34.16h24.58c20.9 0 37.92 17 37.92 37.9v39.54c0 18.12-12.76 33.3-29.76 37.02l65.1 65.1c3.38-17.46 18.78-30.7 37.22-30.7h43.24c20.9 0 37.9 17 37.9 37.9v39.54c0 19.58-14.88 35.72-33.92 37.7l68.7 68.7c1.5-19.54 17.88-34.98 37.8-34.98h43.22c20.9 0 37.92 17 37.92 37.9v39.56c0 20.9-17.02 37.9-37.92 37.9h-42l33.5 33.5h8.5c20.9 0 37.92 17 37.92 37.92v8.5l34.86 34.86c-0.14-1.26-0.2-2.54-0.2-3.82V790zM216.42 419.92c-2.62 0.6-5.36 0.9-8.16 0.9H175.96l33.52 33.52c19.94 0.64 36.06 16.74 36.68 36.68l34.68 34.68v-33.48c0-2.46 0.24-4.86 0.68-7.2l-65.1-65.1zM588.26 790v-148.92c0-4.82 0.9-9.42 2.56-13.66L530.2 566.8a37.76 37.76 0 0 1-14.52 2.88h-43.22c-20.9 0-37.92-17-37.92-37.92v-39.54c0-6.12 1.46-11.9 4.06-17.02l-58.82-58.82a37.86 37.86 0 0 1-17.8 4.44h-43.24c-20.9 0-37.9-17-37.9-37.92v-39.54c0-7.38 2.12-14.28 5.8-20.12l-51.28-51.28H156.5c-2.38 0-4.72-0.22-6.98-0.66l34.16 34.16h24.58c20.9 0 37.92 17 37.92 37.9v39.54c0 18.12-12.76 33.3-29.76 37.02l65.1 65.1c3.38-17.46 18.78-30.7 37.22-30.7h43.24c20.9 0 37.9 17 37.9 37.9v39.54c0 19.58-14.88 35.72-33.92 37.7l68.7 68.7c1.5-19.54 17.88-34.98 37.8-34.98h43.22c20.9 0 37.92 17 37.92 37.9v39.56c0 20.9-17.02 37.9-37.92 37.9h-42l33.5 33.5h8.5c20.9 0 37.92 17 37.92 37.92v8.5l34.86 34.86c-0.14-1.26-0.2-2.54-0.2-3.82V790zM216.42 419.92c-2.62 0.6-5.36 0.9-8.16 0.9H175.96l33.52 33.52c19.94 0.64 36.06 16.74 36.68 36.68l34.68 34.68v-33.48c0-2.46 0.24-4.86 0.68-7.2l-65.1-65.1zM588.26 790v-148.92c0-4.82 0.9-9.42 2.56-13.66L530.2 566.8a37.76 37.76 0 0 1-14.52 2.88h-43.22c-20.9 0-37.92-17-37.92-37.92v-39.54c0-6.12 1.46-11.9 4.06-17.02l-58.82-58.82a37.86 37.86 0 0 1-17.8 4.44h-43.24c-20.9 0-37.9-17-37.9-37.92v-39.54c0-7.38 2.12-14.28 5.8-20.12l-51.28-51.28H156.5c-2.38 0-4.72-0.22-6.98-0.66l34.16 34.16h24.58c20.9 0 37.92 17 37.92 37.9v39.54c0 18.12-12.76 33.3-29.76 37.02l65.1 65.1c3.38-17.46 18.78-30.7 37.22-30.7h43.24c20.9 0 37.9 17 37.9 37.9v39.54c0 19.58-14.88 35.72-33.92 37.7l68.7 68.7c1.5-19.54 17.88-34.98 37.8-34.98h43.22c20.9 0 37.92 17 37.92 37.9v39.56c0 20.9-17.02 37.9-37.92 37.9h-42l33.5 33.5h8.5c20.9 0 37.92 17 37.92 37.92v8.5l34.86 34.86c-0.14-1.26-0.2-2.54-0.2-3.82V790zM216.42 419.92c-2.62 0.6-5.36 0.9-8.16 0.9H175.96l33.52 33.52c19.94 0.64 36.06 16.74 36.68 36.68l34.68 34.68v-33.48c0-2.46 0.24-4.86 0.68-7.2l-65.1-65.1zM588.26 790v-148.92c0-4.82 0.9-9.42 2.56-13.66L530.2 566.8a37.76 37.76 0 0 1-14.52 2.88h-43.22c-20.9 0-37.92-17-37.92-37.92v-39.54c0-6.12 1.46-11.9 4.06-17.02l-58.82-58.82a37.86 37.86 0 0 1-17.8 4.44h-43.24c-20.9 0-37.9-17-37.9-37.92v-39.54c0-7.38 2.12-14.28 5.8-20.12l-51.28-51.28H156.5c-2.38 0-4.72-0.22-6.98-0.66l34.16 34.16h24.58c20.9 0 37.92 17 37.92 37.9v39.54c0 18.12-12.76 33.3-29.76 37.02l65.1 65.1c3.38-17.46 18.78-30.7 37.22-30.7h43.24c20.9 0 37.9 17 37.9 37.9v39.54c0 19.58-14.88 35.72-33.92 37.7l68.7 68.7c1.5-19.54 17.88-34.98 37.8-34.98h43.22c20.9 0 37.92 17 37.92 37.9v39.56c0 20.9-17.02 37.9-37.92 37.9h-42l33.5 33.5h8.5c20.9 0 37.92 17 37.92 37.92v8.5l34.86 34.86c-0.14-1.26-0.2-2.54-0.2-3.82V790zM216.42 419.92c-2.62 0.6-5.36 0.9-8.16 0.9H175.96l33.52 33.52c19.94 0.64 36.06 16.74 36.68 36.68l34.68 34.68v-33.48c0-2.46 0.24-4.86 0.68-7.2l-65.1-65.1zM588.26 790v-148.92c0-4.82 0.9-9.42 2.56-13.66L530.2 566.8a37.76 37.76 0 0 1-14.52 2.88h-43.22c-20.9 0-37.92-17-37.92-37.92v-39.54c0-6.12 1.46-11.9 4.06-17.02l-58.82-58.82a37.86 37.86 0 0 1-17.8 4.44h-43.24c-20.9 0-37.9-17-37.9-37.92v-39.54c0-7.38 2.12-14.28 5.8-20.12l-51.28-51.28H156.5c-2.38 0-4.72-0.22-6.98-0.66l34.16 34.16h24.58c20.9 0 37.92 17 37.92 37.9v39.54c0 18.12-12.76 33.3-29.76 37.02l65.1 65.1c3.38-17.46 18.78-30.7 37.22-30.7h43.24c20.9 0 37.9 17 37.9 37.9v39.54c0 19.58-14.88 35.72-33.92 37.7l68.7 68.7c1.5-19.54 17.88-34.98 37.8-34.98h43.22c20.9 0 37.92 17 37.92 37.9v39.56c0 20.9-17.02 37.9-37.92 37.9h-42l33.5 33.5h8.5c20.9 0 37.92 17 37.92 37.92v8.5l34.86 34.86c-0.14-1.26-0.2-2.54-0.2-3.82V790zM216.42 419.92c-2.62 0.6-5.36 0.9-8.16 0.9H175.96l33.52 33.52c19.94 0.64 36.06 16.74 36.68 36.68l34.68 34.68v-33.48c0-2.46 0.24-4.86 0.68-7.2l-65.1-65.1zM588.26 790v-148.92c0-4.82 0.9-9.42 2.56-13.66L530.2 566.8a37.76 37.76 0 0 1-14.52 2.88h-43.22c-20.9 0-37.92-17-37.92-37.92v-39.54c0-6.12 1.46-11.9 4.06-17.02l-58.82-58.82a37.86 37.86 0 0 1-17.8 4.44h-43.24c-20.9 0-37.9-17-37.9-37.92v-39.54c0-7.38 2.12-14.28 5.8-20.12l-51.28-51.28H156.5c-2.38 0-4.72-0.22-6.98-0.66l34.16 34.16h24.58c20.9 0 37.92 17 37.92 37.9v39.54c0 18.12-12.76 33.3-29.76 37.02l65.1 65.1c3.38-17.46 18.78-30.7 37.22-30.7h43.24c20.9 0 37.9 17 37.9 37.9v39.54c0 19.58-14.88 35.72-33.92 37.7l68.7 68.7c1.5-19.54 17.88-34.98 37.8-34.98h43.22c20.9 0 37.92 17 37.92 37.9v39.56c0 20.9-17.02 37.9-37.92 37.9h-42l33.5 33.5h8.5c20.9 0 37.92 17 37.92 37.92v8.5l34.86 34.86c-0.14-1.26-0.2-2.54-0.2-3.82V790zM216.42 419.92c-2.62 0.6-5.36 0.9-8.16 0.9H175.96l33.52 33.52c19.94 0.64 36.06 16.74 36.68 36.68l34.68 34.68v-33.48c0-2.46 0.24-4.86 0.68-7.2l-65.1-65.1zM588.26 790v-148.92c0-4.82 0.9-9.42 2.56-13.66L530.2 566.8a37.76 37.76 0 0 1-14.52 2.88h-43.22c-20.9 0-37.92-17-37.92-37.92v-39.54c0-6.12 1.46-11.9 4.06-17.02l-58.82-58.82a37.86 37.86 0 0 1-17.8 4.44h-43.24c-20.9 0-37.9-17-37.9-37.92v-39.54c0-7.38 2.12-14.28 5.8-20.12l-51.28-51.28H156.5c-2.38 0-4.72-0.22-6.98-0.66l34.16 34.16h24.58c20.9 0 37.92 17 37.92 37.9v39.54c0 18.12-12.76 33.3-29.76 37.02l65.1 65.1c3.38-17.46 18.78-30.7 37.22-30.7h43.24c20.9 0 37.9 17 37.9 37.9v39.54c0 19.58-14.88 35.72-33.92 37.7l68.7 68.7c1.5-19.54 17.88-34.98 37.8-34.98h43.22c20.9 0 37.92 17 37.92 37.9v39.56c0 20.9-17.02 37.9-37.92 37.9h-42l33.5 33.5h8.5c20.9 0 37.92 17 37.92 37.92v8.5l34.86 34.86c-0.14-1.26-0.2-2.54-0.2-3.82V790zM216.42 419.92c-2.62 0.6-5.36 0.9-8.16 0.9H175.96l33.52 33.52c19.94 0.64 36.06 16.74 36.68 36.68l34.68 34.68v-33.48c0-2.46 0.24-4.86 0.68-7.2l-65.1-65.1z" fill="#E1E1E5" p-id="61649"></path><path d="M208.26 454.32H165.04c-20.92 0-37.92 17-37.92 37.9v39.54c0 20.92 17 37.92 37.92 37.92h43.22c20.9 0 37.92-17 37.92-37.92v-39.54c0-20.9-17.02-37.9-37.92-37.9z m17.92 77.44c0 9.88-8.04 17.92-17.92 17.92H165.04c-9.88 0-17.92-8.04-17.92-17.92v-39.54c0-9.86 8.04-17.9 17.92-17.9h43.22c9.88 0 17.92 8.04 17.92 17.9v39.54z" fill="#23130D" p-id="61650"></path><path d="M226.18 492.22v39.54c0 9.88-8.04 17.92-17.92 17.92H165.04c-9.88 0-17.92-8.04-17.92-17.92v-39.54c0-9.86 8.04-17.9 17.92-17.9h43.22c9.88 0 17.92 8.04 17.92 17.9z" fill="#636368" p-id="61651"></path><path d="M208.26 603.18H165.04c-20.92 0-37.92 17-37.92 37.9v39.56c0 20.9 17 37.9 37.92 37.9h43.22c20.9 0 37.92-17 37.92-37.9v-39.56c0-20.9-17.02-37.9-37.92-37.9z m17.92 77.46c0 9.86-8.04 17.9-17.92 17.9H165.04c-9.88 0-17.92-8.04-17.92-17.9v-39.56c0-9.86 8.04-17.9 17.92-17.9h43.22c9.88 0 17.92 8.04 17.92 17.9v39.56z" fill="#23130D" p-id="61652"></path><path d="M226.18 641.08v39.56c0 9.86-8.04 17.9-17.92 17.9H165.04c-9.88 0-17.92-8.04-17.92-17.9v-39.56c0-9.86 8.04-17.9 17.92-17.9h43.22c9.88 0 17.92 8.04 17.92 17.9z" fill="#636368" p-id="61653"></path><path d="M208.26 752.04H165.04c-20.92 0-37.92 17-37.92 37.92v39.54c0 20.9 17 37.9 37.92 37.9h43.22c20.9 0 37.92-17 37.92-37.9v-39.54c0-20.92-17.02-37.92-37.92-37.92z m17.92 77.46c0 9.88-8.04 17.9-17.92 17.9H165.04c-9.88 0-17.92-8.02-17.92-17.9v-39.54c0-9.88 8.04-17.92 17.92-17.92h43.22c9.88 0 17.92 8.04 17.92 17.92v39.54z" fill="#23130D" p-id="61654"></path><path d="M226.18 789.96v39.54c0 9.88-8.04 17.9-17.92 17.9H165.04c-9.88 0-17.92-8.02-17.92-17.9v-39.54c0-9.88 8.04-17.92 17.92-17.92h43.22c9.88 0 17.92 8.04 17.92 17.92z" fill="#636368" p-id="61655"></path><path d="M361.98 454.32h-43.24c-20.9 0-37.9 17-37.9 37.9v39.54c0 20.92 17 37.92 37.9 37.92h43.24c20.9 0 37.9-17 37.9-37.92v-39.54c0-20.9-17-37.9-37.9-37.9z m17.9 77.44c0 9.88-8.02 17.92-17.9 17.92h-43.24c-9.86 0-17.9-8.04-17.9-17.92v-39.54c0-9.86 8.04-17.9 17.9-17.9h43.24c9.88 0 17.9 8.04 17.9 17.9v39.54z" fill="#23130D" p-id="61656"></path><path d="M379.88 492.22v39.54c0 9.88-8.02 17.92-17.9 17.92h-43.24c-9.86 0-17.9-8.04-17.9-17.92v-39.54c0-9.86 8.04-17.9 17.9-17.9h43.24c9.88 0 17.9 8.04 17.9 17.9z" fill="#636368" p-id="61657"></path><path d="M361.98 603.18h-43.24c-20.9 0-37.9 17-37.9 37.9v39.56c0 20.9 17 37.9 37.9 37.9h43.24c20.9 0 37.9-17 37.9-37.9v-39.56c0-20.9-17-37.9-37.9-37.9z m17.9 77.46c0 9.86-8.02 17.9-17.9 17.9h-43.24c-9.86 0-17.9-8.04-17.9-17.9v-39.56c0-9.86 8.04-17.9 17.9-17.9h43.24c9.88 0 17.9 8.04 17.9 17.9v39.56z" fill="#23130D" p-id="61658"></path><path d="M379.88 641.08v39.56c0 9.86-8.02 17.9-17.9 17.9h-43.24c-9.86 0-17.9-8.04-17.9-17.9v-39.56c0-9.86 8.04-17.9 17.9-17.9h43.24c9.88 0 17.9 8.04 17.9 17.9z" fill="#636368" p-id="61659"></path><path d="M361.98 752.04h-43.24c-20.9 0-37.9 17-37.9 37.92v39.54c0 20.9 17 37.9 37.9 37.9h43.24c20.9 0 37.9-17 37.9-37.9v-39.54c0-20.92-17-37.92-37.9-37.92z m17.9 77.46c0 9.88-8.02 17.9-17.9 17.9h-43.24c-9.86 0-17.9-8.02-17.9-17.9v-39.54c0-9.88 8.04-17.92 17.9-17.92h43.24c9.88 0 17.9 8.04 17.9 17.92v39.54z" fill="#23130D" p-id="61660"></path><path d="M379.88 789.96v39.54c0 9.88-8.02 17.9-17.9 17.9h-43.24c-9.86 0-17.9-8.02-17.9-17.9v-39.54c0-9.88 8.04-17.92 17.9-17.92h43.24c9.88 0 17.9 8.04 17.9 17.92z" fill="#636368" p-id="61661"></path><path d="M515.68 454.32h-43.22c-20.9 0-37.92 17-37.92 37.9v39.54c0 20.92 17.02 37.92 37.92 37.92h43.22c20.9 0 37.92-17 37.92-37.92v-39.54c0-20.9-17.02-37.9-37.92-37.9z m17.92 77.44c0 9.88-8.04 17.92-17.92 17.92h-43.22c-9.88 0-17.92-8.04-17.92-17.92v-39.54c0-9.86 8.04-17.9 17.92-17.9h43.22c9.88 0 17.92 8.04 17.92 17.9v39.54z" fill="#23130D" p-id="61662"></path><path d="M533.6 492.22v39.54c0 9.88-8.04 17.92-17.92 17.92h-43.22c-9.88 0-17.92-8.04-17.92-17.92v-39.54c0-9.86 8.04-17.9 17.92-17.9h43.22c9.88 0 17.92 8.04 17.92 17.9z" fill="#636368" p-id="61663"></path><path d="M515.68 603.18h-43.22c-20.9 0-37.92 17-37.92 37.9v39.56c0 20.9 17.02 37.9 37.92 37.9h43.22c20.9 0 37.92-17 37.92-37.9v-39.56c0-20.9-17.02-37.9-37.92-37.9z m17.92 77.46c0 9.86-8.04 17.9-17.92 17.9h-43.22c-9.88 0-17.92-8.04-17.92-17.9v-39.56c0-9.86 8.04-17.9 17.92-17.9h43.22c9.88 0 17.92 8.04 17.92 17.9v39.56z" fill="#23130D" p-id="61664"></path><path d="M533.6 641.08v39.56c0 9.86-8.04 17.9-17.92 17.9h-43.22c-9.88 0-17.92-8.04-17.92-17.9v-39.56c0-9.86 8.04-17.9 17.92-17.9h43.22c9.88 0 17.92 8.04 17.92 17.9z" fill="#636368" p-id="61665"></path><path d="M515.68 752.04h-43.22c-20.9 0-37.92 17-37.92 37.92v39.54c0 20.9 17.02 37.9 37.92 37.9h43.22c20.9 0 37.92-17 37.92-37.9v-39.54c0-20.92-17.02-37.92-37.92-37.92z m17.92 77.46c0 9.88-8.04 17.9-17.92 17.9h-43.22c-9.88 0-17.92-8.02-17.92-17.9v-39.54c0-9.88 8.04-17.92 17.92-17.92h43.22c9.88 0 17.92 8.04 17.92 17.92v39.54z" fill="#23130D" p-id="61666"></path><path d="M533.6 789.96v39.54c0 9.88-8.04 17.9-17.92 17.9h-43.22c-9.88 0-17.92-8.02-17.92-17.9v-39.54c0-9.88 8.04-17.92 17.92-17.92h43.22c9.88 0 17.92 8.04 17.92 17.92z" fill="#636368" p-id="61667"></path><path d="M669.4 454.32h-43.22c-20.92 0-37.92 17-37.92 37.9v39.54c0 20.92 17 37.92 37.92 37.92h43.22c20.9 0 37.92-17 37.92-37.92v-39.54c0-20.9-17.02-37.9-37.92-37.9z m17.92 77.44c0 9.88-8.04 17.92-17.92 17.92h-43.22c-9.88 0-17.92-8.04-17.92-17.92v-39.54c0-9.86 8.04-17.9 17.92-17.9h43.22c9.88 0 17.92 8.04 17.92 17.9v39.54z" fill="#23130D" p-id="61668"></path><path d="M687.32 492.22v39.54c0 9.88-8.04 17.92-17.92 17.92h-43.22c-9.88 0-17.92-8.04-17.92-17.92v-39.54c0-9.86 8.04-17.9 17.92-17.9h43.22c9.88 0 17.92 8.04 17.92 17.9z" fill="#EC7063" p-id="61669"></path><path d="M677.92 156.58H156.5c-20.9 0-37.9 17.02-37.9 37.92v39.54c0 20.9 17 37.92 37.9 37.92h521.42c20.92 0 37.92-17.02 37.92-37.92V194.5c0-20.9-17.02-37.92-37.92-37.92z m17.92 77.78c-0.18 9.74-8.14 17.6-17.92 17.6H156.5c-9.86 0-17.9-8.04-17.9-17.92V194.5c0-9.88 8.04-17.92 17.9-17.92h521.42c9.88 0 17.92 8.04 17.92 17.92v39.86z" fill="#23130D" p-id="61670"></path><path d="M695.84 194.5v39.86c-0.18 9.74-8.14 17.6-17.92 17.6H156.5c-9.86 0-17.9-8.04-17.9-17.92V194.5c0-9.88 8.04-17.92 17.9-17.92h521.42c9.88 0 17.92 8.04 17.92 17.92z" fill="#636368" p-id="61671"></path><path d="M208.26 305.46H165.04c-20.92 0-37.92 17-37.92 37.9v39.54c0 20.92 17 37.92 37.92 37.92h43.22c20.9 0 37.92-17 37.92-37.92v-39.54c0-20.9-17.02-37.9-37.92-37.9z m17.92 77.44c0 9.88-8.04 17.92-17.92 17.92H165.04c-9.88 0-17.92-8.04-17.92-17.92v-39.54c0-9.86 8.04-17.9 17.92-17.9h43.22c9.88 0 17.92 8.04 17.92 17.9v39.54z" fill="#23130D" p-id="61672"></path><path d="M226.18 343.36v39.54c0 9.88-8.04 17.92-17.92 17.92H165.04c-9.88 0-17.92-8.04-17.92-17.92v-39.54c0-9.86 8.04-17.9 17.92-17.9h43.22c9.88 0 17.92 8.04 17.92 17.9z" fill="#F9C139" p-id="61673"></path><path d="M361.98 305.46h-43.24c-20.9 0-37.9 17-37.9 37.9v39.54c0 20.92 17 37.92 37.9 37.92h43.24c20.9 0 37.9-17 37.9-37.92v-39.54c0-20.9-17-37.9-37.9-37.9z m17.9 77.44c0 9.88-8.02 17.92-17.9 17.92h-43.24c-9.86 0-17.9-8.04-17.9-17.92v-39.54c0-9.86 8.04-17.9 17.9-17.9h43.24c9.88 0 17.9 8.04 17.9 17.9v39.54z" fill="#23130D" p-id="61674"></path><path d="M379.88 343.36v39.54c0 9.88-8.02 17.92-17.9 17.92h-43.24c-9.86 0-17.9-8.04-17.9-17.92v-39.54c0-9.86 8.04-17.9 17.9-17.9h43.24c9.88 0 17.9 8.04 17.9 17.9z" fill="#F9C139" p-id="61675"></path><path d="M515.68 305.46h-43.22c-20.9 0-37.92 17-37.92 37.9v39.54c0 20.92 17.02 37.92 37.92 37.92h43.22c20.9 0 37.92-17 37.92-37.92v-39.54c0-20.9-17.02-37.9-37.92-37.9z m17.92 77.44c0 9.88-8.04 17.92-17.92 17.92h-43.22c-9.88 0-17.92-8.04-17.92-17.92v-39.54c0-9.86 8.04-17.9 17.92-17.9h43.22c9.88 0 17.92 8.04 17.92 17.9v39.54z" fill="#23130D" p-id="61676"></path><path d="M533.6 343.36v39.54c0 9.88-8.04 17.92-17.92 17.92h-43.22c-9.88 0-17.92-8.04-17.92-17.92v-39.54c0-9.86 8.04-17.9 17.92-17.9h43.22c9.88 0 17.92 8.04 17.92 17.9z" fill="#F9C139" p-id="61677"></path><path d="M669.4 305.46h-43.22c-20.92 0-37.92 17-37.92 37.9v39.54c0 20.92 17 37.92 37.92 37.92h43.22c20.9 0 37.92-17 37.92-37.92v-39.54c0-20.9-17.02-37.9-37.92-37.9z m17.92 77.44c0 9.88-8.04 17.92-17.92 17.92h-43.22c-9.88 0-17.92-8.04-17.92-17.92v-39.54c0-9.86 8.04-17.9 17.92-17.9h43.22c9.88 0 17.92 8.04 17.92 17.9v39.54z" fill="#23130D" p-id="61678"></path><path d="M687.32 343.36v39.54c0 9.88-8.04 17.92-17.92 17.92h-43.22c-9.88 0-17.92-8.04-17.92-17.92v-39.54c0-9.86 8.04-17.9 17.92-17.9h43.22c9.88 0 17.92 8.04 17.92 17.9z" fill="#EC7063" p-id="61679"></path><path d="M707.3 680.6v-39.52c0-20.9-17-37.9-37.9-37.9h-43.22c-20.92 0-37.92 17-37.92 37.9v188.42c0 20.9 17 37.9 37.92 37.9h43.22c20.9 0 37.92-17 37.92-37.9v-148.86c0-0.02-0.02-0.04-0.02-0.04z m-19.98 148.9c0 9.88-8.04 17.9-17.92 17.9h-43.22c-9.88 0-17.92-8.02-17.92-17.9v-39.54-148.88c0-9.86 8.04-17.9 17.92-17.9h43.22c9.88 0 17.9 8.04 17.9 17.9v39.56s0.02 0.02 0.02 0.04v148.82z" fill="#23130D" p-id="61680"></path><path d="M687.32 680.68v148.82c0 9.88-8.04 17.9-17.92 17.9h-43.22c-9.88 0-17.92-8.02-17.92-17.9v-39.54-148.88c0-9.86 8.04-17.9 17.92-17.9h43.22c9.88 0 17.9 8.04 17.9 17.9v39.56s0.02 0.02 0.02 0.04z" fill="#72AF5F" p-id="61681"></path><path d="M208.26 482.32c5.47 0 9.92 4.442 9.92 9.9v39.54a9.932 9.932 0 0 1-9.92 9.92H165.04a9.932 9.932 0 0 1-9.92-9.92v-39.54c0-5.458 4.45-9.9 9.92-9.9h43.22m0-8H165.04c-9.88 0-17.92 8.04-17.92 17.9v39.54c0 9.88 8.04 17.92 17.92 17.92h43.22c9.88 0 17.92-8.04 17.92-17.92v-39.54c0-9.86-8.04-17.9-17.92-17.9zM208.26 631.18c5.47 0 9.92 4.442 9.92 9.9v39.56c0 5.458-4.45 9.9-9.92 9.9H165.04c-5.47 0-9.92-4.442-9.92-9.9v-39.56c0-5.458 4.45-9.9 9.92-9.9h43.22m0-8H165.04c-9.88 0-17.92 8.04-17.92 17.9v39.56c0 9.86 8.04 17.9 17.92 17.9h43.22c9.88 0 17.92-8.04 17.92-17.9v-39.56c0-9.86-8.04-17.9-17.92-17.9zM208.26 780.04a9.932 9.932 0 0 1 9.92 9.92v39.54c0 5.458-4.45 9.9-9.92 9.9H165.04c-5.47 0-9.92-4.442-9.92-9.9v-39.54a9.932 9.932 0 0 1 9.92-9.92h43.22m0-8H165.04c-9.88 0-17.92 8.04-17.92 17.92v39.54c0 9.88 8.04 17.9 17.92 17.9h43.22c9.88 0 17.92-8.02 17.92-17.9v-39.54c0-9.88-8.04-17.92-17.92-17.92zM361.98 482.32a9.912 9.912 0 0 1 9.9 9.9v39.54c0 5.47-4.442 9.92-9.9 9.92h-43.24c-5.458 0-9.9-4.45-9.9-9.92v-39.54a9.912 9.912 0 0 1 9.9-9.9h43.24m0-8h-43.24c-9.86 0-17.9 8.04-17.9 17.9v39.54c0 9.88 8.04 17.92 17.9 17.92h43.24c9.88 0 17.9-8.04 17.9-17.92v-39.54c0-9.86-8.02-17.9-17.9-17.9zM361.98 631.18a9.912 9.912 0 0 1 9.9 9.9v39.56a9.912 9.912 0 0 1-9.9 9.9h-43.24a9.912 9.912 0 0 1-9.9-9.9v-39.56a9.912 9.912 0 0 1 9.9-9.9h43.24m0-8h-43.24c-9.86 0-17.9 8.04-17.9 17.9v39.56c0 9.86 8.04 17.9 17.9 17.9h43.24c9.88 0 17.9-8.04 17.9-17.9v-39.56c0-9.86-8.02-17.9-17.9-17.9zM361.98 780.04c5.458 0 9.9 4.45 9.9 9.92v39.54a9.912 9.912 0 0 1-9.9 9.9h-43.24a9.912 9.912 0 0 1-9.9-9.9v-39.54c0-5.47 4.442-9.92 9.9-9.92h43.24m0-8h-43.24c-9.86 0-17.9 8.04-17.9 17.92v39.54c0 9.88 8.04 17.9 17.9 17.9h43.24c9.88 0 17.9-8.02 17.9-17.9v-39.54c0-9.88-8.02-17.92-17.9-17.92zM515.68 482.32c5.47 0 9.92 4.442 9.92 9.9v39.54a9.932 9.932 0 0 1-9.92 9.92h-43.22a9.932 9.932 0 0 1-9.92-9.92v-39.54c0-5.458 4.45-9.9 9.92-9.9h43.22m0-8h-43.22c-9.88 0-17.92 8.04-17.92 17.9v39.54c0 9.88 8.04 17.92 17.92 17.92h43.22c9.88 0 17.92-8.04 17.92-17.92v-39.54c0-9.86-8.04-17.9-17.92-17.9zM515.68 631.18c5.47 0 9.92 4.442 9.92 9.9v39.56c0 5.458-4.45 9.9-9.92 9.9h-43.22c-5.47 0-9.92-4.442-9.92-9.9v-39.56c0-5.458 4.45-9.9 9.92-9.9h43.22m0-8h-43.22c-9.88 0-17.92 8.04-17.92 17.9v39.56c0 9.86 8.04 17.9 17.92 17.9h43.22c9.88 0 17.92-8.04 17.92-17.9v-39.56c0-9.86-8.04-17.9-17.92-17.9zM515.68 780.04a9.932 9.932 0 0 1 9.92 9.92v39.54c0 5.458-4.45 9.9-9.92 9.9h-43.22c-5.47 0-9.92-4.442-9.92-9.9v-39.54a9.932 9.932 0 0 1 9.92-9.92h43.22m0-8h-43.22c-9.88 0-17.92 8.04-17.92 17.92v39.54c0 9.88 8.04 17.9 17.92 17.9h43.22c9.88 0 17.92-8.02 17.92-17.9v-39.54c0-9.88-8.04-17.92-17.92-17.92zM669.4 482.32c5.47 0 9.92 4.442 9.92 9.9v39.54a9.932 9.932 0 0 1-9.92 9.92h-43.22a9.932 9.932 0 0 1-9.92-9.92v-39.54c0-5.458 4.45-9.9 9.92-9.9h43.22m0-8h-43.22c-9.88 0-17.92 8.04-17.92 17.9v39.54c0 9.88 8.04 17.92 17.92 17.92h43.22c9.88 0 17.92-8.04 17.92-17.92v-39.54c0-9.86-8.04-17.9-17.92-17.9zM677.92 184.58a9.932 9.932 0 0 1 9.92 9.92v39.776c-0.132 5.346-4.57 9.684-9.92 9.684H156.5c-5.458 0-9.9-4.45-9.9-9.92V194.5c0-5.47 4.442-9.92 9.9-9.92h521.42m0-8H156.5c-9.86 0-17.9 8.04-17.9 17.92v39.54c0 9.88 8.04 17.92 17.9 17.92h521.42c9.78 0 17.74-7.86 17.92-17.6V194.5c0-9.88-8.04-17.92-17.92-17.92zM208.26 333.46c5.47 0 9.92 4.442 9.92 9.9v39.54a9.932 9.932 0 0 1-9.92 9.92H165.04a9.932 9.932 0 0 1-9.92-9.92v-39.54c0-5.458 4.45-9.9 9.92-9.9h43.22m0-8H165.04c-9.88 0-17.92 8.04-17.92 17.9v39.54c0 9.88 8.04 17.92 17.92 17.92h43.22c9.88 0 17.92-8.04 17.92-17.92v-39.54c0-9.86-8.04-17.9-17.92-17.9zM361.98 333.46a9.912 9.912 0 0 1 9.9 9.9v39.54c0 5.47-4.442 9.92-9.9 9.92h-43.24c-5.458 0-9.9-4.45-9.9-9.92v-39.54a9.912 9.912 0 0 1 9.9-9.9h43.24m0-8h-43.24c-9.86 0-17.9 8.04-17.9 17.9v39.54c0 9.88 8.04 17.92 17.9 17.92h43.24c9.88 0 17.9-8.04 17.9-17.92v-39.54c0-9.86-8.02-17.9-17.9-17.9zM515.68 333.46c5.47 0 9.92 4.442 9.92 9.9v39.54a9.932 9.932 0 0 1-9.92 9.92h-43.22a9.932 9.932 0 0 1-9.92-9.92v-39.54c0-5.458 4.45-9.9 9.92-9.9h43.22m0-8h-43.22c-9.88 0-17.92 8.04-17.92 17.9v39.54c0 9.88 8.04 17.92 17.92 17.92h43.22c9.88 0 17.92-8.04 17.92-17.92v-39.54c0-9.86-8.04-17.9-17.92-17.9zM669.4 333.46c5.47 0 9.92 4.442 9.92 9.9v39.54a9.932 9.932 0 0 1-9.92 9.92h-43.22a9.932 9.932 0 0 1-9.92-9.92v-39.54c0-5.458 4.45-9.9 9.92-9.9h43.22m0-8h-43.22c-9.88 0-17.92 8.04-17.92 17.9v39.54c0 9.88 8.04 17.92 17.92 17.92h43.22c9.88 0 17.92-8.04 17.92-17.92v-39.54c0-9.86-8.04-17.9-17.92-17.9zM669.4 631.18a9.912 9.912 0 0 1 9.9 9.9v42.856l0.02 0.02v145.544c0 5.458-4.45 9.9-9.92 9.9h-43.22c-5.47 0-9.92-4.442-9.92-9.9V641.08c0-5.458 4.45-9.9 9.92-9.9h43.22m0-8h-43.22c-9.88 0-17.92 8.04-17.92 17.9v188.42c0 9.88 8.04 17.9 17.92 17.9h43.22c9.88 0 17.92-8.02 17.92-17.9v-148.82c0-0.02-0.02-0.04-0.02-0.04v-39.56c0-9.86-8.02-17.9-17.9-17.9z" opacity=".2" p-id="61682"></path><path d="M960.92 66.9h-128.7c-5.52 0-10 4.48-10 10v870.2c0 5.52 4.48 10 10 10h128.7c5.52 0 10-4.48 10-10V76.9c0-5.52-4.48-10-10-10z m-10 61.76h-54.36c-5.52 0-10 4.48-10 10s4.48 10 10 10h54.36V182h-28.26c-5.52 0-10 4.48-10 10s4.48 10 10 10h28.26v33.34h-54.36c-5.52 0-10 4.48-10 10s4.48 10 10 10h54.36v33.32h-28.26c-5.52 0-10 4.48-10 10 0 5.54 4.48 10 10 10h28.26V342h-54.36c-5.52 0-10 4.48-10 10s4.48 10 10 10h54.36v33.34h-28.26c-5.52 0-10 4.48-10 10s4.48 10 10 10h28.26v33.32h-54.36c-5.52 0-10 4.48-10 10 0 5.54 4.48 10 10 10h54.36V502h-28.26c-5.52 0-10 4.48-10 10s4.48 10 10 10h28.26v33.34h-54.36c-5.52 0-10 4.46-10 10 0 5.52 4.48 10 10 10h54.36v33.32h-28.26c-5.52 0-10 4.48-10 10s4.48 10 10 10h28.26V662h-54.36c-5.52 0-10 4.48-10 10s4.48 10 10 10h54.36v33.32h-28.26c-5.52 0-10 4.48-10 10 0 5.54 4.48 10 10 10h28.26v33.34h-54.36c-5.52 0-10 4.48-10 10s4.48 10 10 10h54.36V822h-28.26c-5.52 0-10 4.48-10 10s4.48 10 10 10h28.26v33.34h-54.36c-5.52 0-10 4.48-10 10s4.48 10 10 10h54.36v41.76h-108.7V86.9h108.7v41.76z" fill="#23130D" p-id="61683"></path><path d="M886.56 138.66c0 5.52 4.48 10 10 10h54.36V182h-28.26c-5.52 0-10 4.48-10 10s4.48 10 10 10h28.26v33.34h-54.36c-5.52 0-10 4.48-10 10s4.48 10 10 10h54.36v33.32h-28.26c-5.52 0-10 4.48-10 10 0 5.54 4.48 10 10 10h28.26V342h-54.36c-5.52 0-10 4.48-10 10s4.48 10 10 10h54.36v33.34h-28.26c-5.52 0-10 4.48-10 10s4.48 10 10 10h28.26v33.32h-54.36c-5.52 0-10 4.48-10 10 0 5.54 4.48 10 10 10h54.36V502h-28.26c-5.52 0-10 4.48-10 10s4.48 10 10 10h28.26v33.34h-54.36c-5.52 0-10 4.46-10 10 0 5.52 4.48 10 10 10h54.36v33.32h-28.26c-5.52 0-10 4.48-10 10s4.48 10 10 10h28.26V662h-54.36c-5.52 0-10 4.48-10 10s4.48 10 10 10h54.36v33.32h-28.26c-5.52 0-10 4.48-10 10 0 5.54 4.48 10 10 10h28.26v33.34h-54.36c-5.52 0-10 4.48-10 10s4.48 10 10 10h54.36V822h-28.26c-5.52 0-10 4.48-10 10s4.48 10 10 10h28.26v33.34h-54.36c-5.52 0-10 4.48-10 10s4.48 10 10 10h54.36v41.76h-108.7V86.9h108.7v41.76h-54.36c-5.52 0-10 4.48-10 10z" fill="#F9C139" p-id="61684"></path><path d="M434.18 251.96h-50.9l-75.38-75.38h50.9zM493.1 251.96h-39.12L378.6 176.58h39.12zM598.96 251.96h-65.06l-75.38-75.38h65.04z" fill="#FFFFFF" opacity=".4" p-id="61685"></path><path d="M209.48 454.34c-0.4-0.02-0.8-0.02-1.22-0.02H165.04c-16.74 0-30.96 10.88-35.98 25.94l-55.98-55.98v-106.34l54.04 54.04v10.92c0 20.92 17 37.92 37.92 37.92h10.92l33.52 33.52zM358.32 603.18h-39.58c-18.1 0-33.26 12.74-37.02 29.74l-64.36-64.36c16.52-4.08 28.82-19.02 28.82-36.8v-39.54c0-0.4 0-0.8-0.02-1.2l34.68 34.68v6.06c0 20.92 17 37.92 37.9 37.92h6.08l33.5 33.5zM507.18 752.04h-34.72c-19.56 0-35.7 14.88-37.7 33.92L367 718.2c18.54-2.46 32.88-18.36 32.88-37.56v-35.9l34.66 34.66v1.24c0 20.9 17.02 37.9 37.92 37.9h1.22l33.5 33.5zM671.16 916.02h-106.34l-48.64-48.64c20.68-0.26 37.42-17.14 37.42-37.88v-31.04l34.86 34.86c1.78 17.84 16.02 32.08 33.88 33.88l48.82 48.82zM183.68 305.46h-18.64c-17.06 0-31.52 11.3-36.26 26.82l-55.7-55.7V194.86l46.18 46.18c2.86 15.32 14.96 27.42 30.26 30.26l34.16 34.16zM332.54 454.32h-13.8c-18.44 0-33.84 13.24-37.22 30.7l-65.1-65.1c17-3.72 29.76-18.9 29.76-37.02v-14.94l86.36 86.36zM481.4 603.18h-8.94c-19.92 0-36.3 15.44-37.8 34.98l-68.7-68.7c19.04-1.98 33.92-18.12 33.92-37.7v-10.1l81.52 81.52zM588.26 710.04V791.76l-73.22-73.22h0.64c20.9 0 37.92-17 37.92-37.9v-5.26l34.66 34.66zM761.36 883.14v7.8c0 13.6-8.94 25.08-19.52 25.08h-29.32l-48.62-48.62h5.5c20.9 0 37.92-17 37.92-37.9v-0.4l54.04 54.04zM255.86 156.58H156.5c-10.12 0-19.3 3.98-26.08 10.44L78.78 115.38c3.54-4.56 8.42-7.4 13.82-7.4h114.66l48.6 48.6zM761.36 662.08v135.88l-54.04-54.04v-63.28c0-0.02-0.02-0.04-0.02-0.04v-39.52c0-20.9-17-37.9-37.9-37.9h-43.22c-16.1 0-29.88 10.06-35.36 24.24L530.2 566.8c13.72-5.72 23.4-19.26 23.4-35.04v-39.54c0-20.9-17.02-37.9-37.92-37.9h-43.22c-14.78 0-27.62 8.5-33.86 20.88l-58.82-58.82c11.94-6.38 20.1-19 20.1-33.48v-39.54c0-20.9-17-37.9-37.9-37.9h-43.24c-13.5 0-25.38 7.1-32.1 17.78l-51.28-51.28h135.88L435.28 336c-0.5 2.38-0.74 4.84-0.74 7.36v39.54c0 20.92 17.02 37.92 37.92 37.92h43.22c1.42 0 2.82-0.08 4.18-0.24l68.54 68.54c-0.1 1.02-0.14 2.06-0.14 3.1v39.54c0 20.92 17 37.92 37.92 37.92h42.78l92.4 92.4z" fill="#FFFFFF" opacity=".7" p-id="61686"></path><path d="M842.22 86.9h20.78v850.2h-20.78z" opacity=".2" p-id="61687"></path></svg>