<?xml version="1.0" standalone="no"?><!DOCTYPE svg PUBLIC "-//W3C//DTD SVG 1.1//EN" "http://www.w3.org/Graphics/SVG/1.1/DTD/svg11.dtd"><svg t="1625811571585" class="icon" viewBox="0 0 1024 1024" version="1.1" xmlns="http://www.w3.org/2000/svg" p-id="35707" xmlns:xlink="http://www.w3.org/1999/xlink" width="200" height="200"><defs><style type="text/css"></style></defs><path d="M852.42 405.76H637.2l-41-74.46H676c52.52 0 95.24-42.72 95.24-95.24V142.02c0-52.52-42.72-95.24-95.24-95.24H326.6c-52.52 0-95.24 42.72-95.24 95.24v94.04c0 52.52 42.72 95.24 95.24 95.24h79.8l-40.98 74.46h-78.5v-30.06c0-5.52-4.46-10-10-10H190.38c-5.52 0-10 4.48-10 10v30.06h-8.8c-52.52 0-95.24 42.72-95.24 95.24v380.98c0 52.52 42.72 95.24 95.24 95.24h680.84c52.52 0 95.24-42.72 95.24-95.24V501c0-52.52-42.72-95.24-95.24-95.24z m-585.5 89.36H190.38c-5.52 0-10 4.48-10 10s4.48 10 10 10h76.54v73.18H190.38c-5.52 0-10 4.48-10 10 0 5.54 4.48 10 10 10h76.54v73.18H190.38c-5.52 0-10 4.48-10 10s4.48 10 10 10h76.54v73.18H190.38c-5.52 0-10 4.48-10 10 0 5.54 4.48 10 10 10h76.54v73.18H190.38c-5.52 0-10 4.48-10 10s4.48 10 10 10h76.54v69.38H171.58c-41.5 0-75.24-33.76-75.24-75.24V501c0-41.5 33.74-75.24 75.24-75.24h95.34v69.36z m0-89.36h-66.54v-20.06h66.54v20.06z m59.68-94.46c-41.5 0-75.24-33.74-75.24-75.24V142.02c0-41.48 33.74-75.24 75.24-75.24H676c41.5 0 75.24 33.76 75.24 75.24v94.04c0 41.5-33.74 75.24-75.24 75.24H326.6z m102.64 20h144.14l40.98 74.46H388.24l41-74.46z m498.42 550.68c0 41.48-33.76 75.24-75.24 75.24H286.92V425.76h565.5c41.5 0 75.24 33.74 75.24 75.24v380.98z" fill="#23130D" p-id="35708"></path><path d="M200.38 385.7h66.54v20.06h-66.54z" fill="#E59D89" p-id="35709"></path><path d="M200.38 385.7h66.54v11.8h-66.54z" opacity=".2" p-id="35710"></path><path d="M751.24 142.02v94.04c0 20.84-8.5 39.72-22.24 53.34-13.6 13.54-32.32 21.9-53 21.9H326.6c-41.5 0-75.24-33.74-75.24-75.24V142.02c0-9.72 1.86-19 5.22-27.54 6.28-15.92 17.86-29.2 32.54-37.68 6.02-3.48 12.56-6.14 19.48-7.84 5.78-1.42 11.8-2.18 18-2.18H676c41.5 0 75.24 33.76 75.24 75.24z" fill="#E1E1E5" p-id="35711"></path><path d="M676 78.78c34.87 0 63.24 28.37 63.24 63.24v94.04c0 34.87-28.37 63.24-63.24 63.24H326.6c-34.87 0-63.24-28.37-63.24-63.24V142.02c0-34.87 28.37-63.24 63.24-63.24H676m0-12H326.6c-41.5 0-75.24 33.76-75.24 75.24v94.04c0 41.5 33.74 75.24 75.24 75.24H676c41.5 0 75.24-33.74 75.24-75.24V142.02c0-41.48-33.74-75.24-75.24-75.24z" opacity=".2" p-id="35712"></path><path d="M614.36 405.76H388.24l41-74.46h144.14z" fill="#E59D89" p-id="35713"></path><path d="M614.36 405.76h-17.62l-23.36-42.46h-144.14l-23.38 42.46h-17.62l41-74.46h144.14z" opacity=".2" p-id="35714"></path><path d="M852.42 425.76H286.92v531.46h565.5c41.48 0 75.24-33.76 75.24-75.24V501c0-41.5-33.74-75.24-75.24-75.24zM553.84 927.6c-130.2 0-236.14-105.92-236.14-236.12s105.94-236.12 236.14-236.12c130.18 0 236.12 105.92 236.12 236.12S684.02 927.6 553.84 927.6z m286.92-371.02c-24.24 0-43.96-19.72-43.96-43.96s19.72-43.94 43.96-43.94c24.22 0 43.94 19.7 43.94 43.94s-19.72 43.96-43.94 43.96z" fill="#CC7B5A" p-id="35715"></path><path d="M180.38 505.12c0 5.52 4.48 10 10 10h76.54v73.18H190.38c-5.52 0-10 4.48-10 10 0 5.54 4.48 10 10 10h76.54v73.18H190.38c-5.52 0-10 4.48-10 10s4.48 10 10 10h76.54v73.18H190.38c-5.52 0-10 4.48-10 10 0 5.54 4.48 10 10 10h76.54v73.18H190.38c-5.52 0-10 4.48-10 10s4.48 10 10 10h76.54v69.38H171.58c-41.5 0-75.24-33.76-75.24-75.24V501c0-41.5 33.74-75.24 75.24-75.24h95.34v69.36H190.38c-5.52 0-10 4.48-10 10z" fill="#F8D3C9" p-id="35716"></path><path d="M852.42 425.76H286.92v39.94h197.78c21.88-6.72 45.1-10.34 69.14-10.34s47.26 3.62 69.12 10.34h229.46c41.5 0 75.24 33.74 75.24 75.24V501c0-41.5-33.74-75.24-75.24-75.24zM266.92 425.76v39.94H171.58c-41.5 0-75.24 33.74-75.24 75.24V501c0-41.5 33.74-75.24 75.24-75.24h95.34z" fill="#FFFFFF" opacity=".4" p-id="35717"></path><path d="M852.42 927.18H567.86c-4.64 0.28-9.32 0.42-14.02 0.42-4.72 0-9.4-0.14-14.04-0.42H286.92v30.04h565.5c41.48 0 75.24-33.76 75.24-75.24v-30.04c0 41.48-33.76 75.24-75.24 75.24zM266.92 927.18v30.04H171.58c-41.5 0-75.24-33.76-75.24-75.24v-30.04c0 41.48 33.74 75.24 75.24 75.24h95.34z" fill="#23130D" opacity=".2" p-id="35718"></path><path d="M553.84 455.36c-130.2 0-236.14 105.92-236.14 236.12S423.64 927.6 553.84 927.6c130.18 0 236.12-105.92 236.12-236.12s-105.94-236.12-236.12-236.12z m0 452.24c-119.18 0-216.14-96.94-216.14-216.12 0-119.16 96.96-216.12 216.14-216.12 119.16 0 216.12 96.96 216.12 216.12 0 119.18-96.96 216.12-216.12 216.12z" fill="#23130D" p-id="35719"></path><path d="M553.84 475.36c-119.18 0-216.14 96.96-216.14 216.12 0 119.18 96.96 216.12 216.14 216.12 119.16 0 216.12-96.94 216.12-216.12 0-119.16-96.96-216.12-216.12-216.12z m0 392.74c-97.4 0-176.62-79.24-176.62-176.62s79.22-176.6 176.62-176.6c97.38 0 176.6 79.22 176.6 176.6s-79.22 176.62-176.6 176.62z" fill="#E59D89" p-id="35720"></path><path d="M553.84 514.88c-97.4 0-176.62 79.22-176.62 176.6s79.22 176.62 176.62 176.62c97.38 0 176.6-79.24 176.6-176.62s-79.22-176.6-176.6-176.6z m0 333.22c-86.36 0-156.62-70.26-156.62-156.62 0-86.34 70.26-156.6 156.62-156.6 86.34 0 156.6 70.26 156.6 156.6 0 86.36-70.26 156.62-156.6 156.62z" fill="#23130D" p-id="35721"></path><path d="M553.84 534.88c-4.36 0-8.66 0.18-12.94 0.54a155.74 155.74 0 0 0-68.4 22.26 157.488 157.488 0 0 0-31.5 25.34 155.532 155.532 0 0 0-23.34 31.18c-3.4 5.96-6.42 12.16-9.02 18.58a155.804 155.804 0 0 0-11.42 58.7c0 0.28 0 0.56 0.02 0.84v0.02c0.46 85.7 70.06 155.3 155.76 155.74 0.28 0.02 0.56 0.02 0.84 0.02 20.74 0 40.56-4.06 58.7-11.42 6.42-2.6 12.62-5.62 18.58-9.02a155.532 155.532 0 0 0 31.18-23.34c9.72-9.32 18.26-19.92 25.34-31.5a155.74 155.74 0 0 0 22.26-68.4c0.36-4.28 0.54-8.58 0.54-12.94 0-86.34-70.26-156.6-156.6-156.6z m40.12 201.1c-10.4 9.4-24.08 15.2-39.08 15.44-0.34 0.02-0.7 0.02-1.04 0.02-33.06 0-59.96-26.9-59.96-59.96 0-0.34 0-0.7 0.02-1.04 0.24-15 6.04-28.68 15.44-39.08 9.46-10.52 22.62-17.68 37.42-19.42 2.32-0.28 4.68-0.42 7.08-0.42 33.04 0 59.94 26.9 59.94 59.96 0 2.38-0.14 4.74-0.42 7.06-1.74 14.8-8.88 27.96-19.4 37.44z" fill="#F8D3C9" p-id="35722"></path><path d="M553.84 548.88c78.63 0 142.6 63.97 142.6 142.6 0 78.64-63.97 142.62-142.6 142.62-78.64 0-142.62-63.98-142.62-142.62 0-78.63 63.98-142.6 142.62-142.6m0 216.56c40.77 0 73.94-33.178 73.94-73.96s-33.17-73.96-73.94-73.96c-40.782 0-73.96 33.178-73.96 73.96s33.178 73.96 73.96 73.96m0-230.56c-86.36 0-156.62 70.26-156.62 156.6 0 86.36 70.26 156.62 156.62 156.62 86.34 0 156.6-70.26 156.6-156.62 0-86.34-70.26-156.6-156.6-156.6z m0 216.56c-33.06 0-59.96-26.9-59.96-59.96s26.9-59.96 59.96-59.96c33.04 0 59.94 26.9 59.94 59.96s-26.9 59.96-59.94 59.96z" opacity=".2" p-id="35723"></path><path d="M553.84 631.52c-33.06 0-59.96 26.9-59.96 59.96s26.9 59.96 59.96 59.96c33.04 0 59.94-26.9 59.94-59.96s-26.9-59.96-59.94-59.96z m0 99.92c-22.04 0-39.96-17.92-39.96-39.96 0-22.02 17.92-39.96 39.96-39.96 22.02 0 39.94 17.94 39.94 39.96 0 22.04-17.92 39.96-39.94 39.96z" fill="#23130D" p-id="35724"></path><path d="M593.78 691.48c0 22.04-17.92 39.96-39.94 39.96-22.04 0-39.96-17.92-39.96-39.96 0-22.02 17.92-39.96 39.96-39.96 22.02 0 39.94 17.94 39.94 39.96z" fill="#CC7B5A" p-id="35725"></path><path d="M553.84 665.52c14.304 0 25.94 11.646 25.94 25.96s-11.636 25.96-25.94 25.96c-14.314 0-25.96-11.646-25.96-25.96s11.646-25.96 25.96-25.96m0-14c-22.04 0-39.96 17.94-39.96 39.96 0 22.04 17.92 39.96 39.96 39.96 22.02 0 39.94-17.92 39.94-39.96 0-22.02-17.92-39.96-39.94-39.96z" opacity=".2" p-id="35726"></path><path d="M840.76 468.68c-24.24 0-43.96 19.7-43.96 43.94s19.72 43.96 43.96 43.96c24.22 0 43.94-19.72 43.94-43.96s-19.72-43.94-43.94-43.94z m0 67.9c-13.22 0-23.96-10.74-23.96-23.96 0-13.2 10.74-23.94 23.96-23.94 13.2 0 23.94 10.74 23.94 23.94 0 13.22-10.74 23.96-23.94 23.96z" fill="#23130D" p-id="35727"></path><path d="M864.7 512.62c0 13.22-10.74 23.96-23.94 23.96-13.22 0-23.96-10.74-23.96-23.96 0-13.2 10.74-23.94 23.96-23.94 13.2 0 23.94 10.74 23.94 23.94z" fill="#E1E1E5" p-id="35728"></path><path d="M612.54 836.68a155.804 155.804 0 0 1-58.7 11.42c-0.28 0-0.56 0-0.84-0.02l-155.76-155.74v-0.02c-0.02-0.28-0.02-0.56-0.02-0.84 0-20.74 4.06-40.56 11.42-58.7l203.9 203.9zM509.34 651.36c-9.4 10.4-15.2 24.08-15.44 39.08l-76.24-76.24a155.532 155.532 0 0 1 23.34-31.18l68.34 68.34zM662.3 804.32a155.532 155.532 0 0 1-31.18 23.34l-76.24-76.24c15-0.24 28.68-6.04 39.08-15.44l68.34 68.34zM709.9 704.42a155.74 155.74 0 0 1-22.26 68.4l-74.28-74.28c0.28-2.32 0.42-4.68 0.42-7.06 0-33.06-26.9-59.96-59.94-59.96-2.4 0-4.76 0.14-7.08 0.42l-74.26-74.26a155.74 155.74 0 0 1 68.4-22.26l169 169z" fill="#FFFFFF" opacity=".4" p-id="35729"></path><path d="M523.62 311.3H453.4l-196.82-196.82c6.28-15.92 17.86-29.2 32.54-37.68l234.5 234.5zM604.9 311.3h-53.96L308.6 68.96c5.78-1.42 11.8-2.18 18-2.18h33.8l244.5 244.52zM729 289.4c-13.6 13.54-32.32 21.9-53 21.9h-14.82L416.64 66.78h89.76L729 289.4z" fill="#FFFFFF" opacity=".4" p-id="35730"></path></svg>