<?xml version="1.0" standalone="no"?><!DOCTYPE svg PUBLIC "-//W3C//DTD SVG 1.1//EN" "http://www.w3.org/Graphics/SVG/1.1/DTD/svg11.dtd"><svg t="1625812064676" class="icon" viewBox="0 0 1024 1024" version="1.1" xmlns="http://www.w3.org/2000/svg" p-id="51235" xmlns:xlink="http://www.w3.org/1999/xlink" width="200" height="200"><defs><style type="text/css"></style></defs><path d="M245.88 360.54c0 22.56-18.12 40.94-40.56 41.44v25.42c0 5.52-4.48 10-10 10s-10-4.48-10-10v-25.38H154.76c-5.52 0-10-4.48-10-10s4.48-10 10-10h49.64c11.84 0 21.48-9.64 21.48-21.48s-9.64-21.48-21.48-21.48h-18.16c-22.88 0-41.48-18.6-41.48-41.48 0-22.56 18.12-40.94 40.56-41.44v-25.4c0-5.54 4.48-10 10-10s10 4.46 10 10v25.36h30.56c5.52 0 10 4.48 10 10s-4.48 10-10 10H186.24c-11.84 0-21.48 9.64-21.48 21.48s9.64 21.48 21.48 21.48h18.16c22.86 0 41.48 18.6 41.48 41.48z" fill="#23130D" p-id="51236"></path><path d="M316.56 461.22h-45.98c45.88-26.24 76.9-75.62 76.9-132.16 0-83.9-68.26-152.16-152.16-152.16-83.9 0-152.16 68.26-152.16 152.16 0 56.54 31.02 105.92 76.9 132.16H74.08c-17.04 0-30.92 13.86-30.92 30.92 0 8.06 3.14 15.4 8.22 20.9-5.08 5.52-8.22 12.84-8.22 20.92 0 8.06 3.14 15.4 8.22 20.92-5.08 5.5-8.22 12.84-8.22 20.9 0 8.08 3.14 15.4 8.22 20.92-5.08 5.52-8.22 12.84-8.22 20.92 0 8.06 3.14 15.4 8.22 20.9-5.08 5.52-8.22 12.84-8.22 20.92 0 8.06 3.14 15.4 8.22 20.92-5.08 5.5-8.22 12.84-8.22 20.9 0 8.08 3.14 15.42 8.22 20.92-5.08 5.52-8.22 12.84-8.22 20.92 0 8.06 3.14 15.4 8.22 20.92-5.08 5.5-8.22 12.84-8.22 20.9 0 8.08 3.14 15.4 8.22 20.92-5.08 5.52-8.22 12.84-8.22 20.92 0 8.06 3.14 15.4 8.22 20.9-5.08 5.52-8.22 12.86-8.22 20.92 0 8.08 3.14 15.4 8.22 20.92-5.08 5.5-8.22 12.84-8.22 20.92 0 17.04 13.88 30.9 30.92 30.9h242.48c17.04 0 30.92-13.86 30.92-30.9 0-8.08-3.14-15.42-8.22-20.92 5.08-5.52 8.22-12.84 8.22-20.92 0-8.06-3.14-15.4-8.22-20.92 5.08-5.5 8.22-12.84 8.22-20.9 0-8.08-3.14-15.4-8.22-20.92 5.08-5.52 8.22-12.84 8.22-20.92 0-8.06-3.14-15.4-8.22-20.9 5.08-5.52 8.22-12.86 8.22-20.92 0-8.08-3.14-15.4-8.22-20.92 5.08-5.5 8.22-12.84 8.22-20.92 0-8.06-3.14-15.4-8.22-20.9 5.08-5.52 8.22-12.86 8.22-20.92 0-8.08-3.14-15.4-8.22-20.92 5.08-5.5 8.22-12.84 8.22-20.9 0-8.08-3.14-15.42-8.22-20.92 5.08-5.52 8.22-12.84 8.22-20.92 0-8.06-3.14-15.4-8.22-20.9 5.08-5.52 8.22-12.86 8.22-20.92 0-8.08-3.14-15.4-8.22-20.92 5.08-5.5 8.22-12.84 8.22-20.9 0-17.06-13.88-30.92-30.92-30.92z m-253.4-132.16c0-72.86 59.28-132.16 132.16-132.16 72.86 0 132.16 59.3 132.16 132.16 0 72.88-59.3 132.16-132.16 132.16-72.88 0-132.16-59.28-132.16-132.16z m253.4 592.26H74.08c-6.02 0-10.92-4.9-10.92-10.9 0-6.02 4.9-10.92 10.92-10.92h242.48c6.02 0 10.92 4.9 10.92 10.92 0 6-4.9 10.9-10.92 10.9z m0-41.82H74.08c-6.02 0-10.92-4.9-10.92-10.92s4.9-10.92 10.92-10.92h242.48c6.02 0 10.92 4.9 10.92 10.92s-4.9 10.92-10.92 10.92z m0-41.84H74.08c-3 0-5.74-1.22-7.72-3.2a10.82 10.82 0 0 1-3.2-7.7c0-6.02 4.9-10.92 10.92-10.92h242.48c6.02 0 10.92 4.9 10.92 10.92s-4.9 10.9-10.92 10.9z m0-41.82H74.08c-6.02 0-10.92-4.9-10.92-10.92s4.9-10.9 10.92-10.9h242.48c6.02 0 10.92 4.88 10.92 10.9 0 6.02-4.9 10.92-10.92 10.92z m0-41.84H74.08c-6.02 0-10.92-4.88-10.92-10.9s4.9-10.92 10.92-10.92h242.48c6.02 0 10.92 4.9 10.92 10.92s-4.9 10.9-10.92 10.9z m0-41.82H74.08c-6.02 0-10.92-4.9-10.92-10.92s4.9-10.9 10.92-10.9h242.48c6.02 0 10.92 4.88 10.92 10.9s-4.9 10.92-10.92 10.92z m0-41.84H74.08c-6.02 0-10.92-4.88-10.92-10.9 0-6.02 4.9-10.92 10.92-10.92h242.48c6.02 0 10.92 4.9 10.92 10.92s-4.9 10.9-10.92 10.9z m0-41.82H74.08c-3 0-5.74-1.22-7.72-3.2-1.98-1.98-3.2-4.7-3.2-7.7 0-6.02 4.9-10.92 10.92-10.92h242.48c6.02 0 10.92 4.9 10.92 10.92 0 6-4.9 10.9-10.92 10.9z m0-41.82H74.08c-3 0-5.74-1.22-7.72-3.2s-3.2-4.7-3.2-7.72c0-6 4.9-10.9 10.92-10.9h242.48c6.02 0 10.92 4.9 10.92 10.9 0 6.02-4.9 10.92-10.92 10.92z m0-41.82H74.08c-6.02 0-10.92-4.9-10.92-10.92s4.9-10.92 10.92-10.92h242.48c6.02 0 10.92 4.9 10.92 10.92s-4.9 10.92-10.92 10.92z m0-41.84H74.08c-3 0-5.74-1.22-7.72-3.2-1.98-1.96-3.2-4.68-3.2-7.7 0-6.02 4.9-10.92 10.92-10.92h242.48c6.02 0 10.92 4.9 10.92 10.92s-4.9 10.9-10.92 10.9z" fill="#23130D" p-id="51237"></path><path d="M327.48 492.14c0 6.02-4.9 10.9-10.92 10.9H74.08c-3 0-5.74-1.22-7.72-3.2-1.98-1.96-3.2-4.68-3.2-7.7 0-6.02 4.9-10.92 10.92-10.92h242.48c6.02 0 10.92 4.9 10.92 10.92zM327.48 533.96c0 6.02-4.9 10.92-10.92 10.92H74.08c-6.02 0-10.92-4.9-10.92-10.92s4.9-10.92 10.92-10.92h242.48c6.02 0 10.92 4.9 10.92 10.92zM327.48 575.78c0 6.02-4.9 10.92-10.92 10.92H74.08c-3 0-5.74-1.22-7.72-3.2s-3.2-4.7-3.2-7.72c0-6 4.9-10.9 10.92-10.9h242.48c6.02 0 10.92 4.9 10.92 10.9zM327.48 617.62c0 6-4.9 10.9-10.92 10.9H74.08c-3 0-5.74-1.22-7.72-3.2-1.98-1.98-3.2-4.7-3.2-7.7 0-6.02 4.9-10.92 10.92-10.92h242.48c6.02 0 10.92 4.9 10.92 10.92zM327.48 659.44c0 6.02-4.9 10.9-10.92 10.9H74.08c-6.02 0-10.92-4.88-10.92-10.9 0-6.02 4.9-10.92 10.92-10.92h242.48c6.02 0 10.92 4.9 10.92 10.92zM327.48 701.26c0 6.02-4.9 10.92-10.92 10.92H74.08c-6.02 0-10.92-4.9-10.92-10.92s4.9-10.9 10.92-10.9h242.48c6.02 0 10.92 4.88 10.92 10.9zM327.48 743.1c0 6.02-4.9 10.9-10.92 10.9H74.08c-6.02 0-10.92-4.88-10.92-10.9s4.9-10.92 10.92-10.92h242.48c6.02 0 10.92 4.9 10.92 10.92zM327.48 784.92c0 6.02-4.9 10.92-10.92 10.92H74.08c-6.02 0-10.92-4.9-10.92-10.92s4.9-10.9 10.92-10.9h242.48c6.02 0 10.92 4.88 10.92 10.9zM327.48 826.76c0 6.02-4.9 10.9-10.92 10.9H74.08c-3 0-5.74-1.22-7.72-3.2a10.82 10.82 0 0 1-3.2-7.7c0-6.02 4.9-10.92 10.92-10.92h242.48c6.02 0 10.92 4.9 10.92 10.92zM327.48 868.58c0 6.02-4.9 10.92-10.92 10.92H74.08c-6.02 0-10.92-4.9-10.92-10.92s4.9-10.92 10.92-10.92h242.48c6.02 0 10.92 4.9 10.92 10.92zM327.48 910.42c0 6-4.9 10.9-10.92 10.9H74.08c-6.02 0-10.92-4.9-10.92-10.9 0-6.02 4.9-10.92 10.92-10.92h242.48c6.02 0 10.92 4.9 10.92 10.92zM204.4 339.06h-10.34l30.04 30.04c1.14-2.62 1.78-5.52 1.78-8.56 0-11.84-9.64-21.48-21.48-21.48z m0 0h-10.34l30.04 30.04c1.14-2.62 1.78-5.52 1.78-8.56 0-11.84-9.64-21.48-21.48-21.48z m0 0h-10.34l30.04 30.04c1.14-2.62 1.78-5.52 1.78-8.56 0-11.84-9.64-21.48-21.48-21.48z m-9.08-142.16c-6.22 0-12.34 0.44-18.34 1.28a131.304 131.304 0 0 0-55.06 21.02c-9.42 6.32-17.98 13.8-25.46 22.26-7.28 8.2-13.56 17.32-18.64 27.16a127.242 127.242 0 0 0-7 16.14 131.166 131.166 0 0 0-7.42 52.16c3.92 66.64 57.42 120.14 124.06 124.06a131.166 131.166 0 0 0 52.16-7.42c5.56-1.96 10.96-4.3 16.16-7 9.82-5.08 18.94-11.34 27.14-18.64a132.36 132.36 0 0 0 22.24-25.46 130.9 130.9 0 0 0 21.04-55.06c0.84-6 1.28-12.12 1.28-18.34 0-72.86-59.3-132.16-132.16-132.16z m40.56 79.2H186.24c-2.24 0-4.4 0.34-6.44 1-8.7 2.74-15.04 10.88-15.04 20.48 0 11.84 9.64 21.48 21.48 21.48h18.16c22.86 0 41.48 18.6 41.48 41.48 0 8.6-2.62 16.58-7.14 23.2-6.32 9.36-16.4 15.98-28.04 17.76-1.76 0.28-3.56 0.44-5.38 0.48v25.42c0 5.52-4.48 10-10 10s-10-4.48-10-10v-25.38H154.76c-5.52 0-10-4.48-10-10s4.48-10 10-10h49.64c8.8 0 16.38-5.32 19.7-12.92 1.14-2.62 1.78-5.52 1.78-8.56 0-11.84-9.64-21.48-21.48-21.48h-18.16c-22.88 0-41.48-18.6-41.48-41.48 0-2.46 0.22-4.86 0.64-7.18 2.08-12 9.36-22.22 19.42-28.3 6.02-3.62 13.02-5.78 20.5-5.96v-25.4c0-5.54 4.48-10 10-10s10 4.46 10 10v25.36h30.56c5.52 0 10 4.48 10 10 0 0.32-0.02 0.62-0.06 0.92-0.44 5.1-4.74 9.08-9.94 9.08z m-31.48 62.96h-10.34l30.04 30.04c1.14-2.62 1.78-5.52 1.78-8.56 0-11.84-9.64-21.48-21.48-21.48z m0 0h-10.34l30.04 30.04c1.14-2.62 1.78-5.52 1.78-8.56 0-11.84-9.64-21.48-21.48-21.48z" fill="#F9C139" p-id="51238"></path><path d="M195.32 206.9c67.36 0 122.16 54.8 122.16 122.16s-54.8 122.16-122.16 122.16-122.16-54.8-122.16-122.16 54.8-122.16 122.16-122.16m-20 40.412c-23.092 5.076-40.56 25.866-40.56 50.266 0 28.386 23.094 51.48 51.48 51.48h18.16c6.33 0 11.48 5.15 11.48 11.48s-5.15 11.48-11.48 11.48H154.76c-11.028 0-20 8.972-20 20s8.972 20 20 20h20.56v15.38c0 11.028 8.972 20 20 20s20-8.972 20-20v-16.594c23.092-5.076 40.56-25.866 40.56-50.266 0-28.386-23.094-51.48-51.48-51.48h-18.16a11.494 11.494 0 0 1-11.48-11.48 11.494 11.494 0 0 1 11.48-11.48h49.64c11.028 0 20-8.972 20-20s-8.972-20-20-20h-20.56v-15.36c0-11.028-8.972-20-20-20s-20 8.972-20 20v16.574m20-50.412c-72.88 0-132.16 59.3-132.16 132.16 0 72.88 59.28 132.16 132.16 132.16 72.86 0 132.16-59.28 132.16-132.16 0-72.86-59.3-132.16-132.16-132.16z m-9.08 142.16c-22.88 0-41.48-18.6-41.48-41.48 0-22.56 18.12-40.94 40.56-41.44v-25.4c0-5.54 4.48-10 10-10s10 4.46 10 10v25.36h30.56c5.52 0 10 4.48 10 10s-4.48 10-10 10H186.24c-11.84 0-21.48 9.64-21.48 21.48s9.64 21.48 21.48 21.48h18.16c22.86 0 41.48 18.6 41.48 41.48 0 22.56-18.12 40.94-40.56 41.44v25.42c0 5.52-4.48 10-10 10s-10-4.48-10-10v-25.38H154.76c-5.52 0-10-4.48-10-10s4.48-10 10-10h49.64c11.84 0 21.48-9.64 21.48-21.48s-9.64-21.48-21.48-21.48h-18.16z" opacity=".2" p-id="51239"></path><path d="M908.92 321.7c-43.02-49.72-101.3-83.62-165.24-96.4 12.36-25.52 34.6-58.96 68.02-64.52 18.58-3.1 30.94-12.92 33.9-26.94 3.02-14.32-4.68-29.5-20.08-39.62-26.3-17.3-76.56-20.02-139.92 22.64-63.38-42.66-113.62-39.94-139.94-22.64-15.4 10.12-23.1 25.3-20.08 39.62 2.96 14.02 15.32 23.84 33.92 26.94 33.42 5.56 55.66 39 68 64.52-59.68 11.92-114.42 42.26-156.42 86.66-3.02 3.18-5.94 6.42-8.82 9.74-46.38 53.58-71.92 122.16-71.92 193.12v379.26c0 26.26 21.38 47.62 47.66 47.62H933.2c26.26 0 47.64-21.36 47.64-47.62V514.82c0-70.96-25.54-139.54-71.92-193.12zM562.78 141.04c-10.04-1.66-16.46-5.8-17.62-11.34-1.26-5.98 3.24-13.36 11.48-18.78 21.6-14.18 65.3-14.74 123.18 26.24 0.08 0.06 0.16 0.1 0.24 0.14 0.32 0.2 0.62 0.38 0.94 0.54 0.28 0.14 0.54 0.28 0.84 0.4 0.3 0.12 0.6 0.22 0.9 0.3 0.32 0.1 0.64 0.2 0.96 0.26 0.3 0.06 0.6 0.08 0.92 0.12 0.32 0.02 0.64 0.06 0.98 0.06 0.32 0 0.64-0.04 0.96-0.06 0.32-0.04 0.62-0.06 0.94-0.12 0.32-0.06 0.62-0.16 0.94-0.26 0.3-0.08 0.62-0.18 0.92-0.3 0.28-0.12 0.54-0.26 0.82-0.4 0.32-0.16 0.64-0.34 0.94-0.54 0.08-0.04 0.18-0.08 0.26-0.14 57.88-40.98 101.56-40.42 123.16-26.24 8.24 5.42 12.76 12.8 11.5 18.78-1.18 5.54-7.6 9.68-17.64 11.34-42.86 7.16-69.7 46.5-85.26 80.96-12.44-1.58-25.02-2.42-37.52-2.42h-0.02c-12.52 0-25.1 0.84-37.54 2.42-15.58-34.46-42.4-73.8-85.28-80.96z m398.06 753.04c0 15.22-12.4 27.62-27.64 27.62H438c-15.24 0-27.66-12.4-27.66-27.62v-38.62h550.5v38.62z m0-58.62H410.34V514.82c0-134.66 100.2-251.6 233.06-272.02 13.92-2.14 28.12-3.22 42.18-3.22h0.02c14.06 0 28.26 1.08 42.18 3.22 132.86 20.42 233.06 137.36 233.06 272.02v320.64z" fill="#23130D" p-id="51240"></path><path d="M960.84 855.46v38.62c0 15.22-12.4 27.62-27.64 27.62H438c-15.24 0-27.66-12.4-27.66-27.62v-38.62h550.5z" fill="#E1E1E5" p-id="51241"></path><path d="M960.84 863.16v30.92c0 15.22-12.4 27.62-27.64 27.62H438c-15.24 0-27.66-12.4-27.66-27.62v-30.92c0 15.22 12.42 27.62 27.66 27.62H933.2c15.24 0 27.64-12.4 27.64-27.62z" opacity=".2" p-id="51242"></path><path d="M826.04 129.7c-1.18 5.54-7.6 9.68-17.64 11.34-42.86 7.16-69.7 46.5-85.26 80.96-12.44-1.58-25.02-2.42-37.52-2.42h-0.02c-12.52 0-25.1 0.84-37.54 2.42-15.58-34.46-42.4-73.8-85.28-80.96-10.04-1.66-16.46-5.8-17.62-11.34-1.26-5.98 3.24-13.36 11.48-18.78 21.6-14.18 65.3-14.74 123.18 26.24 0.08 0.06 0.16 0.1 0.24 0.14 0.32 0.2 0.62 0.38 0.94 0.54 0.28 0.14 0.54 0.28 0.84 0.4 0.3 0.12 0.6 0.22 0.9 0.3 0.32 0.1 0.64 0.2 0.96 0.26 0.3 0.06 0.6 0.08 0.92 0.12 0.32 0.02 0.64 0.06 0.98 0.06 0.32 0 0.64-0.04 0.96-0.06 0.32-0.04 0.62-0.06 0.94-0.12 0.32-0.06 0.62-0.16 0.94-0.26 0.3-0.08 0.62-0.18 0.92-0.3 0.28-0.12 0.54-0.26 0.82-0.4 0.32-0.16 0.64-0.34 0.94-0.54 0.08-0.04 0.18-0.08 0.26-0.14 57.88-40.98 101.56-40.42 123.16-26.24 8.24 5.42 12.76 12.8 11.5 18.78z" fill="#E1E1E5" p-id="51243"></path><path d="M826.04 129.7c-1.18 5.54-7.6 9.68-17.64 11.34-0.84 0.14-1.66 0.3-2.48 0.46-23.54-9.3-63.52-5.46-114.54 30.66-0.08 0.06-0.18 0.1-0.26 0.14-0.3 0.2-0.62 0.38-0.94 0.54-0.28 0.14-0.54 0.28-0.82 0.4-0.3 0.12-0.62 0.22-0.92 0.3-0.32 0.1-0.62 0.2-0.94 0.26-0.32 0.06-0.62 0.08-0.94 0.12-0.32 0.02-0.64 0.06-0.96 0.06-0.34 0-0.66-0.04-0.98-0.06-0.32-0.04-0.62-0.06-0.92-0.12-0.32-0.06-0.64-0.16-0.96-0.26-0.3-0.08-0.6-0.18-0.9-0.3-0.3-0.12-0.56-0.26-0.84-0.4a11.3 11.3 0 0 1-0.94-0.54 1.492 1.492 0 0 1-0.24-0.14c-51.02-36.12-91-39.96-114.56-30.66-0.82-0.16-1.64-0.32-2.48-0.46-10.04-1.66-16.46-5.8-17.62-11.34-1.26-5.98 3.24-13.36 11.48-18.78 21.6-14.18 65.3-14.74 123.18 26.24 0.08 0.06 0.16 0.1 0.24 0.14 0.32 0.2 0.62 0.38 0.94 0.54 0.28 0.14 0.54 0.28 0.84 0.4 0.3 0.12 0.6 0.22 0.9 0.3 0.32 0.1 0.64 0.2 0.96 0.26 0.3 0.06 0.6 0.08 0.92 0.12 0.32 0.02 0.64 0.06 0.98 0.06 0.32 0 0.64-0.04 0.96-0.06 0.32-0.04 0.62-0.06 0.94-0.12 0.32-0.06 0.62-0.16 0.94-0.26 0.3-0.08 0.62-0.18 0.92-0.3 0.28-0.12 0.54-0.26 0.82-0.4 0.32-0.16 0.64-0.34 0.94-0.54 0.08-0.04 0.18-0.08 0.26-0.14 57.88-40.98 101.56-40.42 123.16-26.24 8.24 5.42 12.76 12.8 11.5 18.78z" opacity=".2" p-id="51244"></path><path d="M727.78 242.8c-13.92-2.14-28.12-3.22-42.18-3.22h-0.02c-14.06 0-28.26 1.08-42.18 3.22-132.86 20.42-233.06 137.36-233.06 272.02v320.64h550.5V514.82c0-134.66-100.2-251.6-233.06-272.02zM685.6 692.64c-47.06 0-85.34-38.28-85.34-85.34 0-47.04 38.28-85.32 85.34-85.32 47.04 0 85.32 38.28 85.32 85.32 0 47.06-38.28 85.34-85.32 85.34z" fill="#72AF5F" p-id="51245"></path><path d="M685.6 259.58c13.076 0 26.244 1.006 39.142 2.988 123.196 18.934 216.098 127.38 216.098 252.252v300.64H430.34V514.82c0-124.872 92.902-233.318 216.098-252.252a258.5 258.5 0 0 1 39.14-2.988h0.022m0 453.06c58.074 0 105.32-47.256 105.32-105.34 0-58.074-47.246-105.32-105.32-105.32-58.084 0-105.34 47.246-105.34 105.32 0 58.084 47.256 105.34 105.34 105.34m0-473.06h-0.02c-14.06 0-28.26 1.08-42.18 3.22-132.86 20.42-233.06 137.36-233.06 272.02v320.64h550.5V514.82c0-134.66-100.2-251.6-233.06-272.02-13.92-2.14-28.12-3.22-42.18-3.22z m0 453.06c-47.06 0-85.34-38.28-85.34-85.34 0-47.04 38.28-85.32 85.34-85.32 47.04 0 85.32 38.28 85.32 85.32 0 47.06-38.28 85.34-85.32 85.34z" opacity=".2" p-id="51246"></path><path d="M685.6 521.98c-47.06 0-85.34 38.28-85.34 85.32 0 47.06 38.28 85.34 85.34 85.34 47.04 0 85.32-38.28 85.32-85.34 0-47.04-38.28-85.32-85.32-85.32z m0 150.66c-36.02 0-65.34-29.32-65.34-65.34s29.32-65.32 65.34-65.32 65.32 29.3 65.32 65.32c0 36.02-29.3 65.34-65.32 65.34z" fill="#23130D" p-id="51247"></path><path d="M750.92 607.3c0 36.02-29.3 65.34-65.32 65.34s-65.34-29.32-65.34-65.34 29.32-65.32 65.34-65.32 65.32 29.3 65.32 65.32z" fill="#E1E1E5" p-id="51248"></path><path d="M685.6 541.98c-1.02 0-2.04 0.02-3.06 0.06-10.9 0.52-21.12 3.7-30 8.92a65.928 65.928 0 0 0-13.66 10.74 64.354 64.354 0 0 0-10.06 13.34c-1.48 2.54-2.76 5.2-3.88 7.96a65.058 65.058 0 0 0-4.66 25.8c0.78 34.84 28.98 63.04 63.82 63.82 0.5 0.02 1 0.02 1.5 0.02 8.58 0 16.78-1.66 24.3-4.68 2.76-1.12 5.42-2.42 7.98-3.86a65.88 65.88 0 0 0 13.34-10.08c4.14-4.06 7.76-8.64 10.72-13.66 5.22-8.88 8.4-19.1 8.92-30 0.04-1.02 0.06-2.04 0.06-3.06 0-36.02-29.3-65.32-65.32-65.32z m55.32 65.32a54.8 54.8 0 0 1-6.34 25.7c-2.74 5.2-6.26 9.9-10.44 13.96-4 3.9-8.6 7.2-13.66 9.74-2.68 1.38-5.5 2.52-8.42 3.42-5.2 1.64-10.74 2.52-16.46 2.52-4.5 0-8.86-0.54-13.04-1.56-20.06-4.86-35.88-20.68-40.74-40.74-1.02-4.18-1.56-8.54-1.56-13.04 0-5.72 0.88-11.26 2.52-16.46 0.88-2.92 2.04-5.74 3.42-8.42 2.52-5.04 5.82-9.66 9.74-13.66 4.06-4.18 8.76-7.7 13.96-10.44a54.8 54.8 0 0 1 25.7-6.34c2.5 0 4.96 0.16 7.38 0.5 24.62 3.28 44.16 22.84 47.44 47.44 0.34 2.42 0.5 4.88 0.5 7.38z" opacity=".2" p-id="51249"></path><path d="M709.9 667.96a65.058 65.058 0 0 1-24.3 4.68c-0.5 0-1 0-1.5-0.02l-11.54-11.54-40.74-40.74-11.54-11.54c-0.02-0.5-0.02-1-0.02-1.5 0-8.58 1.66-16.78 4.68-24.3l7.84 7.84 77.12 77.12zM731.22 654.02a65.88 65.88 0 0 1-13.34 10.08l-7.4-7.4-74.28-74.28-7.38-7.38c2.76-4.88 6.16-9.36 10.06-13.34l7.06 7.06 78.2 78.2 7.08 7.06zM750.86 610.36a65.206 65.206 0 0 1-8.92 30l-7.36-7.36-74.68-74.68-7.36-7.36c8.88-5.22 19.1-8.4 30-8.92l68.32 68.32z" fill="#FFFFFF" opacity=".4" p-id="51250"></path><path d="M239.62 453.56a131.166 131.166 0 0 1-52.16 7.42L63.4 336.92a131.166 131.166 0 0 1 7.42-52.16l97.26 97.26h-13.32c-5.52 0-10 4.48-10 10s4.48 10 10 10h30.56v25.38c0 5.52 4.48 10 10 10s10-4.48 10-10v-8.14l34.3 34.3zM224.1 369.1c-3.32 7.6-10.9 12.92-19.7 12.92h-13.16l-113.42-113.4c5.08-9.84 11.36-18.96 18.64-27.16L145.4 290.4c-0.42 2.32-0.64 4.72-0.64 7.18 0 22.88 18.6 41.48 41.48 41.48h7.82l30.04 30.04zM282.92 427.92c-8.2 7.3-17.32 13.56-27.14 18.64l-45.08-45.06c11.64-1.78 21.72-8.4 28.04-17.76l44.18 44.18zM185.32 256.14c-7.48 0.18-14.48 2.34-20.5 5.96L121.92 219.2a131.304 131.304 0 0 1 55.06-21.02l57.92 57.92h-29.58v-25.36c0-5.54-4.48-10-10-10s-10 4.46-10 10v25.4zM326.2 347.4a130.9 130.9 0 0 1-21.04 55.06L179.8 277.1c2.04-0.66 4.2-1 6.44-1h49.64c5.2 0 9.5-3.98 9.94-9.08l80.38 80.38z" fill="#FFFFFF" opacity=".4" p-id="51251"></path><path d="M80.16 481.22h15.5v21.82h-15.5zM110.82 481.22h15.52v21.82h-15.52zM141.5 481.22h15.5v21.82h-15.5zM172.16 481.22h15.5v21.82h-15.5zM202.82 481.22h15.52v21.82h-15.52zM233.5 481.22h15.5v21.82h-15.5zM264.16 481.22h15.5v21.82h-15.5zM294.82 481.22h15.52v21.82h-15.52z" fill="#FFFFFF" opacity=".4" p-id="51252"></path><path d="M80.16 523.05h15.5v21.82h-15.5zM110.82 523.05h15.52v21.82h-15.52zM141.5 523.05h15.5v21.82h-15.5zM172.16 523.05h15.5v21.82h-15.5zM202.82 523.05h15.52v21.82h-15.52zM233.5 523.05h15.5v21.82h-15.5zM264.16 523.05h15.5v21.82h-15.5zM294.82 523.05h15.52v21.82h-15.52z" fill="#FFFFFF" opacity=".4" p-id="51253"></path><path d="M80.16 564.88h15.5v21.82h-15.5zM110.82 564.88h15.52v21.82h-15.52zM141.5 564.88h15.5v21.82h-15.5zM172.16 564.88h15.5v21.82h-15.5zM202.82 564.88h15.52v21.82h-15.52zM233.5 564.88h15.5v21.82h-15.5zM264.16 564.88h15.5v21.82h-15.5zM294.82 564.88h15.52v21.82h-15.52z" fill="#FFFFFF" opacity=".4" p-id="51254"></path><path d="M80.16 606.71h15.5v21.82h-15.5zM110.82 606.71h15.52v21.82h-15.52zM141.5 606.71h15.5v21.82h-15.5zM172.16 606.71h15.5v21.82h-15.5zM202.82 606.71h15.52v21.82h-15.52zM233.5 606.71h15.5v21.82h-15.5zM264.16 606.71h15.5v21.82h-15.5zM294.82 606.71h15.52v21.82h-15.52z" fill="#FFFFFF" opacity=".4" p-id="51255"></path><path d="M80.16 648.54h15.5v21.82h-15.5zM110.82 648.54h15.52v21.82h-15.52zM141.5 648.54h15.5v21.82h-15.5zM172.16 648.54h15.5v21.82h-15.5zM202.82 648.54h15.52v21.82h-15.52zM233.5 648.54h15.5v21.82h-15.5zM264.16 648.54h15.5v21.82h-15.5zM294.82 648.54h15.52v21.82h-15.52z" fill="#FFFFFF" opacity=".4" p-id="51256"></path><path d="M80.16 690.37h15.5v21.82h-15.5zM110.82 690.37h15.52v21.82h-15.52zM141.5 690.37h15.5v21.82h-15.5zM172.16 690.37h15.5v21.82h-15.5zM202.82 690.37h15.52v21.82h-15.52zM233.5 690.37h15.5v21.82h-15.5zM264.16 690.37h15.5v21.82h-15.5zM294.82 690.37h15.52v21.82h-15.52z" fill="#FFFFFF" opacity=".4" p-id="51257"></path><path d="M80.16 732.2h15.5v21.82h-15.5zM110.82 732.2h15.52v21.82h-15.52zM141.5 732.2h15.5v21.82h-15.5zM172.16 732.2h15.5v21.82h-15.5zM202.82 732.2h15.52v21.82h-15.52zM233.5 732.2h15.5v21.82h-15.5zM264.16 732.2h15.5v21.82h-15.5zM294.82 732.2h15.52v21.82h-15.52z" fill="#FFFFFF" opacity=".4" p-id="51258"></path><path d="M80.16 774.03h15.5v21.82h-15.5zM110.82 774.03h15.52v21.82h-15.52zM141.5 774.03h15.5v21.82h-15.5zM172.16 774.03h15.5v21.82h-15.5zM202.82 774.03h15.52v21.82h-15.52zM233.5 774.03h15.5v21.82h-15.5zM264.16 774.03h15.5v21.82h-15.5zM294.82 774.03h15.52v21.82h-15.52z" fill="#FFFFFF" opacity=".4" p-id="51259"></path><path d="M80.16 815.86h15.5v21.82h-15.5zM110.82 815.86h15.52v21.82h-15.52zM141.5 815.86h15.5v21.82h-15.5zM172.16 815.86h15.5v21.82h-15.5zM202.82 815.86h15.52v21.82h-15.52zM233.5 815.86h15.5v21.82h-15.5zM264.16 815.86h15.5v21.82h-15.5zM294.82 815.86h15.52v21.82h-15.52z" fill="#FFFFFF" opacity=".4" p-id="51260"></path><path d="M80.16 857.69h15.5v21.82h-15.5zM110.82 857.69h15.52v21.82h-15.52zM141.5 857.69h15.5v21.82h-15.5zM172.16 857.69h15.5v21.82h-15.5zM202.82 857.69h15.52v21.82h-15.52zM233.5 857.69h15.5v21.82h-15.5zM264.16 857.69h15.5v21.82h-15.5zM294.82 857.69h15.52v21.82h-15.52z" fill="#FFFFFF" opacity=".4" p-id="51261"></path><path d="M80.16 899.52h15.5v21.82h-15.5zM110.82 899.52h15.52v21.82h-15.52zM141.5 899.52h15.5v21.82h-15.5zM172.16 899.52h15.5v21.82h-15.5zM202.82 899.52h15.52v21.82h-15.52zM233.5 899.52h15.5v21.82h-15.5zM264.16 899.52h15.5v21.82h-15.5zM294.82 899.52h15.52v21.82h-15.52z" fill="#FFFFFF" opacity=".4" p-id="51262"></path></svg>