<?xml version="1.0" standalone="no"?><!DOCTYPE svg PUBLIC "-//W3C//DTD SVG 1.1//EN" "http://www.w3.org/Graphics/SVG/1.1/DTD/svg11.dtd"><svg t="1625812160914" class="icon" viewBox="0 0 1024 1024" version="1.1" xmlns="http://www.w3.org/2000/svg" p-id="52578" xmlns:xlink="http://www.w3.org/1999/xlink" width="200" height="200"><defs><style type="text/css"></style></defs><path d="M936.1 361.7l-91-18.26V198.52c0-19.24-15.66-34.9-34.9-34.9H94.76c-19.24 0-34.9 15.66-34.9 34.9v438.14c0 19.24 15.66 34.9 34.9 34.9h13.8l-1.24 6.18c-1.84 9.14-0.02 18.44 5.16 26.2 5.16 7.76 13.04 13.04 22.18 14.88l701.46 140.86c2.26 0.46 4.58 0.7 6.88 0.7 16.56 0 30.94-11.8 34.2-28.04l86.26-429.54c3.78-18.86-8.48-37.3-27.36-41.1zM112.56 651.56h-17.8c-8.22 0-14.9-6.68-14.9-14.9V198.52c0-8.2 6.68-14.9 14.9-14.9H810.2c8.22 0 14.9 6.7 14.9 14.9v140.9l-590.44-118.58c-2.28-0.44-4.6-0.68-6.9-0.68-16.54 0-30.92 11.8-34.2 28.04l-81 403.36zM857.6 828.4c-1.4 6.94-7.54 11.98-14.6 11.98-0.98 0-1.98-0.1-2.96-0.3L138.6 699.22a14.786 14.786 0 0 1-9.48-6.36 14.808 14.808 0 0 1-2.2-11.18l3.64-18.1 44.56-221.9 730.66 146.76L857.6 828.4z m52.08-259.58L179.06 422.08l20.92-104.22 730.64 146.74-20.94 104.22z m34.16-169.96l-9.26 46.12-730.66-146.74 9.26-46.1c1.4-6.94 7.52-11.98 14.58-11.98 0.98 0 1.98 0.1 2.96 0.3l602.3 120.94c0.04 0.02 0.1 0.02 0.14 0.04l99 19.88c8.06 1.62 13.3 9.48 11.68 17.54z" fill="#23130D" p-id="52579"></path><path d="M825.1 198.52v140.9l-0.54-0.1-15.5-3.12-15.16-3.04-15.5-3.12-15.16-3.04-15.52-3.12-15.16-3.04-15.5-3.12-15.16-3.04-15.5-3.12-14.02-2.82-15.5-3.1-15.16-3.04-15.52-3.12-15.16-3.06-15.5-3.1-15.16-3.04-15.5-3.12-15.16-3.04-15.52-3.12-15.16-3.04-15.5-3.12-15.16-3.04-15.5-3.12-15.16-3.04-15.52-3.12-14-2.82-15.52-3.1-15.16-3.06-15.5-3.1-15.16-3.04-15.5-3.12-15.16-3.04-15.52-3.12-15.16-3.04-15.5-3.12-15.16-3.04-15.5-3.12-15.16-3.04-9.54-1.92c-1.98-0.38-3.98-0.62-5.98-0.66-0.3-0.02-0.62-0.02-0.92-0.02-5.04 0-9.86 1.1-14.24 3.08-6.38 2.86-11.8 7.62-15.5 13.62a34.636 34.636 0 0 0-4.46 11.34L184 295.8l-15.5 77.2-15.16 75.48-15.5 77.2-15.16 75.48-10.12 50.4h-17.8c-0.94 0-1.88-0.08-2.76-0.26-6.9-1.3-12.14-7.36-12.14-14.64V198.52c0-7.26 5.24-13.34 12.14-14.64 0.88-0.18 1.82-0.26 2.76-0.26H810.2c6.86 0 12.64 4.66 14.36 10.96 0.36 1.26 0.54 2.58 0.54 3.94z" fill="#636368" p-id="52580"></path><path d="M943.84 398.86l-9.26 46.12-730.66-146.74 9.26-46.1c1.4-6.94 7.52-11.98 14.58-11.98 0.98 0 1.98 0.1 2.96 0.3l602.3 120.94c0.04 0.02 0.1 0.02 0.14 0.04l99 19.88c8.06 1.62 13.3 9.48 11.68 17.54z" fill="#E1E1E5" p-id="52581"></path><path d="M930.62 464.6l-20.94 104.22-170.72-34.28-107.18-21.54-67.2-13.5-64.48-12.94-32.62-6.56-83.9-16.84-204.52-41.08 20.92-104.22 47.92 9.62 83.9 16.86 32.62 6.54 64.48 12.96 67.2 13.5 107.18 21.52z" fill="#3594BF" p-id="52582"></path><path d="M207.816 329.634l711.03 142.802-17 84.612-711.014-142.804 16.984-84.61m-7.836-11.774l-20.92 104.22 730.62 146.74 20.94-104.22-730.64-146.74z" opacity=".2" p-id="52583"></path><path d="M905.78 588.44L857.6 828.4c-1.4 6.94-7.54 11.98-14.6 11.98-0.98 0-1.98-0.1-2.96-0.3L138.6 699.22a14.786 14.786 0 0 1-9.48-6.36 14.808 14.808 0 0 1-2.2-11.18l3.64-18.1 44.56-221.9 730.66 146.76z" fill="#E1E1E5" p-id="52584"></path><path d="M92 183.88v467.42c-6.9-1.3-12.14-7.36-12.14-14.64V198.52c0-7.26 5.24-13.34 12.14-14.64zM122.68 183.62v417.54l-10.12 50.4h-5.4V183.62zM153.34 183.62v264.86l-15.5 77.2V183.62zM184 183.62v112.18l-15.5 77.2V183.62z" fill="#FFFFFF" opacity=".2" p-id="52585"></path><path d="M213.52 183.62v39.62c-6.38 2.86-11.8 7.62-15.5 13.62V183.62h15.5zM244.2 183.62v39.14l-9.54-1.92c-1.98-0.38-3.98-0.62-5.98-0.66V183.62h15.52zM274.86 183.62v45.3l-15.5-3.12V183.62zM305.52 183.62v51.46l-15.5-3.12V183.62zM336.2 183.62v57.62l-15.52-3.12V183.62zM366.86 183.62v63.78l-15.5-3.12V183.62zM397.52 183.62v69.92l-15.5-3.1V183.62zM428.2 183.62v76.08l-15.52-3.1V183.62z" fill="#FFFFFF" opacity=".2" p-id="52586"></path><path d="M457.72 183.62v82.02l-15.52-3.12V183.62zM488.38 183.62v88.18l-15.5-3.12V183.62zM519.04 183.62v94.34l-15.5-3.12V183.62zM549.72 183.62v100.5l-15.52-3.12V183.62zM580.38 183.62v106.66l-15.5-3.12V183.62zM611.04 183.62v112.8l-15.5-3.1V183.62zM641.72 183.62v118.98l-15.52-3.12V183.62zM672.38 183.62v125.12l-15.5-3.1V183.62z" fill="#FFFFFF" opacity=".2" p-id="52587"></path><path d="M701.9 183.62v131.06l-15.5-3.12V183.62zM732.56 183.62v137.22l-15.5-3.12V183.62zM763.24 183.62v143.38l-15.52-3.12V183.62zM793.9 183.62v149.54l-15.5-3.12V183.62zM824.56 194.58v144.74l-15.5-3.12V183.62h1.14c6.86 0 12.64 4.66 14.36 10.96z" fill="#FFFFFF" opacity=".2" p-id="52588"></path><path d="M467.48 480l-83.9-16.84-135.68-135.68 83.9 16.86zM564.58 499.5l-64.48-12.94-135.68-135.68 64.48 12.96zM738.96 534.54l-107.18-21.54-135.68-135.66 107.18 21.52z" fill="#FFFFFF" opacity=".4" p-id="52589"></path></svg>