<?xml version="1.0" standalone="no"?><!DOCTYPE svg PUBLIC "-//W3C//DTD SVG 1.1//EN" "http://www.w3.org/Graphics/SVG/1.1/DTD/svg11.dtd"><svg t="1625812376061" class="icon" viewBox="0 0 1024 1024" version="1.1" xmlns="http://www.w3.org/2000/svg" p-id="63104" xmlns:xlink="http://www.w3.org/1999/xlink" width="200" height="200"><defs><style type="text/css"></style></defs><path d="M568.74 524.08c0 25.52-20.76 46.28-46.28 46.28H522v30.76c0 5.54-4.48 10-10 10-5.54 0-10-4.46-10-10v-30.76h-36.76c-5.52 0-10-4.48-10-10s4.48-10 10-10h57.22c14.48 0 26.28-11.8 26.28-26.28 0-14.5-11.8-26.28-26.28-26.28h-20.94c-25.52 0-46.28-20.76-46.28-46.28s20.76-46.3 46.28-46.3h0.48v-30.76c0-5.52 4.46-10 10-10 5.52 0 10 4.48 10 10v30.76h36.74c5.52 0 10 4.48 10 10s-4.48 10-10 10h-57.22c-14.48 0-26.28 11.8-26.28 26.3 0 14.48 11.8 26.28 26.28 26.28h20.94c25.52 0 46.28 20.76 46.28 46.28zM260.22 434.34c-29.46 0-53.44 23.98-53.44 53.46s23.98 53.44 53.44 53.44c29.48 0 53.46-23.96 53.46-53.44 0-29.48-23.98-53.46-53.46-53.46z m0 86.9c-18.44 0-33.44-15-33.44-33.44 0-18.44 15-33.46 33.44-33.46 18.46 0 33.46 15.02 33.46 33.46s-15 33.44-33.46 33.44z" fill="#23130D" p-id="63105"></path><path d="M512 323.68h-0.02c-90.48 0.02-164.08 73.64-164.08 164.12s73.62 164.1 164.1 164.1h0.02c90.48-0.02 164.08-73.62 164.08-164.1 0-90.5-73.62-164.12-164.1-164.12z m0 308.22h-0.02c-79.44-0.02-144.08-64.64-144.08-144.1s64.64-144.12 144.1-144.12h0.02c79.44 0 144.08 64.66 144.08 144.12 0 79.46-64.64 144.1-144.1 144.1z" fill="#23130D" p-id="63106"></path><path d="M886.02 390.56v-104.26c0-5.54-4.48-10-10-10H147.98c-5.52 0-10 4.46-10 10v104.26c0 0.04 0.02 0.1 0.02 0.14v194.24c0 0.04-0.02 0.08-0.02 0.1v104.28c0 5.52 4.48 10 10 10H252.28c0.08 0 0.14-0.02 0.22-0.02h519.02c0.08 0 0.16 0.02 0.24 0.02h104.26c5.52 0 10-4.48 10-10v-104.28c0-0.02 0-0.06-0.02-0.08v-194.26c0.02-0.06 0.02-0.1 0.02-0.14zM158 296.3h83.72c-2.24 21.38-11.66 41.2-27.1 56.64-15.42 15.42-35.24 24.84-56.62 27.1v-83.74z m0 383v-83.72c43.98 4.66 79.04 39.72 83.72 83.72H158z m708 0h-83.72c4.68-44 39.74-79.06 83.72-83.72v83.72z m0-103.78c-55.02 4.78-98.98 48.74-103.78 103.78H261.78c-4.82-55.04-48.76-98.98-103.78-103.78v-175.42c26.72-2.3 51.56-13.82 70.76-33.02 19.22-19.22 30.72-44.06 33.02-70.78h500.44c2.3 26.72 13.8 51.56 33.02 70.78 19.2 19.2 44.04 30.72 70.76 33.02v175.42z m0-195.48c-21.38-2.26-41.2-11.68-56.62-27.1-15.44-15.44-24.86-35.26-27.1-56.64H866v83.74z" fill="#23130D" p-id="63107"></path><path d="M866 296.3v83.74c-21.38-2.26-41.2-11.68-56.62-27.1-15.44-15.44-24.86-35.26-27.1-56.64H866zM866 595.58v83.72h-83.72c4.68-44 39.74-79.06 83.72-83.72zM241.72 296.3c-2.24 21.38-11.66 41.2-27.1 56.64-15.42 15.42-35.24 24.84-56.62 27.1v-83.74h83.72zM241.72 679.3H158v-83.72c43.98 4.66 79.04 39.72 83.72 83.72z" fill="#E1E1E5" p-id="63108"></path><path d="M795.24 367.08c-19.22-19.22-30.72-44.06-33.02-70.78H261.78c-2.3 26.72-13.8 51.56-33.02 70.78-19.2 19.2-44.04 30.72-70.76 33.02v175.42c55.02 4.8 98.96 48.74 103.78 103.78h500.44c4.8-55.04 48.76-99 103.78-103.78v-175.42c-26.72-2.3-51.56-13.82-70.76-33.02z m-535.02 174.16c-29.46 0-53.44-23.96-53.44-53.44 0-29.48 23.98-53.46 53.44-53.46 29.48 0 53.46 23.98 53.46 53.46s-23.98 53.44-53.46 53.44z m251.8 110.66H512c-90.48 0-164.1-73.62-164.1-164.1 0-90.48 73.6-164.1 164.08-164.12h0.02c90.48 0 164.1 73.62 164.1 164.12 0 90.48-73.6 164.08-164.08 164.1z m251.76-110.66c-29.48 0-53.46-23.96-53.46-53.44 0-29.48 23.98-53.46 53.46-53.46 29.46 0 53.44 23.98 53.44 53.46s-23.98 53.44-53.44 53.44z" fill="#72AF5F" p-id="63109"></path><path d="M753.392 306.3a124.26 124.26 0 0 0 34.778 67.85c18.476 18.476 42.286 30.628 67.832 34.778v157.76c-52.764 8.506-94.09 49.83-102.61 102.612H270.606c-8.534-52.764-49.86-94.088-102.606-102.608v-157.762c25.544-4.15 49.356-16.302 67.832-34.778a124.266 124.266 0 0 0 34.778-67.852h482.782M512 661.9h0.024c95.986-0.022 174.078-78.122 174.078-174.1 0-96.01-78.1-174.12-174.122-174.12-95.986 0.022-174.078 78.13-174.078 174.12-0.002 96 78.098 174.1 174.098 174.1m251.78-110.66c34.98 0 63.44-28.458 63.44-63.44 0-34.992-28.46-63.46-63.44-63.46-34.992 0-63.46 28.468-63.46 63.46 0 34.98 28.468 63.44 63.46 63.44m-503.56 0c34.992 0 63.46-28.458 63.46-63.44 0-34.992-28.468-63.46-63.46-63.46-34.98 0-63.44 28.468-63.44 63.46 0 34.98 28.46 63.44 63.44 63.44m502-254.94H261.78c-2.3 26.72-13.8 51.56-33.02 70.78-19.2 19.2-44.04 30.72-70.76 33.02v175.42c55.02 4.8 98.96 48.74 103.78 103.78h500.44c4.8-55.04 48.76-99 103.78-103.78v-175.42c-26.72-2.3-51.56-13.82-70.76-33.02-19.22-19.22-30.72-44.06-33.02-70.78zM512 651.9c-90.48 0-164.1-73.62-164.1-164.1 0-90.48 73.6-164.1 164.08-164.12h0.02c90.48 0 164.1 73.62 164.1 164.12 0 90.48-73.6 164.08-164.08 164.1H512z m251.78-110.66c-29.48 0-53.46-23.96-53.46-53.44 0-29.48 23.98-53.46 53.46-53.46 29.46 0 53.44 23.98 53.44 53.46s-23.98 53.44-53.44 53.44z m-503.56 0c-29.46 0-53.44-23.96-53.44-53.44 0-29.48 23.98-53.46 53.44-53.46 29.48 0 53.46 23.98 53.46 53.46s-23.98 53.44-53.46 53.44z" opacity=".2" p-id="63110"></path><path d="M293.68 487.8c0 18.44-15 33.44-33.46 33.44-18.44 0-33.44-15-33.44-33.44 0-18.44 15-33.46 33.44-33.46 18.46 0 33.46 15.02 33.46 33.46zM512.02 343.68H512c-79.46 0-144.1 64.66-144.1 144.12 0 79.46 64.64 144.08 144.08 144.1h0.02c79.46 0 144.1-64.64 144.1-144.1s-64.64-144.12-144.08-144.12z m-10.5 134.12h20.94c25.52 0 46.28 20.76 46.28 46.28s-20.76 46.28-46.28 46.28H522v30.76c0 5.54-4.48 10-10 10-5.54 0-10-4.46-10-10v-30.76h-36.76c-5.52 0-10-4.48-10-10s4.48-10 10-10h57.22c14.48 0 26.28-11.8 26.28-26.28 0-14.5-11.8-26.28-26.28-26.28h-20.94c-25.52 0-46.28-20.76-46.28-46.28s20.76-46.3 46.28-46.3h0.48v-30.76c0-5.52 4.46-10 10-10 5.52 0 10 4.48 10 10v30.76h36.74c5.52 0 10 4.48 10 10s-4.48 10-10 10h-57.22c-14.48 0-26.28 11.8-26.28 26.3 0 14.48 11.8 26.28 26.28 26.28z" fill="#E1E1E5" p-id="63111"></path><path d="M763.78 434.34c-29.48 0-53.46 23.98-53.46 53.46s23.98 53.44 53.46 53.44c29.46 0 53.44-23.96 53.44-53.44 0-29.48-23.98-53.46-53.44-53.46z m0 86.9c-18.46 0-33.46-15-33.46-33.44 0-18.44 15-33.46 33.46-33.46 18.44 0 33.44 15.02 33.44 33.46s-15 33.44-33.44 33.44z" fill="#23130D" p-id="63112"></path><path d="M797.22 487.8c0 18.44-15 33.44-33.44 33.44-18.46 0-33.46-15-33.46-33.44 0-18.44 15-33.46 33.46-33.46 18.44 0 33.44 15.02 33.44 33.46z" fill="#E1E1E5" p-id="63113"></path><path d="M876.024 727.71H147.992a10 10 0 1 0 0 20h728.032a10 10 0 1 0 0-20zM237.316 235.188a10.002 10.002 0 0 0 13.166-5.162c45.414-103.98 148.064-171.166 261.516-171.166 105.92 0 202.41 58.576 251.712 150.97L685.94 186.186a10 10 0 0 0-5.816 19.134l99.706 30.312a9.976 9.976 0 0 0 7.616-0.746 10.006 10.006 0 0 0 4.86-5.914l30.31-99.706a10 10 0 0 0-19.136-5.816l-22.944 75.476C727.538 100.92 624.772 38.858 512 38.858c-121.402 0-231.248 71.896-279.844 183.164a9.998 9.998 0 0 0 5.16 13.166zM817.048 788.812a10 10 0 0 0-13.166 5.162c-45.414 103.98-148.066 171.168-261.516 171.168-105.922 0-202.412-58.578-251.714-150.972l77.774 23.644a10 10 0 1 0 5.816-19.136l-99.706-30.31c-0.276-0.084-0.56-0.108-0.84-0.166a10.004 10.004 0 0 0-2.038-0.216h-0.166a9.952 9.952 0 0 0-4.57 1.13 10.002 10.002 0 0 0-4.858 5.914l-30.31 99.706a10 10 0 0 0 19.136 5.816l22.944-75.472c52.998 98.004 155.764 160.066 268.536 160.066 121.402 0 231.246-71.896 279.844-183.164a10.006 10.006 0 0 0-5.166-13.17z" fill="#23130D" p-id="63114"></path></svg>