<?xml version="1.0" standalone="no"?><!DOCTYPE svg PUBLIC "-//W3C//DTD SVG 1.1//EN" "http://www.w3.org/Graphics/SVG/1.1/DTD/svg11.dtd"><svg t="1625811608849" class="icon" viewBox="0 0 1024 1024" version="1.1" xmlns="http://www.w3.org/2000/svg" p-id="36508" xmlns:xlink="http://www.w3.org/1999/xlink" width="200" height="200"><defs><style type="text/css"></style></defs><path d="M924.78 393.4h-51.48V139.06c0-58.46-47.56-106-106.02-106-58.44 0-106 47.54-106 106l-0.02 107.22c0 26.42-11.78 50.72-32 66.96l-44.88-99.5a10.02 10.02 0 0 0-9.12-5.9 10.04 10.04 0 0 0-9.12 5.9l-44.86 99.5c-20.24-16.24-32.02-40.54-32.02-66.96V139.06c0-58.46-47.56-106-106.02-106-58.42 0-105.96 47.5-106 105.92v215.08h-41.76c-5.52 0-10 4.46-10 10v29.34c-16.2 0.14-29.36 13.36-29.36 29.62v0.86c0 10.68 5.72 20.04 14.24 25.26v120.5c-61.42 23.16-107.88 72.26-128.7 132.24-0.14 0.34-0.26 0.68-0.34 1.04-7.6 22.24-11.72 45.96-11.72 70.4 0 120 97.64 217.62 217.64 217.62s217.64-97.62 217.64-217.62c0-24.5-4.12-48.24-11.76-70.52-0.08-0.28-0.16-0.54-0.26-0.8-20.8-60.02-67.3-109.18-128.74-132.36v-120.52c8.5-5.2 14.22-14.56 14.22-25.24v-0.86c0-16.26-13.16-29.48-29.36-29.62v-29.34c0-5.54-4.48-10-10-10h-41.74V139.06c0-47.42 38.58-86 86-86 47.44 0 86.02 38.58 86.02 86v107.22c0 34.32 16.16 65.7 43.58 85.66l-8.44 18.74a80.354 80.354 0 0 0-9.26 37.44c0 44.18 35.94 80.14 80.12 80.14 44.18 0 80.14-35.96 80.14-80.14 0-13.06-3.2-26-9.26-37.44l-8.46-18.76c27.42-19.94 43.58-51.32 43.58-85.64l0.02-107.22c0-47.42 38.58-86 86-86 47.4 0 85.98 38.54 86.02 85.92V393.4H801.8c-16.34 0-29.62 13.28-29.62 29.62v0.86c0 10.68 5.72 20.04 14.22 25.24v464.94h0.02c0 42.4 34.48 76.88 76.88 76.88 42.38 0 76.88-34.48 76.88-76.88V449.12c8.5-5.2 14.22-14.56 14.22-25.24v-0.86c0-16.34-13.3-29.62-29.62-29.62zM484.88 773.32c0 108.96-88.66 197.62-197.64 197.62S89.6 882.28 89.6 773.32a197.6 197.6 0 0 1 6.2-49.06c6.5 5.74 14.96 10.9 28.16 10.9 17.8 0 26.98-9.4 34.36-16.94 6.42-6.56 10.66-10.9 20.06-10.9s13.64 4.34 20.06 10.9c7.36 7.54 16.54 16.94 34.36 16.94 17.8 0 26.98-9.4 34.36-16.94 6.42-6.56 10.66-10.9 20.06-10.9s13.64 4.34 20.06 10.9c7.36 7.54 16.54 16.94 34.36 16.94s27-9.4 34.38-16.94c6.42-6.56 10.66-10.9 20.04-10.9 9.4 0 13.64 4.34 20.06 10.9 7.38 7.54 16.56 16.94 34.38 16.94 13.22 0 21.68-5.16 28.18-10.92a197.76 197.76 0 0 1 6.2 49.08z m-12.98-70.42l-1.32 1.32c-6.42 6.58-10.66 10.94-20.08 10.94-9.4 0-13.64-4.34-20.08-10.92-7.36-7.54-16.54-16.92-34.36-16.92-17.8 0-26.98 9.38-34.36 16.92-6.42 6.58-10.66 10.92-20.06 10.92s-13.64-4.34-20.06-10.92c-7.38-7.54-16.56-16.92-34.36-16.92-17.82 0-27 9.38-34.36 16.92-6.42 6.58-10.66 10.92-20.06 10.92-9.4 0-13.64-4.34-20.06-10.92-7.38-7.54-16.56-16.92-34.36-16.92-17.82 0-27 9.38-34.36 16.92-6.42 6.58-10.66 10.92-20.06 10.92-9.4 0-13.66-4.36-20.08-10.94-0.42-0.42-0.88-0.88-1.3-1.32 20.54-53.9 64.12-97.42 121-116.76l6.78-2.3v-130.34h113.76v130.34l6.78 2.3c56.86 19.36 100.46 62.86 121 116.76zM338.98 413.4h9.74c5.3 0 9.62 4.3 9.62 9.62v0.86c0 5.3-4.32 9.62-9.62 9.62h-122.98c-5.3 0-9.62-4.32-9.62-9.62v-0.86c0-5.32 4.32-9.62 9.62-9.62H338.98z m-10-39.34v19.34h-83.5v-19.34h83.5z m246.28 74.2c-33.16 0-60.12-26.98-60.12-60.14 0-9.88 2.44-19.68 7.06-28.32l0.3-0.6 52.76-117.02 52.78 117.02c0.08 0.2 0.18 0.4 0.3 0.6 4.62 8.64 7.06 18.42 7.06 28.32 0 33.16-26.98 60.14-60.14 60.14z m344.92 465.8c0 31.36-25.52 56.88-56.88 56.88-31.38 0-56.88-25.52-56.88-56.88h-0.02v-120.7c0.82 0.04 1.62 0.12 2.46 0.12 17.8 0 26.98-9.4 34.36-16.94 6.42-6.56 10.66-10.9 20.06-10.9 9.38 0 13.62 4.34 20.04 10.9 7.38 7.54 16.56 16.94 34.38 16.94 0.84 0 1.66-0.08 2.48-0.12v120.7z m0-375.2h-46.88c-5.52 0-10 4.48-10 10 0 5.54 4.48 10 10 10h46.88v15.54h-24.12c-5.52 0-10 4.48-10 10 0 5.54 4.48 10 10 10h24.12v15.56h-46.88c-5.52 0-10 4.46-10 10 0 5.52 4.48 10 10 10h46.88v15.52h-24.12c-5.52 0-10 4.48-10 10 0 5.54 4.48 10 10 10h24.12v15.56h-46.88c-5.52 0-10 4.48-10 10s4.48 10 10 10h46.88v15.54h-24.12c-5.52 0-10 4.48-10 10s4.48 10 10 10h24.12v36.78c-0.8 0.08-1.62 0.12-2.48 0.12-9.4 0-13.64-4.34-20.06-10.92-7.38-7.54-16.56-16.92-34.36-16.92-17.82 0-27 9.38-34.38 16.94-6.42 6.56-10.66 10.9-20.04 10.9-0.86 0-1.66-0.04-2.46-0.12V453.5h113.78v85.36z m14.22-114.98c0 5.3-4.32 9.62-9.62 9.62H801.8c-5.3 0-9.62-4.32-9.62-9.62v-0.86c0-5.32 4.32-9.62 9.62-9.62h122.98c5.3 0 9.62 4.3 9.62 9.62v0.86z" fill="#23130D" p-id="36509"></path><path d="M358.34 423.02v0.86c0 5.3-4.32 9.62-9.62 9.62h-122.98c-5.3 0-9.62-4.32-9.62-9.62v-0.86c0-5.32 4.32-9.62 9.62-9.62h122.98c5.3 0 9.62 4.3 9.62 9.62z" fill="#636368" p-id="36510"></path><path d="M358.34 423.02v0.86c0 5.3-4.32 9.62-9.62 9.62h-122.98c-5.3 0-9.62-4.32-9.62-9.62v-0.86c0-1.66 0.42-3.22 1.16-4.58 1.66 2.98 4.82 5.02 8.46 5.02h122.98c3.64 0 6.8-2.04 8.46-5.02 0.74 1.36 1.16 2.92 1.16 4.58z" fill="#23130D" opacity=".2" p-id="36511"></path><path d="M245.48 374.06h83.5v19.34h-83.5z" fill="#E1E1E5" p-id="36512"></path><path d="M245.48 384.75h83.5v8.65h-83.5z" fill="#23130D" opacity=".2" p-id="36513"></path><path d="M934.4 423.02v0.86c0 5.3-4.32 9.62-9.62 9.62H801.8c-5.3 0-9.62-4.32-9.62-9.62v-0.86c0-5.32 4.32-9.62 9.62-9.62h122.98c5.3 0 9.62 4.3 9.62 9.62z" fill="#636368" p-id="36514"></path><path d="M635.4 388.12c0 33.16-26.98 60.14-60.14 60.14s-60.12-26.98-60.12-60.14c0-9.88 2.44-19.68 7.06-28.32l0.3-0.6 52.76-117.02 52.78 117.02c0.08 0.2 0.18 0.4 0.3 0.6 4.62 8.64 7.06 18.42 7.06 28.32z" fill="#F9C139" p-id="36515"></path><path d="M588.6 446.76c-4.28 0.98-8.76 1.5-13.34 1.5-33.16 0-60.12-26.98-60.12-60.14 0-9.88 2.44-19.68 7.06-28.32l0.3-0.6 52.76-117.02 13.34 29.56-39.44 87.46-0.3 0.6a60.268 60.268 0 0 0-7.06 28.32c0 28.58 20.04 52.58 46.8 58.64z" fill="#23130D" opacity=".2" p-id="36516"></path><path d="M863.3 548.86c0 5.54 4.48 10 10 10h46.88v15.54h-24.12c-5.52 0-10 4.48-10 10 0 5.54 4.48 10 10 10h24.12v15.56h-46.88c-5.52 0-10 4.46-10 10 0 5.52 4.48 10 10 10h46.88v15.52h-24.12c-5.52 0-10 4.48-10 10 0 5.54 4.48 10 10 10h24.12v15.56h-46.88c-5.52 0-10 4.48-10 10s4.48 10 10 10h46.88v15.54h-24.12c-5.52 0-10 4.48-10 10s4.48 10 10 10h24.12v36.78c-0.8 0.08-1.62 0.12-2.48 0.12-9.4 0-13.64-4.34-20.06-10.92-7.38-7.54-16.56-16.92-34.36-16.92-17.82 0-27 9.38-34.38 16.94-6.42 6.56-10.66 10.9-20.04 10.9-0.86 0-1.66-0.04-2.46-0.12V453.5h113.78v85.36h-46.88c-5.52 0-10 4.48-10 10z" fill="#E1E1E5" p-id="36517"></path><path d="M920.18 751.36v22c-0.8 0.08-1.62 0.12-2.48 0.12-9.4 0-13.64-4.34-20.06-10.92-7.38-7.54-16.56-16.92-34.36-16.92-17.82 0-27 9.38-34.38 16.94-6.42 6.56-10.66 10.9-20.04 10.9-0.86 0-1.66-0.04-2.46-0.12v-22c0.8 0.08 1.6 0.12 2.46 0.12 9.38 0 13.62-4.34 20.04-10.9 7.38-7.56 16.56-16.94 34.38-16.94 10.5 0 17.98 3.26 23.88 7.5a9.912 9.912 0 0 0 6.06 5.02c1.56 1.48 3.02 2.98 4.42 4.4 6.42 6.58 10.66 10.92 20.06 10.92 0.86 0 1.68-0.04 2.48-0.12z" fill="#23130D" opacity=".2" p-id="36518"></path><path d="M478.68 724.24c-6.5 5.76-14.96 10.92-28.18 10.92-17.82 0-27-9.4-34.38-16.94-6.42-6.56-10.66-10.9-20.06-10.9-9.38 0-13.62 4.34-20.04 10.9-7.38 7.54-16.56 16.94-34.38 16.94-17.82 0-27-9.4-34.36-16.94-6.42-6.56-10.66-10.9-20.06-10.9s-13.64 4.34-20.06 10.9c-7.38 7.54-16.56 16.94-34.36 16.94-17.82 0-27-9.4-34.36-16.94-6.42-6.56-10.66-10.9-20.06-10.9s-13.64 4.34-20.06 10.9c-7.38 7.54-16.56 16.94-34.36 16.94-13.2 0-21.66-5.16-28.16-10.9a197.6 197.6 0 0 0-6.2 49.06c0 108.96 88.66 197.62 197.64 197.62s197.64-88.66 197.64-197.62c0-16.84-2.16-33.3-6.2-49.08zM228 844c-24.62 0-44.66-20.04-44.66-44.66 0-24.64 20.04-44.68 44.66-44.68s44.66 20.04 44.66 44.68c0 24.62-20.04 44.66-44.66 44.66z m66.36 89.48c-15.94 0-28.9-12.96-28.9-28.9 0-15.94 12.96-28.9 28.9-28.9 15.94 0 28.9 12.96 28.9 28.9 0 15.94-12.96 28.9-28.9 28.9z m73.98-72.14c-18.38 0-33.34-14.96-33.34-33.34s14.96-33.34 33.34-33.34 33.32 14.96 33.32 33.34-14.94 33.34-33.32 33.34z" fill="#EC7063" p-id="36519"></path><path d="M478.68 724.24c-6.5 5.76-14.96 10.92-28.18 10.92-17.82 0-27-9.4-34.38-16.94-6.42-6.56-10.66-10.9-20.06-10.9-9.38 0-13.62 4.34-20.04 10.9-7.38 7.54-16.56 16.94-34.38 16.94-17.82 0-27-9.4-34.36-16.94-6.42-6.56-10.66-10.9-20.06-10.9s-13.64 4.34-20.06 10.9c-7.38 7.54-16.56 16.94-34.36 16.94-17.82 0-27-9.4-34.36-16.94-6.42-6.56-10.66-10.9-20.06-10.9s-13.64 4.34-20.06 10.9c-7.38 7.54-16.56 16.94-34.36 16.94-13.2 0-21.66-5.16-28.16-10.9a197.6 197.6 0 0 0-6.2 49.06c0 2.46 0.04 4.92 0.16 7.38 0.54-14.18 2.62-28.04 6.04-41.44 6.5 5.74 14.96 10.9 28.16 10.9 17.8 0 26.98-9.4 34.36-16.94 6.42-6.56 10.66-10.9 20.06-10.9s13.64 4.34 20.06 10.9c7.36 7.54 16.54 16.94 34.36 16.94 17.8 0 26.98-9.4 34.36-16.94 6.42-6.56 10.66-10.9 20.06-10.9s13.64 4.34 20.06 10.9c7.36 7.54 16.54 16.94 34.36 16.94s27-9.4 34.38-16.94c6.42-6.56 10.66-10.9 20.04-10.9 9.4 0 13.64 4.34 20.06 10.9 7.38 7.54 16.56 16.94 34.38 16.94 13.22 0 21.68-5.16 28.18-10.92 3.42 13.4 5.5 27.28 6.04 41.46 0.12-2.46 0.16-4.92 0.16-7.38 0-16.84-2.16-33.3-6.2-49.08z" fill="#23130D" opacity=".2" p-id="36520"></path><path d="M471.9 702.9l-1.32 1.32c-6.42 6.58-10.66 10.94-20.08 10.94-9.4 0-13.64-4.34-20.08-10.92-7.36-7.54-16.54-16.92-34.36-16.92-17.8 0-26.98 9.38-34.36 16.92-6.42 6.58-10.66 10.92-20.06 10.92s-13.64-4.34-20.06-10.92c-7.38-7.54-16.56-16.92-34.36-16.92-17.82 0-27 9.38-34.36 16.92-6.42 6.58-10.66 10.92-20.06 10.92-9.4 0-13.64-4.34-20.06-10.92-7.38-7.54-16.56-16.92-34.36-16.92-17.82 0-27 9.38-34.36 16.92-6.42 6.58-10.66 10.92-20.06 10.92-9.4 0-13.66-4.36-20.08-10.94-0.42-0.42-0.88-0.88-1.3-1.32 20.54-53.9 64.12-97.42 121-116.76l6.78-2.3v-130.34h113.76v130.34l6.78 2.3c56.86 19.36 100.46 62.86 121 116.76z" fill="#E1E1E5" p-id="36521"></path><path d="M471.9 702.9l-1.32 1.32c-6.42 6.58-10.66 10.94-20.08 10.94-9.4 0-13.64-4.34-20.08-10.92-7.36-7.54-16.54-16.92-34.36-16.92-17.8 0-26.98 9.38-34.36 16.92-6.42 6.58-10.66 10.92-20.06 10.92s-13.64-4.34-20.06-10.92c-7.38-7.54-16.56-16.92-34.36-16.92-17.82 0-27 9.38-34.36 16.92-6.42 6.58-10.66 10.92-20.06 10.92-9.4 0-13.64-4.34-20.06-10.92-7.38-7.54-16.56-16.92-34.36-16.92-17.82 0-27 9.38-34.36 16.92-6.42 6.58-10.66 10.92-20.06 10.92-9.4 0-13.66-4.36-20.08-10.94-0.42-0.42-0.88-0.88-1.3-1.32 1.26-3.32 2.62-6.62 4.08-9.86 5.04 4.98 9.32 8.12 17.3 8.12 9.4 0 13.64-4.34 20.06-10.92 7.36-7.54 16.54-16.92 34.36-16.92 17.8 0 26.98 9.38 34.36 16.92 6.42 6.58 10.66 10.92 20.06 10.92 9.4 0 13.64-4.34 20.06-10.92 7.36-7.54 16.54-16.92 34.36-16.92 17.8 0 26.98 9.38 34.36 16.92 6.42 6.58 10.66 10.92 20.06 10.92s13.64-4.34 20.06-10.92c7.38-7.54 16.56-16.92 34.36-16.92 17.82 0 27 9.38 34.36 16.92 6.44 6.58 10.68 10.92 20.08 10.92 8.02 0 12.28-3.16 17.32-8.14 1.46 3.26 2.82 6.54 4.08 9.88z" fill="#23130D" opacity=".2" p-id="36522"></path><path d="M228 754.66c-24.62 0-44.66 20.04-44.66 44.68 0 24.62 20.04 44.66 44.66 44.66s44.66-20.04 44.66-44.66c0-24.64-20.04-44.68-44.66-44.68z m0 69.34c-13.6 0-24.66-11.06-24.66-24.66 0-13.62 11.06-24.68 24.66-24.68s24.66 11.06 24.66 24.68c0 13.6-11.06 24.66-24.66 24.66z" fill="#23130D" p-id="36523"></path><path d="M252.66 799.34c0 13.6-11.06 24.66-24.66 24.66s-24.66-11.06-24.66-24.66c0-13.62 11.06-24.68 24.66-24.68s24.66 11.06 24.66 24.68z" fill="#F9C139" p-id="36524"></path><path d="M368.34 794.66c-18.38 0-33.34 14.96-33.34 33.34s14.96 33.34 33.34 33.34 33.32-14.96 33.32-33.34-14.94-33.34-33.32-33.34z m0 46.68c-7.36 0-13.34-6-13.34-13.34 0-7.36 5.98-13.34 13.34-13.34 7.34 0 13.32 5.98 13.32 13.34 0 7.34-5.98 13.34-13.32 13.34z" fill="#23130D" p-id="36525"></path><path d="M381.66 828c0 7.34-5.98 13.34-13.32 13.34-7.36 0-13.34-6-13.34-13.34 0-7.36 5.98-13.34 13.34-13.34 7.34 0 13.32 5.98 13.32 13.34z" fill="#F9C139" p-id="36526"></path><path d="M855.34 794.66c-18.38 0-33.34 14.96-33.34 33.34s14.96 33.34 33.34 33.34 33.32-14.96 33.32-33.34-14.94-33.34-33.32-33.34z m0 46.68c-7.36 0-13.34-6-13.34-13.34 0-7.36 5.98-13.34 13.34-13.34 7.34 0 13.32 5.98 13.32 13.34 0 7.34-5.98 13.34-13.32 13.34z" fill="#23130D" p-id="36527"></path><path d="M917.7 793.48c-17.82 0-27-9.4-34.38-16.94-6.42-6.56-10.66-10.9-20.04-10.9-9.4 0-13.64 4.34-20.06 10.9-7.38 7.54-16.56 16.94-34.36 16.94-0.84 0-1.64-0.08-2.46-0.12v120.7h0.02c0 31.36 25.5 56.88 56.88 56.88 31.36 0 56.88-25.52 56.88-56.88v-120.7c-0.82 0.04-1.64 0.12-2.48 0.12zM822 828c0-18.38 14.96-33.34 33.34-33.34s33.32 14.96 33.32 33.34-14.94 33.34-33.32 33.34S822 846.38 822 828z m51.52 111.9c-14.26 0-25.86-11.58-25.86-25.84s11.6-25.84 25.86-25.84c14.24 0 25.84 11.58 25.84 25.84s-11.6 25.84-25.84 25.84z" fill="#72AF5F" p-id="36528"></path><path d="M917.7 793.48c-17.82 0-27-9.4-34.38-16.94-6.42-6.56-10.66-10.9-20.04-10.9-9.4 0-13.64 4.34-20.06 10.9-7.38 7.54-16.56 16.94-34.36 16.94-0.84 0-1.64-0.08-2.46-0.12v19.92c0.82 0.06 1.62 0.12 2.46 0.12 7.94 0 14.16-1.88 19.26-4.62a33.54 33.54 0 0 1 14.34-11.54c0.26-0.26 0.52-0.5 0.76-0.76 6.42-6.58 10.66-10.9 20.06-10.9 9.38 0 13.62 4.32 20.04 10.9 7.38 7.52 16.56 16.92 34.38 16.92 0.84 0 1.66-0.06 2.48-0.12v-19.92c-0.82 0.04-1.64 0.12-2.48 0.12z" fill="#23130D" opacity=".2" p-id="36529"></path><path d="M868.66 828c0 7.34-5.98 13.34-13.32 13.34-7.36 0-13.34-6-13.34-13.34 0-7.36 5.98-13.34 13.34-13.34 7.34 0 13.32 5.98 13.32 13.34z" fill="#F9C139" p-id="36530"></path><path d="M873.52 888.22c-14.26 0-25.86 11.58-25.86 25.84s11.6 25.84 25.86 25.84c14.24 0 25.84-11.58 25.84-25.84s-11.6-25.84-25.84-25.84z m0 31.68c-3.24 0-5.86-2.62-5.86-5.84a5.852 5.852 0 0 1 11.7 0c0 3.22-2.62 5.84-5.84 5.84z" fill="#23130D" p-id="36531"></path><path d="M879.36 914.06a5.852 5.852 0 0 1-11.7 0 5.852 5.852 0 0 1 11.7 0z" fill="#F9C139" p-id="36532"></path><path d="M294.36 875.68c-15.94 0-28.9 12.96-28.9 28.9 0 15.94 12.96 28.9 28.9 28.9 15.94 0 28.9-12.96 28.9-28.9 0-15.94-12.96-28.9-28.9-28.9z m0 37.8c-4.9 0-8.9-3.98-8.9-8.9 0-4.9 4-8.9 8.9-8.9 4.92 0 8.9 4 8.9 8.9 0 4.92-3.98 8.9-8.9 8.9z" fill="#23130D" p-id="36533"></path><path d="M303.26 904.58c0 4.92-3.98 8.9-8.9 8.9-4.9 0-8.9-3.98-8.9-8.9 0-4.9 4-8.9 8.9-8.9 4.92 0 8.9 4 8.9 8.9z" fill="#F9C139" p-id="36534"></path><path d="M934.4 423.02v0.86c0 5.3-4.32 9.62-9.62 9.62H801.8c-5.3 0-9.62-4.32-9.62-9.62v-0.86c0-1.66 0.42-3.22 1.16-4.58 1.66 2.98 4.82 5.02 8.46 5.02h122.98c3.64 0 6.8-2.04 8.46-5.02 0.74 1.36 1.16 2.92 1.16 4.58z" fill="#23130D" opacity=".2" p-id="36535"></path></svg>