<?xml version="1.0" standalone="no"?><!DOCTYPE svg PUBLIC "-//W3C//DTD SVG 1.1//EN" "http://www.w3.org/Graphics/SVG/1.1/DTD/svg11.dtd"><svg t="1625811338053" class="icon" viewBox="0 0 1024 1024" version="1.1" xmlns="http://www.w3.org/2000/svg" p-id="28369" xmlns:xlink="http://www.w3.org/1999/xlink" width="200" height="200"><defs><style type="text/css"></style></defs><path d="M924.78 393.4h-51.48V139.06c0-58.46-47.56-106-106.02-106-58.46 0-106 47.54-106 106l-0.02 107.22c0 47.42-38.58 86.02-86 86.02s-86-38.6-86-86.02V139.06c0-58.44-47.56-106-106.02-106s-106 47.56-106 106v215h-41.76c-5.52 0-10 4.48-10 10v29.36c-16.2 0.14-29.36 13.36-29.36 29.6v0.86c0 10.68 5.72 20.04 14.24 25.24v120.52c-53.48 20.18-95.62 60-119.36 109.56-0.28 0.44-0.48 0.94-0.68 1.42a217.616 217.616 0 0 0-20.72 92.7c0 120 97.64 217.62 217.64 217.62s217.64-97.62 217.64-217.62c0-33.12-7.52-64.92-21.12-93.52-0.08-0.16-0.14-0.34-0.24-0.52-23.74-49.58-65.9-89.46-119.4-109.64v-120.52c8.5-5.2 14.22-14.56 14.22-25.24v-0.86c0-16.24-13.16-29.46-29.36-29.6v-29.36c0-5.52-4.48-10-10-10h-41.74V139.06c0-47.42 38.58-86 86-86s86.02 38.58 86.02 86v107.22c0 58.46 47.54 106.02 106 106.02s106-47.56 106-106.02l0.02-107.22c0-47.42 38.58-86 86-86s86 38.56 86.02 85.98V393.4H801.8c-16.32 0-29.62 13.28-29.62 29.62v0.86c0 10.68 5.72 20.04 14.22 25.24v464.94c0 0.02 0.02 0.04 0.02 0.06 0.02 42.36 34.5 76.82 76.88 76.82s76.88-34.48 76.88-76.88V449.12c8.5-5.2 14.22-14.56 14.22-25.24v-0.86c0-16.34-13.3-29.62-29.62-29.62zM484.88 773.32c0 108.98-88.66 197.62-197.64 197.62S89.6 882.3 89.6 773.32c0-27.2 5.58-53.42 15.78-77.38 5.3 2.04 9.32 5.48 14 9.56 8.44 7.32 18.94 16.44 38.78 16.44s30.34-9.12 38.78-16.44c7.72-6.72 13.28-11.56 25.66-11.56 12.36 0 17.94 4.84 25.66 11.56 8.44 7.32 18.94 16.44 38.78 16.44s30.34-9.12 38.78-16.44c7.72-6.72 13.28-11.56 25.66-11.56s17.94 4.84 25.66 11.56c8.44 7.32 18.94 16.44 38.78 16.44s30.34-9.12 38.78-16.44c4.78-4.16 8.86-7.68 14.34-9.7a197.7 197.7 0 0 1 15.84 77.52z m-24.62-95.56c-7.98 3.36-13.74 8.34-18.68 12.64-7.72 6.7-13.3 11.54-25.66 11.54-12.38 0-17.94-4.84-25.66-11.54-8.44-7.34-18.94-16.46-38.78-16.46-19.86 0-30.34 9.12-38.78 16.46-7.72 6.7-13.28 11.54-25.66 11.54s-17.94-4.84-25.66-11.54c-8.44-7.34-18.94-16.46-38.78-16.46s-30.34 9.12-38.78 16.46c-7.72 6.7-13.28 11.54-25.66 11.54-12.36 0-17.94-4.84-25.66-11.54-4.86-4.24-10.54-9.16-18.36-12.5 23.24-42.2 61.66-75.5 109.44-91.74 4.04-1.38 6.78-5.2 6.78-9.48v-123.18h113.76v123.18c0 4.28 2.72 8.1 6.78 9.48 47.72 16.22 86.12 49.48 109.36 91.6zM348.72 413.4c5.3 0 9.62 4.32 9.62 9.62v0.86c0 5.3-4.32 9.62-9.62 9.62h-122.98c-5.3 0-9.62-4.32-9.62-9.62v-0.86c0-5.3 4.32-9.62 9.62-9.62h122.98z m-19.74-39.34v19.34h-83.5v-19.34h83.5z m591.2 540c0 31.36-25.52 56.88-56.88 56.88-31.38 0-56.88-25.52-56.88-56.88 0-0.02-0.02-0.02-0.02-0.04V650.74c4.74 4.54 11.24 10.6 23.44 10.6 12.38 0 18.88-6.24 23.64-10.78 4.06-3.88 5.68-5.22 9.8-5.22 4.14 0 5.76 1.34 9.82 5.22 4.74 4.54 11.26 10.78 23.64 10.78 12.2 0 18.7-6.06 23.44-10.6v263.32z m0-287.14c-6.28 2.14-10.38 6.06-13.64 9.18-4.06 3.9-5.68 5.24-9.8 5.24-4.14 0-5.76-1.34-9.82-5.24-4.76-4.54-11.26-10.76-23.64-10.76-12.36 0-18.88 6.22-23.62 10.76-4.06 3.9-5.68 5.24-9.82 5.24-4.12 0-5.74-1.34-9.8-5.24-3.26-3.12-7.36-7.04-13.64-9.18v-173.42h113.78v173.42z m14.22-203.04c0 5.3-4.32 9.62-9.62 9.62H801.8c-5.3 0-9.62-4.32-9.62-9.62v-0.86c0-5.3 4.32-9.62 9.62-9.62h122.98c5.3 0 9.62 4.32 9.62 9.62v0.86z" fill="#23130D" p-id="28370"></path><path d="M245.48 374.06h83.5v19.34h-83.5z" fill="#CC7B5A" p-id="28371"></path><path d="M934.4 423.02v0.86c0 5.3-4.32 9.62-9.62 9.62H801.8c-5.3 0-9.62-4.32-9.62-9.62v-0.86c0-5.3 4.32-9.62 9.62-9.62h122.98c5.3 0 9.62 4.32 9.62 9.62zM358.34 423.02v0.86c0 5.3-4.32 9.62-9.62 9.62h-122.98c-5.3 0-9.62-4.32-9.62-9.62v-0.86c0-5.3 4.32-9.62 9.62-9.62h122.98c5.3 0 9.62 4.32 9.62 9.62z" fill="#636368" p-id="28372"></path><path d="M920.18 453.5v173.42c-3.66 1.24-6.58 3.1-9.04 5.04-1.74 1.4-3.26 2.84-4.6 4.14-4.06 3.9-5.68 5.24-9.8 5.24-4.14 0-5.76-1.34-9.82-5.24-4.76-4.54-11.26-10.76-23.64-10.76-12.36 0-18.88 6.22-23.62 10.76-2.48 2.38-4.06 3.82-5.84 4.56-1.14 0.48-2.36 0.68-3.98 0.68-4.12 0-5.74-1.34-9.8-5.24-3.26-3.12-7.36-7.04-13.64-9.18v-173.42h113.78z" fill="#E1E1E5" p-id="28373"></path><path d="M896.74 661.34c-12.38 0-18.9-6.24-23.64-10.78-4.06-3.88-5.68-5.22-9.82-5.22-4.12 0-5.74 1.34-9.8 5.22-1.5 1.44-3.2 3.04-5.18 4.58-4.28 3.28-10 6.2-18.46 6.2-12.2 0-18.7-6.06-23.44-10.6v263.28c0 0.02 0.02 0.02 0.02 0.04 0 31.36 25.5 56.88 56.88 56.88 27.6 0 50.66-19.76 55.8-45.86 0.72-3.56 1.08-7.26 1.08-11.02V650.74c-4.74 4.54-11.24 10.6-23.44 10.6z m-33.46 254.82c-13.72 0-24.9-11.18-24.9-24.92 0-12.8 9.7-23.36 22.12-24.76 0.92-0.08 1.84-0.14 2.78-0.14 13.74 0 24.92 11.16 24.92 24.9 0 0.94-0.06 1.88-0.16 2.78-1.38 12.44-11.96 22.14-24.76 22.14z m9.18-105.04c-5.06 3.2-11.04 5.04-17.42 5.04-18.1 0-32.82-14.72-32.82-32.82 0-6.4 1.84-12.38 5.02-17.44 3.34-5.3 8.16-9.6 13.88-12.28 4.22-1.98 8.96-3.1 13.92-3.1 18.1 0 32.82 14.72 32.82 32.82 0 4.98-1.12 9.7-3.1 13.92a32.752 32.752 0 0 1-12.3 13.86z" fill="#E8790A" p-id="28374"></path><path d="M469.04 695.8c-5.48 2.02-9.56 5.54-14.34 9.7-8.44 7.32-18.94 16.44-38.78 16.44s-30.34-9.12-38.78-16.44c-7.72-6.72-13.28-11.56-25.66-11.56s-17.94 4.84-25.66 11.56c-6.58 5.7-14.4 12.5-26.92 15.22-3.56 0.78-7.48 1.22-11.86 1.22-19.84 0-30.34-9.12-38.78-16.44-7.72-6.72-13.3-11.56-25.66-11.56-3.12 0-5.8 0.3-8.2 0.86-7.12 1.7-11.68 5.66-17.46 10.7-4.52 3.92-9.62 8.34-16.44 11.62-5.9 2.84-13.12 4.82-22.34 4.82-0.44 0-0.88 0-1.3-0.02-19-0.38-29.22-9.26-37.48-16.42-4.68-4.08-8.7-7.52-14-9.56a196.454 196.454 0 0 0-11.44 36.2 196.43 196.43 0 0 0-4.34 41.18c0 108.98 88.66 197.62 197.64 197.62 14.12 0 27.9-1.48 41.18-4.32a196.26 196.26 0 0 0 70.94-30.64c11-7.58 21.16-16.26 30.36-25.86a196.782 196.782 0 0 0 25.6-32.98 195.348 195.348 0 0 0 26.16-67.3 196.26 196.26 0 0 0 3.4-36.52 197.7 197.7 0 0 0-15.84-77.52z m-181.8 212.94c-18.1 0-32.82-14.74-32.82-32.82 0-15.28 10.5-28.16 24.66-31.78 2.62-0.68 5.34-1.04 8.16-1.04 18.1 0 32.82 14.72 32.82 32.82 0 2.82-0.36 5.56-1.04 8.16v0.02c-3.64 14.14-16.5 24.64-31.78 24.64z m-28.74-85.18c-7.54 6.98-17.6 11.26-28.66 11.26-23.24 0-42.14-18.9-42.14-42.16 0-11.06 4.28-21.12 11.26-28.64a42.26 42.26 0 0 1 17.22-11.22 41.74 41.74 0 0 1 13.66-2.28c23.24 0 42.16 18.9 42.16 42.14 0 4.78-0.8 9.38-2.28 13.68a42.26 42.26 0 0 1-11.22 17.22z" fill="#EC7063" p-id="28375"></path><path d="M460.26 677.76c-7.98 3.36-13.74 8.34-18.68 12.64-7.72 6.7-13.3 11.54-25.66 11.54-12.38 0-17.94-4.84-25.66-11.54-8.44-7.34-18.94-16.46-38.78-16.46-1.98 0-3.84 0.08-5.64 0.26-16.28 1.54-25.54 9.58-33.14 16.2-7.72 6.7-13.28 11.54-25.66 11.54-2.9 0-5.42-0.26-7.68-0.76-7.42-1.6-12.06-5.64-17.98-10.78-8.44-7.34-18.94-16.46-38.78-16.46-9.88 0-17.46 2.26-23.6 5.46-6.2 3.18-10.94 7.32-15.18 11-6.2 5.38-11 9.56-19.06 10.98-1.98 0.38-4.16 0.56-6.6 0.56-12.36 0-17.94-4.84-25.66-11.54-4.86-4.24-10.54-9.16-18.36-12.5 3.18-5.76 6.64-11.36 10.36-16.78 7.56-10.96 16.2-21.16 25.82-30.4 9.98-9.6 21.04-18.2 33-25.58a195.992 195.992 0 0 1 40.26-18.98c4.04-1.38 6.78-5.2 6.78-9.48v-123.18h113.76v123.18c0 4.28 2.72 8.1 6.78 9.48 47.72 16.22 86.12 49.48 109.36 91.6z" fill="#E1E1E5" p-id="28376"></path><path d="M229.84 750.52c-23.24 0-42.14 18.9-42.14 42.14 0 23.26 18.9 42.16 42.14 42.16S272 815.92 272 792.66c0-23.24-18.92-42.14-42.16-42.14z m0 64.3c-12.2 0-22.14-9.94-22.14-22.16 0-12.2 9.94-22.14 22.14-22.14 12.22 0 22.16 9.94 22.16 22.14 0 12.22-9.94 22.16-22.16 22.16z" fill="#23130D" p-id="28377"></path><path d="M252 792.66c0 12.22-9.94 22.16-22.16 22.16-12.2 0-22.14-9.94-22.14-22.16 0-12.2 9.94-22.14 22.14-22.14 12.22 0 22.16 9.94 22.16 22.14z" fill="#F9C139" p-id="28378"></path><path d="M287.24 843.1c-18.1 0-32.82 14.72-32.82 32.82 0 18.08 14.72 32.82 32.82 32.82s32.82-14.74 32.82-32.82c0-18.1-14.72-32.82-32.82-32.82z m0 45.64c-7.08 0-12.82-5.76-12.82-12.82a12.82 12.82 0 0 1 12.82-12.82c7.06 0 12.82 5.74 12.82 12.82 0 7.06-5.76 12.82-12.82 12.82z" fill="#23130D" p-id="28379"></path><path d="M300.06 875.92c0 7.06-5.76 12.82-12.82 12.82-7.08 0-12.82-5.76-12.82-12.82a12.82 12.82 0 0 1 12.82-12.82c7.06 0 12.82 5.74 12.82 12.82z" fill="#F9C139" p-id="28380"></path><path d="M855.04 750.52c-18.1 0-32.82 14.72-32.82 32.82s14.72 32.82 32.82 32.82 32.82-14.72 32.82-32.82-14.72-32.82-32.82-32.82z m0 45.64c-7.06 0-12.82-5.76-12.82-12.82 0-7.08 5.76-12.82 12.82-12.82 7.06 0 12.82 5.74 12.82 12.82 0 7.06-5.76 12.82-12.82 12.82z" fill="#23130D" p-id="28381"></path><path d="M867.86 783.34c0 7.06-5.76 12.82-12.82 12.82-7.06 0-12.82-5.76-12.82-12.82 0-7.08 5.76-12.82 12.82-12.82 7.06 0 12.82 5.74 12.82 12.82z" fill="#F9C139" p-id="28382"></path><path d="M863.28 866.34c-13.72 0-24.9 11.16-24.9 24.9s11.18 24.92 24.9 24.92c13.74 0 24.92-11.18 24.92-24.92s-11.18-24.9-24.92-24.9z m0 29.82a4.908 4.908 0 1 1 0-9.82c2.72 0 4.92 2.2 4.92 4.9s-2.2 4.92-4.92 4.92z" fill="#23130D" p-id="28383"></path><path d="M868.2 891.24c0 2.7-2.2 4.92-4.92 4.92a4.908 4.908 0 1 1 0-9.82c2.72 0 4.92 2.2 4.92 4.9z" fill="#F9C139" p-id="28384"></path><path d="M920.18 858.84v55.22c0 3.76-0.36 7.46-1.08 11.02l-31.06-31.06c0.1-0.9 0.16-1.84 0.16-2.78 0-13.74-11.18-24.9-24.92-24.9-0.94 0-1.86 0.06-2.78 0.14l-54.1-54.1v-67.32l20.84 20.84a32.672 32.672 0 0 0-5.02 17.44c0 18.1 14.72 32.82 32.82 32.82 6.38 0 12.36-1.84 17.42-5.04l47.72 47.72zM920.18 780.92v51.76l-35.42-35.42a32.7 32.7 0 0 0 3.1-13.92c0-18.1-14.72-32.82-32.82-32.82-4.96 0-9.7 1.12-13.92 3.1l-34.72-34.72v-51.76l113.78 113.78zM911.14 631.96c-1.74 1.4-3.26 2.84-4.6 4.14-4.06 3.9-5.68 5.24-9.8 5.24-4.14 0-5.76-1.34-9.82-5.24-4.76-4.54-11.26-10.76-23.64-10.76-12.36 0-18.88 6.22-23.62 10.76-2.48 2.38-4.06 3.82-5.84 4.56l-27.42-27.42v-86.02l104.74 104.74zM920.18 650.74v76.28l-71.88-71.88c1.98-1.54 3.68-3.14 5.18-4.58 4.06-3.88 5.68-5.22 9.8-5.22 4.14 0 5.76 1.34 9.82 5.22 4.74 4.54 11.26 10.78 23.64 10.78 12.2 0 18.7-6.06 23.44-10.6z" fill="#FFFFFF" opacity=".4" p-id="28385"></path><path d="M381.78 946.84a196.26 196.26 0 0 1-53.36 19.78L93.94 732.14a196.454 196.454 0 0 1 11.44-36.2c5.3 2.04 9.32 5.48 14 9.56 8.26 7.16 18.48 16.04 37.48 16.42l42.1 42.1a41.966 41.966 0 0 0-11.26 28.64c0 23.26 18.9 42.16 42.14 42.16 11.06 0 21.12-4.28 28.66-11.26l20.58 20.58c-14.16 3.62-24.66 16.5-24.66 31.78 0 18.08 14.72 32.82 32.82 32.82 15.28 0 28.14-10.5 31.78-24.64l62.76 62.74zM183.82 690.4c-6.2 5.38-11 9.56-19.06 10.98l-40.26-40.26c7.56-10.96 16.2-21.16 25.82-30.4L199 679.4c-6.2 3.18-10.94 7.32-15.18 11zM429.72 910.12c-9.2 9.6-19.36 18.28-30.36 25.86l-129.64-129.64c1.48-4.3 2.28-8.9 2.28-13.68 0-23.24-18.92-42.14-42.16-42.14-4.78 0-9.38 0.8-13.66 2.28l-35.68-35.68c6.82-3.28 11.92-7.7 16.44-11.62 5.78-5.04 10.34-9 17.46-10.7l215.32 215.32zM312.7 690.4c-7.72 6.7-13.28 11.54-25.66 11.54-2.9 0-5.42-0.26-7.68-0.76l-96.04-96.04a195.992 195.992 0 0 1 40.26-18.98c4.04-1.38 6.78-5.2 6.78-9.48v-17.96l115.48 115.48c-16.28 1.54-25.54 9.58-33.14 16.2zM481.48 809.84a195.348 195.348 0 0 1-26.16 67.3l-156.42-156.42c12.52-2.72 20.34-9.52 26.92-15.22 7.72-6.72 13.28-11.56 25.66-11.56s17.94 4.84 25.66 11.56l104.34 104.34z" fill="#FFFFFF" opacity=".4" p-id="28386"></path></svg>