<?xml version="1.0" standalone="no"?><!DOCTYPE svg PUBLIC "-//W3C//DTD SVG 1.1//EN" "http://www.w3.org/Graphics/SVG/1.1/DTD/svg11.dtd"><svg t="1625811838140" class="icon" viewBox="0 0 1024 1024" version="1.1" xmlns="http://www.w3.org/2000/svg" p-id="40480" xmlns:xlink="http://www.w3.org/1999/xlink" width="200" height="200"><defs><style type="text/css"></style></defs><path d="M942.34 747.74c-0.1-0.06-0.22-0.1-0.34-0.16l-0.18-0.12-338.6-169.8c-1.68-29.7-17.62-55.64-41.06-71.1l22.24-378.2c0-0.08-0.02-0.16-0.02-0.24 0-0.12 0.04-0.22 0.04-0.32 0-39.94-32.48-72.42-72.42-72.42s-72.42 32.48-72.42 72.42c0 0.1 0.04 0.2 0.04 0.32 0 0.08-0.02 0.16-0.02 0.24l22.24 378.2c-23.44 15.46-39.38 41.4-41.06 71.1l-338.6 169.8c-0.08 0.04-0.14 0.1-0.2 0.14-0.1 0.06-0.22 0.08-0.32 0.14-16.76 9.68-28.74 25.28-33.74 43.98-5.02 18.68-2.44 38.2 7.22 54.94 9.68 16.76 25.3 28.74 43.98 33.74 6.24 1.68 12.56 2.5 18.86 2.5 12.24 0 24.32-3.16 35.28-9.3 0.06-0.02 0.12-0.06 0.18-0.08 0.2-0.12 0.42-0.22 0.64-0.36 0.02 0 0.04-0.04 0.08-0.06 0.14-0.08 0.28-0.14 0.42-0.22l316.38-208.36c12.36 6.24 26.28 9.76 41.04 9.76s28.68-3.52 41.04-9.76l316.38 208.36c0.12 0.08 0.26 0.14 0.38 0.2 0.04 0.04 0.08 0.06 0.12 0.1 11.16 6.44 23.56 9.72 36.1 9.72 6.28 0 12.62-0.82 18.86-2.5 18.68-5 34.3-16.98 43.98-33.74 19.96-34.58 8.06-78.96-26.52-98.92zM459.58 127.54c0.14-28.78 23.6-52.16 52.42-52.16s52.28 23.38 52.42 52.16l-21.74 369.3c-9.58-3.44-19.92-5.32-30.68-5.32s-21.1 1.88-30.68 5.32L459.58 127.54zM144.04 855.86c-12.12 7-26.24 8.84-39.74 5.22-13.52-3.62-24.84-12.3-31.84-24.42s-8.86-26.24-5.22-39.78c3.58-13.42 12.16-24.64 24.14-31.66l330.74-165.86c3.86 21.12 15 39.74 30.74 53.14L144.04 855.86zM512 654.28c-39.36 0-71.38-32.02-71.38-71.38s32.02-71.38 71.38-71.38 71.38 32.02 71.38 71.38-32.02 71.38-71.38 71.38z m439.54 182.38c-7 12.14-18.32 20.8-31.84 24.42-13.5 3.62-27.58 1.78-39.68-5.18l-308.88-203.4c15.74-13.4 26.88-32.02 30.74-53.14l330.76 165.88c24.8 14.52 33.28 46.5 18.9 71.42z" fill="#23130D" p-id="40481"></path><path d="M564.42 127.54l-21.74 369.3c-9.58-3.44-19.92-5.32-30.68-5.32s-21.1 1.88-30.68 5.32L459.58 127.54c0.14-28.78 23.6-52.16 52.42-52.16s52.28 23.38 52.42 52.16z" fill="#E1E1E5" p-id="40482"></path><path d="M487.58 127.54l21.42 364.02c-9.68 0.32-19 2.16-27.68 5.28L459.58 127.54c0.14-28.78 23.6-52.16 52.42-52.16 4.84 0 9.54 0.66 14 1.92-22.06 6.1-38.3 26.3-38.42 50.24z" opacity=".2" p-id="40483"></path><path d="M951.54 836.66c-7 12.14-18.32 20.8-31.84 24.42-13.5 3.62-27.58 1.78-39.68-5.18l-308.88-203.4c15.74-13.4 26.88-32.02 30.74-53.14l330.76 165.88c24.8 14.52 33.28 46.5 18.9 71.42z" fill="#E1E1E5" p-id="40484"></path><path d="M583.38 582.9c0 39.36-32.02 71.38-71.38 71.38s-71.38-32.02-71.38-71.38 32.02-71.38 71.38-71.38 71.38 32.02 71.38 71.38z" fill="#3594BF" p-id="40485"></path><path d="M523.76 653.3c-3.82 0.64-7.76 0.98-11.76 0.98-39.36 0-71.38-32.02-71.38-71.38s32.02-71.38 71.38-71.38c4 0 7.94 0.34 11.76 0.98-33.8 5.6-59.64 35.04-59.64 70.4s25.84 64.8 59.64 70.4z" opacity=".2" p-id="40486"></path><path d="M452.86 652.5L144.04 855.86c-12.12 7-26.24 8.84-39.74 5.22-13.52-3.62-24.84-12.3-31.84-24.42s-8.86-26.24-5.22-39.78c3.58-13.42 12.16-24.64 24.14-31.66l330.74-165.86c3.86 21.12 15 39.74 30.74 53.14z" fill="#E1E1E5" p-id="40487"></path><path d="M628.008 265.052c136.102 19.348 238.736 137.788 238.736 275.502 0 35.778-6.696 70.61-19.9 103.532a10 10 0 0 0 18.562 7.444c14.158-35.298 21.338-72.636 21.338-110.976 0-72.276-26.176-142-73.708-196.33-47.078-53.812-111.79-88.962-182.21-98.972a9.968 9.968 0 0 0-11.308 8.494 9.996 9.996 0 0 0 8.49 11.306z" fill="#23130D" p-id="40488"></path><path d="M624.228 325.328c105.68 17.428 182.382 107.944 182.382 215.228 0 26.406-4.658 52.196-13.844 76.65a9.996 9.996 0 0 0 9.36 13.516 10.006 10.006 0 0 0 9.364-6.486c10.034-26.71 15.122-54.866 15.122-83.682 0-56.786-20.314-111.774-57.204-154.84-36.48-42.59-86.884-71.044-141.926-80.122a10.002 10.002 0 0 0-3.254 19.736z" fill="#23130D" p-id="40489"></path><path d="M619.784 393.322c69.06 14.596 119.184 76.518 119.184 147.234a150.02 150.02 0 0 1-7.33 46.496 10.002 10.002 0 0 0 19.02 6.188 170.02 170.02 0 0 0 8.31-52.684c0-80.112-56.794-150.262-135.046-166.802a10 10 0 0 0-4.138 19.568zM169.458 655.092a9.998 9.998 0 0 0 9.274-13.732c-51.294-127.542-0.04-275.648 119.224-344.502 30.988-17.89 64.502-29.506 99.612-34.53a10 10 0 0 0 8.484-11.316 10.014 10.014 0 0 0-11.316-8.484c-37.648 5.386-73.574 17.836-106.78 37.008-62.592 36.136-109.888 93.668-133.172 161.998-23.064 67.676-21.148 141.292 5.394 207.286a10 10 0 0 0 9.28 6.272z" fill="#23130D" p-id="40490"></path><path d="M398.052 302.868c-28.152 4.666-55.078 14.338-80.03 28.746-49.176 28.392-86.642 73.48-105.494 126.958-18.646 52.89-18.086 110.768 1.572 162.97a10 10 0 1 0 18.716-7.046c-37.746-100.234 2.294-211.92 95.206-265.562 22.864-13.202 47.526-22.062 73.3-26.334a10 10 0 0 0 8.23-11.5 9.99 9.99 0 0 0-11.5-8.232z" fill="#23130D" p-id="40491"></path><path d="M401.626 371.05a169.93 169.93 0 0 0-49.78 19.142c-69.378 40.056-101.734 124.32-76.932 200.362a10.002 10.002 0 0 0 12.606 6.406 10 10 0 0 0 6.406-12.61c-21.888-67.108 6.674-141.478 67.918-176.838a149.956 149.956 0 0 1 43.928-16.898 10 10 0 0 0 7.708-11.856 9.988 9.988 0 0 0-11.854-7.708zM743.294 840.588a10 10 0 0 0-14.04 1.704c-84.8 108.194-238.69 137.86-357.956 69.002-30.984-17.888-57.802-41.106-79.71-69.004a10.002 10.002 0 0 0-15.732 12.352c23.492 29.916 52.238 54.802 85.44 73.972a298.174 298.174 0 0 0 149.124 39.984c19.264 0 38.614-1.872 57.758-5.654 70.142-13.866 132.938-52.332 176.816-108.316a9.996 9.996 0 0 0-1.7-14.04z" fill="#23130D" p-id="40492"></path><path d="M341.91 808.9a9.994 9.994 0 0 0-14.074-1.376 10 10 0 0 0-1.376 14.076c18.118 22.046 39.956 40.53 64.908 54.934a238.286 238.286 0 0 0 119.11 31.916c14.54 0 29.136-1.334 43.586-4.034 55.126-10.298 104.968-39.722 140.352-82.852a10 10 0 0 0-15.46-12.684c-67.938 82.804-184.676 103.976-277.586 50.332-22.87-13.198-42.872-30.126-59.46-50.312z" fill="#23130D" p-id="40493"></path><path d="M425.186 817.954c26.474 15.286 55.816 22.68 84.966 22.68 47.24 0 93.958-19.44 127.016-56.23a10.004 10.004 0 0 0-14.88-13.368c-47.172 52.508-125.862 64.958-187.102 29.598-13.782-7.958-26.096-17.914-36.598-29.594a10 10 0 0 0-14.872 13.376c11.912 13.242 25.864 24.526 41.47 33.538z" fill="#23130D" p-id="40494"></path><path d="M129.856 831.728l304.54-200.56a90.656 90.656 0 0 0 18.412 21.332L143.856 855.978c-24.994 14.268-56.972 5.642-71.382-19.318a51.5 51.5 0 0 1-5.338-13.084c16.314 16.054 41.928 20.018 62.72 8.152zM918.564 789.432l-325.96-163.46a90.664 90.664 0 0 0 9.268-26.612l330.694 165.822c24.854 14.512 33.372 46.518 18.962 71.478a51.452 51.452 0 0 1-8.662 11.164c5.744-22.154-3.63-46.318-24.302-58.392z" opacity=".2" p-id="40495"></path><path d="M510.44 646.878a10 10 0 1 1 0-20c24.25 0 43.98-19.728 43.98-43.978s-19.728-43.98-43.98-43.98a10 10 0 1 1 0-20c35.278 0 63.98 28.702 63.98 63.98 0 35.278-28.702 63.978-63.98 63.978z" fill="#FFFFFF" opacity=".4" p-id="40496"></path></svg>