<?xml version="1.0" standalone="no"?><!DOCTYPE svg PUBLIC "-//W3C//DTD SVG 1.1//EN" "http://www.w3.org/Graphics/SVG/1.1/DTD/svg11.dtd"><svg t="1625812267569" class="icon" viewBox="0 0 1024 1024" version="1.1" xmlns="http://www.w3.org/2000/svg" p-id="57828" xmlns:xlink="http://www.w3.org/1999/xlink" width="200" height="200"><defs><style type="text/css"></style></defs><path d="M797.54 169.08H663.8v-12.6c0-19.66-16-35.66-35.64-35.66h-42.02V42.9c0-5.52-4.48-10-10-10h-128.26c-5.54 0-10 4.48-10 10v77.92h-42.04c-19.64 0-35.64 16-35.64 35.66v12.6h-133.74c-19.68 0-35.68 16-35.68 35.68v750.68c0 19.66 16 35.66 35.68 35.66h571.08c19.68 0 35.68-16 35.68-35.66V204.76c0-19.68-16-35.68-35.68-35.68zM457.88 52.9h108.26v116.18h-108.26V52.9zM380.2 156.48c0-8.64 7.02-15.66 15.64-15.66h42.04v28.26h-26.7c-5.54 0-10 4.48-10 10 0 5.54 4.46 10 10 10H612.82c5.54 0 10-4.46 10-10 0-5.52-4.46-10-10-10h-26.68V140.82h42.02c8.62 0 15.64 7.02 15.64 15.66v45.22c0 8.64-7.02 15.68-15.64 15.68H395.84c-8.62 0-15.64-7.04-15.64-15.68V156.48z m433.02 798.96c0 8.64-7.04 15.66-15.68 15.66H226.46c-8.64 0-15.68-7.02-15.68-15.66V204.76c0-8.64 7.04-15.68 15.68-15.68h133.74v12.62c0 19.66 16 35.68 35.64 35.68h232.32c19.64 0 35.64-16.02 35.64-35.68v-12.62h133.74c8.64 0 15.68 7.04 15.68 15.68v750.68z" fill="#23130D" p-id="57829"></path><path d="M643.8 156.48v45.22c0 8.64-7.02 15.68-15.64 15.68H395.84c-8.62 0-15.64-7.04-15.64-15.68V156.48c0-8.64 7.02-15.66 15.64-15.66h42.04v28.26h-26.7c-5.54 0-10 4.48-10 10 0 5.54 4.46 10 10 10H612.82c5.54 0 10-4.46 10-10 0-5.52-4.46-10-10-10h-26.68V140.82h42.02c8.62 0 15.64 7.02 15.64 15.66z" fill="#636368" p-id="57830"></path><path d="M643.8 184.7v17c0 8.64-7.02 15.68-15.64 15.68H395.84c-8.62 0-15.64-7.04-15.64-15.68v-17c0 8.64 7.02 15.68 15.64 15.68h232.32c8.62 0 15.64-7.04 15.64-15.68z" opacity=".2" p-id="57831"></path><path d="M457.88 52.9h108.26v116.18h-108.26z" fill="#E1E1E5" p-id="57832"></path><path d="M457.88 149h108.26v20.08h-108.26z" opacity=".2" p-id="57833"></path><path d="M797.54 189.08H663.8v12.62c0 19.66-16 35.68-35.64 35.68H395.84c-19.64 0-35.64-16.02-35.64-35.68v-12.62h-133.74c-8.64 0-15.68 7.04-15.68 15.68v750.68c0 8.64 7.04 15.66 15.68 15.66h571.08c8.64 0 15.68-7.02 15.68-15.66V204.76c0-8.64-7.04-15.68-15.68-15.68z m-21.88 604.5c0 0.08-0.02 0.14-0.02 0.2 0 0.6-0.06 1.2-0.18 1.78-0.02 0.08-0.04 0.16-0.06 0.22-0.12 0.5-0.26 0.98-0.46 1.46-0.06 0.18-0.14 0.36-0.22 0.54-0.18 0.36-0.38 0.72-0.6 1.08-0.08 0.16-0.18 0.3-0.28 0.46-0.32 0.44-0.66 0.88-1.06 1.28l-134.68 134.68c-0.46 0.46-0.98 0.88-1.52 1.26-0.18 0.12-0.38 0.18-0.56 0.3-0.38 0.22-0.76 0.44-1.16 0.62-0.26 0.1-0.52 0.14-0.78 0.24-0.36 0.1-0.72 0.24-1.1 0.32a12 12 0 0 1-1.9 0.2H258.34c-5.52 0-10-4.48-10-10V285.12c0-5.52 4.48-10 10-10h507.32c5.52 0 10 4.48 10 10v508.46z" fill="#3594BF" p-id="57834"></path><path d="M797.54 197.08a7.69 7.69 0 0 1 7.68 7.68v750.68a7.68 7.68 0 0 1-7.68 7.66H226.46a7.68 7.68 0 0 1-7.68-7.66V204.76a7.69 7.69 0 0 1 7.68-7.68h125.74v4.62c0 24.086 19.576 43.68 43.64 43.68h232.32c24.064 0 43.64-19.594 43.64-43.68v-4.62h125.74m-539.2 749.14h372.866l0.124-0.004a19.958 19.958 0 0 0 3.17-0.342l0.064-0.012 0.064-0.014c0.636-0.134 1.144-0.296 1.48-0.404l0.114-0.038 0.37-0.102 0.104-0.04c0.346-0.096 0.69-0.206 1.036-0.338l0.206-0.08 0.202-0.09c0.716-0.322 1.32-0.666 1.78-0.93 0.26-0.128 0.656-0.336 1.098-0.63l0.084-0.056 0.082-0.058a19.364 19.364 0 0 0 2.572-2.146l134.68-134.68c0.812-0.812 1.428-1.62 1.874-2.232l0.18-0.248 0.148-0.238c0.096-0.15 0.254-0.394 0.432-0.712 0.29-0.484 0.56-0.978 0.806-1.468l0.084-0.166 0.074-0.168c0.136-0.306 0.266-0.614 0.38-0.922 0.282-0.708 0.516-1.44 0.724-2.276 0.03-0.104 0.058-0.214 0.086-0.322l0.04-0.162 0.034-0.162c0.198-0.958 0.312-1.942 0.34-2.932a8.3 8.3 0 0 0 0.026-0.67V285.12c0-9.926-8.074-18-18-18H258.34c-9.926 0-18 8.074-18 18v643.1c0 9.926 8.074 18 18 18m539.2-757.14H663.8v12.62c0 19.66-16 35.68-35.64 35.68H395.84c-19.64 0-35.64-16.02-35.64-35.68v-12.62h-133.74c-8.64 0-15.68 7.04-15.68 15.68v750.68c0 8.64 7.04 15.66 15.68 15.66h571.08c8.64 0 15.68-7.02 15.68-15.66V204.76c0-8.64-7.04-15.68-15.68-15.68z m-539.2 749.14c-5.52 0-10-4.48-10-10V285.12c0-5.52 4.48-10 10-10h507.32c5.52 0 10 4.48 10 10v508.46c0 0.08-0.02 0.14-0.02 0.2 0 0.6-0.06 1.2-0.18 1.78-0.02 0.08-0.04 0.16-0.06 0.22-0.12 0.5-0.26 0.98-0.46 1.46-0.06 0.18-0.14 0.36-0.22 0.54-0.18 0.36-0.38 0.72-0.6 1.08-0.08 0.16-0.18 0.3-0.28 0.46-0.32 0.44-0.66 0.88-1.06 1.28l-134.68 134.68c-0.46 0.46-0.98 0.88-1.52 1.26-0.18 0.12-0.38 0.18-0.56 0.3-0.38 0.22-0.76 0.44-1.16 0.62-0.26 0.1-0.52 0.14-0.78 0.24-0.36 0.1-0.72 0.24-1.1 0.32a12 12 0 0 1-1.9 0.2H258.34z" opacity=".2" p-id="57835"></path><path d="M765.66 275.12H258.34c-5.52 0-10 4.48-10 10v643.1c0 5.52 4.48 10 10 10h372.74a12 12 0 0 0 1.9-0.2c0.38-0.08 0.74-0.22 1.1-0.32 0.26-0.1 0.52-0.14 0.78-0.24 0.4-0.18 0.78-0.4 1.16-0.62 0.18-0.12 0.38-0.18 0.56-0.3 0.54-0.38 1.06-0.8 1.52-1.26l134.68-134.68c0.4-0.4 0.74-0.84 1.06-1.28 0.1-0.16 0.2-0.3 0.28-0.46 0.22-0.36 0.42-0.72 0.6-1.08 0.08-0.18 0.16-0.36 0.22-0.54 0.2-0.48 0.34-0.96 0.46-1.46 0.02-0.06 0.04-0.14 0.06-0.22 0.12-0.58 0.18-1.18 0.18-1.78 0-0.06 0.02-0.12 0.02-0.2V285.12c0-5.52-4.48-10-10-10z m-124.64 628.96v-100.5h100.5l-100.5 100.5z m114.64-120.5h-124.64c-5.52 0-10 4.48-10 10v124.64H268.34V295.12h487.32v488.46z" fill="#23130D" p-id="57836"></path><path d="M741.52 803.58l-100.5 100.5v-100.5z" fill="#636368" p-id="57837"></path><path d="M741.52 803.58l-100.5 100.5v-34.5l66-66z" fill="#23130D" opacity=".2" p-id="57838"></path><path d="M268.34 295.12v623.1h352.68v-124.64c0-5.52 4.48-10 10-10h124.64V295.12H268.34zM366.2 844.6c-38.48 0-69.76-31.3-69.76-69.78 0-38.46 31.28-69.76 69.76-69.76 38.46 0 69.76 31.3 69.76 69.76 0 38.48-31.3 69.78-69.76 69.78z m0-166.2c-38.48 0-69.76-31.3-69.76-69.76 0-38.48 31.28-69.78 69.76-69.78 38.46 0 69.76 31.3 69.76 69.78 0 38.46-31.3 69.76-69.76 69.76z m0-166.2c-38.48 0-69.76-31.3-69.76-69.78 0-38.46 31.28-69.76 69.76-69.76 38.46 0 69.76 31.3 69.76 69.76 0 38.48-31.3 69.78-69.76 69.78z m209.26 256.36l-18.04 17.58c-0.34 0.42-0.8 1.86-0.76 2.48l4.24 24.72c0.76 4.42-0.22 8.5-2.76 11.52-3.82 4.52-10.56 5.62-16.52 2.5l-22.28-11.72c-0.04 0-0.52-0.14-1.26-0.14s-1.22 0.14-1.34 0.18l-22.2 11.68c-2.32 1.22-4.7 1.84-7.04 1.84-3.7 0-7.14-1.58-9.46-4.34-2.56-3.02-3.54-7.1-2.78-11.52l4.26-24.82c0.02-0.52-0.44-1.96-0.84-2.44l-17.98-17.52c-4.02-3.92-5.5-9.08-3.96-13.82 1.54-4.72 5.78-8.04 11.34-8.84l24.92-3.62c0.52-0.14 1.72-1.04 2.06-1.56l11.1-22.5c2.48-5.04 6.94-8.04 11.92-8.04 4.98 0 9.44 3 11.92 8.04l11.14 22.58c0.3 0.44 1.52 1.34 2.12 1.5l24.82 3.6c5.56 0.8 9.8 4.12 11.34 8.84 1.54 4.74 0.06 9.9-3.96 13.82z m0-162.88l-18.04 17.6c-0.34 0.4-0.8 1.84-0.76 2.48l4.24 24.7c0.76 4.42-0.22 8.5-2.76 11.52-3.82 4.52-10.54 5.64-16.52 2.5l-22.28-11.72c-0.04 0-0.52-0.14-1.26-0.14-0.72 0-1.22 0.14-1.34 0.18l-22.2 11.68c-2.32 1.22-4.7 1.84-7.04 1.84-3.7 0-7.14-1.58-9.46-4.34-2.56-3.02-3.54-7.1-2.78-11.52l4.26-24.82c0.02-0.52-0.44-1.96-0.84-2.44l-17.98-17.5c-4.02-3.92-5.5-9.1-3.96-13.82 1.54-4.74 5.78-8.06 11.34-8.86l24.92-3.62c0.5-0.14 1.72-1.02 2.06-1.56l11.1-22.5c2.48-5.02 6.94-8.04 11.92-8.04 4.98 0 9.44 3.02 11.92 8.04l11.14 22.6c0.3 0.44 1.52 1.32 2.12 1.48l24.82 3.6c5.56 0.82 9.8 4.12 11.34 8.84 1.54 4.74 0.06 9.9-3.96 13.82z m0-170.72l-18.04 17.6c-0.34 0.4-0.8 1.84-0.76 2.48l4.24 24.7c0.76 4.42-0.22 8.5-2.76 11.52-3.82 4.52-10.56 5.64-16.52 2.5l-22.28-11.72c-0.04 0-0.52-0.14-1.26-0.14s-1.22 0.14-1.34 0.18l-22.2 11.68c-2.32 1.22-4.7 1.84-7.04 1.84-3.7 0-7.14-1.58-9.46-4.34-2.56-3.02-3.54-7.1-2.78-11.52l4.26-24.82c0.02-0.52-0.44-1.96-0.84-2.44l-17.96-17.5c-4.04-3.94-5.52-9.1-3.98-13.84 1.54-4.72 5.78-8.04 11.34-8.84l24.92-3.62c0.5-0.14 1.72-1.02 2.06-1.56l11.1-22.5c2.48-5.02 6.94-8.04 11.92-8.04 4.98 0 9.44 3.02 11.92 8.04l11.14 22.6c0.3 0.44 1.52 1.32 2.12 1.48l24.82 3.6c5.56 0.8 9.8 4.12 11.34 8.84 1.54 4.74 0.06 9.9-3.96 13.82z m147.72 0.02l-18.02 17.58c-0.34 0.4-0.8 1.84-0.76 2.48l4.24 24.7c0.76 4.42-0.24 8.5-2.78 11.52-3.8 4.52-10.54 5.64-16.5 2.5l-22.3-11.72c-0.02 0-0.52-0.14-1.24-0.14-0.74 0-1.24 0.14-1.34 0.18l-22.2 11.68c-2.34 1.22-4.7 1.84-7.06 1.84-3.68 0-7.14-1.58-9.46-4.34-2.54-3.02-3.52-7.1-2.78-11.5l4.26-24.84c0.04-0.52-0.44-1.96-0.84-2.44l-17.96-17.5c-4.02-3.94-5.5-9.1-3.96-13.84 1.54-4.72 5.78-8.04 11.32-8.84l24.92-3.62c0.52-0.14 1.74-1.02 2.08-1.56l11.1-22.5c2.48-5.02 6.94-8.04 11.92-8.04 4.96 0 9.42 3.02 11.92 8.04l11.14 22.6c0.28 0.44 1.5 1.32 2.12 1.48l24.82 3.6c5.56 0.8 9.78 4.12 11.32 8.84 1.54 4.74 0.06 9.9-3.96 13.84z" fill="#E1E1E5" p-id="57839"></path><path d="M575.46 434.96c4.02-3.92 5.5-9.08 3.96-13.82-1.54-4.72-5.78-8.04-11.34-8.84l-24.82-3.6c-0.6-0.16-1.82-1.04-2.12-1.48l-11.14-22.6c-2.48-5.02-6.94-8.04-11.92-8.04-4.98 0-9.44 3.02-11.92 8.04l-11.1 22.5c-0.34 0.54-1.56 1.42-2.06 1.56l-24.92 3.62c-5.56 0.8-9.8 4.12-11.34 8.84-1.54 4.74-0.06 9.9 3.98 13.84l17.96 17.5c0.4 0.48 0.86 1.92 0.84 2.44l-4.26 24.82c-0.76 4.42 0.22 8.5 2.78 11.52 2.32 2.76 5.76 4.34 9.46 4.34 2.34 0 4.72-0.62 7.04-1.84l22.2-11.68c0.12-0.04 0.6-0.18 1.34-0.18s1.22 0.14 1.26 0.14l22.28 11.72c5.96 3.14 12.7 2.02 16.52-2.5 2.54-3.02 3.52-7.1 2.76-11.52l-4.24-24.7c-0.04-0.64 0.42-2.08 0.76-2.48l18.04-17.6z m-32 3.28c-4.94 4.82-7.7 13.26-6.52 20.06l1.96 11.44-10.26-5.4c-3.82-2-7.86-2.44-10.56-2.44s-6.74 0.44-10.56 2.44l-10.26 5.38 1.96-11.42c1.18-6.8-1.56-15.24-6.52-20.08l-8.3-8.08 11.48-1.66c6.84-1 14.02-6.22 17.08-12.42l5.12-10.38 5.14 10.38c3.06 6.2 10.24 11.42 17.08 12.42l11.46 1.66-8.3 8.1z" fill="#23130D" p-id="57840"></path><path d="M543.46 438.24c-4.94 4.82-7.7 13.26-6.52 20.06l1.96 11.44-10.26-5.4c-3.82-2-7.86-2.44-10.56-2.44s-6.74 0.44-10.56 2.44l-10.26 5.38 1.96-11.42c1.18-6.8-1.56-15.24-6.52-20.08l-8.3-8.08 11.48-1.66c6.84-1 14.02-6.22 17.08-12.42l5.12-10.38 5.14 10.38c3.06 6.2 10.24 11.42 17.08 12.42l11.46 1.66-8.3 8.1z" fill="#F9C139" p-id="57841"></path><path d="M723.18 434.98c4.02-3.94 5.5-9.1 3.96-13.84-1.54-4.72-5.76-8.04-11.32-8.84l-24.82-3.6c-0.62-0.16-1.84-1.04-2.12-1.48l-11.14-22.6c-2.5-5.02-6.96-8.04-11.92-8.04-4.98 0-9.44 3.02-11.92 8.04l-11.1 22.5c-0.34 0.54-1.56 1.42-2.08 1.56l-24.92 3.62c-5.54 0.8-9.78 4.12-11.32 8.84-1.54 4.74-0.06 9.9 3.96 13.84l17.96 17.5c0.4 0.48 0.88 1.92 0.84 2.44l-4.26 24.84c-0.74 4.4 0.24 8.48 2.78 11.5 2.32 2.76 5.78 4.34 9.46 4.34 2.36 0 4.72-0.62 7.06-1.84l22.2-11.68c0.1-0.04 0.6-0.18 1.34-0.18 0.72 0 1.22 0.14 1.24 0.14l22.3 11.72c5.96 3.14 12.7 2.02 16.5-2.5 2.54-3.02 3.54-7.1 2.78-11.52l-4.24-24.7c-0.04-0.64 0.42-2.08 0.76-2.48l18.02-17.58z m-32 3.26c-4.94 4.82-7.68 13.26-6.52 20.06l1.96 11.42-10.26-5.38c-3.82-2-7.84-2.44-10.54-2.44-2.72 0-6.74 0.44-10.56 2.44l-10.26 5.4 1.96-11.44c1.16-6.8-1.58-15.24-6.52-20.08l-8.3-8.08 11.46-1.66c6.84-1 14.02-6.22 17.08-12.42l5.14-10.38 5.12 10.38c3.06 6.2 10.24 11.42 17.08 12.42l11.48 1.66-8.32 8.1z" fill="#23130D" p-id="57842"></path><path d="M691.18 438.24c-4.94 4.82-7.68 13.26-6.52 20.06l1.96 11.42-10.26-5.38c-3.82-2-7.84-2.44-10.54-2.44-2.72 0-6.74 0.44-10.56 2.44l-10.26 5.4 1.96-11.44c1.16-6.8-1.58-15.24-6.52-20.08l-8.3-8.08 11.46-1.66c6.84-1 14.02-6.22 17.08-12.42l5.14-10.38 5.12 10.38c3.06 6.2 10.24 11.42 17.08 12.42l11.48 1.66-8.32 8.1z" fill="#F9C139" p-id="57843"></path><path d="M575.46 605.68c4.02-3.92 5.5-9.08 3.96-13.82-1.54-4.72-5.78-8.02-11.34-8.84l-24.82-3.6c-0.6-0.16-1.82-1.04-2.12-1.48l-11.14-22.6c-2.48-5.02-6.94-8.04-11.92-8.04-4.98 0-9.44 3.02-11.92 8.04l-11.1 22.5c-0.34 0.54-1.56 1.42-2.06 1.56l-24.92 3.62c-5.56 0.8-9.8 4.12-11.34 8.86-1.54 4.72-0.06 9.9 3.96 13.82l17.98 17.5c0.4 0.48 0.86 1.92 0.84 2.44l-4.26 24.82c-0.76 4.42 0.22 8.5 2.78 11.52 2.32 2.76 5.76 4.34 9.46 4.34 2.34 0 4.72-0.62 7.04-1.84l22.2-11.68c0.12-0.04 0.62-0.18 1.34-0.18 0.74 0 1.22 0.14 1.26 0.14l22.28 11.72c5.98 3.14 12.7 2.02 16.52-2.5 2.54-3.02 3.52-7.1 2.76-11.52l-4.24-24.7c-0.04-0.64 0.42-2.08 0.76-2.48l18.04-17.6z m-32 3.28c-4.96 4.82-7.7 13.26-6.52 20.06l1.96 11.44-10.26-5.4c-3.82-2.02-7.86-2.44-10.56-2.44s-6.74 0.42-10.56 2.44l-10.26 5.38 1.96-11.42c1.18-6.8-1.56-15.24-6.52-20.08l-8.3-8.08 11.48-1.66c6.84-1 14.02-6.22 17.08-12.42l5.12-10.38 5.14 10.38c3.04 6.2 10.22 11.42 17.08 12.42l11.46 1.66-8.3 8.1z" fill="#23130D" p-id="57844"></path><path d="M543.46 608.96c-4.96 4.82-7.7 13.26-6.52 20.06l1.96 11.44-10.26-5.4c-3.82-2.02-7.86-2.44-10.56-2.44s-6.74 0.42-10.56 2.44l-10.26 5.38 1.96-11.42c1.18-6.8-1.56-15.24-6.52-20.08l-8.3-8.08 11.48-1.66c6.84-1 14.02-6.22 17.08-12.42l5.12-10.38 5.14 10.38c3.04 6.2 10.22 11.42 17.08 12.42l11.46 1.66-8.3 8.1z" fill="#EC7063" p-id="57845"></path><path d="M575.46 768.56c4.02-3.92 5.5-9.08 3.96-13.82-1.54-4.72-5.78-8.04-11.34-8.84l-24.82-3.6c-0.6-0.16-1.82-1.06-2.12-1.5L530 718.22c-2.48-5.04-6.94-8.04-11.92-8.04-4.98 0-9.44 3-11.92 8.04l-11.1 22.5c-0.34 0.52-1.54 1.42-2.06 1.56l-24.92 3.62c-5.56 0.8-9.8 4.12-11.34 8.84-1.54 4.74-0.06 9.9 3.96 13.82l17.98 17.52c0.4 0.48 0.86 1.92 0.84 2.44l-4.26 24.82c-0.76 4.42 0.22 8.5 2.78 11.52 2.32 2.76 5.76 4.34 9.46 4.34 2.34 0 4.72-0.62 7.04-1.84l22.2-11.68c0.12-0.04 0.6-0.18 1.34-0.18s1.22 0.14 1.26 0.14l22.28 11.72c5.96 3.12 12.7 2.02 16.52-2.5 2.54-3.02 3.52-7.1 2.76-11.52l-4.24-24.72c-0.04-0.62 0.42-2.06 0.76-2.48l18.04-17.58z m-32 3.28c-4.94 4.82-7.7 13.26-6.52 20.06l1.96 11.42-10.26-5.4c-3.82-2-7.86-2.42-10.56-2.42s-6.74 0.42-10.56 2.44l-10.26 5.38 1.96-11.42c1.18-6.8-1.56-15.24-6.52-20.08l-8.3-8.08 11.48-1.68c6.82-0.98 14.02-6.2 17.08-12.4l5.12-10.4 5.14 10.4c3.06 6.2 10.24 11.42 17.06 12.4l11.48 1.68-8.3 8.1z" fill="#23130D" p-id="57846"></path><path d="M543.46 771.84c-4.94 4.82-7.7 13.26-6.52 20.06l1.96 11.42-10.26-5.4c-3.82-2-7.86-2.42-10.56-2.42s-6.74 0.42-10.56 2.44l-10.26 5.38 1.96-11.42c1.18-6.8-1.56-15.24-6.52-20.08l-8.3-8.08 11.48-1.68c6.82-0.98 14.02-6.2 17.08-12.4l5.12-10.4 5.14 10.4c3.06 6.2 10.24 11.42 17.06 12.4l11.48 1.68-8.3 8.1z" fill="#EC7063" p-id="57847"></path><path d="M366.2 372.66c-38.48 0-69.76 31.3-69.76 69.76 0 38.48 31.28 69.78 69.76 69.78 38.46 0 69.76-31.3 69.76-69.78 0-38.46-31.3-69.76-69.76-69.76z m0 119.54c-27.44 0-49.76-22.32-49.76-49.78 0-27.42 22.32-49.76 49.76-49.76 27.44 0 49.76 22.34 49.76 49.76 0 27.46-22.32 49.78-49.76 49.78z" fill="#23130D" p-id="57848"></path><path d="M366.2 392.66c-27.44 0-49.76 22.34-49.76 49.76 0 27.46 22.32 49.78 49.76 49.78 27.44 0 49.76-22.32 49.76-49.78 0-27.42-22.32-49.76-49.76-49.76z m0 84.04c-18.92 0-34.28-15.34-34.28-34.28 0-18.92 15.36-34.26 34.28-34.26s34.28 15.34 34.28 34.26c0 18.94-15.36 34.28-34.28 34.28z" fill="#F9C139" p-id="57849"></path><path d="M366.2 538.86c-38.48 0-69.76 31.3-69.76 69.78 0 38.46 31.28 69.76 69.76 69.76 38.46 0 69.76-31.3 69.76-69.76 0-38.48-31.3-69.78-69.76-69.78z m0 119.54c-27.44 0-49.76-22.32-49.76-49.76 0-27.46 22.32-49.78 49.76-49.78 27.44 0 49.76 22.32 49.76 49.78 0 27.44-22.32 49.76-49.76 49.76z" fill="#23130D" p-id="57850"></path><path d="M415.96 608.64c0 27.44-22.32 49.76-49.76 49.76-27.44 0-49.76-22.32-49.76-49.76 0-27.46 22.32-49.78 49.76-49.78 27.44 0 49.76 22.32 49.76 49.78z" fill="#EC7063" p-id="57851"></path><path d="M366.2 705.06c-38.48 0-69.76 31.3-69.76 69.76 0 38.48 31.28 69.78 69.76 69.78 38.46 0 69.76-31.3 69.76-69.78 0-38.46-31.3-69.76-69.76-69.76z m0 119.54c-27.44 0-49.76-22.34-49.76-49.78s22.32-49.76 49.76-49.76c27.44 0 49.76 22.32 49.76 49.76 0 27.44-22.32 49.78-49.76 49.78z" fill="#23130D" p-id="57852"></path><path d="M415.96 774.82c0 27.44-22.32 49.78-49.76 49.78-27.44 0-49.76-22.34-49.76-49.78s22.32-49.76 49.76-49.76c27.44 0 49.76 22.32 49.76 49.76z" fill="#EC7063" p-id="57853"></path><path d="M366.2 566.86c23.026 0 41.76 18.742 41.76 41.78 0 23.026-18.734 41.76-41.76 41.76-23.026 0-41.76-18.734-41.76-41.76 0-23.038 18.734-41.78 41.76-41.78m0-8c-27.44 0-49.76 22.32-49.76 49.78 0 27.44 22.32 49.76 49.76 49.76 27.44 0 49.76-22.32 49.76-49.76 0-27.46-22.32-49.78-49.76-49.78zM366.2 733.06c23.026 0 41.76 18.734 41.76 41.76 0 23.038-18.734 41.78-41.76 41.78-23.026 0-41.76-18.742-41.76-41.78 0-23.026 18.734-41.76 41.76-41.76m0-8c-27.44 0-49.76 22.32-49.76 49.76 0 27.44 22.32 49.78 49.76 49.78 27.44 0 49.76-22.34 49.76-49.78s-22.32-49.76-49.76-49.76z" opacity=".2" p-id="57854"></path><path d="M400.48 442.42c0 18.94-15.36 34.28-34.28 34.28s-34.28-15.34-34.28-34.28c0-18.92 15.36-34.26 34.28-34.26s34.28 15.34 34.28 34.26z" fill="#23130D" p-id="57855"></path></svg>