<?xml version="1.0" standalone="no"?><!DOCTYPE svg PUBLIC "-//W3C//DTD SVG 1.1//EN" "http://www.w3.org/Graphics/SVG/1.1/DTD/svg11.dtd"><svg t="1625811463526" class="icon" viewBox="0 0 1024 1024" version="1.1" xmlns="http://www.w3.org/2000/svg" p-id="30549" xmlns:xlink="http://www.w3.org/1999/xlink" width="200" height="200"><defs><style type="text/css"></style></defs><path d="M956.2 640.34l-73.56-202.12c37.62-18.98 56.02-63.64 41.26-104.2-14.76-40.54-57.56-62.92-98.58-53.28L751.76 78.62c-4.46-12.24-16.2-20.48-29.24-20.48-3.62 0-7.2 0.64-10.62 1.9l-12.08 4.38c-16.12 5.88-24.46 23.76-18.6 39.88l0.02 0.04c-55.18 98.5-132.54 166.22-188.1 205.84-59.7 42.58-107.48 62.64-110.26 63.8L163 454c-76.42 27.82-115.96 112.62-88.16 189.06 13.48 37.02 40.56 66.58 76.26 83.22 19.84 9.26 41.02 13.92 62.26 13.92 13.76 0 27.54-2 41.02-5.9l68.86 189.22c0.2 0.54 0.44 1.02 0.64 1.54 0.42 1.06 0.82 2.12 1.28 3.12 5.5 12.12 14.44 21.78 25.2 28.28 0.2 0.14 0.4 0.28 0.62 0.4 0.92 0.54 1.86 1.02 2.8 1.52 0.52 0.28 1.04 0.58 1.56 0.84 0.64 0.32 1.3 0.58 1.96 0.88 0.86 0.38 1.7 0.78 2.58 1.14 0.34 0.14 0.7 0.24 1.04 0.38 1.18 0.44 2.38 0.9 3.62 1.28 0.02 0 0.06 0.02 0.1 0.02 6.06 1.9 12.48 2.92 19.04 2.92 3.66 0 7.28-0.3 10.86-0.92 0.06-0.02 0.14-0.02 0.2-0.04 0.66-0.1 1.32-0.24 1.98-0.38 0.26-0.06 0.52-0.1 0.78-0.16 0.48-0.1 0.94-0.22 1.4-0.34 0.46-0.12 0.92-0.22 1.38-0.34 0.2-0.06 0.42-0.12 0.64-0.18 1.58-0.44 3.16-0.94 4.74-1.52h0.02l96.9-35.28a9.98 9.98 0 0 0 5.98-12.82l-60.52-166.28 62.74-22.82a10.102 10.102 0 0 0 5.64-5.18c1.12-2.4 1.24-5.14 0.34-7.64l-23.14-63.56c42.5-11.38 214.32-49.72 392.02 17.56l0.02 0.06c4.46 12.24 16.22 20.48 29.24 20.48 3.62 0 7.2-0.64 10.64-1.9l12.06-4.38c7.82-2.84 14.06-8.56 17.56-16.08 3.52-7.54 3.88-15.98 1.04-23.78z m-51.1-299.48c11 30.18-2.08 63.34-29.36 78.4l-43.52-119.58c30.58-6 61.9 11 72.88 41.18z m-648.14 371.6c-31.98 11.6-66.56 10.08-97.4-4.3-30.86-14.4-54.28-39.94-65.92-71.94-24.04-66.06 10.14-139.38 76.2-163.42l210.66-76.68 87.22 239.62-62.62 22.8c-0.04 0.02-0.08 0.02-0.1 0.02l-147.94 53.86c-0.04 0-0.06 0.02-0.1 0.04z m229.38 198.84l-87.52 31.86c-1.1 0.42-2.24 0.76-3.36 1.08-0.2 0.04-0.38 0.1-0.56 0.14-1.06 0.28-2.12 0.52-3.18 0.72-0.28 0.04-0.54 0.08-0.8 0.14-1.04 0.16-2.08 0.3-3.12 0.4-0.28 0.04-0.54 0.04-0.82 0.06-0.92 0.08-1.82 0.12-2.74 0.12-0.4 0.02-0.8 0.02-1.2 0-0.7 0-1.42-0.04-2.12-0.08-0.44-0.02-0.86-0.06-1.3-0.1-0.72-0.06-1.44-0.16-2.14-0.26-0.54-0.06-1.06-0.16-1.6-0.26-0.5-0.08-1-0.18-1.5-0.3-0.44-0.08-0.9-0.18-1.34-0.3-0.78-0.18-1.54-0.4-2.3-0.64-0.4-0.12-0.8-0.26-1.2-0.38-0.6-0.22-1.22-0.44-1.82-0.66-0.26-0.12-0.54-0.22-0.82-0.32-0.86-0.36-1.7-0.74-2.52-1.14-0.22-0.1-0.44-0.22-0.68-0.34-1.86-0.94-3.68-2.02-5.4-3.22l-0.02-0.02a44.22 44.22 0 0 1-14.8-17.66l-0.24-0.54c-0.44-0.96-0.84-1.92-1.2-2.92l-68.74-188.88 129.14-47 23.34 64.12c0.02 0.04 0.02 0.08 0.04 0.12 0.02 0.04 0.04 0.08 0.06 0.14l60.46 166.12z m8.2-201.92l-53.34 19.42-19.96-54.84 53.34-19.42 19.96 54.84z m112.52-100.08c-58.98 4.68-102.26 15.2-120.34 20.18l-87.62-240.78c17.04-7.78 56.96-27.56 105.14-61.88 54.58-38.86 129.58-103.98 185.92-197.96l186.56 512.58c-103.56-35.78-202.88-37.46-269.66-32.14z m329.98 46.36a11.08 11.08 0 0 1-6.28 5.74l-12.06 4.4c-1.24 0.44-2.52 0.68-3.8 0.68-4.66 0-8.84-2.94-10.44-7.32L700.02 97.46a11.116 11.116 0 0 1 6.64-14.24l12.06-4.4c1.24-0.44 2.52-0.68 3.8-0.68 4.66 0 8.86 2.94 10.46 7.32l76.74 210.86c0 0.02 0 0.06 0.02 0.08 0 0.02 0.02 0.04 0.02 0.08l50.86 139.7c0 0.02 0 0.04 0.02 0.06 0 0.02 0.02 0.04 0.02 0.08l76.76 210.84c1 2.8 0.88 5.82-0.38 8.5z" fill="#23130D" p-id="30550"></path><path d="M875.74 419.26l-43.52-119.58c30.58-6 61.9 11 72.88 41.18 11 30.18-2.08 63.34-29.36 78.4z" fill="#636368" p-id="30551"></path><path d="M902.22 391.58c0.54-8.6-0.64-17.46-3.78-26.06-9.14-25.16-32.44-41.16-57.66-42.32l-8.56-23.52c30.58-6 61.9 11 72.88 41.18 6.28 17.24 4.7 35.46-2.88 50.72z" fill="#23130D" opacity=".2" p-id="30552"></path><path d="M937.04 655.66a11.08 11.08 0 0 1-6.28 5.74l-12.06 4.4c-1.24 0.44-2.52 0.68-3.8 0.68-4.66 0-8.84-2.94-10.44-7.32L700.02 97.46a11.116 11.116 0 0 1 6.64-14.24l12.06-4.4c1.24-0.44 2.52-0.68 3.8-0.68 4.66 0 8.86 2.94 10.46 7.32l76.74 210.86c0 0.02 0 0.06 0.02 0.08 0 0.02 0.02 0.04 0.02 0.08l50.86 139.7c0 0.02 0 0.04 0.02 0.06 0 0.02 0.02 0.04 0.02 0.08l76.76 210.84c1 2.8 0.88 5.82-0.38 8.5z" fill="#EC7063" p-id="30553"></path><path d="M937.04 655.66a11.08 11.08 0 0 1-6.28 5.74l-5.36 1.96c-0.04-1.14-0.26-2.26-0.64-3.36L848 449.16c0-0.04-0.02-0.06-0.02-0.08-0.02-0.02-0.02-0.04-0.02-0.06l-50.86-139.7c0-0.04-0.02-0.06-0.02-0.08-0.02-0.02-0.02-0.06-0.02-0.08L720.32 98.3c-1.6-4.38-5.8-7.32-10.46-7.32-1.28 0-2.56 0.24-3.8 0.68l-6.7 2.44a11.094 11.094 0 0 1 7.3-10.88l12.06-4.4c1.24-0.44 2.52-0.68 3.8-0.68 4.66 0 8.86 2.94 10.46 7.32l76.74 210.86c0 0.02 0 0.06 0.02 0.08 0 0.02 0.02 0.04 0.02 0.08l50.86 139.7c0 0.02 0 0.04 0.02 0.06 0 0.02 0.02 0.04 0.02 0.08l76.76 210.84c1 2.8 0.88 5.82-0.38 8.5z" fill="#23130D" opacity=".2" p-id="30554"></path><path d="M486.34 911.3l-87.52 31.86c-1.1 0.42-2.24 0.76-3.36 1.08-0.2 0.04-0.38 0.1-0.56 0.14-1.06 0.28-2.12 0.52-3.18 0.72-0.28 0.04-0.54 0.08-0.8 0.14-1.04 0.16-2.08 0.3-3.12 0.4-0.28 0.04-0.54 0.04-0.82 0.06-0.92 0.08-1.82 0.12-2.74 0.12-0.4 0.02-0.8 0.02-1.2 0-0.7 0-1.42-0.04-2.12-0.08-0.44-0.02-0.86-0.06-1.3-0.1-0.72-0.06-1.44-0.16-2.14-0.26-0.54-0.06-1.06-0.16-1.6-0.26-0.5-0.08-1-0.18-1.5-0.3-0.44-0.08-0.9-0.18-1.34-0.3-0.78-0.18-1.54-0.4-2.3-0.64-0.4-0.12-0.8-0.26-1.2-0.38-0.6-0.22-1.22-0.44-1.82-0.66-0.26-0.12-0.54-0.22-0.82-0.32-0.86-0.36-1.7-0.74-2.52-1.14-0.22-0.1-0.44-0.22-0.68-0.34-1.86-0.94-3.68-2.02-5.4-3.22l-0.02-0.02a44.22 44.22 0 0 1-14.8-17.66l-0.24-0.54c-0.44-0.96-0.84-1.92-1.2-2.92l-68.74-188.88 129.14-47 23.34 64.12c0.02 0.04 0.02 0.08 0.04 0.12 0.02 0.04 0.04 0.08 0.06 0.14l60.46 166.12z" fill="#E1E1E5" p-id="30555"></path><path d="M486.34 911.3l-87.52 31.86c-1.1 0.42-2.24 0.76-3.36 1.08-0.2 0.04-0.38 0.1-0.56 0.14-1.06 0.28-2.12 0.52-3.18 0.72-0.28 0.04-0.54 0.08-0.8 0.14-1.04 0.16-2.08 0.3-3.12 0.4-0.28 0.04-0.54 0.04-0.82 0.06-0.92 0.08-1.82 0.12-2.74 0.12-0.4 0.02-0.8 0.02-1.2 0-0.7 0-1.42-0.04-2.12-0.08-0.44-0.02-0.86-0.06-1.3-0.1-0.72-0.06-1.44-0.16-2.14-0.26-0.54-0.06-1.06-0.16-1.6-0.26-0.5-0.08-1-0.18-1.5-0.3-0.44-0.08-0.9-0.18-1.34-0.3-0.78-0.18-1.54-0.4-2.3-0.64-0.4-0.12-0.8-0.26-1.2-0.38-0.6-0.22-1.22-0.44-1.82-0.66-0.26-0.12-0.54-0.22-0.82-0.32-0.86-0.36-1.7-0.74-2.52-1.14-0.22-0.1-0.44-0.22-0.68-0.34-1.86-0.94-3.68-2.02-5.4-3.22l-0.02-0.02a44.22 44.22 0 0 1-14.8-17.66l-0.24-0.54c-0.44-0.96-0.84-1.92-1.2-2.92l-68.74-188.88 23.24-8.46 57.5 157.98c0.36 1 0.76 1.96 1.2 2.92l0.24 0.54a44.22 44.22 0 0 0 14.8 17.66l0.02 0.02c1.72 1.2 3.54 2.28 5.4 3.22 0.24 0.12 0.46 0.24 0.68 0.34 0.82 0.4 1.66 0.78 2.52 1.14 0.28 0.1 0.56 0.2 0.82 0.32 0.6 0.22 1.22 0.44 1.82 0.66 0.4 0.12 0.8 0.26 1.2 0.38 0.76 0.24 1.52 0.46 2.3 0.64 0.44 0.12 0.9 0.22 1.34 0.3 0.5 0.12 1 0.22 1.5 0.3 0.54 0.1 1.06 0.2 1.6 0.26 0.7 0.1 1.42 0.2 2.14 0.26 0.44 0.04 0.86 0.08 1.3 0.1 0.7 0.04 1.42 0.08 2.12 0.08 0.4 0.02 0.8 0.02 1.2 0 0.92 0 1.82-0.04 2.74-0.12 0.28-0.02 0.54-0.02 0.82-0.06 1.04-0.1 2.08-0.24 3.12-0.4 0.26-0.06 0.52-0.1 0.8-0.14 1.06-0.2 2.12-0.44 3.18-0.72 0.18-0.04 0.36-0.1 0.56-0.14 1.12-0.32 2.26-0.66 3.36-1.08l64.28-23.4 11.24 30.9z" fill="#23130D" opacity=".2" p-id="30556"></path><path d="M876.72 641.44c-103.56-35.78-202.88-37.46-269.66-32.14-58.98 4.68-102.26 15.2-120.34 20.18l-87.62-240.78c17.04-7.78 56.96-27.56 105.14-61.88 54.58-38.86 129.58-103.98 185.92-197.96l186.56 512.58z" fill="#E1E1E5" p-id="30557"></path><path d="M876.72 641.44c-103.56-35.78-202.88-37.46-269.66-32.14-58.98 4.68-102.26 15.2-120.34 20.18l-11.8-32.44c19.88-5.4 64.42-15.94 124.52-20.72 65.88-5.24 161.96-4 263.54 27.4l13.74 37.72z" fill="#23130D" opacity=".2" p-id="30558"></path><path d="M467.72 635.74l-62.62 22.8c-0.04 0.02-0.08 0.02-0.1 0.02l-147.94 53.86c-0.04 0-0.06 0.02-0.1 0.04-31.98 11.6-66.56 10.08-97.4-4.3-30.86-14.4-54.28-39.94-65.92-71.94-24.04-66.06 10.14-139.38 76.2-163.42l210.66-76.68 87.22 239.62z" fill="#EC7063" p-id="30559"></path><path d="M467.72 635.74l-62.62 22.8c-0.04 0.02-0.08 0.02-0.1 0.02l-147.94 53.86c-0.04 0-0.06 0.02-0.1 0.04-31.98 11.6-66.56 10.08-97.4-4.3-30.86-14.4-54.28-39.94-65.92-71.94-10.84-29.76-9.84-61.02 0.56-88.56a126.76 126.76 0 0 0 7.44 51.32c11.64 32 35.06 57.54 65.92 71.94 30.84 14.38 65.42 15.9 97.4 4.3 0.04-0.02 0.06-0.04 0.1-0.04l147.94-53.86c0.02 0 0.06 0 0.1-0.02l43.58-15.88 11.04 30.32z" fill="#23130D" opacity=".2" p-id="30560"></path></svg>