<?xml version="1.0" standalone="no"?><!DOCTYPE svg PUBLIC "-//W3C//DTD SVG 1.1//EN" "http://www.w3.org/Graphics/SVG/1.1/DTD/svg11.dtd"><svg t="1625812229693" class="icon" viewBox="0 0 1024 1024" version="1.1" xmlns="http://www.w3.org/2000/svg" p-id="55767" xmlns:xlink="http://www.w3.org/1999/xlink" width="200" height="200"><defs><style type="text/css"></style></defs><path d="M634.4 575.5c-13.42 0-25.84 4.32-35.98 11.6l-37.72-37.72a61.318 61.318 0 0 0 11.62-35.96c0-13.42-4.32-25.84-11.62-35.98l37.72-37.72a61.38 61.38 0 0 0 35.98 11.62c34.04 0 61.72-27.7 61.72-61.74 0-34.04-27.68-61.72-61.72-61.72s-61.74 27.68-61.74 61.72c0 13.42 4.32 25.84 11.62 35.98l-37.72 37.72a61.38 61.38 0 0 0-35.98-11.62 61.38 61.38 0 0 0-35.98 11.62l-37.7-37.72c7.3-10.14 11.6-22.56 11.6-35.98 0-34.04-27.68-61.72-61.72-61.72s-61.74 27.68-61.74 61.72 27.7 61.74 61.74 61.74c13.42 0 25.84-4.32 35.98-11.62l37.7 37.72a61.362 61.362 0 0 0-11.6 35.98c0 13.42 4.3 25.84 11.6 35.98l-37.7 37.7a61.362 61.362 0 0 0-35.98-11.6c-34.04 0-61.74 27.68-61.74 61.72s27.7 61.74 61.74 61.74c34.04 0 61.72-27.7 61.72-61.74 0-13.42-4.3-25.84-11.6-35.98l37.7-37.7c10.14 7.28 22.56 11.6 35.98 11.6 13.42 0 25.84-4.32 35.98-11.62l37.72 37.72a61.38 61.38 0 0 0-11.62 35.98c0 34.04 27.7 61.74 61.74 61.74 34.04 0 61.72-27.7 61.72-61.74 0-34.04-27.68-61.72-61.72-61.72z m0-227.62c23 0 41.72 18.72 41.72 41.72 0 23.02-18.72 41.74-41.72 41.74-23.02 0-41.74-18.72-41.74-41.74 0-23 18.72-41.72 41.74-41.72z m-247.62 83.46c-23.02 0-41.74-18.72-41.74-41.74 0-23 18.72-41.72 41.74-41.72 23 0 41.72 18.72 41.72 41.72 0 23.02-18.72 41.74-41.72 41.74z m0 247.62c-23.02 0-41.74-18.72-41.74-41.74 0-23 18.72-41.72 41.74-41.72 23 0 41.72 18.72 41.72 41.72 0 23.02-18.72 41.74-41.72 41.74z m123.8-123.82c-23 0-41.72-18.72-41.72-41.72 0-23.02 18.72-41.74 41.72-41.74 23.02 0 41.74 18.72 41.74 41.74 0 23-18.72 41.72-41.74 41.72z m123.82 123.82c-23.02 0-41.74-18.72-41.74-41.74 0-23 18.72-41.72 41.74-41.72 23 0 41.72 18.72 41.72 41.72 0 23.02-18.72 41.74-41.72 41.74z" fill="#23130D" p-id="55768"></path><path d="M923.3 645.4l28.86-28.88a10.1 10.1 0 0 0 2.7-4.88c14.62-65.18 14.62-134.1 0-199.28-0.42-1.86-1.36-3.54-2.7-4.88l-28.86-28.88 43.58-43.58a10.006 10.006 0 0 0 0-14.14 9.97 9.97 0 0 0-14.14 0l-43.6 43.58-38.6-38.6 43.6-43.6a10.006 10.006 0 0 0 0-14.14 10.006 10.006 0 0 0-14.14 0l-43.6 43.6-38.6-38.62 43.58-43.58a10.006 10.006 0 0 0 0-14.14 9.97 9.97 0 0 0-14.14 0l-43.6 43.58-38.6-38.6 43.6-43.6a10.006 10.006 0 0 0 0-14.14 10.006 10.006 0 0 0-14.14 0l-43.6 43.6-38.62-38.62 43.6-43.58a10.006 10.006 0 0 0 0-14.14 9.97 9.97 0 0 0-14.14 0l-43.6 43.58-38.6-38.6 43.58-43.6a9.97 9.97 0 0 0 0-14.14 10.006 10.006 0 0 0-14.14 0l-43.58 43.6-28.88-28.88a10.1 10.1 0 0 0-4.88-2.7c-65.24-14.62-134.04-14.62-199.28 0-1.86 0.42-3.54 1.36-4.88 2.7L378.6 100.7l-43.58-43.58a10.006 10.006 0 0 0-14.14 0 9.97 9.97 0 0 0 0 14.14l43.58 43.58-38.62 38.62-43.58-43.58a9.97 9.97 0 0 0-14.14 0 10.006 10.006 0 0 0 0 14.14l43.58 43.58-38.6 38.6-43.58-43.58a10.006 10.006 0 0 0-14.14 0 9.97 9.97 0 0 0 0 14.14l43.58 43.6-38.6 38.6-43.6-43.58a9.97 9.97 0 0 0-14.14 0 10.006 10.006 0 0 0 0 14.14l43.58 43.58-38.6 38.6-43.58-43.58a10.006 10.006 0 0 0-14.14 0 9.97 9.97 0 0 0 0 14.14l43.58 43.6-38.6 38.6-43.6-43.58a9.97 9.97 0 0 0-14.14 0 10.006 10.006 0 0 0 0 14.14l43.58 43.58-28.86 28.88c-1.34 1.34-2.28 3.02-2.7 4.88-14.62 65.18-14.62 134.1 0 199.28 0.42 1.84 1.36 3.54 2.7 4.88l28.86 28.88-43.58 43.58a10.006 10.006 0 0 0 7.08 17.08c2.56 0 5.12-0.98 7.06-2.94l43.6-43.58 38.6 38.6-43.58 43.6a9.97 9.97 0 0 0 0 14.14 9.88 9.88 0 0 0 7.06 2.92c2.56 0 5.12-0.96 7.08-2.92l43.58-43.58 38.62 38.6-43.6 43.6a10.006 10.006 0 0 0 0 14.14c1.96 1.94 4.52 2.92 7.08 2.92 2.56 0 5.12-0.98 7.06-2.92l43.6-43.6 38.6 38.6-43.58 43.6a9.97 9.97 0 0 0 0 14.14 9.88 9.88 0 0 0 7.06 2.92c2.56 0 5.12-0.96 7.08-2.92l43.58-43.58 38.62 38.6-43.6 43.58a10.006 10.006 0 0 0 7.08 17.08c2.56 0 5.12-0.98 7.06-2.94l43.6-43.58 38.6 38.6-43.58 43.6a9.97 9.97 0 0 0 0 14.14 9.88 9.88 0 0 0 7.06 2.92c2.56 0 5.12-0.96 7.08-2.92l43.58-43.58 28.88 28.86a10.1 10.1 0 0 0 4.88 2.7c32.62 7.32 66.14 11.02 99.64 11.02s67.02-3.7 99.64-11.02c1.86-0.42 3.54-1.36 4.88-2.7l28.88-28.88 43.58 43.6a9.96 9.96 0 0 0 7.08 2.92c2.56 0 5.12-0.96 7.06-2.92a9.97 9.97 0 0 0 0-14.14l-43.58-43.6 38.6-38.6 43.6 43.58a9.9 9.9 0 0 0 7.06 2.94 10.006 10.006 0 0 0 7.08-17.08l-43.6-43.58 38.62-38.62 43.58 43.6a9.96 9.96 0 0 0 7.08 2.92c2.56 0 5.12-0.96 7.06-2.92a9.97 9.97 0 0 0 0-14.14l-43.58-43.6 38.6-38.6 43.6 43.6c1.94 1.94 4.5 2.92 7.06 2.92 2.56 0 5.12-0.98 7.08-2.92a10.006 10.006 0 0 0 0-14.14l-43.6-43.6 38.62-38.6 43.58 43.58a9.96 9.96 0 0 0 7.08 2.92c2.56 0 5.12-0.96 7.06-2.92a9.97 9.97 0 0 0 0-14.14l-43.58-43.6 38.6-38.6 43.6 43.58a9.9 9.9 0 0 0 7.06 2.94 10.006 10.006 0 0 0 7.08-17.08l-43.58-43.58zM604.44 935.96c-60.6 13.16-124.28 13.18-184.88 0l-33.88-33.88h-0.02l-52.74-52.74v-0.02l-52.74-52.74h-0.02l-52.74-52.74v-0.02l-139.38-139.38c-13.16-60.54-13.16-124.34 0-184.88l139.38-139.38c0-0.02 0-0.02 0.02-0.02l52.74-52.74 52.74-52.74 52.74-52.76h0.02l33.88-33.88c60.6-13.16 124.28-13.16 184.88 0l244.88 244.88h0.02v0.02l52.72 52.72c0.02 0 0.02 0 0.02 0.02h0.02l33.86 33.88c13.16 60.54 13.16 124.34 0 184.88L604.44 935.96z" fill="#23130D" p-id="55769"></path><path d="M935.96 419.56l-33.86-33.88h-0.02c0-0.02 0-0.02-0.02-0.02l-52.72-52.72v-0.02h-0.02L604.44 88.04c-60.6-13.16-124.28-13.16-184.88 0l-33.88 33.88h-0.02l-52.74 52.76-52.74 52.74-52.74 52.74c-0.02 0-0.02 0-0.02 0.02l-139.38 139.38c-13.16 60.54-13.16 124.34 0 184.88l139.38 139.38v0.02l52.74 52.74h0.02l52.74 52.74v0.02l52.74 52.74h0.02l33.88 33.88c60.6 13.18 124.28 13.16 184.88 0l331.52-331.52c13.16-60.54 13.16-124.34 0-184.88z m-73.08 93.78c-0.1 25.46-2.9 50.94-8.46 75.7-0.42 1.86-1.34 3.54-2.68 4.88L593.92 851.74c-1.34 1.34-3.02 2.26-4.88 2.68a352.372 352.372 0 0 1-77.04 8.52c-1.76 0-3.52-0.04-5.28-0.06h-0.4c-24-0.4-47.98-3.22-71.36-8.46-1.84-0.42-3.54-1.34-4.88-2.68L172.26 593.92a9.976 9.976 0 0 1-2.68-4.88c-5.62-25.06-8.44-50.82-8.48-76.6 0-0.14-0.04-0.28-0.04-0.44s0.04-0.3 0.04-0.44c0.04-25.78 2.86-51.54 8.48-76.6 0.42-1.86 1.34-3.54 2.68-4.88L430.08 172.26c1.34-1.34 3.02-2.26 4.88-2.68 24.62-5.52 49.9-8.34 75.2-8.46 0.14-0.02 0.28-0.04 0.42-0.04h0.06c0.1 0 0.18 0.02 0.28 0.02 26.28-0.08 52.54 2.74 78.12 8.48 1.86 0.42 3.54 1.34 4.88 2.68l257.82 257.82c1.34 1.34 2.26 3.02 2.68 4.88 5.7 25.4 8.52 51.52 8.48 77.64 0 0.1 0.02 0.2 0.02 0.3 0 0.14-0.04 0.28-0.04 0.44z" fill="#E1E1E5" p-id="55770"></path><path d="M512 88.17c29.484 0 58.892 3.038 87.46 9.032l242.788 242.788 0.02 0.02 49.82 49.82 0.012 5.85h5.856l28.842 28.86c12.03 57.284 12.03 117.636 0 174.92L599.46 926.798c-28.59 6-58.01 9.04-87.496 9.04-29.484 0-58.878-3.04-87.424-9.038l-31.79-31.79-2.948-2.928L342.92 845.2v-0.02l-2.928-2.928-52.74-52.74-2.948-2.928-46.882-46.882v-0.02l-2.928-2.928-137.292-137.294c-12.03-57.284-12.03-117.634 0-174.918l134.38-134.38 2.928-2.928 52.74-52.74 52.742-52.742 49.81-49.83h0.018l2.928-2.928 31.788-31.788A426.416 426.416 0 0 1 512 88.17m-2.424 62.954a362.078 362.078 0 0 0-76.818 8.702 19.98 19.98 0 0 0-9.748 5.364l-257.82 257.82a19.996 19.996 0 0 0-5.366 9.762c-5.71 25.46-8.644 51.788-8.722 78.276a10.968 10.968 0 0 0 0 1.902c0.076 26.478 3.01 52.814 8.724 78.292a19.98 19.98 0 0 0 5.364 9.748l257.82 257.82a20.054 20.054 0 0 0 9.764 5.366 363.916 363.916 0 0 0 73.38 8.7l0.084 0.002H506.656l1.67 0.024c1.226 0.018 2.45 0.036 3.676 0.036 26.664 0 53.322-2.948 79.242-8.766a19.98 19.98 0 0 0 9.748-5.364l257.82-257.82a20 20 0 0 0 5.366-9.76c5.634-25.09 8.56-51.108 8.7-77.376a11.03 11.03 0 0 0 0.022-1.602c0.014-26.884-2.92-53.624-8.726-79.498a19.98 19.98 0 0 0-5.364-9.748l-257.82-257.82a19.996 19.996 0 0 0-9.762-5.366c-25.798-5.79-52.45-8.724-79.222-8.724l-0.73 0.002a11.65 11.65 0 0 0-1.7 0.028M512 78.17c-31.07 0-62.14 3.29-92.44 9.87l-33.88 33.88h-0.02l-52.74 52.76-52.74 52.74-52.74 52.74c-0.02 0-0.02 0-0.02 0.02l-139.38 139.38c-13.16 60.54-13.16 124.34 0 184.88l139.38 139.38v0.02l52.74 52.74h0.02l52.74 52.74v0.02l52.74 52.74h0.02l33.88 33.88c30.286 6.586 61.35 9.878 92.404 9.878 31.086 0 62.16-3.294 92.476-9.878l331.52-331.52c13.16-60.54 13.16-124.34 0-184.88l-33.86-33.88h-0.02c0-0.02 0-0.02-0.02-0.02l-52.72-52.72v-0.02h-0.02L604.44 88.04c-30.3-6.58-61.37-9.87-92.44-9.87z m-5.68 784.71c-24-0.4-47.98-3.22-71.36-8.46-1.84-0.42-3.54-1.34-4.88-2.68L172.26 593.92a9.976 9.976 0 0 1-2.68-4.88c-5.62-25.06-8.44-50.82-8.48-76.6 0-0.14-0.04-0.28-0.04-0.44s0.04-0.3 0.04-0.44c0.04-25.78 2.86-51.54 8.48-76.6 0.42-1.86 1.34-3.54 2.68-4.88L430.08 172.26c1.34-1.34 3.02-2.26 4.88-2.68 24.62-5.52 49.9-8.34 75.2-8.46 0.14-0.02 0.28-0.04 0.42-0.04h0.06c0.1 0 0.18 0.02 0.28 0.02l1.088-0.002c25.918 0 51.804 2.82 77.032 8.482 1.86 0.42 3.54 1.34 4.88 2.68l257.82 257.82c1.34 1.34 2.26 3.02 2.68 4.88 5.7 25.4 8.52 51.52 8.48 77.64 0 0.1 0.02 0.2 0.02 0.3 0 0.14-0.04 0.28-0.04 0.44-0.1 25.46-2.9 50.94-8.46 75.7-0.42 1.86-1.34 3.54-2.68 4.88L593.92 851.74c-1.34 1.34-3.02 2.26-4.88 2.68a352.372 352.372 0 0 1-77.04 8.52c-1.76 0-3.52-0.04-5.28-0.06h-0.4z" opacity=".2" p-id="55771"></path><path d="M862.9 512.6c0.04-26.12-2.78-52.24-8.48-77.64-0.42-1.86-1.34-3.54-2.68-4.88L593.92 172.26a9.976 9.976 0 0 0-4.88-2.68c-25.58-5.74-51.84-8.56-78.12-8.48-0.1 0-0.18-0.02-0.28-0.02h-0.06c-0.14 0-0.28 0.02-0.42 0.04-25.3 0.12-50.58 2.94-75.2 8.46-1.86 0.42-3.54 1.34-4.88 2.68L172.26 430.08c-1.34 1.34-2.26 3.02-2.68 4.88-5.62 25.06-8.44 50.82-8.48 76.6 0 0.14-0.04 0.28-0.04 0.44s0.04 0.3 0.04 0.44c0.04 25.78 2.86 51.54 8.48 76.6 0.42 1.86 1.34 3.54 2.68 4.88l257.82 257.82c1.34 1.34 3.04 2.26 4.88 2.68 23.38 5.24 47.36 8.06 71.36 8.46h0.4c1.76 0.02 3.52 0.06 5.28 0.06 25.9 0 51.82-2.86 77.04-8.52 1.86-0.42 3.54-1.34 4.88-2.68l257.82-257.82c1.34-1.34 2.26-3.02 2.68-4.88 5.56-24.76 8.36-50.24 8.46-75.7 0-0.16 0.04-0.3 0.04-0.44 0-0.1-0.02-0.2-0.02-0.3zM541.06 290.46c0 17.86-14.54 32.4-32.4 32.4s-32.4-14.54-32.4-32.4c0-17.88 14.54-32.4 32.4-32.4s32.4 14.52 32.4 32.4z m-33.8 483.56c-17.88 0-32.4-14.52-32.4-32.38 0-17.88 14.52-32.4 32.4-32.4 17.86 0 32.4 14.52 32.4 32.4 0 17.86-14.54 32.38-32.4 32.38z m226.28-311.08c-28.88 0-52.38 23.5-52.38 52.4s23.5 52.4 52.38 52.4c26.2 0 47.96-19.32 51.8-44.46l57.36-0.28c-0.64 19.8-3.02 39.54-7.18 58.86L581.86 835.52a331.148 331.148 0 0 1-65.72 7.34l-1.44-49.36c25.38-3.64 44.96-25.5 44.96-51.86 0-28.9-23.52-52.4-52.4-52.4-28.9 0-52.4 23.5-52.4 52.4 0 24.54 16.96 45.2 39.8 50.84l1.46 50.04c-18.16-0.86-36.24-3.18-53.96-7L188.48 581.86c-4.22-19.64-6.62-39.72-7.22-59.86h48.98c2.64 26.44 25.02 47.14 52.14 47.14 28.88 0 52.38-23.5 52.38-52.4 0-28.88-23.5-52.4-52.38-52.4-23.78 0-43.9 15.92-50.28 37.66H181.26c0.6-20.14 3-40.22 7.22-59.86L442.14 188.48c19.16-4.12 38.74-6.5 58.36-7.18l-0.42 57.48c-24.82 4.1-43.82 25.7-43.82 51.68 0 28.88 23.52 52.4 52.4 52.4 28.9 0 52.4-23.52 52.4-52.4 0-24.98-17.56-45.92-40.98-51.14l0.42-58.12c20.64 0.52 41.22 2.94 61.36 7.28l253.66 253.66c4.3 19.96 6.72 40.38 7.26 60.86l-58.24 0.28c-5.48-23.1-26.24-40.34-51-40.34z m32.4 52.4c0 17.86-14.52 32.4-32.4 32.4-17.86 0-32.38-14.54-32.38-32.4s14.52-32.4 32.38-32.4c17.88 0 32.4 14.54 32.4 32.4z m-515.96 1.4c0-17.86 14.52-32.4 32.4-32.4 17.86 0 32.38 14.54 32.38 32.4 0 17.88-14.52 32.4-32.38 32.4-17.88 0-32.4-14.52-32.4-32.4z" fill="#23130D" p-id="55772"></path><path d="M765.94 515.34c0 1.38-0.08 2.74-0.26 4.08-0.56 4.5-2.04 8.7-4.28 12.42-1.26 2.16-2.78 4.14-4.52 5.94-1.64 1.72-3.46 3.24-5.46 4.56-1.02 0.68-2.1 1.32-3.2 1.88-3.06 1.56-6.38 2.64-9.9 3.16-1.56 0.24-3.16 0.36-4.78 0.36-17.86 0-32.38-14.54-32.38-32.4 0-1.62 0.12-3.2 0.36-4.76 0.5-3.52 1.6-6.84 3.16-9.9 0.56-1.1 1.18-2.18 1.86-3.2 1.32-2 2.86-3.84 4.58-5.48 1.78-1.72 3.78-3.24 5.92-4.52 3.72-2.22 7.92-3.72 12.42-4.28 1.34-0.18 2.7-0.26 4.08-0.26 17.88 0 32.4 14.54 32.4 32.4zM539.66 741.64c0 17.86-14.54 32.38-32.4 32.38-17.88 0-32.4-14.52-32.4-32.38 0-17.88 14.52-32.4 32.4-32.4 17.86 0 32.4 14.52 32.4 32.4zM314.76 516.74c0 17.88-14.52 32.4-32.38 32.4-17.88 0-32.4-14.52-32.4-32.4 0-17.86 14.52-32.4 32.4-32.4 17.86 0 32.38 14.54 32.38 32.4zM541.06 290.46c0 17.86-14.54 32.4-32.4 32.4s-32.4-14.54-32.4-32.4c0-17.88 14.54-32.4 32.4-32.4s32.4 14.52 32.4 32.4z" fill="#F9C139" p-id="55773"></path><path d="M733.54 488.94c14.558 0 26.4 11.844 26.4 26.4s-11.842 26.4-26.4 26.4c-14.546 0-26.38-11.844-26.38-26.4s11.834-26.4 26.38-26.4m0-6c-17.86 0-32.38 14.54-32.38 32.4s14.52 32.4 32.38 32.4c17.88 0 32.4-14.54 32.4-32.4s-14.52-32.4-32.4-32.4zM507.26 715.24c14.558 0 26.4 11.844 26.4 26.4 0 14.546-11.844 26.38-26.4 26.38s-26.4-11.834-26.4-26.38c0-14.556 11.844-26.4 26.4-26.4m0-6c-17.88 0-32.4 14.52-32.4 32.4 0 17.86 14.52 32.38 32.4 32.38 17.86 0 32.4-14.52 32.4-32.38 0-17.88-14.54-32.4-32.4-32.4zM282.38 490.34c14.546 0 26.38 11.844 26.38 26.4s-11.834 26.4-26.38 26.4c-14.558 0-26.4-11.844-26.4-26.4s11.842-26.4 26.4-26.4m0-6c-17.88 0-32.4 14.54-32.4 32.4 0 17.88 14.52 32.4 32.4 32.4 17.86 0 32.38-14.52 32.38-32.4 0-17.86-14.52-32.4-32.38-32.4zM508.66 264.06c14.558 0 26.4 11.842 26.4 26.4s-11.844 26.4-26.4 26.4-26.4-11.844-26.4-26.4 11.844-26.4 26.4-26.4m0-6c-17.86 0-32.4 14.52-32.4 32.4 0 17.86 14.54 32.4 32.4 32.4s32.4-14.54 32.4-32.4c0-17.88-14.54-32.4-32.4-32.4z" opacity=".2" p-id="55774"></path><path d="M447.92 381.16c0.38 2.76 0.58 5.58 0.58 8.44 0 13.42-4.3 25.84-11.6 35.98l37.7 37.72a61.38 61.38 0 0 1 35.98-11.62c2.86 0 5.7 0.2 8.46 0.6l-71.12-71.12z m0 0c0.38 2.76 0.58 5.58 0.58 8.44 0 13.42-4.3 25.84-11.6 35.98l37.7 37.72a61.38 61.38 0 0 1 35.98-11.62c2.86 0 5.7 0.2 8.46 0.6l-71.12-71.12z m0 0c0.38 2.76 0.58 5.58 0.58 8.44 0 13.42-4.3 25.84-11.6 35.98l37.7 37.72a61.38 61.38 0 0 1 35.98-11.62c2.86 0 5.7 0.2 8.46 0.6l-71.12-71.12z m289.04 186.46c-1.12 0.08-2.26 0.12-3.42 0.12-28.88 0-52.38-23.5-52.38-52.4 0-1.14 0.04-2.28 0.12-3.42 1.76-27.3 24.52-48.98 52.26-48.98 24.76 0 45.52 17.24 51 40.34l58.24-0.28c-0.54-20.48-2.96-40.9-7.26-60.86L581.86 188.48a331.092 331.092 0 0 0-61.36-7.28l-0.42 58.12c23.42 5.22 40.98 26.16 40.98 51.14 0 27.74-21.68 50.52-48.98 52.28-1.14 0.08-2.28 0.12-3.42 0.12-28.88 0-52.4-23.52-52.4-52.4 0-1.14 0.04-2.3 0.12-3.42 1.58-24.44 19.98-44.34 43.7-48.26l0.42-57.48c-19.62 0.68-39.2 3.06-58.36 7.18l-42.16 42.16-51.28 51.3-32.16 32.14-30.86 30.86-15.6 15.62-40.16 40.14-41.44 41.44c-4.22 19.64-6.62 39.72-7.22 59.86h50.84c6.38-21.74 26.5-37.66 50.28-37.66 4.4 0 8.68 0.54 12.78 1.58 18.62 4.68 33.32 19.4 38 38.02 1.06 4.1 1.6 8.38 1.6 12.8 0 28.9-23.5 52.4-52.38 52.4-27.12 0-49.5-20.7-52.14-47.14H181.26c0.6 20.14 3 40.22 7.22 59.86l253.68 253.66c17.72 3.82 35.8 6.14 53.96 7l-1.46-50.04c-22.84-5.64-39.8-26.3-39.8-50.84 0-28.9 23.5-52.4 52.4-52.4 4.42 0 8.7 0.54 12.8 1.6 18.62 4.68 33.32 19.36 38 37.98 1.04 4.1 1.6 8.4 1.6 12.82 0 26.36-19.58 48.22-44.96 51.86l1.44 49.36c22.1-0.26 44.16-2.7 65.72-7.34l41.44-41.44 40.16-40.14 15.6-15.62 30.86-30.86 32.16-32.14 51.28-51.3 42.16-42.16c4.16-19.32 6.54-39.06 7.18-58.86l-57.36 0.28c-3.68 24.04-23.72 42.76-48.38 44.34z m-40.84 69.6c0 15.68-5.88 30.02-15.54 40.92-10.26 11.58-24.78 19.28-41.1 20.6-1.68 0.16-3.36 0.22-5.08 0.22-34.04 0-61.74-27.7-61.74-61.74 0-1.7 0.08-3.4 0.22-5.08 0.94-11.48 5.04-22.06 11.4-30.9l-37.72-37.72a61.392 61.392 0 0 1-30.9 11.4c-1.68 0.14-3.38 0.22-5.08 0.22-13.42 0-25.84-4.32-35.98-11.6l-0.76 0.78-36.94 36.92c3.08 4.28 5.62 8.96 7.52 13.94 2.64 6.84 4.08 14.28 4.08 22.04 0 34.04-27.68 61.74-61.72 61.74s-61.74-27.7-61.74-61.74c0-34.04 27.7-61.72 61.74-61.72 7.76 0 15.2 1.44 22.04 4.08 4.98 1.9 9.66 4.44 13.94 7.52l36.94-36.92 0.76-0.78a61.362 61.362 0 0 1-11.38-41.06c0.92-11.48 5.02-22.06 11.38-30.9l-37.7-37.72a61.392 61.392 0 0 1-30.9 11.4c-1.68 0.14-3.38 0.22-5.08 0.22-34.04 0-61.74-27.7-61.74-61.74 0-1.72 0.06-3.4 0.22-5.08 1.32-16.32 9.04-30.86 20.62-41.1a61.374 61.374 0 0 1 40.9-15.54c2.86 0 5.68 0.2 8.44 0.58 27.3 3.74 48.96 25.4 52.7 52.7 0.38 2.76 0.58 5.58 0.58 8.44 0 13.42-4.3 25.84-11.6 35.98l37.7 37.72a61.38 61.38 0 0 1 35.98-11.62c2.86 0 5.7 0.2 8.46 0.6 10.16 1.38 19.54 5.28 27.52 11.02l37.72-37.72a60.776 60.776 0 0 1-9.54-20.2c-1.36-5.04-2.08-10.32-2.08-15.78 0-34.04 27.7-61.72 61.74-61.72 34.04 0 61.72 27.68 61.72 61.72s-27.68 61.74-61.72 61.74c-5.46 0-10.74-0.72-15.78-2.08-7.36-1.92-14.18-5.2-20.2-9.54l-37.72 37.72c5.74 7.98 9.64 17.36 11.02 27.52 0.4 2.76 0.6 5.6 0.6 8.46 0 13.4-4.32 25.84-11.62 35.96l37.72 37.72c10.14-7.28 22.56-11.6 35.98-11.6 2.86 0 5.68 0.2 8.44 0.58 27.3 3.74 48.96 25.4 52.7 52.7 0.38 2.76 0.58 5.58 0.58 8.44z m-248.2-256.06c0.38 2.76 0.58 5.58 0.58 8.44 0 13.42-4.3 25.84-11.6 35.98l37.7 37.72a61.38 61.38 0 0 1 35.98-11.62c2.86 0 5.7 0.2 8.46 0.6l-71.12-71.12z m0 0c0.38 2.76 0.58 5.58 0.58 8.44 0 13.42-4.3 25.84-11.6 35.98l37.7 37.72a61.38 61.38 0 0 1 35.98-11.62c2.86 0 5.7 0.2 8.46 0.6l-71.12-71.12z m0 0c0.38 2.76 0.58 5.58 0.58 8.44 0 13.42-4.3 25.84-11.6 35.98l37.7 37.72a61.38 61.38 0 0 1 35.98-11.62c2.86 0 5.7 0.2 8.46 0.6l-71.12-71.12z" fill="#EC7063" p-id="55775"></path><path d="M428.5 637.22c0 23.02-18.72 41.74-41.72 41.74-23.02 0-41.74-18.72-41.74-41.74 0-23 18.72-41.72 41.74-41.72 23 0 41.72 18.72 41.72 41.72zM676.12 389.6c0 23.02-18.72 41.74-41.72 41.74-23.02 0-41.74-18.72-41.74-41.74 0-23 18.72-41.72 41.74-41.72 23 0 41.72 18.72 41.72 41.72zM428.5 389.6c0 23.02-18.72 41.74-41.72 41.74-23.02 0-41.74-18.72-41.74-41.74 0-23 18.72-41.72 41.74-41.72 23 0 41.72 18.72 41.72 41.72zM552.32 513.42c0 23-18.72 41.72-41.74 41.72-23 0-41.72-18.72-41.72-41.72 0-23.02 18.72-41.74 41.72-41.74 23.02 0 41.74 18.72 41.74 41.74zM676.12 637.22c0 1.22-0.06 2.44-0.18 3.64-0.52 6.28-2.46 12.16-5.5 17.32-1.7 2.98-3.8 5.7-6.18 8.14a40.22 40.22 0 0 1-7.58 6.16c-1.42 0.92-2.92 1.74-4.46 2.48a40.95 40.95 0 0 1-14.06 3.82c-1.24 0.12-2.5 0.18-3.76 0.18-23.02 0-41.74-18.72-41.74-41.74 0-1.28 0.06-2.54 0.18-3.78a40.962 40.962 0 0 1 6.3-18.5 40.22 40.22 0 0 1 6.16-7.58c2.44-2.38 5.16-4.46 8.12-6.18 5.18-3.04 11.06-4.98 17.34-5.5 1.2-0.12 2.42-0.18 3.64-0.18 23 0 41.72 18.72 41.72 41.72z" fill="#F9C139" p-id="55776"></path><path d="M386.78 603.5c18.594 0 33.72 15.126 33.72 33.72 0 18.604-15.126 33.74-33.72 33.74-18.604 0-33.74-15.136-33.74-33.74 0-18.594 15.136-33.72 33.74-33.72m0-8c-23.02 0-41.74 18.72-41.74 41.72 0 23.02 18.72 41.74 41.74 41.74 23 0 41.72-18.72 41.72-41.74 0-23-18.72-41.72-41.72-41.72zM634.4 355.88c18.594 0 33.72 15.126 33.72 33.72 0 18.604-15.126 33.74-33.72 33.74-18.604 0-33.74-15.136-33.74-33.74 0-18.594 15.136-33.72 33.74-33.72m0-8c-23.02 0-41.74 18.72-41.74 41.72 0 23.02 18.72 41.74 41.74 41.74 23 0 41.72-18.72 41.72-41.74 0-23-18.72-41.72-41.72-41.72zM386.78 355.88c18.594 0 33.72 15.126 33.72 33.72 0 18.604-15.126 33.74-33.72 33.74-18.604 0-33.74-15.136-33.74-33.74 0-18.594 15.136-33.72 33.74-33.72m0-8c-23.02 0-41.74 18.72-41.74 41.72 0 23.02 18.72 41.74 41.74 41.74 23 0 41.72-18.72 41.72-41.74 0-23-18.72-41.72-41.72-41.72zM510.58 479.68c18.604 0 33.74 15.136 33.74 33.74 0 18.594-15.136 33.72-33.74 33.72-18.594 0-33.72-15.126-33.72-33.72 0-18.604 15.126-33.74 33.72-33.74m0-8c-23 0-41.72 18.72-41.72 41.74 0 23 18.72 41.72 41.72 41.72 23.02 0 41.74-18.72 41.74-41.72 0-23.02-18.72-41.74-41.74-41.74zM634.4 603.5c18.594 0 33.72 15.126 33.72 33.72 0 0.956-0.048 1.914-0.14 2.844l-0.006 0.068-0.006 0.068a32.496 32.496 0 0 1-4.42 13.92l-0.028 0.048-0.028 0.048a32.348 32.348 0 0 1-4.986 6.546 32.198 32.198 0 0 1-6.07 4.936l-0.052 0.034-0.052 0.034c-1.052 0.682-2.256 1.35-3.554 1.974a32.996 32.996 0 0 1-11.386 3.078c-0.978 0.094-1.984 0.142-2.99 0.142-18.604 0-33.74-15.136-33.74-33.74 0-1.018 0.048-2.03 0.148-3.076a32.872 32.872 0 0 1 5.046-14.854l0.034-0.052 0.034-0.052a32.318 32.318 0 0 1 4.964-6.098 33.616 33.616 0 0 1 6.584-5.008 32.67 32.67 0 0 1 13.95-4.426l0.068-0.006 0.068-0.006c0.93-0.094 1.886-0.142 2.842-0.142m0-8c-1.22 0-2.44 0.06-3.64 0.18-6.28 0.52-12.16 2.46-17.34 5.5-2.96 1.72-5.68 3.8-8.12 6.18a40.22 40.22 0 0 0-6.16 7.58 40.962 40.962 0 0 0-6.3 18.5c-0.12 1.24-0.18 2.5-0.18 3.78 0 23.02 18.72 41.74 41.74 41.74 1.26 0 2.52-0.06 3.76-0.18 5-0.44 9.74-1.76 14.06-3.82 1.54-0.74 3.04-1.56 4.46-2.48a40.22 40.22 0 0 0 7.58-6.16c2.38-2.44 4.48-5.16 6.18-8.14 3.04-5.16 4.98-11.04 5.5-17.32 0.12-1.2 0.18-2.42 0.18-3.64 0-23-18.72-41.72-41.72-41.72z" opacity=".2" p-id="55777"></path><path d="M652.22 674.96a40.95 40.95 0 0 1-14.06 3.82l-45.32-45.34c0.44-4.98 1.76-9.72 3.82-14.04l55.56 55.56zM664.26 666.32a40.22 40.22 0 0 1-7.58 6.16l-57.54-57.54a40.22 40.22 0 0 1 6.16-7.58l58.96 58.96zM675.94 640.86c-0.52 6.28-2.46 12.16-5.5 17.32l-57.02-57c5.18-3.04 11.06-4.98 17.34-5.5l45.18 45.18z" fill="#FFFFFF" opacity=".4" p-id="55778"></path><path d="M404.6 674.96a40.95 40.95 0 0 1-14.06 3.82l-45.32-45.34c0.44-4.98 1.76-9.72 3.82-14.04l55.56 55.56zM416.64 666.32a40.22 40.22 0 0 1-7.58 6.16l-57.54-57.54a40.22 40.22 0 0 1 6.16-7.58l58.96 58.96zM428.32 640.86c-0.52 6.28-2.46 12.16-5.5 17.32l-57.02-57c5.18-3.04 11.06-4.98 17.34-5.5l45.18 45.18z" fill="#FFFFFF" opacity=".4" p-id="55779"></path><path d="M652.22 427.34a40.95 40.95 0 0 1-14.06 3.82l-45.32-45.34c0.44-4.98 1.76-9.72 3.82-14.04l55.56 55.56zM664.26 418.7a40.22 40.22 0 0 1-7.58 6.16l-57.54-57.54a40.22 40.22 0 0 1 6.16-7.58l58.96 58.96zM675.94 393.24c-0.52 6.28-2.46 12.16-5.5 17.32l-57.02-57c5.18-3.04 11.06-4.98 17.34-5.5l45.18 45.18z" fill="#FFFFFF" opacity=".4" p-id="55780"></path><path d="M526.49 553.07a40.95 40.95 0 0 1-14.06 3.82l-45.32-45.34c0.44-4.98 1.76-9.72 3.82-14.04l55.56 55.56zM538.53 544.43a40.22 40.22 0 0 1-7.58 6.16l-57.54-57.54a40.22 40.22 0 0 1 6.16-7.58l58.96 58.96zM550.21 518.97c-0.52 6.28-2.46 12.16-5.5 17.32l-57.02-57c5.18-3.04 11.06-4.98 17.34-5.5l45.18 45.18z" fill="#FFFFFF" opacity=".4" p-id="55781"></path><path d="M404.6 427.34a40.95 40.95 0 0 1-14.06 3.82l-45.32-45.34c0.44-4.98 1.76-9.72 3.82-14.04l55.56 55.56zM416.64 418.7a40.22 40.22 0 0 1-7.58 6.16l-57.54-57.54a40.22 40.22 0 0 1 6.16-7.58l58.96 58.96zM428.32 393.24c-0.52 6.28-2.46 12.16-5.5 17.32l-57.02-57c5.18-3.04 11.06-4.98 17.34-5.5l45.18 45.18z" fill="#FFFFFF" opacity=".4" p-id="55782"></path><path d="M748.22 544.22c-3.06 1.56-6.38 2.64-9.9 3.16l-36.8-36.8c0.5-3.52 1.6-6.84 3.16-9.9l43.54 43.54zM756.88 537.78c-1.64 1.72-3.46 3.24-5.46 4.56l-44.88-44.86c1.32-2 2.86-3.84 4.58-5.48l45.76 45.78zM765.68 519.42c-0.56 4.5-2.04 8.7-4.28 12.42l-44.36-44.36c3.72-2.22 7.92-3.72 12.42-4.28l36.22 36.22z" fill="#FFFFFF" opacity=".4" p-id="55783"></path><path d="M521.88 770.56c-3.06 1.56-6.38 2.64-9.9 3.16l-36.8-36.8c0.5-3.52 1.6-6.84 3.16-9.9l43.54 43.54zM530.54 764.12c-1.64 1.72-3.46 3.24-5.46 4.56l-44.88-44.86c1.32-2 2.86-3.84 4.58-5.48l45.76 45.78zM539.34 745.76c-0.56 4.5-2.04 8.7-4.28 12.42l-44.36-44.36c3.72-2.22 7.92-3.72 12.42-4.28l36.22 36.22z" fill="#FFFFFF" opacity=".4" p-id="55784"></path><path d="M296.99 545.67c-3.06 1.56-6.38 2.64-9.9 3.16l-36.8-36.8c0.5-3.52 1.6-6.84 3.16-9.9l43.54 43.54zM305.65 539.23c-1.64 1.72-3.46 3.24-5.46 4.56l-44.88-44.86c1.32-2 2.86-3.84 4.58-5.48l45.76 45.78zM314.45 520.87c-0.56 4.5-2.04 8.7-4.28 12.42l-44.36-44.36c3.72-2.22 7.92-3.72 12.42-4.28l36.22 36.22z" fill="#FFFFFF" opacity=".4" p-id="55785"></path><path d="M459.7 550.18l-36.94 36.92a61.258 61.258 0 0 0-13.94-7.52l-75.66-75.64c-4.68-18.62-19.38-33.34-38-38.02l-65.24-65.22 40.16-40.14 189.62 189.62zM663.46 753.94l-40.16 40.14-65.24-65.26c-4.68-18.62-19.38-33.3-38-37.98l-75.64-75.66c-1.9-4.98-4.44-9.66-7.52-13.94l36.94-36.92 189.62 189.62zM316.54 314.08l29.34 29.34c-11.58 10.24-19.3 24.78-20.62 41.1l-39.58-39.58 30.86-30.86zM422.76 439.72l37.7 37.72a61.186 61.186 0 0 0-11.38 30.9l-57.22-57.22c11.48-0.94 22.06-5.04 30.9-11.4zM546.56 563.52l37.72 37.72a61.392 61.392 0 0 0-11.4 30.9l-57.22-57.22c11.48-0.94 22.06-5.04 30.9-11.4zM709.92 707.46l-30.86 30.86-39.58-39.58c16.32-1.32 30.84-9.02 41.1-20.6l29.34 29.32zM584.28 425.58l-37.72 37.72c-7.98-5.74-17.36-9.64-27.52-11.02l-71.12-71.12c-3.74-27.3-25.4-48.96-52.7-52.7l-46.52-46.52 51.28-51.3 56.4 56.4c-0.08 1.12-0.12 2.28-0.12 3.42 0 28.88 23.52 52.4 52.4 52.4 1.14 0 2.28-0.04 3.42-0.12l62.66 62.64c1.92 7.36 5.2 14.18 9.54 20.2zM793.36 624.02l-51.28 51.3-46.54-46.54c-3.74-27.3-25.4-48.96-52.7-52.7l-71.12-71.12c-1.38-10.16-5.28-19.54-11.02-27.52l37.72-37.72c6.02 4.34 12.84 7.62 20.2 9.54l62.66 62.66c-0.08 1.14-0.12 2.28-0.12 3.42 0 28.9 23.5 52.4 52.38 52.4 1.16 0 2.3-0.04 3.42-0.12l56.4 56.4z" fill="#FFFFFF" opacity=".4" p-id="55786"></path><path d="M522.96 319.39c-3.06 1.56-6.38 2.64-9.9 3.16l-36.8-36.8c0.5-3.52 1.6-6.84 3.16-9.9l43.54 43.54zM531.62 312.95c-1.64 1.72-3.46 3.24-5.46 4.56l-44.88-44.86c1.32-2 2.86-3.84 4.58-5.48l45.76 45.78zM540.42 294.59c-0.56 4.5-2.04 8.7-4.28 12.42l-44.36-44.36c3.72-2.22 7.92-3.72 12.42-4.28l36.22 36.22z" fill="#FFFFFF" opacity=".4" p-id="55787"></path></svg>