<?xml version="1.0" standalone="no"?><!DOCTYPE svg PUBLIC "-//W3C//DTD SVG 1.1//EN" "http://www.w3.org/Graphics/SVG/1.1/DTD/svg11.dtd"><svg t="1625811965646" class="icon" viewBox="0 0 1024 1024" version="1.1" xmlns="http://www.w3.org/2000/svg" p-id="46604" xmlns:xlink="http://www.w3.org/1999/xlink" width="200" height="200"><defs><style type="text/css"></style></defs><path d="M971.3 846.42h-13.5v-24.96c0-15.58-12.66-28.24-28.24-28.24h-14.62l48.98-211.04c4.22-19.4-0.88-47.66-11.66-64.42l-96.34-146.78V87.02c0-1.32-0.26-2.56-0.74-3.72v-0.04c-0.26-0.6-0.54-1.16-0.9-1.7 0 0-0.02-0.02-0.02-0.04-0.74-1.12-1.7-2.1-2.84-2.84-0.12-0.08-0.28-0.14-0.4-0.22-0.42-0.26-0.86-0.5-1.32-0.68-0.22-0.1-0.44-0.14-0.66-0.22-0.4-0.12-0.78-0.28-1.2-0.36-0.32-0.06-0.62-0.06-0.94-0.08-0.34-0.04-0.66-0.1-1-0.1H370.78c-0.54 0-1.06 0.08-1.56 0.16-0.12 0-0.24 0-0.34 0.02-0.58 0.12-1.12 0.3-1.64 0.5-0.08 0.02-0.16 0.04-0.22 0.06-1.28 0.52-2.42 1.3-3.38 2.28l-196.62 196.62c-0.04 0.04-0.04 0.06-0.08 0.08-0.42 0.44-0.82 0.92-1.16 1.44-0.18 0.26-0.3 0.54-0.44 0.82-0.18 0.3-0.36 0.58-0.48 0.9-0.14 0.34-0.22 0.7-0.34 1.04-0.08 0.28-0.18 0.54-0.24 0.84-0.12 0.64-0.2 1.3-0.2 1.96v93.34l-92.38 140.76c-10.74 16.66-15.84 44.94-11.58 64.48l48.94 210.9h-14.62c-15.58 0-28.24 12.66-28.24 28.24v24.96h-13.5c-5.52 0-10 4.48-10 10v80.58c0 5.52 4.48 10 10 10h296.44c5.52 0 10-4.48 10-10v-80.58c0-5.52-4.48-10-10-10h-9.76v-24.96c0-15.58-12.68-28.24-28.26-28.24h-11.44v-24.38H649.2c2.82 0 5.36-1.16 7.18-3.04l71.84-71.84c-2.52 15.7-3.92 33.34-3.92 51.22v48.04h-11.42c-15.58 0-28.24 12.66-28.24 28.24v24.96h-9.78c-5.52 0-10 4.48-10 10v80.58c0 5.52 4.48 10 10 10h296.44c5.52 0 10-4.48 10-10v-80.58c0-5.52-4.48-10-10-10z m-133.66-466.84l97.86 149.08c7.8 12.12 11.96 35.14 8.9 49.12l-49.98 215.44h-150.12v-48.04c0-30 4.06-58.96 10.84-77.5l0.26-0.64c0.02-0.08 0.04-0.14 0.08-0.22 3.12-8.52 6.08-19.92 8.32-32.12 2.42-13.34 3.76-26.04 3.76-35.76v-114.66c0-12.24 9.58-22.64 21.36-23.2 0.08 0 0.16 0 0.24-0.02 1.62-0.1 3.36 0.06 5.1 0.42 10.5 2.1 18.12 11.7 18.12 22.8v114.44c-0.14 3.78-0.62 35.06 21.84 61.04a9.986 9.986 0 0 0 14.1 1.04 9.984 9.984 0 0 0 1.02-14.1c-18-20.86-16.98-46.98-16.98-47.2 0.02-0.2 0.02-0.38 0.02-0.56v-114.66c0-20.6-14.38-38.44-34.14-42.4-0.98-0.2-1.98-0.36-2.98-0.5l-54.74-132.68c-0.04-0.08-0.06-0.14-0.1-0.22-5.02-11.44-1.62-26.48 7.44-32.82 3.6-2.5 8.08-3.4 12.58-2.52 5.42 1.06 10.4 4.58 13.7 9.7l63.48 96.72 0.02 0.02zM655.72 97.02l-176.72 176.72h-114.72l176.72-176.72h114.72z m-182.58 196.72v175.62l-55.82-38.36c-0.06-0.02-0.1-0.04-0.14-0.06-0.34-0.22-0.68-0.4-1.04-0.58-0.24-0.12-0.48-0.26-0.72-0.36-0.3-0.12-0.62-0.2-0.94-0.3-0.32-0.08-0.62-0.2-0.94-0.26-0.28-0.06-0.6-0.06-0.9-0.1-0.32-0.04-0.66-0.08-1-0.08-0.32 0-0.66 0.04-0.98 0.08-0.3 0.04-0.62 0.04-0.92 0.1-0.3 0.06-0.6 0.18-0.92 0.26-0.32 0.1-0.64 0.18-0.94 0.3-0.24 0.1-0.48 0.24-0.72 0.36-0.36 0.18-0.72 0.36-1.04 0.58-0.04 0.02-0.1 0.04-0.14 0.06l-55.84 38.36v-175.62h123z m-98.2-196.72h137.78L336 273.74H198.22l176.72-176.72zM79.64 577.92c-3.08-14.12 1.06-37.14 8.82-49.18l75.62-115.22v345.32c0 5.54 4.48 10 10 10h105.6v24.38H129.58L79.64 577.92z m259.5 288.5v60.58H62.7v-60.58h276.44z m-28.02-53.2a8.26 8.26 0 0 1 8.26 8.24v24.96H86.2v-24.96a8.24 8.24 0 0 1 8.24-8.24h216.68z m162.02-64.38h-123v-175.62l55.82 38.36c0.4 0.28 0.8 0.5 1.24 0.72 0.12 0.06 0.26 0.1 0.38 0.16 0.3 0.14 0.58 0.24 0.88 0.34 0.16 0.06 0.34 0.12 0.5 0.16 0.28 0.08 0.56 0.14 0.84 0.2 0.16 0.02 0.34 0.06 0.5 0.08 0.4 0.06 0.82 0.08 1.24 0.1h0.16c0.42-0.02 0.84-0.04 1.24-0.1 0.18-0.02 0.34-0.06 0.5-0.08 0.28-0.06 0.56-0.12 0.84-0.2 0.16-0.04 0.34-0.1 0.52-0.16 0.28-0.1 0.56-0.2 0.84-0.32l0.42-0.18c0.42-0.22 0.82-0.44 1.22-0.72l55.86-38.36v175.62z m166.06 0h-146.06v-194.62-0.04c-0.02-1.3-0.26-2.6-0.78-3.84-0.26-0.62-0.6-1.2-0.96-1.74 0-0.02-0.02-0.04-0.02-0.04-0.12-0.16-0.26-0.3-0.38-0.44-0.28-0.36-0.54-0.72-0.86-1.02-0.24-0.24-0.5-0.42-0.74-0.62-0.26-0.2-0.5-0.42-0.78-0.6-0.26-0.18-0.56-0.32-0.86-0.48-0.28-0.14-0.56-0.3-0.86-0.44-0.3-0.12-0.62-0.2-0.94-0.28-0.3-0.1-0.6-0.2-0.92-0.26-0.44-0.1-0.9-0.12-1.36-0.14-0.18-0.02-0.36-0.06-0.54-0.06h-0.04c-1.3 0-2.62 0.26-3.86 0.78-0.6 0.26-1.18 0.58-1.74 0.96 0 0-0.02 0-0.02 0.02l-65.86 45.22-65.82-45.22c-0.02 0-0.02-0.02-0.04-0.02-0.54-0.38-1.12-0.7-1.74-0.96-1.24-0.52-2.54-0.78-3.86-0.78h-0.02c-0.18 0-0.34 0.04-0.52 0.06-0.48 0.02-0.94 0.04-1.4 0.14-0.32 0.06-0.6 0.16-0.9 0.26-0.32 0.08-0.64 0.16-0.96 0.28-0.3 0.14-0.58 0.3-0.86 0.46-0.3 0.14-0.58 0.28-0.86 0.46s-0.52 0.4-0.78 0.62c-0.24 0.2-0.5 0.36-0.72 0.6-0.34 0.32-0.62 0.68-0.92 1.06-0.1 0.14-0.22 0.26-0.32 0.4-0.02 0-0.02 0.02-0.02 0.02-0.74 1.08-1.28 2.3-1.54 3.62-0.14 0.66-0.2 1.32-0.2 1.98v194.66H184.08V293.74h146.06v194.66c0 0.66 0.06 1.32 0.2 1.98 0.02 0.06 0.04 0.12 0.06 0.2 0.12 0.56 0.28 1.12 0.52 1.68 0.26 0.6 0.58 1.18 0.96 1.74 0 0 0 0.02 0.02 0.02 0.32 0.48 0.68 0.9 1.06 1.28 0.08 0.1 0.16 0.18 0.24 0.26 0.86 0.82 1.82 1.46 2.86 1.92 0.1 0.04 0.22 0.1 0.32 0.14 0.54 0.22 1.06 0.38 1.62 0.5l0.32 0.06a9.158 9.158 0 0 0 3.62 0c0.18-0.02 0.34-0.08 0.52-0.12 0.42-0.1 0.82-0.22 1.22-0.38 0.18-0.06 0.36-0.12 0.52-0.2 0.44-0.2 0.88-0.44 1.3-0.7 0.08-0.06 0.18-0.1 0.26-0.14l0.04-0.04 65.84-45.22 65.84 45.22c0 0.02 0.02 0.02 0.04 0.04 0.08 0.04 0.16 0.08 0.24 0.14 0.42 0.26 0.86 0.5 1.3 0.7 0.18 0.08 0.34 0.14 0.52 0.2 0.4 0.16 0.82 0.28 1.24 0.38 0.16 0.04 0.34 0.1 0.5 0.12a9.158 9.158 0 0 0 3.62 0l0.34-0.06c0.54-0.12 1.08-0.28 1.6-0.5 0.12-0.04 0.22-0.1 0.34-0.14 0.52-0.24 1.02-0.5 1.5-0.82 0.48-0.32 0.92-0.7 1.34-1.1 0.08-0.08 0.18-0.16 0.26-0.26 0.38-0.38 0.74-0.8 1.06-1.28 0 0 0-0.02 0.02-0.02 0.36-0.56 0.7-1.14 0.96-1.74 0.16-0.4 0.26-0.82 0.38-1.22 0.06-0.22 0.14-0.44 0.2-0.66 0.12-0.66 0.18-1.32 0.2-1.98v-194.66h146.06v455.1z m5.86-475.1h-137.78L684 97.02h137.78l-176.72 176.72z m14.14 460.94v-446.8l176.72-176.74v229.38l-45.02-68.58c-6.18-9.6-15.88-16.32-26.6-18.42-9.9-1.94-19.8 0.1-27.9 5.76-16.88 11.8-23.16 36.88-14.34 57.14l52.64 127.56c-15.94 6.24-27.14 21.94-27.14 40.3v114.66c0 8.42-1.26 20.16-3.44 32.16-1.68 9.18-3.78 17.76-6 24.68l-78.92 78.9z m45.44 86.78c0-4.54 3.7-8.24 8.24-8.24h216.68c4.54 0 8.24 3.7 8.24 8.24v24.96H704.64v-24.96z m256.66 105.54H684.86v-60.58h276.44v60.58z" fill="#23130D" p-id="46605"></path><path d="M319.38 821.46v24.96H86.2v-24.96a8.24 8.24 0 0 1 8.24-8.24h216.68a8.26 8.26 0 0 1 8.26 8.24z" fill="#E1E1E5" p-id="46606"></path><path d="M86.2 829.82h233.18v16.6H86.2z" opacity=".2" p-id="46607"></path><path d="M62.7 866.42h276.44v60.58H62.7z" fill="#3594BF" p-id="46608"></path><path d="M62.7 866.42h276.44v23.914H62.7z" fill="#FFFFFF" opacity=".4" p-id="46609"></path><path d="M684.86 866.42h276.44v60.58H684.86z" fill="#3594BF" p-id="46610"></path><path d="M937.8 821.46v24.96H704.64v-24.96c0-4.54 3.7-8.24 8.24-8.24h216.68c4.54 0 8.24 3.7 8.24 8.24z" fill="#E1E1E5" p-id="46611"></path><path d="M944.4 577.78l-49.98 215.44h-150.12v-48.04c0-30 4.06-58.96 10.84-77.5l0.26-0.64c0.02-0.08 0.04-0.14 0.08-0.22 3.12-8.52 6.08-19.92 8.32-32.12 2.42-13.34 3.76-26.04 3.76-35.76v-114.66c0-12.24 9.58-22.64 21.36-23.2 0.08 0 0.16 0 0.24-0.02 1.62-0.1 3.36 0.06 5.1 0.42 10.5 2.1 18.12 11.7 18.12 22.8v114.44c-0.14 3.78-0.62 35.06 21.84 61.04a9.986 9.986 0 0 0 14.1 1.04 9.984 9.984 0 0 0 1.02-14.1c-18-20.86-16.98-46.98-16.98-47.2 0.02-0.2 0.02-0.38 0.02-0.56v-114.66c0-20.6-14.38-38.44-34.14-42.4-0.98-0.2-1.98-0.36-2.98-0.5l-54.74-132.68c-0.04-0.08-0.06-0.14-0.1-0.22-5.02-11.44-1.62-26.48 7.44-32.82 3.6-2.5 8.08-3.4 12.58-2.52 5.42 1.06 10.4 4.58 13.7 9.7l63.48 96.72 0.02 0.02 97.86 149.08c7.8 12.12 11.96 35.14 8.9 49.12z" fill="#F8D3C9" p-id="46612"></path><path d="M944.4 577.78l-49.98 215.44h-36.14l49.98-215.44c3.06-13.98-1.1-37-8.9-49.12l-97.86-149.08-0.02-0.02-61.38-93.52c1.66-4.28 4.3-7.96 7.76-10.38 3.6-2.5 8.08-3.4 12.58-2.52 5.42 1.06 10.4 4.58 13.7 9.7l63.48 96.72 0.02 0.02 97.86 149.08c7.8 12.12 11.96 35.14 8.9 49.12z" opacity=".2" p-id="46613"></path><path d="M835.92 111.14v229.38l-4.68-7.12-15.52-23.66-14-21.32-10.82-16.48c-1.4-2.16-2.96-4.18-4.7-6.02-4.26-4.6-9.46-8.18-15.16-10.4a36.22 36.22 0 0 0-6.74-2c-2.94-0.58-5.86-0.8-8.76-0.7-5.32 0.22-10.46 1.58-15.16 4.06-1.38 0.7-2.7 1.5-3.98 2.4-4.7 3.28-8.58 7.6-11.52 12.56-7.68 12.84-9.18 29.96-2.82 44.58l2.82 6.84 15.5 37.56 15.16 36.74 15.5 37.56 3.66 8.86a42.352 42.352 0 0 0-19.16 15.06c-5.04 7.1-7.98 15.82-7.98 25.24v114.66c0 8.42-1.26 20.16-3.44 32.16-1.1 6-2.38 11.74-3.74 16.92-0.74 2.76-1.48 5.36-2.26 7.76l-28.4 28.4-15.52 15.5-35 35v-446.8l4.34-4.34 15.5-15.5 15.16-15.16 46.18-46.18 15.16-15.18 15.5-15.5 15.16-15.16 45.04-45.04 4.68-4.68z" fill="#636368" p-id="46614"></path><path d="M512.72 97.02L336 273.74H198.22l176.72-176.72z" fill="#E1E1E5" p-id="46615"></path><path d="M655.72 97.02l-176.72 176.72h-114.72l176.72-176.72z" fill="#EC7063" p-id="46616"></path><path d="M821.78 97.02l-176.72 176.72h-137.78L684 97.02z" fill="#E1E1E5" p-id="46617"></path><path d="M473.14 293.74v175.62l-55.82-38.36c-0.06-0.02-0.1-0.04-0.14-0.06-0.34-0.22-0.68-0.4-1.04-0.58-0.24-0.12-0.48-0.26-0.72-0.36-0.3-0.12-0.62-0.2-0.94-0.3-0.32-0.08-0.62-0.2-0.94-0.26-0.28-0.06-0.6-0.06-0.9-0.1-0.32-0.04-0.66-0.08-1-0.08-0.32 0-0.66 0.04-0.98 0.08-0.3 0.04-0.62 0.04-0.92 0.1-0.3 0.06-0.6 0.18-0.92 0.26-0.32 0.1-0.64 0.18-0.94 0.3-0.24 0.1-0.48 0.24-0.72 0.36-0.36 0.18-0.72 0.36-1.04 0.58-0.04 0.02-0.1 0.04-0.14 0.06l-55.84 38.36v-175.62h123zM473.14 573.22v175.62h-123v-175.62l55.82 38.36c0.4 0.28 0.8 0.5 1.24 0.72 0.12 0.06 0.26 0.1 0.38 0.16 0.3 0.14 0.58 0.24 0.88 0.34 0.16 0.06 0.34 0.12 0.5 0.16 0.28 0.08 0.56 0.14 0.84 0.2 0.16 0.02 0.34 0.06 0.5 0.08 0.4 0.06 0.82 0.08 1.24 0.1h0.16c0.42-0.02 0.84-0.04 1.24-0.1 0.18-0.02 0.34-0.06 0.5-0.08 0.28-0.06 0.56-0.12 0.84-0.2 0.16-0.04 0.34-0.1 0.52-0.16 0.28-0.1 0.56-0.2 0.84-0.32l0.42-0.18c0.42-0.22 0.82-0.44 1.22-0.72l55.86-38.36z" fill="#EC7063" p-id="46618"></path><path d="M569.92 97.02l-176.7 176.72h-28.94l176.72-176.72zM350.14 293.74h28.94v155.74l-28.94 19.88zM350.14 573.22l28.94 19.88v155.74h-28.94z" fill="#FFFFFF" opacity=".2" p-id="46619"></path><path d="M639.2 293.74v455.1h-146.06v-194.62-0.04c-0.02-1.3-0.26-2.6-0.78-3.84-0.26-0.62-0.6-1.2-0.96-1.74 0-0.02-0.02-0.04-0.02-0.04-0.12-0.16-0.26-0.3-0.38-0.44-0.28-0.36-0.54-0.72-0.86-1.02-0.24-0.24-0.5-0.42-0.74-0.62-0.26-0.2-0.5-0.42-0.78-0.6-0.26-0.18-0.56-0.32-0.86-0.48-0.28-0.14-0.56-0.3-0.86-0.44-0.3-0.12-0.62-0.2-0.94-0.28-0.08-0.02-0.16-0.06-0.26-0.08-0.22-0.08-0.44-0.14-0.66-0.18-0.44-0.1-0.9-0.12-1.36-0.14-0.18-0.02-0.36-0.06-0.54-0.06h-0.04c-1.3 0-2.62 0.26-3.86 0.78-0.6 0.26-1.18 0.58-1.74 0.96 0 0-0.02 0-0.02 0.02l-6.94 4.76-15.52 10.66-15.16 10.42-15.5 10.64-12.74 8.74-1.28-0.88-15.5-10.64-15.16-10.42-15.5-10.66-15.16-10.4-3.22-2.22c-0.02 0-0.02-0.02-0.04-0.02-0.54-0.38-1.12-0.7-1.74-0.96-1.24-0.52-2.54-0.78-3.86-0.78h-0.02c-0.18 0-0.34 0.04-0.52 0.06-0.48 0.02-0.94 0.04-1.4 0.14-0.32 0.06-0.6 0.16-0.9 0.26-0.32 0.08-0.64 0.16-0.96 0.28-0.3 0.14-0.58 0.3-0.86 0.46-0.3 0.14-0.58 0.28-0.86 0.46s-0.52 0.4-0.78 0.62c-0.12 0.1-0.24 0.18-0.36 0.28-0.14 0.1-0.26 0.2-0.36 0.32-0.34 0.32-0.62 0.68-0.92 1.06-0.1 0.14-0.22 0.26-0.32 0.4-0.02 0-0.02 0.02-0.02 0.02-0.74 1.08-1.28 2.3-1.54 3.62-0.14 0.66-0.2 1.32-0.2 1.98v194.66H184.08V293.74h146.06v194.66c0 0.66 0.06 1.32 0.2 1.98 0.02 0.06 0.04 0.12 0.06 0.2 0.12 0.56 0.28 1.12 0.52 1.68 0.26 0.6 0.58 1.18 0.96 1.74 0 0 0 0.02 0.02 0.02 0.32 0.48 0.68 0.9 1.06 1.28 0.08 0.1 0.16 0.18 0.24 0.26 0.1 0.1 0.2 0.18 0.3 0.26 0.78 0.7 1.64 1.26 2.56 1.66 0.1 0.04 0.22 0.1 0.32 0.14 0.54 0.22 1.06 0.38 1.62 0.5l0.32 0.06a9.158 9.158 0 0 0 3.62 0c0.18-0.02 0.34-0.08 0.52-0.12 0.42-0.1 0.82-0.22 1.22-0.38 0.18-0.06 0.36-0.12 0.52-0.2 0.44-0.2 0.88-0.44 1.3-0.7 0.08-0.06 0.18-0.1 0.26-0.14l0.04-0.04 3.22-2.22 15.16-10.4 15.5-10.64 15.16-10.42 15.5-10.64 1.3-0.9 12.72 8.74 15.5 10.64 15.16 10.42 15.52 10.66 6.94 4.76c0 0.02 0.02 0.02 0.04 0.04 0.08 0.04 0.16 0.08 0.24 0.14 0.42 0.26 0.86 0.5 1.3 0.7 0.18 0.08 0.34 0.14 0.52 0.2 0.4 0.16 0.82 0.28 1.24 0.38 0.16 0.04 0.34 0.1 0.5 0.12a9.158 9.158 0 0 0 3.62 0l0.34-0.06c0.14-0.04 0.28-0.06 0.42-0.12 0.4-0.08 0.8-0.22 1.18-0.38 0.12-0.04 0.22-0.1 0.34-0.14 0.52-0.24 1.02-0.5 1.5-0.82 0.48-0.32 0.92-0.7 1.34-1.1 0.08-0.08 0.18-0.16 0.26-0.26 0.38-0.38 0.74-0.8 1.06-1.28 0 0 0-0.02 0.02-0.02 0.36-0.56 0.7-1.14 0.96-1.74 0.16-0.4 0.26-0.82 0.38-1.22 0.06-0.22 0.14-0.44 0.2-0.66 0.12-0.66 0.18-1.32 0.2-1.98v-194.66h146.06z" fill="#9D9DA0" p-id="46620"></path><path d="M825.92 135.284v171.78l-26.612-40.538c-7.65-11.882-19.708-20.2-33.086-22.82a48.028 48.028 0 0 0-9.216-0.902 45.756 45.756 0 0 0-26.336 8.278c-20.594 14.396-28.41 44.79-17.818 69.236l49.094 118.968c-15.076 9.586-24.386 26.334-24.386 44.992v114.66c0 7.832-1.196 18.902-3.276 30.36-1.412 7.72-3.122 14.976-4.98 21.154L669.2 710.542v-418.52l156.72-156.738m10-24.144l-176.72 176.74v446.8l78.92-78.9c2.22-6.92 4.32-15.5 6-24.68 2.18-12 3.44-23.74 3.44-32.16v-114.66c0-18.36 11.2-34.06 27.14-40.3l-52.64-127.56c-8.82-20.26-2.54-45.34 14.34-57.14a35.77 35.77 0 0 1 20.606-6.474c2.414 0 4.854 0.236 7.294 0.714 10.72 2.1 20.42 8.82 26.6 18.42l45.02 68.58V111.14zM488.578 107.02l-156.72 156.72h-109.496l156.72-156.72h109.496m24.142-10h-137.78l-176.72 176.72H336l176.72-176.72zM797.638 107.02l-156.72 156.72h-109.496l156.72-156.72h109.496m24.142-10H684l-176.72 176.72h137.78l176.72-176.72zM629.2 303.74v435.1h-126.06v-184.66l-0.002-0.154a20.18 20.18 0 0 0-1.558-7.552 19.834 19.834 0 0 0-1.684-3.15 9.816 9.816 0 0 0-0.518-0.762 12.41 12.41 0 0 0-0.676-0.824 16.04 16.04 0 0 0-1.604-1.816 14.596 14.596 0 0 0-1.296-1.12 22.434 22.434 0 0 0-0.338-0.274 15.228 15.228 0 0 0-2.89-1.894l-0.108-0.056-0.226-0.118-0.142-0.074a20.804 20.804 0 0 0-0.968-0.486 9.8 9.8 0 0 0-0.516-0.224 15.336 15.336 0 0 0-1.858-0.602 15.886 15.886 0 0 0-4.16-0.76 12.226 12.226 0 0 0-1.496-0.092 19.884 19.884 0 0 0-7.728 1.558l-0.11 0.046c-1.168 0.506-2.306 1.132-3.378 1.86a14.432 14.432 0 0 0-0.284 0.2l-59.98 41.182-60.158-41.33c-0.104-0.07-0.208-0.14-0.314-0.206a19.226 19.226 0 0 0-3.262-1.752 19.908 19.908 0 0 0-7.748-1.558 11.56 11.56 0 0 0-1.446 0.092 16.64 16.64 0 0 0-2.466 0.308 14.87 14.87 0 0 0-1.716 0.456 16.696 16.696 0 0 0-1.66 0.52 10.322 10.322 0 0 0-0.72 0.302 19.98 19.98 0 0 0-1.262 0.652 16.072 16.072 0 0 0-1.636 0.918 15.378 15.378 0 0 0-1.706 1.29 13.184 13.184 0 0 0-1.462 1.274c-0.746 0.732-1.288 1.42-1.69 1.93l-0.032 0.042a14.972 14.972 0 0 0-0.708 0.924 19.624 19.624 0 0 0-3.088 7.272 19.758 19.758 0 0 0-0.402 4.02v184.62H194.08V303.74h126.06v184.66c0 1.384 0.14 2.748 0.418 4.054 0.044 0.212 0.098 0.428 0.16 0.642 0.26 1.104 0.594 2.126 1.028 3.14 0.506 1.17 1.132 2.306 1.86 3.378 0.064 0.096 0.132 0.19 0.2 0.282 0.536 0.766 1.128 1.484 1.798 2.182 0.19 0.212 0.366 0.39 0.52 0.546l0.176 0.172a20.028 20.028 0 0 0 5.714 3.828l0.114 0.05a19.524 19.524 0 0 0 3.776 1.224l0.132 0.028 0.322 0.06a19.354 19.354 0 0 0 7.266 0.054c0.478-0.078 0.882-0.176 1.214-0.266a19.04 19.04 0 0 0 2.248-0.688 12.76 12.76 0 0 0 1.382-0.56c0.67-0.31 1.344-0.668 2.01-1.066a10.16 10.16 0 0 0 1.218-0.774l59.946-41.172 59.852 41.108a9.95 9.95 0 0 0 1.07 0.704c0.782 0.48 1.578 0.906 2.432 1.294 0.38 0.17 0.754 0.318 1.154 0.458 0.684 0.258 1.406 0.48 2.198 0.676a19.256 19.256 0 0 0 8.456 0.256l0.122-0.022c0.176-0.03 0.352-0.064 0.526-0.102a19.632 19.632 0 0 0 3.528-1.134 20.606 20.606 0 0 0 3.29-1.768c0.912-0.608 1.766-1.3 2.688-2.178l0.024-0.024c0.172-0.16 0.39-0.372 0.634-0.634a18.286 18.286 0 0 0 2.198-2.738 21.756 21.756 0 0 0 1.832-3.432c0.312-0.78 0.498-1.442 0.622-1.88l0.052-0.18 0.068-0.24-0.018 0.07c0.078-0.244 0.152-0.49 0.22-0.736 0.076-0.276 0.138-0.556 0.19-0.838 0.204-1.118 0.32-2.25 0.356-3.466 0.004-0.102 0.004-0.242 0.004-0.344v-184.62h126.06m10-10.004h-146.06v194.66c-0.02 0.66-0.08 1.32-0.2 1.98-0.06 0.22-0.14 0.44-0.2 0.66-0.12 0.4-0.22 0.82-0.38 1.22-0.26 0.6-0.6 1.18-0.96 1.74-0.02 0-0.02 0.02-0.02 0.02-0.32 0.48-0.68 0.9-1.06 1.28-0.08 0.1-0.18 0.18-0.26 0.26-0.42 0.4-0.86 0.78-1.34 1.1-0.48 0.32-0.98 0.58-1.5 0.82-0.12 0.04-0.22 0.1-0.34 0.14-0.52 0.22-1.06 0.38-1.6 0.5l-0.34 0.06a9.208 9.208 0 0 1-3.62 0c-0.16-0.02-0.34-0.08-0.5-0.12a8.88 8.88 0 0 1-1.24-0.38c-0.18-0.06-0.34-0.12-0.52-0.2-0.44-0.2-0.88-0.44-1.3-0.7-0.08-0.06-0.16-0.1-0.24-0.14-0.02-0.02-0.04-0.02-0.04-0.04l-65.84-45.22-65.84 45.22-0.04 0.04c-0.08 0.04-0.18 0.08-0.26 0.14-0.42 0.26-0.86 0.5-1.3 0.7-0.16 0.08-0.34 0.14-0.52 0.2-0.4 0.16-0.8 0.28-1.22 0.38-0.18 0.04-0.34 0.1-0.52 0.12a9.158 9.158 0 0 1-3.62 0l-0.32-0.06c-0.56-0.12-1.08-0.28-1.62-0.5-0.1-0.04-0.22-0.1-0.32-0.14-1.04-0.46-2-1.1-2.86-1.92-0.08-0.08-0.16-0.16-0.24-0.26-0.38-0.38-0.74-0.8-1.06-1.28-0.02 0-0.02-0.02-0.02-0.02-0.38-0.56-0.7-1.14-0.96-1.74-0.24-0.56-0.4-1.12-0.52-1.68-0.02-0.08-0.04-0.14-0.06-0.2-0.14-0.66-0.2-1.32-0.2-1.98v-194.66H184.08v455.1h146.06v-194.62-0.04c0-0.66 0.06-1.32 0.2-1.98 0.26-1.32 0.8-2.54 1.54-3.62 0 0 0-0.02 0.02-0.02 0.1-0.14 0.22-0.26 0.32-0.4 0.3-0.38 0.58-0.74 0.92-1.06 0.22-0.24 0.48-0.4 0.72-0.6 0.26-0.22 0.5-0.44 0.78-0.62s0.56-0.32 0.86-0.46c0.28-0.16 0.56-0.32 0.86-0.46 0.32-0.12 0.64-0.2 0.96-0.28 0.3-0.1 0.58-0.2 0.9-0.26 0.46-0.1 0.92-0.12 1.4-0.14 0.18-0.02 0.34-0.06 0.52-0.06h0.02c1.32 0 2.62 0.26 3.86 0.78 0.62 0.26 1.2 0.58 1.74 0.96 0.02 0 0.02 0.02 0.04 0.02l65.82 45.22 65.86-45.22c0-0.02 0.02-0.02 0.02-0.02 0.56-0.38 1.14-0.7 1.74-0.96 1.24-0.52 2.56-0.78 3.86-0.78h0.04c0.18 0 0.36 0.04 0.54 0.06 0.46 0.02 0.92 0.04 1.36 0.14 0.32 0.06 0.62 0.16 0.92 0.26 0.32 0.08 0.64 0.16 0.94 0.28 0.3 0.14 0.58 0.3 0.86 0.44 0.3 0.16 0.6 0.3 0.86 0.48 0.28 0.18 0.52 0.4 0.78 0.6 0.24 0.2 0.5 0.38 0.74 0.62 0.32 0.3 0.58 0.66 0.86 1.02 0.12 0.14 0.26 0.28 0.38 0.44 0 0 0.02 0.02 0.02 0.04 0.36 0.54 0.7 1.12 0.96 1.74 0.52 1.24 0.76 2.54 0.78 3.84v194.66h146.06V293.74z" opacity=".2" p-id="46621"></path><path d="M279.68 768.84v24.38H129.58L79.64 577.92c-3.08-14.12 1.06-37.14 8.82-49.18l75.62-115.22v345.32c0 5.54 4.48 10 10 10h105.6z" fill="#F8D3C9" p-id="46622"></path><path d="M679.04 268.04v446.8l-15.5 15.5v-446.8zM709.72 237.36v446.82l-15.52 15.5v-446.8zM740.38 206.7v50.18c-1.38 0.7-2.7 1.5-3.98 2.4-4.7 3.28-8.58 7.6-11.52 12.56V222.2l15.5-15.5zM724.88 323.26l15.5 37.56v287.2c-0.74 2.76-1.48 5.36-2.26 7.76l-13.24 13.24V323.26zM771.04 176.02v79.5a36.22 36.22 0 0 0-6.74-2c-2.94-0.58-5.86-0.8-8.76-0.7V191.52l15.5-15.5zM755.54 397.56l15.5 37.56v10.5c-6.2 3.14-11.52 7.76-15.5 13.42v-61.48zM801.72 145.34v143.08l-10.82-16.48c-1.4-2.16-2.96-4.18-4.7-6.02V160.86l15.52-15.52z" fill="#FFFFFF" opacity=".1" p-id="46623"></path><path d="M831.24 115.82V333.4l-15.52-23.66v-178.4z" fill="#FFFFFF" opacity=".1" p-id="46624"></path><path d="M376.66 97.02l-176.72 176.72h-1.72l176.72-176.72zM420.02 97.02l-176.72 176.72h-21.92l176.72-176.72zM463.38 97.02l-176.72 176.72h-21.92l176.72-176.72zM506.78 97.02l-176.72 176.72h-21.96l176.72-176.72z" fill="#5D5D5D" opacity=".2" p-id="46625"></path><path d="M722 97.02l-176.74 176.72h-21.92l176.72-176.72zM765.36 97.02l-176.74 176.72h-21.92l176.74-176.72zM808.72 97.02l-176.7 176.72h-21.96l176.74-176.72z" fill="#5D5D5D" opacity=".2" p-id="46626"></path><path d="M184.08 293.74h11.6v455.1h-11.6zM210.84 293.74h15.5v455.1h-15.5zM241.5 293.74h15.52v455.1h-15.52zM272.18 293.74h15.5v455.1h-15.5zM302.84 293.74h15.5v455.1h-15.5zM349.02 494.38v53.82l-3.22-2.22c-0.02 0-0.02-0.02-0.04-0.02-0.54-0.38-1.12-0.7-1.74-0.96-1.24-0.52-2.54-0.78-3.86-0.78h-0.02c-0.18 0-0.34 0.04-0.52 0.06-0.48 0.02-0.94 0.04-1.4 0.14-0.32 0.06-0.6 0.16-0.9 0.26-0.32 0.08-0.64 0.16-0.96 0.28-0.3 0.14-0.58 0.3-0.86 0.46-0.3 0.14-0.58 0.28-0.86 0.46s-0.52 0.4-0.78 0.62c-0.12 0.1-0.24 0.18-0.36 0.28v-50.96c0.78 0.7 1.64 1.26 2.56 1.66 0.1 0.04 0.22 0.1 0.32 0.14 0.54 0.22 1.06 0.38 1.62 0.5l0.32 0.06a9.158 9.158 0 0 0 3.62 0c0.18-0.02 0.34-0.08 0.52-0.12 0.42-0.1 0.82-0.22 1.22-0.38 0.18-0.06 0.36-0.12 0.52-0.2 0.44-0.2 0.88-0.44 1.3-0.7 0.08-0.06 0.18-0.1 0.26-0.14l0.04-0.04 3.22-2.22zM379.68 473.34v95.92l-15.5-10.66v-74.62zM410.34 452.28v138.04l-15.5-10.64v-116.76z" fill="#FFFFFF" opacity=".1" p-id="46627"></path><path d="M439.86 470.76v101.06l-15.5 10.64v-122.34zM470.54 491.84v58.9l-15.52 10.66v-80.22zM501.2 293.74v455.1h-8.06v-194.62-0.04c-0.02-1.3-0.26-2.6-0.78-3.84-0.26-0.62-0.6-1.2-0.96-1.74 0-0.02-0.02-0.04-0.02-0.04-0.12-0.16-0.26-0.3-0.38-0.44-0.28-0.36-0.54-0.72-0.86-1.02-0.24-0.24-0.5-0.42-0.74-0.62-0.26-0.2-0.5-0.42-0.78-0.6-0.26-0.18-0.56-0.32-0.86-0.48-0.28-0.14-0.56-0.3-0.86-0.44-0.3-0.12-0.62-0.2-0.94-0.28-0.08-0.02-0.16-0.06-0.26-0.08V498c0.4-0.08 0.8-0.22 1.18-0.38 0.12-0.04 0.22-0.1 0.34-0.14 0.52-0.24 1.02-0.5 1.5-0.82 0.48-0.32 0.92-0.7 1.34-1.1 0.08-0.08 0.18-0.16 0.26-0.26 0.38-0.38 0.74-0.8 1.06-1.28 0 0 0-0.02 0.02-0.02 0.36-0.56 0.7-1.14 0.96-1.74 0.16-0.4 0.26-0.82 0.38-1.22 0.06-0.22 0.14-0.44 0.2-0.66 0.12-0.66 0.18-1.32 0.2-1.98v-194.66h8.06zM516.36 293.74h15.5v455.1h-15.5zM547.02 293.74h15.52v455.1h-15.52zM577.7 293.74h15.5v455.1h-15.5zM608.36 293.74h15.5v455.1h-15.5zM639.02 293.74h0.18v455.1h-0.18z" fill="#FFFFFF" opacity=".1" p-id="46628"></path><path d="M165.56 793.22H129.58L79.64 577.92c-3.08-14.12 1.06-37.14 8.82-49.18l75.62-115.22v54.82l-39.6 60.32c-7.8 12.12-11.96 35.14-8.9 49.12l49.98 215.44z" opacity=".2" p-id="46629"></path><path d="M684.86 866.42h276.44v23.914H684.86z" fill="#FFFFFF" opacity=".4" p-id="46630"></path><path d="M704.63 829.82h233.18v16.6h-233.18z" opacity=".2" p-id="46631"></path></svg>