<?xml version="1.0" standalone="no"?><!DOCTYPE svg PUBLIC "-//W3C//DTD SVG 1.1//EN" "http://www.w3.org/Graphics/SVG/1.1/DTD/svg11.dtd"><svg t="1625812003756" class="icon" viewBox="0 0 1024 1024" version="1.1" xmlns="http://www.w3.org/2000/svg" p-id="47913" xmlns:xlink="http://www.w3.org/1999/xlink" width="200" height="200"><defs><style type="text/css"></style></defs><path d="M421.22 558.46c0 30.9-25.14 56.06-56.04 56.06h-3.28v41.74c0 5.52-4.48 10-10 10-5.54 0-10-4.48-10-10v-41.74h-49.36c-5.52 0-10-4.48-10-10 0-5.54 4.48-10 10-10h59.26c0.02 0 0.06-0.02 0.1-0.02 0.02 0 0.06 0.02 0.08 0.02h13.2c19.88 0 36.04-16.18 36.04-36.06 0-19.9-16.16-36.08-36.04-36.08H338.6c-30.92 0-56.06-25.14-56.06-56.06 0-30.9 25.14-56.06 56.06-56.06h3.3v-41.76c0-5.52 4.46-10 10-10 5.52 0 10 4.48 10 10v41.76h49.32c5.52 0 10 4.48 10 10s-4.48 10-10 10H338.6c-19.88 0-36.06 16.18-36.06 36.06 0 19.9 16.18 36.06 36.06 36.06h26.58c30.9 0 56.04 25.16 56.04 56.08zM211.052 288.416a9.998 9.998 0 0 0 13.662 3.66 10.002 10.002 0 0 0 3.66-13.66l-25.324-43.856a10 10 0 1 0-17.32 10l25.322 43.856zM74.076 363.528l43.866 25.322a9.994 9.994 0 0 0 13.66-3.66 10 10 0 0 0-3.662-13.66l-43.866-25.322a10 10 0 1 0-9.998 17.32zM97.516 512.388a10 10 0 0 0-10-10H36.866a10 10 0 0 0 0 20h50.65a10.002 10.002 0 0 0 10-10zM117.94 635.918l-43.866 25.324a9.998 9.998 0 0 0 5.01 18.662c1.696 0 3.416-0.432 4.99-1.342l43.866-25.324a9.998 9.998 0 0 0 3.66-13.66 9.996 9.996 0 0 0-13.66-3.66zM224.712 732.692a9.996 9.996 0 0 0-13.66 3.66l-25.328 43.864a9.998 9.998 0 0 0 8.65 15.002 9.998 9.998 0 0 0 8.67-5.002l25.328-43.864a9.998 9.998 0 0 0-3.66-13.66z" fill="#23130D" p-id="47914"></path><path d="M672.1 306.74c-62.34 0-121.26 28.44-160.16 76.68-37.72-46.74-95.44-76.68-160.04-76.68-113.38 0-205.64 92.26-205.64 205.64 0 113.4 92.26 205.64 205.64 205.64 64.6 0 122.32-29.94 160.04-76.66 38.9 48.24 97.82 76.68 160.16 76.68 113.4 0 205.64-92.26 205.64-205.66 0-113.38-92.24-205.64-205.64-205.64z m-320.2 391.28c-102.36 0-185.64-83.28-185.64-185.64s83.28-185.64 185.64-185.64 185.64 83.28 185.64 185.64-83.28 185.64-185.64 185.64z m320.2 0.02c-58.1 0-112.88-27.36-147.92-73.5 21.08-32.28 33.36-70.8 33.36-112.16 0-41.34-12.28-79.88-33.36-112.14 35.04-46.14 89.82-73.5 147.92-73.5 102.36 0 185.64 83.28 185.64 185.64 0 102.38-83.28 185.66-185.64 185.66z" fill="#23130D" p-id="47915"></path><path d="M624.54 546.66h-1.62c10.04 25.62 30.84 45.9 56.82 55.2l-55.2-55.2z m-22.84 0h-5.32l8.3 8.3c-1.1-2.72-2.1-5.48-2.98-8.3z m22.84 0h-1.62c10.04 25.62 30.84 45.9 56.82 55.2l-55.2-55.2z m-22.84 0h-5.32l8.3 8.3c-1.1-2.72-2.1-5.48-2.98-8.3z m22.84 0h-1.62c10.04 25.62 30.84 45.9 56.82 55.2l-55.2-55.2z m-22.84 0h-5.32l8.3 8.3c-1.1-2.72-2.1-5.48-2.98-8.3z m22.84 0h-1.62c10.04 25.62 30.84 45.9 56.82 55.2l-55.2-55.2z m-28.16 0l8.3 8.3c-1.1-2.72-2.1-5.48-2.98-8.3h-5.32z m75.72-219.92c-18.26 0-36.2 2.7-53.3 7.86a186.194 186.194 0 0 0-61.02 31.58 184.96 184.96 0 0 0-29.34 28.68c-1.46 1.76-2.88 3.56-4.26 5.38a204.4 204.4 0 0 1 33.3 107.52 204.608 204.608 0 0 1-8.64 63.84c-5.7 18.94-14.08 36.72-24.66 52.94 35.04 46.14 89.82 73.5 147.92 73.5 1.06 0 2.1 0 3.14-0.04a183.602 183.602 0 0 0 61.06-11.42c6.72-2.48 13.26-5.34 19.6-8.56a187.064 187.064 0 0 0 33.7-22c10.6-8.7 20.22-18.52 28.7-29.32a185.73 185.73 0 0 0 31.62-60.98c5.1-16.9 7.82-34.8 7.82-53.34 0-102.36-83.28-185.64-185.64-185.64z m-31.68 122.08a95.312 95.312 0 0 0-17.5 28.52h90.52c5.52 0 10 4.48 10 10s-4.48 10-10 10h-95.94c-0.74 4.78-1.12 9.68-1.12 14.66s0.38 9.88 1.12 14.66h95.94c5.52 0 10 4.48 10 10s-4.48 10-10 10h-90.52c10.04 25.62 30.84 45.9 56.82 55.2 10.02 3.58 20.8 5.54 32.02 5.54 8.78 0 17.42-1.2 25.7-3.52 10.2-2.82 19.86-7.38 28.68-13.52a10.008 10.008 0 0 1 13.92 2.5 9.988 9.988 0 0 1-2.48 13.92 113.95 113.95 0 0 1-24.3 12.92c-13.12 5.08-27.14 7.7-41.52 7.7-2.24 0-4.46-0.06-6.68-0.2a114.158 114.158 0 0 1-36.26-8.1c-29.14-11.72-52.42-35.02-64.14-64.14-1.1-2.72-2.1-5.48-2.98-8.3h-29.38c-5.52 0-10-4.48-10-10s4.48-10 10-10h25.02c-0.34-2.62-0.6-5.28-0.76-7.96-0.14-2.22-0.2-4.46-0.2-6.7 0-4.96 0.34-9.86 0.96-14.66h-25.02c-5.52 0-10-4.48-10-10 0-0.88 0.12-1.74 0.34-2.56a9.984 9.984 0 0 1 9.66-7.44h29.38c0.72-2.3 1.52-4.58 2.4-6.82a115.218 115.218 0 0 1 22.14-35.88c15.18-16.78 35.24-29.1 57.9-34.7 8.84-2.18 18.1-3.34 27.62-3.34 23.72 0 46.48 7.14 65.82 20.62a9.988 9.988 0 0 1 2.48 13.92 10.008 10.008 0 0 1-13.92 2.5c-15.98-11.14-34.78-17.04-54.38-17.04-3.5 0-6.98 0.2-10.38 0.58-24.18 2.62-45.68 14.34-60.96 31.64z m-38.72 97.84h-5.32l8.3 8.3c-1.1-2.72-2.1-5.48-2.98-8.3z m22.84 0h-1.62c10.04 25.62 30.84 45.9 56.82 55.2l-55.2-55.2z m-22.84 0h-5.32l8.3 8.3c-1.1-2.72-2.1-5.48-2.98-8.3z m22.84 0h-1.62c10.04 25.62 30.84 45.9 56.82 55.2l-55.2-55.2z m-22.84 0h-5.32l8.3 8.3c-1.1-2.72-2.1-5.48-2.98-8.3z m22.84 0h-1.62c10.04 25.62 30.84 45.9 56.82 55.2l-55.2-55.2z" fill="#3594BF" p-id="47916"></path><path d="M365.18 522.38H338.6c-1.46 0-2.92-0.06-4.34-0.18l58.92 58.92c5.04-6.18 8.04-14.08 8.04-22.66 0-19.9-16.16-36.08-36.04-36.08z m0 0H338.6c-1.46 0-2.92-0.06-4.34-0.18l58.92 58.92c5.04-6.18 8.04-14.08 8.04-22.66 0-19.9-16.16-36.08-36.04-36.08z m0 0H338.6c-1.46 0-2.92-0.06-4.34-0.18l58.92 58.92c5.04-6.18 8.04-14.08 8.04-22.66 0-19.9-16.16-36.08-36.04-36.08z m0 0H338.6c-1.46 0-2.92-0.06-4.34-0.18l58.92 58.92c5.04-6.18 8.04-14.08 8.04-22.66 0-19.9-16.16-36.08-36.04-36.08z m-13.28-195.64c-18.9 0-37.14 2.84-54.34 8.12a184.968 184.968 0 0 0-60.68 31.92 185.098 185.098 0 0 0-29.18 28.84 185.346 185.346 0 0 0-21.86 33.84c-3.2 6.36-6.04 12.92-8.48 19.68a184.37 184.37 0 0 0-11.08 61.4c-0.02 0.6-0.02 1.22-0.02 1.84 0 102.36 83.28 185.64 185.64 185.64 0.62 0 1.24 0 1.84-0.02 21.54-0.2 42.2-4.1 61.4-11.08 6.76-2.44 13.32-5.28 19.68-8.48 12.1-6.06 23.42-13.4 33.84-21.86a185.098 185.098 0 0 0 28.84-29.18 184.968 184.968 0 0 0 31.92-60.68c5.28-17.2 8.12-35.44 8.12-54.34 0-102.36-83.28-185.64-185.64-185.64z m-39.84 115.22a35.82 35.82 0 0 0-9.52 24.36c0 19.9 16.18 36.06 36.06 36.06h26.58c2.68 0 5.3 0.18 7.86 0.56 24.62 3.46 44.14 23 47.62 47.62 0.38 2.58 0.56 5.22 0.56 7.9 0 14.1-5.22 26.98-13.86 36.84-9.14 10.48-22.12 17.54-36.72 18.96-1.8 0.18-3.62 0.26-5.46 0.26h-3.28v41.74c0 5.52-4.48 10-10 10-5.54 0-10-4.48-10-10v-41.74h-49.36c-5.52 0-10-4.48-10-10 0-5.54 4.48-10 10-10h59.26c0.02 0 0.06-0.02 0.1-0.02 0.02 0 0.06 0.02 0.08 0.02h13.2c11.3 0 21.4-5.22 28-13.4 5.04-6.18 8.04-14.08 8.04-22.66 0-19.9-16.16-36.08-36.04-36.08H338.6c-1.46 0-2.92-0.06-4.34-0.18-27.48-2.1-49.44-24.08-51.54-51.56-0.12-1.42-0.18-2.86-0.18-4.32 0-14.88 5.84-28.44 15.38-38.5 10.2-10.8 24.66-17.56 40.68-17.56h3.3v-41.76c0-5.52 4.46-10 10-10 5.52 0 10 4.48 10 10v41.76h49.32c5.52 0 10 4.48 10 10s-4.48 10-10 10H338.6c-10.5 0-19.96 4.52-26.54 11.7z m53.12 80.42H338.6c-1.46 0-2.92-0.06-4.34-0.18l58.92 58.92c5.04-6.18 8.04-14.08 8.04-22.66 0-19.9-16.16-36.08-36.04-36.08z m0 0H338.6c-1.46 0-2.92-0.06-4.34-0.18l58.92 58.92c5.04-6.18 8.04-14.08 8.04-22.66 0-19.9-16.16-36.08-36.04-36.08z m0 0H338.6c-1.46 0-2.92-0.06-4.34-0.18l58.92 58.92c5.04-6.18 8.04-14.08 8.04-22.66 0-19.9-16.16-36.08-36.04-36.08z" fill="#F9C139" p-id="47917"></path><path d="M672.1 334.74c97.952 0 177.64 79.69 177.64 177.64 0 97.962-79.69 177.66-177.64 177.66-53.344 0-104.568-24.572-138.138-65.99a212.456 212.456 0 0 0 28.002-72.674 17.904 17.904 0 0 0 10.356 3.284h23.662c17.862 48.532 63.67 80.74 115.778 80.74 25.35 0 49.692-7.628 70.39-22.054a17.866 17.866 0 0 0 7.432-11.608 17.868 17.868 0 0 0-2.956-13.45 18.014 18.014 0 0 0-25.062-4.492c-14.642 10.208-31.864 15.602-49.804 15.602a86.658 86.658 0 0 1-49.77-15.622 87.694 87.694 0 0 1-26.456-29.118h77.906c9.926 0 18-8.074 18-18s-8.074-18-18-18h-88.81a89.006 89.006 0 0 1 0-13.32h88.81c9.926 0 18-8.074 18-18s-8.074-18-18-18h-77.906a87.714 87.714 0 0 1 26.456-29.118 86.658 86.658 0 0 1 49.77-15.622c17.94 0 35.162 5.396 49.83 15.62a18 18 0 0 0 25.026-4.496 17.872 17.872 0 0 0 2.966-13.462 17.868 17.868 0 0 0-7.428-11.604c-20.702-14.43-45.044-22.056-70.394-22.056-52.11 0-97.916 32.208-115.778 80.74H572.32a17.902 17.902 0 0 0-10.48 3.374 212.224 212.224 0 0 0-27.876-71.984c33.568-41.42 84.792-65.99 138.136-65.99m-106.726 169.206a17.892 17.892 0 0 0 6.946 1.394h16.248a118.566 118.566 0 0 0 0 13.32h-16.248a17.896 17.896 0 0 0-6.916 1.382 217.036 217.036 0 0 0-0.03-16.096m106.726-177.206c-58.1 0-112.88 27.36-147.92 73.5 21.08 32.26 33.36 70.8 33.36 112.14 0 41.36-12.28 79.88-33.36 112.16 35.04 46.14 89.82 73.5 147.92 73.5 102.36 0 185.64-83.28 185.64-185.66 0-102.36-83.28-185.64-185.64-185.64z m-99.78 170.6c-5.52 0-10-4.48-10-10s4.48-10 10-10h29.38c14.76-46.74 58.52-80.74 110.06-80.74 23.72 0 46.48 7.14 65.82 20.62a9.988 9.988 0 0 1 2.48 13.92 9.974 9.974 0 0 1-8.212 4.286c-1.972 0-3.964-0.58-5.708-1.786-15.98-11.14-34.78-17.04-54.38-17.04-40.36 0-74.94 25.24-88.84 60.74h90.52c5.52 0 10 4.48 10 10s-4.48 10-10 10h-95.94c-0.74 4.78-1.12 9.68-1.12 14.66s0.38 9.88 1.12 14.66h95.94c5.52 0 10 4.48 10 10s-4.48 10-10 10h-90.52c13.9 35.5 48.48 60.74 88.84 60.74 19.6 0 38.4-5.9 54.38-17.04a10.006 10.006 0 0 1 5.708-1.786 9.98 9.98 0 0 1 8.212 4.286 9.988 9.988 0 0 1-2.48 13.92c-19.34 13.48-42.1 20.62-65.82 20.62-51.54 0-95.3-34-110.06-80.74h-29.38c-5.52 0-10-4.48-10-10s4.48-10 10-10h25.02c-0.62-4.8-0.96-9.7-0.96-14.66s0.34-9.86 0.96-14.66h-25.02z" opacity=".2" p-id="47918"></path><path d="M351.9 334.74c97.95 0 177.64 79.69 177.64 177.64s-79.69 177.64-177.64 177.64-177.64-79.69-177.64-177.64 79.69-177.64 177.64-177.64m-18 67.69c-33.138 2.414-59.36 30.146-59.36 63.89 0 35.322 28.738 64.06 64.06 64.06h26.58c15.462 0 28.04 12.596 28.04 28.08 0 15.472-12.578 28.06-28.04 28.06h-11.92l-0.06-0.02h-1.3a7.7 7.7 0 0 0-0.568 0.02H292.54c-9.926 0-18 8.074-18 18s8.074 18 18 18h41.36v33.74c0 9.926 8.074 18 18 18s18-8.074 18-18v-33.912c33.118-2.424 59.32-30.152 59.32-63.888 0-35.334-28.728-64.08-64.04-64.08H338.6c-15.472 0-28.06-12.588-28.06-28.06s12.588-28.06 28.06-28.06h72.62c9.926 0 18-8.074 18-18s-8.074-18-18-18h-41.32v-33.76c0-9.926-8.074-18-18-18s-18 8.074-18 18v33.93m18-75.69c-102.36 0-185.64 83.28-185.64 185.64s83.28 185.64 185.64 185.64 185.64-83.28 185.64-185.64-83.28-185.64-185.64-185.64z m-13.3 195.64c-30.92 0-56.06-25.14-56.06-56.06 0-30.9 25.14-56.06 56.06-56.06h3.3v-41.76c0-5.52 4.46-10 10-10 5.52 0 10 4.48 10 10v41.76h49.32c5.52 0 10 4.48 10 10s-4.48 10-10 10H338.6c-19.88 0-36.06 16.18-36.06 36.06 0 19.9 16.18 36.06 36.06 36.06h26.58c30.9 0 56.04 25.16 56.04 56.08 0 30.9-25.14 56.06-56.04 56.06h-3.28v41.74c0 5.52-4.48 10-10 10-5.54 0-10-4.48-10-10v-41.74h-49.36c-5.52 0-10-4.48-10-10 0-5.54 4.48-10 10-10h59.26c0.02 0 0.06-0.02 0.1-0.02 0.02 0 0.06 0.02 0.08 0.02h13.2c19.88 0 36.04-16.18 36.04-36.06 0-19.9-16.16-36.08-36.04-36.08H338.6z" opacity=".2" p-id="47919"></path><path d="M799.288 292.078a10 10 0 0 0 13.66-3.658l25.324-43.856a10 10 0 1 0-17.32-10.002l-25.324 43.856a10 10 0 0 0 3.66 13.66zM901.07 390.192c1.696 0 3.416-0.432 4.99-1.342l43.866-25.322a9.998 9.998 0 0 0 3.66-13.66 9.998 9.998 0 0 0-13.66-3.66l-43.866 25.322a9.998 9.998 0 0 0-3.66 13.66 9.998 9.998 0 0 0 8.67 5.002zM987.134 502.388h-50.65a10 10 0 1 0 0 20h50.65c5.524 0 10-4.476 10-10s-4.476-10-10-10zM949.926 661.242l-43.866-25.324a9.994 9.994 0 0 0-13.66 3.66 9.998 9.998 0 0 0 3.66 13.66l43.866 25.324a9.994 9.994 0 0 0 13.66-3.66 10 10 0 0 0-3.66-13.66zM812.948 736.352a10 10 0 0 0-17.32 10l25.328 43.864a9.998 9.998 0 0 0 13.66 3.66 10 10 0 0 0 3.66-13.66l-25.328-43.864zM780.06 592.86a9.988 9.988 0 0 1-2.48 13.92c-19.34 13.48-42.1 20.62-65.82 20.62-51.54 0-95.3-34-110.06-80.74h-29.38c-5.52 0-10-4.48-10-10s4.48-10 10-10h25.02c-0.62-4.8-0.96-9.7-0.96-14.66s0.34-9.86 0.96-14.66h-25.02c-5.52 0-10-4.48-10-10s4.48-10 10-10h29.38c14.76-46.74 58.52-80.74 110.06-80.74 23.72 0 46.48 7.14 65.82 20.62a9.988 9.988 0 0 1 2.48 13.92 10.008 10.008 0 0 1-13.92 2.5c-15.98-11.14-34.78-17.04-54.38-17.04-40.36 0-74.94 25.24-88.84 60.74h90.52c5.52 0 10 4.48 10 10s-4.48 10-10 10h-95.94c-0.74 4.78-1.12 9.68-1.12 14.66s0.38 9.88 1.12 14.66h95.94c5.52 0 10 4.48 10 10s-4.48 10-10 10h-90.52c13.9 35.5 48.48 60.74 88.84 60.74 19.6 0 38.4-5.9 54.38-17.04a10.008 10.008 0 0 1 13.92 2.5zM695.894 791.292a10 10 0 0 0-10 10v63.864H367.902v-88.988l27.448 27.446c1.954 1.954 4.512 2.93 7.072 2.93s5.118-0.976 7.072-2.93a9.996 9.996 0 0 0 0-14.14l-44.496-44.496a9.998 9.998 0 0 0-4.978-2.696c-0.036-0.008-0.068-0.024-0.104-0.032a9.996 9.996 0 0 0-1.99-0.202l-0.012 0.002-0.012-0.002c-0.4 0-0.78 0.072-1.168 0.118-0.258 0.032-0.522 0.028-0.778 0.078a9.96 9.96 0 0 0-5.234 2.864l-44.364 44.366a10 10 0 1 0 14.142 14.14l27.4-27.402v98.942a10 10 0 0 0 10 10h337.992a10 10 0 0 0 10-10v-73.864a9.996 9.996 0 0 0-9.998-9.998zM362.334 232.708a10 10 0 0 0 10-10V158.844h317.992v88.988l-27.448-27.448a10 10 0 0 0-14.14 14.142l44.494 44.496a9.994 9.994 0 0 0 4.986 2.698c0.032 0.008 0.062 0.022 0.094 0.028 0.65 0.132 1.316 0.202 1.99 0.202l0.012-0.002 0.012 0.002c0.436 0 0.852-0.074 1.274-0.128 0.222-0.03 0.45-0.024 0.67-0.068a9.96 9.96 0 0 0 5.242-2.87l44.356-44.358a10 10 0 1 0-14.14-14.142l-27.4 27.402V148.844a10 10 0 0 0-10-10H362.334a10 10 0 0 0-10 10v73.864a10 10 0 0 0 10 10z" fill="#23130D" p-id="47920"></path><path d="M415.14 686.92a184.37 184.37 0 0 1-61.4 11.08l-187.46-187.46c0.2-21.54 4.1-42.2 11.08-61.4l145.38 145.38h-30.2c-5.52 0-10 4.46-10 10 0 5.52 4.48 10 10 10h49.36v41.74c0 5.52 4.46 10 10 10 5.52 0 10-4.48 10-10v-22.58l53.24 53.24zM365.18 594.52h-13.2c-0.02 0-0.06-0.02-0.08-0.02-0.04 0-0.08 0.02-0.1 0.02h-0.9l-165.06-165.06c6.06-12.1 13.4-23.42 21.86-33.84l75.02 75.02c2.1 27.48 24.06 49.46 51.54 51.56l58.92 58.92c-6.6 8.18-16.7 13.4-28 13.4zM468.66 656.58a185.346 185.346 0 0 1-33.84 21.86l-64.18-64.18c14.6-1.42 27.58-8.48 36.72-18.96l61.3 61.28zM338.6 410.26c-16.02 0-30.48 6.76-40.68 17.56l-61.04-61.04a184.968 184.968 0 0 1 60.68-31.92l44.34 44.36v31.04h-3.3zM372.94 410.26h-11.04v-11.04zM529.42 566.72a184.968 184.968 0 0 1-31.92 60.68l-76.84-76.84c-3.48-24.62-23-44.16-47.62-47.62l-60.98-60.98c6.58-7.18 16.04-11.7 26.54-11.7h54.34l136.48 136.46z" fill="#FFFFFF" opacity=".4" p-id="47921"></path><path d="M736.3 686.58a183.602 183.602 0 0 1-61.06 11.42l-126.4-126.4a204.608 204.608 0 0 0 8.64-63.84l18.9 18.9h-4.06c-5.52 0-10 4.48-10 10s4.48 10 10 10h24.06l8.3 8.3c11.72 29.12 35 52.42 64.14 64.14l67.48 67.48zM597.34 497.34c-0.62 4.8-0.96 9.7-0.96 14.66 0 2.24 0.06 4.48 0.2 6.7l-21.36-21.36h22.12zM528.44 394.86l75.66 75.66a102.02 102.02 0 0 0-2.4 6.82h-29.38c-4.64 0-8.54 3.16-9.66 7.44l-8.26-8.26a204.4 204.4 0 0 0-30.22-76.28c1.38-1.82 2.8-3.62 4.26-5.38zM660.24 526.66h-42.74c-0.74-4.78-1.12-9.68-1.12-14.66s0.38-9.88 1.12-14.66h13.42l29.32 29.32zM711.76 607.4c-11.22 0-22-1.96-32.02-5.54l-55.2-55.2h55.7l57.22 57.22a95.224 95.224 0 0 1-25.7 3.52zM789.6 656.02a187.064 187.064 0 0 1-33.7 22l-50.82-50.82c2.22 0.14 4.44 0.2 6.68 0.2 14.38 0 28.4-2.62 41.52-7.7l36.32 36.32zM684.14 399.94c-22.66 5.6-42.72 17.92-57.9 34.7l-68.46-68.46a186.194 186.194 0 0 1 61.02-31.58l65.34 65.34zM849.92 565.72a185.73 185.73 0 0 1-31.62 60.98l-129.36-129.36h24.5c5.52 0 10-4.48 10-10s-4.48-10-10-10h-44.5l-28.52-28.52c15.28-17.3 36.78-29.02 60.96-31.64l148.54 148.54z" fill="#FFFFFF" opacity=".4" p-id="47922"></path><path d="M513.16 522a10 10 0 0 1-10-10c0-83.406-67.854-151.26-151.26-151.26a10 10 0 0 1 0-20c94.432 0 171.26 76.828 171.26 171.26a10 10 0 0 1-10 10z" fill="#FFFFFF" opacity=".8" p-id="47923"></path><path d="M833.352 522a10 10 0 0 1-10-10c0-83.406-67.856-151.26-151.26-151.26a10 10 0 1 1 0-20c94.434 0 171.26 76.828 171.26 171.26a10 10 0 0 1-10 10z" fill="#FFFFFF" opacity=".8" p-id="47924"></path></svg>