<?xml version="1.0" standalone="no"?><!DOCTYPE svg PUBLIC "-//W3C//DTD SVG 1.1//EN" "http://www.w3.org/Graphics/SVG/1.1/DTD/svg11.dtd"><svg t="1625812258663" class="icon" viewBox="0 0 1024 1024" version="1.1" xmlns="http://www.w3.org/2000/svg" p-id="57346" xmlns:xlink="http://www.w3.org/1999/xlink" width="200" height="200"><defs><style type="text/css"></style></defs><path d="M258.68 142.12l-38.92-93.08c-0.08-0.16-0.18-0.3-0.26-0.46-0.2-0.42-0.4-0.86-0.66-1.24-0.18-0.26-0.38-0.48-0.58-0.72-0.22-0.26-0.42-0.54-0.66-0.78-0.24-0.26-0.52-0.46-0.8-0.68-0.24-0.18-0.46-0.4-0.7-0.56-0.4-0.26-0.82-0.48-1.24-0.68-0.16-0.08-0.3-0.18-0.46-0.24-0.02-0.02-0.04-0.02-0.04-0.02-0.6-0.26-1.24-0.44-1.88-0.58-0.22-0.04-0.44-0.04-0.66-0.06-0.44-0.06-0.86-0.12-1.3-0.12-0.34 0-0.68 0.06-1.02 0.1-0.3 0.02-0.6 0.02-0.92 0.08-0.64 0.14-1.26 0.34-1.88 0.58 0 0-0.02 0-0.02 0.02-0.18 0.06-0.32 0.18-0.48 0.26-0.42 0.2-0.84 0.4-1.22 0.66-0.26 0.16-0.48 0.38-0.72 0.56-0.28 0.22-0.54 0.42-0.8 0.68-0.24 0.24-0.44 0.52-0.66 0.78-0.2 0.24-0.4 0.46-0.58 0.72-0.26 0.38-0.46 0.82-0.66 1.24-0.08 0.16-0.18 0.3-0.26 0.46L162.38 142.1c-0.56 1.32-0.78 2.7-0.76 4.04v783.32c0 0.06-0.02 0.14-0.02 0.2v41.44c0 5.52 4.48 10 10 10h77.86c5.52 0 10-4.48 10-10V146.1c0.02-1.34-0.22-2.68-0.78-3.98z m-48.14-63.3l23.9 57.16H186.62l23.92-57.16zM181.62 155.98h18.92v763.66l-18.92 0.02V155.98z m57.84 805.12H181.6v-21.44l28.92-0.02 28.94 0.02v21.44z m0-41.44l-18.92-0.02V155.98h18.92v763.68z" fill="#23130D" p-id="57347"></path><path d="M239.46 939.66v21.44H181.6v-21.44l28.92-0.02z" fill="#F8D3C9" p-id="57348"></path><path d="M239.46 939.66v21.44h-20.96v-21.44l10.476-0.02z" opacity=".2" p-id="57349"></path><path d="M200.54 155.98v763.66l-18.92 0.02V155.98zM239.46 155.98v763.68l-18.92-0.02V155.98z" fill="#E59D89" p-id="57350"></path><path d="M239.46 155.98v763.68l-18.92-0.02V155.98z" opacity=".2" p-id="57351"></path><path d="M234.44 135.98H186.62l23.92-57.16z" fill="#F8D3C9" p-id="57352"></path><path d="M234.44 135.98h-17l-15.4-36.84 8.5-20.32z" opacity=".2" p-id="57353"></path><path d="M841.4 106.86h-153.54c-11.34 0-20.54 9.22-20.54 20.56v153.54c0 11.34 9.2 20.54 20.54 20.54h153.54c11.34 0 20.56-9.2 20.56-20.54V127.42c0-11.34-9.22-20.56-20.56-20.56z m0.56 174.1c0 0.28-0.28 0.54-0.56 0.54h-153.54c-0.28 0-0.54-0.26-0.54-0.54V127.42c0-0.28 0.26-0.56 0.54-0.56h153.54c0.28 0 0.56 0.28 0.56 0.56v153.54z" fill="#23130D" p-id="57354"></path><path d="M841.4 126.86h-153.54c-0.28 0-0.54 0.28-0.54 0.56v153.54c0 0.28 0.26 0.54 0.54 0.54h153.54c0.28 0 0.56-0.26 0.56-0.54V127.42c0-0.28-0.28-0.56-0.56-0.56z m-20.66 53.06l-66.66 66.66c-1.96 1.96-4.52 2.94-7.08 2.94s-5.12-0.98-7.08-2.94l-33.32-33.32a9.97 9.97 0 0 1 0-14.14 9.97 9.97 0 0 1 14.14 0l26.26 26.26 59.6-59.6c3.9-3.9 10.24-3.9 14.14 0s3.9 10.24 0 14.14z" fill="#72AF5F" p-id="57355"></path><path d="M841.4 414.68h-153.54c-11.34 0-20.54 9.22-20.54 20.54v153.56c0 11.32 9.2 20.54 20.54 20.54h153.54c11.34 0 20.56-9.22 20.56-20.54v-153.56c0-11.32-9.22-20.54-20.56-20.54z m0.56 174.1c0 0.28-0.28 0.54-0.56 0.54h-153.54c-0.28 0-0.54-0.26-0.54-0.54v-153.56c0-0.28 0.26-0.54 0.54-0.54h153.54c0.28 0 0.56 0.26 0.56 0.54v153.56z" fill="#23130D" p-id="57356"></path><path d="M841.96 435.22v153.56c0 0.28-0.28 0.54-0.56 0.54h-153.54c-0.28 0-0.54-0.26-0.54-0.54v-153.56c0-0.28 0.26-0.54 0.54-0.54h153.54c0.28 0 0.56 0.26 0.56 0.54z" fill="#F9C139" p-id="57357"></path><path d="M841.4 722.5h-153.54c-11.34 0-20.54 9.22-20.54 20.54v153.54c0 11.34 9.2 20.56 20.54 20.56h153.54c11.34 0 20.56-9.22 20.56-20.56v-153.54c0-11.32-9.22-20.54-20.56-20.54z m0.56 174.08c0 0.28-0.28 0.56-0.56 0.56h-153.54c-0.28 0-0.54-0.28-0.54-0.56v-153.54c0-0.28 0.26-0.54 0.54-0.54h153.54c0.28 0 0.56 0.26 0.56 0.54v153.54z" fill="#23130D" p-id="57358"></path><path d="M841.96 743.04v153.54c0 0.28-0.28 0.56-0.56 0.56h-153.54c-0.28 0-0.54-0.28-0.54-0.56v-153.54c0-0.28 0.26-0.54 0.54-0.54h153.54c0.28 0 0.56 0.26 0.56 0.54z" fill="#EC7063" p-id="57359"></path><path d="M477.22 68.66c-74.72 0-135.52 60.8-135.52 135.52 0 74.74 60.8 135.54 135.52 135.54 74.74 0 135.54-60.8 135.54-135.54 0-74.72-60.8-135.52-135.54-135.52z m0 251.06c-63.7 0-115.52-51.84-115.52-115.54s51.82-115.52 115.52-115.52c63.7 0 115.54 51.82 115.54 115.52 0 63.7-51.84 115.54-115.54 115.54z" fill="#23130D" p-id="57360"></path><path d="M477.22 88.66c-63.7 0-115.52 51.82-115.52 115.52 0 63.7 51.82 115.54 115.52 115.54 63.7 0 115.54-51.84 115.54-115.54s-51.84-115.52-115.54-115.52z m31.06 54.02a17.58 17.58 0 1 1 0 35.16 17.58 17.58 0 0 1-17.58-17.58c0-9.72 7.86-17.58 17.58-17.58z m-62.6 0a17.58 17.58 0 1 1 0 35.16c-9.72 0-17.6-7.88-17.6-17.58 0-9.72 7.88-17.58 17.6-17.58z m31.54 133.72c-39.82 0-72.22-32.4-72.22-72.22 0-5.52 4.48-10 10-10 5.54 0 10 4.48 10 10 0 28.8 23.44 52.22 52.22 52.22 28.8 0 52.22-23.42 52.22-52.22 0-5.52 4.48-10 10-10s10 4.48 10 10c0 39.82-32.4 72.22-72.22 72.22z" fill="#72AF5F" p-id="57361"></path><path d="M384.36 204.18c0-59.88 45.8-109.26 104.2-114.96a112.12 112.12 0 0 0-11.34-0.56c-63.7 0-115.52 51.82-115.52 115.52 0 63.7 51.82 115.54 115.52 115.54 3.82 0 7.6-0.18 11.34-0.56-58.4-5.7-104.2-55.1-104.2-114.98z" opacity=".2" p-id="57362"></path><path d="M549.44 204.18c0 39.82-32.4 72.22-72.22 72.22S405 244 405 204.18c0-5.52 4.48-10 10-10 5.54 0 10 4.48 10 10 0 28.8 23.44 52.22 52.22 52.22 28.8 0 52.22-23.42 52.22-52.22 0-5.52 4.48-10 10-10s10 4.48 10 10zM463.26 160.26c0 9.7-7.88 17.58-17.58 17.58-9.72 0-17.6-7.88-17.6-17.58 0-9.72 7.88-17.58 17.6-17.58a17.58 17.58 0 0 1 17.58 17.58zM525.86 160.26a17.58 17.58 0 1 1-35.16 0c0-9.72 7.86-17.58 17.58-17.58a17.58 17.58 0 0 1 17.58 17.58zM477.22 376.48c-74.72 0-135.52 60.78-135.52 135.52s60.8 135.52 135.52 135.52c74.74 0 135.54-60.78 135.54-135.52s-60.8-135.52-135.54-135.52z m0 251.04c-63.7 0-115.52-51.82-115.52-115.52s51.82-115.52 115.52-115.52c63.7 0 115.54 51.82 115.54 115.52s-51.84 115.52-115.54 115.52z" fill="#23130D" p-id="57363"></path><path d="M477.22 396.48c-63.7 0-115.52 51.82-115.52 115.52s51.82 115.52 115.52 115.52c63.7 0 115.54-51.82 115.54-115.52s-51.84-115.52-115.54-115.52z m31.06 63.3c9.7 0 17.58 7.88 17.58 17.6a17.58 17.58 0 1 1-35.16 0c0-9.72 7.86-17.6 17.58-17.6z m-62.6 0c9.7 0 17.58 7.88 17.58 17.6 0 9.7-7.88 17.58-17.58 17.58-9.72 0-17.6-7.88-17.6-17.58a17.6 17.6 0 0 1 17.6-17.6z m93.76 98.1H415c-5.52 0-10-4.48-10-10s4.48-10 10-10h124.44c5.52 0 10 4.48 10 10s-4.48 10-10 10z" fill="#F9C139" p-id="57364"></path><path d="M549.44 547.88c0 5.52-4.48 10-10 10H415c-5.52 0-10-4.48-10-10s4.48-10 10-10h124.44c5.52 0 10 4.48 10 10zM463.26 477.38c0 9.7-7.88 17.58-17.58 17.58-9.72 0-17.6-7.88-17.6-17.58a17.6 17.6 0 0 1 17.6-17.6c9.7 0 17.58 7.88 17.58 17.6zM525.86 477.38a17.58 17.58 0 1 1-35.16 0c0-9.72 7.86-17.6 17.58-17.6 9.7 0 17.58 7.88 17.58 17.6zM477.22 684.28c-74.72 0-135.52 60.8-135.52 135.54 0 74.72 60.8 135.52 135.52 135.52 74.74 0 135.54-60.8 135.54-135.52 0-74.74-60.8-135.54-135.54-135.54z m0 251.06c-63.7 0-115.52-51.82-115.52-115.52 0-63.7 51.82-115.54 115.52-115.54 63.7 0 115.54 51.84 115.54 115.54s-51.84 115.52-115.54 115.52z" fill="#23130D" p-id="57365"></path><path d="M477.22 704.28c-63.7 0-115.52 51.84-115.52 115.54s51.82 115.52 115.52 115.52c63.7 0 115.54-51.82 115.54-115.52 0-63.7-51.84-115.54-115.54-115.54z m31.06 46.72a17.58 17.58 0 0 1 17.58 17.58 17.58 17.58 0 0 1-17.58 17.58c-9.72 0-17.58-7.86-17.58-17.58 0-9.72 7.86-17.58 17.58-17.58z m-62.6 0a17.58 17.58 0 0 1 17.58 17.58 17.58 17.58 0 0 1-17.58 17.58c-9.72 0-17.6-7.86-17.6-17.58 0-9.72 7.88-17.58 17.6-17.58z m93.76 134.7c-5.52 0-10-4.48-10-10 0-28.8-23.42-52.22-52.22-52.22-28.78 0-52.22 23.42-52.22 52.22 0 5.52-4.46 10-10 10-5.52 0-10-4.48-10-10 0-39.82 32.4-72.22 72.22-72.22s72.22 32.4 72.22 72.22c0 5.52-4.48 10-10 10z" fill="#EC7063" p-id="57366"></path><path d="M549.44 875.7c0 5.52-4.48 10-10 10s-10-4.48-10-10c0-28.8-23.42-52.22-52.22-52.22-28.78 0-52.22 23.42-52.22 52.22 0 5.52-4.46 10-10 10-5.52 0-10-4.48-10-10 0-39.82 32.4-72.22 72.22-72.22s72.22 32.4 72.22 72.22zM463.26 768.58a17.58 17.58 0 0 1-17.58 17.58c-9.72 0-17.6-7.86-17.6-17.58 0-9.72 7.88-17.58 17.6-17.58a17.58 17.58 0 0 1 17.58 17.58zM525.86 768.58a17.58 17.58 0 0 1-17.58 17.58c-9.72 0-17.58-7.86-17.58-17.58 0-9.72 7.86-17.58 17.58-17.58a17.58 17.58 0 0 1 17.58 17.58z" fill="#23130D" p-id="57367"></path><path d="M820.74 179.92l-66.66 66.66c-1.96 1.96-4.52 2.94-7.08 2.94s-5.12-0.98-7.08-2.94l-33.32-33.32a9.97 9.97 0 0 1 0-14.14 9.97 9.97 0 0 1 14.14 0l26.26 26.26 59.6-59.6c3.9-3.9 10.24-3.9 14.14 0s3.9 10.24 0 14.14z" fill="#FFFFFF" p-id="57368"></path><path d="M384.36 511.99c0-59.88 45.8-109.26 104.2-114.96a112.12 112.12 0 0 0-11.34-0.56c-63.7 0-115.52 51.82-115.52 115.52 0 63.7 51.82 115.54 115.52 115.54 3.82 0 7.6-0.18 11.34-0.56-58.4-5.7-104.2-55.1-104.2-114.98zM384.36 819.8c0-59.88 45.8-109.26 104.2-114.96a112.12 112.12 0 0 0-11.34-0.56c-63.7 0-115.52 51.82-115.52 115.52 0 63.7 51.82 115.54 115.52 115.54 3.82 0 7.6-0.18 11.34-0.56-58.4-5.7-104.2-55.1-104.2-114.98z" opacity=".2" p-id="57369"></path></svg>