<?xml version="1.0" standalone="no"?><!DOCTYPE svg PUBLIC "-//W3C//DTD SVG 1.1//EN" "http://www.w3.org/Graphics/SVG/1.1/DTD/svg11.dtd"><svg t="1625812264502" class="icon" viewBox="0 0 1024 1024" version="1.1" xmlns="http://www.w3.org/2000/svg" p-id="57665" xmlns:xlink="http://www.w3.org/1999/xlink" width="200" height="200"><defs><style type="text/css"></style></defs><path d="M911.46 658.62c-10.48 0-20.32 4.08-27.74 11.5a39.176 39.176 0 0 0-9.1 14.34l-28.68-21.9c-0.08-0.06-0.16-0.08-0.24-0.14-0.3-0.2-0.6-0.38-0.92-0.56-0.26-0.16-0.54-0.32-0.8-0.44-0.3-0.14-0.6-0.22-0.9-0.32-0.32-0.12-0.64-0.24-0.98-0.3-0.28-0.08-0.56-0.1-0.84-0.14a10.64 10.64 0 0 0-1.12-0.12c-0.1 0-0.18-0.02-0.28-0.02h-32.32v-154.88c94.52-22.12 165.12-107.1 165.12-208.26 0-117.94-95.94-213.88-213.88-213.88-117.92 0-213.86 95.94-213.86 213.88 0 101.16 70.58 186.14 165.1 208.26v154.88h-77.52c-11.3 0-21.94 4.4-29.92 12.4-8 8-12.4 18.62-12.4 29.94 0 11.3 4.4 21.94 12.4 29.92 3.74 3.76 8.1 6.7 12.82 8.78-5.86 7.24-9.42 16.28-9.42 25.98 0 16.34 10.06 30.86 24.34 37.88-5.98 7.3-9.6 16.64-9.6 26.8 0 11.3 4.42 21.94 12.42 29.92 3.04 3.06 6.48 5.56 10.18 7.52a42.06 42.06 0 0 0-9.94 27.24c0 11.3 4.4 21.92 12.4 29.92 7.48 7.48 17.3 11.76 27.8 12.28 0.36 0.04 0.7 0.12 1.08 0.12h165.66c13.86 0 26.9-5.4 36.72-15.22 0.5-0.5 0.98-1.02 1.48-1.54 6.98 10.84 19.14 18.04 32.96 18.04 21.62 0 39.2-17.6 39.2-39.24V697.84c0-21.62-17.58-39.22-39.22-39.22zM564.92 297.38c0-106.9 86.96-193.88 193.86-193.88s193.88 86.98 193.88 193.88-86.98 193.86-193.88 193.86-193.86-86.96-193.86-193.86z m222.62 211.92v151.22h-57.52v-151.22c9.42 1.28 19 1.94 28.76 1.94s19.36-0.66 28.76-1.94z m84.7 378c0 8.52-3.32 16.54-9.34 22.56a31.726 31.726 0 0 1-22.58 9.36h-164.56-0.04c-5.96 0-11.58-2.34-15.8-6.54a22.164 22.164 0 0 1-6.54-15.78c0-5.98 2.32-11.6 6.54-15.82 4.22-4.22 9.84-6.54 15.8-6.54h0.04l23.96-0.02c5.54 0 10-4.46 10-10 0-5.52-4.46-10-10-10l-36.66 0.02h-0.02c-5.96 0-11.56-2.32-15.78-6.54s-6.54-9.82-6.54-15.78c0-12.3 10.02-22.32 22.32-22.34h0.04l22.94-0.02c5.54 0 10-4.48 10-10.02 0-5.52-4.48-9.98-10-9.98H686l-36.64 0.02c-12.68 0-23.38-10.24-23.38-22.34 0-12.12 10.7-22.34 23.38-22.34h27.14c5.52 0 10-4.48 10-10s-4.48-10-10-10h-44a22.34 22.34 0 0 1-15.78-6.54 22.244 22.244 0 0 1-6.54-15.8c0-5.98 2.32-11.58 6.54-15.8 4.2-4.22 9.82-6.54 15.78-6.54h203.98l35.76 27.28v179.5z m58.44 13.96c0 10.62-8.6 19.24-19.2 19.24s-19.24-8.64-19.24-19.24V697.84c0-5.14 2-9.96 5.62-13.58a19.104 19.104 0 0 1 13.62-5.64c10.6 0 19.2 8.62 19.2 19.22v203.42z" fill="#23130D" p-id="57666"></path><path d="M758.78 103.5c-106.9 0-193.86 86.98-193.86 193.88s86.96 193.86 193.86 193.86 193.88-86.96 193.88-193.86-86.98-193.88-193.88-193.88z m114.86 129.1l-143.72 143.7a9.9 9.9 0 0 1-7.06 2.94 9.98 9.98 0 0 1-7.08-2.94l-71.86-71.84a10.032 10.032 0 0 1 0-14.16 10.032 10.032 0 0 1 14.16 0l64.78 64.8 136.64-136.64a9.97 9.97 0 0 1 14.14 0 10.006 10.006 0 0 1 0 14.14z" fill="#72AF5F" p-id="57667"></path><path d="M787.54 509.3v151.22h-57.52v-151.22c9.42 1.28 19 1.94 28.76 1.94s19.36-0.66 28.76-1.94z" fill="#E59D89" p-id="57668"></path><path d="M930.68 697.84v203.42c0 10.62-8.6 19.24-19.2 19.24s-19.24-8.64-19.24-19.24V697.84c0-5.14 2-9.96 5.62-13.58a19.104 19.104 0 0 1 13.62-5.64c10.6 0 19.2 8.62 19.2 19.22z" fill="#F9C139" p-id="57669"></path><path d="M919.8 918.6c-2.52 1.22-5.34 1.9-8.32 1.9-10.6 0-19.24-8.64-19.24-19.24V697.84c0-5.14 2-9.96 5.62-13.58a19.104 19.104 0 0 1 13.62-5.64c2.98 0 5.8 0.68 8.32 1.9-1.92 0.92-3.72 2.18-5.28 3.74a19.074 19.074 0 0 0-5.62 13.58v203.42c0 7.62 4.46 14.22 10.9 17.34z" opacity=".2" p-id="57670"></path><path d="M872.24 707.8v179.5c0 8.52-3.32 16.54-9.34 22.56a31.726 31.726 0 0 1-22.58 9.36h-164.56-0.04c-5.96 0-11.58-2.34-15.8-6.54a22.164 22.164 0 0 1-6.54-15.78c0-5.98 2.32-11.6 6.54-15.82 4.22-4.22 9.84-6.54 15.8-6.54h0.04l23.96-0.02c5.54 0 10-4.46 10-10 0-5.52-4.46-10-10-10l-36.66 0.02h-0.02c-5.96 0-11.56-2.32-15.78-6.54s-6.54-9.82-6.54-15.78c0-12.3 10.02-22.32 22.32-22.34h0.04l22.94-0.02c5.54 0 10-4.48 10-10.02 0-5.52-4.48-9.98-10-9.98H686l-36.64 0.02c-12.68 0-23.38-10.24-23.38-22.34 0-12.12 10.7-22.34 23.38-22.34h27.14c5.52 0 10-4.48 10-10s-4.48-10-10-10h-44a22.34 22.34 0 0 1-15.78-6.54 22.244 22.244 0 0 1-6.54-15.8c0-5.98 2.32-11.58 6.54-15.8 4.2-4.22 9.82-6.54 15.78-6.54h203.98l35.76 27.28z" fill="#F8D3C9" p-id="57671"></path><path d="M873.64 232.6l-143.72 143.7a9.9 9.9 0 0 1-7.06 2.94 9.98 9.98 0 0 1-7.08-2.94l-71.86-71.84a10.032 10.032 0 0 1 0-14.16 10.032 10.032 0 0 1 14.16 0l64.78 64.8 136.64-136.64a9.97 9.97 0 0 1 14.14 0 10.006 10.006 0 0 1 0 14.14z" fill="#FFFFFF" p-id="57672"></path><path d="M391.5 660.52h-77.52v-154.88c94.52-22.12 165.1-107.1 165.1-208.26 0-117.94-95.94-213.88-213.86-213.88-117.94 0-213.88 95.94-213.88 213.88 0 101.16 70.6 186.14 165.12 208.26v154.88H184.14c-0.1 0-0.18 0.02-0.28 0.02-0.36 0.02-0.74 0.06-1.1 0.12-0.3 0.04-0.58 0.06-0.88 0.14-0.32 0.06-0.62 0.18-0.94 0.28-0.32 0.12-0.62 0.2-0.92 0.34-0.28 0.12-0.52 0.28-0.78 0.42-0.32 0.2-0.64 0.36-0.94 0.58-0.08 0.06-0.16 0.1-0.24 0.14l-28.68 21.9c-1.94-5.32-4.98-10.22-9.1-14.34-7.42-7.42-17.26-11.5-27.74-11.5s-20.32 4.08-27.74 11.5a38.94 38.94 0 0 0-11.48 27.72v203.42c0 21.64 17.58 39.24 39.2 39.24 6.92 0 13.42-1.8 19.06-4.96a39.6 39.6 0 0 0 13.9-13.08c0.5 0.52 0.98 1.04 1.48 1.54 9.82 9.82 22.86 15.22 36.74 15.22h165.64c0.36 0 0.7-0.08 1.04-0.12 10.52-0.5 20.34-4.8 27.84-12.28 8-8 12.4-18.62 12.4-29.92 0-10.08-3.52-19.62-9.94-27.24 3.7-1.96 7.14-4.46 10.18-7.52 8-7.98 12.42-18.6 12.42-29.94 0-10.16-3.62-19.48-9.6-26.78 14.28-7.02 24.34-21.54 24.34-37.88 0-9.7-3.56-18.74-9.42-25.98 4.72-2.08 9.08-5.02 12.82-8.78 8-7.98 12.4-18.62 12.4-29.92 0-11.32-4.4-21.94-12.4-29.94-7.98-8-18.62-12.4-29.92-12.4zM131.76 901.26c0 10.6-8.64 19.24-19.24 19.24-10.58 0-19.2-8.62-19.2-19.24V697.84c0-5.14 2-9.96 5.62-13.58 3.64-3.64 8.46-5.64 13.6-5.64s9.96 2 13.6 5.64a19.074 19.074 0 0 1 5.62 13.58v203.42zM71.34 297.38c0-106.9 86.98-193.88 193.88-193.88s193.86 86.98 193.86 193.88-86.96 193.86-193.86 193.86-193.88-86.96-193.88-193.86z m222.64 211.92v151.22h-57.52v-151.22c9.4 1.28 19 1.94 28.76 1.94s19.34-0.66 28.76-1.94z m113.3 209.34a22.182 22.182 0 0 1-15.78 6.56h-44c-5.52 0-10 4.48-10 10s4.48 10 10 10h27.14c12.68 0 23.38 10.22 23.38 22.34s-10.7 22.34-23.38 22.34l-36.64-0.02h-0.02a10 10 0 0 0-10 9.98c0 5.54 4.46 10.02 10 10.02l22.88 0.02h0.06c12.32 0 22.36 10.02 22.36 22.32 0 5.98-2.32 11.58-6.56 15.8-4.2 4.22-9.8 6.54-15.76 6.54h-36.68c-5.52 0-10 4.46-10 10 0 5.52 4.48 10 10 10h24c2.98 0 5.88 0.58 8.56 1.68a22.4 22.4 0 0 1 7.24 4.86 22.22 22.22 0 0 1 6.54 15.82c0 5.96-2.32 11.56-6.54 15.78-4.22 4.2-9.84 6.54-15.8 6.54h-164.6c-8.52 0-16.54-3.32-22.58-9.36a31.71 31.71 0 0 1-9.34-22.56V707.8l35.76-27.28h203.98c5.96 0 11.56 2.32 15.78 6.54 4.22 4.22 6.54 9.82 6.54 15.8 0 5.96-2.32 11.56-6.54 15.78z" fill="#23130D" p-id="57673"></path><path d="M131.76 697.84v203.42c0 10.6-8.64 19.24-19.24 19.24-10.58 0-19.2-8.62-19.2-19.24V697.84c0-5.14 2-9.96 5.62-13.58 3.64-3.64 8.46-5.64 13.6-5.64s9.96 2 13.6 5.64a19.074 19.074 0 0 1 5.62 13.58z" fill="#3594BF" p-id="57674"></path><path d="M337.5 735.2c0 5.52 4.48 10 10 10h27.14c12.68 0 23.38 10.22 23.38 22.34s-10.7 22.34-23.38 22.34l-36.64-0.02h-0.02a10 10 0 0 0-10 9.98c0 5.54 4.46 10.02 10 10.02l22.88 0.02h0.06c12.32 0 22.36 10.02 22.36 22.32 0 5.98-2.32 11.58-6.56 15.8-4.2 4.22-9.8 6.54-15.76 6.54h-36.68c-5.52 0-10 4.46-10 10 0 5.52 4.48 10 10 10h24c2.98 0 5.88 0.58 8.56 1.68a22.4 22.4 0 0 1 7.24 4.86 22.22 22.22 0 0 1 6.54 15.82c0 5.96-2.32 11.56-6.54 15.78-4.22 4.2-9.84 6.54-15.8 6.54h-164.6c-8.52 0-16.54-3.32-22.58-9.36a31.71 31.71 0 0 1-9.34-22.56V707.8l35.76-27.28h203.98c5.96 0 11.56 2.32 15.78 6.54 4.22 4.22 6.54 9.82 6.54 15.8 0 5.96-2.32 11.56-6.54 15.78s-9.82 6.56-15.78 6.56h-44c-5.52 0-10 4.48-10 10z" fill="#F8D3C9" p-id="57675"></path><path d="M375.38 789.86c-0.24 0.02-0.5 0.02-0.74 0.02h-12.88c0.08-0.02 0.14-0.02 0.22-0.02h13.4z" fill="#FFFFFF" p-id="57676"></path><path d="M175.76 887.26v0.04c0 8.52 3.32 16.54 9.34 22.56 6.04 6.04 14.06 9.36 22.58 9.36h-24c-8.52 0-16.54-3.32-22.58-9.36a31.71 31.71 0 0 1-9.34-22.56V707.8l35.76-27.28h24L175.76 707.8v179.46z" opacity=".2" p-id="57677"></path><path d="M363.914 881.08a22.22 22.22 0 0 1 6.54 15.82c0 5.96-2.32 11.56-6.54 15.78-4.22 4.2-9.84 6.54-15.8 6.54h-24c5.96 0 11.58-2.34 15.8-6.54 4.22-4.22 6.54-9.82 6.54-15.78 0-5.98-2.32-11.6-6.54-15.82a22.4 22.4 0 0 0-7.24-4.86c-2.68-1.1-5.58-1.68-8.56-1.68h24c2.98 0 5.88 0.58 8.56 1.68a22.4 22.4 0 0 1 7.24 4.86zM397.854 767.54c0 12.12-10.7 22.34-23.38 22.34l-22.82-0.02c12.16-0.62 22.2-10.58 22.2-22.32 0-12.12-10.7-22.34-23.38-22.34h24c12.68 0 23.38 10.22 23.38 22.34zM383.604 832.04c0 12.12-10.7 22.34-23.38 22.34l-22.82-0.02c12.16-0.62 22.2-10.58 22.2-22.32 0-12.12-10.7-22.34-23.38-22.34h24c12.68 0 23.38 10.22 23.38 22.34zM413.654 702.86c0 5.96-2.32 11.56-6.54 15.78s-9.82 6.56-15.78 6.56h-24c5.96 0 11.56-2.34 15.78-6.56s6.54-9.82 6.54-15.78c0-5.98-2.32-11.58-6.54-15.8a22.164 22.164 0 0 0-15.78-6.54h24c5.96 0 11.56 2.32 15.78 6.54 4.22 4.22 6.54 9.82 6.54 15.8z" fill="#FFFFFF" opacity=".7" p-id="57678"></path><path d="M848.074 887.26v0.04c0 8.52-3.32 16.54-9.34 22.56a31.726 31.726 0 0 1-22.58 9.36h24c8.52 0 16.54-3.32 22.58-9.36 6.02-6.02 9.34-14.04 9.34-22.56V707.8l-35.76-27.28h-24l35.76 27.28v179.46z" opacity=".2" p-id="57679"></path><path d="M659.92 881.08a22.22 22.22 0 0 0-6.54 15.82c0 5.96 2.32 11.56 6.54 15.78 4.22 4.2 9.84 6.54 15.8 6.54h24c-5.96 0-11.58-2.34-15.8-6.54a22.164 22.164 0 0 1-6.54-15.78c0-5.98 2.32-11.6 6.54-15.82a22.4 22.4 0 0 1 7.24-4.86c2.68-1.1 5.58-1.68 8.56-1.68h-24c-2.98 0-5.88 0.58-8.56 1.68a22.4 22.4 0 0 0-7.24 4.86zM625.98 767.54c0 12.12 10.7 22.34 23.38 22.34l22.82-0.02c-12.16-0.62-22.2-10.58-22.2-22.32 0-12.12 10.7-22.34 23.38-22.34h-24c-12.68 0-23.38 10.22-23.38 22.34zM640.23 832.04c0 12.12 10.7 22.34 23.38 22.34l22.82-0.02c-12.16-0.62-22.2-10.58-22.2-22.32 0-12.12 10.7-22.34 23.38-22.34h-24c-12.68 0-23.38 10.22-23.38 22.34zM610.18 702.86c0 5.96 2.32 11.56 6.54 15.78s9.82 6.56 15.78 6.56h24c-5.96 0-11.56-2.34-15.78-6.56s-6.54-9.82-6.54-15.78c0-5.98 2.32-11.58 6.54-15.8 4.22-4.22 9.82-6.54 15.78-6.54h-24c-5.96 0-11.56 2.32-15.78 6.54a22.174 22.174 0 0 0-6.54 15.8z" fill="#FFFFFF" opacity=".7" p-id="57680"></path><path d="M293.98 509.3v151.22h-57.52v-151.22c3.36 0.46 6.76 0.84 10.18 1.14 6.12 0.52 12.32 0.8 18.58 0.8a214.586 214.586 0 0 0 28.76-1.94z" fill="#E59D89" p-id="57681"></path><path d="M265.22 103.5c-106.9 0-193.88 86.98-193.88 193.88s86.98 193.86 193.88 193.86 193.86-86.96 193.86-193.86-86.96-193.88-193.86-193.88z m81.82 261.56a10.006 10.006 0 0 1-7.08 17.08c-2.54 0-5.1-0.98-7.06-2.94l-67.68-67.68-67.68 67.68a9.98 9.98 0 0 1-7.08 2.94 9.9 9.9 0 0 1-7.06-2.94 9.97 9.97 0 0 1 0-14.14l67.68-67.68-67.68-67.68a9.97 9.97 0 0 1 0-14.14 10.006 10.006 0 0 1 14.14 0l67.68 67.68 67.68-67.68a10.006 10.006 0 0 1 14.14 0 10.006 10.006 0 0 1 0 14.14l-67.68 67.68 67.68 67.68z" fill="#EC7063" p-id="57682"></path><path d="M106.34 297.38c0-101 77.64-184.22 176.38-193.08-5.76-0.54-11.6-0.8-17.5-0.8-106.9 0-193.88 86.98-193.88 193.88s86.98 193.86 193.88 193.86c5.9 0 11.74-0.26 17.5-0.8-98.74-8.86-176.38-92.06-176.38-193.06zM599.92 297.38c0-101 77.64-184.22 176.38-193.08-5.76-0.54-11.6-0.8-17.5-0.8-106.9 0-193.88 86.98-193.88 193.88s86.98 193.86 193.88 193.86c5.9 0 11.74-0.26 17.5-0.8-98.74-8.86-176.38-92.06-176.38-193.06z" opacity=".2" p-id="57683"></path><path d="M347.04 365.06a10.006 10.006 0 0 1-7.08 17.08c-2.54 0-5.1-0.98-7.06-2.94l-67.68-67.68-67.68 67.68a9.98 9.98 0 0 1-7.08 2.94 9.9 9.9 0 0 1-7.06-2.94 9.97 9.97 0 0 1 0-14.14l67.68-67.68-67.68-67.68a9.97 9.97 0 0 1 0-14.14 10.006 10.006 0 0 1 14.14 0l67.68 67.68 67.68-67.68a10.006 10.006 0 0 1 14.14 0 10.006 10.006 0 0 1 0 14.14l-67.68 67.68 67.68 67.68z" fill="#FFFFFF" p-id="57684"></path><path d="M104.2 918.6c2.52 1.22 5.34 1.9 8.32 1.9 10.6 0 19.24-8.64 19.24-19.24V697.84c0-5.14-2-9.96-5.62-13.58a19.104 19.104 0 0 0-13.62-5.64c-2.98 0-5.8 0.68-8.32 1.9 1.92 0.92 3.72 2.18 5.28 3.74a19.074 19.074 0 0 1 5.62 13.58v203.42c0 7.62-4.46 14.22-10.9 17.34zM236.46 509.3v9.8c3.22-3.1 6.62-6 10.18-8.66-3.42-0.3-6.82-0.68-10.18-1.14z m32.78 1.9c-2.54 1.44-5.04 3-7.48 4.66-9.18 6.22-17.62 13.86-25.3 22.88v15.12c8.6-12.04 18.7-22.38 30.48-30.38 8.36-5.68 17.38-10.02 27.04-13v-1.18c-8.12 1.1-16.36 1.74-24.74 1.9z m8.6 20.74c-16.06 10.92-29.88 26.12-41.38 45.56v20c11.38-23.94 26.5-44.34 46.56-57.94 3.54-2.4 7.18-4.56 10.96-6.46v-10.26c-5.6 2.56-10.98 5.6-16.14 9.1z m16.08 16.06c-24.4 16.58-43.6 43.08-57.46 79.24v30.34c11.08-40.02 28.98-76.3 57.52-98.22v-11.4c-0.02 0.02-0.04 0.02-0.06 0.04z m-47.34 112.52h9.9c8.66-26.82 20.76-51.3 37.5-70.04v-13.36c-20.3 19.48-36.14 47.36-47.4 83.4z m21.62 0h10.08c4.48-11.38 9.68-22.18 15.7-32.06v-16.82c-10.04 13.66-18.64 29.96-25.78 48.88z m22.8 0h2.98v-6.22c-1.02 2.04-2 4.1-2.98 6.22zM730.02 509.3v9.8c3.22-3.1 6.62-6 10.18-8.66-3.42-0.3-6.82-0.68-10.18-1.14z m32.78 1.9c-2.54 1.44-5.04 3-7.48 4.66-9.18 6.22-17.62 13.86-25.3 22.88v15.12c8.6-12.04 18.7-22.38 30.48-30.38 8.36-5.68 17.38-10.02 27.04-13v-1.18c-8.12 1.1-16.36 1.74-24.74 1.9z m8.6 20.74c-16.06 10.92-29.88 26.12-41.38 45.56v20c11.38-23.94 26.5-44.34 46.56-57.94 3.54-2.4 7.18-4.56 10.96-6.46v-10.26c-5.6 2.56-10.98 5.6-16.14 9.1z m16.08 16.06c-24.4 16.58-43.6 43.08-57.46 79.24v30.34c11.08-40.02 28.98-76.3 57.52-98.22v-11.4c-0.02 0.02-0.04 0.02-0.06 0.04z m-47.34 112.52h9.9c8.66-26.82 20.76-51.3 37.5-70.04v-13.36c-20.3 19.48-36.14 47.36-47.4 83.4z m21.62 0h10.08c4.48-11.38 9.68-22.18 15.7-32.06v-16.82c-10.04 13.66-18.64 29.96-25.78 48.88z m22.8 0h2.98v-6.22c-1.02 2.04-2 4.1-2.98 6.22z" opacity=".2" p-id="57685"></path></svg>