<?xml version="1.0" standalone="no"?><!DOCTYPE svg PUBLIC "-//W3C//DTD SVG 1.1//EN" "http://www.w3.org/Graphics/SVG/1.1/DTD/svg11.dtd"><svg t="1625811466223" class="icon" viewBox="0 0 1024 1024" version="1.1" xmlns="http://www.w3.org/2000/svg" p-id="30703" xmlns:xlink="http://www.w3.org/1999/xlink" width="200" height="200"><defs><style type="text/css"></style></defs><path d="M876.86 419.1h-151.32c25.96-7.26 53.98-12.64 83.64-14.94 4.74 4.34 10.82 6.74 17.3 6.74 6.86 0 13.3-2.68 18.16-7.52l6.76-6.76c4.86-4.86 7.52-11.3 7.52-18.16 0-6.88-2.66-13.32-7.52-18.18l-111.48-111.48c18.7-25.54 16.54-61.7-6.54-84.78-23.06-23.06-59.22-25.22-84.76-6.52l-111.48-111.48a25.49 25.49 0 0 0-18.16-7.52c-6.88 0-13.32 2.66-18.18 7.52l-6.76 6.76c-9.72 9.72-9.96 25.38-0.78 35.44-12.18 157.74-111.84 268.7-115.54 272.76l-58.1 58.1H147.14c-42.9 0-77.8 34.9-77.8 77.8v410.84c0 42.88 34.9 77.78 77.8 77.78h729.72c42.9 0 77.8-34.88 77.8-77.76V496.88c0-42.88-34.9-77.78-77.8-77.78zM719.24 178.16c15.24 15.24 17.3 38.72 6.26 56.22l-62.46-62.46c17.5-11.04 40.96-8.98 56.2 6.24zM508.2 66.92l6.74-6.76c1.08-1.08 2.5-1.66 4.04-1.66 1.52 0 2.94 0.58 4.02 1.66l117.96 117.96c0.02 0.02 0.02 0.04 0.04 0.06 0.02 0.02 0.04 0.02 0.06 0.04l78.16 78.16c0.02 0.02 0.02 0.02 0.02 0.04 0.02 0 0.04 0.02 0.04 0.02l117.98 117.98c1.08 1.08 1.66 2.5 1.66 4.02 0 1.52-0.58 2.96-1.66 4.04l-6.76 6.74c-2.14 2.16-5.9 2.16-8.04 0L508.2 74.96a5.686 5.686 0 0 1 0-8.04z m-59.44 227.2c24.16-42.6 53.58-108.4 62.8-187.5L790.8 385.86c-48.4 5.64-91.8 18.84-127.98 33.78-0.48 0.16-0.96 0.36-1.42 0.58a538.314 538.314 0 0 0-58.1 28.44c-36.38 20.62-61.66 40.38-73.32 50.16l-131.38-131.38c9.78-11.66 29.54-36.94 50.16-73.32z m54.54 258.72l26.2-26.2 27.06 27.06-26.2 26.2-27.06-27.06z m111.2 139.5l-47.16 47.14c-0.18 0.18-0.36 0.32-0.54 0.5-0.56 0.54-1.14 1.08-1.74 1.56-0.2 0.16-0.42 0.32-0.62 0.48-0.6 0.46-1.2 0.92-1.84 1.34-0.1 0.08-0.24 0.14-0.36 0.2-9.96 6.4-22.84 6.38-32.8-0.02-0.1-0.06-0.22-0.12-0.32-0.18-0.64-0.42-1.24-0.9-1.86-1.38-0.2-0.14-0.4-0.28-0.6-0.44-0.6-0.48-1.18-1.04-1.74-1.58-0.18-0.16-0.36-0.3-0.54-0.48l-103.86-103.86 68.64-68.64 34.04 34.06c0.04 0.02 0.06 0.06 0.08 0.08 0.02 0.04 0.06 0.06 0.08 0.08l91.14 91.14zM384.92 382.06l130.44 130.44-33.22 33.22c-0.02 0.02-0.04 0.04-0.06 0.04l-82.78 82.78c-0.02 0.02-0.02 0.04-0.04 0.06-35.98 35.9-94.44 35.88-130.38-0.06-35.96-35.96-35.96-94.46 0-130.44l116.04-116.04zM184.74 965.5h-37.6c-31.88 0-57.8-25.92-57.8-57.78V496.88c0-31.86 25.92-57.8 57.8-57.8h37.6v526.42z m634.52 0H204.74V439.08h94.88l-44.88 44.88c-43.76 43.76-43.76 114.96 0 158.72 21.88 21.88 50.6 32.82 79.36 32.82 25.6 0 51.2-8.7 71.94-26.08l104.18 104.18c0.02 0.02 0.02 0.02 0.02 0.04 0.96 0.96 1.96 1.86 2.98 2.72 0.26 0.22 0.52 0.46 0.78 0.68 0.24 0.18 0.46 0.34 0.68 0.52 0.46 0.36 0.9 0.72 1.36 1.06 0.08 0.06 0.18 0.1 0.26 0.16 8.54 6.22 18.78 9.6 29.56 9.6 10.76 0 21-3.36 29.54-9.58 0.1-0.06 0.2-0.12 0.28-0.2 0.44-0.32 0.88-0.66 1.3-1l0.76-0.58c0.22-0.18 0.44-0.38 0.66-0.58 1.06-0.88 2.1-1.82 3.08-2.8 0.02-0.02 0.02-0.04 0.04-0.04l54.18-54.2a9.97 9.97 0 0 0 0-14.14l-91.2-91.22 33.28-33.28c1.88-1.88 2.92-4.42 2.92-7.06 0-2.66-1.04-5.2-2.92-7.08l-33.58-33.56c17.16-14.12 61.44-47.58 124.14-73.96h150.92v526.4z m115.4-57.76c0 31.84-25.94 57.76-57.8 57.76h-37.6v-526.4h37.6c31.86 0 57.8 25.92 57.8 57.78v410.86z" fill="#23130D" p-id="30704"></path><path d="M147.14 439.08c-31.88 0-57.8 25.94-57.8 57.8v410.84c0 31.86 25.92 57.78 57.8 57.78h37.6V439.08h-37.6z m2.32 437.1c0 5.54-4.48 10-10 10s-10-4.46-10-10v-33.06c0-5.52 4.48-10 10-10s10 4.48 10 10v33.06z m0-112.56c0 5.52-4.48 10-10 10s-10-4.48-10-10v-122.64c0-5.52 4.48-10 10-10s10 4.48 10 10v122.64z" fill="#E1E1E5" p-id="30705"></path><path d="M115.34 907.72V496.88c0-31.86 25.92-57.8 57.8-57.8h-26c-31.88 0-57.8 25.94-57.8 57.8v410.84c0 31.86 25.92 57.78 57.8 57.78h26c-31.88 0-57.8-25.92-57.8-57.78z" fill="#23130D" opacity=".2" p-id="30706"></path><path d="M838.92 378.44c0 1.52-0.58 2.96-1.66 4.04l-6.76 6.74c-2.14 2.16-5.9 2.16-8.04 0L508.2 74.96a5.686 5.686 0 0 1 0-8.04l6.74-6.76c1.08-1.08 2.5-1.66 4.04-1.66 1.52 0 2.94 0.58 4.02 1.66l117.96 117.96c0.02 0.02 0.02 0.04 0.04 0.06 0.02 0.02 0.04 0.02 0.06 0.04l78.16 78.16c0.02 0.02 0.02 0.02 0.02 0.04 0.02 0 0.04 0.02 0.04 0.02l117.98 117.98c1.08 1.08 1.66 2.5 1.66 4.02z" fill="#EC7063" p-id="30707"></path><path d="M838.92 378.44c0 1.52-0.58 2.96-1.66 4.04l-1.98 1.96-117.74-117.76h-0.06c0-0.02 0-0.02-0.02-0.04l-78.14-78.18c-0.02-0.02-0.04-0.02-0.08-0.02-0.02-0.02-0.02-0.04-0.04-0.08l-117.96-117.94c-1.06-1.1-2.48-1.66-4.02-1.66-1.54 0-2.94 0.56-4.04 1.66l-4.76 4.76-0.22-0.22a5.686 5.686 0 0 1 0-8.04l6.74-6.76c1.08-1.08 2.5-1.66 4.04-1.66 1.52 0 2.94 0.58 4.02 1.66l117.96 117.96c0.02 0.02 0.02 0.04 0.04 0.06 0.02 0.02 0.04 0.02 0.06 0.04l78.16 78.16c0.02 0.02 0.02 0.02 0.02 0.04 0.02 0 0.04 0.02 0.04 0.02l117.98 117.98c1.08 1.08 1.66 2.5 1.66 4.02z" fill="#23130D" opacity=".2" p-id="30708"></path><path d="M725.5 234.38l-62.46-62.46c17.5-11.04 40.96-8.98 56.2 6.24 15.24 15.24 17.3 38.72 6.26 56.22z" fill="#636368" p-id="30709"></path><path d="M731.66 218.82a45.18 45.18 0 0 0-12.42-23.32c-11.94-11.94-28.94-15.78-44.16-11.54l-12.04-12.04c17.5-11.04 40.96-8.98 56.2 6.24 11.04 11.04 15.16 26.38 12.42 40.66z" fill="#23130D" opacity=".2" p-id="30710"></path><path d="M876.86 439.1h-37.6v526.4h37.6c31.86 0 57.8-25.92 57.8-57.76V496.88c0-31.86-25.94-57.78-57.8-57.78z m17.68 324.52c0 5.52-4.48 10-10 10s-10-4.48-10-10v-122.64c0-5.52 4.48-10 10-10s10 4.48 10 10v122.64z" fill="#E1E1E5" p-id="30711"></path><path d="M503.294 552.84l26.2-26.2 27.06 27.06-26.2 26.2z" fill="#3594BF" p-id="30712"></path><path d="M819.26 439.1v526.4H204.74V439.08h94.88l-2.88 2.9-42 41.98c-0.48 0.48-0.96 0.98-1.4 1.46a111.034 111.034 0 0 0-28.94 54.4 113.06 113.06 0 0 0-1.1 41.08 111.606 111.606 0 0 0 31.44 61.78c17.4 17.4 39.14 27.88 61.78 31.44 5.82 0.92 11.7 1.38 17.58 1.38 7.88 0 15.76-0.82 23.5-2.46 17.4-3.72 34.08-11.58 48.44-23.62l104.18 104.18c0.02 0.02 0.02 0.02 0.02 0.04 0.96 0.96 1.96 1.86 2.98 2.72 0.26 0.22 0.52 0.46 0.78 0.68 0.24 0.18 0.46 0.34 0.68 0.52 0.46 0.36 0.9 0.72 1.36 1.06 0.08 0.06 0.18 0.1 0.26 0.16a50.096 50.096 0 0 0 29.56 9.6c10.76 0 21-3.36 29.54-9.58 0.1-0.06 0.2-0.12 0.28-0.2 0.44-0.32 0.88-0.66 1.3-1l0.76-0.58c0.22-0.18 0.44-0.38 0.66-0.58 1.06-0.88 2.1-1.82 3.08-2.8 0.02-0.02 0.02-0.04 0.04-0.04l13.42-13.42 40.76-40.78a9.97 9.97 0 0 0 0-14.14l-91.2-91.22 21.44-21.42 11.84-11.86c1.88-1.88 2.92-4.42 2.92-7.06 0-2.66-1.04-5.2-2.92-7.08l-33.58-33.56c17.16-14.12 61.44-47.58 124.14-73.96h150.92z" fill="#3594BF" p-id="30713"></path><path d="M790.8 385.86c-48.4 5.64-91.8 18.84-127.98 33.78-0.48 0.16-0.96 0.36-1.42 0.58a538.314 538.314 0 0 0-58.1 28.44c-36.38 20.62-61.66 40.38-73.32 50.16l-131.38-131.38c9.78-11.66 29.54-36.94 50.16-73.32 24.16-42.6 53.58-108.4 62.8-187.5L790.8 385.86z" fill="#E1E1E5" p-id="30714"></path><path d="M790.8 385.86c-48.4 5.64-91.8 18.84-127.98 33.78-0.48 0.16-0.96 0.36-1.42 0.58a538.314 538.314 0 0 0-58.1 28.44c-36.38 20.62-61.66 40.38-73.32 50.16l-21.24-21.24c11.66-9.78 36.94-29.54 73.32-50.16 16.2-9.18 35.74-19.12 58.1-28.44 0.46-0.22 0.94-0.42 1.42-0.58 36.18-14.94 79.58-28.14 127.98-33.78l21.24 21.24z" fill="#23130D" opacity=".2" p-id="30715"></path><path d="M614.5 692.34l-47.16 47.14c-0.18 0.18-0.36 0.32-0.54 0.5-0.56 0.54-1.14 1.08-1.74 1.56-0.2 0.16-0.42 0.32-0.62 0.48-0.6 0.46-1.2 0.92-1.84 1.34-0.1 0.08-0.24 0.14-0.36 0.2-9.96 6.4-22.84 6.38-32.8-0.02-0.1-0.06-0.22-0.12-0.32-0.18-0.64-0.42-1.24-0.9-1.86-1.38-0.2-0.14-0.4-0.28-0.6-0.44-0.6-0.48-1.18-1.04-1.74-1.58-0.18-0.16-0.36-0.3-0.54-0.48l-103.86-103.86 68.64-68.64 34.04 34.06c0.04 0.02 0.06 0.06 0.08 0.08 0.02 0.04 0.06 0.06 0.08 0.08l91.14 91.14z" fill="#E1E1E5" p-id="30716"></path><path d="M614.5 692.34l-47.16 47.14c-0.18 0.18-0.36 0.32-0.54 0.5-0.56 0.54-1.14 1.08-1.74 1.56-0.2 0.16-0.42 0.32-0.62 0.48-0.6 0.46-1.2 0.92-1.84 1.34-0.1 0.08-0.24 0.14-0.36 0.2-9.96 6.4-22.84 6.38-32.8-0.02-0.1-0.06-0.22-0.12-0.32-0.18-0.64-0.42-1.24-0.9-1.86-1.38-0.2-0.14-0.4-0.28-0.6-0.44-0.6-0.48-1.18-1.04-1.74-1.58-0.18-0.16-0.36-0.3-0.54-0.48l-103.86-103.86 15.34-15.34 92.52 92.52c0.18 0.18 0.36 0.32 0.54 0.48 0.56 0.54 1.14 1.1 1.74 1.58 0.2 0.16 0.4 0.3 0.6 0.44 0.62 0.48 1.22 0.96 1.86 1.38 0.1 0.06 0.22 0.12 0.32 0.18 9.96 6.4 22.84 6.42 32.8 0.02 0.12-0.06 0.26-0.12 0.36-0.2 0.64-0.42 1.24-0.88 1.84-1.34 0.2-0.16 0.42-0.32 0.62-0.48 0.6-0.48 1.18-1.02 1.74-1.56 0.18-0.18 0.36-0.32 0.54-0.5l31.82-31.8 11.34 11.34z" fill="#23130D" opacity=".2" p-id="30717"></path><path d="M515.36 512.5l-33.22 33.22c-0.02 0.02-0.04 0.04-0.06 0.04l-82.78 82.78c-0.02 0.02-0.02 0.04-0.04 0.06-35.98 35.9-94.44 35.88-130.38-0.06-35.96-35.96-35.96-94.46 0-130.44l116.04-116.04 130.44 130.44z" fill="#EC7063" p-id="30718"></path><path d="M515.36 512.5l-33.22 33.22c-0.02 0.02-0.04 0.04-0.06 0.04l-82.78 82.78c-0.02 0.02-0.02 0.04-0.04 0.06-35.98 35.9-94.44 35.88-130.38-0.06a91.642 91.642 0 0 1-21.7-34.4 93.2 93.2 0 0 0 4.7 5.06c35.94 35.94 94.4 35.96 130.38 0.06 0.02-0.02 0.02-0.04 0.04-0.06l82.78-82.78c0.02 0 0.04-0.02 0.06-0.04l27.06-27.04 23.16 23.16z" fill="#23130D" opacity=".2" p-id="30719"></path><path d="M149.46 640.98v122.64c0 5.52-4.48 10-10 10s-10-4.48-10-10v-122.64c0-5.52 4.48-10 10-10s10 4.48 10 10zM149.46 843.12v33.06c0 5.54-4.48 10-10 10s-10-4.46-10-10v-33.06c0-5.52 4.48-10 10-10s10 4.48 10 10zM894.54 640.98v122.64c0 5.52-4.48 10-10 10s-10-4.48-10-10v-122.64c0-5.52 4.48-10 10-10s10 4.48 10 10z" fill="#23130D" p-id="30720"></path><path d="M908.66 496.86v410.84c0 31.86-25.92 57.8-57.8 57.8h26c31.88 0 57.8-25.94 57.8-57.8V496.86c0-31.86-25.92-57.78-57.8-57.78h-26c31.88 0 57.8 25.92 57.8 57.78z" fill="#23130D" opacity=".2" p-id="30721"></path><path d="M607.9 965.5h-108.42L204.74 670.76v-108.44l18.56 18.58a111.606 111.606 0 0 0 31.44 61.78c17.4 17.4 39.14 27.88 61.78 31.44l291.38 291.38zM207 439.08l46.34 46.34a111.034 111.034 0 0 0-28.94 54.4l-19.66-19.66v-81.08h2.26zM733.42 965.5h-83.36L357.6 673.04c17.4-3.72 34.08-11.58 48.44-23.62l104.18 104.18c0.02 0.02 0.02 0.02 0.02 0.04 0.96 0.96 1.96 1.86 2.98 2.72 0.26 0.22 0.52 0.46 0.78 0.68 0.24 0.18 0.46 0.34 0.68 0.52 0.46 0.36 0.9 0.72 1.36 1.06 0.08 0.06 0.18 0.1 0.26 0.16 5.66 4.12 12.04 6.98 18.86 8.46l198.26 198.26zM293.84 439.08h5.78l-2.88 2.9zM819.26 825.94v138.56L594.94 740.18l40.76-40.78a9.97 9.97 0 0 0 0-14.14l-91.2-91.22 21.44-21.42 253.32 253.32z" fill="#FFFFFF" opacity=".4" p-id="30722"></path></svg>