<?xml version="1.0" standalone="no"?><!DOCTYPE svg PUBLIC "-//W3C//DTD SVG 1.1//EN" "http://www.w3.org/Graphics/SVG/1.1/DTD/svg11.dtd"><svg t="1625812348499" class="icon" viewBox="0 0 1024 1024" version="1.1" xmlns="http://www.w3.org/2000/svg" p-id="61995" xmlns:xlink="http://www.w3.org/1999/xlink" width="200" height="200"><defs><style type="text/css"></style></defs><path d="M1007.08 609.36c-1.82-1.8-4.32-2.92-7.08-2.92h-50.46l-93.72-327.56c11.16-6.74 18.66-18.96 18.66-32.92 0-21.22-17.26-38.48-38.48-38.48-7.54 0-14.56 2.22-20.5 5.98-74.46-63.38-152.96-89.02-208.9-99.22-2.08-50.4-43.7-90.76-94.6-90.76s-92.52 40.36-94.6 90.76c-55.94 10.2-134.46 35.84-208.9 99.22A38.212 38.212 0 0 0 188 207.48c-21.22 0-38.48 17.26-38.48 38.48 0 13.96 7.5 26.18 18.66 32.92L74.46 606.44H24c-5.52 0-10 4.48-10 10 0 12.84 1.36 25.42 4.08 37.7a171.684 171.684 0 0 0 12.16 35.74v0.02c0.06 0.12 0.12 0.24 0.16 0.36 0.22 0.46 0.48 0.9 0.76 1.3 0.02 0.06 0.06 0.08 0.08 0.12 0.32 0.46 0.66 0.86 1.02 1.24 0.12 0.12 0.22 0.22 0.34 0.32 0.32 0.32 0.68 0.6 1.04 0.86a9.652 9.652 0 0 0 1.84 1.08l0.36 0.12c0.44 0.16 0.88 0.3 1.34 0.42 0.16 0.04 0.32 0.06 0.5 0.1 0.58 0.1 1.18 0.18 1.78 0.18H336.54c0.6 0 1.2-0.08 1.78-0.18 0.18-0.04 0.34-0.06 0.5-0.1 0.46-0.12 0.9-0.26 1.32-0.42 0.14-0.04 0.26-0.08 0.38-0.14 0.52-0.22 1-0.48 1.48-0.8 0.12-0.08 0.24-0.18 0.36-0.26 0.36-0.26 0.7-0.54 1.04-0.86 0.12-0.1 0.22-0.2 0.34-0.32 0.36-0.38 0.7-0.78 1-1.22a0.36 0.36 0 0 0 0.1-0.14c0.28-0.4 0.54-0.84 0.76-1.3 0.04-0.12 0.1-0.24 0.16-0.36v-0.02c10.78-23.06 16.24-47.78 16.24-73.44 0-2.76-1.12-5.26-2.92-7.08-1.82-1.8-4.32-2.92-7.08-2.92h-50.46l-93.72-327.56c11.16-6.74 18.66-18.96 18.66-32.92 0-6.42-1.6-12.48-4.4-17.8C292 168.86 365.6 144.32 418.7 134.32c5.2 30.06 24.6 55.3 51.02 68.56v110.08c-15.28 0.52-27.54 13.08-27.54 28.48 0 15.18 11.92 27.58 26.88 28.44l-13.74 217.52-27.6 53.62a9.72 9.72 0 0 0-1.08 4.04L414.6 870h-58.02c-0.22 0-0.44 0.06-0.64 0.06-0.4 0.04-0.8 0.06-1.18 0.12-0.32 0.06-0.62 0.16-0.94 0.26-0.32 0.08-0.62 0.16-0.94 0.28-0.36 0.14-0.7 0.34-1.04 0.52-0.2 0.12-0.4 0.18-0.6 0.3-0.06 0.04-0.14 0.1-0.22 0.14-0.02 0.02-0.04 0.04-0.06 0.04-31.1 19.7-48.62 44.96-49.72 71.44l-22.02 42.78c-1.6 3.1-1.48 6.82 0.34 9.8a10.044 10.044 0 0 0 8.54 4.78H735.94c5.52 0 10-4.48 10-10 0-1.96-0.56-3.78-1.54-5.32l-21.64-42.02c-1.1-26.5-18.62-51.76-49.72-71.44l-0.06-0.06c-0.08-0.04-0.16-0.1-0.22-0.14-0.2-0.12-0.4-0.18-0.58-0.28-0.36-0.2-0.7-0.38-1.08-0.54-0.3-0.12-0.6-0.2-0.9-0.28-0.32-0.1-0.64-0.2-0.96-0.26-0.38-0.06-0.76-0.08-1.14-0.12-0.24 0-0.44-0.06-0.68-0.06h-58.04l-12.02-224.94c-0.08-1.42-0.44-2.8-1.1-4.04l-27.58-53.62-13.74-217.52c14.96-0.86 26.88-13.26 26.88-28.44 0-15.4-12.26-27.96-27.54-28.48v-110.08c26.42-13.24 45.82-38.5 51.02-68.56 53.1 10 126.7 34.54 196.62 93.84-2.8 5.32-4.4 11.38-4.4 17.8 0 13.96 7.5 26.18 18.66 32.92l-93.72 327.56H672c-5.52 0-10 4.48-10 10 0 12.84 1.36 25.42 4.08 37.7a171.684 171.684 0 0 0 12.16 35.74c0 0.02 0 0.02 0.02 0.02 0.04 0.12 0.1 0.24 0.16 0.36 0.2 0.46 0.46 0.9 0.74 1.3 0.02 0.06 0.06 0.1 0.1 0.14 0.3 0.44 0.64 0.84 1 1.22 0.12 0.12 0.22 0.22 0.34 0.32 0.34 0.32 0.68 0.6 1.04 0.86 0.12 0.1 0.24 0.18 0.36 0.26 0.48 0.32 0.96 0.58 1.48 0.82l0.36 0.12c0.44 0.16 0.88 0.3 1.34 0.42 0.16 0.04 0.32 0.06 0.5 0.1 0.58 0.1 1.18 0.18 1.78 0.18H984.54c0.6 0 1.2-0.08 1.78-0.18 0.18-0.04 0.34-0.06 0.5-0.1a14.896 14.896 0 0 0 1.7-0.56c0.52-0.22 1-0.48 1.48-0.8 0.12-0.08 0.24-0.18 0.36-0.26 0.36-0.26 0.7-0.54 1.04-0.86 0.12-0.1 0.22-0.2 0.34-0.32 0.36-0.38 0.7-0.78 1-1.22a0.36 0.36 0 0 0 0.1-0.14c0.28-0.4 0.54-0.84 0.74-1.3 0.06-0.12 0.12-0.24 0.16-0.36 0.02 0 0.02 0 0.02-0.02 10.78-23.06 16.24-47.78 16.24-73.44 0-2.76-1.12-5.26-2.92-7.08zM188 227.48c10.2 0 18.48 8.3 18.48 18.48 0 8.34-5.54 15.4-13.14 17.68l4.28-14.92c1.52-5.32-1.56-10.86-6.86-12.38-5.32-1.52-10.86 1.56-12.38 6.88l-4.26 14.9a18.36 18.36 0 0 1-4.6-12.16c0-10.18 8.28-18.48 18.48-18.48z m106 398.96h47.68a152.52 152.52 0 0 1-11.64 49.56H45.96a152.52 152.52 0 0 1-11.64-49.56H294z m-13.26-20H95.26L187.4 284.42c0.2 0 0.4 0.02 0.6 0.02s0.4-0.02 0.6-0.02l92.14 322.02z m438.76 374.08h-415l12.74-24.72h389.52l12.74 24.72zM664.44 890c20.58 13.54 33.46 29.44 37.22 45.8H322.34c3.76-16.36 16.64-32.26 37.22-45.8h304.88z m-86.94-241.74L589.36 870h-154.72l11.84-221.74 27.58-53.58c0.62-1.22 1-2.56 1.08-3.94l13.96-220.78h45.8l13.96 220.78c0.08 1.38 0.46 2.72 1.08 3.94l27.56 53.58z m-15.68-306.82c0 4.7-3.82 8.52-8.52 8.52h-82.6c-4.7 0-8.52-3.82-8.52-8.52 0-4.7 3.82-8.52 8.52-8.52h82.6c4.7 0 8.52 3.82 8.52 8.52z m-72.1-28.52V210.2a93.994 93.994 0 0 0 44.56 0v102.72h-44.56zM512 192.88c-41.18 0-74.7-33.52-74.7-74.7 0-41.2 33.52-74.7 74.7-74.7s74.7 33.5 74.7 74.7c0 41.18-33.52 74.7-74.7 74.7z m324 34.6c10.18 0 18.48 8.3 18.48 18.48 0 4.66-1.74 8.9-4.6 12.16l-4.26-14.9c-1.52-5.32-7.08-8.38-12.38-6.88a10.016 10.016 0 0 0-6.86 12.38l4.28 14.92a18.47 18.47 0 0 1-13.14-17.68c0-10.18 8.3-18.48 18.48-18.48z m-0.6 56.94c0.2 0 0.4 0.02 0.6 0.02s0.4-0.02 0.6-0.02l92.14 322.02h-185.48l92.14-322.02zM978.04 676H693.96a152.398 152.398 0 0 1-11.64-49.56h307.36c-1.1 17.16-5 33.78-11.64 49.56z" fill="#23130D" p-id="61996"></path><path d="M512 43.48c-41.18 0-74.7 33.5-74.7 74.7 0 41.18 33.52 74.7 74.7 74.7s74.7-33.52 74.7-74.7c0-41.2-33.52-74.7-74.7-74.7z m-4.42 64.7h8.82c13.94 0 25.28 11.34 25.28 25.28 0 12.02-8.44 22.08-19.68 24.64v7.82c0 5.52-4.48 10-10 10-5.54 0-10-4.48-10-10v-7.18h-9.7c-5.52 0-10-4.48-10-10s4.48-10 10-10h24.1c2.92 0 5.28-2.36 5.28-5.28 0-2.92-2.36-5.28-5.28-5.28h-8.82c-13.94 0-25.28-11.34-25.28-25.28 0-12.02 8.44-22.1 19.7-24.64v-7.82c0-5.52 4.46-10 10-10 5.52 0 10 4.48 10 10v7.16h9.68c5.52 0 10 4.48 10 10s-4.48 10-10 10h-24.1a5.292 5.292 0 0 0 0 10.58z" fill="#F9C139" p-id="61997"></path><path d="M523.14 181.74c-41.18 0-74.7-33.52-74.7-74.7 0-17.74 6.22-34.08 16.6-46.9-16.92 13.7-27.74 34.62-27.74 58.04 0 41.18 33.52 74.7 74.7 74.7 23.42 0 44.38-10.84 58.06-27.78-12.84 10.4-29.18 16.64-46.92 16.64z" fill="#23130D" opacity=".2" p-id="61998"></path><path d="M561.82 341.44c0 4.7-3.82 8.52-8.52 8.52h-82.6c-4.7 0-8.52-3.82-8.52-8.52 0-4.7 3.82-8.52 8.52-8.52h82.6c4.7 0 8.52 3.82 8.52 8.52z" fill="#F8D3C9" p-id="61999"></path><path d="M534.28 210.2v102.72h-44.56V210.2a93.994 93.994 0 0 0 44.56 0z" fill="#E59D89" p-id="62000"></path><path d="M489.72 210.2c3.48 0.84 7.04 1.5 10.66 1.96v100.76h-10.66V210.2zM534.28 210.2v1.96a92.72 92.72 0 0 1-16.94 0.56c5.8-0.32 11.46-1.18 16.94-2.52z" fill="#FFFFFF" opacity=".4" p-id="62001"></path><path d="M500.38 210.2c5.48 1.34 11.14 2.2 16.96 2.52a92.72 92.72 0 0 1-16.96-0.56v-1.96z" fill="#FFFFFF" opacity=".4" p-id="62002"></path><path d="M534.28 210.2v102.72h-10.66v-100.76c3.62-0.46 7.18-1.12 10.66-1.96z" fill="#23130D" opacity=".2" p-id="62003"></path><path d="M719.5 980.52h-415l12.74-24.72h389.52z" fill="#E1E1E5" p-id="62004"></path><path d="M701.66 935.8H322.34c3.76-16.36 16.64-32.26 37.22-45.8h304.88c20.58 13.54 33.46 29.44 37.22 45.8z" fill="#F8D3C9" p-id="62005"></path><path d="M701.66 935.8h-9.3c-6.48-9.16-15.88-17.88-27.92-25.8H359.56c-12.04 7.92-21.44 16.64-27.92 25.8h-9.3c3.76-16.36 16.64-32.26 37.22-45.8h304.88c20.58 13.54 33.46 29.44 37.22 45.8z" fill="#23130D" opacity=".2" p-id="62006"></path><path d="M989.68 626.44c-1.1 17.16-5 33.78-11.64 49.56H693.96a152.398 152.398 0 0 1-11.64-49.56h307.36z" fill="#CC7B5A" p-id="62007"></path><path d="M589.36 870h-154.72l11.84-221.74 27.58-53.58c0.62-1.22 1-2.56 1.08-3.94l13.96-220.78h45.8l13.96 220.78c0.08 1.38 0.46 2.72 1.08 3.94l27.56 53.58L589.36 870z" fill="#E59D89" p-id="62008"></path><path d="M507.1 369.96l-13.96 220.78c-0.08 1.38-0.46 2.72-1.08 3.94l-27.58 53.58L452.64 870h-18l11.84-221.74 27.58-53.58c0.62-1.22 1-2.56 1.08-3.94l13.96-220.78h18z" fill="#FFFFFF" opacity=".4" p-id="62009"></path><path d="M589.36 870h-18l-11.86-221.74-27.56-53.58c-0.62-1.22-1-2.56-1.08-3.94l-13.96-220.78h18l13.96 220.78c0.08 1.38 0.46 2.72 1.08 3.94l27.56 53.58L589.36 870z" fill="#23130D" opacity=".2" p-id="62010"></path><path d="M341.68 626.44a152.52 152.52 0 0 1-11.64 49.56H45.96a152.52 152.52 0 0 1-11.64-49.56h307.36z" fill="#CC7B5A" p-id="62011"></path><path d="M341.68 626.44a152.52 152.52 0 0 1-11.64 49.56H45.96a152.52 152.52 0 0 1-11.64-49.56h2.4c2 10.46 5.08 20.66 9.24 30.56h284.08a152.802 152.802 0 0 0 9.24-30.56h2.4zM989.68 626.44a152.52 152.52 0 0 1-11.64 49.56H693.96a152.52 152.52 0 0 1-11.64-49.56h2.4c2 10.46 5.08 20.66 9.24 30.56h284.08a152.802 152.802 0 0 0 9.24-30.56h2.4z" fill="#23130D" opacity=".2" p-id="62012"></path><path d="M541.68 133.46c0 12.02-8.44 22.08-19.68 24.64v7.82c0 5.52-4.48 10-10 10-5.54 0-10-4.48-10-10v-7.18h-9.7c-5.52 0-10-4.48-10-10s4.48-10 10-10h24.1c2.92 0 5.28-2.36 5.28-5.28 0-2.92-2.36-5.28-5.28-5.28h-8.82c-13.94 0-25.28-11.34-25.28-25.28 0-12.02 8.44-22.1 19.7-24.64v-7.82c0-5.52 4.46-10 10-10 5.52 0 10 4.48 10 10v7.16h9.68c5.52 0 10 4.48 10 10s-4.48 10-10 10h-24.1a5.292 5.292 0 0 0 0 10.58h8.82c13.94 0 25.28 11.34 25.28 25.28z" fill="#23130D" p-id="62013"></path></svg>