<?xml version="1.0" standalone="no"?><!DOCTYPE svg PUBLIC "-//W3C//DTD SVG 1.1//EN" "http://www.w3.org/Graphics/SVG/1.1/DTD/svg11.dtd"><svg t="1625812166152" class="icon" viewBox="0 0 1024 1024" version="1.1" xmlns="http://www.w3.org/2000/svg" p-id="52891" xmlns:xlink="http://www.w3.org/1999/xlink" width="200" height="200"><defs><style type="text/css"></style></defs><path d="M979.46 533.64c-0.08-0.16-0.14-0.32-0.2-0.48-0.14-0.34-0.32-0.7-0.48-1.04-0.26-0.58-0.5-1.18-0.78-1.74-0.52-1.08-1.08-2.14-1.66-3.18a63.48 63.48 0 0 0-27.82-26.3 62.618 62.618 0 0 0-27.26-6.22h-42.98v-117.74c0-0.02 0.02-0.06 0.02-0.08 0-24.1-12.88-45.24-32.1-56.94a66.328 66.328 0 0 0-34.52-9.66h-134.26v-91.16c0-5.52-4.46-10-5-10H56c-10.52 0-15 4.48-15 10v470.02c0 5.52 4.48 10 10 10h42.2v40.58c0 5.52 4.46 10 10 10h66.32c4.92 36.76 36.44 65.2 74.5 65.2 38.08 0 69.6-28.44 74.52-65.2h374.82c4.9 36.76 36.44 65.2 74.5 65.2 38.08 0 69.6-28.44 74.5-65.2h131.86c5.52 0 10-4.48 10-10v-182.06c0-8.5-1.7-16.6-4.76-24zM677.42 330.26h134.26c8.04 0 15.6 2.04 22.2 5.64 14.52 7.9 24.4 23.3 24.4 40.96v117.84h-180.86v-164.44z m0 184.44h180.86v164.42h-45.96c-12.46-9.18-27.84-14.6-44.46-14.6s-32 5.42-44.46 14.6h-45.98v-164.42zM61 679.12V229.1h596.42v450.02H288.48a74.664 74.664 0 0 0-44.46-14.6c-16.62 0-31.98 5.42-44.46 14.6H61z m108.52 50.58H113.2v-30.58h67.58a75.054 75.054 0 0 0-11.26 30.58z m74.5 65.2c-30.42 0-55.18-24.76-55.18-55.2 0-30.42 24.76-55.18 55.18-55.18 30.44 0 55.2 24.76 55.2 55.18 0 30.44-24.76 55.2-55.2 55.2z m449.34-65.2H318.54a75.054 75.054 0 0 0-11.26-30.58h397.34a74.484 74.484 0 0 0-11.26 30.58z m129.7 10v0.02c-0.02 30.42-24.76 55.18-55.2 55.18-30.42 0-55.18-24.76-55.18-55.2 0-30.42 24.76-55.18 55.18-55.18 30.44 0 55.18 24.74 55.2 55.16v0.02z m141.16-10h-121.86a74.484 74.484 0 0 0-11.26-30.58h133.12v30.58z m0-50.58h-85.92v-164.44h42.96c23.68 0 42.96 19.28 42.96 42.96v121.48z" fill="#23130D" p-id="52892"></path><path d="M299.22 739.7c0 2.16-0.12 4.28-0.38 6.36-0.8 7.04-2.94 13.68-6.14 19.68-1.86 3.44-4.04 6.66-6.56 9.6-2.38 2.8-5.02 5.36-7.9 7.62-1.46 1.2-3 2.28-4.58 3.28a54.388 54.388 0 0 1-13.84 6.36c-5 1.5-10.32 2.3-15.8 2.3-30.42 0-55.18-24.76-55.18-55.2 0-5.48 0.8-10.78 2.3-15.78 1.48-4.94 3.64-9.58 6.36-13.84 1-1.58 2.1-3.12 3.28-4.58 2.26-2.88 4.82-5.52 7.62-7.9 2.96-2.5 6.18-4.7 9.62-6.54a54.36 54.36 0 0 1 19.66-6.16c2.08-0.26 4.2-0.38 6.34-0.38 30.44 0 55.2 24.76 55.2 55.18z" fill="#636368" p-id="52893"></path><path d="M280.22 739.704c0 19.96-16.236 36.196-36.196 36.196-19.948 0-36.184-16.236-36.184-36.196 0-19.948 16.236-36.184 36.184-36.184 19.96 0 36.196 16.236 36.196 36.184z" fill="#E1E1E5" p-id="52894"></path><path d="M823.06 739.68v0.04c-0.02 30.42-24.76 55.18-55.2 55.18-30.42 0-55.18-24.76-55.18-55.2 0-30.42 24.76-55.18 55.18-55.18 30.44 0 55.18 24.74 55.2 55.16z" fill="#636368" p-id="52895"></path><path d="M180.78 699.12a75.054 75.054 0 0 0-11.26 30.58H113.2v-30.58h67.58zM704.62 699.12a74.484 74.484 0 0 0-11.26 30.58H318.54a75.054 75.054 0 0 0-11.26-30.58h397.34zM964.22 699.12v30.58h-121.86a74.484 74.484 0 0 0-11.26-30.58h133.12z" fill="#E1E1E5" p-id="52896"></path><path d="M180.78 699.12c-2.36 3.66-4.4 7.58-6.12 11.66H113.2v-11.66h67.58zM704.62 699.12a72.648 72.648 0 0 0-6.12 11.66H313.38c-1.68-4.08-3.72-8-6.1-11.66h397.34zM964.22 699.12v11.66h-127c-1.7-4.08-3.74-8-6.12-11.66h133.12z" opacity=".2" p-id="52897"></path><path d="M964.22 557.64v121.48h-85.92v-164.44h42.96c23.68 0 42.96 19.28 42.96 42.96z" fill="#E1E1E5" p-id="52898"></path><path d="M964.22 557.64v121.48h-13.66v-107.82c0-23.68-19.28-42.96-42.96-42.96h-29.3v-13.66h42.96c23.68 0 42.96 19.28 42.96 42.96z" opacity=".2" p-id="52899"></path><path d="M858.28 376.86v117.84h-180.86v-164.44h134.26c8.04 0 15.6 2.04 22.2 5.64 14.52 7.9 24.4 23.3 24.4 40.96z" fill="#3594BF" p-id="52900"></path><path d="M858.28 376.86v117.84h-16.4v-101.44c0-17.66-9.88-33.06-24.4-40.96-6.6-3.6-14.16-5.64-22.2-5.64h-117.86v-16.4h134.26c8.04 0 15.6 2.04 22.2 5.64 14.52 7.9 24.4 23.3 24.4 40.96z" opacity=".2" p-id="52901"></path><path d="M677.42 514.7v164.42h45.98c12.46-9.18 27.84-14.6 44.46-14.6s32 5.42 44.46 14.6h45.96v-164.42h-180.86z m77.66 46.38h-43.82c-5.52 0-10-4.48-10-10s4.48-10 10-10h43.82c5.52 0 10 4.48 10 10s-4.48 10-10 10z" fill="#E1E1E5" p-id="52902"></path><path d="M257.52 464.12h-39.64l54.98 54.98h39.64l-54.98-54.98z m0 0h-39.64l54.98 54.98h39.64l-54.98-54.98z m0 0h-39.64l54.98 54.98h39.64l-54.98-54.98z m0 0h-39.64l54.98 54.98h39.64l-54.98-54.98zM61 229.1v450.02h138.56c12.48-9.18 27.84-14.6 44.46-14.6 16.64 0 32 5.42 44.46 14.6h368.94V229.1H61z m380.12 140c5.54 0 10 4.48 10 10s-4.46 10-10 10H215.26c-5.52 0-10-4.48-10-10s4.48-10 10-10h225.86z m0 150c5.54 0 10 4.48 10 10s-4.46 10-10 10H215.26c-5.52 0-10-4.48-10-10s4.48-10 10-10h225.86z m-139.78 95.02c-5.52 0-10-4.48-10-10s4.48-10 10-10h203.72c5.52 0 10 4.48 10 10s-4.48 10-10 10H301.34z m108.32-150H111.96c-5.52 0-10-4.48-10-10 0-1.18 0.2-2.32 0.6-3.38a9.976 9.976 0 0 1 9.4-6.62h297.7c5.52 0 10 4.46 10 10a10.008 10.008 0 0 1-10 10z m-108.32-150.02c-5.52 0-10-4.48-10-10s4.48-10 10-10h203.72c5.52 0 10 4.48 10 10s-4.48 10-10 10H301.34z m-43.82 150.02h-39.64l54.98 54.98h39.64l-54.98-54.98z m0 0h-39.64l54.98 54.98h39.64l-54.98-54.98z m0 0h-39.64l54.98 54.98h39.64l-54.98-54.98z" fill="#636368" p-id="52903"></path><path d="M647.42 239.1v430.02H291.656c-14.096-9.562-30.494-14.6-47.636-14.6-17.122 0-33.518 5.038-47.632 14.6H71V239.1h576.42m-346.08 85h203.72c11.028 0 20-8.972 20-20s-8.972-20-20-20H301.34c-11.028 0-20 8.972-20 20s8.972 20 20 20m-86.08 75h225.86c11.028 0 20-8.972 20-20s-8.972-20-20-20H215.26c-11.028 0-20 8.972-20 20s8.972 20 20 20m-103.3 75.02h297.7c11.028 0 20-8.972 20-20s-8.972-20-20-20H111.96c-11.028 0-20 8.972-20 20s8.972 20 20 20m103.3 74.98h225.86c11.028 0 20-8.972 20-20s-8.972-20-20-20H215.26c-11.028 0-20 8.972-20 20s8.972 20 20 20m86.08 75.02h203.72c11.028 0 20-8.972 20-20s-8.972-20-20-20H301.34c-11.028 0-20 8.972-20 20s8.972 20 20 20m356.08-395.02H61v450.02h138.56c12.48-9.18 27.84-14.6 44.46-14.6 16.64 0 32 5.42 44.46 14.6h368.94V229.1z m-356.08 85c-5.52 0-10-4.48-10-10s4.48-10 10-10h203.72c5.52 0 10 4.48 10 10s-4.48 10-10 10H301.34z m-86.08 75c-5.52 0-10-4.48-10-10s4.48-10 10-10h225.86c5.54 0 10 4.48 10 10s-4.46 10-10 10H215.26z m-103.3 75.02c-5.52 0-10-4.48-10-10 0-5.54 4.48-10 10-10h297.7c5.52 0 10 4.46 10 10 0 5.52-4.48 10-10 10H111.96z m103.3 74.98c-5.52 0-10-4.48-10-10s4.48-10 10-10h225.86c5.54 0 10 4.48 10 10s-4.46 10-10 10H215.26z m86.08 75.02c-5.52 0-10-4.48-10-10s4.48-10 10-10h203.72c5.52 0 10 4.48 10 10s-4.48 10-10 10H301.34z" opacity=".2" p-id="52904"></path><path d="M765.08 551.08c0 5.52-4.48 10-10 10h-43.82c-5.52 0-10-4.48-10-10s4.48-10 10-10h43.82c5.52 0 10 4.48 10 10z" fill="#23130D" p-id="52905"></path><path d="M419.66 454.12c0 5.52-4.48 10-10 10H111.96c-5.52 0-10-4.48-10-10 0-5.54 4.48-10 10-10h297.7c5.52 0 10 4.46 10 10zM451.12 529.1c0 5.52-4.46 10-10 10H215.26c-5.52 0-10-4.48-10-10s4.48-10 10-10h225.86c5.54 0 10 4.48 10 10zM515.06 604.12c0 5.52-4.48 10-10 10H301.34c-5.52 0-10-4.48-10-10s4.48-10 10-10h203.72c5.52 0 10 4.48 10 10zM515.06 304.1c0 5.52-4.48 10-10 10H301.34c-5.52 0-10-4.48-10-10s4.48-10 10-10h203.72c5.52 0 10 4.48 10 10zM451.12 379.1c0 5.52-4.46 10-10 10H215.26c-5.52 0-10-4.48-10-10s4.48-10 10-10h225.86c5.54 0 10 4.48 10 10z" fill="#FFFFFF" p-id="52906"></path><path d="M804.06 739.704c0 19.96-16.236 36.196-36.196 36.196-19.948 0-36.184-16.236-36.184-36.196 0-19.948 16.236-36.184 36.184-36.184 19.96 0 36.196 16.236 36.196 36.184z" fill="#E1E1E5" p-id="52907"></path><path d="M677.42 514.7h180.86v17.634h-180.86z" opacity=".2" p-id="52908"></path><path d="M197.88 444.12H111.96c-4.34 0-8.02 2.76-9.4 6.62L61 409.18v-101.94l136.88 136.88zM432.88 679.12h-101.94l-215-215h101.94l54.98 54.98h-57.6c-5.52 0-10 4.48-10 10s4.48 10 10 10h77.6l55.02 55.02h-46.54c-5.52 0-10 4.48-10 10s4.48 10 10 10h66.54l65 65zM315.88 444.12h-78.36L61 267.6v-38.5h39.86l140 140h-25.6c-5.52 0-10 4.48-10 10s4.48 10 10 10h45.6l55.02 55.02zM390.86 519.1h-78.36l-54.98-54.98h78.36zM465.88 594.12h-78.36l-55.02-55.02h78.36zM550.88 679.12h-78.36l-65-65h78.36zM657.42 573.76v105.36h-24.9L415.58 462.18l-18.06-18.06-55.02-55.02h98.62c5.54 0 10-4.48 10-10s-4.46-10-10-10h-118.62l-140-140h130.26l65 65h-76.42c-5.52 0-10 4.48-10 10s4.48 10 10 10h96.42l259.66 259.66z" fill="#FFFFFF" opacity=".3" p-id="52909"></path><path d="M803.64 494.7h-41.72l-84.5-84.52v-41.72zM851.94 494.7h-32.08l-142.44-142.44v-22h10.08zM858.28 414.32v53.3l-137.38-137.36h53.32z" fill="#FFFFFF" opacity=".4" p-id="52910"></path><path d="M273.66 786.24a54.388 54.388 0 0 1-13.84 6.36l-68.68-68.68c1.48-4.94 3.64-9.58 6.36-13.84l76.16 76.16zM286.14 775.34c-2.38 2.8-5.02 5.36-7.9 7.62l-77.46-77.46c2.26-2.88 4.82-5.52 7.62-7.9l77.74 77.74zM298.84 746.06c-0.8 7.04-2.94 13.68-6.14 19.68l-74.68-74.68a54.36 54.36 0 0 1 19.66-6.16l61.16 61.16z" fill="#FFFFFF" opacity=".3" p-id="52911"></path><path d="M796.54 786.24a54.388 54.388 0 0 1-13.84 6.36l-68.68-68.68c1.48-4.94 3.64-9.58 6.36-13.84l76.16 76.16zM809.02 775.34c-2.38 2.8-5.02 5.36-7.9 7.62l-77.46-77.46c2.26-2.88 4.82-5.52 7.62-7.9l77.74 77.74zM821.72 746.06c-0.8 7.04-2.94 13.68-6.14 19.68l-74.68-74.68a54.36 54.36 0 0 1 19.66-6.16l61.16 61.16z" fill="#FFFFFF" opacity=".3" p-id="52912"></path></svg>