<?xml version="1.0" standalone="no"?><!DOCTYPE svg PUBLIC "-//W3C//DTD SVG 1.1//EN" "http://www.w3.org/Graphics/SVG/1.1/DTD/svg11.dtd"><svg t="1625811931722" class="icon" viewBox="0 0 1024 1024" version="1.1" xmlns="http://www.w3.org/2000/svg" p-id="44807" xmlns:xlink="http://www.w3.org/1999/xlink" width="200" height="200"><defs><style type="text/css"></style></defs><path d="M975.42 637.36c-14.96-21.38-48.02-29.6-73.78-18.36l-178.24 73.54c-7-22.3-28.14-38.32-53.06-38.32h-157.02c-23.64 0-62.36-6.9-84.64-15.06l-0.9-0.36c-0.1-0.04-0.18-0.08-0.28-0.1-27.8-10.24-70.58-16.34-114.44-16.34h-69.48v-19.36c0-19.28-15.68-34.98-34.98-34.98H170.72v-17.06c0-5.52-4.48-10-10-10H50.38c-5.52 0-10 4.48-10 10v405.94c0 5.54 4.48 10 10 10h110.34c5.52 0 10-4.46 10-10v-22.18h37.88c19.3 0 34.98-15.68 34.98-34.98v-24.66l293.46 68.1c6.12 1.32 12.9 1.96 20 1.96 22.7 0 48.5-6.52 65.42-17.4l336.64-220.98c12.32-7.92 20.92-20.32 23.6-34.02 2.48-12.56-0.12-25.14-7.28-35.38zM150.72 946.9H60.38V560.96h90.34v385.94z m72.86-47.16c0 8.26-6.72 14.98-14.98 14.98H170.72V588.02h37.88c8.26 0 14.98 6.72 14.98 14.98v296.74z m739.5-230.86c-1.64 8.4-7.04 16.08-14.88 21.12L611.56 910.98c-17.6 11.32-49.78 17.12-70.12 12.68l-297.86-69.1v-212.2h69.48c41.56 0 81.7 5.64 107.42 15.06l0.9 0.36c0.08 0.04 0.18 0.06 0.26 0.1 24.5 9 65.62 16.34 91.68 16.34h157.02c19 0 34.58 14.38 35.48 32.88 0.02 0.48 0.04 1 0.04 1.5 0 2.16-0.22 4.34-0.66 6.56-3.26 16.12-17.92 27.82-34.86 27.82h-156.78c-4.4-0.2-46.3-1.1-81.12 29a9.984 9.984 0 0 0-1.02 14.1 9.994 9.994 0 0 0 14.1 1.02c29.72-25.68 66.9-24.16 67.26-24.14 0.18 0 0.36 0.02 0.54 0.02h157.02c26.44 0 49.34-18.44 54.48-43.9 0.38-1.98 0.66-3.9 0.82-5.82l183.74-75.82c0.06-0.02 0.12-0.06 0.2-0.08 17.18-7.54 39.82-2.3 49.44 11.46 4.04 5.76 5.48 12.88 4.06 20.06z" fill="#23130D" p-id="44808"></path><path d="M223.58 603v296.74c0 8.26-6.72 14.98-14.98 14.98H170.72V588.02h37.88c8.26 0 14.98 6.72 14.98 14.98z" fill="#E1E1E5" p-id="44809"></path><path d="M170.72 588.02h26.42v326.7H170.72z" opacity=".2" p-id="44810"></path><path d="M60.38 560.96h90.34v385.94H60.38z" fill="#3594BF" p-id="44811"></path><path d="M125.72 560.96h25v385.94h-25z" fill="#FFFFFF" opacity=".4" p-id="44812"></path><path d="M60.38 560.96h25v385.94h-25z" opacity=".2" p-id="44813"></path><path d="M963.08 668.88c-1.64 8.4-7.04 16.08-14.88 21.12L611.56 910.98c-17.6 11.32-49.78 17.12-70.12 12.68l-297.86-69.1v-212.2h69.48c41.56 0 81.7 5.64 107.42 15.06l0.9 0.36c0.08 0.04 0.18 0.06 0.26 0.1 24.5 9 65.62 16.34 91.68 16.34h157.02c19 0 34.58 14.38 35.48 32.88 0.02 0.48 0.04 1 0.04 1.5 0 2.16-0.22 4.34-0.66 6.56-3.26 16.12-17.92 27.82-34.86 27.82h-156.78c-4.4-0.2-46.3-1.1-81.12 29a9.984 9.984 0 0 0-1.02 14.1 9.994 9.994 0 0 0 14.1 1.02c29.72-25.68 66.9-24.16 67.26-24.14 0.18 0 0.36 0.02 0.54 0.02h157.02c26.44 0 49.34-18.44 54.48-43.9 0.38-1.98 0.66-3.9 0.82-5.82l183.74-75.82c0.06-0.02 0.12-0.06 0.2-0.08 17.18-7.54 39.82-2.3 49.44 11.46 4.04 5.76 5.48 12.88 4.06 20.06z" fill="#F8D3C9" p-id="44814"></path><path d="M963.08 668.88c-1.64 8.4-7.04 16.08-14.88 21.12L611.56 910.98c-17.6 11.32-49.78 17.12-70.12 12.68l-297.86-69.1v-39.28l297.86 69.1c20.34 4.44 52.52-1.36 70.12-12.68L948.2 650.72c2.72-1.74 5.14-3.8 7.2-6.1 1.34 1.28 2.56 2.68 3.62 4.2 4.04 5.76 5.48 12.88 4.06 20.06z" opacity=".2" p-id="44815"></path><path d="M705.86 708.584c0 2.16-0.22 4.34-0.66 6.56a33.6 33.6 0 0 1-5.74 13.06c-6.4-8.94-17.08-14.72-29.12-14.72h-157.02c-26.06 0-67.18-7.34-91.68-16.34-0.08-0.04-0.18-0.06-0.26-0.1l-0.9-0.36c-25.72-9.42-65.86-15.06-107.42-15.06h-69.48v-39.28h69.48c41.56 0 81.7 5.64 107.42 15.06l0.9 0.36c0.08 0.04 0.18 0.06 0.26 0.1 24.5 9 65.62 16.34 91.68 16.34h157.02c19 0 34.58 14.38 35.48 32.88 0.02 0.48 0.04 1 0.04 1.5z" fill="#FFFFFF" opacity=".5" p-id="44816"></path><path d="M887.1 214.44l-53.54-67.28 44.12-75a10 10 0 0 0-8.62-15.06H577.62c-0.1 0-0.18 0.02-0.26 0.02-0.4 0.02-0.78 0.06-1.16 0.12-0.28 0.04-0.56 0.08-0.84 0.14-0.34 0.08-0.64 0.18-0.98 0.3-0.28 0.1-0.58 0.18-0.86 0.32-0.3 0.12-0.58 0.3-0.86 0.46-0.28 0.16-0.56 0.3-0.8 0.48-0.28 0.2-0.5 0.4-0.76 0.62-0.24 0.22-0.5 0.42-0.72 0.66-0.2 0.22-0.38 0.44-0.56 0.68-0.24 0.3-0.46 0.58-0.66 0.9-0.06 0.08-0.12 0.14-0.16 0.22l-40.16 68.26-42.12-53.96c-0.08-0.12-0.2-0.2-0.28-0.3-0.1-0.1-0.16-0.22-0.24-0.32-0.14-0.14-0.3-0.26-0.46-0.4a8.042 8.042 0 0 0-1.56-1.24c-0.28-0.18-0.56-0.34-0.86-0.5-0.28-0.14-0.58-0.26-0.88-0.38-0.3-0.12-0.6-0.22-0.9-0.3-0.32-0.1-0.62-0.16-0.94-0.22-0.32-0.06-0.62-0.1-0.94-0.12-0.32-0.04-0.64-0.04-0.96-0.04-0.32 0-0.64 0.02-0.96 0.06-0.32 0.04-0.64 0.08-0.96 0.16-0.3 0.06-0.6 0.14-0.92 0.22-0.32 0.1-0.62 0.22-0.94 0.36-0.28 0.12-0.56 0.26-0.86 0.4-0.3 0.18-0.58 0.36-0.88 0.56-0.16 0.12-0.34 0.2-0.5 0.32-0.1 0.08-0.18 0.2-0.3 0.28-0.1 0.08-0.22 0.14-0.32 0.24l-150.92 138.62a9.984 9.984 0 0 0-1.12 13.5l52.82 67.7-42.92 75.1c-1.76 3.08-1.74 6.9 0.04 9.98a10.02 10.02 0 0 0 8.66 4.98h36.24v199.64c0 5.52 4.48 10 10 10h290.56c0.66 0 1.32-0.08 1.98-0.2 0.18-0.04 0.34-0.1 0.5-0.16 0.48-0.12 0.94-0.24 1.38-0.42 0.16-0.06 0.28-0.16 0.44-0.24 0.44-0.2 0.88-0.42 1.28-0.68l0.06-0.06c0.5-0.34 1-0.72 1.44-1.18l146.02-146.02c0.46-0.46 0.88-0.98 1.26-1.52 0.16-0.24 0.26-0.5 0.4-0.76 0.18-0.32 0.38-0.62 0.52-0.96 0.12-0.34 0.2-0.68 0.3-1.02 0.08-0.28 0.2-0.56 0.26-0.84 0.12-0.66 0.2-1.32 0.2-1.96v-155.98l54.88-54.88c3.6-3.6 3.92-9.32 0.76-13.3zM583.34 77.1h268.24l-35.84 60.92H547.5l35.84-60.92zM341.46 222.2l136.16-125.04 39.08 50.06-130.94 131.74-44.3-56.76zM520 172.26v111.78h-111.1L520 172.26z m-135.14 192.7c-0.02 0-0.04 0.02-0.08 0.02h-28.94l34.82-60.94H658.2l-34.82 60.94H384.92c-0.02 0-0.04-0.02-0.06-0.02z m189.7 209.66h-89.12V521.6l39 25.9s0.02 0.02 0.04 0.02l0.12 0.08 0.18 0.12c0.32 0.18 0.64 0.36 0.96 0.52 0.16 0.08 0.3 0.14 0.46 0.22l0.78 0.3c0.18 0.06 0.36 0.1 0.54 0.16 0.26 0.06 0.52 0.12 0.8 0.18 0.16 0.02 0.34 0.06 0.5 0.08 0.4 0.06 0.8 0.08 1.2 0.08 0.04 0.02 0.06 0.02 0.1 0.02H530.24c0.4-0.02 0.8-0.04 1.2-0.1 0.18-0.02 0.34-0.06 0.5-0.08 0.28-0.06 0.56-0.12 0.82-0.18 0.18-0.06 0.34-0.12 0.52-0.16 0.28-0.1 0.54-0.2 0.82-0.32 0.14-0.06 0.28-0.12 0.42-0.2 0.34-0.16 0.68-0.34 1-0.56 0.04-0.02 0.1-0.06 0.16-0.08l0.12-0.08c0.02-0.02 0.04-0.02 0.04-0.04l38.72-25.84v52.98z m90.86 0h-70.86V503v-0.06c0-0.14-0.04-0.28-0.04-0.44-0.02-0.5-0.06-1-0.16-1.5-0.06-0.34-0.18-0.68-0.28-1-0.1-0.3-0.16-0.58-0.28-0.88-0.22-0.52-0.5-1.02-0.8-1.5-0.04-0.06-0.06-0.16-0.12-0.22v-0.02c-0.38-0.54-0.8-1.06-1.26-1.52-0.24-0.24-0.5-0.42-0.76-0.62-0.24-0.2-0.48-0.42-0.74-0.6-0.3-0.2-0.6-0.34-0.92-0.5-0.26-0.14-0.52-0.32-0.8-0.42-0.34-0.16-0.7-0.24-1.06-0.34-0.26-0.08-0.52-0.18-0.8-0.24-0.64-0.12-1.3-0.2-1.96-0.2h-0.02c-0.12 0-0.24 0.04-0.36 0.04-0.52 0.02-1.06 0.06-1.58 0.16-0.34 0.06-0.64 0.18-0.96 0.28-0.3 0.1-0.62 0.16-0.92 0.28-0.48 0.2-0.94 0.46-1.38 0.74-0.12 0.06-0.24 0.1-0.34 0.18l-0.04 0.02v0.02l-48.86 32.6-49.08-32.6-0.02-0.02-0.04-0.02c-0.12-0.08-0.26-0.14-0.4-0.22-0.42-0.26-0.86-0.5-1.32-0.7-0.3-0.12-0.62-0.2-0.92-0.28-0.32-0.1-0.64-0.22-0.96-0.28-0.48-0.1-0.98-0.12-1.46-0.14-0.16-0.02-0.32-0.06-0.48-0.06h-0.02c-0.66 0-1.32 0.08-1.96 0.2-0.3 0.06-0.58 0.18-0.88 0.26-0.34 0.1-0.66 0.18-0.98 0.32-0.3 0.12-0.58 0.3-0.86 0.46-0.28 0.14-0.58 0.28-0.86 0.46s-0.54 0.42-0.8 0.66c-0.24 0.18-0.48 0.36-0.7 0.56-0.46 0.46-0.88 0.98-1.24 1.52l-0.02 0.02c-0.08 0.14-0.14 0.28-0.22 0.4-0.26 0.42-0.5 0.86-0.7 1.34-0.12 0.3-0.2 0.6-0.28 0.92-0.1 0.32-0.22 0.62-0.28 0.94-0.1 0.5-0.12 0.98-0.14 1.48-0.02 0.16-0.06 0.3-0.06 0.46v71.68h-70.58v-189.64h234.32c3.6 0 6.9-1.92 8.68-5.04l27.56-48.22v242.9z m5.86-290.58H540V158.02h257.3l-126.02 126.02z m140.18 150.42l-126.04 126.04V320.98l40.74 51.2c1.78 2.22 4.42 3.6 7.26 3.76h0.58c2.64 0 5.18-1.04 7.06-2.92l70.4-70.4v131.84z m-76.62-83.5l-45.28-56.9 131.04-131.04 45.28 56.88-131.04 131.06z" fill="#23130D" p-id="44817"></path><path d="M865.88 219.9l-131.04 131.06-45.28-56.9 131.04-131.04z" fill="#E1E1E5" p-id="44818"></path><path d="M709.14 294.06l36.6 46-10.9 10.9-45.28-56.9 131.04-131.04 8.68 10.9z" fill="#FFFFFF" opacity=".7" p-id="44819"></path><path d="M851.58 77.1l-35.84 60.92H547.5l35.84-60.92h268.24z" fill="#E1E1E5" p-id="44820"></path><path d="M823.68 124.52l-7.94 13.5H547.5l35.84-60.92h16.06l-27.9 47.42h252.18z" fill="#FFFFFF" opacity=".7" p-id="44821"></path><path d="M516.7 147.22l-130.94 131.74-44.3-56.76 136.16-125.04z" fill="#E1E1E5" p-id="44822"></path><path d="M516.7 147.22l-130.94 131.74-44.3-56.76 10.62-9.76 36.72 47.02L509.5 138z" fill="#FFFFFF" opacity=".7" p-id="44823"></path><path d="M520 172.26v111.78h-111.1zM797.3 158.02l-126.02 126.02H540V158.02z" fill="#9B9B9B" p-id="44824"></path><path d="M520 253.54v30.5h-111.1l30.32-30.5zM797.3 158.02l-126.02 126.02H540v-30.5h131.28l95.52-95.52z" opacity=".2" p-id="44825"></path><path d="M658.2 304.04l-34.82 60.94H384.92c-0.02 0-0.04-0.02-0.06-0.02s-0.04 0.02-0.08 0.02h-28.94l34.82-60.94H658.2z" fill="#E1E1E5" p-id="44826"></path><path d="M658.2 304.04l-34.82 60.94h-16.52l25.42-44.5h-128.18-0.02-122.82l9.4-16.44H658.2z" fill="#FFFFFF" opacity=".7" p-id="44827"></path><path d="M811.46 302.62v131.84l-4.46 4.46-8.06 8.06-7.9 7.9-8.06 8.06-7.88 7.88-8.08 8.08-7.88 7.88-8.06 8.06-7.88 7.88-8.08 8.08-7.28 7.28-8.06 8.06-7.9 7.9-8.06 8.06-7.88 7.88-8.06 8.06-2.46 2.46V320.98l2.46 3.1 8.06 10.12 7.88 9.9 8.06 10.14 7.9 9.92 6.38 8.02c0.5 0.62 1.06 1.18 1.68 1.64 1.58 1.26 3.54 2 5.58 2.12h0.58a9.976 9.976 0 0 0 7.06-2.92l2.14-2.14 15.94-15.94 7.88-7.88 8.08-8.08 7.88-7.88 8.06-8.06 7.9-7.9 12.52-12.52z" fill="#636368" p-id="44828"></path><path d="M574.56 521.64v52.98h-89.12V521.6l39 25.9s0.02 0.02 0.04 0.02l0.12 0.08 0.18 0.12c0.32 0.18 0.64 0.36 0.96 0.52 0.16 0.08 0.3 0.14 0.46 0.22l0.78 0.3c0.18 0.06 0.36 0.1 0.54 0.16 0.26 0.06 0.52 0.12 0.8 0.18 0.16 0.02 0.34 0.06 0.5 0.08 0.4 0.06 0.8 0.08 1.2 0.08 0.04 0.02 0.06 0.02 0.1 0.02H530.24c0.4-0.02 0.8-0.04 1.2-0.1 0.18-0.02 0.34-0.06 0.5-0.08 0.28-0.06 0.56-0.12 0.82-0.18 0.18-0.06 0.34-0.12 0.52-0.16 0.28-0.1 0.54-0.2 0.82-0.32 0.14-0.06 0.28-0.12 0.42-0.2 0.34-0.16 0.68-0.34 1-0.56 0.04-0.02 0.1-0.06 0.16-0.08l0.12-0.08c0.02-0.02 0.04-0.02 0.04-0.04l38.72-25.84z" fill="#EC7063" p-id="44829"></path><path d="M574.56 521.64v12.4l-38.72 25.82c0 0.04-0.02 0.04-0.04 0.06l-0.12 0.06c-0.06 0.04-0.12 0.08-0.16 0.1-0.32 0.22-0.66 0.38-1 0.56-0.14 0.06-0.28 0.14-0.42 0.18-0.28 0.14-0.54 0.24-0.82 0.34-0.18 0.04-0.34 0.08-0.52 0.16-0.26 0.04-0.54 0.12-0.82 0.16-0.16 0.04-0.32 0.08-0.5 0.1-0.4 0.06-0.8 0.08-1.2 0.1H530.12c-0.04 0-0.06 0-0.1-0.02-0.4 0-0.8-0.02-1.2-0.08-0.16-0.02-0.34-0.06-0.5-0.1-0.28-0.04-0.54-0.12-0.8-0.16-0.18-0.08-0.36-0.12-0.54-0.16-0.26-0.1-0.52-0.2-0.78-0.32-0.16-0.06-0.3-0.14-0.46-0.2-0.32-0.18-0.64-0.34-0.96-0.54a0.472 0.472 0 0 1-0.18-0.12l-0.12-0.06c-0.02 0-0.04-0.02-0.04-0.02l-39-25.92v-12.38l39 25.9s0.02 0.02 0.04 0.02l0.12 0.08 0.18 0.12c0.32 0.18 0.64 0.36 0.96 0.52 0.16 0.08 0.3 0.14 0.46 0.22l0.78 0.3c0.18 0.06 0.36 0.1 0.54 0.16 0.26 0.06 0.52 0.12 0.8 0.18 0.16 0.02 0.34 0.06 0.5 0.08 0.4 0.06 0.8 0.08 1.2 0.08 0.04 0.02 0.06 0.02 0.1 0.02H530.24c0.4-0.02 0.8-0.04 1.2-0.1 0.18-0.02 0.34-0.06 0.5-0.08 0.28-0.06 0.56-0.12 0.82-0.18 0.18-0.06 0.34-0.12 0.52-0.16 0.28-0.1 0.54-0.2 0.82-0.32 0.14-0.06 0.28-0.12 0.42-0.2 0.34-0.16 0.68-0.34 1-0.56 0.04-0.02 0.1-0.06 0.16-0.08l0.12-0.08c0.02-0.02 0.04-0.02 0.04-0.04l38.72-25.84z" fill="#FFFFFF" opacity=".4" p-id="44830"></path><path d="M665.42 331.72v242.9h-70.86V503v-0.06c0-0.14-0.04-0.28-0.04-0.44-0.02-0.5-0.06-1-0.16-1.5-0.06-0.34-0.18-0.68-0.28-1-0.1-0.3-0.16-0.58-0.28-0.88-0.22-0.52-0.5-1.02-0.8-1.5-0.04-0.06-0.06-0.16-0.12-0.22v-0.02a1.11 1.11 0 0 0-0.12-0.16c-0.34-0.48-0.72-0.94-1.14-1.36-0.24-0.24-0.5-0.42-0.76-0.62-0.24-0.2-0.48-0.42-0.74-0.6-0.3-0.2-0.6-0.34-0.92-0.5-0.26-0.14-0.52-0.32-0.8-0.42-0.34-0.16-0.7-0.24-1.06-0.34-0.26-0.08-0.52-0.18-0.8-0.24-0.54-0.1-1.1-0.18-1.66-0.18-0.1-0.02-0.2-0.02-0.3-0.02h-0.02c-0.12 0-0.24 0.04-0.36 0.04-0.52 0.02-1.06 0.06-1.58 0.16-0.34 0.06-0.64 0.18-0.96 0.28-0.3 0.1-0.62 0.16-0.92 0.28-0.48 0.2-0.94 0.46-1.38 0.74-0.12 0.06-0.24 0.1-0.34 0.18l-0.04 0.02v0.02l-2.16 1.44-7.9 5.28-8.06 5.36-7.88 5.26-8.06 5.38-7.9 5.28-6.9 4.6-1.16-0.78-7.88-5.22-8.06-5.36-7.9-5.24-8.06-5.36-7.88-5.24-8.08-5.36-0.06-0.04-0.02-0.02-0.04-0.02c-0.12-0.08-0.26-0.14-0.4-0.22-0.42-0.26-0.86-0.5-1.32-0.7-0.3-0.12-0.62-0.2-0.92-0.28-0.32-0.1-0.64-0.22-0.96-0.28-0.48-0.1-0.98-0.12-1.46-0.14-0.16-0.02-0.32-0.06-0.48-0.06h-0.02c-0.54 0-1.08 0.06-1.6 0.14l-0.36 0.06c-0.3 0.06-0.58 0.18-0.88 0.26-0.34 0.1-0.66 0.18-0.98 0.32-0.3 0.12-0.58 0.3-0.86 0.46-0.28 0.14-0.58 0.28-0.86 0.46s-0.54 0.42-0.8 0.66c-0.24 0.18-0.48 0.36-0.7 0.56-0.46 0.46-0.88 0.98-1.24 1.52l-0.02 0.02c-0.08 0.14-0.14 0.28-0.22 0.4-0.26 0.42-0.5 0.86-0.7 1.34-0.12 0.3-0.2 0.6-0.28 0.92-0.04 0.16-0.1 0.32-0.16 0.46l-0.12 0.48c-0.1 0.5-0.12 0.98-0.14 1.48-0.02 0.16-0.06 0.3-0.06 0.46v71.68h-70.58v-189.64h234.32c1.02 0 2.02-0.16 2.96-0.44 2.4-0.74 4.44-2.36 5.72-4.6l2.16-3.78 8.06-14.1 7.9-13.82 8.06-14.1 1.38-2.42z" fill="#939393" p-id="44831"></path><path d="M401.96 384.98h8.06v189.64h-8.06zM417.9 384.98h8.06v189.64h-8.06zM433.86 384.98h8.06v189.64h-8.06zM449.8 384.98h8.06v189.64h-8.06zM473.82 384.98v108.1l-0.36 0.06c-0.3 0.06-0.58 0.18-0.88 0.26-0.34 0.1-0.66 0.18-0.98 0.32-0.3 0.12-0.58 0.3-0.86 0.46-0.28 0.14-0.58 0.28-0.86 0.46s-0.54 0.42-0.8 0.66c-0.24 0.18-0.48 0.36-0.7 0.56-0.46 0.46-0.88 0.98-1.24 1.52l-0.02 0.02c-0.08 0.14-0.14 0.28-0.22 0.4-0.26 0.42-0.5 0.86-0.7 1.34-0.12 0.3-0.2 0.6-0.28 0.92-0.04 0.16-0.1 0.32-0.16 0.46v-115.54h8.06z" opacity=".1" p-id="44832"></path><path d="M489.18 384.98v115.08l-8.08-5.36v-109.72zM505.12 384.98v125.68l-8.06-5.36v-120.32zM521.08 384.98v136.28l-8.06-5.36v-130.92zM537.02 384.98v137.68l-6.9 4.6-1.16-0.78v-141.5zM552.98 384.98V512l-8.06 5.38v-132.4zM568.92 384.98v116.4l-8.06 5.36v-121.76zM584.88 384.98v107.98c-0.1-0.02-0.2-0.02-0.3-0.02h-0.02c-0.12 0-0.24 0.04-0.36 0.04-0.52 0.02-1.06 0.06-1.58 0.16-0.34 0.06-0.64 0.18-0.96 0.28-0.3 0.1-0.62 0.16-0.92 0.28-0.48 0.2-0.94 0.46-1.38 0.74-0.12 0.06-0.24 0.1-0.34 0.18l-0.04 0.02v0.02l-2.16 1.44v-111.12h8.06zM600.82 384.98v189.64h-6.26V503v-0.06c0-0.14-0.04-0.28-0.04-0.44-0.02-0.5-0.06-1-0.16-1.5-0.06-0.34-0.18-0.68-0.28-1-0.1-0.3-0.16-0.58-0.28-0.88-0.22-0.52-0.5-1.02-0.8-1.5-0.04-0.06-0.06-0.16-0.12-0.22v-0.02a1.11 1.11 0 0 0-0.12-0.16v-112.24h8.06z" opacity=".1" p-id="44833"></path><path d="M608.12 384.98h8.06v189.64h-8.06zM632.14 384.54v190.08h-8.08v-189.64h5.12c1.02 0 2.02-0.16 2.96-0.44zM648.08 362.06v212.56h-8.06v-198.46zM664.04 334.14v240.48h-8.06V348.24zM695.94 334.2v215.78l-8.06 8.06V324.08zM711.88 354.24v179.8l-8.06 8.06v-198zM727.84 373.82v144.26l-8.06 8.06v-161.98l6.38 8.02c0.5 0.62 1.06 1.18 1.68 1.64z" opacity=".1" p-id="44834"></path><path d="M743.2 370.88v131.84l-8.08 8.08v-134.92c2.24-0.26 4.32-1.24 5.94-2.86l2.14-2.14zM759.14 354.94v131.84l-8.06 8.06V363zM775.1 338.98v131.84l-8.08 8.08v-131.84zM791.04 323.04v131.84l-8.06 8.06v-131.84zM807 307.08v131.84l-8.06 8.06v-131.84z" opacity=".1" p-id="44835"></path></svg>