<?xml version="1.0" standalone="no"?><!DOCTYPE svg PUBLIC "-//W3C//DTD SVG 1.1//EN" "http://www.w3.org/Graphics/SVG/1.1/DTD/svg11.dtd"><svg t="1625811954202" class="icon" viewBox="0 0 1024 1024" version="1.1" xmlns="http://www.w3.org/2000/svg" p-id="45943" xmlns:xlink="http://www.w3.org/1999/xlink" width="200" height="200"><defs><style type="text/css"></style></defs><path d="M955.3 691.4c-8.4-4.58-18.04-7.18-28.26-7.18h-39.36v-109c0-0.02 0.02-0.06 0.02-0.1 0-22.7-12.12-42.62-30.24-53.62a62.33 62.33 0 0 0-32.52-9.1h-124.4v-64.8h70.56c0.1 0 0.2-0.02 0.32-0.02 70.7-0.2 128.18-57.76 128.18-128.52 0-70.86-57.66-128.52-128.52-128.52-8.68 0-17.32 0.88-25.76 2.6-22.86-89.3-104.24-153.08-197.36-153.08-70.3 0-135.86 36.6-172.94 96a158.252 158.252 0 0 0-36.56-4.28c-61.74 0-115.28 35.64-141.22 87.42H127.82c-5.52 0-10 4.48-10 10s4.48 10 10 10h61.08a157.732 157.732 0 0 0-8.32 49.88h-72c-5.52 0-10 4.48-10 10s4.48 10 10 10h73.2c6.28 50.98 36.94 94.5 79.94 118.52H79.74c-5.52 0-10 4.48-10 10v475.6c0 5.52 4.48 10 10 10h146.3c4.86 34.28 34.4 60.74 70.02 60.74 35.6 0 65.14-26.46 70.02-60.74h348.02c4.88 34.28 34.4 60.74 70.02 60.74 35.6 0 65.14-26.46 70.02-60.74h122.24c5.52 0 10-4.48 10-10v-47.08-122.54-0.02c0-22.48-12.58-42.1-31.08-52.16z m-130.36-159c8.84 0 17.06 2.7 23.88 7.3 11.38 7.68 18.86 20.7 18.86 35.42v109.12h-167.14V532.4h124.4zM201.96 309.08h44.78c5.52 0 10-4.48 10-10s-4.48-10-10-10h-46.16c0.08-17.6 3.5-34.42 9.6-49.88h99.76c5.52 0 10-4.48 10-10s-4.48-10-10-10h-89.92c24.08-40.34 68.16-67.42 118.44-67.42 8.94 0 17.78 0.88 26.4 2.54-13.56 27.72-20.66 58.4-20.66 89.5 0 20.32 2.98 40.4 8.88 59.68a10.02 10.02 0 0 0 9.56 7.08 10.014 10.014 0 0 0 9.56-12.94c-5.32-17.38-8-35.48-8-53.82 0-32.06 8.36-63.6 24.22-91.22 32.7-57.08 93.82-92.54 159.54-92.54 84.18 0 157.72 57.78 178.14 138.6-49.62 18.56-83.54 66.78-83.54 120.4 0 2.44 0.08 4.8 0.2 7.02 0.32 5.52 5.1 9.74 10.56 9.42a9.986 9.986 0 0 0 9.4-10.56c-0.1-1.84-0.16-3.82-0.16-5.88 0-47.96 32.12-90.8 78.12-104.2a108.844 108.844 0 0 1 30.4-4.32c59.84 0 108.52 48.68 108.52 108.52 0 59.84-48.68 108.52-108.52 108.52-0.08 0-0.16 0.02-0.24 0.02H338.7c-0.08 0-0.16-0.02-0.24-0.02-69.44 0-127.04-51.62-136.5-118.5zM154.84 903.2H89.74v-27.12h65.1v27.12z m71.2 0h-51.2v-27.14h61.04a70.374 70.374 0 0 0-9.84 27.14z m70.02 60.74c-27.98 0-50.74-22.76-50.74-50.74s22.76-50.74 50.74-50.74 50.74 22.76 50.74 50.74-22.76 50.74-50.74 50.74z m41.64-107.88c-11.7-8.54-26.1-13.6-41.64-13.6-15.56 0-29.96 5.06-41.66 13.6H164.84c-0.04 0-0.06 0.02-0.08 0.02H89.74V447.6h236.36c0.86 0 1.7-0.14 2.52-0.36 3.14 0.2 6.32 0.32 9.5 0.34 0.12 0 0.22 0.02 0.32 0.02h342.1V856.06H337.7z m376.4 47.14H366.08c-1.4-9.84-4.84-19.02-9.86-27.14h367.72a70.374 70.374 0 0 0-9.84 27.14z m120.76 10v0.02c-0.02 27.98-22.78 50.72-50.74 50.72-27.98 0-50.74-22.76-50.74-50.74s22.76-50.74 50.74-50.74c27.96 0 50.72 22.74 50.74 50.7v0.04z m-9.1-57.14a70.336 70.336 0 0 0-41.64-13.6c-15.56 0-29.96 5.06-41.64 13.6h-41.94v-151.82h167.14v151.82h-41.92z m140.62 47.14h-112.24c-1.4-9.84-4.82-19.02-9.84-27.14h33.32c0.02 0 0.04 0.02 0.06 0.02h88.7v27.12z m0-47.14h-78.7v-151.84H927.04c5.42 0 10.58 1.12 15.3 3.1 14.12 5.98 24.04 19.98 24.04 36.24v112.5z" fill="#23130D" p-id="45944"></path><path d="M235.88 876.06a70.374 70.374 0 0 0-9.84 27.14h-51.2v-27.14h61.04z" fill="#636368" p-id="45945"></path><path d="M89.74 876.08h65.1v27.12H89.74z" fill="#EC7063" p-id="45946"></path><path d="M89.74 876.08h21.85v27.12H89.74z" fill="#FFFFFF" opacity=".7" p-id="45947"></path><path d="M966.38 876.08v27.12h-112.24c-1.4-9.84-4.82-19.02-9.84-27.14h33.32c0.02 0 0.04 0.02 0.06 0.02h88.7z" fill="#636368" p-id="45948"></path><path d="M346.8 913.2c0 27.98-22.76 50.74-50.74 50.74s-50.74-22.76-50.74-50.74 22.76-50.74 50.74-50.74 50.74 22.76 50.74 50.74z" fill="#E1E1E5" p-id="45949"></path><path d="M329.07 913.2c0 18.202-14.806 33.01-33.01 33.01-18.202 0-33.01-14.806-33.01-33.01 0-18.202 14.806-33.01 33.01-33.01 18.202 0 33.01 14.808 33.01 33.01zM723.94 876.06a70.374 70.374 0 0 0-9.84 27.14H366.08c-1.4-9.84-4.84-19.02-9.86-27.14h367.72z" fill="#636368" p-id="45950"></path><path d="M834.86 913.16v0.06c-0.02 27.98-22.78 50.72-50.74 50.72-27.98 0-50.74-22.76-50.74-50.74s22.76-50.74 50.74-50.74c27.96 0 50.72 22.74 50.74 50.7z" fill="#E1E1E5" p-id="45951"></path><path d="M966.38 743.56v112.5h-78.7v-151.84H927.04c5.42 0 10.58 1.12 15.3 3.1 14.12 5.98 24.04 19.98 24.04 36.24z" fill="#636368" p-id="45952"></path><path d="M927.04 714.22c3.914 0 7.76 0.782 11.4 2.308a29.32 29.32 0 0 1 17.94 27.032v102.5h-58.7v-131.84h29.36m0-10H887.68v151.84h78.7v-112.5c0-16.26-9.92-30.26-24.04-36.24-4.72-1.98-9.88-3.1-15.3-3.1z" fill="#050505" opacity=".2" p-id="45953"></path><path d="M700.54 704.24v151.82h41.94c11.68-8.54 26.08-13.6 41.64-13.6 15.56 0 29.96 5.06 41.64 13.6h41.92v-151.82h-167.14z m71.68 43.2h-40.84c-5.52 0-10-4.48-10-10s4.48-10 10-10h40.84c5.52 0 10 4.48 10 10s-4.48 10-10 10z" fill="#636368" p-id="45954"></path><path d="M857.68 714.24v131.82h-28.77c-13.29-8.908-28.704-13.6-44.79-13.6s-31.5 4.692-44.79 13.6H710.54v-131.82h147.14m-126.3 43.2h40.84c11.028 0 20-8.972 20-20s-8.972-20-20-20h-40.84c-11.028 0-20 8.972-20 20s8.972 20 20 20m136.3-53.2h-167.14v151.82h41.94c11.68-8.54 26.08-13.6 41.64-13.6 15.56 0 29.96 5.06 41.64 13.6h41.92v-151.82z m-136.3 43.2c-5.52 0-10-4.48-10-10s4.48-10 10-10h40.84c5.52 0 10 4.48 10 10s-4.48 10-10 10h-40.84z" opacity=".2" p-id="45955"></path><path d="M867.68 575.12v109.12h-167.14V532.4h124.4c8.84 0 17.06 2.7 23.88 7.3 11.38 7.68 18.86 20.7 18.86 35.42z" fill="#3594BF" p-id="45956"></path><path d="M824.94 544.4c6.142 0 12.08 1.814 17.168 5.246a30.71 30.71 0 0 1 13.572 25.474v97.12h-143.14V544.4h112.4m0-12h-124.4v151.84h167.14v-109.12c0-14.72-7.48-27.74-18.86-35.42a42.58 42.58 0 0 0-23.88-7.3z" opacity=".2" p-id="45957"></path><path d="M271.52 517.34v49.88h44.92c0.32 0 0.62 0.02 0.92 0.06v-49.94h-45.84z m0 69.88v49.88h15.16v-49.88h-15.16z m-61.32 69.88v49.88h15.16v-49.88h-15.16z m-29.52-69.88v49.88h106v-49.88h-106z m0 69.88v49.88h75.34v-49.88H180.68z m116.52 0h-41.18v49.88h46.18v-51.22c-1.46 0.86-3.18 1.34-5 1.34z m-116.52 69.88v49.88h60.18v-49.88H180.68z m-61.34-69.88v120.26c0.98-0.32 2.04-0.5 3.12-0.5h58.22v-49.88h-2.4c-5.52 0-10-4.48-10-10s4.48-10 10-10h77.74v-49.88H119.34z m152.18-139.76v49.88h44.92c0.32 0 0.62 0.02 0.92 0.06v-49.94h-45.84z m-90.84 69.88v49.88h106v-49.88h-106z m116.52 69.88h-71.84v49.88h76.84v-51.22c-1.46 0.86-3.18 1.34-5 1.34z m-116.52 69.88v49.88h60.18v-49.88H180.68z m-61.34-69.88v120.26c0.98-0.32 2.04-0.5 3.12-0.5h58.22v-49.88h-2.4c-5.52 0-10-4.48-10-10s4.48-10 10-10h47.08v-49.88H119.34z m152.18-139.76v49.88h44.92c0.32 0 0.62 0.02 0.92 0.06v-49.94h-45.84z m-90.84 69.88v49.88h106v-49.88h-106z m116.52 69.88h-71.84v49.88h76.84v-51.22c-1.46 0.86-3.18 1.34-5 1.34z m-71.84 0v49.88h30.66v-49.88h-30.66z m-44.68 69.88v49.88h66.42c3.9 0 7.26 2.22 8.92 5.48v-55.36H180.68z m-61.34-69.88v120.26c0.98-0.32 2.04-0.5 3.12-0.5h58.22v-49.88h-2.4c-5.52 0-10-4.48-10-10s4.48-10 10-10h47.08v-49.88H119.34z m152.18-139.76v49.88h44.92c0.32 0 0.62 0.02 0.92 0.06v-49.94h-45.84z m-90.84 69.88v49.88h106v-49.88h-106z m135.76 0h-29.76v49.88h10.52c1.82 0 3.54 0.48 5 1.34 3 1.74 5 4.96 5 8.66s-2 6.92-5 8.66c-1.46 0.86-3.18 1.34-5 1.34H180.68v49.88h135.76c0.32 0 0.62 0.02 0.92 0.06v-119.88c-0.3 0.04-0.6 0.06-0.92 0.06z m-135.76 139.76v49.88h66.42c3.9 0 7.26 2.22 8.92 5.48v-55.36H180.68z m-2.4-20h2.4v-49.88H119.34v120.26c0.98-0.32 2.04-0.5 3.12-0.5h58.22v-49.88h-2.4c-5.52 0-10-4.48-10-10s4.48-10 10-10z m93.24-189.64v49.88h44.92c0.32 0 0.62 0.02 0.92 0.06v-49.94h-45.84z m44.92 69.88H180.68v49.88h116.52c1.82 0 3.54 0.48 5 1.34 3 1.74 5 4.96 5 8.66s-2 6.92-5 8.66c-1.46 0.86-3.18 1.34-5 1.34h-10.52v49.88h29.76c0.32 0 0.62 0.02 0.92 0.06v-119.88c-0.3 0.04-0.6 0.06-0.92 0.06z m-135.76 139.76v49.88h66.42c3.9 0 7.26 2.22 8.92 5.48v-55.36H180.68z m-61.34-69.88v120.26c0.98-0.32 2.04-0.5 3.12-0.5h58.22v-49.88h-2.4c-5.52 0-10-4.48-10-10s4.48-10 10-10h108.4v-49.88H119.34zM338.44 447.6c-0.1 0-0.2-0.02-0.32-0.02-1.76-0.02-3.52-0.06-5.26-0.12a286 286 0 0 1-4.24-0.22c-0.82 0.22-1.66 0.36-2.52 0.36H89.74v408.48h75.02c0.02 0 0.04-0.02 0.08-0.02h89.56c0.54-0.38 1.08-0.78 1.62-1.14 4.76-3.28 9.98-6 15.5-8.06 4.82-1.8 9.9-3.08 15.16-3.78 3.06-0.4 6.2-0.62 9.38-0.62 2.06 0 4.12 0.08 6.14 0.28 5.24 0.44 10.32 1.46 15.16 3.02 5.48 1.72 10.68 4.12 15.5 7.08 1.66 1 3.28 2.08 4.84 3.22h342.84v-161.8-0.02-171.8-0.04V447.6H338.44zM105.08 647.1c0-5.52 4.48-10 10-10h182.12c1.82 0 3.54 0.48 5 1.34 3 1.74 5 4.96 5 8.66s-2 6.92-5 8.66c-1.46 0.86-3.18 1.34-5 1.34H115.08c-5.52 0-10-4.48-10-10z m150.94 144.28a9.964 9.964 0 0 1-8.92 5.48H122.46c-1.08 0-2.14-0.18-3.12-0.5-4-1.3-6.88-5.06-6.88-9.5s2.88-8.2 6.88-9.5c0.98-0.32 2.04-0.5 3.12-0.5h124.64c3.9 0 7.26 2.22 8.92 5.48 0.68 1.36 1.08 2.9 1.08 4.52 0 1.64-0.38 3.16-1.08 4.52z m61.34-64.46c-0.3 0.04-0.6 0.06-0.92 0.06H178.28c-5.52 0-10-4.48-10-10s4.48-10 10-10h138.16c0.32 0 0.62 0.02 0.92 0.06 5.1 0.44 9.08 4.74 9.08 9.94 0 5.2-3.98 9.5-9.08 9.94z m0-139.76c-0.3 0.04-0.6 0.06-0.92 0.06H178.28c-5.52 0-10-4.48-10-10s4.48-10 10-10h138.16c0.32 0 0.62 0.02 0.92 0.06 5.1 0.44 9.08 4.74 9.08 9.94 0 5.2-3.98 9.5-9.08 9.94z m61.32-69.92c-0.42 0.08-0.84 0.1-1.28 0.1h-124.62c-5.54 0-10-4.48-10-10s4.46-10 10-10h124.62c0.44 0 0.86 0.02 1.28 0.1a9.982 9.982 0 0 1 0 19.8z m-62.24 69.98h-44.92v49.88h25.68c1.82 0 3.54 0.48 5 1.34 3 1.74 5 4.96 5 8.66s-2 6.92-5 8.66c-1.46 0.86-3.18 1.34-5 1.34H119.34v120.26c0.98-0.32 2.04-0.5 3.12-0.5h58.22v-49.88h-2.4c-5.52 0-10-4.48-10-10s4.48-10 10-10h138.16c0.32 0 0.62 0.02 0.92 0.06v-119.88c-0.3 0.04-0.6 0.06-0.92 0.06z m-135.76 139.76v49.88h66.42c3.9 0 7.26 2.22 8.92 5.48v-55.36H180.68z m0-139.76v49.88h90.84v-49.88H180.68z m90.84-69.88v49.88h44.92c0.32 0 0.62 0.02 0.92 0.06v-49.94h-45.84z m-152.18 139.76v120.26c0.98-0.32 2.04-0.5 3.12-0.5h58.22v-49.88h-2.4c-5.52 0-10-4.48-10-10s4.48-10 10-10h47.08v-49.88H119.34z m61.34 69.88v49.88h66.42c3.9 0 7.26 2.22 8.92 5.48v-55.36H180.68z m116.52-69.88h-71.84v49.88h76.84v-51.22c-1.46 0.86-3.18 1.34-5 1.34z m-116.52-69.88v49.88h106v-49.88h-106z m90.84-69.88v49.88h44.92c0.32 0 0.62 0.02 0.92 0.06v-49.94h-45.84z m-152.18 139.76v120.26c0.98-0.32 2.04-0.5 3.12-0.5h58.22v-49.88h-2.4c-5.52 0-10-4.48-10-10s4.48-10 10-10h47.08v-49.88H119.34z m61.34 69.88v49.88h60.18v-49.88H180.68z m116.52-69.88h-71.84v49.88h76.84v-51.22c-1.46 0.86-3.18 1.34-5 1.34z m-116.52-69.88v49.88h106v-49.88h-106z m90.84-69.88v49.88h44.92c0.32 0 0.62 0.02 0.92 0.06v-49.94h-45.84z m-152.18 139.76v120.26c0.98-0.32 2.04-0.5 3.12-0.5h58.22v-49.88h-2.4c-5.52 0-10-4.48-10-10s4.48-10 10-10h47.08v-49.88H119.34z m61.34 69.88v49.88h60.18v-49.88H180.68z m116.52-69.88h-71.84v49.88h76.84v-51.22c-1.46 0.86-3.18 1.34-5 1.34z m-87 0v49.88h15.16v-49.88h-15.16z m-29.52-69.88v49.88h106v-49.88h-106z m90.84-69.88v49.88h44.92c0.32 0 0.62 0.02 0.92 0.06v-49.94h-45.84z" fill="#E1E1E5" p-id="45958"></path><path d="M338.44 447.6c-0.1 0-0.2-0.02-0.32-0.02-3.18-0.02-6.36-0.14-9.5-0.34-0.82 0.22-1.66 0.36-2.52 0.36H89.74v35.46h200.9c0.86 0 1.7-0.14 2.52-0.36 3.14 0.2 6.32 0.32 9.5 0.34 0.12 0 0.22 0.02 0.32 0.02h342.1v373h35.46v-161.8-0.02-171.8-0.04V447.6H338.44z" opacity=".2" p-id="45959"></path><path d="M879.6 319.06c0 59.84-48.68 108.52-108.52 108.52-0.08 0-0.16 0.02-0.24 0.02H338.7c-0.08 0-0.16-0.02-0.24-0.02-69.44 0-127.04-51.62-136.5-118.5h44.78c5.52 0 10-4.48 10-10s-4.48-10-10-10h-46.16c0.08-17.6 3.5-34.42 9.6-49.88h99.76c5.52 0 10-4.48 10-10s-4.48-10-10-10h-89.92c24.08-40.34 68.16-67.42 118.44-67.42 8.94 0 17.78 0.88 26.4 2.54-13.56 27.72-20.66 58.4-20.66 89.5 0 20.32 2.98 40.4 8.88 59.68a10.02 10.02 0 0 0 9.56 7.08 10.014 10.014 0 0 0 9.56-12.94c-5.32-17.38-8-35.48-8-53.82 0-32.06 8.36-63.6 24.22-91.22 32.7-57.08 93.82-92.54 159.54-92.54 84.18 0 157.72 57.78 178.14 138.6-49.62 18.56-83.54 66.78-83.54 120.4 0 2.44 0.08 4.8 0.2 7.02 0.32 5.52 5.1 9.74 10.56 9.42a9.986 9.986 0 0 0 9.4-10.56c-0.1-1.84-0.16-3.82-0.16-5.88 0-47.96 32.12-90.8 78.12-104.2a108.844 108.844 0 0 1 30.4-4.32c59.84 0 108.52 48.68 108.52 108.52z" fill="#8FDCFF" p-id="45960"></path><path d="M547.96 70.06c38.412 0 76.352 13.096 106.828 36.876 28.092 21.92 48.918 52.168 59.292 85.874-49.12 22.24-81.52 71.86-81.52 126.25 0 2.418 0.07 4.89 0.216 7.598 0.614 10.574 9.382 18.858 19.962 18.858a19.872 19.872 0 0 0 14.942-6.698 19.86 19.86 0 0 0 5.026-14.422 99.124 99.124 0 0 1-0.146-5.338c0-43.536 29.162-82.436 70.912-94.598a98.916 98.916 0 0 1 27.608-3.922c54.324 0 98.52 44.196 98.52 98.52s-44.196 98.52-98.52 98.52c-0.238 0-0.456 0.008-0.652 0.02H339.112a10.656 10.656 0 0 0-0.652-0.02 127.644 127.644 0 0 1-84.152-31.69c-20.162-17.67-34.21-41.074-40.298-66.81h32.728c11.028 0 20-8.972 20-20s-8.972-20-20-20h-35.722a126.814 126.814 0 0 1 6.156-29.88h92.766c11.028 0 20-8.972 20-20s-8.972-20-20-20H239.18a129.092 129.092 0 0 1 35.258-30.192 127.488 127.488 0 0 1 75.86-16.674 215.226 215.226 0 0 0-16.102 81.486c0 21.338 3.134 42.402 9.32 62.614a19.908 19.908 0 0 0 19.12 14.146c2.016 0 4-0.3 5.854-0.88 10.55-3.238 16.502-14.45 13.268-24.986-5.018-16.392-7.562-33.516-7.562-50.894 0-30.338 7.916-60.16 22.898-86.248C428.02 103.592 485.828 70.06 547.96 70.06m0-10c-65.72 0-126.84 35.46-159.54 92.54-15.86 27.62-24.22 59.16-24.22 91.22 0 18.34 2.68 36.44 8 53.82a10.014 10.014 0 0 1-9.56 12.94 10.02 10.02 0 0 1-9.56-7.08c-5.9-19.28-8.88-39.36-8.88-59.68 0-31.1 7.1-61.78 20.66-89.5-8.62-1.66-17.46-2.54-26.4-2.54-50.28 0-94.36 27.08-118.44 67.42h89.92c5.52 0 10 4.48 10 10s-4.48 10-10 10h-99.76a137.33 137.33 0 0 0-9.6 49.88h46.16c5.52 0 10 4.48 10 10s-4.48 10-10 10h-44.78c9.46 66.88 67.06 118.5 136.5 118.5 0.08 0 0.16 0.02 0.24 0.02h432.14c0.08 0 0.16-0.02 0.24-0.02 59.84 0 108.52-48.68 108.52-108.52 0-59.84-48.68-108.52-108.52-108.52-10.34 0-20.56 1.46-30.4 4.32-46 13.4-78.12 56.24-78.12 104.2 0 2.06 0.06 4.04 0.16 5.88a9.986 9.986 0 0 1-9.982 10.578 10.044 10.044 0 0 1-9.978-9.438c-0.12-2.22-0.2-4.58-0.2-7.02 0-53.62 33.92-101.84 83.54-120.4-20.42-80.82-93.96-138.6-178.14-138.6z" opacity=".2" p-id="45961"></path><path d="M782.22 737.44c0 5.52-4.48 10-10 10h-40.84c-5.52 0-10-4.48-10-10s4.48-10 10-10h40.84c5.52 0 10 4.48 10 10zM307.2 647.1c0 5.52-4.48 10-10 10H115.08c-5.52 0-10-4.48-10-10s4.48-10 10-10h182.12c5.52 0 10 4.48 10 10zM326.44 716.98c0 5.52-4.48 10-10 10H178.28c-5.52 0-10-4.48-10-10s4.48-10 10-10h138.16c5.52 0 10 4.48 10 10zM257.1 786.86c0 5.54-4.48 10-10 10H122.46c-5.52 0-10-4.46-10-10 0-5.52 4.48-10 10-10h124.64c5.52 0 10 4.48 10 10zM387.4 507.34c0 5.52-4.48 10-10 10h-124.62c-5.54 0-10-4.48-10-10s4.46-10 10-10h124.62c5.52 0 10 4.48 10 10zM326.44 577.22c0 5.52-4.48 10-10 10H178.28c-5.52 0-10-4.48-10-10s4.48-10 10-10h138.16c5.52 0 10 4.48 10 10zM182.248 368.956a10 10 0 0 0-10-10H47.618a10 10 0 0 0 0 20h124.63a10 10 0 0 0 10-10z" fill="#23130D" p-id="45962"></path><path d="M817.13 913.2c0 18.202-14.806 33.01-33.01 33.01-18.202 0-33.01-14.806-33.01-33.01 0-18.202 14.806-33.01 33.01-33.01 18.202 0 33.01 14.808 33.01 33.01z" fill="#636368" p-id="45963"></path><path d="M810.28 684.24h-35.52l-74.22-74.22v-35.52zM851.4 684.24h-27.3l-123.56-123.56v-27.3zM867.68 626.68v45.4L728 532.4h45.4z" fill="#FFFFFF" opacity=".4" p-id="45964"></path><path d="M105.08 647.1c0 5.52 4.48 10 10 10h4.26v120.26c-4 1.3-6.88 5.06-6.88 9.5s2.88 8.2 6.88 9.5v59.72h-15.5V447.6h15.5v189.5h-4.26c-5.52 0-10 4.48-10 10zM134.5 447.6H150v189.5h-15.5zM134.5 657.1H150v119.76h-15.5zM134.5 796.86H150v59.22h-15.5zM165.16 796.86h15.52v59.2h-15.52zM168.28 577.22c0 5.52 4.48 10 10 10h2.4v49.88h-15.52V447.6h15.52v119.62h-2.4c-5.52 0-10 4.48-10 10zM165.16 657.1h15.52v49.88h-2.4c-5.52 0-10 4.48-10 10s4.48 10 10 10h2.4v49.88h-15.52v-119.76z" opacity=".1" p-id="45965"></path><path d="M194.68 447.6h15.52v119.62h-15.52zM194.68 587.22h15.52v49.88h-15.52zM194.68 657.1h15.52v49.88h-15.52zM194.68 726.98h15.52v49.88h-15.52zM194.68 796.86h15.52v59.2h-15.52zM225.36 447.6h15.5v119.62h-15.5zM225.36 587.22h15.5v49.88h-15.5zM225.36 657.1h15.5v49.88h-15.5zM225.36 726.98h15.5v49.88h-15.5zM225.36 796.86h15.5v59.2h-15.5zM256.02 447.6h15.5v49.74h-15.5zM256.02 517.34h15.5v49.88h-15.5zM256.02 587.22h15.5v49.88h-15.5zM256.02 657.1h15.5v49.88h-15.5zM256.02 726.98h15.5v119.88a71.26 71.26 0 0 0-15.5 8.06v-63.54c0.7-1.36 1.08-2.88 1.08-4.52 0-1.62-0.4-3.16-1.08-4.52v-55.36zM286.68 447.6h15.52v49.74h-15.52zM286.68 517.34h15.52v49.88h-15.52zM286.68 587.22h15.52v51.22c-1.46-0.86-3.18-1.34-5-1.34h-10.52v-49.88zM297.2 657.1c1.82 0 3.54-0.48 5-1.34v51.22h-15.52v-49.88h10.52zM286.68 726.98h15.52v115.76c-2.02-0.2-4.08-0.28-6.14-0.28-3.18 0-6.32 0.22-9.38 0.62v-116.1zM332.86 447.46v49.88h-15.5V447.6h8.74c0.86 0 1.7-0.14 2.52-0.36 1.4 0.08 2.82 0.16 4.24 0.22zM317.36 517.34h15.5v335.5a69.294 69.294 0 0 0-15.5-7.08v-118.84c5.1-0.44 9.08-4.74 9.08-9.94 0-5.2-3.98-9.5-9.08-9.94v-119.88c5.1-0.44 9.08-4.74 9.08-9.94 0-5.2-3.98-9.5-9.08-9.94v-49.94zM348.02 447.6h15.5v49.74h-15.5zM348.02 517.34h15.5v338.72h-15.5zM394.2 447.6v408.46h-15.52V517.24a9.982 9.982 0 0 0 0-19.8V447.6h15.52zM409.36 447.6h15.5v408.46h-15.5z" opacity=".1" p-id="45966"></path><path d="M438.88 447.6h15.5v408.46h-15.5zM469.54 447.6h15.5v408.46h-15.5zM500.2 447.6h15.52v408.46h-15.52zM530.88 447.6h15.5v408.46h-15.5zM561.54 447.6h15.5v408.46h-15.5zM592.2 447.6h15.52v408.46h-15.52zM622.88 447.6h15.5v408.46h-15.5zM653.54 447.6h15.5v408.46h-15.5z" opacity=".1" p-id="45967"></path></svg>