<?xml version="1.0" standalone="no"?><!DOCTYPE svg PUBLIC "-//W3C//DTD SVG 1.1//EN" "http://www.w3.org/Graphics/SVG/1.1/DTD/svg11.dtd"><svg t="1625811341357" class="icon" viewBox="0 0 1024 1024" version="1.1" xmlns="http://www.w3.org/2000/svg" p-id="28529" xmlns:xlink="http://www.w3.org/1999/xlink" width="200" height="200"><defs><style type="text/css"></style></defs><path d="M747.3 141.72c-14.74 0-29.3 1.76-43.44 5.2-42.86-69.44-119.18-112.26-201.04-112.26-108.46 0-203.2 74.64-229.14 178.94a148.556 148.556 0 0 0-31.26-3.32c-81.78 0-148.32 66.54-148.32 148.3s66.46 148.26 148.18 148.34h137.06l-53.62 471.3a9.972 9.972 0 0 0 9.94 11.12c5.02 0 9.34-3.76 9.92-8.86l6.26-54.94h320.32l6.26 54.94a9.99 9.99 0 0 0 11.06 8.8c5.48-0.62 9.44-5.58 8.8-11.06l-53.62-471.3h102.8c100.6-0.1 182.44-81.98 182.44-182.6 0-100.7-81.92-182.6-182.6-182.6z m-77.4 763.82h-315.8l4.8-42.06h306.2l4.8 42.06z m-7.08-62.06H361.16l4.8-42.06h292.08l4.78 42.06z m-7.06-62.06H368.24l4.78-42.08h277.96l4.78 42.08z m-7.06-62.08h-273.4l4.78-42.06h263.84l4.78 42.06z m-11.84-104.14l4.78 42.08H382.36l4.78-42.08h249.72z m-247.44-20l4.78-42.06h235.6l4.78 42.06H389.42z m357.88-108.28h-104.92l-2.16-19.06a9.974 9.974 0 0 0-11.06-8.8 10 10 0 0 0-8.82 11.06l7.18 63.02H396.48l7.18-63.02a10 10 0 0 0-8.82-11.06c-5.48-0.64-10.44 3.32-11.06 8.8l-2.16 19.06h-139.2c-70.76 0-128.32-57.56-128.32-128.34 0-70.74 57.56-128.3 128.32-128.3 12.24 0 24.34 1.72 35.96 5.12 54.36 15.82 92.34 66.48 92.34 123.18 0 2.34-0.06 4.7-0.18 7.02-0.3 5.5 3.94 10.22 9.46 10.52 5.52 0.26 10.22-3.94 10.5-9.46 0.14-2.68 0.22-5.4 0.22-8.08 0-62.38-39.78-118.42-97.8-139.42 23.48-95.84 110.36-164.5 209.9-164.5 77.28 0 149.18 41.7 187.64 108.84 18.64 32.48 28.48 69.58 28.48 107.28 0 21.58-3.16 42.88-9.42 63.3a10.014 10.014 0 0 0 9.56 12.94c4.28 0 8.26-2.78 9.56-7.08 6.84-22.34 10.3-45.6 10.3-69.16 0-36.78-8.6-73.02-24.94-105.64a162.35 162.35 0 0 1 33.3-3.42c89.66 0 162.6 72.94 162.6 162.6s-72.94 162.6-162.6 162.6z" fill="#23130D" p-id="28530"></path><path d="M669.9 905.54h-315.8l4.8-42.06h306.2zM662.82 843.48H361.16l4.8-42.06h292.08zM655.76 781.42H368.24l4.78-42.08h277.96zM648.7 719.34h-273.4l4.78-42.06h263.84zM641.64 657.28H382.36l4.78-42.08h249.72zM634.58 595.2H389.42l4.78-42.06h235.6z" fill="#F9C139" p-id="28531"></path><path d="M669.9 905.54h-1.48l-3.32-29.06h-306.2l-3.32 29.06h-1.48l4.8-42.06h306.2zM662.82 843.48h-1.48l-3.3-29.06H365.96l-3.32 29.06h-1.48l4.8-42.06h292.08zM655.76 781.42h-1.48l-3.3-29.08H373.02l-3.3 29.08h-1.48l4.78-42.08h277.96zM648.7 719.34h-1.48l-3.3-29.06H380.08l-3.3 29.06h-1.48l4.78-42.06h263.84zM641.64 657.28h-1.48l-3.3-29.08H387.14l-3.3 29.08h-1.48l4.78-42.08h249.72zM634.58 595.2h-1.48l-3.3-29.06H394.2l-3.3 29.06h-1.48l4.78-42.06h235.6z" fill="#FFFFFF" opacity=".4" p-id="28532"></path><path d="M747.3 161.72c-11.26 0-22.42 1.14-33.3 3.42a236.112 236.112 0 0 1 24.94 105.64c0 23.56-3.46 46.82-10.3 69.16-1.3 4.3-5.28 7.08-9.56 7.08a10.014 10.014 0 0 1-9.56-12.94c6.26-20.42 9.42-41.72 9.42-63.3 0-37.7-9.84-74.8-28.48-107.28-38.46-67.14-110.36-108.84-187.64-108.84-99.54 0-186.42 68.66-209.9 164.5 58.02 21 97.8 77.04 97.8 139.42 0 2.68-0.08 5.4-0.22 8.08-0.28 5.52-4.98 9.72-10.5 9.46-5.52-0.3-9.76-5.02-9.46-10.52 0.12-2.32 0.18-4.68 0.18-7.02 0-56.7-37.98-107.36-92.34-123.18a127.992 127.992 0 0 0-35.96-5.12c-70.76 0-128.32 57.56-128.32 128.3 0 70.78 57.56 128.34 128.32 128.34h139.2l2.16-19.06c0.62-5.48 5.58-9.44 11.06-8.8a10 10 0 0 1 8.82 11.06l-7.18 63.02h231.04l-7.18-63.02a10 10 0 0 1 8.82-11.06 9.974 9.974 0 0 1 11.06 8.8l2.16 19.06h104.92c89.66 0 162.6-72.94 162.6-162.6s-72.94-162.6-162.6-162.6zM512.68 514.8c-19.08 0-34.58-15.5-34.58-34.56 0-19.08 15.5-34.58 34.58-34.58 19.06 0 34.56 15.5 34.56 34.58 0 19.06-15.5 34.56-34.56 34.56z m9.32-175.8v81.8c0 5.52-4.48 10-10 10-5.54 0-10-4.48-10-10v-91.3c0-5.52 4.46-10 10-10h0.04c46.06-0.02 83.52-37.5 83.52-83.56 0-46.08-37.48-83.56-83.56-83.56s-83.56 37.48-83.56 83.56c0 5.52-4.48 10-10 10s-10-4.48-10-10c0-57.1 46.46-103.56 103.56-103.56s103.56 46.46 103.56 103.56c0 53.74-41.14 98.02-93.56 103.06z" fill="#3594BF" p-id="28533"></path><path d="M908.78 305.16c-9.52 80.66-78.3 143.42-161.48 143.42h-104.92l-2.16-19.06a9.974 9.974 0 0 0-11.06-8.8 10 10 0 0 0-8.82 11.06l3.38 29.68c1.48-1.3 3.34-2.16 5.44-2.4a9.974 9.974 0 0 1 11.06 8.8l2.16 19.06h104.92c89.66 0 162.6-72.94 162.6-162.6 0-6.48-0.38-12.88-1.12-19.16zM623.16 494.8H544c-5.48 11.8-17.46 20-31.32 20-13.88 0-25.84-8.2-31.34-20h-80.5l-4.36 38.34h231.04l-4.36-38.34z m-228.32-74.08c-5.48-0.64-10.44 3.32-11.06 8.8l-2.16 19.06h-139.2c-64.24 0-117.6-47.44-126.88-109.16-0.96 6.26-1.44 12.66-1.44 19.16 0 70.78 57.56 128.34 128.32 128.34h139.2l2.16-19.06c0.62-5.48 5.58-9.44 11.06-8.8 2.1 0.24 3.96 1.1 5.44 2.4l3.38-29.68a10 10 0 0 0-8.82-11.06z" fill="#23130D" opacity=".2" p-id="28534"></path><path d="M615.56 235.94c0 53.74-41.14 98.02-93.56 103.06v81.8c0 5.52-4.48 10-10 10-5.54 0-10-4.48-10-10v-91.3c0-5.52 4.46-10 10-10h0.04c46.06-0.02 83.52-37.5 83.52-83.56 0-46.08-37.48-83.56-83.56-83.56s-83.56 37.48-83.56 83.56c0 5.52-4.48 10-10 10s-10-4.48-10-10c0-57.1 46.46-103.56 103.56-103.56s103.56 46.46 103.56 103.56zM512.68 445.66c-19.08 0-34.58 15.5-34.58 34.58 0 19.06 15.5 34.56 34.58 34.56 19.06 0 34.56-15.5 34.56-34.56 0-19.08-15.5-34.58-34.56-34.58z m0 49.14c-8.04 0-14.58-6.54-14.58-14.56 0-8.04 6.54-14.58 14.58-14.58s14.56 6.54 14.56 14.58c0 8.02-6.52 14.56-14.56 14.56z" fill="#FFFFFF" p-id="28535"></path><path d="M527.24 480.24c0 8.02-6.52 14.56-14.56 14.56-8.04 0-14.58-6.54-14.58-14.56 0-8.04 6.54-14.58 14.58-14.58s14.56 6.54 14.56 14.58z" fill="#3594BF" p-id="28536"></path></svg>