<?xml version="1.0" standalone="no"?><!DOCTYPE svg PUBLIC "-//W3C//DTD SVG 1.1//EN" "http://www.w3.org/Graphics/SVG/1.1/DTD/svg11.dtd"><svg t="1625811372958" class="icon" viewBox="0 0 1024 1024" version="1.1" xmlns="http://www.w3.org/2000/svg" p-id="28829" xmlns:xlink="http://www.w3.org/1999/xlink" width="200" height="200"><defs><style type="text/css"></style></defs><path d="M719.604 153.662c0.548-0.366 1.058-0.782 1.522-1.248 0.222-0.222 0.392-0.476 0.59-0.714 0.216-0.262 0.452-0.506 0.642-0.788 0.188-0.28 0.322-0.586 0.48-0.884 0.148-0.278 0.32-0.54 0.442-0.832 0.142-0.342 0.226-0.704 0.328-1.06 0.078-0.268 0.186-0.522 0.242-0.798 0.13-0.644 0.196-1.302 0.198-1.962l0.002-0.028V47a10 10 0 1 0-20 0v92.986L512 267.498l-192.048-127.512V47a10 10 0 0 0-20 0v98.35l0.002 0.028c0.002 0.66 0.066 1.316 0.198 1.96 0.058 0.286 0.17 0.55 0.252 0.828 0.102 0.346 0.182 0.696 0.32 1.03 0.122 0.292 0.294 0.556 0.442 0.834 0.158 0.296 0.292 0.602 0.48 0.884 0.184 0.274 0.414 0.51 0.622 0.764 0.204 0.248 0.38 0.51 0.61 0.74 0.464 0.464 0.974 0.88 1.52 1.246l0.024 0.02 189.5 125.82-189.5 125.818-0.024 0.02a10.1 10.1 0 0 0-1.52 1.246c-0.23 0.23-0.406 0.492-0.61 0.74-0.21 0.254-0.438 0.49-0.622 0.764-0.188 0.28-0.322 0.588-0.48 0.884-0.148 0.278-0.32 0.54-0.442 0.834-0.138 0.334-0.218 0.684-0.32 1.03-0.082 0.278-0.194 0.542-0.252 0.828-0.13 0.644-0.194 1.3-0.198 1.96l-0.002 0.028v196.694l0.002 0.028c0.002 0.66 0.066 1.316 0.198 1.96 0.06 0.296 0.174 0.568 0.258 0.852 0.1 0.336 0.176 0.68 0.312 1.004 0.128 0.306 0.306 0.582 0.464 0.874 0.152 0.282 0.278 0.574 0.456 0.842 0.208 0.31 0.464 0.58 0.704 0.864 0.178 0.21 0.328 0.44 0.526 0.638 0.466 0.466 0.978 0.884 1.528 1.252l0.02 0.016 189.502 125.818-189.502 125.822-0.02 0.016a10.104 10.104 0 0 0-1.528 1.252c-0.198 0.198-0.35 0.428-0.53 0.642-0.24 0.284-0.494 0.552-0.702 0.86-0.18 0.268-0.306 0.562-0.458 0.844-0.156 0.29-0.334 0.564-0.462 0.87-0.136 0.326-0.212 0.668-0.312 1.004-0.084 0.286-0.2 0.558-0.258 0.852-0.13 0.644-0.194 1.3-0.198 1.96l-0.002 0.028V977a10 10 0 1 0 20 0v-92.986L512 756.5l192.048 127.512V977c0 5.524 4.476 10 10 10s10-4.476 10-10v-98.35l-0.002-0.028a9.924 9.924 0 0 0-0.198-1.962c-0.058-0.284-0.168-0.548-0.25-0.822-0.102-0.346-0.182-0.7-0.32-1.034-0.128-0.306-0.306-0.58-0.462-0.87-0.152-0.282-0.278-0.576-0.458-0.844-0.214-0.318-0.476-0.596-0.724-0.888-0.172-0.202-0.316-0.424-0.506-0.614a10.014 10.014 0 0 0-1.548-1.27l-189.502-125.822 189.502-125.818a10.014 10.014 0 0 0 1.548-1.27c0.19-0.19 0.332-0.408 0.504-0.61 0.248-0.292 0.512-0.572 0.726-0.892 0.178-0.268 0.306-0.56 0.456-0.842 0.156-0.29 0.334-0.566 0.462-0.872 0.14-0.334 0.218-0.688 0.32-1.034 0.082-0.276 0.192-0.538 0.25-0.822 0.13-0.644 0.196-1.302 0.198-1.962l0.002-0.028v-196.696l-0.002-0.028a9.924 9.924 0 0 0-0.198-1.962c-0.056-0.276-0.164-0.53-0.242-0.798-0.104-0.356-0.186-0.716-0.328-1.06-0.122-0.292-0.292-0.554-0.442-0.832-0.158-0.296-0.292-0.602-0.48-0.884-0.19-0.282-0.426-0.528-0.642-0.788-0.198-0.238-0.368-0.492-0.59-0.714a10.152 10.152 0 0 0-1.522-1.248l-0.022-0.018-189.502-125.818 189.502-125.82c0.01-0.004 0.016-0.012 0.026-0.018z m-15.556 265.352v185.972L512 732.496l-192.048-127.508v-185.974L512 291.504l192.048 127.51z" fill="#23130D" p-id="28830"></path><path d="M358.486 82.65h307.03a10 10 0 1 0 0-20H358.486a10 10 0 0 0 0 20z" fill="#F9C139" p-id="28831"></path><path d="M358.486 134.336h307.03a10 10 0 1 0 0-20H358.486a10 10 0 0 0 0 20z" fill="#EC7063" p-id="28832"></path><path d="M602.694 176.026a10 10 0 0 0-10-10h-161.388a10 10 0 0 0 0 20h161.388a10 10 0 0 0 10-10z" fill="#3594BF" p-id="28833"></path><path d="M500.192 217.714a10 10 0 0 0 0 20h23.618a10 10 0 1 0 0-20h-23.618zM490.192 331.09a10 10 0 0 0 10 10h23.618a10 10 0 1 0 0-20h-23.618a10 10 0 0 0-10 10z" fill="#72AF5F" p-id="28834"></path><path d="M421.306 382.78a10 10 0 0 0 10 10h161.388a10 10 0 1 0 0-20h-161.388a10 10 0 0 0-10 10z" fill="#3594BF" p-id="28835"></path><path d="M348.486 434.468a10 10 0 0 0 10 10h307.03a10 10 0 1 0 0-20H358.486a10 10 0 0 0-10 10z" fill="#F9C139" p-id="28836"></path><path d="M665.516 476.156H358.486a10 10 0 0 0 0 20h307.03a10 10 0 1 0 0-20z" fill="#EC7063" p-id="28837"></path><path d="M665.516 527.844H358.486a10 10 0 1 0 0 20h307.03c5.524 0 10-4.476 10-10s-4.476-10-10-10z" fill="#F9C139" p-id="28838"></path><path d="M665.516 941.35H358.486a10 10 0 1 0 0 20h307.03c5.524 0 10-4.476 10-10s-4.476-10-10-10z" fill="#EC7063" p-id="28839"></path><path d="M665.516 889.664H358.486a10 10 0 1 0 0 20h307.03c5.524 0 10-4.476 10-10s-4.476-10-10-10z" fill="#F9C139" p-id="28840"></path><path d="M421.306 847.974a10 10 0 0 0 10 10h161.388c5.524 0 10-4.476 10-10s-4.476-10-10-10h-161.388a10 10 0 0 0-10 10z" fill="#3594BF" p-id="28841"></path><path d="M523.808 806.286c5.524 0 10-4.476 10-10s-4.476-10-10-10h-23.618a10 10 0 1 0 0 20h23.618zM523.808 682.91h-23.618a10 10 0 1 0 0 20h23.618c5.524 0 10-4.476 10-10s-4.476-10-10-10z" fill="#72AF5F" p-id="28842"></path><path d="M592.694 631.22h-161.388a10 10 0 1 0 0 20h161.388a10 10 0 1 0 0-20z" fill="#3594BF" p-id="28843"></path><path d="M665.516 579.534H358.486a10 10 0 1 0 0 20h307.03c5.524 0 10-4.476 10-10s-4.476-10-10-10z" fill="#EC7063" p-id="28844"></path></svg>