<?xml version="1.0" standalone="no"?><!DOCTYPE svg PUBLIC "-//W3C//DTD SVG 1.1//EN" "http://www.w3.org/Graphics/SVG/1.1/DTD/svg11.dtd"><svg t="1625811614556" class="icon" viewBox="0 0 1024 1024" version="1.1" xmlns="http://www.w3.org/2000/svg" p-id="36835" xmlns:xlink="http://www.w3.org/1999/xlink" width="200" height="200"><defs><style type="text/css"></style></defs><path d="M725.64 932.3h-9.3l-45.3-296.62h0.4c17.8 0 32.3-14.48 32.3-32.3v-3.86c0-17.82-14.5-32.3-32.3-32.3h-10.88l-38.12-249.5c13.36-3.96 23.14-16.32 23.14-30.96v-3.86c0-17.8-14.5-32.3-32.3-32.3H410.72c-17.8 0-32.3 14.5-32.3 32.3v3.86c0 14.64 9.78 27 23.14 30.96l-38.12 249.5h-10.88c-17.8 0-32.3 14.48-32.3 32.3v3.86c0 17.82 14.5 32.3 32.3 32.3h0.42l-18.28 119.58v0.08l-27.04 176.96h-9.3c-17.8 0-32.28 14.48-32.28 32.28v3.88c0 17.8 14.48 32.3 32.28 32.3h427.28c8.62 0 16.72-3.36 22.82-9.46 6.1-6.1 9.46-14.22 9.46-22.84v-3.88c0-17.8-14.48-32.28-32.28-32.28z m-53.94-159.86l23.24 152.1-160.92-81.96 137.68-70.14zM512 676.42l-97.5-40.74h195L512 676.42z m139.44-36.6l15.48 101.34-128.98-53.9 113.5-47.44z m-165.38 47.44l-128.96 53.88 15.48-101.3 113.48 47.42z m25.94 10.84l143.7 60.04-143.7 73.2-143.7-73.2L512 698.1z m154.1 234.2h-308.2L512 853.8l154.1 78.5z m-27.18-374.36l-107.2-63.08 89.5-52.68 17.7 115.76zM512 351.34l-59.56-32.28h119.12L512 351.34z m91.26-26.72l12.7 83.08-82.98-44.98 70.28-38.1z m-112.24 38.1l-82.98 44.98 12.7-83.08 70.28 38.1z m20.98 11.38l96.56 52.34L512 483.26l-96.56-56.82L512 374.1z m103.26 193.12H408.74L512 506.46l103.26 60.76zM398.42 286.76v-3.86c0-6.78 5.52-12.3 12.3-12.3h202.56c6.78 0 12.3 5.52 12.3 12.3v3.86c0 6.78-5.52 12.3-12.3 12.3H410.72c-6.78 0-12.3-5.52-12.3-12.3z m4.36 155.42l89.5 52.68-107.2 63.08 17.7-115.76z m-50.22 173.5c-6.78 0-12.3-5.52-12.3-12.3v-3.86c0-6.78 5.52-12.3 12.3-12.3h19.36c0.04 0 0.08 0.02 0.12 0.02v-0.02h279.92v0.02c0.04 0 0.08-0.02 0.12-0.02h19.36c6.78 0 12.3 5.52 12.3 12.3v3.86c0 6.78-5.52 12.3-12.3 12.3H352.56z m-0.24 156.76l137.66 70.14-160.92 81.96 23.26-152.1z m385.6 196.02c0 6.78-5.5 12.3-12.28 12.3H298.36c-6.78 0-12.28-5.52-12.28-12.3v-3.88c0-6.76 5.5-12.28 12.28-12.28h427.28c6.78 0 12.28 5.52 12.28 12.3v3.86z" fill="#23130D" p-id="36836"></path><path d="M737.92 964.6v3.86c0 6.78-5.5 12.3-12.28 12.3H298.36c-6.78 0-12.28-5.52-12.28-12.3v-3.88c0-6.76 5.5-12.28 12.28-12.28h427.28c6.78 0 12.28 5.52 12.28 12.3z" fill="#E1E1E5" p-id="36837"></path><path d="M737.92 964.6v3.86c0 6.78-5.5 12.3-12.28 12.3H298.36c-6.78 0-12.28-5.52-12.28-12.3v-3.88c0-1.84 0.4-3.6 1.16-5.16a12.26 12.26 0 0 0 11.12 7.12h427.28a12.26 12.26 0 0 0 11.12-7.12c0.74 1.56 1.16 3.32 1.16 5.18z" fill="#23130D" opacity=".2" p-id="36838"></path><path d="M683.74 599.52v3.86c0 6.78-5.52 12.3-12.3 12.3H352.56c-6.78 0-12.3-5.52-12.3-12.3v-3.86c0-6.78 5.52-12.3 12.3-12.3h19.36c0.04 0 0.08 0.02 0.12 0.02v-0.02h279.92v0.02c0.04 0 0.08-0.02 0.12-0.02h19.36c6.78 0 12.3 5.52 12.3 12.3z" fill="#E1E1E5" p-id="36839"></path><path d="M683.74 599.52v3.86c0 6.78-5.52 12.3-12.3 12.3H352.56c-6.78 0-12.3-5.52-12.3-12.3v-3.86c0-1.44 0.24-2.8 0.7-4.08 1.68 4.8 6.24 8.24 11.6 8.24h318.88c5.36 0 9.92-3.44 11.6-8.24 0.46 1.28 0.7 2.64 0.7 4.08z" fill="#23130D" opacity=".2" p-id="36840"></path><path d="M625.58 282.9v3.86c0 6.78-5.52 12.3-12.3 12.3H410.72c-6.78 0-12.3-5.52-12.3-12.3v-3.86c0-6.78 5.52-12.3 12.3-12.3h202.56c6.78 0 12.3 5.52 12.3 12.3z" fill="#E1E1E5" p-id="36841"></path><path d="M625.58 282.9v3.86c0 6.78-5.52 12.3-12.3 12.3H410.72c-6.78 0-12.3-5.52-12.3-12.3v-3.86c0-1.42 0.24-2.8 0.7-4.06a12.326 12.326 0 0 0 11.6 8.22h202.56c5.34 0 9.92-3.44 11.6-8.22 0.46 1.26 0.7 2.64 0.7 4.06z" fill="#23130D" opacity=".2" p-id="36842"></path><path d="M552.54 59.68c-12.1-18.1-31.82-36.44-46.06-36.44-4.86 0-9.12 2.14-11.74 5.84-5.08 7.22-1.62 16.84-0.48 20 8.58 23.92 4.16 30.68-9 50.72-5.9 9-13.26 20.2-21.14 35.76-23.72 46.88 22.94 86.42 50.92 100.8 1.44 0.74 3 1.1 4.56 1.1h0.06c5.52 0 9.98-4.48 9.98-10 0-1.36-0.26-2.66-0.76-3.84-4.54-14.82-0.5-21.5 9.98-38.84 6.82-11.26 16.16-26.7 25.7-49.8 9.44-22.86 5.18-49.6-12.02-75.3z m-6.46 67.66c-8.96 21.7-17.48 35.78-24.32 47.1-7.36 12.14-13.14 21.7-14.48 33.12-16.98-12.96-38.88-36.16-25.3-62.96 7.36-14.56 14.38-25.24 20-33.84 13.06-19.9 21.96-33.44 13.02-62.7 7.04 5.32 16.58 14.88 24.18 27.94 7.5 12.88 14.78 32.26 6.9 51.34z" fill="#23130D" p-id="36843"></path><path d="M546.08 127.34c-8.96 21.7-17.48 35.78-24.32 47.1-7.36 12.14-13.14 21.7-14.48 33.12-16.98-12.96-38.88-36.16-25.3-62.96 7.36-14.56 14.38-25.24 20-33.84 13.06-19.9 21.96-33.44 13.02-62.7 7.04 5.32 16.58 14.88 24.18 27.94 7.5 12.88 14.78 32.26 6.9 51.34z" fill="#F9C139" p-id="36844"></path><path d="M499.48 144.6c-9.9 19.52-0.96 37.14 11.18 50.28-1.68 4.12-2.86 8.26-3.38 12.68-16.98-12.96-38.88-36.16-25.3-62.96 7.36-14.56 14.38-25.24 20-33.84 13.06-19.9 21.96-33.44 13.02-62.7 6.12 4.62 14.12 12.46 21.1 23-0.46 15.1-7.54 25.86-16.62 39.7-5.62 8.6-12.64 19.28-20 33.84z" fill="#23130D" opacity=".2" p-id="36845"></path><path d="M438.7 196.94c-8.36-7.82-8.2-12.64-7.64-28.66 0.36-10.24 0.84-24.28-1.44-43.64-4.52-38.46-49.22-57.76-72.98-57.76-11.76 0-16.18 5.16-17.8 9.48-1.6 4.3-1.64 11.04 7.24 18.78 13.96 12.16 13.6 17.14 12.26 35.74-0.6 8.34-1.34 18.74-0.8 32.34 1.52 37.68 40.2 51.04 72.86 51.04 1.18 0 1.82-0.02 1.82-0.02a9.992 9.992 0 0 0 9-6.5c1.4-3.78 0.42-8.04-2.52-10.8z m-61.18-34.52c-0.5-12.48 0.18-21.86 0.76-30.12 1.22-16.98 2.1-29.12-10.44-43.68 16.58 4.44 39.44 17.38 41.92 38.36 2.1 17.84 1.66 30.46 1.32 40.6-0.34 9.46-0.62 17.48 1.6 25.08-15.32-2.76-34.34-10.22-35.16-30.24z" fill="#23130D" p-id="36846"></path><path d="M412.68 192.66c-15.32-2.76-34.34-10.22-35.16-30.24-0.5-12.48 0.18-21.86 0.76-30.12 1.22-16.98 2.1-29.12-10.44-43.68 16.58 4.44 39.44 17.38 41.92 38.36 2.1 17.84 1.66 30.46 1.32 40.6-0.34 9.46-0.62 17.48 1.6 25.08z" fill="#E8790A" p-id="36847"></path><path d="M412.68 192.66c-15.32-2.76-34.34-10.22-35.16-30.24-0.5-12.48 0.18-21.86 0.76-30.12 1.22-16.98 2.1-29.12-10.44-43.68 5.34 1.44 11.36 3.76 17.12 6.96 7.12 11.68 6.34 22.5 5.32 36.72-0.58 8.26-1.26 17.64-0.76 30.12 0.6 14.6 10.86 22.52 22.32 26.8 0.24 1.16 0.5 2.3 0.84 3.44z" fill="#23130D" opacity=".2" p-id="36848"></path><path d="M680.12 95.72c-3.86-10.44-10.68-22.88-21.3-22.88-3.72 0-12.56 1.64-14.48 16.82-2.3 18.36-6.66 20.86-22.82 30.1-7.28 4.16-16.32 9.34-27.3 17.38-34.22 25.04-15.44 70.1-0.72 90.44a9.98 9.98 0 0 0 8.1 4.14c0.76 0 1.54-0.1 2.3-0.28a9.96 9.96 0 0 0 7.56-8.12c1.84-11.3 5.94-13.86 19.54-22.32 8.7-5.42 20.64-12.84 35.44-25.52 22.64-19.44 23.2-54.06 13.68-79.76z m-26.7 64.56c-13.64 11.7-24.36 18.38-32.98 23.74-8.02 4.98-14.84 9.22-19.9 15.3-6.2-14.2-10.64-34.22 5.48-46.04 10.08-7.36 18.24-12.04 25.44-16.16 14.78-8.46 25.34-14.5 30.44-33.04 2.14 6.26 3.94 14.4 4.06 23.26 0.14 10-1.94 23.84-12.54 32.94z" fill="#23130D" p-id="36849"></path><path d="M665.96 127.34c0.14 10-1.94 23.84-12.54 32.94-13.64 11.7-24.36 18.38-32.98 23.74-8.02 4.98-14.84 9.22-19.9 15.3-6.2-14.2-10.64-34.22 5.48-46.04 10.08-7.36 18.24-12.04 25.44-16.16 14.78-8.46 25.34-14.5 30.44-33.04 2.14 6.26 3.94 14.4 4.06 23.26z" fill="#E8790A" p-id="36850"></path><path d="M665.86 124.52c-5.8 9.98-14.54 14.98-25.66 21.34-7.2 4.12-15.36 8.8-25.44 16.16-11.54 8.46-12.54 21.14-9.9 32.86-1.56 1.38-3 2.86-4.32 4.44-6.2-14.2-10.64-34.22 5.48-46.04 10.08-7.36 18.24-12.04 25.44-16.16 14.78-8.46 25.34-14.5 30.44-33.04 1.92 5.58 3.54 12.68 3.96 20.44z" fill="#23130D" opacity=".2" p-id="36851"></path></svg>