<?xml version="1.0" standalone="no"?><!DOCTYPE svg PUBLIC "-//W3C//DTD SVG 1.1//EN" "http://www.w3.org/Graphics/SVG/1.1/DTD/svg11.dtd"><svg t="1625812052572" class="icon" viewBox="0 0 1024 1024" version="1.1" xmlns="http://www.w3.org/2000/svg" p-id="50610" xmlns:xlink="http://www.w3.org/1999/xlink" width="200" height="200"><defs><style type="text/css"></style></defs><path d="M874.2 43H149.8c-5.52 0-10 4.48-10 10v918.24c0 5.52 4.48 10 10 10h532.22c0.64 0 1.28-0.08 1.9-0.2 0.38-0.08 0.72-0.2 1.08-0.32 0.26-0.08 0.52-0.14 0.78-0.24 0.42-0.18 0.78-0.4 1.16-0.62 0.2-0.1 0.38-0.18 0.56-0.3 0.56-0.38 1.06-0.8 1.54-1.26l192.22-192.22c0.02-0.02 0.02-0.04 0.04-0.06 0.4-0.4 0.74-0.84 1.06-1.28 0.12-0.16 0.2-0.3 0.3-0.46 0.22-0.36 0.42-0.72 0.58-1.08l0.24-0.54c0.18-0.48 0.34-0.96 0.44-1.46 0.02-0.06 0.06-0.14 0.08-0.22 0.12-0.58 0.16-1.18 0.18-1.78 0-0.06 0.02-0.12 0.02-0.2v-726c0-5.52-4.48-10-10-10z m-182.24 904.1V789h158.08l-158.08 158.1z m172.24-178.1h-182.24c-5.52 0-10 4.48-10 10v182.24H159.8V63h704.4v706z" fill="#23130D" p-id="50611"></path><path d="M850.04 789l-158.08 158.1V789z" fill="#636368" p-id="50612"></path><path d="M850.04 789l-158.08 158.1v-58l100.08-100.1z" opacity=".2" p-id="50613"></path><path d="M159.8 63v898.24h512.16V779c0-5.52 4.48-10 10-10h182.24v-706H159.8z m230.68 69.48h243.04c5.52 0 10 4.48 10 10s-4.48 10-10 10H390.48c-5.52 0-10-4.48-10-10s4.48-10 10-10z m52.98 616.22v137.54c0 0.2-0.06 0.38-0.06 0.58-0.02 0.36-0.04 0.74-0.12 1.1-0.04 0.32-0.12 0.62-0.22 0.94-0.08 0.3-0.16 0.62-0.28 0.92-0.12 0.34-0.28 0.66-0.46 0.98-0.08 0.18-0.14 0.38-0.24 0.56-0.08 0.1-0.16 0.2-0.22 0.32l-0.26 0.38c-0.3 0.42-0.64 0.82-0.98 1.18-0.04 0.04-0.08 0.1-0.12 0.14-0.42 0.4-0.86 0.76-1.34 1.1-0.1 0.06-0.2 0.14-0.32 0.2-0.42 0.26-0.84 0.5-1.3 0.7-0.08 0.04-0.18 0.1-0.26 0.14-0.52 0.22-1.08 0.38-1.62 0.5-0.14 0.02-0.28 0.06-0.42 0.08-0.6 0.1-1.18 0.18-1.8 0.18-0.6 0-1.2-0.08-1.78-0.18-0.14-0.02-0.28-0.06-0.4-0.08-0.56-0.12-1.12-0.3-1.68-0.52l-0.12-0.06c-0.36-0.16-0.72-0.34-1.08-0.54l-68.12-40.08-68.1 40.08c-0.34 0.2-0.7 0.36-1.04 0.52-0.06 0.02-0.12 0.06-0.18 0.08-0.54 0.22-1.08 0.38-1.64 0.52-0.14 0.02-0.28 0.06-0.42 0.08-0.58 0.1-1.18 0.18-1.78 0.18s-1.2-0.08-1.8-0.18c-0.14-0.02-0.28-0.06-0.42-0.08-0.54-0.12-1.08-0.28-1.62-0.5-0.08-0.04-0.16-0.08-0.26-0.12-0.44-0.22-0.88-0.46-1.3-0.72-0.12-0.06-0.22-0.14-0.32-0.2a11.88 11.88 0 0 1-1.34-1.1c-0.04-0.04-0.08-0.1-0.12-0.14-0.34-0.36-0.66-0.76-0.96-1.18-0.1-0.12-0.18-0.26-0.28-0.4-0.06-0.1-0.14-0.2-0.22-0.3-0.1-0.18-0.14-0.38-0.24-0.54-0.16-0.34-0.32-0.66-0.46-1-0.12-0.3-0.2-0.62-0.28-0.92-0.08-0.32-0.18-0.62-0.22-0.94a9.74 9.74 0 0 1-0.12-1.1c0-0.2-0.06-0.38-0.06-0.58v-137.5c-14.4-18.14-23.04-41.04-23.04-65.96 0-58.56 47.66-106.2 106.22-106.2s106.22 47.64 106.22 106.2c0 24.9-8.64 47.8-23.02 65.92z m334.62-88.2H533.64c-5.52 0-10-4.48-10-10s4.48-10 10-10h244.44c5.52 0 10 4.48 10 10s-4.48 10-10 10z m0-63.5H533.64c-5.52 0-10-4.48-10-10s4.48-10 10-10h244.44c5.52 0 10 4.48 10 10s-4.48 10-10 10z m0-63.5h-321.6c-5.54 0-10-4.48-10-10s4.46-10 10-10h321.6c5.52 0 10 4.48 10 10s-4.48 10-10 10z m0-63.5H245.92c-5.52 0-10-4.48-10-10 0-5.54 4.48-10 10-10h532.16c5.52 0 10 4.46 10 10 0 5.52-4.48 10-10 10z m0-63.52H245.92c-5.52 0-10-4.48-10-10s4.48-10 10-10h532.16c5.52 0 10 4.48 10 10s-4.48 10-10 10z m0-63.5H245.92c-5.52 0-10-4.48-10-10s4.48-10 10-10h532.16c5.52 0 10 4.48 10 10s-4.48 10-10 10z m0-63.5H245.92c-5.52 0-10-4.48-10-10s4.48-10 10-10h532.16c5.52 0 10 4.48 10 10s-4.48 10-10 10z m0-63.5H245.92c-5.52 0-10-4.48-10-10s4.48-10 10-10h532.16c5.52 0 10 4.48 10 10s-4.48 10-10 10z" fill="#E1E1E5" p-id="50614"></path><path d="M845.7 63v687.5h-182.24c-5.52 0-10 4.48-10 10v182.24H159.8v18.5h512.16V779c0-5.52 4.48-10 10-10h182.24v-706h-18.5z" opacity=".2" p-id="50615"></path><path d="M360.26 576.58c-58.56 0-106.22 47.64-106.22 106.2 0 24.92 8.64 47.82 23.04 65.96v137.5c0 0.2 0.06 0.38 0.06 0.58 0.02 0.38 0.06 0.74 0.12 1.1 0.04 0.32 0.14 0.62 0.22 0.94 0.08 0.3 0.16 0.62 0.28 0.92 0.14 0.34 0.3 0.66 0.46 1 0.1 0.16 0.14 0.36 0.24 0.54 0.08 0.1 0.16 0.2 0.22 0.3 0.1 0.14 0.18 0.28 0.28 0.4 0.3 0.42 0.62 0.82 0.96 1.18 0.04 0.04 0.08 0.1 0.12 0.14 0.42 0.4 0.86 0.76 1.34 1.1 0.1 0.06 0.2 0.14 0.32 0.2 0.42 0.26 0.86 0.5 1.3 0.72 0.1 0.04 0.18 0.08 0.26 0.12 0.54 0.22 1.08 0.38 1.62 0.5 0.14 0.02 0.28 0.06 0.42 0.08 0.6 0.1 1.2 0.18 1.8 0.18s1.2-0.08 1.78-0.18c0.14-0.02 0.28-0.06 0.42-0.08 0.56-0.14 1.1-0.3 1.64-0.52 0.06-0.02 0.12-0.06 0.18-0.08 0.34-0.16 0.7-0.32 1.04-0.52l68.1-40.08 68.12 40.08c0.36 0.2 0.72 0.38 1.08 0.54l0.12 0.06c0.56 0.22 1.12 0.4 1.68 0.52 0.12 0.02 0.26 0.06 0.4 0.08 0.58 0.1 1.18 0.18 1.78 0.18 0.62 0 1.2-0.08 1.8-0.18 0.14-0.02 0.28-0.06 0.42-0.08 0.54-0.12 1.1-0.28 1.62-0.5 0.08-0.04 0.18-0.1 0.26-0.14 0.46-0.2 0.88-0.44 1.3-0.7 0.12-0.06 0.22-0.14 0.32-0.2 0.48-0.34 0.92-0.7 1.34-1.1 0.04-0.04 0.08-0.1 0.12-0.14 0.34-0.36 0.68-0.76 0.98-1.18l0.26-0.38c0.06-0.12 0.14-0.22 0.22-0.32 0.1-0.18 0.16-0.38 0.24-0.56 0.18-0.32 0.34-0.64 0.46-0.98 0.12-0.3 0.2-0.62 0.28-0.92 0.1-0.32 0.18-0.62 0.22-0.94 0.08-0.36 0.1-0.74 0.12-1.1 0-0.2 0.06-0.38 0.06-0.58v-137.54c14.38-18.12 23.02-41.02 23.02-65.92 0-58.56-47.66-106.2-106.22-106.2z m63.2 292.18l-58.12-34.22c-0.12-0.06-0.26-0.1-0.38-0.16-0.32-0.16-0.64-0.32-0.96-0.44-0.3-0.12-0.6-0.24-0.9-0.32-0.3-0.1-0.6-0.16-0.92-0.22-0.32-0.06-0.64-0.12-0.98-0.16-0.3-0.04-0.62-0.04-0.92-0.04-0.34 0-0.66 0-0.98 0.04-0.32 0.04-0.64 0.1-0.94 0.16-0.34 0.06-0.64 0.12-0.96 0.22-0.3 0.08-0.58 0.2-0.86 0.32-0.34 0.12-0.68 0.28-1 0.44-0.1 0.06-0.24 0.1-0.36 0.18l-58.1 34.18v-100.62c17.68 13.12 39.54 20.88 63.18 20.88 23.66 0 45.52-7.78 63.2-20.9v100.66z m-63.2-99.76c-47.54 0-86.22-38.68-86.22-86.22s38.68-86.2 86.22-86.2 86.22 38.66 86.22 86.2c0 47.54-38.68 86.22-86.22 86.22z" fill="#23130D" p-id="50616"></path><path d="M423.46 768.1v100.66l-58.12-34.22c-0.12-0.06-0.26-0.1-0.38-0.16-0.32-0.16-0.64-0.32-0.96-0.44-0.3-0.12-0.6-0.24-0.9-0.32-0.3-0.1-0.6-0.16-0.92-0.22-0.32-0.06-0.64-0.12-0.98-0.16-0.3-0.04-0.62-0.04-0.92-0.04-0.34 0-0.66 0-0.98 0.04-0.32 0.04-0.64 0.1-0.94 0.16-0.34 0.06-0.64 0.12-0.96 0.22-0.3 0.08-0.58 0.2-0.86 0.32-0.34 0.12-0.68 0.28-1 0.44-0.1 0.06-0.24 0.1-0.36 0.18l-58.1 34.18v-100.62c17.68 13.12 39.54 20.88 63.18 20.88 23.66 0 45.52-7.78 63.2-20.9z" fill="#EC7063" p-id="50617"></path><path d="M423.46 768.1v17c-17.68 13.12-39.54 20.9-63.2 20.9-23.64 0-45.5-7.76-63.18-20.88v-17c17.68 13.12 39.54 20.88 63.18 20.88 23.66 0 45.52-7.78 63.2-20.9z" opacity=".2" p-id="50618"></path><path d="M446.48 682.78c0 0.96-0.02 1.92-0.04 2.88a85.652 85.652 0 0 1-10.06 37.56 86.526 86.526 0 0 1-27.64 30.82c-2.9 1.98-5.94 3.8-9.08 5.4a85.016 85.016 0 0 1-28.4 8.86c-3.6 0.46-7.28 0.7-11 0.7-47.54 0-86.22-38.68-86.22-86.22 0-3.72 0.24-7.4 0.7-11a85.16 85.16 0 0 1 8.86-28.4 86.078 86.078 0 0 1 18.72-24.38c5.28-4.8 11.16-8.96 17.52-12.34 11.26-6.02 24.02-9.6 37.56-10.04 0.94-0.02 1.9-0.04 2.86-0.04 47.54 0 86.22 38.66 86.22 86.2z" fill="#F9C139" p-id="50619"></path><path d="M360.26 606.58c42.028 0 76.22 34.184 76.22 76.2 0 0.868-0.018 1.736-0.036 2.604-0.408 11.716-3.396 22.86-8.888 33.132a76.588 76.588 0 0 1-24.454 27.266 73.316 73.316 0 0 1-8.052 4.784 74.844 74.844 0 0 1-25.058 7.814c-3.216 0.41-6.49 0.62-9.732 0.62-42.028 0-76.22-34.192-76.22-76.22 0-3.242 0.208-6.516 0.618-9.726a75.176 75.176 0 0 1 7.852-25.134 73.164 73.164 0 0 1 4.746-7.978 76.242 76.242 0 0 1 11.79-13.542 76.268 76.268 0 0 1 15.508-10.92c10.274-5.492 21.416-8.474 33.118-8.862 0.852-0.02 1.72-0.038 2.588-0.038m0-10c-0.96 0-1.92 0.02-2.86 0.04-13.54 0.44-26.3 4.02-37.56 10.04a86.194 86.194 0 0 0-17.52 12.34 86.078 86.078 0 0 0-18.72 24.38 85.16 85.16 0 0 0-8.86 28.4c-0.46 3.6-0.7 7.28-0.7 11 0 47.54 38.68 86.22 86.22 86.22 3.72 0 7.4-0.24 11-0.7 10.12-1.3 19.7-4.34 28.4-8.86 3.14-1.6 6.18-3.42 9.08-5.4a86.526 86.526 0 0 0 27.64-30.82c6.02-11.26 9.6-24.02 10.06-37.56 0.02-0.96 0.04-1.92 0.04-2.88 0-47.54-38.68-86.2-86.22-86.2z" opacity=".2" p-id="50620"></path><path d="M643.52 142.48c0 5.52-4.48 10-10 10H390.48c-5.52 0-10-4.48-10-10s4.48-10 10-10h243.04c5.52 0 10 4.48 10 10zM788.08 205.98c0 5.52-4.48 10-10 10H245.92c-5.52 0-10-4.48-10-10s4.48-10 10-10h532.16c5.52 0 10 4.48 10 10zM788.08 269.48c0 5.52-4.48 10-10 10H245.92c-5.52 0-10-4.48-10-10s4.48-10 10-10h532.16c5.52 0 10 4.48 10 10zM788.08 332.98c0 5.52-4.48 10-10 10H245.92c-5.52 0-10-4.48-10-10s4.48-10 10-10h532.16c5.52 0 10 4.48 10 10zM788.08 396.48c0 5.52-4.48 10-10 10H245.92c-5.52 0-10-4.48-10-10s4.48-10 10-10h532.16c5.52 0 10 4.48 10 10zM788.08 460c0 5.52-4.48 10-10 10H245.92c-5.52 0-10-4.48-10-10 0-5.54 4.48-10 10-10h532.16c5.52 0 10 4.46 10 10zM788.08 523.5c0 5.52-4.48 10-10 10h-321.6c-5.54 0-10-4.48-10-10s4.46-10 10-10h321.6c5.52 0 10 4.48 10 10zM788.08 587c0 5.52-4.48 10-10 10H533.64c-5.52 0-10-4.48-10-10s4.48-10 10-10h244.44c5.52 0 10 4.48 10 10zM788.08 650.5c0 5.52-4.48 10-10 10H533.64c-5.52 0-10-4.48-10-10s4.48-10 10-10h244.44c5.52 0 10 4.48 10 10z" fill="#23130D" p-id="50621"></path><path d="M399.66 759.44a85.016 85.016 0 0 1-28.4 8.86l-96.52-96.52a85.16 85.16 0 0 1 8.86-28.4l116.06 116.06zM424.06 740.72a86.1 86.1 0 0 1-15.32 13.32l-119.74-119.74c3.84-5.62 8.3-10.76 13.32-15.3l121.74 121.72zM446.44 685.66a85.652 85.652 0 0 1-10.06 37.56l-116.54-116.56c11.26-6.02 24.02-9.6 37.56-10.04l89.04 89.04z" fill="#FFFFFF" opacity=".4" p-id="50622"></path></svg>