<?xml version="1.0" standalone="no"?><!DOCTYPE svg PUBLIC "-//W3C//DTD SVG 1.1//EN" "http://www.w3.org/Graphics/SVG/1.1/DTD/svg11.dtd"><svg t="1625811844582" class="icon" viewBox="0 0 1024 1024" version="1.1" xmlns="http://www.w3.org/2000/svg" p-id="40804" xmlns:xlink="http://www.w3.org/1999/xlink" width="200" height="200"><defs><style type="text/css"></style></defs><path d="M981.3 848.58h-14v-25.72c0-15.78-12.86-28.64-28.64-28.64h-15.22l50.1-215.88c4.32-19.78-0.88-48.6-11.88-65.66L796.8 261.5c-6.28-9.76-16.14-16.58-27.04-18.72-10.06-1.98-20.12 0.1-28.34 5.84-17.18 12.02-23.56 37.52-14.58 58.12l53.86 130.54c-16.32 6.3-27.8 22.32-27.8 41.06v117.16c0 8.64-1.28 20.64-3.5 32.92-2.08 11.3-4.76 21.72-7.58 29.38l-0.26 0.68c-0.02 0.06-0.04 0.12-0.08 0.2-7.72 21.04-12.34 53.28-12.34 86.24v49.3h-11.88c-15.8 0-28.64 12.86-28.64 28.64v25.72h-10.2c-5.52 0-10 4.48-10 10v82.34c0 5.52 4.48 10 10 10h302.88c5.52 0 10-4.48 10-10v-82.34c0-5.52-4.48-10-10-10z m-232.16-103.66c0-30.68 4.14-60.3 11.08-79.26l0.28-0.68c0.02-0.06 0.04-0.12 0.06-0.2 3.2-8.68 6.22-20.32 8.5-32.78 2.48-13.62 3.84-26.58 3.84-36.5v-117.16c0-12.6 9.9-23.34 22.04-23.92h0.24c1.68-0.14 3.48 0.04 5.26 0.42 10.84 2.16 18.7 12.06 18.7 23.5v116.94c-0.14 3.82-0.64 35.72 22.26 62.24a9.984 9.984 0 0 0 14.1 1.02c4.18-3.6 4.64-9.92 1.02-14.1-18.46-21.38-17.4-48.16-17.4-48.38 0.02-0.2 0.02-0.38 0.02-0.56v-117.16c0-20.94-14.62-39.08-34.72-43.1-1.02-0.22-2.08-0.38-3.14-0.52l-56-135.7c-0.02-0.08-0.06-0.14-0.08-0.2-5.18-11.8-1.66-27.28 7.68-33.8 3.72-2.62 8.36-3.54 13.02-2.62 5.6 1.1 10.72 4.72 14.12 10l164.88 251.18c8 12.42 12.26 36.02 9.12 50.36l-51.1 220.28h-153.78v-49.3z m-40.52 77.94c0-4.76 3.88-8.64 8.64-8.64h193.44c0.06 0 0.12 0.02 0.16 0.02s0.08-0.02 0.12-0.02h27.68c4.76 0 8.64 3.88 8.64 8.64v25.72H708.62v-25.72z m262.68 108.06H688.42v-62.34h282.88v62.34z" fill="#23130D" p-id="40805"></path><path d="M947.3 822.86v25.72H708.62v-25.72c0-4.76 3.88-8.64 8.64-8.64h193.44c0.06 0 0.12 0.02 0.16 0.02s0.08-0.02 0.12-0.02h27.68c4.76 0 8.64 3.88 8.64 8.64z" fill="#E1E1E5" p-id="40806"></path><path d="M688.42 868.58h282.88v62.34H688.42z" fill="#3594BF" p-id="40807"></path><path d="M954.02 573.94l-51.1 220.28h-153.78v-49.3c0-30.68 4.14-60.3 11.08-79.26l0.28-0.68c0.02-0.06 0.04-0.12 0.06-0.2 3.2-8.68 6.22-20.32 8.5-32.78 2.48-13.62 3.84-26.58 3.84-36.5v-117.16c0-12.6 9.9-23.34 22.04-23.92h0.24c1.68-0.14 3.48 0.04 5.26 0.42 10.84 2.16 18.7 12.06 18.7 23.5v116.94c-0.14 3.82-0.64 35.72 22.26 62.24a9.984 9.984 0 0 0 14.1 1.02c4.18-3.6 4.64-9.92 1.02-14.1-18.46-21.38-17.4-48.16-17.4-48.38 0.02-0.2 0.02-0.38 0.02-0.56v-117.16c0-20.94-14.62-39.08-34.72-43.1-1.02-0.22-2.08-0.38-3.14-0.52l-56-135.7c-0.02-0.08-0.06-0.14-0.08-0.2-5.18-11.8-1.66-27.28 7.68-33.8 3.72-2.62 8.36-3.54 13.02-2.62 5.6 1.1 10.72 4.72 14.12 10l164.88 251.18c8 12.42 12.26 36.02 9.12 50.36z" fill="#F8D3C9" p-id="40808"></path><path d="M345.58 848.58h-10.18v-25.72c0-15.78-12.86-28.64-28.64-28.64h-11.92v-49.3c0-33-4.6-65.26-12.34-86.28-0.02-0.06-0.04-0.14-0.08-0.2l-0.26-0.66c-6-16.4-11.08-44.88-11.08-62.28v-117.16c0-18.74-11.48-34.76-27.76-41.06l53.84-130.54c8.98-20.58 2.6-46.1-14.58-58.1-8.22-5.76-18.3-7.84-28.36-5.86-10.88 2.14-20.74 8.98-26.96 18.66L62.3 512.76c-10.96 17-16.16 45.8-11.8 65.7l50.06 215.76h-15.22c-15.78 0-28.64 12.86-28.64 28.64v25.72h-14c-5.52 0-10 4.48-10 10v82.34c0 5.52 4.48 10 10 10h302.88c5.54 0 10-4.48 10-10v-82.34c0-5.52-4.46-10-10-10zM70 574.08c-3.16-14.48 1.1-38.06 9.06-50.42l164.96-251.32c3.36-5.22 8.48-8.84 14.08-9.94 4.66-0.92 9.3 0.02 13.02 2.62 9.34 6.54 12.86 22.02 7.68 33.8-0.02 0.06-0.06 0.14-0.08 0.2l-56 135.7c-1.02 0.14-2.06 0.28-3.1 0.5-20.14 4.06-34.76 22.2-34.76 43.12v117.16c0 0.16 0 0.36 0.02 0.52 0 0.26 1.04 27.04-17.42 48.42-3.6 4.16-3.14 10.48 1.04 14.1a10.004 10.004 0 0 0 14.1-1.04c22.9-26.5 22.4-58.4 22.26-62.22v-116.94c0-11.44 7.86-21.34 18.68-23.52 1.9-0.36 3.58-0.52 5.52-0.42 12.14 0.6 22.02 11.32 22.02 23.94v117.16c0 19.7 5.54 50.78 12.34 69.28 0.04 0.06 0.06 0.14 0.08 0.2l0.28 0.68c6.92 18.92 11.06 48.54 11.06 79.26v49.3H121.08L70 574.08z m6.7 248.78c0-4.76 3.88-8.64 8.64-8.64h27.7c0.02 0 0.06 0.02 0.08 0.02 0.06 0 0.1-0.02 0.14-0.02h193.5c4.76 0 8.64 3.88 8.64 8.64v25.72H76.7v-25.72z m258.88 108.06H52.7v-62.34h282.88v62.34z" fill="#23130D" p-id="40809"></path><path d="M315.4 822.86v25.72H76.7v-25.72c0-4.76 3.88-8.64 8.64-8.64h27.7c0.02 0 0.06 0.02 0.08 0.02 0.06 0 0.1-0.02 0.14-0.02h193.5c4.76 0 8.64 3.88 8.64 8.64z" fill="#E1E1E5" p-id="40810"></path><path d="M52.7 868.58h282.88v62.34H52.7z" fill="#3594BF" p-id="40811"></path><path d="M149.26 814.22c-0.04 0-0.08 0.02-0.14 0.02-0.02 0-0.06-0.02-0.08-0.02h0.22z" fill="#FFFFFF" p-id="40812"></path><path d="M278.8 298.82c-0.02 0.06-0.06 0.14-0.08 0.2l-56 135.7c-1.02 0.14-2.06 0.28-3.1 0.5-20.14 4.06-34.76 22.2-34.76 43.12v117.16c0 0.16 0 0.36 0.02 0.52 0 0.26 1.04 27.04-17.42 48.42-3.6 4.16-3.14 10.48 1.04 14.1a10.004 10.004 0 0 0 14.1-1.04c22.9-26.5 22.4-58.4 22.26-62.22v-116.94c0-11.44 7.86-21.34 18.68-23.52 1.9-0.36 3.58-0.52 5.52-0.42 12.14 0.6 22.02 11.32 22.02 23.94v117.16c0 19.7 5.54 50.78 12.34 69.28 0.04 0.06 0.06 0.14 0.08 0.2l0.28 0.68c6.92 18.92 11.06 48.54 11.06 79.26v49.3H121.08L70 574.08c-3.16-14.48 1.1-38.06 9.06-50.42l164.96-251.32c3.36-5.22 8.48-8.84 14.08-9.94 4.66-0.92 9.3 0.02 13.02 2.62 9.34 6.54 12.86 22.02 7.68 33.8z" fill="#F8D3C9" p-id="40813"></path><path d="M113.26 814.22h8.08c-4.76 0-8.64 3.88-8.64 8.64v25.72h-36v-25.72c0-4.76 3.88-8.64 8.64-8.64h27.7c0.02 0 0.06 0.02 0.08 0.02 0.06 0 0.1-0.02 0.14-0.02zM52.7 868.58h36v62.34h-36z" opacity=".2" p-id="40814"></path><path d="M315.4 822.86v25.72h-36v-25.72c0-4.76-3.88-8.64-8.64-8.64h36c4.76 0 8.64 3.88 8.64 8.64zM299.58 868.58h36v62.34h-36z" fill="#FFFFFF" opacity=".5" p-id="40815"></path><path d="M109.06 523.66c-7.96 12.36-12.22 35.94-9.06 50.42l51.08 220.14h-30L70 574.08c-3.16-14.48 1.1-38.06 9.06-50.42l164.96-251.32c3.36-5.22 8.48-8.84 14.08-9.94 4.66-0.92 9.3 0.02 13.02 2.62 1.82 1.28 3.44 2.9 4.78 4.78-0.68 0.78-1.3 1.64-1.88 2.54L109.06 523.66zM910.74 814.22h-8.08c4.76 0 8.64 3.88 8.64 8.64v25.72h36v-25.72c0-4.76-3.88-8.64-8.64-8.64h-27.7c-0.02 0-0.06 0.02-0.08 0.02-0.06 0-0.1-0.02-0.14-0.02zM935.3 868.58h36v62.34h-36z" opacity=".2" p-id="40816"></path><path d="M708.6 822.86v25.72h36v-25.72c0-4.76 3.88-8.64 8.64-8.64h-36c-4.76 0-8.64 3.88-8.64 8.64zM688.42 868.58h36v62.34h-36z" fill="#FFFFFF" opacity=".5" p-id="40817"></path><path d="M914.94 523.66c7.96 12.36 12.22 35.94 9.06 50.42l-51.08 220.14h30L954 574.08c3.16-14.48-1.1-38.06-9.06-50.42l-164.96-251.32c-3.36-5.22-8.48-8.84-14.08-9.94-4.66-0.92-9.3 0.02-13.02 2.62-1.82 1.28-3.44 2.9-4.78 4.78 0.68 0.78 1.3 1.64 1.88 2.54l164.96 251.32z" opacity=".2" p-id="40818"></path><path d="M510.102 391.106a10 10 0 0 0-10 10v460.628a10 10 0 1 0 20 0V401.106a10 10 0 0 0-10-10zM489.5 477c-0.02-0.22-0.04-0.44-0.08-0.66-0.02-0.1 0-0.22-0.02-0.34-8.36-44.36-27.48-75.02-56.84-91.12-46.7-25.62-101.34-4.24-103.66-3.3-0.22 0.08-0.4 0.2-0.6 0.32-0.3 0.14-0.62 0.28-0.9 0.46s-0.56 0.38-0.82 0.58c-0.24 0.2-0.48 0.38-0.7 0.58-0.26 0.24-0.5 0.5-0.74 0.76-0.18 0.22-0.38 0.44-0.56 0.68-0.2 0.26-0.36 0.56-0.54 0.84-0.16 0.28-0.3 0.54-0.44 0.82s-0.24 0.6-0.36 0.9c-0.1 0.3-0.2 0.6-0.28 0.9-0.08 0.34-0.14 0.66-0.18 1-0.06 0.3-0.1 0.6-0.12 0.92-0.02 0.36 0 0.72 0.02 1.08 0.02 0.22 0 0.42 0.02 0.64 0.3 2.46 7.82 60.66 52.74 89.28 15.9 10.14 34.26 15.2 54.94 15.2 16.08 0 33.52-3.06 52.28-9.18 0.08-0.02 0.12-0.06 0.2-0.08 0.16-0.06 0.3-0.1 0.46-0.16 0.06-0.02 0.1-0.06 0.16-0.08 0.34-0.14 0.68-0.3 1-0.5 0.06-0.02 0.1-0.06 0.16-0.08 0.08-0.06 0.16-0.12 0.24-0.16l0.36-0.24c0.24-0.16 0.46-0.34 0.7-0.52 0.1-0.1 0.2-0.18 0.32-0.28 0.1-0.1 0.2-0.18 0.3-0.28l0.12-0.12c0.26-0.26 0.52-0.54 0.76-0.84 0.02-0.04 0.06-0.1 0.1-0.14 0.04-0.08 0.08-0.14 0.12-0.2l0.28-0.4c0.06-0.12 0.16-0.22 0.22-0.34 0.06-0.1 0.08-0.18 0.14-0.28 0.1-0.2 0.2-0.38 0.3-0.58 0.1-0.2 0.18-0.42 0.26-0.64 0.08-0.2 0.16-0.4 0.22-0.6a8.666 8.666 0 0 0 0.3-1.26c0.04-0.22 0.08-0.42 0.1-0.64 0.02-0.2 0.04-0.4 0.04-0.6 0.02-0.22 0.02-0.46 0.02-0.68-0.02-0.22-0.02-0.44-0.04-0.66z m-97.76-39.54l62.04 36.74c-26.8 5-49.44 1.8-67.48-9.66-28.12-17.84-38.72-51.58-42.22-66.94 15.08-4.32 49.58-11.26 78.86 4.82 18.78 10.3 32.5 28.62 41.02 54.56l-62.02-36.72a9.998 9.998 0 0 0-13.7 3.5c-2.82 4.76-1.26 10.9 3.5 13.7z" fill="#23130D" p-id="40819"></path><path d="M391.74 437.46l62.04 36.74c-26.8 5-49.44 1.8-67.48-9.66-28.12-17.84-38.72-51.58-42.22-66.94 15.08-4.32 49.58-11.26 78.86 4.82 18.78 10.3 32.5 28.62 41.02 54.56l-62.02-36.72a9.998 9.998 0 0 0-13.7 3.5c-2.82 4.76-1.26 10.9 3.5 13.7z" fill="#72AF5F" p-id="40820"></path><path d="M697.14 389.4c-0.04-0.32-0.1-0.64-0.18-0.98-0.08-0.3-0.18-0.6-0.28-0.9-0.12-0.3-0.22-0.62-0.36-0.9-0.14-0.28-0.3-0.54-0.44-0.82-0.18-0.28-0.36-0.58-0.56-0.84-0.16-0.24-0.36-0.46-0.56-0.68-0.22-0.26-0.46-0.52-0.72-0.76-0.22-0.2-0.46-0.4-0.7-0.58-0.28-0.2-0.54-0.4-0.82-0.58-0.3-0.18-0.6-0.32-0.9-0.46-0.22-0.12-0.4-0.24-0.62-0.32-2.3-0.94-56.94-22.32-103.64 3.3-29.36 16.1-48.5 46.76-56.84 91.12-0.02 0.12-0.02 0.24-0.04 0.36-0.04 0.24-0.06 0.46-0.08 0.7-0.02 0.16-0.02 0.34-0.02 0.52 0 0.26-0.02 0.52 0 0.76 0.02 0.22 0.02 0.44 0.06 0.66 0.02 0.16 0.04 0.34 0.08 0.5 0.04 0.26 0.08 0.52 0.14 0.78l0.18 0.6c0.06 0.18 0.12 0.34 0.18 0.5 0.1 0.24 0.18 0.48 0.3 0.7 0.1 0.22 0.2 0.42 0.32 0.62 0.04 0.08 0.06 0.16 0.1 0.24 0.06 0.1 0.14 0.2 0.2 0.3 0.12 0.16 0.22 0.32 0.34 0.48 0.08 0.1 0.14 0.22 0.22 0.32 0.2 0.26 0.42 0.48 0.64 0.72 0.08 0.08 0.14 0.16 0.22 0.24s0.18 0.16 0.26 0.22a7.214 7.214 0 0 0 1.02 0.82c0.14 0.1 0.28 0.18 0.42 0.28 0.04 0.02 0.08 0.06 0.14 0.08 0.08 0.04 0.16 0.12 0.24 0.16 0.3 0.16 0.62 0.3 0.92 0.44l0.24 0.12c0.14 0.06 0.28 0.1 0.42 0.14 0.08 0.02 0.14 0.06 0.22 0.1 18.76 6.12 36.22 9.18 52.28 9.18 20.68 0 39.06-5.06 54.96-15.2 44.92-28.62 52.44-86.82 52.74-89.28 0.02-0.22 0-0.42 0-0.64 0.02-0.36 0.04-0.72 0.02-1.08 0-0.32-0.06-0.62-0.1-0.94z m-63.42 75.08c-18.06 11.5-40.74 14.72-67.58 9.72l62.04-36.74a9.998 9.998 0 1 0-10.2-17.2l-62.02 36.72c8.48-25.88 22.18-44.2 40.9-54.52 29.16-16.06 63.86-9.14 79-4.82-3.46 15.32-13.98 48.9-42.14 66.84z" fill="#23130D" p-id="40821"></path><path d="M675.86 397.64c-3.46 15.32-13.98 48.9-42.14 66.84-18.06 11.5-40.74 14.72-67.58 9.72l62.04-36.74a9.998 9.998 0 1 0-10.2-17.2l-62.02 36.72c8.48-25.88 22.18-44.2 40.9-54.52 29.16-16.06 63.86-9.14 79-4.82z" fill="#72AF5F" p-id="40822"></path><path d="M489.5 634.34c-0.02-0.22-0.04-0.44-0.08-0.66-0.02-0.1 0-0.22-0.02-0.34-8.36-44.36-27.48-75.02-56.84-91.12-46.7-25.62-101.34-4.22-103.66-3.3-0.2 0.08-0.4 0.2-0.6 0.3-0.3 0.16-0.62 0.3-0.9 0.48s-0.56 0.38-0.82 0.58c-0.24 0.2-0.48 0.38-0.7 0.58-0.26 0.24-0.5 0.5-0.74 0.76-0.18 0.22-0.38 0.44-0.56 0.68-0.2 0.26-0.36 0.56-0.54 0.86-0.16 0.26-0.3 0.52-0.44 0.8s-0.24 0.6-0.36 0.9c-0.1 0.3-0.2 0.6-0.28 0.9-0.08 0.34-0.14 0.66-0.18 1-0.06 0.3-0.1 0.6-0.12 0.92-0.02 0.36 0 0.72 0.02 1.08 0.02 0.22 0 0.42 0.02 0.64 0.3 2.46 7.82 60.66 52.74 89.28 15.9 10.14 34.26 15.2 54.94 15.2 16.08 0 33.54-3.06 52.28-9.18 0.08-0.02 0.12-0.06 0.2-0.08 0.14-0.06 0.3-0.1 0.46-0.16 0.06-0.02 0.1-0.06 0.16-0.08 0.34-0.16 0.68-0.3 1-0.5 0.06-0.02 0.1-0.06 0.14-0.08 0.1-0.06 0.18-0.12 0.26-0.16l0.36-0.24c0.24-0.16 0.46-0.34 0.7-0.52 0.1-0.1 0.2-0.18 0.32-0.28 0.1-0.1 0.2-0.18 0.3-0.28l0.12-0.12c0.26-0.26 0.52-0.54 0.76-0.84 0.02-0.04 0.06-0.1 0.08-0.14 0.06-0.06 0.1-0.14 0.14-0.2 0.1-0.14 0.18-0.26 0.26-0.38 0.08-0.12 0.18-0.24 0.24-0.36 0.06-0.08 0.1-0.18 0.14-0.28 0.1-0.2 0.2-0.38 0.3-0.58 0.1-0.2 0.18-0.42 0.26-0.64 0.08-0.2 0.16-0.4 0.22-0.6a8.666 8.666 0 0 0 0.3-1.26c0.04-0.22 0.08-0.42 0.1-0.64 0.02-0.2 0.04-0.4 0.04-0.6 0.02-0.22 0.02-0.46 0.02-0.68-0.02-0.22-0.02-0.44-0.04-0.66z m-97.76-39.54l62.02 36.74c-26.78 5-49.42 1.8-67.46-9.66-28.12-17.84-38.72-51.58-42.22-66.92 15.08-4.34 49.58-11.26 78.86 4.8 18.78 10.3 32.5 28.62 41.02 54.56l-62.02-36.72a9.998 9.998 0 0 0-13.7 3.5c-2.82 4.76-1.26 10.9 3.5 13.7z" fill="#23130D" p-id="40823"></path><path d="M391.74 594.8l62.02 36.74c-26.78 5-49.42 1.8-67.46-9.66-28.12-17.84-38.72-51.58-42.22-66.92 15.08-4.34 49.58-11.26 78.86 4.8 18.78 10.3 32.5 28.62 41.02 54.56l-62.02-36.72a9.998 9.998 0 0 0-13.7 3.5c-2.82 4.76-1.26 10.9 3.5 13.7z" fill="#72AF5F" p-id="40824"></path><path d="M697.14 546.74c-0.04-0.32-0.1-0.64-0.18-0.96-0.08-0.32-0.18-0.62-0.3-0.92-0.1-0.3-0.2-0.62-0.34-0.9s-0.3-0.54-0.44-0.82c-0.18-0.28-0.36-0.58-0.56-0.84-0.16-0.24-0.36-0.46-0.56-0.68-0.22-0.26-0.46-0.52-0.72-0.76-0.22-0.2-0.46-0.38-0.7-0.58-0.28-0.2-0.54-0.4-0.82-0.58-0.3-0.18-0.6-0.32-0.9-0.48-0.22-0.1-0.4-0.22-0.62-0.3-2.3-0.94-56.94-22.32-103.64 3.3-29.36 16.1-48.5 46.76-56.84 91.12-0.02 0.12-0.02 0.24-0.04 0.36-0.04 0.24-0.06 0.46-0.08 0.7-0.02 0.16-0.02 0.34-0.02 0.52 0 0.26-0.02 0.52 0 0.78 0.02 0.2 0.02 0.42 0.06 0.64 0.02 0.16 0.04 0.34 0.08 0.52 0.04 0.26 0.08 0.5 0.14 0.76l0.18 0.6c0.06 0.18 0.12 0.34 0.18 0.5 0.1 0.24 0.18 0.48 0.3 0.7 0.1 0.22 0.2 0.42 0.32 0.62 0.04 0.08 0.06 0.16 0.1 0.24 0.06 0.1 0.14 0.2 0.2 0.3 0.12 0.16 0.22 0.32 0.34 0.48 0.08 0.12 0.14 0.22 0.22 0.32 0.2 0.26 0.42 0.48 0.64 0.72 0.08 0.08 0.14 0.16 0.22 0.24 0.08 0.08 0.18 0.16 0.26 0.22a7.214 7.214 0 0 0 1.02 0.82c0.14 0.1 0.28 0.18 0.42 0.28 0.04 0.02 0.08 0.06 0.14 0.08 0.08 0.04 0.16 0.12 0.24 0.16 0.3 0.16 0.6 0.3 0.92 0.44l0.24 0.12c0.14 0.06 0.28 0.1 0.42 0.14 0.08 0.02 0.14 0.06 0.22 0.1 18.76 6.12 36.22 9.18 52.28 9.18 20.68 0 39.06-5.06 54.96-15.2 44.92-28.62 52.44-86.82 52.74-89.28 0.02-0.22 0-0.42 0-0.64 0.02-0.36 0.04-0.72 0.02-1.08 0-0.32-0.06-0.62-0.1-0.94z m-63.42 75.08c-18.06 11.5-40.74 14.74-67.58 9.72l62.04-36.74a9.998 9.998 0 1 0-10.2-17.2l-62.02 36.72c8.48-25.88 22.18-44.2 40.9-54.5 29.16-16.06 63.86-9.16 79-4.84-3.46 15.32-13.98 48.9-42.14 66.84z" fill="#23130D" p-id="40825"></path><path d="M675.86 554.98c-3.46 15.32-13.98 48.9-42.14 66.84-18.06 11.5-40.74 14.74-67.58 9.72l62.04-36.74a9.998 9.998 0 1 0-10.2-17.2l-62.02 36.72c8.48-25.88 22.18-44.2 40.9-54.5 29.16-16.06 63.86-9.16 79-4.84z" fill="#72AF5F" p-id="40826"></path><path d="M489.5 791.68c-0.02-0.22-0.04-0.44-0.08-0.66-0.02-0.1 0-0.22-0.02-0.34-8.36-44.36-27.48-75.02-56.84-91.12-46.7-25.62-101.34-4.24-103.66-3.3-0.2 0.08-0.4 0.2-0.6 0.3-0.3 0.16-0.62 0.3-0.9 0.48s-0.56 0.38-0.82 0.58c-0.24 0.2-0.48 0.38-0.7 0.58-0.26 0.24-0.5 0.5-0.74 0.76-0.18 0.22-0.38 0.44-0.56 0.68-0.2 0.26-0.36 0.56-0.54 0.86-0.16 0.26-0.3 0.52-0.44 0.8s-0.24 0.6-0.36 0.9c-0.1 0.3-0.2 0.6-0.28 0.9-0.08 0.34-0.14 0.66-0.18 1-0.06 0.3-0.1 0.6-0.12 0.92-0.02 0.36 0 0.72 0.02 1.08 0.02 0.22 0 0.42 0.02 0.64 0.3 2.46 7.82 60.66 52.74 89.28 15.9 10.14 34.26 15.2 54.94 15.2 16.08 0 33.54-3.06 52.28-9.18 0.08-0.02 0.12-0.06 0.2-0.08 0.14-0.06 0.3-0.1 0.46-0.16 0.06-0.02 0.1-0.06 0.16-0.08 0.34-0.16 0.68-0.3 1-0.5 0.06-0.02 0.1-0.06 0.14-0.08 0.1-0.06 0.18-0.12 0.26-0.16l0.36-0.24c0.24-0.16 0.46-0.34 0.7-0.52 0.1-0.1 0.2-0.18 0.32-0.28 0.1-0.1 0.2-0.18 0.3-0.28l0.12-0.12c0.26-0.26 0.52-0.54 0.76-0.84 0.02-0.04 0.06-0.1 0.08-0.14 0.06-0.06 0.1-0.14 0.14-0.2 0.1-0.14 0.18-0.26 0.26-0.38 0.08-0.12 0.18-0.24 0.24-0.36 0.06-0.08 0.1-0.18 0.14-0.28 0.1-0.2 0.2-0.38 0.3-0.58s0.18-0.42 0.26-0.64c0.08-0.2 0.16-0.4 0.22-0.6a8.666 8.666 0 0 0 0.3-1.26c0.04-0.22 0.08-0.42 0.1-0.64 0.02-0.2 0.04-0.4 0.04-0.6 0.02-0.22 0.02-0.46 0.02-0.68-0.02-0.22-0.02-0.44-0.04-0.66z m-97.76-39.54l62.02 36.74c-26.78 5-49.42 1.8-67.46-9.66-28.12-17.84-38.72-51.58-42.22-66.94 15.08-4.32 49.58-11.26 78.86 4.8 18.78 10.32 32.5 28.64 41.02 54.58l-62.02-36.72a9.998 9.998 0 0 0-13.7 3.5c-2.82 4.76-1.26 10.9 3.5 13.7z" fill="#23130D" p-id="40827"></path><path d="M391.74 752.14l62.02 36.74c-26.78 5-49.42 1.8-67.46-9.66-28.12-17.84-38.72-51.58-42.22-66.94 15.08-4.32 49.58-11.26 78.86 4.8 18.78 10.32 32.5 28.64 41.02 54.58l-62.02-36.72a9.998 9.998 0 0 0-13.7 3.5c-2.82 4.76-1.26 10.9 3.5 13.7z" fill="#72AF5F" p-id="40828"></path><path d="M697.14 704.08c-0.04-0.32-0.1-0.64-0.18-0.98-0.08-0.3-0.18-0.6-0.3-0.9-0.1-0.3-0.2-0.62-0.34-0.9s-0.3-0.54-0.44-0.82c-0.18-0.28-0.36-0.58-0.56-0.84-0.16-0.24-0.36-0.46-0.56-0.68-0.22-0.26-0.46-0.52-0.72-0.76-0.22-0.2-0.46-0.38-0.7-0.58-0.28-0.2-0.54-0.4-0.82-0.58-0.3-0.18-0.6-0.32-0.9-0.48-0.22-0.1-0.4-0.22-0.62-0.3-2.3-0.94-56.94-22.32-103.64 3.3-29.36 16.1-48.5 46.76-56.84 91.12-0.02 0.12-0.02 0.24-0.04 0.36-0.04 0.24-0.06 0.46-0.08 0.7-0.02 0.16-0.02 0.34-0.02 0.52 0 0.26-0.02 0.52 0 0.78 0.02 0.2 0.02 0.42 0.06 0.64 0.02 0.16 0.04 0.34 0.08 0.52 0.04 0.26 0.08 0.5 0.14 0.76l0.18 0.6c0.06 0.18 0.12 0.34 0.18 0.5 0.1 0.24 0.18 0.48 0.3 0.7 0.1 0.22 0.2 0.42 0.32 0.62 0.04 0.08 0.06 0.16 0.1 0.24 0.06 0.1 0.14 0.2 0.2 0.3 0.12 0.16 0.22 0.32 0.34 0.48 0.08 0.12 0.14 0.22 0.22 0.32 0.2 0.26 0.42 0.48 0.64 0.72 0.08 0.08 0.14 0.16 0.22 0.24 0.08 0.08 0.18 0.16 0.26 0.22a7.214 7.214 0 0 0 1.02 0.82c0.14 0.1 0.28 0.18 0.42 0.28 0.04 0.02 0.08 0.06 0.14 0.08 0.08 0.04 0.16 0.12 0.24 0.16 0.3 0.16 0.6 0.3 0.92 0.44l0.24 0.12c0.14 0.06 0.28 0.1 0.42 0.14 0.08 0.02 0.14 0.06 0.22 0.1 18.76 6.12 36.22 9.18 52.28 9.18 20.68 0 39.06-5.06 54.96-15.2 44.92-28.62 52.44-86.82 52.74-89.28 0.02-0.22 0-0.42 0-0.64 0.02-0.36 0.04-0.72 0.02-1.08 0-0.32-0.06-0.62-0.1-0.94z m-63.42 75.08c-18.06 11.5-40.74 14.74-67.58 9.72l62.04-36.74a9.998 9.998 0 1 0-10.2-17.2l-62.02 36.72c8.48-25.88 22.18-44.2 40.9-54.5 29.16-16.08 63.86-9.16 79-4.84-3.46 15.32-13.98 48.9-42.14 66.84z" fill="#23130D" p-id="40829"></path><path d="M675.86 712.32c-3.46 15.32-13.98 48.9-42.14 66.84-18.06 11.5-40.74 14.74-67.58 9.72l62.04-36.74a9.998 9.998 0 1 0-10.2-17.2l-62.02 36.72c8.48-25.88 22.18-44.2 40.9-54.5 29.16-16.08 63.86-9.16 79-4.84z" fill="#72AF5F" p-id="40830"></path><path d="M594.36 221.88c-3.78-86.34-79.78-144.36-83.02-146.78-0.16-0.14-0.34-0.22-0.52-0.32-0.32-0.22-0.62-0.42-0.96-0.58-0.26-0.14-0.54-0.24-0.82-0.36-0.32-0.12-0.64-0.26-0.98-0.34-0.28-0.08-0.58-0.14-0.88-0.2-0.34-0.06-0.68-0.12-1.02-0.14-0.28-0.04-0.56-0.04-0.84-0.02-0.36 0-0.74 0-1.1 0.04-0.26 0.04-0.5 0.08-0.76 0.14a7.01 7.01 0 0 0-1.86 0.54c-0.34 0.14-0.7 0.3-1.04 0.48-0.24 0.14-0.48 0.3-0.72 0.46-0.22 0.14-0.46 0.26-0.68 0.42-3.18 2.5-77.88 62.16-79.76 148.58-1.2 54.2 26.6 106.06 82.56 154.14 0.14 0.12 0.28 0.2 0.42 0.3s0.28 0.22 0.42 0.32c0.12 0.08 0.24 0.16 0.38 0.24 0.3 0.18 0.6 0.34 0.92 0.5 0.16 0.08 0.3 0.18 0.46 0.24 0.08 0.04 0.16 0.06 0.26 0.1 0.4 0.16 0.82 0.28 1.24 0.38 0.14 0.04 0.26 0.1 0.4 0.12 0.04 0.02 0.08 0.02 0.14 0.02 0.62 0.12 1.24 0.2 1.88 0.2h0.12c0.1-0.02 0.18-0.04 0.28-0.04 0.52-0.02 1.04-0.06 1.54-0.16 0.06-0.02 0.12-0.02 0.18-0.04 0.18-0.04 0.34-0.12 0.52-0.16 0.38-0.1 0.76-0.22 1.14-0.36 0.08-0.04 0.18-0.06 0.26-0.1 0.18-0.08 0.32-0.18 0.5-0.28 0.3-0.16 0.6-0.3 0.9-0.5l0.36-0.24c0.16-0.12 0.32-0.26 0.48-0.38 0.12-0.1 0.28-0.18 0.4-0.3 54.92-49.3 81.56-101.76 79.2-155.92z m-76.12 125.26l-1.52-138.64c-0.06-5.52-4.58-9.98-10.12-9.88a9.988 9.988 0 0 0-9.88 10.1l1.52 138.64c-39.94-39.38-59.74-80.66-58.86-123 1.34-63.4 49.02-112.54 66.1-128.16 17.44 15.24 66.18 63.32 68.9 126.7 1.8 42.28-17.08 84-56.14 124.24z" fill="#23130D" p-id="40831"></path><path d="M518.24 347.14l-1.52-138.64c-0.06-5.52-4.58-9.98-10.12-9.88a9.988 9.988 0 0 0-9.88 10.1l1.52 138.64c-39.94-39.38-59.74-80.66-58.86-123 1.34-63.4 49.02-112.54 66.1-128.16 17.44 15.24 66.18 63.32 68.9 126.7 1.8 42.28-17.08 84-56.14 124.24z" fill="#72AF5F" p-id="40832"></path><path d="M517.46 107.48c-20.98 22.1-53.54 64.66-54.64 116.88-0.68 32.88 11.1 65.12 35.12 96.34l0.3 26.66c-39.94-39.38-59.74-80.66-58.86-123 1.34-63.4 49.02-112.54 66.1-128.16 3.12 2.74 7.26 6.52 11.98 11.28z" opacity=".2" p-id="40833"></path><path d="M518.24 347.14l-0.3-27.18c23.32-31.74 34.4-64.22 33-97.06-2.24-52-35.46-93.72-56.92-115.42 4.48-4.74 8.44-8.54 11.46-11.28 17.44 15.24 66.18 63.32 68.9 126.7 1.8 42.28-17.08 84-56.14 124.24z" fill="#FFFFFF" opacity=".5" p-id="40834"></path><path d="M463.96 456.98l-8.1-4.8c-8.26-15.86-19.24-27.6-32.92-35.1-27-14.82-58.44-10.08-75-5.86a143.14 143.14 0 0 1-3.86-13.62c15.08-4.32 49.58-11.26 78.86 4.82 18.78 10.3 32.5 28.62 41.02 54.56z" fill="#FFFFFF" opacity=".5" p-id="40835"></path><path d="M453.78 474.2c-26.8 5-49.44 1.8-67.48-9.66-28.12-17.84-38.72-51.58-42.22-66.94 1.18-0.34 2.46-0.68 3.86-1.04 5.68 16.9 16.92 39.72 38.36 53.32 13.12 8.34 28.7 12.3 46.52 11.9l20.96 12.42z" opacity=".2" p-id="40836"></path><path d="M463.96 614.326l-8.1-4.8c-8.26-15.86-19.24-27.6-32.92-35.1-27-14.82-58.44-10.08-75-5.86a143.14 143.14 0 0 1-3.86-13.62c15.08-4.32 49.58-11.26 78.86 4.82 18.78 10.3 32.5 28.62 41.02 54.56z" fill="#FFFFFF" opacity=".5" p-id="40837"></path><path d="M453.78 631.544c-26.8 5-49.44 1.8-67.48-9.66-28.12-17.84-38.72-51.58-42.22-66.94 1.18-0.34 2.46-0.68 3.86-1.04 5.68 16.9 16.92 39.72 38.36 53.32 13.12 8.34 28.7 12.3 46.52 11.9l20.96 12.42z" opacity=".2" p-id="40838"></path><path d="M463.96 771.67l-8.1-4.8c-8.26-15.86-19.24-27.6-32.92-35.1-27-14.82-58.44-10.08-75-5.86a143.14 143.14 0 0 1-3.86-13.62c15.08-4.32 49.58-11.26 78.86 4.82 18.78 10.3 32.5 28.62 41.02 54.56z" fill="#FFFFFF" opacity=".5" p-id="40839"></path><path d="M453.78 788.89c-26.8 5-49.44 1.8-67.48-9.66-28.12-17.84-38.72-51.58-42.22-66.94 1.18-0.34 2.46-0.68 3.86-1.04 5.68 16.9 16.92 39.72 38.36 53.32 13.12 8.34 28.7 12.3 46.52 11.9l20.96 12.42z" opacity=".2" p-id="40840"></path><path d="M555.994 456.98l8.1-4.8c8.26-15.86 19.24-27.6 32.92-35.1 27-14.82 58.44-10.08 75-5.86a143.14 143.14 0 0 0 3.86-13.62c-15.08-4.32-49.58-11.26-78.86 4.82-18.78 10.3-32.5 28.62-41.02 54.56z" fill="#FFFFFF" opacity=".5" p-id="40841"></path><path d="M566.174 474.2c26.8 5 49.44 1.8 67.48-9.66 28.12-17.84 38.72-51.58 42.22-66.94-1.18-0.34-2.46-0.68-3.86-1.04-5.68 16.9-16.92 39.72-38.36 53.32-13.12 8.34-28.7 12.3-46.52 11.9l-20.96 12.42z" opacity=".2" p-id="40842"></path><path d="M555.994 614.326l8.1-4.8c8.26-15.86 19.24-27.6 32.92-35.1 27-14.82 58.44-10.08 75-5.86a143.14 143.14 0 0 0 3.86-13.62c-15.08-4.32-49.58-11.26-78.86 4.82-18.78 10.3-32.5 28.62-41.02 54.56z" fill="#FFFFFF" opacity=".5" p-id="40843"></path><path d="M566.174 631.544c26.8 5 49.44 1.8 67.48-9.66 28.12-17.84 38.72-51.58 42.22-66.94-1.18-0.34-2.46-0.68-3.86-1.04-5.68 16.9-16.92 39.72-38.36 53.32-13.12 8.34-28.7 12.3-46.52 11.9l-20.96 12.42z" opacity=".2" p-id="40844"></path><path d="M555.994 771.67l8.1-4.8c8.26-15.86 19.24-27.6 32.92-35.1 27-14.82 58.44-10.08 75-5.86a143.14 143.14 0 0 0 3.86-13.62c-15.08-4.32-49.58-11.26-78.86 4.82-18.78 10.3-32.5 28.62-41.02 54.56z" fill="#FFFFFF" opacity=".5" p-id="40845"></path><path d="M566.174 788.89c26.8 5 49.44 1.8 67.48-9.66 28.12-17.84 38.72-51.58 42.22-66.94-1.18-0.34-2.46-0.68-3.86-1.04-5.68 16.9-16.92 39.72-38.36 53.32-13.12 8.34-28.7 12.3-46.52 11.9l-20.96 12.42z" opacity=".2" p-id="40846"></path></svg>