<?xml version="1.0" standalone="no"?><!DOCTYPE svg PUBLIC "-//W3C//DTD SVG 1.1//EN" "http://www.w3.org/Graphics/SVG/1.1/DTD/svg11.dtd"><svg t="1625811830721" class="icon" viewBox="0 0 1024 1024" version="1.1" xmlns="http://www.w3.org/2000/svg" p-id="40156" xmlns:xlink="http://www.w3.org/1999/xlink" width="200" height="200"><defs><style type="text/css"></style></defs><path d="M945.36 660.12c-14.14-20.2-45.38-27.98-69.7-17.36l-19.98 8.24c-21.94-33.66-57.12-62.36-102.36-83.34-46.34-21.48-100.3-33.4-156.64-34.64v-144.74c0-5.52-4.48-10-10-10s-10 4.48-10 10v144.74c-109.62 2.52-208.3 46.1-255.28 112.82h-59.44v-17.4c0-18.38-14.94-33.32-33.32-33.32H193.92v-15.3c0-5.52-4.48-10-10-10H80.86c-5.52 0-10 4.48-10 10v379.14c0 5.52 4.48 10 10 10h103.06c5.52 0 10-4.48 10-10v-20.06h34.72c18.38 0 33.32-14.94 33.32-33.32v-22.2l273.3 63.4c5.74 1.26 12.12 1.86 18.78 1.86 21.34 0 45.58-6.14 61.48-16.36l314.42-206.38c11.64-7.5 19.78-19.24 22.34-32.22 2.34-11.9-0.12-23.82-6.92-33.56zM173.92 948.96H90.86V589.82h83.06v359.14z m68.04-43.38c0 7.34-5.98 13.32-13.32 13.32H193.92V615.12h34.72c7.34 0 13.32 5.98 13.32 13.32v277.14z m344.82-352.68c107.68 0 206.16 42.16 250 105.9l-126.96 52.38c-6.82-20.76-26.64-35.58-49.94-35.58h-146.64c-10.96 0-26.16-1.62-41.66-4.44-14.28-2.64-27.48-6.04-37.18-9.58l-0.86-0.34c-0.08-0.04-0.16-0.08-0.24-0.1-21.82-8-53.38-13.3-87.06-14.82 47.76-57.24 139.58-93.42 240.54-93.42z m345.88 136.92c-1.52 7.68-6.46 14.68-13.62 19.3L604.62 915.5c-16.3 10.5-46.12 15.88-64.98 11.76l-277.68-64.42v-197h64.24c38.68 0 76.08 5.24 100.08 14.02l0.86 0.34c0.08 0.04 0.16 0.06 0.24 0.1 10.74 3.96 25.16 7.7 40.6 10.52 16.9 3.08 32.98 4.78 45.26 4.78h146.64c17.4 0 31.64 13.16 32.46 29.96v0.26c0.04 0.4 0.06 0.82 0.06 1.24 0 1.98-0.2 4-0.62 6.02-2.96 14.72-16.38 25.42-31.9 25.42h-146.42c-4.26-0.18-43.54-0.98-76.2 27.24a10.004 10.004 0 0 0-1.04 14.1 9.936 9.936 0 0 0 7.58 3.46c2.3 0 4.64-0.8 6.52-2.42 27.56-23.82 62.04-22.42 62.36-22.4 0.18 0.02 0.36 0.02 0.56 0.02h146.64c25.02 0 46.68-17.46 51.5-41.44 0.36-1.72 0.6-3.46 0.78-5.2l171.22-70.66c0.08-0.02 0.14-0.04 0.22-0.08 15.78-6.94 36.56-2.14 45.36 10.48 3.66 5.22 4.98 11.7 3.7 18.22z" fill="#23130D" p-id="40157"></path><path d="M90.86 589.82h83.06v359.14H90.86z" fill="#EC7063" p-id="40158"></path><path d="M151.666 589.82H173.92v359.14H151.666z" fill="#FFFFFF" opacity=".4" p-id="40159"></path><path d="M90.86 589.82h22.254v359.14H90.86z" opacity=".2" p-id="40160"></path><path d="M241.96 628.44v277.14c0 7.34-5.98 13.32-13.32 13.32H193.92V615.12h34.72c7.34 0 13.32 5.98 13.32 13.32z" fill="#E1E1E5" p-id="40161"></path><path d="M193.92 615.12h24.02v303.78H193.92z" opacity=".2" p-id="40162"></path><path d="M836.78 658.8l-126.96 52.38c-6.82-20.76-26.64-35.58-49.94-35.58h-146.64c-10.96 0-26.16-1.62-41.66-4.44-14.28-2.64-27.48-6.04-37.18-9.58l-0.86-0.34c-0.08-0.04-0.16-0.08-0.24-0.1-21.82-8-53.38-13.3-87.06-14.82 47.76-57.24 139.58-93.42 240.54-93.42 107.68 0 206.16 42.16 250 105.9z" fill="#E59D89" p-id="40163"></path><path d="M836.78 658.8l-15.66 6.46c-49.08-52.74-138.04-86.46-234.34-86.46-85.92 0-165.22 26.2-216.38 69.3-7.86-0.82-15.94-1.4-24.16-1.78 47.76-57.24 139.58-93.42 240.54-93.42 107.68 0 206.16 42.16 250 105.9z" fill="#FFFFFF" opacity=".4" p-id="40164"></path><path d="M836.78 658.8l-126.96 52.38c-6.82-20.76-26.64-35.58-49.94-35.58h-146.64c-10.96 0-26.16-1.62-41.66-4.44-14.28-2.64-27.48-6.04-37.18-9.58l-0.86-0.34c-0.08-0.04-0.16-0.08-0.24-0.1-21.82-8-53.38-13.3-87.06-14.82 7.12-8.52 15.2-16.58 24.16-24.12 24.34 2.48 46.4 7 62.9 13.04 0.08 0.02 0.16 0.06 0.24 0.1l0.86 0.34c9.7 3.54 22.9 6.94 37.18 9.58 15.5 2.82 30.7 4.44 41.66 4.44h146.64c23.3 0 43.12 14.82 49.94 35.58l111.3-45.92c5.78 6.22 11.02 12.7 15.66 19.44z" opacity=".2" p-id="40165"></path><path d="M932.66 689.82c-1.52 7.68-6.46 14.68-13.62 19.3L604.62 915.5c-16.3 10.5-46.12 15.88-64.98 11.76l-277.68-64.42v-197h64.24c38.68 0 76.08 5.24 100.08 14.02l0.86 0.34c0.08 0.04 0.16 0.06 0.24 0.1 10.74 3.96 25.16 7.7 40.6 10.52 16.9 3.08 32.98 4.78 45.26 4.78h146.64c17.4 0 31.64 13.16 32.46 29.96v0.26c0.04 0.4 0.06 0.82 0.06 1.24 0 1.98-0.2 4-0.62 6.02-2.96 14.72-16.38 25.42-31.9 25.42h-146.42c-4.26-0.18-43.54-0.98-76.2 27.24a10.004 10.004 0 0 0-1.04 14.1 9.936 9.936 0 0 0 7.58 3.46c2.3 0 4.64-0.8 6.52-2.42 27.56-23.82 62.04-22.42 62.36-22.4 0.18 0.02 0.36 0.02 0.56 0.02h146.64c25.02 0 46.68-17.46 51.5-41.44 0.36-1.72 0.6-3.46 0.78-5.2l171.22-70.66c0.08-0.02 0.14-0.04 0.22-0.08 15.78-6.94 36.56-2.14 45.36 10.48 3.66 5.22 4.98 11.7 3.7 18.22z" fill="#F8D3C9" p-id="40166"></path><path d="M692.4 727.06c0 1.98-0.2 4-0.62 6.02-0.46 2.26-1.16 4.44-2.08 6.48-4.98-11.2-16.46-18.96-29.82-18.96h-146.64c-12.28 0-28.36-1.7-45.26-4.78-15.44-2.82-29.86-6.56-40.6-10.52-0.08-0.04-0.16-0.06-0.24-0.1l-0.86-0.34c-24-8.78-61.4-14.02-100.08-14.02h-64.24v-25h64.24c38.68 0 76.08 5.24 100.08 14.02l0.86 0.34c0.08 0.04 0.16 0.06 0.24 0.1 10.74 3.96 25.16 7.7 40.6 10.52 16.9 3.08 32.98 4.78 45.26 4.78h146.64c17.4 0 31.64 13.16 32.46 29.96v0.26c0.04 0.4 0.06 0.82 0.06 1.24z" fill="#FFFFFF" opacity=".4" p-id="40167"></path><path d="M932.66 689.82c-1.52 7.68-6.46 14.68-13.62 19.3L604.62 915.5c-16.3 10.5-46.12 15.88-64.98 11.76l-277.68-64.42v-25l277.68 64.42c18.86 4.12 48.68-1.26 64.98-11.76l314.42-206.38c4.58-2.96 8.24-6.88 10.68-11.34 3.08 5 4.12 11 2.94 17.04z" opacity=".2" p-id="40168"></path><path d="M548.5 459.54c-0.02-0.22-0.06-0.44-0.1-0.66-0.02-0.12 0-0.24-0.02-0.36-13.38-71.04-43.76-120.02-90.34-145.56-74.26-40.74-161.48-6.58-165.14-5.12-0.24 0.1-0.44 0.24-0.68 0.36-0.28 0.14-0.54 0.26-0.82 0.42-0.3 0.2-0.6 0.42-0.88 0.64-0.22 0.16-0.44 0.34-0.64 0.52-0.28 0.26-0.52 0.52-0.76 0.8-0.18 0.2-0.38 0.42-0.54 0.64-0.2 0.28-0.38 0.58-0.56 0.88-0.16 0.26-0.3 0.52-0.44 0.8-0.12 0.28-0.24 0.58-0.34 0.88-0.12 0.32-0.22 0.62-0.3 0.94-0.08 0.3-0.12 0.62-0.18 0.92-0.04 0.34-0.1 0.66-0.1 1-0.02 0.32 0 0.66 0.02 0.98 0 0.24-0.02 0.48 0 0.72 0.48 3.94 12.48 96.82 83.9 142.34 25.1 16 54.2 24 87.04 24 25.76 0 53.82-4.94 84.04-14.8 0.06-0.02 0.12-0.06 0.18-0.08 0.16-0.06 0.32-0.1 0.46-0.16 0.06-0.02 0.12-0.06 0.18-0.08 0.34-0.14 0.66-0.3 0.98-0.48l0.18-0.12c0.06-0.04 0.14-0.1 0.22-0.14l0.36-0.24c0.24-0.16 0.46-0.34 0.68-0.52 0.12-0.1 0.24-0.18 0.34-0.28s0.2-0.18 0.3-0.26c0.06-0.06 0.1-0.12 0.14-0.16 0.26-0.26 0.5-0.52 0.72-0.82a1.1 1.1 0 0 0 0.14-0.18c0.04-0.04 0.06-0.1 0.1-0.16 0.1-0.12 0.2-0.26 0.28-0.4 0.08-0.12 0.16-0.22 0.24-0.34 0.04-0.08 0.06-0.18 0.12-0.26 0.1-0.2 0.2-0.4 0.3-0.58 0.1-0.22 0.2-0.44 0.28-0.68 0.08-0.18 0.14-0.38 0.2-0.56 0.06-0.2 0.12-0.38 0.16-0.58 0.06-0.24 0.1-0.48 0.16-0.72 0.02-0.2 0.06-0.4 0.08-0.6 0.04-0.2 0.04-0.4 0.06-0.6v-0.72c0-0.22-0.02-0.42-0.02-0.62z m-151.26-71.22l116.3 68.88c-52.92 13.26-97.3 8.8-132.1-13.32-52.14-33.16-69.1-97.66-73.54-120.06 21.78-6.88 86.5-23.04 140.64 6.74 36.14 19.88 61.36 56.64 75.2 109.42l-116.32-68.86c-4.74-2.82-10.88-1.24-13.7 3.5a10.008 10.008 0 0 0 3.52 13.7z" fill="#23130D" p-id="40169"></path><path d="M397.24 388.32l116.3 68.88c-52.92 13.26-97.3 8.8-132.1-13.32-52.14-33.16-69.1-97.66-73.54-120.06 21.78-6.88 86.5-23.04 140.64 6.74 36.14 19.88 61.36 56.64 75.2 109.42l-116.32-68.86c-4.74-2.82-10.88-1.24-13.7 3.5a10.008 10.008 0 0 0 3.52 13.7z" fill="#72AF5F" p-id="40170"></path><path d="M523.74 439.98l-10.18-6.04c-14.7-36.4-36.44-62.66-65.02-78.38-49.86-27.42-108.7-15.88-134.7-8.52a229.26 229.26 0 0 1-5.94-23.22c21.78-6.88 86.5-23.04 140.64 6.74 36.14 19.88 61.36 56.64 75.2 109.42z" fill="#FFFFFF" opacity=".4" p-id="40171"></path><path d="M513.54 457.2c-52.92 13.26-97.3 8.8-132.1-13.32-52.14-33.16-69.1-97.66-73.54-120.06 1.72-0.54 3.7-1.14 5.94-1.78 9.04 29.16 28.36 71.88 67.6 96.84 27.52 17.5 61.02 23.94 100.02 19.32l32.08 19z" opacity=".2" p-id="40172"></path><path d="M880.32 315.7c-0.06-0.34-0.1-0.66-0.18-1-0.08-0.3-0.18-0.58-0.28-0.86-0.12-0.34-0.24-0.66-0.38-0.96-0.12-0.26-0.26-0.5-0.4-0.74-0.18-0.32-0.38-0.64-0.6-0.94-0.14-0.2-0.32-0.38-0.48-0.58-0.26-0.3-0.52-0.58-0.82-0.84-0.18-0.18-0.38-0.32-0.58-0.48-0.3-0.24-0.62-0.48-0.96-0.68-0.22-0.14-0.48-0.26-0.72-0.38s-0.48-0.28-0.74-0.4c-3.68-1.46-90.88-35.62-165.14 5.12-46.58 25.54-76.98 74.52-90.34 145.56-0.04 0.12-0.02 0.24-0.04 0.36-0.04 0.24-0.06 0.48-0.08 0.7-0.02 0.18-0.02 0.34-0.02 0.5-0.02 0.28-0.02 0.54 0 0.8 0 0.22 0.02 0.44 0.06 0.64 0 0.18 0.04 0.34 0.06 0.5 0.06 0.26 0.1 0.52 0.16 0.78 0.06 0.22 0.12 0.42 0.18 0.62l0.18 0.48a6.478 6.478 0 0 0 0.62 1.34c0.04 0.08 0.06 0.16 0.1 0.22 0.06 0.1 0.14 0.18 0.2 0.28 0.1 0.18 0.22 0.34 0.34 0.5 0.08 0.12 0.14 0.24 0.22 0.34 0.2 0.24 0.42 0.46 0.62 0.68 0.08 0.08 0.16 0.18 0.26 0.28 0.06 0.06 0.16 0.14 0.24 0.2a7.214 7.214 0 0 0 1.02 0.82c0.14 0.1 0.28 0.18 0.42 0.28 0.04 0.02 0.08 0.04 0.12 0.08 0.08 0.04 0.18 0.12 0.26 0.16 0.3 0.18 0.6 0.3 0.92 0.44l0.24 0.12c0.14 0.06 0.28 0.1 0.42 0.14 0.08 0.02 0.14 0.08 0.22 0.1 30.22 9.86 58.26 14.8 84.04 14.8 32.82 0 61.94-8.02 87.04-24 71.42-45.52 83.42-138.4 83.9-142.34 0.02-0.22 0-0.42 0-0.64 0.02-0.36 0.04-0.72 0.02-1.08-0.02-0.32-0.06-0.62-0.1-0.92z m-94.68 128.18c-34.8 22.12-79.18 26.58-132.12 13.32l116.32-68.88a10.002 10.002 0 0 0 3.5-13.7c-2.8-4.76-8.94-6.32-13.7-3.5l-116.3 68.86c13.82-52.78 39.06-89.56 75.2-109.42 54.14-29.78 118.86-13.62 140.64-6.74-4.44 22.4-21.4 86.9-73.54 120.06z" fill="#23130D" p-id="40173"></path><path d="M859.18 323.82c-4.44 22.4-21.4 86.9-73.54 120.06-34.8 22.12-79.18 26.58-132.12 13.32l116.32-68.88a10.002 10.002 0 0 0 3.5-13.7c-2.8-4.76-8.94-6.32-13.7-3.5l-116.3 68.86c13.82-52.78 39.06-89.56 75.2-109.42 54.14-29.78 118.86-13.62 140.64-6.74z" fill="#72AF5F" p-id="40174"></path><path d="M669.34 200.86c-3.7-84.6-78.14-141.44-81.32-143.82-0.16-0.12-0.34-0.2-0.52-0.32-0.32-0.2-0.62-0.4-0.96-0.58-0.26-0.14-0.54-0.24-0.84-0.36-0.3-0.12-0.62-0.24-0.94-0.34-0.32-0.08-0.62-0.14-0.92-0.2-0.34-0.06-0.66-0.12-0.98-0.14-0.3-0.02-0.6-0.02-0.9-0.02-0.36 0-0.7 0-1.04 0.04-0.28 0.04-0.56 0.1-0.84 0.14-0.36 0.08-0.7 0.16-1.04 0.26-0.28 0.08-0.56 0.2-0.84 0.32-0.32 0.12-0.62 0.26-0.92 0.42-0.3 0.16-0.56 0.34-0.84 0.54-0.2 0.12-0.4 0.22-0.6 0.38-3.12 2.44-76.3 60.9-78.14 145.56-1.18 53.12 26.04 103.92 80.88 151.02 0.14 0.12 0.28 0.2 0.42 0.3 0.14 0.12 0.28 0.24 0.42 0.34 0.12 0.08 0.24 0.14 0.36 0.22 0.3 0.2 0.62 0.36 0.94 0.52 0.14 0.06 0.3 0.16 0.46 0.24 0.08 0.02 0.16 0.04 0.24 0.08 0.4 0.16 0.82 0.28 1.24 0.38 0.14 0.04 0.28 0.1 0.42 0.14h0.12c0.62 0.12 1.26 0.2 1.9 0.2h0.1c0.08 0 0.14-0.02 0.2-0.02 0.56-0.02 1.1-0.08 1.64-0.18l0.44-0.12 0.22-0.06c0.4-0.1 0.8-0.22 1.18-0.38 0.08-0.04 0.16-0.06 0.24-0.08 0.18-0.08 0.34-0.2 0.52-0.28 0.3-0.16 0.6-0.32 0.9-0.52 0.12-0.08 0.24-0.14 0.36-0.22 0.16-0.12 0.3-0.26 0.46-0.4 0.14-0.1 0.28-0.18 0.42-0.3 53.8-48.28 79.88-99.68 77.56-152.76z m-74.5 122.08l-1.48-135.16c-0.06-5.52-4.52-10-10.1-9.9a10.02 10.02 0 0 0-9.9 10.12l1.48 135.16c-38.8-38.38-58.02-78.62-57.16-119.84 1.3-61.82 47.68-109.78 64.5-125.18 17.14 14.98 64.48 61.72 67.18 123.6 1.82 41.24-16.52 81.94-54.52 121.2z" fill="#23130D" p-id="40175"></path><path d="M594.84 322.94l-1.48-135.16c-0.06-5.52-4.52-10-10.1-9.9a10.02 10.02 0 0 0-9.9 10.12l1.48 135.16c-38.8-38.38-58.02-78.62-57.16-119.84 1.3-61.82 47.68-109.78 64.5-125.18 17.14 14.98 64.48 61.72 67.18 123.6 1.82 41.24-16.52 81.94-54.52 121.2z" fill="#72AF5F" p-id="40176"></path><path d="M594.44 89.74c-20.54 21.8-51.7 63.06-52.76 113.58-0.66 31.42 10.36 62.28 32.86 92.18l0.3 27.66c-38.8-38.38-58.02-78.62-57.16-119.84 1.3-61.82 47.68-109.78 64.5-125.18 3.2 2.8 7.44 6.7 12.26 11.6z" fill="#FFFFFF" opacity=".4" p-id="40177"></path><path d="M594.84 322.94l-0.3-28.14c21.86-30.44 32.2-61.6 30.82-93.06-2.2-50.34-33.94-90.66-54.92-112 4.6-4.88 8.66-8.78 11.74-11.6 17.14 14.98 64.48 61.72 67.18 123.6 1.82 41.24-16.52 81.94-54.52 121.2z" opacity=".2" p-id="40178"></path><path d="M643.34 439.98l10.18-6.04c14.7-36.4 36.44-62.66 65.02-78.38 49.86-27.42 108.7-15.88 134.7-8.52 2.98-9.58 4.84-17.68 5.94-23.22-21.78-6.88-86.5-23.04-140.64 6.74-36.14 19.88-61.36 56.64-75.2 109.42z" fill="#FFFFFF" opacity=".4" p-id="40179"></path><path d="M653.54 457.2c52.92 13.26 97.3 8.8 132.1-13.32 52.14-33.16 69.1-97.66 73.54-120.06-1.72-0.54-3.7-1.14-5.94-1.78-9.04 29.16-28.36 71.88-67.6 96.84-27.52 17.5-61.02 23.94-100.02 19.32l-32.08 19z" opacity=".2" p-id="40180"></path></svg>