<?xml version="1.0" standalone="no"?><!DOCTYPE svg PUBLIC "-//W3C//DTD SVG 1.1//EN" "http://www.w3.org/Graphics/SVG/1.1/DTD/svg11.dtd"><svg t="1625812255799" class="icon" viewBox="0 0 1024 1024" version="1.1" xmlns="http://www.w3.org/2000/svg" p-id="57194" xmlns:xlink="http://www.w3.org/1999/xlink" width="200" height="200"><defs><style type="text/css"></style></defs><path d="M817.48 349.18c5.52 0 10-4.48 10-10v-17.52h96.12c5.54 0 10-4.48 10-10 0-5.54-4.46-10-10-10h-96.12v-17.54c0-5.52-4.48-10-10-10h-45.06v-58.5h45.06c5.52 0 10-4.48 10-10v-17.54h96.12c5.54 0 10-4.46 10-10 0-5.52-4.46-10-10-10h-96.12v-17.52c0-5.52-4.48-10-10-10h-45.06v-72.2c0-5.52-4.48-10-10-10H261.58c-5.52 0-10 4.48-10 10v72.2h-45.06c-5.52 0-10 4.48-10 10v17.54H100.4c-5.54 0-10 4.48-10 10s4.46 10 10 10h96.12v17.52c0 5.52 4.48 10 10 10h45.06v58.52h-45.06c-5.52 0-10 4.46-10 10v17.52H100.4c-5.54 0-10 4.48-10 10s4.46 10 10 10h96.12v17.52c0 5.52 4.48 10 10 10h45.06v58.52h-45.06c-5.52 0-10 4.48-10 10v17.52H100.4c-5.54 0-10 4.48-10 10s4.46 10 10 10h96.12v17.52c0 5.54 4.48 10 10 10h45.06v58.52h-45.06c-5.52 0-10 4.48-10 10v17.52H100.4c-5.54 0-10 4.48-10 10s4.46 10 10 10h96.12v17.54c0 5.52 4.48 10 10 10h45.06v58.5h-45.06c-5.52 0-10 4.48-10 10v17.52H100.4c-5.54 0-10 4.48-10 10 0 5.54 4.46 10 10 10h96.12v17.54c0 5.52 4.48 10 10 10h45.06v58.5h-45.06c-5.52 0-10 4.48-10 10v17.54H100.4c-5.54 0-10 4.46-10 10 0 5.52 4.46 10 10 10h96.12v17.52c0 5.52 4.48 10 10 10h45.06v72.2c0 5.52 4.48 10 10 10h500.84c5.52 0 10-4.48 10-10v-72.22h45.06c5.52 0 10-4.46 10-10v-17.52h96.12c5.54 0 10-4.48 10-10s-4.46-10-10-10h-96.12v-17.52c0-5.52-4.48-10-10-10h-45.06v-58.52h45.06c5.52 0 10-4.46 10-10v-17.52h96.12c5.54 0 10-4.48 10-10s-4.46-10-10-10h-96.12v-17.52c0-5.52-4.48-10-10-10h-45.06v-58.52h45.06c5.52 0 10-4.48 10-10v-17.52h96.12c5.54 0 10-4.48 10-10s-4.46-10-10-10h-96.12v-17.52c0-5.54-4.48-10-10-10h-45.06v-58.52h45.06c5.52 0 10-4.48 10-10v-17.52h96.12c5.54 0 10-4.48 10-10s-4.46-10-10-10h-96.12v-17.54c0-5.52-4.48-10-10-10h-45.06v-58.5h45.06z m-45.06-188.62h35.06v35.06h-35.06V160.56z m0 133.56h35.06v35.06h-35.06v-35.06zM251.58 863.44h-35.06v-17.5l0.02-0.02c0-0.02-0.02-0.04-0.02-0.04v-17.5h35.06v35.06z m0-133.56h-35.06v-17.5s0.02-0.02 0.02-0.04c0 0-0.02-0.02-0.02-0.04v-17.48h35.06v35.06z m0-133.56h-35.06v-17.5s0.02-0.02 0.02-0.04c0 0-0.02-0.02-0.02-0.04v-17.48h35.06v35.06z m0-133.58h-35.06v-17.48c0-0.02 0.02-0.02 0.02-0.04s-0.02-0.02-0.02-0.04v-17.48h35.06v35.04z m0-133.56h-35.06v-17.48c0-0.02 0.02-0.02 0.02-0.04s-0.02-0.02-0.02-0.04v-17.48h35.06v35.04z m0-133.56h-35.06v-17.5c0-0.02 0.02-0.02 0.02-0.02l-0.02-0.02v-17.52h35.06v35.06z m500.84 750.02H271.58V78.36h480.84v867.28z m55.06-117.26v35.04h-35.06v-35.04h35.06z m0-133.56v35.04h-35.06v-35.04h35.06z m0-133.56v35.04h-35.06v-35.04h35.06z m0-133.58v35.06h-35.06v-35.06h35.06z" fill="#23130D" p-id="57195"></path><path d="M807.48 160.56v35.06h-35.06V160.56h35.06zM807.48 294.12v35.06h-35.06v-35.06h35.06zM807.48 427.68v35.06h-35.06v-35.06h35.06zM807.48 561.26v35.04h-35.06v-35.04h35.06zM807.48 694.82v35.04h-35.06v-35.04h35.06zM807.48 828.38v35.04h-35.06v-35.04h35.06zM251.58 828.38v35.06h-35.06v-17.5l0.02-0.02c0-0.02-0.02-0.04-0.02-0.04v-17.5h35.06zM251.58 694.82v35.06h-35.06v-17.5s0.02-0.02 0.02-0.04c0 0-0.02-0.02-0.02-0.04v-17.48h35.06zM251.58 561.26v35.06h-35.06v-17.5s0.02-0.02 0.02-0.04c0 0-0.02-0.02-0.02-0.04v-17.48h35.06zM251.58 427.7v35.04h-35.06v-17.48c0-0.02 0.02-0.02 0.02-0.04s-0.02-0.02-0.02-0.04v-17.48h35.06zM251.58 294.14v35.04h-35.06v-17.48c0-0.02 0.02-0.02 0.02-0.04s-0.02-0.02-0.02-0.04v-17.48h35.06zM251.58 160.56v35.06h-35.06v-17.5c0-0.02 0.02-0.02 0.02-0.02l-0.02-0.02v-17.52h35.06z" fill="#F9C139" p-id="57196"></path><path d="M251.58 160.56v35.06h-17.55v-17.5c0-0.02 0.01-0.02 0.01-0.02l-0.01-0.02v-17.52h17.55zM251.58 294.13v35.06h-17.55v-17.5c0-0.02 0.01-0.02 0.01-0.02l-0.01-0.02v-17.52h17.55zM251.58 427.7v35.06h-17.55v-17.5c0-0.02 0.01-0.02 0.01-0.02l-0.01-0.02v-17.52h17.55zM251.58 561.27v35.06h-17.55v-17.5c0-0.02 0.01-0.02 0.01-0.02l-0.01-0.02v-17.52h17.55zM251.58 694.84v35.06h-17.55v-17.5c0-0.02 0.01-0.02 0.01-0.02l-0.01-0.02v-17.52h17.55zM251.58 828.41v35.06h-17.55v-17.5c0-0.02 0.01-0.02 0.01-0.02l-0.01-0.02v-17.52h17.55zM789.97 160.56v35.06h-17.55v-17.5c0-0.02 0.01-0.02 0.01-0.02l-0.01-0.02v-17.52h17.55zM789.97 294.13v35.06h-17.55v-17.5c0-0.02 0.01-0.02 0.01-0.02l-0.01-0.02v-17.52h17.55zM789.97 427.7v35.06h-17.55v-17.5c0-0.02 0.01-0.02 0.01-0.02l-0.01-0.02v-17.52h17.55zM789.97 561.27v35.06h-17.55v-17.5c0-0.02 0.01-0.02 0.01-0.02l-0.01-0.02v-17.52h17.55zM789.97 694.84v35.06h-17.55v-17.5c0-0.02 0.01-0.02 0.01-0.02l-0.01-0.02v-17.52h17.55zM789.97 828.41v35.06h-17.55v-17.5c0-0.02 0.01-0.02 0.01-0.02l-0.01-0.02v-17.52h17.55z" opacity=".2" p-id="57197"></path><path d="M271.58 78.36v867.28h480.84V78.36H271.58z m409.4 116.82v633.66c-0.02 30.1-24.5 54.58-54.62 54.58H397.6c-30.1 0-54.58-24.5-54.58-54.6V195.18c0-30.1 24.5-54.62 54.62-54.62h228.72c30.1 0 54.6 24.5 54.62 54.6v0.02z" fill="#E1E1E5" p-id="57198"></path><path d="M742.42 88.36v847.28H281.58V88.36h460.84M397.6 893.42h228.76c35.608 0 64.596-28.968 64.62-64.6V195.154c-0.024-35.616-29.012-64.594-64.62-64.594H397.64c-35.632 0-64.62 28.988-64.62 64.62v633.64c0 35.62 28.97 64.6 64.58 64.6M752.42 78.36H271.58v867.28h480.84V78.36zM397.6 883.42c-30.1 0-54.58-24.5-54.58-54.6V195.18c0-30.1 24.5-54.62 54.62-54.62h228.72c30.1 0 54.6 24.5 54.62 54.6v633.68c-0.02 30.1-24.5 54.58-54.62 54.58H397.6z" opacity=".2" p-id="57199"></path><path d="M436.96 532.7v39.52c0 5.52-4.48 10-10 10s-10-4.48-10-10v-39.52c0-5.54 4.48-10 10-10s10 4.46 10 10zM436.96 451.78v39.52c0 5.52-4.48 10-10 10s-10-4.48-10-10v-39.52c0-5.52 4.48-10 10-10s10 4.48 10 10zM436.96 613.62v39.52c0 5.52-4.48 10-10 10s-10-4.48-10-10v-39.52c0-5.54 4.48-10 10-10s10 4.46 10 10zM436.96 370.86v39.52c0 5.52-4.48 10-10 10s-10-4.48-10-10v-39.52c0-5.52 4.48-10 10-10s10 4.48 10 10zM522 532.7v39.52c0 5.52-4.48 10-10 10s-10-4.48-10-10v-39.52c0-5.54 4.48-10 10-10s10 4.46 10 10zM522 451.78v39.52c0 5.52-4.48 10-10 10s-10-4.48-10-10v-39.52c0-5.52 4.48-10 10-10s10 4.48 10 10zM522 613.62v39.52c0 5.52-4.48 10-10 10s-10-4.48-10-10v-39.52c0-5.54 4.48-10 10-10s10 4.46 10 10zM522 694.54v39.52c0 5.52-4.48 10-10 10s-10-4.48-10-10v-39.52c0-5.54 4.48-10 10-10s10 4.46 10 10zM522 775.46v39.52c0 5.52-4.48 10-10 10s-10-4.48-10-10v-39.52c0-5.54 4.48-10 10-10s10 4.46 10 10zM522 370.86v39.52c0 5.52-4.48 10-10 10s-10-4.48-10-10v-39.52c0-5.52 4.48-10 10-10s10 4.48 10 10zM522 289.94v39.52c0 5.52-4.48 10-10 10s-10-4.48-10-10v-39.52c0-5.52 4.48-10 10-10s10 4.48 10 10zM522 209.02v39.52c0 5.52-4.48 10-10 10s-10-4.48-10-10v-39.52c0-5.52 4.48-10 10-10s10 4.48 10 10zM607.04 532.7v39.52c0 5.52-4.46 10-10 10-5.52 0-10-4.48-10-10v-39.52c0-5.54 4.48-10 10-10 5.54 0 10 4.46 10 10zM607.04 451.78v39.52c0 5.52-4.46 10-10 10-5.52 0-10-4.48-10-10v-39.52c0-5.52 4.48-10 10-10 5.54 0 10 4.48 10 10zM607.04 613.62v39.52c0 5.52-4.46 10-10 10-5.52 0-10-4.48-10-10v-39.52c0-5.54 4.48-10 10-10 5.54 0 10 4.46 10 10zM607.04 370.86v39.52c0 5.52-4.46 10-10 10-5.52 0-10-4.48-10-10v-39.52c0-5.52 4.48-10 10-10 5.54 0 10 4.48 10 10z" fill="#23130D" p-id="57200"></path><path d="M626.36 140.56H397.64c-30.12 0-54.62 24.52-54.62 54.62v633.64c0 30.1 24.48 54.6 54.58 54.6h228.76c30.12 0 54.6-24.48 54.62-54.58V195.18v-0.02c-0.02-30.1-24.52-54.6-54.62-54.6z m34.62 54.64v633.62c0 19.08-15.52 34.6-34.62 34.6H397.64c-19.1 0-34.62-15.52-34.62-34.6V195.18c0-19.08 15.52-34.62 34.62-34.62h228.72c19.1 0 34.62 15.54 34.62 34.62v0.02z" fill="#23130D" p-id="57201"></path><path d="M626.36 160.56H397.64c-19.1 0-34.62 15.54-34.62 34.62v633.64c0 19.08 15.52 34.6 34.62 34.6h228.72c19.1 0 34.62-15.52 34.62-34.6V195.2v-0.02c0-19.08-15.52-34.62-34.62-34.62z m-39.32 210.3c0-5.52 4.48-10 10-10 5.54 0 10 4.48 10 10v39.52c0 5.52-4.46 10-10 10-5.52 0-10-4.48-10-10v-39.52zM502 209.02c0-5.52 4.48-10 10-10s10 4.48 10 10v39.52c0 5.52-4.48 10-10 10s-10-4.48-10-10v-39.52z m0 80.92c0-5.52 4.48-10 10-10s10 4.48 10 10v39.52c0 5.52-4.48 10-10 10s-10-4.48-10-10v-39.52z m10 70.92c5.52 0 10 4.48 10 10v39.52c0 5.52-4.48 10-10 10s-10-4.48-10-10v-39.52c0-2.16 0.68-4.16 1.86-5.78 1.8-2.56 4.78-4.22 8.14-4.22z m-10 90.92a10.008 10.008 0 0 1 10-10c5.52 0 10 4.48 10 10v39.52c0 5.52-4.48 10-10 10s-10-4.48-10-10v-39.52z m-85.04 0c0-5.52 4.48-10 10-10s10 4.48 10 10v39.52c0 5.18-3.94 9.44-8.98 9.94-0.34 0.04-0.68 0.06-1.02 0.06-5.52 0-10-4.48-10-10v-39.52z m0 80.92c0-5.54 4.48-10 10-10s10 4.46 10 10v39.52c0 1.06-0.16 2.1-0.46 3.06a10.036 10.036 0 0 1-9.54 6.94c-5.52 0-10-4.48-10-10v-39.52z m20 120.44c0 5.52-4.48 10-10 10s-10-4.48-10-10v-39.52c0-5.54 4.48-10 10-10s10 4.46 10 10v39.52zM522 814.98c0 5.52-4.48 10-10 10s-10-4.48-10-10v-39.52c0-5.54 4.48-10 10-10s10 4.46 10 10v39.52z m0-80.92c0 5.52-4.48 10-10 10s-10-4.48-10-10v-39.52c0-5.54 4.48-10 10-10s10 4.46 10 10v39.52z m-10-70.92c-5.52 0-10-4.48-10-10v-39.52c0-5.54 4.48-10 10-10s10 4.46 10 10v39.52c0 2.16-0.68 4.16-1.86 5.78a9.928 9.928 0 0 1-8.14 4.22zM502.74 576c-0.48-1.18-0.74-2.44-0.74-3.78v-39.52c0-5.54 4.48-10 10-10s10 4.46 10 10v39.52a10.004 10.004 0 0 1-13.78 9.26 10.084 10.084 0 0 1-5.48-5.48z m94.3 87.14c-5.52 0-10-4.48-10-10v-39.52c0-5.54 4.48-10 10-10 5.54 0 10 4.46 10 10v39.52c0 0.52-0.04 1.04-0.14 1.54a9.94 9.94 0 0 1-9.86 8.46zM419 416.42a9.86 9.86 0 0 1-2.04-6.04v-39.52c0-2.5 0.92-4.78 2.44-6.52a9.896 9.896 0 0 1 7.56-3.48c5.52 0 10 4.48 10 10v39.52c0 5.52-4.48 10-10 10-2.3 0-4.42-0.78-6.1-2.1-0.7-0.52-1.32-1.14-1.86-1.86z m188.04 155.8c0 5.52-4.46 10-10 10-5.52 0-10-4.48-10-10v-39.52c0-0.24 0-0.46 0.04-0.68a9.978 9.978 0 0 1 9.96-9.32c5.54 0 10 4.46 10 10v39.52z m0-80.92c0 5.52-4.46 10-10 10-5.52 0-10-4.48-10-10v-39.52c0-1.06 0.16-2.1 0.46-3.06a10.036 10.036 0 0 1 9.54-6.94c5.54 0 10 4.48 10 10v39.52z" fill="#72AF5F" p-id="57202"></path><path d="M660.98 734.24v65.52l-140.84-140.84c1.18-1.62 1.86-3.62 1.86-5.78v-39.52c0-5.54-4.48-10-10-10s-10 4.46-10 10v27.16l-65.5-65.5c0.3-0.96 0.46-2 0.46-3.06v-39.52c0-5.54-4.48-10-10-10s-10 4.46-10 10v23.04l-53.94-53.94v-65.52l297.96 297.96zM660.98 658.4v50.36l-54.08-54.08c0.1-0.5 0.14-1.02 0.14-1.54v-39.52c0-5.54-4.46-10-10-10-5.52 0-10 4.46-10 10v21.2L522 569.78v-37.08c0-5.54-4.48-10-10-10s-10 4.46-10 10v17.08l-65.04-65.04v-32.96c0-5.52-4.48-10-10-10s-10 4.48-10 10v12.96l-53.94-53.94v-50.36l55.98 55.98L660.98 658.4zM660.98 522.2v83.72l-53.94-53.94v-19.28c0-5.54-4.46-10-10-10-5.28 0-9.62 4.1-9.96 9.32L522 466.94v-15.16c0-5.52-4.48-10-10-10-4.1 0-7.62 2.48-9.16 6l-65.88-65.88v-11.04c0-5.52-4.48-10-10-10-3.02 0-5.74 1.34-7.56 3.48l-56.38-56.38v-83.72l140.84 140.84c-1.18 1.62-1.86 3.62-1.86 5.78v39.52c0 5.52 4.48 10 10 10s10-4.48 10-10v-27.16l65.5 65.5c-0.3 0.96-0.46 2-0.46 3.06v39.52c0 5.52 4.48 10 10 10 5.54 0 10-4.48 10-10v-23.04l53.94 53.94z" fill="#FFFFFF" opacity=".4" p-id="57203"></path></svg>