<?xml version="1.0" standalone="no"?><!DOCTYPE svg PUBLIC "-//W3C//DTD SVG 1.1//EN" "http://www.w3.org/Graphics/SVG/1.1/DTD/svg11.dtd"><svg t="1625812209364" class="icon" viewBox="0 0 1024 1024" version="1.1" xmlns="http://www.w3.org/2000/svg" p-id="55146" xmlns:xlink="http://www.w3.org/1999/xlink" width="200" height="200"><defs><style type="text/css"></style></defs><path d="M950.46 674.12c-14.28-20.38-45.82-28.24-70.38-17.52l-20.32 8.38c-20.38-31.32-52.1-58.36-92.62-79.02v-65.14l78.16-78.18c0.32-0.3 0.56-0.66 0.82-1 0.14-0.16 0.28-0.32 0.4-0.5 0.28-0.38 0.46-0.8 0.66-1.2 0.1-0.18 0.2-0.34 0.28-0.52 0.18-0.46 0.32-0.94 0.44-1.44 0.04-0.14 0.1-0.28 0.12-0.42 0.14-0.66 0.22-1.34 0.2-2.02v-70.3c15.34-4.36 26.62-18.48 26.62-35.18 0-20.18-16.42-36.6-36.6-36.6s-36.6 16.42-36.6 36.6c0 16.7 11.26 30.8 26.58 35.18v66.2l-78.16 78.16c-0.32 0.34-0.58 0.7-0.86 1.06-0.12 0.16-0.26 0.28-0.36 0.44-0.28 0.42-0.48 0.84-0.7 1.28-0.06 0.14-0.16 0.28-0.22 0.44-0.22 0.5-0.36 1.02-0.48 1.54-0.04 0.12-0.08 0.22-0.1 0.32-0.14 0.68-0.2 1.38-0.2 2.06v59.84c-18.54-7.96-38.2-14.42-58.66-19.38v-81.6l34.9-34.9c0.48-0.48 0.9-1 1.26-1.54 0.14-0.2 0.22-0.4 0.32-0.58 0.22-0.38 0.44-0.76 0.6-1.16 0.1-0.24 0.16-0.5 0.24-0.76 0.12-0.36 0.26-0.72 0.34-1.1 0.06-0.4 0.08-0.8 0.12-1.2 0-0.24 0.06-0.48 0.06-0.74v-19.1c15.34-4.36 26.6-18.46 26.6-35.16 0-20.18-16.42-36.6-36.6-36.6s-36.6 16.42-36.6 36.6c0 16.7 11.28 30.8 26.6 35.16v14.94l-34.9 34.92c-0.1 0.1-0.16 0.22-0.26 0.32-0.36 0.38-0.7 0.76-0.98 1.2-0.2 0.28-0.32 0.6-0.48 0.9-0.16 0.26-0.32 0.52-0.44 0.82-0.16 0.36-0.24 0.74-0.34 1.1-0.08 0.26-0.18 0.5-0.24 0.76-0.12 0.66-0.2 1.32-0.2 1.98v81.44a433.096 433.096 0 0 0-68.42-7.3V336.98c57.52-5.08 102.78-53.48 102.82-112.3 0-0.02 0.02-0.04 0.02-0.08V142.1c0-5.52-4.48-10-10-10h-42.62V47.52c0-5.54-4.46-10-10-10-5.52 0-10 4.46-10 10v84.58h-80.44V47.52c0-5.54-4.48-10-10-10s-10 4.46-10 10v84.58h-42.6c-5.52 0-10 4.48-10 10v82.5c0 58.86 45.28 107.3 102.82 112.38v208.54c-23.42 0.4-46.36 2.64-68.42 6.56v-80.58c0-0.68-0.08-1.36-0.2-2.04-0.04-0.12-0.08-0.22-0.1-0.34-0.14-0.52-0.28-1.02-0.48-1.52-0.06-0.16-0.16-0.3-0.24-0.44-0.2-0.44-0.42-0.88-0.68-1.28-0.1-0.16-0.24-0.28-0.36-0.42-0.26-0.38-0.54-0.74-0.86-1.08l-34.92-34.9v-14.96c15.34-4.36 26.62-18.46 26.62-35.16 0-20.18-16.42-36.6-36.6-36.6-20.2 0-36.6 16.42-36.6 36.6 0 16.7 11.26 30.8 26.58 35.16v19.1c0 0.26 0.06 0.52 0.08 0.8 0.04 0.38 0.04 0.76 0.12 1.14 0.08 0.38 0.22 0.74 0.34 1.12 0.08 0.24 0.12 0.5 0.22 0.74 0.18 0.4 0.4 0.78 0.6 1.14 0.12 0.2 0.2 0.4 0.32 0.6 0.38 0.54 0.8 1.06 1.26 1.54l34.9 34.88v80.58c-20.56 4.72-40.22 10.96-58.66 18.52v-57.84a10.02 10.02 0 0 0-2.9-7.24l-78.18-78.16v-66.2c15.32-4.38 26.6-18.48 26.6-35.18 0-20.18-16.42-36.6-36.6-36.6s-36.6 16.42-36.6 36.6c0 16.7 11.28 30.82 26.6 35.18v70.28c0 0.68 0.06 1.38 0.2 2.04 0.02 0.12 0.08 0.22 0.1 0.34 0.12 0.52 0.26 1.04 0.48 1.54 0.06 0.14 0.14 0.26 0.2 0.4 0.22 0.44 0.44 0.9 0.72 1.32 0.06 0.08 0.14 0.16 0.2 0.24 0.32 0.44 0.64 0.86 1.02 1.24l78.16 78.16v62.86c-39.56 19.34-72.12 45.26-93.8 76.06h-60.34V642c0-18.54-15.08-33.6-33.6-33.6H189.98v-15.6c0-5.52-4.48-10-10-10H75.68c-5.52 0-10 4.48-10 10v383.68c0 5.54 4.48 10 10 10h104.3c5.52 0 10-4.46 10-10v-20.42h35.26c18.52 0 33.6-15.06 33.6-33.6v-22.62l276.72 64.2c5.82 1.28 12.26 1.88 19 1.88 21.56 0 46.08-6.2 62.14-16.54l318.2-208.86c11.76-7.58 19.98-19.44 22.54-32.54 2.36-12.02-0.12-24.04-6.98-33.86z m-128.82-344.06c0-9.16 7.44-16.6 16.6-16.6 9.14 0 16.6 7.44 16.6 16.6s-7.46 16.6-16.6 16.6c-9.16 0-16.6-7.44-16.6-16.6z m-121.92 49.3c0-9.16 7.44-16.6 16.6-16.6s16.6 7.44 16.6 16.6c0 9.14-7.44 16.6-16.6 16.6s-16.6-7.46-16.6-16.6z m-252.5 0c0-9.16 7.44-16.6 16.6-16.6 9.14 0 16.6 7.44 16.6 16.6 0 9.14-7.46 16.6-16.6 16.6-9.16 0-16.6-7.46-16.6-16.6z m-121.92-49.3c0-9.16 7.44-16.6 16.6-16.6s16.6 7.44 16.6 16.6-7.44 16.6-16.6 16.6-16.6-7.44-16.6-16.6zM169.98 966.48H85.68V602.8h84.3v363.68z m68.86-44.02c0 7.5-6.1 13.6-13.6 13.6H189.98V628.4h35.26c7.5 0 13.6 6.1 13.6 13.6v280.46z m258.4-697.86V152.1h185.66v72.5c0 51.2-41.66 92.84-92.84 92.84-51.18 0-92.82-41.64-92.82-92.84z m-70.76 374.58c0.4-0.14 0.76-0.32 1.12-0.5 45.88-21.22 101.46-33.26 160.08-33.26 109.08 0 208.82 42.74 253.18 107.36l-128.74 53.1c-6.84-21.02-26.88-36.06-50.46-36.06h-148.42c-11.08 0-26.46-1.64-42.16-4.48-14.48-2.66-27.84-6.1-37.66-9.7l-0.86-0.36c-0.08-0.02-0.16-0.06-0.26-0.08-22.1-8.12-54.12-13.48-88.3-15.02 20.4-24.52 48.78-45.24 82.48-61z m511.34 104.96c-1.54 7.78-6.54 14.92-13.82 19.62L605.8 932.6c-16.52 10.66-46.74 16.1-65.86 11.94l-281.1-65.24v-199.58h65.12c39.16 0 77.02 5.3 101.34 14.2l0.86 0.34c0.08 0.04 0.16 0.06 0.24 0.1 10.86 4 25.44 7.78 41.08 10.66 17.1 3.1 33.36 4.8 45.76 4.8h148.42c17.36 0 32.16 13.66 32.96 30.46 0 0.1 0 0.18 0.02 0.28 0.02 0.4 0.04 0.82 0.04 1.24 0 2.02-0.2 4.06-0.62 6.1-3 14.96-16.64 25.84-32.4 25.84h-148.18c-4.28-0.2-44.02-1-77.04 27.52a10.028 10.028 0 0 0-1.04 14.12 10.004 10.004 0 0 0 7.58 3.46c2.3 0 4.64-0.8 6.52-2.44 27.94-24.12 62.88-22.72 63.2-22.68 0.18 0 0.36 0.02 0.54 0.02h148.42c25.26 0 47.14-17.62 52-41.86 0.36-1.76 0.62-3.54 0.78-5.32l173.36-71.52c0.06-0.02 0.14-0.06 0.2-0.08 16.02-7.04 37.12-2.16 46.08 10.64 3.72 5.32 5.04 11.9 3.74 18.54z" fill="#23130D" p-id="55147"></path><path d="M854.84 330.06c0 9.16-7.46 16.6-16.6 16.6-9.16 0-16.6-7.44-16.6-16.6s7.44-16.6 16.6-16.6c9.14 0 16.6 7.44 16.6 16.6zM732.92 379.36c0 9.14-7.44 16.6-16.6 16.6s-16.6-7.46-16.6-16.6c0-9.16 7.44-16.6 16.6-16.6s16.6 7.44 16.6 16.6zM358.5 330.06c0 9.16-7.44 16.6-16.6 16.6s-16.6-7.44-16.6-16.6 7.44-16.6 16.6-16.6 16.6 7.44 16.6 16.6zM480.42 379.36c0 9.14-7.46 16.6-16.6 16.6-9.16 0-16.6-7.46-16.6-16.6 0-9.16 7.44-16.6 16.6-16.6 9.14 0 16.6 7.44 16.6 16.6z" fill="#E1E1E5" p-id="55148"></path><path d="M682.9 152.1v72.5c0 51.2-41.66 92.84-92.84 92.84-51.18 0-92.82-41.64-92.82-92.84V152.1h185.66z" fill="#F9C139" p-id="55149"></path><path d="M497.24 152.1h185.66v22.66h-185.66z" fill="#FFFFFF" opacity=".4" p-id="55150"></path><path d="M682.9 201.94v22.66c0 51.2-41.66 92.84-92.84 92.84-51.18 0-92.82-41.64-92.82-92.84v-22.66c0 51.2 41.64 92.84 92.82 92.84 51.18 0 92.84-41.64 92.84-92.84z" opacity=".2" p-id="55151"></path><path d="M85.68 602.8h84.3v363.68H85.68z" fill="#3594BF" p-id="55152"></path><path d="M149.666 602.8H169.98v363.68H149.666z" fill="#FFFFFF" opacity=".4" p-id="55153"></path><path d="M85.68 602.8h20.314v363.68H85.68z" opacity=".2" p-id="55154"></path><path d="M238.84 642v280.46c0 7.5-6.1 13.6-13.6 13.6H189.98V628.4h35.26c7.5 0 13.6 6.1 13.6 13.6z" fill="#E1E1E5" p-id="55155"></path><path d="M189.98 628.4h20v307.66h-20z" opacity=".2" p-id="55156"></path><path d="M840.86 672.78l-128.74 53.1c-6.84-21.02-26.88-36.06-50.46-36.06h-148.42c-11.08 0-26.46-1.64-42.16-4.48-14.48-2.66-27.84-6.1-37.66-9.7l-0.86-0.36c-0.08-0.02-0.16-0.06-0.26-0.08-22.1-8.12-54.12-13.48-88.3-15.02 20.4-24.52 48.78-45.24 82.48-61 0.4-0.14 0.76-0.32 1.12-0.5 45.88-21.22 101.46-33.26 160.08-33.26 109.08 0 208.82 42.74 253.18 107.36z" fill="#3594BF" p-id="55157"></path><path d="M840.86 672.78l-128.74 53.1c-6.84-21.02-26.88-36.06-50.46-36.06h-148.42c-11.08 0-26.46-1.64-42.16-4.48-14.48-2.66-27.84-6.1-37.66-9.7l-0.86-0.36c-0.08-0.02-0.16-0.06-0.26-0.08-22.1-8.12-54.12-13.48-88.3-15.02 6.14-7.4 13.02-14.44 20.56-21.1 28.66 2.22 54.92 7.16 73.88 14.12 0.1 0.02 0.18 0.06 0.26 0.08l0.86 0.36c9.82 3.6 23.18 7.04 37.66 9.7 15.7 2.84 31.08 4.48 42.16 4.48h148.42c23.58 0 43.62 15.04 50.46 36.06l111.2-45.86c4.12 4.78 7.92 9.7 11.4 14.76z" opacity=".2" p-id="55158"></path><path d="M937.82 704.14c-1.54 7.78-6.54 14.92-13.82 19.62L605.8 932.6c-16.52 10.66-46.74 16.1-65.86 11.94l-281.1-65.24v-199.58h65.12c39.16 0 77.02 5.3 101.34 14.2l0.86 0.34c0.08 0.04 0.16 0.06 0.24 0.1 10.86 4 25.44 7.78 41.08 10.66 17.1 3.1 33.36 4.8 45.76 4.8h148.42c17.36 0 32.16 13.66 32.96 30.46 0 0.1 0 0.18 0.02 0.28 0.02 0.4 0.04 0.82 0.04 1.24 0 2.02-0.2 4.06-0.62 6.1-3 14.96-16.64 25.84-32.4 25.84h-148.18c-4.28-0.2-44.02-1-77.04 27.52a10.028 10.028 0 0 0-1.04 14.12 10.004 10.004 0 0 0 7.58 3.46c2.3 0 4.64-0.8 6.52-2.44 27.94-24.12 62.88-22.72 63.2-22.68 0.18 0 0.36 0.02 0.54 0.02h148.42c25.26 0 47.14-17.62 52-41.86 0.36-1.76 0.62-3.54 0.78-5.32l173.36-71.52c0.06-0.02 0.14-0.06 0.2-0.08 16.02-7.04 37.12-2.16 46.08 10.64 3.72 5.32 5.04 11.9 3.74 18.54z" fill="#F8D3C9" p-id="55159"></path><path d="M937.82 704.14c-1.54 7.78-6.54 14.92-13.82 19.62L605.8 932.6c-16.52 10.66-46.74 16.1-65.86 11.94l-281.1-65.24v-32l281.1 65.24c19.12 4.16 49.34-1.28 65.86-11.94L924 691.76c3.42-2.22 6.34-4.96 8.6-8.04 0.54 0.6 1.02 1.24 1.48 1.88 3.72 5.32 5.04 11.9 3.74 18.54z" opacity=".2" p-id="55160"></path></svg>