<?xml version="1.0" standalone="no"?><!DOCTYPE svg PUBLIC "-//W3C//DTD SVG 1.1//EN" "http://www.w3.org/Graphics/SVG/1.1/DTD/svg11.dtd"><svg t="1625812311465" class="icon" viewBox="0 0 1024 1024" version="1.1" xmlns="http://www.w3.org/2000/svg" p-id="60239" xmlns:xlink="http://www.w3.org/1999/xlink" width="200" height="200"><defs><style type="text/css"></style></defs><path d="M722.62 637.2c0.6-1.18 0.98-2.48 1.08-3.84 0.22-2.9-0.84-5.74-2.9-7.8l-63.7-63.72a9.976 9.976 0 0 0-7.06-2.92c-2.66 0-5.2 1.04-7.08 2.92l-41.6 41.6-6.2-46.04c52.88-29.36 88.76-85.74 88.78-150.38 0-0.02 0.02-0.04 0.02-0.06v-60.46H714c20.52 0 37.22-16.7 37.22-37.22v-6.36c0-19.96-15.82-36.26-35.58-37.12-4.38-89.34-67.42-166.28-154.18-187.92V56.76c0-20.52-16.7-37.22-37.22-37.22h-24.48c-20.52 0-37.22 16.7-37.22 37.22v21.12c-86.76 21.64-149.8 98.58-154.18 187.92-19.76 0.86-35.58 17.16-35.58 37.12v6.36c0 20.52 16.7 37.22 37.22 37.22h30.04v60.46c0 0.02 0.02 0.02 0.02 0.04 0 64.64 35.9 121.04 88.78 150.4l-6.22 46.02-41.58-41.58a9.988 9.988 0 0 0-7.08-2.92c-2.64 0-5.18 1.04-7.06 2.92l-63.7 63.72a9.956 9.956 0 0 0-2.9 7.8c0.1 1.36 0.48 2.66 1.08 3.84-80.56 9.9-143.16 78.7-143.16 161.88 0 0.02 0.02 0.04 0.02 0.08v195.3c0 5.52 4.46 10 10 10h687.52c5.54 0 10-4.48 10-10v-195.32c0-0.02 0.02-0.04 0.02-0.06 0-83.18-62.6-151.98-143.16-161.88z m-72.6-54.14l48.44 48.44-163.58 121.46-8.74-8.74 11.58-11.56c1.86-1.88 2.92-4.42 2.92-7.08s-1.06-5.2-2.92-7.08l-11.58-11.56 123.88-123.88zM512 692.8l-71.6-71.6 7.4-54.78a171.064 171.064 0 0 0 64.2 12.48c22.7 0 44.34-4.46 64.2-12.48l7.38 54.8L512 692.8zM462.54 98.6v52.94c0 5.54 4.48 10 10 10s10-4.46 10-10V56.76c0-9.48 7.72-17.22 17.22-17.22h24.48c9.5 0 17.22 7.74 17.22 17.22v94.78c0 5.54 4.48 10 10 10s10-4.46 10-10V98.6c75.4 21.02 129.84 88.66 134.14 167.1h-75.52V178.76c0-5.52-4.46-10-10-10-5.52 0-10 4.48-10 10v86.94h-176.16V178.76c0-5.52-4.48-10-10-10-5.54 0-10 4.48-10 10v86.94H328.4c4.3-78.44 58.74-146.08 134.14-167.1zM310 326.5c-9.5 0-17.22-7.72-17.22-17.22v-6.36c0-9.48 7.72-17.22 17.22-17.22h8c0.04 0.02 0.06 0.02 0.1 0.02 0.04 0 0.06 0 0.1-0.02h95.68s0.02 0.02 0.04 0.02l0.02-0.02h196.1c0.02 0 0.04 0.02 0.04 0.02 0.02 0 0.04-0.02 0.04-0.02h95.68c0.04 0.02 0.06 0.02 0.1 0.02 0.04 0 0.06 0 0.1-0.02h8c9.5 0 17.22 7.74 17.22 17.22v6.36c0 9.5-7.72 17.22-17.22 17.22H310z m50.04 80.46v-60.46h303.92v60.42c0 0.02-0.02 0.02-0.02 0.04 0 83.78-68.16 151.94-151.94 151.94s-151.96-68.16-151.96-151.94z m13.94 176.1L504.92 714l0.02 0.02 11.56 11.56-27.38 27.38-163.58-121.46 48.44-48.44z m471.78 401.4H178.24v-185.38c0-78.92 64.2-143.14 143.14-143.14h3.5l159.24 118.22c1.78 1.34 3.88 1.98 5.96 1.98 2.58 0 5.14-0.98 7.06-2.92l14.86-14.86 14.86 14.86c1.92 1.94 4.48 2.92 7.06 2.92 2.08 0 4.18-0.64 5.96-1.98l159.22-118.22h3.52c78.94 0 143.14 64.22 143.14 143.14v185.38z" fill="#23130D" p-id="60240"></path><path d="M695.6 265.7c-4.3-78.44-58.74-146.08-134.14-167.1v52.94c0 5.54-4.48 10-10 10s-10-4.46-10-10V56.76c0-9.48-7.72-17.22-17.22-17.22h-24.48c-9.5 0-17.22 7.74-17.22 17.22v94.78c0 5.54-4.48 10-10 10s-10-4.46-10-10V98.6c-75.4 21.02-129.84 88.66-134.14 167.1h75.52V178.76c0-5.52 4.46-10 10-10 5.52 0 10 4.48 10 10v86.94h176.16V178.76c0-5.52 4.48-10 10-10 5.54 0 10 4.48 10 10v86.94h75.52z m-144.14-22.66h-78.92c-5.52 0-10-4.48-10-10s4.48-10 10-10h78.92c5.54 0 10 4.48 10 10s-4.46 10-10 10z m0-39.7h-78.92c-5.52 0-10-4.48-10-10s4.48-10 10-10h78.92c5.54 0 10 4.48 10 10s-4.46 10-10 10z" fill="#F9C139" p-id="60241"></path><path d="M328.4 265.7h2.84c12.72-68.18 63.56-124.72 131.3-143.6V98.6c-75.4 21.02-129.84 88.66-134.14 167.1z m195.84-226.16h-24.48c-9.5 0-17.22 7.74-17.22 17.22v23.5c0-9.48 7.72-17.22 17.22-17.22h24.48c9.5 0 17.22 7.74 17.22 17.22V56.76c0-9.48-7.72-17.22-17.22-17.22z m37.22 59.06v23.5c67.74 18.88 118.58 75.42 131.3 143.6h2.84c-4.3-78.44-58.74-146.08-134.14-167.1z" fill="#23130D" opacity=".2" p-id="60242"></path><path d="M731.22 302.92v6.36c0 9.5-7.72 17.22-17.22 17.22H310c-9.5 0-17.22-7.72-17.22-17.22v-6.36c0-9.48 7.72-17.22 17.22-17.22h8c0.04 0.02 0.06 0.02 0.1 0.02 0.04 0 0.06 0 0.1-0.02h95.68s0.02 0.02 0.04 0.02l0.02-0.02h196.1c0.02 0 0.04 0.02 0.04 0.02 0.02 0 0.04-0.02 0.04-0.02h95.68c0.04 0.02 0.06 0.02 0.1 0.02 0.04 0 0.06 0 0.1-0.02h8c9.5 0 17.22 7.74 17.22 17.22z" fill="#F9C139" p-id="60243"></path><path d="M731.22 302.92v6.36c0 9.5-7.72 17.22-17.22 17.22H310c-9.5 0-17.22-7.72-17.22-17.22v-6.36c0-1.8 0.28-3.52 0.8-5.14a17.222 17.222 0 0 0 16.42 12.06h404c7.7 0 14.24-5.08 16.42-12.06 0.52 1.62 0.8 3.34 0.8 5.14z" fill="#23130D" opacity=".2" p-id="60244"></path><path d="M663.96 346.5v60.42c0 0.02-0.02 0.02-0.02 0.04 0 83.78-68.16 151.94-151.94 151.94s-151.96-68.16-151.96-151.94v-60.46h303.92z" fill="#F8D3C9" p-id="60245"></path><path d="M531.74 557.62c-6.46 0.84-13.06 1.28-19.74 1.28-83.78 0-151.96-68.16-151.96-151.94v-60.46h39.5v60.46c0 77.08 57.72 140.94 132.2 150.66z" fill="#23130D" opacity=".2" p-id="60246"></path><path d="M698.46 631.5l-163.58 121.46-8.74-8.74 11.58-11.56c1.86-1.88 2.92-4.42 2.92-7.08s-1.06-5.2-2.92-7.08l-11.58-11.56 123.88-123.88 48.44 48.44zM516.5 725.58l-27.38 27.38-163.58-121.46 48.44-48.44L504.92 714l0.02 0.02 11.56 11.56z" fill="#3594BF" p-id="60247"></path><path d="M698.46 631.5l-11.2 8.3-37.24-37.24-114.12 114.12-9.76-9.74 123.88-123.88zM516.5 725.58l-9.74 9.76-1.82-1.82-0.02-0.02-130.94-130.94-37.24 37.24-11.2-8.3 48.44-48.44L504.92 714l0.02 0.02 11.56 11.56z" fill="#FFFFFF" opacity=".4" p-id="60248"></path><path d="M583.58 621.22L512 692.8l-71.6-71.6 7.4-54.78a171.064 171.064 0 0 0 64.2 12.48c22.7 0 44.34-4.46 64.2-12.48l7.38 54.8z" fill="#E59D89" p-id="60249"></path><path d="M583.58 621.22l-3.12 3.12-4.26-31.6a170.988 170.988 0 0 1-64.2 12.48c-22.68 0-44.34-4.46-64.2-12.48l-4.26 31.6-3.14-3.14 7.4-54.78a171.064 171.064 0 0 0 64.2 12.48c22.7 0 44.34-4.46 64.2-12.48l7.38 54.8z" fill="#23130D" opacity=".2" p-id="60250"></path><path d="M702.62 655.94h-3.52l-159.22 118.22c-1.78 1.34-3.88 1.98-5.96 1.98-2.58 0-5.14-0.98-7.06-2.92l-14.86-14.86-14.86 14.86c-1.92 1.94-4.48 2.92-7.06 2.92-2.08 0-4.18-0.64-5.96-1.98l-159.24-118.22h-3.5c-78.94 0-143.14 64.22-143.14 143.14v185.38h667.52v-185.38c0-78.92-64.2-143.14-143.14-143.14z m58.86 203.36h-106.6c-5.52 0-10-4.48-10-10s4.48-10 10-10h106.6c5.52 0 10 4.48 10 10s-4.48 10-10 10z" fill="#EC7063" p-id="60251"></path><path d="M702.62 655.94h-3.52l-159.22 118.22c-1.78 1.34-3.88 1.98-5.96 1.98-2.58 0-5.14-0.98-7.06-2.92l-14.86-14.86-14.86 14.86c-1.92 1.94-4.48 2.92-7.06 2.92-2.08 0-4.18-0.64-5.96-1.98l-159.24-118.22h-3.5c-78.94 0-143.14 64.22-143.14 143.14v19.1c0-78.92 64.2-143.14 143.14-143.14h3.5l159.24 118.22c1.78 1.34 3.88 1.98 5.96 1.98 2.58 0 5.14-0.98 7.06-2.92l14.86-14.86 14.86 14.86c1.92 1.94 4.48 2.92 7.06 2.92 2.08 0 4.18-0.64 5.96-1.98l159.22-118.22h3.52c78.94 0 143.14 64.22 143.14 143.14v-19.1c0-78.92-64.2-143.14-143.14-143.14z" fill="#23130D" opacity=".2" p-id="60252"></path><path d="M771.48 849.3c0 5.52-4.48 10-10 10h-106.6c-5.52 0-10-4.48-10-10s4.48-10 10-10h106.6c5.52 0 10 4.48 10 10zM561.46 193.34c0 5.52-4.46 10-10 10h-78.92c-5.52 0-10-4.48-10-10s4.48-10 10-10h78.92c5.54 0 10 4.48 10 10zM561.46 233.04c0 5.52-4.46 10-10 10h-78.92c-5.52 0-10-4.48-10-10s4.48-10 10-10h78.92c5.54 0 10 4.48 10 10z" fill="#FFFFFF" p-id="60253"></path></svg>