<?xml version="1.0" standalone="no"?><!DOCTYPE svg PUBLIC "-//W3C//DTD SVG 1.1//EN" "http://www.w3.org/Graphics/SVG/1.1/DTD/svg11.dtd"><svg t="1625812319420" class="icon" viewBox="0 0 1024 1024" version="1.1" xmlns="http://www.w3.org/2000/svg" p-id="60698" xmlns:xlink="http://www.w3.org/1999/xlink" width="200" height="200"><defs><style type="text/css"></style></defs><path d="M569.3 42.48c-168.32 0-305.26 136.94-305.26 305.26v0.3c0.06 1.98 4.6 199.12-110.2 279.3-0.02 0-0.02 0.02-0.04 0.02-0.04 0.02-0.06 0.06-0.1 0.08-0.1 0.06-0.16 0.16-0.26 0.22-0.42 0.32-0.82 0.66-1.2 1.02-0.16 0.18-0.28 0.36-0.44 0.54-0.26 0.32-0.54 0.64-0.76 1-0.14 0.18-0.22 0.4-0.34 0.6-0.2 0.38-0.4 0.74-0.56 1.12-0.08 0.22-0.12 0.42-0.2 0.64-0.12 0.4-0.26 0.8-0.34 1.22-0.04 0.26-0.04 0.52-0.08 0.78-0.04 0.36-0.1 0.7-0.1 1.06v0.1c0.02 0.26 0.06 0.5 0.08 0.76 0.16 1.78 0.74 3.44 1.7 4.82 0 0.02 0.02 0.02 0.02 0.04 0.3 0.42 0.64 0.82 1 1.18 0.1 0.12 0.22 0.22 0.32 0.32 0.38 0.38 0.78 0.72 1.22 1 0.04 0.04 0.06 0.06 0.1 0.08 0.46 0.32 0.94 0.56 1.44 0.8 0.14 0.06 0.28 0.12 0.4 0.16 0.52 0.2 1.04 0.38 1.56 0.5l0.38 0.06c0.58 0.1 1.16 0.18 1.76 0.18H291.1v143.68c0 5.54 4.46 10 10 10h128.28v172.2c0 5.54 4.48 10 10 10h277.66c42.3 0 81.94-16.48 111.62-46.44 29.62-29.88 45.92-69.66 45.92-112.04V347.74c0-168.32-136.94-305.26-305.28-305.26z m285.28 780.56c0 76.36-61.7 138.48-137.54 138.48-76.36 0-138.5-62.12-138.5-138.48v-129.32h25.48c5.52 0 10-4.48 10-10v-18.14h27.36c5.52 0 10-4.48 10-10v-26.86h6.7c5.54 0 10-4.48 10-10 0-5.54-4.46-10-10-10h-6.7v-16.1h6.7c5.54 0 10-4.48 10-10s-4.46-10-10-10h-6.7v-18.22h6.7c5.54 0 10-4.48 10-10s-4.46-10-10-10h-6.7v-5.32c57.3-29.96 95.76-93.16 97.32-160.18 11.88-12.3 19.22-29 19.22-47.4 0-34.78-26.18-63.54-59.84-67.68 3.16-14.3 1.68-29.34-4.46-42.92-15.54-34.28-56.04-49.52-90.3-34-1.2 0.54-2.38 1.12-3.54 1.74-6.72-8-15.2-14.34-24.92-18.58-32.74-14.28-70.7-0.72-87.34 30.24-30.56-5.32-61.36 10.8-74.08 40a68.126 68.126 0 0 0-5.64 25.14c-29.4 7.6-51.16 34.34-51.16 66.06 0 19.68 8.38 37.44 21.76 49.9 1.66 66.64 39.28 127.52 97.32 157.68v5.32h-6.7c-5.54 0-10 4.48-10 10s4.46 10 10 10h6.7v101.18c0 5.52 4.48 10 10 10h27.36v18.14c0 5.52 4.48 10 10 10h25.46v129.32c0 59.48 32.96 111.38 81.54 138.48h-190.7v-172.2c0-5.52-4.46-10-10-10h-128.28v-143.68c0-5.52-4.48-10-10-10H187.58c39.78-37.22 68.66-93.04 84.18-163.34 13.44-60.88 12.38-110.94 12.28-114.7 0.08-157.24 128.02-285.12 285.26-285.12 157.3 0 285.28 127.96 285.28 285.26v475.3zM437.94 253.36c0.44-5.16 1.74-10.26 3.82-15.06 9.84-22.6 34.98-34.12 58.46-26.82 1.7 0.52 3.38 1.14 5.02 1.86 11.82 5.14 20.92 14.58 25.62 26.56 4.72 12 4.48 25.1-0.66 36.9a9.976 9.976 0 0 0 5.16 13.16 9.98 9.98 0 0 0 13.16-5.16c7.28-16.72 7.62-35.26 0.96-52.22-6.18-15.7-17.68-28.28-32.6-35.84 12.52-19.72 37.92-27.96 59.98-18.36 6.46 2.82 12.1 6.94 16.7 12.1-20 19.76-26.12 50.5-14.24 76.7a9.992 9.992 0 0 0 13.24 4.98c5.02-2.28 7.26-8.2 4.98-13.22-9.4-20.74-2.88-45.48 15.5-58.86 2.64-1.92 5.5-3.6 8.54-4.96 24.2-10.98 52.84-0.2 63.82 24.02 5.06 11.2 5.64 23.8 1.76 35.32-31.64 5.9-55.7 33.7-55.7 67.04 0 5.52 4.48 10 10 10 5.54 0 10-4.48 10-10 0-26.58 21.64-48.22 48.22-48.22 26.6 0 48.24 21.64 48.24 48.22 0 26.6-21.64 48.22-48.24 48.22h-263.2c-0.28 0-0.54 0.06-0.82 0.08-0.26-0.02-0.52-0.08-0.8-0.08-26.6 0-48.22-21.62-48.22-48.22 0-26.58 21.62-48.22 48.22-48.22 26.58 0 48.22 21.64 48.22 48.22 0 5.52 4.48 10 10 10s10-4.48 10-10c0-36.58-28.96-66.52-65.14-68.14z m-3.08 136.36c0.28 0 0.54-0.06 0.8-0.08 0.28 0.02 0.54 0.08 0.82 0.08h263.24c9.94 0 19.4-2.16 27.92-6.02-6.52 55.98-41.26 106.78-90.54 130.16-0.2 0.08-0.36 0.22-0.56 0.32-0.32 0.2-0.66 0.36-0.96 0.58-0.26 0.2-0.5 0.4-0.74 0.62-0.24 0.2-0.48 0.42-0.7 0.64-0.24 0.24-0.44 0.5-0.64 0.76-0.18 0.26-0.38 0.5-0.56 0.78-0.16 0.26-0.3 0.54-0.44 0.84-0.16 0.28-0.3 0.58-0.42 0.88-0.12 0.3-0.2 0.62-0.28 0.92-0.1 0.32-0.18 0.62-0.24 0.92-0.06 0.38-0.08 0.74-0.12 1.12 0 0.22-0.06 0.42-0.06 0.64v11.52h-125.66v-11.52c0-0.24-0.06-0.48-0.08-0.74-0.02-0.32-0.04-0.66-0.1-0.98-0.06-0.36-0.16-0.68-0.26-1.02-0.08-0.28-0.14-0.56-0.26-0.84-0.12-0.34-0.28-0.64-0.44-0.96-0.14-0.26-0.26-0.52-0.42-0.78-0.18-0.28-0.38-0.54-0.6-0.8-0.18-0.24-0.38-0.5-0.6-0.72-0.22-0.24-0.48-0.46-0.72-0.68-0.24-0.2-0.46-0.42-0.72-0.6-0.32-0.22-0.64-0.4-0.96-0.58-0.2-0.1-0.36-0.24-0.56-0.34-50.36-23.86-84.6-73.34-90.7-129.1 7.9 3.2 16.52 4.98 25.56 4.98z m70.86 164.68h125.66v18.22h-78.92c-5.52 0-10 4.48-10 10s4.48 10 10 10h78.92v16.1h-78.92c-5.52 0-10 4.46-10 10 0 5.52 4.48 10 10 10h78.92v16.86h-125.66V554.4z m37.36 111.18h50.94v8.14h-50.94v-8.14z" fill="#23130D" p-id="60699"></path><path d="M543.08 665.58h50.94v8.14h-50.94z" fill="#636368" p-id="60700"></path><path d="M542.46 582.62c0 5.52 4.48 10 10 10h78.92v16.1h-78.92c-5.52 0-10 4.46-10 10 0 5.52 4.48 10 10 10h78.92v16.86h-125.66V554.4h125.66v18.22h-78.92c-5.52 0-10 4.48-10 10z" fill="#E1E1E5" p-id="60701"></path><path d="M747.92 321.5c0 26.6-21.64 48.22-48.24 48.22h-263.2c-0.28 0-0.54 0.06-0.82 0.08-0.26-0.02-0.52-0.08-0.8-0.08-26.6 0-48.22-21.62-48.22-48.22 0-26.58 21.62-48.22 48.22-48.22 26.58 0 48.22 21.64 48.22 48.22 0 5.52 4.48 10 10 10s10-4.48 10-10c0-36.58-28.96-66.52-65.14-68.14 0.44-5.16 1.74-10.26 3.82-15.06 9.84-22.6 34.98-34.12 58.46-26.82 1.7 0.52 3.38 1.14 5.02 1.86 11.82 5.14 20.92 14.58 25.62 26.56 4.72 12 4.48 25.1-0.66 36.9a9.976 9.976 0 0 0 5.16 13.16 9.98 9.98 0 0 0 13.16-5.16c7.28-16.72 7.62-35.26 0.96-52.22-6.18-15.7-17.68-28.28-32.6-35.84 12.52-19.72 37.92-27.96 59.98-18.36 6.46 2.82 12.1 6.94 16.7 12.1-20 19.76-26.12 50.5-14.24 76.7a9.992 9.992 0 0 0 13.24 4.98c5.02-2.28 7.26-8.2 4.98-13.22-9.4-20.74-2.88-45.48 15.5-58.86 2.64-1.92 5.5-3.6 8.54-4.96 24.2-10.98 52.84-0.2 63.82 24.02 5.06 11.2 5.64 23.8 1.76 35.32-31.64 5.9-55.7 33.7-55.7 67.04 0 5.52 4.48 10 10 10 5.54 0 10-4.48 10-10 0-26.58 21.64-48.22 48.22-48.22 26.6 0 48.24 21.64 48.24 48.22z" fill="#E59D89" p-id="60702"></path><path d="M747.92 321.5c0 26.6-21.64 48.22-48.24 48.22h-263.2c-0.28 0-0.54 0.06-0.82 0.08-0.26-0.02-0.52-0.08-0.8-0.08-26.6 0-48.22-21.62-48.22-48.22 0-3.3 0.34-6.52 0.98-9.64 4.5 21.96 23.96 38.52 47.24 38.52 0.28 0 0.54 0.06 0.8 0.08 0.28-0.02 0.54-0.08 0.82-0.08h263.2c23.28 0 42.76-16.56 47.26-38.52 0.64 3.12 0.98 6.34 0.98 9.64z" opacity=".2" p-id="60703"></path><path d="M727.64 383.7c-4.76 40.92-24.6 79.06-54.18 105.76a152.532 152.532 0 0 1-26.52 19.24c-3.2 1.86-6.48 3.56-9.84 5.16-0.2 0.08-0.36 0.22-0.56 0.32-0.32 0.2-0.66 0.36-0.96 0.58-0.26 0.2-0.5 0.4-0.74 0.62-0.24 0.2-0.48 0.42-0.7 0.64-0.24 0.24-0.44 0.5-0.64 0.76-0.18 0.26-0.38 0.5-0.56 0.78-0.16 0.26-0.3 0.54-0.44 0.84-0.16 0.28-0.3 0.58-0.42 0.88-0.12 0.3-0.2 0.62-0.28 0.92-0.1 0.32-0.18 0.62-0.24 0.92-0.04 0.28-0.06 0.54-0.08 0.8-0.02 0.1-0.02 0.22-0.04 0.32 0 0.22-0.06 0.42-0.06 0.64v11.52h-125.66v-11.52c0-0.24-0.06-0.48-0.08-0.74-0.02-0.32-0.04-0.66-0.1-0.98-0.06-0.36-0.16-0.68-0.26-1.02-0.08-0.28-0.14-0.56-0.26-0.84-0.12-0.34-0.28-0.64-0.44-0.96-0.14-0.26-0.26-0.52-0.42-0.78-0.18-0.28-0.38-0.54-0.6-0.8-0.18-0.24-0.38-0.5-0.6-0.72-0.22-0.24-0.48-0.46-0.72-0.68-0.24-0.2-0.46-0.42-0.72-0.6-0.32-0.22-0.64-0.4-0.96-0.58-0.2-0.1-0.36-0.24-0.56-0.34-50.36-23.86-84.6-73.34-90.7-129.1 3.56 1.44 7.3 2.6 11.16 3.42 4.64 1.02 9.46 1.56 14.4 1.56 0.28 0 0.54-0.06 0.8-0.08 0.28 0.02 0.54 0.08 0.82 0.08h263.24c9.94 0 19.4-2.16 27.92-6.02z" fill="#F9C139" p-id="60704"></path><path d="M727.64 383.7a171.32 171.32 0 0 1-3.98 21.66 67.448 67.448 0 0 1-23.94 4.36H436.48c-0.28 0-0.54-0.06-0.82-0.08-0.26 0.02-0.52 0.08-0.8 0.08-7.62 0-14.94-1.26-21.78-3.58-1.72-7-2.98-14.14-3.78-21.4 7.9 3.2 16.52 4.98 25.56 4.98 0.28 0 0.54-0.06 0.8-0.08 0.28 0.02 0.54 0.08 0.82 0.08h263.24c9.94 0 19.4-2.16 27.92-6.02z" opacity=".2" p-id="60705"></path><path d="M569.3 62.48c-157.24 0-285.18 127.88-285.26 285.12 0.1 3.76 1.16 53.82-12.28 114.7-15.52 70.3-44.4 126.12-84.18 163.34h113.52c5.52 0 10 4.48 10 10v143.68h128.28c5.54 0 10 4.48 10 10v172.2h190.7c-48.58-27.1-81.54-79-81.54-138.48v-129.32h-25.46c-5.52 0-10-4.48-10-10v-18.14h-27.36c-5.52 0-10-4.48-10-10V554.4h-6.7c-5.54 0-10-4.48-10-10s4.46-10 10-10h6.7v-5.32c-58.04-30.16-95.66-91.04-97.32-157.68-13.38-12.46-21.76-30.22-21.76-49.9 0-31.72 21.76-58.46 51.16-66.06 0.26-8.6 2.16-17.16 5.64-25.14 12.72-29.2 43.52-45.32 74.08-40 16.64-30.96 54.6-44.52 87.34-30.24 9.72 4.24 18.2 10.58 24.92 18.58 1.16-0.62 2.34-1.2 3.54-1.74 34.26-15.52 74.76-0.28 90.3 34a68.31 68.31 0 0 1 4.46 42.92c33.66 4.14 59.84 32.9 59.84 67.68 0 18.4-7.34 35.1-19.22 47.4-1.56 67.02-40.02 130.22-97.32 160.18v5.32h6.7c5.54 0 10 4.48 10 10s-4.46 10-10 10h-6.7v18.22h6.7c5.54 0 10 4.48 10 10s-4.46 10-10 10h-6.7v16.1h6.7c5.54 0 10 4.46 10 10 0 5.52-4.46 10-10 10h-6.7v26.86c0 5.52-4.48 10-10 10h-27.36v18.14c0 5.52-4.48 10-10 10h-25.48v129.32c0 76.36 62.14 138.48 138.5 138.48 75.84 0 137.54-62.12 137.54-138.48V347.74c0-157.3-127.98-285.26-285.28-285.26zM305.28 347.64c0-5.52 4.48-10 10-10h28.98c5.52 0 10 4.48 10 10s-4.48 10-10 10h-28.98c-5.52 0-10-4.48-10-10z m64.02 103.48a9.992 9.992 0 0 1 13.66 3.68c2.76 4.78 1.12 10.9-3.66 13.66l-25.1 14.48c-1.58 0.9-3.3 1.34-4.98 1.34-3.46 0-6.82-1.8-8.68-5.02a10.004 10.004 0 0 1 3.66-13.66l25.1-14.48z m13.66-210.62c-1.86 3.2-5.22 5-8.66 5-1.7 0-3.42-0.44-5-1.34l-25.1-14.5a10.004 10.004 0 0 1-3.66-13.66 10.008 10.008 0 0 1 13.66-3.66l25.1 14.5a10.004 10.004 0 0 1 3.66 13.66z m384.84 3.66c-1.58 0.9-3.3 1.34-5 1.34-3.46 0-6.82-1.8-8.68-5a10.004 10.004 0 0 1 3.66-13.66l25.1-14.5c4.78-2.76 10.9-1.12 13.66 3.66s1.12 10.9-3.66 13.66l-25.08 14.5z m28.74 235.12c-1.86 3.2-5.22 5-8.68 5-1.68 0-3.4-0.44-4.98-1.34l-25.1-14.48a10.004 10.004 0 0 1-3.66-13.66 10.004 10.004 0 0 1 13.66-3.66l25.1 14.48a10.004 10.004 0 0 1 3.66 13.66z m25.26-121.62h-28.96c-5.52 0-10-4.48-10-10 0-5.54 4.48-10 10-10h28.96c5.54 0 10 4.46 10 10 0 5.52-4.46 10-10 10z" fill="#F8D3C9" p-id="60706"></path><path d="M335.76 625.64h-34.66c5.52 0 10 4.48 10 10v143.68h34.66v-143.68c0-5.52-4.48-10-10-10z m138.28 153.68h-34.66c5.54 0 10 4.48 10 10v172.2h34.66v-172.2c0-5.52-4.46-10-10-10z m95.26-716.84c-157.24 0-285.18 127.88-285.26 285.12 0.1 3.76 1.16 53.82-12.28 114.7-15.52 70.3-44.4 126.12-84.18 163.34h34.66c39.78-37.22 68.66-93.04 84.18-163.34 10.24-46.42 12.06-86.56 12.3-104.66h-3.44c-5.52 0-10-4.48-10-10s4.48-10 10-10h3.6c1.34-38.38 10.3-74.84 25.4-107.94l-0.08-0.04a10.004 10.004 0 0 1-3.66-13.66 9.994 9.994 0 0 1 12.66-4.16c45.78-84.12 132.64-142.78 233.44-148.84-5.74-0.34-11.52-0.52-17.34-0.52z" fill="#FFFFFF" opacity=".4" p-id="60707"></path><path d="M569.3 62.48c-5.82 0-11.6 0.18-17.32 0.52 100.62 6.06 187.34 64.52 233.18 148.38 4.3-1.22 9.04 0.58 11.38 4.62a10.02 10.02 0 0 1-2.56 12.94 283.066 283.066 0 0 1 25.76 108.72h2.06c5.54 0 10 4.46 10 10 0 5.52-4.46 10-10 10h-1.88v465.38c0 70.48-52.54 128.82-120.26 137.38 5.7 0.74 11.5 1.1 17.38 1.1 75.84 0 137.54-62.12 137.54-138.48V347.74c0-157.3-127.98-285.26-285.28-285.26z" opacity=".2" p-id="60708"></path><path d="M382.96 240.5c-1.86 3.2-5.22 5-8.66 5-1.7 0-3.42-0.44-5-1.34l-25.1-14.5a10.004 10.004 0 0 1-3.66-13.66 10.008 10.008 0 0 1 13.66-3.66l25.1 14.5a10.004 10.004 0 0 1 3.66 13.66zM354.26 347.64c0 5.52-4.48 10-10 10h-28.98c-5.52 0-10-4.48-10-10s4.48-10 10-10h28.98c5.52 0 10 4.48 10 10zM379.3 468.46l-25.1 14.48c-1.58 0.9-3.3 1.34-4.98 1.34-3.46 0-6.82-1.8-8.68-5.02a10.004 10.004 0 0 1 3.66-13.66l25.1-14.48a9.992 9.992 0 0 1 13.66 3.68c2.76 4.78 1.12 10.9-3.66 13.66zM796.54 479.28c-1.86 3.2-5.22 5-8.68 5-1.68 0-3.4-0.44-4.98-1.34l-25.1-14.48a10.004 10.004 0 0 1-3.66-13.66 10.004 10.004 0 0 1 13.66-3.66l25.1 14.48a10.004 10.004 0 0 1 3.66 13.66zM831.8 347.66c0 5.52-4.46 10-10 10h-28.96c-5.52 0-10-4.48-10-10 0-5.54 4.48-10 10-10h28.96c5.54 0 10 4.46 10 10zM792.88 229.66l-25.08 14.5c-1.58 0.9-3.3 1.34-5 1.34-3.46 0-6.82-1.8-8.68-5a10.004 10.004 0 0 1 3.66-13.66l25.1-14.5c4.78-2.76 10.9-1.12 13.66 3.66s1.12 10.9-3.66 13.66z" fill="#23130D" p-id="60709"></path><path d="M505.72 554.4h15.36v91.18h-15.36z" opacity=".2" p-id="60710"></path><path d="M602.5 534.4h-35.8l-146.24-146.24c4.64 1.02 9.46 1.56 14.4 1.56 0.28 0 0.54-0.06 0.8-0.08 0.28 0.02 0.54 0.08 0.82 0.08h21.36l144.66 144.68zM631.48 521.92c-0.02 0.1-0.02 0.22-0.04 0.32 0 0.22-0.06 0.42-0.06 0.64v11.52h-14.96l-144.66-144.68h27.52l132.2 132.2zM673.46 489.46a152.532 152.532 0 0 1-26.52 19.24l-118.98-118.98h45.76l99.74 99.74z" fill="#FFFFFF" opacity=".4" p-id="60711"></path></svg>