<?xml version="1.0" standalone="no"?><!DOCTYPE svg PUBLIC "-//W3C//DTD SVG 1.1//EN" "http://www.w3.org/Graphics/SVG/1.1/DTD/svg11.dtd"><svg t="1625811529617" class="icon" viewBox="0 0 1024 1024" version="1.1" xmlns="http://www.w3.org/2000/svg" p-id="33514" xmlns:xlink="http://www.w3.org/1999/xlink" width="200" height="200"><defs><style type="text/css"></style></defs><path d="M720.46 258c0-25.24-20.52-45.76-45.76-45.76s-45.78 20.52-45.78 45.76 20.54 45.78 45.78 45.78 45.76-20.54 45.76-45.78z m-71.54 0c0-14.2 11.56-25.76 25.78-25.76 14.2 0 25.76 11.56 25.76 25.76 0 14.22-11.56 25.78-25.76 25.78-14.22 0-25.78-11.56-25.78-25.78z" fill="#23130D" p-id="33515"></path><path d="M939.76 582.92l-43.88-43.88c19.18-40.04 28.76-84.54 27.74-129.2s-12.66-88.66-33.68-127.78l25.72-25.72c8.08-8.08 12.54-18.84 12.54-30.26s-4.46-22.18-12.54-30.26l-40.9-40.9c-8.1-8.08-18.84-12.54-30.26-12.54-5.72 0-11.26 1.12-16.38 3.24a42.566 42.566 0 0 0-13.88 9.3L792.2 176.94c-44.98-28.66-96.78-43.86-150.44-44.2l-91.86-91.86a10.094 10.094 0 0 0-7.08-2.92 10 10 0 0 0-7.06 2.92c-0.86 0.88-1.5 1.88-1.98 2.92-0.06 0.1-0.12 0.2-0.16 0.3-0.2 0.5-0.36 1.02-0.48 1.52-0.02 0.12-0.08 0.24-0.1 0.36-0.14 0.66-0.2 1.32-0.2 2V153.6c-35.06 14.24-66.5 35.14-93.54 62.18l-153.14 153.14c-45.28 45.28-74.04 104.96-81.28 168.42l-56.54 56.4a10.032 10.032 0 0 0-0.02 14.16c1.96 1.94 4.52 2.92 7.08 2.92s5.12-0.96 7.06-2.92l50.14-50.02 160-159.6a9.988 9.988 0 0 0 0.02-14.14 9.988 9.988 0 0 0-14.14-0.02l-129.32 129c10.76-48.96 35.42-94.34 71.14-130.06l13.4-13.4 139.74-139.74c26.68-26.68 57.94-46.92 92.94-60.16 0.12-0.04 0.26-0.1 0.38-0.16 29.1-10.96 59.66-16.64 90.88-16.9 53.86-0.52 105.92 15.2 150.28 45.32h0.02c0.06 0.04 0.1 0.08 0.16 0.12 13.68 9.32 26.58 20 38.34 31.76 16.56 16.56 30.84 35.18 42.44 55.38 44.5 77.62 46.74 171.54 5.96 251.24-12.44 24.38-28.72 46.7-48.4 66.38l-133.32 133.34c-0.02 0.02-0.04 0.04-0.06 0.04l-18.04 18.04-0.16 0.18-1.58 1.58c-19.64 19.64-41.98 35.92-66.4 48.38-0.04 0.02-0.08 0.04-0.1 0.06-17.4 8.88-35.62 15.76-54.44 20.56l123.68-123.38c3.9-3.9 3.92-10.24 0.02-14.14a9.988 9.988 0 0 0-14.14-0.02l-154.58 154.2-55.56 55.42a9.988 9.988 0 0 0-0.02 14.14c1.96 1.96 4.52 2.94 7.08 2.94s5.1-0.96 7.06-2.92l61-60.84c28.74-4.08 56.46-12.46 82.56-24.98l43.86 43.88c6.86 6.86 15.98 10.62 25.68 10.62s18.82-3.76 25.68-10.62l42.18-42.2a36.08 36.08 0 0 0 10.64-25.68c0-9.72-3.78-18.84-10.64-25.68l-32.5-32.52 99.34-99.34 32.52 32.5c7.08 7.1 16.38 10.64 25.68 10.64s18.6-3.54 25.68-10.62l42.2-42.2c6.86-6.86 10.62-15.98 10.62-25.7 0-9.7-3.78-18.82-10.62-25.66zM552.84 146.32V72.1l61.72 61.72c-21 1.86-41.66 6.04-61.72 12.5z m287.74 69.44c-9.84-9.84-20.44-19-31.62-27.3l19.42-19.4c4.3-4.3 10.02-6.68 16.12-6.68 6.08 0 11.8 2.38 16.12 6.68l40.9 40.9c4.3 4.32 6.68 10.04 6.68 16.12s-2.38 11.8-6.68 16.12l-22.04 22.04a284.82 284.82 0 0 0-38.9-48.48z m-107.88 574.2c3.08 3.08 4.78 7.18 4.78 11.54s-1.7 8.46-4.78 11.54l-42.18 42.2c-3.08 3.08-7.18 4.76-11.54 4.76s-8.46-1.68-11.54-4.76l-39.46-39.48c21.64-12.4 41.58-27.68 59.44-45.54l12.78-12.78 32.5 32.52z m192.9-169.82l-42.18 42.2c-6.36 6.36-16.72 6.36-23.08-0.02l-32.52-32.5 12.76-12.78c17.9-17.9 33.16-37.86 45.54-59.46l39.48 39.48c3.08 3.08 4.78 7.18 4.78 11.54s-1.68 8.46-4.78 11.54z" fill="#23130D" p-id="33516"></path><path d="M687.42 770.22c-17.86 17.86-37.8 33.14-59.44 45.54l39.46 39.48c3.08 3.08 7.18 4.76 11.54 4.76s8.46-1.68 11.54-4.76l42.18-42.2c3.08-3.08 4.78-7.18 4.78-11.54s-1.7-8.46-4.78-11.54l-32.5-32.52-12.78 12.78zM886.12 557.58c-12.38 21.6-27.64 41.56-45.54 59.46l-12.76 12.78 32.52 32.5c6.36 6.38 16.72 6.38 23.08 0.02l42.18-42.2c3.1-3.08 4.78-7.18 4.78-11.54s-1.7-8.46-4.78-11.54l-39.48-39.48z" fill="#F8D3C9" p-id="33517"></path><path d="M715.86 773.1l-12.78 12.78c-17.86 17.86-37.8 33.14-59.44 45.54l-15.66-15.66c21.64-12.4 41.58-27.68 59.44-45.54l12.78-12.78 15.66 15.66zM901.78 573.24c-12.38 21.6-27.64 41.56-45.54 59.46l-12.76 12.78-15.66-15.66 12.76-12.78c17.9-17.9 33.16-37.86 45.54-59.46l15.66 15.66z" fill="#23130D" opacity=".2" p-id="33518"></path><path d="M552.84 146.32c20.06-6.46 40.72-10.64 61.72-12.5l-61.72-61.72v74.22z" fill="#F8D3C9" p-id="33519"></path><path d="M614.56 133.82c-21 1.86-41.66 6.04-61.72 12.5v-20c14.36-4.62 29-8.08 43.88-10.34l17.84 17.84z" fill="#23130D" opacity=".2" p-id="33520"></path><path d="M908.2 226.08c0-6.08-2.38-11.8-6.68-16.12l-40.9-40.9a22.716 22.716 0 0 0-16.12-6.68c-6.1 0-11.82 2.38-16.12 6.68l-19.42 19.4c11.18 8.3 21.78 17.46 31.62 27.3a284.82 284.82 0 0 1 38.9 48.48l22.04-22.04c4.3-4.32 6.68-10.04 6.68-16.12z" fill="#F8D3C9" p-id="33521"></path><path d="M894.68 249.04l-15.2 15.2a284.82 284.82 0 0 0-38.9-48.48c-9.84-9.84-20.44-19-31.62-27.3l15.2-15.2c11.18 8.3 21.78 17.46 31.62 27.3a284.82 284.82 0 0 1 38.9 48.48z" fill="#23130D" opacity=".2" p-id="33522"></path><path d="M345.96 568.52c-13.74 0-26.66 5.34-36.36 15.06-9.72 9.7-15.06 22.62-15.06 36.36s5.34 26.66 15.06 36.38a10.006 10.006 0 0 0 14.14 0 10.006 10.006 0 0 0 0-14.14c-12.26-12.26-12.26-32.2 0-44.46s32.2-12.26 44.46 0c12.24 12.26 12.24 32.2 0 44.46-0.94 0.92-1.62 1.98-2.1 3.1-1.14 0.5-2.2 1.18-3.12 2.1l-74.34 74.34a10.006 10.006 0 0 0 0 14.14c1.96 1.96 4.52 2.92 7.08 2.92s5.12-0.96 7.06-2.92l74.34-74.34c0.92-0.92 1.6-1.98 2.1-3.1 1.12-0.5 2.2-1.18 3.12-2.1 20.04-20.06 20.04-52.68 0-72.74-9.72-9.72-22.64-15.06-36.38-15.06zM461.12 641.88c-3.9-3.9-10.24-3.92-14.14 0l-140.04 140.02-9.6 9.6a10.006 10.006 0 0 0 7.08 17.08c2.56 0 5.12-0.98 7.06-2.94l11.4-11.4 138.24-138.22a10.006 10.006 0 0 0 0-14.14zM514.42 675.26a10.006 10.006 0 0 0-14.14 0l-140.88 140.88-152.84 152.84a10.006 10.006 0 0 0 0 14.14c1.96 1.94 4.52 2.92 7.08 2.92s5.12-0.98 7.06-2.92l158.28-158.28 135.44-135.44a10.006 10.006 0 0 0 0-14.14zM582.64 693.72a10.006 10.006 0 0 0-14.14 0l-144.48 144.5-40.86 40.86a10.006 10.006 0 0 0 0 14.14c1.96 1.94 4.52 2.92 7.08 2.92s5.12-0.98 7.06-2.92L448.52 842l134.12-134.14a9.97 9.97 0 0 0 0-14.14zM247.54 682.08a10.006 10.006 0 0 0-14.14 0l-0.42 0.42-156.44 156.44a10.006 10.006 0 0 0 0 14.14 9.96 9.96 0 0 0 7.08 2.92c2.56 0 5.12-0.96 7.06-2.92l151.42-151.42 5.44-5.44a10.006 10.006 0 0 0 0-14.14z" fill="#F9C139" p-id="33523"></path><path d="M676.04 687.56c3.9 3.9 3.88 10.24-0.02 14.14l-123.68 123.38c18.82-4.8 37.04-11.68 54.44-20.56 0.02-0.02 0.06-0.04 0.1-0.06 24.42-12.46 46.76-28.74 66.4-48.38l1.58-1.58 0.16-0.18 18.04-18.04c0.02 0 0.04-0.02 0.06-0.04l133.32-133.34c19.68-19.68 35.96-42 48.4-66.38 40.78-79.7 38.54-173.62-5.96-251.24-11.6-20.2-25.88-38.82-42.44-55.38a266.772 266.772 0 0 0-38.34-31.76c-0.06-0.04-0.1-0.08-0.16-0.12h-0.02c-44.36-30.12-96.42-45.84-150.28-45.32-31.22 0.26-61.78 5.94-90.88 16.9-0.12 0.06-0.26 0.12-0.38 0.16-35 13.24-66.26 33.48-92.94 60.16l-139.74 139.74-13.4 13.4c-35.72 35.72-60.38 81.1-71.14 130.06l129.32-129a9.988 9.988 0 0 1 14.14 0.02 9.988 9.988 0 0 1-0.02 14.14l-160 159.6c-0.54 6.8-0.8 13.7-0.8 20.64 0 12.22 0.82 24.24 2.44 36.02l137.54-137.54a10.006 10.006 0 0 1 14.14 0 9.97 9.97 0 0 1 0 14.14l-147.32 147.32c3.54 15.22 8.36 29.94 14.38 44.04l0.42-0.42a10.006 10.006 0 0 1 14.14 0 10.006 10.006 0 0 1 0 14.14l-5.44 5.44a265.954 265.954 0 0 0 64.84 80.24l140.04-140.02c3.9-3.92 10.24-3.9 14.14 0s3.9 10.24 0 14.14l-138.24 138.22c11.52 8.22 23.72 15.56 36.52 21.9l140.88-140.88a10.006 10.006 0 0 1 14.14 0 10.006 10.006 0 0 1 0 14.14l-135.44 135.44c14.42 5.74 29.48 10.24 45.04 13.38l144.48-144.5a10.006 10.006 0 0 1 14.14 0 9.97 9.97 0 0 1 0 14.14L448.52 842c9.28 0.98 18.72 1.48 28.26 1.48 10.32 0 20.52-0.6 30.54-1.74l154.58-154.2a9.988 9.988 0 0 1 14.14 0.02z m-293.7-31.24c-0.92 0.92-2 1.6-3.12 2.1-0.5 1.12-1.18 2.18-2.1 3.1l-74.34 74.34c-1.94 1.96-4.5 2.92-7.06 2.92s-5.12-0.96-7.08-2.92a10.006 10.006 0 0 1 0-14.14l74.34-74.34c0.92-0.92 1.98-1.6 3.12-2.1 0.48-1.12 1.16-2.18 2.1-3.1 12.24-12.26 12.24-32.2 0-44.46-12.26-12.26-32.2-12.26-44.46 0s-12.26 32.2 0 44.46c3.9 3.9 3.9 10.24 0 14.14s-10.24 3.9-14.14 0c-9.72-9.72-15.06-22.64-15.06-36.38s5.34-26.66 15.06-36.36c9.7-9.72 22.62-15.06 36.36-15.06s26.66 5.34 36.38 15.06c20.04 20.06 20.04 52.68 0 72.74zM628.92 258c0-25.24 20.54-45.76 45.78-45.76s45.76 20.52 45.76 45.76-20.52 45.78-45.76 45.78-45.78-20.54-45.78-45.78z" fill="#E8790A" p-id="33524"></path><path d="M868.88 285.28a264.964 264.964 0 0 0-58.3-69.98c10.44 12.28 19.72 25.46 27.72 39.4 44.5 77.62 46.74 171.54 5.96 251.24-12.44 24.38-28.72 46.7-48.4 66.38l-117.92 117.94a9.98 9.98 0 0 1-1.92 11.44l-123.68 123.38c18.82-4.8 37.04-11.68 54.44-20.56 0.02-0.02 0.06-0.04 0.1-0.06 24.42-12.46 46.76-28.74 66.4-48.38l1.58-1.58 0.16-0.18 18.04-18.04c0.02 0 0.04-0.02 0.06-0.04l133.32-133.34c19.68-19.68 35.96-42 48.4-66.38 40.78-79.7 38.54-173.62-5.96-251.24z" fill="#23130D" opacity=".2" p-id="33525"></path><path d="M700.46 258c0-14.2-11.56-25.76-25.76-25.76-14.22 0-25.78 11.56-25.78 25.76 0 14.22 11.56 25.78 25.78 25.78 14.2 0 25.76-11.56 25.76-25.78z" fill="#F8D3C9" p-id="33526"></path><path d="M365.92 477a10.006 10.006 0 0 0-14.14 0l-137.54 137.54-47.8 47.8a9.97 9.97 0 0 0 0 14.14c1.94 1.96 4.5 2.94 7.06 2.94s5.12-0.98 7.08-2.94l38.02-38.02 147.32-147.32a9.97 9.97 0 0 0 0-14.14zM106.662 659.568c2.56 0 5.118-0.976 7.072-2.93l23.5-23.5a10 10 0 1 0-14.142-14.14l-23.5 23.5a9.996 9.996 0 0 0 0 14.14 9.96 9.96 0 0 0 7.07 2.93zM426.508 922.414l-23.502 23.498a10 10 0 0 0 7.072 17.072 9.968 9.968 0 0 0 7.07-2.928l23.502-23.498a10 10 0 1 0-14.142-14.144zM218.878 811.564l23.5-23.498a10 10 0 1 0-14.142-14.144l-23.5 23.498a10 10 0 0 0 7.072 17.072 9.968 9.968 0 0 0 7.07-2.928zM285.726 817.266a10 10 0 0 0-14.142 0L188.34 900.51a9.996 9.996 0 0 0 7.072 17.07c2.56 0 5.118-0.976 7.072-2.93l83.244-83.244a10 10 0 0 0-0.002-14.14zM358.27 903.958l-51.09 51.09a9.996 9.996 0 0 0 7.072 17.07c2.56 0 5.118-0.976 7.072-2.93l51.09-51.09a9.996 9.996 0 0 0 0-14.14 9.998 9.998 0 0 0-14.144 0zM97.526 755.394c2.56 0 5.118-0.976 7.072-2.93l51.092-51.092a10 10 0 1 0-14.142-14.14l-51.092 51.092a9.996 9.996 0 0 0 0 14.14 9.96 9.96 0 0 0 7.07 2.93z" fill="#F9C139" p-id="33527"></path></svg>