<?xml version="1.0" standalone="no"?><!DOCTYPE svg PUBLIC "-//W3C//DTD SVG 1.1//EN" "http://www.w3.org/Graphics/SVG/1.1/DTD/svg11.dtd"><svg t="1625812261722" class="icon" viewBox="0 0 1024 1024" version="1.1" xmlns="http://www.w3.org/2000/svg" p-id="57512" xmlns:xlink="http://www.w3.org/1999/xlink" width="200" height="200"><defs><style type="text/css"></style></defs><path d="M832.8 356.58c-75.16-79.76-175.98-128.22-284.64-137.04l-26.3-155.82c-0.02-0.12-0.06-0.2-0.08-0.3-0.08-0.36-0.18-0.7-0.28-1.04-0.1-0.3-0.18-0.6-0.3-0.88-0.12-0.3-0.28-0.56-0.44-0.84-0.16-0.3-0.3-0.6-0.5-0.88-0.16-0.24-0.36-0.48-0.56-0.7-0.2-0.26-0.42-0.52-0.64-0.76-0.24-0.22-0.48-0.42-0.72-0.62s-0.5-0.42-0.76-0.6-0.54-0.32-0.82-0.48c-0.3-0.16-0.58-0.32-0.88-0.44-0.28-0.12-0.58-0.2-0.86-0.3-0.36-0.1-0.7-0.2-1.06-0.28-0.1-0.02-0.2-0.06-0.3-0.08-0.2-0.04-0.42-0.02-0.62-0.04-0.34-0.04-0.68-0.08-1.02-0.08-0.38 0-0.76 0.04-1.14 0.08-0.18 0.02-0.36 0-0.54 0.04-0.1 0.02-0.18 0.06-0.26 0.06-0.4 0.08-0.78 0.2-1.16 0.32-0.26 0.08-0.52 0.16-0.76 0.26-0.34 0.14-0.64 0.32-0.96 0.5-0.26 0.14-0.52 0.26-0.76 0.44-0.28 0.18-0.54 0.4-0.8 0.62-0.24 0.2-0.48 0.38-0.68 0.58-0.24 0.24-0.46 0.52-0.68 0.78-0.18 0.24-0.38 0.46-0.54 0.7-0.2 0.28-0.34 0.58-0.5 0.86s-0.32 0.56-0.44 0.86c-0.12 0.28-0.2 0.58-0.28 0.86-0.12 0.36-0.22 0.7-0.3 1.06-0.02 0.1-0.06 0.2-0.08 0.3l-26.3 155.82c-108.66 8.82-209.48 57.28-284.64 137.04-77.28 82.02-119.84 189.28-119.88 302.02 0 0.04-0.02 0.08-0.02 0.12 0 5.52 4.48 10 10 10h237.2a10.006 10.006 0 0 0 10-10c0-69.22 39.88-132.92 100.86-163.82l-16.98 100.56v0.04c-1.5 6.98-2.28 14.14-2.28 21.32 0 56.18 45.72 101.9 101.9 101.9s101.9-45.72 101.9-101.9c0-7.18-0.78-14.34-2.28-21.3v-0.06l-16.98-100.56c60.98 30.9 100.86 94.6 100.86 163.82a10.006 10.006 0 0 0 10 10h237.18c5.54 0 10-4.48 10-10v-0.1c-0.02-112.76-42.6-220.02-119.88-302.04z m-487.76 185.76c-22 31.5-34.42 68.1-36.26 106.38H91.44c0.76-32.58 5.3-64.32 13.16-94.76l40.28 10.8c0.86 0.22 1.74 0.34 2.6 0.34a9.96 9.96 0 0 0 9.64-7.42c1.44-5.34-1.72-10.82-7.06-12.24l-40.02-10.72a419.62 419.62 0 0 1 35.38-82.06l34.74 20.08c1.58 0.9 3.3 1.34 5 1.34 3.46 0 6.82-1.8 8.68-5 2.76-4.78 1.12-10.9-3.68-13.66l-34.5-19.94a423.83 423.83 0 0 1 54.96-69.94l27.46 27.44a9.9 9.9 0 0 0 7.06 2.94 10.006 10.006 0 0 0 7.08-17.08l-27.32-27.32A422.512 422.512 0 0 1 295.64 298l19 32.94c1.86 3.2 5.22 5 8.68 5a10.004 10.004 0 0 0 8.64-15l-18.96-32.84c25.8-13.92 53.24-25.22 81.94-33.54l9.72 36.26a10.002 10.002 0 0 0 12.26 7.08c5.32-1.44 8.5-6.92 7.06-12.24l-9.7-36.2c18.9-4.5 38.3-7.7 58.12-9.56L433.38 471c-35.62 14.92-66.08 39.46-88.34 71.34zM512 698.72c-45.16 0-81.9-36.74-81.9-81.9 0-6 0.66-12 1.96-17.82 0-0.04 0-0.08 0.02-0.12 0-0.04 0.02-0.06 0.02-0.1l62.18-368.4c0.02-0.04 0.02-0.08 0.02-0.12l17.7-104.8 17.7 104.8c0 0.04 0 0.08 0.02 0.14l62.18 368.38c0 0.04 0.02 0.06 0.02 0.1 0.02 0.04 0.02 0.08 0.02 0.12 1.3 5.82 1.96 11.8 1.96 17.82 0 45.16-36.74 81.9-81.9 81.9z m203.22-50c-1.84-38.28-14.26-74.88-36.26-106.38-22.26-31.88-52.72-56.42-88.34-71.34L551.6 239.9c19.82 1.86 39.22 5.06 58.12 9.56l-9.7 36.2c-1.44 5.32 1.74 10.8 7.06 12.24a10.002 10.002 0 0 0 12.26-7.08l9.72-36.26c28.7 8.32 56.14 19.62 81.94 33.54l-18.96 32.84a10.004 10.004 0 0 0 8.64 15c3.46 0 6.82-1.8 8.68-5l19-32.94a422.512 422.512 0 0 1 70.74 53.52l-27.32 27.32a10.006 10.006 0 0 0 7.08 17.08c2.56 0 5.12-0.98 7.06-2.94l27.46-27.44a423.83 423.83 0 0 1 54.96 69.94l-34.5 19.94a9.992 9.992 0 0 0-3.68 13.66c1.86 3.2 5.22 5 8.68 5 1.7 0 3.42-0.44 5-1.34l34.74-20.08a419.62 419.62 0 0 1 35.38 82.06l-40.02 10.72a10.002 10.002 0 1 0 5.18 19.32l40.28-10.8c7.86 30.44 12.4 62.18 13.16 94.76H715.22z" fill="#23130D" p-id="57513"></path><path d="M932.56 648.72H715.22c-1.84-38.28-14.26-74.88-36.26-106.38-22.26-31.88-52.72-56.42-88.34-71.34L551.6 239.9c19.82 1.86 39.22 5.06 58.12 9.56l-9.7 36.2c-1.44 5.32 1.74 10.8 7.06 12.24a10.002 10.002 0 0 0 12.26-7.08l9.72-36.26c28.7 8.32 56.14 19.62 81.94 33.54l-18.96 32.84a10.004 10.004 0 0 0 8.64 15c3.46 0 6.82-1.8 8.68-5l19-32.94a422.512 422.512 0 0 1 70.74 53.52l-27.32 27.32a10.006 10.006 0 0 0 7.08 17.08c2.56 0 5.12-0.98 7.06-2.94l27.46-27.44a423.83 423.83 0 0 1 54.96 69.94l-34.5 19.94a9.992 9.992 0 0 0-3.68 13.66c1.86 3.2 5.22 5 8.68 5 1.7 0 3.42-0.44 5-1.34l34.74-20.08a419.62 419.62 0 0 1 35.38 82.06l-40.02 10.72a10.002 10.002 0 1 0 5.18 19.32l40.28-10.8c7.86 30.44 12.4 62.18 13.16 94.76zM472.4 239.9L433.38 471c-35.62 14.92-66.08 39.46-88.34 71.34-22 31.5-34.42 68.1-36.26 106.38H91.44c0.76-32.58 5.3-64.32 13.16-94.76l40.28 10.8c0.86 0.22 1.74 0.34 2.6 0.34a9.96 9.96 0 0 0 9.64-7.42c1.44-5.34-1.72-10.82-7.06-12.24l-40.02-10.72a419.62 419.62 0 0 1 35.38-82.06l34.74 20.08c1.58 0.9 3.3 1.34 5 1.34 3.46 0 6.82-1.8 8.68-5 2.76-4.78 1.12-10.9-3.68-13.66l-34.5-19.94a423.83 423.83 0 0 1 54.96-69.94l27.46 27.44a9.9 9.9 0 0 0 7.06 2.94 10.006 10.006 0 0 0 7.08-17.08l-27.32-27.32A422.512 422.512 0 0 1 295.64 298l19 32.94c1.86 3.2 5.22 5 8.68 5a10.004 10.004 0 0 0 8.64-15l-18.96-32.84c25.8-13.92 53.24-25.22 81.94-33.54l9.72 36.26a10.002 10.002 0 0 0 12.26 7.08c5.32-1.44 8.5-6.92 7.06-12.24l-9.7-36.2c18.9-4.5 38.3-7.7 58.12-9.56z" fill="#E1E1E5" p-id="57514"></path><path d="M593.9 616.82c0 45.16-36.74 81.9-81.9 81.9s-81.9-36.74-81.9-81.9c0-6 0.66-12 1.96-17.82 0-0.04 0-0.08 0.02-0.12 0-0.04 0.02-0.06 0.02-0.1l62.18-368.4c0.02-0.04 0.02-0.08 0.02-0.12l17.7-104.8 17.7 104.8c0 0.04 0 0.08 0.02 0.14l62.18 368.38c0 0.04 0.02 0.06 0.02 0.1 0.02 0.04 0.02 0.08 0.02 0.12 1.3 5.82 1.96 11.8 1.96 17.82z" fill="#F9C139" p-id="57515"></path><path d="M533.16 695.94c-6.74 1.82-13.84 2.78-21.16 2.78-45.16 0-81.9-36.74-81.9-81.9 0-6 0.66-12 1.96-17.82 0-0.04 0-0.08 0.02-0.12 0-0.04 0.02-0.06 0.02-0.1l62.18-368.4c0.02-0.04 0.02-0.08 0.02-0.12l17.7-104.8 17.7 104.8c0 0.04 0 0.08 0.02 0.14l3.42 20.32-58.74 348.06c0 0.04-0.02 0.06-0.02 0.1-0.02 0.04-0.02 0.08-0.02 0.12-1.3 5.82-1.96 11.82-1.96 17.82 0 37.86 25.82 69.78 60.76 79.12z" fill="#23130D" opacity=".2" p-id="57516"></path><path d="M824.1 697.56c-74.74 0-135.52 60.8-135.52 135.54 0 74.72 60.78 135.52 135.52 135.52s135.52-60.8 135.52-135.52c0-74.74-60.78-135.54-135.52-135.54z m0 251.06c-63.7 0-115.52-51.82-115.52-115.52 0-63.7 51.82-115.54 115.52-115.54 63.7 0 115.52 51.84 115.52 115.54s-51.82 115.52-115.52 115.52z" fill="#23130D" p-id="57517"></path><path d="M824.1 717.56c-63.7 0-115.52 51.84-115.52 115.54s51.82 115.52 115.52 115.52c63.7 0 115.52-51.82 115.52-115.52 0-63.7-51.82-115.54-115.52-115.54z m31.04 54.02c9.72 0 17.6 7.86 17.6 17.58 0 9.72-7.88 17.58-17.6 17.58a17.58 17.58 0 0 1-17.58-17.58 17.58 17.58 0 0 1 17.58-17.58z m-62.6 0c9.72 0 17.58 7.86 17.58 17.58 0 9.72-7.86 17.58-17.58 17.58-9.72 0-17.58-7.86-17.58-17.58 0-9.72 7.86-17.58 17.58-17.58z m31.56 133.74c-39.82 0-72.22-32.4-72.22-72.22 0-5.52 4.48-10 10-10s10 4.48 10 10c0 28.78 23.42 52.22 52.22 52.22 28.8 0 52.22-23.44 52.22-52.22 0-5.52 4.48-10 10-10s10 4.48 10 10c0 39.82-32.4 72.22-72.22 72.22z" fill="#72AF5F" p-id="57518"></path><path d="M896.32 833.1c0 39.82-32.4 72.22-72.22 72.22s-72.22-32.4-72.22-72.22c0-5.52 4.48-10 10-10s10 4.48 10 10c0 28.78 23.42 52.22 52.22 52.22 28.8 0 52.22-23.44 52.22-52.22 0-5.52 4.48-10 10-10s10 4.48 10 10zM810.12 789.16c0 9.72-7.86 17.58-17.58 17.58-9.72 0-17.58-7.86-17.58-17.58 0-9.72 7.86-17.58 17.58-17.58 9.72 0 17.58 7.86 17.58 17.58zM872.74 789.16c0 9.72-7.88 17.58-17.6 17.58a17.58 17.58 0 0 1-17.58-17.58 17.58 17.58 0 0 1 17.58-17.58c9.72 0 17.6 7.86 17.6 17.58zM199.9 697.56c-74.74 0-135.52 60.8-135.52 135.54 0 74.72 60.78 135.52 135.52 135.52s135.52-60.8 135.52-135.52c0-74.74-60.78-135.54-135.52-135.54z m0 251.06c-63.7 0-115.52-51.82-115.52-115.52 0-63.7 51.82-115.54 115.52-115.54 63.7 0 115.52 51.84 115.52 115.54s-51.82 115.52-115.52 115.52z" fill="#23130D" p-id="57519"></path><path d="M199.9 717.56c-63.7 0-115.52 51.84-115.52 115.54s51.82 115.52 115.52 115.52c63.7 0 115.52-51.82 115.52-115.52 0-63.7-51.82-115.54-115.52-115.54z m31.04 46.72c9.72 0 17.6 7.86 17.6 17.58s-7.88 17.58-17.6 17.58c-9.7 0-17.58-7.86-17.58-17.58s7.88-17.58 17.58-17.58z m-62.6 0c9.72 0 17.58 7.86 17.58 17.58s-7.86 17.58-17.58 17.58c-9.72 0-17.58-7.86-17.58-17.58s7.86-17.58 17.58-17.58z m93.78 134.7c-5.52 0-10-4.48-10-10 0-28.8-23.42-52.22-52.22-52.22-28.8 0-52.22 23.42-52.22 52.22 0 5.52-4.48 10-10 10s-10-4.48-10-10c0-39.82 32.4-72.22 72.22-72.22s72.22 32.4 72.22 72.22c0 5.52-4.48 10-10 10z" fill="#EC7063" p-id="57520"></path><path d="M104.38 833.1c0-60.34 46.48-110.02 105.52-115.1-3.3-0.3-6.64-0.44-10-0.44-63.7 0-115.52 51.84-115.52 115.54s51.82 115.52 115.52 115.52c3.36 0 6.7-0.14 10-0.44-59.04-5.08-105.52-54.74-105.52-115.08zM728.58 833.1c0-60.34 46.48-110.02 105.52-115.1-3.3-0.3-6.64-0.44-10-0.44-63.7 0-115.52 51.84-115.52 115.54s51.82 115.52 115.52 115.52c3.36 0 6.7-0.14 10-0.44-59.04-5.08-105.52-54.74-105.52-115.08z" fill="#23130D" opacity=".2" p-id="57521"></path><path d="M272.12 888.98c0 5.52-4.48 10-10 10s-10-4.48-10-10c0-28.8-23.42-52.22-52.22-52.22-28.8 0-52.22 23.42-52.22 52.22 0 5.52-4.48 10-10 10s-10-4.48-10-10c0-39.82 32.4-72.22 72.22-72.22s72.22 32.4 72.22 72.22zM185.92 781.86c0 9.72-7.86 17.58-17.58 17.58-9.72 0-17.58-7.86-17.58-17.58s7.86-17.58 17.58-17.58c9.72 0 17.58 7.86 17.58 17.58zM248.54 781.86c0 9.72-7.88 17.58-17.6 17.58-9.7 0-17.58-7.86-17.58-17.58s7.88-17.58 17.58-17.58c9.72 0 17.6 7.86 17.6 17.58z" fill="#23130D" p-id="57522"></path></svg>