<?xml version="1.0" standalone="no"?><!DOCTYPE svg PUBLIC "-//W3C//DTD SVG 1.1//EN" "http://www.w3.org/Graphics/SVG/1.1/DTD/svg11.dtd"><svg t="1625812278198" class="icon" viewBox="0 0 1024 1024" version="1.1" xmlns="http://www.w3.org/2000/svg" p-id="58469" xmlns:xlink="http://www.w3.org/1999/xlink" width="200" height="200"><defs><style type="text/css"></style></defs><path d="M570.36 430.18c-48.96 0-88.82 39.84-88.82 88.82s39.86 88.82 88.82 88.82c48.98 0 88.84-39.84 88.84-88.82s-39.86-88.82-88.84-88.82z m0 157.64c-37.94 0-68.82-30.86-68.82-68.82 0-37.94 30.88-68.82 68.82-68.82 37.96 0 68.84 30.88 68.84 68.82 0 37.96-30.88 68.82-68.84 68.82z" fill="#23130D" p-id="58470"></path><path d="M570.36 450.18c-37.94 0-68.82 30.88-68.82 68.82 0 37.96 30.88 68.82 68.82 68.82 37.96 0 68.84-30.86 68.84-68.82 0-37.94-30.88-68.82-68.84-68.82z m19.5 36.04c6.1 0 11.04 4.94 11.04 11.04s-4.94 11.04-11.04 11.04-11.04-4.94-11.04-11.04 4.94-11.04 11.04-11.04z m-39.3 0c6.1 0 11.04 4.94 11.04 11.04s-4.94 11.04-11.04 11.04c-6.1 0-11.04-4.94-11.04-11.04s4.94-11.04 11.04-11.04z m50.34 65.3h-61.06c-5.54 0-10-4.46-10-10 0-5.52 4.46-10 10-10h61.06c5.54 0 10 4.48 10 10 0 5.54-4.46 10-10 10z" fill="#F9C139" p-id="58471"></path><path d="M610.9 541.52c0 5.54-4.46 10-10 10h-61.06c-5.54 0-10-4.46-10-10 0-5.52 4.46-10 10-10h61.06c5.54 0 10 4.48 10 10z" fill="#23130D" p-id="58472"></path><path d="M550.56 497.26m-11.04 0a11.04 11.04 0 1 0 22.08 0 11.04 11.04 0 1 0-22.08 0Z" fill="#23130D" p-id="58473"></path><path d="M589.86 497.26m-11.04 0a11.04 11.04 0 1 0 22.08 0 11.04 11.04 0 1 0-22.08 0Z" fill="#23130D" p-id="58474"></path><path d="M735.08 272.2c-48.98 0-88.82 39.84-88.82 88.82 0 48.96 39.84 88.82 88.82 88.82 48.98 0 88.82-39.86 88.82-88.82 0-48.98-39.84-88.82-88.82-88.82z m0 157.64c-37.94 0-68.82-30.88-68.82-68.82 0-37.96 30.88-68.82 68.82-68.82 37.96 0 68.82 30.86 68.82 68.82 0 37.94-30.86 68.82-68.82 68.82z" fill="#23130D" p-id="58475"></path><path d="M735.08 292.2c-37.94 0-68.82 30.86-68.82 68.82 0 37.94 30.88 68.82 68.82 68.82 37.96 0 68.82-30.88 68.82-68.82 0-37.96-30.86-68.82-68.82-68.82z m19.5 25.6c6.1 0 11.04 4.94 11.04 11.04s-4.94 11.04-11.04 11.04c-6.1 0-11.04-4.94-11.04-11.04s4.94-11.04 11.04-11.04z m-39.3 0c6.08 0 11.04 4.94 11.04 11.04s-4.96 11.04-11.04 11.04c-6.1 0-11.06-4.94-11.06-11.04s4.96-11.04 11.06-11.04z m58.88 88.3c-5.52 0-10-4.48-10-10 0-16.02-13.04-29.06-29.08-29.06-16.02 0-29.06 13.04-29.06 29.06 0 5.52-4.48 10-10 10s-10-4.48-10-10c0-27.06 22-49.06 49.06-49.06 27.06 0 49.08 22 49.08 49.06 0 5.52-4.48 10-10 10z" fill="#EC7063" p-id="58476"></path><path d="M784.16 396.1c0 5.52-4.48 10-10 10s-10-4.48-10-10c0-16.02-13.04-29.06-29.08-29.06-16.02 0-29.06 13.04-29.06 29.06 0 5.52-4.48 10-10 10s-10-4.48-10-10c0-27.06 22-49.06 49.06-49.06 27.06 0 49.08 22 49.08 49.06zM726.32 328.84c0 6.1-4.96 11.04-11.04 11.04-6.1 0-11.06-4.94-11.06-11.04s4.96-11.04 11.06-11.04c6.08 0 11.04 4.94 11.04 11.04z" fill="#23130D" p-id="58477"></path><path d="M754.58 328.84m-11.04 0a11.04 11.04 0 1 0 22.08 0 11.04 11.04 0 1 0-22.08 0Z" fill="#23130D" p-id="58478"></path><path d="M255.08 740.76c-48.98 0-88.82 39.86-88.82 88.84 0 48.96 39.84 88.82 88.82 88.82 48.98 0 88.82-39.86 88.82-88.82 0-48.98-39.84-88.84-88.82-88.84z m0 157.66c-37.94 0-68.82-30.88-68.82-68.82 0-37.96 30.88-68.84 68.82-68.84 37.96 0 68.82 30.88 68.82 68.84 0 37.94-30.86 68.82-68.82 68.82z" fill="#23130D" p-id="58479"></path><path d="M255.08 760.76c-37.94 0-68.82 30.88-68.82 68.84 0 37.94 30.88 68.82 68.82 68.82 37.96 0 68.82-30.88 68.82-68.82 0-37.96-30.86-68.84-68.82-68.84z m19.5 30.2c6.1 0 11.04 4.94 11.04 11.04s-4.94 11.04-11.04 11.04c-6.1 0-11.04-4.94-11.04-11.04s4.94-11.04 11.04-11.04z m-39.3 0c6.08 0 11.04 4.94 11.04 11.04s-4.96 11.04-11.04 11.04c-6.1 0-11.06-4.94-11.06-11.04s4.96-11.04 11.06-11.04z m19.8 87.7c-27.06 0-49.06-22.02-49.06-49.06 0-5.54 4.48-10 10-10s10 4.46 10 10c0 16.02 13.04 29.06 29.06 29.06 16.04 0 29.08-13.04 29.08-29.06 0-5.54 4.48-10 10-10s10 4.46 10 10c0 27.04-22.02 49.06-49.08 49.06z" fill="#72AF5F" p-id="58480"></path><path d="M200.76 829.6c0-35.52 27.02-64.82 61.58-68.46-2.38-0.26-4.8-0.38-7.26-0.38-37.94 0-68.82 30.88-68.82 68.84 0 37.94 30.88 68.82 68.82 68.82 2.46 0 4.88-0.12 7.26-0.38-34.56-3.64-61.58-32.94-61.58-68.44z" fill="#23130D" opacity=".2" p-id="58481"></path><path d="M304.16 829.6c0 27.04-22.02 49.06-49.08 49.06s-49.06-22.02-49.06-49.06c0-5.54 4.48-10 10-10s10 4.46 10 10c0 16.02 13.04 29.06 29.06 29.06 16.04 0 29.08-13.04 29.08-29.06 0-5.54 4.48-10 10-10s10 4.46 10 10zM246.32 802c0 6.1-4.96 11.04-11.04 11.04-6.1 0-11.06-4.94-11.06-11.04s4.96-11.04 11.06-11.04c6.08 0 11.04 4.94 11.04 11.04z" fill="#23130D" p-id="58482"></path><path d="M274.58 802m-11.04 0a11.04 11.04 0 1 0 22.08 0 11.04 11.04 0 1 0-22.08 0Z" fill="#23130D" p-id="58483"></path><path d="M888.66 106.82c-48.96 0-88.82 39.84-88.82 88.82s39.86 88.82 88.82 88.82c48.98 0 88.84-39.84 88.84-88.82s-39.86-88.82-88.84-88.82z m0 157.64c-37.94 0-68.82-30.88-68.82-68.82s30.88-68.82 68.82-68.82c37.96 0 68.84 30.88 68.84 68.82s-30.88 68.82-68.84 68.82z" fill="#23130D" p-id="58484"></path><path d="M888.66 126.82c-37.94 0-68.82 30.88-68.82 68.82s30.88 68.82 68.82 68.82c37.96 0 68.84-30.88 68.84-68.82s-30.88-68.82-68.84-68.82z m7.52 33.12l10.4-10.4a9.97 9.97 0 0 1 14.14 0 9.97 9.97 0 0 1 0 14.14l-10.4 10.4c-1.94 1.94-4.5 2.92-7.06 2.92-2.56 0-5.12-0.98-7.08-2.92a10.006 10.006 0 0 1 0-14.14z m-39.58-10.4a9.97 9.97 0 0 1 14.14 0l10.42 10.4a10.006 10.006 0 0 1 0 14.14 10.044 10.044 0 0 1-14.16 0l-10.4-10.4a10.006 10.006 0 0 1 0-14.14z m71.82 90.98c-1.32 0.58-2.7 0.86-4.04 0.86-3.84 0-7.5-2.22-9.16-5.96-4.64-10.48-15.08-17.26-26.56-17.26a29.1 29.1 0 0 0-26.56 17.28 9.99 9.99 0 0 1-13.18 5.08 10.004 10.004 0 0 1-5.1-13.2c7.88-17.72 25.48-29.16 44.84-29.16 19.38 0 36.98 11.44 44.84 29.16a9.978 9.978 0 0 1-5.08 13.2z" fill="#EC7063" p-id="58485"></path><path d="M881.16 174.08a10.044 10.044 0 0 1-14.16 0l-10.4-10.4a10.006 10.006 0 0 1 0-14.14 9.97 9.97 0 0 1 14.14 0l10.42 10.4a10.006 10.006 0 0 1 0 14.14zM920.72 163.68l-10.4 10.4c-1.94 1.94-4.5 2.92-7.06 2.92-2.56 0-5.12-0.98-7.08-2.92a10.006 10.006 0 0 1 0-14.14l10.4-10.4a9.97 9.97 0 0 1 14.14 0 9.97 9.97 0 0 1 0 14.14zM928.42 240.52c-1.32 0.58-2.7 0.86-4.04 0.86-3.84 0-7.5-2.22-9.16-5.96-4.64-10.48-15.08-17.26-26.56-17.26a29.1 29.1 0 0 0-26.56 17.28 9.99 9.99 0 0 1-13.18 5.08 10.004 10.004 0 0 1-5.1-13.2c7.88-17.72 25.48-29.16 44.84-29.16 19.38 0 36.98 11.44 44.84 29.16a9.978 9.978 0 0 1-5.08 13.2zM408.86 587c-48.98 0-88.82 39.84-88.82 88.82 0 48.98 39.84 88.82 88.82 88.82s88.82-39.84 88.82-88.82c0-48.98-39.84-88.82-88.82-88.82z m0 157.64c-37.94 0-68.82-30.88-68.82-68.82 0-37.96 30.88-68.82 68.82-68.82 37.96 0 68.82 30.86 68.82 68.82 0 37.94-30.86 68.82-68.82 68.82z" fill="#23130D" p-id="58486"></path><path d="M408.86 607c-37.94 0-68.82 30.86-68.82 68.82 0 37.94 30.88 68.82 68.82 68.82 37.96 0 68.82-30.88 68.82-68.82 0-37.96-30.86-68.82-68.82-68.82z m16.36 29.9h14.18c5.52 0 10 4.48 10 10s-4.48 10-10 10h-14.18c-5.52 0-10-4.48-10-10s4.48-10 10-10z m-47.22 0h14.18c5.52 0 10 4.48 10 10s-4.48 10-10 10H378c-5.52 0-10-4.48-10-10s4.48-10 10-10z m75.7 55.48c-7.86 17.72-25.46 29.16-44.84 29.16s-36.98-11.44-44.84-29.16a10.012 10.012 0 0 1 5.08-13.2c5.06-2.22 10.96 0.04 13.2 5.08 4.66 10.5 15.08 17.28 26.56 17.28s21.9-6.78 26.56-17.28a10.012 10.012 0 0 1 13.2-5.08 9.994 9.994 0 0 1 5.08 13.2z" fill="#72AF5F" p-id="58487"></path><path d="M453.7 692.38c-7.86 17.72-25.46 29.16-44.84 29.16s-36.98-11.44-44.84-29.16a10.012 10.012 0 0 1 5.08-13.2c5.06-2.22 10.96 0.04 13.2 5.08 4.66 10.5 15.08 17.28 26.56 17.28s21.9-6.78 26.56-17.28a10.012 10.012 0 0 1 13.2-5.08 9.994 9.994 0 0 1 5.08 13.2zM402.18 646.9c0 5.52-4.48 10-10 10H378c-5.52 0-10-4.48-10-10s4.48-10 10-10h14.18c5.52 0 10 4.48 10 10zM449.4 646.9c0 5.52-4.48 10-10 10h-14.18c-5.52 0-10-4.48-10-10s4.48-10 10-10h14.18c5.52 0 10 4.48 10 10zM174.976 738.618a9.95 9.95 0 0 0 5.25-2.874l0.008-0.01 48.25-50.16a9.998 9.998 0 1 0-14.414-13.862l-41.324 42.96-14.766-14.204a10 10 0 0 0-13.866 14.414l21.972 21.136a9.966 9.966 0 0 0 8.89 2.6zM441.712 876.732l-42.15 42.15-14.488-14.488a10.002 10.002 0 0 0-14.142 14.144l21.558 21.556a9.952 9.952 0 0 0 7.07 2.928c2.56 0 5.12-0.976 7.072-2.93l49.222-49.22a10 10 0 0 0-14.142-14.14zM300.11 597.822c1.954 1.954 4.512 2.93 7.072 2.93s5.118-0.976 7.072-2.93l49.222-49.222a10 10 0 1 0-14.142-14.14l-42.152 42.152-14.486-14.488a10 10 0 0 0-14.142 14.14l21.556 21.558zM512.494 762.336l-42.152 42.152-14.486-14.488a10 10 0 0 0-14.142 14.14l21.558 21.558c1.954 1.954 4.512 2.93 7.072 2.93s5.118-0.976 7.072-2.93l49.222-49.222a10 10 0 0 0-14.144-14.14zM418.786 427.086h15.778v15.778a10 10 0 0 0 20 0v-15.778h15.778a10 10 0 0 0 0-20h-15.778v-15.778a10 10 0 0 0-20 0v15.778h-15.778a10 10 0 0 0 0 20zM752.09 556.14h-15.778v-15.78c0-5.524-4.476-10-10-10s-10 4.476-10 10v15.78h-15.78c-5.524 0-10 4.476-10 10s4.476 10 10 10h15.78v15.78c0 5.524 4.476 10 10 10s10-4.476 10-10v-15.78h15.778c5.524 0 10-4.476 10-10s-4.476-10-10-10zM626.686 668.642h-15.778v-15.78c0-5.524-4.476-10-10-10s-10 4.476-10 10v15.78h-15.778c-5.524 0-10 4.476-10 10s4.476 10 10 10h15.778v15.778c0 5.524 4.476 10 10 10s10-4.476 10-10v-15.778h15.778a10 10 0 1 0 0-20zM619.616 263.292c1.952 1.952 4.512 2.928 7.07 2.928s5.12-0.976 7.07-2.928l11.158-11.158 11.158 11.158c1.952 1.952 4.512 2.928 7.07 2.928s5.12-0.976 7.07-2.928a10 10 0 0 0 0-14.142l-11.156-11.156 11.156-11.156a10 10 0 1 0-14.14-14.142l-11.158 11.158-11.158-11.158a10 10 0 0 0-14.14 14.142l11.156 11.156-11.156 11.156a9.994 9.994 0 0 0 0 14.142zM933.756 391.79a10 10 0 0 0-14.14 0l-11.158 11.156-11.158-11.156a10 10 0 0 0-14.14 14.142l11.156 11.156-11.156 11.156a10 10 0 1 0 14.14 14.142l11.158-11.156 11.158 11.156c1.952 1.952 4.512 2.928 7.07 2.928s5.12-0.976 7.07-2.928a10 10 0 0 0 0-14.142l-11.156-11.156 11.156-11.156a10 10 0 0 0 0-14.142zM970.922 317.798l11.156-11.156a10 10 0 1 0-14.14-14.142l-11.158 11.158-11.158-11.158a10 10 0 0 0-14.14 14.142l11.156 11.156-11.156 11.156a10 10 0 1 0 14.14 14.142l11.158-11.158 11.158 11.158c1.952 1.952 4.512 2.928 7.07 2.928s5.12-0.976 7.07-2.928a10 10 0 0 0 0-14.142l-11.156-11.156zM740.326 134.502c1.954 1.952 4.512 2.928 7.07 2.928s5.12-0.976 7.072-2.93l11.154-11.156 11.154 11.156c1.954 1.954 4.514 2.93 7.072 2.93s5.12-0.976 7.07-2.928a10 10 0 0 0 0.002-14.142l-11.156-11.158 11.156-11.158a10 10 0 0 0-14.144-14.142l-11.154 11.156-11.154-11.156a10 10 0 1 0-14.144 14.142l11.156 11.158-11.156 11.158a10 10 0 0 0 0.002 14.142zM180.092 128.03a10 10 0 0 0 0-14.142L118.078 51.874c-0.024-0.024-0.054-0.04-0.078-0.064a10.024 10.024 0 0 0-1.446-1.182c-0.248-0.166-0.516-0.28-0.774-0.42-0.314-0.172-0.616-0.362-0.948-0.5-0.322-0.134-0.658-0.21-0.99-0.308-0.292-0.088-0.574-0.2-0.878-0.26a10.024 10.024 0 0 0-1.858-0.188c-0.034 0-0.064-0.01-0.098-0.01s-0.064 0.01-0.098 0.01a10.024 10.024 0 0 0-1.858 0.188c-0.304 0.06-0.586 0.174-0.878 0.26-0.332 0.098-0.668 0.174-0.99 0.308-0.334 0.138-0.636 0.328-0.95 0.5-0.258 0.14-0.526 0.254-0.772 0.42-0.52 0.348-1.002 0.746-1.446 1.182-0.024 0.024-0.054 0.04-0.078 0.064L41.92 113.886a10 10 0 1 0 14.144 14.142l44.942-44.944v302.362H56.914a10 10 0 0 0 0 20h44.092v42.41H76.254a10 10 0 0 0 0 20h24.752v42.414H56.914a10 10 0 1 0 0 20h44.092v42.412H76.254a10 10 0 1 0 0 20h24.752v42.41H56.914a10 10 0 1 0 0 20h44.092v42.414H76.254a10 10 0 1 0 0 20h24.752v42.412H56.914a10 10 0 1 0 0 20h44.092v42.412H76.254a10 10 0 1 0 0 20h24.752v42.41H56.914a10 10 0 1 0 0 20h44.092v60.314a10 10 0 1 0 20 0V83.086l44.944 44.944a10.002 10.002 0 0 0 14.142 0z" fill="#23130D" p-id="58488"></path><path d="M354.54 675.83c0-35.52 27.02-64.82 61.58-68.46-2.38-0.26-4.8-0.38-7.26-0.38-37.94 0-68.82 30.88-68.82 68.84 0 37.94 30.88 68.82 68.82 68.82 2.46 0 4.88-0.12 7.26-0.38-34.56-3.64-61.58-32.94-61.58-68.44zM515.98 519.01c0-35.52 27.02-64.82 61.58-68.46-2.38-0.26-4.8-0.38-7.26-0.38-37.94 0-68.82 30.88-68.82 68.84 0 37.94 30.88 68.82 68.82 68.82 2.46 0 4.88-0.12 7.26-0.38-34.56-3.64-61.58-32.94-61.58-68.44zM680.68 361.03c0-35.52 27.02-64.82 61.58-68.46-2.38-0.26-4.8-0.38-7.26-0.38-37.94 0-68.82 30.88-68.82 68.84 0 37.94 30.88 68.82 68.82 68.82 2.46 0 4.88-0.12 7.26-0.38-34.56-3.64-61.58-32.94-61.58-68.44zM834.34 195.65c0-35.52 27.02-64.82 61.58-68.46-2.38-0.26-4.8-0.38-7.26-0.38-37.94 0-68.82 30.88-68.82 68.84 0 37.94 30.88 68.82 68.82 68.82 2.46 0 4.88-0.12 7.26-0.38-34.56-3.64-61.58-32.94-61.58-68.44z" fill="#23130D" opacity=".2" p-id="58489"></path></svg>