<?xml version="1.0" standalone="no"?><!DOCTYPE svg PUBLIC "-//W3C//DTD SVG 1.1//EN" "http://www.w3.org/Graphics/SVG/1.1/DTD/svg11.dtd"><svg t="1625812290511" class="icon" viewBox="0 0 1024 1024" version="1.1" xmlns="http://www.w3.org/2000/svg" p-id="59119" xmlns:xlink="http://www.w3.org/1999/xlink" width="200" height="200"><defs><style type="text/css"></style></defs><path d="M290.06 159.02c4.1-4.02 5.62-9.28 4.06-14.08-1.56-4.8-5.88-8.16-11.56-9l-26.62-3.86c-0.8-0.18-2.36-1.32-2.76-1.98l-11.92-24.16c-2.54-5.16-7.08-8.22-12.14-8.22-5.04 0-9.58 3.06-12.12 8.2l-11.92 24.16c-0.4 0.68-1.98 1.82-2.72 1.98l-26.68 3.88c-5.68 0.84-10 4.2-11.56 9-1.56 4.82-0.04 10.08 4.06 14.08l19.28 18.78c0.54 0.6 1.14 2.46 1.06 3.2l-4.56 26.58c-0.76 4.52 0.24 8.68 2.82 11.76 2.36 2.78 5.84 4.38 9.6 4.38 2.4 0 4.82-0.64 7.2-1.88l23.84-12.54c0.14-0.06 0.76-0.24 1.7-0.24s1.56 0.18 1.66 0.22l23.88 12.56c2.38 1.24 4.8 1.88 7.22 1.88 3.74 0 7.24-1.6 9.58-4.38 2.6-3.08 3.6-7.26 2.82-11.76l-4.56-26.54c-0.08-0.78 0.54-2.64 1.02-3.2l19.32-18.82z m-33.26 4.5c-5.16 5-8 13.78-6.8 20.86l2.34 13.64-12.24-6.44c-3.96-2.08-8.16-2.52-10.98-2.52s-7.02 0.44-10.96 2.52l-12.26 6.44 2.34-13.64c1.22-7.08-1.64-15.84-6.78-20.86l-9.92-9.66 13.7-2c7.12-1.04 14.58-6.46 17.76-12.9l6.12-12.42 6.14 12.42c3.18 6.44 10.64 11.86 17.74 12.9l13.7 2-9.9 9.66zM431.5 159.02c4.1-4.02 5.62-9.28 4.06-14.08-1.56-4.8-5.88-8.16-11.56-9l-26.64-3.86c-0.78-0.18-2.36-1.32-2.74-1.98l-11.92-24.16c-2.54-5.16-7.08-8.22-12.14-8.22-5.06 0-9.58 3.06-12.12 8.2l-11.92 24.16c-0.4 0.68-1.98 1.82-2.72 1.98l-26.68 3.88c-5.68 0.84-10 4.2-11.56 9-1.56 4.82-0.04 10.08 4.06 14.08l19.28 18.78c0.54 0.6 1.14 2.46 1.06 3.2l-4.56 26.58c-0.78 4.52 0.22 8.68 2.82 11.76 3.86 4.58 10.72 5.7 16.8 2.5l23.84-12.54c0.14-0.06 0.76-0.24 1.7-0.24s1.56 0.18 1.66 0.22l23.88 12.56c2.38 1.24 4.8 1.88 7.22 1.88 3.74 0 7.24-1.6 9.58-4.38 2.6-3.08 3.58-7.26 2.82-11.76l-4.56-26.54c-0.08-0.78 0.52-2.64 1.02-3.2l19.32-18.82z m-33.28 4.5c-5.14 5-8 13.78-6.78 20.86l2.34 13.64-12.24-6.44c-3.96-2.08-8.16-2.52-10.98-2.52-2.82 0-7.02 0.44-10.98 2.52l-12.24 6.44 2.34-13.64c1.2-7.06-1.64-15.84-6.78-20.86l-9.92-9.66 13.7-2c7.1-1.04 14.58-6.46 17.76-12.9l6.12-12.42 6.12 12.42c3.18 6.44 10.66 11.86 17.76 12.9l13.7 2-9.92 9.66zM572.94 159.02c4.1-4.02 5.62-9.28 4.06-14.08-1.56-4.8-5.88-8.16-11.56-9l-26.64-3.86c-0.78-0.18-2.36-1.32-2.74-1.98l-11.94-24.16c-2.54-5.16-7.06-8.22-12.12-8.22s-9.58 3.06-12.12 8.2l-11.92 24.16c-0.42 0.68-1.98 1.82-2.72 1.98l-26.68 3.88c-5.68 0.84-10 4.2-11.56 9-1.56 4.82-0.04 10.08 4.06 14.08l19.28 18.78c0.52 0.6 1.12 2.46 1.06 3.2l-4.56 26.58c-0.78 4.5 0.22 8.68 2.82 11.76 3.86 4.58 10.7 5.7 16.8 2.5l23.82-12.54c0.16-0.06 0.78-0.24 1.72-0.24s1.56 0.18 1.66 0.22l23.86 12.56c2.4 1.24 4.82 1.88 7.22 1.88 3.76 0 7.24-1.6 9.6-4.38 2.58-3.08 3.58-7.26 2.82-11.76l-4.56-26.54c-0.08-0.78 0.52-2.64 1.02-3.2l19.32-18.82z m-33.28 4.5c-5.14 5-8 13.78-6.78 20.86l2.34 13.64-12.26-6.44c-3.96-2.08-8.14-2.52-10.96-2.52s-7.02 0.44-10.98 2.52l-12.24 6.44 2.32-13.64c1.22-7.08-1.62-15.84-6.76-20.86l-9.92-9.66 13.7-2c7.1-1.04 14.58-6.46 17.74-12.9l6.14-12.42 6.12 12.42c3.18 6.44 10.64 11.86 17.76 12.9l13.7 2-9.92 9.66zM714.38 159.02c4.1-4.02 5.62-9.28 4.06-14.08-1.56-4.8-5.88-8.18-11.56-9l-26.64-3.86c-0.78-0.18-2.36-1.32-2.74-1.98l-11.94-24.16c-2.54-5.16-7.06-8.22-12.12-8.22s-9.6 3.06-12.12 8.2l-11.92 24.16c-0.42 0.68-1.98 1.82-2.72 1.98L600 135.94c-5.68 0.84-10 4.2-11.56 9-1.56 4.82-0.04 10.08 4.06 14.08l19.28 18.78c0.52 0.6 1.12 2.46 1.06 3.2l-4.56 26.58c-0.78 4.52 0.22 8.68 2.8 11.76 3.88 4.58 10.72 5.7 16.82 2.5l23.82-12.54c0.14-0.06 0.78-0.24 1.72-0.24s1.56 0.18 1.66 0.22l23.86 12.56c2.38 1.24 4.82 1.88 7.22 1.88 3.74 0 7.24-1.6 9.6-4.38 2.58-3.08 3.58-7.26 2.8-11.76l-4.54-26.54c-0.08-0.78 0.52-2.64 1.02-3.2l19.32-18.82z m-33.28 4.5c-5.14 5-8 13.78-6.78 20.86l2.34 13.64-12.26-6.44c-3.96-2.08-8.14-2.52-10.96-2.52-2.82 0-7.02 0.44-10.98 2.52l-12.26 6.44 2.34-13.64c1.22-7.06-1.62-15.84-6.78-20.86l-9.9-9.66 13.68-2c7.12-1.04 14.58-6.46 17.76-12.9l6.14-12.42 6.12 12.42c3.18 6.44 10.64 11.86 17.76 12.9l13.7 2-9.92 9.66zM855.8 159.02c4.12-4.02 5.64-9.28 4.08-14.08-1.56-4.8-5.88-8.16-11.56-9l-26.64-3.86c-0.78-0.18-2.36-1.32-2.74-1.98l-11.94-24.16c-2.54-5.16-7.06-8.22-12.12-8.22s-9.6 3.06-12.14 8.2l-11.92 24.16c-0.4 0.68-1.98 1.82-2.7 1.98l-26.7 3.88c-5.66 0.84-10 4.2-11.56 9-1.56 4.82-0.04 10.08 4.08 14.08l19.26 18.78c0.54 0.6 1.14 2.46 1.08 3.2l-4.56 26.58c-0.78 4.5 0.22 8.68 2.8 11.76 2.36 2.78 5.86 4.38 9.6 4.38 2.4 0 4.84-0.64 7.22-1.88l23.82-12.54c0.14-0.06 0.76-0.24 1.7-0.24s1.58 0.18 1.68 0.22l23.86 12.56c2.38 1.24 4.82 1.88 7.22 1.88 3.74 0 7.24-1.6 9.6-4.38 2.58-3.08 3.58-7.26 2.8-11.76l-4.54-26.54c-0.08-0.78 0.52-2.64 1.02-3.2l19.3-18.82z m-33.26 4.5c-5.14 5-8 13.78-6.78 20.86l2.34 13.64-12.26-6.44c-3.96-2.08-8.16-2.52-10.98-2.52-2.82 0-7 0.44-10.96 2.52l-12.26 6.44 2.34-13.64c1.22-7.06-1.64-15.84-6.78-20.86l-9.9-9.66 13.68-2c7.12-1.04 14.58-6.46 17.76-12.9l6.14-12.42 6.12 12.42c3.18 6.44 10.64 11.86 17.76 12.9l13.68 2-9.9 9.66z" fill="#23130D" p-id="59120"></path><path d="M833.14 42.24H190.86c-43.5 0-78.88 35.38-78.88 78.88v79.2c0 43.5 35.38 78.88 78.88 78.88h1.76v53.72c0 0.16 0.04 0.32 0.04 0.48 0.02 0.36 0.06 0.72 0.12 1.08 0.04 0.32 0.12 0.62 0.2 0.94 0.08 0.3 0.16 0.6 0.28 0.9 0.12 0.34 0.26 0.68 0.42 1 0.08 0.14 0.12 0.3 0.2 0.44 0.1 0.18 0.2 0.32 0.3 0.48 0.1 0.14 0.18 0.28 0.28 0.42 0.68 0.96 1.5 1.78 2.42 2.42 0.1 0.08 0.22 0.16 0.34 0.24 0.44 0.28 0.9 0.52 1.36 0.74 0.06 0.02 0.12 0.06 0.18 0.08 0.54 0.22 1.08 0.38 1.64 0.5 0.14 0.04 0.3 0.06 0.44 0.1 0.58 0.1 1.18 0.18 1.78 0.18s1.22-0.08 1.82-0.18c0.1-0.02 0.22-0.04 0.34-0.08 0.56-0.12 1.1-0.28 1.64-0.5 0.1-0.04 0.22-0.1 0.32-0.16 0.24-0.1 0.5-0.2 0.74-0.34L320 279.2h513.14c43.5 0 78.88-35.38 78.88-78.88v-79.2c0-43.5-35.38-78.88-78.88-78.88z m58.88 158.08c0 32.48-26.4 58.88-58.88 58.88H317.42c-0.16 0-0.32 0.04-0.48 0.06-0.36 0-0.72 0.04-1.08 0.1-0.32 0.04-0.64 0.12-0.94 0.2-0.3 0.08-0.62 0.16-0.92 0.28-0.34 0.12-0.66 0.26-0.98 0.42-0.16 0.08-0.3 0.12-0.46 0.2l-99.94 55.46V269.2c0-5.52-4.48-10-10-10h-11.76c-32.48 0-58.88-26.4-58.88-58.88v-79.2c0-32.48 26.4-58.88 58.88-58.88h642.28c32.48 0 58.88 26.4 58.88 58.88v79.2z" fill="#23130D" p-id="59121"></path><path d="M833.14 62.24H190.86c-32.48 0-58.88 26.4-58.88 58.88v79.2c0 32.48 26.4 58.88 58.88 58.88h11.76c5.52 0 10 4.48 10 10v46.72l99.94-55.46c0.16-0.08 0.3-0.12 0.46-0.2 0.32-0.16 0.64-0.3 0.98-0.42 0.3-0.12 0.62-0.2 0.92-0.28 0.3-0.08 0.62-0.16 0.94-0.2 0.36-0.06 0.72-0.1 1.08-0.1 0.16-0.02 0.32-0.06 0.48-0.06h515.72c32.48 0 58.88-26.4 58.88-58.88v-79.2c0-32.48-26.4-58.88-58.88-58.88zM290.06 159.02l-19.32 18.82c-0.48 0.56-1.1 2.42-1.02 3.2l4.56 26.54c0.78 4.5-0.22 8.68-2.82 11.76-2.34 2.78-5.84 4.38-9.58 4.38-2.42 0-4.84-0.64-7.22-1.88l-23.88-12.56c-0.1-0.04-0.72-0.22-1.66-0.22s-1.56 0.18-1.7 0.24l-23.84 12.54c-2.38 1.24-4.8 1.88-7.2 1.88-3.76 0-7.24-1.6-9.6-4.38-2.58-3.08-3.58-7.24-2.82-11.76l4.56-26.58c0.08-0.74-0.52-2.6-1.06-3.2l-19.28-18.78c-4.1-4-5.62-9.26-4.06-14.08 1.56-4.8 5.88-8.16 11.56-9l26.68-3.88c0.74-0.16 2.32-1.3 2.72-1.98l11.92-24.16c2.54-5.14 7.08-8.2 12.12-8.2 5.06 0 9.6 3.06 12.14 8.22l11.92 24.16c0.4 0.66 1.96 1.8 2.76 1.98l26.62 3.86c5.68 0.84 10 4.2 11.56 9 1.56 4.8 0.04 10.06-4.06 14.08z m141.44 0l-19.32 18.82c-0.5 0.56-1.1 2.42-1.02 3.2l4.56 26.54c0.76 4.5-0.22 8.68-2.82 11.76-2.34 2.78-5.84 4.38-9.58 4.38-2.42 0-4.84-0.64-7.22-1.88l-23.88-12.56c-0.1-0.04-0.72-0.22-1.66-0.22s-1.56 0.18-1.7 0.24l-23.84 12.54c-6.08 3.2-12.94 2.08-16.8-2.5-2.6-3.08-3.6-7.24-2.82-11.76l4.56-26.58c0.08-0.74-0.52-2.6-1.06-3.2l-19.28-18.78c-4.1-4-5.62-9.26-4.06-14.08 1.56-4.8 5.88-8.16 11.56-9l26.68-3.88c0.74-0.16 2.32-1.3 2.72-1.98l11.92-24.16c2.54-5.14 7.06-8.2 12.12-8.2s9.6 3.06 12.14 8.22l11.92 24.16c0.38 0.66 1.96 1.8 2.74 1.98L424 135.94c5.68 0.84 10 4.2 11.56 9 1.56 4.8 0.04 10.06-4.06 14.08z m141.44 0l-19.32 18.82c-0.5 0.56-1.1 2.42-1.02 3.2l4.56 26.54c0.76 4.5-0.24 8.68-2.82 11.76-2.36 2.78-5.84 4.38-9.6 4.38-2.4 0-4.82-0.64-7.22-1.88l-23.86-12.56c-0.1-0.04-0.72-0.22-1.66-0.22s-1.56 0.18-1.72 0.24l-23.82 12.54c-6.1 3.2-12.94 2.08-16.8-2.5-2.6-3.08-3.6-7.26-2.82-11.76l4.56-26.58c0.06-0.74-0.54-2.6-1.06-3.2l-19.28-18.78c-4.1-4-5.62-9.26-4.06-14.08 1.56-4.8 5.88-8.16 11.56-9l26.68-3.88c0.74-0.16 2.3-1.3 2.72-1.98l11.92-24.16c2.54-5.14 7.06-8.2 12.12-8.2s9.58 3.06 12.12 8.22l11.94 24.16c0.38 0.66 1.96 1.8 2.74 1.98l26.64 3.86c5.68 0.84 10 4.2 11.56 9 1.56 4.8 0.04 10.06-4.06 14.08z m141.44 0l-19.32 18.82c-0.5 0.56-1.1 2.42-1.02 3.2l4.54 26.54c0.78 4.5-0.22 8.68-2.8 11.76-2.36 2.78-5.86 4.38-9.6 4.38-2.4 0-4.84-0.64-7.22-1.88l-23.86-12.56c-0.1-0.04-0.72-0.22-1.66-0.22s-1.58 0.18-1.72 0.24l-23.82 12.54c-6.1 3.2-12.94 2.08-16.82-2.5-2.58-3.08-3.58-7.24-2.8-11.76l4.56-26.58c0.06-0.74-0.54-2.6-1.06-3.2l-19.28-18.78c-4.1-4-5.62-9.26-4.06-14.08 1.56-4.8 5.88-8.16 11.56-9l26.68-3.88c0.74-0.16 2.3-1.3 2.72-1.98l11.92-24.16c2.52-5.14 7.06-8.2 12.12-8.2s9.58 3.06 12.12 8.22l11.94 24.16c0.38 0.66 1.96 1.8 2.74 1.98l26.64 3.86c5.68 0.82 10 4.2 11.56 9 1.56 4.8 0.04 10.06-4.06 14.08z m141.42 0l-19.3 18.82c-0.5 0.56-1.1 2.42-1.02 3.2l4.54 26.54c0.78 4.5-0.22 8.68-2.8 11.76-2.36 2.78-5.86 4.38-9.6 4.38-2.4 0-4.84-0.64-7.22-1.88l-23.86-12.56c-0.1-0.04-0.74-0.22-1.68-0.22s-1.56 0.18-1.7 0.24l-23.82 12.54c-2.38 1.24-4.82 1.88-7.22 1.88-3.74 0-7.24-1.6-9.6-4.38-2.58-3.08-3.58-7.26-2.8-11.76l4.56-26.58c0.06-0.74-0.54-2.6-1.08-3.2l-19.26-18.78c-4.12-4-5.64-9.26-4.08-14.08 1.56-4.8 5.9-8.16 11.56-9l26.7-3.88c0.72-0.16 2.3-1.3 2.7-1.98l11.92-24.16c2.54-5.14 7.08-8.2 12.14-8.2 5.06 0 9.58 3.06 12.12 8.22l11.94 24.16c0.38 0.66 1.96 1.8 2.74 1.98l26.64 3.86c5.68 0.84 10 4.2 11.56 9 1.56 4.8 0.04 10.06-4.08 14.08z" fill="#E1E1E5" p-id="59122"></path><path d="M843.14 249.2H327.42c-0.16 0-0.32 0.04-0.48 0.06-0.36 0-0.72 0.04-1.08 0.1-0.32 0.04-0.64 0.12-0.94 0.2-0.3 0.08-0.62 0.16-0.92 0.28-0.34 0.12-0.66 0.26-0.98 0.42-0.16 0.08-0.3 0.12-0.46 0.2l-99.94 55.46V259.2c0-5.52-4.48-10-10-10h-11.76c-32.48 0-58.88-26.4-58.88-58.88v-79.2c0-13.7 4.7-26.32 12.56-36.32-13.74 10.78-22.56 27.54-22.56 46.32v79.2c0 32.48 26.4 58.88 58.88 58.88h11.76c5.52 0 10 4.48 10 10v46.72l99.94-55.46c0.16-0.08 0.3-0.12 0.46-0.2 0.32-0.16 0.64-0.3 0.98-0.42 0.3-0.12 0.62-0.2 0.92-0.28 0.3-0.08 0.62-0.16 0.94-0.2 0.36-0.06 0.72-0.1 1.08-0.1 0.16-0.02 0.32-0.06 0.48-0.06h515.72c18.78 0 35.54-8.82 46.32-22.56-10 7.86-22.62 12.56-36.32 12.56z" fill="#23130D" opacity=".2" p-id="59123"></path><path d="M822.54 163.52c-5.14 5-8 13.78-6.78 20.86l2.34 13.64-12.26-6.44c-3.96-2.08-8.16-2.52-10.98-2.52-2.82 0-7 0.44-10.96 2.52l-12.26 6.44 2.34-13.64c1.22-7.06-1.64-15.84-6.78-20.86l-9.9-9.66 13.68-2c7.12-1.04 14.58-6.46 17.76-12.9l6.14-12.42 6.12 12.42c3.18 6.44 10.64 11.86 17.76 12.9l13.68 2-9.9 9.66zM681.1 163.52c-5.14 5-8 13.78-6.78 20.86l2.34 13.64-12.26-6.44c-3.96-2.08-8.14-2.52-10.96-2.52-2.82 0-7.02 0.44-10.98 2.52l-12.26 6.44 2.34-13.64c1.22-7.06-1.62-15.84-6.78-20.86l-9.9-9.66 13.68-2c7.12-1.04 14.58-6.46 17.76-12.9l6.14-12.42 6.12 12.42c3.18 6.44 10.64 11.86 17.76 12.9l13.7 2-9.92 9.66zM539.66 163.52c-5.14 5-8 13.78-6.78 20.86l2.34 13.64-12.26-6.44c-3.96-2.08-8.14-2.52-10.96-2.52s-7.02 0.44-10.98 2.52l-12.24 6.44 2.32-13.64c1.22-7.08-1.62-15.84-6.76-20.86l-9.92-9.66 13.7-2c7.1-1.04 14.58-6.46 17.74-12.9l6.14-12.42 6.12 12.42c3.18 6.44 10.64 11.86 17.76 12.9l13.7 2-9.92 9.66zM398.22 163.52c-5.14 5-8 13.78-6.78 20.86l2.34 13.64-12.24-6.44c-3.96-2.08-8.16-2.52-10.98-2.52-2.82 0-7.02 0.44-10.98 2.52l-12.24 6.44 2.34-13.64c1.2-7.06-1.64-15.84-6.78-20.86l-9.92-9.66 13.7-2c7.1-1.04 14.58-6.46 17.76-12.9l6.12-12.42 6.12 12.42c3.18 6.44 10.66 11.86 17.76 12.9l13.7 2-9.92 9.66zM256.8 163.52c-5.16 5-8 13.78-6.8 20.86l2.34 13.64-12.24-6.44c-3.96-2.08-8.16-2.52-10.98-2.52s-7.02 0.44-10.96 2.52l-12.26 6.44 2.34-13.64c1.22-7.08-1.64-15.84-6.78-20.86l-9.92-9.66 13.7-2c7.12-1.04 14.58-6.46 17.76-12.9l6.12-12.42 6.14 12.42c3.18 6.44 10.64 11.86 17.74 12.9l13.7 2-9.9 9.66z" fill="#F9C139" p-id="59124"></path><path d="M229.12 126.54l4.24 8.6-2.86 5.82c-3.18 6.44-10.64 11.86-17.76 12.9l-13.7 2 9.92 9.66c5.14 5.02 8 13.78 6.78 20.86l-1.22 7.12-8.62 4.52 2.34-13.64c1.22-7.08-1.64-15.84-6.78-20.86l-9.92-9.66 13.7-2c7.12-1.04 14.58-6.46 17.76-12.9l6.12-12.42zM370.56 126.54l4.24 8.6-2.86 5.82c-3.18 6.44-10.64 11.86-17.76 12.9l-13.7 2 9.92 9.66c5.14 5.02 8 13.78 6.78 20.86l-1.22 7.12-8.62 4.52 2.34-13.64c1.22-7.08-1.64-15.84-6.78-20.86l-9.92-9.66 13.7-2c7.12-1.04 14.58-6.46 17.76-12.9l6.12-12.42zM512 126.54l4.24 8.6-2.86 5.82c-3.18 6.44-10.64 11.86-17.76 12.9l-13.7 2 9.92 9.66c5.14 5.02 8 13.78 6.78 20.86l-1.22 7.12-8.62 4.52 2.34-13.64c1.22-7.08-1.64-15.84-6.78-20.86l-9.92-9.66 13.7-2c7.12-1.04 14.58-6.46 17.76-12.9l6.12-12.42zM653.44 126.54l4.24 8.6-2.86 5.82c-3.18 6.44-10.64 11.86-17.76 12.9l-13.7 2 9.92 9.66c5.14 5.02 8 13.78 6.78 20.86l-1.22 7.12-8.62 4.52 2.34-13.64c1.22-7.08-1.64-15.84-6.78-20.86l-9.92-9.66 13.7-2c7.12-1.04 14.58-6.46 17.76-12.9l6.12-12.42zM794.88 126.54l4.24 8.6-2.86 5.82c-3.18 6.44-10.64 11.86-17.76 12.9l-13.7 2 9.92 9.66c5.14 5.02 8 13.78 6.78 20.86l-1.22 7.12-8.62 4.52 2.34-13.64c1.22-7.08-1.64-15.84-6.78-20.86l-9.92-9.66 13.7-2c7.12-1.04 14.58-6.46 17.76-12.9l6.12-12.42z" fill="#23130D" opacity=".2" p-id="59125"></path><path d="M572.94 478.44c4.1-4 5.62-9.26 4.06-14.08-1.56-4.8-5.88-8.16-11.56-8.98l-26.64-3.88c-0.78-0.18-2.36-1.32-2.74-1.96l-11.94-24.18c-2.54-5.14-7.06-8.22-12.12-8.22s-9.6 3.06-12.14 8.22l-11.9 24.14c-0.42 0.68-1.98 1.84-2.72 2l-26.68 3.88c-5.68 0.82-10 4.18-11.56 8.98-1.56 4.82-0.04 10.08 4.06 14.08l19.28 18.78c0.54 0.6 1.14 2.46 1.06 3.2l-4.56 26.58c-0.76 4.52 0.22 8.7 2.82 11.76 3.86 4.58 10.7 5.7 16.8 2.5l23.84-12.52c0.14-0.08 0.76-0.24 1.7-0.24s1.56 0.16 1.66 0.22l23.88 12.54c2.38 1.26 4.8 1.9 7.22 1.9 3.74 0 7.24-1.6 9.58-4.4 2.58-3.06 3.58-7.24 2.82-11.76l-4.56-26.52c-0.08-0.8 0.52-2.66 1.02-3.22l19.32-18.82z m-33.28 4.5c-5.14 5.02-8 13.8-6.78 20.88l2.34 13.64-12.24-6.44c-3.96-2.1-8.16-2.52-10.98-2.52s-7.02 0.42-10.98 2.5l-12.24 6.46 2.34-13.66c1.2-7.08-1.64-15.84-6.78-20.86l-9.92-9.66 13.7-2c7.1-1.02 14.58-6.46 17.76-12.9l6.12-12.4 6.12 12.4c3.18 6.44 10.64 11.88 17.76 12.9l13.7 2-9.92 9.66zM431.5 478.44c4.1-4 5.62-9.26 4.06-14.08-1.56-4.8-5.88-8.16-11.56-8.98l-26.64-3.88c-0.78-0.18-2.36-1.32-2.74-1.96l-11.94-24.18c-2.54-5.14-7.06-8.22-12.12-8.22s-9.6 3.08-12.12 8.22l-11.92 24.14c-0.4 0.68-1.98 1.84-2.72 2l-26.68 3.88c-5.68 0.82-10 4.18-11.56 8.98-1.56 4.82-0.04 10.08 4.06 14.08l19.28 18.78c0.54 0.6 1.14 2.46 1.06 3.2l-4.56 26.58c-0.76 4.52 0.22 8.7 2.82 11.76 3.86 4.58 10.72 5.7 16.8 2.5l23.84-12.52c0.14-0.08 0.76-0.24 1.7-0.24s1.56 0.16 1.66 0.22l23.88 12.54c2.38 1.26 4.8 1.9 7.22 1.9 3.74 0 7.24-1.6 9.58-4.4 2.6-3.06 3.6-7.24 2.82-11.76l-4.56-26.52c-0.08-0.8 0.52-2.66 1.02-3.22l19.32-18.82z m-33.28 4.5c-5.14 5.02-7.98 13.8-6.78 20.88l2.34 13.64-12.24-6.44c-3.96-2.1-8.16-2.52-10.98-2.52-2.82 0-7.02 0.42-10.98 2.5l-12.24 6.46 2.34-13.66c1.2-7.08-1.64-15.84-6.78-20.86l-9.92-9.66 13.7-2c7.12-1.04 14.58-6.46 17.76-12.9l6.12-12.4 6.12 12.4c3.18 6.44 10.66 11.88 17.76 12.9l13.7 2-9.92 9.66zM290.06 478.44c4.1-4 5.62-9.26 4.06-14.08-1.56-4.8-5.88-8.16-11.56-8.98l-26.62-3.88c-0.8-0.18-2.36-1.32-2.76-1.96l-11.94-24.18c-2.52-5.14-7.06-8.22-12.12-8.22s-9.58 3.06-12.12 8.22l-11.92 24.14c-0.4 0.68-1.98 1.84-2.72 2l-26.68 3.88c-5.68 0.82-10 4.18-11.56 8.98-1.56 4.82-0.04 10.08 4.06 14.08l19.28 18.78c0.54 0.6 1.14 2.46 1.06 3.2l-4.56 26.58c-0.76 4.52 0.24 8.7 2.82 11.76 3.86 4.58 10.72 5.7 16.82 2.5l23.82-12.52c0.14-0.08 0.76-0.24 1.7-0.24s1.56 0.16 1.68 0.22l23.86 12.54c2.38 1.26 4.82 1.9 7.22 1.9 3.74 0 7.24-1.6 9.58-4.4 2.6-3.06 3.6-7.24 2.82-11.76l-4.56-26.52c-0.06-0.8 0.54-2.66 1.02-3.22l19.32-18.82z m-33.28 4.5c-5.14 5.02-7.98 13.8-6.78 20.88l2.34 13.64-12.24-6.44c-3.96-2.1-8.16-2.52-10.98-2.52s-7 0.42-10.96 2.5l-12.26 6.46 2.34-13.66c1.22-7.08-1.64-15.84-6.78-20.86l-9.92-9.66 13.7-2c7.12-1.02 14.58-6.46 17.76-12.9l6.12-12.4 6.14 12.4c3.18 6.44 10.64 11.88 17.74 12.9l13.7 2-9.92 9.66z" fill="#23130D" p-id="59126"></path><path d="M833.14 361.66H190.86c-43.5 0-78.88 35.38-78.88 78.88v79.22c0 43.48 35.38 78.86 78.88 78.86H704l112.52 62.46c0.26 0.14 0.5 0.24 0.76 0.36 0.1 0.04 0.2 0.1 0.3 0.14 0.54 0.22 1.08 0.38 1.64 0.52l0.34 0.06c0.6 0.1 1.2 0.18 1.82 0.18 0.6 0 1.18-0.08 1.78-0.18 0.14-0.02 0.3-0.06 0.44-0.08 0.56-0.14 1.1-0.3 1.64-0.52 0.06-0.02 0.12-0.06 0.18-0.08 0.48-0.22 0.92-0.46 1.34-0.74 0.14-0.08 0.26-0.16 0.38-0.24 0.46-0.32 0.9-0.68 1.32-1.08 0.4-0.4 0.76-0.86 1.08-1.34 0.1-0.12 0.18-0.26 0.28-0.4 0.1-0.16 0.22-0.32 0.3-0.48 0.08-0.16 0.12-0.32 0.2-0.46 0.16-0.32 0.3-0.64 0.42-0.98 0.12-0.3 0.2-0.62 0.28-0.92 0.08-0.32 0.16-0.62 0.2-0.94 0.06-0.36 0.1-0.72 0.12-1.08 0-0.16 0.04-0.32 0.04-0.48v-53.72h1.76c43.5 0 78.88-35.38 78.88-78.86v-79.22c0-43.5-35.38-78.88-78.88-78.88z m58.88 158.1c0 32.46-26.4 58.86-58.88 58.86h-11.76c-2.76 0-5.26 1.12-7.06 2.94-1.82 1.8-2.94 4.3-2.94 7.06v46.74l-99.94-55.48c-0.16-0.08-0.32-0.12-0.46-0.2-0.32-0.14-0.64-0.28-0.98-0.42-0.3-0.1-0.62-0.2-0.94-0.28-0.3-0.08-0.6-0.14-0.9-0.2-0.38-0.06-0.74-0.08-1.1-0.1-0.16-0.02-0.32-0.06-0.48-0.06H190.86c-32.48 0-58.88-26.4-58.88-58.86v-79.22c0-32.46 26.4-58.88 58.88-58.88h642.28c32.48 0 58.88 26.42 58.88 58.88v79.22z" fill="#23130D" p-id="59127"></path><path d="M833.14 381.66H190.86c-32.48 0-58.88 26.42-58.88 58.88v79.22c0 32.46 26.4 58.86 58.88 58.86h515.72c0.16 0 0.32 0.04 0.48 0.06 0.36 0.02 0.72 0.04 1.1 0.1a12.894 12.894 0 0 1 1.84 0.48c0.34 0.14 0.66 0.28 0.98 0.42 0.14 0.08 0.3 0.12 0.46 0.2l99.94 55.48v-46.74c0-2.76 1.12-5.26 2.94-7.06 1.8-1.82 4.3-2.94 7.06-2.94h11.76c32.48 0 58.88-26.4 58.88-58.86v-79.22c0-32.46-26.4-58.88-58.88-58.88z m-543.08 96.78l-19.32 18.82c-0.48 0.56-1.08 2.42-1.02 3.22l4.56 26.52c0.78 4.52-0.22 8.7-2.82 11.76-2.34 2.8-5.84 4.4-9.58 4.4-2.4 0-4.84-0.64-7.22-1.9l-23.86-12.54c-0.12-0.06-0.74-0.22-1.68-0.22s-1.56 0.16-1.7 0.24l-23.82 12.52c-6.1 3.2-12.96 2.08-16.82-2.5-2.58-3.06-3.58-7.24-2.82-11.76l4.56-26.58c0.08-0.74-0.52-2.6-1.06-3.2l-19.28-18.78c-4.1-4-5.62-9.26-4.06-14.08 1.56-4.8 5.88-8.16 11.56-8.98l26.68-3.88c0.74-0.16 2.32-1.32 2.72-2l11.92-24.14c2.54-5.16 7.06-8.22 12.12-8.22s9.6 3.08 12.12 8.22l11.94 24.18c0.4 0.64 1.96 1.78 2.76 1.96l26.62 3.88c5.68 0.82 10 4.18 11.56 8.98 1.56 4.82 0.04 10.08-4.06 14.08z m141.44 0l-19.32 18.82c-0.5 0.56-1.1 2.42-1.02 3.22l4.56 26.52c0.78 4.52-0.22 8.7-2.82 11.76-2.34 2.8-5.84 4.4-9.58 4.4-2.42 0-4.84-0.64-7.22-1.9l-23.88-12.54c-0.1-0.06-0.72-0.22-1.66-0.22s-1.56 0.16-1.7 0.24l-23.84 12.52c-6.08 3.2-12.94 2.08-16.8-2.5-2.6-3.06-3.58-7.24-2.82-11.76l4.56-26.58c0.08-0.74-0.52-2.6-1.06-3.2l-19.28-18.78c-4.1-4-5.62-9.26-4.06-14.08 1.56-4.8 5.88-8.16 11.56-8.98l26.68-3.88c0.74-0.16 2.32-1.32 2.72-2l11.92-24.14c2.52-5.14 7.06-8.22 12.12-8.22s9.58 3.08 12.12 8.22l11.94 24.18c0.38 0.64 1.96 1.78 2.74 1.96l26.64 3.88c5.68 0.82 10 4.18 11.56 8.98 1.56 4.82 0.04 10.08-4.06 14.08z m141.44 0l-19.32 18.82c-0.5 0.56-1.1 2.42-1.02 3.22l4.56 26.52c0.76 4.52-0.24 8.7-2.82 11.76-2.34 2.8-5.84 4.4-9.58 4.4-2.42 0-4.84-0.64-7.22-1.9l-23.88-12.54c-0.1-0.06-0.72-0.22-1.66-0.22s-1.56 0.16-1.7 0.24l-23.84 12.52c-6.1 3.2-12.94 2.08-16.8-2.5-2.6-3.06-3.58-7.24-2.82-11.76l4.56-26.58c0.08-0.74-0.52-2.6-1.06-3.2l-19.28-18.78c-4.1-4-5.62-9.26-4.06-14.08 1.56-4.8 5.88-8.16 11.56-8.98l26.68-3.88c0.74-0.16 2.3-1.32 2.72-2l11.9-24.14c2.54-5.16 7.08-8.22 12.14-8.22s9.58 3.08 12.12 8.22l11.94 24.18c0.38 0.64 1.96 1.78 2.74 1.96l26.64 3.88c5.68 0.82 10 4.18 11.56 8.98 1.56 4.82 0.04 10.08-4.06 14.08z" fill="#E1E1E5" p-id="59128"></path><path d="M539.66 482.94c-5.14 5.02-8 13.8-6.78 20.88l2.34 13.64-12.24-6.44c-3.96-2.1-8.16-2.52-10.98-2.52s-7.02 0.42-10.98 2.5l-12.24 6.46 2.34-13.66c1.2-7.08-1.64-15.84-6.78-20.86l-9.92-9.66 13.7-2c7.1-1.02 14.58-6.46 17.76-12.9l6.12-12.4 6.12 12.4c3.18 6.44 10.64 11.88 17.76 12.9l13.7 2-9.92 9.66zM256.78 482.94c-5.14 5.02-7.98 13.8-6.78 20.88l2.34 13.64-12.24-6.44c-3.96-2.1-8.16-2.52-10.98-2.52s-7 0.42-10.96 2.5l-12.26 6.46 2.34-13.66c1.22-7.08-1.64-15.84-6.78-20.86l-9.92-9.66 13.7-2c7.12-1.02 14.58-6.46 17.76-12.9l6.12-12.4 6.14 12.4c3.18 6.44 10.64 11.88 17.74 12.9l13.7 2-9.92 9.66zM398.22 482.94c-5.14 5.02-7.98 13.8-6.78 20.88l2.34 13.64-12.24-6.44c-3.96-2.1-8.16-2.52-10.98-2.52-2.82 0-7.02 0.42-10.98 2.5l-12.24 6.46 2.34-13.66c1.2-7.08-1.64-15.84-6.78-20.86l-9.92-9.66 13.7-2c7.12-1.04 14.58-6.46 17.76-12.9l6.12-12.4 6.12 12.4c3.18 6.44 10.66 11.88 17.76 12.9l13.7 2-9.92 9.66z" fill="#F9C139" p-id="59129"></path><path d="M290.06 797.86c4.1-4 5.62-9.26 4.06-14.08-1.56-4.8-5.88-8.16-11.56-8.98l-26.62-3.88c-0.8-0.16-2.36-1.32-2.76-1.96l-11.92-24.18c-2.54-5.14-7.08-8.22-12.14-8.22-5.04 0-9.58 3.08-12.12 8.22l-11.92 24.14c-0.4 0.7-1.98 1.84-2.72 2l-26.68 3.88c-5.68 0.82-10 4.18-11.56 9-1.56 4.8-0.04 10.06 4.06 14.06l19.28 18.78c0.54 0.6 1.14 2.46 1.06 3.22l-4.56 26.56c-0.76 4.52 0.24 8.7 2.82 11.76 2.36 2.8 5.84 4.4 9.6 4.4 2.4 0 4.82-0.64 7.2-1.9l23.84-12.52c0.14-0.06 0.76-0.24 1.7-0.24s1.56 0.18 1.66 0.22l23.88 12.54c2.38 1.26 4.82 1.9 7.22 1.9 3.74 0 7.24-1.6 9.58-4.4 2.6-3.06 3.6-7.24 2.82-11.76l-4.56-26.52c-0.08-0.8 0.52-2.66 1.02-3.22l19.32-18.82z m-33.26 4.5c-5.16 5.02-8 13.8-6.8 20.88l2.34 13.64-12.24-6.44c-3.96-2.08-8.16-2.52-10.98-2.52s-7.02 0.44-10.96 2.52l-12.26 6.44 2.34-13.64c1.22-7.08-1.64-15.86-6.78-20.88l-9.92-9.66 13.7-1.98c7.12-1.04 14.58-6.46 17.76-12.9l6.12-12.42 6.14 12.42c3.18 6.42 10.64 11.86 17.74 12.9l13.7 1.98-9.9 9.66z" fill="#23130D" p-id="59130"></path><path d="M833.14 681.08H190.86c-43.5 0-78.88 35.4-78.88 78.88v79.22c0 43.48 35.38 78.88 78.88 78.88h1.76v53.7c0 0.18 0.04 0.32 0.04 0.5 0.02 0.36 0.06 0.7 0.12 1.06 0.04 0.32 0.12 0.64 0.2 0.94 0.08 0.32 0.16 0.62 0.28 0.92 0.12 0.34 0.26 0.66 0.42 1 0.08 0.14 0.12 0.3 0.2 0.44l0.3 0.48c0.1 0.14 0.18 0.28 0.28 0.42 0.68 0.96 1.5 1.76 2.42 2.4 0.1 0.1 0.22 0.16 0.34 0.24 0.44 0.28 0.9 0.54 1.36 0.74 0.06 0.04 0.12 0.06 0.18 0.1 0.54 0.22 1.08 0.38 1.64 0.5 0.14 0.04 0.3 0.06 0.44 0.08a9.208 9.208 0 0 0 3.6 0l0.34-0.06c0.56-0.12 1.1-0.3 1.64-0.52 0.1-0.04 0.2-0.1 0.32-0.14 0.24-0.12 0.48-0.22 0.74-0.36L320 918.06h513.14c43.5 0 78.88-35.4 78.88-78.88v-79.22c0-43.48-35.38-78.88-78.88-78.88z m58.88 158.1c0 32.46-26.4 58.88-58.88 58.88H317.42c-0.16 0-0.32 0.04-0.48 0.04-0.36 0.02-0.72 0.06-1.1 0.12-0.3 0.04-0.6 0.1-0.9 0.18-0.32 0.08-0.64 0.18-0.94 0.3-0.34 0.12-0.66 0.26-0.98 0.42-0.14 0.06-0.3 0.1-0.46 0.18l-99.94 55.48v-46.72c0-5.54-4.48-10-10-10h-11.76c-32.48 0-58.88-26.42-58.88-58.88v-79.22c0-32.46 26.4-58.88 58.88-58.88h642.28c32.48 0 58.88 26.42 58.88 58.88v79.22z" fill="#23130D" p-id="59131"></path><path d="M833.14 701.08H190.86c-32.48 0-58.88 26.42-58.88 58.88v79.22c0 32.46 26.4 58.88 58.88 58.88h11.76c5.52 0 10 4.46 10 10v46.72l99.94-55.48c0.16-0.08 0.32-0.12 0.46-0.18 0.32-0.16 0.64-0.3 0.98-0.42 0.3-0.12 0.62-0.22 0.94-0.3 0.3-0.08 0.6-0.14 0.9-0.18 0.38-0.06 0.74-0.1 1.1-0.12 0.16 0 0.32-0.04 0.48-0.04h515.72c32.48 0 58.88-26.42 58.88-58.88v-79.22c0-32.46-26.4-58.88-58.88-58.88z m-543.08 96.78l-19.32 18.82c-0.5 0.56-1.1 2.42-1.02 3.22l4.56 26.52c0.78 4.52-0.22 8.7-2.82 11.76-2.34 2.8-5.84 4.4-9.58 4.4-2.4 0-4.84-0.64-7.22-1.9l-23.88-12.54c-0.1-0.04-0.72-0.22-1.66-0.22s-1.56 0.18-1.7 0.24l-23.84 12.52c-2.38 1.26-4.8 1.9-7.2 1.9-3.76 0-7.24-1.6-9.6-4.4-2.58-3.06-3.58-7.24-2.82-11.76l4.56-26.56c0.08-0.76-0.52-2.62-1.06-3.22l-19.28-18.78c-4.1-4-5.62-9.26-4.06-14.06 1.56-4.82 5.88-8.18 11.56-9l26.68-3.88c0.74-0.16 2.32-1.3 2.72-2l11.92-24.14c2.54-5.14 7.08-8.22 12.12-8.22 5.06 0 9.6 3.08 12.14 8.22l11.92 24.18c0.4 0.64 1.96 1.8 2.76 1.96l26.62 3.88c5.68 0.82 10 4.18 11.56 8.98 1.56 4.82 0.04 10.08-4.06 14.08z" fill="#E1E1E5" p-id="59132"></path><path d="M256.8 802.36c-5.16 5.02-8 13.8-6.8 20.88l2.34 13.64-12.24-6.44c-3.96-2.08-8.16-2.52-10.98-2.52s-7.02 0.44-10.96 2.52l-12.26 6.44 2.34-13.64c1.22-7.08-1.64-15.86-6.78-20.88l-9.92-9.66 13.7-1.98c7.12-1.04 14.58-6.46 17.76-12.9l6.12-12.42 6.14 12.42c3.18 6.42 10.64 11.86 17.74 12.9l13.7 1.98-9.9 9.66z" fill="#F9C139" p-id="59133"></path><path d="M843.14 888.26H327.42c-0.16 0-0.32 0.04-0.48 0.06-0.36 0-0.72 0.04-1.08 0.1-0.32 0.04-0.64 0.12-0.94 0.2-0.3 0.08-0.62 0.16-0.92 0.28-0.34 0.12-0.66 0.26-0.98 0.42-0.16 0.08-0.3 0.12-0.46 0.2l-99.94 55.46v-46.72c0-5.52-4.48-10-10-10h-11.76c-32.48 0-58.88-26.4-58.88-58.88v-79.2c0-13.7 4.7-26.32 12.56-36.32-13.74 10.78-22.56 27.54-22.56 46.32v79.2c0 32.48 26.4 58.88 58.88 58.88h11.76c5.52 0 10 4.48 10 10v46.72l99.94-55.46c0.16-0.08 0.3-0.12 0.46-0.2 0.32-0.16 0.64-0.3 0.98-0.42 0.3-0.12 0.62-0.2 0.92-0.28 0.3-0.08 0.62-0.16 0.94-0.2 0.36-0.06 0.72-0.1 1.08-0.1 0.16-0.02 0.32-0.06 0.48-0.06h515.72c18.78 0 35.54-8.82 46.32-22.56-10 7.86-22.62 12.56-36.32 12.56zM144.646 556.614c10.78 13.74 27.54 22.56 46.32 22.56h515.72c0.16 0 0.32 0.04 0.48 0.06 0.36 0 0.72 0.04 1.08 0.1 0.32 0.04 0.64 0.12 0.94 0.2 0.3 0.08 0.62 0.16 0.92 0.28 0.34 0.12 0.66 0.26 0.98 0.42 0.16 0.08 0.3 0.12 0.46 0.2l99.94 55.46v-46.72c0-5.52 4.48-10 10-10h11.76c32.48 0 58.88-26.4 58.88-58.88v-79.2c0-18.78-8.82-35.54-22.56-46.32 7.86 10 12.56 22.62 12.56 36.32v79.2c0 32.48-26.4 58.88-58.88 58.88h-11.76c-5.52 0-10 4.48-10 10v46.72l-99.94-55.46c-0.16-0.08-0.3-0.12-0.46-0.2-0.32-0.16-0.64-0.3-0.98-0.42-0.3-0.12-0.62-0.2-0.92-0.28a7.12 7.12 0 0 0-0.94-0.2c-0.36-0.06-0.72-0.1-1.08-0.1-0.16-0.02-0.32-0.06-0.48-0.06H180.966c-13.7 0-26.32-4.7-36.32-12.56zM229.12 445.98l4.24 8.6-2.86 5.82c-3.18 6.44-10.64 11.86-17.76 12.9l-13.7 2 9.92 9.66c5.14 5.02 8 13.78 6.78 20.86l-1.22 7.12-8.62 4.52 2.34-13.64c1.22-7.08-1.64-15.84-6.78-20.86l-9.92-9.66 13.7-2c7.12-1.04 14.58-6.46 17.76-12.9l6.12-12.42z" fill="#23130D" opacity=".2" p-id="59134"></path><path d="M229.12 765.4l4.24 8.6-2.86 5.82c-3.18 6.44-10.64 11.86-17.76 12.9l-13.7 2 9.92 9.66c5.14 5.02 8 13.78 6.78 20.86l-1.22 7.12-8.62 4.52 2.34-13.64c1.22-7.08-1.64-15.84-6.78-20.86l-9.92-9.66 13.7-2c7.12-1.04 14.58-6.46 17.76-12.9l6.12-12.42zM370.56 445.98l4.24 8.6-2.86 5.82c-3.18 6.44-10.64 11.86-17.76 12.9l-13.7 2 9.92 9.66c5.14 5.02 8 13.78 6.78 20.86l-1.22 7.12-8.62 4.52 2.34-13.64c1.22-7.08-1.64-15.84-6.78-20.86l-9.92-9.66 13.7-2c7.12-1.04 14.58-6.46 17.76-12.9l6.12-12.42zM512 445.98l4.24 8.6-2.86 5.82c-3.18 6.44-10.64 11.86-17.76 12.9l-13.7 2 9.92 9.66c5.14 5.02 8 13.78 6.78 20.86l-1.22 7.12-8.62 4.52 2.34-13.64c1.22-7.08-1.64-15.84-6.78-20.86l-9.92-9.66 13.7-2c7.12-1.04 14.58-6.46 17.76-12.9l6.12-12.42z" fill="#23130D" opacity=".2" p-id="59135"></path></svg>