<?xml version="1.0" standalone="no"?><!DOCTYPE svg PUBLIC "-//W3C//DTD SVG 1.1//EN" "http://www.w3.org/Graphics/SVG/1.1/DTD/svg11.dtd"><svg t="1625812275582" class="icon" viewBox="0 0 1024 1024" version="1.1" xmlns="http://www.w3.org/2000/svg" p-id="58311" xmlns:xlink="http://www.w3.org/1999/xlink" width="200" height="200"><defs><style type="text/css"></style></defs><path d="M720.48 55.84c-95.94 0-185.42 51.62-233.52 134.74-0.08 0.14-0.16 0.3-0.24 0.44-0.74 1.42-4.08 8.02-7.56 16.46l-3.66-10.06a10 10 0 0 0-12.8-5.98l-160.56 58.44c-0.12 0.04-0.22 0.12-0.36 0.18-0.34 0.14-0.68 0.3-1 0.48-0.28 0.16-0.54 0.3-0.78 0.48-0.28 0.18-0.54 0.38-0.8 0.6s-0.52 0.44-0.76 0.7c-0.1 0.1-0.22 0.18-0.32 0.3-49.64 55.54-84.18 123.24-100.1 196-32.3 20.1-64.46 91.98-68.72 101.78l-20.06 39.62c-8-9.22-19.66-14.76-32.44-14.76-5.38 0-10.66 1-15.7 2.98-22.06 8.68-32.96 33.68-24.3 55.74l83.92 213.74c6.5 16.58 22.2 27.3 40.02 27.3 5.38 0 10.66-1 15.7-2.98 10.68-4.2 19.1-12.3 23.7-22.82 1.82-4.16 2.92-8.52 3.36-12.9 2.6 1.2 5.32 2.26 8.18 3.18 7.3 2.32 14.94 3.46 22.44 3.46 8.48 0 16.8-1.46 24.28-4.4l36.22-13.94c67.82 77.72 161.16 128.54 263.66 143.4 0.54 0.08 1.1 0.14 1.66 0.14 1.14 0 2.3-0.18 3.42-0.6l160.54-58.42c5.2-1.9 7.88-7.64 5.98-12.82v-0.02l-67.38-185.12c-0.02-0.06-0.06-0.12-0.1-0.18-0.14-0.4-0.34-0.76-0.54-1.14-0.12-0.22-0.22-0.44-0.36-0.64-0.2-0.32-0.44-0.62-0.68-0.9-0.18-0.22-0.34-0.44-0.52-0.64-0.26-0.26-0.54-0.48-0.82-0.72-0.2-0.18-0.4-0.36-0.64-0.52-0.3-0.22-0.62-0.38-0.94-0.56-0.24-0.14-0.46-0.28-0.72-0.4-0.32-0.14-0.64-0.24-0.98-0.34-0.3-0.1-0.58-0.2-0.86-0.28-0.3-0.06-0.62-0.08-0.92-0.12-0.36-0.06-0.72-0.1-1.08-0.12-0.08 0-0.16-0.02-0.24-0.02h-0.12c-63.88 0-123.98 32.5-159.1 85.4-14.1-7.12-27.54-15.4-40.2-24.74l42.26-15.6h0.02l0.84-0.32s0.02-0.02 0.04-0.02l5.62-2.1c0.08-0.04 0.16-0.06 0.26-0.1l17.28-6.8c11.54-4.52 20.6-13.22 25.52-24.48 4.78-10.96 5.02-23.08 0.68-34.12-4.96-12.6-15.14-21.68-27.18-25.82a46.98 46.98 0 0 0 3.86-7.04c4.96-11.4 5.2-24.02 0.66-35.58-4.54-11.56-13.32-20.66-24.7-25.64-1.46-0.64-2.96-1.18-4.46-1.66 1.24-2 2.4-4.04 3.34-6.24 4.98-11.38 5.2-24.02 0.66-35.58-5.3-13.52-16.3-23.16-29.18-27.28 1.26-1.98 2.42-4.06 3.38-6.24 4.96-11.4 5.2-24.04 0.66-35.58a46.17 46.17 0 0 0-24.7-25.64 46.272 46.272 0 0 0-35.46-0.7l-22.74 8.28h-0.02l-41.32 15.08c3.58-14.16 8.28-28.04 14.06-41.52 17.58 5.2 35.66 7.76 53.68 7.76 18.94 0 37.8-2.84 55.9-8.32 2.86 9.38 7.64 18.46 8.92 20.8 46.8 89.12 138.34 144.48 238.92 144.48 13.54 0 27.08-1.04 40.42-3.04 7.12 88.66-21.96 147.58-22.26 148.18-0.04 0.06-0.04 0.12-0.08 0.16-0.54 1.12-0.88 2.32-0.98 3.62v0.12c-0.02 0.2-0.04 0.42-0.04 0.64 0 0.32 0.06 0.6 0.08 0.9l0.06 0.5c0.08 0.54 0.2 1.04 0.34 1.54 0.04 0.08 0.06 0.16 0.08 0.24 0.2 0.56 0.42 1.1 0.7 1.6l0.06 0.12c0.3 0.54 0.66 1.04 1.04 1.5l0.06 0.06c1.58 1.86 3.8 3.1 6.34 3.42 0.1 0.02 0.2 0.02 0.32 0.04 0.3 0.02 0.6 0.08 0.92 0.08 1.4 0 2.72-0.32 3.92-0.84 0.04 0 0.08-0.02 0.1-0.04 0.36-0.16 0.72-0.34 1.06-0.54l0.3-0.18c0.18-0.12 0.38-0.24 0.58-0.36 76.28-50.26 122.28-123.58 136.8-217.94 63.52-51.52 99.88-127.62 99.88-209.52 0-148.72-120.98-269.7-269.7-269.7zM181.8 841.22a22.822 22.822 0 0 1-12.66 12.2c-2.72 1.06-5.54 1.6-8.4 1.6-9.52 0-17.92-5.72-21.4-14.6L55.42 626.66c-4.64-11.8 1.18-25.16 12.98-29.8 2.7-1.06 5.54-1.6 8.4-1.6 9.52 0 17.92 5.74 21.4 14.6l83.92 213.76c2.26 5.72 2.14 11.98-0.32 17.6z m464.36-116.46l61.52 169-26.94 9.8-63.72-175.08c9.52-2.06 19.26-3.32 29.14-3.72z m-152.84 87.2c0.04 0.04 0.1 0.04 0.16 0.08 0.18 0.08 0.34 0.14 0.52 0.2 0.22 0.08 0.44 0.16 0.64 0.22 0.18 0.06 0.36 0.12 0.54 0.16 0.24 0.06 0.46 0.1 0.7 0.14 0.16 0.02 0.32 0.06 0.48 0.08 0.34 0.04 0.66 0.06 1 0.06 0.06 0 0.12 0.02 0.18 0.02 0.46 0 0.9-0.04 1.36-0.1 0.1-0.02 0.22-0.06 0.34-0.08 0.32-0.04 0.64-0.12 0.96-0.2 0.14-0.04 0.3-0.1 0.44-0.14 0.28-0.1 0.56-0.18 0.82-0.3 0.16-0.06 0.3-0.14 0.46-0.22 0.24-0.12 0.5-0.24 0.74-0.4 0.16-0.08 0.3-0.18 0.44-0.28 0.24-0.14 0.46-0.3 0.66-0.48 0.16-0.12 0.3-0.24 0.44-0.36 0.2-0.18 0.38-0.36 0.56-0.54 0.14-0.16 0.28-0.3 0.42-0.46 0.16-0.2 0.3-0.4 0.46-0.6 0.12-0.18 0.24-0.34 0.36-0.54 0.04-0.06 0.1-0.12 0.14-0.2 20.9-35.12 53.74-61.14 91.56-74.14l64.24 176.52-102.98 37.48c-94.46-14.2-180.64-60.46-244.4-130.92l21.6-8.3 95.42-35.24c18.88 15.24 39.62 28.22 61.74 38.54z m-96.14-336.18l22.84-8.3c0.08-0.04 0.16-0.06 0.24-0.1 6.6-2.58 13.8-2.44 20.28 0.38 6.5 2.82 11.5 8.02 14.08 14.6s2.46 13.78-0.38 20.28a26.394 26.394 0 0 1-14.6 14.08l-17.46 6.86c-0.06 0.02-0.1 0.04-0.14 0.06l-6.32 2.38-0.24 0.08s-0.02 0-0.02 0.02l-0.06 0.02c-0.18 0.06-0.34 0.18-0.52 0.24-0.44 0.2-0.88 0.4-1.28 0.64-0.12 0.08-0.22 0.18-0.32 0.26-0.44 0.3-0.86 0.6-1.24 0.96-0.06 0.06-0.12 0.14-0.18 0.2-0.4 0.4-0.78 0.8-1.1 1.26-0.02 0.04-0.04 0.1-0.08 0.14-0.34 0.5-0.64 1-0.88 1.52 0 0.04 0 0.06-0.02 0.08-0.24 0.56-0.46 1.14-0.6 1.74v0.06c-0.14 0.6-0.24 1.22-0.26 1.86v0.08c-0.02 0.62 0.02 1.24 0.12 1.88 0 0.04 0.02 0.08 0.02 0.12 0.1 0.58 0.24 1.16 0.44 1.74 0.02 0.02 0.04 0.06 0.06 0.08v0.02c0.2 0.54 0.46 1.06 0.74 1.54 0.12 0.2 0.26 0.4 0.4 0.58 0.2 0.3 0.42 0.6 0.66 0.86 0.16 0.2 0.32 0.38 0.48 0.54 0.26 0.26 0.54 0.5 0.84 0.74 0.16 0.12 0.32 0.28 0.5 0.4 0.44 0.32 0.92 0.6 1.42 0.84 0.14 0.06 0.3 0.1 0.44 0.16 0.38 0.18 0.78 0.32 1.2 0.44 0.2 0.06 0.42 0.1 0.62 0.14 0.38 0.08 0.76 0.14 1.14 0.16 0.22 0.02 0.42 0.06 0.62 0.06 0.1 0 0.2 0.02 0.3 0.02 0.28 0 0.58-0.06 0.86-0.08 0.24-0.02 0.48-0.02 0.72-0.06 0.5-0.08 1-0.22 1.5-0.38 0.1-0.04 0.22-0.04 0.32-0.08l0.08-0.04h0.04l0.22-0.08 22.52-8.2c0.08-0.02 0.16-0.06 0.24-0.08 13.6-5.36 29.02 1.38 34.36 14.98 2.58 6.58 2.44 13.78-0.38 20.26a26.3 26.3 0 0 1-14.62 14.08l-17.44 6.88c-0.04 0.02-0.1 0.02-0.14 0.04l-6.64 2.5c-0.42 0.16-0.78 0.36-1.16 0.56-0.2 0.12-0.42 0.2-0.62 0.32-0.3 0.18-0.58 0.42-0.86 0.66-0.24 0.18-0.48 0.34-0.7 0.54-0.22 0.2-0.38 0.44-0.58 0.66-0.24 0.26-0.5 0.5-0.7 0.8-0.14 0.18-0.22 0.38-0.34 0.58-0.22 0.36-0.46 0.7-0.62 1.08-0.08 0.14-0.1 0.32-0.16 0.46-0.18 0.44-0.36 0.9-0.48 1.36-0.02 0.12-0.02 0.22-0.04 0.34-0.12 0.52-0.2 1.04-0.22 1.58-0.02 0.08 0 0.16 0 0.24 0 0.58 0.02 1.14 0.1 1.72 0.02 0.06 0.04 0.12 0.04 0.18 0.1 0.56 0.24 1.14 0.44 1.7 0 0.04 0.02 0.06 0.04 0.08v0.02c0.2 0.54 0.46 1.06 0.74 1.54 0.14 0.22 0.28 0.4 0.42 0.62 0.2 0.28 0.4 0.56 0.62 0.82 0.18 0.2 0.36 0.38 0.54 0.58 0.24 0.24 0.5 0.44 0.76 0.66 0.18 0.16 0.36 0.32 0.56 0.46 0.44 0.3 0.9 0.58 1.38 0.82 0.2 0.08 0.4 0.14 0.6 0.22 0.34 0.14 0.68 0.26 1.02 0.36 0.24 0.08 0.5 0.12 0.74 0.18 0.34 0.06 0.66 0.12 1 0.14 0.26 0.04 0.48 0.06 0.74 0.06 0.08 0 0.16 0.02 0.24 0.02 0.26 0 0.5-0.04 0.76-0.06 0.28-0.02 0.58-0.04 0.86-0.08 0.42-0.06 0.84-0.2 1.26-0.32 0.18-0.06 0.36-0.06 0.54-0.14l22.86-8.3c0.08-0.02 0.16-0.06 0.24-0.1 6.58-2.58 13.78-2.44 20.26 0.38 6.5 2.84 11.5 8.02 14.1 14.6 2.58 6.6 2.44 13.8-0.4 20.28-2.82 6.5-8 11.5-14.6 14.08l-17.58 6.92-6.66 2.5-0.8 0.28c-5.18 1.88-7.86 7.62-5.98 12.82a9.996 9.996 0 0 0 12.82 5.98l22.42-8.14c0.08-0.04 0.16-0.06 0.24-0.1 13.24-5.18 28.14 1.02 33.18 13.84 2.4 6.06 2.26 12.74-0.4 18.8-2.76 6.38-7.9 11.3-14.48 13.86l-17.18 6.76c-0.04 0-0.06 0.02-0.06 0.02l-6.44 2.42-159.92 59.04-77.96 29.98c-9.8 3.84-22.3 4.04-33.42 0.52-11.14-3.54-19.42-10.4-22.72-18.82-0.02-0.06-0.06-0.1-0.08-0.16L120.52 612l26.74-52.82c0.1-0.18 0.18-0.36 0.26-0.54 9.84-22.64 27.76-56.66 44.68-77.48-2.58 18.56-3.98 37.26-4.12 55.92-0.06 0.88 0 1.76 0.18 2.66 0 0.02 0 0.02 0.02 0.04 0.1 0.48 0.18 0.98 0.36 1.46a10.012 10.012 0 0 0 9.4 6.58c0.66 0 1.32-0.1 1.98-0.22 0.1-0.02 0.18-0.06 0.26-0.08 0.4-0.1 0.8-0.18 1.18-0.32l137.14-50.04c0.08-0.02 0.18-0.06 0.26-0.1l58.32-21.28z m-36.32-66.9c-0.14-0.04-0.28-0.06-0.42-0.1-0.38-0.12-0.76-0.2-1.14-0.28-0.28-0.04-0.56-0.08-0.82-0.1-0.38-0.04-0.74-0.06-1.12-0.04-0.28 0-0.56 0.02-0.84 0.04-0.36 0.04-0.7 0.1-1.06 0.18-0.28 0.06-0.56 0.14-0.84 0.22-0.32 0.1-0.64 0.22-0.96 0.36-0.28 0.12-0.54 0.24-0.8 0.38-0.3 0.16-0.58 0.34-0.88 0.52-0.24 0.18-0.5 0.36-0.74 0.56s-0.48 0.42-0.72 0.66c-0.24 0.22-0.46 0.46-0.66 0.72-0.2 0.24-0.38 0.5-0.56 0.76-0.2 0.3-0.38 0.6-0.54 0.92-0.08 0.14-0.18 0.26-0.26 0.42a299.76 299.76 0 0 0-21.86 66.14l-118.2 43.12c0.92-22.18 3.66-44.38 8.2-66.18a413.528 413.528 0 0 1 94.78-189.4l103-37.48 64.24 176.52c-37.32 14.34-79.2 15.52-117.8 2.06z m72.34-185.42l26.94-9.8 10.96 30.12v0.02l50.54 138.86a170.14 170.14 0 0 1-24.72 15.88l-63.72-175.08z m441.62 298.4c-0.16 0.12-0.28 0.28-0.42 0.42-0.32 0.28-0.64 0.56-0.92 0.88-0.2 0.22-0.36 0.46-0.52 0.7-0.22 0.28-0.44 0.56-0.62 0.88-0.16 0.28-0.28 0.58-0.4 0.88-0.14 0.3-0.28 0.58-0.4 0.88-0.12 0.36-0.18 0.74-0.26 1.12-0.06 0.24-0.14 0.44-0.18 0.68-11.34 78.92-45.8 142.3-102.56 188.84 8.72-29.5 17.9-77.54 11.26-137.66-0.02-0.14-0.06-0.26-0.08-0.4-0.02-0.12-0.02-0.26-0.04-0.4-0.04-0.2-0.12-0.38-0.18-0.58-0.08-0.34-0.18-0.66-0.3-1-0.1-0.28-0.24-0.56-0.36-0.84a13.48 13.48 0 0 0-0.5-0.92 9.58 9.58 0 0 0-0.5-0.74c-0.22-0.28-0.42-0.54-0.66-0.8-0.2-0.22-0.42-0.4-0.62-0.6-0.26-0.24-0.54-0.46-0.82-0.68-0.22-0.16-0.46-0.32-0.7-0.46-0.32-0.18-0.62-0.36-0.94-0.52-0.26-0.12-0.54-0.22-0.82-0.32-0.32-0.12-0.64-0.22-0.98-0.32-0.3-0.08-0.62-0.12-0.94-0.18-0.32-0.04-0.62-0.08-0.96-0.1s-0.7 0-1.06 0.02c-0.18 0-0.38-0.02-0.58 0-0.14 0.02-0.26 0.06-0.38 0.08-0.14 0.02-0.28 0-0.42 0.04a251.28 251.28 0 0 1-47.48 4.52c-93.12 0-177.88-51.26-221.28-133.92-3.06-5.62-6.2-12.84-7.78-18.16 17.36-7.3 33.76-17.18 48.5-29.56 0.08-0.06 0.12-0.12 0.18-0.18 0.26-0.24 0.5-0.5 0.74-0.76 0.2-0.24 0.44-0.46 0.62-0.7 0.18-0.26 0.34-0.52 0.5-0.78 0.18-0.28 0.36-0.58 0.52-0.88 0.12-0.26 0.22-0.54 0.32-0.82 0.12-0.32 0.26-0.64 0.34-0.98 0.08-0.3 0.12-0.6 0.18-0.9 0.04-0.34 0.12-0.64 0.14-0.98 0.02-0.3 0-0.62-0.02-0.94 0-0.34 0-0.66-0.04-1-0.04-0.28-0.12-0.56-0.18-0.84-0.08-0.38-0.16-0.74-0.28-1.1-0.02-0.08-0.02-0.16-0.04-0.22l-52.36-143.86c1.04-10.22 8.82-28.5 13.84-38.32 44.58-76.82 127.36-124.54 216.1-124.54 137.7 0 249.7 112.02 249.7 249.7 0 77.06-34.76 148.6-95.36 196.32z" fill="#23130D" p-id="58312"></path><path d="M181.8 841.22a22.822 22.822 0 0 1-12.66 12.2c-2.72 1.06-5.54 1.6-8.4 1.6-9.52 0-17.92-5.72-21.4-14.6L55.42 626.66c-4.64-11.8 1.18-25.16 12.98-29.8 2.7-1.06 5.54-1.6 8.4-1.6 9.52 0 17.92 5.74 21.4 14.6l83.92 213.76c2.26 5.72 2.14 11.98-0.32 17.6z" fill="#3594BF" p-id="58313"></path><path d="M181.8 841.22a22.822 22.822 0 0 1-12.66 12.2c-1.86 0.72-3.78 1.22-5.72 1.44a23 23 0 0 0 4.88-7.14c2.46-5.62 2.58-11.88 0.32-17.6L84.7 616.36c-3.48-8.86-11.88-14.6-21.4-14.6-0.88 0-1.76 0.06-2.62 0.16 2.12-2.14 4.72-3.88 7.72-5.06 2.7-1.06 5.54-1.6 8.4-1.6 9.52 0 17.92 5.74 21.4 14.6l83.92 213.76c2.26 5.72 2.14 11.98-0.32 17.6z" fill="#23130D" opacity=".2" p-id="58314"></path><path d="M707.68 893.76l-26.94 9.8-63.72-175.08c9.52-2.06 19.26-3.32 29.14-3.72l61.52 169zM521.64 382.66a170.14 170.14 0 0 1-24.72 15.88l-63.72-175.08 26.94-9.8 10.96 30.12v0.02l50.54 138.86z" fill="#E1E1E5" p-id="58315"></path><path d="M720.48 75.84c-88.74 0-171.52 47.72-216.1 124.54-5.02 9.82-12.8 28.1-13.84 38.32l52.36 143.86c0.02 0.06 0.02 0.14 0.04 0.22 0.12 0.36 0.2 0.72 0.28 1.1 0.06 0.28 0.14 0.56 0.18 0.84 0.04 0.34 0.04 0.66 0.04 1 0.02 0.32 0.04 0.64 0.02 0.94-0.02 0.34-0.1 0.64-0.14 0.98-0.06 0.3-0.1 0.6-0.18 0.9-0.08 0.34-0.22 0.66-0.34 0.98-0.1 0.28-0.2 0.56-0.32 0.82-0.16 0.3-0.34 0.6-0.52 0.88-0.16 0.26-0.32 0.52-0.5 0.78-0.18 0.24-0.42 0.46-0.62 0.7-0.24 0.26-0.48 0.52-0.74 0.76-0.06 0.06-0.1 0.12-0.18 0.18-14.74 12.38-31.14 22.26-48.5 29.56 1.58 5.32 4.72 12.54 7.78 18.16 43.4 82.66 128.16 133.92 221.28 133.92 15.96 0 31.92-1.52 47.48-4.52 0.14-0.04 0.28-0.02 0.42-0.04 0.12-0.02 0.24-0.06 0.38-0.08 0.2-0.02 0.4 0 0.58 0 0.36-0.02 0.72-0.04 1.06-0.02s0.64 0.06 0.96 0.1c0.32 0.06 0.64 0.1 0.94 0.18 0.34 0.1 0.66 0.2 0.98 0.32 0.28 0.1 0.56 0.2 0.82 0.32 0.32 0.16 0.62 0.34 0.94 0.52 0.24 0.14 0.48 0.3 0.7 0.46 0.28 0.22 0.56 0.44 0.82 0.68 0.2 0.2 0.42 0.38 0.62 0.6 0.24 0.26 0.44 0.52 0.66 0.8 0.18 0.24 0.34 0.48 0.5 0.74 0.18 0.3 0.34 0.6 0.5 0.92 0.12 0.28 0.26 0.56 0.36 0.84 0.12 0.34 0.22 0.66 0.3 1 0.06 0.2 0.14 0.38 0.18 0.58 0.02 0.14 0.02 0.28 0.04 0.4 0.02 0.14 0.06 0.26 0.08 0.4 6.64 60.12-2.54 108.16-11.26 137.66 56.76-46.54 91.22-109.92 102.56-188.84 0.04-0.24 0.12-0.44 0.18-0.68 0.08-0.38 0.14-0.76 0.26-1.12 0.12-0.3 0.26-0.58 0.4-0.88 0.12-0.3 0.24-0.6 0.4-0.88 0.18-0.32 0.4-0.6 0.62-0.88 0.16-0.24 0.32-0.48 0.52-0.7 0.28-0.32 0.6-0.6 0.92-0.88 0.14-0.14 0.26-0.3 0.42-0.42 60.6-47.72 95.36-119.26 95.36-196.32 0-137.68-112-249.7-249.7-249.7z m156.94 212.66l-48.86 47.62c-4.8 4.68-8.14 14.96-7.02 21.58l11.54 67.26c1.52 8.82-1.2 14.28-3.74 17.28-5.28 6.26-14.54 7.48-23.7 2.66l-60.4-31.76c-2.78-1.46-7.02-2.32-11.34-2.32-4.34 0-8.58 0.86-11.34 2.32l-60.4 31.76c-3.82 2-7.58 3.02-11.16 3.02-5.02 0-9.48-2.02-12.56-5.68-2.54-3-5.26-8.46-3.74-17.3l11.54-67.24c1.14-6.62-2.2-16.9-7-21.58l-48.88-47.62c-6.22-6.06-8.54-13.32-6.4-19.92 2.14-6.6 8.3-11.1 16.9-12.34l67.52-9.82c6.52-0.94 15.44-7.42 18.34-13.32l30.22-61.2c3.84-7.8 10.02-12.26 16.96-12.26 6.94 0 13.12 4.46 16.96 12.26l30.2 61.2c2.96 6 11.72 12.36 18.34 13.32l67.54 9.82c8.6 1.24 14.76 5.74 16.9 12.34 2.14 6.6-0.2 13.86-6.42 19.92z" fill="#E1E1E5" p-id="58316"></path><path d="M520.66 441.36c-3.06-5.62-6.2-12.84-7.78-18.16 17.36-7.3 33.76-17.18 48.5-29.56 0.08-0.06 0.12-0.12 0.18-0.18 0.26-0.24 0.5-0.5 0.74-0.76 0.2-0.24 0.44-0.46 0.62-0.7 0.18-0.26 0.34-0.52 0.5-0.78 0.18-0.28 0.36-0.58 0.52-0.88 0.12-0.26 0.22-0.54 0.32-0.82 0.12-0.32 0.26-0.64 0.34-0.98 0.08-0.3 0.12-0.6 0.18-0.9 0.04-0.34 0.12-0.64 0.14-0.98 0.02-0.3 0-0.62-0.02-0.94 0-0.34 0-0.66-0.04-1-0.04-0.28-0.12-0.56-0.18-0.84-0.08-0.38-0.16-0.74-0.28-1.1-0.02-0.08-0.02-0.16-0.04-0.22L512 238.7c1.04-10.22 8.82-28.5 13.84-38.32 42.82-73.78 120.86-120.72 205.58-124.3-3.62-0.16-7.28-0.24-10.94-0.24-88.74 0-171.52 47.72-216.1 124.54-5.02 9.82-12.8 28.1-13.84 38.32l52.36 143.86c0.02 0.06 0.02 0.14 0.04 0.22 0.12 0.36 0.2 0.72 0.28 1.1 0.06 0.28 0.14 0.56 0.18 0.84 0.04 0.34 0.04 0.66 0.04 1 0.02 0.32 0.04 0.64 0.02 0.94-0.02 0.34-0.1 0.64-0.14 0.98-0.06 0.3-0.1 0.6-0.18 0.9-0.08 0.34-0.22 0.66-0.34 0.98-0.1 0.28-0.2 0.56-0.32 0.82-0.16 0.3-0.34 0.6-0.52 0.88-0.16 0.26-0.32 0.52-0.5 0.78-0.18 0.24-0.42 0.46-0.62 0.7-0.24 0.26-0.48 0.52-0.74 0.76-0.06 0.06-0.1 0.12-0.18 0.18-14.74 12.38-31.14 22.26-48.5 29.56 1.58 5.32 4.72 12.54 7.78 18.16 43.4 82.66 128.16 133.92 221.28 133.92 3.56 0 7.12-0.08 10.66-0.24-88.84-3.78-168.76-54.22-210.48-133.68z" fill="#23130D" opacity=".2" p-id="58317"></path><path d="M661.94 910.4l-102.98 37.48c-94.46-14.2-180.64-60.46-244.4-130.92l21.6-8.3 95.42-35.24c18.88 15.24 39.62 28.22 61.74 38.54 0.04 0.04 0.1 0.04 0.16 0.08 0.18 0.08 0.34 0.14 0.52 0.2 0.22 0.08 0.44 0.16 0.64 0.22 0.18 0.06 0.36 0.12 0.54 0.16 0.24 0.06 0.46 0.1 0.7 0.14 0.16 0.02 0.32 0.06 0.48 0.08 0.34 0.04 0.66 0.06 1 0.06 0.06 0 0.12 0.02 0.18 0.02 0.46 0 0.9-0.04 1.36-0.1 0.1-0.02 0.22-0.06 0.34-0.08 0.32-0.04 0.64-0.12 0.96-0.2 0.14-0.04 0.3-0.1 0.44-0.14 0.28-0.1 0.56-0.18 0.82-0.3 0.16-0.06 0.3-0.14 0.46-0.22 0.24-0.12 0.5-0.24 0.74-0.4 0.16-0.08 0.3-0.18 0.44-0.28 0.24-0.14 0.46-0.3 0.66-0.48 0.16-0.12 0.3-0.24 0.44-0.36 0.2-0.18 0.38-0.36 0.56-0.54 0.14-0.16 0.28-0.3 0.42-0.46 0.16-0.2 0.3-0.4 0.46-0.6 0.12-0.18 0.24-0.34 0.36-0.54 0.04-0.06 0.1-0.12 0.14-0.2 20.9-35.12 53.74-61.14 91.56-74.14l64.24 176.52z" fill="#EC7063" p-id="58318"></path><path d="M661.94 910.4l-102.98 37.48c-94.46-14.2-180.64-60.46-244.4-130.92l21.6-8.3 4.72-1.74c61.84 61.08 141.64 101.2 228.42 114.24l85.26-31.04 7.38 20.28z" fill="#23130D" opacity=".2" p-id="58319"></path><path d="M527.18 707.84c-2.76 6.38-7.9 11.3-14.48 13.86l-17.18 6.76c-0.04 0-0.06 0.02-0.06 0.02l-6.44 2.42-159.92 59.04-77.96 29.98c-9.8 3.84-22.3 4.04-33.42 0.52-11.14-3.54-19.42-10.4-22.72-18.82-0.02-0.06-0.06-0.1-0.08-0.16L120.52 612l26.74-52.82c0.1-0.18 0.18-0.36 0.26-0.54 9.84-22.64 27.76-56.66 44.68-77.48-2.58 18.56-3.98 37.26-4.12 55.92-0.06 0.88 0 1.76 0.18 2.66 0 0.02 0 0.02 0.02 0.04 0.1 0.48 0.18 0.98 0.36 1.46a10.012 10.012 0 0 0 9.4 6.58c0.66 0 1.32-0.1 1.98-0.22 0.1-0.02 0.18-0.06 0.26-0.08 0.4-0.1 0.8-0.18 1.18-0.32l137.14-50.04c0.08-0.02 0.18-0.06 0.26-0.1l58.32-21.28 22.84-8.3c0.08-0.04 0.16-0.06 0.24-0.1 6.6-2.58 13.8-2.44 20.28 0.38 6.5 2.82 11.5 8.02 14.08 14.6s2.46 13.78-0.38 20.28a26.394 26.394 0 0 1-14.6 14.08l-17.46 6.86c-0.06 0.02-0.1 0.04-0.14 0.06l-6.32 2.38-0.24 0.08s-0.02 0-0.02 0.02l-0.06 0.02c-0.18 0.06-0.34 0.18-0.52 0.24-0.44 0.2-0.88 0.4-1.28 0.64-0.12 0.08-0.22 0.18-0.32 0.26-0.44 0.3-0.86 0.6-1.24 0.96-0.06 0.06-0.12 0.14-0.18 0.2-0.4 0.4-0.78 0.8-1.1 1.26-0.02 0.04-0.04 0.1-0.08 0.14-0.34 0.5-0.64 1-0.88 1.52 0 0.04 0 0.06-0.02 0.08-0.24 0.56-0.46 1.14-0.6 1.74v0.06c-0.14 0.6-0.24 1.22-0.26 1.86v0.08c-0.02 0.62 0.02 1.24 0.12 1.88 0 0.04 0.02 0.08 0.02 0.12 0.1 0.58 0.24 1.16 0.44 1.74 0.02 0.02 0.04 0.06 0.06 0.08v0.02c0.2 0.54 0.46 1.06 0.74 1.54 0.12 0.2 0.26 0.4 0.4 0.58 0.2 0.3 0.42 0.6 0.66 0.86 0.16 0.2 0.32 0.38 0.48 0.54 0.26 0.26 0.54 0.5 0.84 0.74 0.16 0.12 0.32 0.28 0.5 0.4 0.44 0.32 0.92 0.6 1.42 0.84 0.14 0.06 0.3 0.1 0.44 0.16 0.38 0.18 0.78 0.32 1.2 0.44 0.2 0.06 0.42 0.1 0.62 0.14 0.38 0.08 0.76 0.14 1.14 0.16 0.22 0.02 0.42 0.06 0.62 0.06 0.1 0 0.2 0.02 0.3 0.02 0.28 0 0.58-0.06 0.86-0.08 0.24-0.02 0.48-0.02 0.72-0.06 0.5-0.08 1-0.22 1.5-0.38 0.1-0.04 0.22-0.04 0.32-0.08l0.08-0.04h0.04l0.22-0.08 22.52-8.2c0.08-0.02 0.16-0.06 0.24-0.08 13.6-5.36 29.02 1.38 34.36 14.98 2.58 6.58 2.44 13.78-0.38 20.26a26.3 26.3 0 0 1-14.62 14.08l-17.44 6.88c-0.04 0.02-0.1 0.02-0.14 0.04l-6.64 2.5c-0.42 0.16-0.78 0.36-1.16 0.56-0.2 0.12-0.42 0.2-0.62 0.32-0.3 0.18-0.58 0.42-0.86 0.66-0.24 0.18-0.48 0.34-0.7 0.54-0.22 0.2-0.38 0.44-0.58 0.66-0.24 0.26-0.5 0.5-0.7 0.8-0.14 0.18-0.22 0.38-0.34 0.58-0.22 0.36-0.46 0.7-0.62 1.08-0.08 0.14-0.1 0.32-0.16 0.46-0.18 0.44-0.36 0.9-0.48 1.36-0.02 0.12-0.02 0.22-0.04 0.34-0.12 0.52-0.2 1.04-0.22 1.58-0.02 0.08 0 0.16 0 0.24 0 0.58 0.02 1.14 0.1 1.72 0.02 0.06 0.04 0.12 0.04 0.18 0.1 0.56 0.24 1.14 0.44 1.7 0 0.04 0.02 0.06 0.04 0.08v0.02c0.2 0.54 0.46 1.06 0.74 1.54 0.14 0.22 0.28 0.4 0.42 0.62 0.2 0.28 0.4 0.56 0.62 0.82 0.18 0.2 0.36 0.38 0.54 0.58 0.24 0.24 0.5 0.44 0.76 0.66 0.18 0.16 0.36 0.32 0.56 0.46 0.44 0.3 0.9 0.58 1.38 0.82 0.2 0.08 0.4 0.14 0.6 0.22 0.34 0.14 0.68 0.26 1.02 0.36 0.24 0.08 0.5 0.12 0.74 0.18 0.34 0.06 0.66 0.12 1 0.14 0.26 0.04 0.48 0.06 0.74 0.06 0.08 0 0.16 0.02 0.24 0.02 0.26 0 0.5-0.04 0.76-0.06 0.28-0.02 0.58-0.04 0.86-0.08 0.42-0.06 0.84-0.2 1.26-0.32 0.18-0.06 0.36-0.06 0.54-0.14l22.86-8.3c0.08-0.02 0.16-0.06 0.24-0.1 6.58-2.58 13.78-2.44 20.26 0.38 6.5 2.84 11.5 8.02 14.1 14.6 2.58 6.6 2.44 13.8-0.4 20.28-2.82 6.5-8 11.5-14.6 14.08l-17.58 6.92-6.66 2.5-0.8 0.28c-5.18 1.88-7.86 7.62-5.98 12.82a9.996 9.996 0 0 0 12.82 5.98l22.42-8.14c0.08-0.04 0.16-0.06 0.24-0.1 13.24-5.18 28.14 1.02 33.18 13.84 2.4 6.06 2.26 12.74-0.4 18.8z" fill="#F8D3C9" p-id="58320"></path><path d="M519.88 717.52c-2.12 1.74-4.52 3.14-7.18 4.18l-17.18 6.76c-0.04 0-0.06 0.02-0.06 0.02l-6.44 2.42-159.92 59.04-77.96 29.98c-9.8 3.84-22.3 4.04-33.42 0.52-11.14-3.54-19.42-10.4-22.72-18.82-0.02-0.06-0.06-0.1-0.08-0.16L120.52 612l26.74-52.82c0.1-0.18 0.18-0.36 0.26-0.54 9.84-22.64 27.76-56.66 44.68-77.48a430.3 430.3 0 0 0-4.12 55.72c-0.9 1.98-1.76 3.9-2.56 5.74-0.08 0.18-0.16 0.36-0.26 0.54l-26.74 52.82 74.4 189.46c0.02 0.06 0.06 0.1 0.08 0.16 3.3 8.42 11.58 15.28 22.72 18.82 11.12 3.52 23.62 3.32 33.42-0.52l77.96-29.98 152.78-56.4z" fill="#23130D" opacity=".2" p-id="58321"></path><path d="M478.66 406.82c-37.32 14.34-79.2 15.52-117.8 2.06-0.14-0.04-0.28-0.06-0.42-0.1-0.38-0.12-0.76-0.2-1.14-0.28-0.28-0.04-0.56-0.08-0.82-0.1-0.38-0.04-0.74-0.06-1.12-0.04-0.28 0-0.56 0.02-0.84 0.04-0.36 0.04-0.7 0.1-1.06 0.18-0.28 0.06-0.56 0.14-0.84 0.22-0.32 0.1-0.64 0.22-0.96 0.36-0.28 0.12-0.54 0.24-0.8 0.38-0.3 0.16-0.58 0.34-0.88 0.52-0.24 0.18-0.5 0.36-0.74 0.56s-0.48 0.42-0.72 0.66c-0.24 0.22-0.46 0.46-0.66 0.72-0.2 0.24-0.38 0.5-0.56 0.76-0.2 0.3-0.38 0.6-0.54 0.92-0.08 0.14-0.18 0.26-0.26 0.42a299.76 299.76 0 0 0-21.86 66.14l-118.2 43.12c0.92-22.18 3.66-44.38 8.2-66.18a413.528 413.528 0 0 1 94.78-189.4l103-37.48 64.24 176.52z" fill="#EC7063" p-id="58322"></path><path d="M421.2 248.94l-88.44 32.18a413.528 413.528 0 0 0-94.78 189.4c-3.06 14.7-5.3 29.58-6.72 44.52l-22.82 8.32c0.92-22.18 3.66-44.38 8.2-66.18a413.528 413.528 0 0 1 94.78-189.4l103-37.48 6.78 18.64z" fill="#23130D" opacity=".2" p-id="58323"></path><path d="M877.42 288.5c6.22-6.06 8.56-13.32 6.42-19.92-2.14-6.6-8.3-11.1-16.9-12.34l-67.54-9.82c-6.62-0.96-15.38-7.32-18.34-13.32l-30.2-61.2c-3.84-7.8-10.02-12.26-16.96-12.26-6.94 0-13.12 4.46-16.96 12.26l-30.22 61.2c-2.9 5.9-11.82 12.38-18.34 13.32l-67.52 9.82c-8.6 1.24-14.76 5.74-16.9 12.34-2.14 6.6 0.18 13.86 6.4 19.92l48.88 47.62c4.8 4.68 8.14 14.96 7 21.58l-11.54 67.24c-1.52 8.84 1.2 14.3 3.74 17.3 3.08 3.66 7.54 5.68 12.56 5.68 3.58 0 7.34-1.02 11.16-3.02l60.4-31.76c2.76-1.46 7-2.32 11.34-2.32 4.32 0 8.56 0.86 11.34 2.32l60.4 31.76c9.16 4.82 18.42 3.6 23.7-2.66 2.54-3 5.26-8.46 3.74-17.28l-11.54-67.26c-1.12-6.62 2.22-16.9 7.02-21.58l48.86-47.62zM814.6 321.8c-9.52 9.28-15.02 26.16-12.76 39.28l11.16 65.08-58.46-30.72c-5.66-2.98-13-4.62-20.64-4.62-7.66 0-14.98 1.64-20.66 4.62l-58.46 30.72 11.18-65.08c2.24-13.1-3.24-29.98-12.76-39.28l-47.3-46.1 65.36-9.48c13.16-1.92 27.52-12.36 33.4-24.28l29.24-59.22 29.22 59.22c5.88 11.92 20.24 22.36 33.42 24.28l65.34 9.48-47.28 46.1z" fill="#23130D" p-id="58324"></path><path d="M814.6 321.8c-9.52 9.28-15.02 26.16-12.76 39.28l11.16 65.08-58.46-30.72c-5.66-2.98-13-4.62-20.64-4.62-7.66 0-14.98 1.64-20.66 4.62l-58.46 30.72 11.18-65.08c2.24-13.1-3.24-29.98-12.76-39.28l-47.3-46.1 65.36-9.48c13.16-1.92 27.52-12.36 33.4-24.28l29.24-59.22 29.22 59.22c5.88 11.92 20.24 22.36 33.42 24.28l65.34 9.48-47.28 46.1z" fill="#F9C139" p-id="58325"></path><path d="M733.9 182.72l9.24 18.72-21.98 44.5c-5.88 11.92-20.24 22.36-33.4 24.28l-65.36 9.48 47.3 46.1c9.52 9.3 15 26.18 12.76 39.28l-8.78 51.16-18.9 9.92 11.18-65.08c2.24-13.1-3.24-29.98-12.76-39.28l-47.3-46.1 65.36-9.48c13.16-1.92 27.52-12.36 33.4-24.28l29.24-59.22z" fill="#23130D" opacity=".2" p-id="58326"></path></svg>