<svg data-v-8702752c="" version="1.0"
    xmlns="http://www.w3.org/2000/svg"
    xmlns:xlink="http://www.w3.org/1999/xlink" width="100%" height="100%" viewBox="0 0 340.000000 250.000000" preserveAspectRatio="xMidYMid meet" color-interpolation-filters="sRGB" class="el-tooltip" style="margin: auto;">
    <rect data-v-8702752c="" x="0" y="0" width="100%" height="100%" fill="#fff9f7" fill-opacity="1" class="background"></rect>
    <rect data-v-8702752c="" x="0" y="0" width="100%" height="100%" fill="url(#watermark)" fill-opacity="1" class="watermarklayer"></rect>
    <g data-v-8702752c="" class="iconmbgsvg" transform="translate(83.49030001191022,83.44679209306128)">
        <g fill="#300000" hollow-target="text">
            <g mask="url(#0b9aa2f5-15e4-4f55-b753-8233ae2f2807)">
                <rect fill="#300000" fill-opacity="0" stroke-width="2" x="0" y="0" width="97.5" height="37.30478917230609" class="image-rect"></rect>
                <svg filter="url(#colors3927690626)" x="0" y="0" width="97.5" height="37.30478917230609" filtersec="colorsf2040584049" class="image-svg-svg primary">
                    <svg
                        xmlns="http://www.w3.org/2000/svg" viewBox="0 0 192.1 73.5">
                        <g>
                            <path d="M186.5 73.5H5.6A5.59 5.59 0 0 1 0 67.9V5.6A5.59 5.59 0 0 1 5.6 0h180.9a5.59 5.59 0 0 1 5.6 5.6V68a5.65 5.65 0 0 1-5.6 5.55z"></path>
                        </g>
                    </svg>
                </svg>
                <defs>
                    <filter id="colors3927690626">
                        <feColorMatrix type="matrix" values="0 0 0 0 0.9140625  0 0 0 0 0.2109375  0 0 0 0 0.21484375  0 0 0 1 0" class="icon-fecolormatrix"></feColorMatrix>
                    </filter>
                    <filter id="colorsf2040584049">
                        <feColorMatrix type="matrix" values="0 0 0 0 0.99609375  0 0 0 0 0.99609375  0 0 0 0 0.99609375  0 0 0 1 0" class="icon-fecolormatrix"></feColorMatrix>
                    </filter>
                    <filter id="colorsb3783700691">
                        <feColorMatrix type="matrix" values="0 0 0 0 0  0 0 0 0 0  0 0 0 0 0  0 0 0 1 0" class="icon-fecolormatrix"></feColorMatrix>
                    </filter>
                </defs>
            </g>
            <g transform="translate(22.480003356933594,30.22392463684082)">
                <g data-gra="path-name" fill-rule="" class="tp-name" transform="translate(0,0)">
                    <g>
                        <path d="M27.94-8.12L27.94 0L1.52 0L1.52-6.47L10.41-15.46Q14.22-19.45 15.39-20.91Q16.56-22.36 17.02-23.41Q17.48-24.45 17.48-25.60L17.48-25.60Q17.48-27.02 16.56-27.84Q15.64-28.66 13.97-28.66L13.97-28.66Q12.25-28.66 10.50-27.68Q8.74-26.70 6.52-24.78L6.52-24.78L1.12-31.10Q3.93-33.62 5.85-34.70Q7.77-35.78 10.02-36.36Q12.28-36.93 15.09-36.93L15.09-36.93Q18.63-36.93 21.40-35.69Q24.18-34.44 25.71-32.14Q27.24-29.83 27.24-26.97L27.24-26.97Q27.24-24.83 26.71-23.01Q26.17-21.19 25.05-19.44Q23.93-17.68 22.08-15.74Q20.22-13.80 14.17-8.37L14.17-8.37L14.17-8.12L27.94-8.12ZM49.88-28.36L49.88 0L40.04 0L40.04-28.36L31.15-28.36L31.15-36.41L58.74-36.41L58.74-28.36L49.88-28.36ZM70.72-36.41L76.95-22.91L83.22-36.41L93.88-36.41L81.90-14.22L81.90 0L71.99 0L71.99-13.92L60.01-36.41L70.72-36.41ZM124.24-24.83L124.24-24.83Q124.24-18.73 120.64-15.40Q117.04-12.08 110.42-12.08L110.42-12.08L107.65-12.08L107.65 0L97.82 0L97.82-36.41L110.42-36.41Q117.31-36.41 120.78-33.39Q124.24-30.38 124.24-24.83ZM107.65-28.46L107.65-20.10L109.45-20.10Q111.66-20.10 112.97-21.34Q114.28-22.59 114.28-24.78L114.28-24.78Q114.28-28.46 110.19-28.46L110.19-28.46L107.65-28.46ZM151.66-8.02L151.66 0L130.04 0L130.04-36.41L151.66-36.41L151.66-28.51L139.88-28.51L139.88-22.79L150.78-22.79L150.78-14.89L139.88-14.89L139.88-8.02L151.66-8.02Z" transform="translate(-1.12060546875, 36.93017578125)"></path>
                    </g>
                    <!---->
                    <!---->
                    <!---->
                    <!---->
                    <!---->
                    <!---->
                    <!---->
                </g>
                <g data-gra="path-slogan" fill-rule="" class="tp-slogan" fill="#ea3637" transform="translate(124.94000434875488,43.93000030517578)">
                    <!---->
                    <!---->
                    <g transform="scale(1, 1)">
                        <path d="M1.03-1.27L2.30-1.27L2.30 0L1.03 0L1.03-1.27ZM14.39-6.05L14.39-6.05L13.27-6.05Q12.84-7.78 10.88-7.83L10.88-7.83Q8.16-7.69 8.06-4.36L8.06-4.36Q8.06-0.80 10.92-0.80L10.92-0.80Q12.89-0.84 13.36-3.19L13.36-3.19L14.48-3.19Q13.97 0.05 10.69 0.14L10.69 0.14Q6.94 0 6.84-4.31L6.84-4.31Q7.03-8.63 10.88-8.81L10.88-8.81Q13.92-8.72 14.39-6.05ZM20.25-8.58L24.56-1.64L24.56-8.58L25.69-8.58L25.69 0L24.38 0L20.02-6.94L19.97-6.94L19.97 0L18.84 0L18.84-8.58L20.25-8.58Z" transform="translate(-1.03125, 8.8125)"></path>
                    </g>
                </g>
            </g>
        </g>
    </g>
    <mask id="0b9aa2f5-15e4-4f55-b753-8233ae2f2807">
        <g fill="white">
            <rect fill-opacity="1" stroke-width="2" x="0" y="0" width="97.5" height="37.30478917230609" class="image-rect"></rect>
            <svg x="0" y="0" width="97.5" height="37.30478917230609" class="image-svg-svg primary" filter="url(#colorsf2040584049)">
                <svg
                    xmlns="http://www.w3.org/2000/svg" viewBox="0 0 192.1 73.5">
                    <g>
                        <path d="M186.5 73.5H5.6A5.59 5.59 0 0 1 0 67.9V5.6A5.59 5.59 0 0 1 5.6 0h180.9a5.59 5.59 0 0 1 5.6 5.6V68a5.65 5.65 0 0 1-5.6 5.55z"></path>
                    </g>
                </svg>
            </svg>
            <defs></defs>
        </g>
        <g transform="translate(22.480003356933594,30.22392463684082)" fill="black" stroke="#000" stroke-width="6" stroke-linejoin="round">
            <g data-gra="path-name" fill-rule="" class="tp-name" transform="translate(0,0)">
                <g>
                    <path d="M27.94-8.12L27.94 0L1.52 0L1.52-6.47L10.41-15.46Q14.22-19.45 15.39-20.91Q16.56-22.36 17.02-23.41Q17.48-24.45 17.48-25.60L17.48-25.60Q17.48-27.02 16.56-27.84Q15.64-28.66 13.97-28.66L13.97-28.66Q12.25-28.66 10.50-27.68Q8.74-26.70 6.52-24.78L6.52-24.78L1.12-31.10Q3.93-33.62 5.85-34.70Q7.77-35.78 10.02-36.36Q12.28-36.93 15.09-36.93L15.09-36.93Q18.63-36.93 21.40-35.69Q24.18-34.44 25.71-32.14Q27.24-29.83 27.24-26.97L27.24-26.97Q27.24-24.83 26.71-23.01Q26.17-21.19 25.05-19.44Q23.93-17.68 22.08-15.74Q20.22-13.80 14.17-8.37L14.17-8.37L14.17-8.12L27.94-8.12ZM49.88-28.36L49.88 0L40.04 0L40.04-28.36L31.15-28.36L31.15-36.41L58.74-36.41L58.74-28.36L49.88-28.36ZM70.72-36.41L76.95-22.91L83.22-36.41L93.88-36.41L81.90-14.22L81.90 0L71.99 0L71.99-13.92L60.01-36.41L70.72-36.41ZM124.24-24.83L124.24-24.83Q124.24-18.73 120.64-15.40Q117.04-12.08 110.42-12.08L110.42-12.08L107.65-12.08L107.65 0L97.82 0L97.82-36.41L110.42-36.41Q117.31-36.41 120.78-33.39Q124.24-30.38 124.24-24.83ZM107.65-28.46L107.65-20.10L109.45-20.10Q111.66-20.10 112.97-21.34Q114.28-22.59 114.28-24.78L114.28-24.78Q114.28-28.46 110.19-28.46L110.19-28.46L107.65-28.46ZM151.66-8.02L151.66 0L130.04 0L130.04-36.41L151.66-36.41L151.66-28.51L139.88-28.51L139.88-22.79L150.78-22.79L150.78-14.89L139.88-14.89L139.88-8.02L151.66-8.02Z" transform="translate(-1.12060546875, 36.93017578125)"></path>
                </g>
            </g>
            <g data-gra="path-slogan" fill-rule="" class="tp-slogan" transform="translate(124.94000434875488,43.93000030517578)">
                <g transform="scale(1, 1)">
                    <path d="M1.03-1.27L2.30-1.27L2.30 0L1.03 0L1.03-1.27ZM14.39-6.05L14.39-6.05L13.27-6.05Q12.84-7.78 10.88-7.83L10.88-7.83Q8.16-7.69 8.06-4.36L8.06-4.36Q8.06-0.80 10.92-0.80L10.92-0.80Q12.89-0.84 13.36-3.19L13.36-3.19L14.48-3.19Q13.97 0.05 10.69 0.14L10.69 0.14Q6.94 0 6.84-4.31L6.84-4.31Q7.03-8.63 10.88-8.81L10.88-8.81Q13.92-8.72 14.39-6.05ZM20.25-8.58L24.56-1.64L24.56-8.58L25.69-8.58L25.69 0L24.38 0L20.02-6.94L19.97-6.94L19.97 0L18.84 0L18.84-8.58L20.25-8.58Z" transform="translate(-1.03125, 8.8125)"></path>
                </g>
            </g>
        </g>
    </mask>
    <defs v-gra="od"></defs>
</svg>