<?xml version="1.0" standalone="no"?><!DOCTYPE svg PUBLIC "-//W3C//DTD SVG 1.1//EN" "http://www.w3.org/Graphics/SVG/1.1/DTD/svg11.dtd"><svg t="1632501915584" class="icon" viewBox="0 0 1024 1024" version="1.1" xmlns="http://www.w3.org/2000/svg" p-id="14124" xmlns:xlink="http://www.w3.org/1999/xlink" width="200" height="200"><defs><style type="text/css"></style></defs><path d="M0 0m153.6 0l716.8 0q153.6 0 153.6 153.6l0 716.8q0 153.6-153.6 153.6l-716.8 0q-153.6 0-153.6-153.6l0-716.8q0-153.6 153.6-153.6Z" fill="#EBF4FF" p-id="14125"></path><path d="M341.333333 836.266667a21.617778 21.617778 0 0 1-18.488889-10.24 21.333333 21.333333 0 0 1 7.395556-28.444445A366.933333 366.933333 0 0 0 512 480.711111a21.333333 21.333333 0 0 1 42.666667 0 409.884444 409.884444 0 0 1-202.808889 352.711111 21.333333 21.333333 0 0 1-10.524445 2.844445zM824.888889 722.488889a28.444444 28.444444 0 0 1-6.826667 0 21.617778 21.617778 0 0 1-13.368889-27.022222 664.746667 664.746667 0 0 0 24.177778-93.582223 21.333333 21.333333 0 0 1 42.097778 7.68 752.64 752.64 0 0 1-25.884445 99.555556 21.617778 21.617778 0 0 1-20.195555 13.368889z" fill="#2387EB" p-id="14126"></path><path d="M849.351111 625.777778h-3.982222a21.048889 21.048889 0 0 1-17.066667-24.746667 675.271111 675.271111 0 0 0 10.808889-120.035555 21.333333 21.333333 0 0 1 42.666667 0 735.288889 735.288889 0 0 1-11.377778 127.715555 21.902222 21.902222 0 0 1-21.048889 17.066667z" fill="#2387EB" p-id="14127"></path><path d="M860.444444 502.044444a21.333333 21.333333 0 0 1-15.075555-6.257777 22.186667 22.186667 0 0 1-6.542222-15.075556 20.48 20.48 0 0 1 1.706666-8.248889 19.911111 19.911111 0 0 1 4.835556-7.111111 23.893333 23.893333 0 0 1 7.964444-4.551111 21.048889 21.048889 0 0 1 23.04 4.551111 19.911111 19.911111 0 0 1 4.835556 7.111111 20.195556 20.195556 0 0 1 0 8.248889 18.773333 18.773333 0 0 1 0 7.964445 22.471111 22.471111 0 0 1-4.835556 7.111111 22.186667 22.186667 0 0 1-6.826666 4.551111 19.057778 19.057778 0 0 1-9.102223 1.706666z" fill="#2387EB" p-id="14128"></path><path d="M860.444444 502.044444a21.617778 21.617778 0 0 1-21.333333-21.333333 284.444444 284.444444 0 0 0-19.626667-104.106667 21.333333 21.333333 0 0 1 11.946667-28.444444 21.617778 21.617778 0 0 1 28.444445 11.946667A330.24 330.24 0 0 1 881.777778 480.711111a21.617778 21.617778 0 0 1-21.333334 21.333333zM803.271111 323.697778a21.333333 21.333333 0 0 1-17.351111-9.102222 306.346667 306.346667 0 0 0-157.582222-113.777778 21.333333 21.333333 0 1 1 12.8-40.675556 347.022222 347.022222 0 0 1 179.484444 129.422222 21.617778 21.617778 0 0 1-4.835555 29.866667 23.324444 23.324444 0 0 1-12.515556 4.266667z" fill="#2387EB" p-id="14129"></path><path d="M380.871111 223.857778a21.048889 21.048889 0 0 1-19.057778-11.377778 21.617778 21.617778 0 0 1 9.102223-28.444444 362.382222 362.382222 0 0 1 270.222222-23.324445 21.333333 21.333333 0 0 1-12.8 40.675556 319.431111 319.431111 0 0 0-237.795556 20.48 20.195556 20.195556 0 0 1-9.671111 1.991111zM237.226667 372.053333A21.048889 21.048889 0 0 1 227.555556 369.777778a21.333333 21.333333 0 0 1-10.24-28.444445 337.635556 337.635556 0 0 1 91.022222-117.191111 21.333333 21.333333 0 0 1 28.444444 32.995556A298.097778 298.097778 0 0 0 256 359.822222a21.617778 21.617778 0 0 1-18.773333 12.231111z" fill="#2387EB" p-id="14130"></path><path d="M208.497778 502.044444a21.333333 21.333333 0 0 1-21.333334-21.333333A325.404444 325.404444 0 0 1 217.884444 341.333333a21.333333 21.333333 0 1 1 38.115556 18.488889 281.884444 281.884444 0 0 0-26.737778 120.888889 21.617778 21.617778 0 0 1-20.764444 21.333333zM667.022222 855.324444a21.617778 21.617778 0 0 1-17.635555-33.564444 589.937778 589.937778 0 0 0 108.088889-341.333333 207.075556 207.075556 0 0 0-36.408889-117.76 21.617778 21.617778 0 0 1 5.688889-28.444445 21.333333 21.333333 0 0 1 28.444444 5.688889 251.164444 251.164444 0 0 1 43.804444 142.222222 630.897778 630.897778 0 0 1-115.768888 365.511111 21.333333 21.333333 0 0 1-16.213334 7.68zM693.76 322.56a20.48 20.48 0 0 1-13.653333-4.835556A231.537778 231.537778 0 0 0 625.777778 284.444444a21.333333 21.333333 0 1 1 17.066666-39.253333A269.937778 269.937778 0 0 1 707.413333 284.444444a21.333333 21.333333 0 0 1 2.844445 29.866667 21.617778 21.617778 0 0 1-16.497778 8.248889z" fill="#2387EB" p-id="14131"></path><path d="M634.88 286.435556A20.764444 20.764444 0 0 1 625.777778 284.444444a227.555556 227.555556 0 0 0-91.875556-19.057777 21.333333 21.333333 0 0 1 0-42.666667 272.213333 272.213333 0 0 1 108.657778 22.471111 21.333333 21.333333 0 0 1-8.248889 40.96zM380.871111 318.008889a20.48 20.48 0 0 1-16.782222-8.248889 21.048889 21.048889 0 0 1 3.697778-29.866667 266.524444 266.524444 0 0 1 71.964444-40.106666 21.333333 21.333333 0 0 1 28.444445 12.8 21.048889 21.048889 0 0 1-12.515556 28.444444A221.582222 221.582222 0 0 0 393.955556 312.888889a21.048889 21.048889 0 0 1-13.084445 5.12z" fill="#2387EB" p-id="14132"></path><path d="M380.586667 318.008889a19.057778 19.057778 0 0 1-7.964445-1.706667 17.066667 17.066667 0 0 1-7.111111-4.551111 21.333333 21.333333 0 0 1-6.257778-15.075555 20.48 20.48 0 0 1 1.706667-8.248889 22.186667 22.186667 0 0 1 4.551111-6.826667 17.066667 17.066667 0 0 1 7.111111-4.551111 20.195556 20.195556 0 0 1 16.213334 0 17.92 17.92 0 0 1 6.826666 4.551111 23.04 23.04 0 0 1 4.835556 6.826667 26.453333 26.453333 0 0 1 1.422222 8.248889 21.333333 21.333333 0 0 1-6.257778 15.075555 17.92 17.92 0 0 1-6.826666 4.551111 20.48 20.48 0 0 1-8.248889 1.706667z" fill="#2387EB" p-id="14133"></path><path d="M380.586667 318.008889a19.057778 19.057778 0 0 1-7.964445-1.706667 17.066667 17.066667 0 0 1-7.111111-4.551111 21.333333 21.333333 0 0 1-6.257778-15.075555 20.48 20.48 0 0 1 1.706667-8.248889 22.186667 22.186667 0 0 1 4.551111-6.826667 17.066667 17.066667 0 0 1 7.111111-4.551111 20.195556 20.195556 0 0 1 16.213334 0 17.92 17.92 0 0 1 6.826666 4.551111 23.04 23.04 0 0 1 4.835556 6.826667 26.453333 26.453333 0 0 1 1.422222 8.248889 21.333333 21.333333 0 0 1-6.257778 15.075555 17.92 17.92 0 0 1-6.826666 4.551111 20.48 20.48 0 0 1-8.248889 1.706667z" fill="#2387EB" p-id="14134"></path><path d="M163.555556 654.222222a21.333333 21.333333 0 0 1-4.551112-42.097778 136.533333 136.533333 0 0 0 109.511112-131.413333 253.44 253.44 0 0 1 99.271111-200.817778 21.333333 21.333333 0 0 1 26.168889 32.995556 211.911111 211.911111 0 0 0-82.773334 167.253333 178.631111 178.631111 0 0 1-142.222222 174.08 12.515556 12.515556 0 0 1-5.404444 0zM543.004444 879.786667a21.902222 21.902222 0 0 1-15.075555-5.973334 21.902222 21.902222 0 0 1 0-30.435555 521.671111 521.671111 0 0 0 134.542222-243.768889 21.617778 21.617778 0 0 1 25.884445-15.644445 21.048889 21.048889 0 0 1 15.644444 25.6 566.044444 566.044444 0 0 1-145.635556 263.68 21.048889 21.048889 0 0 1-15.36 6.542223z" fill="#2387EB" p-id="14135"></path><path d="M682.666667 625.777778a21.333333 21.333333 0 0 1-15.075556-6.257778 23.04 23.04 0 0 1-4.835555-6.826667 26.453333 26.453333 0 0 1 0-8.248889 24.746667 24.746667 0 0 1 0-7.964444 21.048889 21.048889 0 0 1 4.835555-7.111111 21.333333 21.333333 0 0 1 30.151111 0 20.48 20.48 0 0 1 4.551111 7.111111 19.057778 19.057778 0 0 1 1.706667 7.964444 20.48 20.48 0 0 1-1.706667 8.248889 22.186667 22.186667 0 0 1-4.551111 6.826667 21.048889 21.048889 0 0 1-7.111111 4.835556 24.746667 24.746667 0 0 1-7.964444 1.422222zM694.328889 559.502222h-2.275556a21.333333 21.333333 0 0 1-18.773333-23.608889c1.706667-18.488889 2.844444-36.977778 2.844444-55.182222a133.973333 133.973333 0 0 0-61.155555-110.933333 21.333333 21.333333 0 1 1 23.608889-35.555556 177.493333 177.493333 0 0 1 80.213333 147.626667c0 19.626667 0 39.822222-3.128889 59.733333a21.617778 21.617778 0 0 1-21.333333 17.92z" fill="#2387EB" p-id="14136"></path><path d="M625.777778 372.053333a22.186667 22.186667 0 0 1-11.662222-3.413333 155.022222 155.022222 0 0 0-17.635556-9.955556 21.333333 21.333333 0 0 1 18.488889-38.684444 224.711111 224.711111 0 0 1 22.755555 13.084444 21.333333 21.333333 0 0 1-11.946666 38.968889zM371.484444 502.044444a21.333333 21.333333 0 0 1-21.333333-21.333333 181.76 181.76 0 0 1 184.32-178.915555 21.333333 21.333333 0 0 1 0 42.666666 139.093333 139.093333 0 0 0-142.222222 136.248889 21.617778 21.617778 0 0 1-20.764445 21.333333zM335.075556 625.777778a21.902222 21.902222 0 0 1-11.377778-3.413334 21.617778 21.617778 0 0 1-6.542222-28.444444 220.16 220.16 0 0 0 21.048888-42.666667 21.333333 21.333333 0 1 1 40.106667 14.222223 253.155556 253.155556 0 0 1-25.031111 51.484444 22.186667 22.186667 0 0 1-18.204444 8.817778z" fill="#2387EB" p-id="14137"></path><path d="M335.075556 625.777778a21.333333 21.333333 0 0 1-15.075556-6.257778 17.92 17.92 0 0 1-4.551111-6.826667 20.48 20.48 0 0 1-1.706667-8.248889 19.057778 19.057778 0 0 1 1.706667-7.964444 17.066667 17.066667 0 0 1 4.551111-7.111111 25.884444 25.884444 0 0 1 6.826667-4.551111 21.902222 21.902222 0 0 1 23.324444 4.551111 20.48 20.48 0 0 1 4.551111 7.111111 19.057778 19.057778 0 0 1 1.706667 7.964444 20.48 20.48 0 0 1-1.706667 8.248889 17.92 17.92 0 0 1-4.551111 6.826667 21.333333 21.333333 0 0 1-15.075555 6.257778z" fill="#2387EB" p-id="14138"></path><path d="M335.075556 625.777778a21.333333 21.333333 0 0 1-15.075556-6.257778 17.92 17.92 0 0 1-4.551111-6.826667 20.48 20.48 0 0 1-1.706667-8.248889 19.057778 19.057778 0 0 1 1.706667-7.964444 17.066667 17.066667 0 0 1 4.551111-7.111111 25.884444 25.884444 0 0 1 6.826667-4.551111 21.902222 21.902222 0 0 1 23.324444 4.551111 20.48 20.48 0 0 1 4.551111 7.111111 19.057778 19.057778 0 0 1 1.706667 7.964444 20.48 20.48 0 0 1-1.706667 8.248889 17.92 17.92 0 0 1-4.551111 6.826667 21.333333 21.333333 0 0 1-15.075555 6.257778z" fill="#2387EB" p-id="14139"></path><path d="M206.506667 725.333333a21.617778 21.617778 0 0 1-20.195556-14.222222 21.333333 21.333333 0 0 1 12.8-28.444444 222.151111 222.151111 0 0 0 117.191111-90.737778 21.333333 21.333333 0 0 1 36.124445 23.04 265.102222 265.102222 0 0 1-139.946667 108.088889 19.057778 19.057778 0 0 1-5.973333 2.275555zM266.24 786.773333a21.333333 21.333333 0 0 1-8.817778-40.675555A298.951111 298.951111 0 0 0 407.324444 597.333333a21.048889 21.048889 0 0 1 28.444445-10.808889 21.617778 21.617778 0 0 1 10.808889 28.444445 341.333333 341.333333 0 0 1-170.666667 170.666667 19.911111 19.911111 0 0 1-9.671111 1.137777z" fill="#2387EB" p-id="14140"></path><path d="M426.666667 625.777778a26.453333 26.453333 0 0 1-8.248889-1.422222 23.04 23.04 0 0 1-6.826667-4.835556 18.773333 18.773333 0 0 1-4.835555-6.826667 26.453333 26.453333 0 0 1-1.422223-8.248889 24.746667 24.746667 0 0 1 1.422223-7.111111 21.048889 21.048889 0 0 1 4.835555-7.111111 21.333333 21.333333 0 0 1 30.151111 0 20.48 20.48 0 0 1 4.551111 7.111111 19.057778 19.057778 0 0 1 1.706667 7.964445 20.48 20.48 0 0 1-1.706667 8.248889 22.186667 22.186667 0 0 1-4.551111 6.826666 21.333333 21.333333 0 0 1-15.075555 5.404445z" fill="#2387EB" p-id="14141"></path><path d="M426.666667 625.777778a26.453333 26.453333 0 0 1-8.248889-1.422222 23.04 23.04 0 0 1-6.826667-4.835556 18.773333 18.773333 0 0 1-4.835555-6.826667 26.453333 26.453333 0 0 1-1.422223-8.248889 24.746667 24.746667 0 0 1 1.422223-7.111111 21.048889 21.048889 0 0 1 4.835555-7.111111 21.333333 21.333333 0 0 1 30.151111 0 20.48 20.48 0 0 1 4.551111 7.111111 19.057778 19.057778 0 0 1 1.706667 7.964445 20.48 20.48 0 0 1-1.706667 8.248889 22.186667 22.186667 0 0 1-4.551111 6.826666 21.333333 21.333333 0 0 1-15.075555 5.404445z" fill="#2387EB" p-id="14142"></path><path d="M426.666667 625.777778a23.324444 23.324444 0 0 1-8.533334-1.991111 21.333333 21.333333 0 0 1-10.808889-28.444445 287.004444 287.004444 0 0 0 23.04-89.6 21.333333 21.333333 0 0 1 42.666667 3.697778 331.093333 331.093333 0 0 1-26.737778 103.253333 21.617778 21.617778 0 0 1-19.626666 13.084445zM469.333333 455.111111a21.902222 21.902222 0 0 1-13.084444-4.266667 21.333333 21.333333 0 0 1-3.697778-30.151111 102.968889 102.968889 0 0 1 52.053333-35.271111 21.333333 21.333333 0 1 1 11.946667 41.244445 60.586667 60.586667 0 0 0-30.435555 20.48 21.333333 21.333333 0 0 1-16.782223 7.964444z" fill="#2387EB" p-id="14143"></path><path d="M609.564444 578.56h-3.697777a21.333333 21.333333 0 0 1-17.351111-24.462222 447.431111 447.431111 0 0 0 5.973333-73.102222A60.302222 60.302222 0 0 0 516.835556 426.666667a21.333333 21.333333 0 1 1-12.231112-40.96 105.244444 105.244444 0 0 1 29.866667-4.266667 101.546667 101.546667 0 0 1 102.684445 99.271111 500.337778 500.337778 0 0 1-6.542223 80.213333 21.333333 21.333333 0 0 1-21.048889 17.635556zM434.062222 869.546667a21.333333 21.333333 0 0 1-13.084444-38.115556A450.275556 450.275556 0 0 0 568.888889 625.777778a21.048889 21.048889 0 0 1 27.022222-13.084445 21.333333 21.333333 0 0 1 13.084445 28.444445 489.813333 489.813333 0 0 1-162.702223 224.142222 19.911111 19.911111 0 0 1-12.231111 4.266667z" fill="#2387EB" p-id="14144"></path></svg>