<?xml version="1.0" standalone="no"?><!DOCTYPE svg PUBLIC "-//W3C//DTD SVG 1.1//EN" "http://www.w3.org/Graphics/SVG/1.1/DTD/svg11.dtd"><svg t="1625829334410" class="icon" viewBox="0 0 1024 1024" version="1.1" xmlns="http://www.w3.org/2000/svg" p-id="19351" xmlns:xlink="http://www.w3.org/1999/xlink" width="200" height="200"><defs><style type="text/css"></style></defs><path d="M277.4 578.1a327.8 333.6 0 1 0 655.6 0 327.8 333.6 0 1 0-655.6 0Z" fill="#D4F4C2" p-id="19352"></path><path d="M667.9 110.2c-2.2 0.3-4.4 0.1-6.6 0.1-35.8 0-71.6-0.1-107.5 0.1-10.4 0-20.6 1.3-30.5 4.9-17.5 6.2-28.1 18.7-32.4 36.8-1.6 6.7-2.3 13.5-2.3 20.4 0 64.5-0.1 128.8 0.1 193.3 0 13.2 0.9 26.5 5.8 39.1 6.5 16.4 18.6 26.1 35.2 30.4 5.9 1.5 12.1 2.1 18.2 2.1h205.5c7.8 0 15.7-0.7 23.4-2.2 23-4.3 38.1-19.9 42.3-43.2 0.4-2.1-0.4-5 2.7-6V163.6c-0.4-0.4-0.5-0.9-0.5-1.4-1.4-4.6-1.6-9.4-3.1-14.1-6.7-20.2-20.5-32-40.3-37.2-6-1.5-12.1-2.3-18.4-2-1.2 0.1-2.8 1-3.7-0.9h-83.9c-0.4 2.5-2.5 2-4 2.2z m93 39c3.8 0 7.6 0.9 11.2 2 6.5 2.1 10.1 7.3 10.1 14.5 0 71.8 0.1 143.5-0.1 215.3 0 10.7-8.1 17.3-19.9 17.4-36 0.3-71.9 0.1-107.9 0.1H547.8c-4.2 0-8.1-1.2-12-2.6-8-3-9-10.1-9.1-17.2-0.2-36-0.1-71.9-0.1-107.9V169.6c0-6.2 1.4-12 6.5-16.3 4.3-3.6 9.7-4.1 14.7-4.1 71.1-0.2 142.1-0.1 213.1 0z m-93.8-40.5c-37.2 0.1-74.5 0.1-111.6 0.1-8.9 0-17.5 1-26.1 3-10.9 2.6-20.8 7.4-28.3 16-10 11.6-14 25.8-14 40.9-0.2 66.8-0.2 133.6 0 200.4 0 8.7 0.7 17.6 2.6 26.1 2.6 11.2 7.2 21.6 15.7 29.3 11 9.9 24.4 14.4 39.1 14.4 69.8 0.1 139.8 0.1 209.6 0 8.8 0 17.6-0.5 26.1-2.9 17.9-5.2 31.7-15.2 37.7-34.3 1.6-5.1 1.7-10.5 3.6-15.5-3 1-2.4 3.8-2.7 6-4.2 23.4-19.3 38.9-42.3 43.2-7.7 1.4-15.5 2.2-23.4 2.2H547.8c-6.1 0-12.2-0.6-18.2-2.1-16.5-4.3-28.6-14-35.2-30.4-5-12.6-5.8-25.9-5.8-39.1-0.2-64.5-0.1-128.8-0.1-193.3 0-6.9 0.7-13.7 2.3-20.4 4.3-18.1 14.9-30.6 32.4-36.8 9.9-3.6 20.2-4.8 30.5-4.9 35.8-0.2 71.6-0.1 107.5-0.1 2.2 0 4.4 0.2 6.6-0.1 1.6-0.2 3.7 0.2 4-2.3-1.2 1.8-3.1 0.6-4.7 0.6zM81.4 387.2c1.9 12 5.2 23.4 13.5 32.6 10.8 12.2 25 17.3 40.5 17.4 70.8 0.3 141.6 0.3 212.5 0 8.9 0 17.8-1 26.5-3.7 23.1-7.4 36.9-26.2 36.9-50.9 0-71 0-141.9 0.1-212.9 0-6.1-0.8-12.1-2.3-18-5.5-21.5-23.1-37.5-44.8-40.6-3.9-0.6-7.7-1.1-11.7-1.1-1.9 0-4.2 0.6-4.9-2.3h-83.9c-1.2 2-3.1 0.9-4.6 0.9-38.7 0.1-77.5-0.2-116.2 0.2-13.9 0.1-27.5 2.5-39.8 10.3-11.8 7.5-18.7 18.3-22.3 31.7-0.8 2.6-0.2 5.5-1.8 7.9V382c2.7 0.9 2 3.4 2.3 5.2z m37.3-221.6c0-7.8 5.8-14 13.7-15.6 4.1-0.9 8.3-1 12.4-1h206.4c4 0 7.9 0.8 11.7 1.9 7.1 2.3 10.2 6.6 10.2 14v216.3c0 7.9-3.6 12.8-10.9 15.2-3.8 1.2-7.6 2-11.7 1.9-35.1-0.1-70-0.1-105.1-0.1-35.5 0-71 0.1-106.5-0.1-5.9 0-11.9-0.9-16.3-5.9-2.5-2.9-3.9-6-3.9-9.7-0.1-72-0.1-144.4 0-216.9zM79.9 384.5c0.1 8.5 2.4 16.6 6 24.1 9.8 20.5 27.2 29.7 48.6 29.9 70.2 0.6 140.4 0.2 210.6 0.2 8.8 0 17.5-0.8 26.1-2.9 25.5-6.4 41.1-25.3 41.3-52.2 0.5-70.8 0.2-141.6 0.2-212.4 0-4.7 0-9.4-0.9-14.1-2.8-15.5-10.1-28.2-22.8-37.4-10.4-7.5-22.1-10.6-34.8-10.9-2.2-0.1-4.6 1.2-6.5-0.9 0.7 2.9 3.1 2.3 4.9 2.3 4 0 7.8 0.6 11.7 1.1 21.7 3.1 39.3 19.1 44.8 40.6 1.5 5.9 2.3 11.9 2.3 18-0.1 71 0 141.9-0.1 212.9 0 24.7-13.8 43.5-36.9 50.9-8.7 2.8-17.6 3.7-26.5 3.7-70.8 0.2-141.6 0.3-212.4 0-15.6-0.1-29.6-5.2-40.5-17.4-8.3-9.3-11.6-20.6-13.5-32.6-0.3-1.8 0.4-4.4-2.4-5 1.2 0.2 0.8 1.4 0.8 2.1z m68.6 455.9c2-0.3 4.1-0.1 6.1-0.1h194.2c7.9 0 15.6-1 23.3-3 24-6.3 39-25.8 39.1-51 0.1-24.3 0-48.6 0-72.9v-142c0-31-20.2-53.9-50.5-57.3-10.7-1.2-21.6-1.6-32.4-1.9-32.5-0.7-65 0.5-97.5 1.2-31.1 0.8-62.2 0.2-93.2 0.7-10.8 0.2-21.3 2.6-30.8 7.8-12.8 6.9-20.6 17.8-24.2 32-0.7 2.7-0.1 6.2-3.5 7.7v224.5c1.9 5.3 2.1 10.9 3.7 16.4 5.6 19.9 18.3 32 37.5 37.3 6.1 1.7 12.4 2.2 18.8 2 1.3 0 3.1-1.1 4.1 0.9h1.9c0.1-2.2 1.9-2.1 3.4-2.3z m-10.7-38.9c-11.5 0-19.5-6.3-19.4-19.7 0.4-70.3 0.2-140.6 0.1-211 0-11.3 6.6-17.4 17.2-17.8 70.3-2.3 140.5-0.5 210.9-0.8 6 0 12.6-0.4 18.5 2.9 5.1 2.9 8 6.9 8 13.1-0.1 36 0 72 0 107.9 0 35.7-0.2 71.3 0.1 107 0.1 11.6-7.4 16.9-17.6 18.5-8.1 1.2-16 0-24-0.1-64.7-0.1-129.2 0-193.8 0z m12.3 40.4c63.9-0.1 127.9-0.1 191.8 0 8.9 0 17.6-0.2 26.4-2 11.8-2.4 22.4-7.5 30.6-16.4 9.1-10 13.7-22.5 13.7-36.1 0.2-71.3 0.1-142.6 0.1-213.9 0-6-0.4-11.9-1.9-17.8-5-19.1-16.3-32.3-34.6-39.6-12.5-5-25.7-4.8-38.6-5.1-21.8-0.5-43.5-0.9-65.3 0.5-17.9 1.2-36 0.3-54 1-26 0.9-52.1 0.3-78.2 0.2-6 0-12 0.6-17.9 1.9-17.3 4-30.6 13.2-38.3 30-2.4 5.5-2.6 11.5-4.9 17 3.5-1.4 2.8-5 3.5-7.7 3.6-14.3 11.5-25.1 24.2-32 9.6-5.2 20-7.6 30.8-7.8 31.1-0.5 62.1 0.1 93.2-0.7 32.5-0.8 64.9-1.9 97.5-1.2 10.8 0.2 21.7 0.7 32.4 1.9 30.4 3.4 50.4 26.3 50.5 57.3v142c0 24.3 0.1 48.6 0 72.9-0.2 25.3-15.1 44.7-39.1 51-7.6 2-15.4 3-23.3 3H154.6c-2.1 0-4.1-0.1-6.1 0.1-1.5 0.2-3.3 0-3.5 2.3 1.4-1.9 3.4-0.8 5.1-0.8z m-47-722.7c12.2-7.7 25.8-10.2 39.8-10.3 38.7-0.4 77.5-0.1 116.2-0.2 1.5 0 3.4 1.2 4.6-0.9-1.6 1-3.4 0.5-5.1 0.5-42.2 0.3-84.4-0.8-126.7 0.6-17.8 0.6-32.9 7.8-43.8 22.6-5.9 8.1-8.6 17.3-9.1 27.1 1.7-2.3 1.1-5.2 1.8-7.9 3.7-13.2 10.5-24 22.3-31.5z m656.4-10.5c6.2-0.3 12.3 0.5 18.4 2 19.8 5.2 33.7 17.1 40.3 37.2 1.5 4.6 1.7 9.5 3.1 14.1v-0.4c0.4-27-23-51-49.7-53.1-5.3-0.4-10.6 0.5-15.8-0.9 0.8 2.2 2.5 1.2 3.7 1.1zM138.9 841.9c-6.3 0.2-12.6-0.3-18.8-2-19.2-5.4-32-17.5-37.5-37.3-1.5-5.5-1.7-11.1-3.7-16.4 1 5.1 0.8 10.4 2 15.5 5.2 21.9 24 39 45.8 40.3 5.5 0.4 10.9-0.6 16.3 0.8-1-2-2.8-1-4.1-0.9z m402.3-208.2c-11.6 0.2-19.2 8-19.2 19.2v164.8c0 11.8 8 19.3 19.6 19.1 12.2-0.2 19.8-6.6 19.9-18.9 0.2-55.1 0.1-110.2 0-165.3 0-11.5-8-19.1-20.3-18.9z m238.5 0.2c-9.3-1.7-22 4.7-22 17.5-0.2 28 0 55.9 0 83.9v83.5c0 1.5-0.1 3.3 0.4 4.7 3.1 9 13.6 15.5 22.2 13.4 10.7-2.6 16.9-6.9 17-20.5 0.2-53.2 0.1-106.5 0.1-159.7-0.2-13.9-4.4-20.3-17.7-22.8z m-87.4 57.4c-2.5-9-12.2-16.1-20.8-14.5-11.7 2.3-18.3 6.3-18.4 20-0.3 39.4-0.1 79-0.1 118.4 0 13.2 5.4 19.2 16.5 21.3 10.5 2 23-4.3 23.1-18.3V695.4c0-1.2 0-2.7-0.3-4.1z m-26.1-175c-8.2 1.8-13.2 9.8-13.2 19v84.8c0 12.6 3.8 20.2 17.1 22.7 9.7 1.8 22.6-5 22.5-17.8-0.1-15.2 0-30.3 0-45.6 0-14.7-0.2-29.4 0-44.1 0.2-18.2-13.8-21.8-26.4-19zM554 518.8c-4.6-3.3-9.5-3.2-14.5-3.2-9.9 0-17.4 7.6-17.4 17.6v24.9c0 8.6-0.1 17.3 0 25.9 0.1 4.4 1.2 8.3 4.6 11.8 4.9 5 10.6 6.4 17.2 6.2 9.3-0.3 17.7-8.5 17.7-17.9 0.1-17 0.2-33.9-0.1-50.8 0-5.9-2.3-10.9-7.5-14.5z m241.6 8.1c-2.1-6-9.2-11.3-16.9-11.5-13.5-0.5-22.2 7.6-21.2 21.9 0.5 6.7 0.1 13.4 0.1 20.2v24c0 1.4 0 2.9 0.4 4.2 3 9.9 12.2 14.9 22.5 13.4 10.4-1.5 16.4-8.1 16.6-18.9 0.3-15.2 0.1-30.4 0.1-45.6 0-2.8-0.8-5.3-1.6-7.7z m-496.1-286c-1.8-7-7.5-12.2-14.5-13.1-1.2-0.2-2.5-0.4-3.8-0.4-0.6 0-1.4 0.2-1.6-0.8h-27.1c-0.4 0.7-1 0.3-1.5 0.3-12.5 0-25.1-0.1-37.6 0.1-4.5 0-8.9 0.9-12.9 3.4-3.9 2.4-6 5.9-7.3 10.3-0.2 0.9 0 1.8-0.6 2.5v72.4c0.9 0.2 0.7 1.1 0.8 1.6 0.7 3.9 1.7 7.6 4.3 10.5 3.5 3.9 8.1 5.6 13.1 5.7 22.9 0.1 45.9 0.1 68.8 0 2.9 0 5.8-0.3 8.6-1.2 7.5-2.4 12-8.5 12-16.5v-69c0.1-1.9-0.2-3.8-0.7-5.8z m408.6-7.4c-1.8-7-7.5-12.2-14.5-13.1-1.2-0.2-2.5-0.4-3.8-0.4-0.6 0-1.4 0.2-1.6-0.8H661c-0.4 0.7-1 0.3-1.5 0.3-12.5 0-25.1-0.1-37.6 0.1-4.5 0-9 0.9-12.9 3.4-3.9 2.4-6 5.9-7.3 10.3-0.2 0.9 0 1.8-0.6 2.5v72.4c0.9 0.2 0.7 1.1 0.8 1.6 0.7 3.9 1.7 7.6 4.3 10.5 3.5 3.9 8.1 5.6 13.1 5.7 22.9 0.1 45.9 0.1 68.8 0 2.9 0 5.8-0.3 8.6-1.2 7.5-2.4 12-8.5 12-16.5v-69c0.3-1.9-0.1-3.9-0.6-5.8zM299 642.7c-1.8-7-7.5-12.2-14.5-13.1-1.2-0.2-2.5-0.4-3.8-0.4-0.6 0-1.4 0.2-1.6-0.8H252c-0.4 0.7-1 0.3-1.5 0.3-12.5 0-25.1-0.1-37.6 0.1-4.5 0-8.9 0.9-12.9 3.4-3.9 2.4-6 6-7.3 10.3-0.2 0.9 0 1.8-0.6 2.5v72.4c0.9 0.2 0.7 1.1 0.8 1.6 0.7 3.9 1.7 7.6 4.3 10.5 3.5 3.9 8.1 5.6 13.1 5.7 22.9 0.1 45.9 0.1 68.8 0 2.9 0 5.8-0.3 8.6-1.2 7.5-2.4 12-8.5 12-16.5v-69c0-2-0.3-3.9-0.7-5.8z" fill="#1882FF" p-id="19353"></path></svg>