<?xml version="1.0" standalone="no"?><!DOCTYPE svg PUBLIC "-//W3C//DTD SVG 1.1//EN" "http://www.w3.org/Graphics/SVG/1.1/DTD/svg11.dtd"><svg t="1625820351477" class="icon" viewBox="0 0 1024 1024" version="1.1" xmlns="http://www.w3.org/2000/svg" p-id="12668" xmlns:xlink="http://www.w3.org/1999/xlink" width="200" height="200"><defs><style type="text/css"></style></defs><path d="M548.4032 950.9376h73.0624V1024h-73.0624v-73.0624zM402.176 402.5344V0.512H0.128v402.176h73.0624v73.0624h73.0368v-73.0624h255.9488v-0.128zM73.1904 329.4976V73.5488h255.9232v255.9488H73.216z" fill="#0190FF" p-id="12669"></path><path d="M146.3552 146.6112h109.696v109.696H146.3552V146.6112zM621.5936 0.4864v402.176h402.176V0.512H621.568z m328.96 329.0112h-255.9232V73.5488h255.9488v255.9488z" fill="#0190FF" p-id="12670"></path><path d="M767.8208 146.6112h109.696v109.696h-109.696V146.6112zM146.3552 768.0512h109.696v109.7216H146.3552v-109.7216zM0.128 475.6992h73.0624v73.088H0.128v-73.0624z m146.2272 0h73.1904v73.088H146.3552v-73.0624z" fill="#0190FF" p-id="12671"></path><path d="M219.392 621.824H0.1536V1024h402.176V621.824h-109.7216v-73.0368H219.5456v73.0368H219.392z m109.7216 73.1904v255.9232H73.216V695.04h255.9232z m146.2272-657.9968h73.0624v109.7216h-73.0624V37.0176z m0 182.784h73.0624v73.0368h-73.0624V219.776z m219.2896 255.9232h-146.2272v-109.7216h-73.0624v109.7216H292.608v73.0624h329.0112v73.0368h73.0368v-146.0992z m0 146.0992h73.1904v73.0624h-73.1904V621.824z m-219.2896 0h73.0624v109.7216h-73.0624V621.824z m0 182.8864h73.0624v146.2272h-73.0624v-146.2272z m146.2528-73.1648h73.0368v219.392h-73.0368v-219.392z m219.264-109.7216h182.784v73.0624h-182.784V621.824z m109.7216-146.0992h73.0368v73.0624h-73.0368v-73.0624z m-182.784 0h146.2528v73.0624h-146.2272v-73.0624z m0 255.8208h73.0624v73.0368h-73.0368v-73.0368z m182.784 73.1648h-36.5312v73.0624h73.0624v-73.0624h36.5056V731.648h-73.0368v73.0624z m-182.784 73.0624h73.0624v73.1648h-73.0368v-73.1648z m73.0624 73.1648h182.784V1024h-182.784v-73.0624z" fill="#0190FF" p-id="12672"></path></svg>