<?xml version="1.0" standalone="no"?><!DOCTYPE svg PUBLIC "-//W3C//DTD SVG 1.1//EN" "http://www.w3.org/Graphics/SVG/1.1/DTD/svg11.dtd"><svg t="1625820169380" class="icon" viewBox="0 0 1024 1024" version="1.1" xmlns="http://www.w3.org/2000/svg" p-id="7404" xmlns:xlink="http://www.w3.org/1999/xlink" width="200" height="200"><defs><style type="text/css"></style></defs><path d="M23.210667 240.981333C13.653333 240.981333 6.144 233.472 6.144 223.914667V21.162667C6.144 11.605333 13.653333 4.096 23.210667 4.096h202.752c9.557333 0 17.066667 7.509333 17.066666 17.066667s-7.509333 17.066667-17.066666 17.066666H40.277333v185.685334c0 9.557333-8.192 17.066667-17.066666 17.066666zM225.962667 1020.586667H23.210667C13.653333 1020.586667 6.144 1013.077333 6.144 1003.52v-202.752c0-9.557333 7.509333-17.066667 17.066667-17.066667s17.066667 7.509333 17.066666 17.066667v185.685333h185.685334c9.557333 0 17.066667 7.509333 17.066666 17.066667-0.682667 9.557333-8.192 17.066667-17.066666 17.066667zM1004.885333 240.981333c-9.557333 0-17.066667-7.509333-17.066666-17.066666V38.229333h-185.685334c-9.557333 0-17.066667-7.509333-17.066666-17.066666s7.509333-17.066667 17.066666-17.066667h202.752c9.557333 0 17.066667 7.509333 17.066667 17.066667v202.752c0 9.557333-7.509333 17.066667-17.066667 17.066666zM1004.885333 1020.586667h-202.752c-9.557333 0-17.066667-7.509333-17.066666-17.066667s7.509333-17.066667 17.066666-17.066667h185.685334v-185.685333c0-9.557333 7.509333-17.066667 17.066666-17.066667s17.066667 7.509333 17.066667 17.066667V1003.52c0 9.557333-7.509333 17.066667-17.066667 17.066667z" fill="#6097FD" p-id="7405"></path><path d="M856.064 860.16H666.965333v-51.882667h51.882667c1.365333-18.432-1.365333-35.498667 0-51.882666h49.152v50.517333h33.450667v-99.669333h53.930666c0.682667 51.2 0.682667 102.4 0.682667 152.917333zM856.064 555.008h-53.248V505.173333h53.248v49.834667zM860.16 672.426667h-53.248v-49.834667h53.248v49.834667zM163.157333 858.794667V589.141333h269.653334v269.653334H163.157333zM197.973333 623.274667v201.386666h202.069334V623.274667H197.973333zM436.906667 434.176H167.936V164.522667H436.906667v269.653333z m-33.450667-33.450667V199.338667H201.386667v201.386666h202.069333zM860.842667 434.176H591.872V164.522667h268.970667v269.653333z m-33.450667-33.450667V199.338667H625.322667v201.386666h202.069333zM597.333333 470.357333v118.101334h-48.469333v68.949333h49.152v49.152h-49.152v103.765333c16.384-0.682667 32.768-1.365333 48.469333-2.048h-0.682666v51.882667H496.981333V590.506667h49.834667V471.722667c18.432-1.365333 34.133333-1.365333 50.517333-1.365334zM335.189333 486.741333H166.570667v49.834667h168.618666v-49.834667zM489.472 180.906667H539.306667v100.352h-49.834667V180.906667zM489.472 366.592v-49.152H539.306667v49.152h-49.834667zM539.989333 402.773333v48.469334h-50.517333V402.773333h50.517333z" fill="#4988FD" p-id="7406"></path><path d="M723.626667 756.394667h-51.882667v-48.469334h51.882667c0.682667 16.384-1.365333 32.768 0 48.469334 0 0.682667 0 0 0 0zM387.072 486.741333v49.152h49.152v-49.152h-49.152zM602.112 806.912v-48.469333h51.2v48.469333h-51.2c-0.682667 0 0 0 0 0zM676.522667 249.173333h100.352v101.717334H676.522667V249.173333zM348.842667 673.109333v101.717334H248.490667V673.109333h100.352zM252.586667 249.173333h99.669333v101.717334H252.586667V249.173333zM747.52 507.904v111.274667h-49.834667v-60.757334h-61.44v-49.834666h61.44v-0.682667z" fill="#4988FD" p-id="7407"></path></svg>