<?xml version="1.0" standalone="no"?><!DOCTYPE svg PUBLIC "-//W3C//DTD SVG 1.1//EN" "http://www.w3.org/Graphics/SVG/1.1/DTD/svg11.dtd"><svg t="1625828109194" class="icon" viewBox="0 0 1024 1024" version="1.1" xmlns="http://www.w3.org/2000/svg" p-id="12697" xmlns:xlink="http://www.w3.org/1999/xlink" width="200" height="200"><defs><style type="text/css"></style></defs><path d="M249.93 240.07h274.42V364H249.93zM249.93 660.56h124.6v123.93h-124.6zM474.34 660.56h174.83v123.93H474.34zM698.97 660.56h75.02v123.93h-75.02zM698.97 240.07h75.02V364h-75.02zM574.37 240.07h74.8V364h-74.8z" fill="#B4E7B4" p-id="12698"></path><path d="M854.9 914.53H169.84c-33.08 0-60-26.92-60-60V614.25c0-11.05 8.95-20 20-20s20 8.95 20 20v240.27c0 11.03 8.97 20 20 20H854.9c11.03 0 20-8.97 20-20V614.25c0-11.05 8.95-20 20-20s20 8.95 20 20v240.27c0 33.09-26.92 60.01-60 60.01zM129.84 430.74c-11.05 0-20-8.95-20-20v-103.3c0-11.05 8.95-20 20-20s20 8.95 20 20v103.3c0 11.05-8.95 20-20 20zM129.84 265.68c-11.05 0-20-8.95-20-20v-6.61c0-11.05 8.95-20 20-20s20 8.95 20 20v6.61c0 11.04-8.95 20-20 20zM894.9 430.74c-11.05 0-20-8.95-20-20V169.47c0-11.03-8.97-20-20-20H169.84c-11.03 0-20 8.97-20 20v7.82c0 11.05-8.95 20-20 20s-20-8.95-20-20v-7.82c0-33.08 26.92-60 60-60H854.9c33.08 0 60 26.92 60 60v241.27c0 11.05-8.95 20-20 20zM899.83 530.77H124.71c-11.05 0-20-8.95-20-20s8.95-20 20-20h775.12c11.05 0 20 8.95 20 20s-8.96 20-20 20z" fill="#004039" p-id="12699"></path></svg>