<?xml version="1.0" standalone="no"?><!DOCTYPE svg PUBLIC "-//W3C//DTD SVG 1.1//EN" "http://www.w3.org/Graphics/SVG/1.1/DTD/svg11.dtd"><svg class="icon" width="200px" height="200.00px" viewBox="0 0 1024 1024" version="1.1" xmlns="http://www.w3.org/2000/svg"><path d="M217.544909 526.052635a290.372963 288.277711 0 1 0 580.745926 0 290.372963 288.277711 0 1 0-580.745926 0Z" fill="#E9EAEB" /><path d="M614.12545 754.796303C574.09892 719.104777 505.17237 692.878007 451.779581 693.600508a384.514782 384.514782 0 0 0-58.883793 61.990545c-30.200522-10.331758-63.074296-43.350032-92.191068-78.680307S245.65018 602.782191 241.315177 571.136668a384.442532 384.442532 0 0 0 72.250053-45.806533c10.909758-52.236788-1.445001-124.920341-28.900022-171.304876-31.645523-5.274254-108.375079-3.757003-163.212869 21.675016-22.614267 67.264799-30.200522 219.06216 96.02032 378.662528 132.217597 154.687363 284.520708 154.398363 354.89226 145.222606 35.402526-49.635786 41.03803-112.710083 41.760531-144.789106z" fill="#A3D4FF" /><path d="M522.584633 918.587173c-85.616313 0-208.802653-27.16602-317.322233-154.037113C85.182812 612.680449 76.946306 457.342835 106.279828 370.281521l2.239751-6.647005 6.358005-2.890002c57.077542-25.937769 135.252099-28.900021 172.533127-22.542016l7.225005 1.228251 3.829253 6.502504c29.405772 49.997037 42.338531 126.871093 30.706272 182.792634l-1.083751 5.129754-3.901503 3.540253a396.725041 396.725041 0 0 1-64.085796 42.627531c6.647005 22.397516 24.565018 51.442038 53.392789 86.700063s53.898539 58.233543 74.562054 69.143301a397.375291 397.375291 0 0 1 54.11529-55.271291l4.190503-3.179002h5.274254c57.366542-0.50575 130.050095 26.87702 173.400127 65.386298l5.635504 4.985254v7.225005c-1.228251 43.350032-9.970507 104.618077-44.867283 153.314612l-4.046003 5.707754-7.225005 0.939251a400.915544 400.915544 0 0 1-51.947788 3.612503zM134.818599 387.260284c-10.187257 36.125026-40.098779 185.393636 95.44232 356.770761 119.068087 139.225852 256.993438 148.473859 333.072744 140.020602 24.998518-38.437028 32.801524-85.905313 34.607775-122.030339a256.415438 256.415438 0 0 0-140.526353-52.381288 391.812037 391.812037 0 0 0-51.225287 55.05454l-7.225006 9.970507-11.487758-3.973753c-28.900021-9.826007-61.195795-37.208777-99.416073-83.665561s-58.811543-83.665561-62.929796-113.721583L223.975164 561.310661l10.837508-4.985254a391.306287 391.306287 0 0 0 63.869047-39.665279A256.487688 256.487688 0 0 0 274.550201 368.98102c-30.561772-3.251252-92.480068-0.939251-139.731602 18.279264z" fill="#2A5082" /><path d="M556.325407 560.44366H427.286813v-38.220278l54.62104-53.031538a284.159458 284.159458 0 0 0 28.538771-29.694772A64.519297 64.519297 0 0 0 520.200381 423.02406a34.824526 34.824526 0 0 0 2.528752-14.08876c0-0.65025 0-16.328512-23.047767-22.036267s-44.650533 9.609257-56.355041 27.38277l-26.94927-17.773513c21.675016-32.801524 58.233543-49.274536 91.179567-40.89353 37.425527 9.464757 47.396035 38.003528 47.396034 53.32054a66.542299 66.542299 0 0 1-5.129753 26.804769 96.23707 96.23707 0 0 1-14.811261 24.420518 309.808227 309.808227 0 0 1-31.212023 32.512524L467.457842 528.147887H556.325407zM701.548014 560.44366h-32.295774v-48.407535H572.509419v-44.217032l71.599803-117.117336h57.800042v129.110844h16.111762v32.223524H701.548014zM604.732943 479.812601h64.519297V382.92528h-7.225005l-57.800042 93.925069z" fill="#2A5082" /><path d="M514.059127 1004.275736A498.525365 498.525365 0 0 1 15.895012 505.75037h32.295773a466.374092 466.374092 0 0 0 465.868342 465.868342zM1012.150991 505.75037h-32.223523A465.723841 465.723841 0 0 0 599.675439 47.974035l5.924505-31.717773A498.019615 498.019615 0 0 1 1012.150991 505.75037zM766.789812 944.741692l-16.111762-27.960771a476.850349 476.850349 0 0 0 205.840401-240.303676l30.128272 11.632259a508.857123 508.857123 0 0 1-219.856911 256.632188z" fill="#BCC0C4" /><path d="M642.591971 906.015664l-11.198759-30.272773a379.168278 379.168278 0 1 0-437.11282-580.023424l-26.010019-19.074014a411.391801 411.391801 0 1 1 474.321598 629.370211z" fill="#2A5082" /><path d="M556.325407 608.851196h32.295774v32.223524H556.325407zM620.844705 608.851196h32.295773v32.223524h-32.295773zM685.436252 608.851196h32.295774v32.223524h-32.295774z" fill="#2A5082" /></svg>