<?xml version="1.0" standalone="no"?><!DOCTYPE svg PUBLIC "-//W3C//DTD SVG 1.1//EN" "http://www.w3.org/Graphics/SVG/1.1/DTD/svg11.dtd"><svg class="icon" width="200px" height="200.00px" viewBox="0 0 1024 1024" version="1.1" xmlns="http://www.w3.org/2000/svg"><path d="M489.783109 512.036125m-476.778099 0a476.778099 476.778099 0 1 0 953.556198 0 476.778099 476.778099 0 1 0-953.556198 0Z" fill="#E9EAEB" /><path d="M115.166584 154.398363H1000.663233v664.122487H115.166584z" fill="#FFFFFF" /><path d="M421.723559 801.469837h493.829112v34.029775H421.723559zM1017.714245 835.571862h-68.1318v-34.102025h34.029775v-34.029775h34.102025v68.1318zM983.61222 239.581175h34.029775v493.829112h-34.029775zM1017.714245 205.47915h-34.102025v-34.029774h-34.029775v-34.029775h68.1318v68.059549zM200.349397 137.419601h715.203274v34.029775H200.349397zM132.217597 205.47915h-34.029775v-68.059549h68.05955v34.029775H132.217597v34.029774zM183.298384 835.571862H98.187822V239.581175h34.029775v561.888662h51.080787v34.102025zM717.804276 767.440062c-19.579764 0-35.763776-10.259508-50.069287-19.290764-11.415508-7.225005-22.108516-14.01651-31.862273-14.01651s-20.519015 6.719255-31.934524 13.87201c-14.450011 8.886757-30.417272 19.001764-49.924786 19.001764s-36.125026-10.331758-50.141537-19.507515c-11.343258-7.225005-22.108516-14.450011-31.790023-14.45001h-16.328512v-33.740775h16.473012c19.579764 0 36.125026 10.331758 50.141537 19.507514 11.343258 7.225005 22.108516 14.450011 31.717773 14.450011s20.519015-6.719255 31.934523-13.87201c14.450011-8.886757 30.417272-19.001764 49.924787-19.001764s35.763776 10.259508 49.997036 19.290764c11.415508 7.225005 22.108516 14.01651 31.862274 14.01651s20.446765-6.791505 31.862273-14.01651c14.450011-9.031257 30.489522-19.290764 49.997037-19.290764 14.450011 0 34.318775 7.225005 57.149792 16.039512 16.978762 6.430255 48.046285 18.062513 57.800042 16.328512 0.939251-8.381006-9.970507-32.440274-15.895012-45.734284-9.103507-20.157765-16.906512-37.570028-16.906512-52.020038 0-18.857264 10.548508-34.029775 19.868764-47.468285 7.225005-10.259508 13.79976-19.941015 13.799761-28.10527s-6.574755-16.834262-13.51076-26.29902c-9.392507-12.860509-20.085515-27.38277-20.085515-46.456784s10.693008-33.668525 20.085515-46.456784c7.225005-9.464757 13.51076-18.351513 13.51076-26.299019s-6.719255-17.845763-13.799761-28.10527c-9.320257-13.43851-19.868765-28.900021-19.868764-47.468285 0-14.450011 7.803006-31.573273 16.834262-51.442038 6.141254-13.51076 17.484513-38.292528 15.895012-46.167784-9.609257-1.950751-40.60453 10.548508-57.800043 17.412263-22.903267 9.248007-42.699781 17.195513-57.800042 17.195513-19.868765 0-36.125026-10.982008-50.575037-20.735766-11.271008-7.658506-21.675016-14.883511-31.356523-14.88351s-20.085515 7.225005-31.356523 14.88351c-14.450011 9.681507-30.634022 20.735765-50.575037 20.735766s-36.125026-10.982008-50.575037-20.735766c-11.271008-7.658506-21.675016-14.883511-31.356523-14.88351s-20.085515 7.225005-31.428773 14.88351c-14.450011 9.681507-30.634022 20.735765-50.575037 20.735766s-36.125026-10.982008-50.575037-20.735766c-11.271008-7.658506-21.675016-14.883511-31.356523-14.88351s-20.085515 7.225005-31.428773 14.88351c-14.450011 9.681507-30.634022 20.663515-50.575037 20.663516-15.244761 0-33.668525-8.236506-54.98229-17.701263-14.450011-6.502505-44.795033-20.013265-52.164538-16.617513l-0.578001 0.578001c-2.312002 6.358005 10.476258 33.090524 16.617512 45.951034 9.320257 19.507514 17.412263 36.125026 17.412263 50.575037 0 18.929514-10.837508 34.174275-20.374515 47.612784-7.225005 10.187257-14.450011 19.796514-14.45001 27.888521 0 6.574755 4.768503 12.138009 12.571509 20.735765L187.850138 457.126085c-9.537007-10.476258-21.675016-23.553517-21.675016-43.350032 0-18.929514 10.837508-34.174275 20.374515-47.612785 7.225005-10.187257 14.450011-19.796514 14.45001-27.88852 0-6.647005-7.803006-22.975517-14.01651-36.125027-14.450011-30.850773-31.501023-65.819798-8.525506-86.122063 20.880265-20.085515 55.632541-4.551753 89.228815 10.404008 14.450011 6.574755 33.090524 14.450011 41.11028 14.45001 9.392507 0 20.085515-7.225005 31.428773-14.88351 14.450011-9.681507 30.634022-20.663515 50.575037-20.663516s36.125026 10.982008 50.575037 20.735766c11.271008 7.658506 21.675016 14.883511 31.356523 14.88351s20.085515-7.225005 31.428773-14.88351c14.450011-9.681507 30.634022-20.735765 50.575037-20.735766s36.125026 10.982008 50.575037 20.735766c11.271008 7.658506 21.675016 14.883511 31.356523 14.88351s20.085515-7.225005 31.356523-14.88351c14.450011-9.681507 30.634022-20.735765 50.575037-20.735766s36.125026 10.982008 50.575037 20.735766c11.271008 7.658506 21.675016 14.883511 31.356523 14.88351 8.164256 0 28.466521-8.164256 44.795033-14.45001 38.075778-15.895012 74.851055-30.706272 93.925069-9.753757s4.840754 52.598039-9.537007 84.099061c-6.141254 13.51076-13.79976 30.272772-13.79976 37.281028 0 8.164256 6.719255 17.845763 13.79976 28.10527 9.320257 13.43851 19.868765 28.900021 19.868764 47.468285s-10.693008 33.668525-20.085514 46.456784c-7.225005 9.464757-13.51076 18.351513-13.51076 26.299019s6.574755 16.834262 13.51076 26.29902c9.392507 12.860509 20.085515 27.38277 20.085514 46.456784s-10.331758 34.102025-19.868764 47.685035c-7.225005 10.259508-13.79976 19.941015-13.79976 28.10527s7.730756 24.276018 13.94426 38.003528c14.450011 31.934523 28.900021 65.025048 9.031257 84.171312-18.929514 19.363014-55.488041 5.635504-93.925069-8.959007-17.195513-6.502505-36.703027-13.87201-45.156283-13.87201-9.681507 0-20.446765 6.791505-31.862274 14.01651-14.377761 8.814506-30.634022 19.074014-50.141536 19.074014z" fill="#2A5082" /><path d="M234.379172 665.278487v255.403937l68.1318-51.080787 68.131799 51.080787V665.278487H234.379172z" fill="#FFFFFF" /><path d="M370.642771 937.733437a17.051012 17.051012 0 0 1-10.187257-3.395753l-57.800042-43.350031-57.800043 43.350031a17.051012 17.051012 0 0 1-27.23827-13.65526V665.278487h33.813025v221.374162l40.89353-30.634022a17.051012 17.051012 0 0 1 20.446765 0l40.89353 30.634022V665.278487h34.029775v255.403937a16.978762 16.978762 0 0 1-17.051013 17.051013z" fill="#2A5082" /><path d="M302.510972 563.116912m-119.212588 0a119.212587 119.212587 0 1 0 238.425175 0 119.212587 119.212587 0 1 0-238.425175 0Z" fill="#A3D4FF" /><path d="M302.510972 699.308262a136.19135 136.19135 0 1 1 136.191349-136.19135 136.4081 136.4081 0 0 1-136.191349 136.19135z m0-238.425174A102.161575 102.161575 0 1 0 404.600296 563.116912 102.306075 102.306075 0 0 0 302.510972 460.955338zM489.783109 392.823538h272.454949v34.029775H489.783109zM489.783109 460.955338h272.454949v34.029775H489.783109zM489.783109 529.014887h187.344387v34.029775H489.783109z" fill="#2A5082" /></svg>