<?xml version="1.0" standalone="no"?><!DOCTYPE svg PUBLIC "-//W3C//DTD SVG 1.1//EN" "http://www.w3.org/Graphics/SVG/1.1/DTD/svg11.dtd"><svg class="icon" width="200px" height="200.00px" viewBox="0 0 1024 1024" version="1.1" xmlns="http://www.w3.org/2000/svg"><path d="M418.544557 414.859804m-365.224018 0a365.224017 365.224017 0 1 0 730.448035 0 365.224017 365.224017 0 1 0-730.448035 0Z" fill="#E9EAEB" /><path d="M646.782474 217.039159h30.417272v91.324067h-30.417272z" fill="#BCC0C4" /><path d="M616.365201 247.456431h91.324067v30.417273H616.365201zM859.84788 247.456431h30.417272v91.324067h-30.417272z" fill="#BCC0C4" /><path d="M829.430607 277.945954h91.324067v30.417272H829.430607zM738.106541 80.053059h30.417272v91.324067h-30.417272z" fill="#BCC0C4" /><path d="M707.689268 110.542581h91.324067v30.417272H707.689268z" fill="#BCC0C4" /><path d="M859.84788 947.487194h76.079305v30.417272h-76.079305zM966.344458 947.487194h30.417272v30.417272h-30.417272zM22.831017 947.487194h30.417272v30.417272H22.831017z" fill="#2A5082" /><path d="M555.458407 445.349326h136.9861v456.548085H555.458407z" fill="#A3D4FF" /><path d="M707.689268 917.069922H540.285896v-486.965357h167.403372z m-137.2751-30.417273h106.785578v-426.275312H570.775418z" fill="#2A5082" /><path d="M159.817117 232.28392h136.9861v669.613491H159.817117z" fill="#A3D4FF" /><path d="M311.975728 917.069922H144.500106V216.750159h167.475622z m-137.2751-30.417273H281.775206V247.456431H175.061878z" fill="#2A5082" /><path d="M357.637762 582.263176h136.9861v319.561985H357.637762z" fill="#E9EAEB" /><path d="M509.796373 917.069922H342.393001V567.090665h167.403372z m-137.2751-30.417273h106.857828v-289.000211H372.882523z" fill="#2A5082" /><path d="M753.279052 643.169971h136.9861v258.72744h-136.9861z" fill="#E9EAEB" /><path d="M905.509913 917.069922h-167.403372v-289.000212h167.403372z m-137.2751-30.417273h106.496578v-228.310167h-106.207578zM83.737811 947.487194H829.430607v30.417272H83.737811z" fill="#2A5082" /></svg>