<?xml version="1.0" standalone="no"?><!DOCTYPE svg PUBLIC "-//W3C//DTD SVG 1.1//EN" "http://www.w3.org/Graphics/SVG/1.1/DTD/svg11.dtd"><svg class="icon" width="200px" height="200.00px" viewBox="0 0 1024 1024" version="1.1" xmlns="http://www.w3.org/2000/svg"><path d="M525.908135 504.377619m-452.646581 0a452.646582 452.646582 0 1 0 905.293163 0 452.646582 452.646582 0 1 0-905.293163 0Z" fill="#E9EAEB" /><path d="M945.608693 380.974529h-181.058633v213.932407A49.346786 49.346786 0 0 1 715.275524 644.325972H435.378819v98.765822a49.346786 49.346786 0 0 0 49.346786 49.346786h297.308968L866.133634 917.575672a16.473012 16.473012 0 0 0 30.128272-9.175757v-115.961335h49.346787a49.346786 49.346786 0 0 0 49.346786-49.346786V430.321315a49.346786 49.346786 0 0 0-49.346786-49.346786z" fill="#A3D4FF" /><path d="M879.716644 941.49044a32.729274 32.729274 0 0 1-27.23827-14.450011L773.075566 809.200593H484.725605a65.892048 65.892048 0 0 1-65.675298-66.108799V644.325972h32.946024v98.765822a32.946024 32.946024 0 0 0 32.946024 32.946024h306.051224l88.939815 132.506597v-132.506597h65.819799a32.946024 32.946024 0 0 0 32.946024-32.946024V430.321315a32.946024 32.946024 0 0 0-33.090524-32.946024H781.023072v-32.873774h164.585621a65.892048 65.892048 0 0 1 65.892048 65.819798v312.770479a65.892048 65.892048 0 0 1-65.819798 65.819798h-32.946024v99.632823a32.729274 32.729274 0 0 1-23.336768 31.501024 33.235024 33.235024 0 0 1-9.681507 1.445001z" fill="#2A5082" /><path d="M23.842517 216.316658v378.590278a49.346786 49.346786 0 0 0 49.346787 49.346786h65.819798v178.02413a16.473012 16.473012 0 0 0 28.900021 10.476258l156.060114-188.428138H715.275524a49.346786 49.346786 0 0 0 49.346786-49.346786V216.316658A49.346786 49.346786 0 0 0 715.275524 166.969872H73.261554a49.346786 49.346786 0 0 0-49.419037 49.346786z" fill="#FFFFFF" /><path d="M155.698864 855.296126a33.379524 33.379524 0 0 1-11.343258-2.023001 32.584774 32.584774 0 0 1-21.675016-30.995273V660.798984h-49.419036A65.892048 65.892048 0 0 1 7.225005 594.906936v-378.590278a65.892048 65.892048 0 0 1 65.819798-65.819798H715.275524a65.892048 65.892048 0 0 1 65.819798 65.819798v378.590278A65.892048 65.892048 0 0 1 715.275524 660.798984H331.699993L180.625132 843.302618a32.584774 32.584774 0 0 1-24.926268 11.993508z m-82.50956-671.925492a32.946024 32.946024 0 0 0-32.946025 32.946024v378.590278a32.946024 32.946024 0 0 0 32.946025 32.946024h82.36506v194.497142L316.238482 627.85296H715.275524a32.946024 32.946024 0 0 0 32.946024-32.946024v-378.590278A32.946024 32.946024 0 0 0 715.275524 183.442884z" fill="#2A5082" /><path d="M451.851831 594.906936H419.050307V430.321315a65.892048 65.892048 0 0 1 65.819798-65.819798H715.275524V397.375291H484.725605a32.946024 32.946024 0 0 0-32.946024 32.946024z" fill="#2A5082" /></svg>