<?xml version="1.0" standalone="no"?><!DOCTYPE svg PUBLIC "-//W3C//DTD SVG 1.1//EN" "http://www.w3.org/Graphics/SVG/1.1/DTD/svg11.dtd"><svg class="icon" width="200px" height="200.00px" viewBox="0 0 1024 1024" version="1.1" xmlns="http://www.w3.org/2000/svg"><path d="M372.304523 347.017004m-340.73125 0a340.73125 340.73125 0 1 0 681.462499 0 340.73125 340.73125 0 1 0-681.462499 0Z" fill="#E9EAEB" /><path d="M745.548296 71.166302H372.304523l-130.050096 130.050095V687.820504a32.440274 32.440274 0 0 0 32.440274 32.440274h470.564595a32.440274 32.440274 0 0 0 32.440274-32.440274V103.606576a32.440274 32.440274 0 0 0-32.151274-32.440274z" fill="#FFFFFF" /><path d="M242.471178 217.255909h146.089607V71.166302L242.471178 217.255909z" fill="#A3D4FF" /><path d="M404.744796 233.439921H291.167713v-32.440274h81.13681V119.862838h32.440273v113.577083z" fill="#2A5082" /><path d="M745.548296 736.517039H631.971213v-32.512523h113.577083a16.256262 16.256262 0 0 0 16.256262-16.256262V103.606576a16.256262 16.256262 0 0 0-16.256262-16.256262H379.023778L258.727439 207.718902V687.820504a16.256262 16.256262 0 0 0 16.256262 16.256262H404.600296v32.440273H274.550201a48.768786 48.768786 0 0 1-48.696536-48.696535V194.280392L365.585268 54.98229h379.963028a48.768786 48.768786 0 0 1 48.696536 48.696536V687.820504a48.768786 48.768786 0 0 1-48.696536 48.696535z" fill="#2A5082" /><path d="M583.274677 817.653849V622.867706H453.441332v194.786143H375.194525l146.017357 177.87963 146.017357-177.87963H583.274677z" fill="#A3D4FF" /><path d="M521.211882 1021.109998l-180.625133-219.712411h96.598321V606.900445H599.675439v195.075142h101.872575z m-111.698582-187.272137l111.698582 136.119099 111.698582-136.119099h-65.892049v-195.075143H469.625344v195.075143z" fill="#2A5082" /><path d="M453.441332 509.290623h129.833345v64.880548H453.441332z" fill="#A3D4FF" /><path d="M599.458689 574.243421h-32.440274v-48.696536H469.697594v48.696536h-32.512524V493.106611h162.273619v81.13681z" fill="#2A5082" /><path d="M453.441332 411.969802h129.833345v48.696535H453.441332z" fill="#A3D4FF" /><path d="M599.458689 460.666337h-32.440274v-32.512523H469.697594v32.512523h-32.512524v-64.952797h162.273619v64.952797z" fill="#2A5082" /><path d="M940.262189 87.422564h32.440273v340.73125h-32.440273zM859.125379 590.427432h32.440274v292.106964h-32.440274zM859.125379 509.290623h32.440274v32.440274h-32.440274zM859.125379 428.153814h32.440274v32.440273h-32.440274zM859.125379 347.017004h32.440274v32.440274h-32.440274zM128.894094 476.850349h32.440274v292.106964h-32.440274z" fill="#BCC0C4" /></svg>