<?xml version="1.0" standalone="no"?><!DOCTYPE svg PUBLIC "-//W3C//DTD SVG 1.1//EN" "http://www.w3.org/Graphics/SVG/1.1/DTD/svg11.dtd"><svg class="icon" width="200px" height="200.00px" viewBox="0 0 1024 1024" version="1.1" xmlns="http://www.w3.org/2000/svg"><path d="M461.461088 619.688704m-369.342271 0a369.342271 369.342271 0 1 0 738.684541 0 369.342271 369.342271 0 1 0-738.684541 0Z" fill="#E9EAEB" /><path d="M626.407959 533.277641h-31.428773v-165.452622a118.345587 118.345587 0 0 0-18.207014-61.990545L603.576942 289.000212a149.70211 149.70211 0 0 1 22.831017 78.824807z" fill="#2A5082" /><path d="M532.12164 171.810626m-141.465604 0a141.465604 141.465604 0 1 0 282.931207 0 141.465604 141.465604 0 1 0-282.931207 0Z" fill="#A3D4FF" /><path d="M532.12164 328.954491A157.143865 157.143865 0 1 1 689.265505 171.810626a157.288365 157.288365 0 0 1-157.143865 157.143865z m0-282.858957a125.715092 125.715092 0 1 0 125.715092 125.715092 125.859592 125.859592 0 0 0-125.715092-125.715092z" fill="#2A5082" /><path d="M783.624074 627.56396l-78.608058-62.857546h-47.107034l-47.179285-31.428773h-31.428773l-31.428773-15.678262-47.179284 31.428773h-31.428773l-47.107035 15.678262-15.750511 62.857546v78.608057h377.217526V627.56396z" fill="#E9EAEB" /><path d="M799.302335 721.850279H390.728286V625.613208l18.279264-73.117053 57.800042-19.218514h28.900021l50.575037-33.885275 36.125027 18.134763h32.512523l47.685035 31.573273h47.901785l88.795315 71.021802z m-377.145276-31.428773h345.716503v-55.271291l-68.34855-54.69329H653.140478L605.961194 549.100402h-30.345022L549.100402 535.661892l-43.350032 28.900021h-33.885274l-36.558527 12.210259-13.14951 52.598039z" fill="#2A5082" /><path d="M799.302335 611.885698l-97.320821 62.279546A47.034784 47.034784 0 0 0 657.836732 643.025471H563.550413c-21.675016 0-54.47654-31.428773-80.486559-31.428773H390.728286c-38.003528 0-75.140055 29.333521-94.286319 47.179285-29.550272 29.767022-85.905313 87.639314-94.141819 94.503069 46.962534 40.67678 135.541099 128.605094 157.143865 147.606858 28.900021-28.900021 40.67678-53.320539 65.025048-53.320539h233.367671c21.675016-12.210259 157.143865-125.715092 157.143865-125.715092s91.829817-98.838072 109.82008-141.393354c-11.198758-15.389261-82.29281-38.581528-125.498342 31.428773z" fill="#FFFFFF" /><path d="M359.949764 922.488676l-11.054258-9.753757c-8.453256-7.225005-26.010019-24.348268-48.190786-45.662034-35.619276-34.246525-80.053059-76.946306-108.808579-101.872575l-14.450011-12.282509 14.450011-11.849008c5.057504-4.046003 34.535525-34.029775 58.305792-57.800043 12.716009-12.932759 25.215268-25.504269 34.824526-35.185775 25.576519-23.842517 64.230297-51.731038 105.412827-51.731038h92.624568c17.701263 0 34.896776 9.537007 51.514288 18.785014 10.693008 5.924504 22.758767 12.643759 28.900021 12.643759h94.430819a62.785296 62.785296 0 0 1 49.708036 24.420518l80.342059-51.442038c21.024765-32.151274 51.297538-50.575037 85.616313-51.947788 26.154519-0.939251 53.754039 8.597756 64.085797 22.542016l5.346504 7.225006-3.757003 8.019756c-19.074014 44.578283-109.09758 141.826854-112.926833 145.945107l-1.445001 1.372751c-13.94426 11.704509-137.275101 114.805334-159.600367 127.376843l-3.540252 2.023001h-237.702674c-9.681507 0-17.123263 8.019756-31.645524 24.709518-6.285755 7.225005-13.36626 15.317011-21.675015 23.987018zM225.420165 752.917801c28.900021 25.648769 66.108798 61.701545 97.031821 91.468567 14.01651 13.51076 26.80477 25.721019 36.125027 34.535526 3.612503-4.046003 7.225005-7.875256 10.187257-11.487759 16.617512-19.074014 30.923023-35.547026 55.343541-35.547026h229.321668c21.675016-14.450011 99.849573-78.680308 150.78586-121.380089 22.975517-24.781768 79.475058-88.939815 100.716574-125.209341a70.299301 70.299301 0 0 0-32.512524-5.129754c-16.689762 1.300501-40.60453 9.320257-59.750794 40.098779l-1.878501 3.034503-90.746067 57.800042a62.929796 62.929796 0 0 1-62.207295 72.250053H500.692867v-31.501023h157.216115a31.428773 31.428773 0 1 0 0-62.857546H563.550413c-14.450011 0-28.900021-8.092006-44.217033-16.617513-12.499259-7.225005-26.73252-14.811261-36.125026-14.81126h-92.480068c-32.584774 0-66.325549 26.87702-83.593311 42.916531-9.175757 9.175757-21.675016 21.675016-34.246525 34.607775-20.880265 21.169266-36.919777 37.353277-47.468285 47.829535z" fill="#2A5082" /><path d="M107.883779 769.044013L202.198998 674.743244l220.037536 220.037536-94.315219 94.307994z" fill="#E9EAEB" /><path d="M327.87074 1011.500741l-242.254427-242.471178L202.300148 652.490228l242.037677 242.254427zM130.050095 769.029563l197.820645 197.820645 72.250053-72.250053L202.300148 696.92401z" fill="#2A5082" /><path d="M175.278628 764.427235l22.224117-22.224116 31.421548 31.421548-22.224117 22.224116z" fill="#2A5082" /><path d="M752.195301 438.991322H673.587243a110.036831 110.036831 0 0 1 110.036831-110.036831h78.608058a110.036831 110.036831 0 0 1-110.036831 110.036831z" fill="#A3D4FF" /><path d="M752.195301 454.741833H657.908982v-15.750511a125.859592 125.859592 0 0 1 125.715092-125.715093h94.286319v15.678262a125.859592 125.859592 0 0 1-125.715092 125.787342z m-61.557045-31.428773h61.557045A94.430819 94.430819 0 0 0 845.325619 344.705002h-61.557045a94.430819 94.430819 0 0 0-93.130318 78.608058z" fill="#2A5082" /><path d="M516.443378 454.741833H563.550413a78.608058 78.608058 0 0 0-78.535808-78.608058H437.835321a78.608058 78.608058 0 0 0 78.608057 78.608058z" fill="#FFFFFF" /><path d="M579.300924 470.420095h-62.857546a94.358569 94.358569 0 0 1-94.286319-93.925069v-16.039512h62.857546a94.358569 94.358569 0 0 1 94.286319 93.925069zM455.536584 391.812037a63.002046 63.002046 0 0 0 60.906794 47.179285h29.478022a63.002046 63.002046 0 0 0-60.906795-47.179285zM547.872151 234.668172h-62.857546v-31.428773h62.857546V187.850138h-31.428773a31.428773 31.428773 0 0 1-31.428773-31.428773v-16.039512a31.428773 31.428773 0 0 1 31.428773-31.428773h62.857546v31.428773h-62.857546v15.750511h31.428773A31.428773 31.428773 0 0 1 579.300924 187.850138v15.678261a31.428773 31.428773 0 0 1-31.428773 31.139773z" fill="#2A5082" /><path d="M516.443378 77.524307h31.428773v47.179284h-31.428773zM516.443378 218.98991h31.428773v47.179285h-31.428773z" fill="#2A5082" /></svg>