<?xml version="1.0" standalone="no"?><!DOCTYPE svg PUBLIC "-//W3C//DTD SVG 1.1//EN" "http://www.w3.org/Graphics/SVG/1.1/DTD/svg11.dtd"><svg class="icon" width="200px" height="200.00px" viewBox="0 0 1024 1024" version="1.1" xmlns="http://www.w3.org/2000/svg"><path d="M987.369223 687.748254l-30.345022-9.392507c3.179002-10.259508 5.563254-18.785014 7.225005-26.80477A389.716785 389.716785 0 0 0 915.04692 354.025259a403.083045 403.083045 0 0 0-254.970437-180.625132l7.225006-30.995273a434.584068 434.584068 0 0 1 274.550201 194.208143 421.217809 421.217809 0 0 1 53.465039 321.873985c-1.950751 9.031257-4.479503 18.279263-7.947506 29.261272zM567.885416 992.065477a441.809074 441.809074 0 0 1-319.561984-136.62485l23.047767-21.675016A406.045297 406.045297 0 0 0 476.850349 950.160446a412.836802 412.836802 0 0 0 388.705285-116.611585l22.975517 21.675015a444.048825 444.048825 0 0 1-320.645735 136.841601z" fill="#BCC0C4" /><path d="M19.435264 394.413039a336.540746 330.254992 0 1 0 673.081493 0 336.540746 330.254992 0 1 0-673.081493 0Z" fill="#E9EAEB" /><path d="M245.21668 567.451916a327.79849 314.57673 0 1 0 655.59698 0 327.79849 314.57673 0 1 0-655.59698 0Z" fill="#FFFFFF" /><path d="M408.790799 212.776406c-63.074296 69.576801-201.288647 82.00381-234.740422 152.881112s6.069004 129.399845 63.218797 166.175122l50.575037-0.794751c32.657024 0 95.51457-7.225005 130.050095-63.869047C469.119594 382.92528 466.012841 276.789953 408.790799 212.776406z" fill="#A3D4FF" /><path d="M289.000212 546.4994h-0.794751v-31.717773H289.000212c30.706272 0 85.905313-7.225005 115.600084-56.210541 44.289282-72.250053 44.722783-162.996119 2.962253-222.096663-30.561772 27.09377-71.021802 44.939533-110.253581 62.207296-47.974035 21.097015-93.274818 41.03803-108.37508 73.767304C154.037113 445.349326 209.525153 494.985113 245.65018 518.105129l-17.051013 26.80477c-75.429055-48.118535-101.150074-117.623086-69.07105-185.971636 20.446765-43.350032 71.021802-65.747548 124.631341-89.301066C326.497989 250.996684 370.137021 231.77817 397.375291 202.300148l11.849009-13.077259L420.639808 202.300148c61.123545 68.34855 65.675298 183.153884 10.909758 272.88845-37.859028 61.918295-105.340577 71.310802-142.549354 71.310802z" fill="#2A5082" /><path d="M569.691667 903.125661c-187.850138 0-340.659-150.13561-340.658999-334.662245a331.483243 331.483243 0 0 1 124.125591-258.221689l20.013264 24.709518A299.83772 299.83772 0 0 0 260.822691 568.535666c0 167.042122 138.575601 302.872222 308.941226 302.872222s308.941226-135.90235 308.941227-302.872222-138.647852-302.872222-309.013477-302.872221a315.877231 315.877231 0 0 0-77.668807 9.681507L484.075355 244.566429a347.884005 347.884005 0 0 1 85.471812-10.620758c187.850138 0 340.659 150.13561 340.659 334.662245S757.541805 903.125661 569.691667 903.125661z" fill="#2A5082" /><path d="M756.602554 573.95442l-38.581528-37.859027h-64.085797l-32.006773-31.428773h-32.079024l-16.039512-15.750512H484.292105V426.275312l69.938051-32.006773h26.226769V370.642771l74.778805-54.98229h69.287801v31.717773h-58.883793l-53.46504 39.304029v39.376279h-51.008537l-45.084033 20.663515v10.476258h70.732802l16.039512 15.678261h32.006773l32.079023 31.501023h64.085797l25.576519 25.070769 25.504269-25.070769h70.588302v31.717774h-57.583293l-38.509278 37.859027zM634.861215 803.492838h-61.051295l-25.432018-24.926268V699.886263l-22.614267-22.180767h-32.079023L413.414803 598.880689 493.684612 520.200381H570.775418l48.046285 47.179285h32.079024l80.269809 78.752557-54.837791 53.82629v62.929796z m-48.046285-31.717773h35.113526l22.686516-22.253016V686.375503l41.25478-40.53228-47.901785-47.034784h-32.079023l-48.118535-46.962535h-51.080788l-47.901785 47.034785 47.901785 47.034784h32.079024L580.167925 686.375503v78.608057z" fill="#2A5082" /><path d="M200.638397 281.052706a59.100543 59.100543 0 0 1-4.190503-45.734284 60.112044 60.112044 0 0 1 30.200522-35.619276 61.412545 61.412545 0 0 1 82.07606 25.504269l-28.03302 14.811261a29.550272 29.550272 0 0 0-39.520779-12.065759 28.900021 28.900021 0 0 0-14.450011 16.906512 27.52727 27.52727 0 0 0 1.950751 21.313766z" fill="#BCC0C4" /><path d="M165.380371 108.230579a47.323785 46.456784 0 1 0 94.647569 0 47.323785 46.456784 0 1 0-94.647569 0Z" fill="#FFFFFF" /><path d="M212.704156 170.510125a62.351796 62.351796 0 1 1 63.218796-62.135046 62.857546 62.857546 0 0 1-63.218796 62.135046z m0-92.841318A30.561772 30.561772 0 1 0 244.132929 108.375079a31.067523 31.067523 0 0 0-31.428773-30.706272z" fill="#BCC0C4" /><path d="M23.553517 201.288647a52.381288 51.369788 0 1 0 104.762577 0 52.381288 51.369788 0 1 0-104.762577 0Z" fill="#FFFFFF" /><path d="M75.934806 268.553447a67.264799 67.264799 0 1 1 0-134.529599 68.2763 68.2763 0 0 1 48.118535 19.579765 66.325549 66.325549 0 0 1 20.446765 47.685034 67.8428 67.8428 0 0 1-68.5653 67.2648z m0-102.739576a35.547026 35.547026 0 1 0 0 71.021802 36.125026 36.125026 0 0 0 36.125026-35.547026 34.824526 34.824526 0 0 0-10.548508-24.998518 36.703027 36.703027 0 0 0-25.576518-10.476258z" fill="#BCC0C4" /></svg>