<?xml version="1.0" standalone="no"?><!DOCTYPE svg PUBLIC "-//W3C//DTD SVG 1.1//EN" "http://www.w3.org/Graphics/SVG/1.1/DTD/svg11.dtd"><svg class="icon" width="200px" height="200.00px" viewBox="0 0 1024 1024" version="1.1" xmlns="http://www.w3.org/2000/svg"><path d="M449.756579 481.185352m-392.028787 0a392.028787 392.028787 0 1 0 784.057575 0 392.028787 392.028787 0 1 0-784.057575 0Z" fill="#E9EAEB" /><path d="M172.099626 285.170959h32.657024v98.043322h-32.657024z" fill="#BCC0C4" /><path d="M139.442602 317.827983h98.043322v32.657024H139.442602zM221.085162 7.441755h32.657024V105.485077H221.085162z" fill="#BCC0C4" /><path d="M188.428138 40.098779h98.043322v32.657024H188.428138zM74.056304 121.813589h32.657024v98.043322h-32.657024z" fill="#BCC0C4" /><path d="M41.39928 154.470613H139.442602v32.657024H41.39928z" fill="#BCC0C4" /><path d="M956.1572 840.557116V534.650392a64.374797 64.374797 0 0 0-23.770267-48.696536L812.668595 382.92528h-497.080364L195.797643 486.026106A64.374797 64.374797 0 0 0 172.099626 534.650392v305.834474z" fill="#E9EAEB" /><path d="M972.485712 856.885628h-816.425598V534.650392a80.269809 80.269809 0 0 1 29.622522-61.412545l123.836591-106.424328h509.218373l124.342341 106.857828A79.980809 79.980809 0 0 1 972.485712 534.650392z m-784.057574-32.657024h751.40055V534.650392a48.263035 48.263035 0 0 0-17.556763-36.125027l-115.600084-99.343823H321.657236L206.490651 498.525365a48.624286 48.624286 0 0 0-18.062513 36.125027z" fill="#2A5082" /><path d="M809.200593 954.928949V154.470613H400.771044a81.64256 81.64256 0 0 0-81.64256 81.64256v718.743526z" fill="#FFFFFF" /><path d="M825.529105 971.257461H302.799972V236.185423a98.115572 98.115572 0 0 1 97.971072-98.043322h424.685811z m-490.072109-32.657024h457.415085V170.799125H400.771044a65.386298 65.386298 0 0 0-65.025048 65.025048z" fill="#2A5082" /><path d="M939.828688 562.827912c-35.547026 28.900021-231.200169 190.52339-252.008184 202.300148-22.614267 13.07726-69.793551 26.226769-123.692091 26.22677s-101.150074-13.14951-123.69209-26.22677c-20.663515-11.921259-216.750159-173.833627-252.008185-202.300148h-16.328512v392.028787a48.985536 48.985536 0 0 0 48.985536 48.985536h686.375503a48.985536 48.985536 0 0 0 48.985536-48.985536V562.827912z" fill="#A3D4FF" /><path d="M907.171664 1020.242997h-686.375502a65.386298 65.386298 0 0 1-65.025048-65.025047V546.4994h38.437028l4.479504 3.612503c8.381006 6.719255 25.648769 20.880265 47.396034 38.653778 60.979045 49.924787 187.850138 153.892613 202.300148 162.345869 20.013265 11.560008 65.025048 24.059268 115.600085 24.059268s95.51457-12.427009 115.600085-24.059268c14.450011-8.453256 141.465604-112.348832 202.300148-162.273619 21.675016-17.845763 39.159529-32.079023 47.540535-38.798278l4.479503-3.612503h38.437028v408.357299a65.386298 65.386298 0 0 1-65.169548 65.458548zM188.428138 583.924928v371.004021a32.729274 32.729274 0 0 0 32.657024 32.657024h686.375503a32.729274 32.729274 0 0 0 32.657024-32.657024V583.924928L903.125661 614.12545c-99.994073 81.93156-191.10139 156.204614-206.779651 165.235871-24.492768 14.450011-74.706555 28.394271-131.856347 28.394271s-107.435829-14.450011-131.856346-28.394271C416.593805 770.402314 325.125238 696.05701 225.347915 614.12545z" fill="#2A5082" /><path d="M707.747068 757.585155l23.553518-22.628717 191.33259 199.106696-23.553517 22.628717zM211.94553 934.048684l191.30369-199.135596 23.553518 22.621492-191.310916 199.142821zM417.099555 383.142031h294.057716v32.657024h-294.057716zM417.099555 448.528329h294.057716v32.657023h-294.057716zM417.099555 513.842376H596.785437v32.657024H417.099555z" fill="#2A5082" /><path d="M923.500176 236.185423a79.475058 79.475058 0 0 0-81.642559-81.64256h-440.725323a79.475058 79.475058 0 0 1 81.64256 81.64256z" fill="#A3D4FF" /><path d="M939.828688 252.513935H466.157341v-16.328512a63.218796 63.218796 0 0 0-65.025047-65.025048v-33.018274h440.725323a95.87582 95.87582 0 0 1 98.043321 98.043322z m-442.242574-32.729274h407.779299a62.785296 62.785296 0 0 0-63.507796-48.985536H475.044098a96.453821 96.453821 0 0 1 22.542016 48.985536z" fill="#2A5082" /></svg>