<?xml version="1.0" standalone="no"?><!DOCTYPE svg PUBLIC "-//W3C//DTD SVG 1.1//EN" "http://www.w3.org/Graphics/SVG/1.1/DTD/svg11.dtd"><svg class="icon" width="200px" height="200.00px" viewBox="0 0 1024 1024" version="1.1" xmlns="http://www.w3.org/2000/svg"><path d="M517.527129 524.679884m-462.906089 0a462.906089 462.906089 0 1 0 925.812178 0 462.906089 462.906089 0 1 0-925.812178 0Z" fill="#E9EAEB" /><path d="M517.527129 381.046779c57.294292 0 95.80357-9.248007 159.600367-31.934523v-47.901785c0-25.937769-87.783814-63.869047-159.600367-63.869047s-159.600367 37.931278-159.600367 63.869047v47.901785c63.869047 22.686517 102.378325 31.934523 159.600367 31.934523z" fill="#A3D4FF" /><path d="M517.527129 397.014041c-61.701545 0-102.378325-10.620758-164.946871-32.801524l-10.620758-3.757003v-59.245043c0-43.350032 107.869329-79.475058 175.567629-79.475059s175.567629 36.486277 175.567629 79.475059v59.172793l-10.620758 3.757003c-62.568546 22.253016-103.173076 32.873774-164.946871 32.873774z m-143.633105-59.245044c53.176039 18.423763 90.095816 27.23827 143.633105 27.23827s90.457066-8.814506 143.633105-27.23827v-36.125026c-5.129754-13.51076-74.200804-48.479786-143.633105-48.479786s-138.575601 34.896776-143.633105 48.479786z m287.41071-35.763776z m-287.48296 0z" fill="#2A5082" /><path d="M517.527129 45.806534c-41.25478 0-79.475058 33.451775-79.475058 74.706554v57.800043c0 41.25478 38.509278 74.706555 79.475058 74.706554s79.475058-33.451775 79.475058-74.706554v-57.800043c0.36125-41.03803-38.220278-74.706555-79.475058-74.706554z" fill="#FFFFFF" /><path d="M517.527129 269.275947c-51.947788 0-95.80357-41.54378-95.80357-90.673816v-57.800043c0-49.130036 43.855782-90.673816 95.80357-90.673816s95.80357 41.25478 95.80357 90.384816v57.800043c0 49.491286-43.855782 90.962817-95.80357 90.962816z m0-207.502152c-34.029775 0-63.869047 27.45502-63.869047 58.739293v57.800043c0 31.284273 29.839272 58.739293 63.869047 58.739293s63.869047-27.45502 63.869047-58.739293v-57.800043c0-31.284273-29.839272-58.739293-63.869047-58.739293z" fill="#2A5082" /><path d="M517.527129 955.65145c57.294292 0 95.80357-9.248007 159.600367-31.934523v-47.901786c0-25.937769-87.783814-63.869047-159.600367-63.869046s-159.600367 37.931278-159.600367 63.869046v47.901786c63.869047 22.758767 102.378325 31.934523 159.600367 31.934523z" fill="#A3D4FF" /><path d="M517.527129 971.618712c-61.701545 0-102.378325-10.620758-164.946871-32.873774l-10.620758-3.757003v-59.172794c0-43.350032 107.869329-79.475058 175.567629-79.475058s175.567629 36.486277 175.567629 79.475058v59.172794l-10.620758 3.757003c-62.568546 22.180766-103.245326 32.873774-164.946871 32.873774z m-143.633105-59.172794c53.248289 18.496014 90.095816 27.31052 143.633105 27.31052s90.457066-8.814506 143.633105-27.31052v-36.125026c-5.129754-13.51076-74.200804-48.479786-143.633105-48.479786s-138.575601 34.896776-143.633105 48.479786z m287.41071-35.763776z m-287.48296 0z" fill="#2A5082" /><path d="M517.527129 620.483454c-41.25478 0-79.475058 33.451775-79.475058 74.706555v57.800043c0 41.25478 38.509278 74.706555 79.475058 74.706554s79.475058-33.451775 79.475058-74.706554v-57.800043c0.36125-41.25478-38.220278-74.706555-79.475058-74.706555z" fill="#FFFFFF" /><path d="M517.527129 843.952868c-51.947788 0-95.80357-41.54378-95.80357-90.673816v-57.800043c0-49.130036 43.855782-90.673816 95.80357-90.673816s95.73132 41.54378 95.73132 90.673816v57.800043c0.07225 49.130036-43.783532 90.673816-95.73132 90.673816z m0-207.502152c-34.029775 0-63.869047 27.45502-63.869047 58.739293v57.800043c0 31.284273 29.839272 58.739293 63.869047 58.739293s63.869047-27.45502 63.869047-58.739293v-57.800043c0-31.284273-29.839272-58.739293-63.869047-58.739293z" fill="#2A5082" /><path d="M182.359134 955.65145c57.294292 0 95.80357-9.248007 159.600366-31.934523v-47.901786c0-25.937769-87.783814-63.869047-159.600366-63.869046s-159.600367 37.931278-159.600367 63.869046v47.901786c63.941297 22.758767 102.306075 31.934523 159.600367 31.934523z" fill="#A3D4FF" /><path d="M182.359134 971.618712c-61.701545 0-102.378325-10.620758-164.946871-32.873774l-10.620758-3.757003v-59.172794c0-43.350032 107.869329-79.475058 175.567629-79.475058s175.567629 36.486277 175.567628 79.475058v59.172794l-10.620758 3.757003c-62.568546 22.180766-103.245326 32.873774-164.94687 32.873774z m-143.633106-59.172794c53.248289 18.496014 90.095816 27.31052 143.633106 27.31052s90.457066-8.814506 143.633105-27.31052v-36.125026c-5.129754-13.51076-74.200804-48.479786-143.633105-48.479786s-138.575601 35.041276-143.633106 48.552036z m287.410711-35.763776z m-287.482961 0z" fill="#2A5082" /><path d="M182.359134 620.483454c-41.25478 0-79.475058 33.451775-79.475059 74.706555v57.800043c0 41.25478 38.509278 74.706555 79.475059 74.706554s79.475058-33.451775 79.475058-74.706554v-57.800043c0.36125-41.25478-37.859028-74.706555-79.475058-74.706555z" fill="#FFFFFF" /><path d="M182.359134 843.952868c-51.875538 0-95.73132-41.54378-95.731321-90.673816v-57.800043c0-49.130036 43.855782-90.673816 95.731321-90.673816s95.73132 41.54378 95.73132 90.673816v57.800043c0 49.130036-43.855782 90.673816-95.73132 90.673816z m0-207.502152c-34.029775 0-63.869047 27.45502-63.869047 58.739293v57.800043c0 31.284273 29.839272 58.739293 63.869047 58.739293s63.869047-27.45502 63.869046-58.739293v-57.800043c0-31.284273-29.839272-58.739293-63.869046-58.739293z" fill="#2A5082" /><path d="M836.800113 955.65145c57.294292 0 95.80357-9.248007 159.600367-31.934523v-47.901786c0-25.937769-87.783814-63.869047-159.600367-63.869046s-159.600367 37.931278-159.600367 63.869046v47.901786c63.796797 22.758767 102.306075 31.934523 159.600367 31.934523z" fill="#A3D4FF" /><path d="M836.800113 971.618712c-61.701545 0-102.378325-10.620758-164.946871-32.873774l-10.620758-3.757003v-59.172794c0-43.350032 107.869329-79.475058 175.567629-79.475058s175.567629 36.486277 175.567628 79.475058v59.172794l-10.620757 3.757003c-62.496296 22.180766-103.245326 32.873774-164.946871 32.873774z m-143.633105-59.172794c53.248289 18.496014 90.095816 27.31052 143.633105 27.31052s90.457066-8.814506 143.633105-27.31052v-36.125026c-5.129754-13.51076-74.200804-48.479786-143.633105-48.479786s-138.575601 34.896776-143.633105 48.479786z m287.41071-35.763776z m-287.48296 0z" fill="#2A5082" /><path d="M836.800113 620.483454c-41.25478 0-79.475058 33.451775-79.475058 74.706555v57.800043c0 41.25478 38.509278 74.706555 79.475058 74.706554s79.475058-33.451775 79.475058-74.706554v-57.800043c0.289-41.25478-38.220278-74.706555-79.475058-74.706555z" fill="#FFFFFF" /><path d="M836.800113 843.952868c-51.947788 0-95.80357-41.54378-95.80357-90.673816v-57.800043c0-49.130036 43.855782-90.673816 95.80357-90.673816s95.73132 41.54378 95.73132 90.673816v57.800043c0 49.130036-43.855782 90.673816-95.73132 90.673816z m0-207.502152c-34.029775 0-63.869047 27.45502-63.869047 58.739293v57.800043c0 31.284273 29.839272 58.739293 63.869047 58.739293s63.869047-27.45502 63.869047-58.739293v-57.800043c0-31.284273-29.839272-58.739293-63.869047-58.739293zM501.632117 428.948564h31.934524v143.633105h-31.934524z" fill="#2A5082" /><path d="M852.767375 572.581669h-31.934524v-63.869046H198.326395v63.869046h-31.934523V476.778099h686.375503v95.80357z" fill="#2A5082" /></svg>