<?xml version="1.0" standalone="no"?><!DOCTYPE svg PUBLIC "-//W3C//DTD SVG 1.1//EN" "http://www.w3.org/Graphics/SVG/1.1/DTD/svg11.dtd"><svg class="icon" width="200px" height="200.00px" viewBox="0 0 1024 1024" version="1.1" xmlns="http://www.w3.org/2000/svg"><path d="M519.694631 483.569604m-354.02526 0a354.025259 354.025259 0 1 0 708.050519 0 354.025259 354.025259 0 1 0-708.050519 0Z" fill="#E9EAEB" /><path d="M292.757214 109.38658l-16.834262-28.322021a478.15085 478.15085 0 0 1 487.398857 0l-16.834262 28.322021a445.277076 445.277076 0 0 0-453.730333 0zM400.330318 139.760502l31.818924-8.525506 12.867734 48.01016-31.826148 8.525507zM240.361476 244.328004l23.293417-23.300642 35.156876 35.142426-23.293417 23.300642zM154.203288 414.895929l8.525506-31.826148 48.017385 12.867734-8.525506 31.826148zM156.233514 573.860495l48.010161-12.867734 8.525506 31.826148-48.01016 12.86051zM246.09813 742.297044l35.142426-35.142426 23.300642 23.293417-35.149651 35.149651zM732.232611 724.718606l23.293417-23.293417 35.149651 35.14965-23.293417 23.293418zM820.377676 585.008678l8.532731-31.826148 48.01016 12.87496-8.525506 31.818923zM818.217399 388.127284l48.01016-12.867734 8.525507 31.826148-48.01016 12.86051zM726.503182 250.505383l35.149651-35.142425 23.300642 23.293417-35.149651 35.149651zM578.202723 177.193255l12.86051-48.017385 31.826148 8.525506-12.860509 48.017385zM749.594299 906.160164l-16.400762-28.900021a447.950328 447.950328 0 0 0 224.553164-382.05828l32.946025 0.36125a481.329853 481.329853 0 0 1-241.098427 410.597051zM275.055951 906.160164A481.329853 481.329853 0 0 1 33.957525 495.924363l32.946024-0.36125a447.950328 447.950328 0 0 0 224.553164 382.05828z" fill="#BCC0C4" /><path d="M531.037889 245.072179a238.425175 238.425175 0 0 0-180.625132 406.623298 151.725111 151.725111 0 0 1 45.734283 106.930079v29.550271H643.025471V758.625556a146.306357 146.306357 0 0 1 43.350032-104.762577A237.413674 237.413674 0 0 0 758.625556 484.075355a240.737176 240.737176 0 0 0-227.587667-239.003176z" fill="#FFFFFF" /><path d="M659.642983 788.175827h-32.946024V758.625556a163.64637 163.64637 0 0 1 48.479786-116.467086A220.145911 220.145911 0 0 0 741.935793 484.075355a224.480914 224.480914 0 0 0-211.692655-222.530163 222.096663 222.096663 0 0 0-168.053623 378.590277 167.692373 167.692373 0 0 1 50.575037 118.562337v29.550271h-33.090524V758.625556a134.963099 134.963099 0 0 0-40.82128-95.29782 255.042687 255.042687 0 0 1 192.907641-434.728569A257.715939 257.715939 0 0 1 774.881818 484.075355a252.875185 252.875185 0 0 1-76.657307 181.564383A130.555846 130.555846 0 0 0 659.642983 758.625556z" fill="#2A5082" /><path d="M482.919354 642.37522c-55.05454-19.363014-81.35356-84.677062-72.250053-119.573837C435.884569 429.526565 529.881888 420.423058 570.775418 352.580258c60.039794 41.760531 98.476822 124.775841 70.299302 202.300148-19.001764 52.020038-87.639314 72.250053-115.600085 78.030058" fill="#A3D4FF" /><path d="M477.42835 657.908982c-60.690044-21.675016-94.719819-93.925069-82.437311-139.370352 16.111762-60.039794 58.522543-89.012065 96.020321-114.588584 25.937769-17.773513 50.575037-34.463275 65.819798-59.895294l9.103507-15.028011 14.45001 10.042757c62.279546 43.350032 108.375079 133.156848 76.296056 221.157412-22.758767 62.207296-103.317576 83.448811-127.449093 88.506315l-6.719255-32.223523c14.450011-2.962252 85.905313-20.157765 103.245325-67.5538 24.203768-66.181048-6.141254-134.023848-51.153037-172.749876-18.279263 23.120017-41.905031 39.231779-65.025048 54.98229-36.125026 24.565018-69.865801 47.757285-82.79856 95.94807-7.225005 28.105271 15.533761 83.593311 61.557045 99.777323z" fill="#2A5082" /><path d="M480.173852 727.847033c-36.558527-103.534326 7.225005-186.766387 42.483031-253.669936C528.798137 462.400339 534.650392 451.490581 539.852395 440.725323l29.622522 14.45001c-5.491004 11.271008-11.415508 22.542017-17.701263 34.463276-33.885275 64.374797-72.250053 137.275101-40.60453 227.298666zM375.700275 416.088055l-30.345022-13.22176a181.275383 181.275383 0 0 1 130.050095-105.051577l6.574755 32.295774A148.329359 148.329359 0 0 0 375.700275 416.088055zM363.273266 475.333098h-32.946024a182.286884 182.286884 0 0 1 3.612503-36.125026l32.295773 6.574755a149.413109 149.413109 0 0 0-2.962252 29.550271zM551.195654 1018.725746h-63.074296l-32.873775-32.946024h-26.154519v-32.946024h39.737529l32.946025 32.946024h35.763776l32.946024-32.946024h39.737529v32.946024h-26.082269L551.195654 1018.725746zM379.746278 821.121851H659.642983v32.946025H379.746278zM379.746278 887.0139H659.642983v32.946024H379.746278z" fill="#2A5082" /></svg>