<?xml version="1.0" standalone="no"?><!DOCTYPE svg PUBLIC "-//W3C//DTD SVG 1.1//EN" "http://www.w3.org/Graphics/SVG/1.1/DTD/svg11.dtd"><svg class="icon" width="200px" height="200.00px" viewBox="0 0 1024 1024" version="1.1" xmlns="http://www.w3.org/2000/svg"><path d="M531.83264 494.190362c-56.716292 0-166.608622 30.923023-166.608623 90.890567V751.40055h333.217245V585.225429c0-60.112044-109.89233-91.035067-166.608622-91.035067z" fill="#A3D4FF" /><path d="M541.369647 372.954773h-54.982291v-30.272772h54.982291a7.225005 7.225005 0 1 0 0-15.172511h-15.172512a37.859028 37.859028 0 1 1 0-75.718056h51.080788V281.775206h-51.080788a7.225005 7.225005 0 1 0 0 15.172511h15.172512a37.859028 37.859028 0 1 1 0 75.718056z" fill="#2A5082" /><path d="M516.660128 357.854512h30.272773v45.445283h-30.272773zM516.660128 221.518662h30.272773v45.445284h-30.272773z" fill="#2A5082" /><path d="M532.77189 463.84534a151.725111 151.725111 0 1 1 152.447612-151.725111 152.158611 152.158611 0 0 1-152.447612 151.725111z m0-272.6717a121.163339 121.163339 0 1 0 122.17484 121.235589 121.813589 121.813589 0 0 0-122.17484-121.163339zM713.613773 751.40055h-30.345023V585.225429c0-46.240034-99.488323-75.718055-151.725111-75.718056s-151.725111 29.478022-151.725111 75.718056v166.175121h-29.767022V585.225429c0-70.588302 116.539335-106.063078 181.781134-106.063078S713.613773 514.420377 713.613773 585.225429z" fill="#2A5082" /><path d="M440.942073 600.18119h181.781133v272.671699H440.942073z" fill="#A3D4FF" /><path d="M607.550695 600.18119h30.272772v272.671699h-30.272772zM425.769562 600.18119h30.272772v272.671699h-30.272772zM728.858534 402.432795a121.741339 121.741339 0 0 1-36.125027-5.346504l8.886757-28.900021a90.023566 90.023566 0 1 0-25.937769-158.950117l-17.556763-24.709518a120.585338 120.585338 0 1 1 70.299302 218.26741z" fill="#2A5082" /><path d="M904.498412 357.854512a95.65907 95.65907 0 0 1-48.696535-13.36626l15.461511-26.082269a65.025048 65.025048 0 0 0 33.307275 9.103507 68.20405 68.20405 0 0 0 0-136.33585 65.530798 65.530798 0 0 0-44.361533 17.340013l-20.446765-22.325267a95.80357 95.80357 0 0 1 65.025048-25.287518 98.476822 98.476822 0 0 1 0 196.881394zM1016.558245 554.735906h-30.345023V448.745079c0-25.287519-56.066041-45.734283-92.624568-45.734284a112.493332 112.493332 0 0 0-51.297537 15.172511l-15.028011-26.299019a141.610104 141.610104 0 0 1 66.325548-19.146264c41.54378 0 122.82509 22.975517 122.82509 76.079306zM849.949623 660.798984h-30.272773V494.190362c0-25.937769-55.12679-45.445283-90.890566-45.445283-24.709518 0-62.640796 10.115007-80.775559 26.515769l-20.302265-22.469766c27.88852-25.215268 75.718055-34.391025 101.150074-34.391026 40.96578 0 121.163339 22.903267 121.163339 75.718056zM334.734495 402.432795a120.296338 120.296338 0 1 1 70.299302-218.26741l-17.556763 24.709518a90.023566 90.023566 0 1 0-25.865519 158.950116l8.886756 28.900022a121.741339 121.741339 0 0 1-35.763776 5.707754z" fill="#2A5082" /><path d="M158.950116 357.854512a98.476822 98.476822 0 0 1 0-196.881394 95.80357 95.80357 0 0 1 65.025048 25.287518l-20.446765 22.325267a65.530798 65.530798 0 0 0-44.578283-17.340013 68.20405 68.20405 0 0 0 0 136.33585 65.025048 65.025048 0 0 0 33.235025-9.103507l15.461511 26.082269A95.58682 95.58682 0 0 1 158.950116 357.854512zM77.379807 554.735906H47.107035V448.745079c0-53.103789 81.42581-76.079306 122.825089-76.079306a141.610104 141.610104 0 0 1 66.325549 19.146264l-15.028011 26.299019a112.493332 112.493332 0 0 0-51.297538-15.172511c-36.558527 0-92.624568 20.519015-92.624567 45.734284zM244.060679 660.798984h-30.345022V494.190362c0-52.887039 80.197559-75.718055 121.163338-75.718056 25.359769 0 73.117054 9.175757 101.150074 34.391026l-20.302265 22.469766c-18.134763-16.400762-56.066041-26.515769-80.775559-26.515769-35.763776 0-90.890567 19.507514-90.890566 45.445283z" fill="#2A5082" /></svg>