<?xml version="1.0" standalone="no"?><!DOCTYPE svg PUBLIC "-//W3C//DTD SVG 1.1//EN" "http://www.w3.org/Graphics/SVG/1.1/DTD/svg11.dtd"><svg class="icon" width="200px" height="200.00px" viewBox="0 0 1024 1024" version="1.1" xmlns="http://www.w3.org/2000/svg"><path d="M445.204826 417.027305m-395.56904 0a395.56904 395.56904 0 1 0 791.13808 0 395.56904 395.56904 0 1 0-791.13808 0Z" fill="#E9EAEB" /><path d="M799.591336 346.077753c-44.217032 0-74.200804-36.125026-74.200805-80.703309v-26.588019c0-44.578283 29.983772-80.703309 74.200805-80.703309s74.200804 36.125026 74.200804 80.703309v26.515769c0 44.578283-29.983772 80.775559-74.200804 80.775559z" fill="#FFFFFF" /><path d="M799.591336 362.550766c-51.658788 0-90.673816-41.832781-90.673817-97.248572v-26.515769c0-55.415791 38.942779-97.248571 90.673817-97.248571s90.673816 41.832781 90.673816 97.248571v26.515769c0 55.415791-39.015029 97.248571-90.673816 97.248572z m0-187.850138c-33.451775 0-57.800042 27.02152-57.800043 64.230297v26.515769c0 37.208777 24.276018 64.230297 57.800043 64.230297s57.800042-27.02152 57.800042-64.230297v-26.660269c-0.07225-37.208777-24.348268-64.230297-57.800042-64.230297z" fill="#2A5082" /><path d="M873.79214 400.554293H708.917519c-57.800042 0-85.905313 59.317293-93.925069 75.790306l-27.31052 56.066041 105.051577 68.63755v409.3688h197.820645v-280.257955h15.822762a66.108798 66.108798 0 0 0 66.325548-65.458548V519.18888c0-67.553799-47.901785-118.634587-98.910322-118.634587z" fill="#FFFFFF" /><path d="M906.015664 746.632047h-15.822762v-32.946024h15.822762a49.708036 49.708036 0 0 0 50.141536-49.130036V519.18888c0-61.123545-42.627531-102.161575-82.43731-102.161575H708.917519c-41.11028 0-64.591547 37.208777-78.680307 65.025048l-0.867001 1.661751c-8.164256 16.111762-26.94927 55.27129-27.09377 55.704791l-29.767022-14.450011c0.794751-1.589501 19.074014-39.954279 27.45502-56.355041l0.794751-1.589501c10.404008-20.591265 41.977281-83.304311 108.375079-83.304311h164.802371c62.568546 0 115.600085 61.918295 115.600085 135.179849V664.700487a82.726311 82.726311 0 0 1-83.521061 81.93156z" fill="#2A5082" /><path d="M708.989769 1010.34474h-33.018274V590.499682l-52.309038 60.328795-24.926268-21.602766L708.989769 502.137868v508.206872zM873.79214 515.937628h32.946024v494.479362h-32.946024zM774.881818 730.159035h32.946024v280.185705h-32.946024z" fill="#2A5082" /><path d="M313.34848 346.077753a82.43731 82.43731 0 0 0 82.43731-80.775559v-26.515769a82.43731 82.43731 0 0 0-164.802371 0v26.515769a82.43731 82.43731 0 0 0 82.365061 80.775559z" fill="#FFFFFF" /><path d="M313.34848 362.550766a99.416073 99.416073 0 0 1-98.838073-97.248572v-26.515769a98.910322 98.910322 0 0 1 197.820645 0v26.515769a99.416073 99.416073 0 0 1-98.982572 97.248572z m0-187.850138a65.964298 65.964298 0 0 0-65.892049 64.230297v26.515769a65.964298 65.964298 0 0 0 131.856347 0v-26.660269a65.964298 65.964298 0 0 0-65.964298-64.230297z" fill="#2A5082" /><path d="M517.454879 506.111621c-24.131518-32.801524-60.039794-105.629577-138.142101-105.629578H247.456431c-51.225288 0-115.600085 46.745784-115.600084 115.600085v131.711846c0 36.775277 45.589783 82.43731 82.43731 82.437311v280.185705h197.965145V549.100402l112.132082 111.192832a46.962534 46.962534 0 0 0 66.470049 0l20.302265-20.302265s-69.649051-101.222324-93.708319-133.879348z" fill="#A3D4FF" /><path d="M428.731814 1010.34474h-32.946024V509.290623l140.237353 139.298102a30.345022 30.345022 0 0 0 21.675015 9.031257 30.345022 30.345022 0 0 0 21.675016-8.959007l10.548508-10.548508C570.775418 610.801947 523.090383 541.875397 504.233119 515.937628c-3.540253-4.840754-7.225005-10.548508-11.560008-16.689762C469.625344 464.49559 437.47407 417.027305 379.312778 417.027305H247.456431c-40.31553 0-98.910322 38.509278-98.910322 98.910323v131.856346c0 27.74402 38.220278 65.964298 65.964298 65.964299v32.946024c-46.240034 0-98.910322-52.670289-98.910322-98.910323V515.937628C115.600085 440.725323 185.176886 384.081281 247.456431 384.081281H379.312778c75.862556 0 116.467085 60.545544 140.887603 96.742821 3.829253 5.707754 7.225005 11.054258 10.693008 15.533762 23.914768 32.440274 91.179567 130.050095 93.925069 134.312848l7.803005 11.271008L602.565441 671.925492a63.074296 63.074296 0 0 1-44.867283 18.568264A63.074296 63.074296 0 0 1 512.975376 671.925492L428.731814 588.476681z" fill="#2A5082" /><path d="M197.965145 515.937628h32.946024v494.479362H197.965145zM296.875467 730.159035h32.946025v280.185705h-32.946025z" fill="#2A5082" /></svg>