<?xml version="1.0" standalone="no"?><!DOCTYPE svg PUBLIC "-//W3C//DTD SVG 1.1//EN" "http://www.w3.org/Graphics/SVG/1.1/DTD/svg11.dtd"><svg class="icon" width="200px" height="200.00px" viewBox="0 0 1024 1024" version="1.1" xmlns="http://www.w3.org/2000/svg"><path d="M513.336626 501.415367m-471.287095 0a471.287095 471.287095 0 1 0 942.57419 0 471.287095 471.287095 0 1 0-942.57419 0Z" fill="#E9EAEB" /><path d="M996.47273 424.830311l-633.127214 332.133493L30.128272 582.190926 663.255486 250.057433l333.217244 174.772878z" fill="#E9EAEB" /><path d="M363.345516 772.642066a15.750512 15.750512 0 0 1-7.225005-1.806251L22.831017 596.062937a15.750512 15.750512 0 0 1 0-27.816271l633.127213-332.350243a15.678261 15.678261 0 0 1 14.450011 0l333.217244 174.772878a15.678261 15.678261 0 0 1 0 27.81627l-633.127214 332.350244a15.750512 15.750512 0 0 1-7.152755 1.806251zM63.941297 582.190926l299.404219 157.071615 599.314189-314.43223L663.255486 267.830946z" fill="#2A5082" /><path d="M363.345516 849.805122a15.750512 15.750512 0 0 1-7.225005-1.806251L22.831017 673.225993a15.678261 15.678261 0 0 1 14.45001-27.81627L363.345516 816.425598l625.829958-328.30424a15.678261 15.678261 0 1 1 14.450011 27.81627l-633.127214 332.350243a15.750512 15.750512 0 0 1-7.152755 1.517251z" fill="#2A5082" /><path d="M363.345516 926.968179a15.750512 15.750512 0 0 1-7.225005-1.806251L22.831017 750.38905a15.678261 15.678261 0 1 1 14.45001-27.816271l325.919989 170.943625 625.829958-328.30424a15.678261 15.678261 0 0 1 14.450011 27.81627L370.642771 924.800677a15.750512 15.750512 0 0 1-7.297255 2.167502z" fill="#2A5082" /><path d="M363.345516 1004.275736a15.750512 15.750512 0 0 1-7.225005-1.806252L22.831017 827.479856a15.678261 15.678261 0 1 1 14.45001-27.81627l325.919989 170.943625 625.829958-328.304241a15.678261 15.678261 0 0 1 14.450011 27.816271l-633.127214 332.350243a15.750512 15.750512 0 0 1-7.008255 1.806252z" fill="#2A5082" /><path d="M818.7376 413.198053l-133.301348-69.938052a73.406054 73.406054 0 0 1-66.614549 0L207.646652 558.998659c22.180766 11.632259 18.568264 25.215268 0 34.824526l133.301348 69.938051a72.972553 72.972553 0 0 1 66.470048 0L818.7376 447.950328c-18.351513-9.464757-22.180766-23.120017 0-34.752275z" fill="#FFFFFF" /><path d="M407.562549 681.606999l-7.225006-3.829253a57.366542 57.366542 0 0 0-51.875538 0l-7.225005 3.829253-167.186623-87.783814 26.51577-13.94426a31.139773 31.139773 0 0 0 5.418754-3.468003 32.729274 32.729274 0 0 0-5.563254-3.540252l-26.51577-13.944261 444.915826-233.367671 7.225006 3.829253a57.800042 57.800042 0 0 0 52.092288 0l7.225005-3.829253L852.550624 413.198053l-26.515769 13.94426a32.151274 32.151274 0 0 0-5.563254 3.540252 30.778523 30.778523 0 0 0 5.563254 3.612503L852.550624 447.950328z m-33.379525-41.54378a88.506315 88.506315 0 0 1 32.946024 6.285754l384.514782-201.722147a27.88852 27.88852 0 0 1-4.118253-14.016511 27.45502 27.45502 0 0 1 3.829253-13.87201l-106.352078-55.921541a89.084315 89.084315 0 0 1-65.675298 0L234.812672 562.466662a27.31052 27.31052 0 0 1 3.612503 13.94426 27.81627 27.81627 0 0 1-3.757003 13.94426l106.641078 55.921541a88.000564 88.000564 0 0 1 32.873774-6.213504z" fill="#2A5082" /><path d="M654.657729 407.129048h31.428774v31.428773h-31.428774zM340.514499 564.272913h31.428773v31.428773h-31.428773z" fill="#2A5082" /><path d="M591.872434 634.138714L246.30043 438.557821l157.071615-78.535807 361.250265 188.066887v251.791435l-172.749876 93.058068V634.138714z" fill="#A3D4FF" /><path d="M591.872434 908.616665a15.678261 15.678261 0 0 1-15.678262-15.678261V643.025471L238.425175 452.213081a15.678261 15.678261 0 0 1 0.7225-27.74402l157.143865-78.463558a15.750512 15.750512 0 0 1 14.450011 0l361.250264 187.850138a15.750512 15.750512 0 0 1 8.308757 14.23326v251.791435a15.678261 15.678261 0 0 1-8.236507 13.79976L599.314189 906.738164a15.678261 15.678261 0 0 1-7.441755 1.878501zM279.679955 439.424822L599.675439 620.411204a15.678261 15.678261 0 0 1 7.947506 13.65526v232.500671l141.393354-76.151556V557.625908L403.227545 377.651027z" fill="#2A5082" /><path d="M246.22818 250.057433h31.428773v94.214069h-31.428773z" fill="#BCC0C4" /><path d="M214.871657 281.486206h94.286319v31.428773H214.871657zM371.943272 77.307557h31.428773v94.286319h-31.428773z" fill="#BCC0C4" /><path d="M340.514499 108.66408h94.214069v31.428773H340.514499z" fill="#BCC0C4" /></svg>