<?xml version="1.0" standalone="no"?><!DOCTYPE svg PUBLIC "-//W3C//DTD SVG 1.1//EN" "http://www.w3.org/Graphics/SVG/1.1/DTD/svg11.dtd"><svg class="icon" width="200px" height="200.00px" viewBox="0 0 1024 1024" version="1.1" xmlns="http://www.w3.org/2000/svg"><path d="M514.709377 560.29916m-402.794045 0a402.794045 402.794045 0 1 0 805.58809 0 402.794045 402.794045 0 1 0-805.58809 0Z" fill="#E9EAEB" /><path d="M647.577224 1000.446483l-132.940097-132.867848-132.867847 132.867848V618.460453h265.807944v381.98603z" fill="#A3D4FF" /><path d="M381.76928 1017.063995a16.617512 16.617512 0 0 1-16.617513-16.617512V618.460453a16.617512 16.617512 0 0 1 16.617513-16.617512h265.807944a16.617512 16.617512 0 0 1 16.617512 16.617512v381.98603A16.617512 16.617512 0 0 1 635.800466 1012.223241l-121.163339-121.163338-121.091089 121.163338a16.617512 16.617512 0 0 1-11.776758 4.840754z m132.867847-166.175122a16.617512 16.617512 0 0 1 11.776759 4.840754l104.545826 104.545826v-325.125238H398.386792v325.125238l104.545826-104.545826a16.617512 16.617512 0 0 1 11.704509-4.768504z" fill="#2A5082" /><path d="M544.476399 39.087279a36.125026 36.125026 0 0 0 54.83779 9.681507 36.125026 36.125026 0 0 1 58.883793 21.675016 36.125026 36.125026 0 0 0 48.190785 27.81627 36.125026 36.125026 0 0 1 48.046286 40.315529 36.125026 36.125026 0 0 0 36.125026 42.627532 36.125026 36.125026 0 0 1 31.356523 54.259789 36.125026 36.125026 0 0 0 19.001764 52.309039 36.125026 36.125026 0 0 1 10.909758 61.701545 36.125026 36.125026 0 0 0 0 55.632541 36.125026 36.125026 0 0 1-10.909758 61.701545 36.125026 36.125026 0 0 0-19.001764 52.309038 36.125026 36.125026 0 0 1-31.356523 54.25979 36.125026 36.125026 0 0 0-36.125026 42.627531 36.125026 36.125026 0 0 1-48.046286 40.31553 36.125026 36.125026 0 0 0-48.190785 27.81627 36.125026 36.125026 0 0 1-58.883793 21.675016A36.125026 36.125026 0 0 0 544.476399 715.275524a36.125026 36.125026 0 0 1-62.713046 0 36.125026 36.125026 0 0 0-54.83779-9.681507 36.125026 36.125026 0 0 1-58.883793-21.675016 36.125026 36.125026 0 0 0-48.190786-27.81627 36.125026 36.125026 0 0 1-48.046285-40.31553 36.125026 36.125026 0 0 0-36.125026-42.627531 36.125026 36.125026 0 0 1-31.356523-54.25979 36.125026 36.125026 0 0 0-19.001764-52.309038A36.125026 36.125026 0 0 1 174.772878 404.600296a36.125026 36.125026 0 0 0 0-55.63254 36.125026 36.125026 0 0 1 10.909758-61.412545 36.125026 36.125026 0 0 0 19.001764-52.309039A36.125026 36.125026 0 0 1 236.040923 180.625132a36.125026 36.125026 0 0 0 36.125026-42.627531 36.125026 36.125026 0 0 1 48.046286-40.315529 36.125026 36.125026 0 0 0 48.190785-27.816271 36.125026 36.125026 0 0 1 58.883793-21.675016 36.125026 36.125026 0 0 0 54.83779-9.681507 36.125026 36.125026 0 0 1 62.351796 0.578001z" fill="#FFFFFF" /><path d="M512.975376 750.100049a51.875538 51.875538 0 0 1-45.806534-26.949269 19.290764 19.290764 0 0 0-29.405771-5.202004A52.453538 52.453538 0 0 1 351.641008 686.375503a19.290764 19.290764 0 0 0-25.865519-14.450011 52.453538 52.453538 0 0 1-70.227052-58.956043 19.146264 19.146264 0 0 0-4.190503-16.039512 20.374515 20.374515 0 0 0-15.028011-7.225005h-0.867001a52.453538 52.453538 0 0 1-45.011783-79.475058 19.290764 19.290764 0 0 0-10.259507-28.105271 52.453538 52.453538 0 0 1-15.895012-90.312566 19.290764 19.290764 0 0 0 0-29.911522 52.453538 52.453538 0 0 1 15.895012-90.312566 19.290764 19.290764 0 0 0 10.259507-28.105271 52.453538 52.453538 0 0 1 45.878784-79.475058 20.230015 20.230015 0 0 0 15.028011-7.225005 19.146264 19.146264 0 0 0 4.190503-16.039512 52.453538 52.453538 0 0 1 70.227052-58.956043 19.290764 19.290764 0 0 0 25.865519-14.955761A52.453538 52.453538 0 0 1 437.835321 36.125026a19.290764 19.290764 0 0 0 29.478021-5.202003 52.453538 52.453538 0 0 1 91.685317 0 19.290764 19.290764 0 0 0 29.405772 5.202003 52.453538 52.453538 0 0 1 86.122063 31.428773 19.290764 19.290764 0 0 0 25.865519 14.955761 52.453538 52.453538 0 0 1 70.227051 58.956044 19.146264 19.146264 0 0 0 4.190503 16.039511 19.579764 19.579764 0 0 0 15.028011 7.225006 52.453538 52.453538 0 0 1 45.878784 79.475058 19.290764 19.290764 0 0 0 10.259508 28.10527 52.453538 52.453538 0 0 1 15.895011 90.312567 19.290764 19.290764 0 0 0 0 29.911522 52.525788 52.525788 0 0 1-15.895011 90.312566 19.290764 19.290764 0 0 0-10.259508 28.10527 52.453538 52.453538 0 0 1-45.011783 79.475058h-1.156001a19.290764 19.290764 0 0 0-18.929514 22.903267A52.453538 52.453538 0 0 1 700.464263 671.925492a19.290764 19.290764 0 0 0-25.937769 14.450011 52.453538 52.453538 0 0 1-86.194313 31.356523 19.290764 19.290764 0 0 0-29.405772 5.202003 51.875538 51.875538 0 0 1-45.951033 27.16602z m-62.785296-70.082551a52.670289 52.670289 0 0 1 45.951033 26.94927A18.929514 18.929514 0 0 0 512.975376 716.937275a18.929514 18.929514 0 0 0 16.834262-9.898257 52.525788 52.525788 0 0 1 80.197559-14.450011 19.290764 19.290764 0 0 0 31.645523-11.487758 52.453538 52.453538 0 0 1 70.516052-40.74903 19.290764 19.290764 0 0 0 25.793268-21.675016A52.453538 52.453538 0 0 1 790.415579 556.325407a19.579764 19.579764 0 0 0 16.978762-9.609257 18.929514 18.929514 0 0 0 0-19.507514 52.453538 52.453538 0 0 1 27.816271-76.512806 19.290764 19.290764 0 0 0 5.852254-33.162774 52.453538 52.453538 0 0 1 0-81.42581 19.290764 19.290764 0 0 0-5.852254-33.162774 52.453538 52.453538 0 0 1-27.888521-76.512806 19.290764 19.290764 0 0 0-16.473012-28.900021h-1.156001a52.453538 52.453538 0 0 1-51.514287-62.351796 19.290764 19.290764 0 0 0-25.793269-21.675016 52.453538 52.453538 0 0 1-70.516052-40.74903 19.290764 19.290764 0 0 0-31.645523-11.487758 52.453538 52.453538 0 0 1-80.197559-14.450011 19.290764 19.290764 0 0 0-33.668524 0 52.453538 52.453538 0 0 1-80.197559 14.450011 19.290764 19.290764 0 0 0-31.645523 11.487758 52.453538 52.453538 0 0 1-70.516052 40.74903 19.290764 19.290764 0 0 0-25.793269 21.675016 52.453538 52.453538 0 0 1-52.381288 62.351796 19.290764 19.290764 0 0 0-16.473012 28.900021A52.453538 52.453538 0 0 1 191.10139 303.450222a19.290764 19.290764 0 0 0-5.852254 33.162775 52.453538 52.453538 0 0 1 0 81.425809 19.290764 19.290764 0 0 0 5.852254 33.162774A52.453538 52.453538 0 0 1 218.98991 527.425386a18.929514 18.929514 0 0 0 0 19.507515 19.579764 19.579764 0 0 0 16.834263 9.392506 52.959289 52.959289 0 0 1 40.96578 18.712764 52.309038 52.309038 0 0 1 11.343258 43.350032 19.290764 19.290764 0 0 0 25.793269 21.675016 52.453538 52.453538 0 0 1 70.516052 40.74903 19.290764 19.290764 0 0 0 31.645523 11.487758 52.236788 52.236788 0 0 1 34.246525-12.210259z" fill="#2A5082" /><path d="M481.474353 352.724758h49.852536v33.235025h-49.852536z" fill="#2A5082" /><path d="M564.489663 452.357581h-66.470048c-22.831017 0-33.235024-14.450011-33.235025-27.67177V313.92648c0-13.36626 10.404008-27.67177 33.235025-27.67177h66.470048v33.235024h-66.470048V419.050307h66.470048zM431.621816 452.357581h-39.231779l-43.783532-98.115572v98.115572h-33.235024V286.25471h39.231779l43.783532 98.115572V286.25471h33.235024v166.102871zM713.975023 452.357581h-38.942779l-27.45502-50.864037-27.45502 50.864037h-39.015028V286.25471h33.235024v106.857828l33.235024-61.557045 33.162775 61.557045V286.25471h33.235024v166.102871z" fill="#2A5082" /><path d="M700.825513 233.728921a233.728921 233.728921 0 0 0-31.067522-33.813025l22.108516-24.781768a267.325196 267.325196 0 0 1 35.474776 38.653779zM328.593241 233.656671l-26.58802-19.941014a265.807945 265.807945 0 0 1 354.025259-65.025048l-17.340012 27.74402a232.64517 232.64517 0 0 0-310.024977 57.222042zM337.479997 571.208918a266.891695 266.891695 0 0 1-47.612785-56.282791L317.900233 497.152614a233.728921 233.728921 0 0 0 41.68828 49.274536zM514.637127 638.907218a265.013194 265.013194 0 0 1-141.754604-40.89353l17.773513-28.105271a232.64517 232.64517 0 0 0 320.790235-72.755803l28.105271 17.773513a264.651944 264.651944 0 0 1-224.914415 123.981091z" fill="#BCC0C4" /></svg>