<?xml version="1.0" standalone="no"?><!DOCTYPE svg PUBLIC "-//W3C//DTD SVG 1.1//EN" "http://www.w3.org/Graphics/SVG/1.1/DTD/svg11.dtd"><svg class="icon" width="200px" height="200.00px" viewBox="0 0 1024 1024" version="1.1" xmlns="http://www.w3.org/2000/svg"><path d="M315.082481 300.05447m-287.627461 0a287.627461 287.627461 0 1 0 575.254921 0 287.627461 287.627461 0 1 0-575.254921 0Z" fill="#E9EAEB" /><path d="M168.270373 261.761942m48.263036 0l676.043745 0q48.263035 0 48.263035 48.263035l0 531.182389q0 48.263035-48.263035 48.263035l-676.043745 0q-48.263035 0-48.263036-48.263035l0-531.182389q0-48.263035 48.263036-48.263035Z" fill="#FFFFFF" /><path d="M892.577154 905.582163H216.750159a64.447047 64.447047 0 0 1-64.374797-64.374797V310.024977A64.447047 64.447047 0 0 1 216.750159 245.65018h676.043745a64.447047 64.447047 0 0 1 64.374797 64.374797v531.182389a64.447047 64.447047 0 0 1-64.591547 64.374797zM216.750159 277.873704a32.223524 32.223524 0 0 0-32.223524 32.223523v531.182389a32.223524 32.223524 0 0 0 32.223524 32.151274h676.043745a32.223524 32.223524 0 0 0 32.223524-32.223524V310.024977a32.223524 32.223524 0 0 0-32.223524-32.223524z" fill="#2A5082" /><path d="M393.618288 567.596416l32.223524-32.223524V461.533338c0-19.290764-27.38277-54.91004-48.263035-54.91004H297.019968c-20.952515 0-48.263035 35.619276-48.263036 54.91004V535.372892l32.223524 32.223524v177.084879l-32.223524 32.223524V867.000635a48.768786 48.768786 0 0 0 32.151274 44.433783c25.793269 10.331758 86.700064 10.331758 112.782332 0a48.768786 48.768786 0 0 0 32.151274-44.433783v-90.168066l-32.223524-32.223524z" fill="#A3D4FF" /><path d="M337.263247 935.060185a185.321386 185.321386 0 0 1-62.351796-8.886757A65.025048 65.025048 0 0 1 232.64517 867.000635v-96.815071l32.223524-32.223524V574.243421L232.64517 541.875397V461.533338c0-25.432019 32.440274-71.021802 64.374798-71.021802h80.486558c31.934523 0 64.374797 45.589783 64.374798 71.021802V541.875397l-32.223524 32.223523v163.71862l32.223524 32.223524V867.000635a65.025048 65.025048 0 0 1-42.266281 59.389544 185.393636 185.393636 0 0 1-62.351796 8.670006z m-72.250053-151.725111V867.000635a32.801524 32.801524 0 0 0 21.675016 29.478022c22.180766 8.814506 78.680308 8.814506 101.150074 0a32.801524 32.801524 0 0 0 21.675016-29.478022v-83.521061L377.506526 751.40055V560.949411l32.223524-32.223524v-67.192549c0-12.354759-21.675016-38.798278-32.223524-38.798278H297.019968c-10.259508 0-32.223524 26.515769-32.223524 38.798278v67.192549l32.223524 32.223524V751.40055z" fill="#2A5082" /><path d="M522.367883 470.998095h289.722712v96.598321H522.367883z" fill="#A3D4FF" /><path d="M828.202357 583.708178H506.256121V455.175333h321.873986z m-289.722713-32.223524h257.499189v-64.374797H538.479644zM538.479644 631.971213h64.374798v32.223523h-64.374798zM635.077965 631.971213h64.374797v32.223523H635.077965zM731.604036 631.971213h64.374797v32.223523h-64.374797zM538.479644 696.34601h64.374798v32.223524h-64.374798zM635.077965 696.34601h64.374797v32.223524H635.077965zM731.604036 696.34601h64.374797v32.223524h-64.374797zM538.479644 760.720807h64.374798v32.223524h-64.374798zM635.077965 760.720807h64.374797v32.223524H635.077965zM731.604036 760.720807h64.374797v32.223524h-64.374797zM956.951951 165.163621h-96.598321v-32.151274h63.146546c-4.696253-29.478022-22.397516-48.263035-47.034784-48.263035h-112.637833V52.525788h112.637833c47.396035 0 80.486559 39.737529 80.486559 96.598321z" fill="#2A5082" /><path d="M368.47527 68.63755c-37.786778 0-71.527552 30.417272-71.527553 68.49305v189.006139h515.142878v-187.850138a71.455302 71.455302 0 0 1 70.588301-70.010301z" fill="#FFFFFF" /><path d="M828.202357 342.248501H280.980456V137.275101c0-45.878784 40.098779-84.604812 87.639314-84.604812h514.131377v32.223523a55.632541 55.632541 0 0 0-54.54879 53.89854z m-515.070628-32.223524h482.847104V138.647852a84.821562 84.821562 0 0 1 19.652014-53.89854H368.47527A54.69329 54.69329 0 0 0 313.131729 137.275101z" fill="#2A5082" /><path d="M409.73005 149.124109h289.722712v32.223524h-289.722712zM409.73005 213.498906h289.722712v32.223524h-289.722712zM248.756932 310.024977h611.596698v32.223524H248.756932zM297.019968 1018.292246h-177.01263A64.447047 64.447047 0 0 1 55.632541 953.700699V712.457772a64.447047 64.447047 0 0 1 64.374797-64.374797h48.263035v32.223523h-48.263035a32.223524 32.223524 0 0 0-32.223524 32.223524V953.700699a32.223524 32.223524 0 0 0 32.223524 32.223523h177.01263a32.223524 32.223524 0 0 0 32.223523-32.223523v-32.223524H361.250265V953.700699a64.447047 64.447047 0 0 1-64.230297 64.591547z" fill="#2A5082" /></svg>