<?xml version="1.0" standalone="no"?><!DOCTYPE svg PUBLIC "-//W3C//DTD SVG 1.1//EN" "http://www.w3.org/Graphics/SVG/1.1/DTD/svg11.dtd"><svg class="icon" width="200px" height="200.00px" viewBox="0 0 1024 1024" version="1.1" xmlns="http://www.w3.org/2000/svg"><path d="M470.420095 593.028434m-413.631553 0a413.631553 413.631553 0 1 0 827.263105 0 413.631553 413.631553 0 1 0-827.263105 0Z" fill="#E9EAEB" /><path d="M429.815565 682.25725V422.66281L319.923234 507.412122a112.926833 112.926833 0 0 0-36.125026 83.232061v334.878995h308.290976v-65.025048s65.025048-39.304029 65.025047-113.577083v-65.025048z" fill="#FFFFFF" /><path d="M608.273196 941.77944H267.325196V590.571933a129.183095 129.183095 0 0 1 41.32703-95.15332l1.083751-0.867001 136.33585-104.834827v276.284203h227.081916v81.136809c0 66.975799-46.023284 108.375079-65.025048 122.03034z m-308.218726-32.440274H575.832922v-57.800042l7.803005-4.768504c2.312002-1.372751 57.077542-36.125026 57.077542-99.705073v-48.624285H413.631553v-242.760178l-83.232061 64.085797a96.742821 96.742821 0 0 0-30.345022 70.805052z" fill="#2A5082" /><path d="M916.491921 17.123263H527.425386l-130.050095 130.050095v551.267904h519.11663a32.440274 32.440274 0 0 0 32.440274-32.440274V49.563536a32.440274 32.440274 0 0 0-32.440274-32.440273z" fill="#FFFFFF" /><path d="M397.375291 163.140619h146.017357V17.123263" fill="#A3D4FF" /><path d="M916.491921 714.697523H429.815565v-32.440273h486.676356a16.256262 16.256262 0 0 0 16.256262-16.256262V49.563536a16.256262 16.256262 0 0 0-16.256262-16.256262h-382.92528l-119.935088 120.296339v463.773089h-32.440274v-476.850349L520.200381 0.939251h396.07479a48.696536 48.696536 0 0 1 48.696536 48.696535v616.365202a48.696536 48.696536 0 0 1-48.479786 48.696535z" fill="#2A5082" /><path d="M559.64891 179.324631H446.071827v-32.368023h81.136809V65.819798h32.440274v113.504833zM510.952374 292.901715h324.402738v32.440273h-324.402738zM510.952374 357.782262h194.641643v32.440274H510.952374zM510.952374 228.021167h324.402738v32.440274h-324.402738z" fill="#2A5082" /><path d="M548.522402 475.333098c-37.642278 37.642278-184.671135 181.347633-184.671136 181.347633l129.616595 169.281874s54.76554-66.397799 18.351514-147.606858c0 0 65.458548-73.333804 81.49806-95.51457 35.763776-53.103789-7.152755-145.150356-44.795033-107.508079z" fill="#FFFFFF" /><path d="M505.75037 836.294363l-24.998518-20.663516c1.950751-2.384252 47.757285-59.967544 16.039512-130.628095l-4.262753-9.609257 7.225005-7.875256c0.65025-0.722501 65.025048-72.972553 80.486559-93.925069 19.001764-28.249771 8.886757-74.200804-7.658506-87.856064-4.190503-3.468003-7.225005-4.118253-12.499259 1.372751-37.353277 36.919777-183.370634 179.758132-184.887885 181.203132l-22.686517-23.192266c1.445001-1.445001 147.390108-144.066606 184.526635-181.203133a39.376279 39.376279 0 0 1 56.066041-3.468003C622.939956 484.942355 635.800466 549.100402 606.900445 591.872434c-13.65526 18.929514-58.811543 70.154801-76.151556 89.662315 31.645523 84.821562-22.397516 151.797361-24.998519 154.759614z" fill="#2A5082" /><path d="M251.430184 1022.916249v-113.577083h389.283285v113.577083" fill="#E9EAEB" /><path d="M656.969731 1022.916249h-32.440274V925.523178h-356.915261v97.393071h-32.440274v-129.833345h421.795809v129.833345z" fill="#2A5082" /><path d="M300.05447 957.963452h48.696535v32.440273h-48.696535z" fill="#2A5082" /><path d="M656.969731 1022.916249h-32.440274V925.523178h-356.915261v97.393071h-32.440274v-129.833345h421.795809v129.833345z" fill="#2A5082" /></svg>