<?xml version="1.0" standalone="no"?><!DOCTYPE svg PUBLIC "-//W3C//DTD SVG 1.1//EN" "http://www.w3.org/Graphics/SVG/1.1/DTD/svg11.dtd"><svg class="icon" width="200px" height="199.80px" viewBox="0 0 1025 1024" version="1.1" xmlns="http://www.w3.org/2000/svg"><path d="M402.071544 459.654837m-402.071544 0a402.071544 402.071544 0 1 0 804.143089 0 402.071544 402.071544 0 1 0-804.143089 0Z" fill="#E9EAEB" /><path d="M954.712199 509.868623H133.951598a50.575037 50.575037 0 0 0-50.575037 50.575037v385.309533H1005.287236V560.15466a50.575037 50.575037 0 0 0-50.575037-50.286037z" fill="#FFFFFF" /><path d="M1021.976999 962.226205H66.975799V560.15466a67.120299 67.120299 0 0 1 67.048049-67.048049h50.575037v33.524025h-50.575037a33.524025 33.524025 0 0 0-33.524024 33.524024v368.47527h887.95315v-368.47527a33.524025 33.524025 0 0 0-33.740775-33.524024h-50.575037v-33.524025h50.575037a67.120299 67.120299 0 0 1 67.048049 67.048049zM988.452974 308.868976h-100.572074v-33.524024H954.712199a50.575037 50.575037 0 0 0-50.575037-50.575037h-66.470048v-33.235025h67.048049a83.882311 83.882311 0 0 1 83.737811 83.737812z" fill="#2A5082" /><path d="M318.261483 208.296903a67.048049 67.048049 0 0 0-67.048049 67.048049v402.071544h586.45368V275.344952a67.048049 67.048049 0 0 1 67.048049-67.048049z" fill="#FFFFFF" /><path d="M854.429126 694.178508h-619.905454v-419.050306a83.882311 83.882311 0 0 1 83.737811-83.593312h586.38143v33.524025a50.575037 50.575037 0 0 0-50.575037 50.575037zM268.336697 660.654484h552.857404V275.344952a83.376561 83.376561 0 0 1 16.762013-50.575037H318.261483a50.575037 50.575037 0 0 0-50.575037 50.575037z" fill="#2A5082" /><path d="M150.71361 660.654484h787.453327v33.524024H150.71361z" fill="#2A5082" /><path d="M301.499471 828.202357h485.881606a50.575037 50.575037 0 0 1 50.575037 50.575037v67.048049h-586.67043v-67.048049a50.575037 50.575037 0 0 1 50.213787-50.575037z" fill="#A3D4FF" /><path d="M854.429126 962.226205h-619.905454v-83.737812a67.120299 67.120299 0 0 1 67.048049-67.048049h485.881606a67.120299 67.120299 0 0 1 67.048049 67.048049zM268.336697 928.77443h552.857404v-50.575037a33.524025 33.524025 0 0 0-33.524024-33.524024H301.499471a33.524025 33.524025 0 0 0-33.162774 33.813024zM150.71361 861.726381h33.524025v33.524025h-33.524025zM150.71361 794.750582h33.524025v33.524025h-33.524025zM150.71361 727.702533h33.524025v33.524025h-33.524025zM200.999647 627.202709h-33.524024V409.3688H217.761659v33.524024h-16.762012v184.309885zM921.404925 627.202709h-33.524025V442.892824h-16.689762v-33.524024h50.213787v217.833909zM402.071544 325.630988h284.809709v33.524025H402.071544zM402.071544 392.606788h284.809709v33.524024H402.071544zM402.071544 459.654837H569.619417v33.524024H402.071544z" fill="#2A5082" /></svg>