<?xml version="1.0" standalone="no"?><!DOCTYPE svg PUBLIC "-//W3C//DTD SVG 1.1//EN" "http://www.w3.org/Graphics/SVG/1.1/DTD/svg11.dtd"><svg class="icon" width="200px" height="200.00px" viewBox="0 0 1024 1024" version="1.1" xmlns="http://www.w3.org/2000/svg"><path d="M415.437804 467.602342m-399.976293 0a399.976293 399.976293 0 1 0 799.952586 0 399.976293 399.976293 0 1 0-799.952586 0Z" fill="#E9EAEB" /><path d="M948.715445 517.599379h-816.425598a49.997037 49.997037 0 0 0-49.997037 49.997037v383.28653h916.419671V567.596416a49.997037 49.997037 0 0 0-49.997036-49.997037z" fill="#FFFFFF" /><path d="M1015.402244 967.500459H65.530798V567.596416a66.759049 66.759049 0 0 1 66.686799-66.686799h33.307274v33.307274h-33.379524a33.379524 33.379524 0 0 0-33.307275 33.307275v366.669018h883.256897V567.596416a33.379524 33.379524 0 0 0-33.307274-33.307275h-66.686799v-33.379524h66.686799a66.759049 66.759049 0 0 1 66.686799 66.686799zM988.019474 317.900233h-105.918578v-33.596275h71.094052c-5.563254-29.767022-26.010019-49.997037-52.742538-49.997036h-118.345587v-33.379525h118.345587c49.924787 0 87.567064 42.988781 87.567064 99.994073z" fill="#2A5082" /><path d="M248.829182 684.208001V288.566711c0-39.376279 34.896776-70.949552 74.056304-70.949552h582.335427a73.984054 73.984054 0 0 0-73.117054 72.250053V684.208001z" fill="#FFFFFF" /><path d="M848.721372 700.825513H232.13942V288.566711c0-47.468285 41.54378-87.567064 90.673816-87.567064h582.696677v33.307275a57.800042 57.800042 0 0 0-56.788541 55.77704z m-583.202428-33.235024h549.967403V290.083962a87.856064 87.856064 0 0 1 20.374515-55.77704h-512.975376a56.644041 56.644041 0 0 0-57.366542 54.259789z" fill="#2A5082" /><path d="M647.649474 352.074508m-37.859027 0a37.859028 37.859028 0 1 0 75.718055 0 37.859028 37.859028 0 1 0-75.718055 0Z" fill="#A3D4FF" /><path d="M647.649474 406.551048a54.47654 54.47654 0 1 1 54.47654-54.47654 54.54879 54.54879 0 0 1-54.47654 54.47654z m0-75.645806a21.169266 21.169266 0 1 0 21.169266 21.169266 21.169266 21.169266 0 0 0-21.169266-21.169266z" fill="#2A5082" /><path d="M618.243703 440.364073l-59.534044 61.557045-108.664079-111.987582-134.601849 138.647851v72.322303h449.97333v-9.248007L618.243703 440.364073z" fill="#A3D4FF" /><path d="M782.106823 617.593452H298.826219V521.862132l151.219361-155.843364 108.375079 111.987582 59.534044-61.557045L782.106823 585.225429zM332.350243 584.213928h402.866295l-116.900585-119.935088-36.125027 37.642278 14.450011 15.100261-23.914768 23.192267-122.825089-126.365343L332.350243 535.372892zM148.835109 667.590489h783.262824v33.307274H148.835109z" fill="#2A5082" /><path d="M298.826219 834.199111h483.280604a49.997037 49.997037 0 0 1 49.997036 49.997037v66.686798H248.829182v-66.686798a49.997037 49.997037 0 0 1 49.997037-49.997037z" fill="#E9EAEB" /><path d="M848.721372 967.500459H232.13942v-83.304311a66.759049 66.759049 0 0 1 66.686799-66.686799h483.280604a66.759049 66.759049 0 0 1 66.686799 66.686799z m-583.202428-33.307275h549.967403v-49.997036a33.379524 33.379524 0 0 0-33.307274-33.307275h-483.352854a33.379524 33.379524 0 0 0-33.307275 33.307275zM148.835109 867.578635h33.307274v33.307275H148.835109zM148.835109 800.891837h33.307274v33.307274H148.835109zM148.835109 734.205038h33.307274v33.307274H148.835109zM198.832146 634.210965h-33.307275V417.605306h49.924787v33.307274h-16.617512v183.298385zM915.40817 634.210965h-33.307274V450.91258h-16.689762V417.605306h49.997036v216.605659z" fill="#2A5082" /></svg>