<?xml version="1.0" standalone="no"?><!DOCTYPE svg PUBLIC "-//W3C//DTD SVG 1.1//EN" "http://www.w3.org/Graphics/SVG/1.1/DTD/svg11.dtd"><svg class="icon" width="200px" height="200.00px" viewBox="0 0 1024 1024" version="1.1" xmlns="http://www.w3.org/2000/svg"><path d="M530.243138 640.785719m-369.70352 0a369.703521 369.703521 0 1 0 739.407041 0 369.703521 369.703521 0 1 0-739.407041 0Z" fill="#EDEDED" /><path d="M396.941791 220.651662v184.815635H261.328441l268.914697 302.510972 268.842447-302.510972H664.700487V220.651662H396.941791z" fill="#A3D4FF" /><path d="M530.243138 733.265787L223.975164 388.705285h156.204614V203.817399h301.282721V388.705285h155.048614z m-231.200169-310.675227l231.200169 260.10019 231.20017-260.10019H647.866225V237.413674h-234.090172v184.887885z" fill="#2A5082" /><path d="M396.941791 69.360051h267.686446v84.026811H396.941791z" fill="#A3D4FF" /><path d="M681.462499 170.221125h-301.282721V52.598039h301.282721z m-267.686446-33.596275h234.090172v-50.575037h-234.090172z" fill="#2A5082" /><path d="M899.946659 741.574543v168.053623H160.539618v-168.053623h100.788823v67.192549h537.757144v-67.192549h100.861074z" fill="#FFFFFF" /><path d="M916.780921 926.462429h-773.075566v-201.722148H278.162704v67.192549h504.160869v-67.192549h134.457348z m-739.479291-33.668525h705.810767V758.625556h-67.192549v67.192549H244.566429V758.625556h-67.192549z" fill="#2A5082" /><path d="M110.109081 371.871022h33.596274V523.090383h-33.596274zM748.727298 19.001764h33.596275v268.842447h-33.596275zM110.109081 304.678473h33.596274v33.596275h-33.596274zM110.109081 237.413674h33.596274v33.596274h-33.596274z" fill="#BCC0C4" /></svg>