<?xml version="1.0" standalone="no"?><!DOCTYPE svg PUBLIC "-//W3C//DTD SVG 1.1//EN" "http://www.w3.org/Graphics/SVG/1.1/DTD/svg11.dtd"><svg class="icon" width="200px" height="200.00px" viewBox="0 0 1024 1024" version="1.1" xmlns="http://www.w3.org/2000/svg"><path d="M426.275312 84.893812c-32.368024-7.225005-53.537289 4.407253-63.724546 22.108516L277.945954 254.103436l154.904113 89.445566L528.147887 178.529881S447.950328 89.662316 426.275312 84.893812z" fill="#FFFFFF" /><path d="M438.702321 365.151767L256.343188 260.100191l92.841318-161.045368c15.244761-26.371269 45.445283-37.497777 80.847809-29.622522 23.987018 5.346504 84.821562 70.660552 109.89233 98.549072l7.658506 8.525506zM299.548719 248.323432l127.521344 73.622804L508.712623 180.625132C474.321597 143.199605 433.500318 104.040076 422.95181 100.283073c-21.675016-4.768503-38.148028 0.4335-46.384534 14.450011z" fill="#2A5082" /><path d="M416.882805 83.448811c31.645523 11.271008 40.89353 27.67177 56.499542 54.69329l96.815071 167.403373-41.399281 23.914767 196.664644 58.594793L773.075566 188.500388l-41.47153 23.987018c-11.776759-20.374515-45.951034-81.71481-56.644042-99.560573-13.43851-22.397516-32.512524-32.584774-65.892048-32.584774H416.882805z" fill="#A3D4FF" /><path d="M736.95054 407.996049L489.132858 334.156495l59.461794-34.391025-89.301066-154.326113c-15.028011-26.010019-21.675016-37.859028-47.757285-47.107035l-10.548507-3.757003V64.519297h208.080152c38.292528 0 62.785296 12.427009 79.475058 40.24328 6.502505 10.837508 21.675016 37.570028 34.824526 61.051294l14.45001 24.926269 59.534044-34.391025zM568.535666 325.125238l145.439357 43.350032 35.185776-147.534608-23.336767 13.51076-7.875256-13.72751c-4.768503-8.164256-13.07726-23.047767-22.108516-39.015029-13.14951-23.336767-28.105271-49.852537-34.391026-60.401044-8.959007-14.955761-21.241516-24.854018-52.309038-24.854018h-144.500106a208.441403 208.441403 0 0 1 22.108517 33.451774l0.36125 0.650251 104.762577 181.058632z" fill="#2A5082" /><path d="M902.475411 607.478445c22.469766-24.420518 22.903267-48.552036 12.716009-66.181049l-84.893812-147.245607-154.976363 89.517815 95.297819 165.019121s116.900586-24.781768 131.856347-41.11028z" fill="#FFFFFF" /><path d="M762.671559 666.434488L653.718479 477.71735l182.359133-105.268327 92.841318 160.828618c15.244761 26.443519 9.753757 57.800042-14.45001 84.821562-16.617512 18.062513-103.606576 38.148028-140.237353 45.878783z m-65.747549-177.08488l81.57031 141.321104c49.563536-11.054258 103.751076-26.515769 112.421083-34.029775 15.028011-16.400762 18.785014-33.235024 10.548507-47.468285l-76.946306-133.445848z" fill="#2A5082" /><path d="M907.460665 598.736189c-15.822762 18.207013-43.350032 19.652014-74.634305 19.652014H638.401468v-44.650533L489.349608 714.697523l149.05186 141.032104v-47.901785h113.793833c26.154519-0.4335 43.350032-12.643759 59.678544-41.543781L907.460665 599.675439z" fill="#A3D4FF" /><path d="M654.224229 892.504904l-187.850137-177.73513 187.850137-177.735131v65.530798h178.529881c27.52727 0 51.297538-1.083751 62.713046-14.45001l27.81627-31.790024v47.468285l-97.609821 170.365625c-19.724264 34.174275-41.61603 48.985536-73.189304 49.491286h-98.260072zM512.397375 714.697523l110.181331 104.256827v-27.02152h129.399845c17.195513 0 30.200522-5.852254 46.240034-33.596275l72.250053-126.076342a282.208707 282.208707 0 0 1-37.714528 1.878501H622.578706V610.512947z" fill="#2A5082" /><path d="M211.981655 758.625556c9.970507 31.645523 30.634022 49.635786 51.008538 49.635786h169.715374V618.388203H242.326677s-36.992027 119.140337-30.345022 140.237353z" fill="#FFFFFF" /><path d="M448.528329 824.084104H262.917943c-28.900021 0-54.47654-23.842517-66.036549-60.690045-7.225005-23.336767 18.785014-112.493332 30.345022-149.70211l3.468003-11.126508h217.83391z m-221.374163-70.010302c8.381006 26.515769 23.987018 38.364778 36.125027 38.364778H416.882805v-158.227615H254.031186c-15.606011 50.791787-29.189021 108.013829-26.87702 119.862837z" fill="#2A5082" /><path d="M215.232908 766.862062c-4.046003-29.478022 3.684753-48.985536 19.290764-76.007056l96.670571-167.403373 41.47153 23.987018L325.125238 347.811755l-196.664644 58.594793 41.47153 23.987017c-11.776759 20.374515-46.529034 79.908559-56.644041 98.115572-12.716009 22.831017-10.693008 43.350032 5.996754 72.250053l95.73132 166.175122z" fill="#A3D4FF" /><path d="M209.525153 788.537078L105.629577 608.995696c-19.724264-34.174275-21.675016-60.545544-6.141254-88.217315 7.225005-13.22176 27.74402-48.335285 42.627531-73.911804l6.213505-10.765258-59.606294-34.391025 247.889932-73.839554 59.967543 251.574684-59.606293-34.391025-88.723065 153.675863c-14.450011 24.998518-20.735765 41.25478-17.340013 65.964298l1.445001 10.548508z m-41.32703-377.506527l23.409017 13.51076-22.108516 38.220278c-14.450011 25.504269-35.113526 60.401044-42.338531 73.406054-8.381006 15.100261-10.115007 28.900021 5.924504 57.005291l71.383053 123.619841a204.6844 204.6844 0 0 1 16.400762-33.885275L325.125238 501.848868l23.336767 13.510759L313.56523 367.752769zM432.705567 460.088337h31.645523v31.645523h-31.645523zM495.996613 460.088337h31.645523v31.645523h-31.645523zM559.28766 460.088337h31.645523v31.645523h-31.645523z" fill="#2A5082" /><path d="M983.61222 452.140831a472.009596 472.009596 0 0 0-252.297184-387.549284l14.45001-28.03302a503.655119 503.655119 0 0 1 269.420448 413.559303zM513.625626 985.490722a504.449869 504.449869 0 0 1-261.906442-73.333804l16.400762-27.02152a470.925845 470.925845 0 0 0 462.400339 15.678262 480.101602 480.101602 0 0 0 52.814789-31.934524l18.062513 25.937769a512.975376 512.975376 0 0 1-56.355041 34.029775 504.377619 504.377619 0 0 1-231.41692 56.644042zM41.760531 481.907853H10.115007A505.75037 505.75037 0 0 1 252.875185 52.164538L269.131447 79.475058A473.960347 473.960347 0 0 0 41.760531 481.907853z" fill="#BCC0C4" /></svg>