<?xml version="1.0" standalone="no"?><!DOCTYPE svg PUBLIC "-//W3C//DTD SVG 1.1//EN" "http://www.w3.org/Graphics/SVG/1.1/DTD/svg11.dtd"><svg class="icon" width="200px" height="200.00px" viewBox="0 0 1024 1024" version="1.1" xmlns="http://www.w3.org/2000/svg"><path d="M11.415508 405.395047h141.826854v31.501023H11.415508z" fill="#BCC0C4" /><path d="M689.048755 610.296197m-315.154731 0a315.154731 315.154731 0 1 0 630.309462 0 315.154731 315.154731 0 1 0-630.309462 0Z" fill="#E9EAEB" /><path d="M411.825302 959.697453a63.146546 63.146546 0 0 0 89.301065 0l375.700275-375.700275a61.846045 61.846045 0 0 0 17.051013-44.939533v-250.707684L776.037818 169.065124H525.257885a63.146546 63.146546 0 0 0-44.939533 18.785014l-375.700275 375.700275a63.146546 63.146546 0 0 0 0 89.301065z" fill="#FFFFFF" /><path d="M456.548084 993.943978a78.391307 78.391307 0 0 1-55.77704-23.120017l-50.069287-50.069287 22.253016-22.253016 50.069287 50.069287a47.396035 47.396035 0 0 0 67.048049 0l375.700275-375.700275a46.745784 46.745784 0 0 0 12.427009-33.740775V294.852466l-23.481267-23.625767 22.325266-22.253017L909.628166 281.775206v257.354689a77.813307 77.813307 0 0 1-21.675016 56.066041l-375.700275 375.700275a78.391307 78.391307 0 0 1-55.704791 23.047767zM303.450222 873.57539L93.563819 663.616736a78.897058 78.897058 0 0 1 0-111.554082l252.297184-252.369434L368.47527 322.018486 115.600085 574.315671a47.396035 47.396035 0 0 0 0 67.048049l209.886403 209.958654zM415.437804 274.550201l-22.253016-22.253016 76.007056-75.862556a79.475058 79.475058 0 0 1 55.77704-23.120017h257.788189l27.960771 29.405772-22.831017 21.675016-18.640514-19.579765h-244.205178A47.757285 47.757285 0 0 0 491.30036 198.687646z" fill="#2A5082" /><path d="M717.673329 237.675876m22.83656 22.83656l60.948584 60.948584q22.836561 22.836561 0 45.673121l-17.114649 17.114648q-22.836561 22.836561-45.673121 0l-60.948583-60.948583q-22.836561-22.836561 0-45.673121l17.114648-17.114649q22.836561-22.836561 45.673121 0Z" fill="#FFFFFF" /><path d="M761.443308 409.44105a47.757285 47.757285 0 0 1-34.029775-14.08876l-60.906795-60.906795a48.046285 48.046285 0 0 1 0-67.9873l17.123263-17.123262a48.046285 48.046285 0 0 1 67.9873 0l60.906794 60.906794a48.046285 48.046285 0 0 1 0 67.9873l-17.123262 17.123263a47.757285 47.757285 0 0 1-33.957525 14.08876z m-11.704509-36.125027a16.617512 16.617512 0 0 0 23.409017 0l17.123263-17.123262a16.617512 16.617512 0 0 0 0-23.409017L729.725534 271.587949a16.617512 16.617512 0 0 0-23.409017 0L688.832005 289.000212a16.617512 16.617512 0 0 0 0 23.409017l60.906794 60.906794z" fill="#2A5082" /><path d="M619.905454 759.275806l-80.558809 3.034502-59.750794 54.11529-63.652296-49.419036-80.558809 3.034502-17.051013-78.752558-63.652296-49.491286 37.642277-71.238552-16.978762-78.824808 74.634304-30.417272 37.642278-71.310802 76.729556 24.709518 74.634305-30.417273 42.988781 68.20405 76.729556 24.709519-10.982008 79.836308 42.916532 68.2763-59.750794 54.11529-10.982008 79.836308z" fill="#A3D4FF" /><path d="M480.390602 837.016863l-69.576801-54.04304-88.072815 3.323503-18.568263-86.122063-69.576801-54.04304 41.11028-77.885557-18.568264-86.122063 81.57031-33.235024 41.11028-77.885557 83.882312 26.949269 81.570309-33.235024L592.450434 439.280322l83.882311 26.949269-12.210259 87.278064 46.890285 74.562055-65.025048 59.172793-12.282509 87.278064-88.000564 3.323503zM421.073308 751.40055l57.800043 44.867283 54.187539-49.130036 73.044804-2.962252 9.970507-72.250053 54.18754-49.057786-38.942779-61.918295 9.970508-72.250053-69.649051-22.397516-38.942779-62.424046-67.698299 27.59952-69.649051-22.397516-34.102025 65.025047-67.6983 27.59952 15.389261 71.527553-34.102025 65.025047 57.800043 44.867283 15.389261 71.455303z" fill="#2A5082" /><path d="M559.86566 484.219855l-174.989628 231.200169" fill="#FFFFFF" /><path d="M372.333423 705.933592L547.351951 474.682848l25.114118 19.008989-175.018528 231.250744z" fill="#2A5082" /><path d="M499.898116 626.046709m22.253016 0l18.496014 0q22.253016 0 22.253016 22.253016l0 34.318775q0 22.253016-22.253016 22.253016l-18.496014 0q-22.253016 0-22.253016-22.253016l0-34.318775q0-22.253016 22.253016-22.253016Z" fill="#FFFFFF" /><path d="M540.719396 720.549778h-18.568264A38.003528 38.003528 0 0 1 484.075355 682.6185v-34.318775a38.003528 38.003528 0 0 1 38.003527-38.003528h18.568264a38.003528 38.003528 0 0 1 38.003528 38.003528v34.318775a38.003528 38.003528 0 0 1-37.931278 37.931278z m-18.568264-78.752558a6.502505 6.502505 0 0 0-6.502504 6.502505v34.318775a6.502505 6.502505 0 0 0 6.502504 6.502505h18.568264a6.502505 6.502505 0 0 0 6.502505-6.502505v-34.318775a6.502505 6.502505 0 0 0-6.502505-6.502505z" fill="#2A5082" /><path d="M389.644535 484.219855m22.253017 0l18.496013 0q22.253016 0 22.253017 22.253016l0 34.318775q0 22.253016-22.253017 22.253016l-18.496013 0q-22.253016 0-22.253017-22.253016l0-34.318775q0-22.253016 22.253017-22.253016Z" fill="#FFFFFF" /><path d="M430.393565 578.722924H411.825302a38.003528 38.003528 0 0 1-38.003528-38.003528V506.472871A38.003528 38.003528 0 0 1 411.825302 468.469343h18.568263a38.003528 38.003528 0 0 1 38.003528 38.003528v34.318775a38.003528 38.003528 0 0 1-38.003528 37.931278zM411.825302 499.970366a6.502505 6.502505 0 0 0-6.502505 6.502505v34.318775a6.502505 6.502505 0 0 0 6.502505 6.502505h18.568263a6.502505 6.502505 0 0 0 6.502505-6.502505V506.472871a6.502505 6.502505 0 0 0-6.502505-6.502505zM137.491851 846.62612h283.653707v31.501023H137.491851z" fill="#2A5082" /><path d="M326.570239 42.988781h362.406266v31.501024H326.570239z" fill="#BCC0C4" /><path d="M279.318705 247.817682h252.152684v31.501023h-252.152684zM216.244408 247.817682h31.501023v31.501023h-31.501023zM153.242362 247.817682h31.501023v31.501023h-31.501023z" fill="#2A5082" /><path d="M263.568193 42.988781h31.501023v31.501024h-31.501023z" fill="#BCC0C4" /><path d="M881.956396 476.850349v-31.862273a106.352078 106.352078 0 0 0 106.424328-106.424328 106.496578 106.496578 0 0 0-205.984901-37.786778l-29.478022-11.198758A137.997601 137.997601 0 1 1 881.956396 476.850349zM74.489805 846.62612h31.501023v31.501023h-31.501023zM11.415508 846.62612h31.501023v31.501023H11.415508z" fill="#2A5082" /></svg>