<?xml version="1.0" standalone="no"?><!DOCTYPE svg PUBLIC "-//W3C//DTD SVG 1.1//EN" "http://www.w3.org/Graphics/SVG/1.1/DTD/svg11.dtd"><svg class="icon" width="200px" height="200.00px" viewBox="0 0 1024 1024" version="1.1" xmlns="http://www.w3.org/2000/svg"><path d="M556.686658 574.749171m-437.474071 0a437.47407 437.47407 0 1 0 874.948141 0 437.47407 437.47407 0 1 0-874.948141 0Z" fill="#E9EAEB" /><path d="M619.052903 708.780244l71.469753-71.469752 267.903196 267.903196-71.469752 71.476977z" fill="#FFFFFF" /><path d="M886.94165 1001.891484L593.823185 708.700769 690.566006 611.957948l293.118464 293.262965zM644.325972 708.700769l242.615678 242.687928 46.240033-46.240034-242.687927-242.687928z" fill="#2A5082" /><path d="M588.599506 596.373612l25.236944-25.236944 71.419177 71.419178-25.236944 25.236943zM552.857405 632.086813l25.236943-25.236944 71.419178 71.419178-25.236944 25.236943z" fill="#2A5082" /><path d="M360.094264 360.527764m-330.327242 0a330.327242 330.327242 0 1 0 660.654484 0 330.327242 330.327242 0 1 0-660.654484 0Z" fill="#A3D4FF" /><path d="M360.094264 708.773019A348.245255 348.245255 0 1 1 708.050519 360.527764a348.606505 348.606505 0 0 1-347.956255 348.245255z m0-660.726734A312.481479 312.481479 0 1 0 672.575743 360.527764 312.842729 312.842729 0 0 0 360.094264 48.046285z" fill="#2A5082" /><path d="M360.094264 360.527764m-258.94419 0a258.94419 258.94419 0 1 0 517.888379 0 258.94419 258.94419 0 1 0-517.888379 0Z" fill="#FFFFFF" /><path d="M360.094264 637.317717a276.789953 276.789953 0 1 1 276.789952-276.717703 277.078953 277.078953 0 0 1-276.789952 276.717703z m0-517.88838A241.098427 241.098427 0 1 0 601.12044 360.600014a241.315177 241.315177 0 0 0-241.026176-241.098426z" fill="#2A5082" /><path d="M195.075143 320.139984l-34.680026-8.453256a206.346151 206.346151 0 0 1 189.94539-156.276864l1.661751 35.691526A170.437875 170.437875 0 0 0 195.075143 320.139984zM160.539618 409.44105a206.418401 206.418401 0 0 1-5.852255-48.841036h35.691526A170.437875 170.437875 0 0 0 195.075143 400.987794z" fill="#2A5082" /></svg>