<?xml version="1.0" standalone="no"?><!DOCTYPE svg PUBLIC "-//W3C//DTD SVG 1.1//EN" "http://www.w3.org/Graphics/SVG/1.1/DTD/svg11.dtd"><svg class="icon" width="200px" height="200.00px" viewBox="0 0 1024 1024" version="1.1" xmlns="http://www.w3.org/2000/svg"><path d="M387.332534 229.899668h327.79849V344.632752H387.332534z" fill="#E9EAEB" /><path d="M567.596416 131.567346v98.332322h147.534608V344.632752h180.263882V131.567346H567.596416z" fill="#A3D4FF" /><path d="M469.264094 180.697382h-32.801524V16.834262h377.000776v65.530798h-32.801524V49.635786h-311.397728v131.061596z" fill="#BCC0C4" /><path d="M731.531786 344.632752h-32.801524V246.30043H403.733296V344.632752h-32.801524V213.498906h360.600014V344.632752z" fill="#2A5082" /><path d="M911.795668 344.632752h-32.801524V147.968108H583.997178v65.530798h147.534608V344.632752h-32.801524V246.30043H551.195654V115.166584h360.600014V344.632752zM108.73633 492.09511h114.733084v32.801524H108.73633zM43.133282 492.09511h32.801524v32.801524H43.133282z" fill="#2A5082" /><path d="M317.322232 613.475199L196.447894 344.632752H43.133282v-32.801524h174.556127l129.544345 288.205461-29.911522 13.43851zM813.824596 754.290552h-426.275312v-32.729274h426.275312a63.291046 63.291046 0 0 0 60.184294-43.350031l83.665561-254.103436a8.525506 8.525506 0 0 0-2.023001-7.225006 15.317011 15.317011 0 0 0-11.126508-6.647005H305.400974v-32.873774h639.196218A47.829535 47.829535 0 0 1 982.60072 397.375291a40.46003 40.46003 0 0 1 6.647005 36.558527l-84.026812 254.320186a96.02032 96.02032 0 0 1-91.396317 66.036548z" fill="#2A5082" /><path d="M125.137092 590.427432h262.195442v32.801524H125.137092z" fill="#2A5082" /><path d="M75.934806 688.759754h180.263882v32.801524H75.934806zM469.264094 442.965074h32.801524v229.466169h-32.801524zM600.39794 442.965074h32.801524v229.466169H600.39794zM731.459536 442.965074h32.801524v229.466169h-32.801524z" fill="#BCC0C4" /><path d="M420.134058 590.427432h409.73005v32.801524H420.134058zM387.332534 492.09511h475.260848v32.801524H387.332534z" fill="#BCC0C4" /><path d="M846.19262 869.023636H469.625344a68.92655 68.92655 0 0 1-64.013547-42.26628c-13.36626-28.900021-63.796797-159.311367-65.964298-164.874621L369.848021 650.250476c0.50575 1.372751 52.164538 135.035349 65.025048 162.92387a36.125026 36.125026 0 0 0 34.752275 23.120017h376.928526z" fill="#2A5082" /><path d="M436.60707 951.099697m-49.274536 0a49.274536 49.274536 0 1 0 98.549072 0 49.274536 49.274536 0 1 0-98.549072 0Z" fill="#A3D4FF" /><path d="M436.60707 1016.774995a65.675298 65.675298 0 1 1 65.675298-65.675298 65.747548 65.747548 0 0 1-65.675298 65.675298z m0-98.549072a32.873774 32.873774 0 1 0 33.018274 32.873774 32.946024 32.946024 0 0 0-33.018274-32.873774z" fill="#2A5082" /><path d="M814.619347 951.099697m-49.274536 0a49.274536 49.274536 0 1 0 98.549072 0 49.274536 49.274536 0 1 0-98.549072 0Z" fill="#A3D4FF" /><path d="M814.619347 1016.774995a65.675298 65.675298 0 1 1 65.675298-65.675298 65.747548 65.747548 0 0 1-65.675298 65.675298z m0-98.549072a32.873774 32.873774 0 1 0 32.873774 32.873774 32.946024 32.946024 0 0 0-32.873774-32.873774z" fill="#2A5082" /></svg>