<?xml version="1.0" standalone="no"?><!DOCTYPE svg PUBLIC "-//W3C//DTD SVG 1.1//EN" "http://www.w3.org/Graphics/SVG/1.1/DTD/svg11.dtd"><svg class="icon" width="200px" height="200.00px" viewBox="0 0 1024 1024" version="1.1" xmlns="http://www.w3.org/2000/svg"><path d="M515.865378 538.190644m-474.755098 0a474.755098 474.755098 0 1 0 949.510196 0 474.755098 474.755098 0 1 0-949.510196 0Z" fill="#E9EAEB" /><path d="M499.536866 374.472024H221.157412v49.130036l130.989346 130.989346v65.458548h294.707966v-65.458548l130.989346-130.989346v-49.130036H499.536866z" fill="#FFFFFF" /><path d="M658.414732 566.151415l-23.120017-23.120017 126.148593-126.220843V390.872786H237.558174v25.937769l126.148592 126.220843-23.120017 23.120017-135.757849-135.75785v-72.250053h589.343682v72.250053L658.414732 566.151415z" fill="#2A5082" /><path d="M335.818246 456.331334h32.729274v163.71862h-32.729274zM630.453962 456.331334h32.729274v163.71862h-32.729274z" fill="#2A5082" /><path d="M646.854724 374.472024v-101.872574c0-44.072532-112.132082-78.174557-147.317858-78.174558s-147.390108 34.102025-147.390108 78.174558v101.872574z" fill="#A3D4FF" /><path d="M663.255486 390.872786H335.818246V272.59945c0-60.112044 128.677344-94.575319 163.71862-94.57532S663.255486 212.487406 663.255486 272.59945zM368.47527 358.143512h261.978692V272.59945c0-27.45502-94.93657-61.846045-130.989346-61.846046S368.47527 245.14443 368.47527 272.59945z" fill="#2A5082" /><path d="M507.701122 206.779651c42.194031 0 73.695054-34.535525 73.695054-77.090806V104.040076c0-42.555281-31.501023-77.090806-73.695054-77.090806S434.006068 61.412545 434.006068 104.040076V130.050095c0 42.194031 31.501023 76.729556 73.695054 76.729556z" fill="#FFFFFF" /><path d="M507.701122 223.180413c-50.575037 0-90.023566-41.03803-90.023566-93.419318V104.040076c0-52.381288 39.520779-93.419318 90.023566-93.419318S597.724688 51.586538 597.724688 104.040076V130.050095c0 52.092288-39.520779 93.130318-90.023566 93.130318z m0-179.830381a58.450293 58.450293 0 0 0-57.294292 60.690044V130.050095a57.366542 57.366542 0 1 0 114.588584 0v-26.010019A58.450293 58.450293 0 0 0 507.701122 43.350032z" fill="#2A5082" /><path d="M745.114796 734.638538v-47.396035a81.85931 81.85931 0 1 0-163.71862 0 81.85931 81.85931 0 1 0-163.71862 0 81.85931 81.85931 0 1 0-163.71862 0v47.468285a82.36506 82.36506 0 0 0-81.85931 83.521061v31.067523h654.87448v-31.067523a82.36506 82.36506 0 0 0-81.85931-83.593311z" fill="#FFFFFF" /><path d="M434.006068 734.638538h-32.729274v-47.396035a65.530798 65.530798 0 1 0-130.989346 0v47.468285h-32.729274v-47.468285a98.260072 98.260072 0 1 1 196.447894 0z" fill="#2A5082" /><path d="M597.724688 734.638538H564.995414v-47.396035a65.530798 65.530798 0 1 0-130.989346 0v47.468285h-32.729274v-47.468285a98.260072 98.260072 0 1 1 196.447894 0z" fill="#2A5082" /><path d="M761.443308 734.638538h-32.729274v-47.396035a65.530798 65.530798 0 1 0-130.989346 0v47.468285H564.995414v-47.468285a98.260072 98.260072 0 1 1 196.447894 0zM352.146758 849.299372h-32.729274v-31.067523a65.530798 65.530798 0 1 0-130.989346 0v31.067523h-32.729274v-31.067523a98.260072 98.260072 0 1 1 196.447894 0z" fill="#2A5082" /><path d="M515.865378 849.299372h-32.729274v-31.067523a65.530798 65.530798 0 1 0-130.989346 0v31.067523h-32.729274v-31.067523a98.260072 98.260072 0 1 1 196.447894 0z" fill="#2A5082" /><path d="M679.583998 849.299372h-32.729274v-31.067523a65.530798 65.530798 0 1 0-130.989346 0v31.067523h-32.729274v-31.067523a98.260072 98.260072 0 1 1 196.447894 0z" fill="#2A5082" /><path d="M843.302618 849.299372h-32.729274v-31.067523a65.530798 65.530798 0 1 0-130.989346 0v31.067523h-32.729274v-31.067523a98.260072 98.260072 0 1 1 196.447894 0zM122.96959 849.299372h769.463064v32.729274H122.96959z" fill="#2A5082" /></svg>