<?xml version="1.0" standalone="no"?><!DOCTYPE svg PUBLIC "-//W3C//DTD SVG 1.1//EN" "http://www.w3.org/Graphics/SVG/1.1/DTD/svg11.dtd"><svg class="icon" width="200px" height="200.00px" viewBox="0 0 1024 1024" version="1.1" xmlns="http://www.w3.org/2000/svg"><path d="M856.596627 451.418331a410.2358 410.2358 0 0 1-410.2358 410.2358C219.712411 861.726381 36.125026 612.030198 36.125026 451.418331a410.2358 410.2358 0 1 1 820.543851 0z" fill="#E9EAEB" /><path d="M825.673605 768.812813h30.995272v201.288648h-30.995272zM500.548367 768.812813h30.995272v201.288648h-30.995272z" fill="#2A5082" /><path d="M361.178015 226.937416h603.793692v495.418613H361.178015z" fill="#FFFFFF" /><path d="M980.433218 737.88979H345.716503V598.519438h30.923023v108.37508h572.870669V242.398928H376.639526v185.827136h-30.923023v-216.750159h634.716715v526.413885z" fill="#2A5082" /><path d="M198.615395 424.469061c39.882029 0 69.649051-32.657024 69.649051-72.900304V327.29274c0-40.243279-29.767022-72.900303-69.649051-72.900304s-69.649051 32.657024-69.649051 72.900304v24.276017c0 40.243279 29.983772 72.900303 69.649051 72.900304z" fill="#FFFFFF" /><path d="M198.615395 439.930572a85.905313 85.905313 0 0 1-85.110562-88.361815V327.29274a85.182812 85.182812 0 1 1 170.293375 0v24.276017a85.905313 85.905313 0 0 1-85.182813 88.361815z m0-170.076624A55.27129 55.27129 0 0 0 144.500106 327.29274v24.276017a55.27129 55.27129 0 0 0 54.18754 57.366543 55.27129 55.27129 0 0 0 54.187539-57.366543V327.29274a55.27129 55.27129 0 0 0-54.25979-57.438792z" fill="#2A5082" /><path d="M516.009878 474.682848H159.889367C86.700064 474.682848 36.125026 498.091865 36.125026 567.524166v139.370352a63.218796 63.218796 0 0 0 61.918296 61.918295h201.216397v-216.750159H438.557821c46.745784 0 77.452057-43.061032 77.452057-77.379806z" fill="#A3D4FF" /><path d="M314.721231 784.274324h-216.750159A78.463557 78.463557 0 0 1 20.591265 706.894518V567.524166c0-72.250053 46.890284-108.375079 139.370352-108.37508h371.509772v15.533762c0 43.928032-38.148028 92.913568-92.913568 92.913568H314.721231zM159.889367 490.144359c-96.02032 0-108.375079 41.39928-108.375079 77.379807v139.370352a47.685035 47.685035 0 0 0 46.456784 46.456784h185.827136v-216.750159H438.557821a63.941297 63.941297 0 0 0 59.461794-46.456784z" fill="#2A5082" /><path d="M113.504833 567.524166h185.754886v418.038806H113.504833z" fill="#A3D4FF" /><path d="M283.798208 567.524166h30.995273v418.038806h-30.995273zM190.88464 737.88979h30.995273v247.745432h-30.995273zM97.971072 567.524166h30.995272v418.038806h-30.995272zM539.202145 660.437734H423.09631v-30.923023h100.644324l46.456784-61.990545h91.829817l92.913568-154.759614h61.918295l46.456784-77.452056h39.737529v30.995272h-22.180766l-46.456784 77.379807h-61.918295L679.583998 598.519438h-93.925069l-46.456784 61.918296zM469.553094 954.639949h92.913568v30.995273H469.553094zM794.678332 954.639949h92.913568v30.995273h-92.913568z" fill="#2A5082" /><path d="M330.254992 149.55761h665.711987v108.375079H330.254992z" fill="#E9EAEB" /><path d="M1011.500741 273.3942H314.721231V134.096098H1011.500741z m-665.784238-30.923022h634.716715V165.019121H345.716503z" fill="#2A5082" /></svg>