<?xml version="1.0" standalone="no"?><!DOCTYPE svg PUBLIC "-//W3C//DTD SVG 1.1//EN" "http://www.w3.org/Graphics/SVG/1.1/DTD/svg11.dtd"><svg class="icon" width="200px" height="200.00px" viewBox="0 0 1024 1024" version="1.1" xmlns="http://www.w3.org/2000/svg"><path d="M584.647428 542.164397m-376.495026 0a376.495026 376.495026 0 1 0 752.990052 0 376.495026 376.495026 0 1 0-752.990052 0Z" fill="#E9EAEB" /><path d="M575.688422 104.473577v720.405277h144.138855V104.473577H575.688422z" fill="#FFFFFF" /><path d="M79.402808 328.593241h32.006774v96.02032h-32.006774z" fill="#BCC0C4" /><path d="M47.396035 360.672264h96.02032v32.006774H47.396035zM319.561984 88.506315h32.006773v96.02032h-32.006773z" fill="#BCC0C4" /><path d="M287.555211 120.513088h96.02032v32.006774H287.555211zM895.900656 184.526635h32.006774v96.02032H895.900656z" fill="#BCC0C4" /><path d="M863.893883 216.533409h96.02032v32.006773h-96.02032z" fill="#BCC0C4" /><path d="M15.389261 808.911592h32.006774v32.006774H15.389261zM607.695195 840.918366h-47.974035V88.506315h176.073379v416.232555h-32.006774V120.513088H591.727933v688.398504h15.967262v32.006774z" fill="#2A5082" /><path d="M159.455867 536.745643h144.066605v288.133211H159.455867z" fill="#E9EAEB" /><path d="M319.561984 840.918366H143.488605V520.706131h176.073379zM175.495379 809.200593H287.555211V552.785155H175.495379z" fill="#2A5082" /><path d="M367.608269 312.625979h144.066606v512.325125H367.608269z" fill="#FFFFFF" /><path d="M527.425386 840.918366H351.568757V296.586467H527.425386zM383.575531 809.200593H495.635363V328.593241H383.575531z" fill="#2A5082" /><path d="M79.402808 808.911592h528.292387v32.006774H79.402808z" fill="#2A5082" /><path d="M829.430607 424.685811h-8.308756C795.400833 552.785155 647.143724 635.800466 647.143724 781.095322a178.09638 178.09638 0 1 0 356.265011 0c0-145.294856-148.329359-228.310167-173.978128-356.409511z" fill="#A3D4FF" /><path d="M825.240104 975.375714a194.569393 194.569393 0 0 1-194.135892-194.497142c0-85.977563 47.685035-150.20786 93.925069-212.270656 36.125026-48.263035 69.721301-93.925069 80.414309-147.317857l2.601002-12.86051h34.535525l2.601002 12.86051c10.693008 53.465039 44.578283 98.982572 80.414309 147.245607 46.167784 62.062795 93.925069 126.220842 93.925069 212.198406A194.641643 194.641643 0 0 1 825.240104 975.375714z m0-508.929372c-17.195513 44.000282-46.240034 83.087561-74.562054 121.163338-45.011783 60.617794-87.567064 117.839836-87.567064 193.196642a162.129119 162.129119 0 1 0 324.258237 0c0-75.356805-42.483031-132.578847-87.494814-193.052142-28.322021-37.931278-57.366542-77.018556-74.634305-121.018838z" fill="#2A5082" /><path d="M831.887109 920.971425a144.500106 144.500106 0 0 1-144.066605-144.066606h32.006773A112.204332 112.204332 0 0 0 831.887109 888.675651zM847.854371 824.878854h-32.006773a48.118535 48.118535 0 0 1-48.046286-48.046285h32.006774a16.039512 16.039512 0 0 0 16.039512 16.039512h32.006773a16.039512 16.039512 0 0 0 16.039512-16.039512v-24.926268a15.967262 15.967262 0 0 0-10.909758-15.172511l-52.309039-17.412263a47.974035 47.974035 0 0 1-32.801524-45.589784V664.700487a48.118535 48.118535 0 0 1 48.046286-48.046285h32.006773A48.118535 48.118535 0 0 1 895.900656 664.700487h-32.006773a16.039512 16.039512 0 0 0-16.039512-16.039512h-32.006773A16.039512 16.039512 0 0 0 799.808086 664.700487v8.959006a15.967262 15.967262 0 0 0 10.909758 15.172512l52.236788 17.412262a47.974035 47.974035 0 0 1 32.873774 45.589784v24.926268a48.118535 48.118535 0 0 1-47.974035 48.118535z" fill="#2A5082" /><path d="M815.847598 584.791928h32.006773v48.046286h-32.006773zM815.847598 808.911592h32.006773v48.046286h-32.006773z" fill="#2A5082" /></svg>