<?xml version="1.0" standalone="no"?><!DOCTYPE svg PUBLIC "-//W3C//DTD SVG 1.1//EN" "http://www.w3.org/Graphics/SVG/1.1/DTD/svg11.dtd"><svg class="icon" width="200px" height="200.00px" viewBox="0 0 1024 1024" version="1.1" xmlns="http://www.w3.org/2000/svg"><path d="M519.622381 575.110421m-436.10132 0a436.101319 436.101319 0 1 0 872.202639 0 436.101319 436.101319 0 1 0-872.202639 0Z" fill="#E9EAEB" /><path d="M778.34982 155.193114H261.545192L116.178085 278.523954v38.220278h807.538842v-38.220278l-145.367107-123.33084z" fill="#FFFFFF" /><path d="M778.34982 316.744232h-32.295774v-26.515769L665.278487 193.341142v-38.148028h32.368024v26.443519l80.703309 96.887321v38.220278zM616.870952 316.744232h-32.295774v-29.694772l-32.295773-96.959571v-34.896775h32.295773v29.694771L616.870952 281.775206v34.969026zM293.840965 316.744232H261.545192v-38.220278l80.775559-96.887321v-26.443519h32.295773v38.148028L293.840965 290.228463v26.515769zM455.319833 316.744232h-32.295773V281.775206l32.295773-96.887321v-29.694771h32.368024v34.896775l-32.368024 96.959571v29.694772z" fill="#BCC0C4" /><path d="M229.249418 413.631553h581.396176v484.508855a96.887321 96.887321 0 0 1-96.887321 96.887321H326.136739a96.887321 96.887321 0 0 1-96.887321-96.887321V413.631553z" fill="#FFFFFF" /><path d="M713.758273 1011.500741H326.136739a113.215833 113.215833 0 0 1-113.071333-113.071333V397.375291h613.7642v500.692867A113.215833 113.215833 0 0 1 713.758273 1011.500741zM245.65018 429.743315v468.397093a80.847809 80.847809 0 0 0 80.775559 80.775559h387.332534A80.847809 80.847809 0 0 0 794.750582 898.140408V429.743315z" fill="#2A5082" /><path d="M342.320751 26.010019h355.32576A96.887321 96.887321 0 0 1 794.750582 122.82509v32.295774H245.65018V122.82509A96.887321 96.887321 0 0 1 342.320751 26.010019z" fill="#E9EAEB" /><path d="M810.645594 171.377126H229.249418V122.82509A113.215833 113.215833 0 0 1 342.320751 9.826007h355.32576A113.215833 113.215833 0 0 1 810.645594 122.82509z m-549.100402-32.295774h516.876878V122.82509A80.847809 80.847809 0 0 0 697.646511 42.121781H342.320751A80.847809 80.847809 0 0 0 261.545192 122.82509z" fill="#2A5082" /><path d="M116.178085 316.671982v96.959571a84.532562 84.532562 0 0 0 80.775559 80.703309 84.532562 84.532562 0 0 0 80.703309-80.703309 84.532562 84.532562 0 0 0 80.77556 80.703309 84.532562 84.532562 0 0 0 80.775559-80.703309A84.532562 84.532562 0 0 0 520.200381 494.334862a84.532562 84.532562 0 0 0 80.486559-80.703309 84.532562 84.532562 0 0 0 80.775559 80.703309 84.532562 84.532562 0 0 0 80.775559-80.703309 80.775559 80.775559 0 0 0 161.478869 0V316.671982z" fill="#A3D4FF" /><path d="M843.013617 510.518874a99.777323 99.777323 0 0 1-80.775559-45.662034 93.925069 93.925069 0 0 1-161.478868 0A99.777323 99.777323 0 0 1 520.200381 510.518874a99.777323 99.777323 0 0 1-80.775559-45.662034 99.777323 99.777323 0 0 1-80.775559 45.662034 99.777323 99.777323 0 0 1-80.775559-45.662034 99.777323 99.777323 0 0 1-80.77556 45.662034c-50.575037 0-96.887321-46.167784-96.887321-96.887321V300.56022h839.690115v113.071333c0 50.719537-46.240034 96.887321-96.887321 96.887321z m-96.959571-96.887321h32.295774a64.591547 64.591547 0 0 0 129.183095 0V332.855994H132.289847v80.775559a68.05955 68.05955 0 0 0 64.591547 64.591547 68.05955 68.05955 0 0 0 64.591548-64.591547h32.295773a68.05955 68.05955 0 0 0 64.591547 64.591547 68.05955 68.05955 0 0 0 64.591548-64.591547H455.175333a68.05955 68.05955 0 0 0 65.025048 64.591547 68.05955 68.05955 0 0 0 64.591547-64.591547h32.295774a64.591547 64.591547 0 0 0 129.183095 0z" fill="#2A5082" /><path d="M939.900938 332.855994H99.994073v-61.773795l155.626614-132.073097h528.725887l155.554364 132.000846zM132.289847 300.56022h775.243068v-14.45001l-135.107599-114.660834H267.325196L132.289847 286.03796zM261.545192 381.335779h32.295773v32.295774H261.545192zM423.02406 381.335779h32.295773v32.295774h-32.295773zM584.575178 381.335779h32.295774v32.295774h-32.295774zM746.054046 381.335779h32.295774v32.295774h-32.295774zM229.249418 833.548861h581.468426v32.295773H229.249418zM471.503845 898.140408h96.887321v32.295773H471.503845zM605.426543 780.416172l135.90235-135.895125 22.831017 22.831017-135.90235 135.902349zM693.614958 780.351147l49.455161-49.455162 22.831017 22.838242-49.447936 49.455161z" fill="#2A5082" /></svg>