<?xml version="1.0" standalone="no"?><!DOCTYPE svg PUBLIC "-//W3C//DTD SVG 1.1//EN" "http://www.w3.org/Graphics/SVG/1.1/DTD/svg11.dtd"><svg class="icon" width="200px" height="200.00px" viewBox="0 0 1024 1024" version="1.1" xmlns="http://www.w3.org/2000/svg"><path d="M113.432583 957.313201h787.670077v31.501023H113.432583z" fill="#2A5082" /><path d="M759.275806 500.476117h-31.501023V474.682848l-78.752558-94.50307v-37.208777h31.501023v25.793269l78.752558 94.575319v37.136528zM601.770691 500.476117h-31.501023v-28.900022l-31.501023-94.503069v-34.102025h31.501023v28.972271l31.501023 94.50307v34.029775zM286.68821 500.476117h-31.501023v-37.136528l78.824808-94.575319v-25.793269h31.501023v37.208777L286.68821 474.682848v25.793269zM444.265575 500.476117h-31.501023v-34.029775l31.501023-94.50307v-28.972271h31.501023v34.102025l-31.501023 94.503069v28.900022z" fill="#BCC0C4" /><path d="M176.434629 516.226628h661.593735v456.837085H176.434629z" fill="#FFFFFF" /><path d="M853.851125 988.814224H160.684118V500.476117h693.094757zM192.185141 957.313201h630.092711V532.04939H192.185141z" fill="#2A5082" /><path d="M176.434629 610.801947h220.507162v362.334016H176.434629z" fill="#E9EAEB" /><path d="M412.764552 988.814224H160.684118v-393.762788h252.080434zM192.185141 957.313201h189.078388V626.552459H192.185141z" fill="#2A5082" /><path d="M318.189233 784.057574h31.501023v63.002046h-31.501023zM644.195922 908.08924l127.998194-127.954844 22.267466 22.281917-127.998194 127.954843zM720.101827 908.13259l52.070614-52.048938 22.267466 22.274691-52.063388 52.048938z" fill="#2A5082" /><path d="M270.937698 232.71742h472.587597v110.253581H270.937698z" fill="#E9EAEB" /><path d="M759.275806 358.721513H255.187187V216.750159h504.088619z m-472.587596-31.501023h440.725323v-78.752558h-440.725323z" fill="#2A5082" /><path d="M113.432583 500.476117v94.575319a82.43731 82.43731 0 0 0 78.752558 78.752558 82.43731 82.43731 0 0 0 78.752557-78.752558 82.43731 82.43731 0 0 0 78.752558 78.752558 82.43731 82.43731 0 0 0 78.752558-78.752558 82.43731 82.43731 0 0 0 78.752557 78.752558 82.43731 82.43731 0 0 0 78.752558-78.752558A82.43731 82.43731 0 0 0 664.700487 673.803994a82.43731 82.43731 0 0 0 78.752558-78.752558 78.752558 78.752558 0 0 0 157.505115 0V500.476117z" fill="#A3D4FF" /><path d="M822.350102 689.554505a97.320821 97.320821 0 0 1-78.752557-44.506033 91.974317 91.974317 0 0 1-157.505116 0 97.320821 97.320821 0 0 1-78.752557 44.506033 97.320821 97.320821 0 0 1-78.752558-44.506033 97.320821 97.320821 0 0 1-78.752558 44.506033 97.320821 97.320821 0 0 1-78.752557-44.506033 97.320821 97.320821 0 0 1-78.752558 44.506033 98.260072 98.260072 0 0 1-94.647569-94.503069V484.725605H916.853172v110.325831a98.260072 98.260072 0 0 1-94.50307 94.503069z m-94.575319-94.503069h31.501023a63.002046 63.002046 0 1 0 126.004092 0V516.226628H129.183095v78.752558a66.397799 66.397799 0 0 0 63.002046 63.002046 66.397799 66.397799 0 0 0 63.002046-63.002046h31.501023a66.397799 66.397799 0 0 0 63.002046 63.002046 66.397799 66.397799 0 0 0 63.002046-63.002046h31.501023a66.397799 66.397799 0 0 0 63.002046 63.002046 66.397799 66.397799 0 0 0 63.002047-63.002046h31.501023a63.002046 63.002046 0 1 0 126.004092 0z" fill="#2A5082" /><path d="M916.853172 516.226628H97.682072V455.175333l167.981373-127.954843h483.208353L916.853172 455.175333z m-787.525577-31.501023h756.024553V471.070345l-147.101107-112.348832H276.284202L129.183095 471.070345zM255.187187 563.550413h31.501023v31.501023h-31.501023zM412.764552 563.550413h31.501023v31.501023h-31.501023zM570.269668 563.550413h31.501023v31.501023h-31.501023zM727.774783 563.550413h31.501023v31.501023h-31.501023zM34.680025 957.313201h47.251535v31.501023H34.680025zM932.603683 957.313201h47.251535v31.501023h-47.251535z" fill="#2A5082" /><path d="M507.267622 153.964863h-86.700064l-4.407253-8.597757a42.844281 42.844281 0 0 0-35.113526-23.409017 37.208777 37.208777 0 0 0-13.94426 2.962252l-14.955761 5.996755-5.780004-15.317011a71.816553 71.816553 0 0 0-66.325549-47.251535c-38.653778 0-70.805052 46.095534-70.877302 69.649051v15.678262H81.93156v-31.212023h97.826572c9.609257-38.437028 50.575037-85.327312 100.283073-85.327313a103.028575 103.028575 0 0 1 89.734566 54.40429c28.900021-5.274254 55.415791 11.849009 69.07105 30.995273h68.420801zM869.601637 216.966909h126.004092v31.501023h-126.004092zM1011.500741 153.964863h-42.338531l-3.684753-10.620758c-7.225005-21.024765-20.013265-28.466521-43.855782-25.576519l-10.331758 1.228251-5.202003-8.959006a51.297538 51.297538 0 0 0-45.228533-25.070769c-19.435264 0-52.092288 7.225005-52.453539 53.320539v15.678262H712.024272v-31.501023h66.036548c6.285755-42.410781 37.497777-68.998801 82.798561-68.998801a82.943061 82.943061 0 0 1 66.759048 32.295774 63.435546 63.435546 0 0 1 63.146547 36.703027H1011.500741zM649.022225 122.46384h31.501023v31.501023h-31.501023zM586.020179 122.46384h31.501023v31.501023h-31.501023zM18.929514 122.46384h31.501023v31.501023H18.929514zM806.527341 216.966909h31.501023v31.501023h-31.501023zM144.933606 264.218444h78.752558v31.501023h-78.752558zM81.93156 264.218444h31.501023v31.501023h-31.501023zM18.929514 264.218444h31.501023v31.501023H18.929514z" fill="#BCC0C4" /></svg>