<?xml version="1.0" standalone="no"?><!DOCTYPE svg PUBLIC "-//W3C//DTD SVG 1.1//EN" "http://www.w3.org/Graphics/SVG/1.1/DTD/svg11.dtd"><svg class="icon" width="200px" height="200.00px" viewBox="0 0 1024 1024" version="1.1" xmlns="http://www.w3.org/2000/svg"><path d="M454.380583 171.304875a367.247019 367.247019 0 1 0 367.247019 367.247019 367.247019 367.247019 0 0 0-367.247019-367.247019z m0 638.762718a271.443449 271.443449 0 1 1 271.443449-271.443448 271.443449 271.443449 0 0 1-271.443449 271.371198z" fill="#E9EAEB" /><path d="M119.068087 539.924645h-31.934523A367.030269 367.030269 0 0 1 137.275101 354.60326l27.52727 16.111762a335.095745 335.095745 0 0 0-45.734284 169.209623zM454.380583 907.171664v-31.934523a335.023495 335.023495 0 0 0 317.900233-228.671417l30.272772 10.187257a366.958019 366.958019 0 0 1-348.173005 250.418683z" fill="#BCC0C4" /><path d="M705.594017 488.916108a257.499189 257.499189 0 0 0-36.125027-90.746066l26.87702-17.195513A289.505962 289.505962 0 0 1 736.95054 482.919354zM450.04558 830.442108a292.179214 292.179214 0 1 1 172.171876-528.220137l-18.857264 25.793269a260.100191 260.100191 0 1 0 102.161575 260.100191l31.356523 6.069004a292.468214 292.468214 0 0 1-286.83271 236.257673z" fill="#2A5082" /><path d="M654.80223 182.359134a411.247301 411.247301 0 0 0-399.615043-5.707755l-15.172511-28.10527a443.181825 443.181825 0 0 1 430.754815 6.141254zM255.692937 936.143936A442.892824 442.892824 0 0 1 62.207296 324.619488l27.96077 15.461511a410.958301 410.958301 0 0 0 179.541382 567.379666zM653.357229 931.375432l-14.450011-28.322021a413.920553 413.920553 0 0 0 202.300148-240.231426l30.417272 9.681508a446.144077 446.144077 0 0 1-218.267409 258.871939zM846.69837 432.344317a408.285049 408.285049 0 0 0-28.900021-76.874057l28.900021-14.45001a440.219572 440.219572 0 0 1 31.356523 82.943061z" fill="#BCC0C4" /><path d="M612.752699 506.545121a164.29662 164.29662 0 0 0-17.340013-47.829535l27.960771-15.389261a196.158894 196.158894 0 0 1 20.663515 57.149792zM450.04558 735.939039A197.603895 197.603895 0 1 1 550.906653 368.47527L534.650392 395.71354a165.669371 165.669371 0 1 0 74.056304 190.74014l30.561772 9.248006a196.520144 196.520144 0 0 1-189.222888 140.237353z" fill="#2A5082" /><path d="M450.04558 645.337473a107.002328 107.002328 0 1 1 0-214.076907 106.063078 106.063078 0 0 1 47.034784 10.909758l-14.08876 28.900021a74.417555 74.417555 0 0 0-33.018274-7.586256 75.067805 75.067805 0 1 0 69.21555 104.184577L549.100402 579.806675a106.857828 106.857828 0 0 1-99.054822 65.530798z" fill="#2A5082" /><path d="M454.380583 522.584633h558.926409v31.934523H454.380583z" fill="#2A5082" /><path d="M965.405207 474.682848h-95.08107l-48.696535 47.685035v31.934523l48.696535 48.118535h95.08107v-16.184012l-32.006773-47.974035 32.006773-47.901785V474.682848z" fill="#A3D4FF" /><path d="M981.372469 618.388203h-117.623086l-57.800043-57.800042v-44.939533l57.800043-56.933042h117.550836v36.558527l-28.900021 43.350032 28.900021 43.350031z m-104.473577-31.934523H946.475693l-32.079023-48.118536 31.790023-47.685035h-69.215551l-39.231778 38.437029v18.568263zM441.628448 531.023439l388.849785-384.001806 22.440867 22.722641-388.849785 384.001807z" fill="#2A5082" /><path d="M762.093558 147.101108l-68.20405 67.698299v67.77055l11.776759 8.236506 11.704508 8.236506h67.77055l67.77055-64.663797-11.343259-9.753757-56.427291-10.548508-11.487758-56.066041-11.560009-10.909758z" fill="#A3D4FF" /><path d="M791.57158 315.010231h-79.475058l-34.391026-24.059268V208.224653l83.882312-83.376562 26.443519 24.998519 10.331758 50.575037 50.430537 9.103506 27.88852 24.059268zM722.500529 283.075707h56.282791l47.251535-45.156283-54.33204-10.115007-11.560008-56.210541-50.575037 49.924786V274.550201z" fill="#2A5082" /></svg>