<?xml version="1.0" standalone="no"?><!DOCTYPE svg PUBLIC "-//W3C//DTD SVG 1.1//EN" "http://www.w3.org/Graphics/SVG/1.1/DTD/svg11.dtd"><svg class="icon" width="200px" height="200.00px" viewBox="0 0 1024 1024" version="1.1" xmlns="http://www.w3.org/2000/svg"><path d="M481.763353 583.491427m-407.851549 0a407.851549 407.851549 0 1 0 815.703098 0 407.851549 407.851549 0 1 0-815.703098 0Z" fill="#E9EAEB" /><path d="M987.513723 110.325831v261.906442a48.118535 48.118535 0 0 1-48.263035 48.118535H675.465745l-101.150074 90.095816A16.328512 16.328512 0 0 1 547.005151 498.525365V420.350808h-32.368024a49.346786 49.346786 0 0 1-49.202286-49.202286v-260.822691a48.913286 48.913286 0 0 1 48.913286-48.913286h424.18006a48.913286 48.913286 0 0 1 48.985536 48.913286z" fill="#FFFFFF" /><path d="M563.550413 530.893389a32.801524 32.801524 0 0 1-13.51076-2.962252A32.223524 32.223524 0 0 1 530.676639 498.525365v-61.918295h-16.039512a65.603048 65.603048 0 0 1-65.530798-65.530798V110.325831a65.025048 65.025048 0 0 1 65.025048-65.025048h424.39681a65.025048 65.025048 0 0 1 65.025048 65.025048v261.906442a64.519297 64.519297 0 0 1-64.302547 64.374797H681.679249L585.225429 522.584633a32.368024 32.368024 0 0 1-21.675016 8.308756z m-49.202286-453.152332a32.657024 32.657024 0 0 0-32.657024 32.657024v260.678191a32.946024 32.946024 0 0 0 32.873774 32.873774H563.550413V498.525365l105.918577-93.925069H939.250688a31.862273 31.862273 0 0 0 31.790023-31.790023V110.325831a32.657024 32.657024 0 0 0-32.657024-32.657024z" fill="#2A5082" /><path d="M658.197982 687.676004c-50.575037-46.456784-135.324349-82.943061-199.626896-85.544063a401.349044 401.349044 0 0 0-67.048049 72.250053c-36.992027-14.450011-78.680308-57.149792-115.961335-102.522825S204.61215 477.71735 197.387145 438.557821A401.421294 401.421294 0 0 0 281.775206 386.754533c9.826007-63.580047-9.609257-153.675863-45.445283-212.342905-38.437028-8.525506-130.050095-11.343258-195.075143 16.039511-23.047767 81.28131-17.629013 251.935935 144.500106 456.042335 168.992874 198.398645 335.312496 236.691173 419.556057 229.755168 38.870528-58.450293 53.826289-149.196359 52.887039-188.572638z" fill="#A3D4FF" /><path d="M585.225429 893.299654c-105.846328 0-263.568193-61.340295-412.475552-236.257673C19.941015 464.42334-3.612503 287.482961 25.143018 185.971636l2.167502-7.225005 7.225005-3.034502C107.652579 144.500106 204.2509 150.64136 239.581175 158.444366l6.791505 1.517251 3.612503 5.924504c38.003528 62.279546 57.800042 156.204614 47.612785 223.397164l-0.867001 5.707754-4.262753 3.901503A414.787554 414.787554 0 0 1 216.750159 447.950328c9.175757 28.900021 33.235024 67.337049 71.672052 114.082834s71.383052 77.741057 98.043322 92.335567a414.137303 414.137303 0 0 1 62.640796-65.025047l4.624003-3.395753h5.707755c67.8428 2.745502 156.204614 40.53228 209.958653 89.879066l5.129754 4.696253v7.225006c0.867001 36.125026-11.776759 132.145347-56.210541 197.965145l-4.407253 6.502504-7.803006 0.650251c-6.430255 0.1445-13.65526 0.4335-20.880265 0.4335zM54.54879 202.300148c-23.264517 94.93657 2.528752 256.198688 143.560855 433.500318 146.667607 172.244126 299.76547 228.671417 397.375291 223.975164 32.079023-52.164538 45.445283-128.316094 46.312284-165.380371-46.818034-40.243279-120.874339-72.250053-178.02413-76.223806a409.9468 409.9468 0 0 0-58.667043 65.025047l-7.225006 11.126509-12.354759-4.913004c-34.246525-13.51076-74.273054-48.624286-122.82509-107.291329S187.850138 477.6451 181.347633 441.520073l-2.384252-13.077259 12.354759-4.985254a409.73005 409.73005 0 0 0 74.923305-45.011783c7.225005-56.860792-9.970507-135.757849-40.46003-189.367389-36.630777-6.358005-113.938333-7.947506-171.232625 13.22176zM644.903972 224.553164h32.657024v32.657024h-32.657024zM710.14577 224.553164h32.657024v32.657024h-32.657024zM775.387568 224.553164h32.657024v32.657024h-32.657024z" fill="#2A5082" /></svg>