<?xml version="1.0" standalone="no"?><!DOCTYPE svg PUBLIC "-//W3C//DTD SVG 1.1//EN" "http://www.w3.org/Graphics/SVG/1.1/DTD/svg11.dtd"><svg class="icon" width="200px" height="200.00px" viewBox="0 0 1024 1024" version="1.1" xmlns="http://www.w3.org/2000/svg"><path d="M717.081775 356.554011m-284.592958 0a284.592958 284.592958 0 1 0 569.185917 0 284.592958 284.592958 0 1 0-569.185917 0Z" fill="#E9EAEB" /><path d="M274.405701 198.470895H385.092782v31.645524H274.405701zM211.186905 198.470895h31.645523v31.645524h-31.645523zM147.895858 198.470895h31.645524v31.645524h-31.645524zM116.322585 119.429337h31.645523v31.645524H116.322585zM53.103789 119.429337h31.645523v31.645524H53.103789zM622.217456 151.002611H456.475834l-4.190503-9.392507a32.295774 32.295774 0 0 0-27.96077-19.507515 30.128272 30.128272 0 0 0-11.198758 1.734002L398.097792 130.050095l-5.707755-15.100261a59.245043 59.245043 0 0 0-55.19904-38.364778c-32.512524 0-58.956043 35.691526-58.956043 58.956043v15.461512H179.541382v-31.573274h68.9988c8.525506-36.919777 44.939533-74.706555 88.723065-74.706554a91.035067 91.035067 0 0 1 78.824808 46.167784 49.997037 49.997037 0 0 1 8.308756-0.433501 63.074296 63.074296 0 0 1 51.731038 28.900021h146.089607zM1001.674734 230.044168h-71.094052l-4.696254-7.225005c-6.213505-9.464757-22.325266-24.781768-42.916531-22.325266l-10.331758 1.228251-5.202004-9.031257a50.575037 50.575037 0 0 0-42.627531-26.226769 51.586538 51.586538 0 0 0-49.419036 47.757285v15.678261H606.394694v-31.428773h139.225852a83.593311 83.593311 0 0 1 79.475058-63.363296 81.209059 81.209059 0 0 1 64.519298 33.740775 79.475058 79.475058 0 0 1 57.800042 29.694771h54.69329zM543.175898 198.470895h31.645523v31.645524h-31.645523zM479.957102 198.470895h31.645523v31.645524h-31.645523zM132.145347 957.313201h173.905877v31.645523H132.145347zM369.27002 957.313201h173.905878v31.645523H369.27002zM606.394694 957.313201H780.300572v31.645523H606.394694zM843.591618 957.313201h173.905877v31.645523h-173.905877zM68.8543 957.313201h31.645524v31.645523H68.8543zM5.635504 957.313201h31.645523v31.645523H5.635504z" fill="#BCC0C4" /><path d="M938.455937 625.396458l-77.163056-96.815071a47.396035 47.396035 0 0 0-33.524025-13.87201H717.081775v284.592958h224.480915a44.217032 44.217032 0 0 0 44.289282-44.217032v-82.36506a47.323785 47.323785 0 0 0-47.396035-47.323785z" fill="#A3D4FF" /><path d="M941.56269 815.052847H701.259014V498.525365h126.509842a62.785296 62.785296 0 0 1 44.722783 18.496014l1.228251 1.300501L946.475693 610.079447a63.146546 63.146546 0 0 1 55.199041 62.640796v82.29281a60.112044 60.112044 0 0 1-60.112044 60.039794z m-208.658153-31.645523h208.658153a28.466521 28.466521 0 0 0 28.46652-28.394271V672.720243a31.501023 31.501023 0 0 0-31.573273-31.501023h-7.658505l-81.28131-102.017075a31.428773 31.428773 0 0 0-21.675016-8.670006h-94.936569z" fill="#2A5082" /><path d="M780.300572 656.969731h79.113807l15.750512-15.822761-47.396035-63.218797H780.300572v79.041558z" fill="#FFFFFF" /><path d="M865.916884 672.720243h-101.150074V562.105412h71.166302l59.967544 80.486559z m-69.793551-31.645523H852.550624l1.517252-1.517252-34.463276-45.951033h-23.698017z" fill="#2A5082" /><path d="M764.55006 799.157835a63.291046 63.074296 0 1 0 126.582093 0 63.291046 63.074296 0 1 0-126.582093 0Z" fill="#E9EAEB" /><path d="M827.841106 878.054893a78.824808 78.824808 0 1 1 79.475059-78.824808 79.113808 79.113808 0 0 1-79.475059 78.824808z m0-126.076342a47.251535 47.251535 0 1 0 47.540535 47.251534 47.396035 47.396035 0 0 0-47.540535-47.251534z" fill="#2A5082" /><path d="M211.186905 641.14697V356.554011h505.89487v442.676074H211.186905V688.543004" fill="#FFFFFF" /><path d="M732.904537 815.052847h-537.540394V688.543004h31.645523v94.86432h474.249348V372.376773H227.009666v268.770197h-31.645523V340.73125h537.540394v474.321597z" fill="#2A5082" /><path d="M290.228463 799.157835a63.291046 63.074296 0 1 0 126.582092 0 63.291046 63.074296 0 1 0-126.582092 0Z" fill="#E9EAEB" /><path d="M353.519509 878.054893a78.824808 78.824808 0 1 1 79.475058-78.824808 79.113808 79.113808 0 0 1-79.475058 78.824808z m0-126.076342a47.251535 47.251535 0 1 0 47.540535 47.251534 47.396035 47.396035 0 0 0-47.540535-47.251534zM132.145347 403.950046h79.041558v31.645523H132.145347zM5.635504 514.637127h142.260354v31.645523H5.635504zM68.8543 403.950046h31.645524v31.645523H68.8543zM5.635504 625.324208h221.374162v31.645523H5.635504z" fill="#2A5082" /></svg>