<?xml version="1.0" standalone="no"?><!DOCTYPE svg PUBLIC "-//W3C//DTD SVG 1.1//EN" "http://www.w3.org/Graphics/SVG/1.1/DTD/svg11.dtd"><svg class="icon" width="200px" height="200.00px" viewBox="0 0 1024 1024" version="1.1" xmlns="http://www.w3.org/2000/svg"><path d="M606.2592 705.024S575.488 772.9664 506.88 772.9664 408.7808 705.024 408.7808 705.024s93.6448 58.4192 197.4784 0zM595.2 153.7536c-22.8352-131.2768-128.8704-110.592-174.8992-48.896-10.496 13.9264-21.2992 24.7808-31.488 33.28 31.6416 13.2096 53.9136 44.4416 53.9136 80.8448 0 10.1376-1.792 19.8144-4.9664 28.8768 47.616 11.0592 178.6368 27.5968 157.44-94.1056zM267.5712 219.0336c0-7.3216 0.9728-14.3872 2.6624-21.1456-4.9152 0.8192-9.984 1.536-15.36 1.8944-53.8624 3.84-176.9472 37.1712-130.816 134.656 46.1312 97.4336 157.6448 55.1424 187.1872-39.68-26.0608-15.1552-43.6736-43.3664-43.6736-75.7248z" fill="#FD6758" /><path d="M355.1232 219.0336m-87.6032 0a87.6032 87.6032 0 1 0 175.2064 0 87.6032 87.6032 0 1 0-175.2064 0Z" fill="#F9BA82" /><path d="M919.1424 594.7392s42.6496-390.7584-323.8912-440.9344C616.3968 275.456 485.376 258.9184 437.76 247.8592c-11.9296 34.1504-44.3904 58.7264-82.6368 58.7264-15.9744 0-30.976-4.352-43.8784-11.8272-25.8048 82.7904-114.0224 125.4912-166.7584 70.1952-42.1376 107.3664-28.16 214.4256-28.16 214.4256C28.5696 602.112 7.0656 699.904 48.4352 768.1536c41.3696 68.3008 144.896 41.984 144.896 41.984s82.0736 156.4672 320.5632 156.4672 310.3232-161.5872 310.3232-161.5872 128.256 28.2112 164.1472-61.5424c35.9424-89.7536-69.2224-148.736-69.2224-148.736z" fill="#F6D1B8" /><path d="M360.0384 517.7856m-48.7424 0a48.7424 48.7424 0 1 0 97.4848 0 48.7424 48.7424 0 1 0-97.4848 0Z" fill="#472F7E" /><path d="M661.7088 517.7856m-48.7424 0a48.7424 48.7424 0 1 0 97.4848 0 48.7424 48.7424 0 1 0-97.4848 0Z" fill="#472F7E" /><path d="M606.2592 705.024S575.488 772.9664 506.88 772.9664 408.7808 705.024 408.7808 705.024s93.6448 58.4192 197.4784 0z" fill="#FD6758" /><path d="M423.7312 164.6592c-16.0256-20.224-40.7552-33.2288-68.608-33.2288-48.384 0-87.6032 39.2192-87.6032 87.6032 0 22.6304 8.6528 43.2128 22.784 58.7776-13.824-34.8672-11.5712-85.1968 31.488-113.1008 42.3424-27.4432 99.7376-1.0752 101.9392-0.0512z" fill="#FAC89B" /><path d="M290.3552 277.8112c16.0256 17.664 39.0656 28.8256 64.8192 28.8256 48.384 0 87.6032-39.2192 87.6032-87.6032 0-18.3808-5.6832-35.3792-15.36-49.4592l-0.1536 0.5632s5.888 66.6624-36.2496 97.0752c-42.24 30.3616-86.528 17.7664-100.6592 10.5984z" fill="#E48559" /><path d="M267.6736 216.064c0.2048-6.2464 1.1264-12.3392 2.56-18.176-4.9152 0.8192-9.984 1.536-15.36 1.8944-53.8624 3.84-176.9472 37.1712-130.816 134.656 3.4304 7.2704 7.3216 13.7216 11.4176 19.456-29.2864-103.4752 82.4832-130.816 132.1984-137.8304zM420.3008 104.9088c-10.496 13.9264-21.2992 24.7808-31.488 33.28 6.7072 2.816 13.0048 6.4512 18.7392 10.752 3.3792-2.7648 6.912-5.8368 10.5472-9.3696 17.5104-17.152 30.1056-43.3664 75.1104-55.2448 57.9072-15.2576 96.5632 46.4384 96.9728 47.104-30.5664-106.24-126.6688-84.48-169.8816-26.5216z" fill="#FF7E78" /><path d="M295.3728 282.88c-8.704 23.4496-27.5456 60.6208-64.2048 80.2304-11.1104 4.5568-68.9664 27.392-95.5904-9.1648 50.9952 71.2192 148.4288 28.5696 175.7696-59.136-5.8368-3.4304-11.1616-7.424-15.9744-11.9296zM590.9504 134.6048c0 4.608-1.1264 79.1552-45.4656 91.1872-32.6656 8.8576-79.3088 5.0688-103.3216 2.2016a87.552 87.552 0 0 1-4.4544 19.8656c47.616 11.008 178.6368 27.5968 157.4912-94.1056-1.1776-6.8096-2.6112-13.1072-4.2496-19.1488z" fill="#E54C45" /><path d="M144.5376 364.9536c-42.1376 107.3664-28.16 214.4256-28.16 214.4256C28.5696 602.112 7.0656 699.904 48.4352 768.1536c6.3488 10.4448 14.1312 18.688 22.784 25.1392-61.8496-109.6704 13.824-177.5616 64.3072-197.888-4.096-89.9584 18.1248-163.2256 38.6048-210.5344-10.5472-3.9936-20.5824-10.496-29.5936-19.9168zM919.1424 594.7392s42.6496-390.7584-323.8912-440.9344c2.048 11.776 2.6624 22.2208 2.048 31.488 90.8288 10.3936 306.688 71.3728 295.3216 417.6896 61.44 44.4416 100.096 73.216 95.7952 140.544 35.8912-89.8048-69.2736-148.7872-69.2736-148.7872z" fill="#FCE4D4" /><path d="M988.3648 743.4752s-78.1824 72.5504-176.8448 36.608c-24.1664 41.1648-126.8224 148.3776-312.4224 148.3776s-286.5152-139.8784-286.5152-139.8784-84.992 29.6448-141.4144 4.7104c47.872 35.7376 122.112 16.896 122.112 16.896s82.0736 156.4672 320.5632 156.4672 310.3232-161.5872 310.3232-161.5872 128.3072 28.16 164.1984-61.5936z" fill="#EAB692" /><path d="M356.608 503.7568a18.6368 11.264 0 1 0 37.2736 0 18.6368 11.264 0 1 0-37.2736 0Z" fill="#FFFFFF" /><path d="M657.6128 503.7568a18.6368 11.264 0 1 0 37.2736 0 18.6368 11.264 0 1 0-37.2736 0Z" fill="#FFFFFF" /><path d="M360.0384 466.5344c-28.2624 0-51.3024 22.9888-51.3024 51.3024 0 28.2624 22.9888 51.3024 51.3024 51.3024s51.3024-22.9888 51.3024-51.3024c0-28.3136-23.04-51.3024-51.3024-51.3024z m0 97.4336c-25.4464 0-46.1824-20.6848-46.1824-46.1824 0-25.4464 20.6848-46.1824 46.1824-46.1824s46.1824 20.736 46.1824 46.1824c0 25.4976-20.736 46.1824-46.1824 46.1824zM661.7088 466.5344c-28.2624 0-51.3024 22.9888-51.3024 51.3024 0 28.2624 22.9888 51.3024 51.3024 51.3024s51.3024-22.9888 51.3024-51.3024c0-28.3136-22.9888-51.3024-51.3024-51.3024z m0 97.4336c-25.4464 0-46.1824-20.6848-46.1824-46.1824 0-25.4464 20.6848-46.1824 46.1824-46.1824s46.1824 20.736 46.1824 46.1824c0 25.4976-20.6848 46.1824-46.1824 46.1824z" fill="#472F7E" /><path d="M921.856 593.3568c1.1776-13.3632 7.68-105.1648-24.7808-201.1136-32.2048-95.232-110.3872-214.1184-299.6736-240.7424-9.6256-52.992-34.6112-86.8864-70.4512-95.4368-36.7104-8.7552-81.408 10.6496-108.6464 47.2064a200.07936 200.07936 0 0 1-30.0032 31.8976c-10.24-4.0448-21.4016-6.4-33.0752-6.4-41.5744 0-76.5952 28.3648-86.9376 66.7136-4.864 0.768-9.216 1.3312-13.5168 1.6384-35.1744 2.5088-108.4416 18.8928-134.144 62.8736-12.6464 21.6576-12.2368 47.0016 1.2288 75.4176 5.5808 11.776 12.2368 21.8112 19.7632 30.0544-37.888 97.7408-29.6448 195.9424-27.9552 211.8656-36.864 10.2912-64.7168 34.6112-78.6432 68.8128-15.7184 38.7072-11.4176 85.9648 11.2128 123.3408 38.7072 63.9488 131.328 46.7456 145.8176 43.5712 10.0352 17.2032 98.1504 156.1088 321.8944 156.1088 223.5904 0 302.6944-143.2064 311.7568-161.2288 16.5888 3.072 131.2768 21.0432 165.0688-63.488 33.9456-84.9408-56.2688-143.4112-68.9152-151.0912zM393.5744 137.472a208.2304 208.2304 0 0 0 28.8256-31.0272c26.0608-34.9696 68.5568-53.6064 103.3728-45.312 24.1664 5.7856 55.3984 26.5728 66.9696 93.1328 0.5632 3.2768 0.9216 6.4512 1.28 9.5744 0.1024 0.9216 0.3072 1.8944 0.3584 2.816 0.1536 1.4848 0.1024 2.8672 0.2048 4.3008 1.5872 25.8048-4.7616 45.824-19.2 59.4944l-0.0512 0.0512c-2.0992 1.9968-4.352 3.7888-6.7072 5.4784-0.1536 0.1024-0.3072 0.2048-0.4096 0.3072-2.304 1.5872-4.7104 3.072-7.2192 4.4032-0.256 0.1536-0.512 0.3072-0.768 0.4096-2.4576 1.28-4.9664 2.4064-7.5776 3.4304-0.3584 0.1536-0.6656 0.256-1.024 0.4096-2.56 0.9728-5.2224 1.8432-7.8848 2.6624-0.4096 0.1024-0.8192 0.256-1.2288 0.3584-2.6624 0.7168-5.376 1.3824-8.0896 1.9456-0.4608 0.1024-0.9216 0.2048-1.3824 0.256-2.7136 0.512-5.4784 0.9728-8.2432 1.3312-0.4608 0.0512-0.9728 0.1024-1.4336 0.2048-2.7648 0.3584-5.5296 0.6144-8.3456 0.8192-0.512 0.0512-0.9728 0.0512-1.4848 0.1024-2.7648 0.1536-5.5808 0.3072-8.3456 0.3584h-1.4336c-2.7648 0.0512-5.5808 0-8.2944-0.0512-0.4608 0-0.8704-0.0512-1.3312-0.0512-2.7648-0.1024-5.4784-0.2048-8.192-0.3584-0.4096-0.0512-0.8192-0.0512-1.1776-0.1024-2.7136-0.2048-5.376-0.4096-7.9872-0.6656-0.3072-0.0512-0.6656-0.0512-0.9728-0.1024-2.6624-0.256-5.2224-0.5632-7.7312-0.8704-0.2048-0.0512-0.4608-0.0512-0.6656-0.1024-2.56-0.3584-5.0176-0.6656-7.3728-1.0752-0.1024 0-0.256-0.0512-0.3584-0.0512-2.3552-0.3584-4.6592-0.768-6.8096-1.1264-0.0512 0-0.1536 0-0.2048-0.0512-2.1504-0.3584-4.096-0.768-5.9904-1.1264-0.1536-0.0512-0.3072-0.0512-0.4608-0.1024-1.792-0.3584-3.3792-0.7168-4.864-1.024-0.1024 0-0.2048-0.0512-0.256-0.0512 0.5632-1.8432 1.024-3.7888 1.4848-5.6832l0.3072-1.28c0.3584-1.536 0.6656-3.1232 0.9216-4.7104 0.2048-1.28 0.4096-2.56 0.5632-3.84 0.1536-1.1776 0.3072-2.3552 0.4096-3.584 0.2048-2.5088 0.3584-5.0176 0.3584-7.5264v-0.4096-0.3584c0-2.6112-0.1536-5.2224-0.4096-7.8336-0.0512-0.8192-0.1536-1.5872-0.256-2.3552-0.256-2.2016-0.5632-4.352-0.9728-6.5024-0.1024-0.512-0.1536-1.024-0.256-1.536-0.5632-2.6624-1.2288-5.3248-2.048-7.936l-0.3072-0.9216c-0.768-2.4576-1.6384-4.864-2.6624-7.2192-0.1024-0.256-0.2048-0.4608-0.3072-0.7168a89.92256 89.92256 0 0 0-39.68-43.7248c-0.3584-0.2048-0.7168-0.3584-1.0752-0.5632-1.1264-0.6144-2.304-1.28-3.584-1.8944z m-38.4512-3.4816c11.6736 0 22.784 2.3552 32.9216 6.656 0.3072 0.1536 0.6144 0.3072 0.9216 0.4096 2.048 0.9216 4.096 1.8944 6.0928 2.9184 0.4608 0.256 0.9728 0.512 1.4336 0.768 1.9968 1.1264 3.9424 2.2528 5.8368 3.5328 0.2048 0.1024 0.4096 0.256 0.5632 0.3584 13.312 9.0624 23.9616 21.8112 30.4128 36.7616 0.1024 0.3072 0.256 0.6144 0.4096 0.8704 1.9968 4.7616 3.5328 9.728 4.6592 14.8992 0.1536 0.6656 0.256 1.3312 0.3584 1.9968 0.3584 1.8944 0.6656 3.7888 0.8704 5.6832a86.71232 86.71232 0 0 1 0.6144 9.728v0.3584c0 0.2048 0 0.4096-0.0512 0.6656 0 2.3552-0.1536 4.7104-0.3584 7.0656-0.1536 1.3824-0.3584 2.7648-0.512 4.1472l-0.4608 3.1232c-0.3072 1.792-0.7168 3.5328-1.1264 5.3248-0.1024 0.512-0.256 1.024-0.4096 1.536-0.512 1.9968-1.1264 3.9936-1.792 5.9904-0.1024 0.256-0.1536 0.4608-0.256 0.7168-2.048 5.7344-4.6592 11.1104-7.7824 16.128-0.3072 0.512-0.6144 1.0752-0.9728 1.5872-0.8192 1.2288-1.6896 2.4576-2.56 3.6352l-1.8432 2.4576c-0.8192 1.0752-1.6896 2.0992-2.56 3.1232-0.768 0.8704-1.536 1.7408-2.3552 2.6112-0.8704 0.9216-1.6896 1.8432-2.6112 2.7136-1.0752 1.0752-2.2016 2.048-3.3792 3.072-1.3824 1.2288-2.816 2.4064-4.3008 3.5328-1.024 0.768-2.048 1.5872-3.1232 2.3552-1.024 0.7168-2.0992 1.3824-3.1744 2.048-1.024 0.6144-2.048 1.28-3.072 1.8432-1.1264 0.6656-2.2016 1.28-3.3792 1.8432-1.0752 0.5632-2.2016 1.0752-3.328 1.5872-1.1264 0.512-2.2016 1.0752-3.328 1.536-2.0992 0.8704-4.1984 1.6384-6.4 2.3552-0.9728 0.3072-1.9968 0.5632-3.0208 0.8192-1.4848 0.4096-2.9184 0.8192-4.4544 1.1264l-3.072 0.6144c-1.6384 0.3072-3.2768 0.5632-4.9152 0.768-0.8704 0.1024-1.792 0.256-2.6624 0.3072-2.56 0.256-5.1712 0.4096-7.7824 0.4096-2.56 0-5.0176-0.1536-7.5264-0.3584-0.768-0.0512-1.4848-0.1536-2.2528-0.2048-2.1504-0.256-4.3008-0.5632-6.4-0.9728-1.0752-0.2048-2.0992-0.4608-3.1232-0.7168-1.3312-0.3072-2.6112-0.6656-3.9424-1.024l-3.584-1.0752c-1.024-0.3584-1.9968-0.7168-2.9696-1.0752-2.0992-0.768-4.1472-1.6384-6.1952-2.6112-0.8192-0.3584-1.6384-0.768-2.4064-1.1776-1.2288-0.6144-2.4576-1.28-3.6352-1.9456a37.8368 37.8368 0 0 1-2.4064-1.4848c-1.8944-1.1776-3.7888-2.4576-5.5808-3.7376-0.8192-0.6144-1.6384-1.1776-2.4064-1.792-1.024-0.8192-2.048-1.6896-3.072-2.5088-0.7168-0.6144-1.4336-1.28-2.1504-1.9456-1.7408-1.6384-3.4304-3.2768-5.0176-5.0688-0.512-0.5632-1.0752-1.1264-1.5872-1.7408-0.9728-1.1264-1.8944-2.2528-2.816-3.4304-0.4096-0.512-0.8192-1.0752-1.2288-1.6384-1.792-2.4064-3.4304-4.864-4.9664-7.424l-0.4608-0.768c-0.768-1.3824-1.536-2.7648-2.2528-4.1984-0.256-0.5632-0.512-1.1264-0.8192-1.6384-1.1264-2.3552-2.0992-4.7104-3.0208-7.168-0.3072-0.768-0.6144-1.536-0.8704-2.304-0.4096-1.2288-0.768-2.4576-1.1264-3.7376s-0.6656-2.56-0.9728-3.84l-0.768-3.3792c-0.4096-2.048-0.7168-4.1472-0.9728-6.2464-0.1024-0.768-0.1536-1.4848-0.2048-2.2528-0.2048-2.5088-0.3584-5.0176-0.3584-7.5264 0-2.4064 0.1536-4.7104 0.3584-7.0656 0.1024-0.9728 0.1536-1.8944 0.256-2.8672 0.1024-0.9728 0.3072-1.9456 0.4608-2.9184 0.4096-2.5088 0.8704-4.9664 1.4848-7.4752 9.216-37.0688 42.6496-64.6656 82.4832-64.6656zM124.9792 262.7072C149.6064 220.5184 220.8256 204.8 255.0784 202.3424c3.7888-0.256 7.5776-0.7168 11.7248-1.3312-1.1776 5.8368-1.792 11.8272-1.792 18.0224 0 2.7136 0.1536 5.376 0.4096 7.9872 0.0512 0.768 0.1536 1.4848 0.2048 2.2528 0.256 2.4064 0.6144 4.8128 1.0752 7.168 0.2048 0.9728 0.4608 1.9456 0.6656 2.9696 0.3072 1.3824 0.6656 2.7648 1.0752 4.1472 0.3584 1.28 0.7168 2.5088 1.1264 3.7376 0.3584 1.0752 0.768 2.0992 1.1264 3.1232 0.8192 2.2528 1.7408 4.4544 2.7648 6.6048 0.3072 0.7168 0.6656 1.3824 0.9728 2.048a90.99776 90.99776 0 0 0 9.216 14.7456c1.3312 1.7408 2.7136 3.4304 4.1984 5.0176 0.8192 0.9216 1.6384 1.8432 2.5088 2.7648 0.9216 0.9728 1.8944 1.8432 2.816 2.7648 0.8704 0.8192 1.7408 1.5872 2.6112 2.3552 0.9216 0.8192 1.8944 1.6896 2.8672 2.4576 1.5872 1.28 3.2768 2.5088 4.9664 3.6864l3.2256 2.1504c0.4608 0.256 0.8704 0.5632 1.28 0.8704-0.3072 0.9216-0.6144 1.8432-0.9216 2.7136-0.6144 1.792-1.28 3.584-1.9456 5.376-0.4608 1.1776-0.9728 2.3552-1.4336 3.5328-0.7168 1.7408-1.4848 3.4816-2.304 5.2224-0.512 1.1264-1.024 2.2016-1.5872 3.2768-0.8704 1.792-1.792 3.5328-2.7136 5.2224-0.512 0.9728-1.0752 1.9456-1.6384 2.9184-1.024 1.792-2.0992 3.584-3.2256 5.3248l-1.536 2.4576c-1.2288 1.8944-2.5088 3.7376-3.84 5.5296-0.4608 0.6144-0.8704 1.28-1.3312 1.8944-1.536 2.048-3.1232 4.0448-4.7616 5.9904-0.3072 0.3584-0.5632 0.7168-0.8704 1.0752-3.9424 4.608-8.0896 8.9088-12.4928 12.8512l-1.2288 1.0752c-1.6896 1.4848-3.4304 2.9696-5.1712 4.352-1.024 0.8192-2.0992 1.536-3.1232 2.304-1.1776 0.8704-2.304 1.6896-3.4816 2.5088-1.3312 0.9216-2.7136 1.792-4.096 2.6112-0.9216 0.5632-1.792 1.1264-2.7136 1.6384-1.5872 0.9216-3.1744 1.792-4.7616 2.6112-0.7168 0.3584-1.4848 0.768-2.2016 1.1264-1.7408 0.8704-3.4816 1.6384-5.2736 2.4064-0.6144 0.256-1.28 0.512-1.8944 0.768-1.8432 0.7168-3.6864 1.3824-5.5296 1.9968-0.6656 0.2048-1.28 0.4096-1.9456 0.6144-1.792 0.5632-3.584 1.0752-5.4272 1.4848-1.4848 0.3584-2.9184 0.6656-4.4032 0.9728a70.12352 70.12352 0 0 1-8.6016 1.1776c-0.768 0.0512-1.5872 0.1536-2.3552 0.1536-0.9728 0.0512-1.9456 0.0512-2.9184 0.1024-21.1456 0.4096-40.6528-7.8336-56.064-24.064-0.0512-0.0512-0.1024-0.0512-0.1024-0.0512-7.6288-8.0384-14.2848-17.9712-19.8656-29.7472-12.6464-26.7776-13.1072-50.5344-1.3824-70.6048z m861.0304 479.8464c-34.6624 86.6816-159.9488 60.2624-161.2288 60.0064a2.49344 2.49344 0 0 0-2.8672 1.4848c-0.7168 1.5872-73.8304 160.0512-307.968 160.0512-234.0864 0-317.4912-153.5488-318.3104-155.0848a2.55488 2.55488 0 0 0-2.2528-1.3824c-0.2048 0-0.4096 0-0.6144 0.1024-1.024 0.256-102.1952 25.0368-142.08-40.8576-21.8112-36.0448-26.0096-81.5616-10.8544-118.784 13.568-33.3312 41.0112-56.832 77.2608-66.2528 1.28-0.3072 2.048-1.536 1.8944-2.816-0.1536-1.0752-13.1072-105.1648 26.5216-209.408 14.6944 14.2336 32.512 22.016 52.4288 22.6816 0.8192 0.0512 1.6384 0.1024 2.4576 0.1024h0.4608c0.6656 0 1.28-0.0512 1.9456-0.0512 1.1264 0 2.2528-0.0512 3.3792-0.1024 0.256 0 0.512 0 0.8192-0.0512 0.3584 0 0.7168-0.1024 1.0752-0.1024 2.1504-0.1536 4.2496-0.4096 6.4-0.768 0.6656-0.1024 1.3824-0.2048 2.048-0.3584 1.536-0.256 3.072-0.5632 4.6592-0.9216l1.024-0.3072c1.6896-0.4096 3.328-0.8704 4.9664-1.3824 0.9216-0.3072 1.8944-0.5632 2.816-0.8704 1.6384-0.5632 3.328-1.1264 4.9664-1.792 0.9728-0.3584 1.9456-0.768 2.9184-1.1776 1.536-0.6656 3.072-1.3312 4.608-2.048 1.1264-0.5632 2.2528-1.1264 3.3792-1.7408 1.3312-0.7168 2.6624-1.3824 3.9936-2.1504 1.5872-0.9216 3.1232-1.8944 4.6592-2.8672 0.8192-0.512 1.6896-1.024 2.5088-1.5872 4.9664-3.328 9.6768-7.0656 14.2336-11.1616 0.3584-0.3072 0.7168-0.6656 1.024-0.9728 1.8944-1.7408 3.7888-3.584 5.632-5.4272 0.4608-0.4608 0.8704-0.9216 1.3312-1.3824 1.6896-1.792 3.3792-3.6352 4.9664-5.5296 0.4608-0.5632 0.9216-1.1264 1.3824-1.6384 1.5872-1.8944 3.072-3.84 4.5568-5.8368l1.3312-1.792c1.4848-2.048 2.9184-4.1472 4.3008-6.2976 0.3584-0.5632 0.768-1.1264 1.1264-1.7408 1.536-2.4064 2.9696-4.864 4.352-7.424 0.2048-0.3072 0.3584-0.6144 0.5632-0.9728 1.5872-2.9184 3.072-5.888 4.5056-8.9088 0.1024-0.256 0.2048-0.512 0.3072-0.7168 1.2288-2.6624 2.4064-5.4272 3.4816-8.192 0.4096-1.024 0.768-2.048 1.1264-3.072 0.5632-1.4848 1.1264-2.9696 1.6384-4.5056 0.6656 0.3584 1.3824 0.6656 2.0992 1.024 1.1776 0.5632 2.3552 1.1776 3.5328 1.6896 1.1776 0.512 2.4064 1.024 3.6352 1.536 1.28 0.512 2.6112 0.9728 3.8912 1.4336 1.5872 0.5632 3.1744 1.024 4.7616 1.4848 1.4848 0.4096 3.0208 0.8192 4.5568 1.1776 0.9728 0.2048 1.8944 0.4608 2.8672 0.6144 2.3552 0.4608 4.7104 0.8192 7.0656 1.0752 0.6656 0.0512 1.3312 0.1024 1.9968 0.2048 2.6624 0.256 5.376 0.4096 8.0384 0.4096 2.7648 0 5.5296-0.1536 8.2432-0.4096l2.7648-0.3072c1.792-0.2048 3.584-0.512 5.3248-0.8192 1.024-0.2048 2.048-0.3584 3.072-0.6144a101.15584 101.15584 0 0 0 8.8576-2.4576c1.9456-0.6144 3.84-1.3312 5.6832-2.0992 1.1776-0.4608 2.304-1.024 3.4304-1.536 1.2288-0.5632 2.4576-1.1264 3.6352-1.7408 1.1264-0.6144 2.304-1.1776 3.3792-1.8432 1.2288-0.6656 2.3552-1.4336 3.5328-2.1504 1.024-0.6656 2.048-1.28 3.0208-1.9456 1.9456-1.3312 3.84-2.7648 5.6832-4.2496 0.8704-0.7168 1.6896-1.4848 2.56-2.2528 1.0752-0.9728 2.1504-1.8944 3.2256-2.9184 0.9216-0.8704 1.792-1.7408 2.6112-2.6624 0.9216-0.9728 1.792-1.9456 2.7136-2.9696 0.8704-0.9728 1.6896-1.9456 2.5088-2.9696 0.768-0.9728 1.4848-1.9456 2.2016-2.9696 1.792-2.4064 3.4304-4.9152 4.9664-7.4752l0.9216-1.536c0.9216-1.5872 1.6896-3.2256 2.5088-4.864 0.3072-0.5632 0.5632-1.1776 0.8704-1.7408 0.8192-1.7408 1.536-3.5328 2.2528-5.3248 0.0512-0.1536 0.1536-0.3072 0.2048-0.4608 1.5872 0.3584 3.3792 0.7168 5.3248 1.1264 0.0512 0 0.1024 0 0.1536 0.0512 0.8192 0.1536 1.6384 0.3072 2.5088 0.512 0.2048 0.0512 0.4096 0.1024 0.6656 0.1024l2.5088 0.4608 0.8704 0.1536c0.768 0.1536 1.6384 0.3072 2.4576 0.4096 0.4096 0.0512 0.768 0.1536 1.1776 0.2048 0.8192 0.1536 1.6896 0.256 2.56 0.4096 0.4096 0.0512 0.8192 0.1536 1.2288 0.2048 0.8704 0.1536 1.7408 0.256 2.6112 0.4096 0.4608 0.0512 0.9728 0.1536 1.4336 0.2048 0.8704 0.1024 1.7408 0.256 2.6112 0.3584 0.512 0.0512 1.024 0.1536 1.5872 0.2048l2.6624 0.3072c0.5632 0.0512 1.1776 0.1536 1.7408 0.2048l2.7136 0.3072c0.6144 0.0512 1.1776 0.1536 1.792 0.2048 0.9216 0.1024 1.8432 0.1536 2.816 0.256l1.8432 0.1536c0.9216 0.0512 1.8944 0.1536 2.816 0.2048l1.9456 0.1536 2.816 0.1536c0.6656 0.0512 1.3312 0.0512 2.048 0.1024 0.9728 0.0512 1.9456 0.0512 2.9184 0.1024 0.6656 0 1.3312 0.0512 2.048 0.0512 0.9728 0 1.9456 0.0512 2.9696 0.0512H503.1424c0.8192 0 1.5872 0 2.4064-0.0512 0.9216 0 1.8432-0.0512 2.7648-0.1024 0.8192-0.0512 1.6384-0.0512 2.4576-0.1024l2.7136-0.1536 2.4576-0.1536c0.9216-0.0512 1.792-0.1536 2.7136-0.2048 0.8192-0.0512 1.6384-0.1536 2.5088-0.256l2.7136-0.3072 2.4576-0.3072c0.9216-0.1024 1.792-0.256 2.7136-0.4096 0.8192-0.1024 1.6384-0.256 2.4576-0.4096l2.6624-0.4608c0.8192-0.1536 1.6384-0.3072 2.4576-0.512 0.8704-0.2048 1.7408-0.3584 2.6112-0.5632l2.4064-0.6144c0.8704-0.2048 1.7408-0.4608 2.56-0.6656 0.8192-0.2048 1.5872-0.4608 2.3552-0.7168l2.5088-0.768c0.768-0.256 1.536-0.5632 2.3552-0.8192 0.8192-0.3072 1.6384-0.5632 2.4064-0.8704l2.304-0.9216c0.768-0.3072 1.5872-0.6656 2.3552-1.024 0.768-0.3584 1.4848-0.7168 2.2016-1.0752 0.768-0.3584 1.536-0.7168 2.304-1.1264 0.7168-0.3584 1.4336-0.768 2.1504-1.1776 0.7168-0.4096 1.4848-0.8192 2.2016-1.2288 0.7168-0.4096 1.3824-0.8704 2.048-1.3312s1.3824-0.8704 2.048-1.3824c0.7168-0.512 1.3824-1.024 2.048-1.536 0.6144-0.4608 1.28-0.9216 1.8944-1.4336 0.768-0.6144 1.4848-1.28 2.2528-1.9456 0.4608-0.4096 0.9728-0.8192 1.4336-1.28a69.12 69.12 0 0 0 6.2976-6.912c1.792-2.304 3.4304-4.7616 4.9152-7.2704l0.3072-0.4608c1.4336-2.5088 2.6624-5.12 3.7888-7.8336l0.3072-0.768c1.0752-2.6624 1.9456-5.4784 2.7136-8.3968 0.1024-0.3584 0.2048-0.6656 0.256-1.024 0.7168-2.8672 1.2288-5.888 1.6896-8.96l0.1536-1.28c0.3584-3.072 0.6144-6.2464 0.6656-9.5232 0-0.512 0.0512-0.9728 0.0512-1.4848 0.0512-3.2768-0.0512-6.6048-0.256-10.0864-0.0512-0.5632-0.1024-1.1264-0.1024-1.7408-0.256-3.4816-0.6656-7.0144-1.2288-10.6496-0.0512-0.3072-0.0512-0.6144-0.1024-0.9216 185.4976 26.6752 262.1952 143.4112 293.8368 236.9536 34.6112 102.2464 24.5248 199.7312 24.4224 200.704-0.1024 1.024 0.4096 1.9968 1.28 2.5088 0.8704 0.6656 102.6048 58.9824 67.9424 145.664z" fill="#472F7E" /><path d="M604.9792 702.7712c-101.2224 56.9856-193.9456 0.6144-194.8672 0.0512a2.53952 2.53952 0 0 0-3.0208 0.256c-0.8704 0.7168-1.1264 1.9456-0.6656 2.9696 0.3072 0.7168 30.976 69.5296 100.4544 69.5296 69.4272 0 101.376-68.7616 101.6832-69.4784 0.4608-1.024 0.2048-2.2016-0.6144-2.9696a2.54464 2.54464 0 0 0-2.9696-0.3584zM506.88 770.4064c-52.7872 0-82.176-41.984-92.0064-59.1872 23.7568 11.8784 100.8128 43.1616 185.088 0.0512-10.24 17.3568-40.3968 59.136-93.0816 59.136z" fill="#472F7E" /></svg>