<?xml version="1.0" standalone="no"?><!DOCTYPE svg PUBLIC "-//W3C//DTD SVG 1.1//EN" "http://www.w3.org/Graphics/SVG/1.1/DTD/svg11.dtd"><svg class="icon" width="200px" height="200.00px" viewBox="0 0 1024 1024" version="1.1" xmlns="http://www.w3.org/2000/svg"><path d="M969.0112 772.1472V391.8848H54.784v451.584c0 45.8752 37.1712 83.0464 83.0464 83.0464h666.4192l164.7616-154.368z" fill="#FEF2E9" /><path d="M887.0912 189.184H136.704c-45.2608 0-81.92 36.6592-81.92 81.92v120.7808h914.176V271.104c0.0512-45.2608-36.6592-81.92-81.8688-81.92z" fill="#4B8DFD" /><path d="M887.0912 189.184H136.704c-40.704 0-74.3936 29.696-80.7424 68.608 8.0896-33.1264 62.208-30.1056 62.208-30.1056H864.256c96.1024 0 104.704 48.4352 104.704 48.4352v-5.0688c0.0512-45.2096-36.6592-81.8688-81.8688-81.8688z" fill="#76A4FF" /><path d="M308.9408 283.5968h-1.536c-30.8736 0-55.8592-25.0368-55.8592-55.8592V161.5872c0-30.8736 25.0368-55.8592 55.8592-55.8592h1.536c30.8736 0 55.8592 25.0368 55.8592 55.8592v66.0992c0 30.8736-24.9856 55.9104-55.8592 55.9104zM723.0464 283.5968h-1.536c-30.8736 0-55.8592-25.0368-55.8592-55.8592V161.5872c0-30.8736 25.0368-55.8592 55.8592-55.8592h1.536c30.8736 0 55.8592 25.0368 55.8592 55.8592v66.0992c0.0512 30.8736-24.9856 55.9104-55.8592 55.9104z" fill="#F29727" /><path d="M570.368 547.4304h-122.88a24.0128 24.0128 0 0 1-24.0128-24.0128V455.2192c0-13.2608 10.752-24.0128 24.0128-24.0128h122.88c13.2608 0 24.0128 10.752 24.0128 24.0128v68.1984c0 13.2608-10.752 24.0128-24.0128 24.0128zM807.8336 547.4304h-122.88a24.0128 24.0128 0 0 1-24.0128-24.0128V455.2192c0-13.2608 10.752-24.0128 24.0128-24.0128h122.88c13.2608 0 24.0128 10.752 24.0128 24.0128v68.1984c0 13.2608-10.752 24.0128-24.0128 24.0128zM570.368 701.952h-122.88a24.0128 24.0128 0 0 1-24.0128-24.0128v-68.1984c0-13.2608 10.752-24.0128 24.0128-24.0128h122.88c13.2608 0 24.0128 10.752 24.0128 24.0128v68.1984c0 13.2608-10.752 24.0128-24.0128 24.0128z" fill="#FD6758" /><path d="M337.0496 701.952h-122.88a24.0128 24.0128 0 0 1-24.0128-24.0128v-68.1984c0-13.2608 10.752-24.0128 24.0128-24.0128h122.88c13.2608 0 24.0128 10.752 24.0128 24.0128v68.1984c0 13.2608-10.752 24.0128-24.0128 24.0128z" fill="#F29727" /><path d="M570.368 863.232h-122.88a24.0128 24.0128 0 0 1-24.0128-24.0128v-68.1984c0-13.2608 10.752-24.0128 24.0128-24.0128h122.88c13.2608 0 24.0128 10.752 24.0128 24.0128v68.1984c0 13.2608-10.752 24.0128-24.0128 24.0128zM337.0496 863.232h-122.88a24.0128 24.0128 0 0 1-24.0128-24.0128v-68.1984c0-13.2608 10.752-24.0128 24.0128-24.0128h122.88c13.2608 0 24.0128 10.752 24.0128 24.0128v68.1984c0 13.2608-10.752 24.0128-24.0128 24.0128z" fill="#FD6758" /><path d="M807.8336 701.952h-122.88a24.0128 24.0128 0 0 1-24.0128-24.0128v-68.1984c0-13.2608 10.752-24.0128 24.0128-24.0128h122.88c13.2608 0 24.0128 10.752 24.0128 24.0128v68.1984c0 13.2608-10.752 24.0128-24.0128 24.0128z" fill="#F29727" /><path d="M968.7552 771.84h-129.536c-19.5072 0-35.328 15.8208-35.328 35.328v119.296l164.864-154.5728v-0.0512z" fill="#F6D1B8" /><path d="M362.6496 146.3296c-6.656-23.4496-28.16-40.6016-53.7088-40.6016h-1.536c-30.8736 0-55.8592 25.0368-55.8592 55.8592v4.608c0-11.264 11.264-41.6768 56.6272-41.6768 43.8784 0 53.8624 20.48 54.4768 21.8112z" fill="#F7AC5C" /><path d="M312.832 261.5296c-34.4064 0.512-47.1552-4.4032-61.0816-30.0544 1.9456 29.0816 26.112 52.1216 55.7056 52.1216h1.536c30.8736 0 55.8592-25.0368 55.8592-55.8592-0.0512-0.0512-17.4592 33.28-52.0192 33.792z" fill="#F47706" /><path d="M776.8064 146.3296c-6.656-23.4496-28.16-40.6016-53.7088-40.6016h-1.536c-30.8736 0-55.8592 25.0368-55.8592 55.8592v4.608c0-11.264 11.264-41.6768 56.6272-41.6768 43.8784 0 53.8624 20.48 54.4768 21.8112z" fill="#F7AC5C" /><path d="M726.9376 261.5296c-34.4064 0.512-47.1552-4.4032-61.0816-30.0544 1.9456 29.0816 26.112 52.1216 55.7056 52.1216h1.536c30.8736 0 55.8592-25.0368 55.8592-55.8592 0-0.0512-17.4592 33.28-52.0192 33.792z" fill="#F47706" /><path d="M968.7552 350.976H54.784v40.9088h914.2272z" fill="#4479E2" /><path d="M570.368 431.2064h-122.88a24.0128 24.0128 0 0 0-24.0128 24.0128v15.7184c0-18.944 16.3328-17.664 16.3328-17.664h133.9904c19.9168 0 20.5824 21.248 20.5824 21.248v-19.3024c0-13.2608-10.752-24.0128-24.0128-24.0128z" fill="#FF7E78" /><path d="M570.368 547.4304h-122.88a24.0128 24.0128 0 0 1-24.0128-24.0128v-15.7184c0 18.944 16.3328 17.664 16.3328 17.664h133.9904c19.9168 0 20.5824-21.248 20.5824-21.248v19.3024c0 13.2608-10.752 24.0128-24.0128 24.0128z" fill="#E54C45" /><path d="M807.8336 431.2064h-122.88a24.0128 24.0128 0 0 0-24.0128 24.0128v15.7184c0-18.944 16.3328-17.664 16.3328-17.664h133.9904c19.9168 0 20.5824 21.248 20.5824 21.248v-19.3024c0-13.2608-10.752-24.0128-24.0128-24.0128z" fill="#FF7E78" /><path d="M807.8336 547.4304h-122.88a24.0128 24.0128 0 0 1-24.0128-24.0128v-15.7184c0 18.944 16.3328 17.664 16.3328 17.664h133.9904c19.9168 0 20.5824-21.248 20.5824-21.248v19.3024c0 13.2608-10.752 24.0128-24.0128 24.0128z" fill="#E54C45" /><path d="M570.368 585.728h-122.88a24.0128 24.0128 0 0 0-24.0128 24.0128v15.7184c0-18.944 16.3328-17.664 16.3328-17.664h133.9904c19.9168 0 20.5824 21.248 20.5824 21.248v-19.3024c0-13.2608-10.752-24.0128-24.0128-24.0128z" fill="#FF7E78" /><path d="M570.368 701.952h-122.88a24.0128 24.0128 0 0 1-24.0128-24.0128v-15.7184c0 18.944 16.3328 17.664 16.3328 17.664h133.9904c19.9168 0 20.5824-21.248 20.5824-21.248v19.3024c0 13.2608-10.752 24.0128-24.0128 24.0128z" fill="#E54C45" /><path d="M570.368 746.9568h-122.88a24.0128 24.0128 0 0 0-24.0128 24.0128v15.7184c0-18.944 16.3328-17.664 16.3328-17.664h133.9904c19.9168 0 20.5824 21.248 20.5824 21.248v-19.3024c0-13.2608-10.752-24.0128-24.0128-24.0128z" fill="#FF7E78" /><path d="M570.368 863.232h-122.88a24.0128 24.0128 0 0 1-24.0128-24.0128v-15.7184c0 18.944 16.3328 17.664 16.3328 17.664h133.9904c19.9168 0 20.5824-21.248 20.5824-21.248v19.3024c0 13.2608-10.752 24.0128-24.0128 24.0128z" fill="#E54C45" /><path d="M337.0496 746.9568h-122.88a24.0128 24.0128 0 0 0-24.0128 24.0128v15.7184c0-18.944 16.3328-17.664 16.3328-17.664H340.48c19.9168 0 20.5824 21.248 20.5824 21.248v-19.3024c0-13.2608-10.752-24.0128-24.0128-24.0128z" fill="#FF7E78" /><path d="M337.0496 863.232h-122.88a24.0128 24.0128 0 0 1-24.0128-24.0128v-15.7184c0 18.944 16.3328 17.664 16.3328 17.664H340.48c19.9168 0 20.5824-21.248 20.5824-21.248v19.3024c0 13.2608-10.752 24.0128-24.0128 24.0128z" fill="#E54C45" /><path d="M337.0496 585.728h-122.88a24.0128 24.0128 0 0 0-24.0128 24.0128v15.7184c0-18.944 16.3328-17.664 16.3328-17.664H340.48c19.9168 0 20.5824 21.248 20.5824 21.248v-19.3024c0-13.2608-10.752-24.0128-24.0128-24.0128z" fill="#F7AC5C" /><path d="M337.0496 701.952h-122.88a24.0128 24.0128 0 0 1-24.0128-24.0128v-15.7184c0 18.944 16.3328 17.664 16.3328 17.664H340.48c19.9168 0 20.5824-21.248 20.5824-21.248v19.3024c0 13.2608-10.752 24.0128-24.0128 24.0128z" fill="#F47706" /><path d="M807.8336 585.728h-122.88a24.0128 24.0128 0 0 0-24.0128 24.0128v15.7184c0-18.944 16.3328-17.664 16.3328-17.664h133.9904c19.9168 0 20.5824 21.248 20.5824 21.248v-19.3024c0-13.2608-10.752-24.0128-24.0128-24.0128z" fill="#F7AC5C" /><path d="M807.8336 701.952h-122.88a24.0128 24.0128 0 0 1-24.0128-24.0128v-15.7184c0 18.944 16.3328 17.664 16.3328 17.664h133.9904c19.9168 0 20.5824-21.248 20.5824-21.248v19.3024c0 13.2608-10.752 24.0128-24.0128 24.0128z" fill="#F47706" /><path d="M55.9616 820.4288h-1.1776v23.04c0 45.8752 37.1712 83.0464 83.0464 83.0464h666.112v-42.3936H178.9952c-130.7136-0.0512-123.0336-63.6928-123.0336-63.6928z" fill="#F6D1B8" /><path d="M887.0912 186.624h-105.5744v-25.0368c0-32.2048-26.2144-58.4704-58.4704-58.4704h-1.4848c-32.2048 0-58.4704 26.2144-58.4704 58.4704v25.0368H367.4112v-25.0368c0-32.2048-26.2144-58.4704-58.4704-58.4704h-1.536c-32.2048 0-58.4704 26.2144-58.4704 58.4704v25.0368H136.704c-46.592 0-84.48 37.888-84.48 84.48v572.3648c0 47.2064 38.4 85.6064 85.6064 85.6064h666.4192c0.6656 0 1.28-0.256 1.7408-0.6656l164.7616-154.368c0.512-0.4608 0.8192-1.1776 0.8192-1.8944V271.104c0-46.592-37.9392-84.48-84.48-84.48zM806.4512 920.576v-113.408c0-18.0736 14.6944-32.768 32.768-32.768h123.136l-155.904 146.176z m-138.24-758.9888c0-29.3888 23.9104-53.3504 53.3504-53.3504h1.4848c29.3888 0 53.3504 23.9104 53.3504 53.3504v66.0992c0 7.3728-1.4848 14.336-4.1984 20.736a53.36064 53.36064 0 0 1-49.152 32.5632h-1.4848c-29.3888 0-53.3504-23.9104-53.3504-53.2992V161.5872zM307.4048 108.288h1.536c29.3888 0 53.3504 23.9104 53.3504 53.3504v66.0992c0 29.3888-23.9104 53.2992-53.3504 53.2992h-1.536c-29.3888 0-53.2992-23.9104-53.2992-53.2992V161.6896c0-29.4912 23.9104-53.4016 53.2992-53.4016zM57.344 271.104c0-43.776 35.584-79.36 79.36-79.36h112.2816v35.9424c0 30.208 23.04 55.1424 52.48 58.1632 1.9456 0.2048 3.9424 0.3072 5.9904 0.3072h1.536c32.2048 0 58.4704-26.2144 58.4704-58.4192v-35.9424h295.7312v35.9424c0 32.2048 26.2144 58.4192 58.4704 58.4192h1.4848c30.208 0 55.1424-23.04 58.112-52.48 0.2048-1.9456 0.3072-3.9424 0.3072-5.9904v-35.9424h105.5744c43.776 0 79.36 35.584 79.36 79.36v118.2208H57.344V271.104z m0 572.3648v-449.024h909.056v374.8352h-127.1808c-20.8896 0-37.888 16.9984-37.888 37.888v116.736H137.8304c-44.3904 0.0512-80.4864-36.0448-80.4864-80.4352z" fill="#472F7E" /><path d="M570.368 428.6464h-122.88c-14.6432 0-26.5728 11.9296-26.5728 26.5728v68.2496c0 14.6432 11.9296 26.5728 26.5728 26.5728h122.88c14.6432 0 26.5728-11.9296 26.5728-26.5728V455.2192c0-14.6432-11.9296-26.5728-26.5728-26.5728z m21.4528 94.7712c0 11.8272-9.6256 21.4528-21.4528 21.4528h-122.88c-11.8272 0-21.4528-9.6256-21.4528-21.4528V455.2192c0-11.8272 9.6256-21.4528 21.4528-21.4528h122.88c11.8272 0 21.4528 9.6256 21.4528 21.4528v68.1984zM684.9536 549.9904h122.88c14.6432 0 26.5728-11.9296 26.5728-26.5728V455.2192c0-14.6432-11.9296-26.5728-26.5728-26.5728h-122.88c-14.6432 0-26.5728 11.9296-26.5728 26.5728v68.2496c0 14.592 11.9296 26.5216 26.5728 26.5216z m-21.4528-94.7712c0-11.8272 9.6256-21.4528 21.4528-21.4528h122.88c11.8272 0 21.4528 9.6256 21.4528 21.4528v68.2496c0 11.8272-9.6256 21.4528-21.4528 21.4528h-122.88c-11.8272 0-21.4528-9.6256-21.4528-21.4528V455.2192zM570.368 583.168h-122.88c-14.6432 0-26.5728 11.9296-26.5728 26.5728v68.1984c0 14.6432 11.9296 26.5728 26.5728 26.5728h122.88c14.6432 0 26.5728-11.9296 26.5728-26.5728v-68.1984c0-14.6944-11.9296-26.5728-26.5728-26.5728z m21.4528 94.7712c0 11.8272-9.6256 21.4528-21.4528 21.4528h-122.88c-11.8272 0-21.4528-9.6256-21.4528-21.4528v-68.1984c0-11.8272 9.6256-21.4528 21.4528-21.4528h122.88c11.8272 0 21.4528 9.6256 21.4528 21.4528v68.1984zM337.0496 583.168h-122.88c-14.6432 0-26.5728 11.9296-26.5728 26.5728v68.1984c0 14.6432 11.9296 26.5728 26.5728 26.5728h122.88c14.6432 0 26.5728-11.9296 26.5728-26.5728v-68.1984c0-14.6944-11.9296-26.5728-26.5728-26.5728z m21.4528 94.7712c0 11.8272-9.6256 21.4528-21.4528 21.4528h-122.88c-11.8272 0-21.4528-9.6256-21.4528-21.4528v-68.1984c0-11.8272 9.6256-21.4528 21.4528-21.4528h122.88c11.8272 0 21.4528 9.6256 21.4528 21.4528v68.1984zM570.368 744.3968h-122.88c-14.6432 0-26.5728 11.9296-26.5728 26.5728v68.1984c0 14.6432 11.9296 26.5728 26.5728 26.5728h122.88c14.6432 0 26.5728-11.9296 26.5728-26.5728v-68.1984c0-14.6432-11.9296-26.5728-26.5728-26.5728z m21.4528 94.8224c0 11.8272-9.6256 21.4528-21.4528 21.4528h-122.88c-11.8272 0-21.4528-9.6256-21.4528-21.4528v-68.1984c0-11.8272 9.6256-21.4528 21.4528-21.4528h122.88c11.8272 0 21.4528 9.6256 21.4528 21.4528v68.1984zM337.0496 744.3968h-122.88c-14.6432 0-26.5728 11.9296-26.5728 26.5728v68.1984c0 14.6432 11.9296 26.5728 26.5728 26.5728h122.88c14.6432 0 26.5728-11.9296 26.5728-26.5728v-68.1984c0-14.6432-11.9296-26.5728-26.5728-26.5728z m21.4528 94.8224c0 11.8272-9.6256 21.4528-21.4528 21.4528h-122.88c-11.8272 0-21.4528-9.6256-21.4528-21.4528v-68.1984c0-11.8272 9.6256-21.4528 21.4528-21.4528h122.88c11.8272 0 21.4528 9.6256 21.4528 21.4528v68.1984zM807.8336 704.512c14.6432 0 26.5728-11.9296 26.5728-26.5728v-68.1984c0-14.6432-11.9296-26.5728-26.5728-26.5728h-122.88c-14.6432 0-26.5728 11.9296-26.5728 26.5728v68.1984c0 14.6432 11.9296 26.5728 26.5728 26.5728h122.88z m-144.3328-26.5728v-68.1984c0-11.8272 9.6256-21.4528 21.4528-21.4528h122.88c11.8272 0 21.4528 9.6256 21.4528 21.4528v68.1984c0 11.8272-9.6256 21.4528-21.4528 21.4528h-122.88c-11.8272 0-21.4528-9.6256-21.4528-21.4528z" fill="#472F7E" /></svg>