<?xml version="1.0" standalone="no"?><!DOCTYPE svg PUBLIC "-//W3C//DTD SVG 1.1//EN" "http://www.w3.org/Graphics/SVG/1.1/DTD/svg11.dtd"><svg class="icon" width="200px" height="200.00px" viewBox="0 0 1024 1024" version="1.1" xmlns="http://www.w3.org/2000/svg"><path d="M880.7424 125.7472v-0.5632H144.6912l99.9424 146.3808h536.576z" fill="#4479E2" /><path d="M511.6928 701.0816m-225.9456 0a225.9456 225.9456 0 1 0 451.8912 0 225.9456 225.9456 0 1 0-451.8912 0Z" fill="#F4D642" /><path d="M402.688 503.1424L144.6912 125.184 50.1248 199.5264a31.3856 31.3856 0 0 0-6.7584 42.0352l254.9248 385.28c18.3808-52.992 55.9616-96.9728 104.3968-123.6992zM975.6672 199.5264l-94.5664-74.3424-258.7136 378.9824c48.3328 27.2384 85.6064 71.7312 103.4752 125.184l256.5632-387.7376a31.39584 31.39584 0 0 0-6.7584-42.0864z" fill="#4B8DFD" /><path d="M526.4896 581.5808l27.3408 54.2208c2.2528 4.4544 6.5536 7.5264 11.5712 8.2432l61.0816 8.704c12.5952 1.792 17.6128 16.9472 8.4992 25.6512l-44.1856 42.1888a14.7456 14.7456 0 0 0-4.4032 13.312l10.4448 59.5968c2.1504 12.288-11.008 21.6576-22.272 15.8208l-54.6304-28.1088c-4.4544-2.304-9.8304-2.304-14.2848 0l-54.6304 28.1088c-11.264 5.7856-24.4224-3.584-22.272-15.8208l10.4448-59.5968c0.8704-4.864-0.8192-9.8304-4.4032-13.312l-44.1856-42.1888c-9.1136-8.704-4.096-23.8592 8.4992-25.6512l61.0816-8.704c5.0176-0.7168 9.3184-3.7888 11.5712-8.2432l27.3408-54.2208c5.4784-11.1616 21.76-11.1616 27.392 0z" fill="#F29727" /><path d="M530.6368 589.8752l-4.1472-8.2432c-5.632-11.1616-21.9136-11.1616-27.5456 0l-27.3408 54.2208c-2.2528 4.4544-6.5536 7.5264-11.5712 8.2432l-61.0816 8.704c-12.5952 1.792-17.6128 16.9472-8.4992 25.6512l6.7072 6.4c0.0512-0.256 0.2048-0.4608 0.256-0.7168-5.7344-14.4384 7.5776-19.8656 7.5776-19.8656s36.096-4.608 57.6-7.68c21.4528-3.072 25.1392-18.176 25.1392-18.176s11.52-21.248 19.712-41.0112c8.1408-19.8656 23.1936-7.5264 23.1936-7.5264z" fill="#F7AC5C" /><path d="M586.24 732.0064c-0.2048-4.2496 1.3312-8.448 4.5056-11.4688l44.1856-42.1888c7.7824-7.4752 5.2224-19.6096-3.6352-24.064 0.0512 0.1024 2.4576 10.1376-11.0592 22.3744-13.6192 12.288-33.4848 31.4368-33.4848 31.4368s-5.8368 3.4304-0.6656 23.9104h0.1536zM596.736 793.3952l-1.1264-6.4c-2.4064 2.6624-11.264 11.0592-23.0912 4.6592-13.9776-7.5264-61.4912-30.1568-61.4912-30.1568l-61.5936 33.6384s-17.408 8.3456-20.0192-5.9904l-0.7168 4.1984c-2.1504 12.288 11.008 21.6576 22.272 15.8208l54.6304-28.1088c4.4544-2.304 9.8304-2.304 14.2848 0l54.6304 28.1088c11.2128 5.888 24.3712-3.4816 22.2208-15.7696z" fill="#E47300" /><path d="M67.9424 224.4608L162.304 150.9376l-17.5616-25.7536L50.1248 199.5264a31.3856 31.3856 0 0 0-6.7584 42.0352l27.2896 41.216c-27.8528-42.0352-2.7136-58.3168-2.7136-58.3168zM982.4768 241.5616c9.0112-13.6192 6.0928-31.9488-6.7584-42.0352l-94.464-74.2912-37.632 55.1424s24.8832-34.304 52.2752-13.2608c27.392 21.0432 65.8432 52.48 65.8432 52.48s21.0432 15.7184 11.2128 36.352l9.5232-14.3872z" fill="#76A4FF" /><path d="M730.0096 642.9184c-25.6512-96.5632-113.664-167.7824-218.368-167.7824-124.7744 0-225.9456 101.1712-225.9456 225.9456 0 50.7392 16.7424 97.5872 44.9536 135.2704-65.4848-183.2448 65.4848-276.0192 90.5728-290.048 198.3488-91.904 305.8176 91.392 308.7872 96.6144z" fill="#FAE56F" /><path d="M583.9872 873.5744c-62.7712 22.7328-167.0656 47.2576-253.2864-37.1712 41.216 55.04 106.9568 90.6752 180.992 90.6752 124.7744 0 225.9456-101.1712 225.9456-225.9456 0-20.1216-2.6624-39.6288-7.5776-58.1632-0.0512-0.0512-0.4608 161.0752-146.0736 230.6048z" fill="#E4CA2A" /><path d="M977.2544 197.5296L882.688 123.1872a2.47808 2.47808 0 0 0-1.792-0.512c-0.0512 0-0.1536-0.0512-0.2048-0.0512H144.6912c-0.1024 0-0.1536 0.0512-0.2048 0.0512-0.3072 0.0512-0.5632 0.1024-0.8704 0.256-0.1024 0.0512-0.2048 0.1024-0.3584 0.1536-0.0512 0.0512-0.1024 0.0512-0.1536 0.1024L48.5376 197.5296c-13.824 10.8544-17.0496 30.8224-7.3216 45.4656l254.2592 384.256a227.4304 227.4304 0 0 0-12.288 73.8304c0 126.0032 102.5024 228.5056 228.5056 228.5056 126.0032 0 228.5056-102.5024 228.5056-228.5056 0-24.9344-4.0448-48.896-11.4688-71.3216l255.8976-386.7648c9.6768-14.6432 6.4512-34.6112-7.3728-45.4656zM511.6928 472.576c-39.1168 0-75.9296 9.8816-108.1344 27.2384L249.4976 274.1248h526.848l-154.7264 226.7136a226.8928 226.8928 0 0 0-109.9264-28.2624zM149.5552 127.744h726.7328l-96.4096 141.2608H245.9648L149.5552 127.744z m148.0192 493.4144L45.5168 240.1792c-8.2432-12.4416-5.4784-29.3888 6.2464-38.6048l92.416-72.6528 98.4064 144.128L399.0016 502.272a228.49024 228.49024 0 0 0-97.8432 109.8752c-0.2048 0.4608-0.3584 0.9728-0.5632 1.4848-1.024 2.4576-2.048 5.0176-3.0208 7.5264z m214.1184 303.3088c-123.1872 0-223.3856-100.1984-223.3856-223.3856 0-26.1632 4.5568-51.3024 12.9024-74.7008 0.6656-1.8432 1.3312-3.6352 2.048-5.4272 0.6144-1.6384 1.28-3.2768 1.9456-4.864 0.5632-1.4336 1.1776-2.816 1.8432-4.2496 0.8704-2.048 1.792-4.0448 2.7648-6.0928 0.4608-0.9728 0.9216-1.8944 1.3824-2.8672 1.2288-2.5088 2.5088-4.9664 3.7888-7.424l0.768-1.3824c37.9904-69.2736 111.616-116.3776 196.0448-116.3776 41.8304 0 80.9984 11.5712 114.5344 31.6928 0.5632 0.3584 1.1264 0.6656 1.6896 1.024 2.8672 1.7408 5.6832 3.5328 8.448 5.4272 0.0512 0.0512 0.1024 0.0512 0.1536 0.1024a224.90112 224.90112 0 0 1 71.424 78.592c0.1536 0.3072 0.3072 0.6144 0.4608 0.8704 1.4336 2.6624 2.816 5.3248 4.1472 8.0384 0.512 1.0752 1.024 2.2016 1.536 3.2768 0.9216 1.9456 1.792 3.8912 2.6624 5.8368 0.7168 1.6896 1.4336 3.3792 2.0992 5.0688 0.5632 1.4336 1.1264 2.816 1.6896 4.2496 0.8192 2.0992 1.536 4.1984 2.304 6.3488 7.8848 22.8352 12.2368 47.36 12.2368 72.8576-0.1024 123.1872-100.352 223.3856-223.488 223.3856z m214.9376-300.8512c0-0.0512 0-0.0512-0.0512-0.1024-0.6656-1.792-1.3312-3.5328-2.048-5.3248-0.6656-1.6384-1.28-3.328-1.9456-4.9664-0.512-1.2288-1.0752-2.4576-1.6384-3.6864-0.9728-2.2016-1.9456-4.352-2.9696-6.5536-0.4096-0.8192-0.768-1.5872-1.1776-2.4064-1.28-2.6112-2.6112-5.2224-3.9936-7.8336-0.2048-0.3584-0.4096-0.768-0.6144-1.1264a228.15232 228.15232 0 0 0-72.5504-79.7696 4.42368 4.42368 0 0 0-0.8192-0.512c-2.56-1.7408-5.2224-3.4304-7.8336-5.0176-0.6144-0.3584-1.2288-0.768-1.8432-1.1264-1.024-0.6144-1.9968-1.28-3.0208-1.8432l157.184-230.2976 98.4064-144.128 92.416 72.6528c11.7248 9.216 14.4384 26.1632 6.2464 38.6048l-253.7472 383.4368z" fill="#472F7E" /><path d="M626.7904 650.1888l-61.0816-8.704c-4.1472-0.6144-7.7824-3.1744-9.6256-6.8096l-27.3408-54.2208c-3.0208-6.0416-9.1648-9.7792-16.0256-9.7792-6.8608 0-13.0048 3.7376-16.0256 9.7792l-27.2896 54.2208c-1.8432 3.6864-5.4784 6.2464-9.6256 6.8096l-61.0816 8.704c-6.8608 0.9728-12.4416 5.632-14.4896 12.1344-2.048 6.4-0.256 13.2096 4.608 17.92l44.1856 42.1888c3.0208 2.8672 4.352 6.9632 3.6352 11.008l-10.4448 59.5968a17.3568 17.3568 0 0 0 6.912 17.0496c3.1744 2.3552 6.912 3.5328 10.7008 3.5328 2.816 0 5.6832-0.6656 8.3456-2.048l54.6304-28.1088c3.7376-1.9456 8.192-1.9456 11.9296 0l54.6304 28.1088c6.1952 3.1744 13.4656 2.6112 19.0464-1.4848a17.4592 17.4592 0 0 0 6.912-17.0496l-10.4448-59.5968c-0.7168-4.0448 0.6656-8.1408 3.6864-11.008l44.1856-42.1888c4.864-4.6592 6.656-11.52 4.608-17.8688a17.73056 17.73056 0 0 0-14.5408-12.1856z m6.3488 26.3168l-44.1856 42.1888a17.408 17.408 0 0 0-5.1712 15.5648l10.4448 59.5968c0.8192 4.7104-1.024 9.1648-4.9152 12.032-3.9936 2.9696-9.216 3.3792-13.6704 1.0752l-54.6304-28.1088a18.17088 18.17088 0 0 0-16.5888 0l-54.6304 28.1088c-4.4544 2.2528-9.6768 1.8432-13.6704-1.0752-3.8912-2.8672-5.7344-7.3728-4.9152-12.032l10.4448-59.5968c1.024-5.7344-0.9216-11.52-5.1712-15.5648l-44.1856-42.1888a12.0832 12.0832 0 0 1-3.2768-12.6464c1.4848-4.7104 5.376-7.8848 10.3424-8.6016l61.0816-8.704c5.8368-0.8192 10.8544-4.4032 13.4656-9.6256l27.2896-54.2208c2.2016-4.352 6.5024-6.9632 11.4688-6.9632 4.9664 0 9.2672 2.6112 11.4688 6.9632l27.3408 54.2208a17.9968 17.9968 0 0 0 13.4656 9.6256l61.0816 8.704c4.9664 0.7168 8.8576 3.9424 10.3424 8.6016 1.536 4.5568 0.3072 9.2672-3.2256 12.6464z" fill="#472F7E" /></svg>