<?xml version="1.0" standalone="no"?><!DOCTYPE svg PUBLIC "-//W3C//DTD SVG 1.1//EN" "http://www.w3.org/Graphics/SVG/1.1/DTD/svg11.dtd"><svg class="icon" width="200px" height="200.00px" viewBox="0 0 1024 1024" version="1.1" xmlns="http://www.w3.org/2000/svg"><path d="M844.7488 285.0304l-98.9696-98.9696a25.12384 25.12384 0 0 1 0-35.4816l67.6864-67.6864a25.12384 25.12384 0 0 1 35.4816 0l98.9696 98.9696a25.12384 25.12384 0 0 1 0 35.4816l-67.6864 67.6864a25.12384 25.12384 0 0 1-35.4816 0z" fill="#F29727" /><path d="M759.0912 199.3728l-361.216 345.8048s57.2416 24.5248 79.0528 80.4352c37.2224-36.096 284.1088-281.8048 355.5328-352.8704l-73.3696-73.3696z" fill="#FD6758" /><path d="M420.3008 557.9776l355.9936-341.4016-17.2032-17.2032-361.216 345.8048s9.5744 4.1472 22.4256 12.8z" fill="#FF7E78" /><path d="M461.9776 598.0672c5.7856 8.1408 10.9568 17.3056 14.9504 27.5456 37.2224-36.096 284.1088-281.8048 355.5328-352.8704l-18.0224-18.0224-352.4608 343.3472z" fill="#E54C45" /><path d="M476.928 625.6128c-21.8112-55.9104-79.0528-80.4352-79.0528-80.4352l162.7648-155.8016c-137.5744-98.2016-200.1408 13.568-212.8384 52.224-10.9056 33.024-52.6848 62.8736-94.1056 62.3616s-78.0288 5.7856-120.32 42.5984c-151.1936 155.5968 10.9056 310.784 10.9056 310.784 104.2944 101.888 215.7056 111.7696 292.4032 69.8368 77.7216-46.0288 88.064-115.5072 87.9104-153.344-0.256-63.0272 69.1712-89.6 84.5312-97.1264 24.5248-11.9808 125.8496-88.832 31.2832-212.992-74.752 74.2912-144.9984 143.9744-163.4816 161.8944z" fill="#F29727" /><path d="M443.392 170.8032l-54.528-31.5904a29.57824 29.57824 0 0 0-25.4976-2.048 29.696 29.696 0 0 0-17.664 18.4832l-28.9792 87.9616c-7.7824-7.2192-33.5872-28.7744-63.8464-27.904-17.2032 0.4608-32.8192 8.1408-45.2096 22.1184-18.176 20.5312-18.8928 39.936-16.2816 52.5824 7.3216 35.84 48.0256 55.4496 48.8448 55.8592 14.6944 6.9632 27.392 9.7792 38.3488 9.7792 26.9312 0 43.1104-16.8448 51.456-29.4912 3.2256-4.864 5.5296-9.728 7.168-14.592 0.0512-0.1024 0.0512-0.1536 0.1024-0.2048l0.4608-1.3312c0.2048-0.5632 0.4096-1.1776 0.5632-1.7408l41.8816-127.1296 42.5984 24.6784c9.7792 5.6832 22.3232 2.3552 28.0064-7.4752 5.6832-9.728 2.3552-22.272-7.424-27.9552zM257.8432 309.2992l-0.4608-0.2048c-5.7856-2.7136-23.296-14.6432-25.8048-26.88-0.4096-2.0992-1.5872-7.7312 6.8096-17.2544 6.4-7.2192 11.9296-8.192 15.5648-8.3456h0.7168c13.9776 0 30.4128 13.2096 35.1744 17.92l0.3072 0.3072c4.608 4.4032 14.3872 16.128 5.7856 29.1328-8.5504 13.0048-18.8928 14.4384-38.0928 5.3248zM904.0896 710.2464c-0.2048-0.3072-0.3072-0.6144-0.5632-0.8704l-64.3584-84.4288c-11.52-15.1552-33.024-18.7392-48.8448-8.192L701.44 675.84a36.4544 36.4544 0 0 0-15.5648 23.7056c-1.7408 9.6256 0.5632 19.712 6.2976 27.6992l28.7744 39.7824c-10.8544 3.3792-21.3504 9.5232-30.2592 18.432-12.1856 12.1344-19.7632 27.6992-21.3504 43.7248-1.7408 17.3056 3.84 33.8432 15.3088 45.312 10.0864 10.0864 24.064 15.616 39.0656 15.616 2.048 0 4.1472-0.1024 6.2464-0.3072 16.0256-1.6384 31.5392-9.216 43.7248-21.3504 24.576-24.6272 28.5184-61.2864 9.984-84.6336l-55.3472-76.544 81.1008-53.9136 29.3376 38.4512c-10.5984 3.584-20.5824 9.728-28.928 18.0736-12.1856 12.1856-19.7632 27.6992-21.3504 43.7248-1.7408 17.3056 3.84 33.8432 15.3088 45.312 10.0864 10.0864 24.064 15.616 39.0656 15.616 2.048 0 4.1472-0.1024 6.2464-0.3072 16.0256-1.6384 31.5392-9.216 43.7248-21.3504 12.1856-12.1856 19.7632-27.6992 21.3504-43.7248 1.28-14.3872-2.3552-28.1088-10.0864-38.912z m-159.488 129.1776c-9.8816 9.8816-24.4224 12.7488-31.0784 6.0928-6.656-6.656-3.84-21.1968 6.0928-31.0784 6.2464-6.2464 14.336-9.6768 21.1456-9.6768 3.9424 0 7.4752 1.1776 9.9328 3.6352 6.656 6.5536 3.7888 21.0944-6.0928 31.0272z m119.0912-75.6224c-5.4272 5.4272-12.288 8.9088-18.8416 9.5744-2.9696 0.3072-8.4992 0.256-12.2368-3.4816-3.7376-3.7376-3.7888-9.2672-3.4816-12.2368 0.6656-6.5536 4.1472-13.4656 9.5744-18.8416 6.2464-6.2464 14.336-9.6768 21.1456-9.6768 3.9424 0 7.4752 1.1776 9.9328 3.6352 6.656 6.6048 3.7888 21.1456-6.0928 31.0272z" fill="#4B8DFD" /><path d="M360.4992 667.0848m-75.7248 0a75.7248 75.7248 0 1 0 151.4496 0 75.7248 75.7248 0 1 0-151.4496 0Z" fill="#FFFEDC" /><path d="M413.5936 637.2864s-39.424-20.7872-72.5504-4.9152c-33.1264 15.872-32.3072 49.664-31.8464 56.832-15.7184-2.1504-18.3808-57.2416 14.1824-77.9776s76.2368-6.5536 90.2144 26.0608z" fill="#FFFFFF" /><path d="M410.88 634.112s3.2256 35.6352-33.5872 60.3648c-36.8128 24.7296-67.9936-2.9184-74.1888-9.7792 0 33.3312 56.2176 63.3856 92.16 36.3008 35.9936-27.1872 28.6208-71.1168 15.616-86.8864z" fill="#F6D1B8" /><path d="M360.4992 763.904c-53.4016 0-96.8192-43.4176-96.8192-96.8192s43.4176-96.8192 96.8192-96.8192 96.8192 43.4176 96.8192 96.8192-43.4688 96.8192-96.8192 96.8192z m0-152.6784c-30.8224 0-55.8592 25.0368-55.8592 55.8592s25.0368 55.8592 55.8592 55.8592 55.8592-25.0368 55.8592-55.8592-25.088-55.8592-55.8592-55.8592zM301.4656 848.0768a20.4288 20.4288 0 0 1-14.5408-6.0416l-117.248-117.9136a20.47488 20.47488 0 0 1 0.1024-28.9792 20.47488 20.47488 0 0 1 28.9792 0.1024l117.248 117.9136a20.47488 20.47488 0 0 1-14.5408 34.9184z" fill="#4B8DFD" /><path d="M823.5008 224.512a20.3264 20.3264 0 0 1-14.848-6.4 20.41856 20.41856 0 0 1 0.768-28.928l44.1856-41.9328a20.41856 20.41856 0 0 1 28.928 0.768 20.41856 20.41856 0 0 1-0.768 28.928l-44.1856 41.9328c-3.9424 3.7888-9.0112 5.632-14.08 5.632zM743.6288 360.2944l-17.8176-18.944a20.46976 20.46976 0 0 1 29.8496-28.0064l17.8176 18.944-29.8496 28.0064zM602.7776 393.8304l-21.8624-25.2928 30.976-26.7776 21.8624 25.2928a20.44928 20.44928 0 0 1-2.0992 28.8768 20.49536 20.49536 0 0 1-28.8768-2.0992zM553.9328 548.9152l-22.5792-23.8592a20.46464 20.46464 0 0 1 29.696-28.16l22.5792 23.8592-29.696 28.16z" fill="#FFFEDC" /><path d="M848.896 82.8928a25.12384 25.12384 0 0 0-35.4816 0l-67.6864 67.6864a25.12384 25.12384 0 0 0 0 35.4816l13.312 13.312c-16.7936-16.7936-0.4096-30.72-0.4096-30.72l63.744-63.744c20.3264-20.3264 78.7968 30.3104 78.7968 30.3104L848.896 82.8928z" fill="#F7AC5C" /><path d="M935.5264 210.1248l-57.856 57.856s-16.4864 19.0976-35.6352 0C822.9376 248.8832 757.76 197.9904 757.76 197.9904l0.0512 0.1024 86.9376 86.9376a25.12384 25.12384 0 0 0 35.4816 0l67.6864-67.6864a25.12384 25.12384 0 0 0 0-35.4816c-0.0512 0.0512 3.7888 12.0832-12.3904 28.2624z" fill="#F47706" /><path d="M882.5344 148.0192a20.46464 20.46464 0 0 0-28.928-0.768l-44.1856 41.9328c-7.8336 7.424-8.3968 19.5072-1.6896 27.7504-4.1472-9.1648 5.376-17.5616 5.376-17.5616s41.3184-39.5776 48.8448-47.104c7.168-7.168 20.0192-3.7888 21.248-3.4304-0.2048-0.256-0.4096-0.5632-0.6656-0.8192z" fill="#FFFFFF" /><path d="M883.2 148.8384c0 0.0512 6.0416 8.8576-2.0992 17.3056-8.192 8.4992-49.8176 47.5648-49.8176 47.5648s-10.0352 11.1104-22.5792 4.4032c4.0448 4.2496 9.4208 6.4 14.848 6.4 5.0688 0 10.1376-1.8432 14.08-5.632l44.1856-41.9328c7.936-7.5264 8.3968-19.8656 1.3824-28.1088zM633.7536 367.0016l-2.2528-2.6112s4.4032 14.4896-6.8608 22.8352-23.04 5.1712-28.7232-1.3824l6.8608 7.936a20.49536 20.49536 0 0 0 28.8768 2.0992c8.5504-7.3728 9.472-20.2752 2.0992-28.8768zM575.3856 512l-29.5936 28.3648 8.1408 8.5504 29.7472-28.16zM766.0032 324.3008l-29.5936 28.3648 7.2192 7.6288 29.8496-28.0576z" fill="#F6D1B8" /><path d="M360.4992 570.2656c-53.4016 0-96.8192 43.4176-96.8192 96.8192 0 17.6128 4.8128 34.0992 13.056 48.3328-8.7552-30.0544 0.6656-97.7408 53.5552-117.3504 52.8896-19.6096 110.08 14.592 110.3872 14.7968-17.4592-25.7024-46.8992-42.5984-80.1792-42.5984z" fill="#76A4FF" /><path d="M457.3184 667.0848c0-17.7664-4.864-34.3552-13.2608-48.6912 0.9728 4.864 14.9504 81.2544-49.5616 114.944-20.5824 8.8064-83.0464 19.968-117.76-17.9712 16.7424 28.928 47.9744 48.4864 83.7632 48.4864 53.3504 0.0512 96.8192-43.4176 96.8192-96.768z" fill="#4479E2" /><path d="M198.7584 695.2448a20.52096 20.52096 0 0 0-28.9792-0.1024 20.52096 20.52096 0 0 0-0.1024 28.9792l13.6192 13.6704c-7.68-7.68-12.544-18.8416-3.4304-27.3408 9.1648-8.4992 18.4832-2.0992 18.4832-2.0992l93.0304 80.0256-92.6208-93.1328z" fill="#76A4FF" /><path d="M316.0064 813.1584l-7.2704-7.3216s5.8368 13.568-4.096 22.1184c-9.9328 8.6016-22.6816-2.7136-22.6816-2.7136L183.3472 737.792l103.6288 104.2432c3.9936 4.0448 9.2672 6.0416 14.5408 6.0416 5.2224 0 10.4448-1.9968 14.4384-5.9392 7.9872-7.9872 8.0384-20.992 0.0512-28.9792z" fill="#4479E2" /><path d="M384.512 476.8256c3.9424-16.9984 10.9568-46.8992 51.712-73.8816 34.304-22.6816 82.2784-13.2608 113.408-3.0208l11.008-10.5472c-137.5744-98.2016-200.1408 13.568-212.8384 52.224-10.9056 33.024-52.6848 62.8736-94.1056 62.3616s-78.0288 5.7856-120.32 42.5984c-99.9936 102.912-62.976 205.6192-26.4192 263.3728-43.8272-146.944 68.352-251.392 145.664-254.0032S380.5696 493.824 384.512 476.8256z" fill="#F7AC5C" /><path d="M657.6128 489.4208c0.2048 2.56 8.3968 100.352-42.496 128.9728-51.5584 29.0304-112.9984 64.6656-122.1632 119.3984-9.1648 54.7328-105.5744 254.976-310.9376 152.2688 92.7744 70.7584 187.1872 74.0352 254.6688 37.12 77.7216-46.0288 88.064-115.5072 87.9104-153.344-0.256-63.0272 69.1712-89.6 84.5312-97.1264 22.8352-11.1104 111.7696-78.2336 48.4864-187.2896z" fill="#F47706" /><path d="M438.3744 174.7456c12.8 7.2192 14.8992 12.6976 15.1552 14.9504 0.4096-7.4752-3.1744-14.848-10.0864-18.8928l-54.528-31.5904a29.57824 29.57824 0 0 0-25.4976-2.048 29.696 29.696 0 0 0-17.664 18.4832l-28.9792 87.9616c-7.7824-7.2192-33.5872-28.7744-63.8464-27.904-17.2032 0.4608-32.8192 8.1408-45.2096 22.1184-18.176 20.5312-18.8928 39.936-16.2816 52.5824 3.072 14.8992 11.9296 26.9824 21.248 36.096-24.7808-41.472-3.6864-77.7728 28.8768-92.4672 32.6144-14.6944 77.9264 29.6448 77.9264 29.6448s27.1872-78.848 33.792-102.912c6.6048-24.0128 33.5872-13.9776 33.5872-13.9776s34.56 18.432 51.5072 27.9552z" fill="#76A4FF" /><path d="M450.8672 198.8096c0.4608-0.8192 0.768-1.6896 1.1264-2.5088-1.1264 1.6384-8.192 10.5472-21.7088 3.072-14.848-8.192-47.0528-25.344-47.0528-25.344l-2.9184 7.5776 42.5984 24.6784c9.728 5.632 22.272 2.304 27.9552-7.4752zM284.16 339.456c-30.4128 8.3456-71.5264-12.9536-71.5264-12.9536 13.056 12.6976 27.136 19.5584 27.648 19.8144 14.6944 6.9632 27.392 9.7792 38.3488 9.7792 26.9312 0 43.1104-16.8448 51.456-29.4912 3.2256-4.864 5.5296-9.728 7.168-14.592 0.0512-0.1024 0.0512-0.1536 0.1024-0.2048l0.4608-1.3312c0.2048-0.5632 0.4096-1.1776 0.5632-1.7408l6.3488-19.3024c-12.1856 32.9728-40.704 44.3904-60.5696 50.0224zM231.5264 282.2144c-0.4096-2.0992-1.5872-7.7312 6.8096-17.2544 6.4-7.2192 11.9296-8.192 15.5648-8.3456h0.7168c13.9776 0 30.4128 13.2096 35.1744 17.92l0.3072 0.3072c2.7648 2.6624 7.3728 7.936 8.7552 14.5408 0 0 0.2048-28.3648-28.4672-39.6288s-37.2736 2.4576-44.1344 11.264c-6.8608 8.8064-4.608 24.9344 12.1344 33.4336-3.2768-3.7888-5.9904-7.9872-6.8608-12.2368z" fill="#4479E2" /><path d="M904.0896 710.2464c-0.2048-0.3072-0.3072-0.6144-0.5632-0.8704l-64.3584-84.4288c-11.52-15.1552-33.024-18.7392-48.8448-8.192L701.44 675.84a36.4544 36.4544 0 0 0-15.5648 23.7056c-1.7408 9.6256 0.5632 19.712 6.2976 27.6992l4.0448 5.632c-16.7424-23.1424 9.8816-41.6256 9.8816-41.6256s61.1328-40.192 86.6304-56.8832 39.7824 0 39.7824 0l77.1072 85.5552c-1.5872-3.4304-3.3792-6.7072-5.5296-9.6768z" fill="#76A4FF" /><path d="M847.9232 701.3376l-9.2672-9.5744c-10.5984 3.584-20.5824 9.728-28.928 18.0736-12.1856 12.1856-19.7632 27.6992-21.3504 43.7248-1.536 15.1552 2.56 29.696 11.264 40.7552-14.3872-61.952 48.2816-92.9792 48.2816-92.9792zM730.2656 779.776l-9.3696-12.8c-10.8544 3.3792-21.3504 9.5232-30.2592 18.432-12.1856 12.1344-19.7632 27.6992-21.3504 43.7248-1.536 15.1552 2.5088 29.6448 11.2128 40.704-11.8784-70.4 49.7664-90.0608 49.7664-90.0608z" fill="#76A4FF" /><path d="M770.1504 847.4112c-17.664 20.9408-44.6976 43.9296-85.6064 27.0336 10.0864 10.0864 24.064 15.616 39.0656 15.616 2.048 0 4.1472-0.1024 6.2464-0.3072 16.0256-1.6384 31.5392-9.216 43.7248-21.3504 23.552-23.552 28.0576-58.1632 12.1856-81.5104 0.0512 0.8192 1.8432 39.8336-15.616 60.5184zM914.0224 749.056c0.8704-8.6016-0.1024-16.9472-2.7136-24.576-0.1024 0.6144-6.4 36.8128-30.0544 55.9616-23.8592 19.3024-55.5008 29.0304-81.664 13.8752 1.2288 1.5872 2.6112 3.1232 4.0448 4.5568 10.0864 10.0864 24.064 15.616 39.0656 15.616 2.048 0 4.1472-0.1024 6.2464-0.3072 16.0256-1.6384 31.5392-9.216 43.7248-21.3504 12.1344-12.2368 19.712-27.7504 21.3504-43.776zM832.4608 731.0848c-21.1456 16.9984-10.5984 37.7344 0.1536 38.8096-3.7376-3.7376-3.7888-9.2672-3.4816-12.2368 0.6656-6.5536 4.1472-13.4656 9.5744-18.8416 6.2464-6.2464 14.336-9.6768 21.1456-9.6768 3.9424 0 7.4752 1.1776 9.9328 3.6352-0.0512-0.0512-16.1792-18.688-37.3248-1.6896zM711.9872 804.7104c-19.6096 14.2848-11.4176 39.7312 0 38.7584l0.0512-0.0512c-4.5056-7.2704-1.4336-20.0192 7.5776-29.0304 6.2464-6.2464 14.336-9.6768 21.1456-9.6768 3.0208 0 5.7856 0.6656 7.9872 2.0992 0-0.0512-17.152-16.4352-36.7616-2.0992z" fill="#4479E2" /><path d="M949.7088 180.0704l-98.9696-98.9696a27.41248 27.41248 0 0 0-19.5584-8.0896c-7.3728 0-14.336 2.8672-19.5584 8.0896L743.936 148.7872a27.4944 27.4944 0 0 0-8.0896 19.5584c0 7.3728 2.8672 14.336 8.0896 19.5584l11.4688 11.4688L594.6368 353.28l-15.4112 13.3632c-0.6656 0.5632-0.9216 1.3824-0.8192 2.2016l-18.0224 17.2544c-49.7152-35.0208-94.6176-46.336-133.5296-33.5872C369.7152 371.2 347.648 433.7152 345.344 440.7808c-10.9056 33.024-52.224 60.6208-90.624 60.6208h-0.9728c-42.9056-0.4608-79.9744 6.6048-122.1632 43.3664-44.1856 45.5168-66.1504 95.4368-65.1776 148.48 1.6896 93.6448 75.4176 165.2224 76.1344 165.9392 70.0416 68.4544 140.8 93.5936 200.9088 93.5936 36.1984 0 68.5056-9.1136 94.5664-23.3472 74.0352-43.8272 89.344-108.8 89.1904-155.5456-0.2048-56.4736 56.9856-82.7904 78.5408-92.672 1.792-0.8192 3.328-1.536 4.5568-2.1504 15.2064-7.424 57.2928-37.7344 69.2224-87.9616 9.5232-40.0896-2.5088-82.8416-35.6864-127.1296C683.0592 424.96 723.9168 384.3584 760.2688 348.16l14.9504-14.0288c0.4608-0.4096 0.6656-0.9728 0.768-1.5872 21.3504-21.1968 40.6016-40.3968 56.4736-56.2176l10.496 10.496a27.55584 27.55584 0 0 0 19.5584 8.0896c7.0656 0 14.1312-2.7136 19.5584-8.0896L949.76 219.136c10.7008-10.752 10.7008-28.2624-0.0512-39.0656z m-338.0736 165.2736l20.1728 23.3472c3.1232 3.6352 4.6592 8.2432 4.3008 13.0048s-2.5088 9.1136-6.144 12.2368a17.9712 17.9712 0 0 1-25.2928-1.8432l-19.6096-22.6816 13.0048-12.4416 13.568-11.6224z m62.8736 244.5824c-11.4176 48.2816-51.8656 77.3632-66.4576 84.5312-1.1776 0.5632-2.6624 1.28-4.4544 2.0992-22.3744 10.2912-81.7664 37.5808-81.5104 97.3824 0.2048 45.4144-14.6944 108.544-86.5792 151.0912-67.6864 36.9664-179.2512 38.1952-289.3824-69.4784-0.7168-0.7168-72.9088-70.8608-74.5984-162.3552-0.9216-51.6096 20.5312-100.352 63.5904-144.6912 39.5264-34.4576 73.3184-41.984 114.176-41.984 1.4336 0 2.9184 0 4.4032 0.0512h1.024c40.3968 0 83.968-29.184 95.488-64.1536 2.2528-6.8096 23.5008-67.1232 78.2336-84.992 37.0688-12.1344 80.1792-1.28 128.2048 32.3072l-160.512 153.6512c-0.6144 0.6144-0.9216 1.4848-0.768 2.304 0.1536 0.8704 0.7168 1.536 1.4848 1.8944 0.512 0.2048 46.5408 20.4288 70.912 64.512 2.5088 4.5568 4.8128 9.3696 6.8096 14.4896 0.3072 0.8192 1.024 1.3824 1.8432 1.5872 0.2048 0.0512 0.3584 0.0512 0.5632 0.0512 0.1536 0 0.3072-0.0512 0.4608-0.1024 0.1024 0 0.256-0.0512 0.3584-0.0512 0.3584-0.1024 0.7168-0.3072 0.9728-0.5632 1.024-1.024 2.304-2.2528 3.6864-3.584l0.3072-0.3072c1.3312-1.3312 2.816-2.7648 4.4544-4.352l0.6656-0.6656c1.6896-1.6384 3.5328-3.4304 5.4784-5.376l0.256-0.256c2.048-2.048 4.2496-4.1984 6.5536-6.4512l0.4096-0.4096c17.8176-17.6128 43.008-42.496 70.0928-69.376l14.848-14.08c0.4096-0.3584 0.6144-0.8704 0.7168-1.3824 14.6432-14.5408 29.5936-29.3376 43.9296-43.6224 3.328-3.328 6.7072-6.656 10.0864-10.0352 31.7952 42.752 43.3152 83.9168 34.2528 122.3168z m-120.4736-44.6464l-20.8384-22.016a17.9456 17.9456 0 0 1 0.6656-25.344 17.96096 17.96096 0 0 1 25.344 0.6656l20.5312 21.7088c-4.352 4.3008-8.5504 8.4992-12.7488 12.6464l-12.9536 12.3392z m189.696-188.5696l-16.0256-17.0496c-3.2768-3.4816-5.0176-8.0384-4.864-12.8512 0.1536-4.7616 2.1504-9.216 5.632-12.4928a17.9712 17.9712 0 0 1 25.344 0.768l15.6672 16.6912c-4.1984 4.1472-8.448 8.3968-12.7488 12.6976l-13.0048 12.2368z m85.0944-83.968c-15.6672 15.5648-34.7136 34.56-55.7056 55.4496l-15.5648-16.5888a23.0144 23.0144 0 0 0-32.5632-1.024 23.05024 23.05024 0 0 0-1.024 32.5632l16.4864 17.5616c-50.7904 50.5344-108.2368 107.6224-157.0304 156.0576l-20.48-21.6064a22.8608 22.8608 0 0 0-16.0768-7.168c-6.144-0.0512-11.9808 2.048-16.4864 6.2976a23.04512 23.04512 0 0 0-0.8704 32.5632l21.1968 22.3744c-4.4032 4.352-8.704 8.6528-12.8512 12.7488l-0.6656 0.6656c-2.7648 2.7648-5.4784 5.4272-8.1408 8.0896-1.024 1.024-2.048 2.048-3.072 3.0208-1.9968 1.9968-3.9936 3.9424-5.888 5.8368-1.0752 1.0752-2.2016 2.1504-3.2256 3.2256-1.9456 1.9456-3.84 3.84-5.7344 5.632-0.9728 0.9728-1.9456 1.9456-2.9184 2.8672-1.6896 1.6384-3.2768 3.2256-4.8128 4.7616-1.0752 1.024-2.0992 2.0992-3.1232 3.072-1.2288 1.2288-2.4064 2.4064-3.584 3.5328-1.2288 1.1776-2.4064 2.4064-3.5328 3.4816-0.9728 0.9728-1.8432 1.8432-2.7648 2.7136-1.024 1.024-2.0992 2.048-3.072 3.0208-1.1264 1.0752-2.0992 2.0992-3.1232 3.072-0.6656 0.6656-1.3824 1.3312-1.9968 1.9456-1.536 1.536-2.9696 2.9184-4.2496 4.1472-1.2288-2.8672-2.56-5.6832-3.9424-8.3456-20.992-40.6016-59.8528-62.4128-71.5776-68.3008l160.1024-153.2416 18.9952-18.176 19.4048 22.4768a22.91712 22.91712 0 0 0 17.4592 7.936c5.3248 0 10.7008-1.8432 15.0528-5.5808 9.6256-8.2944 10.6496-22.8864 2.3552-32.512l-20.9408-24.2176 144.3328-138.1888 36.0448 36.0448 33.5872 33.792z m117.248-57.1904l-67.6864 67.6864c-8.7552 8.7552-23.04 8.7552-31.8464 0l-47.5136-47.5136-38.144-38.144-13.312-13.312a22.34368 22.34368 0 0 1-6.6048-15.9232c0-5.9904 2.3552-11.6736 6.6048-15.9232l67.6864-67.6864c4.2496-4.2496 9.9328-6.6048 15.9232-6.6048s11.6736 2.3552 15.9232 6.6048l98.9696 98.9696a22.49728 22.49728 0 0 1 0 31.8464zM239.2064 348.6208c13.9776 6.656 27.2384 9.984 39.4752 9.984 27.5968 0 44.3904-16.64 53.6064-30.6176 3.1744-4.7616 5.5808-9.728 7.5776-15.4112l0.6656-1.9968c0.1536-0.4096 0.256-0.8192 0.3584-1.0752l40.9088-124.1088 39.8336 23.0912c5.3248 3.072 11.52 3.8912 17.4592 2.3552a23.05024 23.05024 0 0 0 16.384-28.16 23.05024 23.05024 0 0 0-10.7008-14.0288L390.144 137.0112c-8.448-4.9152-18.5856-5.7344-27.6992-2.2528s-16.128 10.8032-19.2 20.0704L315.4944 239.104c-10.1376-8.7552-34.816-26.6752-62.6688-25.9584-17.92 0.512-34.2016 8.448-47.0528 22.9888-18.8416 21.2992-19.5584 41.5744-16.8448 54.784 7.5776 37.2224 49.8176 57.4976 50.2784 57.7024z m-29.5936-109.056c11.9296-13.4656 26.88-20.7872 43.3664-21.248h1.6896c28.672 0 53.3504 20.7872 60.3136 27.2384 0.6656 0.6144 1.536 0.8192 2.4064 0.6144 0.8704-0.2048 1.536-0.8704 1.792-1.6896L348.16 156.5184c2.56-7.8336 8.448-13.9776 16.128-16.896 7.68-2.9184 16.1792-2.2528 23.296 1.8944l54.528 31.5904c4.1472 2.4064 7.1168 6.2464 8.3456 10.9056 1.2288 4.608 0.6144 9.472-1.792 13.568-2.4064 4.1472-6.2464 7.1168-10.9056 8.3456-4.6592 1.2288-9.472 0.6144-13.6192-1.792l-42.5984-24.6784a2.56512 2.56512 0 0 0-2.2016-0.2048c-0.7168 0.256-1.28 0.8704-1.536 1.5872L335.872 308.0192l-0.3072 0.9216-0.768 2.2528c-1.7408 5.0176-3.9936 9.5744-6.912 14.0288-8.5504 12.9024-24.0128 28.3136-49.3056 28.3136-11.4176 0-23.9616-3.2256-37.2736-9.5232-0.4096-0.2048-40.3456-19.3536-47.4624-54.0672-2.4064-12.0832-1.6896-30.6688 15.7696-50.3808z" fill="#472F7E" /><path d="M256.256 311.3984l0.4608 0.2048c8.4992 4.0448 15.4624 6.0928 21.4016 6.0928 8.2944 0 14.4896-4.0448 19.9168-12.2368 9.9328-15.0528-2.2016-28.6208-6.4512-32.7168-5.2224-5.1712-22.016-18.6368-36.9664-18.6368h-0.768c-4.096 0.1536-10.3424 1.2288-17.408 9.1648-9.2672 10.4448-7.936 16.9984-7.424 19.456 2.7648 13.312 20.9408 25.7024 27.2384 28.672z m-15.9744-44.6976c5.7344-6.4512 10.5984-7.3728 13.7728-7.4752h0.5632c12.1344 0 27.7504 11.5712 33.3312 17.152l0.3584 0.3584c5.12 4.9152 12.6976 14.848 5.4272 25.9072-7.7312 11.7248-16.8448 12.9024-34.816 4.352l-0.4608-0.256c-6.2976-2.9696-22.2208-14.3872-24.4224-25.0368-0.3584-1.792-1.28-6.4512 6.2464-15.0016zM711.68 847.3088c2.9696 2.9696 7.168 4.4032 11.8272 4.4032 7.4752 0 16.0768-3.6864 22.8864-10.496 11.0592-11.0592 13.824-26.9312 6.0928-34.7136-2.8672-2.8672-6.912-4.352-11.7248-4.352-7.7312 0-16.5376 3.9936-22.9888 10.4448-11.0592 11.008-13.824 26.9312-6.0928 34.7136z m29.0816-40.0384c2.4064 0 5.7344 0.512 8.1408 2.8672 5.5808 5.5808 2.7136 18.688-6.0928 27.4944-8.7552 8.7552-21.8624 11.6736-27.4944 6.0928-5.5808-5.5808-2.7136-18.688 6.0928-27.4944 5.5296-5.5296 12.9024-8.96 19.3536-8.96zM859.8016 726.528c-7.7312 0-16.5376 3.9936-22.9888 10.4448-5.8368 5.8368-9.5744 13.2608-10.2912 20.4288-0.3584 3.4304-0.256 9.7792 4.2496 14.2848 3.584 3.584 8.2944 4.352 11.8272 4.352 0.9216 0 1.792-0.0512 2.5088-0.1536 7.1168-0.7168 14.592-4.5056 20.4288-10.2912 5.0688-5.0688 8.704-11.6736 9.9328-18.0736 1.3312-6.8096-0.1024-12.8512-3.8912-16.64-2.8672-2.816-6.912-4.352-11.776-4.352z m10.5984 20.0192c-1.0752 5.4272-4.1984 11.0592-8.5504 15.4624-5.0176 5.0176-11.3152 8.2432-17.3056 8.8576-1.9968 0.2048-7.0144 0.3584-10.1376-2.7648-3.0208-3.0208-3.0208-7.68-2.7648-10.1376 0.6144-5.9904 3.84-12.288 8.8576-17.3056 5.5296-5.5296 12.9536-8.96 19.3536-8.96 2.4064 0 5.7344 0.512 8.1408 2.8672 2.5088 2.5088 3.4304 6.912 2.4064 11.9808z" fill="#472F7E" /><path d="M904.0896 710.2464l1.9968-1.6384c-0.1536-0.256-0.3072-0.5632-0.512-0.768l-64.3584-84.4288c-12.3392-16.2304-35.328-20.0704-52.2752-8.8064l-88.9344 59.136a38.92224 38.92224 0 0 0-16.6912 25.3952c-1.8944 10.3424 0.5632 21.1456 6.7584 29.6448l26.7264 36.9664c-10.3936 3.7888-20.0192 9.984-27.9552 17.92-12.5952 12.5952-20.4288 28.6208-22.1184 45.2608-1.8432 18.0736 3.9936 35.3792 16.0256 47.36 10.5472 10.5472 25.088 16.384 40.8576 16.384 2.1504 0 4.3008-0.1024 6.5024-0.3072 16.5888-1.6896 32.6656-9.5232 45.2608-22.1184 25.4464-25.4464 29.7984-63.2832 10.24-87.9104l-53.8112-74.3936 76.9024-51.0976 25.7536 33.792c-9.8304 3.84-18.9952 9.8304-26.5728 17.4592-12.5952 12.5952-20.4288 28.672-22.1184 45.2608-1.8432 18.0736 3.9936 35.3792 16.0256 47.36 11.9808 11.9808 29.2352 17.92 47.36 16.0256 16.64-1.6896 32.6656-9.5232 45.2608-22.1184s20.4288-28.672 22.1184-45.2608c1.4848-14.7456-2.2016-29.1328-10.3936-40.5504l-2.048 1.4336z m7.3728 38.5536c-1.5872 15.4112-8.9088 30.4128-20.6336 42.1376s-26.7264 19.0464-42.1376 20.6336c-16.64 1.6896-32.3584-3.6352-43.264-14.5408-10.9056-10.9056-16.2304-26.6752-14.5408-43.264 1.5872-15.4624 8.9088-30.4128 20.6336-42.1376 7.936-7.936 17.5616-13.9776 27.9552-17.4592a2.57024 2.57024 0 0 0 1.2288-3.9936l-29.3376-38.4512a2.51392 2.51392 0 0 0-3.4304-0.5632l-81.1008 53.9136c-0.5632 0.4096-0.9728 0.9728-1.1264 1.6896s0.0512 1.3824 0.4608 1.9456l55.4496 76.6464c18.0224 22.6816 13.824 57.6-9.7792 81.2032-11.7248 11.7248-26.7264 19.0976-42.1376 20.6336-16.6912 1.6384-32.3584-3.6864-43.264-14.5408-10.9056-10.9056-16.2304-26.6752-14.5408-43.264 1.5872-15.4624 8.9088-30.4128 20.6336-42.1376 8.2432-8.2432 18.3296-14.3872 29.2352-17.8176a2.816 2.816 0 0 0 1.6896-1.6384c0.256-0.768 0.1024-1.6384-0.3584-2.304l-28.7744-39.7824a33.76128 33.76128 0 0 1-5.8368-25.7024 33.8176 33.8176 0 0 1 14.4896-22.016l88.9344-59.136a33.3824 33.3824 0 0 1 18.5856-5.632c10.1888 0 20.224 4.608 26.8288 13.2608l64.4608 84.6336c0.0512 0.0512 0.3072 0.512 0.3584 0.6144v0.0512c7.3216 10.3424 10.7008 23.552 9.3184 37.0176zM360.4992 567.7056c-54.784 0-99.3792 44.5952-99.3792 99.3792s44.5952 99.3792 99.3792 99.3792 99.3792-44.5952 99.3792-99.3792-44.5952-99.3792-99.3792-99.3792z m0 193.6384c-51.968 0-94.2592-42.2912-94.2592-94.2592s42.2912-94.2592 94.2592-94.2592 94.2592 42.2912 94.2592 94.2592-42.2912 94.2592-94.2592 94.2592z" fill="#472F7E" /><path d="M360.4992 608.6656C328.2944 608.6656 302.08 634.88 302.08 667.0848s26.2144 58.4192 58.4192 58.4192 58.4192-26.2144 58.4192-58.4192-26.2144-58.4192-58.4192-58.4192z m0 111.7184c-29.3888 0-53.2992-23.9104-53.2992-53.2992s23.9104-53.2992 53.2992-53.2992 53.2992 23.9104 53.2992 53.2992-23.9104 53.2992-53.2992 53.2992zM200.6016 693.4016c-8.96-9.0112-23.6032-9.0624-32.5632-0.1024-4.352 4.352-6.7584 10.1376-6.8096 16.2816s2.3552 11.9296 6.7072 16.3328l117.248 117.9136c4.352 4.4032 10.1888 6.8096 16.3328 6.8096s11.8784-2.3552 16.2304-6.7072c4.352-4.352 6.7584-10.1376 6.8096-16.2816s-2.3552-11.9296-6.7072-16.3328l-117.248-117.9136z m113.5104 146.8928c-6.8096 6.7584-18.5856 6.7072-25.344-0.0512l-117.248-117.9136a17.80736 17.80736 0 0 1-5.2224-12.6976c0-4.8128 1.8944-9.2672 5.2736-12.6464 3.4816-3.4816 8.0384-5.2224 12.6464-5.2224 4.608 0 9.216 1.7408 12.6976 5.2736l117.248 117.9136c3.3792 3.3792 5.2224 7.8848 5.2224 12.6976 0 4.7616-1.8944 9.2672-5.2736 12.6464zM868.3008 139.0592c-6.0416-0.256-11.9808 2.0992-16.4864 6.3488l-44.1856 41.9328a22.8864 22.8864 0 0 0-7.168 16.128c-0.1536 6.144 2.0992 11.9808 6.3488 16.4352 4.4032 4.608 10.3424 7.168 16.6912 7.168 5.9392 0 11.5712-2.2528 15.872-6.3488l44.1856-41.9328a22.8864 22.8864 0 0 0 7.168-16.128c0.1536-6.144-2.0992-11.9808-6.3488-16.4352a22.76352 22.76352 0 0 0-16.0768-7.168z m11.7248 36.0448l-44.1856 41.9328c-3.328 3.1744-7.7312 4.9152-12.3392 4.9152-4.9664 0-9.5744-1.9968-13.0048-5.5808-3.2768-3.4816-5.0688-8.0384-4.9152-12.8s2.0992-9.216 5.5808-12.544l44.1856-41.9328c3.3792-3.1744 7.7312-4.9152 12.3392-4.9152h0.4608c4.7616 0.1024 9.216 2.0992 12.544 5.5808 3.2768 3.4816 5.0688 8.0384 4.9152 12.8s-2.0992 9.216-5.5808 12.544z" fill="#472F7E" /></svg>