<?xml version="1.0" standalone="no"?><!DOCTYPE svg PUBLIC "-//W3C//DTD SVG 1.1//EN" "http://www.w3.org/Graphics/SVG/1.1/DTD/svg11.dtd"><svg class="icon" width="200px" height="200.00px" viewBox="0 0 1024 1024" version="1.1" xmlns="http://www.w3.org/2000/svg"><path d="M522.24 573.2352h-20.8384c-130.7648 0-236.7488-105.984-236.7488-236.7488V121.088c0-22.6304 18.3296-40.96 40.96-40.96h412.4672c22.6304 0 40.96 18.3296 40.96 40.96v215.3984c0 130.7648-105.984 236.7488-236.8 236.7488z" fill="#F29727" /><path d="M841.9328 155.2896h-82.8928v42.752h56.832c8.6528 0 15.7184 6.8608 15.7184 15.36V313.856c0 33.0752-27.392 59.904-61.184 59.904h-15.2576c-2.4576 13.568-6.0416 26.7264-10.7008 39.424h21.76c57.856 0 104.7552-45.9264 104.7552-102.5536v-126.976c0-15.6672-13.0048-28.3648-29.0304-28.3648zM181.7088 155.2896h82.8928v42.752h-56.832c-8.6528 0-15.7184 6.8608-15.7184 15.36V313.856c0 33.0752 27.392 59.904 61.184 59.904h15.2576c2.4576 13.568 6.0416 26.7264 10.7008 39.424h-21.76c-57.856 0-104.7552-45.9264-104.7552-102.5536v-126.976c0-15.6672 13.0048-28.3648 29.0304-28.3648z" fill="#F29727" /><path d="M525.2608 198.3488l26.7264 52.992c2.2016 4.352 6.4 7.3216 11.3152 8.0384l59.6992 8.4992c12.288 1.7408 17.2032 16.5376 8.2944 25.0368l-43.2128 41.2672c-3.5328 3.3792-5.1712 8.2432-4.3008 13.0048l10.1888 58.2656c2.0992 11.9808-10.752 21.1456-21.76 15.4624l-53.4016-27.4944c-4.352-2.2528-9.5744-2.2528-13.9776 0l-53.4016 27.4944c-11.008 5.6832-23.8592-3.4816-21.76-15.4624l10.1888-58.2656c0.8192-4.7616-0.768-9.6256-4.3008-13.0048l-43.2128-41.2672c-8.9088-8.4992-3.9936-23.296 8.2944-25.0368l59.6992-8.4992c4.864-0.7168 9.1136-3.6864 11.3152-8.0384l26.7264-52.992c5.4784-10.9056 21.4016-10.9056 26.88 0z" fill="#F4D642" /><path d="M681.216 830.3104H342.4256v-110.592c0-16.9472 13.7728-30.72 30.72-30.72h277.3504c16.9472 0 30.72 13.7728 30.72 30.72v110.592z" fill="#588EFF" /><path d="M572.7232 783.6672H450.9184c-5.632 0-10.24-4.608-10.24-10.24v-22.6304c0-5.632 4.608-10.24 10.24-10.24h121.8048c5.632 0 10.24 4.608 10.24 10.24v22.6304a10.24 10.24 0 0 1-10.24 10.24z" fill="#FEF2E9" /><path d="M793.1392 933.888H230.5024c-27.9552 0-50.6368-22.6816-50.6368-50.6368v-2.2528c0-27.9552 22.6816-50.6368 50.6368-50.6368h562.6368c27.9552 0 50.6368 22.6816 50.6368 50.6368v2.2528c0 27.9552-22.6816 50.6368-50.6368 50.6368z" fill="#588EFF" /><path d="M511.8464 573.2352c-18.176 0-35.84-1.9968-52.8896-5.632l-18.2784 121.344h142.2848l-16.384-121.7536c-17.6128 3.9424-35.8912 6.0416-54.7328 6.0416z" fill="#F29727" /><path d="M294.5536 142.592c0-40.9088 24.064-38.7584 24.064-38.7584h362.1376c55.9104 0 77.312 9.3696 77.312 9.3696-4.1472-18.8928-21.248-33.0752-41.7792-33.0752H307.4048c-23.6032 0-42.752 18.7392-42.752 41.8816v209.2032c0 74.5984 34.5088 141.312 88.7296 185.7536-66.7648-57.0368-58.8288-163.2256-58.8288-163.2256V142.592z" fill="#F7AC5C" /><path d="M605.3888 524.6976c-30.72 10.0352-141.6704 54.1696-252.0064-7.7824 42.9056 35.1232 98.1504 56.32 158.464 56.32 136.4992 0 247.1936-108.3904 247.1936-242.0736 0 0.0512-25.7024 138.3936-153.6512 193.536z" fill="#E47300" /><path d="M529.3568 206.4384l-4.096-8.0896c-5.4784-10.9056-21.4016-10.9056-26.9312 0l-26.7264 52.992c-2.2016 4.352-6.4 7.3216-11.3152 8.0384l-59.6992 8.4992c-12.288 1.7408-17.2032 16.5376-8.2944 25.0368l6.5536 6.2464c0.0512-0.2048 0.2048-0.4608 0.256-0.6656-5.632-14.1312 7.424-19.456 7.424-19.456s35.328-4.5056 56.32-7.5264 24.576-17.7664 24.576-17.7664 11.264-20.7872 19.2512-40.0896c7.9872-19.3024 22.6816-7.2192 22.6816-7.2192z" fill="#FAE56F" /><path d="M583.68 345.3952c-0.2048-4.1472 1.3312-8.2432 4.4032-11.2128l43.2128-41.2672c7.6288-7.2704 5.0688-19.2-3.5328-23.552 0.0512 0.1024 2.4064 9.9328-10.8032 21.8624-13.312 12.032-32.768 30.72-32.768 30.72s-5.6832 3.328-0.6144 23.3984c0.0512 0.0512 0.1024 0.0512 0.1024 0.0512zM593.9712 405.4528l-1.0752-6.2464c-2.3552 2.6112-11.008 10.8032-22.5792 4.5568-11.5712-6.2464-46.7456-23.0912-57.1904-28.0576a6.5024 6.5024 0 0 0-5.8368 0.1536l-57.2928 31.3344s-16.9984 8.1408-19.6096-5.888l-0.7168 4.096c-2.0992 11.9808 10.752 21.1456 21.76 15.4624l53.4016-27.4944c4.4032-2.2528 9.5744-2.2528 13.9776 0l53.4016 27.4944c11.008 5.7344 23.8592-3.4304 21.76-15.4112z" fill="#E4CA2A" /><path d="M165.9392 316.9792V193.024c0-27.0848 22.1696-24.7296 22.1696-24.7296h76.4928v-13.0048H181.7088c-16.0256 0-28.9792 12.6976-28.9792 28.416v126.976c0 26.6752 10.496 50.8928 27.5456 69.1712-15.8208-19.8144-14.336-62.8736-14.336-62.8736zM183.552 383.3344c-0.8192-0.7168-1.536-1.5872-2.2528-2.4064 0.768 0.8192 1.4848 1.6384 2.2528 2.4064z" fill="#F7AC5C" /><path d="M207.7696 198.0416h56.832V186.88H208.64s-16.5888-1.7408-16.5888 26.5728c0-8.4992 7.0656-15.4112 15.7184-15.4112zM257.4336 413.2352h21.76c-1.4336-3.84-2.7136-7.7824-3.8912-11.6736-53.1968 5.7856-95.0272-21.7088-95.0272-21.7088a105.4208 105.4208 0 0 0 77.1584 33.3824z" fill="#E47300" /><path d="M841.9328 155.2896h-82.8928v14.6944h83.456s28.4672-2.6624 28.4672 31.3856v-17.7152c0-15.6672-13.0048-28.3648-29.0304-28.3648zM831.488 315.2896c-0.768 32.4096-27.8016 58.5216-61.0816 58.5216h-15.2576c-0.5632 3.1232-1.2288 6.2464-1.8944 9.3696h24.7808c64.4608-5.0688 53.504-67.8912 53.4528-67.8912z" fill="#F7AC5C" /><path d="M815.0016 187.0336h-55.9616v11.008h56.832c7.9872 0 14.4896 5.8368 15.5136 13.3632h0.0512c0-24.8832-16.4352-24.3712-16.4352-24.3712zM807.68 394.1888c-9.6256 2.2528-11.2128 7.3728-59.4432 7.68-1.1776 3.84-2.4576 7.6288-3.84 11.3664h21.76c54.6816 0 99.4816-41.0112 104.2432-93.3376-2.56 9.6256-16.8448 54.3744-62.72 74.2912z" fill="#E47300" /><path d="M440.6784 688.9472h24.9856l13.8752-117.8624c-6.9632-0.9216-13.8752-1.9968-20.6336-3.4304l-18.2272 121.2928z" fill="#F7AC5C" /><path d="M557.6192 688.9472h25.344l-16.384-121.7536c-7.7312 1.6896-15.616 3.0208-23.6544 4.0448l14.6944 117.7088z" fill="#E47300" /><path d="M649.1648 688.9472H374.4768c-17.7152 0-32.0512 14.08-32.0512 31.3856v109.9264h21.76v-104.3456c0-18.0224 12.288-18.688 12.288-18.688h251.0848c38.912 0 53.6576 13.1584 53.6576 13.1584 0-17.3568-14.336-31.4368-32.0512-31.4368zM790.8864 830.3104H232.7552c-29.184 0-52.8896 23.1936-52.8896 51.7632 0 1.4336 0.1024 2.816 0.2048 4.2496 3.584-40.6016 53.76-38.7584 53.76-38.7584h552.704c36.1472 0 57.2416 34.5088 57.2416 34.5088 0-28.6208-23.6544-51.7632-52.8896-51.7632z" fill="#76A4FF" /><path d="M843.776 882.0736s-18.3808 30.3104-55.8592 30.3104H227.0208s-39.2704 2.7136-46.9504-26.0608c2.2016 26.624 24.9344 47.5648 52.6848 47.5648h558.1824c29.184 0 52.8384-23.1936 52.8384-51.8144z" fill="#4479E2" /><path d="M506.0096 395.7248a12.5952 12.5952 0 0 1 11.6224 0l53.4016 27.4944c6.0416 3.1232 13.2096 2.56 18.688-1.4848a16.95744 16.95744 0 0 0 6.7584-16.7424l-10.1888-58.2656c-0.6656-3.9424 0.6656-7.936 3.584-10.7008l43.2128-41.2672c4.8128-4.5568 6.5024-11.3152 4.5056-17.5616a17.21344 17.21344 0 0 0-14.2336-11.8784l-59.7504-8.4992a12.3904 12.3904 0 0 1-9.3696-6.656l-26.7264-52.992c-2.9696-5.9392-9.0112-9.6256-15.7184-9.6256s-12.7488 3.6864-15.7184 9.6256l-26.7264 52.992a12.3904 12.3904 0 0 1-9.3696 6.656l-59.6992 8.4992c-6.7584 0.9728-12.1856 5.5296-14.2336 11.8784-1.9968 6.2464-0.256 13.0048 4.5056 17.5616l43.2128 41.2672c2.9184 2.7648 4.2496 6.8096 3.584 10.7008L427.1616 404.992c-1.1264 6.4 1.4848 12.8 6.7584 16.7424 3.1232 2.304 6.8096 3.4816 10.496 3.4816 2.7648 0 5.5808-0.6656 8.192-1.9968l53.4016-27.4944z m-69.0688 21.8624c-3.7888-2.7648-5.5808-7.168-4.7616-11.7248L442.368 347.648c0.9728-5.5808-0.9216-11.3152-5.0688-15.3088l-43.2128-41.2672c-3.4304-3.2768-4.608-7.8336-3.1744-12.288 1.4848-4.5568 5.2224-7.68 10.0864-8.3968l59.6992-8.4992c5.7344-0.8192 10.6496-4.352 13.2096-9.4208l26.7264-52.992c2.1504-4.2496 6.2976-6.7584 11.1616-6.7584s9.0112 2.56 11.1616 6.7584l26.7264 52.992c2.56 5.0688 7.5264 8.6016 13.2096 9.4208l59.7504 8.4992c4.864 0.6656 8.6016 3.84 10.0864 8.3968 1.4336 4.4544 0.256 9.0112-3.1744 12.288l-43.2128 41.2672c-4.1472 3.9424-6.0416 9.6768-5.0688 15.3088l10.1888 58.2656c0.8192 4.5568-0.9728 8.96-4.7616 11.7248-3.8912 2.8672-9.0112 3.2768-13.312 1.0752l-53.4016-27.4944c-5.12-2.6112-11.2128-2.6112-16.2816 0l-53.4016 27.4944c-4.352 2.1504-9.472 1.7408-13.3632-1.1264zM572.7232 738.048H450.9184a12.8 12.8 0 0 0-12.8 12.8v22.6304a12.8 12.8 0 0 0 12.8 12.8h121.8048a12.8 12.8 0 0 0 12.8-12.8v-22.6304a12.8 12.8 0 0 0-12.8-12.8z m7.68 35.3792c0 4.2496-3.4304 7.68-7.68 7.68H450.9184c-4.2496 0-7.68-3.4304-7.68-7.68v-22.6304c0-4.2496 3.4304-7.68 7.68-7.68h121.8048c4.2496 0 7.68 3.4304 7.68 7.68v22.6304z" fill="#472F7E" /><path d="M748.032 415.7952h18.176c59.1872 0 107.3152-47.1552 107.3152-105.1136v-126.976c0-17.0496-14.1824-30.976-31.5392-30.976h-80.3328v-31.6416c0-24.0128-19.5072-43.52-43.52-43.52H305.6128c-24.0128 0-43.52 19.5072-43.52 43.52v31.6416h-80.384c-17.408 0-31.5392 13.8752-31.5392 30.976v126.976c0 57.9584 48.128 105.1136 107.3152 105.1136h18.2272c27.8528 79.0528 96 139.1616 179.712 155.5456l-16.9472 115.0976H373.1456c-18.3296 0-33.28 14.9504-33.28 33.28v108.032H230.5024c-29.3376 0-53.1968 23.8592-53.1968 53.1968v2.2528c0 29.3376 23.8592 53.1968 53.1968 53.1968h562.6368c29.3376 0 53.1968-23.8592 53.1968-53.1968v-2.2528c0-29.3376-23.8592-53.1968-53.1968-53.1968h-109.3632v-108.032c0-18.3296-14.9504-33.28-33.28-33.28H585.216l-15.1552-115.4048c82.8928-16.896 150.3232-76.7488 177.9712-155.2384z m13.568-79.3088V200.6016h54.272c7.2704 0 13.1584 5.7344 13.1584 12.8V313.856c0 31.6416-26.3168 57.344-58.624 57.344h-11.3664c1.6384-11.3152 2.56-22.9376 2.56-34.7136z m80.3328-178.6368c14.592 0 26.4192 11.5712 26.4192 25.856v126.976c0 55.1424-45.824 99.9936-102.1952 99.9936h-16.4352c3.6352-11.1104 6.4512-22.5792 8.448-34.304h12.1856c35.1232 0 63.744-28.0064 63.744-62.464V213.4016c0-9.8816-8.192-17.92-18.2784-17.92h-54.272v-37.632h80.384zM264.6528 371.2512h-11.4176c-32.3072 0-58.624-25.7024-58.624-57.344V213.4016c0-7.0656 5.888-12.8 13.1584-12.8h54.3232v135.8848c0 11.776 0.9216 23.3984 2.56 34.7648z m-7.2192 39.424c-56.32 0-102.1952-44.8512-102.1952-99.9936v-126.976c0-14.2336 11.8784-25.856 26.4192-25.856h80.3328v37.632h-54.272c-10.0864 0-18.2784 8.0384-18.2784 17.92V313.856c0 34.4576 28.5696 62.464 63.744 62.464h12.2368c1.9968 11.7248 4.8128 23.1936 8.448 34.304h-16.4352z m23.3984 4.4032c0.1536-0.1536 0.3584-0.2048 0.4608-0.4096 0.4608-0.6656 0.6144-1.5872 0.3072-2.3552-4.608-12.4416-8.1408-25.6-10.5984-39.0144a2.78528 2.78528 0 0 0-1.1264-1.6896c-1.7408-11.4688-2.6624-23.2448-2.6624-35.1744V121.088c0-21.1968 17.2032-38.4 38.4-38.4h412.4672c21.1968 0 38.4 17.2032 38.4 38.4v215.3984c0 11.9296-0.9216 23.7056-2.6624 35.1744-0.6144 0.3584-1.0752 0.9728-1.2288 1.6896-2.4576 13.4656-5.9904 26.5728-10.5472 39.0144-0.3072 0.768-0.1536 1.6896 0.3072 2.3552 0.1536 0.2048 0.3072 0.3072 0.512 0.4608-27.6992 77.4144-94.976 136.0896-177.408 151.5008-3.2256 0.6144-6.4512 1.1776-9.6768 1.6384l-1.3312 0.1536c-3.2256 0.4608-6.5024 0.8704-9.7792 1.1776-0.9728 0.1024-1.9456 0.1536-2.9184 0.2048-2.7136 0.2048-5.4272 0.4608-8.192 0.6144-3.7888 0.2048-7.5776 0.3072-11.3664 0.3072h-20.8384c-3.6864 0-7.3728-0.1024-11.0592-0.256-2.5088-0.1024-5.0688-0.3072-7.6288-0.512-1.024-0.1024-2.048-0.1536-3.0208-0.256-3.1232-0.3072-6.2976-0.6656-9.4208-1.0752l-1.1264-0.1536c-3.2256-0.4608-6.4512-0.9728-9.6256-1.536-82.944-15.2064-150.8352-74.0864-178.6368-151.9104z m560.384 465.8688v2.2528c0 26.5216-21.5552 48.0768-48.0768 48.0768H230.5024c-26.5216 0-48.0768-21.5552-48.0768-48.0768v-2.2528c0-26.5216 21.5552-48.0768 48.0768-48.0768h562.6368c26.5216 0 48.0768 21.5552 48.0768 48.0768z m-162.56-161.28v108.032H344.9856v-108.032c0-15.5136 12.6464-28.16 28.16-28.16H650.496c15.5136 0 28.16 12.6464 28.16 28.16z m-113.664-147.712l15.0528 114.432H443.648l16.7936-114.176c0.2048 0.0512 0.4096 0.0512 0.6144 0.1024 2.8672 0.512 5.7344 0.9216 8.6016 1.28l2.4576 0.3072c2.56 0.3072 5.1712 0.6144 7.7824 0.8704 1.4848 0.1536 3.0208 0.256 4.5056 0.3584 1.9968 0.1536 3.9936 0.3072 6.0416 0.4096 3.6864 0.1536 7.3728 0.256 11.008 0.256h20.8384c3.7376 0 7.5264-0.1024 11.3152-0.3072 1.9968-0.1024 3.9424-0.256 5.888-0.4096 1.6896-0.1024 3.4304-0.2048 5.12-0.4096 2.4576-0.2048 4.9152-0.512 7.3728-0.8192 1.1776-0.1536 2.304-0.256 3.4816-0.4608 2.6624-0.3584 5.2736-0.8192 7.936-1.2288 0.512-0.0512 1.024-0.1024 1.5872-0.2048z" fill="#472F7E" /></svg>