<?xml version="1.0" standalone="no"?><!DOCTYPE svg PUBLIC "-//W3C//DTD SVG 1.1//EN" "http://www.w3.org/Graphics/SVG/1.1/DTD/svg11.dtd"><svg class="icon" width="200px" height="200.00px" viewBox="0 0 1024 1024" version="1.1" xmlns="http://www.w3.org/2000/svg"><path d="M512.3072 232.4992m-172.032 0a172.032 172.032 0 1 0 344.064 0 172.032 172.032 0 1 0-344.064 0Z" fill="#4B8DFD" /><path d="M74.24 735.8464s-63.2832-88.9856-26.2144-163.2768c35.6864-71.424 91.4944-120.1152 107.8784-48.0768 1.1776 5.1712 5.376 9.216 10.8032 10.2912 17.7664 3.3792 44.0832 16.7424 42.8544 52.6336-0.2048 5.376 2.8672 10.7008 8.0896 12.7488 14.592 5.7344 22.5792 23.6032 13.4656 49.92-1.5872 4.5568-0.512 9.728 3.0208 13.1072 15.7184 15.0016 9.5232 55.3984-19.712 85.76-32.7168 33.9968-107.4688 34.5088-140.1856-13.1072zM953.2416 735.8464s63.2832-88.9856 26.2144-163.2768c-35.6864-71.424-91.4944-120.1152-107.8784-48.0768-1.1776 5.1712-5.376 9.216-10.8032 10.2912-17.7664 3.3792-44.0832 16.7424-42.8544 52.6336 0.2048 5.376-2.8672 10.7008-8.0896 12.7488-14.592 5.7344-22.5792 23.6032-13.4656 49.92 1.5872 4.5568 0.512 9.728-3.0208 13.1072-15.7184 15.0016-9.5232 55.3984 19.712 85.76 32.7168 33.9968 107.4688 34.5088 140.1856-13.1072z" fill="#4B8DFD" /><path d="M813.0048 748.9024c-29.2352-30.3616-35.4304-70.7584-19.712-85.76 3.5328-3.3792 4.5568-8.6016 3.0208-13.1072-9.1136-26.3168-1.1264-44.1856 13.4656-49.92 5.2224-2.048 8.2944-7.3216 8.0896-12.7488-1.2288-35.8912 25.088-49.2544 42.8544-52.6336 5.4784-1.024 9.6256-5.0688 10.8544-10.2912 3.9424-17.2544 10.1376-27.4944 17.7664-32.256V372.1728c0-13.5168-14.2848-22.7328-27.4432-17.7152l-345.1904 132.352v481.9456l359.5264-126.2592c7.8848-2.7648 13.056-9.8816 13.056-17.92v-52.2752c-28.8256 3.4304-58.624-5.0688-76.288-23.3984z" fill="#F7CC37" /><path d="M171.4688 354.5088c-13.1072-5.0176-27.4432 4.1984-27.4432 17.7152v125.184c4.9152 5.7344 9.0112 14.5408 11.8784 27.0848 1.1776 5.1712 5.376 9.216 10.8032 10.2912 17.7664 3.3792 44.0832 16.7424 42.8544 52.6336-0.2048 5.376 2.8672 10.7008 8.0896 12.7488 14.592 5.7344 22.5792 23.6032 13.4656 49.92-1.5872 4.5568-0.512 9.728 3.0208 13.1072 15.7184 15.0016 9.5232 55.3984-19.712 85.76-16.4352 17.0496-43.4176 25.7024-70.4 24.064v51.6608c0 7.9872 5.2224 15.1552 13.056 17.92l359.5264 126.2592V486.8096L171.4688 354.5088z" fill="#F29727" /><path d="M675.8912 179.3024c-22.4256-68.9664-87.1936-118.8352-163.6352-118.8352-95.0272 0-172.032 77.0048-172.032 172.032 0 27.904 6.656 54.1696 18.432 77.4656-11.8784-124.7744 44.5952-181.76 103.9872-205.1072 115.5072-37.3248 212.6336 73.9328 213.248 74.4448z" fill="#76A4FF" /><path d="M677.7344 185.2928c-0.1024 1.7408-8.2944 137.5232-135.6288 167.7824-60.0576 11.4688-150.5792 3.4816-183.3984-43.1104 28.3648 56.064 86.4768 94.5664 153.6 94.5664 95.0272 0 172.032-77.0048 172.032-172.032 0-16.384-2.3552-32.2048-6.6048-47.2064z" fill="#4479E2" /><path d="M171.4688 354.5088c-13.1072-5.0176-27.4432 4.1984-27.4432 17.7152v67.8912c1.2288-55.9616 37.5808-35.5328 37.5808-35.5328l335.0016 127.0272v-44.7488L171.4688 354.5088z" fill="#F7AC5C" /><path d="M861.9008 354.5088l-345.1904 132.352v44.7488l335.3088-127.0272s37.3248-15.0016 37.3248 28.5696V372.224c-0.0512-13.568-14.336-22.784-27.4432-17.7152z" fill="#FFD96E" /><path d="M209.6128 587.3664c1.2288-35.8912-25.088-49.2544-42.8544-52.6336-5.4784-1.024-9.6256-5.0688-10.8032-10.2912-16.384-72.0384-72.2432-23.3472-107.8784 48.0768-14.1312 28.3648-13.6704 58.8288-7.68 85.6576 3.1744-69.0176 45.8752-97.1264 62.208-118.784 16.3328-21.7088 35.6864-5.6832 36.9152-1.6896 1.1776 3.9936 6.8096 13.6704 26.1632 19.0464 19.3536 5.3248 27.0336 24.6784 38.7072 36.4032 2.8672 2.8672 5.8368 3.8912 8.7552 3.7888-2.4064-2.56-3.6864-6.0416-3.5328-9.5744z" fill="#76A4FF" /><path d="M240.3328 673.1264c-0.3584 1.2288-18.8416 63.6416-74.3424 75.2128-55.9616 11.6736-98.2016-18.5856-107.776-40.3456 8.3968 17.1008 16.0256 27.8528 16.0256 27.8528 32.7168 47.616 107.52 47.104 140.2368 13.1072 24.1664-25.1392 32.512-57.0368 25.856-75.8272z" fill="#4479E2" /><path d="M974.9504 563.9168c-35.6864-66.56-87.7056-108.5952-103.424-39.4752-1.1776 5.1712-5.376 9.216-10.8544 10.2912-17.7664 3.3792-44.0832 16.7424-42.8544 52.6336 0.2048 5.376-2.8672 10.7008-8.0896 12.7488-14.592 5.7344-22.5792 23.6032-13.4656 49.92-0.768-17.5616 10.8032-25.1392 22.784-31.8464 12.032-6.656 12.032-10.0352 13.3632-23.3472 1.3312-13.3632 19.3536-32.0512 41.3696-32.0512 22.016 0 21.3504-22.016 44.6976-31.232 23.04-9.0112 55.3984 30.976 56.4736 32.3584z" fill="#76A4FF" /><path d="M986.7776 591.8208c-0.1536 1.1264-9.8304 69.6832-39.4752 114.2784-14.592 21.9136-39.0144 35.584-65.28 36.9152-33.28 1.6896-70.4-5.7344-92.0064-30.1056 4.5568 12.1856 12.1856 24.7808 22.9888 36.0448 32.7168 33.9968 107.52 34.56 140.2368-13.1072 0 0 52.9408-74.4448 33.536-144.0256z" fill="#4479E2" /><path d="M512.3072 407.0912c96.256 0 174.592-78.336 174.592-174.592s-78.336-174.592-174.592-174.592-174.592 78.336-174.592 174.592 78.2848 174.592 174.592 174.592z m0-344.064c93.44 0 169.472 76.032 169.472 169.472s-76.032 169.472-169.472 169.472-169.472-76.032-169.472-169.472 75.9808-169.472 169.472-169.472z" fill="#472F7E" /><path d="M981.76 571.392c-22.272-44.5952-57.0368-88.0128-84.2752-84.7872-1.9456 0.256-3.7888 0.768-5.5808 1.4336V372.1728c0-7.0656-3.4304-13.4656-9.4208-17.5616a23.28064 23.28064 0 0 0-21.504-2.5088l-344.2688 131.9936-344.32-131.9936c-7.168-2.7648-15.2064-1.792-21.504 2.5088-5.9904 4.096-9.4208 10.496-9.4208 17.5616v119.2448c-3.4304-2.6112-7.2704-4.3008-11.4688-4.8128-27.2896-3.2256-62.0032 40.2432-84.2752 84.7872-37.1712 74.4448 25.088 164.096 26.368 165.888 14.9504 21.76 40.2432 35.6352 69.376 38.0416v49.2544c0 9.0624 5.9392 17.2032 14.7968 20.3264l359.5264 126.2592a2.60096 2.60096 0 0 0 1.7408 0l359.5264-126.2592c8.8576-3.1232 14.7968-11.264 14.7968-20.3264v-50.0736c26.624-3.6864 49.5616-16.9984 63.488-37.2736 1.28-1.7408 63.5392-91.392 26.4192-165.8368zM76.3392 734.3616c-0.6656-0.9216-62.0032-88.6272-26.0096-160.6656 24.4736-49.0496 55.6032-82.1248 76.8-82.1248 0.768 0 1.536 0.0512 2.304 0.1536 4.864 0.5632 9.0624 3.1232 12.7488 7.3728 1.1776 1.3824 2.3552 2.9696 3.3792 4.7616 0 0.0512 0.0512 0.0512 0.0512 0.1024 1.024 1.6896 1.9968 3.584 2.8672 5.632 0.0512 0.1536 0.1536 0.256 0.2048 0.4096 0.8192 1.8944 1.5872 3.9936 2.304 6.1952l0.3072 0.9216c0.768 2.4576 1.4848 5.12 2.1504 7.936a16.26624 16.26624 0 0 0 12.8512 12.2368c9.2672 1.7408 38.1952 9.9328 40.6528 43.0592 0.1536 2.2016 0.2048 4.5056 0.1024 6.9632-0.1536 4.1984 1.3312 8.1408 3.9424 11.1104 1.5872 1.792 3.5328 3.1744 5.7856 4.096 5.632 2.2016 9.8304 6.1952 12.4416 11.4176 2.2016 4.4032 3.2768 9.6768 3.2256 15.6672-0.0512 5.9392-1.28 12.5952-3.6864 19.6096-0.512 1.3824-0.768 2.8672-0.8192 4.3008-0.2048 4.3008 1.3824 8.5504 4.5056 11.52 4.7616 4.5568 7.424 11.8784 7.6288 21.0944 0 0.3584-0.0512 0.7168-0.0512 1.1264 0 19.456-10.3424 42.2912-27.3408 59.904-1.9456 1.9968-4.0448 3.9424-6.3488 5.6832-1.6384 1.28-3.4304 2.4576-5.1712 3.584-0.6656 0.4608-1.28 0.9216-1.9968 1.3824-2.2016 1.3312-4.5568 2.5088-6.912 3.6864-0.3584 0.1536-0.6656 0.3584-1.024 0.512-2.4064 1.1264-4.9664 2.0992-7.5264 3.0208-0.3584 0.1536-0.7168 0.3072-1.1264 0.4096-2.4064 0.8192-4.9152 1.4848-7.424 2.0992-0.6144 0.1536-1.1776 0.3584-1.792 0.512-2.2528 0.512-4.608 0.8704-6.912 1.2288-0.9728 0.1536-1.8944 0.3584-2.816 0.4608-2.048 0.256-4.1472 0.4096-6.2464 0.512-1.28 0.1024-2.56 0.2048-3.84 0.256-1.8944 0.0512-3.84 0-5.7856-0.0512-1.8944-0.0512-3.7888-0.0512-5.6832-0.2048-27.6992-2.2528-51.6096-15.36-65.7408-35.8912z m810.3936 90.2656c0 6.8608-4.5568 13.1072-11.3664 15.4624l-358.7072 125.952-358.7072-125.952c-6.8096-2.4064-11.3664-8.6016-11.3664-15.4624v-48.9472c0.512 0 1.024-0.0512 1.536 0 0.8192 0 1.5872 0.1024 2.4064 0.1024 1.1776 0 2.4064-0.1024 3.584-0.1536 1.4848-0.0512 2.9696-0.1024 4.4032-0.2048 1.5872-0.1024 3.1232-0.3072 4.7104-0.4608 1.8432-0.2048 3.6864-0.4096 5.4784-0.7168 0.9728-0.1536 1.9456-0.4096 2.9696-0.5632 2.2528-0.4608 4.5568-0.9216 6.7584-1.536 0.4096-0.1024 0.8704-0.256 1.28-0.4096 2.6112-0.768 5.2224-1.5872 7.7312-2.5088 0.0512 0 0.1024-0.0512 0.1024-0.0512 5.5808-2.1504 10.8544-4.7104 15.6672-7.7824 0.256-0.1536 0.512-0.3584 0.768-0.512 2.0992-1.3824 4.1984-2.816 6.0928-4.4032 2.2016-1.792 4.3008-3.6864 6.1952-5.6832 18.2272-18.944 29.2352-43.7248 28.8256-64.7168-0.1536-7.0656-1.7408-13.1072-4.352-18.0224-0.3584-0.6144-0.5632-1.3824-0.9728-1.9456-0.1024-0.2048-0.3072-0.3584-0.4096-0.512-1.024-1.536-2.1504-2.9184-3.4304-4.1472a9.728 9.728 0 0 1-2.9184-7.5776c0.0512-0.9728 0.256-1.8944 0.5632-2.816 2.6624-7.68 3.8912-14.4896 4.0448-20.5312 0.256-9.5232-2.2528-16.9472-6.144-22.4256a28.9024 28.9024 0 0 0-12.8512-10.1888c-1.9968-0.768-3.6864-2.2016-4.8128-3.9936-1.1264-1.792-1.7408-3.9424-1.6896-6.2464 0.1024-2.9696-0.0512-5.7856-0.3072-8.4992-0.1024-1.1776-0.2048-2.4064-0.3584-3.5328-0.5632-3.4816-1.3824-6.7584-2.5088-9.7792-0.0512-0.2048-0.1024-0.4608-0.2048-0.6656-5.8368-15.7184-18.4832-25.3952-32.0512-30.208-0.3584-0.1024-0.7168-0.256-1.0752-0.4096l-1.024-0.3072c-2.4576-0.768-4.9664-1.4336-7.424-1.8944a11.0336 11.0336 0 0 1-8.8064-8.3456c-0.6656-3.0208-1.4336-5.7856-2.2528-8.448-2.5088-8.0384-5.6832-14.336-9.5232-19.0464V372.1728c0-5.3248 2.6112-10.24 7.168-13.3632 4.9152-3.3792 11.1616-4.096 16.7424-1.9456l345.1904 132.352c0.6144 0.2048 1.2288 0.2048 1.8432 0L862.72 356.864c5.5808-2.1504 11.8784-1.4336 16.7424 1.9456 4.5568 3.1232 7.168 7.9872 7.168 13.3632v118.6304c-0.1536 0.1024-0.256 0.2048-0.4096 0.3072-1.792 1.3312-3.4816 2.8672-5.0176 4.7104-0.1024 0.1024-0.1536 0.2048-0.256 0.256-0.7168 0.8704-1.4336 1.8432-2.0992 2.816-0.3072 0.4608-0.6144 0.9216-0.8704 1.3824-0.6144 0.9728-1.2288 1.8944-1.792 2.9696-0.768 1.4336-1.4848 2.9184-2.2016 4.5568-0.3584 0.8192-0.6656 1.6896-0.9728 2.5088-0.512 1.28-0.9728 2.6112-1.4336 3.9936-0.256 0.768-0.512 1.536-0.768 2.3552-0.6656 2.2528-1.3312 4.608-1.8944 7.1168-0.9728 4.2496-4.4032 7.4752-8.8064 8.3456-22.4768 4.2496-46.08 21.0432-44.9024 55.2448 0.1536 4.5568-2.4576 8.6528-6.5024 10.24-13.568 5.3248-25.6 22.4256-14.9504 53.1456 1.28 3.7376 0.3584 7.8336-2.3552 10.4448-5.7856 5.5296-8.96 14.08-9.1648 24.7296-0.4608 20.992 10.5984 45.7728 28.8256 64.6656 1.9968 2.0992 4.2496 4.0448 6.5536 5.9392 0.9728 0.768 2.048 1.4336 3.0208 2.2016 1.4336 1.024 2.816 2.048 4.3008 2.9696 1.28 0.8192 2.6624 1.536 3.9936 2.2528 1.3824 0.7168 2.7136 1.4848 4.1472 2.1504s2.9184 1.28 4.4032 1.8944c1.4848 0.6144 3.0208 1.2288 4.608 1.7408 1.3824 0.512 2.816 0.9728 4.2496 1.3824 1.8944 0.5632 3.84 1.0752 5.7856 1.536 1.1264 0.256 2.2528 0.5632 3.4304 0.768 2.7136 0.5632 5.4272 0.9728 8.192 1.28 0.4608 0.0512 0.9216 0.1536 1.3824 0.2048 3.84 0.4096 7.7312 0.7168 11.6736 0.7168 2.9696 0 5.9392-0.1024 8.96-0.3584 0.3072 0 0.6144-0.1024 0.8704-0.1024v49.4592z m64.4608-90.2656c-0.0512 0-0.0512 0 0 0-13.5168 19.6608-36.0448 32.3584-62.1568 35.4304-3.4304 0.4096-6.912 0.6144-10.3424 0.7168h-0.768c-2.9696 0.0512-5.888-0.1024-8.8064-0.3072-0.768-0.0512-1.4848-0.0512-2.2528-0.1536-2.304-0.2048-4.5056-0.5632-6.7584-0.9216-1.28-0.2048-2.6112-0.3584-3.8912-0.6656-1.6384-0.3072-3.1744-0.768-4.7616-1.1776-1.7408-0.4608-3.4816-0.8704-5.1712-1.3824-1.0752-0.3584-2.1504-0.768-3.1744-1.1776-1.9968-0.7168-3.9936-1.4336-5.9392-2.304-0.8192-0.3584-1.5872-0.8192-2.4064-1.2288-1.9968-0.9728-3.9936-1.9456-5.888-3.072-0.9728-0.5632-1.8432-1.28-2.7648-1.8944-1.5872-1.024-3.1744-2.048-4.6592-3.2256-2.3552-1.8432-4.5568-3.7888-6.6048-5.888-17.3056-17.9712-27.8016-41.3696-27.392-61.0304 0.2048-9.2672 2.816-16.5376 7.6288-21.0944 4.1472-3.9936 5.5808-10.1888 3.6352-15.8208-1.4848-4.1984-2.4576-8.2944-3.072-12.1344-0.4096-2.5088-0.6144-4.9664-0.6144-7.2704v-0.1536c-0.1024-13.1072 5.3248-23.04 15.6672-27.0848 6.0416-2.3552 9.984-8.4992 9.728-15.2064-1.3312-38.9632 30.8736-48.128 40.7552-50.0224 6.4-1.2288 11.4176-5.9904 12.8512-12.2368 0.512-2.304 1.0752-4.4032 1.6896-6.5024 0.256-0.8192 0.512-1.5872 0.7168-2.3552 0.3584-1.1776 0.768-2.2528 1.1776-3.3792 0.3584-0.9216 0.6656-1.792 1.024-2.6112 0.3072-0.768 0.6656-1.4336 0.9728-2.1504a39.424 39.424 0 0 1 5.376-8.704l0.6144-0.768c0.6656-0.768 1.3824-1.4848 2.0992-2.0992 0.2048-0.1536 0.4096-0.3072 0.6144-0.512 0.7168-0.6144 1.4848-1.1776 2.2528-1.6896l0.0512-0.0512c2.304-1.3824 4.7104-2.304 7.3728-2.6112 0.768-0.1024 1.536-0.1536 2.304-0.1536 21.1968 0 52.2752 33.1264 76.8 82.1248 36.0448 72.1408-25.2928 159.8976-25.9072 160.768z" fill="#472F7E" /></svg>