<?xml version="1.0" standalone="no"?><!DOCTYPE svg PUBLIC "-//W3C//DTD SVG 1.1//EN" "http://www.w3.org/Graphics/SVG/1.1/DTD/svg11.dtd"><svg class="icon" width="200px" height="200.00px" viewBox="0 0 1024 1024" version="1.1" xmlns="http://www.w3.org/2000/svg"><path d="M962.3552 477.5936l-32.9216-32.9216V347.2896h-23.8592v97.3312l-32.9216 32.9216a13.81376 13.81376 0 0 0 0 19.5072l35.1232 35.1232c2.6112 2.6112 6.0928 4.0448 9.7792 4.0448s7.168-1.4336 9.7792-4.0448l35.072-35.1232a13.7984 13.7984 0 0 0-0.0512-19.456z" fill="#588EFF" /><path d="M936.2432 282.5216l-400.64-226.4064c-13.9264-7.8848-31.232-7.8336-45.1584 0l-399.36 226.1504c-14.6432 8.2944-23.3472 23.296-23.2448 40.1408 0.1024 16.8448 8.96 31.744 23.7568 39.8848l87.1936 47.9744c4.4032 2.4576 9.2672 3.6352 14.08 3.6352 5.12 0 10.1888-1.3824 14.7968-4.096a28.9024 28.9024 0 0 0 14.336-25.088 23.808 23.808 0 0 1 16.4352-22.6304c266.3424-88.2176 490.6496-22.6304 553.0112-0.4608 9.4208 3.328 15.7184 12.3392 15.7184 22.8352a28.928 28.928 0 0 0 14.3872 25.1392 28.91264 28.91264 0 0 0 28.928 0.3584l85.4528-47.5648c14.6944-8.1408 23.5008-23.0912 23.552-39.8848 0.1024-16.7424-8.6016-31.744-23.2448-39.9872z" fill="#588EFF" /><path d="M734.0032 376.2688c-40.7552-10.8032-123.5968-28.9792-220.416-28.9792-96.7168 0-179.0464 18.1248-219.5456 28.928-22.9376 6.144-38.9632 27.0336-38.9632 50.8416v89.2928c0 17.408 12.3904 32.6656 29.44 36.1984 45.568 9.472 132.9664 38.4 206.6432 126.208 5.4272 6.5024 13.4656 10.24 22.016 10.24h0.1024c8.6528-0.0512 16.7936-3.84 22.272-10.496 69.2224-83.5584 160.4096-113.8688 208.64-124.4672 16.6912-3.6864 28.8256-18.8416 28.8256-36.0448V427.1616c0-23.8592-16.0256-44.7488-39.0144-50.8928z" fill="#588EFF" /><path d="M922.8288 654.1824a36.17792 36.17792 0 0 0-27.7504-9.6256c-170.496 13.5168-288.0512 101.5808-361.5744 166.6048a31.29344 31.29344 0 0 1-42.1888-0.512c-151.6544-141.3632-292.3008-165.7344-362.6496-167.68-9.8816-0.256-19.3536 3.3792-26.4704 10.3424a36.70016 36.70016 0 0 0-11.2128 26.5216v121.4464c0 19.3024 15.0528 35.4816 34.304 36.8128 63.232 4.352 225.3824 25.6 364.8512 128.1024a39.0656 39.0656 0 0 0 23.2448 7.5776c7.424 0 14.7968-2.0992 21.248-6.2976 168.4992-110.0288 300.6464-129.6384 364.4416-131.5328 19.712-0.5632 35.7376-17.152 35.7376-36.864v-117.76c-0.1024-10.24-4.4544-20.1728-11.9808-27.136z" fill="#F29727" /><path d="M914.176 559.4624c-3.6352-3.328-8.5504-4.9152-13.3632-4.4544-184.1152 18.2272-278.5792 87.8592-374.5792 170.1888a18.8928 18.8928 0 0 1-25.4976-0.768C343.7056 573.44 172.4928 555.5712 123.6992 553.728c-4.6592-0.1536-9.1648 1.536-12.5952 4.864-3.5328 3.4304-5.5808 8.2944-5.5808 13.312v24.0128c0 9.6768 7.3216 17.664 16.64 18.1248 147.0976 7.3728 272.6912 64.256 373.1968 169.1136 4.608 4.8128 10.8032 7.4752 17.408 7.5264h0.0512c6.656 0 12.9536-2.6624 17.664-7.5776 144.7936-149.1456 322.048-169.0112 372.9408-171.5712 9.3696-0.4608 16.6912-8.448 16.6912-18.1248v-20.3776c0.0512-5.12-2.1504-10.0864-5.9392-13.568z" fill="#FBE45F" /><path d="M962.3552 477.5936l-32.9216-32.9216V347.2896h-23.8592v97.3312l-32.9216 32.9216a13.81376 13.81376 0 0 0 0 19.5072l35.1232 35.1232c2.6112 2.6112 6.0928 4.0448 9.7792 4.0448s7.168-1.4336 9.7792-4.0448l35.072-35.1232a13.7984 13.7984 0 0 0-0.0512-19.456z" fill="#F29727" /><path d="M882.5344 487.7824l26.0608-26.0608c2.4064-2.4064 3.7376-5.632 3.7376-9.0112V360.448l-6.7584-0.6656v84.8896l-32.9216 32.9216a13.81376 13.81376 0 0 0 0 19.5072l7.4752 7.4752c-8.2432-8.192 2.4064-16.7936 2.4064-16.7936z" fill="#F7AC5C" /><path d="M954.9824 470.272c0.9728 1.024 6.144 7.4752-6.4 20.48-13.6704 14.1824-33.7408 32.512-33.7408 32.512s-5.7344 6.912-18.0224-1.8432l10.8544 10.8544c2.6112 2.6112 6.0928 4.0448 9.7792 4.0448s7.168-1.4336 9.7792-4.0448l35.072-35.1232a13.81376 13.81376 0 0 0 0-19.5072l-7.3216-7.3728z" fill="#E5772C" /><path d="M936.2432 282.5216l-400.64-226.4064c-13.9264-7.8848-31.232-7.8336-45.1584 0l-399.36 226.1504c-14.6432 8.2944-23.3472 23.296-23.2448 40.1408 0.1024 16.8448 8.96 31.744 23.7568 39.8848l87.1936 47.9744c4.4032 2.4576 9.2672 3.6352 14.08 3.6352 5.12 0 10.1888-1.3824 14.7968-4.096a28.9024 28.9024 0 0 0 14.336-25.088 23.808 23.808 0 0 1 16.4352-22.6304c266.3424-88.2176 490.6496-22.6304 553.0112-0.4608 9.4208 3.328 15.7184 12.3392 15.7184 22.8352a28.928 28.928 0 0 0 14.3872 25.1392 28.91264 28.91264 0 0 0 28.928 0.3584l85.4528-47.5648c14.6944-8.1408 23.5008-23.0912 23.552-39.8848 0.1024-16.7424-8.6016-31.744-23.2448-39.9872z" fill="#588EFF" /><path d="M946.6368 354.2528A45.056 45.056 0 0 0 959.488 322.56c0.0512-16.7936-8.6528-31.7952-23.296-40.0384L535.552 56.1152c-13.9264-7.8848-31.232-7.8336-45.1584 0l-399.36 226.1504c-14.6432 8.2944-23.3472 23.296-23.2448 40.1408 0.1024 16.8448 8.96 31.744 23.7568 39.8848l12.3904 6.8096c-9.1648-17.664-23.0912-53.7088 5.8368-68.9664 39.0144-20.5312 394.3936-220.8256 394.3936-220.8256s19.5072-16.4352 61.6448 8.192 361.5232 204.3904 361.5232 204.3904 36.5056 12.8512 19.3024 62.3616z" fill="#76A4FF" /><path d="M829.4912 383.3856c-12.3392-44.4928-58.7776-57.3952-99.2768-66.4064-258.1504-57.4976-421.7856 0.8704-462.1824 10.4448-40.3968 9.5744-56.1664 22.0672-62.6688 57.7024-3.6864 20.1728-17.7664 24.064-29.3376 23.6544l2.7648 1.536c4.4032 2.4576 9.2672 3.6352 14.08 3.6352 5.12 0 10.1888-1.3824 14.7968-4.096a28.9024 28.9024 0 0 0 14.336-25.088 23.808 23.808 0 0 1 16.4352-22.6304c266.3424-88.2176 490.6496-22.6304 553.0112-0.4608 9.4208 3.328 15.7184 12.3392 15.7184 22.8352a28.928 28.928 0 0 0 14.3872 25.1392 28.91264 28.91264 0 0 0 28.928 0.3584l85.4528-47.5648c-89.9584 43.4688-102.3488 33.28-106.4448 20.9408z" fill="#4479E2" /><path d="M734.0032 376.2688c-40.7552-10.8032-123.5968-28.9792-220.416-28.9792-96.7168 0-179.0464 18.1248-219.5456 28.928-22.9376 6.144-38.9632 27.0336-38.9632 50.8416v89.2928c0 17.408 12.3904 32.6656 29.44 36.1984 45.568 9.472 132.9664 38.4 206.6432 126.208 5.4272 6.5024 13.4656 10.24 22.016 10.24h0.1024c8.6528-0.0512 16.7936-3.84 22.272-10.496 69.2224-83.5584 160.4096-113.8688 208.64-124.4672 16.6912-3.6864 28.8256-18.8416 28.8256-36.0448V427.1616c0-23.8592-16.0256-44.7488-39.0144-50.8928z" fill="#588EFF" /><path d="M760.9344 393.6256a52.2496 52.2496 0 0 0-26.9312-17.3568c-40.7552-10.8032-123.5968-28.9792-220.416-28.9792-96.7168 0-179.0464 18.1248-219.5456 28.928-22.9376 6.144-38.9632 27.0336-38.9632 50.8416v89.2928c0 16.6912 11.4176 31.232 27.3408 35.5328-4.3008-6.9632-7.9872-18.9952-7.7824-39.9872 0.512-50.0224 0-82.8928 0-82.8928s-1.536-26.7264 27.7504-35.4304c29.2864-8.6528 231.5776-57.4464 458.5472 0.0512z" fill="#76A4FF" /><path d="M491.2128 678.8096c5.4272 6.5024 13.4656 10.24 22.016 10.24h0.1024c8.6528-0.0512 16.7936-3.84 22.272-10.496 69.2224-83.5584 160.4096-113.8688 208.64-124.4672 16.6912-3.6864 28.8256-18.8416 28.8256-36.0448v-23.7056s-2.816 38.7072-51.4048 48.64c-48.64 9.9328-131.6352 47.2064-177.3568 94.6688-12.3392 12.8512-28.5184 34.9184-59.2896 2.816-30.8224-32.1024-130.4064-81.92-200.3968-87.808 45.5168 9.4208 132.9152 38.3488 206.592 126.1568z" fill="#4479E2" /><path d="M922.8288 654.1824a36.17792 36.17792 0 0 0-27.7504-9.6256c-170.496 13.5168-288.0512 101.5808-361.5744 166.6048a31.29344 31.29344 0 0 1-42.1888-0.512c-151.6544-141.3632-292.3008-165.7344-362.6496-167.68-9.8816-0.256-19.3536 3.3792-26.4704 10.3424a36.70016 36.70016 0 0 0-11.2128 26.5216v121.4464c0 19.3024 15.0528 35.4816 34.304 36.8128 63.232 4.352 225.3824 25.6 364.8512 128.1024a39.0656 39.0656 0 0 0 23.2448 7.5776c7.424 0 14.7968-2.0992 21.248-6.2976 168.4992-110.0288 300.6464-129.6384 364.4416-131.5328 19.712-0.5632 35.7376-17.152 35.7376-36.864v-117.76c-0.1024-10.24-4.4544-20.1728-11.9808-27.136z" fill="#F29727" /><path d="M914.176 559.4624c-3.6352-3.328-8.5504-4.9152-13.3632-4.4544-184.1152 18.2272-278.5792 87.8592-374.5792 170.1888a18.8928 18.8928 0 0 1-25.4976-0.768C343.7056 573.44 172.4928 555.5712 123.6992 553.728c-4.6592-0.1536-9.1648 1.536-12.5952 4.864-3.5328 3.4304-5.5808 8.2944-5.5808 13.312v24.0128c0 9.6768 7.3216 17.664 16.64 18.1248 147.0976 7.3728 272.6912 64.256 373.1968 169.1136 4.608 4.8128 10.8032 7.4752 17.408 7.5264h0.0512c6.656 0 12.9536-2.6624 17.664-7.5776 144.7936-149.1456 322.048-169.0112 372.9408-171.5712 9.3696-0.4608 16.6912-8.448 16.6912-18.1248v-20.3776c0.0512-5.12-2.1504-10.0864-5.9392-13.568z" fill="#F4D642" /><path d="M895.0784 644.5056c-170.496 13.5168-288.0512 101.5808-361.5744 166.6048a31.29344 31.29344 0 0 1-42.1888-0.512c-151.6544-141.3632-292.3008-165.7344-362.6496-167.68-9.8816-0.256-19.3536 3.3792-26.4704 10.3424a36.70016 36.70016 0 0 0-11.2128 26.5216v121.4464c0 17.7152 12.6976 32.7168 29.6448 36.1472-5.5808-7.5776-10.0352-19.3536-10.0352-37.7344v-113.664s-0.6656-25.344 51.3536-17.8176c52.0192 7.5264 145.8688 17.1008 321.8432 162.304 15.0528 12.3392 35.9424 27.904 91.7504-29.44 94.6176-88.2688 344.6784-197.632 359.2704-119.7056 0-10.2912-4.352-20.224-11.9296-27.1872a36.68992 36.68992 0 0 0-27.8016-9.6256z" fill="#F7AC5C" /><path d="M934.7072 799.1296v-22.3744c0 35.9424-29.9008 39.0144-66.1504 39.0144-155.392 8.192-282.1632 85.9136-315.0336 109.8752-32.8704 23.9616-47.9232 18.4832-60.2624 13.0048-216.3712-112.9984-372.6848-101.2736-372.6848-101.2736 1.536 0.3072 3.1232 0.5632 4.7104 0.6656 63.232 4.352 225.3824 25.6 364.8512 128.1024a39.0656 39.0656 0 0 0 23.2448 7.5776c7.424 0 14.7968-2.0992 21.248-6.2976 168.4992-110.0288 300.6464-129.6384 364.4416-131.5328 19.6096-0.4608 35.6352-16.9984 35.6352-36.7616z" fill="#E47300" /><path d="M914.176 559.4624c-3.6352-3.328-8.5504-4.9152-13.3632-4.4544-184.1152 18.2272-278.5792 87.8592-374.5792 170.1888a18.8928 18.8928 0 0 1-25.4976-0.768C343.7056 573.44 172.4928 555.5712 123.6992 553.728c-4.6592-0.1536-9.1648 1.536-12.5952 4.864-3.5328 3.4304-5.5808 8.2944-5.5808 13.312v24.0128c0 4.1472 1.3824 7.936 3.6352 10.9568l4.5056-31.6928s-1.792-9.0112 34.6624-5.376c36.4544 3.584 189.4912 29.2864 331.2128 153.9072 16.4352 13.6704 34.4064 27.5456 61.6448 0 27.2384-27.5456 165.0688-142.4384 349.2352-159.5392 16.384-0.6656 25.3952-3.7888 29.696 10.8032v-1.8432c0.0512-5.2224-2.1504-10.1888-5.9392-13.6704z" fill="#FAE56F" /><path d="M920.1664 593.4592v-3.4304c-1.9456 4.096-8.704 9.216-29.3888 11.776-37.3248 4.608-212.736 17.8176-361.9328 164.352-8.8064 8.9088-15.6672 23.6032-46.848-10.2912-16.0768-17.4592-135.5264-147.968-355.5328-141.6192 0.1024 0.0512 0.2048 0.0512 0.3072 0.1024 145.1008 8.2944 269.1072 65.024 368.5888 168.8064 4.608 4.8128 10.8032 7.4752 17.408 7.5264h0.0512c6.656 0 12.9536-2.6624 17.664-7.5776 144.7936-149.1456 322.048-169.0112 372.9408-171.5712 9.4208-0.4096 16.7424-8.3968 16.7424-18.0736z" fill="#E4CA2A" /><path d="M192.8704 416.512c-5.2736 0-10.5984-1.3824-15.3088-3.9424L90.368 364.544c-15.5648-8.6016-24.9344-24.32-25.0368-42.0864-0.1024-17.7664 9.0624-33.6384 24.5248-42.3936l399.36-226.1504a48.64 48.64 0 0 1 47.6672 0l400.64 226.4064c15.4624 8.7552 24.6272 24.5248 24.576 42.2912-0.0512 17.7664-9.3696 33.4848-24.8832 42.1376l-85.504 47.5648a31.45216 31.45216 0 0 1-31.488-0.3584 31.40096 31.40096 0 0 1-15.616-27.3408c0-9.3696-5.5296-17.408-14.0288-20.4288-62.208-22.1184-285.7984-87.4496-551.3728 0.4608a21.2736 21.2736 0 0 0-14.6944 20.224c0 11.3152-5.8368 21.504-15.5648 27.2896-4.9152 2.816-10.496 4.352-16.0768 4.352z m320.2048-363.7248c-7.3728 0-14.7456 1.8432-21.2992 5.5808l-399.36 226.1504c-13.824 7.8336-22.0672 22.016-21.9648 37.9392 0.1024 15.9232 8.448 30.0032 22.4256 37.632l87.1936 47.9744c8.1408 4.5056 18.3296 4.352 26.3168-0.4096a26.2656 26.2656 0 0 0 13.056-22.8864c0-11.4176 7.3216-21.4528 18.176-25.088 267.1104-88.4736 492.0832-22.6816 554.7008-0.4096 10.5984 3.7888 17.4592 13.6704 17.4592 25.2928 0 9.5232 4.9152 18.0736 13.1072 22.9376 8.192 4.8128 18.0736 4.9664 26.368 0.3072l85.504-47.5648c13.8752-7.7312 22.1696-21.8112 22.2208-37.6832 0.0512-15.872-8.1408-30.0032-21.9648-37.8368l-400.64-226.4064a43.76576 43.76576 0 0 0-21.2992-5.5296z" fill="#472F7E" /><path d="M917.4528 538.8288c-4.352 0-8.4992-1.6896-11.5712-4.8128l-35.1232-35.1232a16.34816 16.34816 0 0 1 0-23.1424l32.2048-32.2048V377.856l28.9792-16.128v81.8176l32.2048 32.2048a16.34816 16.34816 0 0 1 0 23.1424l-35.072 35.1232c-3.1232 3.1232-7.2192 4.8128-11.6224 4.8128z m-9.3184-157.952v64.8192l-33.6896 33.6896c-4.4032 4.4032-4.4032 11.52 0 15.9232l35.1232 35.1232c4.2496 4.2496 11.6736 4.2496 15.9232 0l35.072-35.1232c4.4032-4.4032 4.4032-11.52 0-15.9232l-33.6896-33.6896v-75.264l-18.7392 10.4448zM513.3312 691.5584c-9.4208 0-18.176-4.0448-24.064-11.1104-73.1648-87.1936-159.9488-115.968-205.2096-125.3376-18.2272-3.7888-31.488-20.0704-31.488-38.7072V427.1104c0-24.9856 16.7936-46.8992 40.8576-53.3504 40.6016-10.8544 123.1872-29.0304 220.2112-29.0304 97.1264 0 180.224 18.2272 221.0816 29.0816 24.1152 6.4 40.9088 28.3648 40.9088 53.3504v90.8288c0 18.432-12.9536 34.6112-30.8224 38.5536-47.872 10.5472-138.496 40.6016-207.2064 123.5968a31.4112 31.4112 0 0 1-24.2688 11.4176z m0.256-341.7088c-96.4096 0-178.5344 18.0736-218.88 28.8256-21.8112 5.8368-37.0176 25.7024-37.0176 48.384v89.2928c0 16.2304 11.52 30.4128 27.392 33.6896 45.8752 9.5232 133.9392 38.7072 208.0768 127.0784 4.9664 5.888 12.288 9.3184 20.0704 9.3184 7.9872 0 15.36-3.4816 20.3776-9.5232 69.6832-84.1728 161.536-114.6368 210.0736-125.3376 15.5136-3.4304 26.8288-17.5104 26.8288-33.536V427.1616c0-22.6816-15.2576-42.5984-37.12-48.384-40.6528-10.8032-123.2384-28.928-219.8016-28.928z" fill="#472F7E" /><path d="M513.3312 976.3328c-8.8576 0-17.664-2.8672-24.7296-8.0896-138.9056-102.0928-300.4928-123.2896-363.52-127.6416-20.5824-1.4336-36.7104-18.7392-36.7104-39.3728v-121.4464c0-10.8032 4.2496-20.8384 11.9808-28.3648a39.1936 39.1936 0 0 1 28.3648-11.1104c70.7072 1.9456 212.0704 26.4192 364.3392 168.3456a28.71296 28.71296 0 0 0 38.7584 0.512c73.8304-65.28 191.7952-153.6512 363.1104-167.2192 11.008-0.8704 21.5552 2.816 29.6448 10.2912a39.7312 39.7312 0 0 1 12.7488 29.0816v117.76c0 21.1456-17.152 38.8096-38.1952 39.424-63.488 1.8944-195.1232 21.4016-363.1104 131.1232a41.40032 41.40032 0 0 1-22.6816 6.7072z m-385.7408-330.8544c-8.8576 0-17.2544 3.4304-23.6544 9.6256a34.304 34.304 0 0 0-10.4448 24.7296v121.4464c0 17.9712 14.0288 33.024 31.9488 34.2528 63.488 4.4032 226.2016 25.7024 366.1824 128.6144 11.8784 8.7552 29.2352 9.2672 41.5232 1.2288 169.0112-110.3872 301.7216-130.048 365.7216-131.9424 18.3296-0.5632 33.2288-15.9232 33.2288-34.304v-117.76c0-9.5744-4.0448-18.7904-11.1104-25.344a33.97632 33.97632 0 0 0-25.8048-8.96c-169.728 13.4656-286.8224 101.1712-360.0896 165.9904a33.8176 33.8176 0 0 1-45.6192-0.5632c-151.04-140.8-291.0208-165.0688-361.0112-166.9632-0.2048-0.0512-0.5632-0.0512-0.8704-0.0512z" fill="#472F7E" /><path d="M512.8192 793.2416c-7.3728 0-14.2336-2.9696-19.3536-8.2944-100.0448-104.3968-225.024-161.024-371.456-168.3456-10.7008-0.512-19.0464-9.6256-19.0464-20.6336v-24.0128c0-5.7344 2.304-11.2128 6.4-15.1552 3.8912-3.7376 9.1648-5.6832 14.4384-5.5808 48.9984 1.8944 221.0304 19.8144 378.7264 171.4176a16.36864 16.36864 0 0 0 22.0672 0.6656c96.3584-82.6368 191.1296-152.5248 376.0128-170.8032 5.5808-0.512 11.1616 1.3312 15.36 5.12 4.352 3.9424 6.8096 9.5744 6.8096 15.5136v20.3776c0 11.0592-8.3968 20.1216-19.0976 20.6848-50.6368 2.5088-227.1232 22.3232-371.2512 170.8032-5.3248 5.3248-12.2368 8.2432-19.6096 8.2432z m-389.6832-236.9024c-3.84 0-7.4752 1.4848-10.2912 4.1472-3.072 2.9696-4.8128 7.1168-4.8128 11.4688v24.0128c0 8.3456 6.2464 15.1552 14.1824 15.5648 147.8144 7.3728 273.92 64.5632 374.9376 169.9328 4.1472 4.3008 9.6768 6.7072 15.616 6.7072 6.0416 0 11.6736-2.4064 15.9232-6.7584 145.408-149.8112 323.5328-169.7792 374.6816-172.3392 7.9872-0.4096 14.2336-7.2192 14.2336-15.5648v-20.3776c0-4.5056-1.8944-8.7552-5.12-11.7248-3.1232-2.816-7.2704-4.1984-11.4176-3.7888-183.3984 18.1248-277.504 87.552-373.1968 169.5744a21.36576 21.36576 0 0 1-28.928-0.8704c-156.3648-150.3744-326.8096-168.1408-375.3472-169.984h-0.4608z" fill="#472F7E" /></svg>