<?xml version="1.0" standalone="no"?><!DOCTYPE svg PUBLIC "-//W3C//DTD SVG 1.1//EN" "http://www.w3.org/Graphics/SVG/1.1/DTD/svg11.dtd"><svg class="icon" width="200px" height="200.00px" viewBox="0 0 1024 1024" version="1.1" xmlns="http://www.w3.org/2000/svg"><path d="M828.9792 953.3952H200.192c-79.7696 0-144.4352-64.6656-144.4352-144.4352V351.3856c0-79.7696 64.6656-144.4352 144.4352-144.4352h628.7872c79.7696 0 144.4352 64.6656 144.4352 144.4352V808.96c0 79.7696-64.6656 144.4352-144.4352 144.4352z" fill="#4B8DFD" /><path d="M785.2544 258.1504H243.968c-68.6592 0-124.3648 64.6656-124.3648 144.4352v18.9952c0-117.6576 123.9552-111.104 123.9552-111.104h528.896c105.7792 0 137.1136 141.0048 137.1136 141.0048v-48.896c0-79.7696-55.6544-144.4352-124.3136-144.4352z" fill="#76A4FF" /><path d="M802.2528 894.0032H226.9184c-73.0112 0-132.1472-64.6656-132.1472-144.4352v-18.9952c0 117.6576 131.7376 111.104 131.7376 111.104h562.176c112.4352 0 145.7152-141.0048 145.7152-141.0048v48.896c0 79.7696-59.136 144.4352-132.1472 144.4352z" fill="#4479E2" /><path d="M351.6928 206.9504h82.6368L360.0896 78.336a35.80928 35.80928 0 0 0-48.896-13.1072 35.80928 35.80928 0 0 0-13.1072 48.896l53.6064 92.8256zM673.6896 206.9504l53.6064-92.8256c9.8816-17.1008 3.9936-39.0144-13.1072-48.896-17.1008-9.8816-39.0144-3.9936-48.896 13.1072l-74.24 128.6144h82.6368z" fill="#F29727" /><path d="M675.0208 574.4128L451.4304 445.3376c-21.6064-12.4928-48.5888 3.1232-48.5888 28.0576v258.2016c0 24.9344 26.9824 40.5504 48.5888 28.0576l223.5904-129.0752c21.6064-12.4928 21.6064-43.6736 0-56.1664z" fill="#F7CC37" /><path d="M469.7088 489.984l218.2656 98.4064a32 32 0 0 0-12.9536-13.9776L451.4304 445.3376c-21.6064-12.4928-48.5888 3.1232-48.5888 28.0576v71.5264c-0.0512-77.824 66.8672-54.9376 66.8672-54.9376z" fill="#FFD96E" /><path d="M451.4304 759.6544l223.5904-129.0752a31.82592 31.82592 0 0 0 15.36-20.8896L470.9888 714.24s-41.8304 20.2752-52.2752-16.9984c-10.4448-37.2736-15.9232-89.5488-15.9232-89.5488v123.904c0 24.9344 27.0336 40.4992 48.64 28.0576z" fill="#E2AF23" /><path d="M360.0896 78.336a35.80928 35.80928 0 0 0-48.896-13.1072 35.80928 35.80928 0 0 0-13.1072 48.896l19.8656 34.4064c-6.1952-10.752-24.2176-46.7968 4.8128-63.9488 29.0304-17.152 64.8192 41.4208 64.8192 41.4208l-27.4944-47.6672zM714.1376 65.28c-17.1008-9.8816-39.0144-3.9936-48.896 13.1072l-18.9952 32.8704c21.1456-31.2832 37.3248-36.1984 56.9344-25.6512 21.5552 11.5712 7.936 56.4736 7.936 56.5248l16.128-27.904c9.8816-17.2032 4.0448-39.0656-13.1072-48.9472z" fill="#F7AC5C" /><path d="M828.9792 206.9504H200.192c-79.7696 0-144.4352 64.6656-144.4352 144.4352V808.96c0 79.7696 64.6656 144.4352 144.4352 144.4352h628.7872c79.7696 0 144.4352-64.6656 144.4352-144.4352V351.3856c0-79.7696-64.6656-144.4352-144.4352-144.4352z m61.6448 586.5984c0 51.0976-41.4208 92.5184-92.5184 92.5184H231.0656c-51.0976 0-92.5184-41.4208-92.5184-92.5184V366.7968c0-51.0976 41.4208-92.5184 92.5184-92.5184h567.0912c51.0976 0 92.5184 41.4208 92.5184 92.5184v426.752z" fill="#F29727" /><path d="M972.9536 340.3264c-5.6832-74.5984-67.9424-133.3248-143.9744-133.3248H200.192c-79.7696 0-144.4352 64.6656-144.4352 144.4352 25.9584-124.8768 133.5296-111.7696 133.5296-111.7696h652.288c91.5456 0 127.0784 88.832 131.3792 100.6592z" fill="#F7AC5C" /><path d="M200.192 953.3952h628.7872c79.7696 0 144.4352-64.6656 144.4352-144.4352 0 0-35.072 106.5472-131.84 106.5472H189.2864s-118.0672 2.56-133.5296-106.5472c0 79.7696 64.6656 144.4352 144.4352 144.4352z" fill="#F47706" /><path d="M798.1568 271.7184H231.0656c-52.4288 0-95.0784 42.6496-95.0784 95.0784v426.752c0 52.4288 42.6496 95.0784 95.0784 95.0784h567.0912c52.4288 0 95.0784-42.6496 95.0784-95.0784V366.7968c-0.0512-52.4288-42.6496-95.0784-95.0784-95.0784z m89.9072 521.8304c0 49.6128-40.3456 89.9584-89.9584 89.9584H231.0656c-49.6128 0-89.9584-40.3456-89.9584-89.9584V366.7968c0-49.6128 40.3456-89.9584 89.9584-89.9584h567.0912c49.6128 0 89.9584 40.3456 89.9584 89.9584v426.752z" fill="#472F7E" /><path d="M828.9792 204.3904h-150.8864l51.3536-88.9856c10.5472-18.3296 4.2496-41.8304-14.0288-52.3776-18.3296-10.5984-41.7792-4.3008-52.3776 14.0288l-73.5232 127.3344H435.8144L362.2912 77.056c-5.12-8.8576-13.3632-15.2064-23.296-17.8688a38.01088 38.01088 0 0 0-29.0816 3.84c-8.8576 5.12-15.2064 13.3632-17.8688 23.296-2.6624 9.8816-1.28 20.224 3.84 29.0816l51.3536 88.9856H200.192c-81.0496 0-146.9952 65.9456-146.9952 146.9952V808.96c0 81.0496 65.9456 146.9952 146.9952 146.9952h628.7872c81.0496 0 146.9952-65.9456 146.9952-146.9952V351.3856c0-81.0496-65.9456-146.9952-146.9952-146.9952z m-161.4848-124.7744c9.1648-15.872 29.4912-21.2992 45.4144-12.1856 7.68 4.4544 13.2096 11.6224 15.4624 20.1728 2.304 8.5504 1.1264 17.5104-3.328 25.1904l-52.8384 91.5456H595.456l72.0384-124.7232z m-367.1552 33.2288c-4.4544-7.68-5.632-16.64-3.328-25.1904a33.1264 33.1264 0 0 1 15.4624-20.1728c7.68-4.4544 16.64-5.632 25.1904-3.328a33.1264 33.1264 0 0 1 20.1728 15.4624l72.0384 124.7744H353.1776L300.3392 112.8448zM970.8544 808.96c0 78.2336-63.6416 141.8752-141.8752 141.8752H200.192c-78.2336 0-141.8752-63.6416-141.8752-141.8752V351.3856c0-78.2336 63.6416-141.8752 141.8752-141.8752H828.9792c78.2336 0 141.8752 63.6416 141.8752 141.8752V808.96z" fill="#472F7E" /><path d="M676.3008 572.2112L452.7104 443.0848a34.72384 34.72384 0 0 0-34.9696 0c-10.9568 6.2976-17.4592 17.664-17.4592 30.2592v258.2016c0 12.6464 6.5536 23.9616 17.4592 30.2592 5.4784 3.1744 11.4688 4.7616 17.5104 4.7616 5.9904 0 11.9808-1.5872 17.4592-4.7616l223.5904-129.0752c10.9568-6.2976 17.4592-17.6128 17.4592-30.2592s-6.5024-23.9616-17.4592-30.2592z m-2.56 56.1152l-223.5904 129.0752c-9.3184 5.376-20.48 5.376-29.8496 0a29.54752 29.54752 0 0 1-14.8992-25.856V473.3952c0-10.8032 5.5808-20.4288 14.8992-25.856a29.51168 29.51168 0 0 1 29.7984 0l223.5904 129.0752c9.3696 5.376 14.8992 15.0528 14.8992 25.856s-5.5296 20.48-14.848 25.856z" fill="#472F7E" /></svg>