<?xml version="1.0" standalone="no"?><!DOCTYPE svg PUBLIC "-//W3C//DTD SVG 1.1//EN" "http://www.w3.org/Graphics/SVG/1.1/DTD/svg11.dtd"><svg class="icon" width="200px" height="200.00px" viewBox="0 0 1024 1024" version="1.1" xmlns="http://www.w3.org/2000/svg"><path d="M252.8768 867.8912h184.6272a42.0864 42.0864 0 0 0 42.0864-42.0864v-146.4832c0-7.8336 3.9424-15.1552 10.496-19.5072 28.8256-19.2 107.1104-84.8896 107.1104-232.96 0-181.4528-101.376-274.7392-252.416-274.7392-146.0224 0-225.7408 84.2752-235.4688 191.5904-0.6144 6.656-5.0176 12.3392-11.264 14.7456-36.7616 13.9264-110.3872 57.2928-39.1168 196.1472 23.3984 40.2944 75.4176 95.2832 138.3424 116.1728 9.472 3.1744 15.7184 12.1856 15.6672 22.1696-0.3072 36.6592-1.3312 93.184-2.0992 131.9936-0.4608 23.6544 18.4832 42.9568 42.0352 42.9568z" fill="#4B8DFD" /><path d="M420.096 839.8848H214.0672c-9.9328 0-17.9712-8.0384-17.9712-17.9712v-115.456c0-9.9328 8.0384-17.9712 17.9712-17.9712h205.9776c9.9328 0 17.9712 8.0384 17.9712 17.9712v115.456a17.88416 17.88416 0 0 1-17.92 17.9712z" fill="#F79F00" /><path d="M103.8336 354.9696s150.0672-47.4112 167.3216 65.2288c20.6336 134.8096-140.2368 114.2272-140.2368 114.2272M513.4336 357.9904s-11.5712 171.9808-254.6688 135.68" fill="#4B8DFD" /><path d="M934.4 360.8576c-9.2672-2.56-16.3328-10.1888-18.3296-19.6096-15.3088-70.8608-65.4336-189.0304-222.5664-189.0304-97.28 0-152.2176 29.4912-181.4528 54.784 53.76 45.5168 85.1456 119.04 85.1456 219.9552 0 122.7776-53.8112 188.928-88.6272 218.8288 9.6768 5.8368 19.3536 11.6224 27.136 15.872 8.0384 4.4032 12.8 13.0048 12.3904 22.1696-1.9456 42.3936-2.7136 100.5056-3.0208 139.9808-0.2048 24.32 19.456 44.0832 43.776 44.0832h178.5344c24.1664 0 43.776-19.6096 43.776-43.776V694.784c0-9.9328 6.0928-18.7904 15.3088-22.4768 42.2912-16.7936 158.0544-76.544 165.7856-228.608 2.8672-57.856-35.6352-76.7488-57.856-82.8416z" fill="#4B8DFD" /><path d="M814.1824 834.1504h-270.1824c-9.9328 0-17.9712-8.0384-17.9712-17.9712v-115.456c0-9.9328 8.0384-17.9712 17.9712-17.9712h270.1824c9.9328 0 17.9712 8.0384 17.9712 17.9712v115.456c0 9.8816-8.0384 17.9712-17.9712 17.9712z" fill="#F29727" /><path d="M344.7808 152.2176c-146.0224 0-225.7408 84.2752-235.4688 191.5904-0.6144 6.656-5.0176 12.3392-11.264 14.7456-36.7616 13.9264-110.3872 57.2928-39.1168 196.1472 10.0864 17.3568 25.5488 37.4784 44.8512 56.4224-62.464-90.7776-54.9376-155.0848-30.0544-197.6832 61.44-89.088 169.2672-33.6896 192.6144-12.6976-25.0368-72.1408-119.808-54.272-119.808-54.272 1.9456-90.5216 75.2128-137.6256 126.4128-152.0128 137.1648-38.4 253.3376 28.1088 258.1504 30.8736-44.3904-48.4352-108.7488-73.1136-186.3168-73.1136z" fill="#76A4FF" /><path d="M479.5904 825.856v-146.4832c0-7.8336 3.9424-15.1552 10.496-19.5072 28.8256-19.2 107.1104-84.8896 107.1104-232.96 0-84.0704-21.8112-149.1968-60.16-194.8672 0 0 113.8688 265.3184-68.1472 408.064-5.12 3.9936-8.0896 10.1888-8.2432 16.6912-1.3312 50.432 0.3584 160.3584 0.3584 160.3584s-0.9728 50.7392-38.7072 50.7392h15.3088c23.1936 0 41.984-18.7904 41.984-42.0352zM268.4928 412.7232s4.4544 107.4176-138.0864 120.1664c26.3168 4.7616 82.8416 4.1472 121.2416-30.3616 9.8304-8.448 30.9248-42.496 16.8448-89.8048z" fill="#4479E2" /><path d="M512.5632 357.4784s-75.776 150.6304-244.0704 116.3264c-6.8608 13.4144-4.6592 15.4112-8.2432 19.3024 7.168 1.7408 111.7696 19.2 172.544-19.3024 23.2448-14.1824 68.9664-35.9424 79.7696-116.3264z" fill="#4479E2" /><path d="M471.04 443.648l18.6368-22.528s42.3936 29.44 43.1616 66.6624c-5.5808-6.9632-33.1264-40.192-61.7984-44.1344z" fill="#4479E2" /><path d="M420.096 688.4864H214.0672c-9.9328 0-17.9712 8.0384-17.9712 17.9712v115.456c0 9.9328 8.0384 17.9712 17.9712 17.9712h0.512v-124.16c0-5.2224 4.2496-9.472 9.472-9.472h190.5152s23.5008-4.5568 23.5008 18.944v-18.7392c0-9.9328-8.0384-17.9712-17.9712-17.9712z" fill="#F7AC5C" /><path d="M438.0672 821.9136V761.856c-2.2016 27.5968-10.6496 60.7744-38.5024 60.7744-47.7184 0-184.9344 3.2768-184.9344 3.2768s-15.36 0.768-18.4832-4.9664v1.024c0 9.9328 8.0384 17.9712 17.9712 17.9712h205.9776a18.03776 18.03776 0 0 0 17.9712-18.0224z" fill="#F47706" /><path d="M905.0112 302.2336c-24.1664-68.2496-80.8448-150.016-211.456-150.016-97.28 0-152.2176 29.4912-181.4528 54.784 8.9088 7.5264 17.1008 15.9232 24.7296 24.9344l0.2048 0.1024c0 0.0512 215.2448-131.1232 367.9744 70.1952z" fill="#76A4FF" /><path d="M905.0112 305.0496s13.312 96.4608-16.5888 160.6656c6.3488-4.8128 55.3984-54.016 16.5888-160.6656z" fill="#4479E2" /><path d="M918.3744 346.5728s3.7376 12.2368 24.9344 17.152c11.5712 5.376 69.5296 25.1904 42.9056 126.1056-4.0448-38.3488 2.816-92.2624-44.7488-111.36-14.6944-7.3728-18.944-11.9808-21.6064-20.1216-1.28-7.5776-1.4848-11.776-1.4848-11.776zM985.6512 491.8272c-2.6112 4.8128-71.4752 129.4336-159.2832 162.0992-13.056 4.5568-18.2784 21.6576-17.664 28.7744h5.6832c2.6624-4.6592 6.8096-8.3968 12.032-10.4448 37.4784-14.8992 132.7104-63.5904 159.232-180.4288z" fill="#4479E2" /><path d="M814.1824 682.752h-270.1824c-9.9328 0-17.9712 8.0384-17.9712 17.9712v115.456c0 9.9328 8.0384 17.9712 17.9712 17.9712h0.4096l2.3552-133.12h269.1072s16.2816 0 16.2816 18.1248v-18.432c0-9.9328-8.0384-17.9712-17.9712-17.9712z" fill="#F7AC5C" /><path d="M832.1536 816.128v-71.936c-0.3072 16.896-3.9936 71.0144-38.3488 71.0144H545.0752s-19.0976 1.6384-19.0976-14.3872v15.3088c0 9.9328 8.0384 17.9712 17.9712 17.9712h270.1824a17.9712 17.9712 0 0 0 18.0224-17.9712z" fill="#F47706" /><path d="M935.0656 358.3488c-8.3456-2.304-14.6432-9.0624-16.5376-17.664-15.4112-71.3728-65.1776-191.0272-225.0752-191.0272-96.9216 0-152.1664 29.2352-181.7088 54.272-42.2912-35.2768-98.7648-54.272-167.0144-54.272-135.9872 0-227.1744 74.2912-237.9776 193.9456-0.3072 3.6352-1.9968 6.912-4.5568 9.3696l-0.1536 0.1536c-1.3824 1.28-3.072 2.3552-4.9664 3.072C64.9216 368.384 43.3664 388.0448 33.0752 414.72c-13.8752 36.096-5.9904 83.6096 23.6032 141.2608 25.4464 43.7248 78.4896 96.9728 139.776 117.3504 6.144 2.048 10.9056 7.0144 12.8512 13.2096-9.0112 2.1504-15.7696 10.24-15.7696 19.9168v115.456c0 10.4448 7.8848 18.9952 17.9712 20.2752 6.7072 16.9472 23.0912 28.3136 41.3696 28.3136h184.6272c24.6272 0 44.6464-20.0192 44.6464-44.6464v-146.4832c0-6.9632 3.4816-13.4656 9.3696-17.3568 4.9152-3.2768 10.8544-7.5776 17.3568-13.056 10.3424 6.2464 18.9952 11.3152 25.6 14.9504 6.0416 3.328 10.0352 9.4208 10.8544 16.2816h-1.3312c-11.3152 0-20.5312 9.216-20.5312 20.5312v115.456c0 11.3152 9.216 20.5312 20.5312 20.5312h0.256a46.0288 46.0288 0 0 0 44.4928 33.792h178.5344c20.9408 0 38.912-13.824 44.544-33.792h2.3552c11.3152 0 20.5312-9.216 20.5312-20.5312v-115.456c0-9.6768-6.7584-17.8176-15.8208-19.9168 2.304-2.7136 5.1712-4.8128 8.448-6.144 47.7696-18.9952 159.744-79.5136 167.424-230.912 2.9696-59.2384-36.096-78.8992-59.6992-85.4016zM198.656 821.9136v-115.456a15.36 15.36 0 0 1 13.9776-15.2576h0.0512l0.7168-0.1024c0.2048-0.0512 0.4096-0.0512 0.6656-0.0512h205.9776c8.4992 0 15.4112 6.912 15.4112 15.4112v115.456c0 8.4992-6.912 15.4112-15.4112 15.4112H213.9648c-0.0512 0-0.512-0.0512-0.6144-0.0512h-0.0512a15.44192 15.44192 0 0 1-14.6432-15.36z m290.048-164.1472a26.0096 26.0096 0 0 0-11.6224 21.6064v146.4832c0 21.76-17.7152 39.5264-39.5264 39.5264H252.8768a39.5264 39.5264 0 0 1-35.84-22.9376h203.008c11.3152 0 20.5312-9.216 20.5312-20.5312v-115.456c0-11.3152-9.216-20.5312-20.5312-20.5312H214.528a25.5232 25.5232 0 0 0-16.4352-17.5104c-59.9552-19.9168-112.0256-72.1408-136.9088-114.944C32.3584 497.3056 24.5248 451.2256 37.888 416.5632c9.728-25.2416 30.2592-43.9296 61.0816-55.6032 2.2528-0.8704 4.3008-2.1504 6.0928-3.6864 6.1952-1.8432 81.664-23.6032 128.1536 5.3248 19.456 12.0832 31.3856 31.6416 35.3792 58.0096 5.3248 34.9696-1.3312 62.3104-19.8144 81.2544-38.656 39.5776-116.7872 30.1568-117.5552 30.0032a2.60608 2.60608 0 0 0-2.8672 2.2016c-0.2048 1.3824 0.8192 2.6624 2.2016 2.8672 1.0752 0.1536 9.984 1.2288 22.9376 1.2288 27.0336 0 71.5776-4.7616 98.9184-32.768 2.7648-2.816 5.2224-5.8368 7.4752-9.0112 22.1696 3.2256 43.0592 4.864 62.6176 4.864 56.9856 0 102.912-13.7728 136.9088-41.1136 5.4784-4.4032 10.3936-9.0112 14.848-13.7216 38.7584 9.3184 54.5792 42.0352 54.7328 42.3424 0.4096 0.9216 1.3824 1.4848 2.304 1.4848 0.3584 0 0.7168-0.1024 1.0752-0.256 1.28-0.6144 1.8432-2.0992 1.2288-3.3792-0.6656-1.4336-16.2816-33.7408-55.4496-44.4416 34.3552-39.0656 37.7856-83.5584 37.8368-84.0704a2.53952 2.53952 0 0 0-2.4064-2.7136 2.67264 2.67264 0 0 0-2.7136 2.4064c0 0.6144-4.4544 58.0096-54.6304 98.4064-44.0832 35.4816-109.056 47.36-193.1776 35.4816 11.4176-18.7904 15.0016-42.8544 10.5984-71.8848-4.2496-27.9552-16.9984-48.64-37.7344-61.5936-42.1888-26.2656-104.8064-13.2096-125.7984-7.68 0.9216-1.9968 1.5872-4.1984 1.792-6.4512 10.5472-116.736 99.7888-189.2864 232.9088-189.2864 136.6016 0 225.1264 77.6192 245.4016 210.7392l0.3072 2.048c0.5632 3.8912 1.0752 7.8848 1.536 11.8784 0.2048 1.6896 0.3584 3.4304 0.512 5.1712 0.3072 3.2256 0.6144 6.5024 0.8704 9.8304 0.2048 2.816 0.3584 5.7344 0.512 8.6016 0.1536 2.4064 0.3072 4.8128 0.4096 7.2704 0.2048 5.4784 0.3072 11.008 0.3072 16.64 0 4.1472-0.0512 8.2432-0.2048 12.2368-0.0512 1.8432-0.1536 3.6352-0.256 5.4784-0.1024 1.9968-0.1536 4.0448-0.3072 6.0416-0.1536 2.5088-0.3072 4.9664-0.512 7.4752-0.1024 1.024-0.1536 2.048-0.256 3.072-9.0112 101.2224-56.6784 157.184-86.272 182.6304-0.0512 0.0512-0.1024 0.1536-0.1536 0.256-6.7584 5.7344-12.9536 10.24-18.0224 13.6192z m278.6304 207.5648H588.8c-18.1248 0-33.8432-11.6224-39.2192-28.672h256.9728a40.94976 40.94976 0 0 1-39.2192 28.672z m62.2592-164.608v115.456c0 8.4992-6.912 15.4112-15.4112 15.4112h-270.1312c-8.4992 0-15.4112-6.912-15.4112-15.4112v-115.456c0-8.4992 6.912-15.4112 15.4112-15.4112h270.336c8.3968 0.1024 15.2064 6.9632 15.2064 15.4112z m160.0512-257.2288c-7.5264 148.4288-117.3504 207.7696-164.1984 226.4064-5.0688 1.9968-9.472 5.632-12.544 10.2912h-262.4512a26.47552 26.47552 0 0 0-13.568-20.736c-6.2464-3.4304-14.2848-8.1408-23.9616-13.9776 32.6144-28.8256 76.8-85.4016 85.2992-184.1664 0.1024-1.1264 0.2048-2.2016 0.256-3.328 0.2048-2.3552 0.3584-4.7104 0.512-7.1168l0.3072-6.2976c0.0512-1.7408 0.1536-3.4816 0.2048-5.2224 0.1024-4.0448 0.2048-8.1408 0.2048-12.3392 0-5.6832-0.1024-11.3152-0.3072-16.8448-0.1024-2.304-0.256-4.5568-0.3584-6.8096-0.1536-3.1232-0.3072-6.2976-0.5632-9.3696-0.2048-3.0208-0.512-5.9392-0.8192-8.9088-0.2048-2.2016-0.4096-4.4032-0.6656-6.5536-0.4096-3.5328-0.8704-6.9632-1.3312-10.4448l-0.6144-4.2496c-0.6144-4.0448-1.28-7.9872-2.048-11.9296-0.1024-0.6144-0.2048-1.1776-0.3584-1.792-11.6224-60.1088-37.4784-108.8-76.6976-143.0016 29.1328-24.2688 83.1488-52.224 177.5104-52.224 156.2112 0 204.9024 117.0432 220.0064 186.88 13.9264 81.2544-24.1664 121.856-24.5248 122.2656-0.9728 1.024-0.9728 2.6624 0.0512 3.6352a2.60096 2.60096 0 0 0 3.6352-0.0512c1.536-1.5872 35.7888-37.9904 27.904-112.1792 3.4816 3.7888 7.9872 6.5536 13.1584 7.9872 22.1184 5.9392 58.7776 24.4224 55.9616 80.0768z" fill="#472F7E" /></svg>